G04*
G04 #@! TF.GenerationSoftware,Altium Limited,Altium Designer,24.4.1 (13)*
G04*
G04 Layer_Color=8421504*
%FSLAX44Y44*%
%MOMM*%
G71*
G04*
G04 #@! TF.SameCoordinates,79C69C62-86B7-489C-B206-AEF25DFC5C41*
G04*
G04*
G04 #@! TF.FilePolarity,Positive*
G04*
G01*
G75*
G04:AMPARAMS|DCode=16|XSize=1.05mm|YSize=1.05mm|CornerRadius=0.105mm|HoleSize=0mm|Usage=FLASHONLY|Rotation=0.000|XOffset=0mm|YOffset=0mm|HoleType=Round|Shape=RoundedRectangle|*
%AMROUNDEDRECTD16*
21,1,1.0500,0.8400,0,0,0.0*
21,1,0.8400,1.0500,0,0,0.0*
1,1,0.2100,0.4200,-0.4200*
1,1,0.2100,-0.4200,-0.4200*
1,1,0.2100,-0.4200,0.4200*
1,1,0.2100,0.4200,0.4200*
%
%ADD16ROUNDEDRECTD16*%
G04:AMPARAMS|DCode=17|XSize=2.2mm|YSize=1.05mm|CornerRadius=0.105mm|HoleSize=0mm|Usage=FLASHONLY|Rotation=90.000|XOffset=0mm|YOffset=0mm|HoleType=Round|Shape=RoundedRectangle|*
%AMROUNDEDRECTD17*
21,1,2.2000,0.8400,0,0,90.0*
21,1,1.9900,1.0500,0,0,90.0*
1,1,0.2100,0.4200,0.9950*
1,1,0.2100,0.4200,-0.9950*
1,1,0.2100,-0.4200,-0.9950*
1,1,0.2100,-0.4200,0.9950*
%
%ADD17ROUNDEDRECTD17*%
%ADD18R,1.4000X1.0000*%
%ADD19R,1.4000X1.4000*%
%ADD20R,0.8000X0.3000*%
%ADD21R,0.6000X0.6400*%
%ADD22R,0.6000X0.5000*%
%ADD23R,0.5000X0.6000*%
%ADD24R,3.4500X4.3500*%
%ADD25R,1.0500X0.4500*%
%ADD26R,0.9000X1.0000*%
%ADD27R,1.4750X0.3000*%
%ADD28R,0.3000X1.4750*%
%ADD29R,1.4750X0.4500*%
%ADD30R,1.0500X0.4000*%
%ADD31R,0.6400X0.6000*%
%ADD32R,0.9000X0.4500*%
%ADD33R,0.6000X1.1500*%
%ADD34R,0.8000X2.7000*%
%ADD35R,1.2500X1.6500*%
%ADD36R,1.0000X0.9000*%
%ADD37C,0.4200*%
%ADD38R,1.8000X1.3000*%
%ADD39R,1.3000X1.8000*%
%ADD40R,0.8000X0.9000*%
%ADD41R,0.9500X0.9000*%
%ADD42R,2.0000X0.3800*%
%ADD43R,1.1000X1.3000*%
D16*
X890000Y657500D02*
D03*
X937500D02*
D03*
D17*
X875000Y672500D02*
D03*
X905400D02*
D03*
X922500D02*
D03*
X952900D02*
D03*
D18*
X889250Y620500D02*
D03*
Y639500D02*
D03*
X911250D02*
D03*
D19*
Y622500D02*
D03*
D20*
X766000Y567500D02*
D03*
Y572500D02*
D03*
Y577500D02*
D03*
Y582500D02*
D03*
X734000D02*
D03*
Y577500D02*
D03*
Y572500D02*
D03*
Y567500D02*
D03*
D21*
X745600Y552500D02*
D03*
X754400D02*
D03*
X495400Y293000D02*
D03*
X486600D02*
D03*
X720400Y442000D02*
D03*
X711600D02*
D03*
X659400Y303000D02*
D03*
X650600D02*
D03*
X593100Y667500D02*
D03*
X601900D02*
D03*
X620600Y650000D02*
D03*
X629400D02*
D03*
Y667500D02*
D03*
X620600D02*
D03*
X735600Y446000D02*
D03*
X744400D02*
D03*
X452400Y500000D02*
D03*
X443600D02*
D03*
X450400Y405000D02*
D03*
X441600D02*
D03*
X714400Y665000D02*
D03*
X705600D02*
D03*
X745400Y532000D02*
D03*
X736600D02*
D03*
X741900Y665000D02*
D03*
X733100D02*
D03*
X741900Y650000D02*
D03*
X733100D02*
D03*
X744400Y435000D02*
D03*
X735600D02*
D03*
X840600Y665000D02*
D03*
X849400D02*
D03*
X840600Y650000D02*
D03*
X849400D02*
D03*
X821900Y665000D02*
D03*
X813100D02*
D03*
X861600Y489000D02*
D03*
X870400D02*
D03*
X745400Y484500D02*
D03*
X736600D02*
D03*
X443600Y587000D02*
D03*
X452400D02*
D03*
X443600Y677000D02*
D03*
X452400D02*
D03*
D22*
X649000Y363000D02*
D03*
Y353000D02*
D03*
X616000Y322000D02*
D03*
Y332000D02*
D03*
X680000Y353000D02*
D03*
Y363000D02*
D03*
X691000D02*
D03*
Y353000D02*
D03*
X724000Y343000D02*
D03*
Y333000D02*
D03*
Y363000D02*
D03*
Y353000D02*
D03*
X669000Y363000D02*
D03*
Y353000D02*
D03*
X649000Y332000D02*
D03*
Y322000D02*
D03*
X659000Y363000D02*
D03*
Y353000D02*
D03*
X468000Y305000D02*
D03*
Y315000D02*
D03*
X695000Y660000D02*
D03*
Y650000D02*
D03*
X802500Y660000D02*
D03*
Y650000D02*
D03*
X712000Y353000D02*
D03*
Y363000D02*
D03*
X627000Y322000D02*
D03*
Y332000D02*
D03*
X638000Y322000D02*
D03*
Y332000D02*
D03*
X594000D02*
D03*
Y322000D02*
D03*
X605000D02*
D03*
Y332000D02*
D03*
X594000Y344000D02*
D03*
Y354000D02*
D03*
X582000D02*
D03*
Y344000D02*
D03*
X712000Y333000D02*
D03*
Y343000D02*
D03*
X701000Y333000D02*
D03*
Y343000D02*
D03*
X701000Y353000D02*
D03*
Y363000D02*
D03*
X796000Y517500D02*
D03*
Y527500D02*
D03*
X580000Y650000D02*
D03*
Y660000D02*
D03*
D23*
X650000Y293000D02*
D03*
X660000D02*
D03*
X555000Y318000D02*
D03*
X545000D02*
D03*
Y307000D02*
D03*
X555000D02*
D03*
X523000Y318000D02*
D03*
X533000D02*
D03*
X555000Y261000D02*
D03*
X545000D02*
D03*
X660000Y259000D02*
D03*
X650000D02*
D03*
X545000Y296000D02*
D03*
X555000D02*
D03*
X711000Y472000D02*
D03*
X721000D02*
D03*
X711000Y484500D02*
D03*
X721000D02*
D03*
X711000Y457000D02*
D03*
X721000D02*
D03*
X660000Y283000D02*
D03*
X650000D02*
D03*
X555000Y271000D02*
D03*
X545000D02*
D03*
X555000Y285000D02*
D03*
X545000D02*
D03*
X736000Y472000D02*
D03*
X746000D02*
D03*
X650000Y273000D02*
D03*
X660000D02*
D03*
X812500Y650000D02*
D03*
X822500D02*
D03*
X705000D02*
D03*
X715000D02*
D03*
X592500D02*
D03*
X602500D02*
D03*
D24*
X602000Y278000D02*
D03*
D25*
X630500Y297050D02*
D03*
Y284350D02*
D03*
Y271650D02*
D03*
Y258950D02*
D03*
X573500D02*
D03*
Y271650D02*
D03*
Y284350D02*
D03*
Y297050D02*
D03*
D26*
X745750Y421000D02*
D03*
X732250D02*
D03*
X854250Y615000D02*
D03*
X840750D02*
D03*
X634250Y635000D02*
D03*
X620750D02*
D03*
X854250Y632500D02*
D03*
X840750D02*
D03*
X733250Y615000D02*
D03*
X746750D02*
D03*
X869750Y502000D02*
D03*
X856250D02*
D03*
X869750Y519000D02*
D03*
X856250D02*
D03*
X733250Y632500D02*
D03*
X746750D02*
D03*
X634250Y615000D02*
D03*
X620750D02*
D03*
D27*
X760620Y485500D02*
D03*
Y480500D02*
D03*
Y475500D02*
D03*
Y470500D02*
D03*
Y465500D02*
D03*
Y460500D02*
D03*
Y455500D02*
D03*
Y450500D02*
D03*
Y445500D02*
D03*
Y440500D02*
D03*
Y435500D02*
D03*
Y430500D02*
D03*
X845380D02*
D03*
Y435500D02*
D03*
Y440500D02*
D03*
Y445500D02*
D03*
Y450500D02*
D03*
Y455500D02*
D03*
Y460500D02*
D03*
Y465500D02*
D03*
Y470500D02*
D03*
Y475500D02*
D03*
Y480500D02*
D03*
Y485500D02*
D03*
D28*
X775500Y415620D02*
D03*
X780500D02*
D03*
X785500D02*
D03*
X790500D02*
D03*
X795500D02*
D03*
X800500D02*
D03*
X805500D02*
D03*
X810500D02*
D03*
X815500D02*
D03*
X820500D02*
D03*
X825500D02*
D03*
X830500D02*
D03*
Y500380D02*
D03*
X825500D02*
D03*
X820500D02*
D03*
X815500D02*
D03*
X810500D02*
D03*
X805500D02*
D03*
X800500D02*
D03*
X795500D02*
D03*
X790500D02*
D03*
X785500D02*
D03*
X780500D02*
D03*
X775500D02*
D03*
D29*
X423380Y311750D02*
D03*
Y305250D02*
D03*
Y298750D02*
D03*
Y292250D02*
D03*
Y285750D02*
D03*
Y279250D02*
D03*
Y272750D02*
D03*
Y266250D02*
D03*
Y259750D02*
D03*
Y253250D02*
D03*
Y246750D02*
D03*
Y240250D02*
D03*
X364620D02*
D03*
Y246750D02*
D03*
Y253250D02*
D03*
Y259750D02*
D03*
Y266250D02*
D03*
Y272750D02*
D03*
Y279250D02*
D03*
Y285750D02*
D03*
Y292250D02*
D03*
Y298750D02*
D03*
Y305250D02*
D03*
Y311750D02*
D03*
X423000Y405000D02*
D03*
Y398500D02*
D03*
Y392000D02*
D03*
Y385500D02*
D03*
Y379000D02*
D03*
Y372500D02*
D03*
Y366000D02*
D03*
Y359500D02*
D03*
Y353000D02*
D03*
Y346500D02*
D03*
Y340000D02*
D03*
Y333500D02*
D03*
X364240D02*
D03*
Y340000D02*
D03*
Y346500D02*
D03*
Y353000D02*
D03*
Y359500D02*
D03*
Y366000D02*
D03*
Y372500D02*
D03*
Y379000D02*
D03*
Y385500D02*
D03*
Y392000D02*
D03*
Y398500D02*
D03*
Y405000D02*
D03*
X423880Y676750D02*
D03*
Y670250D02*
D03*
Y663750D02*
D03*
Y657250D02*
D03*
Y650750D02*
D03*
Y644250D02*
D03*
Y637750D02*
D03*
Y631250D02*
D03*
Y624750D02*
D03*
Y618250D02*
D03*
Y611750D02*
D03*
Y605250D02*
D03*
X365120D02*
D03*
Y611750D02*
D03*
Y618250D02*
D03*
Y624750D02*
D03*
Y631250D02*
D03*
Y637750D02*
D03*
Y644250D02*
D03*
Y650750D02*
D03*
Y657250D02*
D03*
Y663750D02*
D03*
Y670250D02*
D03*
Y676750D02*
D03*
X423880Y499750D02*
D03*
Y493250D02*
D03*
Y486750D02*
D03*
Y480250D02*
D03*
Y473750D02*
D03*
Y467250D02*
D03*
Y460750D02*
D03*
Y454250D02*
D03*
Y447750D02*
D03*
Y441250D02*
D03*
Y434750D02*
D03*
Y428250D02*
D03*
X365120D02*
D03*
Y434750D02*
D03*
Y441250D02*
D03*
Y447750D02*
D03*
Y454250D02*
D03*
Y460750D02*
D03*
Y467250D02*
D03*
Y473750D02*
D03*
Y480250D02*
D03*
Y486750D02*
D03*
Y493250D02*
D03*
Y499750D02*
D03*
X365120Y586750D02*
D03*
Y580250D02*
D03*
Y573750D02*
D03*
Y567250D02*
D03*
Y560750D02*
D03*
Y554250D02*
D03*
Y547750D02*
D03*
Y541250D02*
D03*
Y534750D02*
D03*
Y528250D02*
D03*
Y521750D02*
D03*
Y515250D02*
D03*
X423880D02*
D03*
Y521750D02*
D03*
Y528250D02*
D03*
Y534750D02*
D03*
Y541250D02*
D03*
Y547750D02*
D03*
Y554250D02*
D03*
Y560750D02*
D03*
Y567250D02*
D03*
Y573750D02*
D03*
Y580250D02*
D03*
Y586750D02*
D03*
D30*
X501000Y304500D02*
D03*
Y311000D02*
D03*
Y317500D02*
D03*
X481000D02*
D03*
Y304500D02*
D03*
D31*
X458000Y315600D02*
D03*
Y324400D02*
D03*
X448000Y324400D02*
D03*
Y315600D02*
D03*
X773500Y520100D02*
D03*
Y528900D02*
D03*
X832000Y400400D02*
D03*
Y391600D02*
D03*
D32*
X301500Y444500D02*
D03*
Y452500D02*
D03*
Y468500D02*
D03*
Y460500D02*
D03*
Y484500D02*
D03*
Y500500D02*
D03*
Y492500D02*
D03*
Y476500D02*
D03*
X318500D02*
D03*
Y492500D02*
D03*
Y500500D02*
D03*
Y484500D02*
D03*
Y460500D02*
D03*
Y468500D02*
D03*
Y452500D02*
D03*
Y444500D02*
D03*
X266500Y382000D02*
D03*
Y390000D02*
D03*
Y406000D02*
D03*
Y398000D02*
D03*
Y422000D02*
D03*
Y438000D02*
D03*
Y430000D02*
D03*
Y414000D02*
D03*
X283500D02*
D03*
Y430000D02*
D03*
Y438000D02*
D03*
Y422000D02*
D03*
Y398000D02*
D03*
Y406000D02*
D03*
Y390000D02*
D03*
Y382000D02*
D03*
X301500Y317000D02*
D03*
Y325000D02*
D03*
Y341000D02*
D03*
Y333000D02*
D03*
Y357000D02*
D03*
Y373000D02*
D03*
Y365000D02*
D03*
Y349000D02*
D03*
X318500D02*
D03*
Y365000D02*
D03*
Y373000D02*
D03*
Y357000D02*
D03*
Y333000D02*
D03*
Y341000D02*
D03*
Y325000D02*
D03*
Y317000D02*
D03*
X301500Y564500D02*
D03*
Y572500D02*
D03*
Y588500D02*
D03*
Y580500D02*
D03*
Y604500D02*
D03*
Y620500D02*
D03*
Y612500D02*
D03*
Y596500D02*
D03*
X318500D02*
D03*
Y612500D02*
D03*
Y620500D02*
D03*
Y604500D02*
D03*
Y580500D02*
D03*
Y588500D02*
D03*
Y572500D02*
D03*
Y564500D02*
D03*
X284500Y254500D02*
D03*
Y262500D02*
D03*
Y278500D02*
D03*
Y270500D02*
D03*
Y294500D02*
D03*
Y310500D02*
D03*
Y302500D02*
D03*
Y286500D02*
D03*
X267500D02*
D03*
Y302500D02*
D03*
Y310500D02*
D03*
Y294500D02*
D03*
Y270500D02*
D03*
Y278500D02*
D03*
Y262500D02*
D03*
Y254500D02*
D03*
X283500Y504500D02*
D03*
Y512500D02*
D03*
Y528500D02*
D03*
Y520500D02*
D03*
Y544500D02*
D03*
Y560500D02*
D03*
Y552500D02*
D03*
Y536500D02*
D03*
X266500D02*
D03*
Y552500D02*
D03*
Y560500D02*
D03*
Y544500D02*
D03*
Y520500D02*
D03*
Y528500D02*
D03*
Y512500D02*
D03*
Y504500D02*
D03*
X283500Y629500D02*
D03*
Y637500D02*
D03*
Y653500D02*
D03*
Y645500D02*
D03*
Y669500D02*
D03*
Y685500D02*
D03*
Y677500D02*
D03*
Y661500D02*
D03*
X266500D02*
D03*
Y677500D02*
D03*
Y685500D02*
D03*
Y669500D02*
D03*
Y645500D02*
D03*
Y653500D02*
D03*
Y637500D02*
D03*
Y629500D02*
D03*
D33*
X543000Y640500D02*
D03*
X562000D02*
D03*
Y614500D02*
D03*
X552500D02*
D03*
X543000D02*
D03*
X658000Y640500D02*
D03*
X677000D02*
D03*
Y614500D02*
D03*
X667500D02*
D03*
X658000D02*
D03*
X765500Y640500D02*
D03*
X784500D02*
D03*
Y614500D02*
D03*
X775000D02*
D03*
X765500D02*
D03*
D34*
X824000Y620000D02*
D03*
X801000D02*
D03*
X693500D02*
D03*
X716500D02*
D03*
X578500D02*
D03*
X601500D02*
D03*
D35*
X372750Y697500D02*
D03*
X407250D02*
D03*
D36*
X677500Y699250D02*
D03*
Y685750D02*
D03*
X785000Y685000D02*
D03*
Y698500D02*
D03*
X562500Y685750D02*
D03*
Y699250D02*
D03*
D37*
X528500Y508500D02*
D03*
X536500D02*
D03*
X544500D02*
D03*
X552500D02*
D03*
X560500D02*
D03*
X568500D02*
D03*
X576500D02*
D03*
X584500D02*
D03*
X592500D02*
D03*
X600500D02*
D03*
X608500D02*
D03*
X616500D02*
D03*
X624500D02*
D03*
X632500D02*
D03*
X640500D02*
D03*
X648500D02*
D03*
X528500Y500500D02*
D03*
X536500D02*
D03*
X544500D02*
D03*
X552500D02*
D03*
X560500D02*
D03*
X568500D02*
D03*
X576500D02*
D03*
X584500D02*
D03*
X592500D02*
D03*
X600500D02*
D03*
X608500D02*
D03*
X616500D02*
D03*
X624500D02*
D03*
X632500D02*
D03*
X640500D02*
D03*
X648500D02*
D03*
X528500Y492500D02*
D03*
X536500D02*
D03*
X544500D02*
D03*
X552500D02*
D03*
X560500D02*
D03*
X568500D02*
D03*
X576500D02*
D03*
X584500D02*
D03*
X592500D02*
D03*
X600500D02*
D03*
X608500D02*
D03*
X616500D02*
D03*
X624500D02*
D03*
X632500D02*
D03*
X640500D02*
D03*
X648500D02*
D03*
X528500Y484500D02*
D03*
X536500D02*
D03*
X544500D02*
D03*
X552500D02*
D03*
X560500D02*
D03*
X568500D02*
D03*
X576500D02*
D03*
X584500D02*
D03*
X592500D02*
D03*
X600500D02*
D03*
X608500D02*
D03*
X616500D02*
D03*
X624500D02*
D03*
X632500D02*
D03*
X640500D02*
D03*
X648500D02*
D03*
X528500Y476500D02*
D03*
X536500D02*
D03*
X544500D02*
D03*
X552500D02*
D03*
X560500D02*
D03*
X568500D02*
D03*
X576500D02*
D03*
X584500D02*
D03*
X592500D02*
D03*
X600500D02*
D03*
X608500D02*
D03*
X616500D02*
D03*
X624500D02*
D03*
X632500D02*
D03*
X640500D02*
D03*
X648500D02*
D03*
X528500Y468500D02*
D03*
X536500D02*
D03*
X544500D02*
D03*
X552500D02*
D03*
X560500D02*
D03*
X568500D02*
D03*
X576500D02*
D03*
X584500D02*
D03*
X592500D02*
D03*
X600500D02*
D03*
X608500D02*
D03*
X616500D02*
D03*
X624500D02*
D03*
X632500D02*
D03*
X640500D02*
D03*
X648500D02*
D03*
X528500Y460500D02*
D03*
X536500D02*
D03*
X544500D02*
D03*
X552500D02*
D03*
X560500D02*
D03*
X568500D02*
D03*
X576500D02*
D03*
X584500D02*
D03*
X592500D02*
D03*
X600500D02*
D03*
X608500D02*
D03*
X616500D02*
D03*
X624500D02*
D03*
X632500D02*
D03*
X640500D02*
D03*
X648500D02*
D03*
X528500Y452500D02*
D03*
X536500D02*
D03*
X544500D02*
D03*
X552500D02*
D03*
X560500D02*
D03*
X568500D02*
D03*
X576500D02*
D03*
X584500D02*
D03*
X592500D02*
D03*
X600500D02*
D03*
X608500D02*
D03*
X616500D02*
D03*
X624500D02*
D03*
X632500D02*
D03*
X640500D02*
D03*
X648500D02*
D03*
X528500Y444500D02*
D03*
X536500D02*
D03*
X544500D02*
D03*
X552500D02*
D03*
X560500D02*
D03*
X568500D02*
D03*
X576500D02*
D03*
X584500D02*
D03*
X592500D02*
D03*
X600500D02*
D03*
X608500D02*
D03*
X616500D02*
D03*
X624500D02*
D03*
X632500D02*
D03*
X640500D02*
D03*
X648500D02*
D03*
X528500Y436500D02*
D03*
X536500D02*
D03*
X544500D02*
D03*
X552500D02*
D03*
X560500D02*
D03*
X568500D02*
D03*
X576500D02*
D03*
X584500D02*
D03*
X592500D02*
D03*
X600500D02*
D03*
X608500D02*
D03*
X616500D02*
D03*
X624500D02*
D03*
X632500D02*
D03*
X640500D02*
D03*
X648500D02*
D03*
X528500Y428500D02*
D03*
X536500D02*
D03*
X544500D02*
D03*
X552500D02*
D03*
X560500D02*
D03*
X568500D02*
D03*
X576500D02*
D03*
X584500D02*
D03*
X592500D02*
D03*
X600500D02*
D03*
X608500D02*
D03*
X616500D02*
D03*
X624500D02*
D03*
X632500D02*
D03*
X640500D02*
D03*
X648500D02*
D03*
X528500Y420500D02*
D03*
X536500D02*
D03*
X544500D02*
D03*
X552500D02*
D03*
X560500D02*
D03*
X568500D02*
D03*
X576500D02*
D03*
X584500D02*
D03*
X592500D02*
D03*
X600500D02*
D03*
X608500D02*
D03*
X616500D02*
D03*
X624500D02*
D03*
X632500D02*
D03*
X640500D02*
D03*
X648500D02*
D03*
X528500Y412500D02*
D03*
X536500D02*
D03*
X544500D02*
D03*
X552500D02*
D03*
X560500D02*
D03*
X568500D02*
D03*
X576500D02*
D03*
X584500D02*
D03*
X592500D02*
D03*
X600500D02*
D03*
X608500D02*
D03*
X616500D02*
D03*
X624500D02*
D03*
X632500D02*
D03*
X640500D02*
D03*
X648500D02*
D03*
X528500Y404500D02*
D03*
X536500D02*
D03*
X544500D02*
D03*
X552500D02*
D03*
X560500D02*
D03*
X568500D02*
D03*
X576500D02*
D03*
X584500D02*
D03*
X592500D02*
D03*
X600500D02*
D03*
X608500D02*
D03*
X616500D02*
D03*
X624500D02*
D03*
X632500D02*
D03*
X640500D02*
D03*
X648500D02*
D03*
X528500Y396500D02*
D03*
X536500D02*
D03*
X544500D02*
D03*
X552500D02*
D03*
X560500D02*
D03*
X568500D02*
D03*
X576500D02*
D03*
X584500D02*
D03*
X592500D02*
D03*
X600500D02*
D03*
X608500D02*
D03*
X616500D02*
D03*
X624500D02*
D03*
X632500D02*
D03*
X640500D02*
D03*
X648500D02*
D03*
X528500Y388500D02*
D03*
X536500D02*
D03*
X544500D02*
D03*
X552500D02*
D03*
X560500D02*
D03*
X568500D02*
D03*
X576500D02*
D03*
X584500D02*
D03*
X592500D02*
D03*
X600500D02*
D03*
X608500D02*
D03*
X616500D02*
D03*
X624500D02*
D03*
X632500D02*
D03*
X640500D02*
D03*
X648500D02*
D03*
D38*
X502000Y695500D02*
D03*
Y666500D02*
D03*
X472000Y695500D02*
D03*
Y666500D02*
D03*
D39*
X755500Y662500D02*
D03*
X784500D02*
D03*
X648000D02*
D03*
X677000D02*
D03*
X533000D02*
D03*
X562000D02*
D03*
D40*
X890000Y376500D02*
D03*
Y393500D02*
D03*
Y426500D02*
D03*
Y443500D02*
D03*
D41*
X910000Y377000D02*
D03*
Y393000D02*
D03*
Y427000D02*
D03*
Y443000D02*
D03*
D42*
X213000Y644625D02*
D03*
Y638275D02*
D03*
Y631925D02*
D03*
Y625575D02*
D03*
Y682725D02*
D03*
Y670025D02*
D03*
Y657325D02*
D03*
Y619225D02*
D03*
Y606525D02*
D03*
Y593825D02*
D03*
Y581125D02*
D03*
Y568425D02*
D03*
Y555725D02*
D03*
Y543025D02*
D03*
Y530325D02*
D03*
Y517625D02*
D03*
Y504925D02*
D03*
Y492225D02*
D03*
Y479525D02*
D03*
Y466825D02*
D03*
Y454125D02*
D03*
Y441425D02*
D03*
Y428725D02*
D03*
Y416025D02*
D03*
Y403325D02*
D03*
Y390625D02*
D03*
Y377925D02*
D03*
Y365225D02*
D03*
Y352525D02*
D03*
Y339825D02*
D03*
Y327125D02*
D03*
Y314425D02*
D03*
Y301725D02*
D03*
Y289025D02*
D03*
Y276325D02*
D03*
Y263625D02*
D03*
Y676375D02*
D03*
Y663675D02*
D03*
Y650975D02*
D03*
Y612875D02*
D03*
Y600175D02*
D03*
Y587475D02*
D03*
Y574775D02*
D03*
Y562075D02*
D03*
Y549375D02*
D03*
Y536675D02*
D03*
Y523975D02*
D03*
Y511275D02*
D03*
Y498575D02*
D03*
Y485875D02*
D03*
Y473175D02*
D03*
Y460475D02*
D03*
Y447775D02*
D03*
Y435075D02*
D03*
Y422375D02*
D03*
Y409675D02*
D03*
Y396975D02*
D03*
Y384275D02*
D03*
Y371575D02*
D03*
Y358875D02*
D03*
Y346175D02*
D03*
Y333475D02*
D03*
Y320775D02*
D03*
Y308075D02*
D03*
Y295375D02*
D03*
Y282675D02*
D03*
Y269975D02*
D03*
Y257275D02*
D03*
D43*
X702500Y533000D02*
D03*
X719500D02*
D03*
X702500Y511000D02*
D03*
X719500D02*
D03*
M02*
