G04*
G04 #@! TF.GenerationSoftware,Altium Limited,Altium Designer,24.4.1 (13)*
G04*
G04 Layer_Physical_Order=4*
G04 Layer_Color=16711680*
%FSLAX44Y44*%
%MOMM*%
G71*
G04*
G04 #@! TF.SameCoordinates,5027E0DA-7AC5-4DA1-8C9F-505C02323C3A*
G04*
G04*
G04 #@! TF.FilePolarity,Positive*
G04*
G01*
G75*
%ADD10C,0.2000*%
%ADD14C,0.1500*%
%ADD73C,0.3000*%
%ADD75C,0.5000*%
%ADD77C,1.0000*%
%ADD78C,0.8000*%
%ADD79C,1.5000*%
%ADD80R,1.5000X1.5000*%
%ADD81C,0.5000*%
%ADD82C,0.6000*%
G36*
X613942Y712268D02*
X607332Y705657D01*
X607226Y705622D01*
X606620Y705469D01*
X605911Y705340D01*
X605116Y705240D01*
X604378Y705198D01*
X603251Y705500D01*
X600749D01*
X598333Y704853D01*
X596167Y703602D01*
X594398Y701833D01*
X593147Y699667D01*
X592657Y697838D01*
X591343D01*
X590853Y699667D01*
X589602Y701833D01*
X587833Y703602D01*
X588118Y704793D01*
X596767Y713441D01*
X613456D01*
X613942Y712268D01*
D02*
G37*
G36*
X586897Y706483D02*
X586503Y706028D01*
X586212Y705552D01*
X586024Y705055D01*
X585939Y704538D01*
X585956Y704001D01*
X586076Y703443D01*
X586299Y702864D01*
X586625Y702265D01*
X587053Y701646D01*
X587585Y701006D01*
X577813Y702223D01*
X584959Y707373D01*
X586897Y706483D01*
D02*
G37*
G36*
X611145Y703731D02*
X610822Y703347D01*
X610534Y702879D01*
X610281Y702326D01*
X610063Y701687D01*
X609881Y700964D01*
X609734Y700156D01*
X609623Y699263D01*
X609505Y697223D01*
X609500Y696075D01*
X602075Y703500D01*
X603223Y703505D01*
X605263Y703623D01*
X606156Y703734D01*
X606964Y703881D01*
X607687Y704063D01*
X608326Y704281D01*
X608879Y704534D01*
X609347Y704822D01*
X609731Y705145D01*
X611145Y703731D01*
D02*
G37*
G36*
X591145Y683731D02*
X590822Y683347D01*
X590534Y682879D01*
X590281Y682326D01*
X590063Y681687D01*
X589881Y680964D01*
X589734Y680156D01*
X589623Y679263D01*
X589505Y677223D01*
X589500Y676075D01*
X582075Y683500D01*
X583223Y683505D01*
X585263Y683623D01*
X586156Y683734D01*
X586964Y683881D01*
X587687Y684063D01*
X588326Y684281D01*
X588879Y684534D01*
X589347Y684822D01*
X589731Y685145D01*
X591145Y683731D01*
D02*
G37*
G36*
X947451Y671050D02*
X946181Y670023D01*
X946000Y670059D01*
X943000D01*
X941830Y669826D01*
X941775Y669789D01*
X940538Y670078D01*
X940102Y670833D01*
X938333Y672602D01*
X936167Y673853D01*
X934338Y674343D01*
Y675657D01*
X936167Y676147D01*
X938333Y677398D01*
X940102Y679167D01*
X941352Y681333D01*
X942000Y683749D01*
Y686251D01*
X941352Y688667D01*
X940102Y690833D01*
X938333Y692602D01*
X936167Y693853D01*
X933751Y694500D01*
X931249D01*
X928833Y693853D01*
X926667Y692602D01*
X924898Y690833D01*
X923647Y688667D01*
X923000Y686251D01*
Y683749D01*
X923647Y681333D01*
X924898Y679167D01*
X926667Y677398D01*
X928833Y676147D01*
X930662Y675657D01*
Y674343D01*
X928833Y673853D01*
X926667Y672602D01*
X924898Y670833D01*
X923927Y669151D01*
X922531Y669123D01*
X922521Y669127D01*
X922163Y669663D01*
X921171Y670326D01*
X920000Y670559D01*
X906500D01*
X906500Y670559D01*
X905330Y670326D01*
X904337Y669663D01*
X897837Y663163D01*
X897837Y663163D01*
X875337Y640663D01*
X874674Y639670D01*
X874441Y638500D01*
X874441Y638500D01*
Y632500D01*
X874674Y631329D01*
X875337Y630337D01*
X876329Y629674D01*
X877500Y629441D01*
X878671Y629674D01*
X879663Y630337D01*
X880326Y631329D01*
X880559Y632500D01*
Y637233D01*
X902163Y658837D01*
X902163Y658837D01*
X902163Y658837D01*
X907767Y664441D01*
X920000D01*
X921171Y664674D01*
X921730Y665048D01*
X923000Y664478D01*
Y663749D01*
X923647Y661333D01*
X924898Y659167D01*
X926667Y657398D01*
X928833Y656147D01*
X930662Y655657D01*
Y654343D01*
X928833Y653853D01*
X926667Y652602D01*
X924898Y650833D01*
X923647Y648667D01*
X923000Y646251D01*
Y643749D01*
X923647Y641333D01*
X924898Y639167D01*
X926667Y637398D01*
X928833Y636147D01*
X930662Y635657D01*
Y634343D01*
X928833Y633853D01*
X926667Y632602D01*
X924898Y630833D01*
X923647Y628667D01*
X923000Y626251D01*
Y623749D01*
X923647Y621333D01*
X924898Y619167D01*
X926667Y617398D01*
X928833Y616147D01*
X930662Y615657D01*
Y614343D01*
X928833Y613853D01*
X926667Y612602D01*
X924898Y610833D01*
X924315Y609823D01*
X923763Y609331D01*
X923131Y608839D01*
X922537Y608428D01*
X922001Y608108D01*
X921901Y608059D01*
X896489D01*
X891483Y613064D01*
X891500Y613105D01*
Y614895D01*
X890815Y616549D01*
X889549Y617815D01*
X887895Y618500D01*
X886105D01*
X884451Y617815D01*
X883185Y616549D01*
X883006Y616116D01*
X881508Y615818D01*
X837059Y660267D01*
Y700000D01*
X837059Y700000D01*
X836826Y701171D01*
X836163Y702163D01*
X822048Y716278D01*
X822534Y717451D01*
X856858Y717451D01*
X857941Y716181D01*
Y664767D01*
X856043Y662868D01*
X855829Y662826D01*
X854837Y662163D01*
X854174Y661171D01*
X853941Y660000D01*
Y655000D01*
X854174Y653829D01*
X854837Y652837D01*
X855829Y652174D01*
X857000Y651941D01*
X858170Y652174D01*
X859163Y652837D01*
X859826Y653829D01*
X860059Y655000D01*
Y658233D01*
X863163Y661337D01*
X863163Y661337D01*
X863826Y662329D01*
X864059Y663500D01*
X864059Y663500D01*
Y717000D01*
X864429Y717451D01*
X947451D01*
Y671050D01*
D02*
G37*
G36*
X590952Y716278D02*
X581699Y707025D01*
X578894Y705003D01*
X578333Y704853D01*
X576167Y703602D01*
X574398Y701833D01*
X573147Y699667D01*
X572657Y697838D01*
X571343D01*
X570853Y699667D01*
X569602Y701833D01*
X567833Y703602D01*
X565667Y704853D01*
X563251Y705500D01*
X560749D01*
X558333Y704853D01*
X556167Y703602D01*
X554398Y701833D01*
X553147Y699667D01*
X552657Y697838D01*
X551343D01*
X550853Y699667D01*
X549602Y701833D01*
X547833Y703602D01*
X545667Y704853D01*
X543251Y705500D01*
X540749D01*
X538333Y704853D01*
X536167Y703602D01*
X534398Y701833D01*
X533147Y699667D01*
X532657Y697838D01*
X531343D01*
X530853Y699667D01*
X529602Y701833D01*
X527833Y703602D01*
X525667Y704853D01*
X523251Y705500D01*
X523000D01*
Y696000D01*
X522000D01*
Y695000D01*
X512500D01*
Y694749D01*
X513147Y692333D01*
X514398Y690167D01*
X516167Y688398D01*
X518333Y687147D01*
X519742Y686770D01*
X519575Y685500D01*
X512500D01*
Y666500D01*
X531500D01*
Y673575D01*
X532770Y673742D01*
X533147Y672333D01*
X534398Y670167D01*
X536167Y668398D01*
X538333Y667147D01*
X540749Y666500D01*
X543251D01*
X545667Y667147D01*
X547833Y668398D01*
X549602Y670167D01*
X550853Y672333D01*
X551343Y674162D01*
X552657D01*
X553147Y672333D01*
X554398Y670167D01*
X556167Y668398D01*
X558333Y667147D01*
X560749Y666500D01*
X563251D01*
X565667Y667147D01*
X567833Y668398D01*
X569602Y670167D01*
X570853Y672333D01*
X571343Y674162D01*
X572657D01*
X573147Y672333D01*
X574398Y670167D01*
X576167Y668398D01*
X578333Y667147D01*
X580749Y666500D01*
X583251D01*
X585667Y667147D01*
X587833Y668398D01*
X589602Y670167D01*
X590853Y672333D01*
X591343Y674162D01*
X592657D01*
X593147Y672333D01*
X594398Y670167D01*
X596167Y668398D01*
X598333Y667147D01*
X600749Y666500D01*
X603251D01*
X605667Y667147D01*
X607833Y668398D01*
X609602Y670167D01*
X610853Y672333D01*
X611500Y674749D01*
Y677251D01*
X610853Y679667D01*
X609602Y681833D01*
X608242Y683193D01*
X608305Y683837D01*
X616234Y691766D01*
X616897Y692758D01*
X617130Y693929D01*
Y699804D01*
X623267Y705941D01*
X769488D01*
X770014Y704671D01*
X769609Y704266D01*
X769000Y702796D01*
Y701204D01*
X769609Y699734D01*
X770734Y698609D01*
X772204Y698000D01*
X773796D01*
X775266Y698609D01*
X776391Y699734D01*
X777000Y701204D01*
Y702796D01*
X776391Y704266D01*
X775986Y704671D01*
X776512Y705941D01*
X813783D01*
X823441Y696283D01*
Y654500D01*
X823441Y654500D01*
X823674Y653329D01*
X824337Y652337D01*
X825932Y650742D01*
X825446Y649569D01*
X762795D01*
X762549Y649815D01*
X760895Y650500D01*
X759105D01*
X757451Y649815D01*
X756185Y648549D01*
X755500Y646895D01*
Y645105D01*
X756185Y643451D01*
X757451Y642185D01*
X759105Y641500D01*
X760895D01*
X762549Y642185D01*
X762552Y642188D01*
X763258Y642100D01*
X763717Y640763D01*
X760453Y637500D01*
X760105D01*
X758451Y636815D01*
X757185Y635549D01*
X756500Y633895D01*
Y632105D01*
X757185Y630451D01*
X758451Y629185D01*
X760105Y628500D01*
X761895D01*
X763549Y629185D01*
X764815Y630451D01*
X765500Y632105D01*
Y632453D01*
X769478Y636431D01*
X825451D01*
X860259Y601623D01*
X860185Y601549D01*
X859500Y599895D01*
Y598105D01*
X860185Y596451D01*
X861451Y595185D01*
X863105Y594500D01*
X864895D01*
X866549Y595185D01*
X867815Y596451D01*
X867837Y596503D01*
X869335Y596801D01*
X869951Y596185D01*
X871605Y595500D01*
X873395D01*
X875049Y596185D01*
X876315Y597451D01*
X876641Y598237D01*
X877991Y598506D01*
X878941Y597660D01*
Y575000D01*
X878941Y575000D01*
X879174Y573829D01*
X879837Y572837D01*
X908837Y543837D01*
X908837Y543837D01*
X909829Y543174D01*
X911000Y542941D01*
X921792D01*
X921877Y542895D01*
X922345Y542575D01*
X922853Y542162D01*
X923380Y541666D01*
X923634Y541382D01*
X923647Y541333D01*
X924898Y539167D01*
X926667Y537398D01*
X928833Y536147D01*
X930242Y535770D01*
X930075Y534500D01*
X923000D01*
Y515500D01*
X942000D01*
Y534500D01*
X934925D01*
X934758Y535770D01*
X936167Y536147D01*
X938333Y537398D01*
X940102Y539167D01*
X941352Y541333D01*
X942000Y543749D01*
Y546251D01*
X941352Y548667D01*
X940102Y550833D01*
X938333Y552602D01*
X936167Y553853D01*
X934338Y554343D01*
Y555657D01*
X936167Y556147D01*
X938333Y557398D01*
X940102Y559167D01*
X941352Y561333D01*
X942000Y563749D01*
Y564000D01*
X932500D01*
X923000D01*
Y563749D01*
X923647Y561333D01*
X924898Y559167D01*
X926667Y557398D01*
X928833Y556147D01*
X930662Y555657D01*
Y554343D01*
X928833Y553853D01*
X926667Y552602D01*
X924898Y550833D01*
X924805Y550671D01*
X924247Y550277D01*
X922801Y549395D01*
X922214Y549093D01*
X922137Y549059D01*
X912267D01*
X885059Y576267D01*
Y595956D01*
X886232Y596442D01*
X896837Y585837D01*
X896837Y585837D01*
X897830Y585174D01*
X899000Y584941D01*
X909733D01*
X919500Y575174D01*
Y574105D01*
X920185Y572451D01*
X921451Y571185D01*
X923105Y570500D01*
X923436D01*
X924071Y569400D01*
X923647Y568667D01*
X923000Y566251D01*
Y566000D01*
X932500D01*
X942000D01*
Y566251D01*
X941352Y568667D01*
X940102Y570833D01*
X940075Y570860D01*
X940110Y571339D01*
X940402Y572329D01*
X941163Y572837D01*
X946163Y577837D01*
X946163Y577837D01*
X946181Y577864D01*
X947451Y577479D01*
Y497549D01*
X920000D01*
X919025Y497355D01*
X918198Y496802D01*
X917645Y495975D01*
X917451Y495000D01*
Y465000D01*
X917645Y464025D01*
X918198Y463198D01*
X919025Y462645D01*
X920000Y462451D01*
X947451D01*
Y384592D01*
X946278Y384106D01*
X943942Y386442D01*
X943280Y386884D01*
X942500Y387039D01*
X925000D01*
X925000Y387039D01*
X924220Y386884D01*
X923558Y386442D01*
X923558Y386442D01*
X903558Y366442D01*
X903165Y365853D01*
X902601Y365780D01*
X902399D01*
X901836Y365853D01*
X901442Y366442D01*
X901442Y366442D01*
X886442Y381442D01*
X885780Y381884D01*
X885000Y382039D01*
X839019D01*
X838170Y383309D01*
X838500Y384105D01*
Y385895D01*
X837815Y387549D01*
X836549Y388815D01*
X834895Y389500D01*
X833105D01*
X831451Y388815D01*
X831205Y388569D01*
X810795D01*
X809549Y389815D01*
X809116Y389994D01*
X808818Y391492D01*
X810726Y393400D01*
X856459D01*
X856459Y393400D01*
X857629Y393633D01*
X858622Y394296D01*
X867163Y402837D01*
X867163Y402837D01*
X867826Y403829D01*
X868059Y405000D01*
Y426801D01*
X869105Y427500D01*
X870174D01*
X892837Y404837D01*
X892837Y404837D01*
X893829Y404174D01*
X895000Y403941D01*
X895000Y403941D01*
X896695D01*
X897451Y403185D01*
X899105Y402500D01*
X900895D01*
X902549Y403185D01*
X903815Y404451D01*
X904500Y406105D01*
Y407895D01*
X903815Y409549D01*
X902549Y410815D01*
X900895Y411500D01*
X899105D01*
X897451Y410815D01*
X897290Y410654D01*
X895671D01*
X874500Y431826D01*
Y432895D01*
X873815Y434549D01*
X872549Y435815D01*
X870895Y436500D01*
X869105D01*
X868059Y437199D01*
Y452733D01*
X889163Y473837D01*
X889163Y473837D01*
X889826Y474829D01*
X890059Y476000D01*
X890059Y476000D01*
Y515000D01*
X890059Y515000D01*
X889826Y516171D01*
X889163Y517163D01*
X872500Y533826D01*
Y534895D01*
X871815Y536549D01*
X870549Y537815D01*
X868895Y538500D01*
X867105D01*
X865451Y537815D01*
X864185Y536549D01*
X863500Y534895D01*
Y533105D01*
X864185Y531451D01*
X865451Y530185D01*
X867105Y529500D01*
X868174D01*
X883941Y513733D01*
Y501719D01*
X882671Y501193D01*
X882549Y501315D01*
X880895Y502000D01*
X879826D01*
X859663Y522163D01*
X858671Y522826D01*
X857500Y523059D01*
X857500Y523059D01*
X734305D01*
X733549Y523815D01*
X731895Y524500D01*
X730105D01*
X728451Y523815D01*
X727185Y522549D01*
X726500Y520895D01*
Y519105D01*
X727185Y517451D01*
X728451Y516185D01*
X730105Y515500D01*
X731895D01*
X733549Y516185D01*
X734305Y516941D01*
X856233D01*
X875500Y497674D01*
Y496605D01*
X876185Y494951D01*
X877451Y493685D01*
X879105Y493000D01*
X880895D01*
X882549Y493685D01*
X882671Y493807D01*
X883941Y493281D01*
Y477267D01*
X862837Y456163D01*
X862174Y455171D01*
X861941Y454000D01*
X861941Y454000D01*
Y423199D01*
X860895Y422500D01*
X859826D01*
X844059Y438267D01*
Y450695D01*
X844815Y451451D01*
X845500Y453105D01*
Y454895D01*
X844815Y456549D01*
X843549Y457815D01*
X841895Y458500D01*
X840105D01*
X838451Y457815D01*
X837185Y456549D01*
X836500Y454895D01*
Y453105D01*
X837185Y451451D01*
X837941Y450695D01*
Y437000D01*
X837941Y437000D01*
X838174Y435830D01*
X838837Y434837D01*
X855500Y418174D01*
Y417105D01*
X856185Y415451D01*
X857451Y414185D01*
X859105Y413500D01*
X860895D01*
X861941Y412801D01*
Y406267D01*
X855192Y399518D01*
X809459D01*
X809459Y399518D01*
X808288Y399285D01*
X807296Y398622D01*
X807296Y398622D01*
X799837Y391163D01*
X799174Y390171D01*
X798941Y389000D01*
X798941Y389000D01*
Y379267D01*
X750233Y330559D01*
X733870D01*
X733384Y331732D01*
X747326Y345674D01*
X748652Y347659D01*
X749118Y350000D01*
Y356000D01*
Y384466D01*
X760326Y395674D01*
X761652Y397659D01*
X762118Y400000D01*
X761652Y402341D01*
X760326Y404326D01*
X758341Y405652D01*
X756000Y406118D01*
X753659Y405652D01*
X751674Y404326D01*
X738674Y391326D01*
X737348Y389341D01*
X736882Y387000D01*
Y356000D01*
Y352534D01*
X724466Y340117D01*
X705839D01*
X705337Y341387D01*
X705967Y342017D01*
X706500Y343304D01*
Y344696D01*
X705967Y345983D01*
X704983Y346967D01*
X703696Y347500D01*
X702304D01*
X701017Y346967D01*
X700033Y345983D01*
X699500Y344696D01*
Y343304D01*
X700033Y342017D01*
X700663Y341387D01*
X700161Y340117D01*
X697000D01*
X697000Y340118D01*
X676686D01*
X674345Y339652D01*
X672361Y338326D01*
X661652Y327617D01*
X659938D01*
X659544Y328887D01*
X660391Y329734D01*
X661000Y331204D01*
Y332796D01*
X660391Y334266D01*
X659266Y335391D01*
X657796Y336000D01*
X656204D01*
X654734Y335391D01*
X653609Y334266D01*
X653490Y333979D01*
X651992Y333680D01*
X645347Y340326D01*
X643362Y341652D01*
X641021Y342118D01*
X618000D01*
X615659Y341652D01*
X615610Y341619D01*
X614500Y342405D01*
Y343995D01*
X613739Y345832D01*
X612332Y347239D01*
X610494Y348000D01*
X609547D01*
X601023Y356523D01*
X599866Y357297D01*
X598500Y357569D01*
X576500D01*
X575134Y357297D01*
X573977Y356523D01*
X570477Y353023D01*
X569703Y351866D01*
X569431Y350500D01*
Y347474D01*
X568761Y346804D01*
X568000Y344966D01*
Y342977D01*
X568761Y341139D01*
X570168Y339733D01*
X572005Y338972D01*
X573994D01*
X575832Y339733D01*
X577239Y341139D01*
X578000Y342977D01*
Y344966D01*
X577239Y346804D01*
X576568Y347474D01*
Y349022D01*
X577978Y350431D01*
X597022D01*
X604500Y342953D01*
Y342005D01*
X605261Y340168D01*
X606668Y338761D01*
X608505Y338000D01*
X610494D01*
X611030Y338222D01*
X612143Y337308D01*
X611883Y336000D01*
X612348Y333659D01*
X613674Y331674D01*
X615659Y330348D01*
X618000Y329882D01*
X638487D01*
X643129Y325240D01*
X643348Y324138D01*
X644674Y322154D01*
X649653Y317174D01*
X651638Y315848D01*
X653979Y315382D01*
X664186D01*
X666527Y315848D01*
X668512Y317174D01*
X669004Y317667D01*
X670385Y317251D01*
X671451Y316185D01*
X673105Y315500D01*
X674895D01*
X676549Y316185D01*
X677815Y317451D01*
X678500Y319105D01*
Y320895D01*
X678272Y321446D01*
X681267Y324441D01*
X751500D01*
X751500Y324441D01*
X752671Y324674D01*
X753663Y325337D01*
X764327Y336001D01*
X765771Y335649D01*
X766033Y335017D01*
X767017Y334033D01*
X768304Y333500D01*
X769696D01*
X770983Y334033D01*
X771967Y335017D01*
X772500Y336304D01*
Y337696D01*
X771967Y338983D01*
X770983Y339967D01*
X770351Y340229D01*
X769999Y341673D01*
X804163Y375837D01*
X804163Y375837D01*
X804826Y376829D01*
X805059Y378000D01*
Y380801D01*
X806105Y381500D01*
X807895D01*
X807993Y381540D01*
X808541Y381431D01*
X831205D01*
X831451Y381185D01*
X831703Y381081D01*
X831951Y379835D01*
X820617Y368501D01*
X820175Y367839D01*
X820020Y367059D01*
X820175Y366279D01*
X820461Y365589D01*
Y364411D01*
X820010Y363323D01*
X819145Y362457D01*
X818558Y362066D01*
X818116Y361404D01*
X817961Y360624D01*
Y320000D01*
X818116Y319220D01*
X818558Y318558D01*
X818558Y318558D01*
X828558Y308558D01*
X829220Y308116D01*
X830000Y307961D01*
X875929D01*
X876709Y308116D01*
X877371Y308558D01*
X878323Y309510D01*
X879411Y309961D01*
X880589D01*
X881677Y309510D01*
X882629Y308558D01*
X883291Y308116D01*
X884071Y307961D01*
X890000D01*
X890780Y308116D01*
X891442Y308558D01*
X891442Y308558D01*
X901442Y318558D01*
X901691Y318930D01*
X902961Y318619D01*
Y254039D01*
X857500D01*
X857158Y253971D01*
X856815Y254799D01*
X855549Y256065D01*
X853895Y256750D01*
X852105D01*
X850451Y256065D01*
X850205Y255819D01*
X809228D01*
X799500Y265547D01*
Y265895D01*
X798815Y267549D01*
X797549Y268815D01*
X795895Y269500D01*
X794105D01*
X792451Y268815D01*
X791185Y267549D01*
X790500Y265895D01*
Y264105D01*
X791185Y262451D01*
X792451Y261185D01*
X794105Y260500D01*
X794453D01*
X799741Y255212D01*
X799255Y254039D01*
X774455D01*
X759544Y254039D01*
X759347Y254000D01*
X759146D01*
X758961Y253923D01*
X758764Y253884D01*
X758597Y253772D01*
X758411Y253696D01*
X758269Y253554D01*
X758102Y253442D01*
X757990Y253275D01*
X757848Y253133D01*
X757000Y251863D01*
X756923Y251677D01*
X756811Y251510D01*
X756772Y251313D01*
X756695Y251128D01*
Y250927D01*
X756656Y250730D01*
X756695Y250533D01*
Y250332D01*
X756772Y250147D01*
X756811Y249950D01*
X756961Y249589D01*
Y248411D01*
X756510Y247323D01*
X755677Y246490D01*
X754589Y246039D01*
X753411D01*
X752323Y246490D01*
X751490Y247323D01*
X751039Y248411D01*
Y249589D01*
X751189Y249950D01*
X751228Y250147D01*
X751305Y250332D01*
Y250533D01*
X751344Y250730D01*
X751305Y250927D01*
Y251128D01*
X751228Y251313D01*
X751189Y251510D01*
X751077Y251677D01*
X751000Y251863D01*
X750152Y253133D01*
X750010Y253275D01*
X749898Y253442D01*
X749731Y253554D01*
X749589Y253696D01*
X749403Y253772D01*
X749236Y253884D01*
X749039Y253923D01*
X748854Y254000D01*
X748653D01*
X748456Y254039D01*
X677570D01*
X677472Y254020D01*
X676999Y254142D01*
X676317Y254700D01*
X676168Y254957D01*
X675972Y255940D01*
X675199Y257098D01*
X653773Y278523D01*
X652616Y279297D01*
X651250Y279569D01*
X635045D01*
X634799Y279815D01*
X633145Y280500D01*
X631355D01*
X629701Y279815D01*
X628435Y278549D01*
X627750Y276895D01*
Y275105D01*
X628435Y273451D01*
X629701Y272185D01*
X631355Y271500D01*
X633145D01*
X634799Y272185D01*
X635045Y272431D01*
X649772D01*
X666894Y255309D01*
X666368Y254039D01*
X649071D01*
X649071Y254039D01*
X648291Y253884D01*
X647629Y253442D01*
X647629Y253442D01*
X646677Y252490D01*
X645589Y252039D01*
X644411D01*
X643323Y252490D01*
X642371Y253442D01*
X641709Y253884D01*
X640929Y254039D01*
X623845D01*
X618465Y259419D01*
X619523Y260477D01*
X620297Y261634D01*
X620569Y263000D01*
Y283209D01*
X620297Y284574D01*
X619523Y285732D01*
X619500Y285756D01*
Y286645D01*
X618815Y288299D01*
X617549Y289565D01*
X615895Y290250D01*
X614105D01*
X612451Y289565D01*
X611185Y288299D01*
X610500Y286645D01*
Y284855D01*
X610977Y283703D01*
X609901Y282983D01*
X608942Y283942D01*
X608280Y284384D01*
X607500Y284539D01*
X585000D01*
X584220Y284384D01*
X583558Y283942D01*
X583558Y283942D01*
X576058Y276442D01*
X575616Y275780D01*
X575461Y275000D01*
Y253000D01*
X575616Y252220D01*
X576058Y251558D01*
X576720Y251116D01*
X577500Y250961D01*
X577589D01*
X578677Y250510D01*
X579510Y249677D01*
X579961Y248589D01*
Y247411D01*
X579510Y246323D01*
X578677Y245490D01*
X577781Y245119D01*
X577476Y244915D01*
X577164Y244720D01*
X577145Y244694D01*
X577119Y244677D01*
X576915Y244371D01*
X576702Y244072D01*
X576596Y243837D01*
X576546Y243618D01*
X576458Y243410D01*
X576457Y243234D01*
X576417Y243062D01*
X576455Y242840D01*
X576453Y242615D01*
X576702Y241321D01*
X576780Y241129D01*
X576821Y240926D01*
X576929Y240764D01*
X577002Y240584D01*
X577147Y240436D01*
X577263Y240264D01*
X577424Y240156D01*
X577561Y240018D01*
X577752Y239937D01*
X577924Y239822D01*
X578677Y239510D01*
X579510Y238677D01*
X580112Y237223D01*
X580554Y236562D01*
X586852Y230264D01*
X587183Y230043D01*
X587514Y229822D01*
X588294Y229666D01*
X589075Y229821D01*
X589411Y229961D01*
X590589D01*
X591677Y229510D01*
X592660Y228527D01*
X592871Y228212D01*
X593532Y227770D01*
X594313Y227615D01*
X595687D01*
X596468Y227770D01*
X597129Y228212D01*
X597129Y228212D01*
X597340Y228527D01*
X598323Y229510D01*
X599411Y229961D01*
X600589D01*
X601677Y229510D01*
X602510Y228677D01*
X602961Y227589D01*
Y226411D01*
X602510Y225323D01*
X602448Y225261D01*
X602006Y224599D01*
X601851Y223819D01*
X600922Y222549D01*
X232549D01*
Y250000D01*
X232355Y250975D01*
X231802Y251802D01*
X230975Y252355D01*
X230000Y252549D01*
X205000D01*
Y687451D01*
X230000D01*
X230975Y687645D01*
X231802Y688198D01*
X232355Y689025D01*
X232549Y690000D01*
Y717451D01*
X590466Y717451D01*
X590952Y716278D01*
D02*
G37*
G36*
X761847Y647702D02*
X761932Y647660D01*
X762043Y647623D01*
X762177Y647590D01*
X762337Y647562D01*
X762728Y647523D01*
X763218Y647503D01*
X763500Y647500D01*
Y644500D01*
X763218Y644498D01*
X762337Y644437D01*
X762177Y644410D01*
X762043Y644378D01*
X761932Y644340D01*
X761847Y644297D01*
X761785Y644250D01*
Y647750D01*
X761847Y647702D01*
D02*
G37*
G36*
X764536Y634414D02*
X764338Y634213D01*
X763757Y633547D01*
X763664Y633415D01*
X763592Y633297D01*
X763540Y633193D01*
X763510Y633102D01*
X763500Y633025D01*
X761025Y635500D01*
X761102Y635510D01*
X761193Y635540D01*
X761297Y635592D01*
X761415Y635664D01*
X761547Y635757D01*
X761853Y636006D01*
X762213Y636338D01*
X762414Y636535D01*
X764536Y634414D01*
D02*
G37*
G36*
X943000Y663941D02*
X946000D01*
X946181Y663977D01*
X947451Y662950D01*
Y616521D01*
X946181Y616135D01*
X946163Y616163D01*
X942358Y619967D01*
X942322Y620068D01*
X942152Y620689D01*
X942005Y621384D01*
X941812Y623047D01*
X942000Y623749D01*
Y626251D01*
X941352Y628667D01*
X940102Y630833D01*
X938333Y632602D01*
X936167Y633853D01*
X934338Y634343D01*
Y635657D01*
X936167Y636147D01*
X938333Y637398D01*
X940102Y639167D01*
X941352Y641333D01*
X942000Y643749D01*
Y646251D01*
X941352Y648667D01*
X940102Y650833D01*
X938333Y652602D01*
X936167Y653853D01*
X934338Y654343D01*
Y655657D01*
X936167Y656147D01*
X938333Y657398D01*
X940102Y659167D01*
X941352Y661333D01*
X942000Y663749D01*
X942383Y664064D01*
X943000Y663941D01*
D02*
G37*
G36*
X940054Y624106D02*
X940401Y621122D01*
X940573Y620306D01*
X940773Y619579D01*
X941002Y618940D01*
X941258Y618391D01*
X941543Y617930D01*
X941855Y617559D01*
X940508Y616077D01*
X940115Y616410D01*
X939640Y616700D01*
X939084Y616949D01*
X938447Y617155D01*
X937730Y617320D01*
X936931Y617442D01*
X936052Y617523D01*
X934051Y617558D01*
X932928Y617512D01*
X939995Y625279D01*
X940054Y624106D01*
D02*
G37*
G36*
X889398Y613228D02*
X889386Y613033D01*
X889397Y612838D01*
X889430Y612646D01*
X889487Y612454D01*
X889567Y612264D01*
X889670Y612076D01*
X889796Y611889D01*
X889946Y611703D01*
X890118Y611518D01*
X888351Y610456D01*
X888173Y610627D01*
X887810Y610928D01*
X887626Y611058D01*
X887439Y611174D01*
X887250Y611278D01*
X887059Y611367D01*
X886866Y611444D01*
X886671Y611507D01*
X886474Y611556D01*
X889433Y613425D01*
X889398Y613228D01*
D02*
G37*
G36*
X873508Y602288D02*
X870247Y601083D01*
X870270Y601164D01*
X870269Y601258D01*
X870244Y601365D01*
X870195Y601486D01*
X870121Y601620D01*
X870023Y601768D01*
X869901Y601928D01*
X869584Y602290D01*
X869388Y602490D01*
X871649Y604472D01*
X873508Y602288D01*
D02*
G37*
G36*
X865515Y602489D02*
X865516Y602204D01*
X865586Y601069D01*
X865608Y600975D01*
X865633Y600908D01*
X865661Y600868D01*
X862361Y600888D01*
X862390Y600928D01*
X862416Y600995D01*
X862439Y601090D01*
X862459Y601212D01*
X862490Y601536D01*
X862513Y602227D01*
X862515Y602511D01*
X865515Y602489D01*
D02*
G37*
G36*
X927144Y599750D02*
X926328Y600558D01*
X924802Y601917D01*
X924092Y602470D01*
X923417Y602938D01*
X922777Y603320D01*
X922172Y603618D01*
X921602Y603830D01*
X921067Y603957D01*
X920567Y604000D01*
Y606000D01*
X921067Y606043D01*
X921602Y606170D01*
X922172Y606382D01*
X922777Y606680D01*
X923417Y607062D01*
X924092Y607530D01*
X924802Y608083D01*
X926328Y609442D01*
X927144Y610250D01*
Y599750D01*
D02*
G37*
G36*
X922001Y601892D02*
X922537Y601572D01*
X923131Y601161D01*
X923763Y600669D01*
X924315Y600177D01*
X924898Y599167D01*
X926667Y597398D01*
X928833Y596147D01*
X930662Y595657D01*
Y594343D01*
X928833Y593853D01*
X928605Y593721D01*
X927663Y594663D01*
X926671Y595326D01*
X925500Y595559D01*
X925500Y595559D01*
X901767D01*
X896558Y600768D01*
X897044Y601941D01*
X921901D01*
X922001Y601892D01*
D02*
G37*
G36*
X926563Y592882D02*
X926931Y592607D01*
X927312Y592380D01*
X927705Y592203D01*
X928110Y592076D01*
X928528Y591998D01*
X928959Y591969D01*
X929402Y591989D01*
X929857Y592059D01*
X930325Y592178D01*
X925559Y587841D01*
X925718Y588288D01*
X925825Y588723D01*
X925879Y589146D01*
X925881Y589558D01*
X925830Y589959D01*
X925727Y590349D01*
X925572Y590727D01*
X925365Y591094D01*
X925105Y591449D01*
X924793Y591793D01*
X926207Y593207D01*
X926563Y592882D01*
D02*
G37*
G36*
X922207Y578217D02*
X922392Y578065D01*
X922579Y577931D01*
X922769Y577814D01*
X922963Y577717D01*
X923159Y577637D01*
X923359Y577575D01*
X923561Y577532D01*
X923766Y577507D01*
X923975Y577500D01*
X921500Y575025D01*
X921493Y575233D01*
X921468Y575439D01*
X921425Y575641D01*
X921363Y575841D01*
X921283Y576037D01*
X921186Y576231D01*
X921069Y576421D01*
X920935Y576608D01*
X920783Y576792D01*
X920612Y576974D01*
X922026Y578388D01*
X922207Y578217D01*
D02*
G37*
G36*
X925938Y576608D02*
X926101Y576480D01*
X926275Y576367D01*
X926459Y576270D01*
X926654Y576188D01*
X926860Y576120D01*
X927077Y576068D01*
X927304Y576030D01*
X927542Y576007D01*
X927791Y576000D01*
Y574000D01*
X927542Y573993D01*
X927304Y573970D01*
X927077Y573932D01*
X926860Y573880D01*
X926654Y573812D01*
X926459Y573730D01*
X926275Y573633D01*
X926101Y573520D01*
X925938Y573392D01*
X925785Y573250D01*
Y576750D01*
X925938Y576608D01*
D02*
G37*
G36*
X926492Y540511D02*
X925828Y541364D01*
X924544Y542800D01*
X923923Y543384D01*
X923317Y543878D01*
X922725Y544282D01*
X922147Y544596D01*
X921584Y544820D01*
X921035Y544955D01*
X920500Y545000D01*
X920772Y547000D01*
X921219Y547039D01*
X921725Y547157D01*
X922290Y547353D01*
X922914Y547627D01*
X923597Y547979D01*
X925138Y548919D01*
X926915Y550173D01*
X927892Y550917D01*
X926492Y540511D01*
D02*
G37*
G36*
X870507Y533767D02*
X870532Y533561D01*
X870575Y533358D01*
X870637Y533159D01*
X870717Y532963D01*
X870815Y532769D01*
X870931Y532579D01*
X871065Y532392D01*
X871217Y532207D01*
X871388Y532026D01*
X869974Y530612D01*
X869792Y530783D01*
X869608Y530935D01*
X869421Y531069D01*
X869231Y531185D01*
X869037Y531283D01*
X868841Y531363D01*
X868641Y531425D01*
X868439Y531468D01*
X868233Y531493D01*
X868025Y531500D01*
X870500Y533975D01*
X870507Y533767D01*
D02*
G37*
G36*
X732938Y521608D02*
X733101Y521480D01*
X733275Y521367D01*
X733459Y521270D01*
X733654Y521188D01*
X733860Y521120D01*
X734077Y521068D01*
X734304Y521030D01*
X734542Y521007D01*
X734791Y521000D01*
Y519000D01*
X734542Y518993D01*
X734304Y518970D01*
X734077Y518932D01*
X733860Y518880D01*
X733654Y518812D01*
X733459Y518730D01*
X733275Y518633D01*
X733101Y518520D01*
X732938Y518392D01*
X732785Y518250D01*
Y521750D01*
X732938Y521608D01*
D02*
G37*
G36*
X878207Y500717D02*
X878392Y500565D01*
X878579Y500431D01*
X878769Y500314D01*
X878963Y500217D01*
X879159Y500137D01*
X879359Y500075D01*
X879561Y500032D01*
X879766Y500007D01*
X879975Y500000D01*
X877500Y497525D01*
X877493Y497733D01*
X877468Y497939D01*
X877425Y498141D01*
X877363Y498341D01*
X877283Y498537D01*
X877186Y498731D01*
X877069Y498921D01*
X876935Y499108D01*
X876783Y499292D01*
X876612Y499474D01*
X878026Y500888D01*
X878207Y500717D01*
D02*
G37*
G36*
X842607Y452062D02*
X842480Y451899D01*
X842367Y451725D01*
X842270Y451541D01*
X842188Y451346D01*
X842120Y451140D01*
X842067Y450923D01*
X842030Y450696D01*
X842008Y450457D01*
X842000Y450209D01*
X840000D01*
X839993Y450457D01*
X839970Y450696D01*
X839932Y450923D01*
X839880Y451140D01*
X839812Y451346D01*
X839730Y451541D01*
X839632Y451725D01*
X839520Y451899D01*
X839392Y452062D01*
X839250Y452215D01*
X842750D01*
X842607Y452062D01*
D02*
G37*
G36*
X872507Y431767D02*
X872532Y431561D01*
X872575Y431359D01*
X872637Y431159D01*
X872717Y430963D01*
X872815Y430769D01*
X872931Y430579D01*
X873065Y430392D01*
X873217Y430207D01*
X873388Y430026D01*
X871974Y428612D01*
X871793Y428783D01*
X871608Y428935D01*
X871421Y429069D01*
X871231Y429185D01*
X871037Y429283D01*
X870841Y429363D01*
X870641Y429425D01*
X870439Y429468D01*
X870234Y429493D01*
X870025Y429500D01*
X872500Y431975D01*
X872507Y431767D01*
D02*
G37*
G36*
X858207Y421217D02*
X858392Y421065D01*
X858579Y420931D01*
X858769Y420815D01*
X858963Y420717D01*
X859159Y420637D01*
X859359Y420575D01*
X859561Y420532D01*
X859766Y420507D01*
X859975Y420500D01*
X857500Y418025D01*
X857493Y418233D01*
X857468Y418439D01*
X857425Y418642D01*
X857363Y418841D01*
X857283Y419037D01*
X857186Y419231D01*
X857069Y419421D01*
X856935Y419608D01*
X856783Y419793D01*
X856612Y419974D01*
X858026Y421388D01*
X858207Y421217D01*
D02*
G37*
G36*
X898215Y405250D02*
X898062Y405392D01*
X897899Y405520D01*
X897725Y405633D01*
X897541Y405730D01*
X897346Y405812D01*
X897140Y405880D01*
X896923Y405933D01*
X896696Y405970D01*
X896458Y405993D01*
X896209Y406000D01*
Y408000D01*
X896458Y408008D01*
X896696Y408030D01*
X896923Y408068D01*
X897140Y408120D01*
X897346Y408187D01*
X897541Y408270D01*
X897725Y408368D01*
X897899Y408480D01*
X898062Y408607D01*
X898215Y408750D01*
Y405250D01*
D02*
G37*
G36*
X809379Y386816D02*
X809448Y386749D01*
X809544Y386691D01*
X809666Y386640D01*
X809814Y386597D01*
X809988Y386562D01*
X810189Y386535D01*
X810670Y386504D01*
X810949Y386500D01*
X810791Y383500D01*
X807943Y383685D01*
X809336Y386890D01*
X809379Y386816D01*
D02*
G37*
G36*
X832215Y383250D02*
X832153Y383298D01*
X832068Y383340D01*
X831957Y383377D01*
X831823Y383410D01*
X831664Y383438D01*
X831272Y383478D01*
X830782Y383498D01*
X830500Y383500D01*
Y386500D01*
X830782Y386502D01*
X831664Y386562D01*
X831823Y386590D01*
X831957Y386623D01*
X832068Y386660D01*
X832153Y386702D01*
X832215Y386750D01*
Y383250D01*
D02*
G37*
G36*
X947500Y380000D02*
Y367500D01*
X939706Y359706D01*
X938995Y360000D01*
X937005D01*
X935168Y359239D01*
X933761Y357832D01*
X933000Y355995D01*
Y354005D01*
X933295Y353294D01*
X927500Y347500D01*
Y341000D01*
X927005D01*
X925168Y340239D01*
X923761Y338832D01*
X923000Y336995D01*
Y335005D01*
X923761Y333168D01*
X925168Y331761D01*
X927005Y331000D01*
X927500D01*
Y329000D01*
X927005D01*
X925168Y328239D01*
X923761Y326832D01*
X923000Y324995D01*
Y323005D01*
X923761Y321168D01*
X925168Y319761D01*
X927005Y319000D01*
X927500D01*
Y261000D01*
X926005D01*
X924168Y260239D01*
X922761Y258832D01*
X922000Y256995D01*
Y255005D01*
X922761Y253168D01*
X924168Y251761D01*
X925587Y251173D01*
Y249827D01*
X924168Y249239D01*
X922761Y247832D01*
X922000Y245995D01*
Y244005D01*
X922761Y242168D01*
X924168Y240761D01*
X926005Y240000D01*
X927995D01*
X929832Y240761D01*
X930680Y241609D01*
X931137Y242066D01*
D01*
X931239Y242168D01*
X931268Y242239D01*
X931529Y242290D01*
X931529D01*
X932514Y242486D01*
X937500Y237500D01*
D01*
X938000Y237000D01*
Y225000D01*
X935549Y222549D01*
X935049D01*
X935000Y222500D01*
X900000D01*
Y222549D01*
X707002D01*
X706391Y223734D01*
X707000Y225204D01*
Y226796D01*
X706391Y228266D01*
X705266Y229391D01*
X703796Y230000D01*
X702204D01*
X700734Y229391D01*
X699609Y228266D01*
X699000Y226796D01*
Y225204D01*
X699609Y223734D01*
X698998Y222549D01*
X689002D01*
X688391Y223734D01*
X689000Y225204D01*
Y226796D01*
X688391Y228266D01*
X687266Y229391D01*
X685796Y230000D01*
X684204D01*
X682734Y229391D01*
X681609Y228266D01*
X681000Y226796D01*
Y225204D01*
X681609Y223734D01*
X680998Y222549D01*
X604416D01*
X603890Y223819D01*
X604239Y224168D01*
X605000Y226005D01*
Y227995D01*
X604239Y229832D01*
X602832Y231239D01*
X600995Y232000D01*
X599005D01*
X597168Y231239D01*
X595761Y229832D01*
X595687Y229654D01*
X594313D01*
X594239Y229832D01*
X592832Y231239D01*
X590995Y232000D01*
X589005D01*
X588294Y231705D01*
X581996Y238004D01*
X581239Y239832D01*
X579832Y241239D01*
X578705Y241706D01*
X578456Y243000D01*
X578561Y243235D01*
X579832Y243761D01*
X581239Y245168D01*
X582000Y247005D01*
Y248995D01*
X581239Y250832D01*
X579832Y252239D01*
X577995Y253000D01*
X577500D01*
Y275000D01*
X585000Y282500D01*
X607500D01*
X612500Y277500D01*
Y263547D01*
X611453Y262500D01*
X610105D01*
X608451Y261815D01*
X607185Y260549D01*
X606500Y258895D01*
Y257105D01*
X607185Y255451D01*
X608451Y254185D01*
X610105Y253500D01*
X611895D01*
X613549Y254185D01*
X614815Y255451D01*
X615131Y256215D01*
X615523Y256477D01*
X617023Y257977D01*
X623000Y252000D01*
X640929D01*
X642168Y250761D01*
X644005Y250000D01*
X645995D01*
X647832Y250761D01*
X649071Y252000D01*
X654114D01*
X667273D01*
X668500Y250730D01*
Y250105D01*
X669185Y248451D01*
X670451Y247185D01*
X672105Y246500D01*
X673895D01*
X675549Y247185D01*
X676815Y248451D01*
X677500Y250105D01*
Y251895D01*
X677570Y252000D01*
X685508D01*
X748456D01*
X749305Y250730D01*
X749000Y249995D01*
Y248005D01*
X749761Y246168D01*
X751168Y244761D01*
X753005Y244000D01*
X754995D01*
X756832Y244761D01*
X758239Y246168D01*
X759000Y248005D01*
Y249995D01*
X758695Y250730D01*
X759544Y252000D01*
X774455Y252000D01*
X802953D01*
X805227Y249727D01*
X806384Y248953D01*
X807750Y248681D01*
X813407D01*
X814255Y247411D01*
X814000Y246796D01*
Y245204D01*
X814609Y243734D01*
X815734Y242609D01*
X817204Y242000D01*
X818796D01*
X820266Y242609D01*
X821391Y243734D01*
X822000Y245204D01*
Y246796D01*
X821745Y247411D01*
X822594Y248681D01*
X827406D01*
X828255Y247411D01*
X828000Y246796D01*
Y245204D01*
X828609Y243734D01*
X829734Y242609D01*
X831204Y242000D01*
X832796D01*
X834266Y242609D01*
X835391Y243734D01*
X836000Y245204D01*
Y246796D01*
X835745Y247411D01*
X836593Y248681D01*
X850205D01*
X850451Y248435D01*
X852105Y247750D01*
X853895D01*
X855549Y248435D01*
X856815Y249701D01*
X857500Y251355D01*
Y252000D01*
X905000D01*
Y365000D01*
X925000Y385000D01*
X942500D01*
X947500Y380000D01*
D02*
G37*
G36*
X947451Y362908D02*
Y222549D01*
X940043D01*
X939616Y223819D01*
X939884Y224220D01*
X940039Y225000D01*
Y237000D01*
X939884Y237780D01*
X939442Y238442D01*
X933956Y243928D01*
X933789Y244040D01*
X933647Y244182D01*
X933461Y244259D01*
X933294Y244370D01*
X933097Y244409D01*
X932912Y244486D01*
X932711D01*
X932514Y244526D01*
X932317Y244486D01*
X932116D01*
X930870Y244238D01*
X930685Y244162D01*
X930488Y244122D01*
X930321Y244011D01*
X930135Y243934D01*
X929993Y243792D01*
X929826Y243680D01*
X929743Y243555D01*
X928677Y242490D01*
X927589Y242039D01*
X926411D01*
X925323Y242490D01*
X924490Y243323D01*
X924039Y244411D01*
Y245589D01*
X924490Y246677D01*
X925323Y247510D01*
X926367Y247943D01*
X927029Y248385D01*
X927471Y249046D01*
X927626Y249827D01*
Y251173D01*
X927471Y251954D01*
X927029Y252615D01*
X926367Y253057D01*
X925323Y253490D01*
X924490Y254323D01*
X924039Y255411D01*
Y256589D01*
X924490Y257677D01*
X925323Y258510D01*
X926411Y258961D01*
X927500D01*
X928280Y259116D01*
X928942Y259558D01*
X929384Y260220D01*
X929539Y261000D01*
Y261315D01*
X930809Y262164D01*
X931204Y262000D01*
X932796D01*
X934266Y262609D01*
X935391Y263734D01*
X936000Y265204D01*
Y266796D01*
X935391Y268266D01*
X934266Y269391D01*
X932796Y270000D01*
X931204D01*
X930809Y269836D01*
X929539Y270685D01*
Y275315D01*
X930809Y276164D01*
X931204Y276000D01*
X932796D01*
X934266Y276609D01*
X935391Y277734D01*
X936000Y279204D01*
Y280796D01*
X935391Y282266D01*
X934266Y283391D01*
X932796Y284000D01*
X931204D01*
X930809Y283836D01*
X929539Y284685D01*
Y288315D01*
X930809Y289164D01*
X931204Y289000D01*
X932796D01*
X934266Y289609D01*
X935391Y290734D01*
X936000Y292204D01*
Y293796D01*
X935391Y295266D01*
X934266Y296391D01*
X932796Y297000D01*
X931204D01*
X930809Y296836D01*
X929539Y297685D01*
Y319000D01*
X929384Y319780D01*
X928942Y320442D01*
X928280Y320884D01*
X927500Y321039D01*
X927411D01*
X926323Y321490D01*
X925490Y322323D01*
X925039Y323411D01*
Y324589D01*
X925490Y325677D01*
X926323Y326510D01*
X927411Y326961D01*
X927500D01*
X928280Y327116D01*
X928942Y327558D01*
X929384Y328220D01*
X929539Y329000D01*
Y331000D01*
X929384Y331780D01*
X928942Y332442D01*
X928280Y332884D01*
X927500Y333039D01*
X927411D01*
X926323Y333490D01*
X925490Y334323D01*
X925039Y335411D01*
Y336589D01*
X925490Y337677D01*
X926323Y338510D01*
X927411Y338961D01*
X927500D01*
X928280Y339116D01*
X928942Y339558D01*
X929384Y340220D01*
X929539Y341000D01*
Y346655D01*
X934736Y351853D01*
X935179Y352514D01*
X935334Y353294D01*
X935179Y354075D01*
X935039Y354411D01*
Y355589D01*
X935490Y356677D01*
X936323Y357510D01*
X937411Y357961D01*
X938589D01*
X938925Y357822D01*
X939706Y357666D01*
X940486Y357822D01*
X941147Y358264D01*
X941148Y358264D01*
X946278Y363394D01*
X947451Y362908D01*
D02*
G37*
G36*
X574506Y348047D02*
X574554Y347466D01*
X574596Y347208D01*
X574650Y346972D01*
X574716Y346757D01*
X574794Y346564D01*
X574884Y346392D01*
X574986Y346242D01*
X575100Y346114D01*
X570900D01*
X571014Y346242D01*
X571116Y346392D01*
X571206Y346564D01*
X571284Y346757D01*
X571350Y346972D01*
X571404Y347208D01*
X571446Y347466D01*
X571476Y347746D01*
X571500Y348370D01*
X574500D01*
X574506Y348047D01*
D02*
G37*
G36*
X607683Y346947D02*
X608128Y346570D01*
X608340Y346417D01*
X608545Y346288D01*
X608744Y346183D01*
X608935Y346102D01*
X609120Y346044D01*
X609299Y346010D01*
X609470Y346000D01*
X606500Y343030D01*
X606490Y343201D01*
X606456Y343380D01*
X606398Y343565D01*
X606317Y343756D01*
X606212Y343955D01*
X606083Y344160D01*
X605930Y344372D01*
X605754Y344591D01*
X605329Y345049D01*
X607451Y347171D01*
X607683Y346947D01*
D02*
G37*
G36*
X900000Y365000D02*
Y320000D01*
X890000Y310000D01*
X884071D01*
X882832Y311239D01*
X880995Y312000D01*
X879005D01*
X877168Y311239D01*
X875929Y310000D01*
X830000D01*
X820000Y320000D01*
Y360624D01*
X820332Y360761D01*
X821739Y362168D01*
X822500Y364005D01*
Y365995D01*
X822059Y367059D01*
X835000Y380000D01*
X885000D01*
X900000Y365000D01*
D02*
G37*
G36*
X634097Y277703D02*
X634182Y277660D01*
X634293Y277623D01*
X634427Y277590D01*
X634586Y277563D01*
X634978Y277523D01*
X635468Y277502D01*
X635750Y277500D01*
Y274500D01*
X635468Y274498D01*
X634586Y274438D01*
X634427Y274410D01*
X634293Y274377D01*
X634182Y274340D01*
X634097Y274298D01*
X634035Y274250D01*
Y277750D01*
X634097Y277703D01*
D02*
G37*
G36*
X797510Y264898D02*
X797540Y264807D01*
X797592Y264703D01*
X797664Y264585D01*
X797757Y264453D01*
X798006Y264147D01*
X798338Y263787D01*
X798536Y263586D01*
X796414Y261465D01*
X796213Y261662D01*
X795547Y262243D01*
X795415Y262336D01*
X795297Y262408D01*
X795193Y262460D01*
X795102Y262490D01*
X795025Y262500D01*
X797500Y264975D01*
X797510Y264898D01*
D02*
G37*
G36*
X615317Y259196D02*
X613405Y257317D01*
X611731Y260391D01*
X611820Y260377D01*
X611921Y260387D01*
X612034Y260419D01*
X612160Y260475D01*
X612299Y260554D01*
X612449Y260657D01*
X612612Y260782D01*
X612976Y261103D01*
X613176Y261298D01*
X615317Y259196D01*
D02*
G37*
G36*
X851215Y250500D02*
X851153Y250548D01*
X851068Y250590D01*
X850957Y250627D01*
X850823Y250660D01*
X850663Y250688D01*
X850272Y250728D01*
X849782Y250748D01*
X849500Y250750D01*
Y253750D01*
X849782Y253752D01*
X850663Y253813D01*
X850823Y253840D01*
X850957Y253873D01*
X851068Y253910D01*
X851153Y253953D01*
X851215Y254000D01*
Y250500D01*
D02*
G37*
%LPC*%
G36*
X851696Y674500D02*
X850304D01*
X849017Y673967D01*
X848033Y672983D01*
X847500Y671696D01*
Y670304D01*
X848033Y669017D01*
X849017Y668033D01*
X850304Y667500D01*
X851696D01*
X852983Y668033D01*
X853967Y669017D01*
X854500Y670304D01*
Y671696D01*
X853967Y672983D01*
X852983Y673967D01*
X851696Y674500D01*
D02*
G37*
G36*
X898696Y648500D02*
X897304D01*
X896017Y647967D01*
X895033Y646983D01*
X894500Y645696D01*
Y644304D01*
X895033Y643017D01*
X896017Y642033D01*
X897304Y641500D01*
X898696D01*
X899983Y642033D01*
X900967Y643017D01*
X901500Y644304D01*
Y645696D01*
X900967Y646983D01*
X899983Y647967D01*
X898696Y648500D01*
D02*
G37*
G36*
X521000Y705500D02*
X520749D01*
X518333Y704853D01*
X516167Y703602D01*
X514398Y701833D01*
X513147Y699667D01*
X512500Y697251D01*
Y697000D01*
X521000D01*
Y705500D01*
D02*
G37*
G36*
X411796Y705000D02*
X410204D01*
X408734Y704391D01*
X407609Y703266D01*
X407000Y701796D01*
Y700204D01*
X407609Y698734D01*
X408734Y697609D01*
X410204Y697000D01*
X411796D01*
X413266Y697609D01*
X414391Y698734D01*
X415000Y700204D01*
Y701796D01*
X414391Y703266D01*
X413266Y704391D01*
X411796Y705000D01*
D02*
G37*
G36*
X814696Y695500D02*
X813304D01*
X812017Y694967D01*
X811033Y693983D01*
X810500Y692696D01*
Y691304D01*
X811033Y690017D01*
X812017Y689033D01*
X813304Y688500D01*
X814696D01*
X815983Y689033D01*
X816967Y690017D01*
X817500Y691304D01*
Y692696D01*
X816967Y693983D01*
X815983Y694967D01*
X814696Y695500D01*
D02*
G37*
G36*
X437796Y696000D02*
X436204D01*
X434734Y695391D01*
X433609Y694266D01*
X433000Y692796D01*
Y691204D01*
X433609Y689734D01*
X434734Y688609D01*
X436204Y688000D01*
X437796D01*
X439266Y688609D01*
X440391Y689734D01*
X441000Y691204D01*
Y692796D01*
X440391Y694266D01*
X439266Y695391D01*
X437796Y696000D01*
D02*
G37*
G36*
X774796Y695000D02*
X773204D01*
X771734Y694391D01*
X770609Y693266D01*
X770000Y691796D01*
Y690204D01*
X770609Y688734D01*
X771734Y687609D01*
X773204Y687000D01*
X774796D01*
X776266Y687609D01*
X777391Y688734D01*
X778000Y690204D01*
Y691796D01*
X777391Y693266D01*
X776266Y694391D01*
X774796Y695000D01*
D02*
G37*
G36*
X299595Y701200D02*
X297805D01*
X296151Y700515D01*
X294885Y699249D01*
X294200Y697595D01*
Y695805D01*
X294885Y694151D01*
X296151Y692885D01*
X297805Y692200D01*
X299235D01*
X306361Y685074D01*
X305835Y683804D01*
X300560D01*
X299549Y684815D01*
X297895Y685500D01*
X296105D01*
X294451Y684815D01*
X293185Y683549D01*
X292500Y681895D01*
Y680105D01*
X293185Y678451D01*
X294451Y677185D01*
X296105Y676500D01*
X297895D01*
X299549Y677185D01*
X300560Y678196D01*
X305435D01*
X305961Y676926D01*
X301535Y672500D01*
X300105D01*
X298451Y671815D01*
X297185Y670549D01*
X296500Y668895D01*
Y667105D01*
X297185Y665451D01*
X298451Y664185D01*
X300105Y663500D01*
X301895D01*
X303549Y664185D01*
X304815Y665451D01*
X305500Y667105D01*
Y668535D01*
X310161Y673196D01*
X415339D01*
X520747Y567788D01*
X520499Y566542D01*
X519951Y566315D01*
X518685Y565049D01*
X518000Y563395D01*
Y561605D01*
X518685Y559951D01*
X519951Y558685D01*
X521605Y558000D01*
X522674D01*
X546837Y533837D01*
X547830Y533174D01*
X549000Y532941D01*
X549000Y532941D01*
X563328D01*
X563328Y532941D01*
X563809Y533037D01*
X565105Y532500D01*
X566895D01*
X568549Y533185D01*
X569815Y534451D01*
X570500Y536105D01*
Y537340D01*
X571770Y537866D01*
X572451Y537185D01*
X574105Y536500D01*
X575895D01*
X577549Y537185D01*
X578815Y538451D01*
X579500Y540105D01*
Y541895D01*
X579398Y542140D01*
X580104Y543196D01*
X583440D01*
X584451Y542185D01*
X586105Y541500D01*
X587895D01*
X589549Y542185D01*
X590815Y543451D01*
X591500Y545105D01*
Y546340D01*
X591862Y546662D01*
X592691Y547086D01*
X594105Y546500D01*
X595895D01*
X597549Y547185D01*
X598815Y548451D01*
X599500Y550105D01*
Y551895D01*
X598815Y553549D01*
X597549Y554815D01*
X595895Y555500D01*
X594105D01*
X592451Y554815D01*
X591440Y553804D01*
X551904D01*
X419725Y685983D01*
X418816Y686590D01*
X417743Y686804D01*
X408161D01*
X406983Y687983D01*
X406073Y688590D01*
X405000Y688804D01*
X310561D01*
X303200Y696165D01*
Y697595D01*
X302515Y699249D01*
X301249Y700515D01*
X299595Y701200D01*
D02*
G37*
G36*
X814796Y684000D02*
X813204D01*
X811734Y683391D01*
X810609Y682266D01*
X810000Y680796D01*
Y679204D01*
X810609Y677734D01*
X811734Y676609D01*
X813204Y676000D01*
X814796D01*
X816266Y676609D01*
X817391Y677734D01*
X818000Y679204D01*
Y680796D01*
X817391Y682266D01*
X816266Y683391D01*
X814796Y684000D01*
D02*
G37*
G36*
X753296Y681500D02*
X751704D01*
X750234Y680891D01*
X749109Y679766D01*
X748500Y678296D01*
Y676704D01*
X749109Y675234D01*
X750234Y674109D01*
X751704Y673500D01*
X753296D01*
X754766Y674109D01*
X755891Y675234D01*
X756500Y676704D01*
Y678296D01*
X755891Y679766D01*
X754766Y680891D01*
X753296Y681500D01*
D02*
G37*
G36*
X675796Y676500D02*
X674204D01*
X672734Y675891D01*
X671609Y674766D01*
X671000Y673296D01*
Y671704D01*
X671609Y670234D01*
X672734Y669109D01*
X674204Y668500D01*
X675796D01*
X677266Y669109D01*
X678391Y670234D01*
X679000Y671704D01*
Y673296D01*
X678391Y674766D01*
X677266Y675891D01*
X675796Y676500D01*
D02*
G37*
G36*
X818796Y670000D02*
X817204D01*
X815734Y669391D01*
X814720Y668377D01*
X814000Y668317D01*
X813280Y668377D01*
X812266Y669391D01*
X810796Y670000D01*
X809204D01*
X807734Y669391D01*
X806609Y668266D01*
X806000Y666796D01*
Y665204D01*
X806609Y663734D01*
X807734Y662609D01*
X809204Y662000D01*
X810796D01*
X812266Y662609D01*
X813280Y663623D01*
X814000Y663683D01*
X814720Y663623D01*
X815734Y662609D01*
X817204Y662000D01*
X818796D01*
X820266Y662609D01*
X821391Y663734D01*
X822000Y665204D01*
Y666796D01*
X821391Y668266D01*
X820266Y669391D01*
X818796Y670000D01*
D02*
G37*
G36*
X675796Y664000D02*
X674204D01*
X672734Y663391D01*
X671609Y662266D01*
X671000Y660796D01*
Y659204D01*
X671609Y657734D01*
X672734Y656609D01*
X674204Y656000D01*
X675796D01*
X677266Y656609D01*
X678391Y657734D01*
X679000Y659204D01*
Y660796D01*
X678391Y662266D01*
X677266Y663391D01*
X675796Y664000D01*
D02*
G37*
G36*
X699895Y659500D02*
X698105D01*
X696451Y658815D01*
X695185Y657549D01*
X694500Y655895D01*
Y654826D01*
X688174Y648500D01*
X687105D01*
X685451Y647815D01*
X684185Y646549D01*
X683500Y644895D01*
Y643105D01*
X684185Y641451D01*
X685451Y640185D01*
X687105Y639500D01*
X688895D01*
X690549Y640185D01*
X691815Y641451D01*
X692500Y643105D01*
Y644174D01*
X698826Y650500D01*
X699895D01*
X701549Y651185D01*
X702230Y651866D01*
X702722Y651803D01*
X703607Y651447D01*
X704109Y650234D01*
X705234Y649109D01*
X706704Y648500D01*
X708296D01*
X709766Y649109D01*
X710891Y650234D01*
X711500Y651704D01*
Y653296D01*
X710891Y654766D01*
X709766Y655891D01*
X708296Y656500D01*
X706704D01*
X705234Y655891D01*
X704770Y655427D01*
X703500Y655895D01*
X702815Y657549D01*
X701549Y658815D01*
X699895Y659500D01*
D02*
G37*
G36*
X571796Y648000D02*
X570204D01*
X568734Y647391D01*
X567609Y646266D01*
X567000Y644796D01*
Y643204D01*
X567609Y641734D01*
X568734Y640609D01*
X570204Y640000D01*
X571796D01*
X573266Y640609D01*
X574391Y641734D01*
X575000Y643204D01*
Y644796D01*
X574391Y646266D01*
X573266Y647391D01*
X571796Y648000D01*
D02*
G37*
G36*
X536895Y659500D02*
X535105D01*
X533451Y658815D01*
X532185Y657549D01*
X531500Y655895D01*
Y654105D01*
X532185Y652451D01*
X533451Y651185D01*
X535105Y650500D01*
X536895D01*
X538549Y651185D01*
X539305Y651941D01*
X592873D01*
X593578Y650885D01*
X593500Y650696D01*
Y649304D01*
X594033Y648017D01*
X595017Y647033D01*
X596304Y646500D01*
X597696D01*
X598983Y647033D01*
X599967Y648017D01*
X600500Y649304D01*
Y650378D01*
X601436Y650939D01*
X601673Y651001D01*
X608500Y644174D01*
Y643105D01*
X609185Y641451D01*
X610451Y640185D01*
X612105Y639500D01*
X613895D01*
X615549Y640185D01*
X616815Y641451D01*
X617500Y643105D01*
Y644895D01*
X616815Y646549D01*
X615549Y647815D01*
X613895Y648500D01*
X612826D01*
X604163Y657163D01*
X603171Y657826D01*
X602000Y658059D01*
X602000Y658059D01*
X539305D01*
X538549Y658815D01*
X536895Y659500D01*
D02*
G37*
G36*
X680796Y618000D02*
X679204D01*
X677734Y617391D01*
X676609Y616266D01*
X676000Y614796D01*
Y613204D01*
X676609Y611734D01*
X677734Y610609D01*
X679204Y610000D01*
X680796D01*
X682266Y610609D01*
X683391Y611734D01*
X684000Y613204D01*
Y614796D01*
X683391Y616266D01*
X682266Y617391D01*
X680796Y618000D01*
D02*
G37*
G36*
X660796Y617000D02*
X659204D01*
X657734Y616391D01*
X656609Y615266D01*
X656000Y613796D01*
Y612204D01*
X656609Y610734D01*
X657734Y609609D01*
X659204Y609000D01*
X660796D01*
X662266Y609609D01*
X663391Y610734D01*
X664000Y612204D01*
Y613796D01*
X663391Y615266D01*
X662266Y616391D01*
X660796Y617000D01*
D02*
G37*
G36*
X761796Y605000D02*
X760204D01*
X758734Y604391D01*
X757609Y603266D01*
X757000Y601796D01*
Y600204D01*
X757609Y598734D01*
X758734Y597609D01*
X760204Y597000D01*
X761796D01*
X763266Y597609D01*
X764391Y598734D01*
X765000Y600204D01*
Y601796D01*
X764391Y603266D01*
X763266Y604391D01*
X761796Y605000D01*
D02*
G37*
G36*
X730696Y602500D02*
X729304D01*
X728017Y601967D01*
X727033Y600983D01*
X726500Y599696D01*
Y598304D01*
X727033Y597017D01*
X728017Y596033D01*
X729304Y595500D01*
X730696D01*
X731983Y596033D01*
X732967Y597017D01*
X733500Y598304D01*
Y599696D01*
X732967Y600983D01*
X731983Y601967D01*
X730696Y602500D01*
D02*
G37*
G36*
X545696Y598500D02*
X544304D01*
X543017Y597967D01*
X542033Y596983D01*
X541500Y595696D01*
Y594304D01*
X542033Y593017D01*
X543017Y592033D01*
X544304Y591500D01*
X545696D01*
X546983Y592033D01*
X547967Y593017D01*
X548500Y594304D01*
Y595696D01*
X547967Y596983D01*
X546983Y597967D01*
X545696Y598500D01*
D02*
G37*
G36*
X750696Y596000D02*
X749304D01*
X748017Y595467D01*
X747033Y594483D01*
X746500Y593196D01*
Y591804D01*
X747033Y590517D01*
X748017Y589533D01*
X749304Y589000D01*
X750696D01*
X751983Y589533D01*
X752967Y590517D01*
X753500Y591804D01*
Y593196D01*
X752967Y594483D01*
X751983Y595467D01*
X750696Y596000D01*
D02*
G37*
G36*
X866696Y591500D02*
X865304D01*
X864017Y590967D01*
X863033Y589983D01*
X862500Y588696D01*
Y587304D01*
X863033Y586017D01*
X864017Y585033D01*
X865304Y584500D01*
X866696D01*
X867983Y585033D01*
X868967Y586017D01*
X869500Y587304D01*
Y588696D01*
X868967Y589983D01*
X867983Y590967D01*
X866696Y591500D01*
D02*
G37*
G36*
X314895Y617500D02*
X313105D01*
X311451Y616815D01*
X310185Y615549D01*
X309500Y613895D01*
Y612105D01*
X310185Y610451D01*
X310941Y609695D01*
Y601267D01*
X303174Y593500D01*
X302105D01*
X300451Y592815D01*
X299185Y591549D01*
X298500Y589895D01*
Y588105D01*
X299185Y586451D01*
X300451Y585185D01*
X302105Y584500D01*
X303895D01*
X305549Y585185D01*
X306815Y586451D01*
X307500Y588105D01*
Y589174D01*
X316163Y597837D01*
X316826Y598829D01*
X317059Y600000D01*
X317059Y600000D01*
Y609695D01*
X317815Y610451D01*
X318500Y612105D01*
Y613895D01*
X317815Y615549D01*
X316549Y616815D01*
X314895Y617500D01*
D02*
G37*
G36*
X850895Y584500D02*
X849105D01*
X847451Y583815D01*
X846185Y582549D01*
X845673Y581314D01*
X844327D01*
X843815Y582549D01*
X842549Y583815D01*
X840895Y584500D01*
X839105D01*
X837451Y583815D01*
X836185Y582549D01*
X835500Y580895D01*
Y579500D01*
X834105D01*
X832451Y578815D01*
X831185Y577549D01*
X830500Y575895D01*
Y574105D01*
X831185Y572451D01*
X831656Y571980D01*
Y560981D01*
X822800Y552125D01*
X821895Y552500D01*
X820105D01*
X818451Y551815D01*
X817185Y550549D01*
X816500Y548895D01*
Y547105D01*
X816803Y546375D01*
X815451Y545815D01*
X814185Y544549D01*
X813500Y542895D01*
Y541500D01*
X812105D01*
X810451Y540815D01*
X809185Y539549D01*
X808500Y537895D01*
Y536105D01*
X809185Y534451D01*
X810451Y533185D01*
X811803Y532625D01*
X811500Y531895D01*
Y530105D01*
X812185Y528451D01*
X813451Y527185D01*
X815105Y526500D01*
X816895D01*
X818549Y527185D01*
X819305Y527941D01*
X827000D01*
X827000Y527941D01*
X828171Y528174D01*
X829163Y528837D01*
X852163Y551837D01*
X852826Y552830D01*
X853059Y554000D01*
X853059Y554000D01*
Y576695D01*
X853815Y577451D01*
X854500Y579105D01*
Y580895D01*
X853815Y582549D01*
X852549Y583815D01*
X850895Y584500D01*
D02*
G37*
G36*
X607007Y609053D02*
X581007D01*
X579180Y608812D01*
X577477Y608107D01*
X576015Y606985D01*
X574893Y605523D01*
X574188Y603820D01*
X573947Y601993D01*
X574188Y600165D01*
X574893Y598462D01*
X576015Y597000D01*
X577477Y595878D01*
X579180Y595173D01*
X581007Y594932D01*
X594479D01*
X595005Y593662D01*
X594609Y593266D01*
X594000Y591796D01*
Y590204D01*
X594609Y588734D01*
X595734Y587609D01*
X597204Y587000D01*
X598796D01*
X600266Y587609D01*
X601391Y588734D01*
X602000Y590204D01*
Y591796D01*
X601391Y593266D01*
X600995Y593662D01*
X601521Y594932D01*
X604083D01*
X616008Y583008D01*
X617470Y581885D01*
X619173Y581180D01*
X621000Y580940D01*
X700000D01*
X701827Y581180D01*
X703530Y581885D01*
X704992Y583008D01*
X706115Y584470D01*
X706820Y586173D01*
X707060Y588000D01*
X706820Y589827D01*
X706115Y591530D01*
X704992Y592992D01*
X703530Y594114D01*
X701827Y594820D01*
X700000Y595060D01*
X634513D01*
X633987Y596330D01*
X634391Y596734D01*
X635000Y598204D01*
Y599796D01*
X634391Y601266D01*
X633266Y602391D01*
X631796Y603000D01*
X630204D01*
X628734Y602391D01*
X627609Y601266D01*
X627000Y599796D01*
Y598204D01*
X627609Y596734D01*
X628013Y596330D01*
X627487Y595060D01*
X623924D01*
X612000Y606985D01*
X610538Y608107D01*
X608835Y608812D01*
X607007Y609053D01*
D02*
G37*
G36*
X499696Y579500D02*
X498304D01*
X497017Y578967D01*
X496033Y577983D01*
X495500Y576696D01*
Y575304D01*
X496033Y574017D01*
X497017Y573033D01*
X498304Y572500D01*
X499696D01*
X500983Y573033D01*
X501967Y574017D01*
X502500Y575304D01*
Y576696D01*
X501967Y577983D01*
X500983Y578967D01*
X499696Y579500D01*
D02*
G37*
G36*
X802696Y578500D02*
X801304D01*
X800017Y577967D01*
X799033Y576983D01*
X798500Y575696D01*
Y574304D01*
X799033Y573017D01*
X800017Y572033D01*
X801304Y571500D01*
X802696D01*
X803983Y572033D01*
X804967Y573017D01*
X805500Y574304D01*
Y575696D01*
X804967Y576983D01*
X803983Y577967D01*
X802696Y578500D01*
D02*
G37*
G36*
X413796Y572000D02*
X412204D01*
X410734Y571391D01*
X409609Y570266D01*
X409000Y568796D01*
Y567204D01*
X409609Y565734D01*
X410734Y564609D01*
X412204Y564000D01*
X413796D01*
X415266Y564609D01*
X416391Y565734D01*
X417000Y567204D01*
Y568796D01*
X416391Y570266D01*
X415266Y571391D01*
X413796Y572000D01*
D02*
G37*
G36*
X379895Y647500D02*
X378105D01*
X376451Y646815D01*
X375185Y645549D01*
X374500Y643895D01*
Y642826D01*
X348837Y617163D01*
X348174Y616171D01*
X347941Y615000D01*
X347941Y615000D01*
Y571305D01*
X347185Y570549D01*
X346500Y568895D01*
Y567105D01*
X347185Y565451D01*
X348451Y564185D01*
X350105Y563500D01*
X351895D01*
X353549Y564185D01*
X354815Y565451D01*
X355500Y567105D01*
Y568895D01*
X354815Y570549D01*
X354059Y571305D01*
Y613733D01*
X378826Y638500D01*
X379895D01*
X381549Y639185D01*
X382815Y640451D01*
X383500Y642105D01*
Y643895D01*
X382815Y645549D01*
X381549Y646815D01*
X379895Y647500D01*
D02*
G37*
G36*
X248573Y559225D02*
X247181D01*
X245894Y558692D01*
X244910Y557708D01*
X244377Y556421D01*
Y555029D01*
X244910Y553742D01*
X245894Y552758D01*
X247181Y552225D01*
X248573D01*
X249860Y552758D01*
X250844Y553742D01*
X251377Y555029D01*
Y556421D01*
X250844Y557708D01*
X249860Y558692D01*
X248573Y559225D01*
D02*
G37*
G36*
X787895Y588500D02*
X786105D01*
X784451Y587815D01*
X783185Y586549D01*
X782500Y584895D01*
Y583465D01*
X750839Y551804D01*
X714560D01*
X713549Y552815D01*
X711895Y553500D01*
X710105D01*
X708451Y552815D01*
X707185Y551549D01*
X706500Y549895D01*
Y548105D01*
X707185Y546451D01*
X708451Y545185D01*
X710105Y544500D01*
X711500D01*
Y543105D01*
X712185Y541451D01*
X713451Y540185D01*
X715105Y539500D01*
X716895D01*
X718549Y540185D01*
X719560Y541196D01*
X756000D01*
X757073Y541410D01*
X757983Y542017D01*
X793465Y577500D01*
X794895D01*
X796549Y578185D01*
X797815Y579451D01*
X798500Y581105D01*
Y582895D01*
X797815Y584549D01*
X796549Y585815D01*
X794895Y586500D01*
X793105D01*
X791451Y585815D01*
X791089Y585887D01*
X790815Y586549D01*
X789549Y587815D01*
X787895Y588500D01*
D02*
G37*
G36*
X507796Y548000D02*
X506204D01*
X504734Y547391D01*
X503609Y546266D01*
X503000Y544796D01*
Y543204D01*
X503609Y541734D01*
X504734Y540609D01*
X506204Y540000D01*
X507796D01*
X509266Y540609D01*
X510391Y541734D01*
X511000Y543204D01*
Y544796D01*
X510391Y546266D01*
X509266Y547391D01*
X507796Y548000D01*
D02*
G37*
G36*
X768184Y535712D02*
X766593D01*
X765123Y535103D01*
X763997Y533978D01*
X763389Y532508D01*
Y530916D01*
X763997Y529446D01*
X765123Y528321D01*
X766593Y527712D01*
X768184D01*
X769654Y528321D01*
X770780Y529446D01*
X771389Y530916D01*
Y532508D01*
X770780Y533978D01*
X769654Y535103D01*
X768184Y535712D01*
D02*
G37*
G36*
X900696Y533500D02*
X899304D01*
X898017Y532967D01*
X897033Y531983D01*
X896500Y530696D01*
Y529304D01*
X897033Y528017D01*
X898017Y527033D01*
X899304Y526500D01*
X900696D01*
X901983Y527033D01*
X902967Y528017D01*
X903500Y529304D01*
Y530696D01*
X902967Y531983D01*
X901983Y532967D01*
X900696Y533500D01*
D02*
G37*
G36*
X301895Y538500D02*
X300105D01*
X298451Y537815D01*
X297185Y536549D01*
X296500Y534895D01*
Y533105D01*
X297185Y531451D01*
X298451Y530185D01*
X300105Y529500D01*
X301174D01*
X301837Y528837D01*
X301837Y528837D01*
X302829Y528174D01*
X304000Y527941D01*
X304000Y527941D01*
X418695D01*
X419451Y527185D01*
X421105Y526500D01*
X422895D01*
X424549Y527185D01*
X425815Y528451D01*
X426500Y530105D01*
Y531895D01*
X425815Y533549D01*
X424549Y534815D01*
X422895Y535500D01*
X421105D01*
X419451Y534815D01*
X418695Y534059D01*
X305500D01*
Y534895D01*
X304815Y536549D01*
X303549Y537815D01*
X301895Y538500D01*
D02*
G37*
G36*
X412895Y551500D02*
X411105D01*
X409451Y550815D01*
X408185Y549549D01*
X407500Y547895D01*
Y546105D01*
X408185Y544451D01*
X409451Y543185D01*
X411105Y542500D01*
X412895D01*
X413246Y542645D01*
X413599Y542410D01*
X414672Y542196D01*
X463839D01*
X489803Y516232D01*
X489317Y515059D01*
X472172D01*
X472172Y515059D01*
X471001Y514826D01*
X470468Y514470D01*
X470395Y514500D01*
X468605D01*
X466951Y513815D01*
X465685Y512549D01*
X465000Y510895D01*
Y509105D01*
X465685Y507451D01*
X466951Y506185D01*
X468605Y505500D01*
X470395D01*
X472049Y506185D01*
X473315Y507451D01*
X473932Y508941D01*
X497807D01*
X498656Y507671D01*
X498500Y507296D01*
Y505704D01*
X499109Y504234D01*
X500234Y503109D01*
X501704Y502500D01*
X503296D01*
X504766Y503109D01*
X505891Y504234D01*
X506500Y505704D01*
Y507296D01*
X506344Y507671D01*
X507193Y508941D01*
X561195D01*
X561951Y508185D01*
X563605Y507500D01*
X565395D01*
X567049Y508185D01*
X568315Y509451D01*
X569000Y511105D01*
Y512895D01*
X568315Y514549D01*
X567049Y515815D01*
X565395Y516500D01*
X564654Y517770D01*
X565000Y518605D01*
Y520395D01*
X564315Y522049D01*
X563049Y523315D01*
X561395Y524000D01*
X559605D01*
X557951Y523315D01*
X556685Y522049D01*
X556000Y520395D01*
Y519804D01*
X494161D01*
X466983Y546983D01*
X466073Y547590D01*
X465000Y547804D01*
X416500D01*
Y547895D01*
X415815Y549549D01*
X414549Y550815D01*
X412895Y551500D01*
D02*
G37*
G36*
X351895Y513500D02*
X350105D01*
X348451Y512815D01*
X347440Y511804D01*
X342560D01*
X341549Y512815D01*
X339895Y513500D01*
X338105D01*
X336451Y512815D01*
X335185Y511549D01*
X334500Y509895D01*
Y508105D01*
X335185Y506451D01*
X336451Y505185D01*
X338105Y504500D01*
X339895D01*
X341549Y505185D01*
X342560Y506196D01*
X347440D01*
X348451Y505185D01*
X350105Y504500D01*
X351895D01*
X353549Y505185D01*
X354815Y506451D01*
X355500Y508105D01*
Y509895D01*
X354815Y511549D01*
X353549Y512815D01*
X351895Y513500D01*
D02*
G37*
G36*
X776250Y507309D02*
X776250Y507309D01*
X742750D01*
X742750Y507309D01*
X741579Y507076D01*
X740587Y506413D01*
X732299Y498125D01*
X731395Y498500D01*
X729605D01*
X727951Y497815D01*
X726685Y496549D01*
X726000Y494895D01*
Y493105D01*
X726685Y491451D01*
X727951Y490185D01*
X729605Y489500D01*
X731395D01*
X733049Y490185D01*
X734315Y491451D01*
X734403Y491663D01*
X734663Y491837D01*
X744017Y501191D01*
X745907D01*
X746433Y499921D01*
X743756Y497244D01*
X742761Y495756D01*
X742412Y494000D01*
Y462000D01*
X742761Y460244D01*
X743756Y458756D01*
X749064Y453447D01*
X750553Y452452D01*
X752309Y452103D01*
X753756D01*
X754005Y452000D01*
X755995D01*
X757832Y452761D01*
X759239Y454168D01*
X760000Y456005D01*
Y457995D01*
X759239Y459832D01*
X757832Y461239D01*
X755995Y462000D01*
X754005D01*
X753640Y461849D01*
X751588Y463900D01*
Y492099D01*
X752401Y492912D01*
X757109D01*
X758103Y492500D01*
X760092D01*
X761930Y493261D01*
X763337Y494668D01*
X764098Y496506D01*
Y498495D01*
X763507Y499921D01*
X764137Y501191D01*
X774983D01*
X781337Y494837D01*
X781337Y494837D01*
X782329Y494174D01*
X783500Y493941D01*
X796695D01*
X797451Y493185D01*
X799105Y492500D01*
X800895D01*
X802549Y493185D01*
X803815Y494451D01*
X804500Y496105D01*
Y497895D01*
X803815Y499549D01*
X802549Y500815D01*
X800895Y501500D01*
X799105D01*
X797451Y500815D01*
X796695Y500059D01*
X784767D01*
X778413Y506413D01*
X777421Y507076D01*
X776250Y507309D01*
D02*
G37*
G36*
X898296Y494000D02*
X896704D01*
X895234Y493391D01*
X894109Y492266D01*
X893500Y490796D01*
Y489204D01*
X894109Y487734D01*
X895234Y486609D01*
X896704Y486000D01*
X898296D01*
X899766Y486609D01*
X900891Y487734D01*
X901500Y489204D01*
Y490796D01*
X900891Y492266D01*
X899766Y493391D01*
X898296Y494000D01*
D02*
G37*
G36*
X351895Y486500D02*
X350105D01*
X348451Y485815D01*
X347185Y484549D01*
X347159Y484485D01*
X346426D01*
X346426Y484485D01*
X345255Y484252D01*
X344263Y483589D01*
X344263Y483589D01*
X298174Y437500D01*
X297105D01*
X295451Y436815D01*
X294185Y435549D01*
X293500Y433895D01*
Y432105D01*
X294185Y430451D01*
X295451Y429185D01*
X297105Y428500D01*
X298895D01*
X300549Y429185D01*
X301815Y430451D01*
X302500Y432105D01*
Y433174D01*
X347202Y477876D01*
X348451Y478185D01*
X350105Y477500D01*
X351895D01*
X353549Y478185D01*
X354815Y479451D01*
X355500Y481105D01*
Y482895D01*
X354815Y484549D01*
X353549Y485815D01*
X351895Y486500D01*
D02*
G37*
G36*
X761796Y488000D02*
X760204D01*
X758734Y487391D01*
X757609Y486266D01*
X757000Y484796D01*
Y483204D01*
X757609Y481734D01*
X758734Y480609D01*
X760204Y480000D01*
X761796D01*
X763266Y480609D01*
X764391Y481734D01*
X765000Y483204D01*
Y484796D01*
X764391Y486266D01*
X763266Y487391D01*
X761796Y488000D01*
D02*
G37*
G36*
X687895Y519500D02*
X686105D01*
X684451Y518815D01*
X683185Y517549D01*
X682500Y515895D01*
Y514105D01*
X683185Y512451D01*
X683187Y512449D01*
X683451Y511815D01*
X682185Y510549D01*
X681500Y508895D01*
Y507105D01*
X682185Y505451D01*
X683451Y504185D01*
X685105Y503500D01*
X686535D01*
X708500Y481535D01*
Y480105D01*
X709185Y478451D01*
X710451Y477185D01*
X712105Y476500D01*
X713895D01*
X715549Y477185D01*
X716815Y478451D01*
X717500Y480105D01*
Y481895D01*
X716815Y483549D01*
X716194Y484170D01*
X715667Y485000D01*
X716194Y485830D01*
X716815Y486451D01*
X717500Y488105D01*
Y489895D01*
X716815Y491549D01*
X715549Y492815D01*
X713895Y493500D01*
X712826D01*
X691500Y514826D01*
Y515895D01*
X690815Y517549D01*
X689549Y518815D01*
X687895Y519500D01*
D02*
G37*
G36*
X504796Y472000D02*
X503204D01*
X501734Y471391D01*
X500609Y470266D01*
X500000Y468796D01*
Y467204D01*
X500609Y465734D01*
X501734Y464609D01*
X503204Y464000D01*
X504796D01*
X506266Y464609D01*
X507391Y465734D01*
X508000Y467204D01*
Y468796D01*
X507391Y470266D01*
X506266Y471391D01*
X504796Y472000D01*
D02*
G37*
G36*
X411895Y504500D02*
X410105D01*
X408451Y503815D01*
X407185Y502549D01*
X406500Y500895D01*
Y499105D01*
X407185Y497451D01*
X407941Y496695D01*
Y495267D01*
X386174Y473500D01*
X385105D01*
X383451Y472815D01*
X382185Y471549D01*
X381500Y469895D01*
Y468105D01*
X382185Y466451D01*
X383451Y465185D01*
X385105Y464500D01*
X385739D01*
X386265Y463230D01*
X340517Y417483D01*
X339910Y416573D01*
X339696Y415500D01*
Y413560D01*
X338685Y412549D01*
X338000Y410895D01*
Y409105D01*
X338685Y407451D01*
X339951Y406185D01*
X341605Y405500D01*
X343395D01*
X345049Y406185D01*
X346315Y407451D01*
X347000Y409105D01*
Y410895D01*
X346315Y412549D01*
X345304Y413560D01*
Y414339D01*
X400445Y469479D01*
X400826Y469438D01*
X401699Y468264D01*
Y466672D01*
X402308Y465202D01*
X403433Y464077D01*
X404903Y463468D01*
X406495D01*
X407965Y464077D01*
X409090Y465202D01*
X409699Y466672D01*
Y468264D01*
X409425Y468926D01*
X410273Y470196D01*
X412440D01*
X413451Y469185D01*
X415105Y468500D01*
X416500D01*
Y467105D01*
X417185Y465451D01*
X418451Y464185D01*
X420105Y463500D01*
X421895D01*
X423549Y464185D01*
X424815Y465451D01*
X425500Y467105D01*
Y468895D01*
X424815Y470549D01*
X423804Y471560D01*
Y489000D01*
X423590Y490073D01*
X422983Y490983D01*
X422500Y491465D01*
Y492895D01*
X421815Y494549D01*
X420549Y495815D01*
X418895Y496500D01*
X417105D01*
X416227Y496136D01*
X414796Y496819D01*
X414694Y497330D01*
X414815Y497451D01*
X415500Y499105D01*
Y500895D01*
X414815Y502549D01*
X413549Y503815D01*
X411895Y504500D01*
D02*
G37*
G36*
X901796Y448000D02*
X900204D01*
X898734Y447391D01*
X897609Y446266D01*
X897000Y444796D01*
Y443204D01*
X897609Y441734D01*
X898734Y440609D01*
X900204Y440000D01*
X901796D01*
X903266Y440609D01*
X904391Y441734D01*
X905000Y443204D01*
Y444796D01*
X904391Y446266D01*
X903266Y447391D01*
X901796Y448000D01*
D02*
G37*
G36*
X380895Y503500D02*
X379105D01*
X377451Y502815D01*
X376185Y501549D01*
X375500Y499895D01*
Y498105D01*
X376185Y496451D01*
X376941Y495695D01*
Y485267D01*
X338976Y447302D01*
X338648Y446811D01*
X337451Y446315D01*
X336185Y445049D01*
X335500Y443395D01*
Y441605D01*
X336185Y439951D01*
X337451Y438685D01*
X339105Y438000D01*
X340895D01*
X342549Y438685D01*
X343815Y439951D01*
X344500Y441605D01*
Y443395D01*
X344272Y443946D01*
X382163Y481837D01*
X382163Y481837D01*
X382826Y482830D01*
X383059Y484000D01*
Y495695D01*
X383815Y496451D01*
X384500Y498105D01*
Y499895D01*
X383815Y501549D01*
X382549Y502815D01*
X380895Y503500D01*
D02*
G37*
G36*
X695895Y452500D02*
X694105D01*
X692451Y451815D01*
X691185Y450549D01*
X690500Y448895D01*
Y447465D01*
X680839Y437804D01*
X556161D01*
X549733Y444233D01*
X548823Y444840D01*
X547750Y445054D01*
X543310D01*
X542549Y445815D01*
X540895Y446500D01*
X539105D01*
X537451Y445815D01*
X536185Y444549D01*
X535500Y442895D01*
Y441105D01*
X536185Y439451D01*
X537451Y438185D01*
X539105Y437500D01*
X540895D01*
X541000Y437430D01*
Y436204D01*
X541468Y435074D01*
X540880Y433804D01*
X527000D01*
X525927Y433590D01*
X525017Y432983D01*
X488535Y396500D01*
X487105D01*
X485451Y395815D01*
X484185Y394549D01*
X483500Y392895D01*
Y391105D01*
X484185Y389451D01*
X485451Y388185D01*
X485646Y388104D01*
X485894Y386859D01*
X420879Y321844D01*
X419615Y321917D01*
X418842Y323074D01*
X419000Y323454D01*
Y325046D01*
X418391Y326516D01*
X417266Y327641D01*
X415796Y328250D01*
X414204D01*
X412734Y327641D01*
X411609Y326516D01*
X411000Y325046D01*
Y323454D01*
X411158Y323074D01*
X410309Y321804D01*
X346104D01*
X345398Y322860D01*
X345500Y323105D01*
Y324895D01*
X344815Y326549D01*
X344059Y327305D01*
Y340733D01*
X372767Y369441D01*
X376695D01*
X377451Y368685D01*
X379105Y368000D01*
X380895D01*
X382549Y368685D01*
X383815Y369951D01*
X384500Y371605D01*
Y373395D01*
X383815Y375049D01*
X382549Y376315D01*
X380895Y377000D01*
X379105D01*
X377451Y376315D01*
X376695Y375559D01*
X371500D01*
X370330Y375326D01*
X369337Y374663D01*
X369337Y374663D01*
X338837Y344163D01*
X338174Y343171D01*
X337941Y342000D01*
X337941Y342000D01*
Y327305D01*
X337185Y326549D01*
X336500Y324895D01*
Y323105D01*
X336601Y322860D01*
X335896Y321804D01*
X321161D01*
X303500Y339465D01*
Y340895D01*
X302815Y342549D01*
X301549Y343815D01*
X299895Y344500D01*
X298105D01*
X296451Y343815D01*
X295185Y342549D01*
X294500Y340895D01*
Y339105D01*
X295185Y337451D01*
X296451Y336185D01*
X298105Y335500D01*
X299535D01*
X316058Y318977D01*
X315572Y317804D01*
X309161D01*
X303500Y323465D01*
Y324895D01*
X302815Y326549D01*
X301549Y327815D01*
X299895Y328500D01*
X298105D01*
X296451Y327815D01*
X295185Y326549D01*
X294500Y324895D01*
Y323105D01*
X295185Y321451D01*
X296451Y320185D01*
X298105Y319500D01*
X299535D01*
X306017Y313017D01*
X306110Y312075D01*
X299235Y305200D01*
X297805D01*
X296151Y304515D01*
X294885Y303249D01*
X294200Y301595D01*
Y299805D01*
X294885Y298151D01*
X296151Y296885D01*
X297805Y296200D01*
X299595D01*
X301249Y296885D01*
X302515Y298151D01*
X303200Y299805D01*
Y301235D01*
X310161Y308196D01*
X316572D01*
X317058Y307023D01*
X299235Y289200D01*
X297805D01*
X296151Y288515D01*
X294885Y287249D01*
X294200Y285595D01*
Y283805D01*
X294885Y282151D01*
X296151Y280885D01*
X296839Y280600D01*
X297137Y279102D01*
X296017Y277983D01*
X295410Y277073D01*
X295196Y276000D01*
Y265560D01*
X294185Y264549D01*
X293500Y262895D01*
Y261105D01*
X294185Y259451D01*
X295451Y258185D01*
X297105Y257500D01*
X298895D01*
X300549Y258185D01*
X301815Y259451D01*
X302500Y261105D01*
Y262895D01*
X301815Y264549D01*
X300804Y265560D01*
Y274839D01*
X326161Y300196D01*
X337896D01*
X338601Y299140D01*
X338500Y298895D01*
Y297105D01*
X339185Y295451D01*
X339512Y295124D01*
X339451Y294815D01*
X338185Y293549D01*
X337500Y291895D01*
Y290105D01*
X338185Y288451D01*
X339451Y287185D01*
X341105Y286500D01*
X342535D01*
X343017Y286017D01*
X343927Y285410D01*
X345000Y285196D01*
X431000D01*
X432073Y285410D01*
X432983Y286017D01*
X457412Y310447D01*
X458585Y309961D01*
Y299870D01*
X458451Y299815D01*
X457185Y298549D01*
X456500Y296895D01*
Y295105D01*
X457185Y293451D01*
X458451Y292185D01*
X460105Y291500D01*
X461895D01*
X463549Y292185D01*
X464500Y293136D01*
X465451Y292185D01*
X467105Y291500D01*
X468895D01*
X470549Y292185D01*
X471815Y293451D01*
X472500Y295105D01*
Y296895D01*
X471815Y298549D01*
X470804Y299560D01*
Y310839D01*
X548161Y388196D01*
X551072D01*
X551558Y387023D01*
X539517Y374983D01*
X538910Y374073D01*
X538696Y373000D01*
Y362560D01*
X537685Y361549D01*
X537000Y359895D01*
Y358105D01*
X537685Y356451D01*
X538386Y355750D01*
X537185Y354549D01*
X536500Y352895D01*
Y351105D01*
X537185Y349451D01*
X538451Y348185D01*
X540105Y347500D01*
X541895D01*
X543549Y348185D01*
X544815Y349451D01*
X545022Y349951D01*
X545185Y349984D01*
X546095Y350591D01*
X549483Y353979D01*
X550090Y354889D01*
X550304Y355962D01*
Y371839D01*
X556661Y378196D01*
X598876D01*
X599185Y377451D01*
X600451Y376185D01*
X602105Y375500D01*
X603895D01*
X605549Y376185D01*
X606170Y376806D01*
X607000Y377333D01*
X607830Y376806D01*
X608451Y376185D01*
X610105Y375500D01*
X611895D01*
X613549Y376185D01*
X614815Y377451D01*
X615500Y379105D01*
Y380895D01*
X614815Y382549D01*
X613549Y383815D01*
X611895Y384500D01*
X610465D01*
X607942Y387023D01*
X608428Y388196D01*
X651839D01*
X652500Y387535D01*
Y386105D01*
X653185Y384451D01*
X654451Y383185D01*
X656105Y382500D01*
X657895D01*
X659549Y383185D01*
X660815Y384451D01*
X661500Y386105D01*
Y387739D01*
X661908Y388057D01*
X662673Y388361D01*
X668500Y382535D01*
Y381105D01*
X669185Y379451D01*
X670451Y378185D01*
X672105Y377500D01*
X673895D01*
X675549Y378185D01*
X676815Y379451D01*
X676983Y379857D01*
X677951Y380685D01*
X678502Y380457D01*
X679605Y380000D01*
X681395D01*
X683049Y380685D01*
X684315Y381951D01*
X685715Y382017D01*
X686021Y381758D01*
X686057Y380421D01*
X685185Y379549D01*
X684500Y377895D01*
Y376105D01*
X685185Y374451D01*
X686451Y373185D01*
X688105Y372500D01*
X689895D01*
X691549Y373185D01*
X692815Y374451D01*
X693500Y376105D01*
Y377895D01*
X692815Y379549D01*
X693730Y380406D01*
X694951Y379185D01*
X696605Y378500D01*
X698395D01*
X700049Y379185D01*
X701315Y380451D01*
X702000Y382105D01*
Y383895D01*
X701315Y385549D01*
X700049Y386815D01*
X698395Y387500D01*
X696965D01*
X688442Y396023D01*
X688928Y397196D01*
X706500D01*
X707573Y397410D01*
X708483Y398017D01*
X710965Y400500D01*
X712395D01*
X714049Y401185D01*
X715315Y402451D01*
X715356Y402549D01*
X716730D01*
X717185Y401451D01*
X718451Y400185D01*
X720105Y399500D01*
X721895D01*
X723549Y400185D01*
X724815Y401451D01*
X725500Y403105D01*
Y404895D01*
X724815Y406549D01*
X723549Y407815D01*
X721895Y408500D01*
X721465D01*
X696983Y432983D01*
X696073Y433590D01*
X695000Y433804D01*
X686429D01*
X685942Y434977D01*
X694465Y443500D01*
X695895D01*
X697549Y444185D01*
X698815Y445451D01*
X699500Y447105D01*
Y448895D01*
X698815Y450549D01*
X697549Y451815D01*
X695895Y452500D01*
D02*
G37*
G36*
X500296Y440000D02*
X498704D01*
X497234Y439391D01*
X496109Y438266D01*
X495500Y436796D01*
Y435204D01*
X496109Y433734D01*
X497234Y432609D01*
X498704Y432000D01*
X500296D01*
X501766Y432609D01*
X502891Y433734D01*
X503500Y435204D01*
Y436796D01*
X502891Y438266D01*
X501766Y439391D01*
X500296Y440000D01*
D02*
G37*
G36*
X901796Y435000D02*
X900204D01*
X898734Y434391D01*
X897609Y433266D01*
X897000Y431796D01*
Y430204D01*
X897609Y428734D01*
X898734Y427609D01*
X900204Y427000D01*
X901796D01*
X903266Y427609D01*
X904391Y428734D01*
X905000Y430204D01*
Y431796D01*
X904391Y433266D01*
X903266Y434391D01*
X901796Y435000D01*
D02*
G37*
G36*
X763796D02*
X762204D01*
X760734Y434391D01*
X759609Y433266D01*
X759000Y431796D01*
Y430204D01*
X759609Y428734D01*
X760734Y427609D01*
X762204Y427000D01*
X763796D01*
X765266Y427609D01*
X766391Y428734D01*
X767000Y430204D01*
Y431796D01*
X766391Y433266D01*
X765266Y434391D01*
X763796Y435000D01*
D02*
G37*
G36*
X828696Y433500D02*
X827304D01*
X826017Y432967D01*
X825033Y431983D01*
X824500Y430696D01*
Y429304D01*
X825033Y428017D01*
X826017Y427033D01*
X827304Y426500D01*
X828696D01*
X829983Y427033D01*
X830967Y428017D01*
X831500Y429304D01*
Y430696D01*
X830967Y431983D01*
X829983Y432967D01*
X828696Y433500D01*
D02*
G37*
G36*
X491796Y431000D02*
X490204D01*
X488734Y430391D01*
X487609Y429266D01*
X487000Y427796D01*
Y426204D01*
X487609Y424734D01*
X488734Y423609D01*
X490204Y423000D01*
X491796D01*
X493266Y423609D01*
X494391Y424734D01*
X495000Y426204D01*
Y427796D01*
X494391Y429266D01*
X493266Y430391D01*
X491796Y431000D01*
D02*
G37*
G36*
X693395Y467500D02*
X691605D01*
X689951Y466815D01*
X688685Y465549D01*
X688000Y463895D01*
Y462105D01*
X688685Y460451D01*
X689951Y459185D01*
X691605Y458500D01*
X692674D01*
X717441Y433733D01*
Y427305D01*
X716685Y426549D01*
X716000Y424895D01*
Y423105D01*
X716685Y421451D01*
X717951Y420185D01*
X719605Y419500D01*
X721395D01*
X723049Y420185D01*
X724315Y421451D01*
X725000Y423105D01*
Y424895D01*
X724315Y426549D01*
X723559Y427305D01*
Y435000D01*
X723326Y436171D01*
X722663Y437163D01*
X722663Y437163D01*
X697000Y462826D01*
Y463895D01*
X696315Y465549D01*
X695049Y466815D01*
X693395Y467500D01*
D02*
G37*
G36*
X500796Y424000D02*
X499204D01*
X497734Y423391D01*
X496609Y422266D01*
X496000Y420796D01*
Y419204D01*
X496609Y417734D01*
X497734Y416609D01*
X499204Y416000D01*
X500796D01*
X502266Y416609D01*
X503391Y417734D01*
X504000Y419204D01*
Y420796D01*
X503391Y422266D01*
X502266Y423391D01*
X500796Y424000D01*
D02*
G37*
G36*
X800796Y423000D02*
X799204D01*
X797734Y422391D01*
X796609Y421266D01*
X796000Y419796D01*
Y418204D01*
X796609Y416734D01*
X797734Y415609D01*
X799204Y415000D01*
X800796D01*
X802266Y415609D01*
X803391Y416734D01*
X804000Y418204D01*
Y419796D01*
X803391Y421266D01*
X802266Y422391D01*
X800796Y423000D01*
D02*
G37*
G36*
X485895Y464500D02*
X484105D01*
X482451Y463815D01*
X481185Y462549D01*
X480500Y460895D01*
Y459465D01*
X435291Y414257D01*
X414107D01*
X413549Y414815D01*
X411895Y415500D01*
X410105D01*
X408451Y414815D01*
X407185Y413549D01*
X406500Y411895D01*
Y410105D01*
X407185Y408451D01*
X408451Y407185D01*
X410105Y406500D01*
X411895D01*
X413549Y407185D01*
X414815Y408451D01*
X414897Y408649D01*
X436453D01*
X437526Y408862D01*
X438435Y409470D01*
X484465Y455500D01*
X485895D01*
X487549Y456185D01*
X488815Y457451D01*
X489500Y459105D01*
Y460895D01*
X488815Y462549D01*
X487549Y463815D01*
X485895Y464500D01*
D02*
G37*
G36*
X790696Y388500D02*
X789304D01*
X788017Y387967D01*
X787033Y386983D01*
X786500Y385696D01*
Y384304D01*
X787033Y383017D01*
X788017Y382033D01*
X789304Y381500D01*
X790696D01*
X791983Y382033D01*
X792967Y383017D01*
X793500Y384304D01*
Y385696D01*
X792967Y386983D01*
X791983Y387967D01*
X790696Y388500D01*
D02*
G37*
G36*
X762696Y355500D02*
X761304D01*
X760017Y354967D01*
X759033Y353983D01*
X758500Y352696D01*
Y351304D01*
X759033Y350017D01*
X760017Y349033D01*
X761304Y348500D01*
X762696D01*
X763983Y349033D01*
X764967Y350017D01*
X765500Y351304D01*
Y352696D01*
X764967Y353983D01*
X763983Y354967D01*
X762696Y355500D01*
D02*
G37*
G36*
X588796Y347000D02*
X587204D01*
X585734Y346391D01*
X584609Y345266D01*
X584000Y343796D01*
Y342204D01*
X584609Y340734D01*
X585734Y339609D01*
X587204Y339000D01*
X588796D01*
X590266Y339609D01*
X591391Y340734D01*
X592000Y342204D01*
Y343796D01*
X591391Y345266D01*
X590266Y346391D01*
X588796Y347000D01*
D02*
G37*
G36*
X746696Y339500D02*
X745304D01*
X744017Y338967D01*
X743033Y337983D01*
X742500Y336696D01*
Y335304D01*
X743033Y334017D01*
X744017Y333033D01*
X745304Y332500D01*
X746696D01*
X747983Y333033D01*
X748967Y334017D01*
X749500Y335304D01*
Y336696D01*
X748967Y337983D01*
X747983Y338967D01*
X746696Y339500D01*
D02*
G37*
G36*
X556696Y337500D02*
X555304D01*
X554017Y336967D01*
X553033Y335983D01*
X552500Y334696D01*
Y333304D01*
X553033Y332017D01*
X554017Y331033D01*
X555304Y330500D01*
X556696D01*
X557983Y331033D01*
X558967Y332017D01*
X559500Y333304D01*
Y334696D01*
X558967Y335983D01*
X557983Y336967D01*
X556696Y337500D01*
D02*
G37*
G36*
X546696D02*
X545304D01*
X544017Y336967D01*
X543033Y335983D01*
X542500Y334696D01*
Y333304D01*
X543033Y332017D01*
X544017Y331033D01*
X545304Y330500D01*
X546696D01*
X547983Y331033D01*
X548967Y332017D01*
X549500Y333304D01*
Y334696D01*
X548967Y335983D01*
X547983Y336967D01*
X546696Y337500D01*
D02*
G37*
G36*
X621796Y328000D02*
X620204D01*
X618734Y327391D01*
X617609Y326266D01*
X617000Y324796D01*
Y323204D01*
X617609Y321734D01*
X618734Y320609D01*
X620204Y320000D01*
X621796D01*
X623266Y320609D01*
X624391Y321734D01*
X625000Y323204D01*
Y324796D01*
X624391Y326266D01*
X623266Y327391D01*
X621796Y328000D01*
D02*
G37*
G36*
X754696Y319500D02*
X753304D01*
X752017Y318967D01*
X751033Y317983D01*
X750500Y316696D01*
Y315304D01*
X751033Y314017D01*
X752017Y313033D01*
X753304Y312500D01*
X754696D01*
X755983Y313033D01*
X756967Y314017D01*
X757500Y315304D01*
Y316696D01*
X756967Y317983D01*
X755983Y318967D01*
X754696Y319500D01*
D02*
G37*
G36*
X239000Y476060D02*
X231000D01*
X229173Y475820D01*
X227470Y475115D01*
X226007Y473992D01*
X224886Y472530D01*
X224180Y470827D01*
X223940Y469000D01*
X224180Y467173D01*
X224886Y465470D01*
X226007Y464008D01*
X227940Y462076D01*
Y461112D01*
Y314000D01*
X227940Y314000D01*
X228180Y312173D01*
X228885Y310470D01*
X230007Y309007D01*
X242940Y296075D01*
Y246000D01*
X243180Y244173D01*
X243885Y242470D01*
X245008Y241007D01*
X253008Y233008D01*
X254470Y231886D01*
X256173Y231180D01*
X258000Y230940D01*
X342640D01*
X343573Y230008D01*
X345035Y228885D01*
X346738Y228180D01*
X348565Y227940D01*
X377000D01*
X378827Y228180D01*
X380530Y228885D01*
X381992Y230008D01*
X383115Y231470D01*
X383820Y233173D01*
X384060Y235000D01*
X383820Y236827D01*
X383115Y238530D01*
X381992Y239993D01*
X380530Y241115D01*
X378827Y241820D01*
X377000Y242060D01*
X351489D01*
X350557Y242992D01*
X349095Y244114D01*
X347392Y244820D01*
X345565Y245060D01*
X260924D01*
X257060Y248925D01*
Y299000D01*
X256820Y300827D01*
X256115Y302530D01*
X254993Y303992D01*
X242060Y316924D01*
Y461112D01*
Y462076D01*
X243993Y464008D01*
X245114Y465470D01*
X245820Y467173D01*
X246060Y469000D01*
X245820Y470827D01*
X245114Y472530D01*
X243993Y473992D01*
X242530Y475115D01*
X240827Y475820D01*
X239000Y476060D01*
D02*
G37*
%LPD*%
G36*
X301205Y696401D02*
X301227Y696139D01*
X301264Y695890D01*
X301318Y695652D01*
X301387Y695427D01*
X301473Y695214D01*
X301575Y695013D01*
X301693Y694824D01*
X301827Y694648D01*
X301977Y694483D01*
X300917Y693423D01*
X300752Y693573D01*
X300576Y693707D01*
X300387Y693825D01*
X300186Y693927D01*
X299973Y694013D01*
X299748Y694082D01*
X299510Y694136D01*
X299261Y694174D01*
X298999Y694195D01*
X298725Y694200D01*
X301200Y696675D01*
X301205Y696401D01*
D02*
G37*
G36*
X298983Y682560D02*
X299183Y682390D01*
X299386Y682240D01*
X299592Y682110D01*
X299800Y682000D01*
X300012Y681910D01*
X300226Y681840D01*
X300443Y681790D01*
X300662Y681760D01*
X300885Y681750D01*
Y680250D01*
X300662Y680240D01*
X300443Y680210D01*
X300226Y680160D01*
X300012Y680090D01*
X299800Y680000D01*
X299592Y679890D01*
X299386Y679760D01*
X299183Y679610D01*
X298983Y679440D01*
X298785Y679250D01*
Y682750D01*
X298983Y682560D01*
D02*
G37*
G36*
X304277Y670217D02*
X304127Y670052D01*
X303993Y669876D01*
X303875Y669687D01*
X303773Y669486D01*
X303687Y669273D01*
X303618Y669048D01*
X303564Y668810D01*
X303526Y668561D01*
X303505Y668299D01*
X303500Y668025D01*
X301025Y670500D01*
X301299Y670505D01*
X301561Y670527D01*
X301810Y670564D01*
X302048Y670618D01*
X302273Y670687D01*
X302486Y670773D01*
X302687Y670875D01*
X302876Y670993D01*
X303052Y671127D01*
X303217Y671277D01*
X304277Y670217D01*
D02*
G37*
G36*
X525007Y562267D02*
X525032Y562061D01*
X525075Y561858D01*
X525137Y561659D01*
X525217Y561463D01*
X525314Y561269D01*
X525431Y561079D01*
X525565Y560892D01*
X525717Y560708D01*
X525888Y560526D01*
X524474Y559112D01*
X524292Y559283D01*
X524108Y559435D01*
X523921Y559569D01*
X523731Y559686D01*
X523537Y559783D01*
X523341Y559863D01*
X523141Y559925D01*
X522939Y559968D01*
X522733Y559993D01*
X522525Y560000D01*
X525000Y562475D01*
X525007Y562267D01*
D02*
G37*
G36*
X593215Y549250D02*
X593017Y549440D01*
X592817Y549610D01*
X592614Y549760D01*
X592408Y549890D01*
X592200Y550000D01*
X591988Y550090D01*
X591774Y550160D01*
X591557Y550210D01*
X591338Y550240D01*
X591115Y550250D01*
Y551750D01*
X591338Y551760D01*
X591557Y551790D01*
X591774Y551840D01*
X591988Y551910D01*
X592200Y552000D01*
X592408Y552110D01*
X592614Y552240D01*
X592817Y552390D01*
X593017Y552560D01*
X593215Y552750D01*
Y549250D01*
D02*
G37*
G36*
X585215Y544250D02*
X585017Y544440D01*
X584817Y544610D01*
X584614Y544760D01*
X584408Y544890D01*
X584200Y545000D01*
X583988Y545090D01*
X583774Y545160D01*
X583557Y545210D01*
X583338Y545240D01*
X583115Y545250D01*
Y546750D01*
X583338Y546760D01*
X583557Y546790D01*
X583774Y546840D01*
X583988Y546910D01*
X584200Y547000D01*
X584408Y547110D01*
X584614Y547240D01*
X584817Y547390D01*
X585017Y547560D01*
X585215Y547750D01*
Y544250D01*
D02*
G37*
G36*
X698975Y652500D02*
X698766Y652493D01*
X698561Y652468D01*
X698359Y652425D01*
X698159Y652363D01*
X697963Y652283D01*
X697769Y652186D01*
X697579Y652069D01*
X697392Y651935D01*
X697207Y651783D01*
X697026Y651612D01*
X695612Y653026D01*
X695783Y653207D01*
X695935Y653392D01*
X696069Y653579D01*
X696186Y653769D01*
X696283Y653963D01*
X696363Y654159D01*
X696425Y654359D01*
X696468Y654561D01*
X696493Y654766D01*
X696500Y654975D01*
X698975Y652500D01*
D02*
G37*
G36*
X691388Y645974D02*
X691217Y645792D01*
X691065Y645608D01*
X690931Y645421D01*
X690815Y645231D01*
X690717Y645037D01*
X690637Y644841D01*
X690575Y644641D01*
X690532Y644439D01*
X690507Y644233D01*
X690500Y644025D01*
X688025Y646500D01*
X688233Y646507D01*
X688439Y646532D01*
X688641Y646575D01*
X688841Y646637D01*
X689037Y646717D01*
X689231Y646814D01*
X689421Y646931D01*
X689608Y647065D01*
X689792Y647217D01*
X689974Y647388D01*
X691388Y645974D01*
D02*
G37*
G36*
X537938Y656608D02*
X538101Y656480D01*
X538275Y656367D01*
X538459Y656270D01*
X538654Y656188D01*
X538860Y656120D01*
X539077Y656068D01*
X539304Y656030D01*
X539543Y656008D01*
X539791Y656000D01*
Y654000D01*
X539543Y653992D01*
X539304Y653970D01*
X539077Y653932D01*
X538860Y653880D01*
X538654Y653812D01*
X538459Y653730D01*
X538275Y653633D01*
X538101Y653520D01*
X537938Y653392D01*
X537785Y653250D01*
Y656750D01*
X537938Y656608D01*
D02*
G37*
G36*
X611208Y647217D02*
X611392Y647065D01*
X611579Y646931D01*
X611769Y646814D01*
X611963Y646717D01*
X612159Y646637D01*
X612359Y646575D01*
X612561Y646532D01*
X612766Y646507D01*
X612975Y646500D01*
X610500Y644025D01*
X610493Y644233D01*
X610468Y644439D01*
X610425Y644641D01*
X610363Y644841D01*
X610283Y645037D01*
X610186Y645231D01*
X610069Y645421D01*
X609935Y645608D01*
X609783Y645792D01*
X609612Y645974D01*
X611026Y647388D01*
X611208Y647217D01*
D02*
G37*
G36*
X315607Y611062D02*
X315480Y610899D01*
X315368Y610725D01*
X315270Y610541D01*
X315187Y610346D01*
X315120Y610140D01*
X315068Y609923D01*
X315030Y609696D01*
X315007Y609458D01*
X315000Y609209D01*
X313000D01*
X312992Y609458D01*
X312970Y609696D01*
X312932Y609923D01*
X312880Y610140D01*
X312812Y610346D01*
X312730Y610541D01*
X312633Y610725D01*
X312520Y610899D01*
X312393Y611062D01*
X312250Y611215D01*
X315750D01*
X315607Y611062D01*
D02*
G37*
G36*
X306388Y590974D02*
X306217Y590793D01*
X306065Y590608D01*
X305931Y590421D01*
X305814Y590231D01*
X305717Y590037D01*
X305637Y589841D01*
X305575Y589641D01*
X305532Y589439D01*
X305507Y589234D01*
X305500Y589025D01*
X303025Y591500D01*
X303234Y591507D01*
X303439Y591532D01*
X303641Y591575D01*
X303841Y591637D01*
X304037Y591717D01*
X304231Y591814D01*
X304421Y591931D01*
X304608Y592065D01*
X304792Y592217D01*
X304974Y592388D01*
X306388Y590974D01*
D02*
G37*
G36*
X851608Y578062D02*
X851480Y577899D01*
X851367Y577725D01*
X851270Y577541D01*
X851188Y577346D01*
X851120Y577140D01*
X851068Y576923D01*
X851030Y576696D01*
X851008Y576457D01*
X851000Y576209D01*
X849000D01*
X848992Y576457D01*
X848970Y576696D01*
X848932Y576923D01*
X848880Y577140D01*
X848812Y577346D01*
X848730Y577541D01*
X848633Y577725D01*
X848520Y577899D01*
X848392Y578062D01*
X848250Y578215D01*
X851750D01*
X851608Y578062D01*
D02*
G37*
G36*
X841608D02*
X841480Y577899D01*
X841367Y577725D01*
X841270Y577541D01*
X841188Y577346D01*
X841120Y577140D01*
X841068Y576923D01*
X841030Y576696D01*
X841008Y576457D01*
X841000Y576209D01*
X839000D01*
X838992Y576457D01*
X838970Y576696D01*
X838932Y576923D01*
X838880Y577140D01*
X838812Y577346D01*
X838730Y577541D01*
X838633Y577725D01*
X838520Y577899D01*
X838392Y578062D01*
X838250Y578215D01*
X841750D01*
X841608Y578062D01*
D02*
G37*
G36*
X846608Y573062D02*
X846480Y572899D01*
X846367Y572725D01*
X846270Y572541D01*
X846188Y572346D01*
X846120Y572140D01*
X846068Y571923D01*
X846030Y571696D01*
X846008Y571457D01*
X846000Y571209D01*
X844000D01*
X843992Y571457D01*
X843970Y571696D01*
X843932Y571923D01*
X843880Y572140D01*
X843812Y572346D01*
X843730Y572541D01*
X843633Y572725D01*
X843520Y572899D01*
X843392Y573062D01*
X843250Y573215D01*
X846750D01*
X846608Y573062D01*
D02*
G37*
G36*
X836535Y573027D02*
X836379Y572892D01*
X836239Y572746D01*
X836116Y572586D01*
X836010Y572413D01*
X835919Y572227D01*
X835846Y572028D01*
X835788Y571817D01*
X835747Y571592D01*
X835723Y571355D01*
X835714Y571104D01*
X833715Y571356D01*
X833708Y571603D01*
X833688Y571842D01*
X833655Y572071D01*
X833609Y572292D01*
X833550Y572503D01*
X833478Y572706D01*
X833393Y572899D01*
X833294Y573084D01*
X833182Y573260D01*
X833058Y573426D01*
X836535Y573027D01*
D02*
G37*
G36*
X819938Y543607D02*
X820101Y543480D01*
X820275Y543368D01*
X820459Y543270D01*
X820654Y543187D01*
X820860Y543120D01*
X821077Y543068D01*
X821304Y543030D01*
X821543Y543008D01*
X821791Y543000D01*
Y541000D01*
X821543Y540993D01*
X821304Y540970D01*
X821077Y540933D01*
X820860Y540880D01*
X820654Y540812D01*
X820459Y540730D01*
X820275Y540633D01*
X820101Y540520D01*
X819938Y540392D01*
X819785Y540250D01*
Y543750D01*
X819938Y543607D01*
D02*
G37*
G36*
X814938Y538607D02*
X815101Y538480D01*
X815275Y538368D01*
X815459Y538270D01*
X815654Y538187D01*
X815860Y538120D01*
X816077Y538068D01*
X816304Y538030D01*
X816543Y538008D01*
X816791Y538000D01*
Y536000D01*
X816543Y535993D01*
X816304Y535970D01*
X816077Y535933D01*
X815860Y535880D01*
X815654Y535812D01*
X815459Y535730D01*
X815275Y535633D01*
X815101Y535520D01*
X814938Y535392D01*
X814785Y535250D01*
Y538750D01*
X814938Y538607D01*
D02*
G37*
G36*
X817938Y532607D02*
X818101Y532480D01*
X818275Y532368D01*
X818459Y532270D01*
X818654Y532188D01*
X818860Y532120D01*
X819077Y532067D01*
X819304Y532030D01*
X819542Y532007D01*
X819791Y532000D01*
Y530000D01*
X819542Y529992D01*
X819304Y529970D01*
X819077Y529933D01*
X818860Y529880D01*
X818654Y529813D01*
X818459Y529730D01*
X818275Y529632D01*
X818101Y529520D01*
X817938Y529393D01*
X817785Y529250D01*
Y532750D01*
X817938Y532607D01*
D02*
G37*
G36*
X378975Y640500D02*
X378767Y640493D01*
X378561Y640468D01*
X378359Y640425D01*
X378159Y640363D01*
X377963Y640283D01*
X377769Y640185D01*
X377579Y640069D01*
X377392Y639935D01*
X377207Y639783D01*
X377026Y639612D01*
X375612Y641026D01*
X375783Y641208D01*
X375935Y641392D01*
X376069Y641579D01*
X376185Y641769D01*
X376283Y641963D01*
X376363Y642159D01*
X376425Y642359D01*
X376468Y642561D01*
X376493Y642766D01*
X376500Y642975D01*
X378975Y640500D01*
D02*
G37*
G36*
X352007Y571543D02*
X352030Y571304D01*
X352067Y571077D01*
X352120Y570860D01*
X352188Y570654D01*
X352270Y570459D01*
X352368Y570275D01*
X352480Y570101D01*
X352607Y569938D01*
X352750Y569785D01*
X349250D01*
X349393Y569938D01*
X349520Y570101D01*
X349632Y570275D01*
X349730Y570459D01*
X349813Y570654D01*
X349880Y570860D01*
X349933Y571077D01*
X349970Y571304D01*
X349992Y571543D01*
X350000Y571791D01*
X352000D01*
X352007Y571543D01*
D02*
G37*
G36*
X786975Y581500D02*
X786701Y581495D01*
X786439Y581474D01*
X786190Y581436D01*
X785952Y581382D01*
X785727Y581313D01*
X785514Y581227D01*
X785313Y581125D01*
X785124Y581007D01*
X784948Y580873D01*
X784783Y580723D01*
X783723Y581783D01*
X783873Y581948D01*
X784007Y582124D01*
X784125Y582313D01*
X784227Y582514D01*
X784313Y582727D01*
X784382Y582952D01*
X784436Y583190D01*
X784473Y583439D01*
X784495Y583701D01*
X784500Y583975D01*
X786975Y581500D01*
D02*
G37*
G36*
X793975Y579500D02*
X793701Y579495D01*
X793439Y579473D01*
X793190Y579436D01*
X792952Y579383D01*
X792727Y579313D01*
X792514Y579227D01*
X792313Y579125D01*
X792124Y579007D01*
X791948Y578873D01*
X791783Y578723D01*
X790723Y579783D01*
X790873Y579948D01*
X791007Y580124D01*
X791125Y580313D01*
X791227Y580514D01*
X791313Y580727D01*
X791383Y580952D01*
X791436Y581190D01*
X791473Y581439D01*
X791495Y581701D01*
X791500Y581975D01*
X793975Y579500D01*
D02*
G37*
G36*
X712983Y550560D02*
X713183Y550390D01*
X713386Y550240D01*
X713592Y550110D01*
X713800Y550000D01*
X714012Y549910D01*
X714226Y549840D01*
X714443Y549790D01*
X714662Y549760D01*
X714885Y549750D01*
Y548250D01*
X714662Y548240D01*
X714443Y548210D01*
X714226Y548160D01*
X714012Y548090D01*
X713800Y548000D01*
X713592Y547890D01*
X713386Y547760D01*
X713183Y547610D01*
X712983Y547440D01*
X712785Y547250D01*
Y550750D01*
X712983Y550560D01*
D02*
G37*
G36*
X717983Y545560D02*
X718183Y545390D01*
X718386Y545240D01*
X718592Y545110D01*
X718800Y545000D01*
X719012Y544910D01*
X719226Y544840D01*
X719443Y544790D01*
X719662Y544760D01*
X719885Y544750D01*
X719885Y543250D01*
X719662Y543240D01*
X719443Y543210D01*
X719226Y543160D01*
X719012Y543090D01*
X718800Y543000D01*
X718592Y542890D01*
X718386Y542760D01*
X718183Y542610D01*
X717983Y542440D01*
X717785Y542250D01*
X717785Y545750D01*
X717983Y545560D01*
D02*
G37*
G36*
X303507Y533767D02*
X303532Y533561D01*
X303575Y533358D01*
X303637Y533159D01*
X303717Y532963D01*
X303815Y532769D01*
X303931Y532579D01*
X304065Y532392D01*
X304217Y532207D01*
X304388Y532026D01*
X302974Y530612D01*
X302792Y530783D01*
X302608Y530935D01*
X302421Y531069D01*
X302231Y531185D01*
X302037Y531283D01*
X301841Y531363D01*
X301642Y531425D01*
X301439Y531468D01*
X301234Y531493D01*
X301025Y531500D01*
X303500Y533975D01*
X303507Y533767D01*
D02*
G37*
G36*
X420215Y529250D02*
X420062Y529393D01*
X419899Y529520D01*
X419725Y529632D01*
X419541Y529730D01*
X419346Y529813D01*
X419140Y529880D01*
X418923Y529933D01*
X418696Y529970D01*
X418457Y529992D01*
X418209Y530000D01*
Y532000D01*
X418457Y532007D01*
X418696Y532030D01*
X418923Y532067D01*
X419140Y532120D01*
X419346Y532188D01*
X419541Y532270D01*
X419725Y532368D01*
X419899Y532480D01*
X420062Y532607D01*
X420215Y532750D01*
Y529250D01*
D02*
G37*
G36*
X414456Y546486D02*
X414473Y546425D01*
X414506Y546353D01*
X414556Y546270D01*
X414622Y546175D01*
X414705Y546069D01*
X414920Y545822D01*
X415202Y545530D01*
X414141Y544470D01*
X414031Y544576D01*
X413831Y544747D01*
X413741Y544810D01*
X413658Y544860D01*
X413582Y544895D01*
X413513Y544916D01*
X413451Y544923D01*
X413396Y544916D01*
X413347Y544894D01*
X414456Y546535D01*
X414456Y546486D01*
D02*
G37*
G36*
X559852Y517085D02*
X559713Y517113D01*
X559571Y517120D01*
X559427Y517108D01*
X559281Y517076D01*
X559133Y517024D01*
X558982Y516953D01*
X558830Y516862D01*
X558675Y516751D01*
X558518Y516620D01*
X558359Y516470D01*
X557298Y517530D01*
X557459Y517700D01*
X557601Y517866D01*
X557723Y518029D01*
X557825Y518189D01*
X557909Y518347D01*
X557973Y518501D01*
X558017Y518653D01*
X558042Y518801D01*
X558048Y518947D01*
X558034Y519090D01*
X559852Y517085D01*
D02*
G37*
G36*
X562715Y510250D02*
X562562Y510392D01*
X562399Y510520D01*
X562225Y510633D01*
X562041Y510730D01*
X561846Y510812D01*
X561640Y510880D01*
X561423Y510933D01*
X561196Y510970D01*
X560957Y510993D01*
X560709Y511000D01*
Y513000D01*
X560957Y513008D01*
X561196Y513030D01*
X561423Y513068D01*
X561640Y513120D01*
X561846Y513187D01*
X562041Y513270D01*
X562225Y513368D01*
X562399Y513480D01*
X562562Y513607D01*
X562715Y513750D01*
Y510250D01*
D02*
G37*
G36*
X349215Y507250D02*
X349017Y507440D01*
X348817Y507610D01*
X348614Y507760D01*
X348408Y507890D01*
X348200Y508000D01*
X347988Y508090D01*
X347774Y508160D01*
X347557Y508210D01*
X347338Y508240D01*
X347115Y508250D01*
Y509750D01*
X347338Y509760D01*
X347557Y509790D01*
X347774Y509840D01*
X347988Y509910D01*
X348200Y510000D01*
X348408Y510110D01*
X348614Y510240D01*
X348817Y510390D01*
X349017Y510560D01*
X349215Y510750D01*
Y507250D01*
D02*
G37*
G36*
X340983Y510560D02*
X341183Y510390D01*
X341386Y510240D01*
X341592Y510110D01*
X341800Y510000D01*
X342012Y509910D01*
X342226Y509840D01*
X342443Y509790D01*
X342662Y509760D01*
X342885Y509750D01*
Y508250D01*
X342662Y508240D01*
X342443Y508210D01*
X342226Y508160D01*
X342012Y508090D01*
X341800Y508000D01*
X341592Y507890D01*
X341386Y507760D01*
X341183Y507610D01*
X340983Y507440D01*
X340785Y507250D01*
Y510750D01*
X340983Y510560D01*
D02*
G37*
G36*
X734725Y494811D02*
X732673Y492764D01*
X731935Y496047D01*
X732078Y495963D01*
X732227Y495908D01*
X732380Y495882D01*
X732539Y495885D01*
X732702Y495916D01*
X732871Y495977D01*
X733045Y496067D01*
X733224Y496186D01*
X733408Y496334D01*
X733597Y496511D01*
X734725Y494811D01*
D02*
G37*
G36*
X798215Y495250D02*
X798062Y495392D01*
X797899Y495520D01*
X797725Y495633D01*
X797541Y495730D01*
X797346Y495812D01*
X797140Y495880D01*
X796923Y495933D01*
X796696Y495970D01*
X796458Y495993D01*
X796209Y496000D01*
Y498000D01*
X796458Y498008D01*
X796696Y498030D01*
X796923Y498068D01*
X797140Y498120D01*
X797346Y498187D01*
X797541Y498270D01*
X797725Y498368D01*
X797899Y498480D01*
X798062Y498607D01*
X798215Y498750D01*
Y495250D01*
D02*
G37*
G36*
X349664Y479887D02*
X349490Y479989D01*
X349307Y480081D01*
X349116Y480162D01*
X348918Y480232D01*
X348711Y480291D01*
X348497Y480340D01*
X348274Y480378D01*
X347804Y480421D01*
X347558Y480426D01*
X347037Y482426D01*
X347289Y482435D01*
X347525Y482461D01*
X347747Y482504D01*
X347952Y482565D01*
X348142Y482643D01*
X348317Y482738D01*
X348476Y482851D01*
X348620Y482981D01*
X348748Y483129D01*
X348861Y483293D01*
X349664Y479887D01*
D02*
G37*
G36*
X301388Y434974D02*
X301217Y434793D01*
X301065Y434608D01*
X300931Y434421D01*
X300814Y434231D01*
X300717Y434037D01*
X300637Y433841D01*
X300575Y433641D01*
X300532Y433439D01*
X300507Y433233D01*
X300500Y433025D01*
X298025Y435500D01*
X298234Y435507D01*
X298439Y435532D01*
X298641Y435575D01*
X298841Y435637D01*
X299037Y435717D01*
X299231Y435815D01*
X299421Y435931D01*
X299608Y436065D01*
X299792Y436217D01*
X299974Y436388D01*
X301388Y434974D01*
D02*
G37*
G36*
X689507Y514767D02*
X689532Y514561D01*
X689575Y514359D01*
X689637Y514159D01*
X689717Y513963D01*
X689815Y513769D01*
X689931Y513579D01*
X690065Y513392D01*
X690217Y513208D01*
X690388Y513026D01*
X688974Y511612D01*
X688792Y511783D01*
X688608Y511935D01*
X688421Y512069D01*
X688231Y512186D01*
X688037Y512283D01*
X687841Y512363D01*
X687641Y512425D01*
X687439Y512468D01*
X687234Y512493D01*
X687025Y512500D01*
X689500Y514975D01*
X689507Y514767D01*
D02*
G37*
G36*
X688505Y507701D02*
X688527Y507439D01*
X688564Y507190D01*
X688617Y506952D01*
X688687Y506727D01*
X688773Y506514D01*
X688875Y506313D01*
X688993Y506124D01*
X689127Y505948D01*
X689277Y505783D01*
X688217Y504723D01*
X688052Y504873D01*
X687876Y505007D01*
X687687Y505125D01*
X687486Y505227D01*
X687273Y505313D01*
X687048Y505382D01*
X686810Y505436D01*
X686561Y505474D01*
X686299Y505495D01*
X686025Y505500D01*
X688500Y507975D01*
X688505Y507701D01*
D02*
G37*
G36*
X711208Y492217D02*
X711392Y492065D01*
X711579Y491931D01*
X711769Y491814D01*
X711963Y491717D01*
X712159Y491637D01*
X712358Y491575D01*
X712561Y491532D01*
X712766Y491507D01*
X712975Y491500D01*
X710500Y489025D01*
X710493Y489234D01*
X710468Y489439D01*
X710425Y489641D01*
X710363Y489841D01*
X710283Y490037D01*
X710185Y490231D01*
X710069Y490421D01*
X709935Y490608D01*
X709783Y490793D01*
X709612Y490974D01*
X711026Y492388D01*
X711208Y492217D01*
D02*
G37*
G36*
X710948Y484127D02*
X711124Y483993D01*
X711313Y483875D01*
X711514Y483773D01*
X711727Y483687D01*
X711952Y483618D01*
X712190Y483564D01*
X712439Y483526D01*
X712701Y483505D01*
X712975Y483500D01*
X710500Y481025D01*
X710495Y481299D01*
X710473Y481561D01*
X710436Y481810D01*
X710383Y482048D01*
X710313Y482273D01*
X710227Y482486D01*
X710125Y482687D01*
X710007Y482876D01*
X709873Y483052D01*
X709723Y483217D01*
X710783Y484277D01*
X710948Y484127D01*
D02*
G37*
G36*
X412607Y498062D02*
X412480Y497899D01*
X412368Y497725D01*
X412270Y497541D01*
X412188Y497346D01*
X412120Y497140D01*
X412067Y496923D01*
X412030Y496696D01*
X412007Y496457D01*
X412000Y496209D01*
X410000D01*
X409992Y496457D01*
X409970Y496696D01*
X409933Y496923D01*
X409880Y497140D01*
X409813Y497346D01*
X409730Y497541D01*
X409632Y497725D01*
X409520Y497899D01*
X409393Y498062D01*
X409250Y498215D01*
X412750D01*
X412607Y498062D01*
D02*
G37*
G36*
X420505Y491701D02*
X420527Y491439D01*
X420564Y491190D01*
X420617Y490952D01*
X420687Y490727D01*
X420773Y490514D01*
X420875Y490313D01*
X420993Y490124D01*
X421127Y489948D01*
X421277Y489783D01*
X420217Y488723D01*
X420052Y488873D01*
X419876Y489007D01*
X419687Y489125D01*
X419486Y489227D01*
X419273Y489313D01*
X419048Y489383D01*
X418810Y489436D01*
X418561Y489473D01*
X418299Y489495D01*
X418025Y489500D01*
X420500Y491975D01*
X420505Y491701D01*
D02*
G37*
G36*
X413713Y490591D02*
X414185Y489451D01*
X415451Y488185D01*
X417105Y487500D01*
X418196D01*
Y478104D01*
X417140Y477398D01*
X416895Y477500D01*
X415105D01*
X413451Y476815D01*
X412440Y475804D01*
X400000D01*
X398927Y475590D01*
X398280Y475158D01*
X397470Y476144D01*
X412289Y490963D01*
X412408Y490977D01*
X413713Y490591D01*
D02*
G37*
G36*
X414215Y471250D02*
X414017Y471440D01*
X413817Y471610D01*
X413614Y471760D01*
X413408Y471890D01*
X413200Y472000D01*
X412988Y472090D01*
X412774Y472160D01*
X412557Y472210D01*
X412338Y472240D01*
X412115Y472250D01*
Y473750D01*
X412338Y473760D01*
X412557Y473790D01*
X412774Y473840D01*
X412988Y473910D01*
X413200Y474000D01*
X413408Y474110D01*
X413614Y474240D01*
X413817Y474390D01*
X414017Y474560D01*
X414215Y474750D01*
Y471250D01*
D02*
G37*
G36*
X421760Y471662D02*
X421790Y471443D01*
X421840Y471226D01*
X421910Y471012D01*
X422000Y470800D01*
X422110Y470592D01*
X422240Y470386D01*
X422390Y470183D01*
X422560Y469983D01*
X422750Y469785D01*
X419250D01*
X419440Y469983D01*
X419610Y470183D01*
X419760Y470386D01*
X419890Y470592D01*
X420000Y470800D01*
X420090Y471012D01*
X420160Y471226D01*
X420210Y471443D01*
X420240Y471662D01*
X420250Y471885D01*
X421750D01*
X421760Y471662D01*
D02*
G37*
G36*
X389388Y470974D02*
X389217Y470793D01*
X389065Y470608D01*
X388931Y470421D01*
X388815Y470231D01*
X388717Y470037D01*
X388637Y469841D01*
X388575Y469641D01*
X388532Y469439D01*
X388507Y469234D01*
X388500Y469025D01*
X386025Y471500D01*
X386233Y471507D01*
X386439Y471532D01*
X386641Y471575D01*
X386841Y471637D01*
X387037Y471717D01*
X387231Y471814D01*
X387421Y471931D01*
X387608Y472065D01*
X387793Y472217D01*
X387974Y472388D01*
X389388Y470974D01*
D02*
G37*
G36*
X343260Y413662D02*
X343290Y413443D01*
X343340Y413226D01*
X343410Y413012D01*
X343500Y412800D01*
X343610Y412592D01*
X343740Y412386D01*
X343890Y412183D01*
X344060Y411983D01*
X344250Y411785D01*
X340750D01*
X340940Y411983D01*
X341110Y412183D01*
X341260Y412386D01*
X341390Y412592D01*
X341500Y412800D01*
X341590Y413012D01*
X341660Y413226D01*
X341710Y413443D01*
X341740Y413662D01*
X341750Y413885D01*
X343250D01*
X343260Y413662D01*
D02*
G37*
G36*
X381608Y497062D02*
X381480Y496899D01*
X381367Y496725D01*
X381270Y496541D01*
X381188Y496346D01*
X381120Y496140D01*
X381068Y495923D01*
X381030Y495696D01*
X381007Y495457D01*
X381000Y495209D01*
X379000D01*
X378993Y495457D01*
X378970Y495696D01*
X378932Y495923D01*
X378880Y496140D01*
X378812Y496346D01*
X378730Y496541D01*
X378633Y496725D01*
X378520Y496899D01*
X378392Y497062D01*
X378250Y497215D01*
X381750D01*
X381608Y497062D01*
D02*
G37*
G36*
X694975Y445500D02*
X694701Y445495D01*
X694439Y445474D01*
X694190Y445436D01*
X693952Y445382D01*
X693727Y445313D01*
X693514Y445227D01*
X693313Y445125D01*
X693124Y445007D01*
X692948Y444873D01*
X692783Y444723D01*
X691723Y445783D01*
X691873Y445948D01*
X692007Y446124D01*
X692125Y446313D01*
X692227Y446514D01*
X692313Y446727D01*
X692383Y446952D01*
X692436Y447190D01*
X692474Y447439D01*
X692495Y447701D01*
X692500Y447975D01*
X694975Y445500D01*
D02*
G37*
G36*
X541822Y443745D02*
X542042Y443589D01*
X542262Y443451D01*
X542481Y443331D01*
X542700Y443230D01*
X542919Y443147D01*
X543138Y443083D01*
X543356Y443037D01*
X543574Y443009D01*
X543791Y443000D01*
X543950Y441500D01*
X543723Y441489D01*
X543503Y441457D01*
X543288Y441404D01*
X543079Y441330D01*
X542876Y441234D01*
X542680Y441117D01*
X542489Y440979D01*
X542304Y440820D01*
X542125Y440639D01*
X541951Y440437D01*
X541601Y443920D01*
X541822Y443745D01*
D02*
G37*
G36*
X691713Y427408D02*
X691841Y427305D01*
X691965Y427221D01*
X692086Y427156D01*
X692204Y427110D01*
X692320Y427083D01*
X692432Y427075D01*
X692541Y427086D01*
X692647Y427116D01*
X692751Y427165D01*
X691500Y424952D01*
X691489Y425066D01*
X691458Y425189D01*
X691408Y425320D01*
X691339Y425459D01*
X691251Y425607D01*
X691143Y425762D01*
X691017Y425927D01*
X690706Y426280D01*
X690523Y426470D01*
X691583Y427530D01*
X691713Y427408D01*
D02*
G37*
G36*
X688948Y421127D02*
X689124Y420993D01*
X689313Y420875D01*
X689514Y420773D01*
X689727Y420687D01*
X689952Y420617D01*
X690190Y420564D01*
X690439Y420527D01*
X690701Y420505D01*
X690975Y420500D01*
X688500Y418025D01*
X688495Y418299D01*
X688474Y418561D01*
X688436Y418810D01*
X688382Y419048D01*
X688313Y419273D01*
X688227Y419486D01*
X688125Y419687D01*
X688007Y419876D01*
X687873Y420052D01*
X687723Y420217D01*
X688783Y421277D01*
X688948Y421127D01*
D02*
G37*
G36*
X687142Y414992D02*
X687169Y414549D01*
X687177Y414518D01*
X687187Y414499D01*
X687197Y414492D01*
X685649Y414104D01*
X685641Y415109D01*
X687141D01*
X687142Y414992D01*
D02*
G37*
G36*
X697215Y404250D02*
X697017Y404440D01*
X696817Y404610D01*
X696614Y404760D01*
X696408Y404890D01*
X696200Y405000D01*
X695988Y405090D01*
X695774Y405160D01*
X695557Y405210D01*
X695338Y405240D01*
X695115Y405250D01*
Y406750D01*
X695338Y406760D01*
X695557Y406790D01*
X695774Y406840D01*
X695988Y406910D01*
X696200Y407000D01*
X696408Y407110D01*
X696614Y407240D01*
X696817Y407390D01*
X697017Y407560D01*
X697215Y407750D01*
Y404250D01*
D02*
G37*
G36*
X711265Y410770D02*
X710739Y409500D01*
X710605D01*
X708951Y408815D01*
X707685Y407549D01*
X707000Y405895D01*
Y404465D01*
X705339Y402804D01*
X703827D01*
X703073Y404074D01*
X703500Y405105D01*
Y406895D01*
X702815Y408549D01*
X701549Y409815D01*
X699895Y410500D01*
X698105D01*
X696451Y409815D01*
X695440Y408804D01*
X691827D01*
X691073Y410074D01*
X691500Y411105D01*
Y412895D01*
X692517Y413758D01*
X693549Y414185D01*
X694815Y415451D01*
X695500Y417105D01*
Y418895D01*
X695321Y419327D01*
X696017Y420965D01*
X696549Y421185D01*
X697815Y422451D01*
X697896Y422646D01*
X699141Y422893D01*
X711265Y410770D01*
D02*
G37*
G36*
X711475Y402500D02*
X711201Y402495D01*
X710939Y402473D01*
X710690Y402436D01*
X710452Y402383D01*
X710227Y402313D01*
X710014Y402227D01*
X709813Y402125D01*
X709624Y402007D01*
X709448Y401873D01*
X709283Y401723D01*
X708223Y402783D01*
X708373Y402948D01*
X708507Y403124D01*
X708625Y403313D01*
X708727Y403514D01*
X708813Y403727D01*
X708882Y403952D01*
X708936Y404190D01*
X708973Y404439D01*
X708995Y404701D01*
X709000Y404975D01*
X711475Y402500D01*
D02*
G37*
G36*
X491277Y394217D02*
X491127Y394052D01*
X490993Y393876D01*
X490875Y393687D01*
X490773Y393486D01*
X490687Y393273D01*
X490617Y393048D01*
X490564Y392810D01*
X490527Y392561D01*
X490505Y392299D01*
X490500Y392025D01*
X488025Y394500D01*
X488299Y394505D01*
X488561Y394526D01*
X488810Y394564D01*
X489048Y394618D01*
X489273Y394687D01*
X489486Y394773D01*
X489687Y394875D01*
X489876Y394993D01*
X490052Y395127D01*
X490217Y395277D01*
X491277Y394217D01*
D02*
G37*
G36*
X654948Y390127D02*
X655124Y389993D01*
X655313Y389875D01*
X655514Y389773D01*
X655727Y389687D01*
X655952Y389618D01*
X656190Y389564D01*
X656439Y389526D01*
X656701Y389505D01*
X656975Y389500D01*
X654500Y387025D01*
X654495Y387299D01*
X654473Y387561D01*
X654436Y387810D01*
X654382Y388048D01*
X654313Y388273D01*
X654227Y388486D01*
X654125Y388687D01*
X654007Y388876D01*
X653873Y389052D01*
X653723Y389217D01*
X654783Y390277D01*
X654948Y390127D01*
D02*
G37*
G36*
X678448Y387627D02*
X678624Y387493D01*
X678813Y387375D01*
X679014Y387273D01*
X679227Y387187D01*
X679452Y387118D01*
X679690Y387064D01*
X679939Y387026D01*
X680201Y387005D01*
X680475Y387000D01*
X678000Y384525D01*
X677995Y384799D01*
X677973Y385061D01*
X677936Y385310D01*
X677883Y385548D01*
X677813Y385773D01*
X677727Y385986D01*
X677625Y386187D01*
X677507Y386376D01*
X677373Y386552D01*
X677223Y386717D01*
X678283Y387777D01*
X678448Y387627D01*
D02*
G37*
G36*
X695448Y386127D02*
X695624Y385993D01*
X695813Y385875D01*
X696014Y385773D01*
X696227Y385687D01*
X696452Y385617D01*
X696690Y385564D01*
X696939Y385527D01*
X697201Y385505D01*
X697475Y385500D01*
X695000Y383025D01*
X694995Y383299D01*
X694974Y383561D01*
X694936Y383810D01*
X694882Y384048D01*
X694813Y384273D01*
X694727Y384486D01*
X694625Y384687D01*
X694507Y384876D01*
X694373Y385052D01*
X694223Y385217D01*
X695283Y386277D01*
X695448Y386127D01*
D02*
G37*
G36*
X670948Y385127D02*
X671124Y384993D01*
X671313Y384875D01*
X671514Y384773D01*
X671727Y384687D01*
X671952Y384618D01*
X672190Y384564D01*
X672439Y384526D01*
X672701Y384505D01*
X672975Y384500D01*
X670500Y382025D01*
X670495Y382299D01*
X670473Y382561D01*
X670436Y382810D01*
X670383Y383048D01*
X670313Y383273D01*
X670227Y383486D01*
X670125Y383687D01*
X670007Y383876D01*
X669873Y384052D01*
X669723Y384217D01*
X670783Y385277D01*
X670948Y385127D01*
D02*
G37*
G36*
X608948Y383127D02*
X609124Y382993D01*
X609313Y382875D01*
X609514Y382773D01*
X609727Y382687D01*
X609952Y382617D01*
X610190Y382564D01*
X610439Y382527D01*
X610701Y382505D01*
X610975Y382500D01*
X608500Y380025D01*
X608495Y380299D01*
X608474Y380561D01*
X608436Y380810D01*
X608382Y381048D01*
X608313Y381273D01*
X608227Y381486D01*
X608125Y381687D01*
X608007Y381876D01*
X607873Y382052D01*
X607723Y382217D01*
X608783Y383277D01*
X608948Y383127D01*
D02*
G37*
G36*
X689760Y380662D02*
X689790Y380443D01*
X689840Y380226D01*
X689910Y380012D01*
X690000Y379800D01*
X690110Y379592D01*
X690240Y379386D01*
X690390Y379183D01*
X690560Y378983D01*
X690750Y378785D01*
X687250D01*
X687440Y378983D01*
X687610Y379183D01*
X687760Y379386D01*
X687890Y379592D01*
X688000Y379800D01*
X688090Y380012D01*
X688160Y380226D01*
X688210Y380443D01*
X688240Y380662D01*
X688250Y380885D01*
X689750D01*
X689760Y380662D01*
D02*
G37*
G36*
X378215Y370750D02*
X378062Y370892D01*
X377899Y371020D01*
X377725Y371133D01*
X377541Y371230D01*
X377346Y371312D01*
X377140Y371380D01*
X376923Y371432D01*
X376696Y371470D01*
X376457Y371493D01*
X376209Y371500D01*
Y373500D01*
X376457Y373507D01*
X376696Y373530D01*
X376923Y373568D01*
X377140Y373620D01*
X377346Y373688D01*
X377541Y373770D01*
X377725Y373867D01*
X377899Y373980D01*
X378062Y374108D01*
X378215Y374250D01*
Y370750D01*
D02*
G37*
G36*
X542260Y362662D02*
X542290Y362443D01*
X542340Y362226D01*
X542410Y362012D01*
X542500Y361800D01*
X542610Y361592D01*
X542740Y361386D01*
X542890Y361183D01*
X543060Y360983D01*
X543250Y360785D01*
X539750D01*
X539940Y360983D01*
X540110Y361183D01*
X540260Y361386D01*
X540390Y361592D01*
X540500Y361800D01*
X540590Y362012D01*
X540660Y362226D01*
X540710Y362443D01*
X540740Y362662D01*
X540750Y362885D01*
X542250D01*
X542260Y362662D01*
D02*
G37*
G36*
X544112Y351824D02*
X543995Y351824D01*
X543516Y351791D01*
X543497Y351783D01*
X543490Y351773D01*
X543126Y353316D01*
X544112Y353324D01*
Y351824D01*
D02*
G37*
G36*
X301505Y339701D02*
X301527Y339439D01*
X301564Y339190D01*
X301618Y338952D01*
X301687Y338727D01*
X301773Y338514D01*
X301875Y338313D01*
X301993Y338124D01*
X302127Y337948D01*
X302277Y337783D01*
X301217Y336723D01*
X301052Y336873D01*
X300876Y337007D01*
X300687Y337125D01*
X300486Y337227D01*
X300273Y337313D01*
X300048Y337383D01*
X299810Y337436D01*
X299561Y337473D01*
X299299Y337495D01*
X299025Y337500D01*
X301500Y339975D01*
X301505Y339701D01*
D02*
G37*
G36*
X342007Y327542D02*
X342030Y327304D01*
X342067Y327077D01*
X342120Y326860D01*
X342188Y326654D01*
X342270Y326459D01*
X342368Y326275D01*
X342480Y326101D01*
X342607Y325938D01*
X342750Y325785D01*
X339250D01*
X339393Y325938D01*
X339520Y326101D01*
X339632Y326275D01*
X339730Y326459D01*
X339813Y326654D01*
X339880Y326860D01*
X339933Y327077D01*
X339970Y327304D01*
X339992Y327542D01*
X340000Y327791D01*
X342000D01*
X342007Y327542D01*
D02*
G37*
G36*
X301505Y323701D02*
X301527Y323439D01*
X301564Y323190D01*
X301618Y322952D01*
X301687Y322727D01*
X301773Y322514D01*
X301875Y322313D01*
X301993Y322124D01*
X302127Y321948D01*
X302277Y321783D01*
X301217Y320723D01*
X301052Y320873D01*
X300876Y321007D01*
X300687Y321125D01*
X300486Y321227D01*
X300273Y321313D01*
X300048Y321382D01*
X299810Y321436D01*
X299561Y321474D01*
X299299Y321495D01*
X299025Y321500D01*
X301500Y323975D01*
X301505Y323701D01*
D02*
G37*
G36*
X301977Y302917D02*
X301827Y302752D01*
X301693Y302576D01*
X301575Y302387D01*
X301473Y302186D01*
X301387Y301973D01*
X301318Y301748D01*
X301264Y301510D01*
X301227Y301261D01*
X301205Y300999D01*
X301200Y300725D01*
X298725Y303200D01*
X298999Y303205D01*
X299261Y303227D01*
X299510Y303264D01*
X299748Y303318D01*
X299973Y303387D01*
X300186Y303473D01*
X300387Y303575D01*
X300576Y303693D01*
X300752Y303827D01*
X300917Y303977D01*
X301977Y302917D01*
D02*
G37*
G36*
X468760Y299662D02*
X468790Y299443D01*
X468840Y299226D01*
X468910Y299012D01*
X469000Y298800D01*
X469110Y298592D01*
X469240Y298386D01*
X469390Y298183D01*
X469560Y297983D01*
X469750Y297785D01*
X466250D01*
X466440Y297983D01*
X466610Y298183D01*
X466760Y298386D01*
X466890Y298592D01*
X467000Y298800D01*
X467090Y299012D01*
X467160Y299226D01*
X467210Y299443D01*
X467240Y299662D01*
X467250Y299885D01*
X468750D01*
X468760Y299662D01*
D02*
G37*
G36*
X462139Y299725D02*
X462148Y299511D01*
X462174Y299295D01*
X462217Y299076D01*
X462278Y298856D01*
X462356Y298633D01*
X462451Y298409D01*
X462564Y298183D01*
X462694Y297954D01*
X463007Y297491D01*
X459549Y298036D01*
X459756Y298195D01*
X459941Y298362D01*
X460105Y298536D01*
X460247Y298719D01*
X460367Y298909D01*
X460465Y299106D01*
X460541Y299312D01*
X460596Y299525D01*
X460628Y299745D01*
X460639Y299974D01*
X462139Y299725D01*
D02*
G37*
G36*
X351983Y299560D02*
X352183Y299390D01*
X352386Y299240D01*
X352592Y299110D01*
X352800Y299000D01*
X353012Y298910D01*
X353226Y298840D01*
X353443Y298790D01*
X353662Y298760D01*
X353885Y298750D01*
Y297250D01*
X353662Y297240D01*
X353443Y297210D01*
X353226Y297160D01*
X353012Y297090D01*
X352800Y297000D01*
X352592Y296890D01*
X352386Y296760D01*
X352183Y296610D01*
X351983Y296440D01*
X351785Y296250D01*
Y299750D01*
X351983Y299560D01*
D02*
G37*
G36*
X345499Y297652D02*
X345516Y297392D01*
X345549Y297143D01*
X345599Y296907D01*
X345666Y296682D01*
X345750Y296469D01*
X345851Y296268D01*
X345968Y296079D01*
X346102Y295902D01*
X346253Y295737D01*
X345170Y294699D01*
X345006Y294848D01*
X344830Y294983D01*
X344641Y295102D01*
X344441Y295205D01*
X344227Y295293D01*
X344002Y295365D01*
X343764Y295422D01*
X343513Y295464D01*
X343250Y295490D01*
X342975Y295500D01*
X345499Y297925D01*
Y297652D01*
D02*
G37*
G36*
X344505Y290701D02*
X344526Y290439D01*
X344564Y290190D01*
X344618Y289952D01*
X344687Y289727D01*
X344773Y289514D01*
X344875Y289313D01*
X344993Y289124D01*
X345127Y288948D01*
X345277Y288783D01*
X344217Y287723D01*
X344052Y287873D01*
X343876Y288007D01*
X343687Y288125D01*
X343486Y288227D01*
X343273Y288313D01*
X343048Y288382D01*
X342810Y288436D01*
X342561Y288473D01*
X342299Y288495D01*
X342025Y288500D01*
X344500Y290975D01*
X344505Y290701D01*
D02*
G37*
G36*
X301977Y286917D02*
X301827Y286752D01*
X301693Y286576D01*
X301575Y286387D01*
X301473Y286186D01*
X301387Y285973D01*
X301318Y285748D01*
X301264Y285510D01*
X301227Y285261D01*
X301205Y284999D01*
X301200Y284725D01*
X298725Y287200D01*
X298999Y287205D01*
X299261Y287227D01*
X299510Y287264D01*
X299748Y287318D01*
X299973Y287387D01*
X300186Y287473D01*
X300387Y287575D01*
X300576Y287693D01*
X300752Y287827D01*
X300917Y287977D01*
X301977Y286917D01*
D02*
G37*
G36*
X298760Y265662D02*
X298790Y265443D01*
X298840Y265226D01*
X298910Y265012D01*
X299000Y264800D01*
X299110Y264592D01*
X299240Y264386D01*
X299390Y264183D01*
X299560Y263983D01*
X299750Y263785D01*
X296250D01*
X296440Y263983D01*
X296610Y264183D01*
X296760Y264386D01*
X296890Y264592D01*
X297000Y264800D01*
X297090Y265012D01*
X297160Y265226D01*
X297210Y265443D01*
X297240Y265662D01*
X297250Y265885D01*
X298750D01*
X298760Y265662D01*
D02*
G37*
G36*
X695007Y462766D02*
X695032Y462561D01*
X695075Y462359D01*
X695137Y462159D01*
X695217Y461963D01*
X695314Y461769D01*
X695431Y461579D01*
X695565Y461392D01*
X695717Y461208D01*
X695888Y461026D01*
X694474Y459612D01*
X694293Y459783D01*
X694108Y459935D01*
X693921Y460069D01*
X693731Y460186D01*
X693537Y460283D01*
X693341Y460363D01*
X693141Y460425D01*
X692939Y460468D01*
X692734Y460493D01*
X692525Y460500D01*
X695000Y462975D01*
X695007Y462766D01*
D02*
G37*
G36*
X721507Y427542D02*
X721530Y427304D01*
X721568Y427077D01*
X721620Y426860D01*
X721687Y426654D01*
X721770Y426459D01*
X721868Y426275D01*
X721980Y426101D01*
X722107Y425938D01*
X722250Y425785D01*
X718750D01*
X718893Y425938D01*
X719020Y426101D01*
X719133Y426275D01*
X719230Y426459D01*
X719313Y426654D01*
X719380Y426860D01*
X719433Y427077D01*
X719470Y427304D01*
X719492Y427542D01*
X719500Y427791D01*
X721500D01*
X721507Y427542D01*
D02*
G37*
G36*
X484975Y457500D02*
X484701Y457495D01*
X484439Y457473D01*
X484190Y457436D01*
X483952Y457382D01*
X483727Y457313D01*
X483514Y457227D01*
X483313Y457125D01*
X483124Y457007D01*
X482948Y456873D01*
X482783Y456723D01*
X481723Y457783D01*
X481873Y457948D01*
X482007Y458124D01*
X482125Y458313D01*
X482227Y458514D01*
X482313Y458727D01*
X482382Y458952D01*
X482436Y459190D01*
X482473Y459439D01*
X482495Y459701D01*
X482500Y459975D01*
X484975Y457500D01*
D02*
G37*
G36*
X412677Y412884D02*
X413144Y412615D01*
X413373Y412506D01*
X413600Y412413D01*
X413824Y412337D01*
X414045Y412279D01*
X414263Y412237D01*
X414479Y412211D01*
X414692Y412203D01*
X414982Y410703D01*
X414753Y410692D01*
X414532Y410659D01*
X414320Y410604D01*
X414116Y410527D01*
X413921Y410428D01*
X413735Y410307D01*
X413556Y410164D01*
X413387Y409999D01*
X413226Y409811D01*
X413073Y409602D01*
X412439Y413044D01*
X412677Y412884D01*
D02*
G37*
%LPC*%
G36*
X652796Y249000D02*
X651204D01*
X649734Y248391D01*
X648609Y247266D01*
X648000Y245796D01*
Y244204D01*
X648609Y242734D01*
X649734Y241609D01*
X651204Y241000D01*
X652796D01*
X654266Y241609D01*
X655391Y242734D01*
X656000Y244204D01*
Y245796D01*
X655391Y247266D01*
X654266Y248391D01*
X652796Y249000D01*
D02*
G37*
G36*
X639796D02*
X638204D01*
X636734Y248391D01*
X635609Y247266D01*
X635000Y245796D01*
Y244204D01*
X635609Y242734D01*
X636734Y241609D01*
X638204Y241000D01*
X639796D01*
X641266Y241609D01*
X642391Y242734D01*
X643000Y244204D01*
Y245796D01*
X642391Y247266D01*
X641266Y248391D01*
X639796Y249000D01*
D02*
G37*
G36*
X775796Y242000D02*
X774204D01*
X772734Y241391D01*
X771609Y240266D01*
X771000Y238796D01*
Y237204D01*
X771609Y235734D01*
X772734Y234609D01*
X774204Y234000D01*
X775796D01*
X777266Y234609D01*
X778391Y235734D01*
X779000Y237204D01*
Y238796D01*
X778391Y240266D01*
X777266Y241391D01*
X775796Y242000D01*
D02*
G37*
G36*
X795796Y249000D02*
X794204D01*
X792734Y248391D01*
X791609Y247266D01*
X791000Y245796D01*
Y244204D01*
X791609Y242734D01*
X792623Y241720D01*
X792683Y241000D01*
X792623Y240280D01*
X791609Y239266D01*
X791000Y237796D01*
Y236204D01*
X791609Y234734D01*
X792734Y233609D01*
X794204Y233000D01*
X795796D01*
X797266Y233609D01*
X798391Y234734D01*
X799000Y236204D01*
Y237796D01*
X798391Y239266D01*
X797377Y240280D01*
X797317Y241000D01*
X797377Y241720D01*
X798391Y242734D01*
X799000Y244204D01*
Y245796D01*
X798391Y247266D01*
X797266Y248391D01*
X795796Y249000D01*
D02*
G37*
G36*
X664796Y239000D02*
X663204D01*
X661734Y238391D01*
X660609Y237266D01*
X660000Y235796D01*
Y234204D01*
X660609Y232734D01*
X661734Y231609D01*
X663204Y231000D01*
X664796D01*
X666266Y231609D01*
X667391Y232734D01*
X668000Y234204D01*
Y235796D01*
X667391Y237266D01*
X666266Y238391D01*
X664796Y239000D01*
D02*
G37*
G36*
X626796Y238000D02*
X625204D01*
X623734Y237391D01*
X622609Y236266D01*
X622000Y234796D01*
Y233204D01*
X622609Y231734D01*
X623734Y230609D01*
X625204Y230000D01*
X626796D01*
X628266Y230609D01*
X629391Y231734D01*
X630000Y233204D01*
Y234796D01*
X629391Y236266D01*
X628266Y237391D01*
X626796Y238000D01*
D02*
G37*
G36*
X884796Y237000D02*
X883204D01*
X881734Y236391D01*
X880609Y235266D01*
X880000Y233796D01*
Y232204D01*
X880609Y230734D01*
X881734Y229609D01*
X883204Y229000D01*
X884796D01*
X886266Y229609D01*
X887391Y230734D01*
X888000Y232204D01*
Y233796D01*
X887391Y235266D01*
X886266Y236391D01*
X884796Y237000D01*
D02*
G37*
G36*
X862796D02*
X861204D01*
X859734Y236391D01*
X858609Y235266D01*
X858000Y233796D01*
Y232204D01*
X858609Y230734D01*
X859734Y229609D01*
X861204Y229000D01*
X862796D01*
X864266Y229609D01*
X865391Y230734D01*
X866000Y232204D01*
Y233796D01*
X865391Y235266D01*
X864266Y236391D01*
X862796Y237000D01*
D02*
G37*
G36*
X852796D02*
X851204D01*
X849734Y236391D01*
X848609Y235266D01*
X848000Y233796D01*
Y232204D01*
X848609Y230734D01*
X849734Y229609D01*
X851204Y229000D01*
X852796D01*
X854266Y229609D01*
X855391Y230734D01*
X856000Y232204D01*
Y233796D01*
X855391Y235266D01*
X854266Y236391D01*
X852796Y237000D01*
D02*
G37*
G36*
X837796D02*
X836204D01*
X834734Y236391D01*
X833609Y235266D01*
X833000Y233796D01*
Y232204D01*
X833609Y230734D01*
X834734Y229609D01*
X836204Y229000D01*
X837796D01*
X839266Y229609D01*
X840391Y230734D01*
X841000Y232204D01*
Y233796D01*
X840391Y235266D01*
X839266Y236391D01*
X837796Y237000D01*
D02*
G37*
G36*
X940796Y290000D02*
X939204D01*
X937734Y289391D01*
X936609Y288266D01*
X936000Y286796D01*
Y285204D01*
X936609Y283734D01*
X937734Y282609D01*
X939204Y282000D01*
X940796D01*
X942266Y282609D01*
X943391Y283734D01*
X944000Y285204D01*
Y286796D01*
X943391Y288266D01*
X942266Y289391D01*
X940796Y290000D01*
D02*
G37*
G36*
Y276000D02*
X939204D01*
X937734Y275391D01*
X936609Y274266D01*
X936000Y272796D01*
Y271204D01*
X936609Y269734D01*
X937734Y268609D01*
X939204Y268000D01*
X940796D01*
X942266Y268609D01*
X943391Y269734D01*
X944000Y271204D01*
Y272796D01*
X943391Y274266D01*
X942266Y275391D01*
X940796Y276000D01*
D02*
G37*
G36*
X892796Y328000D02*
X891204D01*
X889734Y327391D01*
X888609Y326266D01*
X888000Y324796D01*
Y323204D01*
X888609Y321734D01*
X889734Y320609D01*
X891204Y320000D01*
X892796D01*
X894266Y320609D01*
X895391Y321734D01*
X896000Y323204D01*
Y324796D01*
X895391Y326266D01*
X894266Y327391D01*
X892796Y328000D01*
D02*
G37*
%LPD*%
D10*
X930013Y622513D02*
X932500Y625000D01*
X931500Y546000D02*
X932500Y545000D01*
X911000Y546000D02*
X931500D01*
X882000Y575000D02*
X911000Y546000D01*
X882000Y575000D02*
Y599000D01*
X826500Y654500D02*
X882000Y599000D01*
X826500Y654500D02*
Y697550D01*
X815050Y709000D02*
X826500Y697550D01*
X622000Y709000D02*
X815050D01*
X614071Y701071D02*
X622000Y709000D01*
X614071Y693929D02*
Y701071D01*
X606142Y686000D02*
X614071Y693929D01*
X592000Y686000D02*
X606142D01*
X582000Y676000D02*
X592000Y686000D01*
X933000Y625000D02*
X944000Y614000D01*
Y580000D02*
Y614000D01*
X939000Y575000D02*
X944000Y580000D01*
X924000Y575000D02*
X939000D01*
X887000Y613222D02*
Y614000D01*
Y613222D02*
X895222Y605000D01*
X932500D01*
X925500Y592500D02*
X933000Y585000D01*
X900500Y592500D02*
X925500D01*
X834000Y659000D02*
X900500Y592500D01*
X834000Y659000D02*
Y700000D01*
X817500Y716500D02*
X834000Y700000D01*
X595500Y716500D02*
X817500D01*
X582000Y703000D02*
X595500Y716500D01*
X582000Y696000D02*
Y703000D01*
X845000Y556000D02*
Y575000D01*
X834715Y559715D02*
Y574715D01*
X835000Y575000D01*
X850000Y554000D02*
Y580000D01*
X840000Y558000D02*
Y580000D01*
X826000Y537000D02*
X845000Y556000D01*
X813000Y537000D02*
X826000D01*
X816000Y531000D02*
X827000D01*
X850000Y554000D01*
X818000Y542000D02*
X824000D01*
X840000Y558000D01*
X821000Y548000D02*
X821574Y548574D01*
X823574D01*
X834715Y559715D01*
X911000Y588000D02*
X924000Y575000D01*
X899000Y588000D02*
X911000D01*
X830000Y657000D02*
X899000Y588000D01*
X830000Y657000D02*
Y699000D01*
X816000Y713000D02*
X830000Y699000D01*
X619000Y713000D02*
X816000D01*
X602000Y696000D02*
X619000Y713000D01*
X857500Y520000D02*
X880000Y497500D01*
X731000Y520000D02*
X857500D01*
X869770Y432230D02*
X895000Y407000D01*
X869770Y432230D02*
X870000Y432000D01*
X869770Y432230D02*
Y432230D01*
X802000Y378000D02*
Y389000D01*
X809459Y396459D01*
X751500Y327500D02*
X802000Y378000D01*
X680000Y327500D02*
X751500D01*
X688000Y644000D02*
X699000Y655000D01*
X868000Y534000D02*
X887000Y515000D01*
Y476000D02*
Y515000D01*
X856459Y396459D02*
X865000Y405000D01*
Y454000D01*
X841000Y437000D02*
Y454000D01*
Y437000D02*
X860000Y418000D01*
X809459Y396459D02*
X856459D01*
X865000Y454000D02*
X887000Y476000D01*
X687000Y515000D02*
X713000Y489000D01*
X895000Y407000D02*
X900000D01*
X776250Y504250D02*
X783500Y497000D01*
X800000D01*
X536000Y655000D02*
X602000D01*
X613000Y644000D01*
X549000Y536000D02*
X563328D01*
X522500Y562500D02*
X549000Y536000D01*
X742750Y504250D02*
X776250D01*
X732500Y494000D02*
X742750Y504250D01*
X674000Y320000D02*
Y320812D01*
X675139Y321951D01*
Y322639D01*
X680000Y327500D01*
X351000Y568000D02*
Y615000D01*
X379000Y643000D01*
X565426Y536426D02*
X566000Y537000D01*
X563754Y536426D02*
X565426D01*
X563328Y536000D02*
X563754Y536426D01*
X730500Y494000D02*
X732500D01*
X469500Y510000D02*
X470172D01*
X472172Y512000D02*
X564500D01*
X470172Y510000D02*
X472172Y512000D01*
X341000Y342000D02*
X371500Y372500D01*
X380000D01*
X341139Y444451D02*
Y445139D01*
X340000Y443312D02*
X341139Y444451D01*
Y445139D02*
X380000Y484000D01*
X340000Y442500D02*
Y443312D01*
X692500Y463000D02*
X720500Y435000D01*
Y424000D02*
Y435000D01*
X303000Y589000D02*
X314000Y600000D01*
Y613000D01*
X341000Y324000D02*
Y342000D01*
X346426Y481426D02*
X350426D01*
X298000Y433000D02*
X346426Y481426D01*
X350426D02*
X351000Y482000D01*
X380000Y484000D02*
Y499000D01*
X411000Y494000D02*
Y500000D01*
X386000Y469000D02*
X411000Y494000D01*
X301000Y534000D02*
X304000Y531000D01*
X422000D01*
D14*
X711000Y549000D02*
X752000D01*
X787000Y584000D01*
X298000Y262000D02*
Y276000D01*
X325000Y303000D02*
X429500D01*
X298000Y276000D02*
X325000Y303000D01*
X429500D02*
X537500Y411000D01*
X425864Y311000D02*
X533864Y419000D01*
X298700Y300700D02*
X309000Y311000D01*
X425864D01*
X299000Y324000D02*
X308000Y315000D01*
X424000D02*
X532000Y423000D01*
X308000Y315000D02*
X424000D01*
X716000Y544000D02*
X756000D01*
X794000Y582000D01*
X682000Y435000D02*
X695000Y448000D01*
X555000Y435000D02*
X682000D01*
X686000Y508000D02*
X713000Y481000D01*
X716000Y544000D02*
X716000Y544000D01*
X547750Y442250D02*
X555000Y435000D01*
X719641Y406306D02*
X721000Y404947D01*
Y404000D02*
Y404947D01*
X719641Y406306D02*
Y406359D01*
X695000Y431000D02*
X719641Y406359D01*
X527000Y431000D02*
X695000D01*
X530000Y427000D02*
X691053D01*
X693053Y425000D01*
X694000D01*
X686000Y423000D02*
X691000Y418000D01*
X532000Y423000D02*
X686000D01*
X405000Y686000D02*
X407000Y684000D01*
X550743Y551000D02*
X595000D01*
X417743Y684000D02*
X550743Y551000D01*
X309400Y686000D02*
X405000D01*
X407000Y684000D02*
X417743D01*
X416500Y681000D02*
X551500Y546000D01*
X297000Y681000D02*
X416500D01*
X551500Y546000D02*
X587000D01*
X416500Y676000D02*
X550500Y542000D01*
X572328D01*
X309000Y676000D02*
X416500D01*
X685379Y406000D02*
X699000D01*
X686391Y412609D02*
X687000Y412000D01*
X686391Y412609D02*
Y415109D01*
X682500Y419000D02*
X686391Y415109D01*
X689000Y377000D02*
Y383500D01*
X669500Y403000D02*
X689000Y383500D01*
X540441Y403000D02*
X669500D01*
X544000Y395000D02*
X660000D01*
X673000Y382000D01*
X547000Y391000D02*
X653000D01*
X657000Y387000D01*
X540000Y442000D02*
X540250Y442250D01*
X547750D01*
X461389Y296389D02*
Y312389D01*
X461000Y296000D02*
X461389Y296389D01*
X411453Y411453D02*
X436453D01*
X485000Y460000D01*
X411000Y411000D02*
X411453Y411453D01*
X488000Y392000D02*
X527000Y431000D01*
X412000Y547000D02*
X412672D01*
X414672Y545000D01*
X465000D01*
X555500Y387000D02*
X604000D01*
X611000Y380000D01*
X602426Y380574D02*
X603000Y380000D01*
X600754Y380574D02*
X602426D01*
X600328Y381000D02*
X600754Y380574D01*
X555500Y381000D02*
X600328D01*
X574426Y541574D02*
X575000Y541000D01*
X572754Y541574D02*
X574426D01*
X572328Y542000D02*
X572754Y541574D01*
X468000Y312000D02*
X547000Y391000D01*
X468000Y296000D02*
Y312000D01*
X461389Y312389D02*
X544000Y395000D01*
X542000Y399000D02*
X666000D01*
X345000Y288000D02*
X431000D01*
X542000Y399000D01*
X342000Y291000D02*
X345000Y288000D01*
X430441Y293000D02*
X540441Y403000D01*
X343000Y297929D02*
X347929Y293000D01*
X430441D01*
X350000Y298000D02*
X430000D01*
X478000Y346000D01*
X343000Y297929D02*
Y298000D01*
X477971Y346186D02*
X538784Y407000D01*
X537500Y411000D02*
X674722D01*
X321000Y307000D02*
X427471D01*
X533864Y419000D02*
X682500D01*
X320000Y319000D02*
X422000D01*
X530000Y427000D01*
X298700Y284700D02*
X321000Y307000D01*
X299000Y340000D02*
X320000Y319000D01*
X427471Y307000D02*
X535471Y415000D01*
X541000Y352000D02*
X541574Y352574D01*
X544112D01*
X547500Y355962D01*
X421000Y468000D02*
Y489000D01*
X418000Y492000D02*
X421000Y489000D01*
X400000Y473000D02*
X416000D01*
X465000Y545000D02*
X493000Y517000D01*
X557828D01*
X535471Y415000D02*
X676379D01*
X538784Y407000D02*
X673065D01*
X666000Y399000D02*
X680500Y384500D01*
X342500Y410000D02*
Y415500D01*
X400000Y473000D01*
X547500Y355962D02*
Y373000D01*
X541500Y359000D02*
Y373000D01*
X547500Y373000D02*
X555500Y381000D01*
X541500Y373000D02*
X555500Y387000D01*
X560328Y519500D02*
X560500D01*
X557828Y517000D02*
X560328Y519500D01*
X685000Y395500D02*
X697500Y383000D01*
X684565Y395500D02*
X685000D01*
X673065Y407000D02*
X684565Y395500D01*
X676379Y415000D02*
X685379Y406000D01*
X674722Y411000D02*
X685722Y400000D01*
X706500D01*
X711500Y405000D01*
X298700Y696700D02*
X309400Y686000D01*
X339000Y509000D02*
X351000D01*
X301000Y668000D02*
X309000Y676000D01*
D73*
X795000Y265000D02*
X807750Y252250D01*
X853000D01*
X864000Y599000D02*
X864015Y599015D01*
Y602914D01*
X826929Y640000D02*
X864015Y602914D01*
X807000Y386000D02*
X807541D01*
X808541Y385000D01*
X834000D01*
X760000Y646000D02*
X828000D01*
X872309Y601691D01*
Y600191D02*
X872500Y600000D01*
X872309Y600191D02*
Y601691D01*
X768000Y640000D02*
X826929D01*
X761000Y633000D02*
X768000Y640000D01*
X611000Y258000D02*
X611541D01*
X612541Y259000D01*
X613000D01*
X617000Y263000D01*
Y283209D01*
X672675Y251325D02*
X673000Y251000D01*
X672675Y251325D02*
Y254575D01*
X651250Y276000D02*
X672675Y254575D01*
X632250Y276000D02*
X651250D01*
X615000Y285209D02*
X617000Y283209D01*
X615000Y285209D02*
Y285750D01*
X573000Y343972D02*
Y350500D01*
X598500Y354000D02*
X609500Y343000D01*
X576500Y354000D02*
X598500D01*
X573000Y350500D02*
X576500Y354000D01*
D75*
X754691Y456691D02*
X755000Y457000D01*
X752309Y456691D02*
X754691D01*
X747000Y462000D02*
X752309Y456691D01*
X747000Y462000D02*
Y494000D01*
X750500Y497500D02*
X759098D01*
X747000Y494000D02*
X750500Y497500D01*
D77*
X250000Y246000D02*
X258000Y238000D01*
X348565Y235000D02*
X377000D01*
X258000Y238000D02*
X345565D01*
X348565Y235000D01*
X581007Y601993D02*
X607007D01*
X621000Y588000D01*
X700000D01*
X231000Y469000D02*
X239000D01*
X235000Y465000D02*
X239000Y469000D01*
X231000D02*
X235000Y465000D01*
X235000D01*
Y461112D02*
Y465000D01*
Y314000D02*
Y461112D01*
X250000Y246000D02*
Y299000D01*
X235000Y314000D02*
X250000Y299000D01*
D78*
X743000Y387000D02*
X756000Y400000D01*
X743000Y356000D02*
Y387000D01*
X676686Y334000D02*
X697000D01*
X664186Y321500D02*
X676686Y334000D01*
X653979Y321500D02*
X664186D01*
X697000Y334000D02*
Y334000D01*
X649000Y326479D02*
X653979Y321500D01*
X649000Y326479D02*
Y328021D01*
X641021Y336000D02*
X649000Y328021D01*
X618000Y336000D02*
X641021D01*
X697000Y334000D02*
X726000D01*
X727000D02*
X743000Y350000D01*
Y356000D01*
D79*
X932500Y585000D02*
D03*
Y605000D02*
D03*
Y625000D02*
D03*
Y545000D02*
D03*
Y565000D02*
D03*
Y645000D02*
D03*
Y665000D02*
D03*
Y685000D02*
D03*
X602000Y696000D02*
D03*
Y676000D02*
D03*
X582000Y696000D02*
D03*
Y676000D02*
D03*
X562000Y696000D02*
D03*
Y676000D02*
D03*
X542000Y696000D02*
D03*
Y676000D02*
D03*
X522000Y696000D02*
D03*
D80*
X932500Y525000D02*
D03*
X522000Y676000D02*
D03*
D81*
X845000Y575000D02*
D03*
X835000D02*
D03*
X850000Y580000D02*
D03*
X840000D02*
D03*
X816000Y531000D02*
D03*
X813000Y537000D02*
D03*
X818000Y542000D02*
D03*
X821000Y548000D02*
D03*
X924000Y575000D02*
D03*
X887000Y614000D02*
D03*
X853000Y252250D02*
D03*
X880000Y497500D02*
D03*
X794000Y582000D02*
D03*
X864000Y599000D02*
D03*
X870000Y432000D02*
D03*
X634000Y384000D02*
D03*
X624000D02*
D03*
X699000Y655000D02*
D03*
X868000Y534000D02*
D03*
X860000Y418000D02*
D03*
X695000Y448000D02*
D03*
X713000Y481000D02*
D03*
Y489000D02*
D03*
X686000Y508000D02*
D03*
X716000Y544000D02*
D03*
X731000Y520000D02*
D03*
X711000Y549000D02*
D03*
X787000Y584000D02*
D03*
X721000Y404000D02*
D03*
X694000Y425000D02*
D03*
X691000Y418000D02*
D03*
X807000Y386000D02*
D03*
X760000Y646000D02*
D03*
X841000Y454000D02*
D03*
X900000Y407000D02*
D03*
X834000Y385000D02*
D03*
X800000Y497000D02*
D03*
X872500Y600000D02*
D03*
X688000Y644000D02*
D03*
X761000Y633000D02*
D03*
X613000Y644000D02*
D03*
X884000Y654000D02*
D03*
X536000Y655000D02*
D03*
X522500Y562500D02*
D03*
X611000Y258000D02*
D03*
X673000Y251000D02*
D03*
X699000Y406000D02*
D03*
X687000Y412000D02*
D03*
X689000Y377000D02*
D03*
X673000Y382000D02*
D03*
X657000Y387000D02*
D03*
X674000Y320000D02*
D03*
X540000Y442000D02*
D03*
X461000Y296000D02*
D03*
X411000Y411000D02*
D03*
X488000Y392000D02*
D03*
X412000Y547000D02*
D03*
X611000Y380000D02*
D03*
X603000D02*
D03*
X379000Y643000D02*
D03*
X687000Y515000D02*
D03*
X587000Y546000D02*
D03*
X595000Y551000D02*
D03*
X575000Y541000D02*
D03*
X566000Y537000D02*
D03*
X468000Y296000D02*
D03*
X342000Y291000D02*
D03*
X343000Y298000D02*
D03*
X350000D02*
D03*
X541000Y352000D02*
D03*
X485000Y460000D02*
D03*
X418000Y492000D02*
D03*
X421000Y468000D02*
D03*
X416000Y473000D02*
D03*
X795000Y265000D02*
D03*
X632250Y276000D02*
D03*
X615000Y285750D02*
D03*
X730500Y494000D02*
D03*
X680500Y384500D02*
D03*
X564500Y512000D02*
D03*
X469500Y510000D02*
D03*
X380000Y372500D02*
D03*
X340000Y442500D02*
D03*
X342500Y410000D02*
D03*
X692500Y463000D02*
D03*
X697500Y383000D02*
D03*
X711500Y405000D02*
D03*
X720500Y424000D02*
D03*
X560500Y519500D02*
D03*
X541500Y359000D02*
D03*
X298000Y262000D02*
D03*
X303000Y589000D02*
D03*
X314000Y613000D02*
D03*
X341000Y324000D02*
D03*
X298000Y433000D02*
D03*
X386000Y469000D02*
D03*
X351000Y482000D02*
D03*
X411000Y500000D02*
D03*
X422000Y531000D02*
D03*
X380000Y499000D02*
D03*
X351000Y568000D02*
D03*
Y509000D02*
D03*
X339000D02*
D03*
X301000Y668000D02*
D03*
X297000Y681000D02*
D03*
X298700Y696700D02*
D03*
Y284700D02*
D03*
Y300700D02*
D03*
X299000Y324000D02*
D03*
Y340000D02*
D03*
X301000Y534000D02*
D03*
D82*
X911000Y660000D02*
D03*
X793000Y573000D02*
D03*
X810000Y571000D02*
D03*
X852500Y605000D02*
D03*
X840000Y692000D02*
D03*
X278000Y316000D02*
D03*
Y393000D02*
D03*
X279000Y471000D02*
D03*
Y510000D02*
D03*
X278000Y588000D02*
D03*
X905000Y233000D02*
D03*
X754000Y276000D02*
D03*
X815000Y289000D02*
D03*
X820000Y655000D02*
D03*
X895000Y613000D02*
D03*
X865000Y658000D02*
D03*
X928000Y336000D02*
D03*
X943000Y227000D02*
D03*
X927000Y256000D02*
D03*
Y245000D02*
D03*
X936000Y708000D02*
D03*
X867000Y712000D02*
D03*
X908000Y682000D02*
D03*
X773000Y583000D02*
D03*
X875000Y712000D02*
D03*
X621000Y698000D02*
D03*
X856000Y648000D02*
D03*
X884000Y534000D02*
D03*
X908000Y711000D02*
D03*
X882000Y620000D02*
D03*
X902000Y475000D02*
D03*
X794000Y490000D02*
D03*
Y506000D02*
D03*
X816000Y498000D02*
D03*
X806000Y526000D02*
D03*
X727000Y418000D02*
D03*
X626000Y372000D02*
D03*
X638000D02*
D03*
X801000Y406000D02*
D03*
X836000Y413000D02*
D03*
X855000Y440000D02*
D03*
X893000Y579000D02*
D03*
X870000Y566000D02*
D03*
X792000Y595000D02*
D03*
X638000Y643000D02*
D03*
X679000D02*
D03*
X704000Y673000D02*
D03*
X752000Y658000D02*
D03*
X809000Y653000D02*
D03*
X785000Y666000D02*
D03*
X816000Y631000D02*
D03*
X775000D02*
D03*
X664000Y645000D02*
D03*
X765000Y695000D02*
D03*
X710000Y700000D02*
D03*
X587500Y317500D02*
D03*
X760000Y534000D02*
D03*
X731000D02*
D03*
X902500Y520000D02*
D03*
X880000Y485000D02*
D03*
X772000Y408000D02*
D03*
X770000Y436000D02*
D03*
X756000Y400000D02*
D03*
X771000Y427000D02*
D03*
X756000Y426000D02*
D03*
X770911Y514000D02*
D03*
X742500Y572500D02*
D03*
X758000Y466000D02*
D03*
Y447000D02*
D03*
X710000Y604000D02*
D03*
X924000Y616000D02*
D03*
X770000Y470000D02*
D03*
X820000Y465000D02*
D03*
X885000D02*
D03*
X630000Y608000D02*
D03*
X608000Y627000D02*
D03*
X433000Y460000D02*
D03*
X660000Y560000D02*
D03*
X705000Y385000D02*
D03*
X656000Y344000D02*
D03*
X668000D02*
D03*
X237000Y697000D02*
D03*
X243000Y678000D02*
D03*
X237000Y672000D02*
D03*
X230000Y665000D02*
D03*
X700000Y588000D02*
D03*
X937500Y432500D02*
D03*
X755000Y457000D02*
D03*
X710000Y592000D02*
D03*
X621000Y674000D02*
D03*
X789000Y670000D02*
D03*
X779000Y678000D02*
D03*
X585000Y643000D02*
D03*
X606000Y587000D02*
D03*
X700000Y612500D02*
D03*
X593000Y626000D02*
D03*
X462791Y577265D02*
D03*
X477791Y639765D02*
D03*
X554000Y626000D02*
D03*
X495291Y674765D02*
D03*
X544886Y586886D02*
D03*
X527500Y585000D02*
D03*
X535000Y577500D02*
D03*
X450000Y703000D02*
D03*
X495000Y697500D02*
D03*
X450000Y672500D02*
D03*
X238000Y712000D02*
D03*
X912500Y390000D02*
D03*
X380398Y669530D02*
D03*
X429000Y691000D02*
D03*
X817500Y365000D02*
D03*
X940000Y390000D02*
D03*
X925000Y402500D02*
D03*
X825000Y259000D02*
D03*
X879000Y385000D02*
D03*
X802000Y289000D02*
D03*
X803000Y304000D02*
D03*
X490000Y632500D02*
D03*
X449000Y632000D02*
D03*
X342000Y629000D02*
D03*
X430000Y338000D02*
D03*
X458000Y367000D02*
D03*
X533000Y311000D02*
D03*
X483000Y288000D02*
D03*
X473000D02*
D03*
X742000Y266000D02*
D03*
X831000Y303000D02*
D03*
X928000Y324000D02*
D03*
X900000Y307000D02*
D03*
X880000D02*
D03*
X443000Y408000D02*
D03*
X424000Y447000D02*
D03*
X460000Y412000D02*
D03*
X424250Y499000D02*
D03*
X443000Y568000D02*
D03*
X584000Y613000D02*
D03*
X571000Y627000D02*
D03*
X495000Y655000D02*
D03*
X462500Y660000D02*
D03*
X825000Y282000D02*
D03*
X844000D02*
D03*
X831000Y268000D02*
D03*
X819000D02*
D03*
X655000Y450000D02*
D03*
X635000D02*
D03*
X615000Y470000D02*
D03*
X635000D02*
D03*
X655000D02*
D03*
Y490000D02*
D03*
X635000D02*
D03*
X615000D02*
D03*
X661000Y277000D02*
D03*
X669000Y284000D02*
D03*
X653000D02*
D03*
X645000Y255000D02*
D03*
X652000Y265000D02*
D03*
X639000D02*
D03*
X577000Y237000D02*
D03*
Y248000D02*
D03*
Y227000D02*
D03*
X565000D02*
D03*
X590000D02*
D03*
X515000Y632500D02*
D03*
X756405Y490500D02*
D03*
X618000Y336000D02*
D03*
X743000Y356000D02*
D03*
X726000Y349000D02*
D03*
X727000Y334000D02*
D03*
X239000Y469000D02*
D03*
X231000D02*
D03*
X830000Y340000D02*
D03*
Y365000D02*
D03*
X855000Y320000D02*
D03*
X835000D02*
D03*
X870000Y330000D02*
D03*
X885000Y340000D02*
D03*
X870000Y350000D02*
D03*
X885000Y360000D02*
D03*
X870000Y370000D02*
D03*
X754000Y249000D02*
D03*
X377000Y235000D02*
D03*
X364000D02*
D03*
X633000Y562000D02*
D03*
X618000D02*
D03*
X581000Y602000D02*
D03*
X567000Y611000D02*
D03*
X561000Y557000D02*
D03*
X478500Y468000D02*
D03*
X602500Y262500D02*
D03*
X607500Y270000D02*
D03*
X602500Y277500D02*
D03*
X777500Y337500D02*
D03*
X938000Y381000D02*
D03*
X944000Y376000D02*
D03*
X938000Y371000D02*
D03*
X928000D02*
D03*
X481000Y568000D02*
D03*
Y544000D02*
D03*
X429000Y537000D02*
D03*
X451000D02*
D03*
X689000Y317000D02*
D03*
X927000Y235000D02*
D03*
X931000Y226000D02*
D03*
X922000D02*
D03*
X738000Y228000D02*
D03*
X749000D02*
D03*
Y237000D02*
D03*
X782500Y380000D02*
D03*
X712000Y317000D02*
D03*
X697000Y334000D02*
D03*
X736000Y257000D02*
D03*
X640000Y325000D02*
D03*
X635000Y345000D02*
D03*
X620000D02*
D03*
X575000Y325000D02*
D03*
X527500D02*
D03*
X610000Y317500D02*
D03*
X440000Y235000D02*
D03*
X574000Y713000D02*
D03*
X718000Y561000D02*
D03*
X707000D02*
D03*
X660500Y379500D02*
D03*
X473500Y435000D02*
D03*
X472000Y417000D02*
D03*
X507500Y419000D02*
D03*
X475500Y506000D02*
D03*
X508500Y502000D02*
D03*
X510500Y455000D02*
D03*
X655500Y507000D02*
D03*
X590500Y587000D02*
D03*
X594490Y561500D02*
D03*
X595500Y507000D02*
D03*
Y487000D02*
D03*
X605500Y561500D02*
D03*
X615500Y507000D02*
D03*
X635500D02*
D03*
X675500Y447000D02*
D03*
Y467000D02*
D03*
X699000Y472000D02*
D03*
X839000Y711000D02*
D03*
X675500Y487000D02*
D03*
X681000Y543000D02*
D03*
X695000Y528000D02*
D03*
X714000Y526000D02*
D03*
X720000Y499000D02*
D03*
X730000Y475000D02*
D03*
X730500Y450000D02*
D03*
Y466000D02*
D03*
X755257Y476757D02*
D03*
X539500Y534500D02*
D03*
X510500Y535000D02*
D03*
X539500Y479500D02*
D03*
X575500Y487000D02*
D03*
X539500Y499500D02*
D03*
X555500Y497000D02*
D03*
Y447000D02*
D03*
Y467000D02*
D03*
X513000Y468000D02*
D03*
X554500Y371500D02*
D03*
X539500Y464500D02*
D03*
Y453052D02*
D03*
X551500Y341000D02*
D03*
X575500Y373000D02*
D03*
Y457000D02*
D03*
X590500Y374000D02*
D03*
X580500Y347000D02*
D03*
X595500Y447000D02*
D03*
Y467000D02*
D03*
X615500Y447000D02*
D03*
X309000Y252000D02*
D03*
Y372000D02*
D03*
X416000Y523000D02*
D03*
X439000D02*
D03*
X464000Y534000D02*
D03*
X308000Y496000D02*
D03*
X415000Y662500D02*
D03*
X416000Y637000D02*
D03*
X461000Y274000D02*
D03*
X943000Y256000D02*
D03*
X937000Y311000D02*
D03*
X938000Y355000D02*
D03*
X437000Y703000D02*
D03*
X362000Y704000D02*
D03*
X308000Y705000D02*
D03*
X257000Y698000D02*
D03*
X306000Y634000D02*
D03*
X343000Y657000D02*
D03*
X391000Y577000D02*
D03*
X377500Y460000D02*
D03*
X341000Y496000D02*
D03*
X250000Y470000D02*
D03*
X413000Y427000D02*
D03*
X382500Y342500D02*
D03*
X397500Y331500D02*
D03*
X340000Y372000D02*
D03*
X245000Y227000D02*
D03*
X311000D02*
D03*
X235000Y252500D02*
D03*
Y262500D02*
D03*
X351000Y246000D02*
D03*
X339000Y252000D02*
D03*
X495000Y274000D02*
D03*
X527500Y227500D02*
D03*
X550000Y227000D02*
D03*
Y240000D02*
D03*
X600000Y227000D02*
D03*
X232000Y276000D02*
D03*
X759098Y497500D02*
D03*
X609500Y343000D02*
D03*
X573000Y343972D02*
D03*
X235000Y461112D02*
D03*
M02*
