M48
;Layer_Color=9474304
;FILE_FORMAT=4:4
METRIC,LZ
;TYPE=PLATED
T01F00S00C0.3000
T02F00S00C0.6700
;TYPE=NON_PLATED
T03F00S00C2.2000
%
T01
X00295Y00235
Y002475
X0037Y0024
X0045
X0054
X0062
X0071
X008
X0089
X0098
X0107
X0116
X01272Y00185
X01304
X0132Y002
X014Y0025
X0134Y0074
X01257096
X0116Y007
X01083
X00991Y00699
X00899
X00809
X00729
X00654Y007
X00564
X00484
X004
X00319Y00701
X0025Y007
T02
X0133085Y002613
Y002867
Y003121
Y003375
Y003629
Y003883
X0134991Y003756
Y003502
Y003248
Y002994
Y00274
X0136895Y002867
Y003121
Y003375
Y003629
Y003883
X01388Y003756
Y003502
Y003248
Y002994
Y00274
X0136895Y002613
Y004137
Y004391
Y004645
Y004899
Y005153
Y005407
Y005661
Y005915
Y006169
Y006423
Y006677
X0134991Y006804
Y00655
Y006296
Y006042
Y005788
Y005534
Y00528
Y005026
Y004772
Y004518
Y004264
Y00401
X0133085Y004137
Y004391
Y004645
Y004899
Y005153
Y005407
Y005661
Y005915
Y006169
Y006423
Y006677
X01388Y006804
Y00655
Y006296
Y006042
Y005788
Y005534
Y00528
Y005026
Y004772
Y004518
Y004264
Y00401
T03
X01381Y002105
Y007312
M30
