G04*
G04 #@! TF.GenerationSoftware,Altium Limited,Altium Designer,23.7.1 (13)*
G04*
G04 Layer_Color=16776960*
%FSLAX44Y44*%
%MOMM*%
G71*
G04*
G04 #@! TF.SameCoordinates,D2E7A544-C627-4BF8-9092-2E35ECC9D328*
G04*
G04*
G04 #@! TF.FilePolarity,Positive*
G04*
G01*
G75*
%ADD15C,0.1500*%
G36*
X509000Y403042D02*
X509111Y402998D01*
X509200Y402931D01*
X509222Y402909D01*
X512574Y399534D01*
X512663Y399357D01*
X512707Y399246D01*
X512730Y399179D01*
Y399157D01*
X512707Y399002D01*
X512641Y398868D01*
X512596Y398780D01*
X512574Y398758D01*
X512441Y398647D01*
X512308Y398602D01*
X512219Y398580D01*
X512175D01*
X512019Y398602D01*
X511908Y398669D01*
X511819Y398735D01*
X511797Y398758D01*
X509378Y401155D01*
Y387968D01*
X509355Y387791D01*
X509289Y387658D01*
X509244Y387569D01*
X509222Y387547D01*
X509044Y387480D01*
X508911Y387458D01*
X508845Y387436D01*
X508823D01*
X508667Y387458D01*
X508534Y387502D01*
X508445Y387524D01*
X508423Y387547D01*
X508334Y387680D01*
X508290Y387813D01*
X508268Y387924D01*
Y387968D01*
Y402509D01*
X508290Y402665D01*
X508356Y402798D01*
X508423Y402887D01*
X508445Y402909D01*
X508578Y402998D01*
X508712Y403042D01*
X508800Y403064D01*
X508845D01*
X509000Y403042D01*
D02*
G37*
G36*
X528891Y403020D02*
X529357Y402909D01*
X529757Y402731D01*
X530112Y402554D01*
X530401Y402376D01*
X530600Y402198D01*
X530733Y402088D01*
X530756Y402065D01*
X530778Y402043D01*
X530956Y401843D01*
X531089Y401666D01*
X531333Y401266D01*
X531488Y400867D01*
X531622Y400511D01*
X531688Y400178D01*
X531710Y399934D01*
X531732Y399845D01*
Y399779D01*
Y399734D01*
Y399712D01*
Y390766D01*
X531710Y390522D01*
X531688Y390277D01*
X531577Y389811D01*
X531399Y389412D01*
X531222Y389078D01*
X531044Y388790D01*
X530867Y388590D01*
X530756Y388457D01*
X530711Y388435D01*
Y388413D01*
X530512Y388235D01*
X530312Y388102D01*
X529912Y387858D01*
X529535Y387680D01*
X529157Y387569D01*
X528847Y387480D01*
X528602Y387458D01*
X528513Y387436D01*
X525605D01*
X525428Y387458D01*
X525295Y387524D01*
X525206Y387591D01*
X525184Y387613D01*
X525095Y387747D01*
X525050Y387880D01*
X525028Y387968D01*
Y387991D01*
X525050Y388124D01*
X525117Y388257D01*
X525206Y388346D01*
X525228Y388368D01*
X525361Y388479D01*
X525472Y388523D01*
X525561Y388546D01*
X528380D01*
X528713Y388568D01*
X529024Y388657D01*
X529291Y388745D01*
X529535Y388879D01*
X529712Y388990D01*
X529868Y389101D01*
X529957Y389167D01*
X529979Y389189D01*
X530201Y389456D01*
X530356Y389722D01*
X530467Y389989D01*
X530534Y390233D01*
X530578Y390433D01*
X530622Y390610D01*
Y390721D01*
Y390766D01*
Y399712D01*
X530600Y400045D01*
X530512Y400356D01*
X530423Y400644D01*
X530289Y400867D01*
X530178Y401066D01*
X530067Y401199D01*
X530001Y401288D01*
X529979Y401311D01*
X529712Y401533D01*
X529446Y401688D01*
X529179Y401799D01*
X528935Y401866D01*
X528713Y401932D01*
X528536Y401954D01*
X525605D01*
X525428Y401977D01*
X525295Y402043D01*
X525206Y402110D01*
X525184Y402132D01*
X525095Y402265D01*
X525050Y402398D01*
X525028Y402487D01*
Y402509D01*
X525050Y402643D01*
X525117Y402776D01*
X525206Y402864D01*
X525228Y402887D01*
X525361Y402998D01*
X525472Y403042D01*
X525561Y403064D01*
X528647D01*
X528891Y403020D01*
D02*
G37*
G36*
X517991Y402998D02*
X518413Y402820D01*
X518812Y402598D01*
X519190Y402376D01*
X519545Y402154D01*
X519878Y401910D01*
X520167Y401643D01*
X520433Y401399D01*
X520677Y401155D01*
X520899Y400933D01*
X521099Y400711D01*
X521254Y400511D01*
X521387Y400334D01*
X521498Y400201D01*
X521565Y400089D01*
X521609Y400023D01*
X521632Y400001D01*
X521832Y399623D01*
X522009Y399268D01*
X522187Y398891D01*
X522320Y398513D01*
X522520Y397803D01*
X522608Y397448D01*
X522653Y397137D01*
X522719Y396848D01*
X522742Y396582D01*
X522764Y396338D01*
X522786Y396138D01*
X522808Y395960D01*
Y395849D01*
Y395761D01*
Y395738D01*
Y390766D01*
X522786Y390499D01*
X522764Y390255D01*
X522653Y389811D01*
X522475Y389389D01*
X522298Y389056D01*
X522120Y388768D01*
X521942Y388568D01*
X521832Y388435D01*
X521787Y388413D01*
Y388390D01*
X521587Y388213D01*
X521387Y388079D01*
X520988Y387835D01*
X520588Y387680D01*
X520233Y387547D01*
X519922Y387480D01*
X519700Y387458D01*
X519612Y387436D01*
X518346D01*
X518080Y387458D01*
X517836Y387480D01*
X517392Y387591D01*
X516970Y387747D01*
X516637Y387924D01*
X516348Y388079D01*
X516148Y388235D01*
X516015Y388346D01*
X515971Y388390D01*
X515793Y388568D01*
X515638Y388768D01*
X515416Y389167D01*
X515238Y389567D01*
X515105Y389944D01*
X515038Y390277D01*
X515016Y390544D01*
X514994Y390633D01*
Y390699D01*
Y390743D01*
Y390766D01*
Y393008D01*
Y393274D01*
X515038Y393518D01*
X515149Y393962D01*
X515305Y394384D01*
X515482Y394717D01*
X515660Y395006D01*
X515815Y395206D01*
X515926Y395339D01*
X515949Y395383D01*
X515971D01*
X516148Y395561D01*
X516348Y395716D01*
X516748Y395938D01*
X517147Y396116D01*
X517525Y396249D01*
X517858Y396316D01*
X518013Y396338D01*
X518124D01*
X518235Y396360D01*
X521698D01*
X521676Y396626D01*
X521654Y396893D01*
X521609Y397159D01*
X521543Y397403D01*
X521498Y397603D01*
X521454Y397759D01*
X521432Y397847D01*
X521410Y397892D01*
X521299Y398203D01*
X521166Y398491D01*
X521054Y398735D01*
X520943Y398957D01*
X520832Y399157D01*
X520766Y399290D01*
X520722Y399379D01*
X520699Y399401D01*
X520455Y399757D01*
X520211Y400045D01*
X519989Y400312D01*
X519789Y400533D01*
X519612Y400711D01*
X519478Y400822D01*
X519389Y400911D01*
X519367Y400933D01*
X519057Y401177D01*
X518790Y401355D01*
X518679Y401422D01*
X518590Y401488D01*
X518546Y401510D01*
X518524Y401533D01*
X518058Y401777D01*
X517813Y401888D01*
X517591Y401954D01*
X517458Y402043D01*
X517392Y402132D01*
X517347Y402176D01*
X517325Y402198D01*
X517281Y402287D01*
X517236Y402376D01*
Y402443D01*
Y402465D01*
X517258Y402620D01*
X517303Y402753D01*
X517369Y402842D01*
X517392Y402864D01*
X517525Y402976D01*
X517636Y403042D01*
X517724Y403064D01*
X517769D01*
X517991Y402998D01*
D02*
G37*
G36*
X529990Y455270D02*
X530456Y455159D01*
X530856Y454981D01*
X531211Y454804D01*
X531499Y454626D01*
X531699Y454449D01*
X531832Y454338D01*
X531855Y454315D01*
X531877Y454293D01*
X532054Y454093D01*
X532188Y453916D01*
X532432Y453516D01*
X532587Y453116D01*
X532720Y452761D01*
X532787Y452428D01*
X532809Y452184D01*
X532831Y452095D01*
Y452029D01*
Y451984D01*
Y451962D01*
Y443016D01*
X532809Y442771D01*
X532787Y442527D01*
X532676Y442061D01*
X532498Y441661D01*
X532321Y441329D01*
X532143Y441040D01*
X531966Y440840D01*
X531855Y440707D01*
X531810Y440685D01*
Y440662D01*
X531610Y440485D01*
X531411Y440352D01*
X531011Y440107D01*
X530634Y439930D01*
X530256Y439819D01*
X529945Y439730D01*
X529701Y439708D01*
X529612Y439686D01*
X526704D01*
X526527Y439708D01*
X526394Y439775D01*
X526305Y439841D01*
X526283Y439863D01*
X526194Y439996D01*
X526149Y440130D01*
X526127Y440219D01*
Y440241D01*
X526149Y440374D01*
X526216Y440507D01*
X526305Y440596D01*
X526327Y440618D01*
X526460Y440729D01*
X526571Y440774D01*
X526660Y440796D01*
X529479D01*
X529812Y440818D01*
X530123Y440907D01*
X530389Y440995D01*
X530634Y441129D01*
X530811Y441240D01*
X530967Y441351D01*
X531055Y441417D01*
X531078Y441440D01*
X531300Y441706D01*
X531455Y441972D01*
X531566Y442239D01*
X531633Y442483D01*
X531677Y442683D01*
X531721Y442860D01*
Y442971D01*
Y443016D01*
Y451962D01*
X531699Y452295D01*
X531610Y452606D01*
X531522Y452895D01*
X531388Y453116D01*
X531277Y453316D01*
X531166Y453450D01*
X531100Y453538D01*
X531078Y453560D01*
X530811Y453783D01*
X530545Y453938D01*
X530278Y454049D01*
X530034Y454115D01*
X529812Y454182D01*
X529635Y454204D01*
X526704D01*
X526527Y454226D01*
X526394Y454293D01*
X526305Y454360D01*
X526283Y454382D01*
X526194Y454515D01*
X526149Y454648D01*
X526127Y454737D01*
Y454759D01*
X526149Y454893D01*
X526216Y455026D01*
X526305Y455115D01*
X526327Y455137D01*
X526460Y455248D01*
X526571Y455292D01*
X526660Y455314D01*
X529746D01*
X529990Y455270D01*
D02*
G37*
G36*
X523530Y455292D02*
X523663Y455225D01*
X523774Y455137D01*
X523840Y455026D01*
X523885Y454915D01*
X523907Y454826D01*
Y454759D01*
Y454737D01*
Y448033D01*
X523885Y447855D01*
X523818Y447722D01*
X523730Y447611D01*
X523619Y447544D01*
X523530Y447500D01*
X523441Y447478D01*
X520555D01*
X520222Y447456D01*
X519911Y447367D01*
X519645Y447278D01*
X519423Y447145D01*
X519223Y447034D01*
X519090Y446923D01*
X519001Y446834D01*
X518979Y446812D01*
X518757Y446568D01*
X518601Y446301D01*
X518468Y446035D01*
X518402Y445791D01*
X518357Y445591D01*
X518313Y445413D01*
Y445302D01*
Y445258D01*
Y443016D01*
X518335Y442683D01*
X518424Y442372D01*
X518513Y442105D01*
X518646Y441884D01*
X518757Y441684D01*
X518868Y441550D01*
X518957Y441462D01*
X518979Y441440D01*
X519223Y441217D01*
X519489Y441062D01*
X519756Y440951D01*
X520000Y440885D01*
X520222Y440840D01*
X520400Y440796D01*
X523352D01*
X523530Y440751D01*
X523663Y440685D01*
X523752Y440618D01*
X523774Y440574D01*
X523840Y440418D01*
X523885Y440330D01*
X523907Y440263D01*
Y440241D01*
X523885Y440085D01*
X523840Y439952D01*
X523796Y439863D01*
X523774Y439841D01*
X523641Y439752D01*
X523507Y439708D01*
X523396Y439686D01*
X520555D01*
X520311Y439708D01*
X520067Y439730D01*
X519600Y439841D01*
X519201Y439996D01*
X518868Y440174D01*
X518579Y440352D01*
X518379Y440507D01*
X518246Y440618D01*
X518202Y440662D01*
X518024Y440840D01*
X517869Y441040D01*
X517625Y441440D01*
X517447Y441839D01*
X517336Y442216D01*
X517247Y442527D01*
X517225Y442794D01*
X517203Y442882D01*
Y442949D01*
Y442994D01*
Y443016D01*
Y445236D01*
Y445480D01*
X517247Y445724D01*
X517358Y446190D01*
X517514Y446590D01*
X517691Y446923D01*
X517891Y447211D01*
X518046Y447411D01*
X518157Y447544D01*
X518180Y447589D01*
X518202D01*
X518379Y447766D01*
X518579Y447922D01*
X518979Y448166D01*
X519378Y448344D01*
X519734Y448455D01*
X520067Y448543D01*
X520333Y448566D01*
X520422Y448588D01*
X522797D01*
Y454204D01*
X517780D01*
X517602Y454226D01*
X517469Y454293D01*
X517380Y454360D01*
X517358Y454382D01*
X517270Y454515D01*
X517225Y454648D01*
X517203Y454737D01*
Y454759D01*
X517225Y454893D01*
X517292Y455026D01*
X517380Y455115D01*
X517403Y455137D01*
X517536Y455248D01*
X517647Y455292D01*
X517736Y455314D01*
X523352D01*
X523530Y455292D01*
D02*
G37*
G36*
X511808Y455248D02*
X512385Y455070D01*
X512607Y454959D01*
X512807Y454848D01*
X512985Y454737D01*
X513162Y454604D01*
X513296Y454515D01*
X513385Y454426D01*
X513451Y454360D01*
X513473Y454338D01*
X513651Y454138D01*
X513784Y453938D01*
X514028Y453516D01*
X514184Y453116D01*
X514317Y452761D01*
X514384Y452450D01*
X514406Y452206D01*
X514428Y452118D01*
Y452051D01*
Y452006D01*
Y451984D01*
Y450830D01*
X514406Y450541D01*
X514384Y450275D01*
X514317Y450009D01*
X514250Y449809D01*
X514206Y449609D01*
X514139Y449476D01*
X514117Y449387D01*
X514095Y449365D01*
X513962Y449121D01*
X513806Y448899D01*
X513651Y448721D01*
X513518Y448543D01*
X513385Y448410D01*
X513274Y448321D01*
X513207Y448255D01*
X513185Y448233D01*
X513495Y448011D01*
X513762Y447789D01*
X513984Y447567D01*
X514184Y447367D01*
X514317Y447167D01*
X514428Y447034D01*
X514495Y446945D01*
X514517Y446901D01*
X514672Y446612D01*
X514783Y446323D01*
X514872Y446035D01*
X514916Y445791D01*
X514961Y445569D01*
X514983Y445413D01*
Y445302D01*
Y445258D01*
Y443016D01*
X514961Y442749D01*
X514939Y442505D01*
X514827Y442061D01*
X514650Y441639D01*
X514472Y441306D01*
X514295Y441018D01*
X514117Y440818D01*
X514006Y440685D01*
X513962Y440662D01*
Y440640D01*
X513762Y440463D01*
X513562Y440330D01*
X513162Y440085D01*
X512763Y439930D01*
X512408Y439797D01*
X512097Y439730D01*
X511875Y439708D01*
X511786Y439686D01*
X510521D01*
X510254Y439708D01*
X510010Y439730D01*
X509566Y439841D01*
X509144Y439996D01*
X508811Y440174D01*
X508523Y440352D01*
X508323Y440507D01*
X508190Y440618D01*
X508145Y440662D01*
X507968Y440840D01*
X507812Y441040D01*
X507590Y441440D01*
X507413Y441839D01*
X507280Y442216D01*
X507213Y442527D01*
X507191Y442794D01*
X507169Y442882D01*
Y442949D01*
Y442994D01*
Y443016D01*
Y445258D01*
X507191Y445591D01*
X507257Y445924D01*
X507346Y446212D01*
X507435Y446479D01*
X507524Y446701D01*
X507613Y446878D01*
X507679Y446967D01*
X507701Y447012D01*
X507901Y447300D01*
X508123Y447567D01*
X508323Y447766D01*
X508523Y447944D01*
X508700Y448077D01*
X508834Y448166D01*
X508922Y448210D01*
X508967Y448233D01*
X508745Y448432D01*
X508567Y448632D01*
X508390Y448810D01*
X508256Y448987D01*
X508168Y449143D01*
X508101Y449254D01*
X508057Y449343D01*
X508034Y449365D01*
X507923Y449609D01*
X507857Y449875D01*
X507790Y450120D01*
X507768Y450341D01*
X507746Y450541D01*
X507724Y450697D01*
Y450785D01*
Y450830D01*
Y451962D01*
Y452317D01*
X507790Y452673D01*
X507968Y453250D01*
X508079Y453472D01*
X508190Y453694D01*
X508301Y453871D01*
X508434Y454027D01*
X508523Y454160D01*
X508612Y454249D01*
X508678Y454315D01*
X508700Y454338D01*
X508900Y454515D01*
X509100Y454670D01*
X509500Y454893D01*
X509899Y455070D01*
X510277Y455203D01*
X510610Y455270D01*
X510876Y455292D01*
X510965Y455314D01*
X511453D01*
X511808Y455248D01*
D02*
G37*
G36*
X674435Y437770D02*
X674901Y437659D01*
X675301Y437481D01*
X675656Y437304D01*
X675944Y437126D01*
X676144Y436949D01*
X676277Y436838D01*
X676300Y436815D01*
X676322Y436793D01*
X676499Y436593D01*
X676633Y436416D01*
X676877Y436016D01*
X677032Y435616D01*
X677165Y435261D01*
X677232Y434928D01*
X677254Y434684D01*
X677276Y434595D01*
Y434529D01*
Y434484D01*
Y434462D01*
Y425516D01*
X677254Y425271D01*
X677232Y425027D01*
X677121Y424561D01*
X676943Y424161D01*
X676766Y423829D01*
X676588Y423540D01*
X676411Y423340D01*
X676300Y423207D01*
X676255Y423185D01*
Y423162D01*
X676055Y422985D01*
X675856Y422852D01*
X675456Y422607D01*
X675079Y422430D01*
X674701Y422319D01*
X674390Y422230D01*
X674146Y422208D01*
X674057Y422186D01*
X671149D01*
X670972Y422208D01*
X670838Y422275D01*
X670750Y422341D01*
X670727Y422363D01*
X670639Y422496D01*
X670594Y422630D01*
X670572Y422719D01*
Y422741D01*
X670594Y422874D01*
X670661Y423007D01*
X670750Y423096D01*
X670772Y423118D01*
X670905Y423229D01*
X671016Y423274D01*
X671105Y423296D01*
X673924D01*
X674257Y423318D01*
X674568Y423407D01*
X674834Y423495D01*
X675079Y423629D01*
X675256Y423740D01*
X675412Y423851D01*
X675500Y423917D01*
X675523Y423940D01*
X675745Y424206D01*
X675900Y424472D01*
X676011Y424739D01*
X676078Y424983D01*
X676122Y425183D01*
X676166Y425360D01*
Y425471D01*
Y425516D01*
Y434462D01*
X676144Y434795D01*
X676055Y435106D01*
X675967Y435395D01*
X675833Y435616D01*
X675722Y435816D01*
X675611Y435950D01*
X675545Y436038D01*
X675523Y436060D01*
X675256Y436283D01*
X674990Y436438D01*
X674723Y436549D01*
X674479Y436615D01*
X674257Y436682D01*
X674080Y436704D01*
X671149D01*
X670972Y436726D01*
X670838Y436793D01*
X670750Y436860D01*
X670727Y436882D01*
X670639Y437015D01*
X670594Y437148D01*
X670572Y437237D01*
Y437259D01*
X670594Y437393D01*
X670661Y437526D01*
X670750Y437615D01*
X670772Y437637D01*
X670905Y437748D01*
X671016Y437792D01*
X671105Y437814D01*
X674191D01*
X674435Y437770D01*
D02*
G37*
G36*
X667975Y437792D02*
X668108Y437725D01*
X668219Y437637D01*
X668286Y437526D01*
X668330Y437415D01*
X668352Y437326D01*
Y437259D01*
Y437237D01*
Y430533D01*
X668330Y430355D01*
X668263Y430222D01*
X668175Y430111D01*
X668064Y430044D01*
X667975Y430000D01*
X667886Y429978D01*
X665000D01*
X664667Y429956D01*
X664356Y429867D01*
X664090Y429778D01*
X663868Y429645D01*
X663668Y429534D01*
X663535Y429423D01*
X663446Y429334D01*
X663424Y429312D01*
X663202Y429068D01*
X663046Y428801D01*
X662913Y428535D01*
X662847Y428291D01*
X662802Y428091D01*
X662758Y427913D01*
Y427802D01*
Y427758D01*
Y425516D01*
X662780Y425183D01*
X662869Y424872D01*
X662958Y424605D01*
X663091Y424384D01*
X663202Y424184D01*
X663313Y424050D01*
X663402Y423962D01*
X663424Y423940D01*
X663668Y423717D01*
X663934Y423562D01*
X664201Y423451D01*
X664445Y423385D01*
X664667Y423340D01*
X664845Y423296D01*
X667797D01*
X667975Y423251D01*
X668108Y423185D01*
X668197Y423118D01*
X668219Y423074D01*
X668286Y422918D01*
X668330Y422830D01*
X668352Y422763D01*
Y422741D01*
X668330Y422585D01*
X668286Y422452D01*
X668241Y422363D01*
X668219Y422341D01*
X668086Y422252D01*
X667952Y422208D01*
X667841Y422186D01*
X665000D01*
X664756Y422208D01*
X664512Y422230D01*
X664045Y422341D01*
X663646Y422496D01*
X663313Y422674D01*
X663024Y422852D01*
X662824Y423007D01*
X662691Y423118D01*
X662647Y423162D01*
X662469Y423340D01*
X662314Y423540D01*
X662070Y423940D01*
X661892Y424339D01*
X661781Y424716D01*
X661692Y425027D01*
X661670Y425294D01*
X661648Y425382D01*
Y425449D01*
Y425494D01*
Y425516D01*
Y427736D01*
Y427980D01*
X661692Y428224D01*
X661803Y428690D01*
X661959Y429090D01*
X662136Y429423D01*
X662336Y429711D01*
X662491Y429911D01*
X662602Y430044D01*
X662625Y430089D01*
X662647D01*
X662824Y430266D01*
X663024Y430422D01*
X663424Y430666D01*
X663823Y430844D01*
X664179Y430955D01*
X664512Y431043D01*
X664778Y431066D01*
X664867Y431088D01*
X667242D01*
Y436704D01*
X662225D01*
X662047Y436726D01*
X661914Y436793D01*
X661825Y436860D01*
X661803Y436882D01*
X661714Y437015D01*
X661670Y437148D01*
X661648Y437237D01*
Y437259D01*
X661670Y437393D01*
X661737Y437526D01*
X661825Y437615D01*
X661848Y437637D01*
X661981Y437748D01*
X662092Y437792D01*
X662181Y437814D01*
X667797D01*
X667975Y437792D01*
D02*
G37*
G36*
X659051Y437770D02*
X659184Y437703D01*
X659273Y437637D01*
X659295Y437592D01*
X659361Y437437D01*
X659406Y437348D01*
X659428Y437281D01*
Y437259D01*
X659406Y437104D01*
X659361Y436971D01*
X659317Y436882D01*
X659295Y436860D01*
X659162Y436771D01*
X659028Y436726D01*
X658917Y436704D01*
X656631D01*
X656298Y436682D01*
X655987Y436593D01*
X655721Y436505D01*
X655499Y436371D01*
X655299Y436260D01*
X655166Y436149D01*
X655077Y436060D01*
X655055Y436038D01*
X654833Y435794D01*
X654677Y435528D01*
X654544Y435261D01*
X654477Y435017D01*
X654433Y434795D01*
X654389Y434618D01*
Y434506D01*
Y434462D01*
Y433330D01*
X654411Y432997D01*
X654500Y432686D01*
X654588Y432420D01*
X654722Y432198D01*
X654833Y431998D01*
X654944Y431865D01*
X655032Y431776D01*
X655055Y431754D01*
X655299Y431532D01*
X655565Y431376D01*
X655832Y431265D01*
X656076Y431199D01*
X656298Y431154D01*
X656475Y431110D01*
X656631D01*
X656808Y431066D01*
X656942Y430999D01*
X657030Y430932D01*
X657053Y430888D01*
X657119Y430733D01*
X657163Y430644D01*
X657186Y430577D01*
Y430555D01*
X657163Y430400D01*
X657119Y430266D01*
X657075Y430178D01*
X657053Y430155D01*
X656919Y430067D01*
X656786Y430022D01*
X656675Y430000D01*
X656076D01*
X655743Y429978D01*
X655432Y429889D01*
X655143Y429800D01*
X654921Y429667D01*
X654722Y429556D01*
X654588Y429445D01*
X654500Y429356D01*
X654477Y429334D01*
X654255Y429090D01*
X654100Y428823D01*
X653989Y428557D01*
X653922Y428313D01*
X653856Y428091D01*
X653834Y427913D01*
Y427802D01*
Y427758D01*
Y425516D01*
X653856Y425183D01*
X653945Y424872D01*
X654033Y424605D01*
X654167Y424384D01*
X654278Y424184D01*
X654389Y424050D01*
X654477Y423962D01*
X654500Y423940D01*
X654744Y423717D01*
X655010Y423562D01*
X655277Y423451D01*
X655521Y423385D01*
X655743Y423340D01*
X655920Y423296D01*
X658873D01*
X659051Y423251D01*
X659184Y423185D01*
X659273Y423118D01*
X659295Y423074D01*
X659361Y422918D01*
X659406Y422830D01*
X659428Y422763D01*
Y422741D01*
X659406Y422585D01*
X659361Y422452D01*
X659317Y422363D01*
X659295Y422341D01*
X659162Y422252D01*
X659028Y422208D01*
X658917Y422186D01*
X656076D01*
X655832Y422208D01*
X655587Y422230D01*
X655121Y422341D01*
X654722Y422496D01*
X654389Y422674D01*
X654100Y422830D01*
X653900Y422985D01*
X653767Y423096D01*
X653723Y423140D01*
X653545Y423318D01*
X653390Y423518D01*
X653145Y423917D01*
X652968Y424317D01*
X652857Y424694D01*
X652768Y425027D01*
X652746Y425294D01*
X652724Y425382D01*
Y425449D01*
Y425494D01*
Y425516D01*
Y427758D01*
X652746Y428091D01*
X652812Y428424D01*
X652901Y428712D01*
X652990Y428979D01*
X653079Y429201D01*
X653168Y429378D01*
X653234Y429467D01*
X653256Y429512D01*
X653456Y429800D01*
X653678Y430067D01*
X653878Y430266D01*
X654078Y430444D01*
X654255Y430577D01*
X654389Y430666D01*
X654477Y430710D01*
X654522Y430733D01*
X654300Y430932D01*
X654122Y431154D01*
X653945Y431332D01*
X653811Y431510D01*
X653723Y431665D01*
X653656Y431776D01*
X653612Y431865D01*
X653589Y431887D01*
X653478Y432131D01*
X653412Y432331D01*
X653390Y432420D01*
X653367Y432486D01*
Y432509D01*
Y432531D01*
X653279Y432753D01*
Y432975D01*
Y433330D01*
Y434462D01*
Y434729D01*
X653323Y434973D01*
X653434Y435417D01*
X653589Y435839D01*
X653767Y436171D01*
X653945Y436460D01*
X654100Y436660D01*
X654211Y436793D01*
X654233Y436838D01*
X654255D01*
X654433Y437015D01*
X654633Y437170D01*
X655032Y437393D01*
X655432Y437570D01*
X655809Y437703D01*
X656142Y437770D01*
X656386Y437792D01*
X656497Y437814D01*
X658873D01*
X659051Y437770D01*
D02*
G37*
G36*
X678020Y525292D02*
X678153Y525225D01*
X678264Y525137D01*
X678331Y525026D01*
X678375Y524915D01*
X678397Y524826D01*
Y524759D01*
Y524737D01*
Y510219D01*
X678375Y510041D01*
X678309Y509908D01*
X678264Y509819D01*
X678242Y509797D01*
X678064Y509730D01*
X677931Y509708D01*
X677865Y509686D01*
X677842D01*
X677687Y509708D01*
X677554Y509752D01*
X677465Y509775D01*
X677443Y509797D01*
X677354Y509930D01*
X677310Y510063D01*
X677288Y510174D01*
Y510219D01*
Y517478D01*
X672270D01*
X672093Y517500D01*
X671960Y517567D01*
X671871Y517633D01*
X671849Y517655D01*
X671760Y517789D01*
X671715Y517922D01*
X671693Y518011D01*
Y518033D01*
X671715Y518166D01*
X671782Y518299D01*
X671871Y518388D01*
X671893Y518410D01*
X672026Y518521D01*
X672137Y518566D01*
X672226Y518588D01*
X677288D01*
Y524204D01*
X672270D01*
X672093Y524226D01*
X671960Y524293D01*
X671871Y524360D01*
X671849Y524382D01*
X671760Y524515D01*
X671715Y524648D01*
X671693Y524737D01*
Y524759D01*
X671715Y524893D01*
X671782Y525026D01*
X671871Y525115D01*
X671893Y525137D01*
X672026Y525248D01*
X672137Y525292D01*
X672226Y525314D01*
X677842D01*
X678020Y525292D01*
D02*
G37*
G36*
X669096D02*
X669229Y525225D01*
X669340Y525137D01*
X669407Y525026D01*
X669451Y524915D01*
X669473Y524826D01*
Y524759D01*
Y524737D01*
Y510241D01*
X669451Y510063D01*
X669384Y509930D01*
X669296Y509819D01*
X669185Y509752D01*
X669096Y509708D01*
X669007Y509686D01*
X665011D01*
X664767Y509708D01*
X664545Y509730D01*
X664123Y509841D01*
X663724Y509996D01*
X663391Y510196D01*
X663102Y510374D01*
X662880Y510529D01*
X662747Y510640D01*
X662725Y510685D01*
X662702D01*
X662525Y510885D01*
X662347Y511062D01*
X662081Y511462D01*
X661903Y511861D01*
X661770Y512216D01*
X661681Y512550D01*
X661659Y512794D01*
X661637Y512882D01*
Y512949D01*
Y512994D01*
Y513016D01*
Y515236D01*
X661659Y515569D01*
X661725Y515902D01*
X661814Y516190D01*
X661903Y516434D01*
X661992Y516656D01*
X662081Y516834D01*
X662147Y516923D01*
X662169Y516967D01*
X662369Y517256D01*
X662591Y517522D01*
X662813Y517722D01*
X663013Y517900D01*
X663191Y518033D01*
X663346Y518144D01*
X663435Y518188D01*
X663479Y518210D01*
X663257Y518410D01*
X663057Y518632D01*
X662902Y518832D01*
X662769Y519010D01*
X662658Y519165D01*
X662591Y519276D01*
X662547Y519365D01*
X662525Y519387D01*
X662414Y519631D01*
X662347Y519875D01*
X662281Y520120D01*
X662258Y520342D01*
X662236Y520541D01*
X662214Y520697D01*
Y520785D01*
Y520830D01*
Y521940D01*
Y522295D01*
X662281Y522650D01*
X662458Y523250D01*
X662569Y523472D01*
X662680Y523671D01*
X662791Y523849D01*
X662924Y524005D01*
X663013Y524138D01*
X663102Y524226D01*
X663168Y524293D01*
X663191Y524315D01*
X663391Y524493D01*
X663568Y524648D01*
X663990Y524893D01*
X664389Y525070D01*
X664745Y525181D01*
X665078Y525270D01*
X665344Y525292D01*
X665433Y525314D01*
X668918D01*
X669096Y525292D01*
D02*
G37*
G36*
X654600Y525248D02*
X655021Y525070D01*
X655421Y524848D01*
X655798Y524626D01*
X656153Y524404D01*
X656486Y524160D01*
X656775Y523894D01*
X657041Y523649D01*
X657286Y523405D01*
X657508Y523183D01*
X657707Y522961D01*
X657863Y522761D01*
X657996Y522584D01*
X658107Y522450D01*
X658174Y522340D01*
X658218Y522273D01*
X658240Y522251D01*
X658440Y521873D01*
X658618Y521518D01*
X658795Y521141D01*
X658928Y520763D01*
X659128Y520053D01*
X659217Y519698D01*
X659261Y519387D01*
X659328Y519098D01*
X659350Y518832D01*
X659372Y518588D01*
X659395Y518388D01*
X659417Y518210D01*
Y518099D01*
Y518011D01*
Y517988D01*
Y513016D01*
X659395Y512749D01*
X659372Y512505D01*
X659261Y512061D01*
X659084Y511639D01*
X658906Y511306D01*
X658729Y511018D01*
X658551Y510818D01*
X658440Y510685D01*
X658396Y510662D01*
Y510640D01*
X658196Y510463D01*
X657996Y510330D01*
X657596Y510085D01*
X657197Y509930D01*
X656842Y509797D01*
X656531Y509730D01*
X656309Y509708D01*
X656220Y509686D01*
X654955D01*
X654688Y509708D01*
X654444Y509730D01*
X654000Y509841D01*
X653578Y509996D01*
X653245Y510174D01*
X652957Y510330D01*
X652757Y510485D01*
X652624Y510596D01*
X652579Y510640D01*
X652402Y510818D01*
X652246Y511018D01*
X652024Y511417D01*
X651847Y511817D01*
X651713Y512194D01*
X651647Y512527D01*
X651625Y512794D01*
X651602Y512882D01*
Y512949D01*
Y512994D01*
Y513016D01*
Y515258D01*
Y515524D01*
X651647Y515768D01*
X651758Y516212D01*
X651913Y516634D01*
X652091Y516967D01*
X652269Y517256D01*
X652424Y517456D01*
X652535Y517589D01*
X652557Y517633D01*
X652579D01*
X652757Y517811D01*
X652957Y517966D01*
X653356Y518188D01*
X653756Y518366D01*
X654133Y518499D01*
X654466Y518566D01*
X654622Y518588D01*
X654733D01*
X654844Y518610D01*
X658307D01*
X658285Y518876D01*
X658262Y519143D01*
X658218Y519409D01*
X658151Y519653D01*
X658107Y519853D01*
X658063Y520009D01*
X658040Y520097D01*
X658018Y520142D01*
X657907Y520453D01*
X657774Y520741D01*
X657663Y520985D01*
X657552Y521207D01*
X657441Y521407D01*
X657374Y521540D01*
X657330Y521629D01*
X657308Y521651D01*
X657064Y522006D01*
X656819Y522295D01*
X656597Y522561D01*
X656398Y522784D01*
X656220Y522961D01*
X656087Y523072D01*
X655998Y523161D01*
X655976Y523183D01*
X655665Y523427D01*
X655399Y523605D01*
X655288Y523671D01*
X655199Y523738D01*
X655154Y523760D01*
X655132Y523783D01*
X654666Y524027D01*
X654422Y524138D01*
X654200Y524204D01*
X654067Y524293D01*
X654000Y524382D01*
X653956Y524426D01*
X653933Y524449D01*
X653889Y524537D01*
X653845Y524626D01*
Y524693D01*
Y524715D01*
X653867Y524870D01*
X653911Y525004D01*
X653978Y525092D01*
X654000Y525115D01*
X654133Y525225D01*
X654244Y525292D01*
X654333Y525314D01*
X654378D01*
X654600Y525248D01*
D02*
G37*
G36*
X568512Y383670D02*
X568801Y383625D01*
X569067Y383559D01*
X569311Y383492D01*
X569778Y383270D01*
X570177Y383026D01*
X570510Y382782D01*
X570644Y382671D01*
X570755Y382560D01*
X570843Y382493D01*
X570910Y382426D01*
X570932Y382382D01*
X570954Y382360D01*
X571154Y382116D01*
X571332Y381871D01*
X571465Y381627D01*
X571598Y381383D01*
X571798Y380895D01*
X571931Y380473D01*
X571998Y380095D01*
X572042Y379918D01*
Y379785D01*
X572064Y379674D01*
Y379518D01*
X572042Y379096D01*
X571976Y378697D01*
X571865Y378364D01*
X571754Y378053D01*
X571642Y377809D01*
X571531Y377631D01*
X571465Y377520D01*
X571443Y377476D01*
X571154Y377121D01*
X570843Y376832D01*
X570488Y376566D01*
X570155Y376366D01*
X569866Y376211D01*
X569622Y376100D01*
X569534Y376055D01*
X569467Y376033D01*
X569422Y376011D01*
X569400D01*
X569201Y375966D01*
X569045Y375989D01*
X568912Y376055D01*
X568823Y376122D01*
X568801Y376144D01*
X568734Y376277D01*
X568690Y376410D01*
X568668Y376499D01*
Y376544D01*
X568690Y376677D01*
X568712Y376788D01*
X568756Y376854D01*
Y376876D01*
X568845Y376943D01*
X568934Y377010D01*
X569001Y377032D01*
X569023Y377054D01*
X569378Y377232D01*
X569689Y377409D01*
X569955Y377587D01*
X570155Y377742D01*
X570311Y377898D01*
X570399Y378009D01*
X570466Y378097D01*
X570488Y378120D01*
X570644Y378364D01*
X570755Y378630D01*
X570821Y378875D01*
X570888Y379096D01*
X570910Y379274D01*
X570932Y379430D01*
Y379563D01*
X570888Y379962D01*
X570866Y380162D01*
X570821Y380317D01*
X570777Y380451D01*
X570755Y380562D01*
X570710Y380628D01*
Y380650D01*
X570532Y381028D01*
X570421Y381205D01*
X570333Y381339D01*
X570266Y381450D01*
X570200Y381539D01*
X570155Y381583D01*
X570133Y381605D01*
X569822Y381916D01*
X569511Y382138D01*
X569178Y382315D01*
X568890Y382426D01*
X568623Y382493D01*
X568424Y382515D01*
X568268Y382537D01*
X568246D01*
X568224D01*
X567913Y382515D01*
X567646Y382471D01*
X567558Y382426D01*
X567469Y382404D01*
X567425Y382382D01*
X567402D01*
X567003Y382227D01*
X566559Y381982D01*
X557301Y375878D01*
X557213Y375833D01*
X557124Y375811D01*
X557057Y375789D01*
X557035D01*
X556857Y375811D01*
X556724Y375878D01*
X556636Y375922D01*
X556613Y375944D01*
X556502Y376100D01*
X556458Y376211D01*
X556436Y376299D01*
Y383026D01*
X556458Y383203D01*
X556525Y383337D01*
X556591Y383403D01*
X556613Y383425D01*
X556746Y383514D01*
X556880Y383559D01*
X556968Y383581D01*
X556991D01*
X557124Y383559D01*
X557257Y383492D01*
X557346Y383425D01*
X557368Y383403D01*
X557479Y383270D01*
X557523Y383159D01*
X557546Y383070D01*
Y377387D01*
X565937Y382937D01*
X566181Y383070D01*
X566426Y383203D01*
X566625Y383292D01*
X566803Y383381D01*
X566936Y383448D01*
X567047Y383492D01*
X567114Y383514D01*
X567136D01*
X567536Y383625D01*
X567713Y383647D01*
X567891Y383670D01*
X568024Y383692D01*
X568135D01*
X568201D01*
X568224D01*
X568512Y383670D01*
D02*
G37*
G36*
X562518Y373502D02*
X562962Y373391D01*
X563384Y373236D01*
X563717Y373058D01*
X564006Y372881D01*
X564206Y372725D01*
X564339Y372614D01*
X564383Y372592D01*
Y372570D01*
X564561Y372392D01*
X564716Y372192D01*
X564938Y371793D01*
X565116Y371393D01*
X565249Y371016D01*
X565316Y370683D01*
X565338Y370527D01*
Y370416D01*
X565360Y370305D01*
Y366842D01*
X565626Y366865D01*
X565893Y366887D01*
X566159Y366931D01*
X566403Y366998D01*
X566603Y367042D01*
X566759Y367086D01*
X566847Y367109D01*
X566892Y367131D01*
X567202Y367242D01*
X567491Y367375D01*
X567735Y367486D01*
X567957Y367597D01*
X568157Y367708D01*
X568290Y367775D01*
X568379Y367819D01*
X568401Y367841D01*
X568756Y368086D01*
X569045Y368330D01*
X569311Y368552D01*
X569534Y368751D01*
X569711Y368929D01*
X569822Y369062D01*
X569911Y369151D01*
X569933Y369173D01*
X570177Y369484D01*
X570355Y369751D01*
X570421Y369861D01*
X570488Y369950D01*
X570510Y369995D01*
X570532Y370017D01*
X570777Y370483D01*
X570888Y370727D01*
X570954Y370949D01*
X571043Y371082D01*
X571132Y371149D01*
X571176Y371193D01*
X571199Y371216D01*
X571287Y371260D01*
X571376Y371304D01*
X571443D01*
X571465D01*
X571620Y371282D01*
X571754Y371238D01*
X571842Y371171D01*
X571865Y371149D01*
X571976Y371016D01*
X572042Y370905D01*
X572064Y370816D01*
Y370772D01*
X571998Y370550D01*
X571820Y370128D01*
X571598Y369728D01*
X571376Y369351D01*
X571154Y368996D01*
X570910Y368663D01*
X570644Y368374D01*
X570399Y368108D01*
X570155Y367864D01*
X569933Y367641D01*
X569711Y367442D01*
X569511Y367286D01*
X569334Y367153D01*
X569201Y367042D01*
X569090Y366976D01*
X569023Y366931D01*
X569001Y366909D01*
X568623Y366709D01*
X568268Y366531D01*
X567891Y366354D01*
X567513Y366221D01*
X566803Y366021D01*
X566448Y365932D01*
X566137Y365888D01*
X565848Y365821D01*
X565582Y365799D01*
X565338Y365777D01*
X565138Y365755D01*
X564960Y365732D01*
X564849D01*
X564761D01*
X564738D01*
X559766D01*
X559499Y365755D01*
X559255Y365777D01*
X558811Y365888D01*
X558389Y366065D01*
X558056Y366243D01*
X557768Y366421D01*
X557568Y366598D01*
X557435Y366709D01*
X557412Y366754D01*
X557390D01*
X557213Y366953D01*
X557080Y367153D01*
X556835Y367553D01*
X556680Y367952D01*
X556547Y368307D01*
X556480Y368618D01*
X556458Y368840D01*
X556436Y368929D01*
Y370195D01*
X556458Y370461D01*
X556480Y370705D01*
X556591Y371149D01*
X556746Y371571D01*
X556924Y371904D01*
X557080Y372192D01*
X557235Y372392D01*
X557346Y372525D01*
X557390Y372570D01*
X557568Y372747D01*
X557768Y372903D01*
X558167Y373125D01*
X558567Y373302D01*
X558944Y373436D01*
X559277Y373502D01*
X559544Y373524D01*
X559632Y373547D01*
X559699D01*
X559743D01*
X559766D01*
X562008D01*
X562274D01*
X562518Y373502D01*
D02*
G37*
G36*
X571642Y363490D02*
X571776Y363424D01*
X571865Y363335D01*
X571887Y363313D01*
X571998Y363179D01*
X572042Y363068D01*
X572064Y362980D01*
Y359894D01*
X572020Y359650D01*
X571909Y359184D01*
X571731Y358784D01*
X571554Y358429D01*
X571376Y358140D01*
X571199Y357940D01*
X571087Y357807D01*
X571065Y357785D01*
X571043Y357763D01*
X570843Y357585D01*
X570666Y357452D01*
X570266Y357208D01*
X569866Y357052D01*
X569511Y356919D01*
X569178Y356852D01*
X568934Y356830D01*
X568845Y356808D01*
X568779D01*
X568734D01*
X568712D01*
X559766D01*
X559521Y356830D01*
X559277Y356852D01*
X558811Y356964D01*
X558411Y357141D01*
X558078Y357319D01*
X557790Y357496D01*
X557590Y357674D01*
X557457Y357785D01*
X557435Y357829D01*
X557412D01*
X557235Y358029D01*
X557102Y358229D01*
X556857Y358629D01*
X556680Y359006D01*
X556569Y359383D01*
X556480Y359694D01*
X556458Y359938D01*
X556436Y360027D01*
Y362935D01*
X556458Y363113D01*
X556525Y363246D01*
X556591Y363335D01*
X556613Y363357D01*
X556746Y363446D01*
X556880Y363490D01*
X556968Y363512D01*
X556991D01*
X557124Y363490D01*
X557257Y363424D01*
X557346Y363335D01*
X557368Y363313D01*
X557479Y363179D01*
X557523Y363068D01*
X557546Y362980D01*
Y360160D01*
X557568Y359827D01*
X557657Y359516D01*
X557746Y359250D01*
X557879Y359006D01*
X557990Y358828D01*
X558101Y358673D01*
X558167Y358584D01*
X558190Y358562D01*
X558456Y358340D01*
X558722Y358185D01*
X558989Y358074D01*
X559233Y358007D01*
X559433Y357962D01*
X559610Y357918D01*
X559721D01*
X559766D01*
X568712D01*
X569045Y357940D01*
X569356Y358029D01*
X569645Y358118D01*
X569866Y358251D01*
X570066Y358362D01*
X570200Y358473D01*
X570288Y358540D01*
X570311Y358562D01*
X570532Y358828D01*
X570688Y359095D01*
X570799Y359361D01*
X570866Y359605D01*
X570932Y359827D01*
X570954Y360005D01*
Y362935D01*
X570976Y363113D01*
X571043Y363246D01*
X571110Y363335D01*
X571132Y363357D01*
X571265Y363446D01*
X571398Y363490D01*
X571487Y363512D01*
X571509D01*
X571642Y363490D01*
D02*
G37*
G36*
X675001Y490270D02*
X675467Y490159D01*
X675867Y489981D01*
X676222Y489804D01*
X676510Y489626D01*
X676710Y489449D01*
X676843Y489338D01*
X676866Y489315D01*
X676888Y489293D01*
X677066Y489093D01*
X677199Y488916D01*
X677443Y488516D01*
X677598Y488116D01*
X677731Y487761D01*
X677798Y487428D01*
X677820Y487184D01*
X677842Y487095D01*
Y487029D01*
Y486984D01*
Y486962D01*
Y478016D01*
X677820Y477771D01*
X677798Y477527D01*
X677687Y477061D01*
X677510Y476661D01*
X677332Y476329D01*
X677154Y476040D01*
X676977Y475840D01*
X676866Y475707D01*
X676821Y475685D01*
Y475662D01*
X676621Y475485D01*
X676422Y475352D01*
X676022Y475107D01*
X675645Y474930D01*
X675267Y474819D01*
X674957Y474730D01*
X674712Y474708D01*
X674623Y474686D01*
X671715D01*
X671538Y474708D01*
X671405Y474775D01*
X671316Y474841D01*
X671294Y474863D01*
X671205Y474996D01*
X671160Y475130D01*
X671138Y475219D01*
Y475241D01*
X671160Y475374D01*
X671227Y475507D01*
X671316Y475596D01*
X671338Y475618D01*
X671471Y475729D01*
X671582Y475774D01*
X671671Y475796D01*
X674490D01*
X674823Y475818D01*
X675134Y475907D01*
X675400Y475995D01*
X675645Y476129D01*
X675822Y476240D01*
X675978Y476351D01*
X676067Y476417D01*
X676089Y476440D01*
X676311Y476706D01*
X676466Y476972D01*
X676577Y477239D01*
X676644Y477483D01*
X676688Y477683D01*
X676732Y477860D01*
Y477971D01*
Y478016D01*
Y486962D01*
X676710Y487295D01*
X676621Y487606D01*
X676533Y487895D01*
X676400Y488116D01*
X676289Y488316D01*
X676178Y488450D01*
X676111Y488538D01*
X676089Y488560D01*
X675822Y488783D01*
X675556Y488938D01*
X675290Y489049D01*
X675045Y489115D01*
X674823Y489182D01*
X674646Y489204D01*
X671715D01*
X671538Y489226D01*
X671405Y489293D01*
X671316Y489360D01*
X671294Y489382D01*
X671205Y489515D01*
X671160Y489648D01*
X671138Y489737D01*
Y489759D01*
X671160Y489893D01*
X671227Y490026D01*
X671316Y490115D01*
X671338Y490137D01*
X671471Y490248D01*
X671582Y490292D01*
X671671Y490314D01*
X674757D01*
X675001Y490270D01*
D02*
G37*
G36*
X664101Y490248D02*
X664523Y490070D01*
X664922Y489848D01*
X665300Y489626D01*
X665655Y489404D01*
X665988Y489160D01*
X666276Y488894D01*
X666543Y488649D01*
X666787Y488405D01*
X667009Y488183D01*
X667209Y487961D01*
X667364Y487761D01*
X667497Y487584D01*
X667608Y487450D01*
X667675Y487340D01*
X667719Y487273D01*
X667742Y487251D01*
X667941Y486873D01*
X668119Y486518D01*
X668297Y486141D01*
X668430Y485763D01*
X668630Y485053D01*
X668718Y484698D01*
X668763Y484387D01*
X668829Y484098D01*
X668852Y483832D01*
X668874Y483588D01*
X668896Y483388D01*
X668918Y483210D01*
Y483099D01*
Y483011D01*
Y482988D01*
Y478016D01*
X668896Y477749D01*
X668874Y477505D01*
X668763Y477061D01*
X668585Y476639D01*
X668408Y476306D01*
X668230Y476018D01*
X668052Y475818D01*
X667941Y475685D01*
X667897Y475662D01*
Y475640D01*
X667697Y475463D01*
X667497Y475330D01*
X667098Y475085D01*
X666698Y474930D01*
X666343Y474797D01*
X666032Y474730D01*
X665810Y474708D01*
X665722Y474686D01*
X664456D01*
X664190Y474708D01*
X663945Y474730D01*
X663502Y474841D01*
X663080Y474996D01*
X662747Y475174D01*
X662458Y475330D01*
X662258Y475485D01*
X662125Y475596D01*
X662081Y475640D01*
X661903Y475818D01*
X661748Y476018D01*
X661526Y476417D01*
X661348Y476817D01*
X661215Y477194D01*
X661148Y477527D01*
X661126Y477794D01*
X661104Y477882D01*
Y477949D01*
Y477994D01*
Y478016D01*
Y480258D01*
Y480524D01*
X661148Y480768D01*
X661259Y481212D01*
X661415Y481634D01*
X661592Y481967D01*
X661770Y482256D01*
X661925Y482456D01*
X662036Y482589D01*
X662058Y482633D01*
X662081D01*
X662258Y482811D01*
X662458Y482966D01*
X662858Y483188D01*
X663257Y483366D01*
X663635Y483499D01*
X663968Y483566D01*
X664123Y483588D01*
X664234D01*
X664345Y483610D01*
X667808D01*
X667786Y483876D01*
X667764Y484143D01*
X667719Y484409D01*
X667653Y484653D01*
X667608Y484853D01*
X667564Y485009D01*
X667542Y485097D01*
X667520Y485142D01*
X667409Y485452D01*
X667275Y485741D01*
X667165Y485985D01*
X667054Y486207D01*
X666943Y486407D01*
X666876Y486540D01*
X666832Y486629D01*
X666809Y486651D01*
X666565Y487006D01*
X666321Y487295D01*
X666099Y487561D01*
X665899Y487784D01*
X665722Y487961D01*
X665588Y488072D01*
X665499Y488161D01*
X665477Y488183D01*
X665166Y488427D01*
X664900Y488605D01*
X664789Y488671D01*
X664700Y488738D01*
X664656Y488760D01*
X664634Y488783D01*
X664167Y489027D01*
X663923Y489138D01*
X663701Y489204D01*
X663568Y489293D01*
X663502Y489382D01*
X663457Y489426D01*
X663435Y489449D01*
X663391Y489537D01*
X663346Y489626D01*
Y489693D01*
Y489715D01*
X663368Y489870D01*
X663413Y490004D01*
X663479Y490092D01*
X663502Y490115D01*
X663635Y490225D01*
X663746Y490292D01*
X663835Y490314D01*
X663879D01*
X664101Y490248D01*
D02*
G37*
G36*
X658484Y490270D02*
X658618Y490203D01*
X658706Y490137D01*
X658729Y490092D01*
X658795Y489937D01*
X658840Y489848D01*
X658862Y489781D01*
Y489759D01*
X658840Y489604D01*
X658795Y489471D01*
X658751Y489382D01*
X658729Y489360D01*
X658595Y489271D01*
X658462Y489226D01*
X658351Y489204D01*
X656065D01*
X655732Y489182D01*
X655421Y489093D01*
X655154Y489005D01*
X654932Y488871D01*
X654733Y488760D01*
X654600Y488649D01*
X654511Y488560D01*
X654489Y488538D01*
X654267Y488294D01*
X654111Y488028D01*
X653978Y487761D01*
X653911Y487517D01*
X653867Y487295D01*
X653822Y487118D01*
Y487006D01*
Y486962D01*
Y485830D01*
X653845Y485497D01*
X653933Y485186D01*
X654022Y484920D01*
X654156Y484698D01*
X654267Y484498D01*
X654378Y484365D01*
X654466Y484276D01*
X654489Y484254D01*
X654733Y484032D01*
X654999Y483876D01*
X655266Y483765D01*
X655510Y483699D01*
X655732Y483654D01*
X655909Y483610D01*
X656065D01*
X656242Y483566D01*
X656375Y483499D01*
X656464Y483432D01*
X656486Y483388D01*
X656553Y483233D01*
X656597Y483144D01*
X656620Y483077D01*
Y483055D01*
X656597Y482900D01*
X656553Y482766D01*
X656509Y482678D01*
X656486Y482655D01*
X656353Y482567D01*
X656220Y482522D01*
X656109Y482500D01*
X655510D01*
X655177Y482478D01*
X654866Y482389D01*
X654577Y482300D01*
X654355Y482167D01*
X654156Y482056D01*
X654022Y481945D01*
X653933Y481856D01*
X653911Y481834D01*
X653689Y481590D01*
X653534Y481323D01*
X653423Y481057D01*
X653356Y480813D01*
X653290Y480591D01*
X653268Y480413D01*
Y480302D01*
Y480258D01*
Y478016D01*
X653290Y477683D01*
X653379Y477372D01*
X653467Y477105D01*
X653600Y476884D01*
X653711Y476684D01*
X653822Y476550D01*
X653911Y476462D01*
X653933Y476440D01*
X654178Y476217D01*
X654444Y476062D01*
X654710Y475951D01*
X654955Y475885D01*
X655177Y475840D01*
X655354Y475796D01*
X658307D01*
X658484Y475751D01*
X658618Y475685D01*
X658706Y475618D01*
X658729Y475574D01*
X658795Y475418D01*
X658840Y475330D01*
X658862Y475263D01*
Y475241D01*
X658840Y475085D01*
X658795Y474952D01*
X658751Y474863D01*
X658729Y474841D01*
X658595Y474752D01*
X658462Y474708D01*
X658351Y474686D01*
X655510D01*
X655266Y474708D01*
X655021Y474730D01*
X654555Y474841D01*
X654156Y474996D01*
X653822Y475174D01*
X653534Y475330D01*
X653334Y475485D01*
X653201Y475596D01*
X653157Y475640D01*
X652979Y475818D01*
X652823Y476018D01*
X652579Y476417D01*
X652402Y476817D01*
X652291Y477194D01*
X652202Y477527D01*
X652180Y477794D01*
X652158Y477882D01*
Y477949D01*
Y477994D01*
Y478016D01*
Y480258D01*
X652180Y480591D01*
X652246Y480924D01*
X652335Y481212D01*
X652424Y481479D01*
X652513Y481701D01*
X652601Y481878D01*
X652668Y481967D01*
X652690Y482012D01*
X652890Y482300D01*
X653112Y482567D01*
X653312Y482766D01*
X653512Y482944D01*
X653689Y483077D01*
X653822Y483166D01*
X653911Y483210D01*
X653956Y483233D01*
X653734Y483432D01*
X653556Y483654D01*
X653379Y483832D01*
X653245Y484010D01*
X653157Y484165D01*
X653090Y484276D01*
X653046Y484365D01*
X653023Y484387D01*
X652912Y484631D01*
X652846Y484831D01*
X652823Y484920D01*
X652801Y484986D01*
Y485009D01*
Y485031D01*
X652712Y485253D01*
Y485475D01*
Y485830D01*
Y486962D01*
Y487229D01*
X652757Y487473D01*
X652868Y487917D01*
X653023Y488339D01*
X653201Y488671D01*
X653379Y488960D01*
X653534Y489160D01*
X653645Y489293D01*
X653667Y489338D01*
X653689D01*
X653867Y489515D01*
X654067Y489670D01*
X654466Y489893D01*
X654866Y490070D01*
X655243Y490203D01*
X655576Y490270D01*
X655820Y490292D01*
X655931Y490314D01*
X658307D01*
X658484Y490270D01*
D02*
G37*
G36*
X656997Y507681D02*
X657086Y507592D01*
X657152Y507481D01*
X657175Y507393D01*
Y507348D01*
X659417Y496204D01*
Y496071D01*
X659395Y495915D01*
X659328Y495804D01*
X659284Y495715D01*
X659261Y495693D01*
X659128Y495605D01*
X658995Y495560D01*
X658906Y495538D01*
X654932D01*
Y492719D01*
X654910Y492541D01*
X654844Y492408D01*
X654799Y492319D01*
X654777Y492297D01*
X654600Y492230D01*
X654466Y492208D01*
X654400Y492186D01*
X654378D01*
X654222Y492208D01*
X654089Y492252D01*
X654000Y492275D01*
X653978Y492297D01*
X653889Y492430D01*
X653845Y492563D01*
X653822Y492674D01*
Y492719D01*
Y495538D01*
X652158D01*
X651980Y495560D01*
X651847Y495627D01*
X651780Y495693D01*
X651758Y495715D01*
X651669Y495849D01*
X651625Y495982D01*
X651602Y496071D01*
Y496093D01*
X651625Y496226D01*
X651691Y496359D01*
X651758Y496448D01*
X651780Y496470D01*
X651913Y496581D01*
X652024Y496626D01*
X652113Y496648D01*
X653822D01*
Y499423D01*
X653845Y499600D01*
X653911Y499734D01*
X653978Y499822D01*
X654000Y499845D01*
X654133Y499933D01*
X654244Y499978D01*
X654333Y500000D01*
X654378D01*
X654533Y499978D01*
X654666Y499911D01*
X654755Y499822D01*
X654777Y499800D01*
X654866Y499667D01*
X654910Y499534D01*
X654932Y499445D01*
Y499423D01*
Y496648D01*
X658174D01*
X656087Y507126D01*
X656065Y507259D01*
X656087Y507415D01*
X656153Y507548D01*
X656220Y507637D01*
X656242Y507659D01*
X656375Y507748D01*
X656509Y507792D01*
X656597Y507814D01*
X656642D01*
X656997Y507681D01*
D02*
G37*
G36*
X675556Y507770D02*
X676022Y507659D01*
X676422Y507481D01*
X676777Y507304D01*
X677066Y507126D01*
X677265Y506949D01*
X677399Y506838D01*
X677421Y506815D01*
X677443Y506793D01*
X677620Y506593D01*
X677754Y506416D01*
X677998Y506016D01*
X678153Y505616D01*
X678287Y505261D01*
X678353Y504928D01*
X678375Y504684D01*
X678397Y504595D01*
Y504529D01*
Y504484D01*
Y504462D01*
Y495516D01*
X678375Y495271D01*
X678353Y495027D01*
X678242Y494561D01*
X678064Y494161D01*
X677887Y493829D01*
X677709Y493540D01*
X677532Y493340D01*
X677421Y493207D01*
X677376Y493185D01*
Y493162D01*
X677177Y492985D01*
X676977Y492852D01*
X676577Y492607D01*
X676200Y492430D01*
X675822Y492319D01*
X675511Y492230D01*
X675267Y492208D01*
X675179Y492186D01*
X672270D01*
X672093Y492208D01*
X671960Y492275D01*
X671871Y492341D01*
X671849Y492363D01*
X671760Y492496D01*
X671715Y492630D01*
X671693Y492719D01*
Y492741D01*
X671715Y492874D01*
X671782Y493007D01*
X671871Y493096D01*
X671893Y493118D01*
X672026Y493229D01*
X672137Y493274D01*
X672226Y493296D01*
X675045D01*
X675378Y493318D01*
X675689Y493407D01*
X675956Y493495D01*
X676200Y493629D01*
X676377Y493740D01*
X676533Y493851D01*
X676621Y493917D01*
X676644Y493940D01*
X676866Y494206D01*
X677021Y494472D01*
X677132Y494739D01*
X677199Y494983D01*
X677243Y495183D01*
X677288Y495360D01*
Y495471D01*
Y495516D01*
Y504462D01*
X677265Y504795D01*
X677177Y505106D01*
X677088Y505395D01*
X676954Y505616D01*
X676843Y505816D01*
X676732Y505950D01*
X676666Y506038D01*
X676644Y506060D01*
X676377Y506283D01*
X676111Y506438D01*
X675844Y506549D01*
X675600Y506615D01*
X675378Y506682D01*
X675201Y506704D01*
X672270D01*
X672093Y506726D01*
X671960Y506793D01*
X671871Y506860D01*
X671849Y506882D01*
X671760Y507015D01*
X671715Y507148D01*
X671693Y507237D01*
Y507259D01*
X671715Y507393D01*
X671782Y507526D01*
X671871Y507615D01*
X671893Y507637D01*
X672026Y507748D01*
X672137Y507792D01*
X672226Y507814D01*
X675312D01*
X675556Y507770D01*
D02*
G37*
G36*
X664656Y507748D02*
X665078Y507570D01*
X665477Y507348D01*
X665855Y507126D01*
X666210Y506904D01*
X666543Y506660D01*
X666832Y506394D01*
X667098Y506149D01*
X667342Y505905D01*
X667564Y505683D01*
X667764Y505461D01*
X667919Y505261D01*
X668052Y505084D01*
X668163Y504950D01*
X668230Y504840D01*
X668274Y504773D01*
X668297Y504751D01*
X668496Y504373D01*
X668674Y504018D01*
X668852Y503641D01*
X668985Y503263D01*
X669185Y502553D01*
X669273Y502198D01*
X669318Y501887D01*
X669384Y501598D01*
X669407Y501332D01*
X669429Y501088D01*
X669451Y500888D01*
X669473Y500710D01*
Y500599D01*
Y500511D01*
Y500488D01*
Y495516D01*
X669451Y495249D01*
X669429Y495005D01*
X669318Y494561D01*
X669140Y494139D01*
X668963Y493806D01*
X668785Y493518D01*
X668607Y493318D01*
X668496Y493185D01*
X668452Y493162D01*
Y493140D01*
X668252Y492963D01*
X668052Y492830D01*
X667653Y492585D01*
X667253Y492430D01*
X666898Y492297D01*
X666587Y492230D01*
X666365Y492208D01*
X666276Y492186D01*
X665011D01*
X664745Y492208D01*
X664501Y492230D01*
X664056Y492341D01*
X663635Y492496D01*
X663302Y492674D01*
X663013Y492830D01*
X662813Y492985D01*
X662680Y493096D01*
X662636Y493140D01*
X662458Y493318D01*
X662303Y493518D01*
X662081Y493917D01*
X661903Y494317D01*
X661770Y494694D01*
X661703Y495027D01*
X661681Y495294D01*
X661659Y495382D01*
Y495449D01*
Y495494D01*
Y495516D01*
Y497758D01*
Y498024D01*
X661703Y498268D01*
X661814Y498712D01*
X661970Y499134D01*
X662147Y499467D01*
X662325Y499756D01*
X662480Y499956D01*
X662591Y500089D01*
X662614Y500133D01*
X662636D01*
X662813Y500311D01*
X663013Y500466D01*
X663413Y500688D01*
X663812Y500866D01*
X664190Y500999D01*
X664523Y501066D01*
X664678Y501088D01*
X664789D01*
X664900Y501110D01*
X668363D01*
X668341Y501376D01*
X668319Y501643D01*
X668274Y501909D01*
X668208Y502153D01*
X668163Y502353D01*
X668119Y502509D01*
X668097Y502597D01*
X668075Y502642D01*
X667964Y502952D01*
X667830Y503241D01*
X667719Y503485D01*
X667608Y503707D01*
X667497Y503907D01*
X667431Y504040D01*
X667386Y504129D01*
X667364Y504151D01*
X667120Y504506D01*
X666876Y504795D01*
X666654Y505061D01*
X666454Y505284D01*
X666276Y505461D01*
X666143Y505572D01*
X666055Y505661D01*
X666032Y505683D01*
X665722Y505927D01*
X665455Y506105D01*
X665344Y506171D01*
X665255Y506238D01*
X665211Y506260D01*
X665189Y506283D01*
X664723Y506527D01*
X664478Y506638D01*
X664256Y506704D01*
X664123Y506793D01*
X664056Y506882D01*
X664012Y506926D01*
X663990Y506949D01*
X663945Y507037D01*
X663901Y507126D01*
Y507193D01*
Y507215D01*
X663923Y507370D01*
X663968Y507504D01*
X664034Y507592D01*
X664056Y507615D01*
X664190Y507725D01*
X664301Y507792D01*
X664389Y507814D01*
X664434D01*
X664656Y507748D01*
D02*
G37*
G36*
X581762Y535920D02*
X582051Y535875D01*
X582317Y535809D01*
X582561Y535742D01*
X583028Y535520D01*
X583427Y535276D01*
X583760Y535032D01*
X583893Y534921D01*
X584004Y534810D01*
X584093Y534743D01*
X584160Y534677D01*
X584182Y534632D01*
X584204Y534610D01*
X584404Y534366D01*
X584582Y534122D01*
X584715Y533877D01*
X584848Y533633D01*
X584982Y533305D01*
X584996Y533344D01*
X585174Y533677D01*
X585352Y533966D01*
X585507Y534166D01*
X585618Y534299D01*
X585662Y534343D01*
X585862Y534521D01*
X586062Y534677D01*
X586462Y534921D01*
X586839Y535098D01*
X587216Y535209D01*
X587527Y535298D01*
X587794Y535320D01*
X587882Y535342D01*
X587949D01*
X587994D01*
X588016D01*
X596962D01*
X597229D01*
X597473Y535298D01*
X597917Y535187D01*
X598339Y535032D01*
X598671Y534854D01*
X598960Y534654D01*
X599160Y534499D01*
X599293Y534388D01*
X599338Y534366D01*
Y534343D01*
X599515Y534144D01*
X599670Y533966D01*
X599893Y533544D01*
X600070Y533145D01*
X600203Y532789D01*
X600270Y532457D01*
X600292Y532190D01*
X600314Y532101D01*
Y530592D01*
X600270Y530348D01*
X600159Y529881D01*
X599981Y529482D01*
X599804Y529127D01*
X599626Y528838D01*
X599449Y528638D01*
X599338Y528505D01*
X599315Y528483D01*
X599293Y528461D01*
X599093Y528283D01*
X598916Y528150D01*
X598516Y527906D01*
X598116Y527750D01*
X597761Y527617D01*
X597428Y527550D01*
X597184Y527528D01*
X597095Y527506D01*
X597029D01*
X596984D01*
X596962D01*
X588016D01*
X587749Y527528D01*
X587505Y527550D01*
X587061Y527661D01*
X586639Y527839D01*
X586306Y528017D01*
X586018Y528194D01*
X585818Y528372D01*
X585685Y528483D01*
X585662Y528527D01*
X585640D01*
X585463Y528727D01*
X585330Y528927D01*
X585085Y529326D01*
X584930Y529726D01*
X584838Y529972D01*
X584781Y529881D01*
X584715Y529770D01*
X584693Y529726D01*
X584404Y529371D01*
X584093Y529082D01*
X583738Y528816D01*
X583405Y528616D01*
X583116Y528461D01*
X582872Y528350D01*
X582784Y528305D01*
X582717Y528283D01*
X582673Y528261D01*
X582650D01*
X582450Y528216D01*
X582295Y528239D01*
X582162Y528305D01*
X582073Y528372D01*
X582051Y528394D01*
X581984Y528527D01*
X581940Y528660D01*
X581918Y528749D01*
Y528794D01*
X581940Y528927D01*
X581962Y529038D01*
X582006Y529104D01*
Y529127D01*
X582095Y529193D01*
X582184Y529260D01*
X582251Y529282D01*
X582273Y529304D01*
X582628Y529482D01*
X582939Y529659D01*
X583205Y529837D01*
X583405Y529992D01*
X583560Y530148D01*
X583649Y530259D01*
X583716Y530348D01*
X583738Y530370D01*
X583893Y530614D01*
X584004Y530880D01*
X584071Y531124D01*
X584138Y531347D01*
X584160Y531524D01*
X584182Y531679D01*
Y531813D01*
X584138Y532212D01*
X584115Y532412D01*
X584071Y532567D01*
X584027Y532701D01*
X584004Y532812D01*
X583960Y532878D01*
Y532901D01*
X583782Y533278D01*
X583671Y533456D01*
X583583Y533589D01*
X583516Y533700D01*
X583450Y533788D01*
X583405Y533833D01*
X583383Y533855D01*
X583072Y534166D01*
X582761Y534388D01*
X582428Y534566D01*
X582140Y534677D01*
X581873Y534743D01*
X581674Y534765D01*
X581518Y534787D01*
X581496D01*
X581474D01*
X581163Y534765D01*
X580896Y534721D01*
X580808Y534677D01*
X580719Y534654D01*
X580675Y534632D01*
X580652D01*
X580253Y534477D01*
X579809Y534232D01*
X570551Y528128D01*
X570463Y528083D01*
X570374Y528061D01*
X570307Y528039D01*
X570285D01*
X570107Y528061D01*
X569974Y528128D01*
X569885Y528172D01*
X569863Y528194D01*
X569752Y528350D01*
X569708Y528461D01*
X569686Y528549D01*
Y529501D01*
X569626Y529404D01*
X569449Y529204D01*
X569338Y529071D01*
X569315Y529049D01*
X569293Y529027D01*
X569093Y528849D01*
X568916Y528716D01*
X568516Y528472D01*
X568116Y528316D01*
X567761Y528183D01*
X567428Y528116D01*
X567184Y528094D01*
X567095Y528072D01*
X567029D01*
X566984D01*
X566962D01*
X558016D01*
X557749Y528094D01*
X557505Y528116D01*
X557061Y528228D01*
X556639Y528405D01*
X556306Y528583D01*
X556018Y528760D01*
X555818Y528938D01*
X555685Y529049D01*
X555662Y529093D01*
X555640D01*
X555463Y529293D01*
X555330Y529493D01*
X555085Y529892D01*
X554930Y530292D01*
X554797Y530647D01*
X554730Y530958D01*
X554708Y531202D01*
X554686Y531291D01*
Y532534D01*
X554708Y532801D01*
X554730Y533045D01*
X554841Y533489D01*
X554997Y533911D01*
X555174Y534244D01*
X555352Y534532D01*
X555507Y534732D01*
X555618Y534865D01*
X555662Y534910D01*
X555862Y535087D01*
X556062Y535243D01*
X556462Y535487D01*
X556839Y535664D01*
X557216Y535775D01*
X557527Y535864D01*
X557794Y535886D01*
X557882Y535909D01*
X557949D01*
X557994D01*
X558016D01*
X566962D01*
X567229D01*
X567473Y535864D01*
X567917Y535753D01*
X568339Y535598D01*
X568671Y535420D01*
X568960Y535220D01*
X569160Y535065D01*
X569293Y534954D01*
X569338Y534932D01*
Y534910D01*
X569515Y534710D01*
X569670Y534532D01*
X569686Y534503D01*
Y535276D01*
X569708Y535453D01*
X569775Y535587D01*
X569841Y535653D01*
X569863Y535675D01*
X569996Y535764D01*
X570130Y535809D01*
X570219Y535831D01*
X570241D01*
X570374Y535809D01*
X570507Y535742D01*
X570596Y535675D01*
X570618Y535653D01*
X570729Y535520D01*
X570774Y535409D01*
X570796Y535320D01*
Y529637D01*
X579187Y535187D01*
X579431Y535320D01*
X579675Y535453D01*
X579875Y535542D01*
X580053Y535631D01*
X580186Y535698D01*
X580297Y535742D01*
X580364Y535764D01*
X580386D01*
X580785Y535875D01*
X580963Y535897D01*
X581141Y535920D01*
X581274Y535942D01*
X581385D01*
X581451D01*
X581474D01*
X581762Y535920D01*
D02*
G37*
G36*
X573726Y525774D02*
X573859Y525708D01*
X573948Y525641D01*
X573970Y525619D01*
X574081Y525486D01*
X574126Y525375D01*
X574148Y525286D01*
Y523577D01*
X576923D01*
X577100Y523554D01*
X577234Y523488D01*
X577322Y523421D01*
X577345Y523399D01*
X577433Y523266D01*
X577478Y523155D01*
X577500Y523066D01*
Y523022D01*
X577478Y522866D01*
X577411Y522733D01*
X577322Y522644D01*
X577300Y522622D01*
X577167Y522533D01*
X577034Y522489D01*
X576945Y522467D01*
X576923D01*
X574148D01*
Y519226D01*
X584626Y521312D01*
X584686Y521322D01*
Y521934D01*
X584708Y522178D01*
X584730Y522422D01*
X584841Y522888D01*
X584996Y523288D01*
X585174Y523621D01*
X585352Y523910D01*
X585507Y524109D01*
X585618Y524243D01*
X585662Y524287D01*
X585840Y524465D01*
X586040Y524620D01*
X586440Y524864D01*
X586839Y525042D01*
X587216Y525153D01*
X587527Y525242D01*
X587794Y525264D01*
X587882Y525286D01*
X587949D01*
X587994D01*
X588016D01*
X590236D01*
X590480D01*
X590724Y525242D01*
X591190Y525131D01*
X591590Y524975D01*
X591923Y524798D01*
X592211Y524598D01*
X592411Y524442D01*
X592544Y524331D01*
X592589Y524309D01*
Y524287D01*
X592766Y524109D01*
X592922Y523910D01*
X593166Y523510D01*
X593344Y523111D01*
X593455Y522755D01*
X593543Y522422D01*
X593566Y522156D01*
X593588Y522067D01*
Y519692D01*
X599204D01*
Y524709D01*
X599226Y524886D01*
X599293Y525020D01*
X599360Y525108D01*
X599382Y525131D01*
X599515Y525219D01*
X599648Y525264D01*
X599737Y525286D01*
X599759D01*
X599893Y525264D01*
X600026Y525197D01*
X600114Y525108D01*
X600137Y525086D01*
X600248Y524953D01*
X600292Y524842D01*
X600314Y524753D01*
Y519137D01*
X600292Y518959D01*
X600225Y518826D01*
X600137Y518715D01*
X600026Y518648D01*
X599915Y518604D01*
X599826Y518582D01*
X599759D01*
X599737D01*
X593033D01*
X592855Y518604D01*
X592722Y518671D01*
X592611Y518759D01*
X592544Y518870D01*
X592500Y518959D01*
X592478Y519048D01*
Y521934D01*
X592456Y522267D01*
X592367Y522578D01*
X592278Y522844D01*
X592145Y523066D01*
X592034Y523266D01*
X591923Y523399D01*
X591834Y523488D01*
X591812Y523510D01*
X591568Y523732D01*
X591301Y523887D01*
X591035Y524021D01*
X590791Y524087D01*
X590591Y524132D01*
X590413Y524176D01*
X590302D01*
X590258D01*
X588016D01*
X587683Y524154D01*
X587372Y524065D01*
X587105Y523976D01*
X586884Y523843D01*
X586684Y523732D01*
X586550Y523621D01*
X586462Y523532D01*
X586440Y523510D01*
X586217Y523266D01*
X586062Y522999D01*
X585951Y522733D01*
X585885Y522489D01*
X585840Y522267D01*
X585796Y522089D01*
Y519137D01*
X585751Y518959D01*
X585685Y518826D01*
X585618Y518737D01*
X585574Y518715D01*
X585418Y518648D01*
X585330Y518604D01*
X585263Y518582D01*
X585241D01*
X585085Y518604D01*
X584952Y518648D01*
X584863Y518693D01*
X584841Y518715D01*
X584752Y518848D01*
X584708Y518981D01*
X584686Y519092D01*
Y520192D01*
X573704Y517982D01*
X573571D01*
X573415Y518005D01*
X573304Y518071D01*
X573215Y518116D01*
X573193Y518138D01*
X573104Y518271D01*
X573060Y518404D01*
X573038Y518493D01*
Y522467D01*
X570219D01*
X570041Y522489D01*
X569908Y522556D01*
X569819Y522600D01*
X569797Y522622D01*
X569730Y522800D01*
X569708Y522933D01*
X569686Y522999D01*
Y523022D01*
X569708Y523177D01*
X569752Y523310D01*
X569775Y523399D01*
X569797Y523421D01*
X569930Y523510D01*
X570063Y523554D01*
X570174Y523577D01*
X570219D01*
X573038D01*
Y525242D01*
X573060Y525419D01*
X573127Y525552D01*
X573193Y525619D01*
X573215Y525641D01*
X573349Y525730D01*
X573482Y525774D01*
X573571Y525797D01*
X573593D01*
X573726Y525774D01*
D02*
G37*
G36*
X558726Y525808D02*
X558859Y525741D01*
X558948Y525675D01*
X558970Y525652D01*
X559081Y525519D01*
X559126Y525408D01*
X559148Y525319D01*
Y523610D01*
X561923D01*
X562100Y523588D01*
X562234Y523521D01*
X562322Y523455D01*
X562345Y523432D01*
X562433Y523299D01*
X562478Y523188D01*
X562500Y523099D01*
Y523055D01*
X562478Y522900D01*
X562411Y522766D01*
X562322Y522678D01*
X562300Y522655D01*
X562167Y522567D01*
X562034Y522522D01*
X561945Y522500D01*
X561923D01*
X559148D01*
Y519259D01*
X569626Y521346D01*
X569759Y521368D01*
X569915Y521346D01*
X570048Y521279D01*
X570137Y521212D01*
X570159Y521190D01*
X570248Y521057D01*
X570292Y520924D01*
X570314Y520835D01*
Y520791D01*
X570181Y520435D01*
X570092Y520347D01*
X569981Y520280D01*
X569893Y520258D01*
X569848D01*
X558704Y518016D01*
X558571D01*
X558415Y518038D01*
X558304Y518105D01*
X558215Y518149D01*
X558193Y518171D01*
X558105Y518304D01*
X558060Y518437D01*
X558038Y518526D01*
Y522500D01*
X555219D01*
X555041Y522522D01*
X554908Y522589D01*
X554819Y522633D01*
X554797Y522655D01*
X554730Y522833D01*
X554708Y522966D01*
X554686Y523033D01*
Y523055D01*
X554708Y523210D01*
X554752Y523344D01*
X554775Y523432D01*
X554797Y523455D01*
X554930Y523543D01*
X555063Y523588D01*
X555174Y523610D01*
X555219D01*
X558038D01*
Y525275D01*
X558060Y525452D01*
X558127Y525586D01*
X558193Y525652D01*
X558215Y525675D01*
X558349Y525763D01*
X558482Y525808D01*
X558571Y525830D01*
X558593D01*
X558726Y525808D01*
D02*
G37*
G36*
X599893Y516340D02*
X600026Y516273D01*
X600114Y516184D01*
X600137Y516162D01*
X600248Y516029D01*
X600292Y515918D01*
X600314Y515829D01*
Y512743D01*
X600270Y512499D01*
X600159Y512033D01*
X599981Y511633D01*
X599804Y511278D01*
X599626Y510989D01*
X599449Y510790D01*
X599338Y510657D01*
X599315Y510634D01*
X599293Y510612D01*
X599093Y510434D01*
X598916Y510301D01*
X598516Y510057D01*
X598116Y509902D01*
X597761Y509768D01*
X597428Y509702D01*
X597184Y509680D01*
X597095Y509658D01*
X597029D01*
X596984D01*
X596962D01*
X588016D01*
X587771Y509680D01*
X587527Y509702D01*
X587061Y509813D01*
X586661Y509991D01*
X586329Y510168D01*
X586040Y510346D01*
X585840Y510523D01*
X585707Y510634D01*
X585685Y510679D01*
X585662D01*
X585485Y510878D01*
X585352Y511078D01*
X585149Y511411D01*
X584981Y511034D01*
X584804Y510679D01*
X584626Y510390D01*
X584448Y510190D01*
X584337Y510057D01*
X584315Y510035D01*
X584293Y510013D01*
X584093Y509835D01*
X583916Y509702D01*
X583516Y509458D01*
X583116Y509302D01*
X582761Y509169D01*
X582428Y509103D01*
X582184Y509080D01*
X582095Y509058D01*
X582029D01*
X581984D01*
X581962D01*
X573016D01*
X572771Y509080D01*
X572527Y509103D01*
X572061Y509213D01*
X571661Y509391D01*
X571329Y509569D01*
X571040Y509746D01*
X570840Y509924D01*
X570707Y510035D01*
X570685Y510079D01*
X570662D01*
X570485Y510279D01*
X570352Y510479D01*
X570107Y510878D01*
X569999Y511108D01*
X569981Y511067D01*
X569804Y510712D01*
X569626Y510423D01*
X569449Y510224D01*
X569338Y510090D01*
X569315Y510068D01*
X569293Y510046D01*
X569093Y509868D01*
X568916Y509735D01*
X568516Y509491D01*
X568116Y509336D01*
X567761Y509202D01*
X567428Y509136D01*
X567184Y509114D01*
X567095Y509091D01*
X567029D01*
X566984D01*
X566962D01*
X558016D01*
X557771Y509114D01*
X557527Y509136D01*
X557061Y509247D01*
X556661Y509424D01*
X556329Y509602D01*
X556040Y509780D01*
X555840Y509957D01*
X555707Y510068D01*
X555685Y510113D01*
X555662D01*
X555485Y510312D01*
X555352Y510512D01*
X555108Y510912D01*
X554930Y511289D01*
X554819Y511667D01*
X554730Y511977D01*
X554708Y512222D01*
X554686Y512310D01*
Y515219D01*
X554708Y515396D01*
X554775Y515529D01*
X554841Y515618D01*
X554863Y515640D01*
X554997Y515729D01*
X555130Y515774D01*
X555219Y515796D01*
X555241D01*
X555374Y515774D01*
X555507Y515707D01*
X555596Y515618D01*
X555618Y515596D01*
X555729Y515463D01*
X555774Y515352D01*
X555796Y515263D01*
Y512444D01*
X555818Y512111D01*
X555907Y511800D01*
X555995Y511533D01*
X556129Y511289D01*
X556240Y511112D01*
X556351Y510956D01*
X556417Y510867D01*
X556440Y510845D01*
X556706Y510623D01*
X556972Y510468D01*
X557239Y510357D01*
X557483Y510290D01*
X557683Y510246D01*
X557860Y510201D01*
X557971D01*
X558016D01*
X566962D01*
X567295Y510224D01*
X567606Y510312D01*
X567895Y510401D01*
X568116Y510534D01*
X568316Y510645D01*
X568450Y510756D01*
X568538Y510823D01*
X568560Y510845D01*
X568783Y511112D01*
X568938Y511378D01*
X569049Y511644D01*
X569115Y511889D01*
X569182Y512111D01*
X569204Y512288D01*
Y515219D01*
X569226Y515396D01*
X569293Y515529D01*
X569360Y515618D01*
X569382Y515640D01*
X569515Y515729D01*
X569648Y515774D01*
X569737Y515796D01*
X569759D01*
X569893Y515774D01*
X570026Y515707D01*
X570027Y515706D01*
X570130Y515740D01*
X570219Y515762D01*
X570241D01*
X570374Y515740D01*
X570507Y515674D01*
X570596Y515585D01*
X570618Y515563D01*
X570729Y515429D01*
X570774Y515318D01*
X570796Y515230D01*
Y512410D01*
X570818Y512077D01*
X570907Y511767D01*
X570995Y511500D01*
X571129Y511256D01*
X571240Y511078D01*
X571351Y510923D01*
X571417Y510834D01*
X571440Y510812D01*
X571706Y510590D01*
X571972Y510434D01*
X572239Y510323D01*
X572483Y510257D01*
X572683Y510213D01*
X572860Y510168D01*
X572971D01*
X573016D01*
X581962D01*
X582295Y510190D01*
X582606Y510279D01*
X582895Y510368D01*
X583116Y510501D01*
X583316Y510612D01*
X583450Y510723D01*
X583538Y510790D01*
X583560Y510812D01*
X583782Y511078D01*
X583938Y511345D01*
X584049Y511611D01*
X584115Y511855D01*
X584182Y512077D01*
X584204Y512255D01*
Y515185D01*
X584226Y515363D01*
X584293Y515496D01*
X584360Y515585D01*
X584382Y515607D01*
X584515Y515696D01*
X584648Y515740D01*
X584686Y515750D01*
Y515785D01*
X584708Y515962D01*
X584775Y516095D01*
X584841Y516184D01*
X584863Y516206D01*
X584996Y516295D01*
X585130Y516340D01*
X585219Y516362D01*
X585241D01*
X585374Y516340D01*
X585507Y516273D01*
X585596Y516184D01*
X585618Y516162D01*
X585729Y516029D01*
X585774Y515918D01*
X585796Y515829D01*
Y513010D01*
X585818Y512677D01*
X585907Y512366D01*
X585995Y512099D01*
X586129Y511855D01*
X586240Y511678D01*
X586351Y511522D01*
X586417Y511433D01*
X586440Y511411D01*
X586706Y511189D01*
X586972Y511034D01*
X587239Y510923D01*
X587483Y510856D01*
X587683Y510812D01*
X587860Y510768D01*
X587971D01*
X588016D01*
X596962D01*
X597295Y510790D01*
X597606Y510878D01*
X597895Y510967D01*
X598116Y511101D01*
X598316Y511212D01*
X598450Y511323D01*
X598538Y511389D01*
X598560Y511411D01*
X598783Y511678D01*
X598938Y511944D01*
X599049Y512211D01*
X599115Y512455D01*
X599182Y512677D01*
X599204Y512854D01*
Y515785D01*
X599226Y515962D01*
X599293Y516095D01*
X599360Y516184D01*
X599382Y516206D01*
X599515Y516295D01*
X599648Y516340D01*
X599737Y516362D01*
X599759D01*
X599893Y516340D01*
D02*
G37*
G36*
X610064Y457481D02*
X610453Y457388D01*
X610786Y457240D01*
X611082Y457092D01*
X611323Y456944D01*
X611490Y456796D01*
X611601Y456703D01*
X611619Y456685D01*
X611638Y456666D01*
X611786Y456499D01*
X611897Y456351D01*
X612101Y456018D01*
X612230Y455685D01*
X612341Y455388D01*
X612397Y455111D01*
X612416Y454907D01*
X612434Y454833D01*
Y454777D01*
Y454740D01*
Y454722D01*
Y447260D01*
X612416Y447056D01*
X612397Y446852D01*
X612304Y446463D01*
X612156Y446130D01*
X612008Y445852D01*
X611860Y445612D01*
X611712Y445445D01*
X611619Y445334D01*
X611582Y445315D01*
Y445297D01*
X611416Y445149D01*
X611249Y445038D01*
X610916Y444834D01*
X610601Y444686D01*
X610286Y444593D01*
X610027Y444519D01*
X609823Y444501D01*
X609749Y444482D01*
X607323D01*
X607175Y444501D01*
X607064Y444556D01*
X606990Y444612D01*
X606972Y444630D01*
X606898Y444741D01*
X606861Y444852D01*
X606842Y444927D01*
Y444945D01*
X606861Y445056D01*
X606916Y445167D01*
X606990Y445241D01*
X607009Y445260D01*
X607120Y445352D01*
X607212Y445390D01*
X607286Y445408D01*
X609638D01*
X609916Y445426D01*
X610175Y445501D01*
X610397Y445575D01*
X610601Y445686D01*
X610749Y445778D01*
X610879Y445871D01*
X610953Y445927D01*
X610971Y445945D01*
X611156Y446167D01*
X611286Y446389D01*
X611379Y446612D01*
X611434Y446815D01*
X611471Y446982D01*
X611508Y447130D01*
Y447223D01*
Y447260D01*
Y454722D01*
X611490Y455000D01*
X611416Y455259D01*
X611342Y455499D01*
X611231Y455685D01*
X611138Y455851D01*
X611045Y455962D01*
X610990Y456036D01*
X610971Y456055D01*
X610749Y456240D01*
X610527Y456370D01*
X610305Y456462D01*
X610101Y456518D01*
X609916Y456573D01*
X609768Y456592D01*
X607323D01*
X607175Y456610D01*
X607064Y456666D01*
X606990Y456722D01*
X606972Y456740D01*
X606898Y456851D01*
X606861Y456962D01*
X606842Y457036D01*
Y457055D01*
X606861Y457166D01*
X606916Y457277D01*
X606990Y457351D01*
X607009Y457370D01*
X607120Y457462D01*
X607212Y457499D01*
X607286Y457518D01*
X609860D01*
X610064Y457481D01*
D02*
G37*
G36*
X600972Y457462D02*
X601324Y457314D01*
X601657Y457129D01*
X601972Y456944D01*
X602268Y456759D01*
X602546Y456555D01*
X602787Y456333D01*
X603009Y456129D01*
X603213Y455925D01*
X603398Y455740D01*
X603565Y455555D01*
X603694Y455388D01*
X603805Y455240D01*
X603898Y455129D01*
X603953Y455037D01*
X603991Y454981D01*
X604009Y454963D01*
X604176Y454648D01*
X604324Y454352D01*
X604472Y454037D01*
X604583Y453722D01*
X604750Y453129D01*
X604824Y452833D01*
X604861Y452574D01*
X604916Y452333D01*
X604935Y452111D01*
X604953Y451907D01*
X604972Y451741D01*
X604990Y451592D01*
Y451500D01*
Y451426D01*
Y451407D01*
Y447260D01*
X604972Y447038D01*
X604953Y446834D01*
X604861Y446463D01*
X604713Y446112D01*
X604565Y445834D01*
X604416Y445593D01*
X604268Y445426D01*
X604176Y445315D01*
X604139Y445297D01*
Y445278D01*
X603972Y445130D01*
X603805Y445019D01*
X603472Y444815D01*
X603139Y444686D01*
X602842Y444575D01*
X602583Y444519D01*
X602398Y444501D01*
X602324Y444482D01*
X601269D01*
X601046Y444501D01*
X600843Y444519D01*
X600472Y444612D01*
X600121Y444741D01*
X599843Y444889D01*
X599602Y445019D01*
X599435Y445149D01*
X599324Y445241D01*
X599287Y445278D01*
X599139Y445426D01*
X599010Y445593D01*
X598824Y445927D01*
X598676Y446260D01*
X598565Y446575D01*
X598509Y446852D01*
X598491Y447075D01*
X598473Y447149D01*
Y447204D01*
Y447241D01*
Y447260D01*
Y449130D01*
Y449352D01*
X598509Y449556D01*
X598602Y449926D01*
X598732Y450278D01*
X598880Y450556D01*
X599028Y450796D01*
X599158Y450963D01*
X599250Y451074D01*
X599269Y451111D01*
X599287D01*
X599435Y451259D01*
X599602Y451389D01*
X599935Y451574D01*
X600269Y451722D01*
X600583Y451833D01*
X600861Y451889D01*
X600991Y451907D01*
X601083D01*
X601176Y451926D01*
X604064D01*
X604046Y452148D01*
X604027Y452370D01*
X603991Y452592D01*
X603935Y452796D01*
X603898Y452963D01*
X603861Y453092D01*
X603842Y453167D01*
X603824Y453204D01*
X603731Y453463D01*
X603620Y453703D01*
X603527Y453907D01*
X603435Y454092D01*
X603342Y454259D01*
X603287Y454370D01*
X603250Y454444D01*
X603231Y454463D01*
X603028Y454759D01*
X602824Y455000D01*
X602639Y455222D01*
X602472Y455407D01*
X602324Y455555D01*
X602213Y455648D01*
X602139Y455722D01*
X602120Y455740D01*
X601861Y455944D01*
X601639Y456092D01*
X601546Y456148D01*
X601472Y456203D01*
X601435Y456222D01*
X601417Y456240D01*
X601028Y456444D01*
X600824Y456536D01*
X600639Y456592D01*
X600528Y456666D01*
X600472Y456740D01*
X600435Y456777D01*
X600417Y456796D01*
X600380Y456870D01*
X600343Y456944D01*
Y456999D01*
Y457018D01*
X600361Y457147D01*
X600398Y457259D01*
X600454Y457333D01*
X600472Y457351D01*
X600583Y457444D01*
X600676Y457499D01*
X600750Y457518D01*
X600787D01*
X600972Y457462D01*
D02*
G37*
G36*
X594232Y457481D02*
X594621Y457388D01*
X594954Y457240D01*
X595251Y457092D01*
X595491Y456944D01*
X595658Y456796D01*
X595769Y456703D01*
X595788Y456685D01*
X595806Y456666D01*
X595954Y456499D01*
X596065Y456351D01*
X596269Y456018D01*
X596399Y455685D01*
X596510Y455388D01*
X596565Y455111D01*
X596584Y454907D01*
X596602Y454833D01*
Y454777D01*
Y454740D01*
Y454722D01*
Y447260D01*
X596584Y447038D01*
X596565Y446834D01*
X596473Y446463D01*
X596325Y446112D01*
X596176Y445834D01*
X596028Y445593D01*
X595880Y445426D01*
X595788Y445315D01*
X595751Y445297D01*
Y445278D01*
X595584Y445130D01*
X595417Y445019D01*
X595084Y444815D01*
X594751Y444686D01*
X594454Y444575D01*
X594195Y444519D01*
X593992Y444501D01*
X593917Y444482D01*
X592881D01*
X592658Y444501D01*
X592455Y444519D01*
X592084Y444612D01*
X591732Y444741D01*
X591455Y444889D01*
X591214Y445038D01*
X591047Y445167D01*
X590936Y445260D01*
X590899Y445297D01*
X590751Y445463D01*
X590621Y445630D01*
X590418Y445964D01*
X590270Y446278D01*
X590177Y446593D01*
X590103Y446852D01*
X590084Y447075D01*
X590066Y447149D01*
Y447204D01*
Y447241D01*
Y447260D01*
Y454722D01*
Y454944D01*
X590103Y455148D01*
X590196Y455518D01*
X590325Y455870D01*
X590473Y456148D01*
X590640Y456388D01*
X590770Y456555D01*
X590862Y456666D01*
X590881Y456703D01*
X590899D01*
X591066Y456851D01*
X591214Y456981D01*
X591566Y457166D01*
X591899Y457314D01*
X592195Y457425D01*
X592473Y457481D01*
X592695Y457499D01*
X592769Y457518D01*
X594029D01*
X594232Y457481D01*
D02*
G37*
G36*
X573658Y441906D02*
X573935Y441851D01*
X574176Y441777D01*
X574398Y441703D01*
X574583Y441628D01*
X574731Y441554D01*
X574806Y441499D01*
X574843Y441480D01*
X575083Y441314D01*
X575306Y441129D01*
X575472Y440962D01*
X575620Y440795D01*
X575731Y440647D01*
X575806Y440536D01*
X575843Y440462D01*
X575861Y440425D01*
X576028Y440610D01*
X576194Y440758D01*
X576343Y440906D01*
X576491Y441017D01*
X576620Y441091D01*
X576713Y441147D01*
X576787Y441184D01*
X576805Y441203D01*
X577009Y441295D01*
X577231Y441351D01*
X577435Y441406D01*
X577620Y441425D01*
X577787Y441443D01*
X577916Y441462D01*
X577990D01*
X578027D01*
X578972D01*
X579268D01*
X579564Y441406D01*
X580046Y441258D01*
X580231Y441166D01*
X580416Y441073D01*
X580564Y440980D01*
X580694Y440869D01*
X580805Y440795D01*
X580879Y440721D01*
X580935Y440666D01*
X580953Y440647D01*
X581101Y440480D01*
X581231Y440314D01*
X581416Y439981D01*
X581564Y439647D01*
X581675Y439332D01*
X581731Y439055D01*
X581749Y438833D01*
X581768Y438758D01*
Y438351D01*
X581712Y438055D01*
X581564Y437573D01*
X581472Y437388D01*
X581379Y437222D01*
X581286Y437073D01*
X581175Y436925D01*
X581101Y436814D01*
X581027Y436740D01*
X580972Y436685D01*
X580953Y436666D01*
X580787Y436518D01*
X580620Y436407D01*
X580268Y436203D01*
X579935Y436073D01*
X579638Y435962D01*
X579379Y435907D01*
X579175Y435888D01*
X579101Y435870D01*
X579046D01*
X579009D01*
X578990D01*
X578027D01*
X577787Y435888D01*
X577565Y435907D01*
X577342Y435962D01*
X577176Y436018D01*
X577009Y436055D01*
X576898Y436111D01*
X576824Y436129D01*
X576805Y436148D01*
X576602Y436259D01*
X576417Y436388D01*
X576268Y436518D01*
X576120Y436629D01*
X576009Y436740D01*
X575935Y436833D01*
X575880Y436888D01*
X575861Y436907D01*
X575676Y436647D01*
X575491Y436425D01*
X575306Y436240D01*
X575139Y436073D01*
X574972Y435962D01*
X574861Y435870D01*
X574787Y435814D01*
X574750Y435796D01*
X574509Y435666D01*
X574269Y435574D01*
X574028Y435499D01*
X573824Y435462D01*
X573639Y435425D01*
X573509Y435407D01*
X573417D01*
X573380D01*
X571510D01*
X571287Y435425D01*
X571084Y435444D01*
X570713Y435536D01*
X570362Y435685D01*
X570084Y435833D01*
X569843Y435981D01*
X569677Y436129D01*
X569565Y436222D01*
X569547Y436259D01*
X569528D01*
X569380Y436425D01*
X569269Y436592D01*
X569066Y436925D01*
X568936Y437259D01*
X568825Y437555D01*
X568769Y437814D01*
X568751Y437999D01*
X568732Y438073D01*
Y439129D01*
X568751Y439351D01*
X568769Y439555D01*
X568862Y439925D01*
X568991Y440277D01*
X569140Y440555D01*
X569288Y440795D01*
X569417Y440962D01*
X569510Y441073D01*
X569547Y441110D01*
X569695Y441258D01*
X569862Y441388D01*
X570195Y441573D01*
X570528Y441721D01*
X570843Y441832D01*
X571102Y441888D01*
X571325Y441906D01*
X571399Y441925D01*
X571454D01*
X571491D01*
X571510D01*
X573380D01*
X573658Y441906D01*
D02*
G37*
G36*
X572102Y433518D02*
X572213Y433463D01*
X572287Y433407D01*
X572306Y433389D01*
X572398Y433278D01*
X572435Y433185D01*
X572454Y433111D01*
Y431685D01*
X574769D01*
X574917Y431667D01*
X575028Y431611D01*
X575102Y431555D01*
X575120Y431537D01*
X575195Y431426D01*
X575232Y431333D01*
X575250Y431259D01*
Y431222D01*
X575232Y431093D01*
X575176Y430981D01*
X575102Y430907D01*
X575083Y430889D01*
X574972Y430815D01*
X574861Y430778D01*
X574787Y430759D01*
X574769D01*
X572454D01*
Y428056D01*
X581194Y429796D01*
X581305Y429815D01*
X581435Y429796D01*
X581546Y429741D01*
X581620Y429685D01*
X581638Y429667D01*
X581712Y429556D01*
X581749Y429445D01*
X581768Y429370D01*
Y429333D01*
X581657Y429037D01*
X581583Y428963D01*
X581490Y428908D01*
X581416Y428889D01*
X581379D01*
X572084Y427019D01*
X571973D01*
X571843Y427037D01*
X571750Y427093D01*
X571676Y427130D01*
X571658Y427149D01*
X571584Y427260D01*
X571547Y427371D01*
X571528Y427445D01*
Y430759D01*
X569177D01*
X569028Y430778D01*
X568917Y430833D01*
X568843Y430870D01*
X568825Y430889D01*
X568769Y431037D01*
X568751Y431148D01*
X568732Y431204D01*
Y431222D01*
X568751Y431352D01*
X568788Y431463D01*
X568806Y431537D01*
X568825Y431555D01*
X568936Y431629D01*
X569047Y431667D01*
X569140Y431685D01*
X569177D01*
X571528D01*
Y433074D01*
X571547Y433222D01*
X571602Y433333D01*
X571658Y433389D01*
X571676Y433407D01*
X571787Y433481D01*
X571898Y433518D01*
X571973Y433537D01*
X571991D01*
X572102Y433518D01*
D02*
G37*
G36*
X581416Y425149D02*
X581527Y425093D01*
X581601Y425019D01*
X581620Y425001D01*
X581712Y424889D01*
X581749Y424797D01*
X581768Y424723D01*
Y422149D01*
X581731Y421945D01*
X581638Y421557D01*
X581490Y421223D01*
X581342Y420927D01*
X581194Y420686D01*
X581046Y420520D01*
X580953Y420409D01*
X580935Y420390D01*
X580916Y420371D01*
X580749Y420223D01*
X580601Y420112D01*
X580268Y419908D01*
X579935Y419779D01*
X579638Y419668D01*
X579361Y419612D01*
X579157Y419594D01*
X579083Y419575D01*
X579027D01*
X578990D01*
X578972D01*
X571510D01*
X571306Y419594D01*
X571102Y419612D01*
X570713Y419705D01*
X570380Y419853D01*
X570102Y420001D01*
X569862Y420149D01*
X569695Y420297D01*
X569584Y420390D01*
X569565Y420427D01*
X569547D01*
X569399Y420594D01*
X569288Y420760D01*
X569084Y421094D01*
X568936Y421408D01*
X568843Y421723D01*
X568769Y421982D01*
X568751Y422186D01*
X568732Y422260D01*
Y424686D01*
X568751Y424834D01*
X568806Y424945D01*
X568862Y425019D01*
X568880Y425038D01*
X568991Y425112D01*
X569103Y425149D01*
X569177Y425167D01*
X569195D01*
X569306Y425149D01*
X569417Y425093D01*
X569491Y425019D01*
X569510Y425001D01*
X569602Y424889D01*
X569640Y424797D01*
X569658Y424723D01*
Y422371D01*
X569677Y422094D01*
X569751Y421834D01*
X569825Y421612D01*
X569936Y421408D01*
X570028Y421260D01*
X570121Y421131D01*
X570177Y421057D01*
X570195Y421038D01*
X570417Y420853D01*
X570639Y420723D01*
X570862Y420631D01*
X571065Y420575D01*
X571232Y420538D01*
X571380Y420501D01*
X571473D01*
X571510D01*
X578972D01*
X579250Y420520D01*
X579509Y420594D01*
X579749Y420668D01*
X579935Y420779D01*
X580101Y420871D01*
X580213Y420964D01*
X580286Y421020D01*
X580305Y421038D01*
X580490Y421260D01*
X580620Y421482D01*
X580712Y421705D01*
X580768Y421908D01*
X580824Y422094D01*
X580842Y422242D01*
Y424686D01*
X580860Y424834D01*
X580916Y424945D01*
X580972Y425019D01*
X580990Y425038D01*
X581101Y425112D01*
X581212Y425149D01*
X581286Y425167D01*
X581305D01*
X581416Y425149D01*
D02*
G37*
G36*
X623080Y398406D02*
X623191Y398362D01*
X623257Y398295D01*
X623279Y398273D01*
X623368Y398140D01*
X623413Y398007D01*
X623435Y397896D01*
Y391147D01*
X623413Y390969D01*
X623346Y390836D01*
X623257Y390725D01*
X623146Y390658D01*
X623035Y390614D01*
X622947Y390592D01*
X622880D01*
X622858D01*
X621215D01*
X621037Y390614D01*
X620904Y390681D01*
X620815Y390725D01*
X620793Y390747D01*
X620727Y390925D01*
X620682Y391058D01*
X620660Y391125D01*
Y391147D01*
X620682Y391302D01*
X620727Y391435D01*
X620771Y391524D01*
X620793Y391546D01*
X620926Y391635D01*
X621060Y391680D01*
X621171Y391702D01*
X621215D01*
X622325D01*
Y397163D01*
X608472Y393944D01*
X608339Y393922D01*
X608162Y393944D01*
X608051Y394011D01*
X607962Y394077D01*
X607940Y394099D01*
X607873Y394255D01*
X607829Y394366D01*
X607806Y394454D01*
Y394499D01*
X607917Y394832D01*
X608073Y394943D01*
X608162Y395009D01*
X608206Y395032D01*
X608228D01*
X622747Y398406D01*
X622924Y398428D01*
X623080Y398406D01*
D02*
G37*
G36*
X611847Y388327D02*
X611980Y388261D01*
X612069Y388194D01*
X612091Y388172D01*
X612202Y388039D01*
X612246Y387928D01*
X612268Y387839D01*
Y386130D01*
X615043D01*
X615221Y386107D01*
X615354Y386041D01*
X615443Y385974D01*
X615465Y385952D01*
X615554Y385819D01*
X615598Y385708D01*
X615621Y385619D01*
Y385575D01*
X615598Y385419D01*
X615532Y385286D01*
X615443Y385197D01*
X615421Y385175D01*
X615288Y385086D01*
X615154Y385042D01*
X615066Y385020D01*
X615043D01*
X612268D01*
Y381779D01*
X622747Y383865D01*
X622880Y383887D01*
X623035Y383865D01*
X623168Y383799D01*
X623257Y383732D01*
X623279Y383710D01*
X623368Y383577D01*
X623413Y383443D01*
X623435Y383355D01*
Y383310D01*
X623302Y382955D01*
X623213Y382866D01*
X623102Y382800D01*
X623013Y382777D01*
X622969D01*
X611824Y380535D01*
X611691D01*
X611536Y380558D01*
X611425Y380624D01*
X611336Y380669D01*
X611314Y380691D01*
X611225Y380824D01*
X611181Y380957D01*
X611158Y381046D01*
Y385020D01*
X608339D01*
X608162Y385042D01*
X608028Y385108D01*
X607940Y385153D01*
X607917Y385175D01*
X607851Y385353D01*
X607829Y385486D01*
X607806Y385552D01*
Y385575D01*
X607829Y385730D01*
X607873Y385863D01*
X607895Y385952D01*
X607917Y385974D01*
X608051Y386063D01*
X608184Y386107D01*
X608295Y386130D01*
X608339D01*
X611158D01*
Y387795D01*
X611181Y387972D01*
X611247Y388105D01*
X611314Y388172D01*
X611336Y388194D01*
X611469Y388283D01*
X611603Y388327D01*
X611691Y388350D01*
X611713D01*
X611847Y388327D01*
D02*
G37*
G36*
X623013Y378293D02*
X623146Y378227D01*
X623235Y378138D01*
X623257Y378116D01*
X623368Y377982D01*
X623413Y377871D01*
X623435Y377783D01*
Y374697D01*
X623391Y374453D01*
X623279Y373987D01*
X623102Y373587D01*
X622924Y373232D01*
X622747Y372943D01*
X622569Y372743D01*
X622458Y372610D01*
X622436Y372588D01*
X622414Y372566D01*
X622214Y372388D01*
X622036Y372255D01*
X621637Y372011D01*
X621237Y371855D01*
X620882Y371722D01*
X620549Y371656D01*
X620305Y371633D01*
X620216Y371611D01*
X620149D01*
X620105D01*
X620083D01*
X611136D01*
X610892Y371633D01*
X610648Y371656D01*
X610182Y371767D01*
X609782Y371944D01*
X609449Y372122D01*
X609161Y372299D01*
X608961Y372477D01*
X608828Y372588D01*
X608805Y372632D01*
X608783D01*
X608606Y372832D01*
X608472Y373032D01*
X608228Y373432D01*
X608051Y373809D01*
X607940Y374186D01*
X607851Y374497D01*
X607829Y374741D01*
X607806Y374830D01*
Y377738D01*
X607829Y377916D01*
X607895Y378049D01*
X607962Y378138D01*
X607984Y378160D01*
X608117Y378249D01*
X608250Y378293D01*
X608339Y378315D01*
X608361D01*
X608495Y378293D01*
X608628Y378227D01*
X608717Y378138D01*
X608739Y378116D01*
X608850Y377982D01*
X608894Y377871D01*
X608916Y377783D01*
Y374963D01*
X608939Y374630D01*
X609027Y374319D01*
X609116Y374053D01*
X609249Y373809D01*
X609360Y373631D01*
X609471Y373476D01*
X609538Y373387D01*
X609560Y373365D01*
X609827Y373143D01*
X610093Y372988D01*
X610359Y372877D01*
X610604Y372810D01*
X610803Y372766D01*
X610981Y372721D01*
X611092D01*
X611136D01*
X620083D01*
X620416Y372743D01*
X620727Y372832D01*
X621015Y372921D01*
X621237Y373054D01*
X621437Y373165D01*
X621570Y373276D01*
X621659Y373343D01*
X621681Y373365D01*
X621903Y373631D01*
X622058Y373898D01*
X622169Y374164D01*
X622236Y374408D01*
X622303Y374630D01*
X622325Y374808D01*
Y377738D01*
X622347Y377916D01*
X622414Y378049D01*
X622480Y378138D01*
X622503Y378160D01*
X622636Y378249D01*
X622769Y378293D01*
X622858Y378315D01*
X622880D01*
X623013Y378293D01*
D02*
G37*
G36*
X585768Y398353D02*
X586212Y398242D01*
X586634Y398087D01*
X586967Y397909D01*
X587256Y397731D01*
X587456Y397576D01*
X587589Y397465D01*
X587633Y397443D01*
Y397421D01*
X587811Y397243D01*
X587966Y397043D01*
X588188Y396644D01*
X588366Y396244D01*
X588499Y395867D01*
X588566Y395534D01*
X588588Y395378D01*
Y395267D01*
X588610Y395156D01*
Y391693D01*
X588876Y391715D01*
X589143Y391738D01*
X589409Y391782D01*
X589653Y391848D01*
X589853Y391893D01*
X590009Y391937D01*
X590097Y391959D01*
X590142Y391982D01*
X590452Y392093D01*
X590741Y392226D01*
X590985Y392337D01*
X591207Y392448D01*
X591407Y392559D01*
X591540Y392626D01*
X591629Y392670D01*
X591651Y392692D01*
X592006Y392936D01*
X592295Y393181D01*
X592561Y393402D01*
X592784Y393602D01*
X592961Y393780D01*
X593072Y393913D01*
X593161Y394002D01*
X593183Y394024D01*
X593427Y394335D01*
X593605Y394601D01*
X593671Y394712D01*
X593738Y394801D01*
X593760Y394846D01*
X593783Y394868D01*
X594027Y395334D01*
X594138Y395578D01*
X594204Y395800D01*
X594293Y395933D01*
X594382Y396000D01*
X594426Y396044D01*
X594449Y396066D01*
X594537Y396111D01*
X594626Y396155D01*
X594693D01*
X594715D01*
X594870Y396133D01*
X595004Y396089D01*
X595092Y396022D01*
X595115Y396000D01*
X595225Y395867D01*
X595292Y395756D01*
X595314Y395667D01*
Y395622D01*
X595248Y395401D01*
X595070Y394979D01*
X594848Y394579D01*
X594626Y394202D01*
X594404Y393847D01*
X594160Y393513D01*
X593894Y393225D01*
X593649Y392958D01*
X593405Y392714D01*
X593183Y392492D01*
X592961Y392293D01*
X592761Y392137D01*
X592584Y392004D01*
X592450Y391893D01*
X592340Y391826D01*
X592273Y391782D01*
X592251Y391760D01*
X591873Y391560D01*
X591518Y391382D01*
X591141Y391205D01*
X590763Y391072D01*
X590053Y390872D01*
X589698Y390783D01*
X589387Y390738D01*
X589098Y390672D01*
X588832Y390650D01*
X588588Y390628D01*
X588388Y390605D01*
X588210Y390583D01*
X588099D01*
X588011D01*
X587988D01*
X583016D01*
X582749Y390605D01*
X582505Y390628D01*
X582061Y390738D01*
X581639Y390916D01*
X581306Y391094D01*
X581018Y391271D01*
X580818Y391449D01*
X580685Y391560D01*
X580662Y391604D01*
X580640D01*
X580463Y391804D01*
X580330Y392004D01*
X580085Y392403D01*
X579930Y392803D01*
X579797Y393158D01*
X579730Y393469D01*
X579708Y393691D01*
X579686Y393780D01*
Y395045D01*
X579708Y395312D01*
X579730Y395556D01*
X579841Y396000D01*
X579996Y396422D01*
X580174Y396755D01*
X580330Y397043D01*
X580485Y397243D01*
X580596Y397376D01*
X580640Y397421D01*
X580818Y397598D01*
X581018Y397754D01*
X581417Y397976D01*
X581817Y398153D01*
X582194Y398286D01*
X582527Y398353D01*
X582794Y398375D01*
X582882Y398397D01*
X582949D01*
X582994D01*
X583016D01*
X585258D01*
X585524D01*
X585768Y398353D01*
D02*
G37*
G36*
X583726Y388319D02*
X583859Y388252D01*
X583948Y388186D01*
X583970Y388163D01*
X584081Y388030D01*
X584126Y387919D01*
X584148Y387830D01*
Y386121D01*
X586923D01*
X587100Y386099D01*
X587234Y386032D01*
X587322Y385966D01*
X587345Y385943D01*
X587433Y385810D01*
X587478Y385699D01*
X587500Y385610D01*
Y385566D01*
X587478Y385411D01*
X587411Y385277D01*
X587322Y385189D01*
X587300Y385166D01*
X587167Y385078D01*
X587034Y385033D01*
X586945Y385011D01*
X586923D01*
X584148D01*
Y381770D01*
X594626Y383857D01*
X594759Y383879D01*
X594915Y383857D01*
X595048Y383790D01*
X595137Y383723D01*
X595159Y383701D01*
X595248Y383568D01*
X595292Y383435D01*
X595314Y383346D01*
Y383302D01*
X595181Y382947D01*
X595092Y382858D01*
X594981Y382791D01*
X594893Y382769D01*
X594848D01*
X583704Y380527D01*
X583571D01*
X583415Y380549D01*
X583304Y380616D01*
X583215Y380660D01*
X583193Y380682D01*
X583105Y380815D01*
X583060Y380948D01*
X583038Y381037D01*
Y385011D01*
X580219D01*
X580041Y385033D01*
X579908Y385100D01*
X579819Y385144D01*
X579797Y385166D01*
X579730Y385344D01*
X579708Y385477D01*
X579686Y385544D01*
Y385566D01*
X579708Y385721D01*
X579752Y385855D01*
X579775Y385943D01*
X579797Y385966D01*
X579930Y386054D01*
X580063Y386099D01*
X580174Y386121D01*
X580219D01*
X583038D01*
Y387786D01*
X583060Y387964D01*
X583127Y388097D01*
X583193Y388163D01*
X583215Y388186D01*
X583349Y388274D01*
X583482Y388319D01*
X583571Y388341D01*
X583593D01*
X583726Y388319D01*
D02*
G37*
G36*
X594893Y378285D02*
X595026Y378218D01*
X595115Y378129D01*
X595137Y378107D01*
X595248Y377974D01*
X595292Y377863D01*
X595314Y377774D01*
Y374688D01*
X595270Y374444D01*
X595159Y373978D01*
X594981Y373578D01*
X594804Y373223D01*
X594626Y372934D01*
X594449Y372735D01*
X594338Y372602D01*
X594315Y372579D01*
X594293Y372557D01*
X594093Y372379D01*
X593916Y372246D01*
X593516Y372002D01*
X593116Y371847D01*
X592761Y371713D01*
X592428Y371647D01*
X592184Y371625D01*
X592095Y371603D01*
X592029D01*
X591984D01*
X591962D01*
X583016D01*
X582771Y371625D01*
X582527Y371647D01*
X582061Y371758D01*
X581661Y371936D01*
X581329Y372113D01*
X581040Y372291D01*
X580840Y372468D01*
X580707Y372579D01*
X580685Y372624D01*
X580662D01*
X580485Y372823D01*
X580352Y373023D01*
X580107Y373423D01*
X579930Y373800D01*
X579819Y374178D01*
X579730Y374488D01*
X579708Y374733D01*
X579686Y374821D01*
Y377730D01*
X579708Y377907D01*
X579775Y378040D01*
X579841Y378129D01*
X579863Y378151D01*
X579996Y378240D01*
X580130Y378285D01*
X580219Y378307D01*
X580241D01*
X580374Y378285D01*
X580507Y378218D01*
X580596Y378129D01*
X580618Y378107D01*
X580729Y377974D01*
X580774Y377863D01*
X580796Y377774D01*
Y374955D01*
X580818Y374622D01*
X580907Y374311D01*
X580995Y374044D01*
X581129Y373800D01*
X581240Y373623D01*
X581351Y373467D01*
X581417Y373378D01*
X581440Y373356D01*
X581706Y373134D01*
X581972Y372979D01*
X582239Y372868D01*
X582483Y372801D01*
X582683Y372757D01*
X582860Y372713D01*
X582971D01*
X583016D01*
X591962D01*
X592295Y372735D01*
X592606Y372823D01*
X592895Y372912D01*
X593116Y373046D01*
X593316Y373157D01*
X593450Y373268D01*
X593538Y373334D01*
X593560Y373356D01*
X593783Y373623D01*
X593938Y373889D01*
X594049Y374155D01*
X594115Y374400D01*
X594182Y374622D01*
X594204Y374799D01*
Y377730D01*
X594226Y377907D01*
X594293Y378040D01*
X594360Y378129D01*
X594382Y378151D01*
X594515Y378240D01*
X594648Y378285D01*
X594737Y378307D01*
X594759D01*
X594893Y378285D01*
D02*
G37*
G36*
X528990Y420520D02*
X529456Y420409D01*
X529856Y420231D01*
X530211Y420054D01*
X530499Y419876D01*
X530699Y419698D01*
X530832Y419588D01*
X530855Y419565D01*
X530877Y419543D01*
X531054Y419343D01*
X531188Y419166D01*
X531432Y418766D01*
X531587Y418367D01*
X531720Y418011D01*
X531787Y417678D01*
X531809Y417434D01*
X531831Y417345D01*
Y417279D01*
Y417234D01*
Y417212D01*
Y408266D01*
X531809Y408022D01*
X531787Y407777D01*
X531676Y407311D01*
X531498Y406912D01*
X531321Y406578D01*
X531143Y406290D01*
X530966Y406090D01*
X530855Y405957D01*
X530810Y405935D01*
Y405913D01*
X530610Y405735D01*
X530411Y405602D01*
X530011Y405358D01*
X529634Y405180D01*
X529256Y405069D01*
X528945Y404980D01*
X528701Y404958D01*
X528612Y404936D01*
X525704D01*
X525527Y404958D01*
X525393Y405024D01*
X525305Y405091D01*
X525283Y405113D01*
X525194Y405247D01*
X525149Y405380D01*
X525127Y405468D01*
Y405491D01*
X525149Y405624D01*
X525216Y405757D01*
X525305Y405846D01*
X525327Y405868D01*
X525460Y405979D01*
X525571Y406023D01*
X525660Y406046D01*
X528479D01*
X528812Y406068D01*
X529123Y406157D01*
X529389Y406245D01*
X529634Y406379D01*
X529811Y406490D01*
X529967Y406601D01*
X530055Y406667D01*
X530078Y406689D01*
X530300Y406956D01*
X530455Y407222D01*
X530566Y407489D01*
X530633Y407733D01*
X530677Y407933D01*
X530721Y408110D01*
Y408221D01*
Y408266D01*
Y417212D01*
X530699Y417545D01*
X530610Y417856D01*
X530522Y418144D01*
X530388Y418367D01*
X530277Y418566D01*
X530166Y418699D01*
X530100Y418788D01*
X530078Y418811D01*
X529811Y419033D01*
X529545Y419188D01*
X529278Y419299D01*
X529034Y419366D01*
X528812Y419432D01*
X528635Y419454D01*
X525704D01*
X525527Y419477D01*
X525393Y419543D01*
X525305Y419610D01*
X525283Y419632D01*
X525194Y419765D01*
X525149Y419898D01*
X525127Y419987D01*
Y420009D01*
X525149Y420143D01*
X525216Y420276D01*
X525305Y420364D01*
X525327Y420387D01*
X525460Y420498D01*
X525571Y420542D01*
X525660Y420564D01*
X528746D01*
X528990Y420520D01*
D02*
G37*
G36*
X522530Y420542D02*
X522663Y420476D01*
X522774Y420387D01*
X522840Y420276D01*
X522885Y420165D01*
X522907Y420076D01*
Y420009D01*
Y419987D01*
Y413283D01*
X522885Y413105D01*
X522818Y412972D01*
X522729Y412861D01*
X522618Y412794D01*
X522530Y412750D01*
X522441Y412728D01*
X519555D01*
X519222Y412706D01*
X518911Y412617D01*
X518645Y412528D01*
X518423Y412395D01*
X518223Y412284D01*
X518090Y412173D01*
X518001Y412084D01*
X517979Y412062D01*
X517757Y411818D01*
X517601Y411551D01*
X517468Y411285D01*
X517402Y411041D01*
X517357Y410841D01*
X517313Y410663D01*
Y410552D01*
Y410508D01*
Y408266D01*
X517335Y407933D01*
X517424Y407622D01*
X517513Y407355D01*
X517646Y407133D01*
X517757Y406934D01*
X517868Y406800D01*
X517957Y406712D01*
X517979Y406689D01*
X518223Y406468D01*
X518489Y406312D01*
X518756Y406201D01*
X519000Y406134D01*
X519222Y406090D01*
X519400Y406046D01*
X522352D01*
X522530Y406001D01*
X522663Y405935D01*
X522752Y405868D01*
X522774Y405824D01*
X522840Y405668D01*
X522885Y405579D01*
X522907Y405513D01*
Y405491D01*
X522885Y405335D01*
X522840Y405202D01*
X522796Y405113D01*
X522774Y405091D01*
X522641Y405002D01*
X522508Y404958D01*
X522397Y404936D01*
X519555D01*
X519311Y404958D01*
X519067Y404980D01*
X518600Y405091D01*
X518201Y405247D01*
X517868Y405424D01*
X517579Y405602D01*
X517379Y405757D01*
X517246Y405868D01*
X517202Y405913D01*
X517024Y406090D01*
X516869Y406290D01*
X516625Y406689D01*
X516447Y407089D01*
X516336Y407467D01*
X516247Y407777D01*
X516225Y408044D01*
X516203Y408133D01*
Y408199D01*
Y408243D01*
Y408266D01*
Y410486D01*
Y410730D01*
X516247Y410974D01*
X516358Y411440D01*
X516514Y411840D01*
X516691Y412173D01*
X516891Y412461D01*
X517046Y412661D01*
X517157Y412794D01*
X517180Y412839D01*
X517202D01*
X517379Y413016D01*
X517579Y413172D01*
X517979Y413416D01*
X518378Y413594D01*
X518734Y413705D01*
X519067Y413793D01*
X519333Y413816D01*
X519422Y413838D01*
X521797D01*
Y419454D01*
X516780D01*
X516602Y419477D01*
X516469Y419543D01*
X516381Y419610D01*
X516358Y419632D01*
X516269Y419765D01*
X516225Y419898D01*
X516203Y419987D01*
Y420009D01*
X516225Y420143D01*
X516292Y420276D01*
X516381Y420364D01*
X516403Y420387D01*
X516536Y420498D01*
X516647Y420542D01*
X516736Y420564D01*
X522352D01*
X522530Y420542D01*
D02*
G37*
G36*
X509166Y420498D02*
X509587Y420320D01*
X509987Y420098D01*
X510364Y419876D01*
X510720Y419654D01*
X511053Y419410D01*
X511341Y419143D01*
X511608Y418899D01*
X511852Y418655D01*
X512074Y418433D01*
X512273Y418211D01*
X512429Y418011D01*
X512562Y417834D01*
X512673Y417701D01*
X512740Y417589D01*
X512784Y417523D01*
X512806Y417501D01*
X513006Y417123D01*
X513184Y416768D01*
X513361Y416391D01*
X513494Y416013D01*
X513694Y415303D01*
X513783Y414948D01*
X513828Y414637D01*
X513894Y414348D01*
X513916Y414082D01*
X513938Y413838D01*
X513961Y413638D01*
X513983Y413460D01*
Y413349D01*
Y413261D01*
Y413238D01*
Y408266D01*
X513961Y407999D01*
X513938Y407755D01*
X513828Y407311D01*
X513650Y406889D01*
X513472Y406556D01*
X513295Y406268D01*
X513117Y406068D01*
X513006Y405935D01*
X512962Y405913D01*
Y405890D01*
X512762Y405713D01*
X512562Y405579D01*
X512163Y405335D01*
X511763Y405180D01*
X511408Y405047D01*
X511097Y404980D01*
X510875Y404958D01*
X510786Y404936D01*
X509521D01*
X509254Y404958D01*
X509010Y404980D01*
X508566Y405091D01*
X508144Y405247D01*
X507811Y405424D01*
X507523Y405579D01*
X507323Y405735D01*
X507190Y405846D01*
X507145Y405890D01*
X506968Y406068D01*
X506812Y406268D01*
X506590Y406667D01*
X506413Y407067D01*
X506280Y407444D01*
X506213Y407777D01*
X506191Y408044D01*
X506169Y408133D01*
Y408199D01*
Y408243D01*
Y408266D01*
Y410508D01*
Y410774D01*
X506213Y411018D01*
X506324Y411462D01*
X506479Y411884D01*
X506657Y412217D01*
X506835Y412506D01*
X506990Y412706D01*
X507101Y412839D01*
X507123Y412883D01*
X507145D01*
X507323Y413061D01*
X507523Y413216D01*
X507922Y413438D01*
X508322Y413616D01*
X508699Y413749D01*
X509032Y413816D01*
X509188Y413838D01*
X509299D01*
X509410Y413860D01*
X512873D01*
X512851Y414126D01*
X512828Y414393D01*
X512784Y414659D01*
X512718Y414903D01*
X512673Y415103D01*
X512629Y415259D01*
X512607Y415347D01*
X512584Y415392D01*
X512473Y415703D01*
X512340Y415991D01*
X512229Y416235D01*
X512118Y416457D01*
X512007Y416657D01*
X511940Y416790D01*
X511896Y416879D01*
X511874Y416901D01*
X511630Y417257D01*
X511385Y417545D01*
X511163Y417812D01*
X510964Y418033D01*
X510786Y418211D01*
X510653Y418322D01*
X510564Y418411D01*
X510542Y418433D01*
X510231Y418677D01*
X509965Y418855D01*
X509854Y418922D01*
X509765Y418988D01*
X509721Y419010D01*
X509698Y419033D01*
X509232Y419277D01*
X508988Y419388D01*
X508766Y419454D01*
X508633Y419543D01*
X508566Y419632D01*
X508522Y419676D01*
X508500Y419698D01*
X508455Y419787D01*
X508411Y419876D01*
Y419943D01*
Y419965D01*
X508433Y420120D01*
X508477Y420253D01*
X508544Y420342D01*
X508566Y420364D01*
X508699Y420476D01*
X508810Y420542D01*
X508899Y420564D01*
X508944D01*
X509166Y420498D01*
D02*
G37*
G36*
X664435Y402770D02*
X664901Y402659D01*
X665301Y402481D01*
X665656Y402304D01*
X665944Y402126D01*
X666144Y401949D01*
X666277Y401838D01*
X666300Y401815D01*
X666322Y401793D01*
X666499Y401593D01*
X666633Y401416D01*
X666877Y401016D01*
X667032Y400616D01*
X667165Y400261D01*
X667232Y399928D01*
X667254Y399684D01*
X667276Y399595D01*
Y399529D01*
Y399484D01*
Y399462D01*
Y390516D01*
X667254Y390271D01*
X667232Y390027D01*
X667121Y389561D01*
X666943Y389161D01*
X666766Y388829D01*
X666588Y388540D01*
X666411Y388340D01*
X666300Y388207D01*
X666255Y388185D01*
Y388162D01*
X666055Y387985D01*
X665856Y387852D01*
X665456Y387607D01*
X665079Y387430D01*
X664701Y387319D01*
X664390Y387230D01*
X664146Y387208D01*
X664057Y387186D01*
X661149D01*
X660972Y387208D01*
X660838Y387275D01*
X660750Y387341D01*
X660727Y387363D01*
X660639Y387496D01*
X660594Y387630D01*
X660572Y387719D01*
Y387741D01*
X660594Y387874D01*
X660661Y388007D01*
X660750Y388096D01*
X660772Y388118D01*
X660905Y388229D01*
X661016Y388274D01*
X661105Y388296D01*
X663924D01*
X664257Y388318D01*
X664568Y388407D01*
X664834Y388495D01*
X665079Y388629D01*
X665256Y388740D01*
X665412Y388851D01*
X665500Y388917D01*
X665523Y388940D01*
X665745Y389206D01*
X665900Y389472D01*
X666011Y389739D01*
X666078Y389983D01*
X666122Y390183D01*
X666166Y390360D01*
Y390471D01*
Y390516D01*
Y399462D01*
X666144Y399795D01*
X666055Y400106D01*
X665967Y400395D01*
X665833Y400616D01*
X665722Y400816D01*
X665611Y400950D01*
X665545Y401038D01*
X665523Y401060D01*
X665256Y401283D01*
X664990Y401438D01*
X664723Y401549D01*
X664479Y401615D01*
X664257Y401682D01*
X664080Y401704D01*
X661149D01*
X660972Y401726D01*
X660838Y401793D01*
X660750Y401860D01*
X660727Y401882D01*
X660639Y402015D01*
X660594Y402148D01*
X660572Y402237D01*
Y402259D01*
X660594Y402393D01*
X660661Y402526D01*
X660750Y402615D01*
X660772Y402637D01*
X660905Y402748D01*
X661016Y402792D01*
X661105Y402814D01*
X664191D01*
X664435Y402770D01*
D02*
G37*
G36*
X657975Y402792D02*
X658108Y402725D01*
X658219Y402637D01*
X658286Y402526D01*
X658330Y402415D01*
X658352Y402326D01*
Y402259D01*
Y402237D01*
Y395533D01*
X658330Y395355D01*
X658263Y395222D01*
X658175Y395111D01*
X658064Y395044D01*
X657975Y395000D01*
X657886Y394978D01*
X655000D01*
X654667Y394956D01*
X654356Y394867D01*
X654090Y394778D01*
X653868Y394645D01*
X653668Y394534D01*
X653535Y394423D01*
X653446Y394334D01*
X653424Y394312D01*
X653202Y394068D01*
X653046Y393801D01*
X652913Y393535D01*
X652847Y393291D01*
X652802Y393091D01*
X652758Y392913D01*
Y392802D01*
Y392758D01*
Y390516D01*
X652780Y390183D01*
X652869Y389872D01*
X652958Y389605D01*
X653091Y389384D01*
X653202Y389184D01*
X653313Y389050D01*
X653402Y388962D01*
X653424Y388940D01*
X653668Y388717D01*
X653934Y388562D01*
X654201Y388451D01*
X654445Y388385D01*
X654667Y388340D01*
X654845Y388296D01*
X657797D01*
X657975Y388251D01*
X658108Y388185D01*
X658197Y388118D01*
X658219Y388074D01*
X658286Y387918D01*
X658330Y387830D01*
X658352Y387763D01*
Y387741D01*
X658330Y387585D01*
X658286Y387452D01*
X658241Y387363D01*
X658219Y387341D01*
X658086Y387252D01*
X657953Y387208D01*
X657842Y387186D01*
X655000D01*
X654756Y387208D01*
X654512Y387230D01*
X654045Y387341D01*
X653646Y387496D01*
X653313Y387674D01*
X653024Y387852D01*
X652824Y388007D01*
X652691Y388118D01*
X652647Y388162D01*
X652469Y388340D01*
X652314Y388540D01*
X652070Y388940D01*
X651892Y389339D01*
X651781Y389716D01*
X651692Y390027D01*
X651670Y390294D01*
X651648Y390382D01*
Y390449D01*
Y390494D01*
Y390516D01*
Y392736D01*
Y392980D01*
X651692Y393224D01*
X651803Y393690D01*
X651959Y394090D01*
X652136Y394423D01*
X652336Y394711D01*
X652492Y394911D01*
X652602Y395044D01*
X652625Y395089D01*
X652647D01*
X652824Y395266D01*
X653024Y395422D01*
X653424Y395666D01*
X653823Y395844D01*
X654179Y395955D01*
X654512Y396043D01*
X654778Y396066D01*
X654867Y396088D01*
X657242D01*
Y401704D01*
X652225D01*
X652048Y401726D01*
X651914Y401793D01*
X651825Y401860D01*
X651803Y401882D01*
X651714Y402015D01*
X651670Y402148D01*
X651648Y402237D01*
Y402259D01*
X651670Y402393D01*
X651737Y402526D01*
X651825Y402615D01*
X651848Y402637D01*
X651981Y402748D01*
X652092Y402792D01*
X652181Y402814D01*
X657797D01*
X657975Y402792D01*
D02*
G37*
G36*
X649051D02*
X649184Y402725D01*
X649295Y402637D01*
X649361Y402526D01*
X649406Y402415D01*
X649428Y402326D01*
Y402259D01*
Y402237D01*
Y395533D01*
X649406Y395355D01*
X649339Y395222D01*
X649250Y395111D01*
X649139Y395044D01*
X649051Y395000D01*
X648962Y394978D01*
X646076D01*
X645743Y394956D01*
X645432Y394867D01*
X645166Y394778D01*
X644944Y394645D01*
X644744Y394534D01*
X644611Y394423D01*
X644522Y394334D01*
X644500Y394312D01*
X644278Y394068D01*
X644122Y393801D01*
X643989Y393535D01*
X643922Y393291D01*
X643878Y393091D01*
X643834Y392913D01*
Y392802D01*
Y392758D01*
Y390516D01*
X643856Y390183D01*
X643945Y389872D01*
X644033Y389605D01*
X644167Y389384D01*
X644278Y389184D01*
X644389Y389050D01*
X644477Y388962D01*
X644500Y388940D01*
X644744Y388717D01*
X645010Y388562D01*
X645277Y388451D01*
X645521Y388385D01*
X645743Y388340D01*
X645920Y388296D01*
X648873D01*
X649051Y388251D01*
X649184Y388185D01*
X649273Y388118D01*
X649295Y388074D01*
X649361Y387918D01*
X649406Y387830D01*
X649428Y387763D01*
Y387741D01*
X649406Y387585D01*
X649361Y387452D01*
X649317Y387363D01*
X649295Y387341D01*
X649162Y387252D01*
X649028Y387208D01*
X648917Y387186D01*
X646076D01*
X645832Y387208D01*
X645587Y387230D01*
X645121Y387341D01*
X644722Y387496D01*
X644389Y387674D01*
X644100Y387852D01*
X643900Y388007D01*
X643767Y388118D01*
X643723Y388162D01*
X643545Y388340D01*
X643390Y388540D01*
X643145Y388940D01*
X642968Y389339D01*
X642857Y389716D01*
X642768Y390027D01*
X642746Y390294D01*
X642724Y390382D01*
Y390449D01*
Y390494D01*
Y390516D01*
Y392736D01*
Y392980D01*
X642768Y393224D01*
X642879Y393690D01*
X643034Y394090D01*
X643212Y394423D01*
X643412Y394711D01*
X643567Y394911D01*
X643678Y395044D01*
X643700Y395089D01*
X643723D01*
X643900Y395266D01*
X644100Y395422D01*
X644500Y395666D01*
X644899Y395844D01*
X645254Y395955D01*
X645587Y396043D01*
X645854Y396066D01*
X645943Y396088D01*
X648318D01*
Y401704D01*
X643301D01*
X643123Y401726D01*
X642990Y401793D01*
X642901Y401860D01*
X642879Y401882D01*
X642790Y402015D01*
X642746Y402148D01*
X642724Y402237D01*
Y402259D01*
X642746Y402393D01*
X642812Y402526D01*
X642901Y402615D01*
X642923Y402637D01*
X643057Y402748D01*
X643168Y402792D01*
X643256Y402814D01*
X648873D01*
X649051Y402792D01*
D02*
G37*
G36*
X657563Y420181D02*
X657652Y420092D01*
X657719Y419981D01*
X657741Y419893D01*
Y419848D01*
X659983Y408704D01*
Y408571D01*
X659961Y408415D01*
X659894Y408304D01*
X659850Y408215D01*
X659827Y408193D01*
X659694Y408105D01*
X659561Y408060D01*
X659472Y408038D01*
X655499D01*
Y405219D01*
X655476Y405041D01*
X655410Y404908D01*
X655365Y404819D01*
X655343Y404797D01*
X655166Y404730D01*
X655032Y404708D01*
X654966Y404686D01*
X654944D01*
X654788Y404708D01*
X654655Y404752D01*
X654566Y404775D01*
X654544Y404797D01*
X654455Y404930D01*
X654411Y405063D01*
X654389Y405174D01*
Y405219D01*
Y408038D01*
X652724D01*
X652546Y408060D01*
X652413Y408127D01*
X652346Y408193D01*
X652324Y408215D01*
X652235Y408349D01*
X652191Y408482D01*
X652169Y408571D01*
Y408593D01*
X652191Y408726D01*
X652257Y408859D01*
X652324Y408948D01*
X652346Y408970D01*
X652479Y409081D01*
X652590Y409126D01*
X652679Y409148D01*
X654389D01*
Y411923D01*
X654411Y412100D01*
X654477Y412234D01*
X654544Y412322D01*
X654566Y412345D01*
X654699Y412433D01*
X654810Y412478D01*
X654899Y412500D01*
X654944D01*
X655099Y412478D01*
X655232Y412411D01*
X655321Y412322D01*
X655343Y412300D01*
X655432Y412167D01*
X655476Y412034D01*
X655499Y411945D01*
Y411923D01*
Y409148D01*
X658740D01*
X656653Y419626D01*
X656631Y419759D01*
X656653Y419915D01*
X656720Y420048D01*
X656786Y420137D01*
X656808Y420159D01*
X656942Y420248D01*
X657075Y420292D01*
X657163Y420314D01*
X657208D01*
X657563Y420181D01*
D02*
G37*
G36*
X674990Y420270D02*
X675456Y420159D01*
X675856Y419981D01*
X676211Y419804D01*
X676499Y419626D01*
X676699Y419449D01*
X676832Y419338D01*
X676855Y419315D01*
X676877Y419293D01*
X677054Y419093D01*
X677188Y418916D01*
X677432Y418516D01*
X677587Y418116D01*
X677720Y417761D01*
X677787Y417428D01*
X677809Y417184D01*
X677831Y417095D01*
Y417029D01*
Y416984D01*
Y416962D01*
Y408016D01*
X677809Y407771D01*
X677787Y407527D01*
X677676Y407061D01*
X677498Y406661D01*
X677321Y406329D01*
X677143Y406040D01*
X676966Y405840D01*
X676855Y405707D01*
X676810Y405685D01*
Y405662D01*
X676610Y405485D01*
X676411Y405352D01*
X676011Y405107D01*
X675634Y404930D01*
X675256Y404819D01*
X674945Y404730D01*
X674701Y404708D01*
X674612Y404686D01*
X671704D01*
X671527Y404708D01*
X671394Y404775D01*
X671305Y404841D01*
X671283Y404863D01*
X671194Y404996D01*
X671149Y405130D01*
X671127Y405219D01*
Y405241D01*
X671149Y405374D01*
X671216Y405507D01*
X671305Y405596D01*
X671327Y405618D01*
X671460Y405729D01*
X671571Y405774D01*
X671660Y405796D01*
X674479D01*
X674812Y405818D01*
X675123Y405907D01*
X675389Y405995D01*
X675634Y406129D01*
X675811Y406240D01*
X675967Y406351D01*
X676055Y406417D01*
X676078Y406440D01*
X676300Y406706D01*
X676455Y406972D01*
X676566Y407239D01*
X676633Y407483D01*
X676677Y407683D01*
X676721Y407860D01*
Y407971D01*
Y408016D01*
Y416962D01*
X676699Y417295D01*
X676610Y417606D01*
X676522Y417895D01*
X676388Y418116D01*
X676277Y418316D01*
X676166Y418450D01*
X676100Y418538D01*
X676078Y418560D01*
X675811Y418783D01*
X675545Y418938D01*
X675278Y419049D01*
X675034Y419115D01*
X674812Y419182D01*
X674635Y419204D01*
X671704D01*
X671527Y419226D01*
X671394Y419293D01*
X671305Y419360D01*
X671283Y419382D01*
X671194Y419515D01*
X671149Y419648D01*
X671127Y419737D01*
Y419759D01*
X671149Y419893D01*
X671216Y420026D01*
X671305Y420115D01*
X671327Y420137D01*
X671460Y420248D01*
X671571Y420292D01*
X671660Y420314D01*
X674746D01*
X674990Y420270D01*
D02*
G37*
G36*
X668530Y420292D02*
X668663Y420225D01*
X668774Y420137D01*
X668840Y420026D01*
X668885Y419915D01*
X668907Y419826D01*
Y419759D01*
Y419737D01*
Y413033D01*
X668885Y412855D01*
X668818Y412722D01*
X668729Y412611D01*
X668618Y412544D01*
X668530Y412500D01*
X668441Y412478D01*
X665555D01*
X665222Y412456D01*
X664911Y412367D01*
X664645Y412278D01*
X664423Y412145D01*
X664223Y412034D01*
X664090Y411923D01*
X664001Y411834D01*
X663979Y411812D01*
X663757Y411568D01*
X663601Y411301D01*
X663468Y411035D01*
X663402Y410791D01*
X663357Y410591D01*
X663313Y410413D01*
Y410302D01*
Y410258D01*
Y408016D01*
X663335Y407683D01*
X663424Y407372D01*
X663513Y407105D01*
X663646Y406884D01*
X663757Y406684D01*
X663868Y406550D01*
X663957Y406462D01*
X663979Y406440D01*
X664223Y406217D01*
X664489Y406062D01*
X664756Y405951D01*
X665000Y405885D01*
X665222Y405840D01*
X665400Y405796D01*
X668352D01*
X668530Y405751D01*
X668663Y405685D01*
X668752Y405618D01*
X668774Y405574D01*
X668840Y405418D01*
X668885Y405330D01*
X668907Y405263D01*
Y405241D01*
X668885Y405085D01*
X668840Y404952D01*
X668796Y404863D01*
X668774Y404841D01*
X668641Y404752D01*
X668508Y404708D01*
X668397Y404686D01*
X665555D01*
X665311Y404708D01*
X665067Y404730D01*
X664600Y404841D01*
X664201Y404996D01*
X663868Y405174D01*
X663579Y405352D01*
X663379Y405507D01*
X663246Y405618D01*
X663202Y405662D01*
X663024Y405840D01*
X662869Y406040D01*
X662625Y406440D01*
X662447Y406839D01*
X662336Y407216D01*
X662247Y407527D01*
X662225Y407794D01*
X662203Y407882D01*
Y407949D01*
Y407994D01*
Y408016D01*
Y410236D01*
Y410480D01*
X662247Y410724D01*
X662358Y411190D01*
X662514Y411590D01*
X662691Y411923D01*
X662891Y412211D01*
X663046Y412411D01*
X663157Y412544D01*
X663180Y412589D01*
X663202D01*
X663379Y412766D01*
X663579Y412922D01*
X663979Y413166D01*
X664378Y413344D01*
X664734Y413455D01*
X665067Y413543D01*
X665333Y413566D01*
X665422Y413588D01*
X667797D01*
Y419204D01*
X662780D01*
X662602Y419226D01*
X662469Y419293D01*
X662380Y419360D01*
X662358Y419382D01*
X662269Y419515D01*
X662225Y419648D01*
X662203Y419737D01*
Y419759D01*
X662225Y419893D01*
X662292Y420026D01*
X662380Y420115D01*
X662403Y420137D01*
X662536Y420248D01*
X662647Y420292D01*
X662736Y420314D01*
X668352D01*
X668530Y420292D01*
D02*
G37*
G36*
X656720Y455292D02*
X657119Y455225D01*
X657452Y455115D01*
X657763Y455004D01*
X658007Y454893D01*
X658185Y454781D01*
X658296Y454715D01*
X658340Y454693D01*
X658695Y454404D01*
X658984Y454093D01*
X659250Y453738D01*
X659450Y453405D01*
X659605Y453116D01*
X659716Y452872D01*
X659761Y452784D01*
X659783Y452717D01*
X659805Y452673D01*
Y452650D01*
X659850Y452450D01*
X659827Y452295D01*
X659761Y452162D01*
X659694Y452073D01*
X659672Y452051D01*
X659539Y451984D01*
X659406Y451940D01*
X659317Y451918D01*
X659273D01*
X659139Y451940D01*
X659028Y451962D01*
X658962Y452006D01*
X658940D01*
X658873Y452095D01*
X658806Y452184D01*
X658784Y452251D01*
X658762Y452273D01*
X658584Y452628D01*
X658407Y452939D01*
X658229Y453205D01*
X658074Y453405D01*
X657918Y453560D01*
X657807Y453649D01*
X657719Y453716D01*
X657696Y453738D01*
X657452Y453894D01*
X657186Y454005D01*
X656942Y454071D01*
X656720Y454138D01*
X656542Y454160D01*
X656386Y454182D01*
X656253D01*
X655854Y454138D01*
X655654Y454115D01*
X655499Y454071D01*
X655365Y454027D01*
X655254Y454005D01*
X655188Y453960D01*
X655166D01*
X654788Y453783D01*
X654611Y453671D01*
X654477Y453583D01*
X654366Y453516D01*
X654278Y453450D01*
X654233Y453405D01*
X654211Y453383D01*
X653900Y453072D01*
X653678Y452761D01*
X653501Y452428D01*
X653390Y452140D01*
X653323Y451873D01*
X653301Y451674D01*
X653279Y451518D01*
Y451496D01*
Y451474D01*
X653301Y451163D01*
X653345Y450896D01*
X653390Y450808D01*
X653412Y450719D01*
X653434Y450675D01*
Y450652D01*
X653589Y450253D01*
X653834Y449809D01*
X659939Y440551D01*
X659983Y440463D01*
X660005Y440374D01*
X660027Y440307D01*
Y440285D01*
X660005Y440107D01*
X659939Y439974D01*
X659894Y439885D01*
X659872Y439863D01*
X659716Y439752D01*
X659605Y439708D01*
X659517Y439686D01*
X652790D01*
X652613Y439708D01*
X652479Y439775D01*
X652413Y439841D01*
X652391Y439863D01*
X652302Y439996D01*
X652257Y440130D01*
X652235Y440219D01*
Y440241D01*
X652257Y440374D01*
X652324Y440507D01*
X652391Y440596D01*
X652413Y440618D01*
X652546Y440729D01*
X652657Y440774D01*
X652746Y440796D01*
X658429D01*
X652879Y449187D01*
X652746Y449431D01*
X652613Y449676D01*
X652524Y449875D01*
X652435Y450053D01*
X652368Y450186D01*
X652324Y450297D01*
X652302Y450364D01*
Y450386D01*
X652191Y450785D01*
X652169Y450963D01*
X652146Y451141D01*
X652124Y451274D01*
Y451385D01*
Y451451D01*
Y451474D01*
X652146Y451762D01*
X652191Y452051D01*
X652257Y452317D01*
X652324Y452561D01*
X652546Y453028D01*
X652790Y453427D01*
X653034Y453760D01*
X653145Y453894D01*
X653256Y454005D01*
X653323Y454093D01*
X653390Y454160D01*
X653434Y454182D01*
X653456Y454204D01*
X653700Y454404D01*
X653945Y454582D01*
X654189Y454715D01*
X654433Y454848D01*
X654921Y455048D01*
X655343Y455181D01*
X655721Y455248D01*
X655898Y455292D01*
X656031D01*
X656142Y455314D01*
X656298D01*
X656720Y455292D01*
D02*
G37*
G36*
X675034Y455270D02*
X675500Y455159D01*
X675900Y454981D01*
X676255Y454804D01*
X676544Y454626D01*
X676744Y454449D01*
X676877Y454338D01*
X676899Y454315D01*
X676921Y454293D01*
X677099Y454093D01*
X677232Y453916D01*
X677476Y453516D01*
X677632Y453116D01*
X677765Y452761D01*
X677831Y452428D01*
X677854Y452184D01*
X677876Y452095D01*
Y452029D01*
Y451984D01*
Y451962D01*
Y443016D01*
X677854Y442771D01*
X677831Y442527D01*
X677720Y442061D01*
X677543Y441661D01*
X677365Y441329D01*
X677188Y441040D01*
X677010Y440840D01*
X676899Y440707D01*
X676855Y440685D01*
Y440662D01*
X676655Y440485D01*
X676455Y440352D01*
X676055Y440107D01*
X675678Y439930D01*
X675301Y439819D01*
X674990Y439730D01*
X674746Y439708D01*
X674657Y439686D01*
X671749D01*
X671571Y439708D01*
X671438Y439775D01*
X671349Y439841D01*
X671327Y439863D01*
X671238Y439996D01*
X671194Y440130D01*
X671171Y440219D01*
Y440241D01*
X671194Y440374D01*
X671260Y440507D01*
X671349Y440596D01*
X671371Y440618D01*
X671505Y440729D01*
X671616Y440774D01*
X671704Y440796D01*
X674524D01*
X674857Y440818D01*
X675167Y440907D01*
X675434Y440995D01*
X675678Y441129D01*
X675856Y441240D01*
X676011Y441351D01*
X676100Y441417D01*
X676122Y441440D01*
X676344Y441706D01*
X676499Y441972D01*
X676610Y442239D01*
X676677Y442483D01*
X676721Y442683D01*
X676766Y442860D01*
Y442971D01*
Y443016D01*
Y451962D01*
X676744Y452295D01*
X676655Y452606D01*
X676566Y452895D01*
X676433Y453116D01*
X676322Y453316D01*
X676211Y453450D01*
X676144Y453538D01*
X676122Y453560D01*
X675856Y453783D01*
X675589Y453938D01*
X675323Y454049D01*
X675079Y454115D01*
X674857Y454182D01*
X674679Y454204D01*
X671749D01*
X671571Y454226D01*
X671438Y454293D01*
X671349Y454360D01*
X671327Y454382D01*
X671238Y454515D01*
X671194Y454648D01*
X671171Y454737D01*
Y454759D01*
X671194Y454893D01*
X671260Y455026D01*
X671349Y455115D01*
X671371Y455137D01*
X671505Y455248D01*
X671616Y455292D01*
X671704Y455314D01*
X674790D01*
X675034Y455270D01*
D02*
G37*
G36*
X668574Y455292D02*
X668707Y455225D01*
X668818Y455137D01*
X668885Y455026D01*
X668929Y454915D01*
X668951Y454826D01*
Y454759D01*
Y454737D01*
Y448033D01*
X668929Y447855D01*
X668863Y447722D01*
X668774Y447611D01*
X668663Y447544D01*
X668574Y447500D01*
X668485Y447478D01*
X665599D01*
X665266Y447456D01*
X664956Y447367D01*
X664689Y447278D01*
X664467Y447145D01*
X664267Y447034D01*
X664134Y446923D01*
X664045Y446834D01*
X664023Y446812D01*
X663801Y446568D01*
X663646Y446301D01*
X663513Y446035D01*
X663446Y445791D01*
X663402Y445591D01*
X663357Y445413D01*
Y445302D01*
Y445258D01*
Y443016D01*
X663379Y442683D01*
X663468Y442372D01*
X663557Y442105D01*
X663690Y441884D01*
X663801Y441684D01*
X663912Y441550D01*
X664001Y441462D01*
X664023Y441440D01*
X664267Y441217D01*
X664534Y441062D01*
X664800Y440951D01*
X665044Y440885D01*
X665266Y440840D01*
X665444Y440796D01*
X668397D01*
X668574Y440751D01*
X668707Y440685D01*
X668796Y440618D01*
X668818Y440574D01*
X668885Y440418D01*
X668929Y440330D01*
X668951Y440263D01*
Y440241D01*
X668929Y440085D01*
X668885Y439952D01*
X668840Y439863D01*
X668818Y439841D01*
X668685Y439752D01*
X668552Y439708D01*
X668441Y439686D01*
X665599D01*
X665355Y439708D01*
X665111Y439730D01*
X664645Y439841D01*
X664245Y439996D01*
X663912Y440174D01*
X663624Y440352D01*
X663424Y440507D01*
X663291Y440618D01*
X663246Y440662D01*
X663069Y440840D01*
X662913Y441040D01*
X662669Y441440D01*
X662491Y441839D01*
X662380Y442216D01*
X662292Y442527D01*
X662269Y442794D01*
X662247Y442882D01*
Y442949D01*
Y442994D01*
Y443016D01*
Y445236D01*
Y445480D01*
X662292Y445724D01*
X662403Y446190D01*
X662558Y446590D01*
X662736Y446923D01*
X662935Y447211D01*
X663091Y447411D01*
X663202Y447544D01*
X663224Y447589D01*
X663246D01*
X663424Y447766D01*
X663624Y447922D01*
X664023Y448166D01*
X664423Y448344D01*
X664778Y448455D01*
X665111Y448543D01*
X665377Y448566D01*
X665466Y448588D01*
X667841D01*
Y454204D01*
X662824D01*
X662647Y454226D01*
X662514Y454293D01*
X662425Y454360D01*
X662403Y454382D01*
X662314Y454515D01*
X662269Y454648D01*
X662247Y454737D01*
Y454759D01*
X662269Y454893D01*
X662336Y455026D01*
X662425Y455115D01*
X662447Y455137D01*
X662580Y455248D01*
X662691Y455292D01*
X662780Y455314D01*
X668397D01*
X668574Y455292D01*
D02*
G37*
G36*
X657066Y472792D02*
X657177Y472748D01*
X657266Y472681D01*
X657288Y472659D01*
X660640Y469285D01*
X660729Y469107D01*
X660773Y468996D01*
X660796Y468929D01*
Y468907D01*
X660773Y468752D01*
X660707Y468619D01*
X660663Y468530D01*
X660640Y468507D01*
X660507Y468396D01*
X660374Y468352D01*
X660285Y468330D01*
X660241D01*
X660085Y468352D01*
X659974Y468419D01*
X659885Y468485D01*
X659863Y468507D01*
X657444Y470905D01*
Y457719D01*
X657421Y457541D01*
X657355Y457408D01*
X657310Y457319D01*
X657288Y457297D01*
X657111Y457230D01*
X656977Y457208D01*
X656911Y457186D01*
X656889D01*
X656733Y457208D01*
X656600Y457252D01*
X656511Y457275D01*
X656489Y457297D01*
X656400Y457430D01*
X656356Y457563D01*
X656334Y457674D01*
Y457719D01*
Y472259D01*
X656356Y472415D01*
X656422Y472548D01*
X656489Y472637D01*
X656511Y472659D01*
X656644Y472748D01*
X656778Y472792D01*
X656866Y472814D01*
X656911D01*
X657066Y472792D01*
D02*
G37*
G36*
X675825Y472770D02*
X676291Y472659D01*
X676691Y472481D01*
X677046Y472304D01*
X677334Y472126D01*
X677534Y471949D01*
X677667Y471838D01*
X677690Y471815D01*
X677712Y471793D01*
X677889Y471593D01*
X678023Y471416D01*
X678267Y471016D01*
X678422Y470616D01*
X678555Y470261D01*
X678622Y469928D01*
X678644Y469684D01*
X678666Y469595D01*
Y469529D01*
Y469484D01*
Y469462D01*
Y460516D01*
X678644Y460271D01*
X678622Y460027D01*
X678511Y459561D01*
X678333Y459161D01*
X678156Y458829D01*
X677978Y458540D01*
X677801Y458340D01*
X677690Y458207D01*
X677645Y458185D01*
Y458162D01*
X677445Y457985D01*
X677246Y457852D01*
X676846Y457607D01*
X676469Y457430D01*
X676091Y457319D01*
X675780Y457230D01*
X675536Y457208D01*
X675447Y457186D01*
X672539D01*
X672362Y457208D01*
X672228Y457275D01*
X672140Y457341D01*
X672117Y457363D01*
X672029Y457496D01*
X671984Y457630D01*
X671962Y457719D01*
Y457741D01*
X671984Y457874D01*
X672051Y458007D01*
X672140Y458096D01*
X672162Y458118D01*
X672295Y458229D01*
X672406Y458274D01*
X672495Y458296D01*
X675314D01*
X675647Y458318D01*
X675958Y458407D01*
X676225Y458495D01*
X676469Y458629D01*
X676646Y458740D01*
X676802Y458851D01*
X676890Y458917D01*
X676913Y458940D01*
X677135Y459206D01*
X677290Y459472D01*
X677401Y459739D01*
X677468Y459983D01*
X677512Y460183D01*
X677556Y460360D01*
Y460471D01*
Y460516D01*
Y469462D01*
X677534Y469795D01*
X677445Y470106D01*
X677357Y470395D01*
X677223Y470616D01*
X677112Y470816D01*
X677001Y470950D01*
X676935Y471038D01*
X676913Y471060D01*
X676646Y471283D01*
X676380Y471438D01*
X676114Y471549D01*
X675869Y471615D01*
X675647Y471682D01*
X675470Y471704D01*
X672539D01*
X672362Y471726D01*
X672228Y471793D01*
X672140Y471860D01*
X672117Y471882D01*
X672029Y472015D01*
X671984Y472148D01*
X671962Y472237D01*
Y472259D01*
X671984Y472393D01*
X672051Y472526D01*
X672140Y472615D01*
X672162Y472637D01*
X672295Y472748D01*
X672406Y472792D01*
X672495Y472814D01*
X675581D01*
X675825Y472770D01*
D02*
G37*
G36*
X669365Y472792D02*
X669498Y472725D01*
X669609Y472637D01*
X669676Y472526D01*
X669720Y472415D01*
X669742Y472326D01*
Y472259D01*
Y472237D01*
Y465533D01*
X669720Y465355D01*
X669653Y465222D01*
X669565Y465111D01*
X669454Y465044D01*
X669365Y465000D01*
X669276Y464978D01*
X666390D01*
X666057Y464956D01*
X665746Y464867D01*
X665480Y464778D01*
X665258Y464645D01*
X665058Y464534D01*
X664925Y464423D01*
X664836Y464334D01*
X664814Y464312D01*
X664592Y464068D01*
X664436Y463801D01*
X664303Y463535D01*
X664237Y463291D01*
X664192Y463091D01*
X664148Y462913D01*
Y462802D01*
Y462758D01*
Y460516D01*
X664170Y460183D01*
X664259Y459872D01*
X664348Y459605D01*
X664481Y459384D01*
X664592Y459184D01*
X664703Y459050D01*
X664792Y458962D01*
X664814Y458940D01*
X665058Y458717D01*
X665324Y458562D01*
X665591Y458451D01*
X665835Y458385D01*
X666057Y458340D01*
X666235Y458296D01*
X669187D01*
X669365Y458251D01*
X669498Y458185D01*
X669587Y458118D01*
X669609Y458074D01*
X669676Y457918D01*
X669720Y457830D01*
X669742Y457763D01*
Y457741D01*
X669720Y457585D01*
X669676Y457452D01*
X669631Y457363D01*
X669609Y457341D01*
X669476Y457252D01*
X669343Y457208D01*
X669232Y457186D01*
X666390D01*
X666146Y457208D01*
X665902Y457230D01*
X665435Y457341D01*
X665036Y457496D01*
X664703Y457674D01*
X664414Y457852D01*
X664214Y458007D01*
X664081Y458118D01*
X664037Y458162D01*
X663859Y458340D01*
X663704Y458540D01*
X663460Y458940D01*
X663282Y459339D01*
X663171Y459716D01*
X663082Y460027D01*
X663060Y460294D01*
X663038Y460382D01*
Y460449D01*
Y460494D01*
Y460516D01*
Y462736D01*
Y462980D01*
X663082Y463224D01*
X663193Y463690D01*
X663349Y464090D01*
X663526Y464423D01*
X663726Y464711D01*
X663882Y464911D01*
X663992Y465044D01*
X664015Y465089D01*
X664037D01*
X664214Y465266D01*
X664414Y465422D01*
X664814Y465666D01*
X665213Y465844D01*
X665569Y465955D01*
X665902Y466043D01*
X666168Y466066D01*
X666257Y466088D01*
X668632D01*
Y471704D01*
X663615D01*
X663438Y471726D01*
X663304Y471793D01*
X663215Y471860D01*
X663193Y471882D01*
X663104Y472015D01*
X663060Y472148D01*
X663038Y472237D01*
Y472259D01*
X663060Y472393D01*
X663127Y472526D01*
X663215Y472615D01*
X663238Y472637D01*
X663371Y472748D01*
X663482Y472792D01*
X663571Y472814D01*
X669187D01*
X669365Y472792D01*
D02*
G37*
G36*
X613650Y535331D02*
X614250Y535153D01*
X614472Y535042D01*
X614672Y534931D01*
X614849Y534820D01*
X615005Y534687D01*
X615138Y534598D01*
X615227Y534509D01*
X615293Y534443D01*
X615315Y534421D01*
X615493Y534221D01*
X615648Y534043D01*
X615892Y533621D01*
X616070Y533222D01*
X616181Y532867D01*
X616270Y532534D01*
X616292Y532267D01*
X616314Y532178D01*
Y530669D01*
X616270Y530425D01*
X616159Y529958D01*
X615981Y529559D01*
X615804Y529204D01*
X615626Y528915D01*
X615448Y528715D01*
X615337Y528582D01*
X615315Y528560D01*
X615293Y528538D01*
X615093Y528360D01*
X614916Y528227D01*
X614516Y527983D01*
X614117Y527827D01*
X613761Y527694D01*
X613428Y527628D01*
X613184Y527605D01*
X613095Y527583D01*
X613029D01*
X612984D01*
X612962D01*
X610720D01*
X610454Y527605D01*
X610209Y527628D01*
X609765Y527739D01*
X609344Y527894D01*
X609011Y528072D01*
X608722Y528227D01*
X608522Y528382D01*
X608389Y528493D01*
X608367Y528538D01*
X608345D01*
X608167Y528715D01*
X608034Y528915D01*
X607790Y529315D01*
X607634Y529737D01*
X607501Y530114D01*
X607434Y530425D01*
X607412Y530580D01*
Y530691D01*
X607390Y530802D01*
Y534287D01*
X607124Y534265D01*
X606835Y534243D01*
X606569Y534199D01*
X606347Y534132D01*
X606125Y534066D01*
X605969Y534021D01*
X605881Y533999D01*
X605836Y533977D01*
X605525Y533866D01*
X605259Y533732D01*
X604992Y533621D01*
X604771Y533511D01*
X604593Y533400D01*
X604437Y533333D01*
X604349Y533288D01*
X604327Y533266D01*
X603971Y533022D01*
X603683Y532778D01*
X603416Y532556D01*
X603194Y532356D01*
X603017Y532178D01*
X602906Y532045D01*
X602817Y531956D01*
X602795Y531934D01*
X602573Y531668D01*
X602462Y531512D01*
X602195Y531091D01*
X602018Y530713D01*
X601929Y530558D01*
X601884Y530425D01*
X601840Y530314D01*
X601796Y530225D01*
X601773Y530181D01*
Y530158D01*
X601707Y530025D01*
X601640Y529936D01*
X601574Y529892D01*
X601552Y529870D01*
X601441Y529825D01*
X601352Y529803D01*
X601285D01*
X601263D01*
X601085Y529825D01*
X600952Y529892D01*
X600863Y529936D01*
X600841Y529958D01*
X600752Y530136D01*
X600708Y530247D01*
X600686Y530314D01*
Y530336D01*
X600730Y530558D01*
X600908Y530980D01*
X601130Y531379D01*
X601352Y531757D01*
X601574Y532112D01*
X601840Y532445D01*
X602084Y532733D01*
X602328Y533000D01*
X602573Y533244D01*
X602795Y533466D01*
X603017Y533666D01*
X603217Y533821D01*
X603394Y533955D01*
X603527Y534066D01*
X603638Y534132D01*
X603705Y534176D01*
X603727Y534199D01*
X604104Y534421D01*
X604482Y534598D01*
X604837Y534754D01*
X605215Y534887D01*
X605925Y535109D01*
X606280Y535175D01*
X606591Y535242D01*
X606880Y535309D01*
X607146Y535331D01*
X607390Y535353D01*
X607590Y535375D01*
X607767Y535397D01*
X607878D01*
X607967D01*
X607989D01*
X612962D01*
X613295D01*
X613650Y535331D01*
D02*
G37*
G36*
X604726Y525319D02*
X604859Y525252D01*
X604948Y525186D01*
X604970Y525163D01*
X605081Y525030D01*
X605126Y524919D01*
X605148Y524830D01*
Y523121D01*
X607923D01*
X608100Y523099D01*
X608234Y523032D01*
X608322Y522966D01*
X608345Y522943D01*
X608433Y522810D01*
X608478Y522699D01*
X608500Y522611D01*
Y522566D01*
X608478Y522411D01*
X608411Y522277D01*
X608322Y522189D01*
X608300Y522166D01*
X608167Y522078D01*
X608034Y522033D01*
X607945Y522011D01*
X607923D01*
X605148D01*
Y518770D01*
X615626Y520857D01*
X615759Y520879D01*
X615915Y520857D01*
X616048Y520790D01*
X616137Y520723D01*
X616159Y520701D01*
X616248Y520568D01*
X616292Y520435D01*
X616314Y520346D01*
Y520302D01*
X616181Y519947D01*
X616092Y519858D01*
X615981Y519791D01*
X615892Y519769D01*
X615848D01*
X604704Y517527D01*
X604571D01*
X604415Y517549D01*
X604304Y517616D01*
X604216Y517660D01*
X604193Y517682D01*
X604104Y517815D01*
X604060Y517948D01*
X604038Y518037D01*
Y522011D01*
X601219D01*
X601041Y522033D01*
X600908Y522100D01*
X600819Y522144D01*
X600797Y522166D01*
X600730Y522344D01*
X600708Y522477D01*
X600686Y522544D01*
Y522566D01*
X600708Y522721D01*
X600752Y522855D01*
X600775Y522943D01*
X600797Y522966D01*
X600930Y523055D01*
X601063Y523099D01*
X601174Y523121D01*
X601219D01*
X604038D01*
Y524786D01*
X604060Y524964D01*
X604127Y525097D01*
X604193Y525163D01*
X604216Y525186D01*
X604349Y525274D01*
X604482Y525319D01*
X604571Y525341D01*
X604593D01*
X604726Y525319D01*
D02*
G37*
G36*
X615892Y515285D02*
X616026Y515218D01*
X616115Y515129D01*
X616137Y515107D01*
X616248Y514974D01*
X616292Y514863D01*
X616314Y514774D01*
Y511688D01*
X616270Y511444D01*
X616159Y510978D01*
X615981Y510578D01*
X615804Y510223D01*
X615626Y509935D01*
X615448Y509735D01*
X615337Y509602D01*
X615315Y509579D01*
X615293Y509557D01*
X615093Y509380D01*
X614916Y509246D01*
X614516Y509002D01*
X614117Y508847D01*
X613761Y508713D01*
X613428Y508647D01*
X613184Y508625D01*
X613095Y508602D01*
X613029D01*
X612984D01*
X612962D01*
X604016D01*
X603772Y508625D01*
X603527Y508647D01*
X603061Y508758D01*
X602662Y508936D01*
X602328Y509113D01*
X602040Y509291D01*
X601840Y509468D01*
X601707Y509579D01*
X601685Y509624D01*
X601663D01*
X601485Y509823D01*
X601352Y510023D01*
X601108Y510423D01*
X600930Y510800D01*
X600819Y511178D01*
X600730Y511488D01*
X600708Y511733D01*
X600686Y511822D01*
Y514730D01*
X600708Y514907D01*
X600775Y515040D01*
X600841Y515129D01*
X600863Y515151D01*
X600997Y515240D01*
X601130Y515285D01*
X601219Y515307D01*
X601241D01*
X601374Y515285D01*
X601507Y515218D01*
X601596Y515129D01*
X601618Y515107D01*
X601729Y514974D01*
X601773Y514863D01*
X601796Y514774D01*
Y511955D01*
X601818Y511622D01*
X601907Y511311D01*
X601996Y511045D01*
X602129Y510800D01*
X602240Y510623D01*
X602351Y510467D01*
X602417Y510378D01*
X602439Y510356D01*
X602706Y510134D01*
X602972Y509979D01*
X603239Y509868D01*
X603483Y509801D01*
X603683Y509757D01*
X603860Y509712D01*
X603971D01*
X604016D01*
X612962D01*
X613295Y509735D01*
X613606Y509823D01*
X613895Y509912D01*
X614117Y510046D01*
X614316Y510157D01*
X614450Y510267D01*
X614538Y510334D01*
X614561Y510356D01*
X614782Y510623D01*
X614938Y510889D01*
X615049Y511156D01*
X615116Y511400D01*
X615182Y511622D01*
X615204Y511799D01*
Y514730D01*
X615227Y514907D01*
X615293Y515040D01*
X615360Y515129D01*
X615382Y515151D01*
X615515Y515240D01*
X615648Y515285D01*
X615737Y515307D01*
X615759D01*
X615892Y515285D01*
D02*
G37*
G36*
X552415Y509210D02*
X552548Y509144D01*
X552637Y509077D01*
X552659Y509055D01*
X552748Y508922D01*
X552792Y508788D01*
X552814Y508700D01*
Y508655D01*
X552792Y508500D01*
X552748Y508389D01*
X552681Y508300D01*
X552659Y508278D01*
X549285Y504926D01*
X549107Y504837D01*
X548996Y504793D01*
X548929Y504770D01*
X548907D01*
X548752Y504793D01*
X548619Y504859D01*
X548530Y504903D01*
X548507Y504926D01*
X548396Y505059D01*
X548352Y505192D01*
X548330Y505281D01*
Y505325D01*
X548352Y505481D01*
X548419Y505592D01*
X548485Y505681D01*
X548507Y505703D01*
X550905Y508122D01*
X537719D01*
X537541Y508145D01*
X537408Y508211D01*
X537319Y508256D01*
X537297Y508278D01*
X537230Y508455D01*
X537208Y508589D01*
X537186Y508655D01*
Y508677D01*
X537208Y508833D01*
X537252Y508966D01*
X537275Y509055D01*
X537297Y509077D01*
X537430Y509166D01*
X537563Y509210D01*
X537674Y509232D01*
X537719D01*
X552259D01*
X552415Y509210D01*
D02*
G37*
G36*
X541226Y502484D02*
X541359Y502417D01*
X541448Y502351D01*
X541470Y502328D01*
X541581Y502195D01*
X541626Y502084D01*
X541648Y501995D01*
Y500286D01*
X544423D01*
X544600Y500264D01*
X544734Y500197D01*
X544822Y500131D01*
X544845Y500108D01*
X544933Y499975D01*
X544978Y499864D01*
X545000Y499775D01*
Y499731D01*
X544978Y499576D01*
X544911Y499442D01*
X544822Y499354D01*
X544800Y499331D01*
X544667Y499243D01*
X544534Y499198D01*
X544445Y499176D01*
X544423D01*
X541648D01*
Y495935D01*
X552126Y498022D01*
X552259Y498044D01*
X552415Y498022D01*
X552548Y497955D01*
X552637Y497888D01*
X552659Y497866D01*
X552748Y497733D01*
X552792Y497600D01*
X552814Y497511D01*
Y497467D01*
X552681Y497112D01*
X552592Y497023D01*
X552481Y496956D01*
X552393Y496934D01*
X552348D01*
X541204Y494692D01*
X541071D01*
X540915Y494714D01*
X540804Y494781D01*
X540715Y494825D01*
X540693Y494847D01*
X540605Y494980D01*
X540560Y495113D01*
X540538Y495202D01*
Y499176D01*
X537719D01*
X537541Y499198D01*
X537408Y499265D01*
X537319Y499309D01*
X537297Y499331D01*
X537230Y499509D01*
X537208Y499642D01*
X537186Y499709D01*
Y499731D01*
X537208Y499886D01*
X537252Y500020D01*
X537275Y500108D01*
X537297Y500131D01*
X537430Y500219D01*
X537563Y500264D01*
X537674Y500286D01*
X537719D01*
X540538D01*
Y501951D01*
X540560Y502129D01*
X540627Y502262D01*
X540693Y502328D01*
X540715Y502351D01*
X540849Y502439D01*
X540982Y502484D01*
X541071Y502506D01*
X541093D01*
X541226Y502484D01*
D02*
G37*
G36*
X552393Y492449D02*
X552526Y492383D01*
X552615Y492294D01*
X552637Y492272D01*
X552748Y492139D01*
X552792Y492028D01*
X552814Y491939D01*
Y488853D01*
X552770Y488609D01*
X552659Y488143D01*
X552481Y487743D01*
X552304Y487388D01*
X552126Y487099D01*
X551949Y486900D01*
X551838Y486766D01*
X551815Y486744D01*
X551793Y486722D01*
X551593Y486544D01*
X551416Y486411D01*
X551016Y486167D01*
X550616Y486012D01*
X550261Y485878D01*
X549928Y485812D01*
X549684Y485790D01*
X549595Y485768D01*
X549529D01*
X549484D01*
X549462D01*
X540516D01*
X540271Y485790D01*
X540027Y485812D01*
X539561Y485923D01*
X539161Y486101D01*
X538829Y486278D01*
X538540Y486456D01*
X538340Y486633D01*
X538207Y486744D01*
X538185Y486789D01*
X538162D01*
X537985Y486988D01*
X537852Y487188D01*
X537607Y487588D01*
X537430Y487965D01*
X537319Y488343D01*
X537230Y488653D01*
X537208Y488898D01*
X537186Y488986D01*
Y491894D01*
X537208Y492072D01*
X537275Y492205D01*
X537341Y492294D01*
X537363Y492316D01*
X537496Y492405D01*
X537630Y492449D01*
X537719Y492472D01*
X537741D01*
X537874Y492449D01*
X538007Y492383D01*
X538096Y492294D01*
X538118Y492272D01*
X538229Y492139D01*
X538274Y492028D01*
X538296Y491939D01*
Y489120D01*
X538318Y488787D01*
X538407Y488476D01*
X538495Y488209D01*
X538629Y487965D01*
X538740Y487788D01*
X538851Y487632D01*
X538917Y487543D01*
X538940Y487521D01*
X539206Y487299D01*
X539472Y487144D01*
X539739Y487033D01*
X539983Y486966D01*
X540183Y486922D01*
X540360Y486877D01*
X540471D01*
X540516D01*
X549462D01*
X549795Y486900D01*
X550106Y486988D01*
X550395Y487077D01*
X550616Y487210D01*
X550816Y487321D01*
X550950Y487432D01*
X551038Y487499D01*
X551060Y487521D01*
X551283Y487788D01*
X551438Y488054D01*
X551549Y488320D01*
X551615Y488565D01*
X551682Y488787D01*
X551704Y488964D01*
Y491894D01*
X551726Y492072D01*
X551793Y492205D01*
X551860Y492294D01*
X551882Y492316D01*
X552015Y492405D01*
X552148Y492449D01*
X552237Y492472D01*
X552259D01*
X552393Y492449D01*
D02*
G37*
G36*
X521498Y490181D02*
X521587Y490092D01*
X521654Y489981D01*
X521676Y489893D01*
Y489848D01*
X523918Y478704D01*
Y478571D01*
X523896Y478415D01*
X523829Y478304D01*
X523785Y478215D01*
X523763Y478193D01*
X523630Y478105D01*
X523496Y478060D01*
X523408Y478038D01*
X519434D01*
Y475219D01*
X519412Y475041D01*
X519345Y474908D01*
X519301Y474819D01*
X519278Y474797D01*
X519101Y474730D01*
X518968Y474708D01*
X518901Y474686D01*
X518879D01*
X518723Y474708D01*
X518590Y474752D01*
X518502Y474775D01*
X518479Y474797D01*
X518391Y474930D01*
X518346Y475063D01*
X518324Y475174D01*
Y475219D01*
Y478038D01*
X516659D01*
X516481Y478060D01*
X516348Y478127D01*
X516282Y478193D01*
X516259Y478215D01*
X516171Y478349D01*
X516126Y478482D01*
X516104Y478571D01*
Y478593D01*
X516126Y478726D01*
X516193Y478859D01*
X516259Y478948D01*
X516282Y478970D01*
X516415Y479081D01*
X516526Y479126D01*
X516615Y479148D01*
X518324D01*
Y481923D01*
X518346Y482100D01*
X518413Y482234D01*
X518479Y482322D01*
X518502Y482345D01*
X518635Y482433D01*
X518746Y482478D01*
X518834Y482500D01*
X518879D01*
X519034Y482478D01*
X519168Y482411D01*
X519256Y482322D01*
X519278Y482300D01*
X519367Y482167D01*
X519412Y482034D01*
X519434Y481945D01*
Y481923D01*
Y479148D01*
X522675D01*
X520588Y489626D01*
X520566Y489759D01*
X520588Y489915D01*
X520655Y490048D01*
X520722Y490137D01*
X520744Y490159D01*
X520877Y490248D01*
X521010Y490292D01*
X521099Y490314D01*
X521143D01*
X521498Y490181D01*
D02*
G37*
G36*
X530001Y490270D02*
X530467Y490159D01*
X530867Y489981D01*
X531222Y489804D01*
X531511Y489626D01*
X531710Y489449D01*
X531843Y489338D01*
X531866Y489315D01*
X531888Y489293D01*
X532066Y489093D01*
X532199Y488916D01*
X532443Y488516D01*
X532598Y488116D01*
X532732Y487761D01*
X532798Y487428D01*
X532820Y487184D01*
X532842Y487095D01*
Y487029D01*
Y486984D01*
Y486962D01*
Y478016D01*
X532820Y477771D01*
X532798Y477527D01*
X532687Y477061D01*
X532509Y476661D01*
X532332Y476329D01*
X532154Y476040D01*
X531977Y475840D01*
X531866Y475707D01*
X531821Y475685D01*
Y475662D01*
X531622Y475485D01*
X531422Y475352D01*
X531022Y475107D01*
X530645Y474930D01*
X530267Y474819D01*
X529957Y474730D01*
X529712Y474708D01*
X529623Y474686D01*
X526715D01*
X526538Y474708D01*
X526405Y474775D01*
X526316Y474841D01*
X526294Y474863D01*
X526205Y474996D01*
X526160Y475130D01*
X526138Y475219D01*
Y475241D01*
X526160Y475374D01*
X526227Y475507D01*
X526316Y475596D01*
X526338Y475618D01*
X526471Y475729D01*
X526582Y475774D01*
X526671Y475796D01*
X529490D01*
X529823Y475818D01*
X530134Y475907D01*
X530401Y475995D01*
X530645Y476129D01*
X530822Y476240D01*
X530978Y476351D01*
X531067Y476417D01*
X531089Y476440D01*
X531311Y476706D01*
X531466Y476972D01*
X531577Y477239D01*
X531644Y477483D01*
X531688Y477683D01*
X531732Y477860D01*
Y477971D01*
Y478016D01*
Y486962D01*
X531710Y487295D01*
X531622Y487606D01*
X531533Y487895D01*
X531399Y488116D01*
X531288Y488316D01*
X531177Y488450D01*
X531111Y488538D01*
X531089Y488560D01*
X530822Y488783D01*
X530556Y488938D01*
X530289Y489049D01*
X530045Y489115D01*
X529823Y489182D01*
X529646Y489204D01*
X526715D01*
X526538Y489226D01*
X526405Y489293D01*
X526316Y489360D01*
X526294Y489382D01*
X526205Y489515D01*
X526160Y489648D01*
X526138Y489737D01*
Y489759D01*
X526160Y489893D01*
X526227Y490026D01*
X526316Y490115D01*
X526338Y490137D01*
X526471Y490248D01*
X526582Y490292D01*
X526671Y490314D01*
X529757D01*
X530001Y490270D01*
D02*
G37*
G36*
X513484Y490292D02*
X513618Y490225D01*
X513729Y490137D01*
X513795Y490026D01*
X513840Y489915D01*
X513862Y489826D01*
Y489759D01*
Y489737D01*
Y483033D01*
X513840Y482855D01*
X513773Y482722D01*
X513684Y482611D01*
X513573Y482544D01*
X513484Y482500D01*
X513396Y482478D01*
X510510D01*
X510177Y482456D01*
X509866Y482367D01*
X509599Y482278D01*
X509378Y482145D01*
X509178Y482034D01*
X509044Y481923D01*
X508956Y481834D01*
X508933Y481812D01*
X508712Y481568D01*
X508556Y481301D01*
X508423Y481035D01*
X508356Y480791D01*
X508312Y480591D01*
X508268Y480413D01*
Y480302D01*
Y480258D01*
Y478016D01*
X508290Y477683D01*
X508378Y477372D01*
X508467Y477105D01*
X508601Y476884D01*
X508712Y476684D01*
X508823Y476550D01*
X508911Y476462D01*
X508933Y476440D01*
X509178Y476217D01*
X509444Y476062D01*
X509711Y475951D01*
X509955Y475885D01*
X510177Y475840D01*
X510354Y475796D01*
X513307D01*
X513484Y475751D01*
X513618Y475685D01*
X513706Y475618D01*
X513729Y475574D01*
X513795Y475418D01*
X513840Y475330D01*
X513862Y475263D01*
Y475241D01*
X513840Y475085D01*
X513795Y474952D01*
X513751Y474863D01*
X513729Y474841D01*
X513595Y474752D01*
X513462Y474708D01*
X513351Y474686D01*
X510510D01*
X510266Y474708D01*
X510021Y474730D01*
X509555Y474841D01*
X509156Y474996D01*
X508823Y475174D01*
X508534Y475352D01*
X508334Y475507D01*
X508201Y475618D01*
X508157Y475662D01*
X507979Y475840D01*
X507823Y476040D01*
X507579Y476440D01*
X507402Y476839D01*
X507291Y477216D01*
X507202Y477527D01*
X507180Y477794D01*
X507158Y477882D01*
Y477949D01*
Y477994D01*
Y478016D01*
Y480236D01*
Y480480D01*
X507202Y480724D01*
X507313Y481190D01*
X507468Y481590D01*
X507646Y481923D01*
X507846Y482211D01*
X508001Y482411D01*
X508112Y482544D01*
X508134Y482589D01*
X508157D01*
X508334Y482766D01*
X508534Y482922D01*
X508933Y483166D01*
X509333Y483344D01*
X509688Y483455D01*
X510021Y483543D01*
X510288Y483566D01*
X510377Y483588D01*
X512752D01*
Y489204D01*
X507735D01*
X507557Y489226D01*
X507424Y489293D01*
X507335Y489360D01*
X507313Y489382D01*
X507224Y489515D01*
X507180Y489648D01*
X507158Y489737D01*
Y489759D01*
X507180Y489893D01*
X507246Y490026D01*
X507335Y490115D01*
X507357Y490137D01*
X507491Y490248D01*
X507602Y490292D01*
X507690Y490314D01*
X513307D01*
X513484Y490292D01*
D02*
G37*
G36*
X522053Y507681D02*
X522142Y507592D01*
X522209Y507481D01*
X522231Y507393D01*
Y507348D01*
X524473Y496204D01*
Y496071D01*
X524451Y495915D01*
X524384Y495804D01*
X524340Y495715D01*
X524318Y495693D01*
X524185Y495605D01*
X524051Y495560D01*
X523963Y495538D01*
X519989D01*
Y492719D01*
X519967Y492541D01*
X519900Y492408D01*
X519856Y492319D01*
X519833Y492297D01*
X519656Y492230D01*
X519523Y492208D01*
X519456Y492186D01*
X519434D01*
X519278Y492208D01*
X519145Y492252D01*
X519057Y492275D01*
X519034Y492297D01*
X518946Y492430D01*
X518901Y492563D01*
X518879Y492674D01*
Y492719D01*
Y495538D01*
X517214D01*
X517036Y495560D01*
X516903Y495627D01*
X516837Y495693D01*
X516814Y495715D01*
X516726Y495849D01*
X516681Y495982D01*
X516659Y496071D01*
Y496093D01*
X516681Y496226D01*
X516748Y496359D01*
X516814Y496448D01*
X516837Y496470D01*
X516970Y496581D01*
X517081Y496626D01*
X517170Y496648D01*
X518879D01*
Y499423D01*
X518901Y499600D01*
X518968Y499734D01*
X519034Y499822D01*
X519057Y499845D01*
X519190Y499933D01*
X519301Y499978D01*
X519389Y500000D01*
X519434D01*
X519589Y499978D01*
X519723Y499911D01*
X519811Y499822D01*
X519833Y499800D01*
X519922Y499667D01*
X519967Y499534D01*
X519989Y499445D01*
Y499423D01*
Y496648D01*
X523230D01*
X521143Y507126D01*
X521121Y507259D01*
X521143Y507415D01*
X521210Y507548D01*
X521277Y507637D01*
X521299Y507659D01*
X521432Y507748D01*
X521565Y507792D01*
X521654Y507814D01*
X521698D01*
X522053Y507681D01*
D02*
G37*
G36*
X511997D02*
X512086Y507592D01*
X512152Y507481D01*
X512175Y507393D01*
Y507348D01*
X514417Y496204D01*
Y496071D01*
X514395Y495915D01*
X514328Y495804D01*
X514284Y495715D01*
X514261Y495693D01*
X514128Y495605D01*
X513995Y495560D01*
X513906Y495538D01*
X509933D01*
Y492719D01*
X509910Y492541D01*
X509844Y492408D01*
X509799Y492319D01*
X509777Y492297D01*
X509599Y492230D01*
X509466Y492208D01*
X509400Y492186D01*
X509378D01*
X509222Y492208D01*
X509089Y492252D01*
X509000Y492275D01*
X508978Y492297D01*
X508889Y492430D01*
X508845Y492563D01*
X508823Y492674D01*
Y492719D01*
Y495538D01*
X507158D01*
X506980Y495560D01*
X506847Y495627D01*
X506780Y495693D01*
X506758Y495715D01*
X506669Y495849D01*
X506625Y495982D01*
X506603Y496071D01*
Y496093D01*
X506625Y496226D01*
X506691Y496359D01*
X506758Y496448D01*
X506780Y496470D01*
X506913Y496581D01*
X507024Y496626D01*
X507113Y496648D01*
X508823D01*
Y499423D01*
X508845Y499600D01*
X508911Y499734D01*
X508978Y499822D01*
X509000Y499845D01*
X509133Y499933D01*
X509244Y499978D01*
X509333Y500000D01*
X509378D01*
X509533Y499978D01*
X509666Y499911D01*
X509755Y499822D01*
X509777Y499800D01*
X509866Y499667D01*
X509910Y499534D01*
X509933Y499445D01*
Y499423D01*
Y496648D01*
X513174D01*
X511087Y507126D01*
X511065Y507259D01*
X511087Y507415D01*
X511153Y507548D01*
X511220Y507637D01*
X511242Y507659D01*
X511376Y507748D01*
X511509Y507792D01*
X511598Y507814D01*
X511642D01*
X511997Y507681D01*
D02*
G37*
G36*
X530556Y507770D02*
X531022Y507659D01*
X531422Y507481D01*
X531777Y507304D01*
X532066Y507126D01*
X532265Y506949D01*
X532398Y506838D01*
X532421Y506815D01*
X532443Y506793D01*
X532621Y506593D01*
X532754Y506416D01*
X532998Y506016D01*
X533153Y505616D01*
X533287Y505261D01*
X533353Y504928D01*
X533375Y504684D01*
X533397Y504595D01*
Y504529D01*
Y504484D01*
Y504462D01*
Y495516D01*
X533375Y495271D01*
X533353Y495027D01*
X533242Y494561D01*
X533064Y494161D01*
X532887Y493829D01*
X532709Y493540D01*
X532532Y493340D01*
X532421Y493207D01*
X532376Y493185D01*
Y493162D01*
X532177Y492985D01*
X531977Y492852D01*
X531577Y492607D01*
X531200Y492430D01*
X530822Y492319D01*
X530512Y492230D01*
X530267Y492208D01*
X530178Y492186D01*
X527270D01*
X527093Y492208D01*
X526960Y492275D01*
X526871Y492341D01*
X526849Y492363D01*
X526760Y492496D01*
X526715Y492630D01*
X526693Y492719D01*
Y492741D01*
X526715Y492874D01*
X526782Y493007D01*
X526871Y493096D01*
X526893Y493118D01*
X527026Y493229D01*
X527137Y493274D01*
X527226Y493296D01*
X530045D01*
X530378Y493318D01*
X530689Y493407D01*
X530956Y493495D01*
X531200Y493629D01*
X531377Y493740D01*
X531533Y493851D01*
X531622Y493917D01*
X531644Y493940D01*
X531866Y494206D01*
X532021Y494472D01*
X532132Y494739D01*
X532199Y494983D01*
X532243Y495183D01*
X532287Y495360D01*
Y495471D01*
Y495516D01*
Y504462D01*
X532265Y504795D01*
X532177Y505106D01*
X532088Y505395D01*
X531954Y505616D01*
X531843Y505816D01*
X531732Y505950D01*
X531666Y506038D01*
X531644Y506060D01*
X531377Y506283D01*
X531111Y506438D01*
X530844Y506549D01*
X530600Y506615D01*
X530378Y506682D01*
X530201Y506704D01*
X527270D01*
X527093Y506726D01*
X526960Y506793D01*
X526871Y506860D01*
X526849Y506882D01*
X526760Y507015D01*
X526715Y507148D01*
X526693Y507237D01*
Y507259D01*
X526715Y507393D01*
X526782Y507526D01*
X526871Y507615D01*
X526893Y507637D01*
X527026Y507748D01*
X527137Y507792D01*
X527226Y507814D01*
X530312D01*
X530556Y507770D01*
D02*
G37*
G36*
X573408Y476693D02*
X573685Y476638D01*
X573926Y476564D01*
X574148Y476490D01*
X574333Y476416D01*
X574482Y476342D01*
X574556Y476286D01*
X574593Y476268D01*
X574833Y476101D01*
X575056Y475916D01*
X575222Y475749D01*
X575370Y475582D01*
X575481Y475434D01*
X575555Y475323D01*
X575592Y475249D01*
X575611Y475212D01*
X575778Y475397D01*
X575963Y475545D01*
X576111Y475694D01*
X576259Y475805D01*
X576389Y475879D01*
X576481Y475934D01*
X576555Y475971D01*
X576574Y475990D01*
X576778Y476082D01*
X576944Y476138D01*
X577018Y476156D01*
X577074Y476175D01*
X577092D01*
X577111D01*
X577296Y476249D01*
X577481D01*
X577777D01*
X578722D01*
X578944D01*
X579148Y476212D01*
X579518Y476119D01*
X579870Y475990D01*
X580148Y475842D01*
X580388Y475694D01*
X580555Y475564D01*
X580666Y475471D01*
X580703Y475453D01*
Y475434D01*
X580851Y475286D01*
X580981Y475119D01*
X581166Y474786D01*
X581314Y474453D01*
X581425Y474138D01*
X581481Y473860D01*
X581499Y473657D01*
X581518Y473564D01*
Y471583D01*
X581481Y471435D01*
X581425Y471324D01*
X581370Y471250D01*
X581333Y471231D01*
X581203Y471175D01*
X581129Y471138D01*
X581073Y471120D01*
X581055D01*
X580925Y471138D01*
X580814Y471175D01*
X580740Y471212D01*
X580722Y471231D01*
X580648Y471342D01*
X580611Y471453D01*
X580592Y471546D01*
Y473453D01*
X580574Y473731D01*
X580499Y473990D01*
X580425Y474212D01*
X580314Y474397D01*
X580222Y474564D01*
X580129Y474675D01*
X580055Y474749D01*
X580037Y474768D01*
X579833Y474953D01*
X579611Y475082D01*
X579388Y475193D01*
X579185Y475249D01*
X579000Y475286D01*
X578851Y475323D01*
X578759D01*
X578722D01*
X577777D01*
X577500Y475305D01*
X577240Y475230D01*
X577018Y475157D01*
X576833Y475045D01*
X576666Y474953D01*
X576555Y474860D01*
X576481Y474786D01*
X576463Y474768D01*
X576278Y474564D01*
X576148Y474342D01*
X576055Y474119D01*
X576000Y473916D01*
X575963Y473731D01*
X575926Y473583D01*
Y473453D01*
X575889Y473305D01*
X575833Y473194D01*
X575778Y473120D01*
X575741Y473101D01*
X575611Y473046D01*
X575537Y473009D01*
X575481Y472990D01*
X575463D01*
X575333Y473009D01*
X575222Y473046D01*
X575148Y473083D01*
X575130Y473101D01*
X575056Y473212D01*
X575019Y473323D01*
X575000Y473416D01*
Y473916D01*
X574981Y474194D01*
X574907Y474453D01*
X574833Y474694D01*
X574722Y474879D01*
X574630Y475045D01*
X574537Y475157D01*
X574463Y475230D01*
X574445Y475249D01*
X574241Y475434D01*
X574019Y475564D01*
X573796Y475656D01*
X573593Y475712D01*
X573408Y475768D01*
X573259Y475786D01*
X573167D01*
X573130D01*
X571260D01*
X570982Y475768D01*
X570723Y475694D01*
X570500Y475619D01*
X570315Y475508D01*
X570149Y475416D01*
X570037Y475323D01*
X569963Y475249D01*
X569945Y475230D01*
X569760Y475027D01*
X569630Y474805D01*
X569538Y474582D01*
X569482Y474379D01*
X569445Y474194D01*
X569408Y474045D01*
Y471583D01*
X569371Y471435D01*
X569315Y471324D01*
X569260Y471250D01*
X569223Y471231D01*
X569093Y471175D01*
X569019Y471138D01*
X568964Y471120D01*
X568945D01*
X568815Y471138D01*
X568704Y471175D01*
X568630Y471212D01*
X568612Y471231D01*
X568538Y471342D01*
X568501Y471453D01*
X568482Y471546D01*
Y473916D01*
X568501Y474119D01*
X568519Y474323D01*
X568612Y474712D01*
X568741Y475045D01*
X568890Y475323D01*
X569019Y475564D01*
X569149Y475731D01*
X569241Y475842D01*
X569278Y475879D01*
X569426Y476027D01*
X569593Y476156D01*
X569926Y476360D01*
X570260Y476508D01*
X570574Y476601D01*
X570852Y476675D01*
X571074Y476693D01*
X571148Y476712D01*
X571204D01*
X571241D01*
X571260D01*
X573130D01*
X573408Y476693D01*
D02*
G37*
G36*
X571852Y469231D02*
X571963Y469176D01*
X572037Y469120D01*
X572056Y469102D01*
X572148Y468991D01*
X572186Y468898D01*
X572204Y468824D01*
Y467398D01*
X574519D01*
X574667Y467379D01*
X574778Y467324D01*
X574852Y467268D01*
X574870Y467250D01*
X574944Y467139D01*
X574981Y467046D01*
X575000Y466972D01*
Y466935D01*
X574981Y466805D01*
X574926Y466694D01*
X574852Y466620D01*
X574833Y466602D01*
X574722Y466528D01*
X574611Y466491D01*
X574537Y466472D01*
X574519D01*
X572204D01*
Y463769D01*
X580944Y465509D01*
X581055Y465528D01*
X581185Y465509D01*
X581296Y465454D01*
X581370Y465398D01*
X581388Y465380D01*
X581462Y465269D01*
X581499Y465158D01*
X581518Y465083D01*
Y465046D01*
X581407Y464750D01*
X581333Y464676D01*
X581240Y464621D01*
X581166Y464602D01*
X581129D01*
X571834Y462732D01*
X571723D01*
X571593Y462750D01*
X571500Y462806D01*
X571426Y462843D01*
X571408Y462862D01*
X571334Y462973D01*
X571297Y463084D01*
X571278Y463158D01*
Y466472D01*
X568927D01*
X568778Y466491D01*
X568667Y466546D01*
X568593Y466583D01*
X568575Y466602D01*
X568519Y466750D01*
X568501Y466861D01*
X568482Y466917D01*
Y466935D01*
X568501Y467065D01*
X568538Y467176D01*
X568556Y467250D01*
X568575Y467268D01*
X568686Y467342D01*
X568797Y467379D01*
X568890Y467398D01*
X568927D01*
X571278D01*
Y468787D01*
X571297Y468935D01*
X571352Y469046D01*
X571408Y469102D01*
X571426Y469120D01*
X571537Y469194D01*
X571648Y469231D01*
X571723Y469250D01*
X571741D01*
X571852Y469231D01*
D02*
G37*
G36*
X581166Y460862D02*
X581277Y460806D01*
X581351Y460732D01*
X581370Y460714D01*
X581462Y460602D01*
X581499Y460510D01*
X581518Y460436D01*
Y457862D01*
X581481Y457658D01*
X581388Y457269D01*
X581240Y456936D01*
X581092Y456640D01*
X580944Y456399D01*
X580796Y456232D01*
X580703Y456121D01*
X580685Y456103D01*
X580666Y456084D01*
X580499Y455936D01*
X580351Y455825D01*
X580018Y455621D01*
X579685Y455492D01*
X579388Y455381D01*
X579111Y455325D01*
X578907Y455307D01*
X578833Y455288D01*
X578777D01*
X578740D01*
X578722D01*
X571260D01*
X571056Y455307D01*
X570852Y455325D01*
X570463Y455418D01*
X570130Y455566D01*
X569852Y455714D01*
X569612Y455862D01*
X569445Y456010D01*
X569334Y456103D01*
X569315Y456140D01*
X569297D01*
X569149Y456307D01*
X569038Y456473D01*
X568834Y456806D01*
X568686Y457121D01*
X568593Y457436D01*
X568519Y457695D01*
X568501Y457899D01*
X568482Y457973D01*
Y460399D01*
X568501Y460547D01*
X568556Y460658D01*
X568612Y460732D01*
X568630Y460751D01*
X568741Y460825D01*
X568853Y460862D01*
X568927Y460880D01*
X568945D01*
X569056Y460862D01*
X569167Y460806D01*
X569241Y460732D01*
X569260Y460714D01*
X569352Y460602D01*
X569389Y460510D01*
X569408Y460436D01*
Y458084D01*
X569426Y457806D01*
X569501Y457547D01*
X569575Y457325D01*
X569686Y457121D01*
X569778Y456973D01*
X569871Y456844D01*
X569926Y456769D01*
X569945Y456751D01*
X570167Y456566D01*
X570389Y456436D01*
X570612Y456344D01*
X570815Y456288D01*
X570982Y456251D01*
X571130Y456214D01*
X571223D01*
X571260D01*
X578722D01*
X579000Y456232D01*
X579259Y456307D01*
X579500Y456381D01*
X579685Y456492D01*
X579851Y456584D01*
X579962Y456677D01*
X580037Y456732D01*
X580055Y456751D01*
X580240Y456973D01*
X580370Y457195D01*
X580462Y457418D01*
X580518Y457621D01*
X580574Y457806D01*
X580592Y457955D01*
Y460399D01*
X580611Y460547D01*
X580666Y460658D01*
X580722Y460732D01*
X580740Y460751D01*
X580851Y460825D01*
X580962Y460862D01*
X581036Y460880D01*
X581055D01*
X581166Y460862D01*
D02*
G37*
G36*
X529990Y472770D02*
X530456Y472659D01*
X530856Y472481D01*
X531211Y472304D01*
X531499Y472126D01*
X531699Y471949D01*
X531832Y471838D01*
X531855Y471815D01*
X531877Y471793D01*
X532054Y471593D01*
X532188Y471416D01*
X532432Y471016D01*
X532587Y470616D01*
X532720Y470261D01*
X532787Y469928D01*
X532809Y469684D01*
X532831Y469595D01*
Y469529D01*
Y469484D01*
Y469462D01*
Y460516D01*
X532809Y460271D01*
X532787Y460027D01*
X532676Y459561D01*
X532498Y459161D01*
X532321Y458829D01*
X532143Y458540D01*
X531966Y458340D01*
X531855Y458207D01*
X531810Y458185D01*
Y458162D01*
X531610Y457985D01*
X531411Y457852D01*
X531011Y457607D01*
X530634Y457430D01*
X530256Y457319D01*
X529945Y457230D01*
X529701Y457208D01*
X529612Y457186D01*
X526704D01*
X526527Y457208D01*
X526394Y457275D01*
X526305Y457341D01*
X526283Y457363D01*
X526194Y457496D01*
X526149Y457630D01*
X526127Y457719D01*
Y457741D01*
X526149Y457874D01*
X526216Y458007D01*
X526305Y458096D01*
X526327Y458118D01*
X526460Y458229D01*
X526571Y458274D01*
X526660Y458296D01*
X529479D01*
X529812Y458318D01*
X530123Y458407D01*
X530389Y458495D01*
X530634Y458629D01*
X530811Y458740D01*
X530967Y458851D01*
X531055Y458917D01*
X531078Y458940D01*
X531300Y459206D01*
X531455Y459472D01*
X531566Y459739D01*
X531633Y459983D01*
X531677Y460183D01*
X531721Y460360D01*
Y460471D01*
Y460516D01*
Y469462D01*
X531699Y469795D01*
X531610Y470106D01*
X531522Y470395D01*
X531388Y470616D01*
X531277Y470816D01*
X531166Y470950D01*
X531100Y471038D01*
X531078Y471060D01*
X530811Y471283D01*
X530545Y471438D01*
X530278Y471549D01*
X530034Y471615D01*
X529812Y471682D01*
X529635Y471704D01*
X526704D01*
X526527Y471726D01*
X526394Y471793D01*
X526305Y471860D01*
X526283Y471882D01*
X526194Y472015D01*
X526149Y472148D01*
X526127Y472237D01*
Y472259D01*
X526149Y472393D01*
X526216Y472526D01*
X526305Y472615D01*
X526327Y472637D01*
X526460Y472748D01*
X526571Y472792D01*
X526660Y472814D01*
X529746D01*
X529990Y472770D01*
D02*
G37*
G36*
X523530Y472792D02*
X523663Y472725D01*
X523774Y472637D01*
X523840Y472526D01*
X523885Y472415D01*
X523907Y472326D01*
Y472259D01*
Y472237D01*
Y465533D01*
X523885Y465355D01*
X523818Y465222D01*
X523730Y465111D01*
X523619Y465044D01*
X523530Y465000D01*
X523441Y464978D01*
X520555D01*
X520222Y464956D01*
X519911Y464867D01*
X519645Y464778D01*
X519423Y464645D01*
X519223Y464534D01*
X519090Y464423D01*
X519001Y464334D01*
X518979Y464312D01*
X518757Y464068D01*
X518601Y463801D01*
X518468Y463535D01*
X518402Y463291D01*
X518357Y463091D01*
X518313Y462913D01*
Y462802D01*
Y462758D01*
Y460516D01*
X518335Y460183D01*
X518424Y459872D01*
X518513Y459605D01*
X518646Y459384D01*
X518757Y459184D01*
X518868Y459050D01*
X518957Y458962D01*
X518979Y458940D01*
X519223Y458717D01*
X519489Y458562D01*
X519756Y458451D01*
X520000Y458385D01*
X520222Y458340D01*
X520400Y458296D01*
X523352D01*
X523530Y458251D01*
X523663Y458185D01*
X523752Y458118D01*
X523774Y458074D01*
X523840Y457918D01*
X523885Y457830D01*
X523907Y457763D01*
Y457741D01*
X523885Y457585D01*
X523840Y457452D01*
X523796Y457363D01*
X523774Y457341D01*
X523641Y457252D01*
X523507Y457208D01*
X523396Y457186D01*
X520555D01*
X520311Y457208D01*
X520067Y457230D01*
X519600Y457341D01*
X519201Y457496D01*
X518868Y457674D01*
X518579Y457852D01*
X518379Y458007D01*
X518246Y458118D01*
X518202Y458162D01*
X518024Y458340D01*
X517869Y458540D01*
X517625Y458940D01*
X517447Y459339D01*
X517336Y459716D01*
X517247Y460027D01*
X517225Y460294D01*
X517203Y460382D01*
Y460449D01*
Y460494D01*
Y460516D01*
Y462736D01*
Y462980D01*
X517247Y463224D01*
X517358Y463690D01*
X517514Y464090D01*
X517691Y464423D01*
X517891Y464711D01*
X518046Y464911D01*
X518157Y465044D01*
X518180Y465089D01*
X518202D01*
X518379Y465266D01*
X518579Y465422D01*
X518979Y465666D01*
X519378Y465844D01*
X519734Y465955D01*
X520067Y466043D01*
X520333Y466066D01*
X520422Y466088D01*
X522797D01*
Y471704D01*
X517780D01*
X517602Y471726D01*
X517469Y471793D01*
X517380Y471860D01*
X517358Y471882D01*
X517270Y472015D01*
X517225Y472148D01*
X517203Y472237D01*
Y472259D01*
X517225Y472393D01*
X517292Y472526D01*
X517380Y472615D01*
X517403Y472637D01*
X517536Y472748D01*
X517647Y472792D01*
X517736Y472814D01*
X523352D01*
X523530Y472792D01*
D02*
G37*
G36*
X512141Y472770D02*
X512607Y472659D01*
X513007Y472481D01*
X513362Y472304D01*
X513651Y472126D01*
X513851Y471949D01*
X513984Y471838D01*
X514006Y471815D01*
X514028Y471793D01*
X514206Y471593D01*
X514339Y471416D01*
X514583Y471016D01*
X514739Y470616D01*
X514872Y470261D01*
X514939Y469928D01*
X514961Y469684D01*
X514983Y469595D01*
Y469529D01*
Y469484D01*
Y469462D01*
Y467220D01*
X514961Y466954D01*
X514939Y466709D01*
X514827Y466265D01*
X514672Y465844D01*
X514495Y465511D01*
X514339Y465222D01*
X514184Y465022D01*
X514073Y464889D01*
X514028Y464867D01*
Y464845D01*
X513851Y464667D01*
X513651Y464534D01*
X513251Y464290D01*
X512830Y464134D01*
X512452Y464001D01*
X512141Y463934D01*
X511986Y463912D01*
X511875D01*
X511764Y463890D01*
X508279D01*
X508301Y463624D01*
X508323Y463335D01*
X508367Y463069D01*
X508434Y462847D01*
X508501Y462625D01*
X508545Y462469D01*
X508567Y462380D01*
X508589Y462336D01*
X508700Y462025D01*
X508834Y461759D01*
X508945Y461493D01*
X509056Y461270D01*
X509167Y461093D01*
X509233Y460938D01*
X509278Y460849D01*
X509300Y460826D01*
X509544Y460471D01*
X509788Y460183D01*
X510010Y459916D01*
X510210Y459694D01*
X510388Y459517D01*
X510521Y459406D01*
X510610Y459317D01*
X510632Y459295D01*
X510898Y459073D01*
X511054Y458962D01*
X511475Y458695D01*
X511853Y458518D01*
X512008Y458429D01*
X512141Y458385D01*
X512252Y458340D01*
X512341Y458296D01*
X512385Y458274D01*
X512408D01*
X512541Y458207D01*
X512630Y458140D01*
X512674Y458074D01*
X512696Y458051D01*
X512741Y457940D01*
X512763Y457852D01*
Y457785D01*
Y457763D01*
X512741Y457585D01*
X512674Y457452D01*
X512630Y457363D01*
X512607Y457341D01*
X512430Y457252D01*
X512319Y457208D01*
X512252Y457186D01*
X512230D01*
X512008Y457230D01*
X511586Y457408D01*
X511187Y457630D01*
X510809Y457852D01*
X510454Y458074D01*
X510121Y458340D01*
X509833Y458584D01*
X509566Y458829D01*
X509322Y459073D01*
X509100Y459295D01*
X508900Y459517D01*
X508745Y459716D01*
X508612Y459894D01*
X508501Y460027D01*
X508434Y460138D01*
X508390Y460205D01*
X508367Y460227D01*
X508145Y460605D01*
X507968Y460982D01*
X507812Y461337D01*
X507679Y461715D01*
X507457Y462425D01*
X507391Y462780D01*
X507324Y463091D01*
X507257Y463379D01*
X507235Y463646D01*
X507213Y463890D01*
X507191Y464090D01*
X507169Y464267D01*
Y464378D01*
Y464467D01*
Y464489D01*
Y469462D01*
Y469795D01*
X507235Y470150D01*
X507413Y470750D01*
X507524Y470972D01*
X507635Y471171D01*
X507746Y471349D01*
X507879Y471505D01*
X507968Y471638D01*
X508057Y471726D01*
X508123Y471793D01*
X508145Y471815D01*
X508345Y471993D01*
X508523Y472148D01*
X508945Y472393D01*
X509344Y472570D01*
X509699Y472681D01*
X510032Y472770D01*
X510299Y472792D01*
X510388Y472814D01*
X511897D01*
X512141Y472770D01*
D02*
G37*
G36*
X513867Y438042D02*
X514000Y437976D01*
X514111Y437887D01*
X514177Y437776D01*
X514222Y437665D01*
X514244Y437576D01*
Y437509D01*
Y437487D01*
Y435844D01*
X514222Y435667D01*
X514155Y435533D01*
X514111Y435445D01*
X514089Y435423D01*
X513911Y435356D01*
X513778Y435312D01*
X513711Y435289D01*
X513689D01*
X513534Y435312D01*
X513400Y435356D01*
X513312Y435400D01*
X513289Y435423D01*
X513201Y435556D01*
X513156Y435689D01*
X513134Y435800D01*
Y435844D01*
Y436954D01*
X507673D01*
X510892Y423102D01*
X510914Y422968D01*
X510892Y422791D01*
X510825Y422680D01*
X510759Y422591D01*
X510736Y422569D01*
X510581Y422502D01*
X510470Y422458D01*
X510381Y422436D01*
X510337D01*
X510004Y422547D01*
X509893Y422702D01*
X509826Y422791D01*
X509804Y422835D01*
Y422858D01*
X506430Y437376D01*
X506408Y437554D01*
X506430Y437709D01*
X506474Y437820D01*
X506541Y437887D01*
X506563Y437909D01*
X506696Y437998D01*
X506829Y438042D01*
X506940Y438064D01*
X513689D01*
X513867Y438042D01*
D02*
G37*
G36*
X529251Y438020D02*
X529717Y437909D01*
X530117Y437731D01*
X530472Y437554D01*
X530760Y437376D01*
X530960Y437198D01*
X531093Y437088D01*
X531116Y437065D01*
X531138Y437043D01*
X531315Y436843D01*
X531449Y436666D01*
X531693Y436266D01*
X531848Y435867D01*
X531982Y435511D01*
X532048Y435178D01*
X532070Y434934D01*
X532093Y434845D01*
Y434779D01*
Y434734D01*
Y434712D01*
Y425766D01*
X532070Y425522D01*
X532048Y425277D01*
X531937Y424811D01*
X531759Y424412D01*
X531582Y424078D01*
X531404Y423790D01*
X531227Y423590D01*
X531116Y423457D01*
X531071Y423435D01*
Y423413D01*
X530872Y423235D01*
X530672Y423102D01*
X530272Y422858D01*
X529895Y422680D01*
X529517Y422569D01*
X529207Y422480D01*
X528962Y422458D01*
X528873Y422436D01*
X525965D01*
X525788Y422458D01*
X525655Y422524D01*
X525566Y422591D01*
X525544Y422613D01*
X525455Y422747D01*
X525410Y422880D01*
X525388Y422968D01*
Y422991D01*
X525410Y423124D01*
X525477Y423257D01*
X525566Y423346D01*
X525588Y423368D01*
X525721Y423479D01*
X525832Y423523D01*
X525921Y423546D01*
X528740D01*
X529073Y423568D01*
X529384Y423657D01*
X529650Y423745D01*
X529895Y423879D01*
X530072Y423990D01*
X530228Y424101D01*
X530317Y424167D01*
X530339Y424189D01*
X530561Y424456D01*
X530716Y424722D01*
X530827Y424989D01*
X530894Y425233D01*
X530938Y425433D01*
X530983Y425610D01*
Y425721D01*
Y425766D01*
Y434712D01*
X530960Y435045D01*
X530872Y435356D01*
X530783Y435644D01*
X530649Y435867D01*
X530538Y436066D01*
X530428Y436199D01*
X530361Y436288D01*
X530339Y436311D01*
X530072Y436533D01*
X529806Y436688D01*
X529539Y436799D01*
X529295Y436866D01*
X529073Y436932D01*
X528896Y436954D01*
X525965D01*
X525788Y436977D01*
X525655Y437043D01*
X525566Y437110D01*
X525544Y437132D01*
X525455Y437265D01*
X525410Y437398D01*
X525388Y437487D01*
Y437509D01*
X525410Y437643D01*
X525477Y437776D01*
X525566Y437864D01*
X525588Y437887D01*
X525721Y437998D01*
X525832Y438042D01*
X525921Y438064D01*
X529007D01*
X529251Y438020D01*
D02*
G37*
G36*
X522791Y438042D02*
X522924Y437976D01*
X523035Y437887D01*
X523102Y437776D01*
X523146Y437665D01*
X523168Y437576D01*
Y437509D01*
Y437487D01*
Y430783D01*
X523146Y430605D01*
X523079Y430472D01*
X522991Y430361D01*
X522880Y430294D01*
X522791Y430250D01*
X522702Y430228D01*
X519816D01*
X519483Y430206D01*
X519172Y430117D01*
X518906Y430028D01*
X518684Y429895D01*
X518484Y429784D01*
X518351Y429673D01*
X518262Y429584D01*
X518240Y429562D01*
X518018Y429318D01*
X517863Y429051D01*
X517729Y428785D01*
X517663Y428541D01*
X517618Y428341D01*
X517574Y428163D01*
Y428052D01*
Y428008D01*
Y425766D01*
X517596Y425433D01*
X517685Y425122D01*
X517774Y424855D01*
X517907Y424633D01*
X518018Y424434D01*
X518129Y424300D01*
X518218Y424212D01*
X518240Y424189D01*
X518484Y423968D01*
X518750Y423812D01*
X519017Y423701D01*
X519261Y423634D01*
X519483Y423590D01*
X519661Y423546D01*
X522613D01*
X522791Y423501D01*
X522924Y423435D01*
X523013Y423368D01*
X523035Y423324D01*
X523102Y423168D01*
X523146Y423079D01*
X523168Y423013D01*
Y422991D01*
X523146Y422835D01*
X523102Y422702D01*
X523057Y422613D01*
X523035Y422591D01*
X522902Y422502D01*
X522769Y422458D01*
X522658Y422436D01*
X519816D01*
X519572Y422458D01*
X519328Y422480D01*
X518862Y422591D01*
X518462Y422747D01*
X518129Y422924D01*
X517840Y423102D01*
X517640Y423257D01*
X517507Y423368D01*
X517463Y423413D01*
X517285Y423590D01*
X517130Y423790D01*
X516886Y424189D01*
X516708Y424589D01*
X516597Y424967D01*
X516508Y425277D01*
X516486Y425544D01*
X516464Y425633D01*
Y425699D01*
Y425743D01*
Y425766D01*
Y427986D01*
Y428230D01*
X516508Y428474D01*
X516619Y428940D01*
X516775Y429340D01*
X516952Y429673D01*
X517152Y429961D01*
X517308Y430161D01*
X517419Y430294D01*
X517441Y430339D01*
X517463D01*
X517640Y430516D01*
X517840Y430672D01*
X518240Y430916D01*
X518639Y431094D01*
X518995Y431205D01*
X519328Y431293D01*
X519594Y431316D01*
X519683Y431338D01*
X522058D01*
Y436954D01*
X517041D01*
X516864Y436977D01*
X516730Y437043D01*
X516642Y437110D01*
X516619Y437132D01*
X516530Y437265D01*
X516486Y437398D01*
X516464Y437487D01*
Y437509D01*
X516486Y437643D01*
X516553Y437776D01*
X516642Y437864D01*
X516664Y437887D01*
X516797Y437998D01*
X516908Y438042D01*
X516997Y438064D01*
X522613D01*
X522791Y438042D01*
D02*
G37*
%LPC*%
G36*
X521698Y395250D02*
X518346D01*
X518013Y395228D01*
X517702Y395139D01*
X517414Y395050D01*
X517192Y394917D01*
X516992Y394806D01*
X516859Y394695D01*
X516770Y394606D01*
X516748Y394584D01*
X516526Y394340D01*
X516370Y394073D01*
X516259Y393807D01*
X516193Y393563D01*
X516126Y393341D01*
X516104Y393163D01*
Y393052D01*
Y393008D01*
Y390766D01*
X516126Y390433D01*
X516215Y390122D01*
X516304Y389855D01*
X516437Y389633D01*
X516548Y389434D01*
X516659Y389300D01*
X516748Y389212D01*
X516770Y389189D01*
X517014Y388968D01*
X517281Y388812D01*
X517547Y388701D01*
X517791Y388634D01*
X518013Y388590D01*
X518191Y388546D01*
X519478D01*
X519789Y388568D01*
X520100Y388657D01*
X520366Y388745D01*
X520588Y388879D01*
X520766Y388990D01*
X520921Y389101D01*
X521010Y389167D01*
X521032Y389189D01*
X521254Y389456D01*
X521410Y389722D01*
X521543Y389989D01*
X521609Y390233D01*
X521654Y390433D01*
X521676Y390610D01*
X521698Y390721D01*
Y390766D01*
Y395250D01*
D02*
G37*
G36*
X511231Y454204D02*
X511076D01*
X510743Y454182D01*
X510432Y454093D01*
X510166Y454005D01*
X509944Y453871D01*
X509744Y453760D01*
X509611Y453649D01*
X509522Y453560D01*
X509500Y453538D01*
X509278Y453294D01*
X509122Y453028D01*
X508989Y452761D01*
X508922Y452517D01*
X508878Y452295D01*
X508834Y452118D01*
Y452006D01*
Y451962D01*
Y450830D01*
X508856Y450497D01*
X508945Y450186D01*
X509056Y449898D01*
X509167Y449676D01*
X509300Y449476D01*
X509411Y449343D01*
X509500Y449254D01*
X509522Y449232D01*
X509788Y449032D01*
X510055Y448876D01*
X510321Y448765D01*
X510565Y448699D01*
X510765Y448654D01*
X510943Y448610D01*
X511098D01*
X511431Y448632D01*
X511742Y448721D01*
X512008Y448810D01*
X512230Y448943D01*
X512430Y449054D01*
X512563Y449165D01*
X512652Y449232D01*
X512674Y449254D01*
X512896Y449498D01*
X513051Y449764D01*
X513162Y450031D01*
X513229Y450275D01*
X513274Y450497D01*
X513318Y450675D01*
Y450785D01*
Y450830D01*
Y451962D01*
X513296Y452295D01*
X513207Y452606D01*
X513118Y452895D01*
X512985Y453116D01*
X512874Y453316D01*
X512763Y453450D01*
X512696Y453538D01*
X512674Y453560D01*
X512408Y453783D01*
X512141Y453938D01*
X511875Y454049D01*
X511631Y454115D01*
X511409Y454182D01*
X511231Y454204D01*
D02*
G37*
G36*
X511808Y447500D02*
X510521D01*
X510188Y447478D01*
X509877Y447389D01*
X509588Y447300D01*
X509366Y447167D01*
X509167Y447056D01*
X509033Y446945D01*
X508945Y446856D01*
X508922Y446834D01*
X508700Y446590D01*
X508545Y446323D01*
X508434Y446057D01*
X508367Y445813D01*
X508301Y445591D01*
X508279Y445413D01*
Y445302D01*
Y445258D01*
Y443016D01*
X508301Y442683D01*
X508390Y442372D01*
X508478Y442105D01*
X508612Y441884D01*
X508723Y441684D01*
X508834Y441550D01*
X508922Y441462D01*
X508945Y441440D01*
X509189Y441217D01*
X509455Y441062D01*
X509722Y440951D01*
X509966Y440885D01*
X510188Y440840D01*
X510365Y440796D01*
X511653D01*
X511964Y440818D01*
X512275Y440907D01*
X512541Y440995D01*
X512763Y441129D01*
X512940Y441240D01*
X513096Y441351D01*
X513185Y441417D01*
X513207Y441440D01*
X513429Y441706D01*
X513584Y441972D01*
X513717Y442239D01*
X513784Y442483D01*
X513829Y442683D01*
X513851Y442860D01*
X513873Y442971D01*
Y443016D01*
Y445258D01*
X513851Y445591D01*
X513762Y445902D01*
X513673Y446168D01*
X513540Y446390D01*
X513429Y446590D01*
X513318Y446723D01*
X513251Y446812D01*
X513229Y446834D01*
X512985Y447056D01*
X512719Y447211D01*
X512452Y447345D01*
X512208Y447411D01*
X511986Y447456D01*
X511808Y447500D01*
D02*
G37*
G36*
X668363Y524204D02*
X665566D01*
X665233Y524182D01*
X664922Y524093D01*
X664656Y524005D01*
X664434Y523871D01*
X664234Y523760D01*
X664101Y523649D01*
X664012Y523560D01*
X663990Y523538D01*
X663768Y523272D01*
X663613Y523005D01*
X663479Y522739D01*
X663413Y522495D01*
X663368Y522295D01*
X663324Y522118D01*
Y522006D01*
Y521962D01*
Y520830D01*
X663346Y520497D01*
X663435Y520186D01*
X663524Y519920D01*
X663657Y519676D01*
X663768Y519498D01*
X663879Y519343D01*
X663968Y519254D01*
X663990Y519232D01*
X664256Y519010D01*
X664523Y518854D01*
X664789Y518743D01*
X665033Y518677D01*
X665233Y518632D01*
X665411Y518588D01*
X668363D01*
Y524204D01*
D02*
G37*
G36*
Y517478D02*
X665011D01*
X664678Y517456D01*
X664389Y517367D01*
X664123Y517256D01*
X663879Y517145D01*
X663701Y517012D01*
X663546Y516901D01*
X663457Y516812D01*
X663435Y516790D01*
X663213Y516523D01*
X663035Y516279D01*
X662924Y516013D01*
X662835Y515768D01*
X662791Y515569D01*
X662747Y515413D01*
Y515302D01*
Y515258D01*
Y513016D01*
X662769Y512683D01*
X662858Y512372D01*
X662969Y512083D01*
X663080Y511861D01*
X663213Y511661D01*
X663324Y511528D01*
X663413Y511440D01*
X663435Y511417D01*
X663701Y511217D01*
X663968Y511062D01*
X664234Y510951D01*
X664478Y510885D01*
X664678Y510840D01*
X664856Y510796D01*
X668363D01*
Y517478D01*
D02*
G37*
G36*
X658307Y517500D02*
X654955D01*
X654622Y517478D01*
X654311Y517389D01*
X654022Y517300D01*
X653800Y517167D01*
X653600Y517056D01*
X653467Y516945D01*
X653379Y516856D01*
X653356Y516834D01*
X653134Y516590D01*
X652979Y516323D01*
X652868Y516057D01*
X652801Y515813D01*
X652735Y515591D01*
X652712Y515413D01*
Y515302D01*
Y515258D01*
Y513016D01*
X652735Y512683D01*
X652823Y512372D01*
X652912Y512105D01*
X653046Y511884D01*
X653157Y511684D01*
X653268Y511550D01*
X653356Y511462D01*
X653379Y511440D01*
X653623Y511217D01*
X653889Y511062D01*
X654156Y510951D01*
X654400Y510885D01*
X654622Y510840D01*
X654799Y510796D01*
X656087D01*
X656398Y510818D01*
X656708Y510907D01*
X656975Y510995D01*
X657197Y511129D01*
X657374Y511240D01*
X657530Y511351D01*
X657619Y511417D01*
X657641Y511440D01*
X657863Y511706D01*
X658018Y511972D01*
X658151Y512239D01*
X658218Y512483D01*
X658262Y512683D01*
X658285Y512860D01*
X658307Y512971D01*
Y513016D01*
Y517500D01*
D02*
G37*
G36*
X562163Y372437D02*
X562052D01*
X562008D01*
X559766D01*
X559433Y372414D01*
X559122Y372326D01*
X558856Y372237D01*
X558633Y372104D01*
X558434Y371993D01*
X558301Y371882D01*
X558212Y371793D01*
X558190Y371771D01*
X557967Y371526D01*
X557812Y371260D01*
X557701Y370994D01*
X557635Y370749D01*
X557590Y370527D01*
X557546Y370350D01*
Y369062D01*
X557568Y368751D01*
X557657Y368441D01*
X557746Y368174D01*
X557879Y367952D01*
X557990Y367775D01*
X558101Y367619D01*
X558167Y367531D01*
X558190Y367508D01*
X558456Y367286D01*
X558722Y367131D01*
X558989Y366998D01*
X559233Y366931D01*
X559433Y366887D01*
X559610Y366865D01*
X559721Y366842D01*
X559766D01*
X564250D01*
Y370195D01*
X564228Y370527D01*
X564139Y370838D01*
X564050Y371127D01*
X563917Y371349D01*
X563806Y371549D01*
X563695Y371682D01*
X563606Y371771D01*
X563584Y371793D01*
X563340Y372015D01*
X563073Y372170D01*
X562807Y372281D01*
X562563Y372348D01*
X562341Y372414D01*
X562163Y372437D01*
D02*
G37*
G36*
X667808Y482500D02*
X664456D01*
X664123Y482478D01*
X663812Y482389D01*
X663524Y482300D01*
X663302Y482167D01*
X663102Y482056D01*
X662969Y481945D01*
X662880Y481856D01*
X662858Y481834D01*
X662636Y481590D01*
X662480Y481323D01*
X662369Y481057D01*
X662303Y480813D01*
X662236Y480591D01*
X662214Y480413D01*
Y480302D01*
Y480258D01*
Y478016D01*
X662236Y477683D01*
X662325Y477372D01*
X662414Y477105D01*
X662547Y476884D01*
X662658Y476684D01*
X662769Y476550D01*
X662858Y476462D01*
X662880Y476440D01*
X663124Y476217D01*
X663391Y476062D01*
X663657Y475951D01*
X663901Y475885D01*
X664123Y475840D01*
X664301Y475796D01*
X665588D01*
X665899Y475818D01*
X666210Y475907D01*
X666476Y475995D01*
X666698Y476129D01*
X666876Y476240D01*
X667031Y476351D01*
X667120Y476417D01*
X667142Y476440D01*
X667364Y476706D01*
X667520Y476972D01*
X667653Y477239D01*
X667719Y477483D01*
X667764Y477683D01*
X667786Y477860D01*
X667808Y477971D01*
Y478016D01*
Y482500D01*
D02*
G37*
G36*
X668363Y500000D02*
X665011D01*
X664678Y499978D01*
X664367Y499889D01*
X664079Y499800D01*
X663857Y499667D01*
X663657Y499556D01*
X663524Y499445D01*
X663435Y499356D01*
X663413Y499334D01*
X663191Y499090D01*
X663035Y498823D01*
X662924Y498557D01*
X662858Y498313D01*
X662791Y498091D01*
X662769Y497913D01*
Y497802D01*
Y497758D01*
Y495516D01*
X662791Y495183D01*
X662880Y494872D01*
X662969Y494605D01*
X663102Y494384D01*
X663213Y494184D01*
X663324Y494050D01*
X663413Y493962D01*
X663435Y493940D01*
X663679Y493717D01*
X663945Y493562D01*
X664212Y493451D01*
X664456Y493385D01*
X664678Y493340D01*
X664856Y493296D01*
X666143D01*
X666454Y493318D01*
X666765Y493407D01*
X667031Y493495D01*
X667253Y493629D01*
X667431Y493740D01*
X667586Y493851D01*
X667675Y493917D01*
X667697Y493940D01*
X667919Y494206D01*
X668075Y494472D01*
X668208Y494739D01*
X668274Y494983D01*
X668319Y495183D01*
X668341Y495360D01*
X668363Y495471D01*
Y495516D01*
Y500000D01*
D02*
G37*
G36*
X567118Y534799D02*
X567006D01*
X566962D01*
X558016D01*
X557683Y534776D01*
X557372Y534688D01*
X557083Y534577D01*
X556861Y534466D01*
X556661Y534332D01*
X556528Y534221D01*
X556440Y534133D01*
X556417Y534110D01*
X556217Y533844D01*
X556062Y533578D01*
X555951Y533311D01*
X555885Y533067D01*
X555840Y532867D01*
X555796Y532690D01*
Y531424D01*
X555818Y531091D01*
X555907Y530803D01*
X555995Y530536D01*
X556129Y530314D01*
X556240Y530114D01*
X556351Y529981D01*
X556417Y529870D01*
X556440Y529848D01*
X556706Y529626D01*
X556972Y529471D01*
X557239Y529337D01*
X557483Y529271D01*
X557683Y529226D01*
X557860Y529204D01*
X557971Y529182D01*
X558016D01*
X566962D01*
X567295Y529204D01*
X567606Y529293D01*
X567872Y529382D01*
X568094Y529515D01*
X568294Y529626D01*
X568427Y529737D01*
X568516Y529804D01*
X568538Y529826D01*
X568760Y530092D01*
X568916Y530359D01*
X569049Y530625D01*
X569115Y530869D01*
X569160Y531091D01*
X569204Y531269D01*
Y532534D01*
X569182Y532867D01*
X569093Y533178D01*
X569005Y533444D01*
X568871Y533689D01*
X568760Y533866D01*
X568649Y534022D01*
X568560Y534110D01*
X568538Y534133D01*
X568272Y534355D01*
X568005Y534510D01*
X567739Y534643D01*
X567495Y534710D01*
X567295Y534754D01*
X567118Y534799D01*
D02*
G37*
G36*
X597118Y534232D02*
X597006D01*
X596962D01*
X588016D01*
X587683Y534210D01*
X587372Y534122D01*
X587083Y534011D01*
X586861Y533899D01*
X586661Y533766D01*
X586528Y533655D01*
X586440Y533567D01*
X586417Y533544D01*
X586217Y533278D01*
X586062Y533012D01*
X585951Y532745D01*
X585885Y532501D01*
X585840Y532301D01*
X585796Y532123D01*
Y530858D01*
X585818Y530525D01*
X585907Y530237D01*
X585995Y529970D01*
X586129Y529748D01*
X586240Y529548D01*
X586351Y529415D01*
X586417Y529304D01*
X586440Y529282D01*
X586706Y529060D01*
X586972Y528905D01*
X587239Y528771D01*
X587483Y528705D01*
X587683Y528660D01*
X587860Y528638D01*
X587971Y528616D01*
X588016D01*
X596962D01*
X597295Y528638D01*
X597606Y528727D01*
X597872Y528816D01*
X598094Y528949D01*
X598294Y529060D01*
X598427Y529171D01*
X598516Y529238D01*
X598538Y529260D01*
X598760Y529526D01*
X598916Y529793D01*
X599049Y530059D01*
X599115Y530303D01*
X599160Y530525D01*
X599204Y530703D01*
Y531968D01*
X599182Y532301D01*
X599093Y532612D01*
X599005Y532878D01*
X598871Y533122D01*
X598760Y533300D01*
X598649Y533456D01*
X598560Y533544D01*
X598538Y533567D01*
X598272Y533788D01*
X598005Y533944D01*
X597739Y534077D01*
X597495Y534144D01*
X597295Y534188D01*
X597118Y534232D01*
D02*
G37*
G36*
X604064Y451000D02*
X601269D01*
X600991Y450981D01*
X600732Y450907D01*
X600491Y450833D01*
X600306Y450722D01*
X600139Y450630D01*
X600028Y450537D01*
X599954Y450463D01*
X599935Y450444D01*
X599750Y450241D01*
X599621Y450019D01*
X599528Y449796D01*
X599472Y449593D01*
X599417Y449408D01*
X599398Y449259D01*
Y449167D01*
Y449130D01*
Y447260D01*
X599417Y446982D01*
X599491Y446723D01*
X599565Y446501D01*
X599676Y446315D01*
X599769Y446149D01*
X599861Y446038D01*
X599935Y445964D01*
X599954Y445945D01*
X600158Y445760D01*
X600380Y445630D01*
X600602Y445538D01*
X600806Y445482D01*
X600991Y445445D01*
X601139Y445408D01*
X602213D01*
X602472Y445426D01*
X602731Y445501D01*
X602953Y445575D01*
X603139Y445686D01*
X603287Y445778D01*
X603416Y445871D01*
X603490Y445927D01*
X603509Y445945D01*
X603694Y446167D01*
X603824Y446389D01*
X603935Y446612D01*
X603991Y446815D01*
X604027Y446982D01*
X604046Y447130D01*
X604064Y447223D01*
Y447260D01*
Y451000D01*
D02*
G37*
G36*
X593936Y456592D02*
X592881D01*
X592603Y456573D01*
X592343Y456499D01*
X592121Y456425D01*
X591918Y456314D01*
X591769Y456222D01*
X591640Y456129D01*
X591566Y456055D01*
X591547Y456036D01*
X591362Y455814D01*
X591232Y455592D01*
X591121Y455370D01*
X591066Y455166D01*
X591029Y455000D01*
X590992Y454851D01*
Y454759D01*
Y454722D01*
Y447260D01*
X591010Y446982D01*
X591084Y446723D01*
X591177Y446482D01*
X591270Y446297D01*
X591381Y446130D01*
X591473Y446019D01*
X591547Y445945D01*
X591566Y445927D01*
X591788Y445760D01*
X592010Y445630D01*
X592232Y445538D01*
X592436Y445482D01*
X592603Y445445D01*
X592751Y445408D01*
X593806D01*
X594084Y445426D01*
X594325Y445501D01*
X594547Y445575D01*
X594732Y445686D01*
X594899Y445778D01*
X595010Y445871D01*
X595103Y445927D01*
X595121Y445945D01*
X595306Y446167D01*
X595436Y446389D01*
X595547Y446612D01*
X595602Y446815D01*
X595639Y446982D01*
X595658Y447130D01*
X595676Y447223D01*
Y447260D01*
Y454722D01*
X595658Y455000D01*
X595584Y455259D01*
X595510Y455481D01*
X595399Y455666D01*
X595306Y455833D01*
X595214Y455944D01*
X595158Y456018D01*
X595140Y456036D01*
X594917Y456222D01*
X594695Y456351D01*
X594473Y456462D01*
X594269Y456518D01*
X594084Y456555D01*
X593936Y456592D01*
D02*
G37*
G36*
X579101Y440536D02*
X579009D01*
X578972D01*
X578027D01*
X577750Y440518D01*
X577491Y440443D01*
X577250Y440351D01*
X577065Y440258D01*
X576898Y440147D01*
X576787Y440055D01*
X576713Y439981D01*
X576694Y439962D01*
X576528Y439740D01*
X576398Y439518D01*
X576306Y439295D01*
X576250Y439092D01*
X576213Y438925D01*
X576176Y438777D01*
Y438647D01*
X576194Y438370D01*
X576268Y438110D01*
X576343Y437888D01*
X576454Y437703D01*
X576546Y437536D01*
X576639Y437425D01*
X576694Y437351D01*
X576713Y437333D01*
X576917Y437147D01*
X577139Y437018D01*
X577361Y436925D01*
X577565Y436870D01*
X577750Y436833D01*
X577898Y436796D01*
X577990D01*
X578027D01*
X578972D01*
X579250Y436814D01*
X579509Y436888D01*
X579749Y436962D01*
X579935Y437073D01*
X580101Y437166D01*
X580213Y437259D01*
X580286Y437314D01*
X580305Y437333D01*
X580490Y437555D01*
X580620Y437777D01*
X580712Y437999D01*
X580768Y438203D01*
X580824Y438388D01*
X580842Y438536D01*
Y438666D01*
X580824Y438944D01*
X580749Y439203D01*
X580675Y439425D01*
X580564Y439610D01*
X580472Y439777D01*
X580379Y439888D01*
X580305Y439962D01*
X580286Y439981D01*
X580083Y440166D01*
X579861Y440295D01*
X579638Y440406D01*
X579435Y440462D01*
X579250Y440499D01*
X579101Y440536D01*
D02*
G37*
G36*
X573509Y440999D02*
X573417D01*
X573380D01*
X571510D01*
X571232Y440980D01*
X570973Y440906D01*
X570751Y440832D01*
X570565Y440721D01*
X570399Y440629D01*
X570288Y440536D01*
X570214Y440462D01*
X570195Y440443D01*
X570010Y440240D01*
X569880Y440018D01*
X569788Y439795D01*
X569732Y439592D01*
X569695Y439407D01*
X569658Y439258D01*
Y438184D01*
X569677Y437925D01*
X569751Y437666D01*
X569825Y437444D01*
X569936Y437259D01*
X570028Y437110D01*
X570121Y436981D01*
X570177Y436907D01*
X570195Y436888D01*
X570417Y436703D01*
X570639Y436573D01*
X570862Y436462D01*
X571065Y436407D01*
X571232Y436370D01*
X571380Y436351D01*
X571473Y436333D01*
X571510D01*
X573380D01*
X573658Y436351D01*
X573917Y436425D01*
X574139Y436499D01*
X574324Y436610D01*
X574491Y436703D01*
X574602Y436796D01*
X574676Y436851D01*
X574695Y436870D01*
X574880Y437073D01*
X575009Y437296D01*
X575120Y437518D01*
X575176Y437721D01*
X575213Y437907D01*
X575250Y438055D01*
Y439129D01*
X575232Y439407D01*
X575157Y439666D01*
X575083Y439907D01*
X574972Y440092D01*
X574880Y440258D01*
X574787Y440369D01*
X574713Y440443D01*
X574695Y440462D01*
X574491Y440647D01*
X574269Y440777D01*
X574046Y440869D01*
X573843Y440925D01*
X573658Y440980D01*
X573509Y440999D01*
D02*
G37*
G36*
X585413Y397287D02*
X585302D01*
X585258D01*
X583016D01*
X582683Y397265D01*
X582372Y397176D01*
X582105Y397088D01*
X581884Y396954D01*
X581684Y396843D01*
X581550Y396732D01*
X581462Y396644D01*
X581440Y396621D01*
X581217Y396377D01*
X581062Y396111D01*
X580951Y395844D01*
X580885Y395600D01*
X580840Y395378D01*
X580796Y395201D01*
Y393913D01*
X580818Y393602D01*
X580907Y393292D01*
X580995Y393025D01*
X581129Y392803D01*
X581240Y392626D01*
X581351Y392470D01*
X581417Y392381D01*
X581440Y392359D01*
X581706Y392137D01*
X581972Y391982D01*
X582239Y391848D01*
X582483Y391782D01*
X582683Y391738D01*
X582860Y391715D01*
X582971Y391693D01*
X583016D01*
X587500D01*
Y395045D01*
X587478Y395378D01*
X587389Y395689D01*
X587300Y395978D01*
X587167Y396200D01*
X587056Y396399D01*
X586945Y396533D01*
X586856Y396621D01*
X586834Y396644D01*
X586590Y396866D01*
X586323Y397021D01*
X586057Y397132D01*
X585813Y397199D01*
X585591Y397265D01*
X585413Y397287D01*
D02*
G37*
G36*
X512873Y412750D02*
X509521D01*
X509188Y412728D01*
X508877Y412639D01*
X508588Y412550D01*
X508366Y412417D01*
X508167Y412306D01*
X508033Y412195D01*
X507945Y412106D01*
X507922Y412084D01*
X507700Y411840D01*
X507545Y411573D01*
X507434Y411307D01*
X507367Y411063D01*
X507301Y410841D01*
X507279Y410663D01*
Y410552D01*
Y410508D01*
Y408266D01*
X507301Y407933D01*
X507390Y407622D01*
X507478Y407355D01*
X507612Y407133D01*
X507723Y406934D01*
X507834Y406800D01*
X507922Y406712D01*
X507945Y406689D01*
X508189Y406468D01*
X508455Y406312D01*
X508722Y406201D01*
X508966Y406134D01*
X509188Y406090D01*
X509365Y406046D01*
X510653D01*
X510964Y406068D01*
X511274Y406157D01*
X511541Y406245D01*
X511763Y406379D01*
X511940Y406490D01*
X512096Y406601D01*
X512185Y406667D01*
X512207Y406689D01*
X512429Y406956D01*
X512584Y407222D01*
X512718Y407489D01*
X512784Y407733D01*
X512828Y407933D01*
X512851Y408110D01*
X512873Y408221D01*
Y408266D01*
Y412750D01*
D02*
G37*
G36*
X613117Y534287D02*
X613007D01*
X612962D01*
X608500D01*
Y530913D01*
X608522Y530602D01*
X608611Y530291D01*
X608700Y530025D01*
X608833Y529803D01*
X608944Y529626D01*
X609055Y529470D01*
X609122Y529381D01*
X609144Y529359D01*
X609410Y529137D01*
X609677Y528982D01*
X609943Y528848D01*
X610187Y528782D01*
X610387Y528738D01*
X610565Y528715D01*
X610676Y528693D01*
X610720D01*
X612962D01*
X613295Y528715D01*
X613606Y528804D01*
X613872Y528893D01*
X614094Y529026D01*
X614294Y529137D01*
X614427Y529248D01*
X614516Y529315D01*
X614538Y529337D01*
X614760Y529581D01*
X614916Y529847D01*
X615049Y530114D01*
X615116Y530358D01*
X615160Y530580D01*
X615204Y530758D01*
Y532045D01*
X615182Y532378D01*
X615093Y532689D01*
X615005Y532978D01*
X614871Y533200D01*
X614760Y533400D01*
X614649Y533533D01*
X614561Y533621D01*
X614538Y533644D01*
X614294Y533866D01*
X614028Y534021D01*
X613761Y534132D01*
X613517Y534199D01*
X613295Y534265D01*
X613117Y534287D01*
D02*
G37*
G36*
X511808Y471704D02*
X510521D01*
X510188Y471682D01*
X509877Y471593D01*
X509588Y471505D01*
X509366Y471371D01*
X509167Y471260D01*
X509033Y471149D01*
X508945Y471060D01*
X508922Y471038D01*
X508700Y470794D01*
X508545Y470528D01*
X508434Y470261D01*
X508367Y470017D01*
X508301Y469795D01*
X508279Y469618D01*
Y469506D01*
Y469462D01*
Y465000D01*
X511653D01*
X511964Y465022D01*
X512275Y465111D01*
X512541Y465200D01*
X512763Y465333D01*
X512940Y465444D01*
X513096Y465555D01*
X513185Y465622D01*
X513207Y465644D01*
X513429Y465910D01*
X513584Y466177D01*
X513717Y466443D01*
X513784Y466687D01*
X513829Y466887D01*
X513851Y467065D01*
X513873Y467176D01*
Y467220D01*
Y469462D01*
X513851Y469795D01*
X513762Y470106D01*
X513673Y470372D01*
X513540Y470594D01*
X513429Y470794D01*
X513318Y470927D01*
X513251Y471016D01*
X513229Y471038D01*
X512985Y471260D01*
X512719Y471416D01*
X512452Y471549D01*
X512208Y471615D01*
X511986Y471660D01*
X511808Y471704D01*
D02*
G37*
%LPD*%
D15*
X617371Y401520D02*
X619371D01*
Y421520D01*
X617371D02*
X619371D01*
X609371D02*
X611371D01*
X609371Y401520D02*
Y421520D01*
Y401520D02*
X611371D01*
X541000Y416000D02*
Y418000D01*
X561000D01*
Y416000D02*
Y418000D01*
Y408000D02*
Y410000D01*
X541000Y408000D02*
X561000D01*
X541000D02*
Y410000D01*
X535000Y450000D02*
Y453000D01*
X563000D01*
Y450000D02*
Y453000D01*
Y439000D02*
Y442000D01*
X535000Y439000D02*
X563000D01*
X535000D02*
Y442000D01*
X549000Y439000D02*
Y453000D01*
X586000Y443000D02*
Y445000D01*
X566000Y443000D02*
X586000D01*
X566000D02*
Y445000D01*
Y451000D02*
Y453000D01*
X586000D01*
Y451000D02*
Y453000D01*
X636000Y469000D02*
Y471000D01*
X616000Y469000D02*
X636000D01*
X616000D02*
Y471000D01*
Y477000D02*
Y479000D01*
X636000D01*
Y477000D02*
Y479000D01*
X637000Y449000D02*
Y451000D01*
X617000Y449000D02*
X637000D01*
X617000D02*
Y451000D01*
Y457000D02*
Y459000D01*
X637000D01*
Y457000D02*
Y459000D01*
X617000Y509000D02*
Y512000D01*
X645000D01*
Y509000D02*
Y512000D01*
Y498000D02*
Y501000D01*
X617000Y498000D02*
X645000D01*
X617000D02*
Y501000D01*
X631000Y498000D02*
Y512000D01*
X645000Y484000D02*
Y487000D01*
X617000Y484000D02*
X645000D01*
X617000D02*
Y487000D01*
Y495000D02*
Y498000D01*
X645000D01*
Y495000D02*
Y498000D01*
X631000Y484000D02*
Y498000D01*
X644250Y433500D02*
Y436500D01*
X616250Y433500D02*
X644250D01*
X616250D02*
Y436500D01*
Y444500D02*
Y447500D01*
X644250D01*
Y444500D02*
Y447500D01*
X630250Y433500D02*
Y447500D01*
X541000Y437000D02*
Y439000D01*
X561000D01*
Y437000D02*
Y439000D01*
Y429000D02*
Y431000D01*
X541000Y429000D02*
X561000D01*
X541000D02*
Y431000D01*
Y418000D02*
Y420000D01*
Y418000D02*
X561000D01*
Y420000D01*
Y426000D02*
Y428000D01*
X541000D02*
X561000D01*
X541000Y426000D02*
Y428000D01*
Y460000D02*
Y462000D01*
X561000D01*
Y460000D02*
Y462000D01*
Y452000D02*
Y454000D01*
X541000Y452000D02*
X561000D01*
X541000D02*
Y454000D01*
X580000Y498000D02*
X582000D01*
Y478000D02*
Y498000D01*
X580000Y478000D02*
X582000D01*
X572000D02*
X574000D01*
X572000D02*
Y498000D01*
X574000D01*
X562000D02*
X564000D01*
X562000Y478000D02*
Y498000D01*
Y478000D02*
X564000D01*
X570000D02*
X572000D01*
Y498000D01*
X570000D02*
X572000D01*
X615000Y497000D02*
X617000D01*
Y477000D02*
Y497000D01*
X615000Y477000D02*
X617000D01*
X607000D02*
X609000D01*
X607000D02*
Y497000D01*
X609000D01*
X595000D02*
X597000D01*
X595000Y477000D02*
Y497000D01*
Y477000D02*
X597000D01*
X603000D02*
X605000D01*
Y497000D01*
X603000D02*
X605000D01*
X637000Y467000D02*
Y469000D01*
X617000D02*
X637000D01*
X617000Y467000D02*
Y469000D01*
Y459000D02*
Y461000D01*
Y459000D02*
X637000D01*
Y461000D01*
Y430000D02*
Y432000D01*
X617000D02*
X637000D01*
X617000Y430000D02*
Y432000D01*
Y422000D02*
Y424000D01*
Y422000D02*
X637000D01*
Y424000D01*
Y420000D02*
Y422000D01*
X617000D02*
X637000D01*
X617000Y420000D02*
Y422000D01*
Y412000D02*
Y414000D01*
Y412000D02*
X637000D01*
Y414000D01*
X581500Y493500D02*
X595500D01*
X581500Y507500D02*
X584500D01*
X581500Y479500D02*
Y507500D01*
Y479500D02*
X584500D01*
X592500D02*
X595500D01*
Y507500D01*
X592500D02*
X595500D01*
X568000Y387000D02*
X570000D01*
Y407000D01*
X568000D02*
X570000D01*
X560000D02*
X562000D01*
X560000Y387000D02*
Y407000D01*
Y387000D02*
X562000D01*
X591500Y478500D02*
X593500D01*
Y458500D02*
Y478500D01*
X591500Y458500D02*
X593500D01*
X583500D02*
X585500D01*
X583500D02*
Y478500D01*
X585500D01*
X542000Y480000D02*
Y482000D01*
X562000D01*
Y480000D02*
Y482000D01*
Y472000D02*
Y474000D01*
X542000Y472000D02*
X562000D01*
X542000D02*
Y474000D01*
Y462000D02*
Y464000D01*
Y462000D02*
X562000D01*
Y464000D01*
Y470000D02*
Y472000D01*
X542000D02*
X562000D01*
X542000Y470000D02*
Y472000D01*
X591500Y404500D02*
X593500D01*
Y424500D01*
X591500D02*
X593500D01*
X583500D02*
X585500D01*
X583500Y404500D02*
Y424500D01*
Y404500D02*
X585500D01*
X583500Y443500D02*
X585500D01*
X583500Y423500D02*
Y443500D01*
Y423500D02*
X585500D01*
X591500D02*
X593500D01*
Y443500D01*
X591500D02*
X593500D01*
M02*
