G04*
G04 #@! TF.GenerationSoftware,Altium Limited,Altium Designer,23.7.1 (13)*
G04*
G04 Layer_Physical_Order=2*
G04 Layer_Color=36540*
%FSLAX44Y44*%
%MOMM*%
G71*
G04*
G04 #@! TF.SameCoordinates,D2E7A544-C627-4BF8-9092-2E35ECC9D328*
G04*
G04*
G04 #@! TF.FilePolarity,Positive*
G04*
G01*
G75*
%ADD32C,0.4200*%
%ADD78C,1.5000*%
%ADD79R,1.5000X1.5000*%
%ADD80C,0.6000*%
%ADD81C,0.4000*%
G36*
X928054Y715451D02*
X927209Y714887D01*
X927032Y714709D01*
X926823Y714570D01*
X925430Y713177D01*
X925291Y712968D01*
X925113Y712791D01*
X924019Y711153D01*
X923923Y710921D01*
X923783Y710712D01*
X923029Y708892D01*
X922980Y708646D01*
X922884Y708414D01*
X922500Y706482D01*
Y706231D01*
X922451Y705985D01*
Y704015D01*
X922500Y703769D01*
Y703518D01*
X922884Y701586D01*
X922980Y701354D01*
X923029Y701108D01*
X923783Y699288D01*
X923923Y699079D01*
X924019Y698847D01*
X925113Y697209D01*
X925291Y697032D01*
X925430Y696823D01*
X926823Y695430D01*
X927032Y695291D01*
X927209Y695113D01*
X928847Y694019D01*
X929079Y693923D01*
X929288Y693783D01*
X931108Y693029D01*
X931354Y692980D01*
X931586Y692884D01*
X933518Y692500D01*
X933769D01*
X934015Y692451D01*
X935985D01*
X936231Y692500D01*
X936482D01*
X938414Y692884D01*
X938646Y692980D01*
X938892Y693029D01*
X940712Y693783D01*
X940921Y693923D01*
X941153Y694019D01*
X942791Y695113D01*
X942968Y695291D01*
X943177Y695430D01*
X944570Y696823D01*
X944709Y697032D01*
X944887Y697209D01*
X945451Y698054D01*
X947451Y697447D01*
X947451Y497549D01*
X934000D01*
X933025Y497355D01*
X932198Y496802D01*
X931645Y495975D01*
X931451Y495000D01*
Y465000D01*
X931645Y464025D01*
X932198Y463198D01*
X933025Y462645D01*
X934000Y462451D01*
X947451D01*
Y222549D01*
X232553D01*
X231946Y224549D01*
X232791Y225113D01*
X232968Y225291D01*
X233177Y225430D01*
X234570Y226823D01*
X234709Y227032D01*
X234887Y227209D01*
X235981Y228847D01*
X236077Y229079D01*
X236217Y229288D01*
X236971Y231108D01*
X237020Y231354D01*
X237116Y231586D01*
X237500Y233518D01*
Y233769D01*
X237549Y234015D01*
Y235985D01*
X237500Y236231D01*
Y236482D01*
X237116Y238414D01*
X237020Y238646D01*
X236971Y238892D01*
X236217Y240712D01*
X236077Y240921D01*
X235981Y241153D01*
X234887Y242791D01*
X234709Y242968D01*
X234570Y243177D01*
X233177Y244570D01*
X232968Y244709D01*
X232791Y244887D01*
X231153Y245981D01*
X230921Y246077D01*
X230712Y246217D01*
X228892Y246971D01*
X228646Y247020D01*
X228414Y247116D01*
X226482Y247500D01*
X226231D01*
X225985Y247549D01*
X224015D01*
X223769Y247500D01*
X223518D01*
X221586Y247116D01*
X221354Y247020D01*
X221108Y246971D01*
X219288Y246217D01*
X219079Y246077D01*
X218847Y245981D01*
X217209Y244887D01*
X217032Y244709D01*
X216823Y244570D01*
X215430Y243177D01*
X215291Y242968D01*
X215113Y242791D01*
X214549Y241946D01*
X212549Y242553D01*
Y250000D01*
X212355Y250975D01*
X211802Y251802D01*
X210975Y252355D01*
X210000Y252549D01*
X205000D01*
Y687451D01*
X210000D01*
X210975Y687645D01*
X211802Y688198D01*
X212355Y689025D01*
X212549Y690000D01*
Y717451D01*
X927447Y717451D01*
X928054Y715451D01*
D02*
G37*
%LPC*%
G36*
X785796Y711500D02*
X784204D01*
X782734Y710891D01*
X781609Y709766D01*
X781000Y708296D01*
Y706704D01*
X781609Y705234D01*
X782734Y704109D01*
X784204Y703500D01*
X785796D01*
X787266Y704109D01*
X788391Y705234D01*
X789000Y706704D01*
Y708296D01*
X788391Y709766D01*
X787266Y710891D01*
X785796Y711500D01*
D02*
G37*
G36*
X678296D02*
X676704D01*
X675234Y710891D01*
X674109Y709766D01*
X673500Y708296D01*
Y706704D01*
X674109Y705234D01*
X675234Y704109D01*
X676704Y703500D01*
X678296D01*
X679766Y704109D01*
X680891Y705234D01*
X681500Y706704D01*
Y708296D01*
X680891Y709766D01*
X679766Y710891D01*
X678296Y711500D01*
D02*
G37*
G36*
X563296D02*
X561704D01*
X560234Y710891D01*
X559109Y709766D01*
X558500Y708296D01*
Y706704D01*
X559109Y705234D01*
X560234Y704109D01*
X561704Y703500D01*
X563296D01*
X564766Y704109D01*
X565891Y705234D01*
X566500Y706704D01*
Y708296D01*
X565891Y709766D01*
X564766Y710891D01*
X563296Y711500D01*
D02*
G37*
G36*
X688296Y704000D02*
X686704D01*
X685234Y703391D01*
X684109Y702266D01*
X683500Y700796D01*
Y699204D01*
X684109Y697734D01*
X685234Y696609D01*
X686704Y696000D01*
X688296D01*
X689766Y696609D01*
X690891Y697734D01*
X691500Y699204D01*
Y700796D01*
X690891Y702266D01*
X689766Y703391D01*
X688296Y704000D01*
D02*
G37*
G36*
X668296D02*
X666704D01*
X665234Y703391D01*
X664109Y702266D01*
X663500Y700796D01*
Y699204D01*
X664109Y697734D01*
X665234Y696609D01*
X666704Y696000D01*
X668296D01*
X669766Y696609D01*
X670891Y697734D01*
X671500Y699204D01*
Y700796D01*
X670891Y702266D01*
X669766Y703391D01*
X668296Y704000D01*
D02*
G37*
G36*
X573296D02*
X571704D01*
X570234Y703391D01*
X569109Y702266D01*
X568500Y700796D01*
Y699204D01*
X569109Y697734D01*
X570234Y696609D01*
X571704Y696000D01*
X573296D01*
X574766Y696609D01*
X575891Y697734D01*
X576500Y699204D01*
Y700796D01*
X575891Y702266D01*
X574766Y703391D01*
X573296Y704000D01*
D02*
G37*
G36*
X553296D02*
X551704D01*
X550234Y703391D01*
X549109Y702266D01*
X548500Y700796D01*
Y699204D01*
X549109Y697734D01*
X550234Y696609D01*
X551704Y696000D01*
X553296D01*
X554766Y696609D01*
X555891Y697734D01*
X556500Y699204D01*
Y700796D01*
X555891Y702266D01*
X554766Y703391D01*
X553296Y704000D01*
D02*
G37*
G36*
X795796Y701500D02*
X794204D01*
X792734Y700891D01*
X791609Y699766D01*
X791000Y698296D01*
Y696704D01*
X791609Y695234D01*
X792734Y694109D01*
X794204Y693500D01*
X795796D01*
X797266Y694109D01*
X798391Y695234D01*
X799000Y696704D01*
Y698296D01*
X798391Y699766D01*
X797266Y700891D01*
X795796Y701500D01*
D02*
G37*
G36*
X775796D02*
X774204D01*
X772734Y700891D01*
X771609Y699766D01*
X771000Y698296D01*
Y696704D01*
X771609Y695234D01*
X772734Y694109D01*
X774204Y693500D01*
X775796D01*
X777266Y694109D01*
X778391Y695234D01*
X779000Y696704D01*
Y698296D01*
X778391Y699766D01*
X777266Y700891D01*
X775796Y701500D01*
D02*
G37*
G36*
X350796Y699000D02*
X349204D01*
X347734Y698391D01*
X346609Y697266D01*
X346000Y695796D01*
Y694204D01*
X346609Y692734D01*
X347734Y691609D01*
X349204Y691000D01*
X350796D01*
X352266Y691609D01*
X353391Y692734D01*
X354000Y694204D01*
Y695796D01*
X353391Y697266D01*
X352266Y698391D01*
X350796Y699000D01*
D02*
G37*
G36*
X338296D02*
X336704D01*
X335234Y698391D01*
X334109Y697266D01*
X333500Y695796D01*
Y694204D01*
X334109Y692734D01*
X335234Y691609D01*
X336704Y691000D01*
X338296D01*
X339766Y691609D01*
X340891Y692734D01*
X341500Y694204D01*
Y695796D01*
X340891Y697266D01*
X339766Y698391D01*
X338296Y699000D01*
D02*
G37*
G36*
X523296Y709000D02*
X521704D01*
X520234Y708391D01*
X519109Y707266D01*
X518500Y705796D01*
Y704204D01*
X519109Y702734D01*
X519287Y702557D01*
X520030Y701250D01*
X519287Y699943D01*
X519109Y699766D01*
X518500Y698296D01*
Y696704D01*
X519109Y695234D01*
X519287Y695057D01*
X520030Y693750D01*
X519287Y692443D01*
X519109Y692266D01*
X518500Y690796D01*
Y689204D01*
X519109Y687734D01*
X520234Y686609D01*
X521704Y686000D01*
X523296D01*
X524766Y686609D01*
X525891Y687734D01*
X526500Y689204D01*
Y690796D01*
X525891Y692266D01*
X525713Y692443D01*
X524970Y693750D01*
X525713Y695057D01*
X525891Y695234D01*
X526500Y696704D01*
Y698296D01*
X525891Y699766D01*
X525713Y699943D01*
X524970Y701250D01*
X525713Y702557D01*
X525891Y702734D01*
X526500Y704204D01*
Y705796D01*
X525891Y707266D01*
X524766Y708391D01*
X523296Y709000D01*
D02*
G37*
G36*
X533296Y706500D02*
X531704D01*
X530234Y705891D01*
X529109Y704766D01*
X528500Y703296D01*
Y701704D01*
X529109Y700234D01*
X529287Y700057D01*
X530030Y698750D01*
X529287Y697443D01*
X529109Y697266D01*
X528500Y695796D01*
Y694204D01*
X529109Y692734D01*
X529287Y692557D01*
X530030Y691250D01*
X529287Y689943D01*
X529109Y689766D01*
X528500Y688296D01*
Y686704D01*
X529109Y685234D01*
X530234Y684109D01*
X531704Y683500D01*
X533296D01*
X534766Y684109D01*
X535891Y685234D01*
X536500Y686704D01*
Y688296D01*
X535891Y689766D01*
X535713Y689943D01*
X534970Y691250D01*
X535713Y692557D01*
X535891Y692734D01*
X536500Y694204D01*
Y695796D01*
X535891Y697266D01*
X535713Y697443D01*
X534970Y698750D01*
X535713Y700057D01*
X535891Y700234D01*
X536500Y701704D01*
Y703296D01*
X535891Y704766D01*
X534766Y705891D01*
X533296Y706500D01*
D02*
G37*
G36*
X294706Y688550D02*
X293294D01*
X291989Y688009D01*
X290991Y687011D01*
X290450Y685706D01*
Y684294D01*
X290991Y682989D01*
X291989Y681991D01*
X293294Y681450D01*
X294706D01*
X296011Y681991D01*
X297010Y682989D01*
X297550Y684294D01*
Y685706D01*
X297010Y687011D01*
X296011Y688009D01*
X294706Y688550D01*
D02*
G37*
G36*
X620706Y679550D02*
X619294D01*
X617989Y679009D01*
X616991Y678011D01*
X616450Y676706D01*
Y675294D01*
X616991Y673989D01*
X617989Y672990D01*
X619294Y672450D01*
X620706D01*
X622011Y672990D01*
X623009Y673989D01*
X623550Y675294D01*
Y676706D01*
X623009Y678011D01*
X622011Y679009D01*
X620706Y679550D01*
D02*
G37*
G36*
X602706D02*
X601294D01*
X599989Y679009D01*
X598991Y678011D01*
X598450Y676706D01*
Y675294D01*
X598991Y673989D01*
X599989Y672990D01*
X601294Y672450D01*
X602706D01*
X604011Y672990D01*
X605009Y673989D01*
X605550Y675294D01*
Y676706D01*
X605009Y678011D01*
X604011Y679009D01*
X602706Y679550D01*
D02*
G37*
G36*
X840706Y677550D02*
X839294D01*
X837989Y677010D01*
X836991Y676011D01*
X836450Y674706D01*
Y673294D01*
X836991Y671989D01*
X837989Y670991D01*
X839294Y670450D01*
X840706D01*
X842011Y670991D01*
X843009Y671989D01*
X843550Y673294D01*
Y674706D01*
X843009Y676011D01*
X842011Y677010D01*
X840706Y677550D01*
D02*
G37*
G36*
X822706D02*
X821294D01*
X819989Y677010D01*
X818990Y676011D01*
X818450Y674706D01*
Y673294D01*
X818990Y671989D01*
X819989Y670991D01*
X821294Y670450D01*
X822706D01*
X824011Y670991D01*
X825010Y671989D01*
X825550Y673294D01*
Y674706D01*
X825010Y676011D01*
X824011Y677010D01*
X822706Y677550D01*
D02*
G37*
G36*
X733706D02*
X732294D01*
X730989Y677010D01*
X729990Y676011D01*
X729450Y674706D01*
Y673294D01*
X729990Y671989D01*
X730989Y670991D01*
X732294Y670450D01*
X733706D01*
X735011Y670991D01*
X736010Y671989D01*
X736550Y673294D01*
Y674706D01*
X736010Y676011D01*
X735011Y677010D01*
X733706Y677550D01*
D02*
G37*
G36*
X715706D02*
X714294D01*
X712989Y677010D01*
X711991Y676011D01*
X711450Y674706D01*
Y673294D01*
X711991Y671989D01*
X712989Y670991D01*
X714294Y670450D01*
X715706D01*
X717011Y670991D01*
X718009Y671989D01*
X718550Y673294D01*
Y674706D01*
X718009Y676011D01*
X717011Y677010D01*
X715706Y677550D01*
D02*
G37*
G36*
X294706Y673550D02*
X293294D01*
X291989Y673009D01*
X290991Y672011D01*
X290450Y670706D01*
Y669294D01*
X290991Y667989D01*
X291989Y666991D01*
X293294Y666450D01*
X294706D01*
X296011Y666991D01*
X297010Y667989D01*
X297550Y669294D01*
Y670706D01*
X297010Y672011D01*
X296011Y673009D01*
X294706Y673550D01*
D02*
G37*
G36*
X437706Y671550D02*
X436294D01*
X434989Y671010D01*
X433991Y670011D01*
X433450Y668706D01*
Y667294D01*
X433991Y665989D01*
X434989Y664990D01*
X436294Y664450D01*
X437706D01*
X439011Y664990D01*
X440009Y665989D01*
X440550Y667294D01*
Y668706D01*
X440009Y670011D01*
X439011Y671010D01*
X437706Y671550D01*
D02*
G37*
G36*
X831706D02*
X830294D01*
X828989Y671010D01*
X827990Y670011D01*
X827450Y668706D01*
Y667294D01*
X827990Y665989D01*
X828859Y665120D01*
X828928Y664000D01*
X828859Y662879D01*
X827990Y662011D01*
X827450Y660706D01*
Y660052D01*
X825771Y659584D01*
X825450Y659570D01*
X824511Y660509D01*
X823206Y661050D01*
X821794D01*
X820489Y660509D01*
X819491Y659511D01*
X818950Y658206D01*
Y656794D01*
X819491Y655489D01*
X820489Y654491D01*
X821794Y653950D01*
X823206D01*
X824511Y654491D01*
X825509Y655489D01*
X825963Y656585D01*
X826855Y656936D01*
X828050Y657147D01*
X828230Y656911D01*
X828608Y656152D01*
X828173Y655193D01*
X827990Y655011D01*
X827450Y653706D01*
Y652294D01*
X827990Y650989D01*
X828173Y650807D01*
X828766Y649500D01*
X828173Y648193D01*
X827990Y648011D01*
X827450Y646706D01*
Y645294D01*
X827990Y643989D01*
X828989Y642990D01*
X830294Y642450D01*
X831706D01*
X833011Y642990D01*
X834009Y643989D01*
X834550Y645294D01*
Y646706D01*
X834009Y648011D01*
X833827Y648193D01*
X833234Y649500D01*
X833827Y650807D01*
X834009Y650989D01*
X834550Y652294D01*
Y653706D01*
X834009Y655011D01*
X833827Y655193D01*
X833234Y656500D01*
X833827Y657807D01*
X834009Y657989D01*
X834550Y659294D01*
Y660706D01*
X834009Y662011D01*
X833141Y662879D01*
X833072Y664000D01*
X833141Y665120D01*
X834009Y665989D01*
X834550Y667294D01*
Y668706D01*
X834009Y670011D01*
X833011Y671010D01*
X831706Y671550D01*
D02*
G37*
G36*
X724706Y673550D02*
X723294D01*
X721989Y673009D01*
X720991Y672011D01*
X720450Y670706D01*
Y669294D01*
X720991Y667989D01*
X721859Y667121D01*
X721928Y666000D01*
X721859Y664880D01*
X720991Y664011D01*
X720450Y662706D01*
Y661294D01*
X720991Y659989D01*
X721989Y658990D01*
X723294Y658450D01*
X724706D01*
X726011Y658990D01*
X727010Y659989D01*
X727550Y661294D01*
Y662706D01*
X727010Y664011D01*
X726141Y664880D01*
X726072Y666000D01*
X726141Y667121D01*
X727010Y667989D01*
X727550Y669294D01*
Y670706D01*
X727010Y672011D01*
X726011Y673009D01*
X724706Y673550D01*
D02*
G37*
G36*
X620706Y662550D02*
X619294D01*
X617989Y662010D01*
X616991Y661011D01*
X616450Y659706D01*
Y658294D01*
X616991Y656989D01*
X617989Y655991D01*
X619294Y655450D01*
X620706D01*
X622011Y655991D01*
X623009Y656989D01*
X623550Y658294D01*
Y659706D01*
X623009Y661011D01*
X622011Y662010D01*
X620706Y662550D01*
D02*
G37*
G36*
X602706D02*
X601294D01*
X599989Y662010D01*
X598991Y661011D01*
X598450Y659706D01*
Y658294D01*
X598991Y656989D01*
X599989Y655991D01*
X601294Y655450D01*
X602706D01*
X604011Y655991D01*
X605009Y656989D01*
X605550Y658294D01*
Y659706D01*
X605009Y661011D01*
X604011Y662010D01*
X602706Y662550D01*
D02*
G37*
G36*
X733706Y661550D02*
X732294D01*
X730989Y661010D01*
X729990Y660011D01*
X729450Y658706D01*
Y657294D01*
X729990Y655989D01*
X730989Y654990D01*
X732294Y654450D01*
X733706D01*
X735011Y654990D01*
X736010Y655989D01*
X736550Y657294D01*
Y658706D01*
X736010Y660011D01*
X735011Y661010D01*
X733706Y661550D01*
D02*
G37*
G36*
X840706Y661050D02*
X839294D01*
X837989Y660509D01*
X836991Y659511D01*
X836450Y658206D01*
Y656794D01*
X836991Y655489D01*
X837989Y654491D01*
X839294Y653950D01*
X840706D01*
X842011Y654491D01*
X843009Y655489D01*
X843550Y656794D01*
Y658206D01*
X843009Y659511D01*
X842011Y660509D01*
X840706Y661050D01*
D02*
G37*
G36*
X715706D02*
X714294D01*
X712989Y660509D01*
X711991Y659511D01*
X711450Y658206D01*
Y656794D01*
X711991Y655489D01*
X712989Y654491D01*
X714294Y653950D01*
X715706D01*
X717011Y654491D01*
X718009Y655489D01*
X718550Y656794D01*
Y658206D01*
X718009Y659511D01*
X717011Y660509D01*
X715706Y661050D01*
D02*
G37*
G36*
X294706Y657550D02*
X293294D01*
X291989Y657010D01*
X290991Y656011D01*
X290450Y654706D01*
Y653294D01*
X290991Y651989D01*
X291989Y650991D01*
X293294Y650450D01*
X294706D01*
X296011Y650991D01*
X297010Y651989D01*
X297550Y653294D01*
Y654706D01*
X297010Y656011D01*
X296011Y657010D01*
X294706Y657550D01*
D02*
G37*
G36*
X661706Y654550D02*
X660294D01*
X658989Y654009D01*
X657990Y653011D01*
X657450Y651706D01*
Y650294D01*
X657990Y648989D01*
X658989Y647990D01*
X660294Y647450D01*
X661706D01*
X663011Y647990D01*
X664009Y648989D01*
X664550Y650294D01*
Y651706D01*
X664009Y653011D01*
X663011Y654009D01*
X661706Y654550D01*
D02*
G37*
G36*
X545706D02*
X544294D01*
X542989Y654009D01*
X541991Y653011D01*
X541450Y651706D01*
Y650294D01*
X541991Y648989D01*
X542989Y647990D01*
X544294Y647450D01*
X545706D01*
X547011Y647990D01*
X548009Y648989D01*
X548550Y650294D01*
Y651706D01*
X548009Y653011D01*
X547011Y654009D01*
X545706Y654550D01*
D02*
G37*
G36*
X766706Y653550D02*
X765294D01*
X763989Y653009D01*
X762990Y652011D01*
X762450Y650706D01*
Y649294D01*
X762990Y647989D01*
X763989Y646991D01*
X765294Y646450D01*
X766706D01*
X768011Y646991D01*
X769009Y647989D01*
X769550Y649294D01*
Y650706D01*
X769009Y652011D01*
X768011Y653009D01*
X766706Y653550D01*
D02*
G37*
G36*
X611706Y673550D02*
X610294D01*
X608989Y673009D01*
X607990Y672011D01*
X607450Y670706D01*
Y669294D01*
X607990Y667989D01*
X608859Y667121D01*
X608928Y666000D01*
X608859Y664880D01*
X607990Y664011D01*
X607450Y662706D01*
Y661294D01*
X607990Y659989D01*
X608859Y659120D01*
X608928Y658000D01*
X608859Y656880D01*
X607990Y656011D01*
X607450Y654706D01*
Y653294D01*
X607990Y651989D01*
X608173Y651807D01*
X608766Y650500D01*
X608173Y649193D01*
X607990Y649011D01*
X607450Y647706D01*
Y646294D01*
X607990Y644989D01*
X608989Y643990D01*
X610294Y643450D01*
X611706D01*
X613011Y643990D01*
X614010Y644989D01*
X614550Y646294D01*
Y647706D01*
X614010Y649011D01*
X613827Y649193D01*
X613234Y650500D01*
X613827Y651807D01*
X614010Y651989D01*
X614550Y653294D01*
Y654706D01*
X614010Y656011D01*
X613141Y656880D01*
X613072Y658000D01*
X613141Y659120D01*
X614010Y659989D01*
X614550Y661294D01*
Y662706D01*
X614010Y664011D01*
X613141Y664880D01*
X613072Y666000D01*
X613141Y667121D01*
X614010Y667989D01*
X614550Y669294D01*
Y670706D01*
X614010Y672011D01*
X613011Y673009D01*
X611706Y673550D01*
D02*
G37*
G36*
X724706Y655550D02*
X723294D01*
X721989Y655010D01*
X720991Y654011D01*
X720450Y652706D01*
Y651294D01*
X720991Y649989D01*
X721173Y649807D01*
X721766Y648500D01*
X721173Y647193D01*
X720991Y647011D01*
X720450Y645706D01*
Y644294D01*
X720991Y642989D01*
X721989Y641991D01*
X723294Y641450D01*
X724706D01*
X726011Y641991D01*
X727010Y642989D01*
X727550Y644294D01*
Y645706D01*
X727010Y647011D01*
X726827Y647193D01*
X726234Y648500D01*
X726827Y649807D01*
X727010Y649989D01*
X727550Y651294D01*
Y652706D01*
X727010Y654011D01*
X726011Y655010D01*
X724706Y655550D01*
D02*
G37*
G36*
X580706Y648550D02*
X579294D01*
X577989Y648009D01*
X576991Y647011D01*
X576450Y645706D01*
Y644294D01*
X576991Y642989D01*
X577989Y641991D01*
X579294Y641450D01*
X580706D01*
X582011Y641991D01*
X583009Y642989D01*
X583550Y644294D01*
Y645706D01*
X583009Y647011D01*
X582011Y648009D01*
X580706Y648550D01*
D02*
G37*
G36*
X802706Y647550D02*
X801294D01*
X799989Y647010D01*
X798990Y646011D01*
X798450Y644706D01*
Y643294D01*
X798990Y641989D01*
X799989Y640991D01*
X801294Y640450D01*
X802706D01*
X804011Y640991D01*
X805010Y641989D01*
X805550Y643294D01*
Y644706D01*
X805010Y646011D01*
X804011Y647010D01*
X802706Y647550D01*
D02*
G37*
G36*
X695706Y646050D02*
X694294D01*
X692989Y645509D01*
X691991Y644511D01*
X691450Y643206D01*
Y641794D01*
X691991Y640489D01*
X692989Y639491D01*
X694294Y638950D01*
X695706D01*
X697011Y639491D01*
X698009Y640489D01*
X698550Y641794D01*
Y643206D01*
X698009Y644511D01*
X697011Y645509D01*
X695706Y646050D01*
D02*
G37*
G36*
X294706Y640550D02*
X293294D01*
X291989Y640010D01*
X290991Y639011D01*
X290450Y637706D01*
Y636294D01*
X290991Y634989D01*
X291989Y633991D01*
X293294Y633450D01*
X294706D01*
X296011Y633991D01*
X297010Y634989D01*
X297550Y636294D01*
Y637706D01*
X297010Y639011D01*
X296011Y640010D01*
X294706Y640550D01*
D02*
G37*
G36*
X328706Y624550D02*
X327294D01*
X325989Y624010D01*
X324991Y623011D01*
X324450Y621706D01*
Y620294D01*
X324991Y618989D01*
X325989Y617990D01*
X327294Y617450D01*
X328706D01*
X330011Y617990D01*
X331009Y618989D01*
X331550Y620294D01*
Y621706D01*
X331009Y623011D01*
X330011Y624010D01*
X328706Y624550D01*
D02*
G37*
G36*
Y592550D02*
X327294D01*
X325989Y592010D01*
X324991Y591011D01*
X324450Y589706D01*
Y588294D01*
X324991Y586989D01*
X325989Y585990D01*
X327294Y585450D01*
X328706D01*
X330011Y585990D01*
X331009Y586989D01*
X331550Y588294D01*
Y589706D01*
X331009Y591011D01*
X330011Y592010D01*
X328706Y592550D01*
D02*
G37*
G36*
X600706Y581550D02*
X599294D01*
X597989Y581009D01*
X597807Y580827D01*
X596500Y580234D01*
X595193Y580827D01*
X595011Y581009D01*
X593706Y581550D01*
X592294D01*
X590989Y581009D01*
X589991Y580011D01*
X589450Y578706D01*
Y577550D01*
X588294D01*
X586989Y577010D01*
X585990Y576011D01*
X584011Y576009D01*
X582706Y576550D01*
X581294D01*
X579989Y576009D01*
X578991Y575011D01*
X578450Y573706D01*
Y573399D01*
X578004Y572968D01*
X576476Y572231D01*
X575706Y572550D01*
X574294D01*
X572989Y572010D01*
X571991Y571011D01*
X571847Y570663D01*
X571359Y569698D01*
X569706Y569550D01*
X568294D01*
X566989Y569010D01*
X565990Y568011D01*
X565450Y566706D01*
Y565294D01*
X565990Y563989D01*
X566989Y562990D01*
X568294Y562450D01*
X569706D01*
X571011Y562990D01*
X572010Y563989D01*
X572154Y564337D01*
X572641Y565302D01*
X574294Y565450D01*
X575706D01*
X577011Y565990D01*
X578009Y566989D01*
X578550Y568294D01*
Y568601D01*
X578996Y569032D01*
X580524Y569769D01*
X581294Y569450D01*
X582706D01*
X584011Y569991D01*
X585009Y570989D01*
X586989Y570990D01*
X588294Y570450D01*
X589706D01*
X591011Y570990D01*
X592010Y571989D01*
X592550Y573294D01*
Y574450D01*
X593706D01*
X595011Y574991D01*
X595193Y575173D01*
X596500Y575766D01*
X597807Y575173D01*
X597989Y574991D01*
X599294Y574450D01*
X600706D01*
X602011Y574991D01*
X603009Y575989D01*
X603550Y577294D01*
Y578706D01*
X603009Y580011D01*
X602011Y581009D01*
X600706Y581550D01*
D02*
G37*
G36*
X710706Y583550D02*
X709294D01*
X707989Y583009D01*
X706991Y582011D01*
X706450Y580706D01*
Y579294D01*
X706991Y577989D01*
X707989Y576991D01*
X709294Y576450D01*
X710706D01*
X712011Y576991D01*
X713009Y577989D01*
X713550Y579294D01*
Y580706D01*
X713009Y582011D01*
X712011Y583009D01*
X710706Y583550D01*
D02*
G37*
G36*
X653706D02*
X652294D01*
X650989Y583009D01*
X649990Y582011D01*
X649450Y580706D01*
Y579294D01*
X649990Y577989D01*
X650989Y576991D01*
X652294Y576450D01*
X653706D01*
X655011Y576991D01*
X656010Y577989D01*
X656550Y579294D01*
Y580706D01*
X656010Y582011D01*
X655011Y583009D01*
X653706Y583550D01*
D02*
G37*
G36*
X926251Y659500D02*
X923749D01*
X921333Y658853D01*
X919167Y657602D01*
X917398Y655833D01*
X916147Y653667D01*
X915500Y651251D01*
Y648749D01*
X916147Y646333D01*
X917398Y644167D01*
X919167Y642398D01*
X921333Y641148D01*
X921752Y641035D01*
Y638965D01*
X921333Y638853D01*
X919167Y637602D01*
X917398Y635833D01*
X916147Y633667D01*
X915500Y631251D01*
Y628749D01*
X916147Y626333D01*
X917398Y624167D01*
X919167Y622398D01*
X921333Y621147D01*
X921752Y621035D01*
Y618965D01*
X921333Y618853D01*
X919167Y617602D01*
X917398Y615833D01*
X916147Y613667D01*
X915500Y611251D01*
Y608749D01*
X916147Y606333D01*
X917398Y604167D01*
X919167Y602398D01*
X921333Y601147D01*
X921752Y601035D01*
Y598965D01*
X921333Y598853D01*
X919167Y597602D01*
X917398Y595833D01*
X916147Y593667D01*
X915500Y591251D01*
Y588749D01*
X916147Y586333D01*
X917398Y584167D01*
X919167Y582398D01*
X921333Y581147D01*
X921752Y581035D01*
Y578965D01*
X921333Y578853D01*
X919167Y577602D01*
X917398Y575833D01*
X916147Y573667D01*
X915500Y571251D01*
Y571000D01*
X925000D01*
X934500D01*
Y571251D01*
X933853Y573667D01*
X932602Y575833D01*
X930833Y577602D01*
X928667Y578853D01*
X928248Y578965D01*
Y581035D01*
X928667Y581147D01*
X930833Y582398D01*
X932602Y584167D01*
X933853Y586333D01*
X934500Y588749D01*
Y591251D01*
X933853Y593667D01*
X932602Y595833D01*
X930833Y597602D01*
X928667Y598853D01*
X928248Y598965D01*
Y601035D01*
X928667Y601147D01*
X930833Y602398D01*
X932602Y604167D01*
X933853Y606333D01*
X934500Y608749D01*
Y611251D01*
X933853Y613667D01*
X932602Y615833D01*
X930833Y617602D01*
X928667Y618853D01*
X928248Y618965D01*
Y621035D01*
X928667Y621147D01*
X930833Y622398D01*
X932602Y624167D01*
X933853Y626333D01*
X934500Y628749D01*
Y631251D01*
X933853Y633667D01*
X932602Y635833D01*
X930833Y637602D01*
X928667Y638853D01*
X928248Y638965D01*
Y641035D01*
X928667Y641148D01*
X930833Y642398D01*
X932602Y644167D01*
X933853Y646333D01*
X934500Y648749D01*
Y651251D01*
X933853Y653667D01*
X932602Y655833D01*
X930833Y657602D01*
X928667Y658853D01*
X926251Y659500D01*
D02*
G37*
G36*
X440706Y571550D02*
X439294D01*
X437989Y571009D01*
X436991Y570011D01*
X436450Y568706D01*
Y567294D01*
X436991Y565989D01*
X437989Y564991D01*
X439294Y564450D01*
X440706D01*
X442011Y564991D01*
X443009Y565989D01*
X443550Y567294D01*
Y568706D01*
X443009Y570011D01*
X442011Y571009D01*
X440706Y571550D01*
D02*
G37*
G36*
X559706Y568550D02*
X558294D01*
X556989Y568009D01*
X555990Y567011D01*
X555450Y565706D01*
Y564294D01*
X555990Y562989D01*
X556989Y561991D01*
X558294Y561450D01*
X559706D01*
X561011Y561991D01*
X562010Y562989D01*
X562550Y564294D01*
Y565706D01*
X562010Y567011D01*
X561011Y568009D01*
X559706Y568550D01*
D02*
G37*
G36*
X293206Y556050D02*
X291794D01*
X290489Y555509D01*
X289491Y554511D01*
X288950Y553206D01*
Y551794D01*
X289491Y550489D01*
X290489Y549491D01*
X291794Y548950D01*
X293206D01*
X294511Y549491D01*
X295509Y550489D01*
X296050Y551794D01*
Y553206D01*
X295509Y554511D01*
X294511Y555509D01*
X293206Y556050D01*
D02*
G37*
G36*
X833706Y555550D02*
X832294D01*
X830989Y555009D01*
X829990Y554011D01*
X829450Y552706D01*
Y551294D01*
X829990Y549989D01*
X830989Y548991D01*
X832294Y548450D01*
X833706D01*
X835011Y548991D01*
X836010Y549989D01*
X836550Y551294D01*
Y552706D01*
X836010Y554011D01*
X835011Y555009D01*
X833706Y555550D01*
D02*
G37*
G36*
X820706Y556050D02*
X819294D01*
X817989Y555509D01*
X816991Y554511D01*
X816450Y553206D01*
Y551794D01*
X816991Y550489D01*
X817506Y549974D01*
X817807Y548750D01*
X817506Y547526D01*
X816991Y547011D01*
X816450Y545706D01*
Y544294D01*
X816991Y542989D01*
X817989Y541991D01*
X819294Y541450D01*
X820706D01*
X822011Y541991D01*
X823009Y542989D01*
X823550Y544294D01*
Y545706D01*
X823009Y547011D01*
X822494Y547526D01*
X822193Y548750D01*
X822494Y549974D01*
X823009Y550489D01*
X823550Y551794D01*
Y553206D01*
X823009Y554511D01*
X822011Y555509D01*
X820706Y556050D01*
D02*
G37*
G36*
X587706Y562550D02*
X586294D01*
X584989Y562010D01*
X583991Y561011D01*
X583450Y559706D01*
Y558550D01*
X582294D01*
X580989Y558009D01*
X579991Y557011D01*
X579450Y555706D01*
Y554294D01*
X578639Y554070D01*
X578294D01*
X576989Y553530D01*
X575990Y552531D01*
X575450Y551226D01*
Y549814D01*
X574442Y549474D01*
X574286D01*
X572981Y548934D01*
X571983Y547935D01*
X571442Y546630D01*
X571442Y545218D01*
X570294Y544550D01*
X568989Y544010D01*
X567990Y543011D01*
X567450Y541706D01*
Y540294D01*
X567990Y538989D01*
X568989Y537990D01*
X570294Y537450D01*
X571706D01*
X573011Y537990D01*
X574010Y538989D01*
X574550Y540294D01*
X574550Y541706D01*
X575698Y542374D01*
X577003Y542915D01*
X578002Y543913D01*
X578542Y545218D01*
Y546630D01*
X579550Y546970D01*
X579706D01*
X581011Y547510D01*
X582010Y548509D01*
X582550Y549814D01*
Y551226D01*
X583361Y551450D01*
X583706D01*
X585011Y551991D01*
X586009Y552989D01*
X586550Y554294D01*
Y555450D01*
X587706D01*
X589011Y555990D01*
X590009Y556989D01*
X590550Y558294D01*
Y559706D01*
X590009Y561011D01*
X589011Y562010D01*
X587706Y562550D01*
D02*
G37*
G36*
X860706Y546050D02*
X859294D01*
X857989Y545509D01*
X856991Y544511D01*
X856450Y543206D01*
Y542898D01*
X855920Y541580D01*
X854602Y541050D01*
X854294D01*
X852989Y540509D01*
X851991Y539511D01*
X851450Y538206D01*
Y536794D01*
X851991Y535489D01*
X852989Y534491D01*
X854294Y533950D01*
X855706D01*
X857011Y534491D01*
X858009Y535489D01*
X858550Y536794D01*
Y537102D01*
X859080Y538420D01*
X860398Y538950D01*
X860706D01*
X862011Y539491D01*
X863009Y540489D01*
X863550Y541794D01*
Y543206D01*
X863009Y544511D01*
X862011Y545509D01*
X860706Y546050D01*
D02*
G37*
G36*
X688706Y534550D02*
X687294D01*
X685989Y534010D01*
X684990Y533011D01*
X684450Y531706D01*
Y530294D01*
X684990Y528989D01*
X685989Y527990D01*
X687294Y527450D01*
X688706D01*
X690011Y527990D01*
X691010Y528989D01*
X691550Y530294D01*
Y531706D01*
X691010Y533011D01*
X690011Y534010D01*
X688706Y534550D01*
D02*
G37*
G36*
X577706Y537550D02*
X576294D01*
X574989Y537010D01*
X573991Y536011D01*
X573450Y534706D01*
Y533550D01*
X572294D01*
X570989Y533009D01*
X569991Y532011D01*
X569450Y530706D01*
Y530398D01*
X568920Y529080D01*
X567602Y528550D01*
X567294D01*
X565989Y528009D01*
X564991Y527011D01*
X564450Y525706D01*
Y524294D01*
X564991Y522989D01*
X565989Y521991D01*
X567294Y521450D01*
X568706D01*
X570011Y521991D01*
X571009Y522989D01*
X571550Y524294D01*
Y524602D01*
X572080Y525920D01*
X573398Y526450D01*
X573706D01*
X575011Y526991D01*
X576009Y527989D01*
X576550Y529294D01*
Y530450D01*
X577706D01*
X579011Y530990D01*
X580009Y531989D01*
X580550Y533294D01*
Y534706D01*
X580009Y536011D01*
X579011Y537010D01*
X577706Y537550D01*
D02*
G37*
G36*
X934500Y569000D02*
X925000D01*
X915500D01*
Y568749D01*
X916147Y566333D01*
X917398Y564167D01*
X919167Y562398D01*
X921333Y561147D01*
X921752Y561035D01*
Y558965D01*
X921333Y558853D01*
X919167Y557602D01*
X917398Y555833D01*
X916147Y553667D01*
X915500Y551251D01*
Y548749D01*
X916147Y546333D01*
X917398Y544167D01*
X919167Y542398D01*
X920723Y541500D01*
X920187Y539500D01*
X915500D01*
Y520500D01*
X934500D01*
Y539500D01*
X929813D01*
X929277Y541500D01*
X930833Y542398D01*
X932602Y544167D01*
X933853Y546333D01*
X934500Y548749D01*
Y551251D01*
X933853Y553667D01*
X932602Y555833D01*
X930833Y557602D01*
X928667Y558853D01*
X928248Y558965D01*
Y561035D01*
X928667Y561147D01*
X930833Y562398D01*
X932602Y564167D01*
X933853Y566333D01*
X934500Y568749D01*
Y569000D01*
D02*
G37*
G36*
X869706Y529550D02*
X868294D01*
X866989Y529010D01*
X865991Y528011D01*
X865450Y526706D01*
Y525294D01*
X865991Y523989D01*
X866989Y522990D01*
X868294Y522450D01*
X869706D01*
X871011Y522990D01*
X871989Y523969D01*
X872469Y524023D01*
X874078Y523756D01*
X874524Y522677D01*
X875016Y522186D01*
X874992Y520204D01*
X874784Y519804D01*
X873990Y519011D01*
X873450Y517706D01*
Y516294D01*
X873990Y514989D01*
X874989Y513991D01*
X876294Y513450D01*
X877706D01*
X879011Y513991D01*
X880010Y514989D01*
X880550Y516294D01*
Y517706D01*
X880010Y519011D01*
X879855Y519166D01*
X880253Y521495D01*
X880322Y521524D01*
X881476Y522677D01*
X882100Y524184D01*
Y525816D01*
X881476Y527322D01*
X880322Y528476D01*
X878816Y529100D01*
X877185D01*
X875677Y528476D01*
X874524Y527322D01*
X874409Y527045D01*
X874308Y527027D01*
X872327Y527244D01*
X872010Y528011D01*
X871011Y529010D01*
X869706Y529550D01*
D02*
G37*
G36*
X582706Y520550D02*
X581294D01*
X579989Y520009D01*
X578991Y519011D01*
X578450Y517706D01*
Y516294D01*
X578991Y514989D01*
X579989Y513991D01*
X581294Y513450D01*
X582706D01*
X584011Y513991D01*
X585009Y514989D01*
X585550Y516294D01*
Y517706D01*
X585009Y519011D01*
X584011Y520009D01*
X582706Y520550D01*
D02*
G37*
G36*
X742796Y509000D02*
X741204D01*
X739734Y508391D01*
X738609Y507266D01*
X738000Y505796D01*
Y504204D01*
X738609Y502734D01*
X739734Y501609D01*
X741204Y501000D01*
X742796D01*
X744266Y501609D01*
X745391Y502734D01*
X746000Y504204D01*
Y505796D01*
X745391Y507266D01*
X744266Y508391D01*
X742796Y509000D01*
D02*
G37*
G36*
X928816Y508100D02*
X927185D01*
X925677Y507476D01*
X924524Y506323D01*
X923900Y504816D01*
Y503185D01*
X924524Y501678D01*
X925677Y500524D01*
X927185Y499900D01*
X928816D01*
X930322Y500524D01*
X931476Y501678D01*
X932100Y503185D01*
Y504816D01*
X931476Y506323D01*
X930322Y507476D01*
X928816Y508100D01*
D02*
G37*
G36*
X756696Y506500D02*
X755304D01*
X754017Y505967D01*
X753033Y504983D01*
X752500Y503696D01*
Y502304D01*
X753033Y501017D01*
X754017Y500033D01*
X755304Y499500D01*
X756696D01*
X757983Y500033D01*
X758967Y501017D01*
X759500Y502304D01*
Y503696D01*
X758967Y504983D01*
X757983Y505967D01*
X756696Y506500D01*
D02*
G37*
G36*
X654706Y504550D02*
X653294D01*
X651989Y504010D01*
X650991Y503011D01*
X650450Y501706D01*
Y500294D01*
X650991Y498989D01*
X651989Y497990D01*
X653294Y497450D01*
X654706D01*
X656011Y497990D01*
X657010Y498989D01*
X657550Y500294D01*
Y501706D01*
X657010Y503011D01*
X656011Y504010D01*
X654706Y504550D01*
D02*
G37*
G36*
X845696Y503500D02*
X844304D01*
X843017Y502967D01*
X842033Y501983D01*
X841500Y500696D01*
Y499304D01*
X842033Y498017D01*
X843017Y497033D01*
X844304Y496500D01*
X845696D01*
X846983Y497033D01*
X847967Y498017D01*
X848500Y499304D01*
Y500696D01*
X847967Y501983D01*
X846983Y502967D01*
X845696Y503500D01*
D02*
G37*
G36*
X723706Y493550D02*
X722294D01*
X720989Y493009D01*
X719990Y492011D01*
X719450Y490706D01*
Y489294D01*
X719990Y487989D01*
X720989Y486991D01*
X722294Y486450D01*
X723706D01*
X725011Y486991D01*
X726010Y487989D01*
X726550Y489294D01*
Y490706D01*
X726010Y492011D01*
X725011Y493009D01*
X723706Y493550D01*
D02*
G37*
G36*
X514206Y492800D02*
X512794D01*
X511489Y492259D01*
X510490Y491261D01*
X509950Y489956D01*
Y488544D01*
X510490Y487239D01*
X511489Y486241D01*
X512794Y485700D01*
X514206D01*
X515511Y486241D01*
X516510Y487239D01*
X517050Y488544D01*
Y489956D01*
X516510Y491261D01*
X515511Y492259D01*
X514206Y492800D01*
D02*
G37*
G36*
X573311Y484595D02*
X571680D01*
X571545Y484539D01*
X562500D01*
X562500Y484539D01*
X561720Y484384D01*
X561058Y483942D01*
X553558Y476442D01*
X553116Y475780D01*
X552961Y475000D01*
Y445000D01*
X553116Y444220D01*
X553558Y443558D01*
X553558Y443558D01*
X561058Y436058D01*
X561058Y436058D01*
X561720Y435616D01*
X562500Y435461D01*
X575000D01*
X575000Y435461D01*
X575780Y435616D01*
X576442Y436058D01*
X578942Y438558D01*
X579384Y439220D01*
X579539Y440000D01*
Y453702D01*
X579539Y453702D01*
X579384Y454482D01*
X578942Y455144D01*
X578942Y455144D01*
X578753Y455333D01*
X578439Y456090D01*
Y456910D01*
X578753Y457667D01*
X578942Y457856D01*
X579384Y458518D01*
X579539Y459298D01*
Y461485D01*
X579469Y461836D01*
X579414Y462189D01*
X579392Y462225D01*
X579384Y462266D01*
X579185Y462563D01*
X578999Y462868D01*
X578705Y463186D01*
X578555Y463517D01*
X578335Y464500D01*
X578555Y465482D01*
X578705Y465814D01*
X578999Y466132D01*
X579185Y466437D01*
X579384Y466734D01*
X579392Y466775D01*
X579414Y466811D01*
X579469Y467164D01*
X579539Y467515D01*
Y469702D01*
X579539Y469702D01*
X579384Y470482D01*
X578942Y471144D01*
X578942Y471144D01*
X578753Y471333D01*
X578439Y472090D01*
Y472910D01*
X578753Y473667D01*
X578942Y473856D01*
X579384Y474518D01*
X579539Y475298D01*
Y480000D01*
X579539Y480000D01*
X579384Y480780D01*
X578942Y481442D01*
X576442Y483942D01*
X575780Y484384D01*
X575000Y484539D01*
X573446D01*
X573311Y484595D01*
D02*
G37*
G36*
X589211Y484055D02*
X587799D01*
X586494Y483514D01*
X585495Y482516D01*
X584955Y481211D01*
Y479799D01*
X585495Y478494D01*
X586494Y477495D01*
X587799Y476955D01*
X589211D01*
X590516Y477495D01*
X591514Y478494D01*
X592055Y479799D01*
Y481211D01*
X591514Y482516D01*
X590516Y483514D01*
X589211Y484055D01*
D02*
G37*
G36*
X637211Y484045D02*
X635799D01*
X634494Y483505D01*
X633495Y482506D01*
X632955Y481201D01*
Y479789D01*
X633495Y478484D01*
X634494Y477486D01*
X635799Y476945D01*
X637211D01*
X638516Y477486D01*
X639514Y478484D01*
X640055Y479789D01*
Y481201D01*
X639514Y482506D01*
X638516Y483505D01*
X637211Y484045D01*
D02*
G37*
G36*
X330706Y478550D02*
X329294D01*
X327989Y478009D01*
X326991Y477011D01*
X326450Y475706D01*
Y474294D01*
X326991Y472989D01*
X327989Y471991D01*
X329294Y471450D01*
X330706D01*
X332011Y471991D01*
X333009Y472989D01*
X333550Y474294D01*
Y475706D01*
X333009Y477011D01*
X332011Y478009D01*
X330706Y478550D01*
D02*
G37*
G36*
X893706Y473550D02*
X892294D01*
X890989Y473009D01*
X889990Y472011D01*
X889450Y470706D01*
Y469294D01*
X889990Y467989D01*
X890989Y466991D01*
X892294Y466450D01*
X893706D01*
X895011Y466991D01*
X896010Y467989D01*
X896550Y469294D01*
Y470706D01*
X896010Y472011D01*
X895011Y473009D01*
X893706Y473550D01*
D02*
G37*
G36*
X440706Y471550D02*
X439294D01*
X437989Y471009D01*
X436991Y470011D01*
X436450Y468706D01*
Y467294D01*
X436991Y465989D01*
X437989Y464991D01*
X439294Y464450D01*
X440706D01*
X442011Y464991D01*
X443009Y465989D01*
X443550Y467294D01*
Y468706D01*
X443009Y470011D01*
X442011Y471009D01*
X440706Y471550D01*
D02*
G37*
G36*
X233296Y474000D02*
X231704D01*
X230234Y473391D01*
X229109Y472266D01*
X228500Y470796D01*
Y469204D01*
X229109Y467734D01*
X229287Y467557D01*
X230030Y466250D01*
X229287Y464943D01*
X229109Y464766D01*
X228500Y463296D01*
Y461704D01*
X229109Y460234D01*
X230234Y459109D01*
X231704Y458500D01*
X233296D01*
X234766Y459109D01*
X235891Y460234D01*
X236500Y461704D01*
Y462620D01*
X236703Y462865D01*
X238062Y463768D01*
X238348Y463855D01*
X239204Y463500D01*
X240796D01*
X242266Y464109D01*
X243391Y465234D01*
X244000Y466704D01*
Y468296D01*
X243391Y469766D01*
X242266Y470891D01*
X240796Y471500D01*
X239204D01*
X238354Y471148D01*
X237566Y470998D01*
X236005Y471990D01*
X235891Y472266D01*
X234766Y473391D01*
X233296Y474000D01*
D02*
G37*
G36*
X597206Y468050D02*
X595794D01*
X594489Y467509D01*
X593490Y466511D01*
X592950Y465206D01*
Y463794D01*
X593490Y462489D01*
X594489Y461491D01*
X595794Y460950D01*
X597206D01*
X598511Y461491D01*
X599510Y462489D01*
X600050Y463794D01*
Y465206D01*
X599510Y466511D01*
X598511Y467509D01*
X597206Y468050D01*
D02*
G37*
G36*
X260206Y465800D02*
X258794D01*
X257489Y465260D01*
X256490Y464261D01*
X255950Y462956D01*
Y461544D01*
X256490Y460239D01*
X257489Y459240D01*
X258794Y458700D01*
X260206D01*
X261511Y459240D01*
X262509Y460239D01*
X263050Y461544D01*
Y462956D01*
X262509Y464261D01*
X261511Y465260D01*
X260206Y465800D01*
D02*
G37*
G36*
X495706Y464550D02*
X494294D01*
X492989Y464010D01*
X491991Y463011D01*
X491450Y461706D01*
Y460294D01*
X491991Y458989D01*
X492989Y457990D01*
X494294Y457450D01*
X495706D01*
X497011Y457990D01*
X498009Y458989D01*
X498550Y460294D01*
Y461706D01*
X498009Y463011D01*
X497011Y464010D01*
X495706Y464550D01*
D02*
G37*
G36*
X851706Y457550D02*
X850294D01*
X848989Y457010D01*
X847990Y456011D01*
X847450Y454706D01*
Y453294D01*
X847990Y451989D01*
X848989Y450990D01*
X850294Y450450D01*
X851706D01*
X853011Y450990D01*
X854009Y451989D01*
X854550Y453294D01*
Y454706D01*
X854009Y456011D01*
X853011Y457010D01*
X851706Y457550D01*
D02*
G37*
G36*
X749706Y456550D02*
X748294D01*
X746989Y456009D01*
X745991Y455011D01*
X745450Y453706D01*
Y452294D01*
X745991Y450989D01*
X746989Y449991D01*
X748294Y449450D01*
X749706D01*
X751011Y449991D01*
X752010Y450989D01*
X752550Y452294D01*
Y453706D01*
X752010Y455011D01*
X751011Y456009D01*
X749706Y456550D01*
D02*
G37*
G36*
X605206Y484040D02*
X603794D01*
X602489Y483500D01*
X601491Y482501D01*
X600950Y481196D01*
Y479784D01*
X601491Y478479D01*
X602352Y477618D01*
X602425Y476495D01*
X602352Y475373D01*
X601491Y474511D01*
X600950Y473206D01*
Y471794D01*
X601491Y470489D01*
X602489Y469491D01*
X603794Y468950D01*
X605206D01*
X606511Y469491D01*
X607379Y470359D01*
X608500Y470428D01*
X609621Y470359D01*
X610357Y469622D01*
X610429Y468515D01*
X610359Y467379D01*
X609495Y466516D01*
X608955Y465211D01*
Y463799D01*
X609495Y462494D01*
X610366Y461623D01*
X610432Y460490D01*
X610364Y459384D01*
X609491Y458511D01*
X608950Y457206D01*
Y455794D01*
X609491Y454489D01*
X610357Y453623D01*
X610429Y452515D01*
X610359Y451380D01*
X609495Y450516D01*
X608955Y449211D01*
Y447799D01*
X609495Y446494D01*
X610366Y445623D01*
X610432Y444490D01*
X610364Y443384D01*
X609491Y442511D01*
X608950Y441206D01*
Y439794D01*
X609491Y438489D01*
X610359Y437621D01*
X610428Y436500D01*
X610359Y435379D01*
X609491Y434511D01*
X608950Y433206D01*
Y431794D01*
X609491Y430489D01*
X610359Y429621D01*
X610428Y428500D01*
X610359Y427379D01*
X609621Y426641D01*
X608500Y426572D01*
X607379Y426641D01*
X606511Y427509D01*
X605206Y428050D01*
X603794D01*
X602489Y427509D01*
X601620Y426641D01*
X600500Y426572D01*
X599380Y426641D01*
X598511Y427509D01*
X597206Y428050D01*
X595794D01*
X594489Y427509D01*
X593616Y426636D01*
X592510Y426568D01*
X591377Y426634D01*
X590506Y427505D01*
X589201Y428045D01*
X587789D01*
X586484Y427505D01*
X585620Y426641D01*
X584485Y426571D01*
X583377Y426643D01*
X582511Y427509D01*
X581206Y428050D01*
X579794D01*
X578489Y427509D01*
X577621Y426641D01*
X576500Y426572D01*
X575379Y426641D01*
X574511Y427509D01*
X573206Y428050D01*
X571794D01*
X570489Y427509D01*
X569621Y426641D01*
X568500Y426572D01*
X567379Y426641D01*
X566511Y427509D01*
X565206Y428050D01*
X563794D01*
X562489Y427509D01*
X561491Y426511D01*
X560950Y425206D01*
Y423794D01*
X561491Y422489D01*
X562489Y421491D01*
X563794Y420950D01*
X565206D01*
X566511Y421491D01*
X567379Y422359D01*
X568500Y422428D01*
X569621Y422359D01*
X570359Y421620D01*
X570428Y420500D01*
X570359Y419380D01*
X569491Y418511D01*
X568950Y417206D01*
Y415794D01*
X569491Y414489D01*
X570359Y413620D01*
X570428Y412500D01*
X570359Y411380D01*
X569491Y410511D01*
X568950Y409206D01*
Y407794D01*
X569491Y406489D01*
X570489Y405490D01*
X571794Y404950D01*
X573206D01*
X574511Y405490D01*
X575509Y406489D01*
X575771Y407121D01*
X577802Y407209D01*
X577968Y407043D01*
X577990Y406989D01*
X578989Y405990D01*
X579042Y405969D01*
X579220Y405791D01*
X579124Y403770D01*
X578484Y403505D01*
X577486Y402506D01*
X576945Y401201D01*
Y399789D01*
X577486Y398484D01*
X578359Y397611D01*
X578427Y396506D01*
X578361Y395372D01*
X577491Y394501D01*
X576950Y393196D01*
Y391784D01*
X577491Y390479D01*
X578489Y389481D01*
X579794Y388940D01*
X581206D01*
X582511Y389481D01*
X583509Y390479D01*
X584050Y391784D01*
Y393196D01*
X583509Y394501D01*
X582636Y395375D01*
X582568Y396480D01*
X582634Y397614D01*
X583505Y398484D01*
X584045Y399789D01*
Y401201D01*
X583505Y402506D01*
X582506Y403505D01*
X582270Y403602D01*
X582371Y405725D01*
X583011Y405990D01*
X584010Y406989D01*
X584550Y408294D01*
Y409706D01*
X584010Y411011D01*
X583011Y412010D01*
X581706Y412550D01*
X580294D01*
X578989Y412010D01*
X577990Y411011D01*
X577729Y410379D01*
X575602Y410287D01*
X575509Y410511D01*
X574641Y411380D01*
X574572Y412500D01*
X574641Y413620D01*
X575509Y414489D01*
X576050Y415794D01*
Y417206D01*
X575509Y418511D01*
X574641Y419380D01*
X574572Y420500D01*
X574641Y421620D01*
X575379Y422359D01*
X576500Y422428D01*
X577621Y422359D01*
X578489Y421491D01*
X579794Y420950D01*
X581206D01*
X582511Y421491D01*
X583375Y422354D01*
X584510Y422424D01*
X585618Y422352D01*
X586484Y421486D01*
X587789Y420945D01*
X589201D01*
X590506Y421486D01*
X591380Y422359D01*
X592485Y422427D01*
X593618Y422361D01*
X594359Y421620D01*
X594428Y420500D01*
X594359Y419380D01*
X593490Y418511D01*
X592950Y417206D01*
Y415794D01*
X593490Y414489D01*
X594109Y413871D01*
X594204Y412332D01*
X594006Y411526D01*
X593241Y410761D01*
X592700Y409456D01*
Y408044D01*
X593241Y406739D01*
X594239Y405741D01*
X595544Y405200D01*
X596956D01*
X598261Y405741D01*
X599259Y406739D01*
X601406Y406694D01*
X601491Y406489D01*
X602109Y405871D01*
X602204Y404332D01*
X602006Y403526D01*
X601241Y402761D01*
X600700Y401456D01*
Y400044D01*
X601241Y398739D01*
X602239Y397741D01*
X603544Y397200D01*
X604956D01*
X606261Y397741D01*
X607259Y398739D01*
X607800Y400044D01*
Y401456D01*
X607259Y402761D01*
X606641Y403380D01*
X606546Y404918D01*
X606744Y405724D01*
X607509Y406489D01*
X608050Y407794D01*
Y409206D01*
X607509Y410511D01*
X606511Y411510D01*
X605206Y412050D01*
X603794D01*
X602489Y411510D01*
X601491Y410511D01*
X599344Y410556D01*
X599259Y410761D01*
X598641Y411380D01*
X598546Y412918D01*
X598744Y413724D01*
X599510Y414489D01*
X600050Y415794D01*
Y417206D01*
X599510Y418511D01*
X598641Y419380D01*
X598572Y420500D01*
X598641Y421620D01*
X599380Y422359D01*
X600500Y422428D01*
X601620Y422359D01*
X602489Y421491D01*
X603794Y420950D01*
X605206D01*
X606511Y421491D01*
X607379Y422359D01*
X608500Y422428D01*
X609621Y422359D01*
X610489Y421491D01*
X611794Y420950D01*
X613206D01*
X614511Y421491D01*
X615509Y422489D01*
X616050Y423794D01*
Y425206D01*
X615509Y426511D01*
X614641Y427379D01*
X614572Y428500D01*
X614641Y429621D01*
X615378Y430357D01*
X616485Y430429D01*
X617621Y430359D01*
X618484Y429495D01*
X619789Y428955D01*
X621201D01*
X622506Y429495D01*
X623505Y430494D01*
X624045Y431799D01*
Y433211D01*
X623505Y434516D01*
X622506Y435514D01*
X621201Y436055D01*
X619789D01*
X618484Y435514D01*
X617618Y434648D01*
X616510Y434576D01*
X615375Y434646D01*
X614641Y435379D01*
X614572Y436500D01*
X614641Y437621D01*
X615509Y438489D01*
X616050Y439794D01*
Y441206D01*
X615509Y442511D01*
X614639Y443382D01*
X614573Y444515D01*
X614641Y445620D01*
X615378Y446357D01*
X616500Y446430D01*
X617622Y446357D01*
X618484Y445495D01*
X619789Y444955D01*
X621201D01*
X622506Y445495D01*
X623505Y446494D01*
X624045Y447799D01*
Y449211D01*
X623505Y450516D01*
X622506Y451514D01*
X621201Y452055D01*
X619789D01*
X618484Y451514D01*
X617622Y450653D01*
X616500Y450580D01*
X615378Y450653D01*
X614648Y451382D01*
X614576Y452490D01*
X614646Y453625D01*
X615509Y454489D01*
X616050Y455794D01*
Y457206D01*
X615509Y458511D01*
X614639Y459381D01*
X614573Y460515D01*
X614641Y461620D01*
X615514Y462494D01*
X616055Y463799D01*
Y465211D01*
X615514Y466516D01*
X614648Y467382D01*
X614576Y468490D01*
X614646Y469625D01*
X615509Y470489D01*
X616050Y471794D01*
Y473206D01*
X615509Y474511D01*
X614511Y475509D01*
X613206Y476050D01*
X611794D01*
X610489Y475509D01*
X609621Y474641D01*
X608500Y474572D01*
X607379Y474641D01*
X606648Y475373D01*
X606575Y476495D01*
X606648Y477618D01*
X607509Y478479D01*
X608050Y479784D01*
Y481196D01*
X607509Y482501D01*
X606511Y483500D01*
X605206Y484040D01*
D02*
G37*
G36*
X853706Y446550D02*
X852294D01*
X850989Y446009D01*
X849990Y445011D01*
X849450Y443706D01*
Y442294D01*
X849990Y440989D01*
X850989Y439991D01*
X852294Y439450D01*
X853706D01*
X855011Y439991D01*
X856010Y440989D01*
X856550Y442294D01*
Y443706D01*
X856010Y445011D01*
X855011Y446009D01*
X853706Y446550D01*
D02*
G37*
G36*
X865816Y427100D02*
X864184D01*
X862678Y426476D01*
X861524Y425322D01*
X860900Y423815D01*
Y422184D01*
X861524Y420677D01*
X862678Y419524D01*
X864184Y418900D01*
X865816D01*
X867322Y419524D01*
X868476Y420677D01*
X869100Y422184D01*
Y423815D01*
X868476Y425322D01*
X867322Y426476D01*
X865816Y427100D01*
D02*
G37*
G36*
X747706Y414550D02*
X746294D01*
X744989Y414010D01*
X743990Y413011D01*
X743450Y411706D01*
Y410294D01*
X743990Y408989D01*
X744989Y407990D01*
X746294Y407450D01*
X747706D01*
X749011Y407990D01*
X750010Y408989D01*
X750550Y410294D01*
Y411706D01*
X750010Y413011D01*
X749011Y414010D01*
X747706Y414550D01*
D02*
G37*
G36*
X735696Y413500D02*
X734304D01*
X733017Y412967D01*
X732033Y411983D01*
X731500Y410696D01*
Y409304D01*
X732033Y408017D01*
X733017Y407033D01*
X734304Y406500D01*
X735696D01*
X736983Y407033D01*
X737967Y408017D01*
X738500Y409304D01*
Y410696D01*
X737967Y411983D01*
X736983Y412967D01*
X735696Y413500D01*
D02*
G37*
G36*
X637315Y412600D02*
X635685D01*
X634178Y411976D01*
X633024Y410822D01*
X632400Y409315D01*
Y407685D01*
X633024Y406177D01*
X634178Y405024D01*
X635685Y404400D01*
X637315D01*
X638822Y405024D01*
X639976Y406177D01*
X640600Y407685D01*
Y409315D01*
X639976Y410822D01*
X638822Y411976D01*
X637315Y412600D01*
D02*
G37*
G36*
X839696Y407500D02*
X838304D01*
X837017Y406967D01*
X836033Y405983D01*
X835500Y404696D01*
Y403304D01*
X836033Y402017D01*
X837017Y401033D01*
X838304Y400500D01*
X839696D01*
X840983Y401033D01*
X841967Y402017D01*
X842500Y403304D01*
Y404696D01*
X841967Y405983D01*
X840983Y406967D01*
X839696Y407500D01*
D02*
G37*
G36*
X557211Y404055D02*
X555799D01*
X554494Y403514D01*
X553495Y402516D01*
X552955Y401211D01*
Y399799D01*
X553495Y398494D01*
X554494Y397495D01*
X555799Y396955D01*
X557211D01*
X558516Y397495D01*
X559514Y398494D01*
X560055Y399799D01*
Y401211D01*
X559514Y402516D01*
X558516Y403514D01*
X557211Y404055D01*
D02*
G37*
G36*
X629315Y404590D02*
X627684D01*
X626177Y403966D01*
X625024Y402813D01*
X624400Y401306D01*
Y399675D01*
X625024Y398168D01*
X626177Y397015D01*
X627684Y396390D01*
X629315D01*
X630822Y397015D01*
X631976Y398168D01*
X632600Y399675D01*
Y401306D01*
X631976Y402813D01*
X630822Y403966D01*
X629315Y404590D01*
D02*
G37*
G36*
X596956Y382800D02*
X595544D01*
X594239Y382259D01*
X593241Y381261D01*
X592700Y379956D01*
Y378544D01*
X593241Y377239D01*
X594239Y376241D01*
X595544Y375700D01*
X596956D01*
X598261Y376241D01*
X599259Y377239D01*
X599800Y378544D01*
Y379956D01*
X599259Y381261D01*
X598261Y382259D01*
X596956Y382800D01*
D02*
G37*
G36*
X744706Y382550D02*
X743294D01*
X741989Y382010D01*
X740991Y381011D01*
X740450Y379706D01*
Y378294D01*
X740991Y376989D01*
X741989Y375990D01*
X743294Y375450D01*
X744706D01*
X746011Y375990D01*
X747010Y376989D01*
X747550Y378294D01*
Y379706D01*
X747010Y381011D01*
X746011Y382010D01*
X744706Y382550D01*
D02*
G37*
G36*
X414706Y379550D02*
X413294D01*
X411989Y379010D01*
X410990Y378011D01*
X410450Y376706D01*
Y375294D01*
X410990Y373989D01*
X411989Y372990D01*
X413294Y372450D01*
X414706D01*
X416011Y372990D01*
X417010Y373989D01*
X417550Y375294D01*
Y376706D01*
X417010Y378011D01*
X416011Y379010D01*
X414706Y379550D01*
D02*
G37*
G36*
X617706Y375550D02*
X616294D01*
X614989Y375009D01*
X613991Y374011D01*
X613450Y372706D01*
Y371294D01*
X613991Y369989D01*
X614989Y368991D01*
X616294Y368450D01*
X617706D01*
X619011Y368991D01*
X620009Y369989D01*
X620550Y371294D01*
Y372706D01*
X620009Y374011D01*
X619011Y375009D01*
X617706Y375550D01*
D02*
G37*
G36*
X600956Y368800D02*
X599544D01*
X598239Y368260D01*
X597240Y367261D01*
X596700Y365956D01*
Y364544D01*
X597240Y363239D01*
X598239Y362240D01*
X599544Y361700D01*
X600956D01*
X602261Y362240D01*
X603260Y363239D01*
X603800Y364544D01*
Y365956D01*
X603260Y367261D01*
X602261Y368260D01*
X600956Y368800D01*
D02*
G37*
G36*
X589706Y367550D02*
X588294D01*
X586989Y367010D01*
X585990Y366011D01*
X585450Y364706D01*
Y363294D01*
X585990Y361989D01*
X586989Y360990D01*
X588294Y360450D01*
X589706D01*
X591011Y360990D01*
X592010Y361989D01*
X592550Y363294D01*
Y364706D01*
X592010Y366011D01*
X591011Y367010D01*
X589706Y367550D01*
D02*
G37*
G36*
X635956Y363550D02*
X634544D01*
X633239Y363009D01*
X632240Y362011D01*
X631700Y360706D01*
Y359294D01*
X632240Y357989D01*
X633239Y356991D01*
X634544Y356450D01*
X635956D01*
X637261Y356991D01*
X638260Y357989D01*
X638800Y359294D01*
Y360706D01*
X638260Y362011D01*
X637261Y363009D01*
X635956Y363550D01*
D02*
G37*
G36*
X667706Y360550D02*
X666294D01*
X664989Y360009D01*
X663990Y359011D01*
X663450Y357706D01*
Y356294D01*
X663990Y354989D01*
X664989Y353991D01*
X666294Y353450D01*
X667706D01*
X669011Y353991D01*
X670010Y354989D01*
X670550Y356294D01*
Y357706D01*
X670010Y359011D01*
X669011Y360009D01*
X667706Y360550D01*
D02*
G37*
G36*
X618706Y353550D02*
X617294D01*
X615989Y353009D01*
X614991Y352011D01*
X614450Y350706D01*
Y349294D01*
X614991Y347989D01*
X615989Y346991D01*
X617294Y346450D01*
X618706D01*
X620011Y346991D01*
X621009Y347989D01*
X621550Y349294D01*
Y350706D01*
X621009Y352011D01*
X620011Y353009D01*
X618706Y353550D01*
D02*
G37*
G36*
X832816Y350100D02*
X831184D01*
X829678Y349476D01*
X828524Y348322D01*
X827900Y346815D01*
Y345185D01*
X828524Y343677D01*
X829678Y342524D01*
X831184Y341900D01*
X832816D01*
X834323Y342524D01*
X835476Y343677D01*
X836100Y345185D01*
Y346815D01*
X835476Y348322D01*
X834323Y349476D01*
X832816Y350100D01*
D02*
G37*
G36*
X588706Y346550D02*
X587294D01*
X585989Y346009D01*
X584991Y345011D01*
X584450Y343706D01*
Y342294D01*
X584991Y340989D01*
X585989Y339991D01*
X587294Y339450D01*
X588706D01*
X590011Y339991D01*
X591009Y340989D01*
X591550Y342294D01*
Y343706D01*
X591009Y345011D01*
X590011Y346009D01*
X588706Y346550D01*
D02*
G37*
G36*
X441706D02*
X440294D01*
X438989Y346009D01*
X437990Y345011D01*
X437450Y343706D01*
Y342294D01*
X437990Y340989D01*
X438989Y339991D01*
X440294Y339450D01*
X441706D01*
X443011Y339991D01*
X444010Y340989D01*
X444550Y342294D01*
Y343706D01*
X444010Y345011D01*
X443011Y346009D01*
X441706Y346550D01*
D02*
G37*
G36*
X563206Y346050D02*
X561794D01*
X560489Y345509D01*
X559491Y344511D01*
X558950Y343206D01*
Y341794D01*
X559491Y340489D01*
X560489Y339491D01*
X561794Y338950D01*
X563206D01*
X564511Y339491D01*
X565509Y340489D01*
X566050Y341794D01*
Y343206D01*
X565509Y344511D01*
X564511Y345509D01*
X563206Y346050D01*
D02*
G37*
G36*
X667706Y343550D02*
X666294D01*
X664989Y343009D01*
X663990Y342011D01*
X663450Y340706D01*
Y339294D01*
X663990Y337989D01*
X664989Y336991D01*
X666294Y336450D01*
X667706D01*
X669011Y336991D01*
X670010Y337989D01*
X670550Y339294D01*
Y340706D01*
X670010Y342011D01*
X669011Y343009D01*
X667706Y343550D01*
D02*
G37*
G36*
X630706D02*
X629294D01*
X627989Y343009D01*
X626991Y342011D01*
X626450Y340706D01*
Y339294D01*
X626991Y337989D01*
X627989Y336991D01*
X629294Y336450D01*
X630706D01*
X632011Y336991D01*
X633009Y337989D01*
X633550Y339294D01*
Y340706D01*
X633009Y342011D01*
X632011Y343009D01*
X630706Y343550D01*
D02*
G37*
G36*
X790706Y371550D02*
X789294D01*
X787989Y371009D01*
X786991Y370011D01*
X786450Y368706D01*
Y368398D01*
X785920Y367080D01*
X784602Y366550D01*
X784294D01*
X782989Y366009D01*
X781991Y365011D01*
X781450Y363706D01*
Y363398D01*
X780920Y362080D01*
X779602Y361550D01*
X779294D01*
X777989Y361009D01*
X776991Y360011D01*
X776450Y358706D01*
X776450Y357294D01*
X775294Y356550D01*
X773989Y356009D01*
X772990Y355011D01*
X772450Y353706D01*
X772450Y352294D01*
X771294Y351550D01*
X769989Y351009D01*
X768990Y350011D01*
X768450Y348706D01*
X768450Y347294D01*
X766696Y346302D01*
X765989Y346009D01*
X764990Y345011D01*
X764450Y343706D01*
X764450Y342294D01*
X763294Y341550D01*
X761989Y341009D01*
X760991Y340011D01*
X760450Y338706D01*
Y337294D01*
X760991Y335989D01*
X761989Y334991D01*
X763294Y334450D01*
X764706D01*
X766011Y334991D01*
X767010Y335989D01*
X767550Y337294D01*
X767550Y338706D01*
X768706Y339450D01*
X770011Y339991D01*
X771010Y340989D01*
X771550Y342294D01*
X771550Y343706D01*
X773304Y344698D01*
X774011Y344991D01*
X775010Y345989D01*
X775550Y347294D01*
X775550Y348706D01*
X776706Y349450D01*
X778011Y349991D01*
X779009Y350989D01*
X779550Y352294D01*
X779550Y353706D01*
X780706Y354450D01*
X782011Y354991D01*
X783009Y355989D01*
X783550Y357294D01*
Y357602D01*
X784080Y358920D01*
X785398Y359450D01*
X785706D01*
X787011Y359991D01*
X788009Y360989D01*
X788550Y362294D01*
Y362602D01*
X789080Y363920D01*
X790398Y364450D01*
X790706D01*
X792011Y364991D01*
X793009Y365989D01*
X793550Y367294D01*
Y368706D01*
X793009Y370011D01*
X792011Y371009D01*
X790706Y371550D01*
D02*
G37*
G36*
X711706D02*
X710294D01*
X708989Y371009D01*
X707990Y370011D01*
X707450Y368706D01*
Y367294D01*
X705989Y366009D01*
X704990Y365011D01*
X704450Y363706D01*
Y362294D01*
X702989Y361009D01*
X701991Y360011D01*
X701450Y358706D01*
Y357294D01*
X701581Y356979D01*
X701294Y356550D01*
X699989Y356009D01*
X698990Y355011D01*
X698450Y353706D01*
Y352294D01*
X696989Y351009D01*
X695991Y350011D01*
X695450Y348706D01*
Y347294D01*
X695581Y346979D01*
X695294Y346550D01*
X693989Y346009D01*
X692990Y345011D01*
X692450Y343706D01*
X692450Y342294D01*
X690696Y341302D01*
X689989Y341009D01*
X688990Y340011D01*
X688450Y338706D01*
Y337294D01*
X688990Y335989D01*
X689989Y334991D01*
X691294Y334450D01*
X692706D01*
X694011Y334991D01*
X695010Y335989D01*
X695550Y337294D01*
X695550Y338706D01*
X697304Y339698D01*
X698011Y339991D01*
X699009Y340989D01*
X699550Y342294D01*
Y343706D01*
X699419Y344021D01*
X699706Y344450D01*
X701011Y344991D01*
X702010Y345989D01*
X702550Y347294D01*
Y348706D01*
X704011Y349991D01*
X705010Y350989D01*
X705550Y352294D01*
Y353706D01*
X705419Y354021D01*
X705706Y354450D01*
X707011Y354991D01*
X708009Y355989D01*
X708550Y357294D01*
Y358706D01*
X710011Y359991D01*
X711010Y360989D01*
X711550Y362294D01*
Y363706D01*
X713011Y364991D01*
X714009Y365989D01*
X714550Y367294D01*
Y368706D01*
X714009Y370011D01*
X713011Y371009D01*
X711706Y371550D01*
D02*
G37*
G36*
X328706Y336550D02*
X327294D01*
X325989Y336009D01*
X324991Y335011D01*
X324450Y333706D01*
Y332294D01*
X324991Y330989D01*
X325989Y329991D01*
X327294Y329450D01*
X328706D01*
X330011Y329991D01*
X331009Y330989D01*
X331550Y332294D01*
Y333706D01*
X331009Y335011D01*
X330011Y336009D01*
X328706Y336550D01*
D02*
G37*
G36*
X588156Y335550D02*
X586744D01*
X585439Y335009D01*
X584440Y334011D01*
X583900Y332706D01*
Y331294D01*
X584440Y329989D01*
X585439Y328991D01*
X586744Y328450D01*
X588156D01*
X589461Y328991D01*
X590460Y329989D01*
X591000Y331294D01*
Y332706D01*
X590460Y334011D01*
X589461Y335009D01*
X588156Y335550D01*
D02*
G37*
G36*
X563206Y331050D02*
X561794D01*
X560489Y330509D01*
X559491Y329511D01*
X558950Y328206D01*
Y326794D01*
X559491Y325489D01*
X560489Y324491D01*
X561794Y323950D01*
X563206D01*
X564511Y324491D01*
X565509Y325489D01*
X566050Y326794D01*
Y328206D01*
X565509Y329511D01*
X564511Y330509D01*
X563206Y331050D01*
D02*
G37*
G36*
X600706Y330550D02*
X599294D01*
X597989Y330009D01*
X596991Y329011D01*
X596450Y327706D01*
Y326294D01*
X596991Y324989D01*
X597989Y323991D01*
X599294Y323450D01*
X600706D01*
X602011Y323991D01*
X603009Y324989D01*
X603550Y326294D01*
Y327706D01*
X603009Y329011D01*
X602011Y330009D01*
X600706Y330550D01*
D02*
G37*
G36*
X630706Y321050D02*
X629294D01*
X627989Y320509D01*
X626991Y319511D01*
X626450Y318206D01*
Y316794D01*
X626991Y315489D01*
X627989Y314491D01*
X629294Y313950D01*
X630706D01*
X632011Y314491D01*
X633009Y315489D01*
X633550Y316794D01*
Y318206D01*
X633009Y319511D01*
X632011Y320509D01*
X630706Y321050D01*
D02*
G37*
G36*
X568206D02*
X566794D01*
X565489Y320509D01*
X564491Y319511D01*
X563950Y318206D01*
Y316794D01*
X564491Y315489D01*
X565489Y314491D01*
X566794Y313950D01*
X568206D01*
X569511Y314491D01*
X570509Y315489D01*
X571050Y316794D01*
Y318206D01*
X570509Y319511D01*
X569511Y320509D01*
X568206Y321050D01*
D02*
G37*
G36*
X606706Y320550D02*
X605294D01*
X603989Y320009D01*
X602990Y319011D01*
X602450Y317706D01*
Y316294D01*
X602990Y314989D01*
X603989Y313990D01*
X605294Y313450D01*
X606706D01*
X608011Y313990D01*
X609010Y314989D01*
X609550Y316294D01*
Y317706D01*
X609010Y319011D01*
X608011Y320009D01*
X606706Y320550D01*
D02*
G37*
G36*
X654706Y320550D02*
X653294D01*
X651989Y320009D01*
X650991Y319011D01*
X650450Y317706D01*
Y316294D01*
X650991Y314989D01*
X651989Y313990D01*
X653294Y313450D01*
X654706D01*
X656011Y313990D01*
X657010Y314989D01*
X657550Y316294D01*
Y317706D01*
X657010Y319011D01*
X656011Y320009D01*
X654706Y320550D01*
D02*
G37*
G36*
X642706D02*
X641294D01*
X639989Y320009D01*
X638991Y319011D01*
X638450Y317706D01*
Y316294D01*
X638991Y314989D01*
X639989Y313990D01*
X641294Y313450D01*
X642706D01*
X644011Y313990D01*
X645010Y314989D01*
X645550Y316294D01*
Y317706D01*
X645010Y319011D01*
X644011Y320009D01*
X642706Y320550D01*
D02*
G37*
G36*
X618706D02*
X617294D01*
X615989Y320009D01*
X614991Y319011D01*
X614450Y317706D01*
Y316294D01*
X614991Y314989D01*
X615989Y313990D01*
X617294Y313450D01*
X618706D01*
X620011Y313990D01*
X621009Y314989D01*
X621550Y316294D01*
Y317706D01*
X621009Y319011D01*
X620011Y320009D01*
X618706Y320550D01*
D02*
G37*
G36*
X326706D02*
X325294D01*
X323989Y320009D01*
X322990Y319011D01*
X322450Y317706D01*
Y316294D01*
X322990Y314989D01*
X323989Y313990D01*
X325294Y313450D01*
X326706D01*
X328011Y313990D01*
X329010Y314989D01*
X329550Y316294D01*
Y317706D01*
X329010Y319011D01*
X328011Y320009D01*
X326706Y320550D01*
D02*
G37*
G36*
X555706Y318550D02*
X554294D01*
X552989Y318009D01*
X551991Y317011D01*
X551450Y315706D01*
Y314294D01*
X551991Y312989D01*
X552989Y311991D01*
X554294Y311450D01*
X555706D01*
X557011Y311991D01*
X558009Y312989D01*
X558550Y314294D01*
Y315706D01*
X558009Y317011D01*
X557011Y318009D01*
X555706Y318550D01*
D02*
G37*
G36*
X842251Y317500D02*
X842000D01*
Y309000D01*
X850500D01*
Y309251D01*
X849853Y311667D01*
X848602Y313833D01*
X846833Y315602D01*
X844667Y316853D01*
X842251Y317500D01*
D02*
G37*
G36*
X840000D02*
X839749D01*
X837333Y316853D01*
X835167Y315602D01*
X833398Y313833D01*
X832147Y311667D01*
X831500Y309251D01*
Y309000D01*
X840000D01*
Y317500D01*
D02*
G37*
G36*
X762251D02*
X762000D01*
Y309000D01*
X770500D01*
Y309251D01*
X769853Y311667D01*
X768602Y313833D01*
X766833Y315602D01*
X764667Y316853D01*
X762251Y317500D01*
D02*
G37*
G36*
X760000D02*
X759749D01*
X757333Y316853D01*
X755167Y315602D01*
X753398Y313833D01*
X752147Y311667D01*
X751500Y309251D01*
Y309000D01*
X760000D01*
Y317500D01*
D02*
G37*
G36*
X585706Y316050D02*
X584294D01*
X582989Y315509D01*
X581991Y314511D01*
X581450Y313206D01*
Y311794D01*
X581991Y310489D01*
X582989Y309491D01*
X584294Y308950D01*
X585706D01*
X587011Y309491D01*
X588009Y310489D01*
X588550Y311794D01*
Y313206D01*
X588009Y314511D01*
X587011Y315509D01*
X585706Y316050D01*
D02*
G37*
G36*
X628796Y310000D02*
X627204D01*
X625734Y309391D01*
X624609Y308266D01*
X624000Y306796D01*
Y305204D01*
X624609Y303734D01*
X625734Y302609D01*
X627204Y302000D01*
X628796D01*
X630266Y302609D01*
X631391Y303734D01*
X632000Y305204D01*
Y306796D01*
X631391Y308266D01*
X630266Y309391D01*
X628796Y310000D01*
D02*
G37*
G36*
X821987Y315500D02*
X820013D01*
X818105Y314989D01*
X816395Y314002D01*
X814998Y312605D01*
X814011Y310895D01*
X813500Y308987D01*
Y307013D01*
X814011Y305105D01*
X814998Y303395D01*
X816395Y301999D01*
X818105Y301011D01*
X820013Y300500D01*
X821987D01*
X823895Y301011D01*
X825605Y301999D01*
X827001Y303395D01*
X827989Y305105D01*
X828500Y307013D01*
Y308987D01*
X827989Y310895D01*
X827001Y312605D01*
X825605Y314002D01*
X823895Y314989D01*
X821987Y315500D01*
D02*
G37*
G36*
X801987D02*
X800013D01*
X798105Y314989D01*
X796395Y314002D01*
X794998Y312605D01*
X794011Y310895D01*
X793500Y308987D01*
Y307013D01*
X794011Y305105D01*
X794998Y303395D01*
X796395Y301999D01*
X798105Y301011D01*
X800013Y300500D01*
X801987D01*
X803895Y301011D01*
X805605Y301999D01*
X807001Y303395D01*
X807989Y305105D01*
X808500Y307013D01*
Y308987D01*
X807989Y310895D01*
X807001Y312605D01*
X805605Y314002D01*
X803895Y314989D01*
X801987Y315500D01*
D02*
G37*
G36*
X781987D02*
X780013D01*
X778105Y314989D01*
X776395Y314002D01*
X774998Y312605D01*
X774011Y310895D01*
X773500Y308987D01*
Y307013D01*
X774011Y305105D01*
X774998Y303395D01*
X776395Y301999D01*
X778105Y301011D01*
X780013Y300500D01*
X781987D01*
X783895Y301011D01*
X785605Y301999D01*
X787001Y303395D01*
X787989Y305105D01*
X788500Y307013D01*
Y308987D01*
X787989Y310895D01*
X787001Y312605D01*
X785605Y314002D01*
X783895Y314989D01*
X781987Y315500D01*
D02*
G37*
G36*
X850500Y307000D02*
X842000D01*
Y298500D01*
X842251D01*
X844667Y299147D01*
X846833Y300398D01*
X848602Y302167D01*
X849853Y304333D01*
X850500Y306749D01*
Y307000D01*
D02*
G37*
G36*
X840000D02*
X831500D01*
Y306749D01*
X832147Y304333D01*
X833398Y302167D01*
X835167Y300398D01*
X837333Y299147D01*
X839749Y298500D01*
X840000D01*
Y307000D01*
D02*
G37*
G36*
X770500D02*
X762000D01*
Y298500D01*
X762251D01*
X764667Y299147D01*
X766833Y300398D01*
X768602Y302167D01*
X769853Y304333D01*
X770500Y306749D01*
Y307000D01*
D02*
G37*
G36*
X760000D02*
X751500D01*
Y306749D01*
X752147Y304333D01*
X753398Y302167D01*
X755167Y300398D01*
X757333Y299147D01*
X759749Y298500D01*
X760000D01*
Y307000D01*
D02*
G37*
G36*
X293706Y305550D02*
X292294D01*
X290989Y305009D01*
X289991Y304011D01*
X289450Y302706D01*
Y301294D01*
X289991Y299989D01*
X290989Y298990D01*
X292294Y298450D01*
X293706D01*
X295011Y298990D01*
X296010Y299989D01*
X296550Y301294D01*
Y302706D01*
X296010Y304011D01*
X295011Y305009D01*
X293706Y305550D01*
D02*
G37*
G36*
X515706Y303550D02*
X514294D01*
X512989Y303009D01*
X511991Y302011D01*
X511450Y300706D01*
Y299294D01*
X511991Y297989D01*
X512989Y296991D01*
X514294Y296450D01*
X515706D01*
X517011Y296991D01*
X518009Y297989D01*
X518550Y299294D01*
Y300706D01*
X518009Y302011D01*
X517011Y303009D01*
X515706Y303550D01*
D02*
G37*
G36*
X293706Y290550D02*
X292294D01*
X290989Y290009D01*
X289991Y289011D01*
X289450Y287706D01*
Y286294D01*
X289991Y284989D01*
X290989Y283990D01*
X292294Y283450D01*
X293706D01*
X295011Y283990D01*
X296010Y284989D01*
X296550Y286294D01*
Y287706D01*
X296010Y289011D01*
X295011Y290009D01*
X293706Y290550D01*
D02*
G37*
G36*
X544706Y288550D02*
X543294D01*
X541989Y288009D01*
X540990Y287011D01*
X540450Y285706D01*
Y284294D01*
X540990Y282989D01*
X541989Y281991D01*
X543294Y281450D01*
X544706D01*
X546011Y281991D01*
X547010Y282989D01*
X547550Y284294D01*
Y285706D01*
X547010Y287011D01*
X546011Y288009D01*
X544706Y288550D01*
D02*
G37*
G36*
X515706D02*
X514294D01*
X512989Y288009D01*
X511991Y287011D01*
X511450Y285706D01*
Y284294D01*
X511991Y282989D01*
X512989Y281991D01*
X514294Y281450D01*
X515706D01*
X517011Y281991D01*
X518009Y282989D01*
X518550Y284294D01*
Y285706D01*
X518009Y287011D01*
X517011Y288009D01*
X515706Y288550D01*
D02*
G37*
G36*
X646796Y289000D02*
X645204D01*
X643734Y288391D01*
X642609Y287266D01*
X642000Y285796D01*
Y284204D01*
X642609Y282734D01*
X643734Y281609D01*
X645204Y281000D01*
X646796D01*
X648266Y281609D01*
X649391Y282734D01*
X650000Y284204D01*
Y285796D01*
X649391Y287266D01*
X648266Y288391D01*
X646796Y289000D01*
D02*
G37*
G36*
X841987Y295500D02*
X840013D01*
X838105Y294989D01*
X836395Y294002D01*
X834998Y292605D01*
X834011Y290895D01*
X833500Y288987D01*
Y287013D01*
X834011Y285105D01*
X834998Y283395D01*
X836395Y281999D01*
X838105Y281011D01*
X840013Y280500D01*
X841987D01*
X843895Y281011D01*
X845605Y281999D01*
X847001Y283395D01*
X847989Y285105D01*
X848500Y287013D01*
Y288987D01*
X847989Y290895D01*
X847001Y292605D01*
X845605Y294002D01*
X843895Y294989D01*
X841987Y295500D01*
D02*
G37*
G36*
X821987D02*
X820013D01*
X818105Y294989D01*
X816395Y294002D01*
X814998Y292605D01*
X814011Y290895D01*
X813500Y288987D01*
Y287013D01*
X814011Y285105D01*
X814998Y283395D01*
X816395Y281999D01*
X818105Y281011D01*
X820013Y280500D01*
X821987D01*
X823895Y281011D01*
X825605Y281999D01*
X827001Y283395D01*
X827989Y285105D01*
X828500Y287013D01*
Y288987D01*
X827989Y290895D01*
X827001Y292605D01*
X825605Y294002D01*
X823895Y294989D01*
X821987Y295500D01*
D02*
G37*
G36*
X801987D02*
X800013D01*
X798105Y294989D01*
X796395Y294002D01*
X794998Y292605D01*
X794011Y290895D01*
X793500Y288987D01*
Y287013D01*
X794011Y285105D01*
X794998Y283395D01*
X796395Y281999D01*
X798105Y281011D01*
X800013Y280500D01*
X801987D01*
X803895Y281011D01*
X805605Y281999D01*
X807001Y283395D01*
X807989Y285105D01*
X808500Y287013D01*
Y288987D01*
X807989Y290895D01*
X807001Y292605D01*
X805605Y294002D01*
X803895Y294989D01*
X801987Y295500D01*
D02*
G37*
G36*
X781987D02*
X780013D01*
X778105Y294989D01*
X776395Y294002D01*
X774998Y292605D01*
X774011Y290895D01*
X773500Y288987D01*
Y287013D01*
X774011Y285105D01*
X774998Y283395D01*
X776395Y281999D01*
X778105Y281011D01*
X780013Y280500D01*
X781987D01*
X783895Y281011D01*
X785605Y281999D01*
X787001Y283395D01*
X787989Y285105D01*
X788500Y287013D01*
Y288987D01*
X787989Y290895D01*
X787001Y292605D01*
X785605Y294002D01*
X783895Y294989D01*
X781987Y295500D01*
D02*
G37*
G36*
X761987D02*
X760013D01*
X758105Y294989D01*
X756395Y294002D01*
X754998Y292605D01*
X754011Y290895D01*
X753500Y288987D01*
Y287013D01*
X754011Y285105D01*
X754998Y283395D01*
X756395Y281999D01*
X758105Y281011D01*
X760013Y280500D01*
X761987D01*
X763895Y281011D01*
X765605Y281999D01*
X767001Y283395D01*
X767989Y285105D01*
X768500Y287013D01*
Y288987D01*
X767989Y290895D01*
X767001Y292605D01*
X765605Y294002D01*
X763895Y294989D01*
X761987Y295500D01*
D02*
G37*
G36*
X620706Y287550D02*
X619294D01*
X617989Y287010D01*
X616991Y286011D01*
X616450Y284706D01*
Y283294D01*
X616991Y281989D01*
X617989Y280991D01*
X619294Y280450D01*
X620706D01*
X622011Y280991D01*
X623009Y281989D01*
X623550Y283294D01*
Y284706D01*
X623009Y286011D01*
X622011Y287010D01*
X620706Y287550D01*
D02*
G37*
G36*
X627706Y281550D02*
X626294D01*
X624989Y281010D01*
X623991Y280011D01*
X623450Y278706D01*
Y277294D01*
X623991Y275989D01*
X624989Y274991D01*
X626294Y274450D01*
X627706D01*
X629011Y274991D01*
X630009Y275989D01*
X630550Y277294D01*
Y278706D01*
X630009Y280011D01*
X629011Y281010D01*
X627706Y281550D01*
D02*
G37*
G36*
X660696Y274500D02*
X659304D01*
X658017Y273967D01*
X657033Y272983D01*
X656500Y271696D01*
Y270304D01*
X657033Y269017D01*
X658017Y268033D01*
X659304Y267500D01*
X660696D01*
X661983Y268033D01*
X662967Y269017D01*
X663500Y270304D01*
Y271696D01*
X662967Y272983D01*
X661983Y273967D01*
X660696Y274500D01*
D02*
G37*
G36*
X542706Y274550D02*
X541294D01*
X539989Y274009D01*
X538991Y273011D01*
X538450Y271706D01*
Y270294D01*
X538991Y268989D01*
X539989Y267990D01*
X541294Y267450D01*
X542706D01*
X544011Y267990D01*
X545009Y268989D01*
X545550Y270294D01*
Y271706D01*
X545009Y273011D01*
X544011Y274009D01*
X542706Y274550D01*
D02*
G37*
G36*
X293706D02*
X292294D01*
X290989Y274009D01*
X289991Y273011D01*
X289450Y271706D01*
Y270294D01*
X289991Y268989D01*
X290989Y267990D01*
X292294Y267450D01*
X293706D01*
X295011Y267990D01*
X296010Y268989D01*
X296550Y270294D01*
Y271706D01*
X296010Y273011D01*
X295011Y274009D01*
X293706Y274550D01*
D02*
G37*
G36*
X646796Y275000D02*
X645204D01*
X643734Y274391D01*
X642609Y273266D01*
X642000Y271796D01*
Y270204D01*
X642609Y268734D01*
X643734Y267609D01*
X645204Y267000D01*
X646796D01*
X648266Y267609D01*
X649391Y268734D01*
X650000Y270204D01*
Y271796D01*
X649391Y273266D01*
X648266Y274391D01*
X646796Y275000D01*
D02*
G37*
G36*
X515706Y273550D02*
X514294D01*
X512989Y273009D01*
X511991Y272011D01*
X511450Y270706D01*
Y269294D01*
X511991Y267989D01*
X512989Y266991D01*
X514294Y266450D01*
X515706D01*
X517011Y266991D01*
X518009Y267989D01*
X518550Y269294D01*
Y270706D01*
X518009Y272011D01*
X517011Y273009D01*
X515706Y273550D01*
D02*
G37*
G36*
X620706Y262550D02*
X619294D01*
X617989Y262010D01*
X616991Y261011D01*
X616450Y259706D01*
Y258294D01*
X616991Y256989D01*
X617989Y255991D01*
X619294Y255450D01*
X620706D01*
X622011Y255991D01*
X623009Y256989D01*
X623550Y258294D01*
Y259706D01*
X623009Y261011D01*
X622011Y262010D01*
X620706Y262550D01*
D02*
G37*
G36*
X646796Y262000D02*
X645204D01*
X643734Y261391D01*
X642609Y260266D01*
X642000Y258796D01*
Y257204D01*
X642609Y255734D01*
X643734Y254609D01*
X645204Y254000D01*
X646796D01*
X648266Y254609D01*
X649391Y255734D01*
X650000Y257204D01*
Y258796D01*
X649391Y260266D01*
X648266Y261391D01*
X646796Y262000D01*
D02*
G37*
G36*
X715796Y248000D02*
X714204D01*
X712734Y247391D01*
X711609Y246266D01*
X711000Y244796D01*
Y243204D01*
X711609Y241734D01*
X712734Y240609D01*
X714204Y240000D01*
X715796D01*
X717266Y240609D01*
X718391Y241734D01*
X719000Y243204D01*
Y244796D01*
X718391Y246266D01*
X717266Y247391D01*
X715796Y248000D01*
D02*
G37*
%LPD*%
G36*
X577500Y480000D02*
Y475298D01*
X577024Y474822D01*
X576400Y473316D01*
Y471684D01*
X577024Y470177D01*
X577500Y469702D01*
Y467515D01*
X576716Y466665D01*
X575368Y466652D01*
X574511Y467509D01*
X573206Y468050D01*
X571794D01*
X570489Y467509D01*
X569491Y466511D01*
X569187Y465779D01*
X567813D01*
X567509Y466511D01*
X566511Y467509D01*
X565206Y468050D01*
X563794D01*
X562489Y467509D01*
X561491Y466511D01*
X560950Y465206D01*
Y463794D01*
X561491Y462489D01*
X562489Y461491D01*
X563794Y460950D01*
X565206D01*
X566511Y461491D01*
X567509Y462489D01*
X567813Y463221D01*
X569187D01*
X569491Y462489D01*
X570489Y461491D01*
X571794Y460950D01*
X573206D01*
X574511Y461491D01*
X575368Y462348D01*
X576716Y462335D01*
X577500Y461485D01*
Y459298D01*
X577024Y458822D01*
X576400Y457315D01*
Y455684D01*
X577024Y454178D01*
X577500Y453702D01*
Y440000D01*
X575000Y437500D01*
X562500D01*
X555000Y445000D01*
Y475000D01*
X562500Y482500D01*
X575000D01*
X577500Y480000D01*
D02*
G37*
D32*
X865000Y423000D02*
D03*
X928000Y504000D02*
D03*
X832000Y346000D02*
D03*
X878000Y525000D02*
D03*
X644500Y424510D02*
D03*
X628500Y400490D02*
D03*
X620500Y408510D02*
D03*
X612500Y400500D02*
D03*
X636500Y408500D02*
D03*
X520500Y452500D02*
D03*
X636500Y448490D02*
D03*
X636510Y432500D02*
D03*
X560000Y382750D02*
D03*
X644495Y448505D02*
D03*
X657000Y451000D02*
D03*
X654000Y509000D02*
D03*
Y490000D02*
D03*
X815000Y455000D02*
D03*
Y470000D02*
D03*
Y440000D02*
D03*
X800000D02*
D03*
X785000D02*
D03*
X800000Y455000D02*
D03*
Y470000D02*
D03*
X785000D02*
D03*
Y455000D02*
D03*
X848000Y479000D02*
D03*
X648000Y515000D02*
D03*
X449000Y328000D02*
D03*
X431000Y369000D02*
D03*
X656000Y389000D02*
D03*
X618000Y381000D02*
D03*
X540495Y432505D02*
D03*
X540505Y424505D02*
D03*
Y416505D02*
D03*
X540500Y456500D02*
D03*
X636495Y472505D02*
D03*
X587848Y317380D02*
D03*
X588500Y456250D02*
D03*
Y448500D02*
D03*
X604250D02*
D03*
X596500D02*
D03*
X588505Y400495D02*
D03*
X644505Y440505D02*
D03*
X612500Y496510D02*
D03*
X636500Y456490D02*
D03*
X636500Y464500D02*
D03*
X540500D02*
D03*
Y472500D02*
D03*
X556500Y496500D02*
D03*
X572495Y480495D02*
D03*
X606000Y359750D02*
D03*
X731000Y433000D02*
D03*
X642000Y359000D02*
D03*
X540505Y480495D02*
D03*
X591000Y249000D02*
D03*
X571000D02*
D03*
X564500Y440500D02*
D03*
X532500Y480500D02*
D03*
X540500Y408500D02*
D03*
X596500Y440500D02*
D03*
X580500Y456500D02*
D03*
X596500D02*
D03*
X580500Y432500D02*
D03*
X596500D02*
D03*
X572500Y440500D02*
D03*
X604500D02*
D03*
X572500Y456500D02*
D03*
X604500D02*
D03*
X580500Y464500D02*
D03*
X572500Y432500D02*
D03*
X604500D02*
D03*
Y464500D02*
D03*
X564500Y456500D02*
D03*
X580500Y472500D02*
D03*
X596500D02*
D03*
X564500Y432500D02*
D03*
X572500Y472500D02*
D03*
X580500Y416500D02*
D03*
X564500Y472500D02*
D03*
D78*
X925000Y590000D02*
D03*
Y610000D02*
D03*
Y630000D02*
D03*
Y550000D02*
D03*
Y570000D02*
D03*
Y650000D02*
D03*
X761000Y308000D02*
D03*
X841000D02*
D03*
D79*
X925000Y530000D02*
D03*
D80*
X596000Y305000D02*
D03*
X881000Y497000D02*
D03*
X875000Y486000D02*
D03*
X868000Y621000D02*
D03*
X706000Y408750D02*
D03*
X680250Y460000D02*
D03*
X679750Y425250D02*
D03*
X697500Y262500D02*
D03*
X732500Y302500D02*
D03*
X880000Y347500D02*
D03*
X905000Y325000D02*
D03*
X880000Y300000D02*
D03*
X871000Y389000D02*
D03*
X802500Y327500D02*
D03*
X855000Y360000D02*
D03*
X697500Y672500D02*
D03*
X582500Y670000D02*
D03*
X592500Y692500D02*
D03*
X460250Y470500D02*
D03*
X499000Y453750D02*
D03*
X462000Y256000D02*
D03*
X501000Y294000D02*
D03*
X525000Y316000D02*
D03*
X559000Y354000D02*
D03*
X622500Y574250D02*
D03*
X530000Y567000D02*
D03*
X522000Y510000D02*
D03*
X529000Y518000D02*
D03*
X790000Y563000D02*
D03*
X810000Y545000D02*
D03*
X735000Y538000D02*
D03*
X752000Y524000D02*
D03*
X734000Y498000D02*
D03*
X755000Y474000D02*
D03*
X733000Y469000D02*
D03*
X725000Y480000D02*
D03*
Y411000D02*
D03*
X728000Y388000D02*
D03*
X695000Y421000D02*
D03*
X657000Y363000D02*
D03*
X639250Y369000D02*
D03*
X707500Y325000D02*
D03*
X647500Y300000D02*
D03*
X677500Y287500D02*
D03*
X552500Y250000D02*
D03*
X537500Y260000D02*
D03*
X565000Y305000D02*
D03*
X617500D02*
D03*
X425000Y380000D02*
D03*
X450000Y347500D02*
D03*
X460000Y335000D02*
D03*
Y382500D02*
D03*
X472500Y372500D02*
D03*
X517500Y380000D02*
D03*
Y390000D02*
D03*
X435000Y477500D02*
D03*
X442500Y450000D02*
D03*
X375000Y652500D02*
D03*
X387500Y602500D02*
D03*
X315000Y680000D02*
D03*
X340000Y662500D02*
D03*
X245000Y685000D02*
D03*
X400000Y675000D02*
D03*
X472500Y677500D02*
D03*
X502500D02*
D03*
X487500Y665000D02*
D03*
X525000Y677500D02*
D03*
X542500Y680000D02*
D03*
X520000Y662500D02*
D03*
X532500Y645000D02*
D03*
Y617500D02*
D03*
X510000Y647500D02*
D03*
X487500D02*
D03*
X450000Y650000D02*
D03*
X465000Y647500D02*
D03*
X507500Y602500D02*
D03*
X552500Y625000D02*
D03*
Y600000D02*
D03*
X592500Y597500D02*
D03*
X765000Y680000D02*
D03*
X755000D02*
D03*
X745000D02*
D03*
X757500Y632500D02*
D03*
X705000Y595000D02*
D03*
X667500Y625000D02*
D03*
Y600000D02*
D03*
X632500D02*
D03*
X647500Y615000D02*
D03*
Y630000D02*
D03*
Y645000D02*
D03*
X630000Y660000D02*
D03*
X657500Y680000D02*
D03*
X645000D02*
D03*
X632500D02*
D03*
X697500Y712500D02*
D03*
X757500D02*
D03*
X810000Y710000D02*
D03*
X802500Y667500D02*
D03*
X900000Y670000D02*
D03*
X862500Y650000D02*
D03*
Y665000D02*
D03*
X852500Y677500D02*
D03*
X812500Y595000D02*
D03*
X775000Y625000D02*
D03*
Y600000D02*
D03*
X747500D02*
D03*
X742500Y657500D02*
D03*
X755000Y645000D02*
D03*
X855000Y600000D02*
D03*
X862500Y712500D02*
D03*
X917500D02*
D03*
X940000Y652500D02*
D03*
X942000Y609000D02*
D03*
X880000Y570000D02*
D03*
X842500Y565000D02*
D03*
X908000Y491000D02*
D03*
X940000Y506000D02*
D03*
X881000Y508000D02*
D03*
X852000Y463000D02*
D03*
X822500Y382500D02*
D03*
X820000Y367500D02*
D03*
X842500Y395000D02*
D03*
X890000Y390000D02*
D03*
Y439000D02*
D03*
X910000Y447500D02*
D03*
X868000Y440000D02*
D03*
X940000Y452000D02*
D03*
Y399000D02*
D03*
X942500Y325000D02*
D03*
Y277500D02*
D03*
Y227500D02*
D03*
X880000D02*
D03*
X807500D02*
D03*
X737500D02*
D03*
X647500D02*
D03*
X575000D02*
D03*
X500000D02*
D03*
X427500D02*
D03*
X347500D02*
D03*
X292500D02*
D03*
X359000Y255000D02*
D03*
X345000Y263000D02*
D03*
X374000Y264000D02*
D03*
X402000Y300000D02*
D03*
X347000Y363000D02*
D03*
X382500Y337500D02*
D03*
X362500Y375000D02*
D03*
X340000Y385000D02*
D03*
X392500Y402500D02*
D03*
X375000Y425000D02*
D03*
X392500Y460000D02*
D03*
X342500Y467500D02*
D03*
Y487500D02*
D03*
X377500Y490000D02*
D03*
X375000Y535000D02*
D03*
X347500Y570000D02*
D03*
X385000Y562500D02*
D03*
X457500Y560000D02*
D03*
X470000Y542500D02*
D03*
X490000Y522500D02*
D03*
X654000Y713000D02*
D03*
X594000D02*
D03*
X538000D02*
D03*
X490000Y712500D02*
D03*
X445000D02*
D03*
X390000D02*
D03*
X340000D02*
D03*
X295000D02*
D03*
X260000Y710000D02*
D03*
X219000Y695000D02*
D03*
X230000D02*
D03*
X245000Y477500D02*
D03*
Y227000D02*
D03*
X235000Y252500D02*
D03*
Y262500D02*
D03*
X233000Y685000D02*
D03*
Y676000D02*
D03*
X232000Y276000D02*
D03*
D81*
X738000Y450000D02*
D03*
X825000Y412000D02*
D03*
X794000Y524000D02*
D03*
X764000Y516000D02*
D03*
X779000Y501000D02*
D03*
X755000Y449000D02*
D03*
X636500Y416500D02*
D03*
M02*
