G04*
G04 #@! TF.GenerationSoftware,Altium Limited,Altium Designer,23.7.1 (13)*
G04*
G04 Layer_Physical_Order=4*
G04 Layer_Color=16711680*
%FSLAX44Y44*%
%MOMM*%
G71*
G04*
G04 #@! TF.SameCoordinates,D2E7A544-C627-4BF8-9092-2E35ECC9D328*
G04*
G04*
G04 #@! TF.FilePolarity,Positive*
G04*
G01*
G75*
%ADD12C,0.2000*%
%ADD21R,0.6000X0.6400*%
%ADD31R,1.0000X0.9000*%
%ADD32C,0.4200*%
%ADD36R,0.9000X1.0000*%
%ADD37R,0.6400X0.6000*%
%ADD71C,1.0000*%
%ADD72C,0.3000*%
%ADD73C,0.4000*%
%ADD74C,0.5000*%
%ADD75C,0.1250*%
%ADD76C,1.0000*%
%ADD77C,0.6000*%
%ADD78C,1.5000*%
%ADD79R,1.5000X1.5000*%
%ADD80C,0.6000*%
%ADD81C,0.4000*%
%ADD82C,0.3500*%
%ADD83C,0.8000*%
G36*
X929381Y502401D02*
X929301Y502289D01*
X929230Y502162D01*
X929169Y502022D01*
X929118Y501868D01*
X929075Y501701D01*
X929042Y501519D01*
X929019Y501325D01*
X929005Y501116D01*
X929000Y500893D01*
X927000D01*
X926995Y501116D01*
X926958Y501519D01*
X926925Y501701D01*
X926882Y501868D01*
X926831Y502022D01*
X926770Y502162D01*
X926699Y502289D01*
X926619Y502401D01*
X926530Y502500D01*
X929470D01*
X929381Y502401D01*
D02*
G37*
G36*
X928054Y715451D02*
X927209Y714887D01*
X927032Y714709D01*
X926823Y714570D01*
X925430Y713177D01*
X925291Y712968D01*
X925113Y712791D01*
X924019Y711153D01*
X923923Y710921D01*
X923783Y710712D01*
X923029Y708892D01*
X922980Y708646D01*
X922884Y708414D01*
X922500Y706482D01*
Y706231D01*
X922451Y705985D01*
Y704015D01*
X922500Y703769D01*
Y703518D01*
X922884Y701586D01*
X922980Y701354D01*
X923029Y701108D01*
X923783Y699288D01*
X923923Y699079D01*
X924019Y698847D01*
X925113Y697209D01*
X925291Y697032D01*
X925430Y696823D01*
X926823Y695430D01*
X927032Y695291D01*
X927209Y695113D01*
X928847Y694019D01*
X929079Y693923D01*
X929288Y693783D01*
X931108Y693029D01*
X931354Y692980D01*
X931586Y692884D01*
X933518Y692500D01*
X933769D01*
X934015Y692451D01*
X935985D01*
X936231Y692500D01*
X936482D01*
X938414Y692884D01*
X938646Y692980D01*
X938892Y693029D01*
X940712Y693783D01*
X940921Y693923D01*
X941153Y694019D01*
X942791Y695113D01*
X942968Y695291D01*
X943177Y695430D01*
X944570Y696823D01*
X944709Y697032D01*
X944887Y697209D01*
X945451Y698054D01*
X947451Y697447D01*
X947451Y497549D01*
X934000D01*
X933025Y497355D01*
X931059Y498424D01*
Y501209D01*
X931059Y501215D01*
X931069Y501269D01*
X931070Y501272D01*
X931476Y501678D01*
X932100Y503185D01*
Y504816D01*
X931476Y506323D01*
X930322Y507476D01*
X928816Y508100D01*
X927185D01*
X925677Y507476D01*
X924524Y506323D01*
X923900Y504816D01*
Y503185D01*
X924524Y501678D01*
X924930Y501272D01*
X924931Y501269D01*
X924936Y501242D01*
X924941Y501181D01*
Y447267D01*
X903733Y426059D01*
X867791D01*
X867785Y426059D01*
X867731Y426069D01*
X867728Y426070D01*
X867322Y426476D01*
X865816Y427100D01*
X864184D01*
X862678Y426476D01*
X861524Y425322D01*
X860900Y423815D01*
Y422184D01*
X861524Y420677D01*
X862678Y419524D01*
X864184Y418900D01*
X865816D01*
X867322Y419524D01*
X867728Y419930D01*
X867731Y419931D01*
X867758Y419935D01*
X867819Y419941D01*
X905000D01*
X905000Y419941D01*
X906171Y420174D01*
X907163Y420837D01*
X930163Y443837D01*
X930163Y443837D01*
X930826Y444829D01*
X931059Y446000D01*
X931059Y446000D01*
Y461576D01*
X933025Y462645D01*
X934000Y462451D01*
X947451D01*
Y222549D01*
X232553D01*
X231946Y224549D01*
X232791Y225113D01*
X232968Y225291D01*
X233177Y225430D01*
X234570Y226823D01*
X234709Y227032D01*
X234887Y227209D01*
X235981Y228847D01*
X236077Y229079D01*
X236217Y229288D01*
X236971Y231108D01*
X237020Y231354D01*
X237116Y231586D01*
X237500Y233518D01*
Y233769D01*
X237549Y234015D01*
Y235985D01*
X237500Y236231D01*
Y236482D01*
X237116Y238414D01*
X237020Y238646D01*
X236971Y238892D01*
X236217Y240712D01*
X236077Y240921D01*
X235981Y241153D01*
X234887Y242791D01*
X234709Y242968D01*
X234570Y243177D01*
X233177Y244570D01*
X232968Y244709D01*
X232791Y244887D01*
X231153Y245981D01*
X230921Y246077D01*
X230712Y246217D01*
X228892Y246971D01*
X228646Y247020D01*
X228414Y247116D01*
X226482Y247500D01*
X226231D01*
X225985Y247549D01*
X224015D01*
X223769Y247500D01*
X223518D01*
X221586Y247116D01*
X221354Y247020D01*
X221108Y246971D01*
X219288Y246217D01*
X219079Y246077D01*
X218847Y245981D01*
X217209Y244887D01*
X217032Y244709D01*
X216823Y244570D01*
X215430Y243177D01*
X215291Y242968D01*
X215113Y242791D01*
X214549Y241946D01*
X212549Y242553D01*
Y250000D01*
X212355Y250975D01*
X211802Y251802D01*
X210975Y252355D01*
X210000Y252549D01*
X202549D01*
Y687451D01*
X210000D01*
X210975Y687645D01*
X211802Y688198D01*
X212355Y689025D01*
X212549Y690000D01*
Y717451D01*
X927447Y717451D01*
X928054Y715451D01*
D02*
G37*
G36*
X866599Y424381D02*
X866711Y424301D01*
X866838Y424230D01*
X866978Y424169D01*
X867132Y424118D01*
X867299Y424075D01*
X867481Y424042D01*
X867675Y424019D01*
X867884Y424005D01*
X868107Y424000D01*
Y422000D01*
X867884Y421995D01*
X867481Y421958D01*
X867299Y421925D01*
X867132Y421883D01*
X866978Y421831D01*
X866838Y421770D01*
X866711Y421699D01*
X866599Y421619D01*
X866500Y421530D01*
Y424470D01*
X866599Y424381D01*
D02*
G37*
%LPC*%
G36*
X785995Y712500D02*
X784005D01*
X782168Y711739D01*
X780761Y710332D01*
X780000Y708495D01*
Y706505D01*
X780761Y704668D01*
X782168Y703261D01*
X784005Y702500D01*
X785995D01*
X787832Y703261D01*
X789239Y704668D01*
X790000Y706505D01*
Y708495D01*
X789239Y710332D01*
X787832Y711739D01*
X785995Y712500D01*
D02*
G37*
G36*
X678495D02*
X676505D01*
X674668Y711739D01*
X673261Y710332D01*
X672500Y708495D01*
Y706505D01*
X673261Y704668D01*
X674668Y703261D01*
X676505Y702500D01*
X678495D01*
X680332Y703261D01*
X681739Y704668D01*
X682500Y706505D01*
Y708495D01*
X681739Y710332D01*
X680332Y711739D01*
X678495Y712500D01*
D02*
G37*
G36*
X563495D02*
X561505D01*
X559668Y711739D01*
X558261Y710332D01*
X557500Y708495D01*
Y706505D01*
X558261Y704668D01*
X559668Y703261D01*
X561505Y702500D01*
X563495D01*
X565332Y703261D01*
X566739Y704668D01*
X567500Y706505D01*
Y708495D01*
X566739Y710332D01*
X565332Y711739D01*
X563495Y712500D01*
D02*
G37*
G36*
X688495Y705000D02*
X686505D01*
X684668Y704239D01*
X683261Y702832D01*
X682500Y700995D01*
Y699005D01*
X683261Y697168D01*
X684668Y695761D01*
X686505Y695000D01*
X688495D01*
X690332Y695761D01*
X691739Y697168D01*
X692500Y699005D01*
Y700995D01*
X691739Y702832D01*
X690332Y704239D01*
X688495Y705000D01*
D02*
G37*
G36*
X668495D02*
X666505D01*
X664668Y704239D01*
X663261Y702832D01*
X662500Y700995D01*
Y699005D01*
X663261Y697168D01*
X664668Y695761D01*
X666505Y695000D01*
X668495D01*
X670332Y695761D01*
X671739Y697168D01*
X672500Y699005D01*
Y700995D01*
X671739Y702832D01*
X670332Y704239D01*
X668495Y705000D01*
D02*
G37*
G36*
X573495D02*
X571505D01*
X569668Y704239D01*
X568261Y702832D01*
X567500Y700995D01*
Y699005D01*
X568261Y697168D01*
X569668Y695761D01*
X571505Y695000D01*
X573495D01*
X575332Y695761D01*
X576739Y697168D01*
X577500Y699005D01*
Y700995D01*
X576739Y702832D01*
X575332Y704239D01*
X573495Y705000D01*
D02*
G37*
G36*
X553495D02*
X551506D01*
X549668Y704239D01*
X548261Y702832D01*
X547500Y700995D01*
Y699005D01*
X548261Y697168D01*
X549668Y695761D01*
X551506Y695000D01*
X553495D01*
X555332Y695761D01*
X556739Y697168D01*
X557500Y699005D01*
Y700995D01*
X556739Y702832D01*
X555332Y704239D01*
X553495Y705000D01*
D02*
G37*
G36*
X795995Y702500D02*
X794005D01*
X792168Y701739D01*
X790761Y700332D01*
X790000Y698495D01*
Y696505D01*
X790761Y694668D01*
X792168Y693261D01*
X794005Y692500D01*
X795995D01*
X797832Y693261D01*
X799239Y694668D01*
X800000Y696505D01*
Y698495D01*
X799239Y700332D01*
X797832Y701739D01*
X795995Y702500D01*
D02*
G37*
G36*
X775995D02*
X774005D01*
X772168Y701739D01*
X770761Y700332D01*
X770000Y698495D01*
Y696505D01*
X770761Y694668D01*
X772168Y693261D01*
X774005Y692500D01*
X775995D01*
X777832Y693261D01*
X779239Y694668D01*
X780000Y696505D01*
Y698495D01*
X779239Y700332D01*
X777832Y701739D01*
X775995Y702500D01*
D02*
G37*
G36*
X901477Y712500D02*
X898523D01*
X895625Y711924D01*
X892895Y710793D01*
X890438Y709151D01*
X888349Y707062D01*
X886707Y704605D01*
X885576Y701875D01*
X885000Y698977D01*
Y696023D01*
X885576Y693125D01*
X886707Y690395D01*
X888349Y687938D01*
X890438Y685849D01*
X892895Y684207D01*
X895625Y683076D01*
X898523Y682500D01*
X901477D01*
X904375Y683076D01*
X907105Y684207D01*
X909562Y685849D01*
X911651Y687938D01*
X913293Y690395D01*
X914424Y693125D01*
X915000Y696023D01*
Y698977D01*
X914424Y701875D01*
X913293Y704605D01*
X911651Y707062D01*
X909562Y709151D01*
X907105Y710793D01*
X904375Y711924D01*
X901477Y712500D01*
D02*
G37*
G36*
X523495Y710000D02*
X521505D01*
X519668Y709239D01*
X518261Y707832D01*
X517500Y705995D01*
Y704005D01*
X518261Y702168D01*
X519179Y701250D01*
X518261Y700332D01*
X517500Y698495D01*
Y696505D01*
X518261Y694668D01*
X519179Y693750D01*
X518261Y692832D01*
X517500Y690995D01*
Y689005D01*
X518261Y687168D01*
X519668Y685761D01*
X521505Y685000D01*
X523495D01*
X525332Y685761D01*
X525652Y686081D01*
X527911Y685512D01*
X528261Y684668D01*
X529668Y683261D01*
X531505Y682500D01*
X533495D01*
X535332Y683261D01*
X536739Y684668D01*
X537500Y686505D01*
Y688495D01*
X536739Y690332D01*
X535821Y691250D01*
X536739Y692168D01*
X537500Y694005D01*
Y695995D01*
X536739Y697832D01*
X535821Y698750D01*
X536739Y699668D01*
X537500Y701505D01*
Y703495D01*
X536739Y705332D01*
X535332Y706739D01*
X533495Y707500D01*
X531505D01*
X529668Y706739D01*
X529348Y706419D01*
X527089Y706988D01*
X526739Y707832D01*
X525332Y709239D01*
X523495Y710000D01*
D02*
G37*
G36*
X840816Y678100D02*
X839184D01*
X837678Y677476D01*
X836524Y676322D01*
X835900Y674816D01*
Y673185D01*
X836524Y671677D01*
X837678Y670524D01*
X839184Y669900D01*
X840816D01*
X842322Y670524D01*
X843476Y671677D01*
X844100Y673185D01*
Y674816D01*
X843476Y676322D01*
X842322Y677476D01*
X840816Y678100D01*
D02*
G37*
G36*
X822816D02*
X821184D01*
X819678Y677476D01*
X818524Y676322D01*
X817900Y674816D01*
Y673185D01*
X818524Y671677D01*
X819678Y670524D01*
X821184Y669900D01*
X822816D01*
X824323Y670524D01*
X825476Y671677D01*
X826100Y673185D01*
Y674816D01*
X825476Y676322D01*
X824323Y677476D01*
X822816Y678100D01*
D02*
G37*
G36*
X437816Y672100D02*
X436185D01*
X434678Y671476D01*
X433524Y670322D01*
X432900Y668816D01*
Y667185D01*
X433524Y665678D01*
X434678Y664524D01*
X436185Y663900D01*
X437816D01*
X439323Y664524D01*
X440476Y665678D01*
X441100Y667185D01*
Y668816D01*
X440476Y670322D01*
X439323Y671476D01*
X437816Y672100D01*
D02*
G37*
G36*
X831815D02*
X830184D01*
X828678Y671476D01*
X827524Y670322D01*
X826900Y668816D01*
Y667185D01*
X827524Y665678D01*
X827895Y665307D01*
X828454Y664000D01*
X827895Y662693D01*
X827524Y662322D01*
X827167Y661460D01*
X825391Y660860D01*
X824924Y660874D01*
X824822Y660976D01*
X823316Y661600D01*
X821684D01*
X820178Y660976D01*
X819024Y659822D01*
X818400Y658316D01*
Y656684D01*
X819024Y655178D01*
X820178Y654024D01*
X821684Y653400D01*
X823316D01*
X824822Y654024D01*
X825052Y654254D01*
X825287Y654198D01*
X826900Y653273D01*
Y652184D01*
X827449Y650860D01*
X827524Y650677D01*
X827525Y650677D01*
X828654Y649500D01*
X827525Y648323D01*
X827524Y648323D01*
X827449Y648140D01*
X826900Y646815D01*
Y645184D01*
X827524Y643678D01*
X828678Y642524D01*
X830184Y641900D01*
X831815D01*
X833322Y642524D01*
X834476Y643678D01*
X835100Y645184D01*
Y646815D01*
X834551Y648140D01*
X834476Y648323D01*
X834475Y648323D01*
X833346Y649500D01*
X834475Y650677D01*
X834476Y650677D01*
X834551Y650860D01*
X835100Y652184D01*
Y653788D01*
X835184Y653867D01*
X836825Y654876D01*
X837678Y654024D01*
X839184Y653400D01*
X840816D01*
X842322Y654024D01*
X843476Y655178D01*
X844100Y656684D01*
Y658316D01*
X843476Y659822D01*
X842322Y660976D01*
X840816Y661600D01*
X839184D01*
X837678Y660976D01*
X837100Y660398D01*
X835976Y660633D01*
X835018Y661014D01*
X834476Y662322D01*
X834105Y662693D01*
X833547Y664000D01*
X834105Y665307D01*
X834476Y665678D01*
X835100Y667185D01*
Y668816D01*
X834476Y670322D01*
X833322Y671476D01*
X831815Y672100D01*
D02*
G37*
G36*
X350000Y702060D02*
X289000D01*
X287173Y701820D01*
X285470Y701115D01*
X284008Y699993D01*
X222508Y638492D01*
X221385Y637030D01*
X220680Y635327D01*
X220440Y633500D01*
Y475000D01*
X220680Y473173D01*
X221385Y471470D01*
X222508Y470008D01*
X225440Y467076D01*
Y462500D01*
X225680Y460673D01*
X226385Y458970D01*
X227507Y457508D01*
X228970Y456385D01*
X230673Y455680D01*
X232500Y455440D01*
X235000D01*
X236827Y455680D01*
X238530Y456385D01*
X239992Y457508D01*
X244992Y462508D01*
X246115Y463970D01*
X246820Y465673D01*
X247060Y467500D01*
X246820Y469327D01*
X246115Y471030D01*
X244992Y472492D01*
X243530Y473615D01*
X241827Y474320D01*
X240000Y474560D01*
X237924D01*
X234560Y477924D01*
Y630575D01*
X287979Y683994D01*
X288216Y684017D01*
X290222Y683408D01*
X290524Y682678D01*
X290930Y682272D01*
X290931Y682269D01*
X290935Y682242D01*
X290941Y682181D01*
Y677000D01*
X290941Y677000D01*
X291174Y675829D01*
X291382Y675518D01*
X291575Y674187D01*
X291024Y672822D01*
X290524Y672322D01*
X289900Y670816D01*
Y669184D01*
X290524Y667678D01*
X291677Y666524D01*
X293185Y665900D01*
X293758D01*
X293761Y665898D01*
X293783Y665883D01*
X293831Y665844D01*
X300616Y659059D01*
X299787Y657059D01*
X296791D01*
X296785Y657059D01*
X296731Y657069D01*
X296728Y657070D01*
X296322Y657476D01*
X294816Y658100D01*
X293185D01*
X291677Y657476D01*
X290524Y656322D01*
X289900Y654816D01*
Y653184D01*
X290524Y651677D01*
X291677Y650524D01*
X293185Y649900D01*
X294816D01*
X296322Y650524D01*
X296728Y650930D01*
X296731Y650931D01*
X296758Y650936D01*
X296819Y650941D01*
X300168D01*
X324939Y626170D01*
X324770Y623925D01*
X322665Y623661D01*
X307163Y639163D01*
X306171Y639826D01*
X305000Y640059D01*
X305000Y640059D01*
X296791D01*
X296785Y640060D01*
X296731Y640069D01*
X296728Y640070D01*
X296322Y640476D01*
X294816Y641100D01*
X293185D01*
X291677Y640476D01*
X290524Y639322D01*
X289900Y637816D01*
Y636185D01*
X290524Y634678D01*
X291677Y633524D01*
X293185Y632900D01*
X294816D01*
X296322Y633524D01*
X296728Y633930D01*
X296731Y633931D01*
X296758Y633936D01*
X296819Y633941D01*
X303733D01*
X343768Y593907D01*
X343002Y592059D01*
X330791D01*
X330785Y592060D01*
X330731Y592069D01*
X330728Y592070D01*
X330322Y592476D01*
X328815Y593100D01*
X327184D01*
X325678Y592476D01*
X324524Y591322D01*
X323900Y589815D01*
Y588184D01*
X324524Y586678D01*
X325678Y585524D01*
X327184Y584900D01*
X328815D01*
X330322Y585524D01*
X330728Y585930D01*
X330731Y585931D01*
X330758Y585936D01*
X330819Y585941D01*
X344733D01*
X359837Y570837D01*
X360830Y570174D01*
X362000Y569941D01*
X362000Y569941D01*
X435148D01*
X435900Y568815D01*
Y567184D01*
X436524Y565678D01*
X437678Y564524D01*
X439184Y563900D01*
X440816D01*
X442323Y564524D01*
X443476Y565678D01*
X444100Y567184D01*
Y568815D01*
X444852Y569941D01*
X537212D01*
X537409Y567941D01*
X536829Y567826D01*
X535837Y567163D01*
X524233Y555559D01*
X295291D01*
X295285Y555560D01*
X295231Y555569D01*
X295228Y555570D01*
X294822Y555976D01*
X293316Y556600D01*
X291684D01*
X290178Y555976D01*
X289024Y554823D01*
X288400Y553316D01*
Y551684D01*
X289024Y550178D01*
X290178Y549024D01*
X291684Y548400D01*
X293316D01*
X294822Y549024D01*
X295228Y549430D01*
X295231Y549431D01*
X295258Y549436D01*
X295319Y549441D01*
X521532D01*
X522297Y547593D01*
X470837Y496133D01*
X470174Y495141D01*
X469941Y493970D01*
X469941Y493970D01*
Y469267D01*
X336733Y336059D01*
X330791D01*
X330785Y336059D01*
X330731Y336069D01*
X330728Y336070D01*
X330322Y336476D01*
X328815Y337100D01*
X327184D01*
X325678Y336476D01*
X324524Y335322D01*
X323900Y333815D01*
Y332184D01*
X324524Y330677D01*
X325678Y329524D01*
X327184Y328900D01*
X328815D01*
X330322Y329524D01*
X330728Y329930D01*
X330731Y329931D01*
X330758Y329935D01*
X330819Y329941D01*
X334002D01*
X334768Y328093D01*
X327493Y320819D01*
X326816Y321100D01*
X325185D01*
X323678Y320476D01*
X322524Y319322D01*
X321900Y317815D01*
Y316185D01*
X322524Y314678D01*
X323524Y313678D01*
X323693Y313389D01*
X323929Y311255D01*
X317733Y305059D01*
X295791D01*
X295785Y305060D01*
X295731Y305069D01*
X295728Y305070D01*
X295322Y305476D01*
X293815Y306100D01*
X292185D01*
X290678Y305476D01*
X289524Y304322D01*
X288900Y302815D01*
Y301185D01*
X289524Y299678D01*
X290678Y298524D01*
X292185Y297900D01*
X293815D01*
X295322Y298524D01*
X295728Y298930D01*
X295731Y298931D01*
X295758Y298936D01*
X295819Y298941D01*
X315002D01*
X315768Y297094D01*
X308733Y290059D01*
X295791D01*
X295785Y290060D01*
X295731Y290069D01*
X295728Y290070D01*
X295322Y290476D01*
X293815Y291100D01*
X292185D01*
X290678Y290476D01*
X289524Y289322D01*
X288900Y287816D01*
Y286185D01*
X289524Y284678D01*
X290678Y283524D01*
X292185Y282900D01*
X293815D01*
X295322Y283524D01*
X295728Y283930D01*
X295731Y283931D01*
X295758Y283936D01*
X295819Y283941D01*
X306002D01*
X306768Y282094D01*
X298733Y274059D01*
X295791D01*
X295785Y274060D01*
X295731Y274069D01*
X295728Y274070D01*
X295322Y274476D01*
X293815Y275100D01*
X292185D01*
X290678Y274476D01*
X289524Y273322D01*
X288900Y271815D01*
Y270184D01*
X289524Y268678D01*
X290678Y267524D01*
X292185Y266900D01*
X293815D01*
X295322Y267524D01*
X295728Y267930D01*
X295731Y267931D01*
X295758Y267936D01*
X295819Y267941D01*
X300000D01*
X300000Y267941D01*
X301171Y268174D01*
X302163Y268837D01*
X408052Y374726D01*
X410321Y374167D01*
X410524Y373678D01*
X411678Y372524D01*
X413185Y371900D01*
X414816D01*
X416323Y372524D01*
X417476Y373678D01*
X418100Y375185D01*
Y376816D01*
X417476Y378322D01*
X416323Y379476D01*
X415833Y379679D01*
X415274Y381948D01*
X490350Y457024D01*
X492678Y457524D01*
X494184Y456900D01*
X495816D01*
X497322Y457524D01*
X498476Y458677D01*
X499100Y460184D01*
Y460758D01*
X499102Y460761D01*
X499117Y460783D01*
X499156Y460830D01*
X539267Y500941D01*
X569000D01*
X569000Y500941D01*
X570171Y501174D01*
X571163Y501837D01*
X582189Y512863D01*
X582194Y512867D01*
X582239Y512898D01*
X582242Y512900D01*
X582816D01*
X584323Y513524D01*
X585476Y514678D01*
X586100Y516185D01*
Y517816D01*
X585476Y519323D01*
X584323Y520476D01*
X584070Y521744D01*
X639267Y576941D01*
X650209D01*
X650215Y576940D01*
X650269Y576931D01*
X650272Y576930D01*
X650677Y576524D01*
X652184Y575900D01*
X653816D01*
X655322Y576524D01*
X656476Y577678D01*
X657100Y579184D01*
Y580816D01*
X656476Y582323D01*
X655322Y583476D01*
X653816Y584100D01*
X652184D01*
X650677Y583476D01*
X650272Y583070D01*
X650269Y583069D01*
X650242Y583064D01*
X650181Y583059D01*
X638000D01*
X636829Y582826D01*
X635837Y582163D01*
X635837Y582163D01*
X619836Y566161D01*
X617941Y567095D01*
X618060Y568000D01*
Y638461D01*
X619000D01*
X619780Y638616D01*
X620442Y639058D01*
X620442Y639058D01*
X625442Y644058D01*
X625884Y644720D01*
X626039Y645500D01*
Y675500D01*
X625884Y676280D01*
X625442Y676942D01*
X625442Y676942D01*
X620442Y681942D01*
X619780Y682384D01*
X619000Y682539D01*
X603000D01*
X603000Y682539D01*
X602220Y682384D01*
X601558Y681942D01*
X601558Y681942D01*
X597558Y677942D01*
X597116Y677280D01*
X596961Y676500D01*
Y645500D01*
X596961Y645500D01*
X597116Y644720D01*
X597558Y644058D01*
X602558Y639058D01*
X602558Y639058D01*
X603220Y638616D01*
X603940Y638473D01*
Y582687D01*
X603288Y582199D01*
X601940Y581634D01*
X600816Y582100D01*
X600242D01*
X600239Y582102D01*
X600217Y582117D01*
X600169Y582156D01*
X587163Y595163D01*
X586171Y595826D01*
X585000Y596059D01*
X585000Y596059D01*
X379267D01*
X297059Y678267D01*
Y682209D01*
X297059Y682215D01*
X297069Y682269D01*
X297070Y682272D01*
X297476Y682678D01*
X298100Y684184D01*
Y685816D01*
X298049Y685940D01*
X299385Y687940D01*
X350000D01*
X351827Y688180D01*
X353530Y688885D01*
X354992Y690008D01*
X356115Y691470D01*
X356820Y693173D01*
X357060Y695000D01*
X356820Y696827D01*
X356115Y698530D01*
X354992Y699993D01*
X353530Y701115D01*
X351827Y701820D01*
X350000Y702060D01*
D02*
G37*
G36*
X545816Y655100D02*
X544184D01*
X542678Y654476D01*
X541524Y653322D01*
X540900Y651815D01*
Y650184D01*
X541524Y648678D01*
X542678Y647524D01*
X544184Y646900D01*
X545816D01*
X547098Y647431D01*
X572522D01*
X575993Y643960D01*
X576524Y642678D01*
X577678Y641524D01*
X579184Y640900D01*
X580816D01*
X582323Y641524D01*
X583476Y642678D01*
X584100Y644184D01*
Y645816D01*
X583476Y647322D01*
X582323Y648476D01*
X581040Y649007D01*
X576523Y653523D01*
X575366Y654297D01*
X574000Y654569D01*
X547098D01*
X545816Y655100D01*
D02*
G37*
G36*
X766815Y654100D02*
X765184D01*
X763678Y653476D01*
X762524Y652322D01*
X761900Y650816D01*
Y649184D01*
X762524Y647678D01*
X763678Y646524D01*
X764960Y645993D01*
X769477Y641477D01*
X770634Y640703D01*
X772000Y640431D01*
X799902D01*
X801184Y639900D01*
X802815D01*
X804322Y640524D01*
X805476Y641678D01*
X806100Y643185D01*
Y644816D01*
X805476Y646322D01*
X804322Y647476D01*
X802815Y648100D01*
X801184D01*
X799902Y647569D01*
X773478D01*
X770007Y651040D01*
X769476Y652322D01*
X768322Y653476D01*
X766815Y654100D01*
D02*
G37*
G36*
X661815Y655100D02*
X660184D01*
X658678Y654476D01*
X657524Y653322D01*
X656900Y651815D01*
Y650184D01*
X657524Y648678D01*
X658678Y647524D01*
X660184Y646900D01*
X661815D01*
X663098Y647431D01*
X685697D01*
X690900Y642229D01*
Y641684D01*
X691524Y640178D01*
X692678Y639024D01*
X694184Y638400D01*
X695816D01*
X697322Y639024D01*
X698476Y640178D01*
X699100Y641684D01*
Y643316D01*
X698476Y644822D01*
X697322Y645976D01*
X697069Y646081D01*
X696923Y646299D01*
X689699Y653523D01*
X688541Y654297D01*
X687175Y654569D01*
X663098D01*
X661815Y655100D01*
D02*
G37*
G36*
X926251Y659500D02*
X923749D01*
X921333Y658853D01*
X919167Y657602D01*
X917398Y655833D01*
X916147Y653667D01*
X915500Y651251D01*
Y648749D01*
X916147Y646333D01*
X917398Y644167D01*
X919167Y642398D01*
X921333Y641148D01*
X921752Y641035D01*
Y638965D01*
X921333Y638853D01*
X919167Y637602D01*
X917398Y635833D01*
X916147Y633667D01*
X915500Y631251D01*
Y628749D01*
X916147Y626333D01*
X917398Y624167D01*
X919167Y622398D01*
X921333Y621147D01*
X921752Y621035D01*
Y618965D01*
X921333Y618853D01*
X919167Y617602D01*
X917398Y615833D01*
X916147Y613667D01*
X915500Y611251D01*
Y608749D01*
X916147Y606333D01*
X917398Y604167D01*
X919167Y602398D01*
X921333Y601147D01*
X921752Y601035D01*
Y598965D01*
X921333Y598853D01*
X919167Y597602D01*
X917398Y595833D01*
X916147Y593667D01*
X915863Y592605D01*
X915784Y592457D01*
X915647Y592004D01*
X915526Y591706D01*
X915407Y591486D01*
X915299Y591334D01*
X915205Y591235D01*
X915122Y591171D01*
X915037Y591125D01*
X914929Y591086D01*
X914792Y591059D01*
X914568D01*
X914454Y591036D01*
X914444Y591035D01*
X914423Y591030D01*
X913398Y590826D01*
X912405Y590163D01*
X890837Y568595D01*
X890174Y567602D01*
X889941Y566432D01*
X889941Y566432D01*
Y472791D01*
X889940Y472785D01*
X889931Y472731D01*
X889930Y472728D01*
X889524Y472322D01*
X888900Y470816D01*
Y469184D01*
X889524Y467678D01*
X890677Y466524D01*
X892184Y465900D01*
X893816D01*
X895322Y466524D01*
X896476Y467678D01*
X897100Y469184D01*
Y470816D01*
X896476Y472322D01*
X896070Y472728D01*
X896069Y472731D01*
X896065Y472758D01*
X896059Y472819D01*
Y565165D01*
X915705Y584811D01*
X916052Y584703D01*
X916416Y584556D01*
X916783Y584372D01*
X917154Y584148D01*
X917530Y583881D01*
X917912Y583570D01*
X918341Y583171D01*
X918480Y583085D01*
X919167Y582398D01*
X921333Y581147D01*
X921752Y581035D01*
Y578965D01*
X921333Y578853D01*
X919167Y577602D01*
X917398Y575833D01*
X916147Y573667D01*
X915500Y571251D01*
Y571000D01*
X925000D01*
X934500D01*
Y571251D01*
X933853Y573667D01*
X932602Y575833D01*
X930833Y577602D01*
X928667Y578853D01*
X928248Y578965D01*
Y581035D01*
X928667Y581147D01*
X930833Y582398D01*
X932602Y584167D01*
X933853Y586333D01*
X934500Y588749D01*
Y591251D01*
X933853Y593667D01*
X932602Y595833D01*
X930833Y597602D01*
X928667Y598853D01*
X928248Y598965D01*
Y601035D01*
X928667Y601147D01*
X930833Y602398D01*
X932602Y604167D01*
X933853Y606333D01*
X934500Y608749D01*
Y611251D01*
X933853Y613667D01*
X932602Y615833D01*
X930833Y617602D01*
X928667Y618853D01*
X928248Y618965D01*
Y621035D01*
X928667Y621147D01*
X930833Y622398D01*
X932602Y624167D01*
X933853Y626333D01*
X934500Y628749D01*
Y631251D01*
X933853Y633667D01*
X932602Y635833D01*
X930833Y637602D01*
X928667Y638853D01*
X928248Y638965D01*
Y641035D01*
X928667Y641148D01*
X930833Y642398D01*
X932602Y644167D01*
X933853Y646333D01*
X934500Y648749D01*
Y651251D01*
X933853Y653667D01*
X932602Y655833D01*
X930833Y657602D01*
X928667Y658853D01*
X926251Y659500D01*
D02*
G37*
G36*
X820816Y556600D02*
X819184D01*
X817678Y555976D01*
X816524Y554823D01*
X815900Y553316D01*
Y551684D01*
X816524Y550178D01*
X816645Y550057D01*
X817498Y548750D01*
X816645Y547443D01*
X816524Y547323D01*
X815900Y545816D01*
Y544184D01*
X816524Y542678D01*
X817678Y541524D01*
X819184Y540900D01*
X819758D01*
X819761Y540898D01*
X819783Y540883D01*
X819831Y540844D01*
X825337Y535337D01*
X825337Y535337D01*
X826329Y534674D01*
X827500Y534441D01*
X852209D01*
X852215Y534440D01*
X852269Y534431D01*
X852272Y534430D01*
X852678Y534024D01*
X854184Y533400D01*
X855816D01*
X857322Y534024D01*
X858476Y535177D01*
X859100Y536684D01*
X859181Y538320D01*
X860816Y538400D01*
X862322Y539024D01*
X863476Y540178D01*
X863825Y541021D01*
X865638Y541623D01*
X866068Y541606D01*
X874941Y532733D01*
Y529697D01*
X874354Y529014D01*
X874004Y528885D01*
X871910Y528889D01*
X871322Y529476D01*
X869816Y530100D01*
X868184D01*
X866677Y529476D01*
X865524Y528322D01*
X864900Y526815D01*
Y525184D01*
X865524Y523677D01*
X866677Y522524D01*
X868184Y521900D01*
X869816D01*
X871322Y522524D01*
X872101Y523302D01*
X873735Y523253D01*
X874375Y523037D01*
X874524Y522677D01*
X874595Y522607D01*
X874677Y520486D01*
X874395Y520193D01*
X873524Y519323D01*
X872900Y517816D01*
Y516185D01*
X873524Y514678D01*
X874678Y513524D01*
X876184Y512900D01*
X877815D01*
X879322Y513524D01*
X880476Y514678D01*
X881100Y516185D01*
Y517816D01*
X880476Y519323D01*
X880405Y519394D01*
X880323Y521514D01*
X880605Y521807D01*
X881476Y522677D01*
X882100Y524184D01*
Y525816D01*
X881476Y527322D01*
X881070Y527728D01*
X881069Y527731D01*
X881065Y527758D01*
X881059Y527819D01*
Y534000D01*
X881059Y534000D01*
X880826Y535171D01*
X880163Y536163D01*
X880163Y536163D01*
X866163Y550163D01*
X865171Y550826D01*
X864000Y551059D01*
X864000Y551059D01*
X838267D01*
X837137Y552189D01*
X837133Y552194D01*
X837102Y552239D01*
X837100Y552242D01*
Y552816D01*
X836476Y554322D01*
X835322Y555476D01*
X833816Y556100D01*
X832185D01*
X830678Y555476D01*
X829524Y554322D01*
X828900Y552816D01*
Y551184D01*
X829204Y550450D01*
X827509Y549317D01*
X824137Y552689D01*
X824133Y552694D01*
X824102Y552739D01*
X824100Y552742D01*
Y553316D01*
X823476Y554823D01*
X822322Y555976D01*
X820816Y556600D01*
D02*
G37*
G36*
X710816Y584100D02*
X709184D01*
X707678Y583476D01*
X706524Y582323D01*
X705900Y580816D01*
Y580242D01*
X705898Y580239D01*
X705883Y580217D01*
X705844Y580169D01*
X684837Y559163D01*
X684174Y558171D01*
X683941Y557000D01*
X683941Y557000D01*
Y532595D01*
X683941Y532595D01*
X683972Y532442D01*
X683975Y531996D01*
X683900Y531815D01*
Y530185D01*
X684524Y528678D01*
X685677Y527524D01*
X687185Y526900D01*
X688816D01*
X690322Y527524D01*
X691476Y528678D01*
X692100Y530185D01*
Y531815D01*
X691476Y533322D01*
X690322Y534476D01*
X690059Y534585D01*
Y555733D01*
X710189Y575863D01*
X710194Y575867D01*
X710239Y575898D01*
X710242Y575900D01*
X710816D01*
X712322Y576524D01*
X713476Y577678D01*
X714100Y579184D01*
Y580816D01*
X713476Y582323D01*
X712322Y583476D01*
X710816Y584100D01*
D02*
G37*
G36*
X934500Y569000D02*
X925000D01*
X915500D01*
Y568749D01*
X916147Y566333D01*
X917398Y564167D01*
X919167Y562398D01*
X921333Y561147D01*
X921752Y561035D01*
Y558965D01*
X921333Y558853D01*
X919167Y557602D01*
X917398Y555833D01*
X916147Y553667D01*
X915500Y551251D01*
Y548749D01*
X916147Y546333D01*
X917398Y544167D01*
X919167Y542398D01*
X920723Y541500D01*
X920187Y539500D01*
X915500D01*
Y520500D01*
X934500D01*
Y539500D01*
X929813D01*
X929277Y541500D01*
X930833Y542398D01*
X932602Y544167D01*
X933853Y546333D01*
X934500Y548749D01*
Y551251D01*
X933853Y553667D01*
X932602Y555833D01*
X930833Y557602D01*
X928667Y558853D01*
X928248Y558965D01*
Y561035D01*
X928667Y561147D01*
X930833Y562398D01*
X932602Y564167D01*
X933853Y566333D01*
X934500Y568749D01*
Y569000D01*
D02*
G37*
G36*
X595500Y506750D02*
X590000D01*
Y501750D01*
X595500D01*
Y506750D01*
D02*
G37*
G36*
X587000D02*
X581500D01*
Y501750D01*
X587000D01*
Y506750D01*
D02*
G37*
G36*
X742995Y510000D02*
X741005D01*
X739168Y509239D01*
X737761Y507832D01*
X737000Y505995D01*
Y504005D01*
X737761Y502168D01*
X739168Y500761D01*
X741005Y500000D01*
X742995D01*
X744832Y500761D01*
X746239Y502168D01*
X747000Y504005D01*
Y505995D01*
X746239Y507832D01*
X744832Y509239D01*
X742995Y510000D01*
D02*
G37*
G36*
X756796Y507000D02*
X755204D01*
X753734Y506391D01*
X752609Y505266D01*
X752000Y503796D01*
Y502204D01*
X752609Y500734D01*
X753734Y499609D01*
X755204Y499000D01*
X756796D01*
X758266Y499609D01*
X759391Y500734D01*
X760000Y502204D01*
Y503796D01*
X759391Y505266D01*
X758266Y506391D01*
X756796Y507000D01*
D02*
G37*
G36*
X845796Y504000D02*
X844204D01*
X842734Y503391D01*
X841609Y502266D01*
X841000Y500796D01*
Y499204D01*
X841609Y497734D01*
X842734Y496609D01*
X844204Y496000D01*
X845796D01*
X847266Y496609D01*
X848391Y497734D01*
X849000Y499204D01*
Y500796D01*
X848391Y502266D01*
X847266Y503391D01*
X845796Y504000D01*
D02*
G37*
G36*
X714000Y682039D02*
X713220Y681884D01*
X712558Y681442D01*
X712558Y681442D01*
X708558Y677442D01*
X708116Y676780D01*
X707961Y676000D01*
Y645000D01*
X707961Y645000D01*
X708116Y644220D01*
X708558Y643558D01*
X713558Y638558D01*
X713558Y638558D01*
X714220Y638116D01*
X715000Y637961D01*
X717883D01*
Y632534D01*
X633424Y548076D01*
X632098Y546091D01*
X631632Y543750D01*
Y513634D01*
X631212Y512856D01*
X630124Y512000D01*
X629250Y512000D01*
X617750D01*
Y500074D01*
X617741Y500031D01*
X617750Y499987D01*
Y498172D01*
X617640Y497818D01*
X616785Y496400D01*
X615943Y496400D01*
X613500D01*
Y496280D01*
X613770D01*
X613774Y495917D01*
X613836Y495057D01*
X613873Y494847D01*
X613918Y494675D01*
X613972Y494542D01*
X614033Y494446D01*
X614103Y494389D01*
X614181Y494370D01*
X613500D01*
Y491400D01*
X610500D01*
Y494370D01*
X610360D01*
X610438Y494389D01*
X610500Y494440D01*
Y496400D01*
X606800D01*
X606800Y496400D01*
X605200D01*
Y496400D01*
X604800Y496400D01*
X601500D01*
Y491400D01*
X598500D01*
Y496400D01*
X595500D01*
Y498750D01*
X588500D01*
X581500D01*
Y497400D01*
X578500D01*
Y492400D01*
X575500D01*
Y497400D01*
X568500D01*
Y492400D01*
X565500D01*
Y497400D01*
X561800D01*
Y492697D01*
X559952Y491932D01*
X559442Y492442D01*
X558780Y492884D01*
X558000Y493039D01*
X555000D01*
X554220Y492884D01*
X553558Y492442D01*
X551558Y490442D01*
X551116Y489780D01*
X550961Y489000D01*
Y482200D01*
X549100D01*
Y477000D01*
X547600D01*
Y475500D01*
X542600D01*
Y471800D01*
Y468500D01*
X547600D01*
Y465500D01*
X542600D01*
Y462200D01*
X541600D01*
Y458500D01*
X546600D01*
Y455500D01*
X541600D01*
Y453000D01*
X535750D01*
Y447500D01*
X542250D01*
Y444500D01*
X535750D01*
Y439000D01*
X541600D01*
Y435500D01*
X546600D01*
Y432500D01*
X541600D01*
Y428800D01*
X541600D01*
Y428200D01*
X541600D01*
Y424500D01*
X546600D01*
Y421500D01*
X541600D01*
Y417800D01*
Y414500D01*
X546600D01*
Y413000D01*
X548100D01*
Y407800D01*
X549680D01*
X549716Y407620D01*
X550158Y406958D01*
X550558Y406558D01*
X551220Y406116D01*
X552000Y405961D01*
X553480D01*
X554024Y405124D01*
X554153Y404664D01*
X554163Y403961D01*
X553029Y402827D01*
X552405Y401320D01*
Y399689D01*
X553029Y398182D01*
X554182Y397029D01*
X555689Y396405D01*
X557320D01*
X557800Y396604D01*
X557995Y396584D01*
X559800Y395389D01*
Y394100D01*
X565000D01*
Y392600D01*
X566500D01*
Y387600D01*
X567824D01*
Y352149D01*
X562311Y346637D01*
X562306Y346633D01*
X562261Y346602D01*
X562258Y346600D01*
X561684D01*
X560177Y345976D01*
X559024Y344822D01*
X558400Y343316D01*
Y341684D01*
X559024Y340178D01*
X559774Y339428D01*
X560213Y337039D01*
X535587Y312413D01*
X534924Y311420D01*
X534691Y310250D01*
X534691Y310250D01*
Y274750D01*
X534691Y274750D01*
X534924Y273580D01*
X535587Y272587D01*
X537826Y270348D01*
X537900Y270256D01*
Y270184D01*
X538524Y268678D01*
X539678Y267524D01*
X541185Y266900D01*
X542816D01*
X544323Y267524D01*
X545476Y268678D01*
X546100Y270184D01*
Y271815D01*
X545476Y273322D01*
X544323Y274476D01*
X542816Y275100D01*
X541726D01*
X540809Y276017D01*
Y279780D01*
X542809Y281056D01*
X543185Y280900D01*
X544815D01*
X546323Y281524D01*
X546728Y281930D01*
X546731Y281931D01*
X546758Y281936D01*
X546819Y281941D01*
X584983D01*
X617837Y249087D01*
X618829Y248424D01*
X620000Y248191D01*
X651250D01*
X651250Y248191D01*
X652421Y248424D01*
X653413Y249087D01*
X662163Y257837D01*
X662826Y258829D01*
X663059Y260000D01*
X663059Y260000D01*
Y268402D01*
X663391Y268734D01*
X664000Y270204D01*
Y271796D01*
X663391Y273266D01*
X662266Y274391D01*
X660796Y275000D01*
X659204D01*
X657734Y274391D01*
X656609Y273266D01*
X656000Y271796D01*
Y270204D01*
X656609Y268734D01*
X656940Y268403D01*
X656941Y268388D01*
Y261267D01*
X653000Y257326D01*
X651000Y258154D01*
Y258995D01*
X650239Y260832D01*
X648832Y262239D01*
X646995Y263000D01*
X645005D01*
X643168Y262239D01*
X641761Y260832D01*
X641000Y258995D01*
Y257005D01*
X641289Y256309D01*
X640007Y254309D01*
X623936D01*
X623107Y256309D01*
X623476Y256677D01*
X624100Y258184D01*
Y259816D01*
X623476Y261322D01*
X622323Y262476D01*
X620816Y263100D01*
X620242D01*
X620239Y263102D01*
X620217Y263117D01*
X620169Y263156D01*
X603820Y279506D01*
X604649Y281506D01*
X616696D01*
X617678Y280524D01*
X619184Y279900D01*
X620816D01*
X621261Y280084D01*
X622211Y279349D01*
X622900Y278599D01*
Y277185D01*
X623524Y275678D01*
X624678Y274524D01*
X626184Y273900D01*
X627816D01*
X629322Y274524D01*
X630476Y275678D01*
X631100Y277185D01*
Y278815D01*
X630598Y280027D01*
X630576Y280124D01*
X630574Y280138D01*
X630559Y280345D01*
Y285000D01*
X630326Y286171D01*
X629663Y287163D01*
X619663Y297163D01*
X619663Y297163D01*
X605926Y310900D01*
X606754Y312900D01*
X606816D01*
X608322Y313524D01*
X609476Y314678D01*
X610100Y316185D01*
Y317816D01*
X609476Y319322D01*
X608322Y320476D01*
X606816Y321100D01*
X605185D01*
X603678Y320476D01*
X602524Y319322D01*
X601900Y317816D01*
Y317754D01*
X599900Y316926D01*
X590147Y326679D01*
X590248Y328999D01*
X590926Y329678D01*
X593222Y329994D01*
X595818Y327397D01*
X595819Y327394D01*
X595829Y327361D01*
X595840Y327311D01*
X595851Y327241D01*
X595858Y327151D01*
X595861Y326982D01*
X595900Y326805D01*
Y326185D01*
X596524Y324678D01*
X597677Y323524D01*
X599184Y322900D01*
X600816D01*
X602322Y323524D01*
X603476Y324678D01*
X604100Y326185D01*
Y327816D01*
X603476Y329323D01*
X602322Y330476D01*
X600816Y331100D01*
X600195D01*
X600018Y331139D01*
X599849Y331142D01*
X599759Y331149D01*
X599689Y331160D01*
X599639Y331171D01*
X599605Y331181D01*
X599603Y331182D01*
X596676Y334109D01*
Y345000D01*
X596473Y346024D01*
X595892Y346893D01*
X595892Y346893D01*
X586676Y356109D01*
Y357134D01*
X588450Y358906D01*
X589774Y358900D01*
X605837Y342837D01*
X606829Y342174D01*
X608000Y341941D01*
X608000Y341941D01*
X625148D01*
X625900Y340816D01*
Y339184D01*
X626524Y337678D01*
X627678Y336524D01*
X629184Y335900D01*
X630816D01*
X632323Y336524D01*
X632728Y336930D01*
X632731Y336931D01*
X632758Y336936D01*
X632819Y336941D01*
X638733D01*
X652727Y322948D01*
X652167Y320679D01*
X651677Y320476D01*
X650524Y319322D01*
X649900Y317815D01*
Y316185D01*
X650524Y314678D01*
X651677Y313524D01*
X653184Y312900D01*
X654816D01*
X656322Y313524D01*
X657476Y314678D01*
X657679Y315167D01*
X659948Y315727D01*
X719837Y255837D01*
X720829Y255174D01*
X722000Y254941D01*
X811000D01*
X811000Y254941D01*
X812170Y255174D01*
X813163Y255837D01*
X834827Y277501D01*
X834851Y277521D01*
X835082Y277664D01*
X835429Y277822D01*
X835891Y277980D01*
X836468Y278125D01*
X837153Y278249D01*
X837922Y278345D01*
X839841Y278456D01*
X840935Y278461D01*
X841125Y278500D01*
X842251D01*
X844667Y279147D01*
X846833Y280398D01*
X848602Y282167D01*
X849853Y284333D01*
X850500Y286749D01*
Y289251D01*
X849853Y291667D01*
X848602Y293833D01*
X846833Y295602D01*
X844667Y296852D01*
X844248Y296965D01*
Y299035D01*
X844667Y299147D01*
X846833Y300398D01*
X848602Y302167D01*
X849853Y304333D01*
X850500Y306749D01*
Y307000D01*
X841000D01*
Y308000D01*
X840000D01*
Y317500D01*
X839749D01*
X837333Y316853D01*
X835167Y315602D01*
X833398Y313833D01*
X832147Y311667D01*
X832035Y311248D01*
X829965D01*
X829853Y311667D01*
X828602Y313833D01*
X826833Y315602D01*
X824667Y316853D01*
X822251Y317500D01*
X819749D01*
X817333Y316853D01*
X815167Y315602D01*
X813398Y313833D01*
X812147Y311667D01*
X812035Y311248D01*
X809965D01*
X809853Y311667D01*
X808602Y313833D01*
X806833Y315602D01*
X804667Y316853D01*
X802251Y317500D01*
X799749D01*
X797333Y316853D01*
X795167Y315602D01*
X793398Y313833D01*
X792147Y311667D01*
X792035Y311248D01*
X789965D01*
X789853Y311667D01*
X788602Y313833D01*
X786833Y315602D01*
X784667Y316853D01*
X782251Y317500D01*
X779749D01*
X777333Y316853D01*
X775167Y315602D01*
X773398Y313833D01*
X772148Y311667D01*
X772035Y311248D01*
X769965D01*
X769853Y311667D01*
X768602Y313833D01*
X766833Y315602D01*
X764667Y316853D01*
X762251Y317500D01*
X762000D01*
Y308000D01*
X761000D01*
Y307000D01*
X751500D01*
Y306749D01*
X752147Y304333D01*
X753398Y302167D01*
X755167Y300398D01*
X756722Y299500D01*
X756187Y297500D01*
X751500D01*
Y291059D01*
X729267D01*
X669071Y351255D01*
X669323Y353524D01*
X670476Y354678D01*
X671100Y356185D01*
Y357816D01*
X670476Y359322D01*
X670037Y359761D01*
X669939Y359914D01*
X669822Y360035D01*
X669764Y360104D01*
X669722Y360161D01*
X669694Y360205D01*
X669678Y360235D01*
X669676Y360238D01*
Y361990D01*
X669677Y361990D01*
X669473Y363014D01*
X668893Y363883D01*
X668893Y363883D01*
X632682Y400093D01*
X632681Y400096D01*
X632671Y400129D01*
X632659Y400180D01*
X632649Y400249D01*
X632642Y400339D01*
X632639Y400508D01*
X632600Y400685D01*
Y401306D01*
X631976Y402813D01*
X630822Y403966D01*
X629315Y404590D01*
X627684D01*
X626177Y403966D01*
X625024Y402813D01*
X624400Y401306D01*
Y399675D01*
X625024Y398168D01*
X626177Y397015D01*
X627684Y396390D01*
X628305D01*
X628483Y396352D01*
X628651Y396348D01*
X628741Y396341D01*
X628811Y396331D01*
X628861Y396320D01*
X628895Y396309D01*
X628897Y396308D01*
X663596Y361609D01*
X663524Y359322D01*
X662900Y357816D01*
Y357797D01*
X662000Y357059D01*
X662000Y357059D01*
X640634D01*
X639298Y359059D01*
X639350Y359184D01*
Y360816D01*
X638726Y362322D01*
X637573Y363476D01*
X636066Y364100D01*
X634435D01*
X632928Y363476D01*
X632489Y363037D01*
X632336Y362939D01*
X632215Y362822D01*
X632146Y362764D01*
X632089Y362721D01*
X632045Y362694D01*
X632015Y362678D01*
X632012Y362676D01*
X623359D01*
X619022Y367013D01*
X619323Y368524D01*
X620476Y369678D01*
X621100Y371184D01*
Y372816D01*
X620476Y374322D01*
X619323Y375476D01*
X617816Y376100D01*
X617195D01*
X617018Y376139D01*
X616849Y376142D01*
X616759Y376149D01*
X616689Y376160D01*
X616639Y376171D01*
X616605Y376181D01*
X616603Y376182D01*
X606926Y385859D01*
Y397512D01*
X606928Y397515D01*
X606944Y397545D01*
X606972Y397589D01*
X607014Y397646D01*
X607072Y397715D01*
X607189Y397836D01*
X607287Y397989D01*
X607726Y398428D01*
X608350Y399935D01*
Y400460D01*
X608992Y401758D01*
X610198Y402120D01*
X611220D01*
X611201Y404150D01*
X612871D01*
Y407120D01*
X614371D01*
Y408620D01*
X619571D01*
Y411800D01*
X631389D01*
X632601Y409800D01*
X632400Y409315D01*
Y407685D01*
X633024Y406177D01*
X634178Y405024D01*
X635685Y404400D01*
X637315D01*
X637368Y404422D01*
X642764D01*
X642764Y404422D01*
X644325Y404732D01*
X645648Y405616D01*
X654116Y414084D01*
X655000Y415407D01*
X655310Y416968D01*
X655310Y416968D01*
Y469968D01*
X655310Y469968D01*
X655000Y471529D01*
X654116Y472852D01*
X644758Y482210D01*
X644250Y484000D01*
X644250Y484000D01*
X644250D01*
X644250Y484000D01*
Y489500D01*
X637750D01*
Y492500D01*
X644250D01*
Y496000D01*
X644250Y498000D01*
X644250Y500000D01*
Y509926D01*
X644259Y509969D01*
X644250Y510013D01*
Y510040D01*
X644256Y510080D01*
X644250Y510103D01*
Y512000D01*
X644059D01*
X643867Y515254D01*
Y541216D01*
X728326Y625674D01*
X729652Y627659D01*
X730117Y630000D01*
Y637984D01*
X730780Y638116D01*
X731442Y638558D01*
X731442Y638558D01*
X736442Y643558D01*
X736884Y644220D01*
X737039Y645000D01*
Y657038D01*
X737100Y657185D01*
Y658816D01*
X737039Y658962D01*
Y673038D01*
X737100Y673185D01*
Y674816D01*
X737039Y674962D01*
Y675000D01*
X736884Y675780D01*
X736442Y676442D01*
X736442Y676442D01*
X731442Y681442D01*
X730780Y681884D01*
X730000Y682039D01*
X714000D01*
X714000Y682039D01*
D02*
G37*
G36*
X654816Y505100D02*
X653184D01*
X651677Y504476D01*
X650524Y503322D01*
X649900Y501815D01*
Y500184D01*
X650524Y498677D01*
X651677Y497524D01*
X653184Y496900D01*
X653758D01*
X653761Y496898D01*
X653783Y496883D01*
X653830Y496844D01*
X662837Y487837D01*
X662837Y487837D01*
X663829Y487174D01*
X665000Y486941D01*
X720209D01*
X720215Y486940D01*
X720269Y486931D01*
X720272Y486930D01*
X720678Y486524D01*
X722185Y485900D01*
X723816D01*
X725322Y486524D01*
X726476Y487678D01*
X727100Y489184D01*
Y490816D01*
X726476Y492323D01*
X725322Y493476D01*
X723816Y494100D01*
X722185D01*
X720678Y493476D01*
X720272Y493070D01*
X720269Y493069D01*
X720242Y493064D01*
X720181Y493059D01*
X666267D01*
X658137Y501189D01*
X658133Y501194D01*
X658102Y501239D01*
X658100Y501242D01*
Y501815D01*
X657476Y503322D01*
X656322Y504476D01*
X654816Y505100D01*
D02*
G37*
G36*
X546100Y482200D02*
X542600D01*
Y478500D01*
X546100D01*
Y482200D01*
D02*
G37*
G36*
X330816Y479100D02*
X329184D01*
X327678Y478476D01*
X327272Y478070D01*
X327269Y478069D01*
X327242Y478064D01*
X327181Y478059D01*
X272250D01*
X272250Y478059D01*
X271079Y477826D01*
X270087Y477163D01*
X259311Y466387D01*
X259306Y466383D01*
X259261Y466352D01*
X259258Y466350D01*
X258684D01*
X257178Y465726D01*
X256024Y464572D01*
X255400Y463065D01*
Y461435D01*
X256024Y459928D01*
X257178Y458774D01*
X258684Y458150D01*
X260315D01*
X261822Y458774D01*
X262976Y459928D01*
X263600Y461435D01*
Y462008D01*
X263602Y462011D01*
X263617Y462033D01*
X263656Y462080D01*
X273517Y471941D01*
X327209D01*
X327215Y471940D01*
X327269Y471931D01*
X327272Y471930D01*
X327678Y471524D01*
X329184Y470900D01*
X330816D01*
X332322Y471524D01*
X333476Y472677D01*
X334100Y474184D01*
Y475816D01*
X333476Y477322D01*
X332322Y478476D01*
X330816Y479100D01*
D02*
G37*
G36*
X440816Y472100D02*
X439184D01*
X437678Y471476D01*
X436524Y470322D01*
X435900Y468815D01*
Y467184D01*
X436524Y465678D01*
X437678Y464524D01*
X439184Y463900D01*
X440816D01*
X442323Y464524D01*
X443476Y465678D01*
X444100Y467184D01*
Y468815D01*
X443476Y470322D01*
X442323Y471476D01*
X440816Y472100D01*
D02*
G37*
G36*
X851815Y458100D02*
X850184D01*
X848678Y457476D01*
X847524Y456323D01*
X846900Y454815D01*
Y453185D01*
X847431Y451902D01*
Y445325D01*
X847703Y443959D01*
X848477Y442801D01*
X848900Y442378D01*
Y442184D01*
X849524Y440678D01*
X850677Y439524D01*
X852185Y438900D01*
X853816D01*
X855322Y439524D01*
X856476Y440678D01*
X857100Y442184D01*
Y443815D01*
X856476Y445322D01*
X855322Y446476D01*
X854594Y446778D01*
X854569Y446803D01*
Y451902D01*
X855100Y453185D01*
Y454815D01*
X854476Y456323D01*
X853322Y457476D01*
X851815Y458100D01*
D02*
G37*
G36*
X545100Y411500D02*
X541600D01*
Y407800D01*
X545100D01*
Y411500D01*
D02*
G37*
G36*
X749816Y457100D02*
X748185D01*
X746678Y456476D01*
X745524Y455322D01*
X744900Y453816D01*
Y452954D01*
X744837Y452891D01*
X744174Y451899D01*
X743941Y450728D01*
X743941Y450728D01*
Y413791D01*
X743941Y413785D01*
X743931Y413731D01*
X743930Y413728D01*
X743524Y413322D01*
X742900Y411815D01*
Y410184D01*
X743524Y408677D01*
X744678Y407524D01*
X746184Y406900D01*
X747815D01*
X749323Y407524D01*
X750476Y408677D01*
X751100Y410184D01*
Y411815D01*
X750476Y413322D01*
X750070Y413728D01*
X750069Y413731D01*
X750064Y413758D01*
X750059Y413819D01*
Y449001D01*
X751322Y449524D01*
X752476Y450678D01*
X753100Y452184D01*
Y453816D01*
X752476Y455322D01*
X751322Y456476D01*
X749816Y457100D01*
D02*
G37*
G36*
X735796Y414000D02*
X734204D01*
X732734Y413391D01*
X731609Y412266D01*
X731000Y410796D01*
Y409204D01*
X731609Y407734D01*
X732734Y406609D01*
X734204Y406000D01*
X735796D01*
X737266Y406609D01*
X738391Y407734D01*
X739000Y409204D01*
Y410796D01*
X738391Y412266D01*
X737266Y413391D01*
X735796Y414000D01*
D02*
G37*
G36*
X619571Y405620D02*
X615871D01*
Y402120D01*
X619571D01*
Y405620D01*
D02*
G37*
G36*
X839796Y408000D02*
X838204D01*
X836734Y407391D01*
X835609Y406266D01*
X835000Y404796D01*
Y403204D01*
X835609Y401734D01*
X836734Y400609D01*
X838204Y400000D01*
X839796D01*
X841266Y400609D01*
X842391Y401734D01*
X843000Y403204D01*
Y404796D01*
X842391Y406266D01*
X841266Y407391D01*
X839796Y408000D01*
D02*
G37*
G36*
X563500Y391100D02*
X559800D01*
Y387600D01*
X563500D01*
Y391100D01*
D02*
G37*
G36*
X744816Y383100D02*
X743185D01*
X741678Y382476D01*
X740524Y381323D01*
X739900Y379815D01*
Y378185D01*
X740524Y376678D01*
X741678Y375524D01*
X743185Y374900D01*
X743758D01*
X743761Y374898D01*
X743783Y374883D01*
X743831Y374844D01*
X745615Y373059D01*
X744787Y371059D01*
X713791D01*
X713785Y371059D01*
X713731Y371069D01*
X713728Y371070D01*
X713322Y371476D01*
X711815Y372100D01*
X710184D01*
X708678Y371476D01*
X707524Y370322D01*
X706900Y368815D01*
Y367184D01*
X706972Y367012D01*
X705678Y366476D01*
X704524Y365322D01*
X703900Y363816D01*
Y362184D01*
X703971Y362012D01*
X702678Y361476D01*
X701524Y360322D01*
X700900Y358815D01*
Y357184D01*
X700972Y357012D01*
X699678Y356476D01*
X698524Y355322D01*
X697900Y353815D01*
Y352184D01*
X697971Y352012D01*
X696677Y351476D01*
X695524Y350322D01*
X694900Y348815D01*
Y347184D01*
X694971Y347012D01*
X693678Y346476D01*
X692524Y345322D01*
X691900Y343815D01*
X691184Y342100D01*
X689678Y341476D01*
X688524Y340322D01*
X687900Y338816D01*
Y337184D01*
X688524Y335678D01*
X689678Y334524D01*
X691184Y333900D01*
X692815D01*
X694322Y334524D01*
X694728Y334930D01*
X694731Y334931D01*
X694758Y334936D01*
X694819Y334941D01*
X761209D01*
X761215Y334940D01*
X761269Y334931D01*
X761272Y334930D01*
X761677Y334524D01*
X763185Y333900D01*
X764816D01*
X766322Y334524D01*
X767476Y335678D01*
X768100Y337184D01*
X768816Y338900D01*
X770322Y339524D01*
X771476Y340678D01*
X772100Y342184D01*
X772816Y343900D01*
X774323Y344524D01*
X775476Y345677D01*
X776100Y347184D01*
X776816Y348900D01*
X778322Y349524D01*
X779476Y350678D01*
X780100Y352184D01*
X780816Y353900D01*
X782322Y354524D01*
X783476Y355677D01*
X784100Y357184D01*
X784181Y358820D01*
X785816Y358900D01*
X787322Y359524D01*
X788476Y360678D01*
X789100Y362184D01*
X789181Y363820D01*
X790816Y363900D01*
X792322Y364524D01*
X793476Y365678D01*
X794100Y367184D01*
Y368815D01*
X794048Y368941D01*
X795384Y370941D01*
X802733D01*
X827863Y345811D01*
X827867Y345806D01*
X827898Y345761D01*
X827900Y345758D01*
Y345185D01*
X828524Y343677D01*
X829678Y342524D01*
X831184Y341900D01*
X832816D01*
X834323Y342524D01*
X835476Y343677D01*
X836100Y345185D01*
Y346815D01*
X835476Y348322D01*
X834323Y349476D01*
X832816Y350100D01*
X832242D01*
X832239Y350102D01*
X832217Y350117D01*
X832169Y350156D01*
X806163Y376163D01*
X805171Y376826D01*
X804000Y377059D01*
X804000Y377059D01*
X750267D01*
X748137Y379189D01*
X748133Y379194D01*
X748102Y379239D01*
X748100Y379242D01*
Y379815D01*
X747476Y381323D01*
X746322Y382476D01*
X744816Y383100D01*
D02*
G37*
G36*
X441816Y347100D02*
X440185D01*
X438678Y346476D01*
X437524Y345322D01*
X436900Y343815D01*
Y342184D01*
X437524Y340678D01*
X438678Y339524D01*
X440185Y338900D01*
X441816D01*
X443322Y339524D01*
X444476Y340678D01*
X445100Y342184D01*
Y343815D01*
X444476Y345322D01*
X443322Y346476D01*
X441816Y347100D01*
D02*
G37*
G36*
X630816Y321600D02*
X629184D01*
X627678Y320976D01*
X626524Y319822D01*
X625900Y318316D01*
Y316684D01*
X626524Y315178D01*
X627678Y314024D01*
X629184Y313400D01*
X630816D01*
X632323Y314024D01*
X633476Y315178D01*
X634100Y316684D01*
Y318316D01*
X633476Y319822D01*
X632323Y320976D01*
X630816Y321600D01*
D02*
G37*
G36*
X642816Y321100D02*
X641184D01*
X639678Y320476D01*
X638524Y319322D01*
X637900Y317815D01*
Y316185D01*
X638524Y314678D01*
X639678Y313524D01*
X641184Y312900D01*
X642816D01*
X644323Y313524D01*
X645476Y314678D01*
X646100Y316185D01*
Y317815D01*
X645476Y319322D01*
X644323Y320476D01*
X642816Y321100D01*
D02*
G37*
G36*
X618816D02*
X617184D01*
X615678Y320476D01*
X614524Y319322D01*
X613900Y317815D01*
Y316185D01*
X614524Y314678D01*
X615678Y313524D01*
X617184Y312900D01*
X618816D01*
X620322Y313524D01*
X621476Y314678D01*
X622100Y316185D01*
Y317815D01*
X621476Y319322D01*
X620322Y320476D01*
X618816Y321100D01*
D02*
G37*
G36*
X842251Y317500D02*
X842000D01*
Y309000D01*
X850500D01*
Y309251D01*
X849853Y311667D01*
X848602Y313833D01*
X846833Y315602D01*
X844667Y316853D01*
X842251Y317500D01*
D02*
G37*
G36*
X760000D02*
X759749D01*
X757333Y316853D01*
X755167Y315602D01*
X753398Y313833D01*
X752147Y311667D01*
X751500Y309251D01*
Y309000D01*
X760000D01*
Y317500D01*
D02*
G37*
G36*
X628995Y311000D02*
X627005D01*
X625168Y310239D01*
X623761Y308832D01*
X623000Y306995D01*
Y305005D01*
X623761Y303168D01*
X625168Y301761D01*
X627005Y301000D01*
X628995D01*
X630832Y301761D01*
X632239Y303168D01*
X633000Y305005D01*
Y306995D01*
X632239Y308832D01*
X630832Y310239D01*
X628995Y311000D01*
D02*
G37*
G36*
X515816Y304100D02*
X514184D01*
X512678Y303476D01*
X511524Y302323D01*
X510900Y300816D01*
Y299184D01*
X511524Y297678D01*
X512678Y296524D01*
X514184Y295900D01*
X515816D01*
X517323Y296524D01*
X518476Y297678D01*
X519100Y299184D01*
Y300816D01*
X518476Y302323D01*
X517323Y303476D01*
X515816Y304100D01*
D02*
G37*
G36*
Y289100D02*
X514184D01*
X512678Y288476D01*
X511524Y287322D01*
X510900Y285816D01*
Y284184D01*
X511524Y282677D01*
X512678Y281524D01*
X514184Y280900D01*
X515816D01*
X517323Y281524D01*
X518476Y282677D01*
X519100Y284184D01*
Y285816D01*
X518476Y287322D01*
X517323Y288476D01*
X515816Y289100D01*
D02*
G37*
G36*
X646995Y290000D02*
X645005D01*
X643168Y289239D01*
X641761Y287832D01*
X641000Y285995D01*
Y284005D01*
X641761Y282168D01*
X643168Y280761D01*
X645005Y280000D01*
X646995D01*
X648832Y280761D01*
X650239Y282168D01*
X651000Y284005D01*
Y285995D01*
X650239Y287832D01*
X648832Y289239D01*
X646995Y290000D01*
D02*
G37*
G36*
Y276000D02*
X645005D01*
X643168Y275239D01*
X641761Y273832D01*
X641000Y271995D01*
Y270005D01*
X641761Y268168D01*
X643168Y266761D01*
X645005Y266000D01*
X646995D01*
X648832Y266761D01*
X650239Y268168D01*
X651000Y270005D01*
Y271995D01*
X650239Y273832D01*
X648832Y275239D01*
X646995Y276000D01*
D02*
G37*
G36*
X515816Y274100D02*
X514184D01*
X512678Y273476D01*
X511524Y272322D01*
X510900Y270816D01*
Y269184D01*
X511524Y267677D01*
X512678Y266524D01*
X514184Y265900D01*
X515816D01*
X517323Y266524D01*
X518476Y267677D01*
X519100Y269184D01*
Y270816D01*
X518476Y272322D01*
X517323Y273476D01*
X515816Y274100D01*
D02*
G37*
G36*
X715995Y249000D02*
X714005D01*
X712168Y248239D01*
X710761Y246832D01*
X710000Y244995D01*
Y243005D01*
X710761Y241168D01*
X712168Y239761D01*
X714005Y239000D01*
X715995D01*
X717832Y239761D01*
X719239Y241168D01*
X720000Y243005D01*
Y244995D01*
X719239Y246832D01*
X717832Y248239D01*
X715995Y249000D01*
D02*
G37*
G36*
X891477Y265000D02*
X888523D01*
X885625Y264424D01*
X882895Y263293D01*
X880438Y261651D01*
X878349Y259562D01*
X876707Y257105D01*
X875576Y254375D01*
X875000Y251477D01*
Y248523D01*
X875576Y245625D01*
X876707Y242895D01*
X878349Y240438D01*
X880438Y238349D01*
X882895Y236707D01*
X885625Y235576D01*
X888523Y235000D01*
X891477D01*
X894375Y235576D01*
X897105Y236707D01*
X899562Y238349D01*
X901651Y240438D01*
X903293Y242895D01*
X904424Y245625D01*
X905000Y248523D01*
Y251477D01*
X904424Y254375D01*
X903293Y257105D01*
X901651Y259562D01*
X899562Y261651D01*
X897105Y263293D01*
X894375Y264424D01*
X891477Y265000D01*
D02*
G37*
G36*
X321477Y255000D02*
X318523D01*
X315625Y254424D01*
X312895Y253293D01*
X310438Y251651D01*
X308349Y249562D01*
X306707Y247105D01*
X305576Y244375D01*
X305000Y241477D01*
Y238523D01*
X305576Y235625D01*
X306707Y232895D01*
X308349Y230438D01*
X310438Y228349D01*
X312895Y226707D01*
X315625Y225576D01*
X318523Y225000D01*
X321477D01*
X324375Y225576D01*
X327105Y226707D01*
X329562Y228349D01*
X331651Y230438D01*
X333293Y232895D01*
X334423Y235625D01*
X335000Y238523D01*
Y241477D01*
X334423Y244375D01*
X333293Y247105D01*
X331651Y249562D01*
X329562Y251651D01*
X327105Y253293D01*
X324375Y254424D01*
X321477Y255000D01*
D02*
G37*
%LPD*%
G36*
X295381Y683401D02*
X295301Y683289D01*
X295230Y683162D01*
X295169Y683022D01*
X295117Y682868D01*
X295075Y682701D01*
X295042Y682519D01*
X295019Y682325D01*
X295005Y682116D01*
X295000Y681893D01*
X293000D01*
X292995Y682116D01*
X292958Y682519D01*
X292925Y682701D01*
X292882Y682868D01*
X292831Y683022D01*
X292770Y683162D01*
X292699Y683289D01*
X292619Y683401D01*
X292530Y683500D01*
X295470D01*
X295381Y683401D01*
D02*
G37*
G36*
X296107Y669846D02*
X296130Y669710D01*
X296169Y669570D01*
X296225Y669428D01*
X296298Y669283D01*
X296386Y669134D01*
X296491Y668983D01*
X296612Y668829D01*
X296750Y668671D01*
X296904Y668510D01*
X295490Y667096D01*
X295329Y667250D01*
X295017Y667509D01*
X294866Y667614D01*
X294717Y667702D01*
X294572Y667775D01*
X294430Y667831D01*
X294290Y667870D01*
X294154Y667893D01*
X294021Y667900D01*
X296100Y669979D01*
X296107Y669846D01*
D02*
G37*
G36*
X295599Y655381D02*
X295711Y655301D01*
X295838Y655230D01*
X295978Y655169D01*
X296132Y655117D01*
X296299Y655075D01*
X296481Y655042D01*
X296675Y655019D01*
X296884Y655005D01*
X297107Y655000D01*
Y653000D01*
X296884Y652995D01*
X296481Y652958D01*
X296299Y652925D01*
X296132Y652883D01*
X295978Y652831D01*
X295838Y652770D01*
X295711Y652699D01*
X295599Y652619D01*
X295500Y652530D01*
Y655470D01*
X295599Y655381D01*
D02*
G37*
G36*
X624000Y675500D02*
Y645500D01*
X619000Y640500D01*
X604000D01*
Y640500D01*
X599000Y645500D01*
Y676500D01*
X603000Y680500D01*
X619000D01*
X624000Y675500D01*
D02*
G37*
G36*
X295599Y638381D02*
X295711Y638301D01*
X295838Y638230D01*
X295978Y638169D01*
X296132Y638117D01*
X296299Y638075D01*
X296481Y638042D01*
X296675Y638019D01*
X296884Y638005D01*
X297107Y638000D01*
Y636000D01*
X296884Y635995D01*
X296481Y635958D01*
X296299Y635925D01*
X296132Y635882D01*
X295978Y635831D01*
X295838Y635770D01*
X295711Y635699D01*
X295599Y635619D01*
X295500Y635530D01*
Y638470D01*
X295599Y638381D01*
D02*
G37*
G36*
X330107Y620846D02*
X330130Y620710D01*
X330169Y620570D01*
X330225Y620428D01*
X330298Y620283D01*
X330386Y620134D01*
X330491Y619983D01*
X330612Y619828D01*
X330750Y619671D01*
X330904Y619510D01*
X329490Y618096D01*
X329329Y618250D01*
X329017Y618509D01*
X328866Y618614D01*
X328717Y618702D01*
X328572Y618775D01*
X328430Y618830D01*
X328290Y618870D01*
X328154Y618893D01*
X328021Y618900D01*
X330100Y620979D01*
X330107Y620846D01*
D02*
G37*
G36*
X329599Y590381D02*
X329711Y590301D01*
X329838Y590230D01*
X329978Y590169D01*
X330132Y590117D01*
X330299Y590075D01*
X330481Y590042D01*
X330676Y590019D01*
X330884Y590005D01*
X331107Y590000D01*
Y588000D01*
X330884Y587995D01*
X330481Y587958D01*
X330299Y587925D01*
X330132Y587882D01*
X329978Y587831D01*
X329838Y587770D01*
X329711Y587699D01*
X329599Y587619D01*
X329500Y587530D01*
Y590470D01*
X329599Y590381D01*
D02*
G37*
G36*
X651500Y578530D02*
X651401Y578619D01*
X651289Y578699D01*
X651162Y578770D01*
X651022Y578831D01*
X650868Y578882D01*
X650701Y578925D01*
X650519Y578958D01*
X650324Y578981D01*
X650116Y578995D01*
X649893Y579000D01*
Y581000D01*
X650116Y581005D01*
X650519Y581042D01*
X650701Y581075D01*
X650868Y581118D01*
X651022Y581169D01*
X651162Y581230D01*
X651289Y581301D01*
X651401Y581381D01*
X651500Y581470D01*
Y578530D01*
D02*
G37*
G36*
X598671Y580750D02*
X598983Y580491D01*
X599134Y580386D01*
X599283Y580298D01*
X599428Y580225D01*
X599570Y580169D01*
X599710Y580130D01*
X599846Y580107D01*
X599979Y580100D01*
X597900Y578021D01*
X597893Y578154D01*
X597870Y578290D01*
X597831Y578430D01*
X597775Y578572D01*
X597702Y578717D01*
X597614Y578866D01*
X597509Y579017D01*
X597388Y579171D01*
X597250Y579329D01*
X597096Y579490D01*
X598510Y580904D01*
X598671Y580750D01*
D02*
G37*
G36*
X580252Y575574D02*
X580411Y575440D01*
X580565Y575325D01*
X580717Y575229D01*
X580866Y575152D01*
X581011Y575094D01*
X581152Y575055D01*
X581291Y575035D01*
X581426Y575035D01*
X581558Y575053D01*
X579939Y572600D01*
X579910Y572715D01*
X579866Y572835D01*
X579809Y572960D01*
X579738Y573090D01*
X579652Y573225D01*
X579552Y573366D01*
X579310Y573662D01*
X579168Y573818D01*
X579011Y573979D01*
X580091Y575728D01*
X580252Y575574D01*
D02*
G37*
G36*
X573252Y571574D02*
X573411Y571440D01*
X573565Y571325D01*
X573717Y571229D01*
X573866Y571152D01*
X574011Y571094D01*
X574152Y571055D01*
X574291Y571035D01*
X574426Y571035D01*
X574558Y571053D01*
X572938Y568600D01*
X572910Y568714D01*
X572867Y568834D01*
X572809Y568960D01*
X572738Y569090D01*
X572652Y569225D01*
X572552Y569366D01*
X572310Y569662D01*
X572168Y569818D01*
X572011Y569980D01*
X573091Y571728D01*
X573252Y571574D01*
D02*
G37*
G36*
X567671Y568750D02*
X567983Y568491D01*
X568134Y568386D01*
X568283Y568298D01*
X568428Y568225D01*
X568570Y568170D01*
X568710Y568130D01*
X568846Y568107D01*
X568979Y568100D01*
X566900Y566021D01*
X566893Y566154D01*
X566870Y566290D01*
X566830Y566430D01*
X566775Y566572D01*
X566702Y566717D01*
X566614Y566866D01*
X566509Y567017D01*
X566388Y567172D01*
X566250Y567329D01*
X566096Y567490D01*
X567510Y568904D01*
X567671Y568750D01*
D02*
G37*
G36*
X557500Y563530D02*
X557401Y563619D01*
X557289Y563699D01*
X557162Y563770D01*
X557022Y563831D01*
X556868Y563882D01*
X556701Y563925D01*
X556519Y563958D01*
X556325Y563981D01*
X556116Y563995D01*
X555893Y564000D01*
Y566000D01*
X556116Y566005D01*
X556519Y566042D01*
X556701Y566075D01*
X556868Y566118D01*
X557022Y566169D01*
X557162Y566230D01*
X557289Y566301D01*
X557401Y566381D01*
X557500Y566470D01*
Y563530D01*
D02*
G37*
G36*
X586312Y560984D02*
X584981Y558422D01*
X584938Y558531D01*
X584874Y558630D01*
X584791Y558717D01*
X584687Y558792D01*
X584563Y558855D01*
X584419Y558907D01*
X584254Y558948D01*
X584070Y558977D01*
X583865Y558994D01*
X583640Y559000D01*
X583893Y561000D01*
X586312Y560984D01*
D02*
G37*
G36*
X581452Y553581D02*
X581356Y553674D01*
X581245Y553757D01*
X581120Y553830D01*
X580982Y553894D01*
X580829Y553948D01*
X580663Y553992D01*
X580482Y554026D01*
X580288Y554050D01*
X580079Y554065D01*
X579857Y554070D01*
X579933Y556070D01*
X580156Y556074D01*
X580560Y556110D01*
X580742Y556142D01*
X580910Y556182D01*
X581065Y556232D01*
X581207Y556290D01*
X581335Y556357D01*
X581449Y556434D01*
X581550Y556519D01*
X581452Y553581D01*
D02*
G37*
G36*
X294099Y553881D02*
X294211Y553801D01*
X294338Y553730D01*
X294478Y553669D01*
X294632Y553618D01*
X294799Y553575D01*
X294981Y553542D01*
X295175Y553519D01*
X295384Y553505D01*
X295607Y553500D01*
Y551500D01*
X295384Y551495D01*
X294981Y551458D01*
X294799Y551425D01*
X294632Y551382D01*
X294478Y551331D01*
X294338Y551270D01*
X294211Y551199D01*
X294099Y551119D01*
X294000Y551030D01*
Y553970D01*
X294099Y553881D01*
D02*
G37*
G36*
X577479Y549072D02*
X577381Y549162D01*
X577270Y549244D01*
X577144Y549316D01*
X577004Y549378D01*
X576851Y549430D01*
X576684Y549473D01*
X576503Y549507D01*
X576308Y549531D01*
X576100Y549545D01*
X575877Y549550D01*
X575910Y551550D01*
X576132Y551555D01*
X576536Y551591D01*
X576718Y551624D01*
X576886Y551665D01*
X577040Y551716D01*
X577181Y551776D01*
X577308Y551845D01*
X577422Y551924D01*
X577522Y552011D01*
X577479Y549072D01*
D02*
G37*
G36*
X573440Y544509D02*
X573344Y544603D01*
X573233Y544686D01*
X573109Y544759D01*
X572971Y544823D01*
X572818Y544877D01*
X572652Y544921D01*
X572471Y544956D01*
X572277Y544980D01*
X572069Y544995D01*
X571846Y545000D01*
X571929Y547000D01*
X572151Y547005D01*
X572556Y547040D01*
X572738Y547072D01*
X572906Y547112D01*
X573061Y547161D01*
X573203Y547219D01*
X573331Y547286D01*
X573446Y547362D01*
X573547Y547447D01*
X573440Y544509D01*
D02*
G37*
G36*
X569500Y539530D02*
X569401Y539619D01*
X569289Y539699D01*
X569162Y539770D01*
X569022Y539831D01*
X568868Y539883D01*
X568701Y539925D01*
X568519Y539958D01*
X568325Y539981D01*
X568116Y539995D01*
X567893Y540000D01*
Y542000D01*
X568116Y542005D01*
X568519Y542042D01*
X568701Y542075D01*
X568868Y542118D01*
X569022Y542169D01*
X569162Y542230D01*
X569289Y542301D01*
X569401Y542381D01*
X569500Y542470D01*
Y539530D01*
D02*
G37*
G36*
X581979Y514900D02*
X581846Y514893D01*
X581710Y514870D01*
X581570Y514831D01*
X581428Y514775D01*
X581283Y514702D01*
X581134Y514614D01*
X580983Y514509D01*
X580829Y514388D01*
X580671Y514250D01*
X580510Y514096D01*
X579096Y515510D01*
X579250Y515671D01*
X579509Y515983D01*
X579614Y516134D01*
X579702Y516283D01*
X579775Y516428D01*
X579831Y516570D01*
X579870Y516710D01*
X579893Y516846D01*
X579900Y516979D01*
X581979Y514900D01*
D02*
G37*
G36*
X516404Y490740D02*
X516250Y490579D01*
X515991Y490267D01*
X515886Y490116D01*
X515798Y489967D01*
X515725Y489822D01*
X515670Y489680D01*
X515630Y489540D01*
X515607Y489404D01*
X515600Y489271D01*
X513521Y491350D01*
X513654Y491357D01*
X513790Y491380D01*
X513930Y491419D01*
X514072Y491475D01*
X514217Y491548D01*
X514366Y491636D01*
X514517Y491741D01*
X514672Y491862D01*
X514829Y492000D01*
X514990Y492154D01*
X516404Y490740D01*
D02*
G37*
G36*
X568399Y537647D02*
X568591Y537341D01*
X568784Y536990D01*
X568986Y535971D01*
X568008Y534992D01*
X568008Y534992D01*
X563008Y529992D01*
X561885Y528530D01*
X561180Y526827D01*
X560940Y525000D01*
X561180Y523173D01*
X561885Y521470D01*
X563008Y520008D01*
X564470Y518885D01*
X566173Y518180D01*
X568000Y517940D01*
X568904Y518059D01*
X569839Y516164D01*
X565733Y512059D01*
X533250D01*
X532079Y511826D01*
X531087Y511163D01*
X531087Y511163D01*
X513311Y493387D01*
X513306Y493383D01*
X513261Y493352D01*
X513258Y493350D01*
X512684D01*
X511177Y492726D01*
X510024Y491572D01*
X509400Y490065D01*
Y488434D01*
X510024Y486928D01*
X511177Y485774D01*
X512197Y485352D01*
X512777Y483827D01*
X512824Y483150D01*
X494811Y465137D01*
X494806Y465133D01*
X494761Y465102D01*
X494758Y465100D01*
X494184D01*
X494059Y465048D01*
X492059Y466384D01*
Y485733D01*
X544267Y537941D01*
X568128D01*
X568399Y537647D01*
D02*
G37*
G36*
X497904Y462490D02*
X497750Y462329D01*
X497491Y462017D01*
X497386Y461866D01*
X497298Y461717D01*
X497225Y461572D01*
X497169Y461430D01*
X497130Y461290D01*
X497107Y461154D01*
X497100Y461021D01*
X495021Y463100D01*
X495154Y463107D01*
X495290Y463130D01*
X495430Y463170D01*
X495572Y463225D01*
X495717Y463298D01*
X495866Y463386D01*
X496017Y463491D01*
X496171Y463612D01*
X496329Y463750D01*
X496490Y463904D01*
X497904Y462490D01*
D02*
G37*
G36*
X329599Y334381D02*
X329711Y334301D01*
X329838Y334230D01*
X329978Y334169D01*
X330132Y334118D01*
X330299Y334075D01*
X330481Y334042D01*
X330676Y334019D01*
X330884Y334005D01*
X331107Y334000D01*
Y332000D01*
X330884Y331995D01*
X330481Y331958D01*
X330299Y331925D01*
X330132Y331883D01*
X329978Y331831D01*
X329838Y331770D01*
X329711Y331699D01*
X329599Y331619D01*
X329500Y331530D01*
Y334470D01*
X329599Y334381D01*
D02*
G37*
G36*
X294599Y303381D02*
X294711Y303301D01*
X294838Y303230D01*
X294978Y303169D01*
X295132Y303118D01*
X295299Y303075D01*
X295481Y303042D01*
X295676Y303019D01*
X295884Y303005D01*
X296107Y303000D01*
Y301000D01*
X295884Y300995D01*
X295481Y300958D01*
X295299Y300925D01*
X295132Y300882D01*
X294978Y300831D01*
X294838Y300770D01*
X294711Y300699D01*
X294599Y300619D01*
X294500Y300530D01*
Y303470D01*
X294599Y303381D01*
D02*
G37*
G36*
Y288381D02*
X294711Y288301D01*
X294838Y288230D01*
X294978Y288169D01*
X295132Y288118D01*
X295299Y288075D01*
X295481Y288042D01*
X295676Y288019D01*
X295884Y288005D01*
X296107Y288000D01*
Y286000D01*
X295884Y285995D01*
X295481Y285958D01*
X295299Y285925D01*
X295132Y285882D01*
X294978Y285831D01*
X294838Y285770D01*
X294711Y285699D01*
X294599Y285619D01*
X294500Y285530D01*
Y288470D01*
X294599Y288381D01*
D02*
G37*
G36*
Y272381D02*
X294711Y272301D01*
X294838Y272230D01*
X294978Y272169D01*
X295132Y272118D01*
X295299Y272075D01*
X295481Y272042D01*
X295676Y272019D01*
X295884Y272005D01*
X296107Y272000D01*
Y270000D01*
X295884Y269995D01*
X295481Y269958D01*
X295299Y269925D01*
X295132Y269883D01*
X294978Y269831D01*
X294838Y269770D01*
X294711Y269699D01*
X294599Y269619D01*
X294500Y269530D01*
Y272470D01*
X294599Y272381D01*
D02*
G37*
G36*
X919730Y584664D02*
X919252Y585108D01*
X918766Y585505D01*
X918272Y585855D01*
X917768Y586159D01*
X917257Y586416D01*
X916736Y586626D01*
X916207Y586790D01*
X915669Y586907D01*
X915123Y586977D01*
X914568Y587000D01*
Y589000D01*
X915037Y589029D01*
X915473Y589115D01*
X915874Y589258D01*
X916242Y589459D01*
X916575Y589717D01*
X916875Y590033D01*
X917141Y590405D01*
X917374Y590836D01*
X917572Y591323D01*
X917736Y591868D01*
X919730Y584664D01*
D02*
G37*
G36*
X894005Y472884D02*
X894042Y472481D01*
X894075Y472299D01*
X894118Y472132D01*
X894169Y471978D01*
X894230Y471838D01*
X894301Y471711D01*
X894381Y471599D01*
X894470Y471500D01*
X891530D01*
X891619Y471599D01*
X891699Y471711D01*
X891770Y471838D01*
X891831Y471978D01*
X891882Y472132D01*
X891925Y472299D01*
X891958Y472481D01*
X891981Y472676D01*
X891995Y472884D01*
X892000Y473107D01*
X894000D01*
X894005Y472884D01*
D02*
G37*
G36*
X822107Y552346D02*
X822130Y552210D01*
X822169Y552070D01*
X822225Y551928D01*
X822298Y551783D01*
X822386Y551634D01*
X822491Y551483D01*
X822612Y551329D01*
X822750Y551171D01*
X822904Y551010D01*
X821490Y549596D01*
X821329Y549750D01*
X821017Y550009D01*
X820866Y550114D01*
X820717Y550202D01*
X820572Y550275D01*
X820430Y550331D01*
X820290Y550370D01*
X820154Y550393D01*
X820021Y550400D01*
X822100Y552479D01*
X822107Y552346D01*
D02*
G37*
G36*
X835107Y551846D02*
X835130Y551710D01*
X835170Y551570D01*
X835225Y551428D01*
X835298Y551283D01*
X835386Y551134D01*
X835491Y550983D01*
X835612Y550829D01*
X835750Y550671D01*
X835904Y550510D01*
X834490Y549096D01*
X834329Y549250D01*
X834017Y549509D01*
X833866Y549614D01*
X833717Y549702D01*
X833572Y549775D01*
X833430Y549831D01*
X833290Y549870D01*
X833154Y549893D01*
X833021Y549900D01*
X835100Y551979D01*
X835107Y551846D01*
D02*
G37*
G36*
X822107Y544846D02*
X822130Y544710D01*
X822169Y544570D01*
X822225Y544428D01*
X822298Y544283D01*
X822386Y544134D01*
X822491Y543983D01*
X822612Y543829D01*
X822750Y543671D01*
X822904Y543510D01*
X821490Y542096D01*
X821329Y542250D01*
X821017Y542509D01*
X820866Y542614D01*
X820717Y542702D01*
X820572Y542775D01*
X820430Y542831D01*
X820290Y542870D01*
X820154Y542893D01*
X820021Y542900D01*
X822100Y544979D01*
X822107Y544846D01*
D02*
G37*
G36*
X858500Y541030D02*
X858401Y541119D01*
X858289Y541199D01*
X858162Y541270D01*
X858022Y541331D01*
X857868Y541382D01*
X857701Y541425D01*
X857519Y541458D01*
X857325Y541481D01*
X857116Y541495D01*
X856893Y541500D01*
Y543500D01*
X857116Y543505D01*
X857519Y543542D01*
X857701Y543575D01*
X857868Y543618D01*
X858022Y543669D01*
X858162Y543730D01*
X858289Y543801D01*
X858401Y543881D01*
X858500Y543970D01*
Y541030D01*
D02*
G37*
G36*
X853500Y536030D02*
X853401Y536119D01*
X853289Y536199D01*
X853162Y536270D01*
X853022Y536331D01*
X852868Y536382D01*
X852701Y536425D01*
X852519Y536458D01*
X852325Y536481D01*
X852116Y536495D01*
X851893Y536500D01*
Y538500D01*
X852116Y538505D01*
X852519Y538542D01*
X852701Y538575D01*
X852868Y538618D01*
X853022Y538669D01*
X853162Y538730D01*
X853289Y538801D01*
X853401Y538881D01*
X853500Y538970D01*
Y536030D01*
D02*
G37*
G36*
X879005Y527884D02*
X879042Y527481D01*
X879075Y527299D01*
X879118Y527132D01*
X879169Y526978D01*
X879230Y526838D01*
X879301Y526711D01*
X879381Y526599D01*
X879470Y526500D01*
X876530D01*
X876619Y526599D01*
X876699Y526711D01*
X876770Y526838D01*
X876831Y526978D01*
X876882Y527132D01*
X876925Y527299D01*
X876958Y527481D01*
X876981Y527676D01*
X876995Y527884D01*
X877000Y528107D01*
X879000D01*
X879005Y527884D01*
D02*
G37*
G36*
X709979Y577900D02*
X709846Y577893D01*
X709710Y577870D01*
X709570Y577831D01*
X709428Y577775D01*
X709283Y577702D01*
X709134Y577614D01*
X708983Y577509D01*
X708829Y577388D01*
X708671Y577250D01*
X708510Y577096D01*
X707096Y578510D01*
X707250Y578671D01*
X707509Y578983D01*
X707614Y579134D01*
X707702Y579283D01*
X707775Y579428D01*
X707831Y579570D01*
X707870Y579710D01*
X707893Y579846D01*
X707900Y579979D01*
X709979Y577900D01*
D02*
G37*
G36*
X688006Y534135D02*
X688023Y533930D01*
X688052Y533746D01*
X688093Y533581D01*
X688145Y533437D01*
X688208Y533313D01*
X688283Y533209D01*
X688370Y533125D01*
X688469Y533062D01*
X688578Y533019D01*
X686016Y531688D01*
X686000Y534107D01*
X688000Y534360D01*
X688006Y534135D01*
D02*
G37*
G36*
X735000Y675000D02*
Y645000D01*
X730000Y640000D01*
X715000D01*
Y640000D01*
X710000Y645000D01*
Y676000D01*
X714000Y680000D01*
X730000D01*
X735000Y675000D01*
D02*
G37*
G36*
X641755Y516450D02*
X642130Y510050D01*
X642219Y509969D01*
X633280D01*
X633370Y510050D01*
X633450Y510289D01*
X633520Y510690D01*
X633581Y511250D01*
X633708Y513890D01*
X633750Y517970D01*
X641750D01*
X641755Y516450D01*
D02*
G37*
G36*
X627265Y500830D02*
X627330Y500031D01*
X628719D01*
X628440Y499971D01*
X628190Y499790D01*
X627970Y499491D01*
X627779Y499071D01*
X627617Y498531D01*
X627511Y498000D01*
X627617Y497469D01*
X627779Y496930D01*
X627970Y496510D01*
X628190Y496209D01*
X628440Y496030D01*
X628719Y495970D01*
X627314D01*
X627265Y495171D01*
X627250Y494030D01*
X621250D01*
X621235Y495171D01*
X621170Y495970D01*
X619781D01*
X620060Y496030D01*
X620309Y496209D01*
X620530Y496510D01*
X620721Y496930D01*
X620883Y497469D01*
X620989Y498000D01*
X620883Y498531D01*
X620721Y499071D01*
X620530Y499491D01*
X620309Y499790D01*
X620060Y499971D01*
X619781Y500031D01*
X621186D01*
X621235Y500830D01*
X621250Y501969D01*
X627250D01*
X627265Y500830D01*
D02*
G37*
G36*
X626281Y486021D02*
X625968Y485904D01*
X625691Y485709D01*
X625452Y485438D01*
X625249Y485089D01*
X625084Y484663D01*
X624955Y484160D01*
X624863Y483580D01*
X624807Y482923D01*
X624789Y482189D01*
X620789D01*
X620779Y482919D01*
X620628Y484647D01*
X620537Y485070D01*
X620426Y485416D01*
X620295Y485685D01*
X620144Y485877D01*
X619972Y485992D01*
X619781Y486031D01*
X626631Y486061D01*
X626281Y486021D01*
D02*
G37*
G36*
X623839Y479837D02*
X623950Y478355D01*
X624016Y477993D01*
X624098Y477696D01*
X624193Y477466D01*
X624304Y477301D01*
X624429Y477202D01*
X624570Y477169D01*
X618630D01*
X618859Y477202D01*
X619063Y477301D01*
X619243Y477466D01*
X619399Y477696D01*
X619532Y477993D01*
X619640Y478355D01*
X619724Y478783D01*
X619784Y479277D01*
X619820Y479837D01*
X619832Y480463D01*
X623832D01*
X623839Y479837D01*
D02*
G37*
G36*
X647154Y468279D02*
Y418657D01*
X641075Y412578D01*
X637368D01*
X637315Y412600D01*
X636400D01*
Y415500D01*
X631400D01*
Y418500D01*
X636400D01*
Y421800D01*
Y425500D01*
X631400D01*
Y428500D01*
X636400D01*
Y432200D01*
X636772Y432531D01*
X635010D01*
X634995Y433106D01*
X634950Y433621D01*
X634875Y434076D01*
X634770Y434470D01*
X634635Y434803D01*
X634470Y435076D01*
X634275Y435288D01*
X634050Y435440D01*
X633795Y435531D01*
X633510Y435561D01*
X639510D01*
X639225Y435531D01*
X638970Y435440D01*
X638745Y435288D01*
X638550Y435076D01*
X638385Y434803D01*
X638250Y434470D01*
X638145Y434076D01*
X638070Y433621D01*
X638059Y433500D01*
X643500D01*
Y438955D01*
X643390Y438945D01*
X642940Y438870D01*
X642550Y438765D01*
X642219Y438630D01*
X641949Y438465D01*
X641740Y438270D01*
X641590Y438045D01*
X641499Y437790D01*
X641469Y437505D01*
Y439000D01*
X637000D01*
Y442000D01*
X641469D01*
Y443505D01*
X641499Y443220D01*
X641590Y442965D01*
X641740Y442740D01*
X641949Y442545D01*
X642219Y442380D01*
X642550Y442245D01*
X642940Y442140D01*
X643390Y442065D01*
X643500Y442055D01*
Y447500D01*
X638004D01*
X638008Y447311D01*
X638070Y446571D01*
X638125Y446271D01*
X638195Y446017D01*
X638281Y445809D01*
X638382Y445647D01*
X638499Y445531D01*
X638632Y445462D01*
X638781Y445439D01*
X634219D01*
X634368Y445462D01*
X634500Y445531D01*
X634618Y445647D01*
X634719Y445809D01*
X634805Y446017D01*
X634875Y446271D01*
X634930Y446571D01*
X634969Y446918D01*
X634992Y447311D01*
X635000Y447750D01*
X637580D01*
X636400Y448800D01*
Y452500D01*
X631400D01*
Y455500D01*
X636400D01*
Y458800D01*
Y462500D01*
X634434D01*
X634389Y462446D01*
X634370Y462369D01*
Y462500D01*
X631400D01*
Y465500D01*
X634370D01*
Y466171D01*
X634389Y466095D01*
X634445Y466027D01*
X634541Y465967D01*
X634674Y465915D01*
X634845Y465871D01*
X635054Y465835D01*
X635301Y465807D01*
X635909Y465774D01*
X636270Y465770D01*
Y465500D01*
X636400D01*
Y469200D01*
X635400D01*
Y471212D01*
X634094Y471133D01*
X633833Y471089D01*
X633630Y471036D01*
X633485Y470976D01*
X633399Y470907D01*
X633369Y470830D01*
Y472500D01*
X630400D01*
Y475500D01*
X633369D01*
Y475630D01*
X633384Y475500D01*
X635856D01*
X636537Y476385D01*
X639048D01*
X647154Y468279D01*
D02*
G37*
G36*
X623380Y470861D02*
X623120Y471065D01*
X622807Y471168D01*
X622442Y471170D01*
X622025Y471071D01*
X621557Y470871D01*
X621035Y470569D01*
X620462Y470168D01*
X619837Y469664D01*
X618430Y468356D01*
X616156Y471031D01*
X616843Y471742D01*
X617926Y473021D01*
X618322Y473588D01*
X618621Y474107D01*
X618823Y474578D01*
X618928Y475000D01*
X618936Y475375D01*
X618847Y475702D01*
X618661Y475980D01*
X623380Y470861D01*
D02*
G37*
G36*
X550290Y473801D02*
X550041Y473711D01*
X549820Y473560D01*
X549629Y473350D01*
X549467Y473080D01*
X549335Y472751D01*
X549232Y472360D01*
X549173Y472000D01*
X549232Y471640D01*
X549335Y471250D01*
X549467Y470919D01*
X549629Y470649D01*
X549820Y470439D01*
X550041Y470289D01*
X550290Y470200D01*
X550569Y470169D01*
X544631D01*
X544910Y470200D01*
X545159Y470289D01*
X545380Y470439D01*
X545571Y470649D01*
X545733Y470919D01*
X545865Y471250D01*
X545968Y471640D01*
X546027Y472000D01*
X545968Y472360D01*
X545865Y472751D01*
X545733Y473080D01*
X545571Y473350D01*
X545380Y473560D01*
X545159Y473711D01*
X544910Y473801D01*
X544631Y473830D01*
X550569D01*
X550290Y473801D01*
D02*
G37*
G36*
X594800Y492200D02*
Y486400D01*
X595600D01*
X597000Y485000D01*
X615000D01*
X616000Y484000D01*
Y473902D01*
X615474Y473281D01*
X612193Y470000D01*
X604000D01*
X601000Y473000D01*
Y475000D01*
X598000Y478000D01*
X577000D01*
X576000Y477000D01*
Y472000D01*
X575000Y471000D01*
X574033Y470033D01*
X574000Y470039D01*
X574000D01*
D01*
X563961D01*
X562813Y471186D01*
X562439Y472090D01*
Y472910D01*
X562884Y473984D01*
X562884Y473984D01*
X563008Y474609D01*
X563039Y474764D01*
Y474764D01*
D01*
Y486000D01*
X581000D01*
X582000Y487000D01*
Y487400D01*
X582200D01*
Y492200D01*
X583000Y493000D01*
X594000D01*
X594800Y492200D01*
D02*
G37*
G36*
X561000Y488000D02*
Y474764D01*
X560400Y473316D01*
Y471684D01*
X561000Y470236D01*
Y470000D01*
X563000Y468000D01*
X574000D01*
X575000Y467000D01*
Y463000D01*
X574000Y462000D01*
X560400D01*
Y462200D01*
X553800D01*
X553000Y463000D01*
Y489000D01*
X555000Y491000D01*
X558000D01*
X561000Y488000D01*
D02*
G37*
G36*
X549715Y463829D02*
X549460Y463737D01*
X549235Y463585D01*
X549040Y463372D01*
X548875Y463099D01*
X548740Y462766D01*
X548635Y462373D01*
X548567Y461964D01*
X548596Y461640D01*
X548671Y461250D01*
X548767Y460919D01*
X548885Y460649D01*
X549024Y460439D01*
X549184Y460289D01*
X549366Y460200D01*
X549570Y460169D01*
X544000Y460139D01*
X544285Y460171D01*
X544540Y460263D01*
X544765Y460415D01*
X544960Y460628D01*
X545125Y460901D01*
X545260Y461234D01*
X545365Y461627D01*
X545440Y462081D01*
X545441Y462094D01*
X545422Y462360D01*
X545361Y462751D01*
X545283Y463080D01*
X545187Y463350D01*
X545074Y463560D01*
X544944Y463711D01*
X544796Y463801D01*
X544631Y463830D01*
X550000Y463861D01*
X549715Y463829D01*
D02*
G37*
G36*
X544138Y453862D02*
X544170Y453861D01*
X547491D01*
X547565Y453842D01*
X547591Y453784D01*
X547569Y453688D01*
X547498Y453554D01*
X547379Y453381D01*
X547212Y453169D01*
X546733Y452631D01*
X546514Y452406D01*
X546579Y451294D01*
X546608Y451152D01*
X546641Y451051D01*
X546678Y450990D01*
X546720Y450970D01*
X542970Y450939D01*
X543070Y450960D01*
X543161Y451023D01*
X543240Y451126D01*
X543309Y451271D01*
X543367Y451456D01*
X543415Y451683D01*
X543452Y451951D01*
X543495Y452609D01*
X543500Y453000D01*
X545000D01*
X544138Y453862D01*
X544090Y453863D01*
X544023Y453869D01*
X543968Y453879D01*
X543926Y453893D01*
X543897Y453911D01*
X543880Y453933D01*
X543876Y453959D01*
X543885Y453989D01*
X543906Y454023D01*
X543939Y454061D01*
X544138Y453862D01*
D02*
G37*
G36*
X546720Y441031D02*
X546678Y441001D01*
X546641Y440910D01*
X546608Y440760D01*
X546579Y440550D01*
X546535Y439950D01*
X546526Y439467D01*
X546560Y439082D01*
X546635Y438628D01*
X546740Y438235D01*
X546875Y437902D01*
X547040Y437629D01*
X547235Y437416D01*
X547460Y437264D01*
X547715Y437171D01*
X548000Y437139D01*
X543630Y437169D01*
X543593Y438031D01*
X543500D01*
X543485Y438605D01*
X543440Y439118D01*
X543365Y439572D01*
X543260Y439965D01*
X543125Y440299D01*
X542960Y440571D01*
X542765Y440784D01*
X542540Y440937D01*
X542285Y441029D01*
X542000Y441061D01*
X546720Y441031D01*
D02*
G37*
G36*
X598961Y474155D02*
Y473000D01*
X599116Y472220D01*
X599558Y471558D01*
X602558Y468558D01*
X602558Y468558D01*
X603220Y468116D01*
X604000Y467961D01*
X607409D01*
X607496Y467904D01*
X608468Y465963D01*
X608177Y464500D01*
X608468Y463037D01*
X609013Y462220D01*
X609029Y462182D01*
X609209Y461319D01*
X608933Y459817D01*
X607558Y458442D01*
X607116Y457780D01*
X606961Y457000D01*
Y431633D01*
X606375Y431133D01*
X604961Y430367D01*
X604600Y430439D01*
X604090D01*
X603016Y430884D01*
X603016Y430884D01*
X602236Y431039D01*
X598764D01*
X597984Y430884D01*
X597984Y430884D01*
X596910Y430439D01*
X596090D01*
X595333Y430753D01*
X594753Y431333D01*
X594439Y432090D01*
Y432900D01*
X594284Y433680D01*
X593842Y434342D01*
X593180Y434784D01*
X592400Y434939D01*
X584600D01*
X583820Y434784D01*
X583158Y434342D01*
X582716Y433680D01*
X582561Y432900D01*
Y432090D01*
X582247Y431333D01*
X581667Y430753D01*
X580910Y430439D01*
X580090D01*
X579557Y430660D01*
X578776Y430815D01*
X577996Y430660D01*
X577334Y430218D01*
X575558Y428442D01*
X574822Y427976D01*
X573316Y428600D01*
X571684D01*
X570177Y427976D01*
X568629Y429255D01*
X568442Y429442D01*
X567780Y429884D01*
X567000Y430039D01*
X562845D01*
X562039Y430845D01*
Y434155D01*
X562845Y434961D01*
X574000D01*
X574000Y434961D01*
X574780Y435116D01*
X575442Y435558D01*
X575442Y435558D01*
X576442Y436558D01*
X576884Y437220D01*
X577039Y438000D01*
Y443000D01*
X576884Y443780D01*
X576600Y444205D01*
Y451716D01*
X577442Y452558D01*
X577884Y453220D01*
X578039Y454000D01*
Y459000D01*
X578039Y459000D01*
X577884Y459780D01*
X577442Y460442D01*
X576442Y461558D01*
X576884Y462220D01*
X577039Y463000D01*
Y467000D01*
X577039Y467000D01*
X576884Y467780D01*
X576442Y468442D01*
X577082Y470199D01*
X577442Y470558D01*
X577884Y471220D01*
X578039Y472000D01*
Y475961D01*
X597155D01*
X598961Y474155D01*
D02*
G37*
G36*
X592400Y431684D02*
X593024Y430177D01*
X594178Y429024D01*
X595684Y428400D01*
X597315D01*
X598764Y429000D01*
X602236D01*
X603684Y428400D01*
X604600D01*
X606961Y426039D01*
Y425000D01*
X607116Y424220D01*
X607558Y423558D01*
X607558Y423558D01*
X611638Y419478D01*
X612300Y419036D01*
X613080Y418881D01*
X614119D01*
X616000Y417000D01*
Y412120D01*
X609171D01*
Y412120D01*
X607901Y412099D01*
X607000Y413000D01*
Y418000D01*
X605000Y420000D01*
X598764D01*
X597315Y420600D01*
X595684D01*
X594178Y419976D01*
X593024Y418823D01*
X592400Y417315D01*
Y415685D01*
X592009Y415100D01*
X587995D01*
X587843Y415130D01*
X587237Y415737D01*
X586079Y416510D01*
X585402Y416645D01*
X584507Y417539D01*
X583976Y418823D01*
X582822Y419976D01*
X581316Y420600D01*
X579684D01*
X578178Y419976D01*
X577000Y420594D01*
Y427000D01*
X577000D01*
X578776Y428776D01*
X579684Y428400D01*
X581316D01*
X582822Y429024D01*
X583976Y430177D01*
X584600Y431684D01*
Y432900D01*
X592400D01*
Y431684D01*
D02*
G37*
G36*
X549290Y430801D02*
X549040Y430710D01*
X548820Y430560D01*
X548629Y430350D01*
X548467Y430080D01*
X548335Y429751D01*
X548232Y429361D01*
X548159Y428910D01*
X548123Y428500D01*
X548159Y428089D01*
X548232Y427640D01*
X548335Y427249D01*
X548467Y426920D01*
X548629Y426650D01*
X548820Y426440D01*
X549040Y426289D01*
X549290Y426199D01*
X549570Y426170D01*
X543630D01*
X543910Y426199D01*
X544160Y426289D01*
X544380Y426440D01*
X544571Y426650D01*
X544733Y426920D01*
X544865Y427249D01*
X544968Y427640D01*
X545041Y428089D01*
X545077Y428500D01*
X545041Y428910D01*
X544968Y429361D01*
X544865Y429751D01*
X544733Y430080D01*
X544571Y430350D01*
X544380Y430560D01*
X544160Y430710D01*
X543910Y430801D01*
X543630Y430830D01*
X549570D01*
X549290Y430801D01*
D02*
G37*
G36*
X634090Y423801D02*
X633840Y423711D01*
X633620Y423560D01*
X633429Y423350D01*
X633267Y423080D01*
X633135Y422751D01*
X633032Y422360D01*
X632973Y422000D01*
X633032Y421640D01*
X633135Y421250D01*
X633267Y420919D01*
X633429Y420649D01*
X633620Y420439D01*
X633840Y420289D01*
X634090Y420200D01*
X634370Y420169D01*
X628430D01*
X628710Y420200D01*
X628960Y420289D01*
X629180Y420439D01*
X629371Y420649D01*
X629533Y420919D01*
X629665Y421250D01*
X629768Y421640D01*
X629827Y422000D01*
X629768Y422360D01*
X629665Y422751D01*
X629533Y423080D01*
X629371Y423350D01*
X629180Y423560D01*
X628960Y423711D01*
X628710Y423801D01*
X628430Y423830D01*
X634370D01*
X634090Y423801D01*
D02*
G37*
G36*
X549290Y419800D02*
X549040Y419711D01*
X548820Y419561D01*
X548629Y419351D01*
X548467Y419081D01*
X548335Y418750D01*
X548232Y418360D01*
X548173Y418000D01*
X548232Y417640D01*
X548335Y417249D01*
X548467Y416920D01*
X548629Y416650D01*
X548820Y416440D01*
X549040Y416289D01*
X549290Y416199D01*
X549570Y416170D01*
X543630D01*
X543910Y416199D01*
X544160Y416289D01*
X544380Y416440D01*
X544571Y416650D01*
X544733Y416920D01*
X544865Y417249D01*
X544968Y417640D01*
X545027Y418000D01*
X544968Y418360D01*
X544865Y418750D01*
X544733Y419081D01*
X544571Y419351D01*
X544380Y419561D01*
X544160Y419711D01*
X543910Y419800D01*
X543630Y419831D01*
X549570D01*
X549290Y419800D01*
D02*
G37*
G36*
X626000Y449000D02*
X629000Y446000D01*
X629000D01*
Y435000D01*
X626000Y432000D01*
Y414000D01*
X620000D01*
X619571Y414429D01*
Y420920D01*
X613080D01*
X609000Y425000D01*
X609000D01*
Y457000D01*
X612405Y460405D01*
X613320D01*
X614827Y461029D01*
X615981Y462182D01*
X616540Y463533D01*
X620007Y467000D01*
X626000D01*
Y449000D01*
D02*
G37*
G36*
X574604Y416248D02*
X574622Y416027D01*
X574654Y415816D01*
X574698Y415616D01*
X574757Y415426D01*
X574828Y415247D01*
X574914Y415078D01*
X575013Y414919D01*
X575125Y414771D01*
X575251Y414633D01*
X574367Y413750D01*
X574229Y413875D01*
X574081Y413988D01*
X573922Y414086D01*
X573753Y414172D01*
X573574Y414243D01*
X573384Y414302D01*
X573184Y414347D01*
X572973Y414378D01*
X572752Y414396D01*
X572521Y414400D01*
X574600Y416479D01*
X574604Y416248D01*
D02*
G37*
G36*
X553020Y460316D02*
X553800Y460161D01*
X559553D01*
X559620Y460116D01*
X560400Y459961D01*
X574000D01*
X574000Y459961D01*
X574780Y460116D01*
X574842Y460158D01*
X576000Y459000D01*
Y454000D01*
X573000Y451000D01*
Y445000D01*
X575000Y443000D01*
Y438000D01*
X574000Y437000D01*
X562000D01*
X560000Y435000D01*
Y430000D01*
X562000Y428000D01*
X567000D01*
X567973Y427027D01*
Y425741D01*
X562366Y420134D01*
X561482Y418811D01*
X561400Y418400D01*
X560000Y417000D01*
Y409000D01*
X559000Y408000D01*
X552000D01*
X551600Y408400D01*
Y416126D01*
X551609Y416170D01*
X551600Y416213D01*
Y419787D01*
X551609Y419831D01*
X551600Y419874D01*
Y426126D01*
X551609Y426170D01*
X551600Y426213D01*
Y428200D01*
X551600D01*
Y428800D01*
X551600D01*
Y430787D01*
X551609Y430830D01*
X551600Y430874D01*
Y439200D01*
X551000D01*
Y451800D01*
X551600D01*
Y459781D01*
X552447Y460348D01*
X552533Y460365D01*
X552870Y460416D01*
X553020Y460316D01*
D02*
G37*
G36*
X604479Y406400D02*
X604248Y406396D01*
X604027Y406378D01*
X603816Y406347D01*
X603616Y406302D01*
X603426Y406243D01*
X603247Y406172D01*
X603078Y406086D01*
X602919Y405988D01*
X602771Y405875D01*
X602633Y405750D01*
X601749Y406633D01*
X601875Y406771D01*
X601987Y406919D01*
X602086Y407078D01*
X602172Y407247D01*
X602243Y407426D01*
X602302Y407616D01*
X602346Y407816D01*
X602378Y408027D01*
X602396Y408248D01*
X602400Y408479D01*
X604479Y406400D01*
D02*
G37*
G36*
X572794Y406421D02*
X572589Y406386D01*
X572391Y406340D01*
X572201Y406283D01*
X572017Y406216D01*
X571840Y406138D01*
X571670Y406048D01*
X571508Y405948D01*
X571352Y405837D01*
X571203Y405715D01*
X571061Y405582D01*
X570058Y406347D01*
X570182Y406483D01*
X570288Y406624D01*
X570376Y406772D01*
X570445Y406924D01*
X570495Y407082D01*
X570528Y407245D01*
X570541Y407414D01*
X570537Y407588D01*
X570514Y407768D01*
X570472Y407953D01*
X572794Y406421D01*
D02*
G37*
G36*
X597814Y407333D02*
X597748Y407216D01*
X597690Y407086D01*
X597640Y406942D01*
X597597Y406786D01*
X597562Y406616D01*
X597535Y406432D01*
X597504Y406026D01*
X597500Y405802D01*
X595500Y405528D01*
X595495Y405751D01*
X595479Y405958D01*
X595452Y406151D01*
X595415Y406329D01*
X595367Y406492D01*
X595309Y406641D01*
X595240Y406774D01*
X595160Y406893D01*
X595070Y406997D01*
X594969Y407086D01*
X597888Y407436D01*
X597814Y407333D01*
D02*
G37*
G36*
X567259Y407609D02*
X567397Y405810D01*
X567480Y405369D01*
X567581Y405009D01*
X567701Y404729D01*
X567839Y404529D01*
X567995Y404409D01*
X568170Y404370D01*
X561830D01*
X562100Y404409D01*
X562341Y404529D01*
X562554Y404729D01*
X562739Y405009D01*
X562895Y405369D01*
X563023Y405810D01*
X563122Y406329D01*
X563193Y406930D01*
X563236Y407609D01*
X563250Y408369D01*
X567250D01*
X567259Y407609D01*
D02*
G37*
G36*
X591215Y407100D02*
X590960Y407010D01*
X590735Y406861D01*
X590540Y406651D01*
X590375Y406381D01*
X590240Y406050D01*
X590135Y405661D01*
X590060Y405210D01*
X590015Y404701D01*
X590000Y404131D01*
X587000D01*
X586985Y404701D01*
X586940Y405210D01*
X586865Y405661D01*
X586760Y406050D01*
X586625Y406381D01*
X586460Y406651D01*
X586265Y406861D01*
X586040Y407010D01*
X585785Y407100D01*
X585500Y407131D01*
X591500D01*
X591215Y407100D01*
D02*
G37*
G36*
X561830Y398430D02*
X561791Y398615D01*
X561670Y398779D01*
X561470Y398925D01*
X561190Y399051D01*
X560830Y399158D01*
X560391Y399245D01*
X559870Y399313D01*
X558591Y399390D01*
X557831Y399400D01*
Y403400D01*
X558591Y403410D01*
X560391Y403555D01*
X560830Y403642D01*
X561190Y403749D01*
X561470Y403875D01*
X561670Y404021D01*
X561791Y404185D01*
X561830Y404370D01*
Y398430D01*
D02*
G37*
G36*
X630604Y400238D02*
X630622Y400017D01*
X630653Y399806D01*
X630698Y399606D01*
X630757Y399416D01*
X630828Y399237D01*
X630914Y399068D01*
X631012Y398909D01*
X631125Y398761D01*
X631250Y398624D01*
X630367Y397740D01*
X630229Y397865D01*
X630081Y397978D01*
X629922Y398077D01*
X629753Y398162D01*
X629574Y398234D01*
X629384Y398292D01*
X629184Y398337D01*
X628973Y398368D01*
X628752Y398386D01*
X628521Y398390D01*
X630600Y400469D01*
X630604Y400238D01*
D02*
G37*
G36*
X605559Y399084D02*
X605416Y398915D01*
X605289Y398744D01*
X605179Y398570D01*
X605086Y398395D01*
X605010Y398217D01*
X604951Y398037D01*
X604909Y397856D01*
X604883Y397672D01*
X604875Y397485D01*
X603625D01*
X603616Y397672D01*
X603591Y397856D01*
X603549Y398037D01*
X603490Y398217D01*
X603414Y398395D01*
X603321Y398570D01*
X603211Y398744D01*
X603084Y398915D01*
X602941Y399084D01*
X602780Y399250D01*
X605720D01*
X605559Y399084D01*
D02*
G37*
G36*
X594750Y377780D02*
X594584Y377940D01*
X594415Y378084D01*
X594244Y378211D01*
X594070Y378321D01*
X593895Y378414D01*
X593717Y378490D01*
X593537Y378549D01*
X593356Y378591D01*
X593172Y378616D01*
X592985Y378625D01*
Y379875D01*
X593172Y379883D01*
X593356Y379909D01*
X593537Y379951D01*
X593717Y380010D01*
X593895Y380086D01*
X594070Y380179D01*
X594244Y380289D01*
X594415Y380416D01*
X594584Y380559D01*
X594750Y380720D01*
Y377780D01*
D02*
G37*
G36*
X615271Y374625D02*
X615419Y374512D01*
X615578Y374414D01*
X615747Y374328D01*
X615926Y374257D01*
X616116Y374198D01*
X616316Y374154D01*
X616527Y374122D01*
X616748Y374104D01*
X616979Y374100D01*
X614900Y372021D01*
X614896Y372252D01*
X614878Y372473D01*
X614846Y372684D01*
X614802Y372884D01*
X614743Y373074D01*
X614672Y373253D01*
X614586Y373422D01*
X614487Y373581D01*
X614375Y373729D01*
X614249Y373867D01*
X615133Y374751D01*
X615271Y374625D01*
D02*
G37*
G36*
X601693Y366791D02*
X601809Y366723D01*
X601939Y366663D01*
X602082Y366611D01*
X602239Y366567D01*
X602409Y366531D01*
X602592Y366503D01*
X602998Y366471D01*
X603221Y366467D01*
X603459Y364467D01*
X603236Y364462D01*
X602836Y364420D01*
X602657Y364383D01*
X602493Y364336D01*
X602344Y364278D01*
X602210Y364210D01*
X602090Y364132D01*
X601984Y364043D01*
X601894Y363943D01*
X601590Y366867D01*
X601693Y366791D01*
D02*
G37*
G36*
X616726Y355948D02*
X616167Y353679D01*
X615678Y353476D01*
X614524Y352323D01*
X613900Y350816D01*
Y349184D01*
X613148Y348059D01*
X609267D01*
X597567Y359759D01*
X598700Y361454D01*
X599435Y361150D01*
X601065D01*
X602573Y361774D01*
X603207Y362408D01*
X610266D01*
X616726Y355948D01*
D02*
G37*
G36*
X591107Y363846D02*
X591130Y363710D01*
X591170Y363570D01*
X591225Y363428D01*
X591298Y363283D01*
X591386Y363134D01*
X591491Y362983D01*
X591612Y362828D01*
X591750Y362671D01*
X591904Y362510D01*
X590490Y361096D01*
X590329Y361250D01*
X590017Y361509D01*
X589866Y361614D01*
X589717Y361702D01*
X589572Y361775D01*
X589430Y361830D01*
X589290Y361870D01*
X589154Y361893D01*
X589021Y361900D01*
X591100Y363979D01*
X591107Y363846D01*
D02*
G37*
G36*
X633750Y358530D02*
X633584Y358690D01*
X633415Y358834D01*
X633244Y358961D01*
X633070Y359071D01*
X632895Y359164D01*
X632717Y359240D01*
X632537Y359299D01*
X632356Y359341D01*
X632172Y359366D01*
X631985Y359375D01*
Y360625D01*
X632172Y360633D01*
X632356Y360659D01*
X632537Y360701D01*
X632717Y360760D01*
X632895Y360836D01*
X633070Y360929D01*
X633244Y361039D01*
X633415Y361166D01*
X633584Y361309D01*
X633750Y361470D01*
Y358530D01*
D02*
G37*
G36*
X667634Y360079D02*
X667659Y359894D01*
X667701Y359712D01*
X667760Y359533D01*
X667836Y359355D01*
X667929Y359180D01*
X668039Y359006D01*
X668166Y358835D01*
X668309Y358666D01*
X668470Y358500D01*
X665530D01*
X665691Y358666D01*
X665834Y358835D01*
X665961Y359006D01*
X666071Y359180D01*
X666164Y359355D01*
X666240Y359533D01*
X666299Y359712D01*
X666341Y359894D01*
X666367Y360079D01*
X666375Y360265D01*
X667625D01*
X667634Y360079D01*
D02*
G37*
G36*
X619599Y351381D02*
X619711Y351301D01*
X619838Y351230D01*
X619978Y351169D01*
X620132Y351118D01*
X620299Y351075D01*
X620481Y351042D01*
X620676Y351019D01*
X620884Y351005D01*
X621107Y351000D01*
Y349000D01*
X620884Y348995D01*
X620481Y348958D01*
X620299Y348925D01*
X620132Y348882D01*
X619978Y348831D01*
X619838Y348770D01*
X619711Y348699D01*
X619599Y348619D01*
X619500Y348530D01*
Y351470D01*
X619599Y351381D01*
D02*
G37*
G36*
X565404Y343990D02*
X565250Y343829D01*
X564991Y343517D01*
X564886Y343366D01*
X564798Y343217D01*
X564725Y343072D01*
X564669Y342930D01*
X564630Y342790D01*
X564607Y342654D01*
X564600Y342521D01*
X562521Y344600D01*
X562654Y344607D01*
X562790Y344630D01*
X562930Y344669D01*
X563072Y344725D01*
X563217Y344798D01*
X563366Y344886D01*
X563517Y344991D01*
X563671Y345112D01*
X563829Y345250D01*
X563990Y345404D01*
X565404Y343990D01*
D02*
G37*
G36*
X631599Y341381D02*
X631711Y341301D01*
X631838Y341230D01*
X631978Y341169D01*
X632132Y341118D01*
X632299Y341075D01*
X632481Y341042D01*
X632676Y341019D01*
X632884Y341005D01*
X633107Y341000D01*
Y339000D01*
X632884Y338995D01*
X632481Y338958D01*
X632299Y338925D01*
X632132Y338882D01*
X631978Y338831D01*
X631838Y338770D01*
X631711Y338699D01*
X631599Y338619D01*
X631500Y338530D01*
Y341470D01*
X631599Y341381D01*
D02*
G37*
G36*
X669107Y339846D02*
X669130Y339710D01*
X669169Y339570D01*
X669225Y339428D01*
X669298Y339283D01*
X669386Y339134D01*
X669491Y338983D01*
X669612Y338829D01*
X669750Y338671D01*
X669904Y338510D01*
X668490Y337096D01*
X668329Y337250D01*
X668017Y337509D01*
X667866Y337614D01*
X667717Y337702D01*
X667572Y337775D01*
X667430Y337831D01*
X667290Y337870D01*
X667154Y337893D01*
X667021Y337900D01*
X669100Y339979D01*
X669107Y339846D01*
D02*
G37*
G36*
X598271Y329625D02*
X598419Y329512D01*
X598578Y329414D01*
X598747Y329328D01*
X598926Y329257D01*
X599116Y329198D01*
X599316Y329154D01*
X599527Y329122D01*
X599748Y329104D01*
X599979Y329100D01*
X597900Y327021D01*
X597896Y327252D01*
X597878Y327473D01*
X597846Y327684D01*
X597802Y327884D01*
X597743Y328074D01*
X597672Y328253D01*
X597586Y328422D01*
X597487Y328581D01*
X597375Y328729D01*
X597249Y328867D01*
X598133Y329751D01*
X598271Y329625D01*
D02*
G37*
G36*
X568881Y315901D02*
X568801Y315789D01*
X568730Y315662D01*
X568669Y315522D01*
X568618Y315368D01*
X568575Y315201D01*
X568542Y315019D01*
X568519Y314825D01*
X568505Y314616D01*
X568500Y314393D01*
X566500D01*
X566495Y314616D01*
X566458Y315019D01*
X566425Y315201D01*
X566382Y315368D01*
X566331Y315522D01*
X566270Y315662D01*
X566199Y315789D01*
X566119Y315901D01*
X566030Y316000D01*
X568970D01*
X568881Y315901D01*
D02*
G37*
G36*
X583671Y315250D02*
X583983Y314991D01*
X584134Y314886D01*
X584283Y314798D01*
X584428Y314725D01*
X584570Y314669D01*
X584710Y314630D01*
X584846Y314607D01*
X584979Y314600D01*
X582900Y312521D01*
X582893Y312654D01*
X582870Y312790D01*
X582831Y312930D01*
X582775Y313072D01*
X582702Y313217D01*
X582614Y313366D01*
X582509Y313517D01*
X582388Y313671D01*
X582250Y313829D01*
X582096Y313990D01*
X583510Y315404D01*
X583671Y315250D01*
D02*
G37*
G36*
X554979Y312900D02*
X554846Y312893D01*
X554710Y312870D01*
X554570Y312831D01*
X554428Y312775D01*
X554283Y312702D01*
X554134Y312614D01*
X553983Y312509D01*
X553829Y312388D01*
X553671Y312250D01*
X553510Y312096D01*
X552096Y313510D01*
X552250Y313671D01*
X552509Y313983D01*
X552614Y314134D01*
X552702Y314283D01*
X552775Y314428D01*
X552831Y314570D01*
X552870Y314710D01*
X552893Y314846D01*
X552900Y314979D01*
X554979Y312900D01*
D02*
G37*
G36*
X559428Y324774D02*
X560177Y324024D01*
X561684Y323400D01*
X563316D01*
X564447Y322437D01*
X564404Y320203D01*
X564024Y319822D01*
X563400Y318316D01*
Y316684D01*
X564024Y315178D01*
X564430Y314772D01*
X564431Y314769D01*
X564436Y314742D01*
X564441Y314681D01*
Y311500D01*
X564441Y311500D01*
X564674Y310329D01*
X565337Y309337D01*
X584616Y290059D01*
X583787Y288059D01*
X547059D01*
Y302733D01*
X555189Y310863D01*
X555194Y310867D01*
X555239Y310898D01*
X555242Y310900D01*
X555816D01*
X557323Y311524D01*
X558476Y312678D01*
X559100Y314184D01*
Y315816D01*
X558476Y317323D01*
X557323Y318476D01*
X555816Y319100D01*
X554184D01*
X553450Y318796D01*
X552317Y320491D01*
X557039Y325213D01*
X559428Y324774D01*
D02*
G37*
G36*
X615337Y292837D02*
X615337Y292837D01*
X615337Y292837D01*
X618283Y289891D01*
X618198Y288241D01*
X617879Y287786D01*
X617723Y287623D01*
X604203D01*
X585426Y306400D01*
X585606Y307322D01*
X586126Y308528D01*
X587322Y309024D01*
X588476Y310178D01*
X589100Y311684D01*
Y313316D01*
X588476Y314823D01*
X587322Y315976D01*
X585816Y316600D01*
X585242D01*
X585239Y316602D01*
X585217Y316617D01*
X585169Y316656D01*
X580309Y321517D01*
Y325252D01*
X582156Y326018D01*
X615337Y292837D01*
D02*
G37*
G36*
X545005Y287884D02*
X545042Y287481D01*
X545075Y287299D01*
X545117Y287132D01*
X545169Y286978D01*
X545230Y286838D01*
X545301Y286711D01*
X545381Y286599D01*
X545470Y286500D01*
X542530D01*
X542619Y286599D01*
X542699Y286711D01*
X542770Y286838D01*
X542831Y286978D01*
X542882Y287132D01*
X542925Y287299D01*
X542958Y287481D01*
X542981Y287675D01*
X542995Y287884D01*
X543000Y288107D01*
X545000D01*
X545005Y287884D01*
D02*
G37*
G36*
X753561Y286000D02*
X753541Y286190D01*
X753480Y286360D01*
X753378Y286510D01*
X753236Y286640D01*
X753053Y286750D01*
X752830Y286840D01*
X752566Y286910D01*
X752262Y286960D01*
X751916Y286990D01*
X751531Y287000D01*
Y289000D01*
X751916Y289010D01*
X752262Y289040D01*
X752566Y289090D01*
X752830Y289160D01*
X753053Y289250D01*
X753236Y289360D01*
X753378Y289490D01*
X753480Y289640D01*
X753541Y289810D01*
X753561Y290000D01*
Y286000D01*
D02*
G37*
G36*
X545599Y286381D02*
X545711Y286301D01*
X545838Y286230D01*
X545978Y286169D01*
X546132Y286117D01*
X546299Y286075D01*
X546481Y286042D01*
X546675Y286019D01*
X546884Y286005D01*
X547107Y286000D01*
Y284000D01*
X546884Y283995D01*
X546481Y283958D01*
X546299Y283925D01*
X546132Y283883D01*
X545978Y283831D01*
X545838Y283770D01*
X545711Y283699D01*
X545599Y283619D01*
X545500Y283530D01*
Y286470D01*
X545599Y286381D01*
D02*
G37*
G36*
X618160Y282987D02*
X618088Y283097D01*
X618000Y283195D01*
X617894Y283282D01*
X617772Y283357D01*
X617633Y283420D01*
X617477Y283472D01*
X617304Y283512D01*
X617115Y283541D01*
X616909Y283559D01*
X616686Y283564D01*
X617339Y285564D01*
X617566Y285567D01*
X618159Y285605D01*
X618327Y285628D01*
X618620Y285689D01*
X618745Y285727D01*
X618855Y285771D01*
X618951Y285819D01*
X618160Y282987D01*
D02*
G37*
G36*
X628500Y280730D02*
X628503Y280504D01*
X628546Y279911D01*
X628571Y279742D01*
X628639Y279446D01*
X628682Y279319D01*
X628731Y279205D01*
X628785Y279107D01*
X625929Y279807D01*
X626038Y279882D01*
X626135Y279974D01*
X626220Y280083D01*
X626295Y280208D01*
X626357Y280349D01*
X626409Y280506D01*
X626449Y280680D01*
X626477Y280870D01*
X626494Y281077D01*
X626500Y281300D01*
X628500Y280730D01*
D02*
G37*
G36*
X840925Y280500D02*
X839777Y280495D01*
X837737Y280377D01*
X836844Y280266D01*
X836036Y280119D01*
X835312Y279937D01*
X834674Y279719D01*
X834121Y279466D01*
X833653Y279178D01*
X833269Y278855D01*
X831855Y280269D01*
X832178Y280653D01*
X832466Y281121D01*
X832719Y281674D01*
X832937Y282313D01*
X833119Y283036D01*
X833266Y283844D01*
X833377Y284737D01*
X833495Y286777D01*
X833500Y287925D01*
X840925Y280500D01*
D02*
G37*
G36*
X820925D02*
X819777Y280495D01*
X817737Y280377D01*
X816844Y280266D01*
X816036Y280119D01*
X815312Y279937D01*
X814674Y279719D01*
X814121Y279466D01*
X813653Y279178D01*
X813269Y278855D01*
X811855Y280269D01*
X812178Y280653D01*
X812466Y281121D01*
X812719Y281674D01*
X812937Y282313D01*
X813119Y283036D01*
X813266Y283844D01*
X813377Y284737D01*
X813495Y286777D01*
X813500Y287925D01*
X820925Y280500D01*
D02*
G37*
G36*
X800925D02*
X799777Y280495D01*
X797737Y280377D01*
X796844Y280266D01*
X796036Y280119D01*
X795312Y279937D01*
X794674Y279719D01*
X794121Y279466D01*
X793653Y279178D01*
X793269Y278855D01*
X791855Y280269D01*
X792178Y280653D01*
X792466Y281121D01*
X792719Y281674D01*
X792937Y282313D01*
X793119Y283036D01*
X793266Y283844D01*
X793377Y284737D01*
X793495Y286777D01*
X793500Y287925D01*
X800925Y280500D01*
D02*
G37*
G36*
X780925D02*
X779777Y280495D01*
X777737Y280377D01*
X776844Y280266D01*
X776036Y280119D01*
X775312Y279937D01*
X774674Y279719D01*
X774121Y279466D01*
X773653Y279178D01*
X773269Y278855D01*
X771855Y280269D01*
X772178Y280653D01*
X772466Y281121D01*
X772719Y281674D01*
X772937Y282313D01*
X773119Y283036D01*
X773266Y283844D01*
X773377Y284737D01*
X773495Y286777D01*
X773500Y287925D01*
X780925Y280500D01*
D02*
G37*
G36*
X540314Y273607D02*
X540473Y273473D01*
X540628Y273357D01*
X540779Y273259D01*
X540928Y273180D01*
X541074Y273120D01*
X541217Y273079D01*
X541356Y273056D01*
X541493Y273052D01*
X541626Y273066D01*
X539927Y270667D01*
X539901Y270787D01*
X539860Y270911D01*
X539805Y271040D01*
X539736Y271173D01*
X539652Y271311D01*
X539554Y271453D01*
X539314Y271752D01*
X539173Y271908D01*
X539017Y272069D01*
X540153Y273761D01*
X540314Y273607D01*
D02*
G37*
G36*
X661324Y269486D02*
X661256Y269386D01*
X661196Y269272D01*
X661144Y269143D01*
X661100Y269000D01*
X661064Y268842D01*
X661036Y268670D01*
X661016Y268484D01*
X661000Y268068D01*
X659000D01*
X658996Y268283D01*
X658964Y268670D01*
X658936Y268842D01*
X658900Y269000D01*
X658856Y269143D01*
X658804Y269272D01*
X658744Y269386D01*
X658676Y269486D01*
X658600Y269572D01*
X661400D01*
X661324Y269486D01*
D02*
G37*
G36*
X618671Y261750D02*
X618983Y261491D01*
X619134Y261386D01*
X619283Y261298D01*
X619428Y261225D01*
X619570Y261169D01*
X619710Y261130D01*
X619846Y261107D01*
X619979Y261100D01*
X617900Y259021D01*
X617893Y259154D01*
X617870Y259290D01*
X617831Y259430D01*
X617775Y259572D01*
X617702Y259717D01*
X617614Y259866D01*
X617509Y260017D01*
X617388Y260172D01*
X617250Y260329D01*
X617096Y260490D01*
X618510Y261904D01*
X618671Y261750D01*
D02*
G37*
%LPC*%
G36*
X591670Y469109D02*
X591626Y469100D01*
X583300D01*
Y459100D01*
X591626D01*
X591670Y459091D01*
X591713Y459100D01*
X593700D01*
Y459801D01*
X595139Y459912D01*
X596500D01*
X598256Y460261D01*
X599744Y461256D01*
X600739Y462744D01*
X601088Y464500D01*
X600739Y466256D01*
X599744Y467744D01*
X598256Y468739D01*
X596500Y469088D01*
X593700D01*
Y469100D01*
X591713D01*
X591670Y469109D01*
D02*
G37*
%LPD*%
G36*
X591718Y467056D02*
X591863Y467044D01*
X592877Y467017D01*
X596500Y467000D01*
Y462000D01*
X595582Y461991D01*
X592877Y461783D01*
X592442Y461687D01*
X592104Y461574D01*
X591863Y461443D01*
X591718Y461296D01*
X591670Y461130D01*
Y467070D01*
X591718Y467056D01*
D02*
G37*
G36*
X656107Y500846D02*
X656130Y500710D01*
X656170Y500570D01*
X656225Y500428D01*
X656298Y500283D01*
X656386Y500134D01*
X656491Y499983D01*
X656612Y499828D01*
X656750Y499671D01*
X656904Y499510D01*
X655490Y498096D01*
X655329Y498250D01*
X655017Y498509D01*
X654866Y498614D01*
X654717Y498702D01*
X654572Y498775D01*
X654430Y498830D01*
X654290Y498870D01*
X654154Y498893D01*
X654021Y498900D01*
X656100Y500979D01*
X656107Y500846D01*
D02*
G37*
G36*
X721500Y488530D02*
X721401Y488619D01*
X721289Y488699D01*
X721162Y488770D01*
X721022Y488831D01*
X720868Y488882D01*
X720701Y488925D01*
X720519Y488958D01*
X720324Y488981D01*
X720116Y488995D01*
X719893Y489000D01*
Y491000D01*
X720116Y491005D01*
X720519Y491042D01*
X720701Y491075D01*
X720868Y491118D01*
X721022Y491169D01*
X721162Y491230D01*
X721289Y491301D01*
X721401Y491381D01*
X721500Y491470D01*
Y488530D01*
D02*
G37*
G36*
X328500Y473530D02*
X328401Y473619D01*
X328289Y473699D01*
X328162Y473770D01*
X328022Y473831D01*
X327868Y473882D01*
X327701Y473925D01*
X327519Y473958D01*
X327324Y473981D01*
X327116Y473995D01*
X326893Y474000D01*
Y476000D01*
X327116Y476005D01*
X327519Y476042D01*
X327701Y476075D01*
X327868Y476118D01*
X328022Y476169D01*
X328162Y476230D01*
X328289Y476301D01*
X328401Y476381D01*
X328500Y476470D01*
Y473530D01*
D02*
G37*
G36*
X262404Y463740D02*
X262250Y463579D01*
X261991Y463267D01*
X261886Y463116D01*
X261798Y462967D01*
X261725Y462822D01*
X261670Y462680D01*
X261630Y462540D01*
X261607Y462404D01*
X261600Y462271D01*
X259521Y464350D01*
X259654Y464357D01*
X259790Y464380D01*
X259930Y464420D01*
X260072Y464475D01*
X260217Y464548D01*
X260366Y464636D01*
X260517Y464741D01*
X260672Y464862D01*
X260829Y465000D01*
X260990Y465154D01*
X262404Y463740D01*
D02*
G37*
G36*
X748683Y450924D02*
X748662Y450917D01*
X748625Y450892D01*
X748571Y450849D01*
X748413Y450709D01*
X747729Y450044D01*
X746293Y451436D01*
X746437Y451581D01*
X746968Y452185D01*
X747000Y452240D01*
X747016Y452282D01*
X747016Y452311D01*
X748683Y450924D01*
D02*
G37*
G36*
X748005Y413884D02*
X748042Y413481D01*
X748075Y413299D01*
X748118Y413132D01*
X748169Y412978D01*
X748230Y412838D01*
X748301Y412711D01*
X748381Y412599D01*
X748470Y412500D01*
X745530D01*
X745619Y412599D01*
X745699Y412711D01*
X745770Y412838D01*
X745831Y412978D01*
X745882Y413132D01*
X745925Y413299D01*
X745958Y413481D01*
X745981Y413675D01*
X745995Y413884D01*
X746000Y414107D01*
X748000D01*
X748005Y413884D01*
D02*
G37*
G36*
X746107Y378846D02*
X746130Y378710D01*
X746170Y378570D01*
X746225Y378428D01*
X746298Y378283D01*
X746386Y378134D01*
X746491Y377983D01*
X746612Y377828D01*
X746750Y377671D01*
X746904Y377510D01*
X745490Y376096D01*
X745329Y376250D01*
X745017Y376509D01*
X744866Y376614D01*
X744717Y376702D01*
X744572Y376775D01*
X744430Y376830D01*
X744290Y376870D01*
X744154Y376893D01*
X744021Y376900D01*
X746100Y378979D01*
X746107Y378846D01*
D02*
G37*
G36*
X788500Y366530D02*
X788401Y366619D01*
X788289Y366699D01*
X788162Y366770D01*
X788022Y366831D01*
X787868Y366883D01*
X787701Y366925D01*
X787519Y366958D01*
X787325Y366981D01*
X787116Y366995D01*
X786893Y367000D01*
Y369000D01*
X787116Y369005D01*
X787519Y369042D01*
X787701Y369075D01*
X787868Y369118D01*
X788022Y369169D01*
X788162Y369230D01*
X788289Y369301D01*
X788401Y369381D01*
X788500Y369470D01*
Y366530D01*
D02*
G37*
G36*
X712599Y369381D02*
X712711Y369301D01*
X712838Y369230D01*
X712978Y369169D01*
X713132Y369118D01*
X713299Y369075D01*
X713481Y369042D01*
X713676Y369019D01*
X713884Y369005D01*
X714107Y369000D01*
Y367000D01*
X713884Y366995D01*
X713481Y366958D01*
X713299Y366925D01*
X713132Y366883D01*
X712978Y366831D01*
X712838Y366770D01*
X712711Y366699D01*
X712599Y366619D01*
X712500Y366530D01*
Y369470D01*
X712599Y369381D01*
D02*
G37*
G36*
X783500Y361530D02*
X783401Y361619D01*
X783289Y361699D01*
X783162Y361770D01*
X783022Y361831D01*
X782868Y361883D01*
X782701Y361925D01*
X782519Y361958D01*
X782325Y361981D01*
X782116Y361995D01*
X781893Y362000D01*
Y364000D01*
X782116Y364005D01*
X782519Y364042D01*
X782701Y364075D01*
X782868Y364118D01*
X783022Y364169D01*
X783162Y364230D01*
X783289Y364301D01*
X783401Y364381D01*
X783500Y364470D01*
Y361530D01*
D02*
G37*
G36*
X709599Y364381D02*
X709711Y364301D01*
X709838Y364230D01*
X709978Y364169D01*
X710132Y364118D01*
X710299Y364075D01*
X710481Y364042D01*
X710676Y364019D01*
X710884Y364005D01*
X711107Y364000D01*
Y362000D01*
X710884Y361995D01*
X710481Y361958D01*
X710299Y361925D01*
X710132Y361883D01*
X709978Y361831D01*
X709838Y361770D01*
X709711Y361699D01*
X709599Y361619D01*
X709500Y361530D01*
Y364470D01*
X709599Y364381D01*
D02*
G37*
G36*
X778500Y356530D02*
X778401Y356619D01*
X778289Y356699D01*
X778162Y356770D01*
X778022Y356831D01*
X777868Y356883D01*
X777701Y356925D01*
X777519Y356958D01*
X777325Y356981D01*
X777116Y356995D01*
X776893Y357000D01*
Y359000D01*
X777116Y359005D01*
X777519Y359042D01*
X777701Y359075D01*
X777868Y359118D01*
X778022Y359169D01*
X778162Y359230D01*
X778289Y359301D01*
X778401Y359381D01*
X778500Y359470D01*
Y356530D01*
D02*
G37*
G36*
X706599Y359381D02*
X706711Y359301D01*
X706838Y359230D01*
X706978Y359169D01*
X707132Y359118D01*
X707299Y359075D01*
X707481Y359042D01*
X707675Y359019D01*
X707884Y359005D01*
X708107Y359000D01*
Y357000D01*
X707884Y356995D01*
X707481Y356958D01*
X707299Y356925D01*
X707132Y356883D01*
X706978Y356831D01*
X706838Y356770D01*
X706711Y356699D01*
X706599Y356619D01*
X706500Y356530D01*
Y359470D01*
X706599Y359381D01*
D02*
G37*
G36*
X774500Y351530D02*
X774401Y351619D01*
X774289Y351699D01*
X774162Y351770D01*
X774022Y351831D01*
X773868Y351883D01*
X773701Y351925D01*
X773519Y351958D01*
X773325Y351981D01*
X773116Y351995D01*
X772893Y352000D01*
Y354000D01*
X773116Y354005D01*
X773519Y354042D01*
X773701Y354075D01*
X773868Y354118D01*
X774022Y354169D01*
X774162Y354230D01*
X774289Y354301D01*
X774401Y354381D01*
X774500Y354470D01*
Y351530D01*
D02*
G37*
G36*
X703599Y354381D02*
X703711Y354301D01*
X703838Y354230D01*
X703978Y354169D01*
X704132Y354118D01*
X704299Y354075D01*
X704481Y354042D01*
X704676Y354019D01*
X704884Y354005D01*
X705107Y354000D01*
Y352000D01*
X704884Y351995D01*
X704481Y351958D01*
X704299Y351925D01*
X704132Y351883D01*
X703978Y351831D01*
X703838Y351770D01*
X703711Y351699D01*
X703599Y351619D01*
X703500Y351530D01*
Y354470D01*
X703599Y354381D01*
D02*
G37*
G36*
X770500Y346530D02*
X770401Y346619D01*
X770289Y346699D01*
X770162Y346770D01*
X770022Y346831D01*
X769868Y346883D01*
X769701Y346925D01*
X769519Y346958D01*
X769324Y346981D01*
X769116Y346995D01*
X768893Y347000D01*
Y349000D01*
X769116Y349005D01*
X769519Y349042D01*
X769701Y349075D01*
X769868Y349118D01*
X770022Y349169D01*
X770162Y349230D01*
X770289Y349301D01*
X770401Y349381D01*
X770500Y349470D01*
Y346530D01*
D02*
G37*
G36*
X700599Y349381D02*
X700711Y349301D01*
X700838Y349230D01*
X700978Y349169D01*
X701132Y349118D01*
X701299Y349075D01*
X701481Y349042D01*
X701675Y349019D01*
X701884Y349005D01*
X702107Y349000D01*
Y347000D01*
X701884Y346995D01*
X701481Y346958D01*
X701299Y346925D01*
X701132Y346883D01*
X700978Y346831D01*
X700838Y346770D01*
X700711Y346699D01*
X700599Y346619D01*
X700500Y346530D01*
Y349470D01*
X700599Y349381D01*
D02*
G37*
G36*
X830671Y348750D02*
X830983Y348491D01*
X831134Y348386D01*
X831283Y348298D01*
X831428Y348225D01*
X831570Y348170D01*
X831710Y348130D01*
X831846Y348107D01*
X831979Y348100D01*
X829900Y346021D01*
X829893Y346154D01*
X829870Y346290D01*
X829830Y346430D01*
X829775Y346572D01*
X829702Y346717D01*
X829614Y346866D01*
X829509Y347017D01*
X829388Y347172D01*
X829250Y347329D01*
X829096Y347490D01*
X830510Y348904D01*
X830671Y348750D01*
D02*
G37*
G36*
X766500Y341530D02*
X766401Y341619D01*
X766289Y341699D01*
X766162Y341770D01*
X766022Y341831D01*
X765868Y341883D01*
X765701Y341925D01*
X765519Y341958D01*
X765324Y341981D01*
X765116Y341995D01*
X764893Y342000D01*
Y344000D01*
X765116Y344005D01*
X765519Y344042D01*
X765701Y344075D01*
X765868Y344118D01*
X766022Y344169D01*
X766162Y344230D01*
X766289Y344301D01*
X766401Y344381D01*
X766500Y344470D01*
Y341530D01*
D02*
G37*
G36*
X697599Y344381D02*
X697711Y344301D01*
X697838Y344230D01*
X697978Y344169D01*
X698132Y344118D01*
X698299Y344075D01*
X698481Y344042D01*
X698676Y344019D01*
X698884Y344005D01*
X699107Y344000D01*
Y342000D01*
X698884Y341995D01*
X698481Y341958D01*
X698299Y341925D01*
X698132Y341883D01*
X697978Y341831D01*
X697838Y341770D01*
X697711Y341699D01*
X697599Y341619D01*
X697500Y341530D01*
Y344470D01*
X697599Y344381D01*
D02*
G37*
G36*
X762500Y336530D02*
X762401Y336619D01*
X762289Y336699D01*
X762162Y336770D01*
X762022Y336831D01*
X761868Y336883D01*
X761701Y336925D01*
X761519Y336958D01*
X761324Y336981D01*
X761116Y336995D01*
X760893Y337000D01*
Y339000D01*
X761116Y339005D01*
X761519Y339042D01*
X761701Y339075D01*
X761868Y339118D01*
X762022Y339169D01*
X762162Y339230D01*
X762289Y339301D01*
X762401Y339381D01*
X762500Y339470D01*
Y336530D01*
D02*
G37*
G36*
X693599Y339381D02*
X693711Y339301D01*
X693838Y339230D01*
X693978Y339169D01*
X694132Y339118D01*
X694299Y339075D01*
X694481Y339042D01*
X694676Y339019D01*
X694884Y339005D01*
X695107Y339000D01*
Y337000D01*
X694884Y336995D01*
X694481Y336958D01*
X694299Y336925D01*
X694132Y336883D01*
X693978Y336831D01*
X693838Y336770D01*
X693711Y336699D01*
X693599Y336619D01*
X693500Y336530D01*
Y339470D01*
X693599Y339381D01*
D02*
G37*
D12*
X865000Y423000D02*
X905000D01*
X928000Y446000D01*
Y504000D01*
X893000Y470000D02*
Y566432D01*
X914568Y588000D01*
X923000D01*
X925000Y590000D01*
X749000Y374000D02*
X804000D01*
X832000Y346000D01*
X833000Y552000D02*
X837000Y548000D01*
X864000D02*
X878000Y534000D01*
X837000Y548000D02*
X864000D01*
X878000Y525000D02*
Y534000D01*
X921482Y610000D02*
X925000D01*
X744000Y379000D02*
X749000Y374000D01*
X513500Y489250D02*
X533250Y509000D01*
X567000D01*
X596500Y401500D02*
Y408500D01*
X596250Y408750D02*
X596500Y408500D01*
X378000Y593000D02*
X585000D01*
X600000Y578000D01*
X585405Y560000D02*
X586405Y559000D01*
X539030Y560000D02*
X585405D01*
X586405Y559000D02*
X587000D01*
X582842Y589000D02*
X591900Y579942D01*
X593000Y578000D02*
Y578595D01*
X591900Y579695D02*
Y579942D01*
X375000Y589000D02*
X582842D01*
X591900Y579695D02*
X593000Y578595D01*
X589000Y574000D02*
Y574595D01*
X587900Y575695D02*
X589000Y574595D01*
X579000Y585000D02*
X587900Y576100D01*
Y575695D02*
Y576100D01*
X638000Y580000D02*
X653000D01*
X567000Y509000D02*
X638000Y580000D01*
X687000Y531000D02*
X687579Y531579D01*
X687000Y532595D02*
Y557000D01*
Y532595D02*
X687579Y532016D01*
Y531579D02*
Y532016D01*
X687000Y557000D02*
X710000Y580000D01*
X495000Y461000D02*
X538000Y504000D01*
X569000D02*
X582000Y517000D01*
X538000Y504000D02*
X569000D01*
X543000Y541000D02*
X571000D01*
X542000Y546000D02*
X574916D01*
X574992Y545924D01*
X578970Y550550D02*
X579000Y550520D01*
X575360Y550550D02*
X578970D01*
X539756Y555070D02*
X582930D01*
X583000Y555000D01*
X538000Y565000D02*
X559000D01*
X525500Y552500D02*
X538000Y565000D01*
X292500Y552500D02*
X525500D01*
X562000Y573000D02*
X569000Y566000D01*
X362000Y573000D02*
X562000D01*
X346000Y589000D02*
X362000Y573000D01*
X566405Y577000D02*
X574405Y569000D01*
X305000Y637000D02*
X365000Y577000D01*
X566405D01*
X574405Y569000D02*
X575000D01*
X368000Y581000D02*
X573405D01*
X581405Y573000D01*
X582000D01*
X370435Y585000D02*
X579000D01*
X328000Y589000D02*
X346000D01*
X328000Y621000D02*
X368000Y581000D01*
X301435Y654000D02*
X370435Y585000D01*
X294000Y670000D02*
X375000Y589000D01*
X294000Y677000D02*
X378000Y593000D01*
X665000Y490000D02*
X723000D01*
X654000Y501000D02*
X665000Y490000D01*
X489000Y487000D02*
X543000Y541000D01*
X473000Y493970D02*
X539030Y560000D01*
X477000Y492314D02*
X539756Y555070D01*
X540863Y550520D02*
X570085D01*
X481000Y490657D02*
X540863Y550520D01*
X485000Y489000D02*
X542000Y546000D01*
X294000Y677000D02*
Y685000D01*
Y637000D02*
X305000D01*
X294000Y654000D02*
X301435D01*
X570115Y550550D02*
X575360D01*
X575390Y550520D01*
X570085D02*
X570115Y550550D01*
X485000Y462000D02*
Y489000D01*
X481000Y464000D02*
Y490657D01*
X477000Y466000D02*
Y492314D01*
X473000Y468000D02*
Y493970D01*
X338000Y333000D02*
X473000Y468000D01*
X328421Y317421D02*
X477000Y466000D01*
X319000Y302000D02*
X481000Y464000D01*
X310000Y287000D02*
X485000Y462000D01*
X489000Y460000D02*
Y487000D01*
X300000Y271000D02*
X489000Y460000D01*
X328000Y333000D02*
X338000D01*
X326421Y317421D02*
X328421D01*
X326000Y317000D02*
X326421Y317421D01*
X293000Y271000D02*
X300000D01*
X293000Y287000D02*
X310000D01*
X293000Y302000D02*
X319000D01*
X827500Y537500D02*
X855000D01*
X820000Y545000D02*
X827500Y537500D01*
X820000Y552500D02*
X830000Y542500D01*
X860000D01*
X259500Y462250D02*
X272250Y475000D01*
X330000D01*
X692000Y338000D02*
X764000D01*
X581000Y386000D02*
X596500Y401500D01*
X581000Y331500D02*
Y386000D01*
Y331500D02*
X617500Y295000D01*
X589000Y364000D02*
X608000Y345000D01*
X644000D01*
X577250Y320250D02*
Y385223D01*
Y320250D02*
X585000Y312500D01*
X537750Y310250D02*
X573750Y346250D01*
X562500Y342500D02*
X570500Y350500D01*
X612500Y440500D02*
Y448500D01*
X612505Y448505D01*
X600250Y365250D02*
X600467Y365467D01*
X611533D01*
X620000Y251250D02*
X651250D01*
X543356Y285000D02*
X586250D01*
X620000Y251250D01*
X651250D02*
X660000Y260000D01*
X572500Y407905D02*
Y408500D01*
X617500Y295000D02*
X627500Y285000D01*
X617500Y295000D02*
X617500D01*
X627500Y277500D02*
Y285000D01*
X602936Y284564D02*
X619564D01*
X575000Y312500D02*
X602936Y284564D01*
X575000Y312500D02*
Y317500D01*
X567500Y311500D02*
X620000Y259000D01*
X567500Y311500D02*
Y317500D01*
X562500Y327500D02*
X562811Y327189D01*
X565311D01*
X575000Y317500D01*
X537750Y274750D02*
Y310250D01*
X544000Y285000D02*
Y304000D01*
X555000Y315000D01*
X537750Y274750D02*
X541750Y270750D01*
X640000Y340000D02*
X722000Y258000D01*
X630000Y340000D02*
X640000D01*
X644000Y345000D02*
X725000Y264000D01*
X648000Y350000D02*
X727000Y271000D01*
X618000Y350000D02*
X648000D01*
X623000Y354000D02*
X662000D01*
X728000Y288000D01*
X611533Y365467D02*
X623000Y354000D01*
X728000Y288000D02*
X761000D01*
X722000Y258000D02*
X811000D01*
X725000Y264000D02*
X797000D01*
X727000Y271000D02*
X784000D01*
X667000Y340000D02*
X730000Y277000D01*
X770000D01*
X811000Y258000D02*
X841000Y288000D01*
X797000Y264000D02*
X821000Y288000D01*
X784000Y271000D02*
X801000Y288000D01*
X770000Y277000D02*
X781000Y288000D01*
X696000Y343000D02*
X768000D01*
X699000Y348000D02*
X772000D01*
X702000Y353000D02*
X776000D01*
X705000Y358000D02*
X780000D01*
X708000Y363000D02*
X785000D01*
X711000Y368000D02*
X790000D01*
X747000Y411000D02*
Y450728D01*
X749000Y452728D01*
Y453000D01*
X660000Y260000D02*
Y271000D01*
X563905Y440500D02*
X564500D01*
D21*
X555400Y413000D02*
D03*
X546600D02*
D03*
X571600Y448000D02*
D03*
X580400D02*
D03*
X621600Y474000D02*
D03*
X630400D02*
D03*
X622600Y454000D02*
D03*
X631400D02*
D03*
X555400Y434000D02*
D03*
X546600D02*
D03*
Y423000D02*
D03*
X555400D02*
D03*
Y457000D02*
D03*
X546600D02*
D03*
X631400Y464000D02*
D03*
X622600D02*
D03*
X631400Y427000D02*
D03*
X622600D02*
D03*
X631400Y417000D02*
D03*
X622600D02*
D03*
X556400Y477000D02*
D03*
X547600D02*
D03*
Y467000D02*
D03*
X556400D02*
D03*
D31*
X588500Y486750D02*
D03*
Y500250D02*
D03*
D32*
X865000Y423000D02*
D03*
X928000Y504000D02*
D03*
X832000Y346000D02*
D03*
X878000Y525000D02*
D03*
X893000Y470000D02*
D03*
X833000Y552000D02*
D03*
X513500Y489250D02*
D03*
X644500Y424510D02*
D03*
X628500Y400490D02*
D03*
X635250Y360000D02*
D03*
X620500Y408510D02*
D03*
X612500Y400500D02*
D03*
X636500Y408500D02*
D03*
X520500Y452500D02*
D03*
X636500Y448490D02*
D03*
X636510Y432500D02*
D03*
X695000Y642500D02*
D03*
X560000Y382750D02*
D03*
X604500Y408500D02*
D03*
X596250Y379250D02*
D03*
Y408750D02*
D03*
X612505Y464505D02*
D03*
X600000Y578000D02*
D03*
X587000Y559000D02*
D03*
X593000Y578000D02*
D03*
X589000Y574000D02*
D03*
X710000Y580000D02*
D03*
X688000Y531000D02*
D03*
X644495Y448505D02*
D03*
X657000Y451000D02*
D03*
X654000Y509000D02*
D03*
X653000Y580000D02*
D03*
X571000Y541000D02*
D03*
X574992Y545924D02*
D03*
X579000Y550520D02*
D03*
X583000Y555000D02*
D03*
X569000Y566000D02*
D03*
X582000Y517000D02*
D03*
X575000Y569000D02*
D03*
X582000Y573000D02*
D03*
X654000Y490000D02*
D03*
Y501000D02*
D03*
X559000Y565000D02*
D03*
X577000Y534000D02*
D03*
X573000Y530000D02*
D03*
X568000Y525000D02*
D03*
X293000Y271000D02*
D03*
Y287000D02*
D03*
Y302000D02*
D03*
X326000Y317000D02*
D03*
X328000Y333000D02*
D03*
X294000Y637000D02*
D03*
Y654000D02*
D03*
Y670000D02*
D03*
Y685000D02*
D03*
X851000Y454000D02*
D03*
X853000Y443000D02*
D03*
X815000Y455000D02*
D03*
Y470000D02*
D03*
Y440000D02*
D03*
X800000D02*
D03*
X785000D02*
D03*
X800000Y455000D02*
D03*
Y470000D02*
D03*
X785000D02*
D03*
Y455000D02*
D03*
X848000Y479000D02*
D03*
X877000Y517000D02*
D03*
X869000Y526000D02*
D03*
X820000Y545000D02*
D03*
Y552500D02*
D03*
X855000Y537500D02*
D03*
X860000Y542500D02*
D03*
X330000Y475000D02*
D03*
X495000Y461000D02*
D03*
X723000Y490000D02*
D03*
X648000Y515000D02*
D03*
X449000Y328000D02*
D03*
X431000Y369000D02*
D03*
X292500Y552500D02*
D03*
X259500Y462250D02*
D03*
X667000Y357000D02*
D03*
X604250Y400750D02*
D03*
X656000Y389000D02*
D03*
X692000Y338000D02*
D03*
X618000Y381000D02*
D03*
X654000Y317000D02*
D03*
X642000D02*
D03*
X630000Y317500D02*
D03*
X515000Y270000D02*
D03*
Y285000D02*
D03*
Y300000D02*
D03*
X540495Y432505D02*
D03*
X540505Y424505D02*
D03*
Y416505D02*
D03*
X540500Y456500D02*
D03*
X636495Y472505D02*
D03*
X587848Y317380D02*
D03*
X600000Y327000D02*
D03*
X589000Y364000D02*
D03*
X588000Y343000D02*
D03*
X636505Y480495D02*
D03*
X556505Y400505D02*
D03*
X588500Y456250D02*
D03*
Y448500D02*
D03*
X604250D02*
D03*
X596500D02*
D03*
X602000Y676000D02*
D03*
X620000D02*
D03*
X715000Y674000D02*
D03*
X733000D02*
D03*
X840000D02*
D03*
X822000D02*
D03*
X831000Y668000D02*
D03*
Y660000D02*
D03*
Y653000D02*
D03*
Y646000D02*
D03*
X840000Y657500D02*
D03*
X822500D02*
D03*
X724000Y670000D02*
D03*
Y662000D02*
D03*
X715000Y657500D02*
D03*
X733000Y658000D02*
D03*
X724000Y652000D02*
D03*
Y645000D02*
D03*
X602000Y659000D02*
D03*
X620000D02*
D03*
X611000Y647000D02*
D03*
Y654000D02*
D03*
Y662000D02*
D03*
Y670000D02*
D03*
X588505Y400495D02*
D03*
X580495Y400495D02*
D03*
X580500Y392490D02*
D03*
X644505Y440505D02*
D03*
X612500Y496510D02*
D03*
X636500Y456490D02*
D03*
X636500Y464500D02*
D03*
X540500D02*
D03*
Y472500D02*
D03*
X556500Y496500D02*
D03*
X588495Y424495D02*
D03*
X612505Y448505D02*
D03*
X620495Y448505D02*
D03*
Y432505D02*
D03*
X604500Y480490D02*
D03*
X572495Y480495D02*
D03*
X588505Y480505D02*
D03*
X606000Y359750D02*
D03*
X600250Y365250D02*
D03*
X567500Y317500D02*
D03*
X562500Y327500D02*
D03*
Y342500D02*
D03*
X555000Y315000D02*
D03*
X585000Y312500D02*
D03*
X581000Y409000D02*
D03*
X587450Y332000D02*
D03*
X630000Y340000D02*
D03*
X618000Y350000D02*
D03*
X667000Y340000D02*
D03*
X696000Y343000D02*
D03*
X699000Y348000D02*
D03*
X702000Y353000D02*
D03*
X705000Y358000D02*
D03*
X708000Y363000D02*
D03*
X711000Y368000D02*
D03*
X790000D02*
D03*
X785000Y363000D02*
D03*
X780000Y358000D02*
D03*
X776000Y353000D02*
D03*
X772000Y348000D02*
D03*
X768000Y343000D02*
D03*
X764000Y338000D02*
D03*
X747000Y411000D02*
D03*
X744000Y379000D02*
D03*
X328000Y589000D02*
D03*
Y621000D02*
D03*
X437000Y668000D02*
D03*
X440000Y568000D02*
D03*
Y468000D02*
D03*
X414000Y376000D02*
D03*
X441000Y343000D02*
D03*
X749000Y453000D02*
D03*
X731000Y433000D02*
D03*
X617000Y372000D02*
D03*
X642000Y359000D02*
D03*
X618000Y317000D02*
D03*
X606000Y317000D02*
D03*
X620000Y259000D02*
D03*
X627000Y278000D02*
D03*
X620000Y284000D02*
D03*
X544000Y285000D02*
D03*
X542000Y271000D02*
D03*
X540505Y480495D02*
D03*
X802000Y644000D02*
D03*
X766000Y650000D02*
D03*
X661000Y651000D02*
D03*
X580000Y645000D02*
D03*
X545000Y651000D02*
D03*
X591000Y249000D02*
D03*
X571000D02*
D03*
X564500Y440500D02*
D03*
X532500Y480500D02*
D03*
X540500Y408500D02*
D03*
X596500Y440500D02*
D03*
X580500Y456500D02*
D03*
X596500D02*
D03*
X580500Y432500D02*
D03*
X596500D02*
D03*
X572500Y440500D02*
D03*
X604500D02*
D03*
X572500Y456500D02*
D03*
X604500D02*
D03*
X580500Y464500D02*
D03*
X596500D02*
D03*
X572500Y432500D02*
D03*
X604500D02*
D03*
X572500Y464500D02*
D03*
X604500D02*
D03*
X580500Y424500D02*
D03*
X596500D02*
D03*
X612500Y440500D02*
D03*
X564500Y456500D02*
D03*
X612500D02*
D03*
X580500Y472500D02*
D03*
X596500D02*
D03*
X572500Y424500D02*
D03*
X604500D02*
D03*
X564500Y432500D02*
D03*
X612500D02*
D03*
X564500Y464500D02*
D03*
X572500Y472500D02*
D03*
X604500D02*
D03*
X580500Y416500D02*
D03*
X596500D02*
D03*
X564500Y424500D02*
D03*
X612500D02*
D03*
X564500Y472500D02*
D03*
X612500D02*
D03*
X572500Y416500D02*
D03*
Y408500D02*
D03*
D36*
X542250Y446000D02*
D03*
X555750D02*
D03*
X624250Y505000D02*
D03*
X637750D02*
D03*
Y491000D02*
D03*
X624250D02*
D03*
X637000Y440500D02*
D03*
X623500D02*
D03*
D37*
X614371Y407120D02*
D03*
Y415920D02*
D03*
X577000Y483600D02*
D03*
Y492400D02*
D03*
X567000D02*
D03*
Y483600D02*
D03*
X612000Y482600D02*
D03*
Y491400D02*
D03*
X600000D02*
D03*
Y482600D02*
D03*
X565000Y392600D02*
D03*
Y401400D02*
D03*
X588500Y464100D02*
D03*
Y472900D02*
D03*
Y410100D02*
D03*
Y418900D02*
D03*
Y437900D02*
D03*
Y429100D02*
D03*
D71*
X900000Y697500D02*
D03*
X890000Y250000D02*
D03*
X320000Y240000D02*
D03*
D72*
X644425Y424500D02*
X644750D01*
X636510Y432500D02*
X644500Y424510D01*
X612730Y405620D02*
X614230Y407120D01*
X614371D01*
X612730Y400730D02*
Y405620D01*
X612500Y400500D02*
X612730Y400730D01*
X614371Y407120D02*
X615298Y406193D01*
X617943D01*
X620260Y408510D02*
X620500D01*
X617943Y406193D02*
X620260Y408510D01*
X636500Y447750D02*
X636500Y447750D01*
X636000Y448250D02*
X636500Y447750D01*
Y448490D01*
Y441000D02*
Y447750D01*
X633500Y448250D02*
X636000D01*
X631500Y450250D02*
Y453900D01*
Y450250D02*
X633500Y448250D01*
X631400Y454000D02*
X631500Y453900D01*
X636500Y441000D02*
X637000Y440500D01*
X635955Y432459D02*
X636000Y432504D01*
X633217Y432459D02*
X635955D01*
X631750Y427350D02*
Y430993D01*
X636000Y432504D02*
Y432750D01*
X631750Y430993D02*
X633217Y432459D01*
X631400Y427000D02*
X631750Y427350D01*
X631400Y426400D02*
X631500Y426500D01*
X631400Y417000D02*
Y426400D01*
X636510Y432500D02*
Y440010D01*
X637000Y440500D01*
X636943Y423250D02*
X643175D01*
X644425Y424500D01*
X634893Y425300D02*
X636943Y423250D01*
X631400Y426800D02*
Y427000D01*
X632900Y425300D02*
X634893D01*
X631400Y426800D02*
X632900Y425300D01*
X694400Y643425D02*
Y643775D01*
X695000Y642500D02*
Y642825D01*
X687175Y651000D02*
X694400Y643775D01*
Y643425D02*
X695000Y642825D01*
X661000Y651000D02*
X687175D01*
X851000Y445325D02*
Y454000D01*
X853000Y443000D02*
Y443325D01*
X851000Y445325D02*
X853000Y443325D01*
X547000Y457000D02*
Y466400D01*
X546000Y413000D02*
X546600Y413600D01*
Y423000D01*
Y424400D02*
X547000Y424000D01*
X546600Y424400D02*
Y434000D01*
X542250Y446000D02*
X545000Y443250D01*
Y436000D02*
Y443250D01*
Y453000D02*
X546000Y454000D01*
X545000Y448000D02*
Y453000D01*
X546000Y454000D02*
Y456400D01*
X546600Y457000D01*
X547000Y466400D02*
X547600Y467000D01*
Y468400D02*
Y477000D01*
Y468400D02*
X548000Y468000D01*
X636266Y472734D02*
X636495Y472505D01*
X631665Y472734D02*
X636266D01*
X630400Y474000D02*
X631665Y472734D01*
X587650Y411600D02*
X589250Y410000D01*
X586327Y411600D02*
X587650D01*
X584713Y413213D02*
X586327Y411600D01*
X580500Y416500D02*
X583787Y413213D01*
X584713D01*
X588500Y400500D02*
Y410100D01*
Y400500D02*
X588505Y400495D01*
X637000Y440500D02*
X637005Y440505D01*
X644505D01*
X612270Y496280D02*
X612500Y496510D01*
X612000Y491400D02*
X612270Y491670D01*
Y496280D01*
X628900Y475500D02*
X630400Y474000D01*
Y473800D02*
Y474000D01*
Y473800D02*
X631900Y472300D01*
X631400Y454200D02*
X632900Y455700D01*
X635385D02*
X636175Y456490D01*
X631400Y454000D02*
Y454200D01*
X632900Y455700D02*
X635385D01*
X636175Y456490D02*
X636500D01*
X631400Y464000D02*
X631670Y464270D01*
X636270D01*
X636500Y464500D01*
X620495Y448505D02*
X620500Y448500D01*
Y443500D02*
X623500Y440500D01*
X620500Y443500D02*
Y448500D01*
X621730Y453130D02*
X622600Y454000D01*
X621239Y452639D02*
X621730Y453130D01*
X621500Y449490D02*
X621730Y449720D01*
Y453130D01*
X621239Y450230D02*
Y452639D01*
X621010Y450000D02*
X621239Y450230D01*
X620500Y437500D02*
X623500Y440500D01*
X620500Y432510D02*
Y437500D01*
X620495Y432505D02*
X620500Y432510D01*
X611800Y482600D02*
X612000D01*
X605534Y479781D02*
X608981D01*
X604825Y480490D02*
X605534Y479781D01*
X604500Y480490D02*
X604825D01*
X608981Y479781D02*
X611800Y482600D01*
X570075Y480725D02*
X572266D01*
X572495Y480495D01*
X567000Y483600D02*
X567200D01*
X570075Y480725D01*
X573220Y482230D02*
X575630D01*
X577000Y483600D01*
X572990Y482000D02*
X573220Y482230D01*
X588500Y486750D02*
X588505Y486745D01*
Y480505D02*
Y486745D01*
X772000Y644000D02*
X802000D01*
X766000Y650000D02*
X772000Y644000D01*
X545000Y651000D02*
X574000D01*
X580000Y645000D01*
D73*
X636500Y408500D02*
X642764D01*
X651232Y416968D01*
X621832Y480463D02*
Y481232D01*
Y474232D02*
Y480463D01*
X636537D02*
X640737D01*
X622789Y489525D02*
X624250Y490986D01*
X651232Y416968D02*
Y469968D01*
X640737Y480463D02*
X651232Y469968D01*
X621832Y480463D02*
X636473D01*
X622789Y482189D02*
Y489525D01*
X621832Y481232D02*
X622789Y482189D01*
X557454Y401400D02*
X565000D01*
X556559Y400505D02*
X557454Y401400D01*
X556505Y400505D02*
X556559D01*
X565250Y417250D02*
X572500Y424500D01*
X565250Y402000D02*
Y417250D01*
D74*
X589000Y464000D02*
Y464300D01*
X588495Y429095D02*
X588500Y429100D01*
X588495Y424495D02*
Y429095D01*
X589000Y464300D02*
X589200Y464500D01*
X596500D01*
D75*
X628500Y400490D02*
X667000Y361990D01*
X628490Y400500D02*
X628500Y400490D01*
X667000Y356750D02*
Y357000D01*
Y361990D01*
X622250Y360000D02*
X635250D01*
X600000Y382250D02*
X622250Y360000D01*
X600000Y404000D02*
X604500Y408500D01*
X600000Y382250D02*
Y404000D01*
X584000Y375000D02*
X588250Y379250D01*
X584000Y355000D02*
Y375000D01*
X588250Y379250D02*
X596250D01*
X604250Y384750D02*
X617000Y372000D01*
X604250Y384750D02*
Y400750D01*
X594000Y333000D02*
Y345000D01*
Y333000D02*
X600000Y327000D01*
X584000Y355000D02*
X594000Y345000D01*
X570500Y350500D02*
Y405905D01*
X573750Y403750D02*
X576750Y406750D01*
X573750Y346250D02*
Y403750D01*
X576250Y386250D02*
X577250Y385250D01*
X576250Y386250D02*
Y402500D01*
X580436Y406686D01*
Y408436D02*
X581000Y409000D01*
X580436Y406686D02*
Y408436D01*
X576750Y406750D02*
Y412250D01*
X570500Y405905D02*
X572500Y407905D01*
Y416500D02*
X576750Y412250D01*
D76*
X289000Y695000D02*
X350000D01*
X227500Y475000D02*
Y633500D01*
X289000Y695000D01*
X573000Y530000D02*
X611000Y568000D01*
Y647000D01*
Y654000D01*
X568000Y525000D02*
X573000Y530000D01*
Y530000D01*
X227500Y475000D02*
X232500Y470000D01*
X235000Y462500D02*
X240000Y467500D01*
X232500Y462500D02*
Y470000D01*
Y462500D02*
X235000D01*
Y467500D02*
X240000D01*
X232500Y470000D02*
X235000Y467500D01*
D77*
X624250Y491464D02*
Y504536D01*
X624482Y504768D01*
X624250Y491464D02*
X624482Y491232D01*
D78*
X925000Y590000D02*
D03*
Y610000D02*
D03*
Y630000D02*
D03*
Y550000D02*
D03*
Y570000D02*
D03*
Y650000D02*
D03*
X761000Y308000D02*
D03*
X781000Y288000D02*
D03*
Y308000D02*
D03*
X801000Y288000D02*
D03*
Y308000D02*
D03*
X821000Y288000D02*
D03*
Y308000D02*
D03*
X841000Y288000D02*
D03*
Y308000D02*
D03*
D79*
X925000Y530000D02*
D03*
X761000Y288000D02*
D03*
D80*
X596000Y305000D02*
D03*
X715000Y244000D02*
D03*
X881000Y497000D02*
D03*
X875000Y486000D02*
D03*
X868000Y621000D02*
D03*
X706000Y408750D02*
D03*
X680250Y460000D02*
D03*
X679750Y425250D02*
D03*
X697500Y262500D02*
D03*
X732500Y302500D02*
D03*
X880000Y347500D02*
D03*
X905000Y325000D02*
D03*
X880000Y300000D02*
D03*
X871000Y389000D02*
D03*
X802500Y327500D02*
D03*
X855000Y360000D02*
D03*
X697500Y672500D02*
D03*
X582500Y670000D02*
D03*
X592500Y692500D02*
D03*
X460250Y470500D02*
D03*
X499000Y453750D02*
D03*
X462000Y256000D02*
D03*
X501000Y294000D02*
D03*
X525000Y316000D02*
D03*
X559000Y354000D02*
D03*
X622500Y574250D02*
D03*
X530000Y567000D02*
D03*
X522000Y510000D02*
D03*
X529000Y518000D02*
D03*
X790000Y563000D02*
D03*
X810000Y545000D02*
D03*
X735000Y538000D02*
D03*
X752000Y524000D02*
D03*
X734000Y498000D02*
D03*
X755000Y474000D02*
D03*
X733000Y469000D02*
D03*
X725000Y480000D02*
D03*
Y411000D02*
D03*
X728000Y388000D02*
D03*
X695000Y421000D02*
D03*
X657000Y363000D02*
D03*
X639250Y369000D02*
D03*
X707500Y325000D02*
D03*
X647500Y300000D02*
D03*
X677500Y287500D02*
D03*
X552500Y250000D02*
D03*
X537500Y260000D02*
D03*
X565000Y305000D02*
D03*
X617500D02*
D03*
X425000Y380000D02*
D03*
X450000Y347500D02*
D03*
X460000Y335000D02*
D03*
Y382500D02*
D03*
X472500Y372500D02*
D03*
X517500Y380000D02*
D03*
Y390000D02*
D03*
X435000Y477500D02*
D03*
X442500Y450000D02*
D03*
X375000Y652500D02*
D03*
X387500Y602500D02*
D03*
X315000Y680000D02*
D03*
X340000Y662500D02*
D03*
X245000Y685000D02*
D03*
X400000Y675000D02*
D03*
X472500Y677500D02*
D03*
X502500D02*
D03*
X487500Y665000D02*
D03*
X525000Y677500D02*
D03*
X542500Y680000D02*
D03*
X520000Y662500D02*
D03*
X532500Y645000D02*
D03*
Y617500D02*
D03*
X510000Y647500D02*
D03*
X487500D02*
D03*
X450000Y650000D02*
D03*
X465000Y647500D02*
D03*
X507500Y602500D02*
D03*
X552500Y625000D02*
D03*
Y600000D02*
D03*
X592500Y597500D02*
D03*
X765000Y680000D02*
D03*
X755000D02*
D03*
X745000D02*
D03*
X757500Y632500D02*
D03*
X705000Y595000D02*
D03*
X667500Y625000D02*
D03*
Y600000D02*
D03*
X632500D02*
D03*
X647500Y615000D02*
D03*
Y630000D02*
D03*
Y645000D02*
D03*
X630000Y660000D02*
D03*
X657500Y680000D02*
D03*
X645000D02*
D03*
X632500D02*
D03*
X697500Y712500D02*
D03*
X757500D02*
D03*
X810000Y710000D02*
D03*
X802500Y667500D02*
D03*
X900000Y670000D02*
D03*
X862500Y650000D02*
D03*
Y665000D02*
D03*
X852500Y677500D02*
D03*
X812500Y595000D02*
D03*
X775000Y625000D02*
D03*
Y600000D02*
D03*
X747500D02*
D03*
X742500Y657500D02*
D03*
X755000Y645000D02*
D03*
X855000Y600000D02*
D03*
X862500Y712500D02*
D03*
X917500D02*
D03*
X940000Y652500D02*
D03*
X942000Y609000D02*
D03*
X880000Y570000D02*
D03*
X842500Y565000D02*
D03*
X908000Y491000D02*
D03*
X940000Y506000D02*
D03*
X881000Y508000D02*
D03*
X852000Y463000D02*
D03*
X822500Y382500D02*
D03*
X820000Y367500D02*
D03*
X842500Y395000D02*
D03*
X890000Y390000D02*
D03*
Y439000D02*
D03*
X910000Y447500D02*
D03*
X868000Y440000D02*
D03*
X940000Y452000D02*
D03*
Y399000D02*
D03*
X942500Y325000D02*
D03*
Y277500D02*
D03*
Y227500D02*
D03*
X880000D02*
D03*
X807500D02*
D03*
X737500D02*
D03*
X647500D02*
D03*
X575000D02*
D03*
X500000D02*
D03*
X427500D02*
D03*
X347500D02*
D03*
X292500D02*
D03*
X359000Y255000D02*
D03*
X345000Y263000D02*
D03*
X374000Y264000D02*
D03*
X402000Y300000D02*
D03*
X347000Y363000D02*
D03*
X382500Y337500D02*
D03*
X362500Y375000D02*
D03*
X340000Y385000D02*
D03*
X392500Y402500D02*
D03*
X375000Y425000D02*
D03*
X392500Y460000D02*
D03*
X342500Y467500D02*
D03*
Y487500D02*
D03*
X377500Y490000D02*
D03*
X375000Y535000D02*
D03*
X347500Y570000D02*
D03*
X385000Y562500D02*
D03*
X457500Y560000D02*
D03*
X470000Y542500D02*
D03*
X490000Y522500D02*
D03*
X687500Y700000D02*
D03*
X677500Y707500D02*
D03*
X667500Y700000D02*
D03*
X742000Y505000D02*
D03*
X628000Y306000D02*
D03*
X532500Y702500D02*
D03*
Y687500D02*
D03*
Y695000D02*
D03*
X522500Y690000D02*
D03*
Y697500D02*
D03*
Y705000D02*
D03*
X562500Y707500D02*
D03*
X572500Y700000D02*
D03*
X552500D02*
D03*
X795000Y697500D02*
D03*
X785000Y707500D02*
D03*
X775000Y697500D02*
D03*
X646000Y285000D02*
D03*
Y258000D02*
D03*
Y271000D02*
D03*
X232500Y470000D02*
D03*
Y462500D02*
D03*
X240000Y467500D02*
D03*
X350000Y695000D02*
D03*
X337500D02*
D03*
X654000Y713000D02*
D03*
X594000D02*
D03*
X538000D02*
D03*
X490000Y712500D02*
D03*
X445000D02*
D03*
X390000D02*
D03*
X340000D02*
D03*
X295000D02*
D03*
X260000Y710000D02*
D03*
X219000Y695000D02*
D03*
X230000D02*
D03*
X245000Y477500D02*
D03*
Y227000D02*
D03*
X235000Y252500D02*
D03*
Y262500D02*
D03*
X233000Y685000D02*
D03*
Y676000D02*
D03*
X232000Y276000D02*
D03*
D81*
X735000Y410000D02*
D03*
X738000Y450000D02*
D03*
X660000Y271000D02*
D03*
X825000Y412000D02*
D03*
X839000Y404000D02*
D03*
X756000Y503000D02*
D03*
X794000Y524000D02*
D03*
X764000Y516000D02*
D03*
X779000Y501000D02*
D03*
X845000Y500000D02*
D03*
X755000Y449000D02*
D03*
X636500Y416500D02*
D03*
D82*
X612100Y464500D02*
X620150Y472550D01*
X612000Y464500D02*
X612100D01*
X621600Y473800D02*
Y474000D01*
X620350Y472550D02*
X621600Y473800D01*
X620150Y472550D02*
X620350D01*
D83*
X724000Y630000D02*
Y645000D01*
X637750Y505000D02*
Y543750D01*
X724000Y630000D01*
Y662000D02*
Y670000D01*
Y652000D02*
Y662000D01*
Y645000D02*
Y652000D01*
M02*
