G04*
G04 #@! TF.GenerationSoftware,Altium Limited,Altium Designer,24.2.2 (26)*
G04*
G04 Layer_Physical_Order=3*
G04 Layer_Color=16440176*
%FSLAX44Y44*%
%MOMM*%
G71*
G04*
G04 #@! TF.SameCoordinates,00A82A7E-E9F6-4F9A-BCAE-F82A0DBAF845*
G04*
G04*
G04 #@! TF.FilePolarity,Positive*
G04*
G01*
G75*
%ADD12C,0.2000*%
%ADD48C,1.5000*%
%ADD78C,0.3000*%
%ADD80C,0.5000*%
%ADD81C,0.8000*%
%ADD82C,0.4000*%
%ADD85R,1.5000X1.5000*%
%ADD86R,1.5000X1.5000*%
%ADD87C,0.5000*%
%ADD88C,0.6000*%
%ADD89C,0.8000*%
G36*
X866659Y733730D02*
X865761Y732832D01*
X865000Y730995D01*
Y729005D01*
X865761Y727168D01*
X867168Y725761D01*
X869006Y725000D01*
X870995D01*
X872832Y725761D01*
X872895Y725823D01*
X874068Y725337D01*
Y684663D01*
X872895Y684177D01*
X872832Y684239D01*
X870995Y685000D01*
X869006D01*
X867168Y684239D01*
X865761Y682832D01*
X865000Y680995D01*
Y679005D01*
X865761Y677168D01*
X867168Y675761D01*
X867346Y675687D01*
Y674313D01*
X867168Y674239D01*
X865761Y672832D01*
X865000Y670995D01*
Y669005D01*
X865761Y667168D01*
X867168Y665761D01*
X867346Y665687D01*
Y664313D01*
X867168Y664239D01*
X865761Y662832D01*
X865000Y660995D01*
Y659005D01*
X865294Y658295D01*
X864322Y657323D01*
X863895Y657500D01*
X862105D01*
X860451Y656815D01*
X859185Y655549D01*
X858500Y653895D01*
Y652105D01*
X859185Y650451D01*
X860451Y649185D01*
X862105Y648500D01*
X863174D01*
X888750Y622924D01*
X888264Y621750D01*
X870289D01*
X869508Y621595D01*
X869220Y621476D01*
X868558Y621034D01*
X868116Y620372D01*
X867961Y619592D01*
Y547478D01*
X868000Y547281D01*
Y547080D01*
X868077Y546895D01*
X868116Y546698D01*
X868228Y546531D01*
X868305Y546345D01*
X868447Y546203D01*
X868558Y546036D01*
X868685Y545049D01*
X868000Y543395D01*
Y542000D01*
X866605D01*
X864951Y541315D01*
X863685Y540049D01*
X863517Y539643D01*
X862549Y538815D01*
X861998Y539043D01*
X860895Y539500D01*
X859105D01*
X857451Y538815D01*
X856185Y537549D01*
X855500Y535895D01*
Y534105D01*
X856185Y532451D01*
X857451Y531185D01*
X859105Y530500D01*
X860895D01*
X862549Y531185D01*
X863815Y532451D01*
X863983Y532857D01*
X864951Y533685D01*
X865502Y533457D01*
X866605Y533000D01*
X867961D01*
Y523519D01*
X866691Y522670D01*
X865895Y523000D01*
X864105D01*
X862451Y522315D01*
X861185Y521049D01*
X860500Y519395D01*
Y518210D01*
X859382Y517335D01*
X859327Y517321D01*
X858895Y517500D01*
X857105D01*
X855451Y516815D01*
X854185Y515549D01*
X853858Y514760D01*
X852588Y515012D01*
Y536100D01*
X857244Y540756D01*
X858239Y542244D01*
X858588Y544000D01*
Y546912D01*
X858739Y547138D01*
X859088Y548893D01*
Y555107D01*
X858739Y556862D01*
X858588Y557088D01*
Y573500D01*
X858239Y575256D01*
X857244Y576744D01*
X818244Y615744D01*
X816909Y617079D01*
X817629Y618156D01*
X818005Y618000D01*
X819995D01*
X821832Y618761D01*
X823239Y620168D01*
X824000Y622005D01*
Y623995D01*
X823239Y625832D01*
X821832Y627239D01*
X819995Y628000D01*
X818005D01*
X816168Y627239D01*
X814761Y625832D01*
X814000Y623995D01*
Y622005D01*
X814156Y621629D01*
X813079Y620909D01*
X801162Y632827D01*
X801553Y634231D01*
X802832Y634761D01*
X804239Y636168D01*
X804520Y636846D01*
X805016Y636975D01*
X805950Y636979D01*
X807168Y635761D01*
X809005Y635000D01*
X810995D01*
X812832Y635761D01*
X814239Y637168D01*
X815000Y639005D01*
Y640995D01*
X814239Y642832D01*
X812832Y644239D01*
X810995Y645000D01*
X809005D01*
X807168Y644239D01*
X805761Y642832D01*
X805480Y642154D01*
X804984Y642025D01*
X804050Y642021D01*
X802832Y643239D01*
X800995Y644000D01*
X799005D01*
X797168Y643239D01*
X795761Y641832D01*
X795231Y640553D01*
X793827Y640162D01*
X790259Y643730D01*
X790785Y645000D01*
X790995D01*
X792832Y645761D01*
X794239Y647168D01*
X795000Y649005D01*
Y650995D01*
X794239Y652832D01*
X792832Y654239D01*
X790995Y655000D01*
X789005D01*
X787168Y654239D01*
X785761Y652832D01*
X785000Y650995D01*
Y650785D01*
X783730Y650259D01*
X781244Y652744D01*
X779756Y653739D01*
X778000Y654088D01*
X674612D01*
X673984Y655358D01*
X674500Y656605D01*
Y658395D01*
X673815Y660049D01*
X672549Y661315D01*
X670895Y662000D01*
X669105D01*
X667451Y661315D01*
X666185Y660049D01*
X665500Y658395D01*
Y656605D01*
X666016Y655358D01*
X665389Y654088D01*
X627100D01*
X625345Y653739D01*
X623856Y652744D01*
X599633Y628521D01*
X598716Y628993D01*
X598500Y629184D01*
Y630895D01*
X597815Y632549D01*
X596549Y633815D01*
X594895Y634500D01*
X593105D01*
X591451Y633815D01*
X590185Y632549D01*
X589500Y630895D01*
Y629105D01*
X590185Y627451D01*
X591451Y626185D01*
X593105Y625500D01*
X594816D01*
X595006Y625284D01*
X595479Y624367D01*
X549256Y578144D01*
X548261Y576655D01*
X547912Y574899D01*
Y570000D01*
X548000Y569557D01*
Y569105D01*
X548173Y568687D01*
X548261Y568244D01*
X548512Y567868D01*
X548685Y567451D01*
X549005Y567132D01*
X549256Y566756D01*
X549632Y566505D01*
X549951Y566185D01*
X550368Y566012D01*
X550744Y565761D01*
X551187Y565673D01*
X551605Y565500D01*
X552057D01*
X552500Y565412D01*
X552943Y565500D01*
X553395D01*
X553813Y565673D01*
X554256Y565761D01*
X554632Y566012D01*
X555049Y566185D01*
X555369Y566505D01*
X555744Y566756D01*
X555995Y567132D01*
X556315Y567451D01*
X556488Y567868D01*
X556739Y568244D01*
X556827Y568687D01*
X557000Y569105D01*
Y569557D01*
X557088Y570000D01*
Y572999D01*
X594749Y610659D01*
X595994Y610412D01*
X596185Y609951D01*
X597451Y608685D01*
X599105Y608000D01*
X600895D01*
X602549Y608685D01*
X603815Y609951D01*
X604500Y611605D01*
Y611953D01*
X617736Y625190D01*
X618982Y624942D01*
X619185Y624451D01*
X620451Y623185D01*
X622105Y622500D01*
X623895D01*
X625549Y623185D01*
X626815Y624451D01*
X627500Y626105D01*
Y627895D01*
X626815Y629549D01*
X625549Y630815D01*
X625058Y631018D01*
X624810Y632264D01*
X629978Y637431D01*
X684993D01*
X685699Y636375D01*
X685500Y635895D01*
Y634105D01*
X686185Y632451D01*
X687451Y631185D01*
X689105Y630500D01*
X690895D01*
X692549Y631185D01*
X693815Y632451D01*
X693955Y632788D01*
X695527Y633265D01*
X695620Y633203D01*
X696985Y632931D01*
X705515D01*
X706880Y633203D01*
X706973Y633265D01*
X708545Y632788D01*
X708685Y632451D01*
X709951Y631185D01*
X711605Y630500D01*
X713395D01*
X715049Y631185D01*
X716315Y632451D01*
X717000Y634105D01*
Y635895D01*
X716315Y637549D01*
X715703Y638161D01*
X716229Y639431D01*
X764701D01*
X765483Y638161D01*
X765000Y636995D01*
Y635005D01*
X765761Y633168D01*
X767168Y631761D01*
X769005Y631000D01*
X770995D01*
X772832Y631761D01*
X774239Y633168D01*
X774659Y634181D01*
X776157Y634479D01*
X776451Y634185D01*
X778105Y633500D01*
X778453D01*
X836926Y575027D01*
Y493522D01*
X836680Y493276D01*
X835995Y491622D01*
Y489832D01*
X836680Y488178D01*
X836926Y487932D01*
Y458505D01*
X837198Y457140D01*
X837972Y455982D01*
X842431Y451522D01*
Y413478D01*
X827477Y398523D01*
X826703Y397366D01*
X826431Y396000D01*
Y379965D01*
X825161Y379712D01*
X824815Y380549D01*
X823549Y381815D01*
X821895Y382500D01*
X820105D01*
X818451Y381815D01*
X817185Y380549D01*
X816500Y378895D01*
Y377105D01*
X817185Y375451D01*
X818451Y374185D01*
X820105Y373500D01*
X821895D01*
X823549Y374185D01*
X824815Y375451D01*
X825161Y376287D01*
X826431Y376035D01*
Y355000D01*
X826703Y353634D01*
X827477Y352477D01*
X830500Y349453D01*
Y349105D01*
X831185Y347451D01*
X832451Y346185D01*
X834105Y345500D01*
X835895D01*
X837549Y346185D01*
X838815Y347451D01*
X839500Y349105D01*
Y350895D01*
X838815Y352549D01*
X837549Y353815D01*
X835895Y354500D01*
X835547D01*
X833569Y356478D01*
Y369271D01*
X834839Y369798D01*
X835451Y369185D01*
X837105Y368500D01*
X838895D01*
X840549Y369185D01*
X840551Y369187D01*
X841185Y369451D01*
X842451Y368185D01*
X844105Y367500D01*
X845895D01*
X847549Y368185D01*
X848815Y369451D01*
X849500Y371105D01*
Y372895D01*
X848815Y374549D01*
X847549Y375815D01*
X845895Y376500D01*
X844105D01*
X842451Y375815D01*
X842449Y375813D01*
X841815Y375549D01*
X840549Y376815D01*
X838895Y377500D01*
X837105D01*
X835451Y376815D01*
X834839Y376203D01*
X833569Y376729D01*
Y387699D01*
X833698Y387902D01*
X834391Y388442D01*
X834839Y388610D01*
X835105Y388500D01*
X835557D01*
X836000Y388412D01*
X836443Y388500D01*
X836895D01*
X837312Y388673D01*
X837756Y388761D01*
X838132Y389012D01*
X838549Y389185D01*
X838869Y389505D01*
X839244Y389756D01*
X841327Y391838D01*
X842761Y391476D01*
X843185Y390451D01*
X844451Y389185D01*
X846105Y388500D01*
X847895D01*
X849549Y389185D01*
X850815Y390451D01*
X851500Y392105D01*
Y393895D01*
X851662Y394138D01*
X852851Y394246D01*
X853647Y393250D01*
X853500Y392895D01*
Y391105D01*
X854185Y389451D01*
X855451Y388185D01*
X857105Y387500D01*
X858895D01*
X860549Y388185D01*
X861815Y389451D01*
X862500Y391105D01*
Y392895D01*
X861815Y394549D01*
X860549Y395815D01*
X858895Y396500D01*
X857210D01*
X856807Y396860D01*
X856260Y397524D01*
X856500Y398105D01*
Y399895D01*
X855815Y401549D01*
X854549Y402815D01*
X854017Y403035D01*
X853769Y404281D01*
X873244Y423756D01*
X874239Y425244D01*
X874588Y427000D01*
Y444899D01*
X874239Y446655D01*
X873244Y448144D01*
X866158Y455230D01*
X866684Y456500D01*
X867895D01*
X869549Y457185D01*
X870692Y458328D01*
X870720Y458310D01*
X871500Y458154D01*
X876525D01*
X878105Y457500D01*
X879895D01*
X881475Y458154D01*
X887381D01*
X887599Y458198D01*
X887822Y458203D01*
X887986Y458275D01*
X888161Y458310D01*
X888347Y458433D01*
X888550Y458523D01*
X888674Y458652D01*
X888823Y458752D01*
X889753Y459481D01*
X891407Y458796D01*
X893197D01*
X894851Y459481D01*
X895781Y458752D01*
X895930Y458652D01*
X896053Y458523D01*
X896257Y458433D01*
X896443Y458310D01*
X896618Y458275D01*
X896782Y458203D01*
X897004Y458198D01*
X897223Y458154D01*
X1002979D01*
X1003614Y457055D01*
X1003447Y456767D01*
X1002800Y454351D01*
Y451849D01*
X1003447Y449433D01*
X1004698Y447267D01*
X1006467Y445498D01*
X1008633Y444247D01*
X1011049Y443600D01*
X1013551D01*
X1015967Y444247D01*
X1018133Y445498D01*
X1019902Y447267D01*
X1021153Y449433D01*
X1021800Y451849D01*
Y454351D01*
X1021153Y456767D01*
X1020986Y457055D01*
X1021621Y458154D01*
X1028379D01*
X1029014Y457055D01*
X1028847Y456767D01*
X1028200Y454351D01*
Y451849D01*
X1028847Y449433D01*
X1030098Y447267D01*
X1031867Y445498D01*
X1034033Y444247D01*
X1036449Y443600D01*
X1038951D01*
X1041367Y444247D01*
X1043533Y445498D01*
X1045302Y447267D01*
X1046553Y449433D01*
X1047200Y451849D01*
Y454351D01*
X1046553Y456767D01*
X1046386Y457055D01*
X1047021Y458154D01*
X1050000D01*
Y205000D01*
X1043867D01*
X1043341Y206270D01*
X1044239Y207168D01*
X1045000Y209005D01*
Y210995D01*
X1044239Y212832D01*
X1042832Y214239D01*
X1040995Y215000D01*
X1039005D01*
X1037168Y214239D01*
X1035761Y212832D01*
X1035000Y210995D01*
Y209005D01*
X1035761Y207168D01*
X1036659Y206270D01*
X1036133Y205000D01*
X1013867D01*
X1013341Y206270D01*
X1014239Y207168D01*
X1015000Y209005D01*
Y210995D01*
X1014239Y212832D01*
X1012832Y214239D01*
X1010995Y215000D01*
X1009005D01*
X1007168Y214239D01*
X1005761Y212832D01*
X1005000Y210995D01*
Y209005D01*
X1005761Y207168D01*
X1006659Y206270D01*
X1006133Y205000D01*
X983867D01*
X983341Y206270D01*
X984239Y207168D01*
X985000Y209005D01*
Y210995D01*
X984239Y212832D01*
X982832Y214239D01*
X980995Y215000D01*
X979005D01*
X977168Y214239D01*
X975761Y212832D01*
X975000Y210995D01*
Y209005D01*
X975761Y207168D01*
X976659Y206270D01*
X976133Y205000D01*
X953867D01*
X953341Y206270D01*
X954239Y207168D01*
X955000Y209005D01*
Y210995D01*
X954239Y212832D01*
X952832Y214239D01*
X950995Y215000D01*
X949005D01*
X947168Y214239D01*
X945761Y212832D01*
X945000Y210995D01*
Y209005D01*
X945761Y207168D01*
X946659Y206270D01*
X946133Y205000D01*
X923867D01*
X923341Y206270D01*
X924239Y207168D01*
X925000Y209005D01*
Y210995D01*
X924239Y212832D01*
X922832Y214239D01*
X920995Y215000D01*
X919005D01*
X917168Y214239D01*
X915761Y212832D01*
X915000Y210995D01*
Y209005D01*
X915761Y207168D01*
X916659Y206270D01*
X916133Y205000D01*
X893867D01*
X893341Y206270D01*
X894239Y207168D01*
X895000Y209005D01*
Y210995D01*
X894239Y212832D01*
X892832Y214239D01*
X890995Y215000D01*
X889005D01*
X887168Y214239D01*
X885761Y212832D01*
X885000Y210995D01*
Y209005D01*
X885761Y207168D01*
X886659Y206270D01*
X886133Y205000D01*
X616367D01*
X615841Y206270D01*
X616739Y207168D01*
X617500Y209005D01*
Y210995D01*
X616739Y212832D01*
X615332Y214239D01*
X613495Y215000D01*
X611505D01*
X609668Y214239D01*
X608261Y212832D01*
X607500Y210995D01*
Y209005D01*
X608261Y207168D01*
X609159Y206270D01*
X608633Y205000D01*
X553867D01*
X553341Y206270D01*
X554239Y207168D01*
X555000Y209005D01*
Y210995D01*
X554239Y212832D01*
X552832Y214239D01*
X550995Y215000D01*
X549005D01*
X547168Y214239D01*
X545761Y212832D01*
X545000Y210995D01*
Y209005D01*
X545761Y207168D01*
X546659Y206270D01*
X546133Y205000D01*
X473867D01*
X473341Y206270D01*
X474239Y207168D01*
X475000Y209005D01*
Y210995D01*
X474239Y212832D01*
X472832Y214239D01*
X470995Y215000D01*
X469005D01*
X467168Y214239D01*
X465761Y212832D01*
X465000Y210995D01*
Y209005D01*
X465761Y207168D01*
X466659Y206270D01*
X466133Y205000D01*
X303019D01*
X302314Y206056D01*
X302500Y206505D01*
Y208495D01*
X301739Y210332D01*
X300332Y211739D01*
X298495Y212500D01*
X296505D01*
X294668Y211739D01*
X293261Y210332D01*
X292500Y208495D01*
Y206505D01*
X292686Y206056D01*
X291981Y205000D01*
X253019D01*
X252314Y206056D01*
X252500Y206505D01*
Y208495D01*
X251739Y210332D01*
X250332Y211739D01*
X248494Y212500D01*
X246505D01*
X244668Y211739D01*
X243261Y210332D01*
X242500Y208495D01*
Y206505D01*
X242686Y206056D01*
X241981Y205000D01*
X213019D01*
X212314Y206056D01*
X212500Y206505D01*
Y208495D01*
X211739Y210332D01*
X210332Y211739D01*
X208495Y212500D01*
X206505D01*
X206056Y212314D01*
X205000Y213019D01*
Y239481D01*
X206056Y240186D01*
X206505Y240000D01*
X208495D01*
X210332Y240761D01*
X211739Y242168D01*
X211813Y242346D01*
X213187D01*
X213261Y242168D01*
X214668Y240761D01*
X216505Y240000D01*
X218495D01*
X220332Y240761D01*
X221739Y242168D01*
X221813Y242346D01*
X223187D01*
X223261Y242168D01*
X224668Y240761D01*
X226505Y240000D01*
X228495D01*
X230332Y240761D01*
X231739Y242168D01*
X232500Y244005D01*
Y245995D01*
X232123Y246905D01*
X233095Y247877D01*
X234006Y247500D01*
X235995D01*
X237832Y248261D01*
X239239Y249668D01*
X240000Y251505D01*
Y253495D01*
X239239Y255332D01*
X237832Y256739D01*
X237654Y256813D01*
Y258187D01*
X237832Y258261D01*
X239239Y259668D01*
X240000Y261505D01*
Y263495D01*
X239239Y265332D01*
X237832Y266739D01*
X235995Y267500D01*
X234006D01*
X232168Y266739D01*
X230761Y265332D01*
X230000Y263495D01*
Y261505D01*
X230761Y259668D01*
X232168Y258261D01*
X232346Y258187D01*
Y256813D01*
X232168Y256739D01*
X230761Y255332D01*
X230000Y253495D01*
Y251505D01*
X230377Y250595D01*
X229405Y249623D01*
X228495Y250000D01*
X226505D01*
X224668Y249239D01*
X223261Y247832D01*
X223187Y247654D01*
X221813D01*
X221739Y247832D01*
X220332Y249239D01*
X218495Y250000D01*
X216505D01*
X214668Y249239D01*
X213261Y247832D01*
X213187Y247654D01*
X211813D01*
X211739Y247832D01*
X210332Y249239D01*
X208495Y250000D01*
X206505D01*
X206056Y249814D01*
X205000Y250519D01*
Y686133D01*
X206270Y686659D01*
X207168Y685761D01*
X209005Y685000D01*
X210995D01*
X212832Y685761D01*
X214239Y687168D01*
X215000Y689005D01*
Y690995D01*
X214239Y692832D01*
X212832Y694239D01*
X210995Y695000D01*
X209005D01*
X207168Y694239D01*
X206270Y693341D01*
X205000Y693867D01*
Y726133D01*
X206270Y726659D01*
X207168Y725761D01*
X209005Y725000D01*
X210995D01*
X212832Y725761D01*
X214239Y727168D01*
X215000Y729005D01*
Y730995D01*
X214239Y732832D01*
X213341Y733730D01*
X213867Y735000D01*
X256133D01*
X256659Y733730D01*
X255761Y732832D01*
X255000Y730995D01*
Y729005D01*
X255761Y727168D01*
X257168Y725761D01*
X259005Y725000D01*
X260995D01*
X262832Y725761D01*
X264239Y727168D01*
X265000Y729005D01*
Y730995D01*
X264239Y732832D01*
X263341Y733730D01*
X263867Y735000D01*
X306133D01*
X306659Y733730D01*
X305761Y732832D01*
X305000Y730995D01*
Y729005D01*
X305761Y727168D01*
X307168Y725761D01*
X309005Y725000D01*
X310995D01*
X312832Y725761D01*
X314239Y727168D01*
X315000Y729005D01*
Y730995D01*
X314239Y732832D01*
X313341Y733730D01*
X313867Y735000D01*
X356133D01*
X356659Y733730D01*
X355761Y732832D01*
X355000Y730995D01*
Y729005D01*
X355761Y727168D01*
X357168Y725761D01*
X359005Y725000D01*
X360995D01*
X362832Y725761D01*
X364239Y727168D01*
X365000Y729005D01*
Y730995D01*
X364239Y732832D01*
X363341Y733730D01*
X363867Y735000D01*
X406133D01*
X406659Y733730D01*
X405761Y732832D01*
X405000Y730995D01*
Y729005D01*
X405761Y727168D01*
X407168Y725761D01*
X409005Y725000D01*
X410995D01*
X412832Y725761D01*
X414239Y727168D01*
X415000Y729005D01*
Y730995D01*
X414239Y732832D01*
X413341Y733730D01*
X413867Y735000D01*
X456133D01*
X456659Y733730D01*
X455761Y732832D01*
X455000Y730995D01*
Y729005D01*
X455761Y727168D01*
X457168Y725761D01*
X459005Y725000D01*
X460995D01*
X462832Y725761D01*
X464239Y727168D01*
X465000Y729005D01*
Y730995D01*
X464239Y732832D01*
X463341Y733730D01*
X463867Y735000D01*
X506133D01*
X506659Y733730D01*
X505761Y732832D01*
X505000Y730995D01*
Y729005D01*
X505761Y727168D01*
X507168Y725761D01*
X509005Y725000D01*
X510995D01*
X512832Y725761D01*
X514239Y727168D01*
X515000Y729005D01*
Y730995D01*
X514239Y732832D01*
X513341Y733730D01*
X513867Y735000D01*
X566133D01*
X566659Y733730D01*
X565761Y732832D01*
X565000Y730995D01*
Y729005D01*
X565761Y727168D01*
X567168Y725761D01*
X569005Y725000D01*
X570329D01*
X570994Y725000D01*
X571333Y723853D01*
X570785Y723536D01*
X569167Y722602D01*
X567398Y720833D01*
X566147Y718667D01*
X565657Y716838D01*
X564343D01*
X563853Y718667D01*
X562602Y720833D01*
X560833Y722602D01*
X558667Y723853D01*
X556251Y724500D01*
X556000D01*
Y715000D01*
X554000D01*
Y724500D01*
X553749D01*
X551333Y723853D01*
X549167Y722602D01*
X547398Y720833D01*
X546147Y718667D01*
X545657Y716838D01*
X544343D01*
X543853Y718667D01*
X542602Y720833D01*
X540833Y722602D01*
X538667Y723853D01*
X536251Y724500D01*
X533749D01*
X531333Y723853D01*
X529167Y722602D01*
X527398Y720833D01*
X526147Y718667D01*
X525500Y716251D01*
Y713749D01*
X526147Y711333D01*
X527398Y709167D01*
X529167Y707398D01*
X531333Y706148D01*
X532742Y705770D01*
X532575Y704500D01*
X525500D01*
Y685500D01*
X544500D01*
Y692575D01*
X545770Y692742D01*
X546147Y691333D01*
X547398Y689167D01*
X549167Y687398D01*
X551333Y686147D01*
X553749Y685500D01*
X556251D01*
X558667Y686147D01*
X560833Y687398D01*
X562602Y689167D01*
X563853Y691333D01*
X564343Y693162D01*
X565657D01*
X566147Y691333D01*
X567398Y689167D01*
X569167Y687398D01*
X571333Y686147D01*
X573749Y685500D01*
X576251D01*
X578667Y686147D01*
X580833Y687398D01*
X582602Y689167D01*
X583853Y691333D01*
X584343Y693162D01*
X585657D01*
X586147Y691333D01*
X587398Y689167D01*
X589167Y687398D01*
X591333Y686147D01*
X593749Y685500D01*
X596251D01*
X598667Y686147D01*
X600833Y687398D01*
X602602Y689167D01*
X603853Y691333D01*
X604343Y693162D01*
X605657D01*
X606147Y691333D01*
X607398Y689167D01*
X609167Y687398D01*
X611333Y686147D01*
X613749Y685500D01*
X616251D01*
X618667Y686147D01*
X620833Y687398D01*
X622602Y689167D01*
X623853Y691333D01*
X624500Y693749D01*
Y696251D01*
X623853Y698667D01*
X622602Y700833D01*
X620833Y702602D01*
X618667Y703853D01*
X616838Y704343D01*
Y705657D01*
X618667Y706148D01*
X620833Y707398D01*
X622602Y709167D01*
X623853Y711333D01*
X624500Y713749D01*
Y716251D01*
X623853Y718667D01*
X622602Y720833D01*
X620833Y722602D01*
X618667Y723853D01*
X616251Y724500D01*
X613749D01*
X611333Y723853D01*
X609167Y722602D01*
X607398Y720833D01*
X606147Y718667D01*
X605657Y716838D01*
X604343D01*
X603853Y718667D01*
X602602Y720833D01*
X600833Y722602D01*
X598667Y723853D01*
X596251Y724500D01*
X593749D01*
X591333Y723853D01*
X589167Y722602D01*
X587398Y720833D01*
X586147Y718667D01*
X585657Y716838D01*
X584343D01*
X583853Y718667D01*
X582602Y720833D01*
X580833Y722602D01*
X578667Y723853D01*
X576251Y724500D01*
X573749D01*
X572548Y724178D01*
X571928Y724012D01*
X571519Y725217D01*
X572832Y725761D01*
X574239Y727168D01*
X575000Y729005D01*
Y730995D01*
X574239Y732832D01*
X573341Y733730D01*
X573867Y735000D01*
X626133D01*
X626659Y733730D01*
X625761Y732832D01*
X625000Y730995D01*
Y729005D01*
X625761Y727168D01*
X627168Y725761D01*
X629005Y725000D01*
X630995D01*
X632832Y725761D01*
X634239Y727168D01*
X635000Y729005D01*
Y730995D01*
X634239Y732832D01*
X633341Y733730D01*
X633867Y735000D01*
X706133D01*
X706659Y733730D01*
X705761Y732832D01*
X705000Y730995D01*
Y729005D01*
X705761Y727168D01*
X707168Y725761D01*
X709005Y725000D01*
X710995D01*
X712832Y725761D01*
X714239Y727168D01*
X715000Y729005D01*
Y730995D01*
X714239Y732832D01*
X713341Y733730D01*
X713867Y735000D01*
X806133D01*
X806659Y733730D01*
X805761Y732832D01*
X805000Y730995D01*
Y729005D01*
X805761Y727168D01*
X807168Y725761D01*
X809005Y725000D01*
X810995D01*
X812832Y725761D01*
X814239Y727168D01*
X815000Y729005D01*
Y730995D01*
X814239Y732832D01*
X813341Y733730D01*
X813867Y735000D01*
X866133D01*
X866659Y733730D01*
D02*
G37*
G36*
X1050000Y622681D02*
X1049770Y622603D01*
X1048500Y623513D01*
Y625051D01*
X1047853Y627467D01*
X1046602Y629633D01*
X1044833Y631402D01*
X1042667Y632653D01*
X1040251Y633300D01*
X1037749D01*
X1035333Y632653D01*
X1033167Y631402D01*
X1031398Y629633D01*
X1030147Y627467D01*
X1029500Y625051D01*
Y622549D01*
X1028887Y621750D01*
X1018736D01*
X1018250Y622924D01*
X1027163Y631837D01*
X1027163Y631837D01*
X1027826Y632829D01*
X1028059Y634000D01*
Y680733D01*
X1037738Y690413D01*
X1037797Y690500D01*
X1040251D01*
X1042667Y691147D01*
X1044833Y692398D01*
X1046602Y694167D01*
X1047853Y696333D01*
X1048500Y698749D01*
Y701251D01*
X1047853Y703667D01*
X1046602Y705833D01*
X1044833Y707602D01*
X1042667Y708853D01*
X1040251Y709500D01*
X1037749D01*
X1035333Y708853D01*
X1033167Y707602D01*
X1031398Y705833D01*
X1030147Y703667D01*
X1029500Y701251D01*
Y699638D01*
X1029442Y699532D01*
X1028255Y698689D01*
X1027734Y698793D01*
X1026564Y698560D01*
X1025571Y697897D01*
X1024908Y696905D01*
X1024676Y695734D01*
Y694001D01*
X1014837Y684163D01*
X1014174Y683170D01*
X1013941Y682000D01*
X1013941Y682000D01*
Y667568D01*
X1012671Y666720D01*
X1011995Y667000D01*
X1010005D01*
X1008168Y666239D01*
X1006761Y664832D01*
X1006000Y662995D01*
Y661005D01*
X1006761Y659168D01*
X1008168Y657761D01*
X1009208Y657330D01*
X1009506Y655832D01*
X984837Y631163D01*
X984174Y630171D01*
X983941Y629000D01*
X983941Y629000D01*
Y608000D01*
X983169Y607059D01*
X965831D01*
X965059Y608000D01*
X964826Y609171D01*
X964163Y610163D01*
X928163Y646163D01*
X927170Y646826D01*
X926000Y647059D01*
X926000Y647059D01*
X886267D01*
X880185Y653140D01*
Y735000D01*
X916133D01*
X916659Y733730D01*
X915761Y732832D01*
X915000Y730995D01*
Y729005D01*
X915761Y727168D01*
X917168Y725761D01*
X918472Y725221D01*
X918756Y723827D01*
X917761Y722832D01*
X917000Y720995D01*
Y719005D01*
X917761Y717168D01*
X919168Y715761D01*
X921005Y715000D01*
X922995D01*
X924832Y715761D01*
X926239Y717168D01*
X927000Y719005D01*
Y720995D01*
X926239Y722832D01*
X924832Y724239D01*
X923528Y724779D01*
X923244Y726173D01*
X924239Y727168D01*
X925000Y729005D01*
Y730995D01*
X924239Y732832D01*
X923341Y733730D01*
X923867Y735000D01*
X1034088D01*
X1034428Y733730D01*
X1033167Y733002D01*
X1031398Y731233D01*
X1030147Y729067D01*
X1029500Y726651D01*
Y724149D01*
X1030147Y721733D01*
X1031398Y719567D01*
X1033167Y717798D01*
X1035333Y716547D01*
X1037749Y715900D01*
X1040251D01*
X1042667Y716547D01*
X1044833Y717798D01*
X1046602Y719567D01*
X1047853Y721733D01*
X1048500Y724149D01*
Y726651D01*
X1047853Y729067D01*
X1046602Y731233D01*
X1044833Y733002D01*
X1043572Y733730D01*
X1043912Y735000D01*
X1050000D01*
Y622681D01*
D02*
G37*
G36*
X874068Y655337D02*
Y651873D01*
X874068Y651873D01*
X874301Y650703D01*
X874964Y649710D01*
X882837Y641837D01*
X882837Y641837D01*
X883829Y641174D01*
X885000Y640941D01*
X922959D01*
X923212Y639671D01*
X922168Y639239D01*
X920761Y637832D01*
X920000Y635995D01*
Y634005D01*
X920761Y632168D01*
X922168Y630761D01*
X924005Y630000D01*
X925995D01*
X927832Y630761D01*
X929239Y632168D01*
X930000Y634005D01*
Y634015D01*
X931173Y634501D01*
X938345Y627329D01*
X937819Y626059D01*
X894267D01*
X890508Y629818D01*
X890756Y631063D01*
X891049Y631185D01*
X892315Y632451D01*
X893000Y634105D01*
Y635895D01*
X892315Y637549D01*
X891049Y638815D01*
X889395Y639500D01*
X887605D01*
X885951Y638815D01*
X884685Y637549D01*
X884564Y637256D01*
X883318Y637008D01*
X867500Y652826D01*
Y653895D01*
X867323Y654322D01*
X868295Y655294D01*
X869006Y655000D01*
X870995D01*
X872832Y655761D01*
X872895Y655823D01*
X874068Y655337D01*
D02*
G37*
G36*
X865507Y652766D02*
X865532Y652561D01*
X865575Y652358D01*
X865637Y652159D01*
X865717Y651963D01*
X865815Y651769D01*
X865931Y651579D01*
X866065Y651392D01*
X866217Y651208D01*
X866388Y651026D01*
X864974Y649612D01*
X864792Y649783D01*
X864608Y649935D01*
X864421Y650069D01*
X864231Y650185D01*
X864037Y650283D01*
X863841Y650363D01*
X863641Y650425D01*
X863439Y650468D01*
X863233Y650493D01*
X863025Y650500D01*
X865500Y652975D01*
X865507Y652766D01*
D02*
G37*
G36*
X1021941Y680152D02*
Y635267D01*
X1004168Y617494D01*
X1002670Y617792D01*
X1002239Y618832D01*
X1000832Y620239D01*
X998995Y621000D01*
X997005D01*
X995168Y620239D01*
X993761Y618832D01*
X993000Y616995D01*
Y615005D01*
X993761Y613168D01*
X995168Y611761D01*
X996208Y611330D01*
X996506Y609832D01*
X993733Y607059D01*
X990831D01*
X990059Y608000D01*
Y627733D01*
X995327Y633001D01*
X996713Y632591D01*
X997185Y631451D01*
X998451Y630185D01*
X1000105Y629500D01*
X1001895D01*
X1003549Y630185D01*
X1004815Y631451D01*
X1005500Y633105D01*
Y634895D01*
X1004815Y636549D01*
X1003549Y637815D01*
X1002409Y638287D01*
X1001999Y639673D01*
X1008327Y646001D01*
X1009713Y645591D01*
X1010185Y644451D01*
X1011451Y643185D01*
X1013105Y642500D01*
X1014895D01*
X1016549Y643185D01*
X1017815Y644451D01*
X1018500Y646105D01*
Y647895D01*
X1017815Y649549D01*
X1016549Y650815D01*
X1015409Y651287D01*
X1014999Y652673D01*
X1019163Y656837D01*
X1019163Y656837D01*
X1019826Y657829D01*
X1020059Y659000D01*
Y680299D01*
X1020671Y680769D01*
X1021941Y680152D01*
D02*
G37*
G36*
X777787Y641338D02*
X778453Y640757D01*
X778585Y640664D01*
X778703Y640592D01*
X778807Y640540D01*
X778898Y640510D01*
X778975Y640500D01*
X776500Y638025D01*
X776490Y638102D01*
X776460Y638193D01*
X776408Y638297D01*
X776336Y638415D01*
X776243Y638547D01*
X775994Y638853D01*
X775662Y639213D01*
X775464Y639414D01*
X777586Y641535D01*
X777787Y641338D01*
D02*
G37*
G36*
X781510Y637898D02*
X781540Y637807D01*
X781592Y637703D01*
X781664Y637585D01*
X781757Y637453D01*
X782006Y637147D01*
X782338Y636787D01*
X782535Y636586D01*
X780414Y634464D01*
X780213Y634662D01*
X779547Y635243D01*
X779415Y635336D01*
X779297Y635408D01*
X779193Y635460D01*
X779102Y635490D01*
X779025Y635500D01*
X781500Y637975D01*
X781510Y637898D01*
D02*
G37*
G36*
X1052451Y460194D02*
X1044041D01*
X1043533Y460702D01*
X1041367Y461953D01*
X1038951Y462600D01*
X1036449D01*
X1034033Y461953D01*
X1031867Y460702D01*
X1031359Y460194D01*
X1018641D01*
X1018133Y460702D01*
X1015967Y461953D01*
X1013551Y462600D01*
X1011049D01*
X1008633Y461953D01*
X1006467Y460702D01*
X1005959Y460194D01*
X897223D01*
X896414Y461464D01*
X896802Y462401D01*
Y464191D01*
X896117Y465845D01*
X894851Y467111D01*
X893197Y467796D01*
X891407D01*
X889753Y467111D01*
X888487Y465845D01*
X887802Y464191D01*
Y462401D01*
X888190Y461464D01*
X887381Y460194D01*
X871500D01*
Y461895D01*
X870815Y463549D01*
X870000Y464364D01*
Y533665D01*
X870049Y533685D01*
X871315Y534951D01*
X872000Y536605D01*
Y538000D01*
X873395D01*
X875049Y538685D01*
X876315Y539951D01*
X877000Y541605D01*
Y543395D01*
X876315Y545049D01*
X875049Y546315D01*
X873395Y547000D01*
X871605D01*
X871056Y546773D01*
X870000Y547478D01*
Y619592D01*
X870289Y619711D01*
X937963D01*
X939501Y618173D01*
X939015Y617000D01*
X939005D01*
X937168Y616239D01*
X935761Y614832D01*
X935000Y612995D01*
Y611005D01*
X935761Y609168D01*
X937168Y607761D01*
X939005Y607000D01*
X940995D01*
X942832Y607761D01*
X944239Y609168D01*
X945000Y611005D01*
Y611015D01*
X946173Y611501D01*
X955837Y601837D01*
X955837Y601837D01*
X956830Y601174D01*
X958000Y600941D01*
X958000Y600941D01*
X995000D01*
X995000Y600941D01*
X996171Y601174D01*
X997163Y601837D01*
X1015037Y619711D01*
X1030391D01*
X1031398Y617967D01*
X1033167Y616198D01*
X1035333Y614947D01*
X1037749Y614300D01*
X1040251D01*
X1042667Y614947D01*
X1044833Y616198D01*
X1046602Y617967D01*
X1047609Y619711D01*
X1052451D01*
Y460194D01*
D02*
G37*
G36*
X603535Y613914D02*
X603338Y613713D01*
X602757Y613047D01*
X602664Y612915D01*
X602592Y612797D01*
X602540Y612693D01*
X602510Y612602D01*
X602500Y612525D01*
X600025Y615000D01*
X600102Y615010D01*
X600193Y615040D01*
X600297Y615092D01*
X600415Y615164D01*
X600547Y615257D01*
X600853Y615506D01*
X601213Y615838D01*
X601414Y616035D01*
X603535Y613914D01*
D02*
G37*
G36*
X841997Y493945D02*
X842057Y493064D01*
X842085Y492904D01*
X842117Y492770D01*
X842155Y492659D01*
X842197Y492574D01*
X842245Y492512D01*
X838745D01*
X838792Y492574D01*
X838835Y492659D01*
X838872Y492770D01*
X838905Y492904D01*
X838932Y493064D01*
X838972Y493455D01*
X838992Y493945D01*
X838995Y494227D01*
X841995D01*
X841997Y493945D01*
D02*
G37*
G36*
X842197Y488880D02*
X842155Y488795D01*
X842117Y488684D01*
X842085Y488550D01*
X842057Y488390D01*
X842017Y487999D01*
X841997Y487509D01*
X841995Y487227D01*
X838995D01*
X838992Y487509D01*
X838932Y488390D01*
X838905Y488550D01*
X838872Y488684D01*
X838835Y488795D01*
X838792Y488880D01*
X838745Y488941D01*
X842245D01*
X842197Y488880D01*
D02*
G37*
G36*
X850412Y479389D02*
Y459899D01*
X850761Y458144D01*
X851756Y456655D01*
X860659Y447751D01*
X860412Y446506D01*
X859951Y446315D01*
X858685Y445049D01*
X858000Y443395D01*
Y441605D01*
X858685Y439951D01*
X859951Y438685D01*
X861605Y438000D01*
X863395D01*
X864142Y438309D01*
X865412Y437461D01*
Y428900D01*
X863281Y426769D01*
X862035Y427017D01*
X861815Y427549D01*
X860549Y428815D01*
X858895Y429500D01*
X857105D01*
X855451Y428815D01*
X854185Y427549D01*
X853500Y425895D01*
Y424105D01*
X854185Y422451D01*
X855451Y421185D01*
X855983Y420965D01*
X856230Y419719D01*
X850742Y414230D01*
X849569Y414717D01*
Y439993D01*
X850625Y440699D01*
X851105Y440500D01*
X852895D01*
X854549Y441185D01*
X855815Y442451D01*
X856500Y444105D01*
Y445895D01*
X855815Y447549D01*
X854549Y448815D01*
X852895Y449500D01*
X851105D01*
X850625Y449301D01*
X849569Y450007D01*
Y453000D01*
X849297Y454366D01*
X848523Y455523D01*
X844063Y459983D01*
Y478971D01*
X845333Y479819D01*
X846105Y479500D01*
X847895D01*
X849142Y480016D01*
X850412Y479389D01*
D02*
G37*
G36*
X854185Y510451D02*
X855451Y509185D01*
X857105Y508500D01*
X858895D01*
X859979Y508949D01*
X860185Y508451D01*
X861451Y507185D01*
X863105Y506500D01*
X864895D01*
X866549Y507185D01*
X866691Y507327D01*
X867961Y506801D01*
Y465544D01*
X867895Y465500D01*
X866105D01*
X864451Y464815D01*
X863185Y463549D01*
X862500Y461895D01*
Y460684D01*
X861230Y460158D01*
X859588Y461800D01*
Y486000D01*
X859239Y487756D01*
X858244Y489244D01*
X852588Y494901D01*
Y510988D01*
X853858Y511240D01*
X854185Y510451D01*
D02*
G37*
G36*
X833787Y353338D02*
X834453Y352757D01*
X834585Y352664D01*
X834703Y352592D01*
X834807Y352540D01*
X834898Y352510D01*
X834975Y352500D01*
X832500Y350025D01*
X832490Y350102D01*
X832460Y350193D01*
X832408Y350297D01*
X832336Y350415D01*
X832243Y350547D01*
X831994Y350853D01*
X831662Y351213D01*
X831464Y351414D01*
X833586Y353535D01*
X833787Y353338D01*
D02*
G37*
%LPC*%
G36*
X741251Y724500D02*
X738749D01*
X736333Y723853D01*
X734167Y722602D01*
X732398Y720833D01*
X731147Y718667D01*
X730657Y716838D01*
X729343D01*
X728853Y718667D01*
X727602Y720833D01*
X725833Y722602D01*
X723667Y723853D01*
X721251Y724500D01*
X718749D01*
X716333Y723853D01*
X714167Y722602D01*
X712398Y720833D01*
X711147Y718667D01*
X710657Y716838D01*
X709343D01*
X708853Y718667D01*
X707602Y720833D01*
X705833Y722602D01*
X703667Y723853D01*
X701251Y724500D01*
X698749D01*
X696333Y723853D01*
X694167Y722602D01*
X692398Y720833D01*
X691147Y718667D01*
X690657Y716838D01*
X689343D01*
X688853Y718667D01*
X687602Y720833D01*
X685833Y722602D01*
X683667Y723853D01*
X681251Y724500D01*
X681000D01*
Y715000D01*
X679000D01*
Y724500D01*
X678749D01*
X676333Y723853D01*
X674167Y722602D01*
X672398Y720833D01*
X671148Y718667D01*
X670657Y716838D01*
X669343D01*
X668853Y718667D01*
X667602Y720833D01*
X665833Y722602D01*
X663667Y723853D01*
X661251Y724500D01*
X658749D01*
X656333Y723853D01*
X654167Y722602D01*
X652398Y720833D01*
X651147Y718667D01*
X650500Y716251D01*
Y713749D01*
X651147Y711333D01*
X652398Y709167D01*
X654167Y707398D01*
X656333Y706148D01*
X657742Y705770D01*
X657575Y704500D01*
X650500D01*
Y685500D01*
X669500D01*
Y692575D01*
X670770Y692742D01*
X671148Y691333D01*
X672398Y689167D01*
X674167Y687398D01*
X676333Y686147D01*
X678749Y685500D01*
X681251D01*
X683667Y686147D01*
X685833Y687398D01*
X687602Y689167D01*
X688853Y691333D01*
X689343Y693162D01*
X690657D01*
X691147Y691333D01*
X692398Y689167D01*
X694167Y687398D01*
X696333Y686147D01*
X698749Y685500D01*
X701251D01*
X703667Y686147D01*
X705833Y687398D01*
X707602Y689167D01*
X708853Y691333D01*
X709343Y693162D01*
X710657D01*
X711147Y691333D01*
X712398Y689167D01*
X714167Y687398D01*
X716333Y686147D01*
X718749Y685500D01*
X721251D01*
X723667Y686147D01*
X725833Y687398D01*
X727602Y689167D01*
X728853Y691333D01*
X729343Y693162D01*
X730657D01*
X731147Y691333D01*
X732398Y689167D01*
X734167Y687398D01*
X736333Y686147D01*
X738749Y685500D01*
X741251D01*
X743667Y686147D01*
X745833Y687398D01*
X747602Y689167D01*
X748853Y691333D01*
X749230Y692742D01*
X750500Y692575D01*
Y691605D01*
X751185Y689951D01*
X752451Y688685D01*
X754105Y688000D01*
X755895D01*
X757549Y688685D01*
X758815Y689951D01*
X759500Y691605D01*
Y693395D01*
X758815Y695049D01*
X757549Y696315D01*
X755895Y697000D01*
X754105D01*
X752451Y696315D01*
X751185Y695049D01*
X750770Y694047D01*
X749500Y694299D01*
Y696251D01*
X748853Y698667D01*
X747602Y700833D01*
X745833Y702602D01*
X743667Y703853D01*
X741838Y704343D01*
Y705657D01*
X743667Y706148D01*
X745833Y707398D01*
X747602Y709167D01*
X748853Y711333D01*
X749500Y713749D01*
Y716251D01*
X748853Y718667D01*
X747602Y720833D01*
X745833Y722602D01*
X743667Y723853D01*
X741251Y724500D01*
D02*
G37*
G36*
X460995Y705000D02*
X459005D01*
X457168Y704239D01*
X455761Y702832D01*
X455000Y700995D01*
Y699005D01*
X455761Y697168D01*
X457168Y695761D01*
X459005Y695000D01*
X460995D01*
X462832Y695761D01*
X464239Y697168D01*
X465000Y699005D01*
Y700995D01*
X464239Y702832D01*
X462832Y704239D01*
X460995Y705000D01*
D02*
G37*
G36*
X240995D02*
X239005D01*
X237168Y704239D01*
X235761Y702832D01*
X235000Y700995D01*
Y699005D01*
X235761Y697168D01*
X237168Y695761D01*
X239005Y695000D01*
X240995D01*
X242832Y695761D01*
X244239Y697168D01*
X245000Y699005D01*
Y700995D01*
X244239Y702832D01*
X242832Y704239D01*
X240995Y705000D01*
D02*
G37*
G36*
X220995D02*
X219005D01*
X217168Y704239D01*
X215761Y702832D01*
X215000Y700995D01*
Y699005D01*
X215761Y697168D01*
X217168Y695761D01*
X219005Y695000D01*
X220995D01*
X222832Y695761D01*
X224239Y697168D01*
X225000Y699005D01*
Y700995D01*
X224239Y702832D01*
X222832Y704239D01*
X220995Y705000D01*
D02*
G37*
G36*
X830895Y702000D02*
X829105D01*
X827451Y701315D01*
X826185Y700049D01*
X825500Y698395D01*
Y696605D01*
X826185Y694951D01*
X827451Y693685D01*
X829105Y693000D01*
X830895D01*
X832549Y693685D01*
X833815Y694951D01*
X834500Y696605D01*
Y698395D01*
X833815Y700049D01*
X832549Y701315D01*
X830895Y702000D01*
D02*
G37*
G36*
X299595Y701200D02*
X297805D01*
X296151Y700515D01*
X294885Y699249D01*
X294200Y697595D01*
Y695805D01*
X294885Y694151D01*
X296151Y692885D01*
X297805Y692200D01*
X299595D01*
X301249Y692885D01*
X302515Y694151D01*
X303200Y695805D01*
Y697595D01*
X302515Y699249D01*
X301249Y700515D01*
X299595Y701200D01*
D02*
G37*
G36*
X813395Y692000D02*
X811605D01*
X809951Y691315D01*
X808685Y690049D01*
X808000Y688395D01*
Y686605D01*
X808685Y684951D01*
X809951Y683685D01*
X811605Y683000D01*
X813395D01*
X815049Y683685D01*
X816315Y684951D01*
X817000Y686605D01*
Y688395D01*
X816315Y690049D01*
X815049Y691315D01*
X813395Y692000D01*
D02*
G37*
G36*
X299595Y685200D02*
X297805D01*
X296151Y684515D01*
X294885Y683249D01*
X294200Y681595D01*
Y679805D01*
X294885Y678151D01*
X296151Y676885D01*
X297805Y676200D01*
X299595D01*
X301249Y676885D01*
X302515Y678151D01*
X303200Y679805D01*
Y681595D01*
X302515Y683249D01*
X301249Y684515D01*
X299595Y685200D01*
D02*
G37*
G36*
X510995Y685000D02*
X509005D01*
X507168Y684239D01*
X505761Y682832D01*
X505000Y680995D01*
Y679005D01*
X505761Y677168D01*
X507168Y675761D01*
X509005Y675000D01*
X510995D01*
X512832Y675761D01*
X514239Y677168D01*
X515000Y679005D01*
Y680995D01*
X514239Y682832D01*
X512832Y684239D01*
X510995Y685000D01*
D02*
G37*
G36*
X730895Y682000D02*
X729105D01*
X727451Y681315D01*
X726185Y680049D01*
X725500Y678395D01*
Y676605D01*
X726185Y674951D01*
X727451Y673685D01*
X729105Y673000D01*
X730895D01*
X732549Y673685D01*
X733815Y674951D01*
X734500Y676605D01*
Y678395D01*
X733815Y680049D01*
X732549Y681315D01*
X730895Y682000D01*
D02*
G37*
G36*
X233995Y690000D02*
X232005D01*
X230168Y689239D01*
X228761Y687832D01*
X228000Y685995D01*
Y684005D01*
X228761Y682168D01*
X229599Y681330D01*
X230032Y680500D01*
X229599Y679670D01*
X228761Y678832D01*
X228000Y676995D01*
Y675005D01*
X228761Y673168D01*
X230168Y671761D01*
X232005Y671000D01*
X233995D01*
X235832Y671761D01*
X237239Y673168D01*
X238000Y675005D01*
Y676995D01*
X237239Y678832D01*
X236401Y679670D01*
X235968Y680500D01*
X236401Y681330D01*
X237239Y682168D01*
X238000Y684005D01*
Y685995D01*
X237239Y687832D01*
X235832Y689239D01*
X233995Y690000D01*
D02*
G37*
G36*
X755453Y677058D02*
X753663D01*
X752009Y676373D01*
X750743Y675107D01*
X750058Y673454D01*
Y671663D01*
X750743Y670009D01*
X752009Y668744D01*
X753663Y668058D01*
X755453D01*
X757107Y668744D01*
X758373Y670009D01*
X759058Y671663D01*
Y673454D01*
X758373Y675107D01*
X757107Y676373D01*
X755453Y677058D01*
D02*
G37*
G36*
X460995Y675000D02*
X459005D01*
X457168Y674239D01*
X455761Y672832D01*
X455000Y670995D01*
Y669005D01*
X455761Y667168D01*
X457168Y665761D01*
X459005Y665000D01*
X460995D01*
X462832Y665761D01*
X464239Y667168D01*
X465000Y669005D01*
Y670995D01*
X464239Y672832D01*
X462832Y674239D01*
X460995Y675000D01*
D02*
G37*
G36*
X430995D02*
X429005D01*
X427168Y674239D01*
X425761Y672832D01*
X425000Y670995D01*
Y669005D01*
X425761Y667168D01*
X427168Y665761D01*
X429005Y665000D01*
X430995D01*
X432832Y665761D01*
X434239Y667168D01*
X435000Y669005D01*
Y670995D01*
X434239Y672832D01*
X432832Y674239D01*
X430995Y675000D01*
D02*
G37*
G36*
X580895Y673500D02*
X579105D01*
X577451Y672815D01*
X576185Y671549D01*
X575500Y669895D01*
Y668105D01*
X576185Y666451D01*
X577451Y665185D01*
X579105Y664500D01*
X580895D01*
X582549Y665185D01*
X583815Y666451D01*
X584500Y668105D01*
Y669895D01*
X583815Y671549D01*
X582549Y672815D01*
X580895Y673500D01*
D02*
G37*
G36*
X856895Y672500D02*
X855105D01*
X853451Y671815D01*
X852185Y670549D01*
X851500Y668895D01*
Y667105D01*
X852185Y665451D01*
X853451Y664185D01*
X855105Y663500D01*
X856895D01*
X858549Y664185D01*
X859815Y665451D01*
X860500Y667105D01*
Y668895D01*
X859815Y670549D01*
X858549Y671815D01*
X856895Y672500D01*
D02*
G37*
G36*
X605895D02*
X604105D01*
X602451Y671815D01*
X601185Y670549D01*
X600500Y668895D01*
Y667105D01*
X601185Y665451D01*
X602451Y664185D01*
X604105Y663500D01*
X605895D01*
X607549Y664185D01*
X608815Y665451D01*
X609500Y667105D01*
Y668895D01*
X608815Y670549D01*
X607549Y671815D01*
X605895Y672500D01*
D02*
G37*
G36*
X819995Y671000D02*
X818005D01*
X816168Y670239D01*
X814761Y668832D01*
X814000Y666995D01*
Y665005D01*
X814761Y663168D01*
X816168Y661761D01*
X818005Y661000D01*
X819995D01*
X821832Y661761D01*
X823239Y663168D01*
X824000Y665005D01*
Y666995D01*
X823239Y668832D01*
X821832Y670239D01*
X819995Y671000D01*
D02*
G37*
G36*
X663395Y669500D02*
X661605D01*
X659951Y668815D01*
X658685Y667549D01*
X658000Y665895D01*
Y664105D01*
X658685Y662451D01*
X659951Y661185D01*
X661605Y660500D01*
X663395D01*
X665049Y661185D01*
X666315Y662451D01*
X667000Y664105D01*
Y665895D01*
X666315Y667549D01*
X665049Y668815D01*
X663395Y669500D01*
D02*
G37*
G36*
X300895Y664500D02*
X299105D01*
X297451Y663815D01*
X296185Y662549D01*
X295500Y660895D01*
Y659105D01*
X296185Y657451D01*
X297451Y656185D01*
X299105Y655500D01*
X300895D01*
X302549Y656185D01*
X303815Y657451D01*
X304500Y659105D01*
Y660895D01*
X303815Y662549D01*
X302549Y663815D01*
X300895Y664500D01*
D02*
G37*
G36*
X550995Y665000D02*
X549005D01*
X547168Y664239D01*
X545761Y662832D01*
X545000Y660995D01*
Y659005D01*
X545761Y657168D01*
X547168Y655761D01*
X547346Y655687D01*
Y654313D01*
X547168Y654239D01*
X545761Y652832D01*
X545000Y650995D01*
Y649005D01*
X545761Y647168D01*
X547168Y645761D01*
X549005Y645000D01*
X550995D01*
X552832Y645761D01*
X554239Y647168D01*
X555000Y649005D01*
Y650995D01*
X554239Y652832D01*
X552832Y654239D01*
X552654Y654313D01*
Y655687D01*
X552832Y655761D01*
X554239Y657168D01*
X555000Y659005D01*
Y660995D01*
X554239Y662832D01*
X552832Y664239D01*
X550995Y665000D01*
D02*
G37*
G36*
X300595Y646200D02*
X298805D01*
X297151Y645515D01*
X295885Y644249D01*
X295200Y642595D01*
Y640805D01*
X295885Y639151D01*
X297151Y637885D01*
X298805Y637200D01*
X300595D01*
X302249Y637885D01*
X303515Y639151D01*
X304200Y640805D01*
Y642595D01*
X303515Y644249D01*
X302249Y645515D01*
X300595Y646200D01*
D02*
G37*
G36*
X460995Y645000D02*
X459005D01*
X457168Y644239D01*
X455761Y642832D01*
X455000Y640995D01*
Y639005D01*
X455761Y637168D01*
X457168Y635761D01*
X459005Y635000D01*
X460995D01*
X462832Y635761D01*
X464239Y637168D01*
X465000Y639005D01*
Y640995D01*
X464239Y642832D01*
X462832Y644239D01*
X460995Y645000D01*
D02*
G37*
G36*
X430995D02*
X429005D01*
X427168Y644239D01*
X425761Y642832D01*
X425000Y640995D01*
Y639005D01*
X425761Y637168D01*
X427168Y635761D01*
X429005Y635000D01*
X430995D01*
X432832Y635761D01*
X434239Y637168D01*
X435000Y639005D01*
Y640995D01*
X434239Y642832D01*
X432832Y644239D01*
X430995Y645000D01*
D02*
G37*
G36*
X398395Y639500D02*
X396605D01*
X394951Y638815D01*
X393685Y637549D01*
X393000Y635895D01*
Y634105D01*
X393685Y632451D01*
X394951Y631185D01*
X396605Y630500D01*
X398395D01*
X400049Y631185D01*
X401315Y632451D01*
X402000Y634105D01*
Y635895D01*
X401315Y637549D01*
X400049Y638815D01*
X398395Y639500D01*
D02*
G37*
G36*
X365995Y640000D02*
X364005D01*
X362168Y639239D01*
X360761Y637832D01*
X360000Y635995D01*
Y634005D01*
X360761Y632168D01*
X362168Y630761D01*
X364005Y630000D01*
X365995D01*
X367832Y630761D01*
X369239Y632168D01*
X370000Y634005D01*
Y635995D01*
X369239Y637832D01*
X367832Y639239D01*
X365995Y640000D01*
D02*
G37*
G36*
X315895Y632000D02*
X314105D01*
X312451Y631315D01*
X311185Y630049D01*
X310500Y628395D01*
Y626605D01*
X311185Y624951D01*
X312451Y623685D01*
X314105Y623000D01*
X315895D01*
X317549Y623685D01*
X318815Y624951D01*
X319500Y626605D01*
Y628395D01*
X318815Y630049D01*
X317549Y631315D01*
X315895Y632000D01*
D02*
G37*
G36*
X365995Y622500D02*
X364005D01*
X362168Y621739D01*
X360761Y620332D01*
X360000Y618495D01*
Y616505D01*
X360761Y614668D01*
X362168Y613261D01*
X364005Y612500D01*
X365995D01*
X367832Y613261D01*
X369239Y614668D01*
X370000Y616505D01*
Y618495D01*
X369239Y620332D01*
X367832Y621739D01*
X365995Y622500D01*
D02*
G37*
G36*
X340995D02*
X339005D01*
X337168Y621739D01*
X335761Y620332D01*
X335000Y618495D01*
Y616505D01*
X335761Y614668D01*
X337168Y613261D01*
X339005Y612500D01*
X340995D01*
X342832Y613261D01*
X344239Y614668D01*
X345000Y616505D01*
Y618495D01*
X344239Y620332D01*
X342832Y621739D01*
X340995Y622500D01*
D02*
G37*
G36*
X612895Y604500D02*
X611105D01*
X609451Y603815D01*
X608185Y602549D01*
X607500Y600895D01*
Y599105D01*
X608185Y597451D01*
X609451Y596185D01*
X611105Y595500D01*
X612895D01*
X614549Y596185D01*
X615815Y597451D01*
X616500Y599105D01*
Y600895D01*
X615815Y602549D01*
X614549Y603815D01*
X612895Y604500D01*
D02*
G37*
G36*
X671388Y599993D02*
X669597D01*
X667944Y599308D01*
X666678Y598042D01*
X665993Y596388D01*
Y594598D01*
X666678Y592944D01*
X667944Y591678D01*
X669597Y590993D01*
X671388D01*
X673042Y591678D01*
X674307Y592944D01*
X674993Y594598D01*
Y596388D01*
X674307Y598042D01*
X673042Y599308D01*
X671388Y599993D01*
D02*
G37*
G36*
X386995Y598000D02*
X385005D01*
X383168Y597239D01*
X381761Y595832D01*
X381000Y593995D01*
Y592005D01*
X381761Y590168D01*
X383168Y588761D01*
X385005Y588000D01*
X386995D01*
X388832Y588761D01*
X390239Y590168D01*
X391000Y592005D01*
Y593995D01*
X390239Y595832D01*
X388832Y597239D01*
X386995Y598000D01*
D02*
G37*
G36*
X699895Y595500D02*
X698105D01*
X696451Y594815D01*
X695185Y593549D01*
X694500Y591895D01*
Y590105D01*
X695185Y588451D01*
X696451Y587185D01*
X698105Y586500D01*
X699895D01*
X701549Y587185D01*
X702815Y588451D01*
X703500Y590105D01*
Y591895D01*
X702815Y593549D01*
X701549Y594815D01*
X699895Y595500D01*
D02*
G37*
G36*
X655895Y594500D02*
X654105D01*
X652451Y593815D01*
X651185Y592549D01*
X650500Y590895D01*
Y589105D01*
X651185Y587451D01*
X652451Y586185D01*
X654105Y585500D01*
X655895D01*
X657549Y586185D01*
X658815Y587451D01*
X659500Y589105D01*
Y590895D01*
X658815Y592549D01*
X657549Y593815D01*
X655895Y594500D01*
D02*
G37*
G36*
X530995Y595000D02*
X529005D01*
X527168Y594239D01*
X525761Y592832D01*
X525000Y590995D01*
Y589005D01*
X525761Y587168D01*
X527168Y585761D01*
X529005Y585000D01*
X530995D01*
X532832Y585761D01*
X534239Y587168D01*
X535000Y589005D01*
Y590995D01*
X534239Y592832D01*
X532832Y594239D01*
X530995Y595000D01*
D02*
G37*
G36*
X490995D02*
X489005D01*
X487168Y594239D01*
X485761Y592832D01*
X485000Y590995D01*
Y589005D01*
X485761Y587168D01*
X487168Y585761D01*
X489005Y585000D01*
X490995D01*
X492832Y585761D01*
X494239Y587168D01*
X495000Y589005D01*
Y590995D01*
X494239Y592832D01*
X492832Y594239D01*
X490995Y595000D01*
D02*
G37*
G36*
X440995D02*
X439005D01*
X437168Y594239D01*
X435761Y592832D01*
X435000Y590995D01*
Y589005D01*
X435761Y587168D01*
X437168Y585761D01*
X439005Y585000D01*
X440995D01*
X442832Y585761D01*
X444239Y587168D01*
X445000Y589005D01*
Y590995D01*
X444239Y592832D01*
X442832Y594239D01*
X440995Y595000D01*
D02*
G37*
G36*
X301895Y585500D02*
X300105D01*
X298451Y584815D01*
X297185Y583549D01*
X296500Y581895D01*
Y580105D01*
X297185Y578451D01*
X298451Y577185D01*
X300105Y576500D01*
X301895D01*
X303549Y577185D01*
X304815Y578451D01*
X305500Y580105D01*
Y581895D01*
X304815Y583549D01*
X303549Y584815D01*
X301895Y585500D01*
D02*
G37*
G36*
X643395Y632000D02*
X641605D01*
X639951Y631315D01*
X638685Y630049D01*
X638000Y628395D01*
Y626605D01*
X638685Y624951D01*
X639951Y623685D01*
X641605Y623000D01*
X642552D01*
X643079Y621730D01*
X605465Y584117D01*
X604389Y584836D01*
X604500Y585105D01*
Y586895D01*
X603815Y588549D01*
X602864Y589500D01*
X603815Y590451D01*
X604500Y592105D01*
Y593895D01*
X603815Y595549D01*
X602864Y596500D01*
X603815Y597451D01*
X604500Y599105D01*
Y600895D01*
X603815Y602549D01*
X602549Y603815D01*
X600895Y604500D01*
X599105D01*
X597451Y603815D01*
X596185Y602549D01*
X595500Y600895D01*
Y599105D01*
X596185Y597451D01*
X597136Y596500D01*
X596185Y595549D01*
X595500Y593895D01*
Y592105D01*
X596185Y590451D01*
X597136Y589500D01*
X596185Y588549D01*
X595500Y586895D01*
Y585105D01*
X596185Y583451D01*
X597451Y582185D01*
X599105Y581500D01*
X600895D01*
X601164Y581611D01*
X601883Y580535D01*
X601674Y580326D01*
X600348Y578341D01*
X599883Y576000D01*
Y563534D01*
X586674Y550326D01*
X585348Y548341D01*
X584883Y546000D01*
Y457534D01*
X571466Y444118D01*
X562000D01*
X559659Y443652D01*
X557674Y442326D01*
X556348Y440341D01*
X555882Y438000D01*
X556348Y435659D01*
X557334Y434183D01*
X557347Y433053D01*
X557079Y432545D01*
X556084Y431549D01*
X555398Y429895D01*
Y428105D01*
X556084Y426451D01*
X557350Y425185D01*
X559003Y424500D01*
X560794D01*
X562448Y425185D01*
X562694Y425431D01*
X566993D01*
X567699Y424375D01*
X567500Y423895D01*
Y422105D01*
X568185Y420451D01*
X569451Y419185D01*
X571105Y418500D01*
X572895D01*
X574549Y419185D01*
X575815Y420451D01*
X576500Y422105D01*
Y423895D01*
X576301Y424375D01*
X577007Y425431D01*
X597000D01*
X598366Y425703D01*
X599523Y426477D01*
X610547Y437500D01*
X610895D01*
X612549Y438185D01*
X613815Y439451D01*
X614500Y441105D01*
Y442895D01*
X613815Y444549D01*
X612549Y445815D01*
X610895Y446500D01*
X609105D01*
X608694Y446330D01*
X608081Y447811D01*
X606815Y449077D01*
X605161Y449762D01*
X603371D01*
X601717Y449077D01*
X600451Y447811D01*
X599766Y446157D01*
Y444367D01*
X600451Y442713D01*
X601717Y441447D01*
X602344Y441187D01*
X602642Y439689D01*
X595522Y432569D01*
X578722D01*
X578490Y433839D01*
X595326Y450674D01*
X596652Y452659D01*
X597118Y455000D01*
Y543466D01*
X610326Y556674D01*
X611652Y558659D01*
X612118Y561000D01*
Y573466D01*
X651122Y612471D01*
X662311D01*
X662837Y611201D01*
X662185Y610549D01*
X661500Y608895D01*
Y607105D01*
X662185Y605451D01*
X663451Y604185D01*
X665105Y603500D01*
X666895D01*
X668549Y604185D01*
X669815Y605451D01*
X670500Y607105D01*
Y608895D01*
X669815Y610549D01*
X669163Y611201D01*
X669689Y612471D01*
X769431D01*
Y606795D01*
X769185Y606549D01*
X768500Y604895D01*
Y603105D01*
X769185Y601451D01*
X770377Y600259D01*
X769685Y599567D01*
X769000Y597913D01*
Y596123D01*
X769685Y594469D01*
X770951Y593203D01*
X772605Y592518D01*
X774395D01*
X776049Y593203D01*
X777315Y594469D01*
X778000Y596123D01*
Y597913D01*
X777315Y599567D01*
X776123Y600759D01*
X776815Y601451D01*
X777500Y603105D01*
Y603641D01*
X778770Y604167D01*
X786021Y596916D01*
X785879Y596465D01*
X785398Y595743D01*
X783862D01*
X782208Y595057D01*
X780943Y593792D01*
X780257Y592138D01*
Y590348D01*
X780943Y588694D01*
X782208Y587428D01*
X783862Y586743D01*
X785652D01*
X787306Y587428D01*
X788572Y588694D01*
X789257Y590348D01*
Y591883D01*
X789980Y592364D01*
X790431Y592506D01*
X791882Y591054D01*
Y570000D01*
X792348Y567659D01*
X793674Y565674D01*
X804882Y554466D01*
Y499996D01*
Y458251D01*
Y415000D01*
Y400221D01*
X788674Y384013D01*
X787348Y382029D01*
X786882Y379688D01*
Y364127D01*
X672558D01*
X671193Y363855D01*
X670035Y363082D01*
X647453Y340500D01*
X647105D01*
X645451Y339815D01*
X644185Y338549D01*
X643500Y336895D01*
Y335105D01*
X644185Y333451D01*
X645451Y332185D01*
X647105Y331500D01*
X648895D01*
X650549Y332185D01*
X651815Y333451D01*
X652500Y335105D01*
Y335453D01*
X674036Y356990D01*
X786882D01*
Y340569D01*
X775795D01*
X775549Y340815D01*
X773895Y341500D01*
X772105D01*
X770451Y340815D01*
X769185Y339549D01*
X768500Y337895D01*
Y336105D01*
X769185Y334451D01*
X770451Y333185D01*
X772105Y332500D01*
X773895D01*
X775549Y333185D01*
X775795Y333431D01*
X786882D01*
Y322000D01*
X787348Y319659D01*
X788674Y317674D01*
X800579Y305770D01*
X800052Y304500D01*
X799105D01*
X797451Y303815D01*
X796185Y302549D01*
X795500Y300895D01*
Y299105D01*
X796185Y297451D01*
X797451Y296185D01*
X799105Y295500D01*
X800895D01*
X802549Y296185D01*
X802613Y296248D01*
X803883Y295723D01*
Y286284D01*
X798174Y280576D01*
X796848Y278591D01*
X796383Y276250D01*
Y255000D01*
X796848Y252659D01*
X798174Y250674D01*
X800159Y249348D01*
X802500Y248883D01*
X804841Y249348D01*
X806826Y250674D01*
X808152Y252659D01*
X808617Y255000D01*
Y273716D01*
X814326Y279424D01*
X815652Y281409D01*
X816117Y283750D01*
Y305000D01*
X815652Y307341D01*
X814326Y309326D01*
X799118Y324534D01*
Y336852D01*
Y345359D01*
X800388Y346004D01*
X801605Y345500D01*
X803395D01*
X805049Y346185D01*
X806315Y347451D01*
X807000Y349105D01*
Y350895D01*
X806315Y352549D01*
X805049Y353815D01*
X803395Y354500D01*
X801605D01*
X800388Y353996D01*
X799118Y354641D01*
Y360558D01*
Y377154D01*
X815326Y393362D01*
X816652Y395346D01*
X817117Y397687D01*
Y410922D01*
X823087D01*
X824105Y410500D01*
X825895D01*
X827549Y411185D01*
X828815Y412451D01*
X829500Y414105D01*
Y415895D01*
X828815Y417549D01*
X827549Y418815D01*
X825895Y419500D01*
X824105D01*
X823087Y419078D01*
X817117D01*
Y426949D01*
X818388Y427797D01*
X819105Y427500D01*
X820895D01*
X822549Y428185D01*
X823815Y429451D01*
X824500Y431105D01*
Y432895D01*
X823815Y434549D01*
X822549Y435815D01*
X820895Y436500D01*
X819105D01*
X818388Y436203D01*
X817117Y437051D01*
Y448859D01*
X817431Y449033D01*
X818388Y449249D01*
X819451Y448185D01*
X821105Y447500D01*
X822895D01*
X824549Y448185D01*
X825815Y449451D01*
X826500Y451105D01*
Y452895D01*
X826259Y453477D01*
X827164Y454611D01*
X828549Y455185D01*
X829815Y456451D01*
X830500Y458105D01*
Y459895D01*
X829815Y461549D01*
X828549Y462815D01*
X826895Y463500D01*
X826815D01*
X826110Y464556D01*
X826222Y464827D01*
Y466617D01*
X825537Y468271D01*
X824271Y469537D01*
X822617Y470222D01*
X820827D01*
X819173Y469537D01*
X818388Y468751D01*
X817117Y469277D01*
Y474605D01*
X818388Y475454D01*
X818862Y475257D01*
X820652D01*
X822306Y475942D01*
X823572Y477208D01*
X824257Y478862D01*
Y480653D01*
X823572Y482306D01*
X822306Y483572D01*
X820652Y484257D01*
X818862D01*
X818388Y484061D01*
X817117Y484909D01*
Y489723D01*
X818388Y490248D01*
X818451Y490185D01*
X820105Y489500D01*
X821895D01*
X823549Y490185D01*
X824815Y491451D01*
X825500Y493105D01*
Y494895D01*
X824962Y496194D01*
X826147Y496685D01*
X827413Y497951D01*
X828098Y499605D01*
Y501395D01*
X827413Y503049D01*
X826147Y504315D01*
X824493Y505000D01*
X822703D01*
X821049Y504315D01*
X820803Y504069D01*
X817117D01*
Y557000D01*
X816652Y559341D01*
X815326Y561326D01*
X804118Y572534D01*
Y577817D01*
X805387Y578070D01*
X805761Y577168D01*
X807168Y575761D01*
X809005Y575000D01*
X810995D01*
X812832Y575761D01*
X814239Y577168D01*
X815000Y579005D01*
Y580995D01*
X814239Y582832D01*
X812832Y584239D01*
X810995Y585000D01*
X809005D01*
X807168Y584239D01*
X805761Y582832D01*
X805387Y581930D01*
X804118Y582183D01*
Y593588D01*
X803652Y595929D01*
X802326Y597914D01*
X777326Y622914D01*
X775341Y624240D01*
X773000Y624706D01*
X648588D01*
X647498Y624489D01*
X646585Y625602D01*
X647000Y626605D01*
Y628395D01*
X646315Y630049D01*
X645049Y631315D01*
X643395Y632000D01*
D02*
G37*
G36*
X743895Y567500D02*
X742105D01*
X740451Y566815D01*
X739500Y565864D01*
X738549Y566815D01*
X736895Y567500D01*
X735105D01*
X733451Y566815D01*
X732185Y565549D01*
X731500Y563895D01*
Y562105D01*
X732185Y560451D01*
X733451Y559185D01*
X735105Y558500D01*
X736895D01*
X738549Y559185D01*
X739500Y560136D01*
X740451Y559185D01*
X742105Y558500D01*
X743895D01*
X745549Y559185D01*
X746815Y560451D01*
X747500Y562105D01*
Y563895D01*
X746815Y565549D01*
X745549Y566815D01*
X743895Y567500D01*
D02*
G37*
G36*
X510995Y575000D02*
X509005D01*
X507168Y574239D01*
X505761Y572832D01*
X505000Y570995D01*
Y569005D01*
X505761Y567168D01*
X507168Y565761D01*
X509005Y565000D01*
X510995D01*
X512832Y565761D01*
X514239Y567168D01*
X515000Y569005D01*
Y570995D01*
X514239Y572832D01*
X512832Y574239D01*
X510995Y575000D01*
D02*
G37*
G36*
X460995D02*
X459005D01*
X457168Y574239D01*
X455761Y572832D01*
X455000Y570995D01*
Y569005D01*
X455761Y567168D01*
X457168Y565761D01*
X459005Y565000D01*
X460995D01*
X462832Y565761D01*
X464239Y567168D01*
X465000Y569005D01*
Y570995D01*
X464239Y572832D01*
X462832Y574239D01*
X460995Y575000D01*
D02*
G37*
G36*
X704895Y569500D02*
X703105D01*
X701451Y568815D01*
X700185Y567549D01*
X699500Y565895D01*
Y564660D01*
X698230Y564134D01*
X697549Y564815D01*
X695895Y565500D01*
X694105D01*
X692555Y564858D01*
X692500Y564895D01*
X691815Y566549D01*
X690549Y567815D01*
X688895Y568500D01*
X687105D01*
X685451Y567815D01*
X684185Y566549D01*
X683500Y564895D01*
Y563105D01*
X684185Y561451D01*
X685451Y560185D01*
X687105Y559500D01*
X688895D01*
X689327Y559679D01*
X690965Y558983D01*
X691185Y558451D01*
X692451Y557185D01*
X694105Y556500D01*
X695895D01*
X697549Y557185D01*
X698815Y558451D01*
X699500Y560105D01*
Y561340D01*
X700770Y561866D01*
X701451Y561185D01*
X703105Y560500D01*
X704895D01*
X706445Y561142D01*
X706500Y561105D01*
X707185Y559451D01*
X708451Y558185D01*
X710105Y557500D01*
X711895D01*
X713549Y558185D01*
X714815Y559451D01*
X715500Y561105D01*
Y562895D01*
X714815Y564549D01*
X713549Y565815D01*
X711895Y566500D01*
X710105D01*
X708555Y565858D01*
X708500Y565895D01*
X707815Y567549D01*
X706549Y568815D01*
X704895Y569500D01*
D02*
G37*
G36*
X362145Y572950D02*
X360355D01*
X358701Y572265D01*
X357435Y570999D01*
X356750Y569345D01*
Y567555D01*
X357435Y565901D01*
X358701Y564635D01*
X360355Y563950D01*
X362145D01*
X363799Y564635D01*
X365065Y565901D01*
X365750Y567555D01*
Y569345D01*
X365065Y570999D01*
X363799Y572265D01*
X362145Y572950D01*
D02*
G37*
G36*
X436933Y571928D02*
X435143D01*
X433489Y571243D01*
X432223Y569977D01*
X431538Y568323D01*
Y566533D01*
X432223Y564879D01*
X433489Y563613D01*
X435143Y562928D01*
X436933D01*
X438587Y563613D01*
X439853Y564879D01*
X440538Y566533D01*
Y568323D01*
X439853Y569977D01*
X438587Y571243D01*
X436933Y571928D01*
D02*
G37*
G36*
X398495Y572500D02*
X396505D01*
X394668Y571739D01*
X393261Y570332D01*
X392500Y568495D01*
Y566505D01*
X393261Y564668D01*
X394668Y563261D01*
X396505Y562500D01*
X398495D01*
X400332Y563261D01*
X401739Y564668D01*
X402500Y566505D01*
Y568495D01*
X401739Y570332D01*
X400332Y571739D01*
X398495Y572500D01*
D02*
G37*
G36*
X643895Y564500D02*
X642105D01*
X640451Y563815D01*
X639185Y562549D01*
X639017Y562143D01*
X637549Y561815D01*
X635895Y562500D01*
X634105D01*
X632451Y561815D01*
X631830Y561194D01*
X631000Y560667D01*
X630170Y561194D01*
X629549Y561815D01*
X627895Y562500D01*
X626105D01*
X624451Y561815D01*
X623185Y560549D01*
X622500Y558895D01*
Y557105D01*
X623185Y555451D01*
X624451Y554185D01*
X626105Y553500D01*
X627895D01*
X629549Y554185D01*
X630170Y554806D01*
X631000Y555333D01*
X631830Y554806D01*
X632451Y554185D01*
X634105Y553500D01*
X635895D01*
X637549Y554185D01*
X638815Y555451D01*
X638983Y555857D01*
X640451Y556185D01*
X642105Y555500D01*
X643895D01*
X645549Y556185D01*
X646815Y557451D01*
X647500Y559105D01*
Y560895D01*
X646815Y562549D01*
X645549Y563815D01*
X643895Y564500D01*
D02*
G37*
G36*
X775895Y569500D02*
X774105D01*
X772451Y568815D01*
X771185Y567549D01*
X770500Y565895D01*
Y564105D01*
X771185Y562451D01*
X772451Y561185D01*
X774105Y560500D01*
X775895D01*
X777549Y561185D01*
X778815Y562451D01*
X779500Y564105D01*
Y565895D01*
X778815Y567549D01*
X777549Y568815D01*
X775895Y569500D01*
D02*
G37*
G36*
X758895D02*
X757105D01*
X755451Y568815D01*
X754185Y567549D01*
X753500Y565895D01*
Y564105D01*
X754185Y562451D01*
X755451Y561185D01*
X757105Y560500D01*
X758895D01*
X760549Y561185D01*
X761815Y562451D01*
X762500Y564105D01*
Y565895D01*
X761815Y567549D01*
X760549Y568815D01*
X758895Y569500D01*
D02*
G37*
G36*
X670895Y569000D02*
X669105D01*
X667451Y568315D01*
X666185Y567049D01*
X665500Y565395D01*
Y563605D01*
X666185Y561951D01*
X667451Y560685D01*
X669105Y560000D01*
X670895D01*
X672549Y560685D01*
X673815Y561951D01*
X674500Y563605D01*
Y565395D01*
X673815Y567049D01*
X672549Y568315D01*
X670895Y569000D01*
D02*
G37*
G36*
X659885D02*
X658094D01*
X656441Y568315D01*
X655175Y567049D01*
X654490Y565395D01*
Y563605D01*
X655175Y561951D01*
X656441Y560685D01*
X658094Y560000D01*
X659885D01*
X661539Y560685D01*
X662804Y561951D01*
X663490Y563605D01*
Y565395D01*
X662804Y567049D01*
X661539Y568315D01*
X659885Y569000D01*
D02*
G37*
G36*
X592895Y568500D02*
X591105D01*
X589451Y567815D01*
X588185Y566549D01*
X587500Y564895D01*
Y563105D01*
X588185Y561451D01*
X589451Y560185D01*
X591105Y559500D01*
X592895D01*
X594549Y560185D01*
X595815Y561451D01*
X596500Y563105D01*
Y564895D01*
X595815Y566549D01*
X594549Y567815D01*
X592895Y568500D01*
D02*
G37*
G36*
X526895Y564500D02*
X525105D01*
X523451Y563815D01*
X522185Y562549D01*
X521500Y560895D01*
Y559105D01*
X522185Y557451D01*
X523451Y556185D01*
X525105Y555500D01*
X526895D01*
X528549Y556185D01*
X529815Y557451D01*
X530500Y559105D01*
Y560895D01*
X529815Y562549D01*
X528549Y563815D01*
X526895Y564500D01*
D02*
G37*
G36*
X248772Y560225D02*
X246982D01*
X245328Y559540D01*
X244062Y558274D01*
X243377Y556620D01*
Y554830D01*
X244062Y553176D01*
X245328Y551910D01*
X246982Y551225D01*
X248772D01*
X250426Y551910D01*
X251692Y553176D01*
X252377Y554830D01*
Y556620D01*
X251692Y558274D01*
X250426Y559540D01*
X248772Y560225D01*
D02*
G37*
G36*
X760995Y555000D02*
X759005D01*
X757168Y554239D01*
X755761Y552832D01*
X755000Y550995D01*
Y549005D01*
X755761Y547168D01*
X757168Y545761D01*
X759005Y545000D01*
X760995D01*
X762832Y545761D01*
X764239Y547168D01*
X765000Y549005D01*
Y550995D01*
X764239Y552832D01*
X762832Y554239D01*
X760995Y555000D01*
D02*
G37*
G36*
X437895Y551500D02*
X436105D01*
X434451Y550815D01*
X433185Y549549D01*
X432500Y547895D01*
Y546105D01*
X433185Y544451D01*
X434451Y543185D01*
X436105Y542500D01*
X437895D01*
X439549Y543185D01*
X440815Y544451D01*
X441500Y546105D01*
Y547895D01*
X440815Y549549D01*
X439549Y550815D01*
X437895Y551500D01*
D02*
G37*
G36*
X527506Y545111D02*
X525716D01*
X524062Y544426D01*
X522796Y543160D01*
X522111Y541506D01*
Y539716D01*
X522796Y538062D01*
X524062Y536796D01*
X525716Y536111D01*
X527506D01*
X529160Y536796D01*
X530426Y538062D01*
X531111Y539716D01*
Y541506D01*
X530426Y543160D01*
X529160Y544426D01*
X527506Y545111D01*
D02*
G37*
G36*
X570895Y543500D02*
X569105D01*
X567451Y542815D01*
X566185Y541549D01*
X565500Y539895D01*
Y538105D01*
X566185Y536451D01*
X567451Y535185D01*
X569105Y534500D01*
X570895D01*
X572549Y535185D01*
X573815Y536451D01*
X574500Y538105D01*
Y539895D01*
X573815Y541549D01*
X572549Y542815D01*
X570895Y543500D01*
D02*
G37*
G36*
X740895Y543500D02*
X739105D01*
X737451Y542815D01*
X736185Y541549D01*
X735500Y539895D01*
Y538105D01*
X736185Y536451D01*
X737451Y535185D01*
X739105Y534500D01*
X740895D01*
X742549Y535185D01*
X743815Y536451D01*
X744500Y538105D01*
Y539895D01*
X743815Y541549D01*
X742549Y542815D01*
X740895Y543500D01*
D02*
G37*
G36*
X604895Y542000D02*
X603105D01*
X601451Y541315D01*
X600185Y540049D01*
X599500Y538395D01*
Y536605D01*
X600185Y534951D01*
X601451Y533685D01*
X603105Y533000D01*
X604895D01*
X606549Y533685D01*
X607815Y534951D01*
X608500Y536605D01*
Y538395D01*
X607815Y540049D01*
X606549Y541315D01*
X604895Y542000D01*
D02*
G37*
G36*
X825145Y540735D02*
X823355D01*
X821701Y540050D01*
X820435Y538784D01*
X819750Y537130D01*
Y535340D01*
X820435Y533686D01*
X821701Y532420D01*
X823355Y531735D01*
X825145D01*
X826799Y532420D01*
X828065Y533686D01*
X828750Y535340D01*
Y537130D01*
X828065Y538784D01*
X826799Y540050D01*
X825145Y540735D01*
D02*
G37*
G36*
X301895Y538500D02*
X300105D01*
X298451Y537815D01*
X297185Y536549D01*
X296500Y534895D01*
Y533105D01*
X297185Y531451D01*
X298451Y530185D01*
X300105Y529500D01*
X301895D01*
X303549Y530185D01*
X304815Y531451D01*
X305500Y533105D01*
Y534895D01*
X304815Y536549D01*
X303549Y537815D01*
X301895Y538500D01*
D02*
G37*
G36*
X455895Y537500D02*
X454105D01*
X452451Y536815D01*
X451185Y535549D01*
X450500Y533895D01*
Y532105D01*
X451185Y530451D01*
X452451Y529185D01*
X454105Y528500D01*
X455895D01*
X457549Y529185D01*
X458815Y530451D01*
X459500Y532105D01*
Y533895D01*
X458815Y535549D01*
X457549Y536815D01*
X455895Y537500D01*
D02*
G37*
G36*
X708895Y526500D02*
X707105D01*
X705451Y525815D01*
X704830Y525194D01*
X704000Y524667D01*
X703170Y525194D01*
X702549Y525815D01*
X700895Y526500D01*
X699105D01*
X697451Y525815D01*
X696185Y524549D01*
X695500Y522895D01*
Y521105D01*
X696185Y519451D01*
X697451Y518185D01*
X699105Y517500D01*
X700895D01*
X702549Y518185D01*
X703170Y518806D01*
X704000Y519333D01*
X704830Y518806D01*
X705451Y518185D01*
X707105Y517500D01*
X708895D01*
X710549Y518185D01*
X711815Y519451D01*
X712500Y521105D01*
Y522895D01*
X711815Y524549D01*
X710549Y525815D01*
X708895Y526500D01*
D02*
G37*
G36*
X734895Y527500D02*
X733105D01*
X731451Y526815D01*
X730185Y525549D01*
X729500Y523895D01*
Y522105D01*
X730185Y520451D01*
X731451Y519185D01*
X733105Y518500D01*
X734895D01*
X736549Y519185D01*
X737815Y520451D01*
X738500Y522105D01*
Y523895D01*
X737815Y525549D01*
X736549Y526815D01*
X734895Y527500D01*
D02*
G37*
G36*
X773895Y533500D02*
X772105D01*
X770451Y532815D01*
X769185Y531549D01*
X768500Y529895D01*
Y528105D01*
X769185Y526451D01*
X769366Y526270D01*
X769149Y525506D01*
X768888Y524952D01*
X767168Y524239D01*
X765761Y522832D01*
X765000Y520995D01*
Y519005D01*
X765761Y517168D01*
X767168Y515761D01*
X769005Y515000D01*
X770995D01*
X772832Y515761D01*
X774239Y517168D01*
X775000Y519005D01*
Y520995D01*
X774239Y522832D01*
X773841Y523230D01*
X773858Y523635D01*
X774229Y524638D01*
X775549Y525185D01*
X776815Y526451D01*
X777500Y528105D01*
Y529895D01*
X776815Y531549D01*
X775549Y532815D01*
X773895Y533500D01*
D02*
G37*
G36*
X625895Y527000D02*
X624105D01*
X622451Y526315D01*
X621185Y525049D01*
X620500Y523395D01*
Y521605D01*
X621185Y519951D01*
X622451Y518685D01*
X624105Y518000D01*
X624997D01*
X625846Y516730D01*
X625500Y515895D01*
Y514105D01*
X626185Y512451D01*
X627451Y511185D01*
X629105Y510500D01*
X630895D01*
X632549Y511185D01*
X633815Y512451D01*
X634500Y514105D01*
Y515895D01*
X633815Y517549D01*
X632549Y518815D01*
X630895Y519500D01*
X630003D01*
X629154Y520770D01*
X629500Y521605D01*
Y523395D01*
X628815Y525049D01*
X627549Y526315D01*
X625895Y527000D01*
D02*
G37*
G36*
X368895Y514500D02*
X367105D01*
X365451Y513815D01*
X364185Y512549D01*
X363500Y510895D01*
Y509105D01*
X364185Y507451D01*
X365451Y506185D01*
X367105Y505500D01*
X368895D01*
X370549Y506185D01*
X371815Y507451D01*
X372500Y509105D01*
Y510895D01*
X371815Y512549D01*
X370549Y513815D01*
X368895Y514500D01*
D02*
G37*
G36*
X355756Y514361D02*
X353966D01*
X352312Y513676D01*
X351046Y512410D01*
X350361Y510756D01*
Y508966D01*
X351046Y507312D01*
X352312Y506046D01*
X353966Y505361D01*
X355756D01*
X357410Y506046D01*
X358676Y507312D01*
X359361Y508966D01*
Y510756D01*
X358676Y512410D01*
X357410Y513676D01*
X355756Y514361D01*
D02*
G37*
G36*
X720995Y515000D02*
X719005D01*
X717168Y514239D01*
X715761Y512832D01*
X715000Y510995D01*
Y509005D01*
X715761Y507168D01*
X717168Y505761D01*
X719005Y505000D01*
X720995D01*
X722832Y505761D01*
X724239Y507168D01*
X725000Y509005D01*
Y510995D01*
X724239Y512832D01*
X722832Y514239D01*
X720995Y515000D01*
D02*
G37*
G36*
X691895Y520500D02*
X690105D01*
X688451Y519815D01*
X687185Y518549D01*
X686500Y516895D01*
Y515105D01*
X687185Y513451D01*
X688451Y512185D01*
X690105Y511500D01*
X691895D01*
X693549Y512185D01*
X694225Y512861D01*
X694521Y513157D01*
X695598Y512438D01*
X695438Y512052D01*
X695000Y510995D01*
Y509005D01*
X695761Y507168D01*
X697168Y505761D01*
X699005Y505000D01*
X700995D01*
X702832Y505761D01*
X704239Y507168D01*
X705000Y509005D01*
Y510995D01*
X704239Y512832D01*
X702832Y514239D01*
X700995Y515000D01*
X699005D01*
X697168Y514239D01*
X696351Y513422D01*
X696055Y513126D01*
X694978Y513845D01*
X695138Y514231D01*
X695500Y515105D01*
Y516895D01*
X694815Y518549D01*
X693549Y519815D01*
X691895Y520500D01*
D02*
G37*
G36*
X680995Y515000D02*
X679005D01*
X677168Y514239D01*
X675761Y512832D01*
X675000Y510995D01*
Y509005D01*
X675761Y507168D01*
X677168Y505761D01*
X679005Y505000D01*
X680995D01*
X682832Y505761D01*
X684239Y507168D01*
X685000Y509005D01*
Y510995D01*
X684239Y512832D01*
X682832Y514239D01*
X680995Y515000D01*
D02*
G37*
G36*
X660995D02*
X659005D01*
X657168Y514239D01*
X655761Y512832D01*
X655000Y510995D01*
Y509005D01*
X655761Y507168D01*
X657168Y505761D01*
X659005Y505000D01*
X660995D01*
X662832Y505761D01*
X664239Y507168D01*
X665000Y509005D01*
Y510995D01*
X664239Y512832D01*
X662832Y514239D01*
X660995Y515000D01*
D02*
G37*
G36*
X573395Y509500D02*
X571605D01*
X569951Y508815D01*
X568685Y507549D01*
X568000Y505895D01*
Y504105D01*
X568685Y502451D01*
X569951Y501185D01*
X571605Y500500D01*
X573395D01*
X575049Y501185D01*
X576315Y502451D01*
X577000Y504105D01*
Y505895D01*
X576315Y507549D01*
X575049Y508815D01*
X573395Y509500D01*
D02*
G37*
G36*
X527895Y514500D02*
X526105D01*
X524451Y513815D01*
X523185Y512549D01*
X522500Y510895D01*
Y509105D01*
X523185Y507451D01*
X524451Y506185D01*
X524755Y506059D01*
X525433Y504413D01*
X525219Y503895D01*
Y502105D01*
X525904Y500451D01*
X527170Y499185D01*
X528824Y498500D01*
X530614D01*
X532268Y499185D01*
X533534Y500451D01*
X534219Y502105D01*
Y503895D01*
X533534Y505549D01*
X532268Y506815D01*
X531964Y506941D01*
X531285Y508587D01*
X531500Y509105D01*
Y510895D01*
X530815Y512549D01*
X529549Y513815D01*
X527895Y514500D01*
D02*
G37*
G36*
X465895Y507500D02*
X464105D01*
X462451Y506815D01*
X461185Y505549D01*
X460500Y503895D01*
Y502105D01*
X461185Y500451D01*
X462451Y499185D01*
X464105Y498500D01*
X465895D01*
X467549Y499185D01*
X468815Y500451D01*
X469500Y502105D01*
Y503895D01*
X468815Y505549D01*
X467549Y506815D01*
X465895Y507500D01*
D02*
G37*
G36*
X604895Y507000D02*
X603105D01*
X601451Y506315D01*
X600185Y505049D01*
X599500Y503395D01*
Y501605D01*
X600185Y499951D01*
X601451Y498685D01*
X603105Y498000D01*
X604895D01*
X606549Y498685D01*
X607815Y499951D01*
X608500Y501605D01*
Y503395D01*
X607815Y505049D01*
X606549Y506315D01*
X604895Y507000D01*
D02*
G37*
G36*
X443395D02*
X441605D01*
X439951Y506315D01*
X438685Y505049D01*
X438000Y503395D01*
Y501605D01*
X438685Y499951D01*
X439951Y498685D01*
X441605Y498000D01*
X443395D01*
X445049Y498685D01*
X446315Y499951D01*
X447000Y501605D01*
Y503395D01*
X446315Y505049D01*
X445049Y506315D01*
X443395Y507000D01*
D02*
G37*
G36*
X780995Y505000D02*
X779005D01*
X777168Y504239D01*
X775761Y502832D01*
X775000Y500995D01*
Y499005D01*
X775761Y497168D01*
X777168Y495761D01*
X779005Y495000D01*
X780995D01*
X782832Y495761D01*
X784239Y497168D01*
X785000Y499005D01*
Y500995D01*
X784239Y502832D01*
X782832Y504239D01*
X780995Y505000D01*
D02*
G37*
G36*
X620995D02*
X619005D01*
X617168Y504239D01*
X615761Y502832D01*
X615000Y500995D01*
Y499005D01*
X615761Y497168D01*
X617168Y495761D01*
X619005Y495000D01*
X620995D01*
X622832Y495761D01*
X624239Y497168D01*
X625000Y499005D01*
Y500995D01*
X624239Y502832D01*
X622832Y504239D01*
X620995Y505000D01*
D02*
G37*
G36*
X430895Y502000D02*
X429105D01*
X427451Y501315D01*
X426185Y500049D01*
X425500Y498395D01*
Y496605D01*
X426185Y494951D01*
X427451Y493685D01*
X429105Y493000D01*
X430895D01*
X432549Y493685D01*
X433815Y494951D01*
X434500Y496605D01*
Y498395D01*
X433815Y500049D01*
X432549Y501315D01*
X430895Y502000D01*
D02*
G37*
G36*
X323495Y500000D02*
X321505D01*
X319668Y499239D01*
X318261Y497832D01*
X317500Y495995D01*
Y494005D01*
X318261Y492168D01*
X319668Y490761D01*
X321505Y490000D01*
X323495D01*
X325332Y490761D01*
X326739Y492168D01*
X327500Y494005D01*
Y495995D01*
X326739Y497832D01*
X325332Y499239D01*
X323495Y500000D01*
D02*
G37*
G36*
X358495Y497500D02*
X356505D01*
X354668Y496739D01*
X353261Y495332D01*
X352500Y493495D01*
Y491505D01*
X353261Y489668D01*
X354668Y488261D01*
X356505Y487500D01*
X358495D01*
X360332Y488261D01*
X361739Y489668D01*
X362500Y491505D01*
Y493495D01*
X361739Y495332D01*
X360332Y496739D01*
X358495Y497500D01*
D02*
G37*
G36*
X790895Y559500D02*
X789105D01*
X787451Y558815D01*
X786185Y557549D01*
X785500Y555895D01*
Y554105D01*
X785876Y553198D01*
X784321Y552554D01*
X783055Y551288D01*
X782370Y549634D01*
Y547844D01*
X783055Y546190D01*
X784321Y544924D01*
X785725Y544342D01*
X786573Y543343D01*
X786643Y543239D01*
X786500Y542895D01*
Y541105D01*
X787185Y539451D01*
X788451Y538185D01*
X790105Y537500D01*
X791082D01*
X791479Y536906D01*
Y535115D01*
X792132Y533540D01*
X792105Y533500D01*
X790451Y532815D01*
X789185Y531549D01*
X788500Y529895D01*
Y528105D01*
X788096Y527500D01*
X787105D01*
X785451Y526815D01*
X784185Y525549D01*
X783500Y523895D01*
Y522105D01*
X784185Y520451D01*
X785451Y519185D01*
X785512Y518876D01*
X785185Y518549D01*
X784500Y516895D01*
Y515105D01*
X785185Y513451D01*
X786451Y512185D01*
X786187Y511551D01*
X786185Y511549D01*
X785500Y509895D01*
Y508105D01*
X786185Y506451D01*
X787451Y505185D01*
X789105Y504500D01*
X790500D01*
Y503105D01*
X791185Y501451D01*
X792136Y500500D01*
X791185Y499549D01*
X790500Y497895D01*
Y496105D01*
X790520Y496056D01*
X789815Y495000D01*
X789005D01*
X787168Y494239D01*
X785761Y492832D01*
X785000Y490995D01*
Y489005D01*
X785294Y488295D01*
X784322Y487323D01*
X783895Y487500D01*
X782105D01*
X780451Y486815D01*
X779185Y485549D01*
X778500Y483895D01*
Y482500D01*
X777105D01*
X775451Y481815D01*
X774185Y480549D01*
X773500Y478895D01*
Y477105D01*
X774185Y475451D01*
X775451Y474185D01*
X777105Y473500D01*
X778895D01*
X780549Y474185D01*
X781815Y475451D01*
X782500Y477105D01*
Y478500D01*
X783895D01*
X784187Y478621D01*
X785361Y478135D01*
X785761Y477168D01*
X787168Y475761D01*
X789005Y475000D01*
X790995D01*
X792832Y475761D01*
X794239Y477168D01*
X795000Y479005D01*
Y480995D01*
X794239Y482832D01*
X792832Y484239D01*
X792654Y484313D01*
Y485687D01*
X792832Y485761D01*
X794239Y487168D01*
X795000Y489005D01*
Y490995D01*
X794814Y491444D01*
X795519Y492500D01*
X795895D01*
X797549Y493185D01*
X798815Y494451D01*
X799500Y496105D01*
Y497895D01*
X798815Y499549D01*
X797864Y500500D01*
X798815Y501451D01*
X799500Y503105D01*
Y504895D01*
X798815Y506549D01*
X797549Y507815D01*
X795895Y508500D01*
X794500D01*
Y509895D01*
X793815Y511549D01*
X792549Y512815D01*
X792813Y513449D01*
X792815Y513451D01*
X793500Y515105D01*
Y516895D01*
X792815Y518549D01*
X791549Y519815D01*
X791488Y520124D01*
X791815Y520451D01*
X792500Y522105D01*
Y523895D01*
X792904Y524500D01*
X793895D01*
X795549Y525185D01*
X796815Y526451D01*
X797500Y528105D01*
Y529895D01*
X796848Y531470D01*
X796874Y531510D01*
X798528Y532196D01*
X799794Y533461D01*
X800479Y535115D01*
Y536906D01*
X799794Y538559D01*
X798528Y539825D01*
X796874Y540510D01*
X795897D01*
X795500Y541105D01*
Y542895D01*
X794815Y544549D01*
X793549Y545815D01*
X792145Y546397D01*
X791296Y547397D01*
X791227Y547500D01*
X791369Y547844D01*
Y549634D01*
X790994Y550541D01*
X792549Y551185D01*
X793815Y552451D01*
X794500Y554105D01*
Y555895D01*
X793815Y557549D01*
X792549Y558815D01*
X790895Y559500D01*
D02*
G37*
G36*
X740995Y495000D02*
X739005D01*
X737168Y494239D01*
X735761Y492832D01*
X735000Y490995D01*
Y489005D01*
X735761Y487168D01*
X737168Y485761D01*
X739005Y485000D01*
X740995D01*
X742832Y485761D01*
X744239Y487168D01*
X745000Y489005D01*
Y490995D01*
X744239Y492832D01*
X742832Y494239D01*
X740995Y495000D01*
D02*
G37*
G36*
X660995D02*
X659005D01*
X657168Y494239D01*
X655761Y492832D01*
X655000Y490995D01*
Y489005D01*
X655761Y487168D01*
X657168Y485761D01*
X659005Y485000D01*
X660995D01*
X662832Y485761D01*
X664239Y487168D01*
X665000Y489005D01*
Y490995D01*
X664239Y492832D01*
X662832Y494239D01*
X660995Y495000D01*
D02*
G37*
G36*
X640995D02*
X639005D01*
X637168Y494239D01*
X635761Y492832D01*
X635000Y490995D01*
Y489005D01*
X635761Y487168D01*
X637168Y485761D01*
X639005Y485000D01*
X640995D01*
X642832Y485761D01*
X644239Y487168D01*
X645000Y489005D01*
Y490995D01*
X644239Y492832D01*
X642832Y494239D01*
X640995Y495000D01*
D02*
G37*
G36*
X604895Y487000D02*
X603105D01*
X601451Y486315D01*
X600185Y485049D01*
X599500Y483395D01*
Y481605D01*
X600185Y479951D01*
X601451Y478685D01*
X603105Y478000D01*
X604895D01*
X606549Y478685D01*
X607815Y479951D01*
X608500Y481605D01*
Y483395D01*
X607815Y485049D01*
X606549Y486315D01*
X604895Y487000D01*
D02*
G37*
G36*
X330895D02*
X329105D01*
X327451Y486315D01*
X326185Y485049D01*
X325500Y483395D01*
Y481605D01*
X326185Y479951D01*
X327451Y478685D01*
X329105Y478000D01*
X330895D01*
X332549Y478685D01*
X333815Y479951D01*
X334500Y481605D01*
Y483395D01*
X333815Y485049D01*
X332549Y486315D01*
X330895Y487000D01*
D02*
G37*
G36*
X475895Y479500D02*
X474105D01*
X472451Y478815D01*
X471185Y477549D01*
X470500Y475895D01*
Y474105D01*
X471185Y472451D01*
X472451Y471185D01*
X474105Y470500D01*
X475895D01*
X477549Y471185D01*
X478815Y472451D01*
X479500Y474105D01*
Y475895D01*
X478815Y477549D01*
X477549Y478815D01*
X475895Y479500D01*
D02*
G37*
G36*
X578395Y475500D02*
X576605D01*
X574951Y474815D01*
X573685Y473549D01*
X573000Y471895D01*
Y470105D01*
X573685Y468451D01*
X574951Y467185D01*
X576605Y466500D01*
X578395D01*
X580049Y467185D01*
X581315Y468451D01*
X582000Y470105D01*
Y471895D01*
X581315Y473549D01*
X580049Y474815D01*
X578395Y475500D01*
D02*
G37*
G36*
X770995Y475000D02*
X769005D01*
X767168Y474239D01*
X765761Y472832D01*
X765000Y470995D01*
Y469005D01*
X765761Y467168D01*
X767168Y465761D01*
X769005Y465000D01*
X770995D01*
X772832Y465761D01*
X774239Y467168D01*
X775000Y469005D01*
Y470995D01*
X774239Y472832D01*
X772832Y474239D01*
X770995Y475000D01*
D02*
G37*
G36*
X660995D02*
X659005D01*
X657168Y474239D01*
X655761Y472832D01*
X655000Y470995D01*
Y469005D01*
X655761Y467168D01*
X657168Y465761D01*
X659005Y465000D01*
X660995D01*
X662832Y465761D01*
X664239Y467168D01*
X665000Y469005D01*
Y470995D01*
X664239Y472832D01*
X662832Y474239D01*
X660995Y475000D01*
D02*
G37*
G36*
X620995D02*
X619005D01*
X617168Y474239D01*
X615761Y472832D01*
X615000Y470995D01*
Y469005D01*
X615761Y467168D01*
X617168Y465761D01*
X619005Y465000D01*
X620995D01*
X622832Y465761D01*
X624239Y467168D01*
X625000Y469005D01*
Y470995D01*
X624239Y472832D01*
X622832Y474239D01*
X620995Y475000D01*
D02*
G37*
G36*
X250995D02*
X249005D01*
X247168Y474239D01*
X245761Y472832D01*
X245000Y470995D01*
Y469005D01*
X245761Y467168D01*
X247168Y465761D01*
X249005Y465000D01*
X250995D01*
X252832Y465761D01*
X254239Y467168D01*
X255000Y469005D01*
Y470995D01*
X254239Y472832D01*
X252832Y474239D01*
X250995Y475000D01*
D02*
G37*
G36*
X795895Y473500D02*
X794105D01*
X792451Y472815D01*
X791185Y471549D01*
X790500Y469895D01*
Y468105D01*
X791185Y466451D01*
X792451Y465185D01*
X794105Y464500D01*
X795895D01*
X797549Y465185D01*
X798815Y466451D01*
X799500Y468105D01*
Y469895D01*
X798815Y471549D01*
X797549Y472815D01*
X795895Y473500D01*
D02*
G37*
G36*
X604895Y472000D02*
X603105D01*
X601451Y471315D01*
X600185Y470049D01*
X599500Y468395D01*
Y466605D01*
X600185Y464951D01*
X601451Y463685D01*
X603105Y463000D01*
X604895D01*
X606549Y463685D01*
X607815Y464951D01*
X608500Y466605D01*
Y468395D01*
X607815Y470049D01*
X606549Y471315D01*
X604895Y472000D01*
D02*
G37*
G36*
X446895Y476500D02*
X445105D01*
X443451Y475815D01*
X442185Y474549D01*
X441500Y472895D01*
Y471904D01*
X440895Y471500D01*
X439105D01*
X437451Y470815D01*
X436185Y469549D01*
X435500Y467895D01*
Y466105D01*
X436185Y464451D01*
X437451Y463185D01*
X439105Y462500D01*
X440895D01*
X442549Y463185D01*
X443815Y464451D01*
X444500Y466105D01*
Y467096D01*
X445105Y467500D01*
X446895D01*
X448549Y468185D01*
X449815Y469451D01*
X450500Y471105D01*
Y472895D01*
X449815Y474549D01*
X448549Y475815D01*
X446895Y476500D01*
D02*
G37*
G36*
X740995Y475000D02*
X739005D01*
X737168Y474239D01*
X735761Y472832D01*
X735000Y470995D01*
Y469005D01*
X735761Y467168D01*
X737168Y465761D01*
X739005Y465000D01*
X740995D01*
X742832Y465761D01*
X744239Y467168D01*
X744583Y467999D01*
X745958D01*
X746185Y467451D01*
X747451Y466185D01*
X749105Y465500D01*
X750895D01*
X751521Y465759D01*
X752500Y465105D01*
X753185Y463451D01*
X754451Y462185D01*
X756105Y461500D01*
X757895D01*
X759549Y462185D01*
X760815Y463451D01*
X761500Y465105D01*
Y466895D01*
X760815Y468549D01*
X759549Y469815D01*
X757895Y470500D01*
X756105D01*
X755479Y470241D01*
X754500Y470895D01*
X753815Y472549D01*
X752549Y473815D01*
X750895Y474500D01*
X749105D01*
X747451Y473815D01*
X746185Y472549D01*
X745958Y472001D01*
X744583D01*
X744239Y472832D01*
X742832Y474239D01*
X740995Y475000D01*
D02*
G37*
G36*
X528395Y466500D02*
X526605D01*
X524951Y465815D01*
X523685Y464549D01*
X523000Y462895D01*
Y461105D01*
X523685Y459451D01*
X524951Y458185D01*
X526605Y457500D01*
X528395D01*
X530049Y458185D01*
X531315Y459451D01*
X532000Y461105D01*
Y462895D01*
X531315Y464549D01*
X530049Y465815D01*
X528395Y466500D01*
D02*
G37*
G36*
X388495Y467500D02*
X386506D01*
X384668Y466739D01*
X383261Y465332D01*
X382500Y463495D01*
Y461505D01*
X383261Y459668D01*
X384668Y458261D01*
X386506Y457500D01*
X388495D01*
X390332Y458261D01*
X391739Y459668D01*
X392500Y461505D01*
Y463495D01*
X391739Y465332D01*
X390332Y466739D01*
X388495Y467500D01*
D02*
G37*
G36*
X235995Y483143D02*
X234006D01*
X232168Y482382D01*
X230761Y480976D01*
X230000Y479138D01*
Y477149D01*
X230761Y475311D01*
X231599Y474473D01*
X232032Y473643D01*
X231599Y472814D01*
X230761Y471976D01*
X230000Y470138D01*
Y468149D01*
X230761Y466311D01*
X231944Y465128D01*
X230761Y463945D01*
X230000Y462107D01*
Y460118D01*
X230761Y458280D01*
X232168Y456874D01*
X234006Y456112D01*
X235995D01*
X237832Y456874D01*
X239239Y458280D01*
X240000Y460118D01*
Y462107D01*
X239239Y463945D01*
X238056Y465128D01*
X239239Y466311D01*
X240000Y468149D01*
Y470138D01*
X239239Y471976D01*
X238401Y472814D01*
X237968Y473643D01*
X238401Y474473D01*
X239239Y475311D01*
X240000Y477149D01*
Y479138D01*
X239239Y480976D01*
X237832Y482382D01*
X235995Y483143D01*
D02*
G37*
G36*
X640995Y465000D02*
X639005D01*
X637168Y464239D01*
X635761Y462832D01*
X635000Y460995D01*
Y459005D01*
X635761Y457168D01*
X637168Y455761D01*
X639005Y455000D01*
X640995D01*
X642832Y455761D01*
X644239Y457168D01*
X645000Y459005D01*
Y460995D01*
X644239Y462832D01*
X642832Y464239D01*
X640995Y465000D01*
D02*
G37*
G36*
X575895Y463500D02*
X574105D01*
X572451Y462815D01*
X571185Y461549D01*
X570500Y459895D01*
Y458105D01*
X571185Y456451D01*
X572451Y455185D01*
X574105Y454500D01*
X575895D01*
X577549Y455185D01*
X578815Y456451D01*
X579500Y458105D01*
Y459895D01*
X578815Y461549D01*
X577549Y462815D01*
X575895Y463500D01*
D02*
G37*
G36*
X604895Y460552D02*
X603105D01*
X601451Y459867D01*
X600185Y458601D01*
X599500Y456947D01*
Y455157D01*
X600185Y453503D01*
X601451Y452237D01*
X603105Y451552D01*
X604895D01*
X606549Y452237D01*
X607815Y453503D01*
X608500Y455157D01*
Y456947D01*
X607815Y458601D01*
X606549Y459867D01*
X604895Y460552D01*
D02*
G37*
G36*
X795895Y457500D02*
X794105D01*
X792451Y456815D01*
X791185Y455549D01*
X790500Y453895D01*
Y452105D01*
X791185Y450451D01*
X792451Y449185D01*
X794105Y448500D01*
X795895D01*
X797549Y449185D01*
X798815Y450451D01*
X799500Y452105D01*
Y453895D01*
X798815Y455549D01*
X797549Y456815D01*
X795895Y457500D01*
D02*
G37*
G36*
X418395Y457000D02*
X416605D01*
X414951Y456315D01*
X413685Y455049D01*
X413000Y453395D01*
Y451605D01*
X413685Y449951D01*
X414951Y448685D01*
X416605Y448000D01*
X418395D01*
X420049Y448685D01*
X421315Y449951D01*
X422000Y451605D01*
Y453395D01*
X421315Y455049D01*
X420049Y456315D01*
X418395Y457000D01*
D02*
G37*
G36*
X740995Y455000D02*
X739005D01*
X737168Y454239D01*
X735761Y452832D01*
X735000Y450995D01*
Y449005D01*
X735761Y447168D01*
X737168Y445761D01*
X739005Y445000D01*
X740995D01*
X742832Y445761D01*
X744239Y447168D01*
X745000Y449005D01*
Y450995D01*
X744239Y452832D01*
X742832Y454239D01*
X740995Y455000D01*
D02*
G37*
G36*
X680995D02*
X679005D01*
X677168Y454239D01*
X675761Y452832D01*
X675000Y450995D01*
Y449005D01*
X675761Y447168D01*
X677168Y445761D01*
X679005Y445000D01*
X680995D01*
X682832Y445761D01*
X684239Y447168D01*
X685000Y449005D01*
Y450995D01*
X684239Y452832D01*
X682832Y454239D01*
X680995Y455000D01*
D02*
G37*
G36*
X660995D02*
X659005D01*
X657168Y454239D01*
X655761Y452832D01*
X655000Y450995D01*
Y449005D01*
X655761Y447168D01*
X657168Y445761D01*
X659005Y445000D01*
X660995D01*
X662832Y445761D01*
X664239Y447168D01*
X665000Y449005D01*
Y450995D01*
X664239Y452832D01*
X662832Y454239D01*
X660995Y455000D01*
D02*
G37*
G36*
X620995D02*
X619005D01*
X617168Y454239D01*
X615761Y452832D01*
X615000Y450995D01*
Y449005D01*
X615761Y447168D01*
X617168Y445761D01*
X619005Y445000D01*
X620995D01*
X622832Y445761D01*
X624239Y447168D01*
X625000Y449005D01*
Y450995D01*
X624239Y452832D01*
X622832Y454239D01*
X620995Y455000D01*
D02*
G37*
G36*
X245895Y452000D02*
X244105D01*
X242451Y451315D01*
X241185Y450049D01*
X240500Y448395D01*
Y446605D01*
X241185Y444951D01*
X242451Y443685D01*
X244105Y443000D01*
X245895D01*
X247549Y443685D01*
X248815Y444951D01*
X249500Y446605D01*
Y448395D01*
X248815Y450049D01*
X247549Y451315D01*
X245895Y452000D01*
D02*
G37*
G36*
X986895Y449500D02*
X985105D01*
X983451Y448815D01*
X982185Y447549D01*
X981500Y445895D01*
Y444105D01*
X982185Y442451D01*
X983451Y441185D01*
X985105Y440500D01*
X986895D01*
X988549Y441185D01*
X989815Y442451D01*
X990500Y444105D01*
Y445895D01*
X989815Y447549D01*
X988549Y448815D01*
X986895Y449500D01*
D02*
G37*
G36*
X974895D02*
X973105D01*
X971451Y448815D01*
X970185Y447549D01*
X969500Y445895D01*
Y444105D01*
X970185Y442451D01*
X971451Y441185D01*
X973105Y440500D01*
X974895D01*
X976549Y441185D01*
X977815Y442451D01*
X978500Y444105D01*
Y445895D01*
X977815Y447549D01*
X976549Y448815D01*
X974895Y449500D01*
D02*
G37*
G36*
X997895Y448500D02*
X996105D01*
X994451Y447815D01*
X993185Y446549D01*
X992500Y444895D01*
Y443105D01*
X993185Y441451D01*
X994451Y440185D01*
X996105Y439500D01*
X997895D01*
X999549Y440185D01*
X1000815Y441451D01*
X1001500Y443105D01*
Y444895D01*
X1000815Y446549D01*
X999549Y447815D01*
X997895Y448500D01*
D02*
G37*
G36*
X900895Y447000D02*
X899105D01*
X897451Y446315D01*
X896185Y445049D01*
X895500Y443395D01*
Y441605D01*
X896185Y439951D01*
X897451Y438685D01*
X899105Y438000D01*
X900895D01*
X902549Y438685D01*
X903815Y439951D01*
X904500Y441605D01*
Y443395D01*
X903815Y445049D01*
X902549Y446315D01*
X900895Y447000D01*
D02*
G37*
G36*
X954895Y445500D02*
X953105D01*
X951451Y444815D01*
X950185Y443549D01*
X949500Y441895D01*
Y440105D01*
X950185Y438451D01*
X951451Y437185D01*
X953105Y436500D01*
X954895D01*
X956549Y437185D01*
X957815Y438451D01*
X958500Y440105D01*
Y441895D01*
X957815Y443549D01*
X956549Y444815D01*
X954895Y445500D01*
D02*
G37*
G36*
X480995Y445000D02*
X479005D01*
X477168Y444239D01*
X475761Y442832D01*
X475000Y440995D01*
Y439005D01*
X475761Y437168D01*
X477168Y435761D01*
X479005Y435000D01*
X480995D01*
X482832Y435761D01*
X484239Y437168D01*
X485000Y439005D01*
Y440995D01*
X484239Y442832D01*
X482832Y444239D01*
X480995Y445000D01*
D02*
G37*
G36*
X528895Y442000D02*
X527105D01*
X525451Y441315D01*
X524185Y440049D01*
X523500Y438395D01*
Y436605D01*
X524185Y434951D01*
X525451Y433685D01*
X527105Y433000D01*
X528895D01*
X530549Y433685D01*
X531815Y434951D01*
X532500Y436605D01*
Y438395D01*
X531815Y440049D01*
X530549Y441315D01*
X528895Y442000D01*
D02*
G37*
G36*
X1038951Y437200D02*
X1038700D01*
Y428700D01*
X1047200D01*
Y428951D01*
X1046553Y431367D01*
X1045302Y433533D01*
X1043533Y435302D01*
X1041367Y436553D01*
X1038951Y437200D01*
D02*
G37*
G36*
X1036700D02*
X1036449D01*
X1034033Y436553D01*
X1031867Y435302D01*
X1030098Y433533D01*
X1028847Y431367D01*
X1028200Y428951D01*
Y428700D01*
X1036700D01*
Y437200D01*
D02*
G37*
G36*
X370072Y433101D02*
X368282D01*
X366628Y432416D01*
X365362Y431151D01*
X364677Y429497D01*
Y427706D01*
X365362Y426052D01*
X366628Y424787D01*
X368282Y424101D01*
X370072D01*
X371726Y424787D01*
X372992Y426052D01*
X373677Y427706D01*
Y429497D01*
X372992Y431151D01*
X371726Y432416D01*
X370072Y433101D01*
D02*
G37*
G36*
X1047200Y426700D02*
X1038700D01*
Y418200D01*
X1038951D01*
X1041367Y418847D01*
X1043533Y420098D01*
X1045302Y421867D01*
X1046553Y424033D01*
X1047200Y426449D01*
Y426700D01*
D02*
G37*
G36*
X1036700D02*
X1028200D01*
Y426449D01*
X1028847Y424033D01*
X1030098Y421867D01*
X1031867Y420098D01*
X1034033Y418847D01*
X1036449Y418200D01*
X1036700D01*
Y426700D01*
D02*
G37*
G36*
X1013551Y437200D02*
X1011049D01*
X1008633Y436553D01*
X1006467Y435302D01*
X1004698Y433533D01*
X1003447Y431367D01*
X1002800Y428951D01*
Y426449D01*
X1003447Y424033D01*
X1004698Y421867D01*
X1006467Y420098D01*
X1008633Y418847D01*
X1011049Y418200D01*
X1013551D01*
X1015967Y418847D01*
X1018133Y420098D01*
X1019902Y421867D01*
X1021153Y424033D01*
X1021800Y426449D01*
Y428951D01*
X1021153Y431367D01*
X1019902Y433533D01*
X1018133Y435302D01*
X1015967Y436553D01*
X1013551Y437200D01*
D02*
G37*
G36*
X528895Y424500D02*
X527105D01*
X525451Y423815D01*
X524185Y422549D01*
X523500Y420895D01*
Y419105D01*
X524185Y417451D01*
X525451Y416185D01*
X527105Y415500D01*
X528895D01*
X530549Y416185D01*
X531815Y417451D01*
X532500Y419105D01*
Y420895D01*
X531815Y422549D01*
X530549Y423815D01*
X528895Y424500D01*
D02*
G37*
G36*
X440895D02*
X439105D01*
X437451Y423815D01*
X436185Y422549D01*
X435500Y420895D01*
Y419105D01*
X436185Y417451D01*
X437451Y416185D01*
X439105Y415500D01*
X440895D01*
X442549Y416185D01*
X443815Y417451D01*
X444500Y419105D01*
Y420895D01*
X443815Y422549D01*
X442549Y423815D01*
X440895Y424500D01*
D02*
G37*
G36*
X500995Y425000D02*
X499005D01*
X497168Y424239D01*
X495761Y422832D01*
X495000Y420995D01*
Y419005D01*
X495761Y417168D01*
X497168Y415761D01*
X499005Y415000D01*
X500995D01*
X502832Y415761D01*
X504239Y417168D01*
X505000Y419005D01*
Y420995D01*
X504239Y422832D01*
X502832Y424239D01*
X500995Y425000D01*
D02*
G37*
G36*
X785895Y431500D02*
X784105D01*
X782451Y430815D01*
X781185Y429549D01*
X780500Y427895D01*
Y426105D01*
X781185Y424451D01*
X782451Y423185D01*
X784105Y422500D01*
X784926D01*
X785278Y421937D01*
X785549Y421230D01*
X784932Y419741D01*
Y417951D01*
X785617Y416297D01*
X786883Y415031D01*
X788537Y414346D01*
X790327D01*
X791981Y415031D01*
X793247Y416297D01*
X793932Y417951D01*
Y419741D01*
X793689Y420327D01*
X793771Y420557D01*
X794578Y421500D01*
X795895D01*
X797549Y422185D01*
X798815Y423451D01*
X799500Y425105D01*
Y426895D01*
X798815Y428549D01*
X797549Y429815D01*
X795895Y430500D01*
X794105D01*
X792451Y429815D01*
X791185Y428549D01*
X790770Y427547D01*
X789500Y427799D01*
Y427895D01*
X788815Y429549D01*
X787549Y430815D01*
X785895Y431500D01*
D02*
G37*
G36*
X995895Y419500D02*
X994105D01*
X992451Y418815D01*
X991185Y417549D01*
X990500Y415895D01*
Y414105D01*
X991185Y412451D01*
X992451Y411185D01*
X994105Y410500D01*
X995895D01*
X997549Y411185D01*
X998815Y412451D01*
X999500Y414105D01*
Y415895D01*
X998815Y417549D01*
X997549Y418815D01*
X995895Y419500D01*
D02*
G37*
G36*
X941895D02*
X940105D01*
X938451Y418815D01*
X937185Y417549D01*
X936500Y415895D01*
Y414105D01*
X937185Y412451D01*
X938451Y411185D01*
X940105Y410500D01*
X941895D01*
X943549Y411185D01*
X944815Y412451D01*
X945500Y414105D01*
Y415895D01*
X944815Y417549D01*
X943549Y418815D01*
X941895Y419500D01*
D02*
G37*
G36*
X363395Y414500D02*
X361605D01*
X359951Y413815D01*
X358685Y412549D01*
X358000Y410895D01*
Y409105D01*
X358685Y407451D01*
X359951Y406185D01*
X361605Y405500D01*
X363395D01*
X365049Y406185D01*
X366315Y407451D01*
X367000Y409105D01*
Y410895D01*
X366315Y412549D01*
X365049Y413815D01*
X363395Y414500D01*
D02*
G37*
G36*
X759895Y433500D02*
X758105D01*
X756451Y432815D01*
X755185Y431549D01*
X754500Y429895D01*
Y428105D01*
X755185Y426451D01*
X755113Y426089D01*
X754451Y425815D01*
X753185Y424549D01*
X752500Y422895D01*
Y421105D01*
X752679Y420673D01*
X751983Y419035D01*
X751451Y418815D01*
X750185Y417549D01*
X749500Y415895D01*
Y414105D01*
X750185Y412451D01*
X751451Y411185D01*
X753105Y410500D01*
X754096D01*
X754500Y409895D01*
Y408105D01*
X755185Y406451D01*
X756451Y405185D01*
X758105Y404500D01*
X759895D01*
X761549Y405185D01*
X762815Y406451D01*
X763500Y408105D01*
Y409895D01*
X762815Y411549D01*
X761549Y412815D01*
X759895Y413500D01*
X758904D01*
X758500Y414105D01*
Y415895D01*
X758321Y416327D01*
X759017Y417965D01*
X759549Y418185D01*
X760815Y419451D01*
X761500Y421105D01*
Y422895D01*
X761151Y423737D01*
X761549Y425185D01*
X762815Y426451D01*
X763500Y428105D01*
Y429895D01*
X762815Y431549D01*
X761549Y432815D01*
X759895Y433500D01*
D02*
G37*
G36*
X776895Y412500D02*
X775105D01*
X773451Y411815D01*
X772185Y410549D01*
X771500Y408895D01*
Y407105D01*
X772185Y405451D01*
X773451Y404185D01*
X775105Y403500D01*
X776895D01*
X778549Y404185D01*
X779815Y405451D01*
X780500Y407105D01*
Y408895D01*
X779815Y410549D01*
X778549Y411815D01*
X776895Y412500D01*
D02*
G37*
G36*
X791895Y411500D02*
X790105D01*
X788451Y410815D01*
X787185Y409549D01*
X786500Y407895D01*
Y406105D01*
X787185Y404451D01*
X788451Y403185D01*
X790105Y402500D01*
X791895D01*
X793549Y403185D01*
X794815Y404451D01*
X795500Y406105D01*
Y407895D01*
X794815Y409549D01*
X793549Y410815D01*
X791895Y411500D01*
D02*
G37*
G36*
X863395Y407000D02*
X861605D01*
X859951Y406315D01*
X858685Y405049D01*
X858000Y403395D01*
Y401605D01*
X858685Y399951D01*
X859951Y398685D01*
X861605Y398000D01*
X863395D01*
X865049Y398685D01*
X866315Y399951D01*
X867000Y401605D01*
Y403395D01*
X866315Y405049D01*
X865049Y406315D01*
X863395Y407000D01*
D02*
G37*
G36*
X1038951Y411800D02*
X1036449D01*
X1034033Y411152D01*
X1031867Y409902D01*
X1030098Y408133D01*
X1028847Y405967D01*
X1028200Y403551D01*
Y401049D01*
X1028847Y398633D01*
X1030098Y396467D01*
X1031867Y394698D01*
X1034033Y393447D01*
X1036449Y392800D01*
X1038951D01*
X1041367Y393447D01*
X1043533Y394698D01*
X1045302Y396467D01*
X1046553Y398633D01*
X1047200Y401049D01*
Y403551D01*
X1046553Y405967D01*
X1045302Y408133D01*
X1043533Y409902D01*
X1041367Y411152D01*
X1038951Y411800D01*
D02*
G37*
G36*
X1013551D02*
X1011049D01*
X1008633Y411152D01*
X1006467Y409902D01*
X1004698Y408133D01*
X1003447Y405967D01*
X1002800Y403551D01*
Y401049D01*
X1003447Y398633D01*
X1004698Y396467D01*
X1006467Y394698D01*
X1008633Y393447D01*
X1011049Y392800D01*
X1013551D01*
X1015967Y393447D01*
X1018133Y394698D01*
X1019902Y396467D01*
X1021153Y398633D01*
X1021800Y401049D01*
Y403551D01*
X1021153Y405967D01*
X1019902Y408133D01*
X1018133Y409902D01*
X1015967Y411152D01*
X1013551Y411800D01*
D02*
G37*
G36*
X365995Y402500D02*
X364005D01*
X362168Y401739D01*
X360761Y400332D01*
X360000Y398495D01*
Y396505D01*
X360761Y394668D01*
X362168Y393261D01*
X364005Y392500D01*
X365995D01*
X367832Y393261D01*
X369239Y394668D01*
X370000Y396505D01*
Y398495D01*
X369239Y400332D01*
X367832Y401739D01*
X365995Y402500D01*
D02*
G37*
G36*
X995895Y399500D02*
X994105D01*
X992451Y398815D01*
X991185Y397549D01*
X990500Y395895D01*
Y394105D01*
X991185Y392451D01*
X992451Y391185D01*
X994105Y390500D01*
X995895D01*
X997549Y391185D01*
X998815Y392451D01*
X999500Y394105D01*
Y395895D01*
X998815Y397549D01*
X997549Y398815D01*
X995895Y399500D01*
D02*
G37*
G36*
X762895Y390500D02*
X761105D01*
X759451Y389815D01*
X758185Y388549D01*
X757500Y386895D01*
Y386800D01*
X756230Y386547D01*
X755815Y387549D01*
X754549Y388815D01*
X752895Y389500D01*
X751105D01*
X749451Y388815D01*
X748185Y387549D01*
X747876Y387488D01*
X747549Y387815D01*
X745895Y388500D01*
X744105D01*
X742451Y387815D01*
X741830Y387194D01*
X741000Y386667D01*
X740170Y387194D01*
X739549Y387815D01*
X737895Y388500D01*
X736105D01*
X734451Y387815D01*
X733185Y386549D01*
X732551Y386813D01*
X732549Y386815D01*
X730895Y387500D01*
X729105D01*
X727451Y386815D01*
X726185Y385549D01*
X725500Y383895D01*
Y382105D01*
X726185Y380451D01*
X727451Y379185D01*
X729105Y378500D01*
X730895D01*
X732549Y379185D01*
X733815Y380451D01*
X734449Y380187D01*
X734451Y380185D01*
X736105Y379500D01*
X737895D01*
X739549Y380185D01*
X740170Y380806D01*
X741000Y381333D01*
X741830Y380806D01*
X742451Y380185D01*
X744105Y379500D01*
X745895D01*
X747549Y380185D01*
X748815Y381451D01*
X749124Y381512D01*
X749451Y381185D01*
X751105Y380500D01*
X752895D01*
X754549Y381185D01*
X755815Y382451D01*
X756500Y384105D01*
Y384201D01*
X757770Y384453D01*
X758185Y383451D01*
X759451Y382185D01*
X761105Y381500D01*
X762895D01*
X764549Y382185D01*
X765815Y383451D01*
X766500Y385105D01*
Y386895D01*
X765815Y388549D01*
X764549Y389815D01*
X762895Y390500D01*
D02*
G37*
G36*
X457895Y389500D02*
X456105D01*
X454451Y388815D01*
X453185Y387549D01*
X452500Y385895D01*
Y384105D01*
X453185Y382451D01*
X454451Y381185D01*
X456105Y380500D01*
X457895D01*
X459549Y381185D01*
X460815Y382451D01*
X461500Y384105D01*
Y385895D01*
X460815Y387549D01*
X459549Y388815D01*
X457895Y389500D01*
D02*
G37*
G36*
X676895Y388500D02*
X675105D01*
X673451Y387815D01*
X672185Y386549D01*
X671500Y384895D01*
Y383105D01*
X672185Y381451D01*
X673451Y380185D01*
X675105Y379500D01*
X676895D01*
X678549Y380185D01*
X678551Y380187D01*
X679185Y380451D01*
X680451Y379185D01*
X682105Y378500D01*
X683895D01*
X685549Y379185D01*
X686815Y380451D01*
X687500Y382105D01*
Y383895D01*
X686815Y385549D01*
X685549Y386815D01*
X683895Y387500D01*
X682105D01*
X680451Y386815D01*
X680449Y386813D01*
X679815Y386549D01*
X678549Y387815D01*
X676895Y388500D01*
D02*
G37*
G36*
X929895Y381500D02*
X928105D01*
X926451Y380815D01*
X925185Y379549D01*
X924500Y377895D01*
Y376105D01*
X925185Y374451D01*
X926451Y373185D01*
X928105Y372500D01*
X929895D01*
X931549Y373185D01*
X932815Y374451D01*
X933500Y376105D01*
Y377895D01*
X932815Y379549D01*
X931549Y380815D01*
X929895Y381500D01*
D02*
G37*
G36*
X667895D02*
X666105D01*
X664451Y380815D01*
X663185Y379549D01*
X662500Y377895D01*
Y376105D01*
X663185Y374451D01*
X664451Y373185D01*
X666105Y372500D01*
X667895D01*
X669549Y373185D01*
X670815Y374451D01*
X671500Y376105D01*
Y377895D01*
X670815Y379549D01*
X669549Y380815D01*
X667895Y381500D01*
D02*
G37*
G36*
X655895D02*
X654105D01*
X652451Y380815D01*
X651185Y379549D01*
X650500Y377895D01*
Y376105D01*
X651185Y374451D01*
X652451Y373185D01*
X654105Y372500D01*
X655895D01*
X657549Y373185D01*
X658815Y374451D01*
X659500Y376105D01*
Y377895D01*
X658815Y379549D01*
X657549Y380815D01*
X655895Y381500D01*
D02*
G37*
G36*
X640895Y380500D02*
X639105D01*
X637451Y379815D01*
X636185Y378549D01*
X635500Y376895D01*
Y375105D01*
X636185Y373451D01*
X637451Y372185D01*
X639105Y371500D01*
X640895D01*
X642549Y372185D01*
X643815Y373451D01*
X644500Y375105D01*
Y376895D01*
X643815Y378549D01*
X642549Y379815D01*
X640895Y380500D01*
D02*
G37*
G36*
X995895Y379500D02*
X994105D01*
X992451Y378815D01*
X991185Y377549D01*
X990500Y375895D01*
Y374105D01*
X991185Y372451D01*
X992451Y371185D01*
X994105Y370500D01*
X995895D01*
X997549Y371185D01*
X998815Y372451D01*
X999500Y374105D01*
Y375895D01*
X998815Y377549D01*
X997549Y378815D01*
X995895Y379500D01*
D02*
G37*
G36*
X619895Y379000D02*
X618105D01*
X616451Y378315D01*
X615185Y377049D01*
X614500Y375395D01*
Y373605D01*
X615185Y371951D01*
X616451Y370685D01*
X618105Y370000D01*
X619895D01*
X621549Y370685D01*
X622815Y371951D01*
X623500Y373605D01*
Y375395D01*
X622815Y377049D01*
X621549Y378315D01*
X619895Y379000D01*
D02*
G37*
G36*
X702895Y378500D02*
X701105D01*
X699451Y377815D01*
X698185Y376549D01*
X697500Y374895D01*
Y373105D01*
X698185Y371451D01*
X699451Y370185D01*
X701105Y369500D01*
X702895D01*
X704549Y370185D01*
X705815Y371451D01*
X706500Y373105D01*
Y374895D01*
X705815Y376549D01*
X704549Y377815D01*
X702895Y378500D01*
D02*
G37*
G36*
X689895D02*
X688105D01*
X686451Y377815D01*
X685185Y376549D01*
X684500Y374895D01*
Y373105D01*
X685185Y371451D01*
X686451Y370185D01*
X688105Y369500D01*
X689895D01*
X691549Y370185D01*
X692815Y371451D01*
X693500Y373105D01*
Y374895D01*
X692815Y376549D01*
X691549Y377815D01*
X689895Y378500D01*
D02*
G37*
G36*
X399084Y376589D02*
X397294D01*
X395640Y375904D01*
X394374Y374638D01*
X393689Y372984D01*
Y371194D01*
X394374Y369540D01*
X395640Y368274D01*
X397294Y367589D01*
X399084D01*
X400738Y368274D01*
X402004Y369540D01*
X402689Y371194D01*
Y372984D01*
X402004Y374638D01*
X400738Y375904D01*
X399084Y376589D01*
D02*
G37*
G36*
X358495Y377500D02*
X356505D01*
X354668Y376739D01*
X353261Y375332D01*
X352500Y373495D01*
Y371505D01*
X353261Y369668D01*
X354668Y368261D01*
X356505Y367500D01*
X358495D01*
X360332Y368261D01*
X361739Y369668D01*
X362500Y371505D01*
Y373495D01*
X361739Y375332D01*
X360332Y376739D01*
X358495Y377500D01*
D02*
G37*
G36*
X1038951Y386400D02*
X1036449D01*
X1034033Y385752D01*
X1031867Y384502D01*
X1030098Y382733D01*
X1028847Y380567D01*
X1028200Y378151D01*
Y375649D01*
X1028847Y373233D01*
X1030098Y371067D01*
X1031867Y369298D01*
X1034033Y368047D01*
X1036449Y367400D01*
X1038951D01*
X1041367Y368047D01*
X1043533Y369298D01*
X1045302Y371067D01*
X1046553Y373233D01*
X1047200Y375649D01*
Y378151D01*
X1046553Y380567D01*
X1045302Y382733D01*
X1043533Y384502D01*
X1041367Y385752D01*
X1038951Y386400D01*
D02*
G37*
G36*
X1021800D02*
X1002800D01*
Y367400D01*
X1021800D01*
Y386400D01*
D02*
G37*
G36*
X916895Y375500D02*
X915105D01*
X913451Y374815D01*
X912185Y373549D01*
X911500Y371895D01*
Y370105D01*
X912185Y368451D01*
X913451Y367185D01*
X915105Y366500D01*
X916895D01*
X918549Y367185D01*
X919815Y368451D01*
X920500Y370105D01*
Y371895D01*
X919815Y373549D01*
X918549Y374815D01*
X916895Y375500D01*
D02*
G37*
G36*
X323495Y375000D02*
X321505D01*
X319668Y374239D01*
X318261Y372832D01*
X317500Y370995D01*
Y369005D01*
X318261Y367168D01*
X319668Y365761D01*
X321505Y365000D01*
X323495D01*
X325332Y365761D01*
X326739Y367168D01*
X327500Y369005D01*
Y370995D01*
X326739Y372832D01*
X325332Y374239D01*
X323495Y375000D01*
D02*
G37*
G36*
X818395Y364500D02*
X816605D01*
X814951Y363815D01*
X813685Y362549D01*
X813000Y360895D01*
Y359105D01*
X813685Y357451D01*
X814951Y356185D01*
X816605Y355500D01*
X818395D01*
X820049Y356185D01*
X821315Y357451D01*
X822000Y359105D01*
Y360895D01*
X821315Y362549D01*
X820049Y363815D01*
X818395Y364500D01*
D02*
G37*
G36*
X1043395Y362000D02*
X1041605D01*
X1039951Y361315D01*
X1038685Y360049D01*
X1038000Y358395D01*
Y356605D01*
X1038685Y354951D01*
X1039951Y353685D01*
X1041605Y353000D01*
X1043395D01*
X1045049Y353685D01*
X1046315Y354951D01*
X1047000Y356605D01*
Y358395D01*
X1046315Y360049D01*
X1045049Y361315D01*
X1043395Y362000D01*
D02*
G37*
G36*
X900895D02*
X899105D01*
X897451Y361315D01*
X896185Y360049D01*
X895500Y358395D01*
Y356605D01*
X896185Y354951D01*
X897451Y353685D01*
X899105Y353000D01*
X900895D01*
X902549Y353685D01*
X903815Y354951D01*
X904500Y356605D01*
Y358395D01*
X903815Y360049D01*
X902549Y361315D01*
X900895Y362000D01*
D02*
G37*
G36*
X606895Y366500D02*
X605105D01*
X603451Y365815D01*
X602185Y364549D01*
X601500Y362895D01*
Y361105D01*
X602185Y359451D01*
X603326Y358311D01*
X603452Y358101D01*
X603475Y356800D01*
X602685Y356011D01*
X602000Y354357D01*
Y352567D01*
X602685Y350913D01*
X603951Y349647D01*
X605605Y348962D01*
X607395D01*
X609049Y349647D01*
X610315Y350913D01*
X611000Y352567D01*
Y354357D01*
X610315Y356011D01*
X609174Y357151D01*
X609048Y357361D01*
X609025Y358661D01*
X609815Y359451D01*
X610500Y361105D01*
Y362895D01*
X609815Y364549D01*
X608549Y365815D01*
X606895Y366500D01*
D02*
G37*
G36*
X703895Y355500D02*
X702105D01*
X700451Y354815D01*
X699185Y353549D01*
X698500Y351895D01*
Y350105D01*
X699185Y348451D01*
X700451Y347185D01*
X702105Y346500D01*
X703895D01*
X705549Y347185D01*
X706815Y348451D01*
X707500Y350105D01*
Y351895D01*
X706815Y353549D01*
X705549Y354815D01*
X703895Y355500D01*
D02*
G37*
G36*
X687895Y354500D02*
X686105D01*
X684451Y353815D01*
X683185Y352549D01*
X682500Y350895D01*
Y349105D01*
X683185Y347451D01*
X684451Y346185D01*
X686105Y345500D01*
X687895D01*
X689549Y346185D01*
X690815Y347451D01*
X691500Y349105D01*
Y350895D01*
X690815Y352549D01*
X689549Y353815D01*
X687895Y354500D01*
D02*
G37*
G36*
X968395Y347000D02*
X966605D01*
X964951Y346315D01*
X963685Y345049D01*
X963224Y343936D01*
X961881Y343553D01*
X961800Y343564D01*
X961549Y343815D01*
X959895Y344500D01*
X958105D01*
X956451Y343815D01*
X955571Y342935D01*
X954481Y342851D01*
X954024Y343047D01*
X952832Y344239D01*
X950995Y345000D01*
X949005D01*
X947168Y344239D01*
X945761Y342832D01*
X945000Y340995D01*
Y339005D01*
X945761Y337168D01*
X947168Y335761D01*
X949005Y335000D01*
X950995D01*
X952832Y335761D01*
X954024Y336953D01*
X954481Y337149D01*
X955571Y337065D01*
X956451Y336185D01*
X958105Y335500D01*
X959895D01*
X961549Y336185D01*
X962815Y337451D01*
X963276Y338564D01*
X964620Y338947D01*
X964700Y338936D01*
X964951Y338685D01*
X966605Y338000D01*
X968395D01*
X970049Y338685D01*
X971315Y339951D01*
X972000Y341605D01*
Y343395D01*
X971315Y345049D01*
X970049Y346315D01*
X968395Y347000D01*
D02*
G37*
G36*
X644895Y355500D02*
X643105D01*
X641451Y354815D01*
X640185Y353549D01*
X639674Y352316D01*
X638395Y351472D01*
X636605D01*
X634951Y350787D01*
X633685Y349521D01*
X633000Y347867D01*
Y346077D01*
X633685Y344422D01*
X634951Y343157D01*
X636605Y342472D01*
X638395D01*
X640049Y343157D01*
X641315Y344422D01*
X641825Y345655D01*
X643105Y346500D01*
X644895D01*
X646549Y347185D01*
X647815Y348451D01*
X648500Y350105D01*
Y351895D01*
X647815Y353549D01*
X646549Y354815D01*
X644895Y355500D01*
D02*
G37*
G36*
X770000Y354588D02*
X745100D01*
X743345Y354239D01*
X741856Y353244D01*
X730474Y341862D01*
X728976Y342160D01*
X728815Y342549D01*
X727549Y343815D01*
X725895Y344500D01*
X724105D01*
X722451Y343815D01*
X721185Y342549D01*
X720500Y340895D01*
Y339105D01*
X721185Y337451D01*
X722451Y336185D01*
X722840Y336024D01*
X723138Y334526D01*
X713200Y324588D01*
X614901D01*
X609244Y330244D01*
X608869Y330495D01*
X608549Y330815D01*
X608132Y330988D01*
X607756Y331239D01*
X607313Y331327D01*
X606895Y331500D01*
X606443D01*
X606000Y331588D01*
X605557Y331500D01*
X605105D01*
X604688Y331327D01*
X604244Y331239D01*
X603868Y330988D01*
X603451Y330815D01*
X603131Y330495D01*
X602756Y330244D01*
X602505Y329869D01*
X602185Y329549D01*
X602012Y329132D01*
X601761Y328756D01*
X601673Y328313D01*
X601500Y327895D01*
Y327443D01*
X601412Y327000D01*
X601500Y326557D01*
Y326105D01*
X601673Y325687D01*
X601761Y325244D01*
X602012Y324868D01*
X602185Y324451D01*
X602505Y324132D01*
X602756Y323756D01*
X607750Y318762D01*
X607264Y317588D01*
X595900D01*
X587244Y326244D01*
X586869Y326495D01*
X586549Y326815D01*
X586132Y326988D01*
X585756Y327239D01*
X585312Y327327D01*
X584895Y327500D01*
X584443D01*
X584000Y327588D01*
X583557Y327500D01*
X583105D01*
X582687Y327327D01*
X582244Y327239D01*
X581868Y326988D01*
X581451Y326815D01*
X581132Y326495D01*
X580756Y326244D01*
X580505Y325868D01*
X580185Y325549D01*
X580012Y325132D01*
X579761Y324756D01*
X579673Y324313D01*
X579500Y323895D01*
Y323443D01*
X579412Y323000D01*
X579500Y322557D01*
Y322105D01*
X579673Y321687D01*
X579761Y321244D01*
X580012Y320868D01*
X580185Y320451D01*
X580505Y320131D01*
X580756Y319756D01*
X581710Y318802D01*
X581462Y317556D01*
X581001Y317365D01*
X579735Y316099D01*
X579050Y314445D01*
Y312655D01*
X579735Y311001D01*
X581001Y309735D01*
X582655Y309050D01*
X584445D01*
X586099Y309735D01*
X587365Y311001D01*
X587556Y311462D01*
X588802Y311710D01*
X590756Y309756D01*
X592244Y308761D01*
X594000Y308412D01*
X655389D01*
X656016Y307142D01*
X655500Y305895D01*
Y304105D01*
X656185Y302451D01*
X657451Y301185D01*
X659105Y300500D01*
X660895D01*
X662549Y301185D01*
X663815Y302451D01*
X664500Y304105D01*
Y305895D01*
X663984Y307142D01*
X664611Y308412D01*
X670388D01*
X671016Y307142D01*
X670500Y305895D01*
Y304105D01*
X671185Y302451D01*
X672451Y301185D01*
X674105Y300500D01*
X675895D01*
X677549Y301185D01*
X678815Y302451D01*
X679500Y304105D01*
Y305895D01*
X678984Y307142D01*
X679611Y308412D01*
X699985D01*
X700691Y307356D01*
X700500Y306895D01*
Y305105D01*
X701185Y303451D01*
X702451Y302185D01*
X704105Y301500D01*
X705895D01*
X707439Y302140D01*
X708685Y302451D01*
X709951Y301185D01*
X711605Y300500D01*
X713395D01*
X715049Y301185D01*
X716315Y302451D01*
X716827Y303687D01*
X718000Y303395D01*
X718000Y302601D01*
Y301605D01*
X718685Y299951D01*
X719951Y298685D01*
X721605Y298000D01*
X723395D01*
X725049Y298685D01*
X726315Y299951D01*
X727000Y301605D01*
Y303395D01*
X726315Y305049D01*
X725049Y306315D01*
X723395Y307000D01*
X721605D01*
X719951Y306315D01*
X718685Y305049D01*
X718173Y303813D01*
X717000Y304105D01*
X717000Y304899D01*
Y305895D01*
X716484Y307142D01*
X717111Y308412D01*
X718000D01*
X719756Y308761D01*
X721244Y309756D01*
X744400Y332912D01*
X757500D01*
X757943Y333000D01*
X758395D01*
X758813Y333173D01*
X759256Y333261D01*
X759632Y333512D01*
X760049Y333685D01*
X760369Y334005D01*
X760744Y334256D01*
X760995Y334632D01*
X761315Y334951D01*
X761488Y335368D01*
X761739Y335744D01*
X761827Y336187D01*
X762000Y336605D01*
Y337057D01*
X762088Y337500D01*
X762000Y337943D01*
Y338395D01*
X761827Y338813D01*
X761739Y339256D01*
X761488Y339632D01*
X761315Y340049D01*
X760995Y340369D01*
X760744Y340744D01*
X760369Y340995D01*
X760049Y341315D01*
X759632Y341488D01*
X759256Y341739D01*
X758813Y341827D01*
X758395Y342000D01*
X757943D01*
X757500Y342088D01*
X745337D01*
X744851Y343261D01*
X747001Y345412D01*
X770000D01*
X770443Y345500D01*
X770895D01*
X771313Y345673D01*
X771756Y345761D01*
X772132Y346012D01*
X772549Y346185D01*
X772869Y346505D01*
X773244Y346756D01*
X773495Y347132D01*
X773815Y347451D01*
X773988Y347868D01*
X774239Y348244D01*
X774327Y348687D01*
X774500Y349105D01*
Y349557D01*
X774588Y350000D01*
X774500Y350443D01*
Y350895D01*
X774327Y351313D01*
X774239Y351756D01*
X773988Y352132D01*
X773815Y352549D01*
X773495Y352869D01*
X773244Y353244D01*
X772869Y353495D01*
X772549Y353815D01*
X772132Y353988D01*
X771756Y354239D01*
X771313Y354327D01*
X770895Y354500D01*
X770443D01*
X770000Y354588D01*
D02*
G37*
G36*
X929808Y348587D02*
X928017D01*
X926364Y347902D01*
X925098Y346637D01*
X924413Y344983D01*
Y343192D01*
X925098Y341539D01*
X926364Y340273D01*
X928017Y339588D01*
X929808D01*
X931461Y340273D01*
X932727Y341539D01*
X933412Y343192D01*
Y344983D01*
X932727Y346637D01*
X931461Y347902D01*
X929808Y348587D01*
D02*
G37*
G36*
X616895Y348500D02*
X615105D01*
X613451Y347815D01*
X612185Y346549D01*
X611500Y344895D01*
Y343105D01*
X612185Y341451D01*
X613451Y340185D01*
X615105Y339500D01*
X616895D01*
X618549Y340185D01*
X619815Y341451D01*
X620500Y343105D01*
Y344895D01*
X619815Y346549D01*
X618549Y347815D01*
X616895Y348500D01*
D02*
G37*
G36*
X383495Y347500D02*
X381505D01*
X379668Y346739D01*
X378261Y345332D01*
X377500Y343495D01*
Y341505D01*
X378261Y339668D01*
X379668Y338261D01*
X381505Y337500D01*
X383495D01*
X385332Y338261D01*
X386739Y339668D01*
X387500Y341505D01*
Y343495D01*
X386739Y345332D01*
X385332Y346739D01*
X383495Y347500D01*
D02*
G37*
G36*
X990895Y344500D02*
X989105D01*
X987451Y343815D01*
X986185Y342549D01*
X985500Y340895D01*
Y339105D01*
X986185Y337451D01*
X987451Y336185D01*
X989105Y335500D01*
X990895D01*
X992549Y336185D01*
X993815Y337451D01*
X994500Y339105D01*
Y340895D01*
X993815Y342549D01*
X992549Y343815D01*
X990895Y344500D01*
D02*
G37*
G36*
X299895D02*
X298105D01*
X296451Y343815D01*
X295185Y342549D01*
X294500Y340895D01*
Y339105D01*
X295185Y337451D01*
X296451Y336185D01*
X298105Y335500D01*
X299895D01*
X301549Y336185D01*
X302815Y337451D01*
X303500Y339105D01*
Y340895D01*
X302815Y342549D01*
X301549Y343815D01*
X299895Y344500D01*
D02*
G37*
G36*
X848395Y337000D02*
X846605D01*
X844951Y336315D01*
X843685Y335049D01*
X843000Y333395D01*
Y331605D01*
X843685Y329951D01*
X844951Y328685D01*
X846605Y328000D01*
X848395D01*
X850049Y328685D01*
X851315Y329951D01*
X852000Y331605D01*
Y333395D01*
X851315Y335049D01*
X850049Y336315D01*
X848395Y337000D01*
D02*
G37*
G36*
X818395Y334500D02*
X816605D01*
X814951Y333815D01*
X813685Y332549D01*
X813000Y330895D01*
Y329105D01*
X813685Y327451D01*
X814951Y326185D01*
X816605Y325500D01*
X818395D01*
X820049Y326185D01*
X821315Y327451D01*
X822000Y329105D01*
Y330895D01*
X821315Y332549D01*
X820049Y333815D01*
X818395Y334500D01*
D02*
G37*
G36*
X398495Y335000D02*
X396505D01*
X394668Y334239D01*
X393261Y332832D01*
X392500Y330995D01*
Y329005D01*
X393261Y327168D01*
X394668Y325761D01*
X396505Y325000D01*
X398495D01*
X400332Y325761D01*
X401739Y327168D01*
X402500Y329005D01*
Y330995D01*
X401739Y332832D01*
X400332Y334239D01*
X398495Y335000D01*
D02*
G37*
G36*
X566895Y351785D02*
X565105D01*
X563451Y351100D01*
X562185Y349834D01*
X561500Y348181D01*
Y346390D01*
X562185Y344736D01*
X563451Y343470D01*
X565105Y342785D01*
X566895D01*
X568549Y343470D01*
X569028Y343949D01*
X570149Y344435D01*
X570687Y343949D01*
X571451Y343185D01*
X571816Y341659D01*
X571500Y340895D01*
Y339105D01*
X572185Y337451D01*
X571857Y335983D01*
X571451Y335815D01*
X570185Y334549D01*
X569500Y332895D01*
Y331105D01*
X570185Y329451D01*
X569493Y328833D01*
X569451Y328815D01*
X568185Y327549D01*
X567500Y325895D01*
Y324105D01*
X568185Y322451D01*
X569451Y321185D01*
X571105Y320500D01*
X572895D01*
X574549Y321185D01*
X575815Y322451D01*
X576500Y324105D01*
Y325895D01*
X575815Y327549D01*
X576507Y328167D01*
X576549Y328185D01*
X577815Y329451D01*
X578500Y331105D01*
Y332895D01*
X577815Y334549D01*
X578143Y336017D01*
X578549Y336185D01*
X579815Y337451D01*
X580500Y339105D01*
Y340895D01*
X579815Y342549D01*
X578549Y343815D01*
X578507Y343833D01*
X577815Y344451D01*
X578500Y346105D01*
Y347895D01*
X577815Y349549D01*
X576549Y350815D01*
X574895Y351500D01*
X573105D01*
X571451Y350815D01*
X570972Y350336D01*
X569851Y349850D01*
X569313Y350336D01*
X568549Y351100D01*
X566895Y351785D01*
D02*
G37*
G36*
X299895Y328500D02*
X298105D01*
X296451Y327815D01*
X295185Y326549D01*
X294500Y324895D01*
Y323105D01*
X295185Y321451D01*
X296451Y320185D01*
X298105Y319500D01*
X299895D01*
X301549Y320185D01*
X302815Y321451D01*
X303500Y323105D01*
Y324895D01*
X302815Y326549D01*
X301549Y327815D01*
X299895Y328500D01*
D02*
G37*
G36*
X833395Y327000D02*
X831605D01*
X829951Y326315D01*
X828685Y325049D01*
X828000Y323395D01*
Y321605D01*
X828685Y319951D01*
X829951Y318685D01*
X831605Y318000D01*
X833395D01*
X835049Y318685D01*
X836315Y319951D01*
X837000Y321605D01*
Y323395D01*
X836315Y325049D01*
X835049Y326315D01*
X833395Y327000D01*
D02*
G37*
G36*
X990995Y315000D02*
X989005D01*
X987168Y314239D01*
X985761Y312832D01*
X985687Y312654D01*
X984313D01*
X984239Y312832D01*
X982832Y314239D01*
X980995Y315000D01*
X979005D01*
X977168Y314239D01*
X975761Y312832D01*
X975000Y310995D01*
Y309005D01*
X975761Y307168D01*
X977168Y305761D01*
X977472Y305635D01*
Y304365D01*
X977168Y304239D01*
X975761Y302832D01*
X975000Y300995D01*
Y299005D01*
X975761Y297168D01*
X977168Y295761D01*
X979005Y295000D01*
X980995D01*
X982832Y295761D01*
X984239Y297168D01*
X984313Y297346D01*
X985687D01*
X985761Y297168D01*
X987168Y295761D01*
X989005Y295000D01*
X990995D01*
X992832Y295761D01*
X994239Y297168D01*
X995000Y299005D01*
Y300995D01*
X994239Y302832D01*
X992832Y304239D01*
X992528Y304365D01*
Y305635D01*
X992832Y305761D01*
X994239Y307168D01*
X995000Y309005D01*
Y310995D01*
X994239Y312832D01*
X992832Y314239D01*
X990995Y315000D01*
D02*
G37*
G36*
X1040495Y319500D02*
X1038505D01*
X1036668Y318739D01*
X1035261Y317332D01*
X1034500Y315495D01*
Y313505D01*
X1035261Y311668D01*
X1036668Y310261D01*
X1038505Y309500D01*
X1040495D01*
X1042332Y310261D01*
X1043739Y311668D01*
X1044500Y313505D01*
Y315495D01*
X1043739Y317332D01*
X1042332Y318739D01*
X1040495Y319500D01*
D02*
G37*
G36*
X947895Y318500D02*
X946105D01*
X944451Y317815D01*
X943185Y316549D01*
X942500Y314895D01*
Y313105D01*
X943185Y311451D01*
X944451Y310185D01*
X946105Y309500D01*
X947895D01*
X949549Y310185D01*
X950815Y311451D01*
X951500Y313105D01*
Y314895D01*
X950815Y316549D01*
X949549Y317815D01*
X947895Y318500D01*
D02*
G37*
G36*
X928895D02*
X927105D01*
X925451Y317815D01*
X924185Y316549D01*
X923500Y314895D01*
Y313105D01*
X924185Y311451D01*
X925451Y310185D01*
X927105Y309500D01*
X928895D01*
X930549Y310185D01*
X931815Y311451D01*
X932500Y313105D01*
Y314895D01*
X931815Y316549D01*
X930549Y317815D01*
X928895Y318500D01*
D02*
G37*
G36*
X900995Y315000D02*
X899005D01*
X897168Y314239D01*
X895761Y312832D01*
X895000Y310995D01*
Y309005D01*
X895761Y307168D01*
X897168Y305761D01*
X899005Y305000D01*
X900995D01*
X902832Y305761D01*
X904239Y307168D01*
X905000Y309005D01*
Y310995D01*
X904239Y312832D01*
X902832Y314239D01*
X900995Y315000D01*
D02*
G37*
G36*
X885995D02*
X884005D01*
X882168Y314239D01*
X880761Y312832D01*
X880000Y310995D01*
Y309005D01*
X880761Y307168D01*
X882168Y305761D01*
X884005Y305000D01*
X885995D01*
X887832Y305761D01*
X889239Y307168D01*
X890000Y309005D01*
Y310995D01*
X889239Y312832D01*
X887832Y314239D01*
X885995Y315000D01*
D02*
G37*
G36*
X870995D02*
X869006D01*
X867168Y314239D01*
X865761Y312832D01*
X865000Y310995D01*
Y309005D01*
X865761Y307168D01*
X867168Y305761D01*
X869006Y305000D01*
X870995D01*
X872832Y305761D01*
X874239Y307168D01*
X875000Y309005D01*
Y310995D01*
X874239Y312832D01*
X872832Y314239D01*
X870995Y315000D01*
D02*
G37*
G36*
X570995D02*
X569005D01*
X567168Y314239D01*
X565761Y312832D01*
X565000Y310995D01*
Y309005D01*
X565761Y307168D01*
X567168Y305761D01*
X569005Y305000D01*
X570995D01*
X572832Y305761D01*
X574239Y307168D01*
X575000Y309005D01*
Y310995D01*
X574239Y312832D01*
X572832Y314239D01*
X570995Y315000D01*
D02*
G37*
G36*
X540995D02*
X539005D01*
X537168Y314239D01*
X535761Y312832D01*
X535000Y310995D01*
Y309005D01*
X535761Y307168D01*
X537168Y305761D01*
X539005Y305000D01*
X540995D01*
X542832Y305761D01*
X544239Y307168D01*
X545000Y309005D01*
Y310995D01*
X544239Y312832D01*
X542832Y314239D01*
X540995Y315000D01*
D02*
G37*
G36*
X765895Y310500D02*
X764105D01*
X762451Y309815D01*
X761185Y308549D01*
X760500Y306895D01*
Y305105D01*
X761185Y303451D01*
X762451Y302185D01*
X764105Y301500D01*
X765895D01*
X767549Y302185D01*
X768815Y303451D01*
X769500Y305105D01*
Y306895D01*
X768815Y308549D01*
X767549Y309815D01*
X765895Y310500D01*
D02*
G37*
G36*
X374895Y309500D02*
X373105D01*
X371451Y308815D01*
X370185Y307549D01*
X369500Y305895D01*
Y304105D01*
X370185Y302451D01*
X371451Y301185D01*
X373105Y300500D01*
X374895D01*
X376549Y301185D01*
X377815Y302451D01*
X378500Y304105D01*
Y305895D01*
X377815Y307549D01*
X376549Y308815D01*
X374895Y309500D01*
D02*
G37*
G36*
X635895Y306500D02*
X634105D01*
X632451Y305815D01*
X631185Y304549D01*
X630500Y302895D01*
Y301105D01*
X631185Y299451D01*
X632451Y298185D01*
X634105Y297500D01*
X635895D01*
X637549Y298185D01*
X638815Y299451D01*
X639500Y301105D01*
Y302895D01*
X638815Y304549D01*
X637549Y305815D01*
X635895Y306500D01*
D02*
G37*
G36*
X615895D02*
X614105D01*
X612451Y305815D01*
X611185Y304549D01*
X610500Y302895D01*
Y301105D01*
X611185Y299451D01*
X612451Y298185D01*
X614105Y297500D01*
X615895D01*
X617549Y298185D01*
X618815Y299451D01*
X619500Y301105D01*
Y302895D01*
X618815Y304549D01*
X617549Y305815D01*
X615895Y306500D01*
D02*
G37*
G36*
X299595Y305200D02*
X297805D01*
X296151Y304515D01*
X294885Y303249D01*
X294200Y301595D01*
Y299805D01*
X294885Y298151D01*
X296151Y296885D01*
X297805Y296200D01*
X299595D01*
X301249Y296885D01*
X302515Y298151D01*
X303200Y299805D01*
Y301595D01*
X302515Y303249D01*
X301249Y304515D01*
X299595Y305200D01*
D02*
G37*
G36*
X780895Y310500D02*
X779105D01*
X777451Y309815D01*
X776185Y308549D01*
X775500Y306895D01*
Y305105D01*
X776185Y303451D01*
X777451Y302185D01*
X779105Y301500D01*
X780096D01*
X780500Y300895D01*
Y299105D01*
X781185Y297451D01*
X782451Y296185D01*
X784105Y295500D01*
X785895D01*
X787549Y296185D01*
X788815Y297451D01*
X789500Y299105D01*
Y300895D01*
X788815Y302549D01*
X787549Y303815D01*
X785895Y304500D01*
X784904D01*
X784500Y305105D01*
Y306895D01*
X783815Y308549D01*
X782549Y309815D01*
X780895Y310500D01*
D02*
G37*
G36*
X922194Y304000D02*
X919807D01*
X917601Y303086D01*
X915913Y301399D01*
X915000Y299193D01*
Y296807D01*
X915913Y294601D01*
X917601Y292913D01*
X919807Y292000D01*
X922194D01*
X924399Y292913D01*
X926087Y294601D01*
X927000Y296807D01*
Y299193D01*
X926087Y301399D01*
X924399Y303086D01*
X922194Y304000D01*
D02*
G37*
G36*
X757561Y300664D02*
X755771D01*
X754117Y299979D01*
X752851Y298713D01*
X752166Y297059D01*
Y295269D01*
X752851Y293615D01*
X754117Y292349D01*
X755771Y291664D01*
X757561D01*
X759215Y292349D01*
X760481Y293615D01*
X761166Y295269D01*
Y297059D01*
X760481Y298713D01*
X759215Y299979D01*
X757561Y300664D01*
D02*
G37*
G36*
X900995Y300000D02*
X899005D01*
X897168Y299239D01*
X895761Y297832D01*
X895000Y295995D01*
Y294005D01*
X895761Y292168D01*
X897168Y290761D01*
X899005Y290000D01*
X900995D01*
X902832Y290761D01*
X904239Y292168D01*
X905000Y294005D01*
Y295995D01*
X904239Y297832D01*
X902832Y299239D01*
X900995Y300000D01*
D02*
G37*
G36*
X840995D02*
X839005D01*
X837168Y299239D01*
X835761Y297832D01*
X835000Y295995D01*
Y294005D01*
X835761Y292168D01*
X837168Y290761D01*
X839005Y290000D01*
X840995D01*
X842832Y290761D01*
X844239Y292168D01*
X845000Y294005D01*
Y295995D01*
X844239Y297832D01*
X842832Y299239D01*
X840995Y300000D01*
D02*
G37*
G36*
X1043395Y297000D02*
X1041605D01*
X1039951Y296315D01*
X1038685Y295049D01*
X1038000Y293395D01*
Y291605D01*
X1038685Y289951D01*
X1039951Y288685D01*
X1041605Y288000D01*
X1043395D01*
X1045049Y288685D01*
X1046315Y289951D01*
X1047000Y291605D01*
Y293395D01*
X1046315Y295049D01*
X1045049Y296315D01*
X1043395Y297000D01*
D02*
G37*
G36*
X680995Y295000D02*
X679005D01*
X677168Y294239D01*
X675761Y292832D01*
X675000Y290995D01*
Y289005D01*
X675761Y287168D01*
X677168Y285761D01*
X679005Y285000D01*
X680995D01*
X682832Y285761D01*
X684239Y287168D01*
X685000Y289005D01*
Y290995D01*
X684239Y292832D01*
X682832Y294239D01*
X680995Y295000D01*
D02*
G37*
G36*
X510995D02*
X509005D01*
X507168Y294239D01*
X505761Y292832D01*
X505000Y290995D01*
Y289005D01*
X505761Y287168D01*
X507168Y285761D01*
X509005Y285000D01*
X510995D01*
X512832Y285761D01*
X514239Y287168D01*
X515000Y289005D01*
Y290995D01*
X514239Y292832D01*
X512832Y294239D01*
X510995Y295000D01*
D02*
G37*
G36*
X299595Y289200D02*
X297805D01*
X296151Y288515D01*
X294885Y287249D01*
X294200Y285595D01*
Y283805D01*
X294885Y282151D01*
X296151Y280885D01*
X297805Y280200D01*
X299595D01*
X301249Y280885D01*
X302515Y282151D01*
X303200Y283805D01*
Y285595D01*
X302515Y287249D01*
X301249Y288515D01*
X299595Y289200D01*
D02*
G37*
G36*
X670895Y284500D02*
X669105D01*
X667451Y283815D01*
X666185Y282549D01*
X665500Y280895D01*
Y279105D01*
X666185Y277451D01*
X667451Y276185D01*
X669105Y275500D01*
X670895D01*
X672549Y276185D01*
X673815Y277451D01*
X674500Y279105D01*
Y280895D01*
X673815Y282549D01*
X672549Y283815D01*
X670895Y284500D01*
D02*
G37*
G36*
X900995Y285000D02*
X899005D01*
X897168Y284239D01*
X895761Y282832D01*
X895000Y280995D01*
Y279005D01*
X895761Y277168D01*
X897168Y275761D01*
X899005Y275000D01*
X900995D01*
X902832Y275761D01*
X904239Y277168D01*
X905000Y279005D01*
Y280995D01*
X904239Y282832D01*
X902832Y284239D01*
X900995Y285000D01*
D02*
G37*
G36*
X840995D02*
X839005D01*
X837168Y284239D01*
X835761Y282832D01*
X835000Y280995D01*
Y279005D01*
X835761Y277168D01*
X837168Y275761D01*
X839005Y275000D01*
X840995D01*
X842832Y275761D01*
X844239Y277168D01*
X845000Y279005D01*
Y280995D01*
X844239Y282832D01*
X842832Y284239D01*
X840995Y285000D01*
D02*
G37*
G36*
X738395Y282000D02*
X736605D01*
X734951Y281315D01*
X733685Y280049D01*
X733000Y278395D01*
Y276605D01*
X733685Y274951D01*
X734951Y273685D01*
X736605Y273000D01*
X738395D01*
X740049Y273685D01*
X741315Y274951D01*
X742000Y276605D01*
Y278395D01*
X741315Y280049D01*
X740049Y281315D01*
X738395Y282000D01*
D02*
G37*
G36*
X232995Y281000D02*
X231005D01*
X229168Y280239D01*
X227761Y278832D01*
X227000Y276995D01*
Y275005D01*
X227761Y273168D01*
X229168Y271761D01*
X231005Y271000D01*
X232995D01*
X234832Y271761D01*
X236239Y273168D01*
X237000Y275005D01*
Y276995D01*
X236239Y278832D01*
X234832Y280239D01*
X232995Y281000D01*
D02*
G37*
G36*
X885995Y280000D02*
X884005D01*
X882168Y279239D01*
X880761Y277832D01*
X880000Y275995D01*
Y274005D01*
X880761Y272168D01*
X882168Y270761D01*
X884005Y270000D01*
X885995D01*
X887832Y270761D01*
X889239Y272168D01*
X890000Y274005D01*
Y275995D01*
X889239Y277832D01*
X887832Y279239D01*
X885995Y280000D01*
D02*
G37*
G36*
X855995D02*
X854005D01*
X852168Y279239D01*
X850761Y277832D01*
X850000Y275995D01*
Y274005D01*
X850761Y272168D01*
X852168Y270761D01*
X854005Y270000D01*
X855995D01*
X857832Y270761D01*
X859239Y272168D01*
X860000Y274005D01*
Y275995D01*
X859239Y277832D01*
X857832Y279239D01*
X855995Y280000D01*
D02*
G37*
G36*
X1043395Y274500D02*
X1041605D01*
X1039951Y273815D01*
X1038685Y272549D01*
X1038000Y270895D01*
Y269105D01*
X1038685Y267451D01*
X1039951Y266185D01*
X1041605Y265500D01*
X1043395D01*
X1045049Y266185D01*
X1046315Y267451D01*
X1047000Y269105D01*
Y270895D01*
X1046315Y272549D01*
X1045049Y273815D01*
X1043395Y274500D01*
D02*
G37*
G36*
X680995Y275000D02*
X679005D01*
X677168Y274239D01*
X675761Y272832D01*
X675000Y270995D01*
Y269005D01*
X675761Y267168D01*
X677168Y265761D01*
X679005Y265000D01*
X680995D01*
X682832Y265761D01*
X684239Y267168D01*
X685000Y269005D01*
Y270995D01*
X684239Y272832D01*
X682832Y274239D01*
X680995Y275000D01*
D02*
G37*
G36*
X525995D02*
X524005D01*
X522168Y274239D01*
X520761Y272832D01*
X520000Y270995D01*
Y269005D01*
X520761Y267168D01*
X522168Y265761D01*
X524005Y265000D01*
X525995D01*
X527832Y265761D01*
X529239Y267168D01*
X530000Y269005D01*
Y270995D01*
X529239Y272832D01*
X527832Y274239D01*
X525995Y275000D01*
D02*
G37*
G36*
X513495D02*
X511505D01*
X509668Y274239D01*
X508261Y272832D01*
X507500Y270995D01*
Y269005D01*
X508261Y267168D01*
X509668Y265761D01*
X511505Y265000D01*
X513495D01*
X515332Y265761D01*
X516739Y267168D01*
X517500Y269005D01*
Y270995D01*
X516739Y272832D01*
X515332Y274239D01*
X513495Y275000D01*
D02*
G37*
G36*
X870995Y270000D02*
X869006D01*
X867168Y269239D01*
X865761Y267832D01*
X865000Y265995D01*
Y264005D01*
X865761Y262168D01*
X867168Y260761D01*
X869006Y260000D01*
X870995D01*
X872832Y260761D01*
X874239Y262168D01*
X875000Y264005D01*
Y265995D01*
X874239Y267832D01*
X872832Y269239D01*
X870995Y270000D01*
D02*
G37*
G36*
X840995D02*
X839005D01*
X837168Y269239D01*
X835761Y267832D01*
X835000Y265995D01*
Y264005D01*
X835761Y262168D01*
X837168Y260761D01*
X839005Y260000D01*
X840995D01*
X842832Y260761D01*
X844239Y262168D01*
X845000Y264005D01*
Y265995D01*
X844239Y267832D01*
X842832Y269239D01*
X840995Y270000D01*
D02*
G37*
G36*
X916193Y271000D02*
X913807D01*
X911601Y270087D01*
X909913Y268399D01*
X909000Y266194D01*
Y263806D01*
X909913Y261601D01*
X911601Y259914D01*
X913807Y259000D01*
X916193D01*
X918399Y259914D01*
X920087Y261601D01*
X921000Y263806D01*
Y266194D01*
X920087Y268399D01*
X918399Y270087D01*
X916193Y271000D01*
D02*
G37*
G36*
X628694D02*
X626306D01*
X624101Y270087D01*
X622413Y268399D01*
X621500Y266194D01*
Y263806D01*
X622413Y261601D01*
X624101Y259914D01*
X626306Y259000D01*
X628694D01*
X630899Y259914D01*
X632587Y261601D01*
X633500Y263806D01*
Y266194D01*
X632587Y268399D01*
X630899Y270087D01*
X628694Y271000D01*
D02*
G37*
G36*
X967768Y270575D02*
X965381D01*
X963176Y269662D01*
X961488Y267974D01*
X960575Y265769D01*
Y263382D01*
X961488Y261176D01*
X963176Y259489D01*
X965381Y258575D01*
X967768D01*
X969974Y259489D01*
X971662Y261176D01*
X972575Y263382D01*
Y265769D01*
X971662Y267974D01*
X969974Y269662D01*
X967768Y270575D01*
D02*
G37*
G36*
X300595Y266200D02*
X298805D01*
X297151Y265515D01*
X295885Y264249D01*
X295200Y262595D01*
Y260805D01*
X295885Y259151D01*
X297151Y257885D01*
X298805Y257200D01*
X300595D01*
X302249Y257885D01*
X303515Y259151D01*
X304200Y260805D01*
Y262595D01*
X303515Y264249D01*
X302249Y265515D01*
X300595Y266200D01*
D02*
G37*
G36*
X885995Y265000D02*
X884005D01*
X882168Y264239D01*
X880761Y262832D01*
X880000Y260995D01*
Y259005D01*
X880761Y257168D01*
X882168Y255761D01*
X884005Y255000D01*
X885995D01*
X887832Y255761D01*
X889239Y257168D01*
X890000Y259005D01*
Y260995D01*
X889239Y262832D01*
X887832Y264239D01*
X885995Y265000D01*
D02*
G37*
G36*
X480995D02*
X479005D01*
X477168Y264239D01*
X475761Y262832D01*
X475000Y260995D01*
Y259005D01*
X475761Y257168D01*
X477168Y255761D01*
X479005Y255000D01*
X480995D01*
X482832Y255761D01*
X484239Y257168D01*
X485000Y259005D01*
Y260995D01*
X484239Y262832D01*
X482832Y264239D01*
X480995Y265000D01*
D02*
G37*
G36*
X680895Y262000D02*
X679105D01*
X677451Y261315D01*
X676185Y260049D01*
X675500Y258395D01*
Y256605D01*
X676185Y254951D01*
X677451Y253685D01*
X679105Y253000D01*
X680895D01*
X682549Y253685D01*
X683815Y254951D01*
X684500Y256605D01*
Y258395D01*
X683815Y260049D01*
X682549Y261315D01*
X680895Y262000D01*
D02*
G37*
G36*
X535995Y262500D02*
X534005D01*
X532168Y261739D01*
X530761Y260332D01*
X530000Y258495D01*
Y256505D01*
X530761Y254668D01*
X532168Y253261D01*
X534005Y252500D01*
X535995D01*
X537832Y253261D01*
X539239Y254668D01*
X540000Y256505D01*
Y258495D01*
X539239Y260332D01*
X537832Y261739D01*
X535995Y262500D01*
D02*
G37*
G36*
X503495D02*
X501505D01*
X499668Y261739D01*
X498261Y260332D01*
X497500Y258495D01*
Y256505D01*
X498261Y254668D01*
X499668Y253261D01*
X501505Y252500D01*
X503495D01*
X505332Y253261D01*
X506739Y254668D01*
X507500Y256505D01*
Y258495D01*
X506739Y260332D01*
X505332Y261739D01*
X503495Y262500D01*
D02*
G37*
G36*
X855995Y260000D02*
X854005D01*
X852168Y259239D01*
X850761Y257832D01*
X850000Y255995D01*
Y254005D01*
X850761Y252168D01*
X852168Y250761D01*
X854005Y250000D01*
X855995D01*
X857832Y250761D01*
X859239Y252168D01*
X860000Y254005D01*
Y255995D01*
X859239Y257832D01*
X857832Y259239D01*
X855995Y260000D01*
D02*
G37*
G36*
X325995Y257500D02*
X324005D01*
X322168Y256739D01*
X320761Y255332D01*
X320000Y253495D01*
Y251505D01*
X320761Y249668D01*
X322168Y248261D01*
X324005Y247500D01*
X325995D01*
X327832Y248261D01*
X329239Y249668D01*
X330000Y251505D01*
Y253495D01*
X329239Y255332D01*
X327832Y256739D01*
X325995Y257500D01*
D02*
G37*
G36*
X357995Y256000D02*
X356005D01*
X354168Y255239D01*
X352761Y253832D01*
X352000Y251995D01*
Y250005D01*
X352761Y248168D01*
X354168Y246761D01*
X356005Y246000D01*
X357995D01*
X359832Y246761D01*
X361239Y248168D01*
X362000Y250005D01*
Y251995D01*
X361239Y253832D01*
X359832Y255239D01*
X357995Y256000D01*
D02*
G37*
G36*
X340995Y247500D02*
X339005D01*
X337168Y246739D01*
X335761Y245332D01*
X335000Y243495D01*
Y241505D01*
X335761Y239668D01*
X337168Y238261D01*
X339005Y237500D01*
X340995D01*
X342832Y238261D01*
X344239Y239668D01*
X345000Y241505D01*
Y243495D01*
X344239Y245332D01*
X342832Y246739D01*
X340995Y247500D01*
D02*
G37*
G36*
X680895Y244500D02*
X679105D01*
X677451Y243815D01*
X676185Y242549D01*
X675500Y240895D01*
Y239105D01*
X676185Y237451D01*
X677451Y236185D01*
X679105Y235500D01*
X680895D01*
X682549Y236185D01*
X683815Y237451D01*
X684500Y239105D01*
Y240895D01*
X683815Y242549D01*
X682549Y243815D01*
X680895Y244500D01*
D02*
G37*
G36*
X310995Y237500D02*
X309005D01*
X307168Y236739D01*
X305761Y235332D01*
X305000Y233495D01*
Y231505D01*
X305761Y229668D01*
X307168Y228261D01*
X309005Y227500D01*
X310995D01*
X312832Y228261D01*
X314239Y229668D01*
X315000Y231505D01*
Y233495D01*
X314239Y235332D01*
X312832Y236739D01*
X310995Y237500D01*
D02*
G37*
G36*
X820995Y235000D02*
X819005D01*
X817168Y234239D01*
X815761Y232832D01*
X815000Y230995D01*
Y229005D01*
X815761Y227168D01*
X817168Y225761D01*
X819005Y225000D01*
X820995D01*
X822832Y225761D01*
X824239Y227168D01*
X825000Y229005D01*
Y230995D01*
X824239Y232832D01*
X822832Y234239D01*
X820995Y235000D01*
D02*
G37*
G36*
X800995D02*
X799005D01*
X797168Y234239D01*
X795761Y232832D01*
X795000Y230995D01*
Y229005D01*
X795761Y227168D01*
X797168Y225761D01*
X799005Y225000D01*
X800995D01*
X802832Y225761D01*
X804239Y227168D01*
X805000Y229005D01*
Y230995D01*
X804239Y232832D01*
X802832Y234239D01*
X800995Y235000D01*
D02*
G37*
G36*
X686034Y232139D02*
X684244D01*
X682590Y231454D01*
X681324Y230188D01*
X680639Y228534D01*
Y226744D01*
X681324Y225090D01*
X682590Y223824D01*
X684244Y223139D01*
X686034D01*
X687688Y223824D01*
X688954Y225090D01*
X689639Y226744D01*
Y228534D01*
X688954Y230188D01*
X687688Y231454D01*
X686034Y232139D01*
D02*
G37*
G36*
X640995Y232500D02*
X639005D01*
X637168Y231739D01*
X635761Y230332D01*
X635000Y228495D01*
Y226505D01*
X635761Y224668D01*
X637168Y223261D01*
X639005Y222500D01*
X640995D01*
X642832Y223261D01*
X644239Y224668D01*
X645000Y226505D01*
Y228495D01*
X644239Y230332D01*
X642832Y231739D01*
X640995Y232500D01*
D02*
G37*
G36*
X228495D02*
X226505D01*
X224668Y231739D01*
X223261Y230332D01*
X222500Y228495D01*
Y226505D01*
X223261Y224668D01*
X224668Y223261D01*
X226505Y222500D01*
X228495D01*
X230332Y223261D01*
X231739Y224668D01*
X232500Y226505D01*
Y228495D01*
X231739Y230332D01*
X230332Y231739D01*
X228495Y232500D01*
D02*
G37*
G36*
X654885Y230990D02*
X653094D01*
X651441Y230305D01*
X650175Y229039D01*
X649490Y227385D01*
Y225595D01*
X650175Y223941D01*
X651441Y222675D01*
X653094Y221990D01*
X654885D01*
X656539Y222675D01*
X657804Y223941D01*
X658490Y225595D01*
Y227385D01*
X657804Y229039D01*
X656539Y230305D01*
X654885Y230990D01*
D02*
G37*
G36*
X613495Y230000D02*
X611505D01*
X609668Y229239D01*
X608261Y227832D01*
X607500Y225995D01*
Y224005D01*
X608261Y222168D01*
X609668Y220761D01*
X611505Y220000D01*
X613495D01*
X615332Y220761D01*
X616739Y222168D01*
X617500Y224005D01*
Y225995D01*
X616739Y227832D01*
X615332Y229239D01*
X613495Y230000D01*
D02*
G37*
G36*
X700595Y231700D02*
X698805D01*
X697151Y231015D01*
X695885Y229749D01*
X695200Y228095D01*
Y226305D01*
X695885Y224651D01*
X697151Y223385D01*
X698805Y222700D01*
X700595D01*
X702249Y223385D01*
X703211Y224347D01*
X704481Y223916D01*
Y223519D01*
X705166Y221865D01*
X706432Y220599D01*
X708086Y219914D01*
X709876D01*
X711530Y220599D01*
X711892Y220961D01*
X713390Y220663D01*
X713685Y219951D01*
X714951Y218685D01*
X716605Y218000D01*
X718395D01*
X720049Y218685D01*
X721315Y219951D01*
X722000Y221605D01*
Y223395D01*
X721315Y225049D01*
X720049Y226315D01*
X718395Y227000D01*
X716605D01*
X714951Y226315D01*
X714589Y225953D01*
X713091Y226251D01*
X712796Y226963D01*
X711530Y228229D01*
X709876Y228914D01*
X708086D01*
X706432Y228229D01*
X705470Y227267D01*
X704200Y227698D01*
Y228095D01*
X703515Y229749D01*
X702249Y231015D01*
X700595Y231700D01*
D02*
G37*
G36*
X588495Y225000D02*
X586505D01*
X584668Y224239D01*
X583261Y222832D01*
X582500Y220995D01*
Y219005D01*
X583261Y217168D01*
X584668Y215761D01*
X586505Y215000D01*
X588495D01*
X590332Y215761D01*
X591739Y217168D01*
X592500Y219005D01*
Y220995D01*
X591739Y222832D01*
X590332Y224239D01*
X588495Y225000D01*
D02*
G37*
G36*
X280995D02*
X279005D01*
X277168Y224239D01*
X275761Y222832D01*
X275000Y220995D01*
Y219005D01*
X275761Y217168D01*
X277168Y215761D01*
X279005Y215000D01*
X280995D01*
X282832Y215761D01*
X284239Y217168D01*
X285000Y219005D01*
Y220995D01*
X284239Y222832D01*
X282832Y224239D01*
X280995Y225000D01*
D02*
G37*
G36*
X640995Y220000D02*
X639005D01*
X637168Y219239D01*
X635761Y217832D01*
X635000Y215995D01*
Y214005D01*
X635761Y212168D01*
X637168Y210761D01*
X639005Y210000D01*
X640995D01*
X642832Y210761D01*
X644239Y212168D01*
X645000Y214005D01*
Y215995D01*
X644239Y217832D01*
X642832Y219239D01*
X640995Y220000D01*
D02*
G37*
G36*
X361194Y221000D02*
X358806D01*
X356601Y220087D01*
X354913Y218399D01*
X354000Y216194D01*
Y213806D01*
X354913Y211601D01*
X356601Y209913D01*
X358806Y209000D01*
X361194D01*
X363399Y209913D01*
X365087Y211601D01*
X366000Y213806D01*
Y216194D01*
X365087Y218399D01*
X363399Y220087D01*
X361194Y221000D01*
D02*
G37*
G36*
X341194D02*
X338806D01*
X336601Y220087D01*
X334913Y218399D01*
X334000Y216194D01*
Y213806D01*
X334913Y211601D01*
X336601Y209913D01*
X338806Y209000D01*
X341194D01*
X343399Y209913D01*
X345087Y211601D01*
X346000Y213806D01*
Y216194D01*
X345087Y218399D01*
X343399Y220087D01*
X341194Y221000D01*
D02*
G37*
%LPD*%
G36*
X774502Y607218D02*
X774563Y606337D01*
X774590Y606177D01*
X774622Y606043D01*
X774660Y605932D01*
X774703Y605847D01*
X774750Y605785D01*
X771250D01*
X771298Y605847D01*
X771340Y605932D01*
X771377Y606043D01*
X771410Y606177D01*
X771438Y606337D01*
X771478Y606729D01*
X771497Y607218D01*
X771500Y607500D01*
X774500D01*
X774502Y607218D01*
D02*
G37*
G36*
X821813Y498750D02*
X821751Y498797D01*
X821666Y498840D01*
X821555Y498877D01*
X821421Y498910D01*
X821262Y498937D01*
X820870Y498978D01*
X820380Y498997D01*
X820098Y499000D01*
Y502000D01*
X820380Y502002D01*
X821262Y502062D01*
X821421Y502090D01*
X821555Y502122D01*
X821666Y502160D01*
X821751Y502202D01*
X821813Y502250D01*
Y498750D01*
D02*
G37*
G36*
X609975Y439500D02*
X609898Y439490D01*
X609807Y439460D01*
X609703Y439408D01*
X609585Y439336D01*
X609453Y439243D01*
X609147Y438994D01*
X608787Y438662D01*
X608586Y438465D01*
X606465Y440586D01*
X606662Y440787D01*
X607243Y441453D01*
X607336Y441585D01*
X607408Y441703D01*
X607460Y441807D01*
X607490Y441898D01*
X607500Y441975D01*
X609975Y439500D01*
D02*
G37*
G36*
X561745Y430703D02*
X561831Y430660D01*
X561941Y430622D01*
X562076Y430590D01*
X562235Y430563D01*
X562627Y430522D01*
X563117Y430503D01*
X563399Y430500D01*
Y427500D01*
X563117Y427497D01*
X562235Y427438D01*
X562076Y427410D01*
X561941Y427378D01*
X561831Y427340D01*
X561745Y427298D01*
X561684Y427250D01*
Y430750D01*
X561745Y430703D01*
D02*
G37*
G36*
X651535Y337414D02*
X651338Y337213D01*
X650757Y336547D01*
X650664Y336415D01*
X650592Y336297D01*
X650540Y336193D01*
X650510Y336102D01*
X650500Y336025D01*
X648025Y338500D01*
X648102Y338510D01*
X648193Y338540D01*
X648297Y338592D01*
X648415Y338664D01*
X648547Y338757D01*
X648853Y339006D01*
X649213Y339338D01*
X649414Y339535D01*
X651535Y337414D01*
D02*
G37*
G36*
X774847Y338703D02*
X774932Y338660D01*
X775043Y338623D01*
X775177Y338590D01*
X775337Y338563D01*
X775728Y338522D01*
X776218Y338503D01*
X776500Y338500D01*
Y335500D01*
X776218Y335498D01*
X775337Y335438D01*
X775177Y335410D01*
X775043Y335378D01*
X774932Y335340D01*
X774847Y335298D01*
X774785Y335250D01*
Y338750D01*
X774847Y338703D01*
D02*
G37*
%LPC*%
G36*
X975995Y732000D02*
X974005D01*
X972168Y731239D01*
X970761Y729832D01*
X970000Y727995D01*
Y726005D01*
X970761Y724168D01*
X972168Y722761D01*
X974005Y722000D01*
X975995D01*
X977832Y722761D01*
X979239Y724168D01*
X980000Y726005D01*
Y727995D01*
X979239Y729832D01*
X977832Y731239D01*
X975995Y732000D01*
D02*
G37*
G36*
X935995D02*
X934005D01*
X932168Y731239D01*
X930761Y729832D01*
X930000Y727995D01*
Y726005D01*
X930761Y724168D01*
X932168Y722761D01*
X934005Y722000D01*
X935995D01*
X937832Y722761D01*
X939239Y724168D01*
X940000Y726005D01*
Y727995D01*
X939239Y729832D01*
X937832Y731239D01*
X935995Y732000D01*
D02*
G37*
G36*
X1015995Y731000D02*
X1014005D01*
X1012168Y730239D01*
X1010761Y728832D01*
X1010000Y726995D01*
Y725005D01*
X1010761Y723168D01*
X1012168Y721761D01*
X1014005Y721000D01*
X1015995D01*
X1017832Y721761D01*
X1019239Y723168D01*
X1020000Y725005D01*
Y726995D01*
X1019239Y728832D01*
X1017832Y730239D01*
X1015995Y731000D01*
D02*
G37*
G36*
X921995Y706000D02*
X920005D01*
X918168Y705239D01*
X916761Y703832D01*
X916000Y701995D01*
Y700005D01*
X916761Y698168D01*
X918168Y696761D01*
X920005Y696000D01*
X921995D01*
X923832Y696761D01*
X925239Y698168D01*
X926000Y700005D01*
Y701995D01*
X925239Y703832D01*
X923832Y705239D01*
X921995Y706000D01*
D02*
G37*
G36*
X1040251Y684100D02*
X1037749D01*
X1035333Y683453D01*
X1033167Y682202D01*
X1031398Y680433D01*
X1030147Y678267D01*
X1029500Y675851D01*
Y673349D01*
X1030147Y670933D01*
X1031398Y668767D01*
X1033167Y666998D01*
X1035333Y665747D01*
X1037749Y665100D01*
X1040251D01*
X1042667Y665747D01*
X1044833Y666998D01*
X1046602Y668767D01*
X1047853Y670933D01*
X1048500Y673349D01*
Y675851D01*
X1047853Y678267D01*
X1046602Y680433D01*
X1044833Y682202D01*
X1042667Y683453D01*
X1040251Y684100D01*
D02*
G37*
G36*
X892995Y673000D02*
X891005D01*
X889168Y672239D01*
X887761Y670832D01*
X887000Y668995D01*
Y667005D01*
X887761Y665168D01*
X889168Y663761D01*
X891005Y663000D01*
X892995D01*
X894832Y663761D01*
X896239Y665168D01*
X897000Y667005D01*
Y668995D01*
X896239Y670832D01*
X894832Y672239D01*
X892995Y673000D01*
D02*
G37*
G36*
X1040251Y658700D02*
X1037749D01*
X1035333Y658053D01*
X1033167Y656802D01*
X1031398Y655033D01*
X1030147Y652867D01*
X1029500Y650451D01*
Y647949D01*
X1030147Y645533D01*
X1031398Y643367D01*
X1033167Y641598D01*
X1035333Y640347D01*
X1037749Y639700D01*
X1040251D01*
X1042667Y640347D01*
X1044833Y641598D01*
X1046602Y643367D01*
X1047853Y645533D01*
X1048500Y647949D01*
Y650451D01*
X1047853Y652867D01*
X1046602Y655033D01*
X1044833Y656802D01*
X1042667Y658053D01*
X1040251Y658700D01*
D02*
G37*
G36*
X971895Y625500D02*
X970105D01*
X968451Y624815D01*
X967185Y623549D01*
X966500Y621895D01*
Y620105D01*
X967185Y618451D01*
X968451Y617185D01*
X970105Y616500D01*
X971895D01*
X973549Y617185D01*
X974815Y618451D01*
X975500Y620105D01*
Y621895D01*
X974815Y623549D01*
X973549Y624815D01*
X971895Y625500D01*
D02*
G37*
G36*
X1048500Y607900D02*
X1040000D01*
Y599400D01*
X1048500D01*
Y607900D01*
D02*
G37*
G36*
X1038000D02*
X1029500D01*
Y599400D01*
X1038000D01*
Y607900D01*
D02*
G37*
G36*
X1048500Y597400D02*
X1040000D01*
Y588900D01*
X1048500D01*
Y597400D01*
D02*
G37*
G36*
X1038000D02*
X1029500D01*
Y588900D01*
X1038000D01*
Y597400D01*
D02*
G37*
G36*
X1040995Y586000D02*
X1039005D01*
X1037168Y585239D01*
X1035761Y583832D01*
X1035000Y581995D01*
Y580005D01*
X1035761Y578168D01*
X1037168Y576761D01*
X1039005Y576000D01*
X1040995D01*
X1042832Y576761D01*
X1044239Y578168D01*
X1045000Y580005D01*
Y581995D01*
X1044239Y583832D01*
X1042832Y585239D01*
X1040995Y586000D01*
D02*
G37*
G36*
X940995Y585000D02*
X939005D01*
X937168Y584239D01*
X935761Y582832D01*
X935000Y580995D01*
Y579005D01*
X935761Y577168D01*
X937168Y575761D01*
X939005Y575000D01*
X940995D01*
X942832Y575761D01*
X944239Y577168D01*
X945000Y579005D01*
Y580995D01*
X944239Y582832D01*
X942832Y584239D01*
X940995Y585000D01*
D02*
G37*
G36*
X1030995Y575000D02*
X1029005D01*
X1027168Y574239D01*
X1025761Y572832D01*
X1025000Y570995D01*
Y569005D01*
X1025761Y567168D01*
X1027168Y565761D01*
X1029005Y565000D01*
X1030995D01*
X1032832Y565761D01*
X1034239Y567168D01*
X1035000Y569005D01*
Y570995D01*
X1034239Y572832D01*
X1032832Y574239D01*
X1030995Y575000D01*
D02*
G37*
G36*
X960995D02*
X959005D01*
X957168Y574239D01*
X955761Y572832D01*
X955000Y570995D01*
Y569005D01*
X955761Y567168D01*
X957168Y565761D01*
X959005Y565000D01*
X960995D01*
X962832Y565761D01*
X964239Y567168D01*
X965000Y569005D01*
Y570995D01*
X964239Y572832D01*
X962832Y574239D01*
X960995Y575000D01*
D02*
G37*
G36*
X920995D02*
X919005D01*
X917168Y574239D01*
X915761Y572832D01*
X915000Y570995D01*
Y569005D01*
X915761Y567168D01*
X917168Y565761D01*
X919005Y565000D01*
X920995D01*
X922832Y565761D01*
X924239Y567168D01*
X925000Y569005D01*
Y570995D01*
X924239Y572832D01*
X922832Y574239D01*
X920995Y575000D01*
D02*
G37*
G36*
X1002010Y588565D02*
X999501Y588234D01*
X997162Y587266D01*
X995154Y585725D01*
X993613Y583717D01*
X992644Y581378D01*
X992314Y578868D01*
X992644Y576359D01*
X993613Y574020D01*
X994566Y572778D01*
X994168Y571239D01*
X992761Y569832D01*
X992000Y567995D01*
Y566005D01*
X992761Y564168D01*
X994168Y562761D01*
X996005Y562000D01*
X997995D01*
X999832Y562761D01*
X1001239Y564168D01*
X1002000Y566005D01*
Y567954D01*
X1002000Y567995D01*
X1002842Y569281D01*
X1004520Y569502D01*
X1006859Y570471D01*
X1008867Y572012D01*
X1010408Y574020D01*
X1011377Y576359D01*
X1011707Y578868D01*
X1011377Y581378D01*
X1010408Y583717D01*
X1008867Y585725D01*
X1006859Y587266D01*
X1004520Y588234D01*
X1002010Y588565D01*
D02*
G37*
G36*
X1034895Y528500D02*
X1033105D01*
X1031451Y527815D01*
X1030185Y526549D01*
X1029500Y524895D01*
Y523105D01*
X1030185Y521451D01*
X1031451Y520185D01*
X1033105Y519500D01*
X1034895D01*
X1036549Y520185D01*
X1037815Y521451D01*
X1038500Y523105D01*
Y524895D01*
X1037815Y526549D01*
X1036549Y527815D01*
X1034895Y528500D01*
D02*
G37*
G36*
X922460D02*
X920669D01*
X919016Y527815D01*
X917750Y526549D01*
X917065Y524895D01*
Y523105D01*
X917750Y521451D01*
X919016Y520185D01*
X920669Y519500D01*
X922460D01*
X924114Y520185D01*
X925379Y521451D01*
X926065Y523105D01*
Y524895D01*
X925379Y526549D01*
X924114Y527815D01*
X922460Y528500D01*
D02*
G37*
G36*
X990995Y525000D02*
X989005D01*
X987168Y524239D01*
X985761Y522832D01*
X985000Y520995D01*
Y519005D01*
X985761Y517168D01*
X987168Y515761D01*
X989005Y515000D01*
X990995D01*
X992832Y515761D01*
X994239Y517168D01*
X995000Y519005D01*
Y520995D01*
X994239Y522832D01*
X992832Y524239D01*
X990995Y525000D01*
D02*
G37*
G36*
X957895Y523500D02*
X956105D01*
X954451Y522815D01*
X953185Y521549D01*
X952500Y519895D01*
Y518105D01*
X953185Y516451D01*
X954451Y515185D01*
X956105Y514500D01*
X957895D01*
X959549Y515185D01*
X960815Y516451D01*
X961500Y518105D01*
Y519895D01*
X960815Y521549D01*
X959549Y522815D01*
X957895Y523500D01*
D02*
G37*
G36*
X920995Y515000D02*
X919005D01*
X917168Y514239D01*
X915761Y512832D01*
X915000Y510995D01*
Y509005D01*
X915761Y507168D01*
X917168Y505761D01*
X919005Y505000D01*
X920995D01*
X922832Y505761D01*
X924239Y507168D01*
X925000Y509005D01*
Y510995D01*
X924239Y512832D01*
X922832Y514239D01*
X920995Y515000D01*
D02*
G37*
G36*
X976895Y512500D02*
X975105D01*
X973451Y511815D01*
X972185Y510549D01*
X971500Y508895D01*
Y507105D01*
X971741Y506523D01*
X970836Y505389D01*
X969451Y504815D01*
X968185Y503549D01*
X967551Y503813D01*
X967549Y503815D01*
X965895Y504500D01*
X964105D01*
X962451Y503815D01*
X961185Y502549D01*
X960500Y500895D01*
Y499105D01*
X961185Y497451D01*
X962451Y496185D01*
X964105Y495500D01*
X965895D01*
X967549Y496185D01*
X968815Y497451D01*
X969449Y497187D01*
X969451Y497185D01*
X971105Y496500D01*
X972895D01*
X974549Y497185D01*
X975815Y498451D01*
X976500Y500105D01*
Y501895D01*
X976259Y502477D01*
X977164Y503611D01*
X978549Y504185D01*
X979815Y505451D01*
X980500Y507105D01*
Y508895D01*
X979815Y510549D01*
X978549Y511815D01*
X976895Y512500D01*
D02*
G37*
G36*
X953395Y502000D02*
X951605D01*
X949951Y501315D01*
X948818Y500182D01*
X948483Y500048D01*
X947307Y500042D01*
X946373Y500976D01*
X944719Y501662D01*
X942928D01*
X941274Y500976D01*
X940236Y499938D01*
X938847Y499972D01*
X938815Y500049D01*
X937549Y501315D01*
X935895Y502000D01*
X934105D01*
X932451Y501315D01*
X931185Y500049D01*
X930500Y498395D01*
Y496605D01*
X931185Y494951D01*
X932451Y493685D01*
X934105Y493000D01*
X935895D01*
X937549Y493685D01*
X938588Y494724D01*
X939977Y494690D01*
X940009Y494613D01*
X941274Y493347D01*
X942928Y492662D01*
X944719D01*
X946373Y493347D01*
X947506Y494480D01*
X947841Y494614D01*
X949016Y494620D01*
X949951Y493685D01*
X951605Y493000D01*
X953395D01*
X955049Y493685D01*
X956315Y494951D01*
X957000Y496605D01*
Y498395D01*
X956315Y500049D01*
X955049Y501315D01*
X953395Y502000D01*
D02*
G37*
G36*
X1032995Y517000D02*
X1031005D01*
X1029168Y516239D01*
X1027761Y514832D01*
X1027000Y512995D01*
Y511005D01*
X1027761Y509168D01*
X1028505Y508424D01*
X1028207Y506926D01*
X1027594Y506672D01*
X1026328Y505406D01*
X1025643Y503752D01*
Y501962D01*
X1026328Y500308D01*
X1027594Y499042D01*
X1029248Y498357D01*
X1031038D01*
X1032692Y499042D01*
X1033958Y500308D01*
X1034643Y501962D01*
Y503752D01*
X1033958Y505406D01*
X1033521Y505843D01*
X1033819Y507341D01*
X1034832Y507761D01*
X1036239Y509168D01*
X1037000Y511005D01*
Y512995D01*
X1036239Y514832D01*
X1034832Y516239D01*
X1032995Y517000D01*
D02*
G37*
G36*
X910377Y487500D02*
X908587D01*
X906933Y486815D01*
X905667Y485549D01*
X904982Y483895D01*
Y482105D01*
X905667Y480451D01*
X906933Y479185D01*
X908587Y478500D01*
X910377D01*
X912031Y479185D01*
X913297Y480451D01*
X913982Y482105D01*
Y483895D01*
X913297Y485549D01*
X912031Y486815D01*
X910377Y487500D01*
D02*
G37*
G36*
X1010995Y485000D02*
X1009005D01*
X1007168Y484239D01*
X1005761Y482832D01*
X1005000Y480995D01*
Y479005D01*
X1005761Y477168D01*
X1007168Y475761D01*
X1009005Y475000D01*
X1010995D01*
X1012832Y475761D01*
X1014239Y477168D01*
X1015000Y479005D01*
Y480995D01*
X1014239Y482832D01*
X1012832Y484239D01*
X1010995Y485000D01*
D02*
G37*
G36*
X1045895Y476500D02*
X1044105D01*
X1042451Y475815D01*
X1041185Y474549D01*
X1040500Y472895D01*
Y471105D01*
X1041185Y469451D01*
X1042451Y468185D01*
X1044105Y467500D01*
X1045895D01*
X1047549Y468185D01*
X1048815Y469451D01*
X1049500Y471105D01*
Y472895D01*
X1048815Y474549D01*
X1047549Y475815D01*
X1045895Y476500D01*
D02*
G37*
G36*
X922895Y475500D02*
X921105D01*
X919451Y474815D01*
X918185Y473549D01*
X917500Y471895D01*
Y470105D01*
X918185Y468451D01*
X919451Y467185D01*
X921105Y466500D01*
X922895D01*
X923477Y466741D01*
X924611Y465836D01*
X925185Y464451D01*
X926451Y463185D01*
X928105Y462500D01*
X929895D01*
X931549Y463185D01*
X932815Y464451D01*
X933449Y464187D01*
X933451Y464185D01*
X935105Y463500D01*
X936895D01*
X938549Y464185D01*
X939815Y465451D01*
X940500Y467105D01*
Y468895D01*
X939815Y470549D01*
X938549Y471815D01*
X936895Y472500D01*
X935105D01*
X933451Y471815D01*
X932185Y470549D01*
X931551Y470813D01*
X931549Y470815D01*
X929895Y471500D01*
X928105D01*
X927523Y471259D01*
X926389Y472164D01*
X925815Y473549D01*
X924549Y474815D01*
X922895Y475500D01*
D02*
G37*
G36*
X973395Y472000D02*
X971605D01*
X969951Y471315D01*
X968685Y470049D01*
X968000Y468395D01*
Y466605D01*
X968685Y464951D01*
X969951Y463685D01*
X971605Y463000D01*
X973395D01*
X975049Y463685D01*
X976315Y464951D01*
X977000Y466605D01*
Y468395D01*
X976315Y470049D01*
X975049Y471315D01*
X973395Y472000D01*
D02*
G37*
G36*
X985895Y470500D02*
X984105D01*
X982451Y469815D01*
X981185Y468549D01*
X980500Y466895D01*
Y465105D01*
X981185Y463451D01*
X982451Y462185D01*
X984105Y461500D01*
X985895D01*
X987549Y462185D01*
X988815Y463451D01*
X989500Y465105D01*
Y466895D01*
X988815Y468549D01*
X987549Y469815D01*
X985895Y470500D01*
D02*
G37*
%LPD*%
D12*
X1039000Y696482D02*
Y700000D01*
X1035575Y692575D02*
Y693058D01*
X1025000Y634000D02*
Y682000D01*
X1035575Y693058D02*
X1039000Y696482D01*
X1025000Y682000D02*
X1035575Y692575D01*
X939000Y623000D02*
X958000Y604000D01*
X893000Y623000D02*
X939000D01*
X958000Y604000D02*
X995000D01*
X1025000Y634000D01*
X863000Y653000D02*
X893000Y623000D01*
D48*
X1012300Y402300D02*
D03*
X1037700Y376900D02*
D03*
Y427700D02*
D03*
X1012300D02*
D03*
X1037700Y402300D02*
D03*
X1012300Y453100D02*
D03*
X1037700D02*
D03*
X740000Y715000D02*
D03*
Y695000D02*
D03*
X720000Y715000D02*
D03*
Y695000D02*
D03*
X700000Y715000D02*
D03*
Y695000D02*
D03*
X680000Y715000D02*
D03*
Y695000D02*
D03*
X660000Y715000D02*
D03*
X1039000Y649200D02*
D03*
Y623800D02*
D03*
Y725400D02*
D03*
Y700000D02*
D03*
Y674600D02*
D03*
X615000Y715000D02*
D03*
Y695000D02*
D03*
X595000Y715000D02*
D03*
Y695000D02*
D03*
X575000Y715000D02*
D03*
Y695000D02*
D03*
X555000Y715000D02*
D03*
Y695000D02*
D03*
X535000Y715000D02*
D03*
D78*
X779000Y638000D02*
X840495Y576505D01*
X705515Y636500D02*
X712015Y643000D01*
X774000D02*
X779000Y638000D01*
X712015Y643000D02*
X774000D01*
X840495Y490727D02*
Y576505D01*
X830000Y355000D02*
Y396000D01*
Y355000D02*
X835000Y350000D01*
X830000Y396000D02*
X846000Y412000D01*
Y453000D01*
X840495Y458505D02*
Y490727D01*
Y458505D02*
X846000Y453000D01*
X1037600Y597000D02*
X1039000Y598400D01*
X792851Y337000D02*
X793000Y336852D01*
X773000Y337000D02*
X792851D01*
X672558Y360558D02*
X793000D01*
X648000Y336000D02*
X672558Y360558D01*
X559898Y429000D02*
X597000D01*
X610000Y442000D01*
X773000Y604000D02*
Y618588D01*
X811504Y500500D02*
X823598D01*
X811000Y499996D02*
X811504Y500500D01*
X696985Y636500D02*
X705515D01*
X692485Y641000D02*
X696985Y636500D01*
X600000Y612500D02*
X628500Y641000D01*
X692485D01*
X773000Y618588D02*
X774412Y620000D01*
D80*
X848000Y493000D02*
X855000Y486000D01*
X848000Y493000D02*
Y538000D01*
X855000Y459899D02*
Y486000D01*
X848000Y538000D02*
X854000Y544000D01*
Y555607D02*
Y573500D01*
Y544000D02*
Y548393D01*
X854500Y548893D01*
X815000Y612500D02*
X854000Y573500D01*
X854500Y548893D02*
Y555107D01*
X854000Y555607D02*
X854500Y555107D01*
X836000Y393000D02*
X870000Y427000D01*
Y444899D01*
X715100Y320000D02*
X745100Y350000D01*
X770000D01*
X613000Y320000D02*
X715100D01*
X606000Y327000D02*
X613000Y320000D01*
X584000Y323000D02*
X594000Y313000D01*
X718000D02*
X742500Y337500D01*
X594000Y313000D02*
X718000D01*
X552500Y570000D02*
Y574899D01*
X627100Y649500D01*
X778000D01*
X855000Y459899D02*
X870000Y444899D01*
X778000Y649500D02*
X815000Y612500D01*
X742500Y337500D02*
X757500D01*
D81*
X798000Y570000D02*
Y593588D01*
X773000Y618588D02*
X798000Y593588D01*
X648588Y618588D02*
X773000D01*
X606000Y576000D02*
X648588Y618588D01*
X793000Y336852D02*
Y360558D01*
Y322000D02*
Y336852D01*
Y360558D02*
Y379688D01*
Y322000D02*
X810000Y305000D01*
X793000Y379688D02*
X811000Y397687D01*
X562000Y438000D02*
X574000D01*
X591000Y455000D01*
Y546000D01*
X606000Y561000D01*
Y576000D01*
X798000Y570000D02*
X811000Y557000D01*
Y499996D02*
Y557000D01*
Y458251D02*
Y499996D01*
Y415000D02*
Y458251D01*
Y415000D02*
X811000Y415000D01*
X811000Y397687D02*
Y415000D01*
X810000Y283750D02*
Y305000D01*
X802500Y255000D02*
Y276250D01*
X810000Y283750D01*
D82*
X811000Y415000D02*
X825000D01*
X811749Y459000D02*
X826000D01*
X811000Y458251D02*
X811749Y459000D01*
D85*
X1012300Y376900D02*
D03*
D86*
X660000Y695000D02*
D03*
X1039000Y598400D02*
D03*
X535000Y695000D02*
D03*
D87*
X840000Y445000D02*
D03*
X852000D02*
D03*
X892302Y463296D02*
D03*
X789432Y418846D02*
D03*
X604266Y445262D02*
D03*
X756666Y296164D02*
D03*
X475000Y475000D02*
D03*
X1014000Y647000D02*
D03*
X831500Y557006D02*
D03*
X858000Y425000D02*
D03*
X888500Y635000D02*
D03*
X864000Y722000D02*
D03*
X971000Y621000D02*
D03*
X863000Y653000D02*
D03*
X605000Y668000D02*
D03*
X704000Y565000D02*
D03*
X615000Y302000D02*
D03*
X635000D02*
D03*
X1001000Y634000D02*
D03*
X862500Y442500D02*
D03*
X875000Y603750D02*
D03*
X592000Y564000D02*
D03*
X586389Y656389D02*
D03*
X490000Y710000D02*
D03*
X623000Y627000D02*
D03*
X450000Y705000D02*
D03*
X840495Y490727D02*
D03*
X823598Y500500D02*
D03*
X833000Y487000D02*
D03*
X745000Y636000D02*
D03*
X856000Y668000D02*
D03*
X717500Y222500D02*
D03*
X825000Y415000D02*
D03*
X1019000Y481000D02*
D03*
X770000Y350000D02*
D03*
X820000Y635000D02*
D03*
X559898Y429000D02*
D03*
X852000Y399000D02*
D03*
X610000Y442000D02*
D03*
X773000Y337000D02*
D03*
X584000Y323000D02*
D03*
X606000Y362000D02*
D03*
X606500Y353462D02*
D03*
X790000Y555000D02*
D03*
X786870Y548739D02*
D03*
X791000Y542000D02*
D03*
X795000Y504000D02*
D03*
Y497000D02*
D03*
X824250Y536235D02*
D03*
X858000Y513000D02*
D03*
X936000Y468000D02*
D03*
X929000Y467000D02*
D03*
X922000Y471000D02*
D03*
X909482Y483000D02*
D03*
X879000Y462000D02*
D03*
X819757Y479757D02*
D03*
X821722Y465722D02*
D03*
X821000Y494000D02*
D03*
X865000Y518500D02*
D03*
X722500Y302500D02*
D03*
X712500Y305000D02*
D03*
X699700Y227200D02*
D03*
X708981Y224414D02*
D03*
X802500Y255000D02*
D03*
X737500Y277500D02*
D03*
X785000Y300000D02*
D03*
X800000D02*
D03*
X417500Y452500D02*
D03*
X990000Y340000D02*
D03*
X1042500Y270000D02*
D03*
Y292500D02*
D03*
Y357500D02*
D03*
X967500Y342500D02*
D03*
X773500Y597018D02*
D03*
X784757Y591243D02*
D03*
X690000Y635000D02*
D03*
X712500D02*
D03*
X687500Y660000D02*
D03*
X642500Y612500D02*
D03*
Y627500D02*
D03*
X650000Y605000D02*
D03*
X700000Y607500D02*
D03*
X670000Y657500D02*
D03*
X702500Y642500D02*
D03*
X730000Y677500D02*
D03*
X830000Y697500D02*
D03*
X755000Y692500D02*
D03*
X754558Y672558D02*
D03*
X812500Y687500D02*
D03*
X412500Y577500D02*
D03*
X410000Y332500D02*
D03*
X398189Y372089D02*
D03*
X600000Y600000D02*
D03*
Y593000D02*
D03*
Y586000D02*
D03*
X298700Y696700D02*
D03*
Y680700D02*
D03*
X300000Y660000D02*
D03*
X758000Y565000D02*
D03*
X736000Y563000D02*
D03*
X743000D02*
D03*
X699000Y591000D02*
D03*
X695000Y561000D02*
D03*
X711000Y562000D02*
D03*
X688000Y564000D02*
D03*
X580000Y669000D02*
D03*
X594000Y630000D02*
D03*
X627000Y558000D02*
D03*
X635000D02*
D03*
X643000Y560000D02*
D03*
X606000Y327000D02*
D03*
X640000Y376000D02*
D03*
X619000Y374500D02*
D03*
X644000Y351000D02*
D03*
X650000Y327000D02*
D03*
X703000Y351000D02*
D03*
X687000Y350000D02*
D03*
X705000Y306000D02*
D03*
X742500Y313500D02*
D03*
X765000Y306000D02*
D03*
X780000D02*
D03*
X702000Y374000D02*
D03*
X689000D02*
D03*
X637500Y346972D02*
D03*
X374000Y305000D02*
D03*
X299700Y261700D02*
D03*
X298700Y284700D02*
D03*
Y300700D02*
D03*
X299000Y324000D02*
D03*
Y340000D02*
D03*
X725000D02*
D03*
X670000Y337000D02*
D03*
X616000Y344000D02*
D03*
X330000Y482500D02*
D03*
X299700Y641700D02*
D03*
X528000Y420000D02*
D03*
Y437500D02*
D03*
X572000Y423000D02*
D03*
X247877Y555725D02*
D03*
X301000Y581000D02*
D03*
Y534000D02*
D03*
X562500Y538000D02*
D03*
X570000Y539000D02*
D03*
X604000Y537500D02*
D03*
X572500Y505000D02*
D03*
X604000Y502500D02*
D03*
Y482500D02*
D03*
X245000Y447500D02*
D03*
X793000Y529000D02*
D03*
X354861Y509861D02*
D03*
X368000Y510000D02*
D03*
X562500Y505000D02*
D03*
X440000Y420000D02*
D03*
X527500Y462000D02*
D03*
X575000Y459000D02*
D03*
X577500Y471000D02*
D03*
X604000Y467500D02*
D03*
Y456052D02*
D03*
X362500Y410000D02*
D03*
X369177Y428601D02*
D03*
X442500Y502500D02*
D03*
X430000Y497500D02*
D03*
X361250Y568450D02*
D03*
X397500Y635000D02*
D03*
X315000Y627500D02*
D03*
X552500Y570000D02*
D03*
X565000Y417500D02*
D03*
X773000Y604000D02*
D03*
X847500Y332500D02*
D03*
X832500Y322500D02*
D03*
X835000Y350000D02*
D03*
X817500Y330000D02*
D03*
X802500Y350000D02*
D03*
X817500Y360000D02*
D03*
X822000Y452000D02*
D03*
X820000Y432000D02*
D03*
X847000Y393000D02*
D03*
X867000Y461000D02*
D03*
X847000Y484000D02*
D03*
X864000Y511000D02*
D03*
X676000Y384000D02*
D03*
X683000Y383000D02*
D03*
X574000Y347000D02*
D03*
X576000Y340000D02*
D03*
X574000Y332000D02*
D03*
X572000Y325000D02*
D03*
X566000Y347285D02*
D03*
X612000Y600000D02*
D03*
X655000Y590000D02*
D03*
X658989Y564500D02*
D03*
X437000Y547000D02*
D03*
X457000Y385000D02*
D03*
X754000Y415000D02*
D03*
X700000Y522000D02*
D03*
X422500Y457500D02*
D03*
X789000Y516000D02*
D03*
X565000Y459000D02*
D03*
X778000Y478000D02*
D03*
X783000Y483000D02*
D03*
X791000Y407000D02*
D03*
X667000Y377000D02*
D03*
X655000D02*
D03*
X529719Y503000D02*
D03*
X762000Y386000D02*
D03*
X752000Y385000D02*
D03*
X745000Y384000D02*
D03*
X737000D02*
D03*
X730000Y383000D02*
D03*
X690000Y305000D02*
D03*
X624603Y656039D02*
D03*
X785000Y427000D02*
D03*
X900000Y442500D02*
D03*
X942000Y384000D02*
D03*
X440000Y467000D02*
D03*
X826000Y459000D02*
D03*
X670000Y280000D02*
D03*
X465000Y503000D02*
D03*
X788000Y523000D02*
D03*
X691000Y516000D02*
D03*
X666000Y608000D02*
D03*
X862500Y402500D02*
D03*
X790000Y509000D02*
D03*
X872500Y542500D02*
D03*
X867500Y537500D02*
D03*
X921565Y524000D02*
D03*
X757000Y466000D02*
D03*
Y422000D02*
D03*
X773000Y529000D02*
D03*
X446000Y472000D02*
D03*
X526000Y560000D02*
D03*
X935000Y497500D02*
D03*
X740000Y539000D02*
D03*
X860000Y535000D02*
D03*
X436038Y567428D02*
D03*
X943824Y497162D02*
D03*
X795000Y453000D02*
D03*
X952500Y497500D02*
D03*
X562000Y438000D02*
D03*
X900000Y357500D02*
D03*
X759000Y409000D02*
D03*
Y429000D02*
D03*
X795000Y469000D02*
D03*
X455000Y533000D02*
D03*
X526611Y540611D02*
D03*
X795000Y426000D02*
D03*
X527000Y510000D02*
D03*
X776000Y408000D02*
D03*
X648000Y336000D02*
D03*
X779000Y638000D02*
D03*
X858000Y392000D02*
D03*
X625000Y522500D02*
D03*
X995000Y415000D02*
D03*
X708000Y522000D02*
D03*
X972500Y467500D02*
D03*
X630000Y515000D02*
D03*
X734000Y523000D02*
D03*
X995000Y375000D02*
D03*
X795979Y536010D02*
D03*
X995000Y395000D02*
D03*
X974000Y445000D02*
D03*
X925000Y395000D02*
D03*
X821000Y378000D02*
D03*
X836000Y393000D02*
D03*
X750000Y470000D02*
D03*
X653990Y226490D02*
D03*
X685139Y227639D02*
D03*
X680000Y240000D02*
D03*
Y257500D02*
D03*
X675000Y305000D02*
D03*
X660000D02*
D03*
X583550Y313550D02*
D03*
X775000Y565000D02*
D03*
X670493Y595493D02*
D03*
X670000Y564500D02*
D03*
X662500Y665000D02*
D03*
X757500Y337500D02*
D03*
X815000Y612500D02*
D03*
X600000D02*
D03*
X997000Y444000D02*
D03*
X957000Y519000D02*
D03*
X959000Y340000D02*
D03*
X928000Y314000D02*
D03*
X947000D02*
D03*
X928913Y344087D02*
D03*
X929000Y377000D02*
D03*
X916000Y371000D02*
D03*
X954000Y441000D02*
D03*
X941000Y415000D02*
D03*
X985000Y466000D02*
D03*
X986000Y445000D02*
D03*
X838000Y373000D02*
D03*
X845000Y372000D02*
D03*
X1034000Y524000D02*
D03*
X1030143Y502857D02*
D03*
X1045000Y472000D02*
D03*
X972000Y501000D02*
D03*
X965000Y500000D02*
D03*
X976000Y508000D02*
D03*
D88*
X235000Y478143D02*
D03*
X892000Y668000D02*
D03*
X921000Y701000D02*
D03*
X975000Y727000D02*
D03*
X1011000Y662000D02*
D03*
X847000Y552000D02*
D03*
X997000Y567000D02*
D03*
X800000Y639000D02*
D03*
X980000Y300000D02*
D03*
Y310000D02*
D03*
X990000Y300000D02*
D03*
Y310000D02*
D03*
X950000Y340000D02*
D03*
X1010000Y480000D02*
D03*
X990000Y520000D02*
D03*
X1030000Y570000D02*
D03*
X925000Y635000D02*
D03*
X920000Y510000D02*
D03*
X960000Y570000D02*
D03*
X940000Y580000D02*
D03*
X920000Y570000D02*
D03*
X819000Y623000D02*
D03*
Y666000D02*
D03*
X810000Y640000D02*
D03*
X790000Y650000D02*
D03*
X770000Y636000D02*
D03*
X550000Y650000D02*
D03*
Y660000D02*
D03*
X510000Y680000D02*
D03*
X460000Y700000D02*
D03*
Y670000D02*
D03*
X430000D02*
D03*
X460000Y640000D02*
D03*
X430000D02*
D03*
X530000Y590000D02*
D03*
X510000Y570000D02*
D03*
X490000Y590000D02*
D03*
X460000Y570000D02*
D03*
X440000Y590000D02*
D03*
X770000Y470000D02*
D03*
X790000Y490000D02*
D03*
Y480000D02*
D03*
X780000Y500000D02*
D03*
X770000Y520000D02*
D03*
X760000Y550000D02*
D03*
X810000Y580000D02*
D03*
X640000Y460000D02*
D03*
Y490000D02*
D03*
X620000Y450000D02*
D03*
Y470000D02*
D03*
Y500000D02*
D03*
X740000Y450000D02*
D03*
Y470000D02*
D03*
Y490000D02*
D03*
X720000Y510000D02*
D03*
X700000D02*
D03*
X680000D02*
D03*
X660000D02*
D03*
Y490000D02*
D03*
Y470000D02*
D03*
Y450000D02*
D03*
X680000D02*
D03*
X480000Y440000D02*
D03*
X500000Y420000D02*
D03*
X570000Y310000D02*
D03*
X540000D02*
D03*
X510000Y290000D02*
D03*
X480000Y260000D02*
D03*
X470000Y210000D02*
D03*
X550000D02*
D03*
X680000Y290000D02*
D03*
Y270000D02*
D03*
X800000Y230000D02*
D03*
X820000D02*
D03*
X890000Y210000D02*
D03*
X920000D02*
D03*
X950000D02*
D03*
X1010000D02*
D03*
X980000D02*
D03*
X1040000D02*
D03*
X922000Y720000D02*
D03*
X920000Y730000D02*
D03*
X870000D02*
D03*
Y670000D02*
D03*
Y660000D02*
D03*
Y680000D02*
D03*
X810000Y730000D02*
D03*
X710000D02*
D03*
X630000D02*
D03*
X570000D02*
D03*
X510000D02*
D03*
X460000D02*
D03*
X410000D02*
D03*
X360000D02*
D03*
X310000D02*
D03*
X260000D02*
D03*
X210000D02*
D03*
X240000Y700000D02*
D03*
X220000D02*
D03*
X210000Y690000D02*
D03*
X340000Y617500D02*
D03*
X365000D02*
D03*
Y635000D02*
D03*
X386000Y593000D02*
D03*
X397500Y567500D02*
D03*
X387500Y462500D02*
D03*
X322500Y495000D02*
D03*
X357500Y492500D02*
D03*
X250000Y470000D02*
D03*
X365000Y397500D02*
D03*
X382500Y342500D02*
D03*
X397500Y330000D02*
D03*
X322500Y370000D02*
D03*
X357500Y372500D02*
D03*
X297500Y207500D02*
D03*
X247500D02*
D03*
X227500Y227500D02*
D03*
X207500Y207500D02*
D03*
X280000Y220000D02*
D03*
X310000Y232500D02*
D03*
X207500Y245000D02*
D03*
X217500D02*
D03*
X227500D02*
D03*
X235000Y252500D02*
D03*
Y262500D02*
D03*
X340000Y242500D02*
D03*
X357000Y251000D02*
D03*
X325000Y252500D02*
D03*
X535000Y257500D02*
D03*
X525000Y270000D02*
D03*
X512500D02*
D03*
X502500Y257500D02*
D03*
X587500Y220000D02*
D03*
X612500Y210000D02*
D03*
Y225000D02*
D03*
X640000Y215000D02*
D03*
Y227500D02*
D03*
X885000Y260000D02*
D03*
X900000Y280000D02*
D03*
X855000Y255000D02*
D03*
X870000Y265000D02*
D03*
X885000Y275000D02*
D03*
X855000D02*
D03*
X840000Y265000D02*
D03*
Y280000D02*
D03*
Y295000D02*
D03*
X900000D02*
D03*
Y310000D02*
D03*
X885000D02*
D03*
X870000D02*
D03*
X1039500Y314500D02*
D03*
X235000Y461112D02*
D03*
Y469143D02*
D03*
X998000Y616000D02*
D03*
X1002010Y578868D02*
D03*
X1032000Y512000D02*
D03*
X1010000Y611000D02*
D03*
X940000Y612000D02*
D03*
X1040000Y581000D02*
D03*
X1015000Y726000D02*
D03*
X935000Y727000D02*
D03*
X233000Y685000D02*
D03*
Y676000D02*
D03*
X232000Y276000D02*
D03*
D89*
X966575Y264575D02*
D03*
X921000Y298000D02*
D03*
X915000Y265000D02*
D03*
X627500D02*
D03*
X340000Y215000D02*
D03*
X360000D02*
D03*
M02*
