G04*
G04 #@! TF.GenerationSoftware,Altium Limited,Altium Designer,24.4.1 (13)*
G04*
G04 Layer_Color=8388736*
%FSLAX44Y44*%
%MOMM*%
G71*
G04*
G04 #@! TF.SameCoordinates,12DE7ABD-5068-41A5-B1A4-11BDF0A404C9*
G04*
G04*
G04 #@! TF.FilePolarity,Negative*
G04*
G01*
G75*
%ADD44C,3.0000*%
G04:AMPARAMS|DCode=45|XSize=2.32mm|YSize=1.17mm|CornerRadius=0.165mm|HoleSize=0mm|Usage=FLASHONLY|Rotation=90.000|XOffset=0mm|YOffset=0mm|HoleType=Round|Shape=RoundedRectangle|*
%AMROUNDEDRECTD45*
21,1,2.3200,0.8400,0,0,90.0*
21,1,1.9900,1.1700,0,0,90.0*
1,1,0.3300,0.4200,0.9950*
1,1,0.3300,0.4200,-0.9950*
1,1,0.3300,-0.4200,-0.9950*
1,1,0.3300,-0.4200,0.9950*
%
%ADD45ROUNDEDRECTD45*%
G04:AMPARAMS|DCode=46|XSize=1.17mm|YSize=1.17mm|CornerRadius=0.165mm|HoleSize=0mm|Usage=FLASHONLY|Rotation=0.000|XOffset=0mm|YOffset=0mm|HoleType=Round|Shape=RoundedRectangle|*
%AMROUNDEDRECTD46*
21,1,1.1700,0.8400,0,0,0.0*
21,1,0.8400,1.1700,0,0,0.0*
1,1,0.3300,0.4200,-0.4200*
1,1,0.3300,-0.4200,-0.4200*
1,1,0.3300,-0.4200,0.4200*
1,1,0.3300,0.4200,0.4200*
%
%ADD46ROUNDEDRECTD46*%
%ADD47R,1.0200X0.5700*%
%ADD48R,1.5200X1.1200*%
%ADD49R,1.5200X1.5200*%
%ADD50R,0.9200X0.4200*%
%ADD51R,0.7200X0.7600*%
%ADD52R,0.7200X0.6200*%
%ADD53R,0.6200X0.7200*%
%ADD54C,1.1200*%
%ADD55R,3.5700X4.4700*%
%ADD56R,1.1700X0.5700*%
%ADD57R,1.0200X1.1200*%
%ADD58R,1.5950X0.4200*%
%ADD59R,0.4200X1.5950*%
%ADD60R,1.5950X0.5700*%
%ADD61R,1.1700X0.5200*%
%ADD62R,0.7600X0.7200*%
%ADD63C,1.5200*%
%ADD64R,0.7200X1.2700*%
%ADD65R,0.9200X2.8200*%
%ADD66R,1.3700X1.7700*%
%ADD67R,1.1200X1.0200*%
%ADD68C,0.5400*%
%ADD69R,1.9200X1.4200*%
%ADD70R,1.4200X1.9200*%
%ADD71R,0.9200X1.0200*%
%ADD72R,1.0700X1.0200*%
%ADD73R,2.1200X0.5000*%
%ADD74R,1.2200X1.4200*%
%ADD75C,1.6200*%
%ADD76R,1.6200X1.6200*%
D44*
X920000Y240000D02*
D03*
X923000Y702000D02*
D03*
X320000Y240000D02*
D03*
D45*
X905400Y672500D02*
D03*
X875000D02*
D03*
X952900D02*
D03*
X922500D02*
D03*
D46*
X890000Y657500D02*
D03*
X937500D02*
D03*
D47*
X266500Y251000D02*
D03*
Y243000D02*
D03*
Y267000D02*
D03*
Y259000D02*
D03*
X283500D02*
D03*
Y267000D02*
D03*
Y243000D02*
D03*
Y251000D02*
D03*
X301500Y483000D02*
D03*
Y475000D02*
D03*
Y499000D02*
D03*
Y491000D02*
D03*
X318500D02*
D03*
Y499000D02*
D03*
Y475000D02*
D03*
Y483000D02*
D03*
X303500Y608000D02*
D03*
Y600000D02*
D03*
Y624000D02*
D03*
Y616000D02*
D03*
X320500D02*
D03*
Y624000D02*
D03*
Y600000D02*
D03*
Y608000D02*
D03*
X266500Y510000D02*
D03*
Y502000D02*
D03*
Y526000D02*
D03*
Y518000D02*
D03*
X283500D02*
D03*
Y526000D02*
D03*
Y502000D02*
D03*
Y510000D02*
D03*
X266500Y386000D02*
D03*
Y378000D02*
D03*
Y402000D02*
D03*
Y394000D02*
D03*
X283500D02*
D03*
Y402000D02*
D03*
Y378000D02*
D03*
Y386000D02*
D03*
X301500Y358000D02*
D03*
Y350000D02*
D03*
Y374000D02*
D03*
Y366000D02*
D03*
X318500D02*
D03*
Y374000D02*
D03*
Y350000D02*
D03*
Y358000D02*
D03*
X301500Y322000D02*
D03*
Y314000D02*
D03*
Y338000D02*
D03*
Y330000D02*
D03*
X318500D02*
D03*
Y338000D02*
D03*
Y314000D02*
D03*
Y322000D02*
D03*
X266500Y287000D02*
D03*
Y279000D02*
D03*
Y303000D02*
D03*
Y295000D02*
D03*
X283500D02*
D03*
Y303000D02*
D03*
Y279000D02*
D03*
Y287000D02*
D03*
X266500Y422000D02*
D03*
Y414000D02*
D03*
Y438000D02*
D03*
Y430000D02*
D03*
X283500D02*
D03*
Y438000D02*
D03*
Y414000D02*
D03*
Y422000D02*
D03*
X301500Y447000D02*
D03*
Y439000D02*
D03*
Y463000D02*
D03*
Y455000D02*
D03*
X318500D02*
D03*
Y463000D02*
D03*
Y439000D02*
D03*
Y447000D02*
D03*
X266500Y546000D02*
D03*
Y538000D02*
D03*
Y562000D02*
D03*
Y554000D02*
D03*
X283500D02*
D03*
Y562000D02*
D03*
Y538000D02*
D03*
Y546000D02*
D03*
X303500Y572000D02*
D03*
Y564000D02*
D03*
Y588000D02*
D03*
Y580000D02*
D03*
X320500D02*
D03*
Y588000D02*
D03*
Y564000D02*
D03*
Y572000D02*
D03*
X266500Y638000D02*
D03*
Y630000D02*
D03*
Y654000D02*
D03*
Y646000D02*
D03*
X283500D02*
D03*
Y654000D02*
D03*
Y630000D02*
D03*
Y638000D02*
D03*
X266500Y674000D02*
D03*
Y666000D02*
D03*
Y690000D02*
D03*
Y682000D02*
D03*
X283500D02*
D03*
Y690000D02*
D03*
Y666000D02*
D03*
Y674000D02*
D03*
D48*
X889250Y620500D02*
D03*
Y639500D02*
D03*
X911250D02*
D03*
D49*
Y622500D02*
D03*
D50*
X766000Y567500D02*
D03*
Y572500D02*
D03*
Y577500D02*
D03*
Y582500D02*
D03*
X734000D02*
D03*
Y577500D02*
D03*
Y572500D02*
D03*
Y567500D02*
D03*
D51*
X745600Y552500D02*
D03*
X754400D02*
D03*
X495400Y293000D02*
D03*
X486600D02*
D03*
X720400Y442000D02*
D03*
X711600D02*
D03*
X659400Y303000D02*
D03*
X650600D02*
D03*
X593100Y667500D02*
D03*
X601900D02*
D03*
X620600Y650000D02*
D03*
X629400D02*
D03*
Y667500D02*
D03*
X620600D02*
D03*
X735600Y446000D02*
D03*
X744400D02*
D03*
X452400Y500000D02*
D03*
X443600D02*
D03*
X450400Y405000D02*
D03*
X441600D02*
D03*
X714400Y665000D02*
D03*
X705600D02*
D03*
X745400Y532000D02*
D03*
X736600D02*
D03*
X741900Y665000D02*
D03*
X733100D02*
D03*
X741900Y650000D02*
D03*
X733100D02*
D03*
X744400Y435000D02*
D03*
X735600D02*
D03*
X840600Y665000D02*
D03*
X849400D02*
D03*
X840600Y650000D02*
D03*
X849400D02*
D03*
X821900Y665000D02*
D03*
X813100D02*
D03*
X861600Y489000D02*
D03*
X870400D02*
D03*
X745400Y484500D02*
D03*
X736600D02*
D03*
X443600Y587000D02*
D03*
X452400D02*
D03*
X443600Y677000D02*
D03*
X452400D02*
D03*
D52*
X649000Y363000D02*
D03*
Y353000D02*
D03*
X616000Y322000D02*
D03*
Y332000D02*
D03*
X680000Y353000D02*
D03*
Y363000D02*
D03*
X691000D02*
D03*
Y353000D02*
D03*
X724000Y343000D02*
D03*
Y333000D02*
D03*
Y363000D02*
D03*
Y353000D02*
D03*
X669000Y363000D02*
D03*
Y353000D02*
D03*
X649000Y332000D02*
D03*
Y322000D02*
D03*
X659000Y363000D02*
D03*
Y353000D02*
D03*
X468000Y305000D02*
D03*
Y315000D02*
D03*
X695000Y660000D02*
D03*
Y650000D02*
D03*
X802500Y660000D02*
D03*
Y650000D02*
D03*
X712000Y353000D02*
D03*
Y363000D02*
D03*
X627000Y322000D02*
D03*
Y332000D02*
D03*
X638000Y322000D02*
D03*
Y332000D02*
D03*
X594000D02*
D03*
Y322000D02*
D03*
X605000D02*
D03*
Y332000D02*
D03*
X594000Y344000D02*
D03*
Y354000D02*
D03*
X582000D02*
D03*
Y344000D02*
D03*
X712000Y333000D02*
D03*
Y343000D02*
D03*
X701000Y333000D02*
D03*
Y343000D02*
D03*
X701000Y353000D02*
D03*
Y363000D02*
D03*
X796000Y517500D02*
D03*
Y527500D02*
D03*
X580000Y650000D02*
D03*
Y660000D02*
D03*
D53*
X650000Y293000D02*
D03*
X660000D02*
D03*
X555000Y318000D02*
D03*
X545000D02*
D03*
Y307000D02*
D03*
X555000D02*
D03*
X523000Y318000D02*
D03*
X533000D02*
D03*
X555000Y261000D02*
D03*
X545000D02*
D03*
X660000Y259000D02*
D03*
X650000D02*
D03*
X545000Y296000D02*
D03*
X555000D02*
D03*
X711000Y472000D02*
D03*
X721000D02*
D03*
X711000Y484500D02*
D03*
X721000D02*
D03*
X711000Y457000D02*
D03*
X721000D02*
D03*
X660000Y283000D02*
D03*
X650000D02*
D03*
X555000Y271000D02*
D03*
X545000D02*
D03*
X555000Y285000D02*
D03*
X545000D02*
D03*
X736000Y472000D02*
D03*
X746000D02*
D03*
X650000Y273000D02*
D03*
X660000D02*
D03*
X812500Y650000D02*
D03*
X822500D02*
D03*
X705000D02*
D03*
X715000D02*
D03*
X592500D02*
D03*
X602500D02*
D03*
D54*
X750000Y380000D02*
D03*
X810000Y545000D02*
D03*
X827500D02*
D03*
X775000Y380000D02*
D03*
D55*
X602000Y278000D02*
D03*
D56*
X630500Y297050D02*
D03*
Y284350D02*
D03*
Y271650D02*
D03*
Y258950D02*
D03*
X573500D02*
D03*
Y271650D02*
D03*
Y284350D02*
D03*
Y297050D02*
D03*
D57*
X745750Y421000D02*
D03*
X732250D02*
D03*
X854250Y615000D02*
D03*
X840750D02*
D03*
X634250Y635000D02*
D03*
X620750D02*
D03*
X854250Y632500D02*
D03*
X840750D02*
D03*
X733250Y615000D02*
D03*
X746750D02*
D03*
X869750Y502000D02*
D03*
X856250D02*
D03*
X869750Y519000D02*
D03*
X856250D02*
D03*
X733250Y632500D02*
D03*
X746750D02*
D03*
X634250Y615000D02*
D03*
X620750D02*
D03*
D58*
X760620Y485500D02*
D03*
Y480500D02*
D03*
Y475500D02*
D03*
Y470500D02*
D03*
Y465500D02*
D03*
Y460500D02*
D03*
Y455500D02*
D03*
Y450500D02*
D03*
Y445500D02*
D03*
Y440500D02*
D03*
Y435500D02*
D03*
Y430500D02*
D03*
X845380D02*
D03*
Y435500D02*
D03*
Y440500D02*
D03*
Y445500D02*
D03*
Y450500D02*
D03*
Y455500D02*
D03*
Y460500D02*
D03*
Y465500D02*
D03*
Y470500D02*
D03*
Y475500D02*
D03*
Y480500D02*
D03*
Y485500D02*
D03*
D59*
X775500Y415620D02*
D03*
X780500D02*
D03*
X785500D02*
D03*
X790500D02*
D03*
X795500D02*
D03*
X800500D02*
D03*
X805500D02*
D03*
X810500D02*
D03*
X815500D02*
D03*
X820500D02*
D03*
X825500D02*
D03*
X830500D02*
D03*
Y500380D02*
D03*
X825500D02*
D03*
X820500D02*
D03*
X815500D02*
D03*
X810500D02*
D03*
X805500D02*
D03*
X800500D02*
D03*
X795500D02*
D03*
X790500D02*
D03*
X785500D02*
D03*
X780500D02*
D03*
X775500D02*
D03*
D60*
X423380Y311750D02*
D03*
Y305250D02*
D03*
Y298750D02*
D03*
Y292250D02*
D03*
Y285750D02*
D03*
Y279250D02*
D03*
Y272750D02*
D03*
Y266250D02*
D03*
Y259750D02*
D03*
Y253250D02*
D03*
Y246750D02*
D03*
Y240250D02*
D03*
X364620D02*
D03*
Y246750D02*
D03*
Y253250D02*
D03*
Y259750D02*
D03*
Y266250D02*
D03*
Y272750D02*
D03*
Y279250D02*
D03*
Y285750D02*
D03*
Y292250D02*
D03*
Y298750D02*
D03*
Y305250D02*
D03*
Y311750D02*
D03*
X423000Y405000D02*
D03*
Y398500D02*
D03*
Y392000D02*
D03*
Y385500D02*
D03*
Y379000D02*
D03*
Y372500D02*
D03*
Y366000D02*
D03*
Y359500D02*
D03*
Y353000D02*
D03*
Y346500D02*
D03*
Y340000D02*
D03*
Y333500D02*
D03*
X364240D02*
D03*
Y340000D02*
D03*
Y346500D02*
D03*
Y353000D02*
D03*
Y359500D02*
D03*
Y366000D02*
D03*
Y372500D02*
D03*
Y379000D02*
D03*
Y385500D02*
D03*
Y392000D02*
D03*
Y398500D02*
D03*
Y405000D02*
D03*
X423880Y676750D02*
D03*
Y670250D02*
D03*
Y663750D02*
D03*
Y657250D02*
D03*
Y650750D02*
D03*
Y644250D02*
D03*
Y637750D02*
D03*
Y631250D02*
D03*
Y624750D02*
D03*
Y618250D02*
D03*
Y611750D02*
D03*
Y605250D02*
D03*
X365120D02*
D03*
Y611750D02*
D03*
Y618250D02*
D03*
Y624750D02*
D03*
Y631250D02*
D03*
Y637750D02*
D03*
Y644250D02*
D03*
Y650750D02*
D03*
Y657250D02*
D03*
Y663750D02*
D03*
Y670250D02*
D03*
Y676750D02*
D03*
X423880Y499750D02*
D03*
Y493250D02*
D03*
Y486750D02*
D03*
Y480250D02*
D03*
Y473750D02*
D03*
Y467250D02*
D03*
Y460750D02*
D03*
Y454250D02*
D03*
Y447750D02*
D03*
Y441250D02*
D03*
Y434750D02*
D03*
Y428250D02*
D03*
X365120D02*
D03*
Y434750D02*
D03*
Y441250D02*
D03*
Y447750D02*
D03*
Y454250D02*
D03*
Y460750D02*
D03*
Y467250D02*
D03*
Y473750D02*
D03*
Y480250D02*
D03*
Y486750D02*
D03*
Y493250D02*
D03*
Y499750D02*
D03*
X365120Y586750D02*
D03*
Y580250D02*
D03*
Y573750D02*
D03*
Y567250D02*
D03*
Y560750D02*
D03*
Y554250D02*
D03*
Y547750D02*
D03*
Y541250D02*
D03*
Y534750D02*
D03*
Y528250D02*
D03*
Y521750D02*
D03*
Y515250D02*
D03*
X423880D02*
D03*
Y521750D02*
D03*
Y528250D02*
D03*
Y534750D02*
D03*
Y541250D02*
D03*
Y547750D02*
D03*
Y554250D02*
D03*
Y560750D02*
D03*
Y567250D02*
D03*
Y573750D02*
D03*
Y580250D02*
D03*
Y586750D02*
D03*
D61*
X501000Y304500D02*
D03*
Y311000D02*
D03*
Y317500D02*
D03*
X481000D02*
D03*
Y304500D02*
D03*
D62*
X458000Y315600D02*
D03*
Y324400D02*
D03*
X448000Y324400D02*
D03*
Y315600D02*
D03*
X773500Y520100D02*
D03*
Y528900D02*
D03*
X832000Y400400D02*
D03*
Y391600D02*
D03*
D63*
X832500Y682500D02*
D03*
X722500D02*
D03*
X611000Y682000D02*
D03*
X320000Y695000D02*
D03*
X947500Y392500D02*
D03*
Y432500D02*
D03*
X887500Y240000D02*
D03*
X720000Y265000D02*
D03*
X897500Y587500D02*
D03*
Y567500D02*
D03*
X880000Y470000D02*
D03*
X897500Y547500D02*
D03*
X850000Y260000D02*
D03*
X825000D02*
D03*
X800000D02*
D03*
X775000D02*
D03*
X747500D02*
D03*
D64*
X543000Y640500D02*
D03*
X562000D02*
D03*
Y614500D02*
D03*
X552500D02*
D03*
X543000D02*
D03*
X658000Y640500D02*
D03*
X677000D02*
D03*
Y614500D02*
D03*
X667500D02*
D03*
X658000D02*
D03*
X765500Y640500D02*
D03*
X784500D02*
D03*
Y614500D02*
D03*
X775000D02*
D03*
X765500D02*
D03*
D65*
X824000Y620000D02*
D03*
X801000D02*
D03*
X693500D02*
D03*
X716500D02*
D03*
X578500D02*
D03*
X601500D02*
D03*
D66*
X372750Y697500D02*
D03*
X407250D02*
D03*
D67*
X677500Y699250D02*
D03*
Y685750D02*
D03*
X785000Y685000D02*
D03*
Y698500D02*
D03*
X562500Y685750D02*
D03*
Y699250D02*
D03*
D68*
X528500Y508500D02*
D03*
X536500D02*
D03*
X544500D02*
D03*
X552500D02*
D03*
X560500D02*
D03*
X568500D02*
D03*
X576500D02*
D03*
X584500D02*
D03*
X592500D02*
D03*
X600500D02*
D03*
X608500D02*
D03*
X616500D02*
D03*
X624500D02*
D03*
X632500D02*
D03*
X640500D02*
D03*
X648500D02*
D03*
X528500Y500500D02*
D03*
X536500D02*
D03*
X544500D02*
D03*
X552500D02*
D03*
X560500D02*
D03*
X568500D02*
D03*
X576500D02*
D03*
X584500D02*
D03*
X592500D02*
D03*
X600500D02*
D03*
X608500D02*
D03*
X616500D02*
D03*
X624500D02*
D03*
X632500D02*
D03*
X640500D02*
D03*
X648500D02*
D03*
X528500Y492500D02*
D03*
X536500D02*
D03*
X544500D02*
D03*
X552500D02*
D03*
X560500D02*
D03*
X568500D02*
D03*
X576500D02*
D03*
X584500D02*
D03*
X592500D02*
D03*
X600500D02*
D03*
X608500D02*
D03*
X616500D02*
D03*
X624500D02*
D03*
X632500D02*
D03*
X640500D02*
D03*
X648500D02*
D03*
X528500Y484500D02*
D03*
X536500D02*
D03*
X544500D02*
D03*
X552500D02*
D03*
X560500D02*
D03*
X568500D02*
D03*
X576500D02*
D03*
X584500D02*
D03*
X592500D02*
D03*
X600500D02*
D03*
X608500D02*
D03*
X616500D02*
D03*
X624500D02*
D03*
X632500D02*
D03*
X640500D02*
D03*
X648500D02*
D03*
X528500Y476500D02*
D03*
X536500D02*
D03*
X544500D02*
D03*
X552500D02*
D03*
X560500D02*
D03*
X568500D02*
D03*
X576500D02*
D03*
X584500D02*
D03*
X592500D02*
D03*
X600500D02*
D03*
X608500D02*
D03*
X616500D02*
D03*
X624500D02*
D03*
X632500D02*
D03*
X640500D02*
D03*
X648500D02*
D03*
X528500Y468500D02*
D03*
X536500D02*
D03*
X544500D02*
D03*
X552500D02*
D03*
X560500D02*
D03*
X568500D02*
D03*
X576500D02*
D03*
X584500D02*
D03*
X592500D02*
D03*
X600500D02*
D03*
X608500D02*
D03*
X616500D02*
D03*
X624500D02*
D03*
X632500D02*
D03*
X640500D02*
D03*
X648500D02*
D03*
X528500Y460500D02*
D03*
X536500D02*
D03*
X544500D02*
D03*
X552500D02*
D03*
X560500D02*
D03*
X568500D02*
D03*
X576500D02*
D03*
X584500D02*
D03*
X592500D02*
D03*
X600500D02*
D03*
X608500D02*
D03*
X616500D02*
D03*
X624500D02*
D03*
X632500D02*
D03*
X640500D02*
D03*
X648500D02*
D03*
X528500Y452500D02*
D03*
X536500D02*
D03*
X544500D02*
D03*
X552500D02*
D03*
X560500D02*
D03*
X568500D02*
D03*
X576500D02*
D03*
X584500D02*
D03*
X592500D02*
D03*
X600500D02*
D03*
X608500D02*
D03*
X616500D02*
D03*
X624500D02*
D03*
X632500D02*
D03*
X640500D02*
D03*
X648500D02*
D03*
X528500Y444500D02*
D03*
X536500D02*
D03*
X544500D02*
D03*
X552500D02*
D03*
X560500D02*
D03*
X568500D02*
D03*
X576500D02*
D03*
X584500D02*
D03*
X592500D02*
D03*
X600500D02*
D03*
X608500D02*
D03*
X616500D02*
D03*
X624500D02*
D03*
X632500D02*
D03*
X640500D02*
D03*
X648500D02*
D03*
X528500Y436500D02*
D03*
X536500D02*
D03*
X544500D02*
D03*
X552500D02*
D03*
X560500D02*
D03*
X568500D02*
D03*
X576500D02*
D03*
X584500D02*
D03*
X592500D02*
D03*
X600500D02*
D03*
X608500D02*
D03*
X616500D02*
D03*
X624500D02*
D03*
X632500D02*
D03*
X640500D02*
D03*
X648500D02*
D03*
X528500Y428500D02*
D03*
X536500D02*
D03*
X544500D02*
D03*
X552500D02*
D03*
X560500D02*
D03*
X568500D02*
D03*
X576500D02*
D03*
X584500D02*
D03*
X592500D02*
D03*
X600500D02*
D03*
X608500D02*
D03*
X616500D02*
D03*
X624500D02*
D03*
X632500D02*
D03*
X640500D02*
D03*
X648500D02*
D03*
X528500Y420500D02*
D03*
X536500D02*
D03*
X544500D02*
D03*
X552500D02*
D03*
X560500D02*
D03*
X568500D02*
D03*
X576500D02*
D03*
X584500D02*
D03*
X592500D02*
D03*
X600500D02*
D03*
X608500D02*
D03*
X616500D02*
D03*
X624500D02*
D03*
X632500D02*
D03*
X640500D02*
D03*
X648500D02*
D03*
X528500Y412500D02*
D03*
X536500D02*
D03*
X544500D02*
D03*
X552500D02*
D03*
X560500D02*
D03*
X568500D02*
D03*
X576500D02*
D03*
X584500D02*
D03*
X592500D02*
D03*
X600500D02*
D03*
X608500D02*
D03*
X616500D02*
D03*
X624500D02*
D03*
X632500D02*
D03*
X640500D02*
D03*
X648500D02*
D03*
X528500Y404500D02*
D03*
X536500D02*
D03*
X544500D02*
D03*
X552500D02*
D03*
X560500D02*
D03*
X568500D02*
D03*
X576500D02*
D03*
X584500D02*
D03*
X592500D02*
D03*
X600500D02*
D03*
X608500D02*
D03*
X616500D02*
D03*
X624500D02*
D03*
X632500D02*
D03*
X640500D02*
D03*
X648500D02*
D03*
X528500Y396500D02*
D03*
X536500D02*
D03*
X544500D02*
D03*
X552500D02*
D03*
X560500D02*
D03*
X568500D02*
D03*
X576500D02*
D03*
X584500D02*
D03*
X592500D02*
D03*
X600500D02*
D03*
X608500D02*
D03*
X616500D02*
D03*
X624500D02*
D03*
X632500D02*
D03*
X640500D02*
D03*
X648500D02*
D03*
X528500Y388500D02*
D03*
X536500D02*
D03*
X544500D02*
D03*
X552500D02*
D03*
X560500D02*
D03*
X568500D02*
D03*
X576500D02*
D03*
X584500D02*
D03*
X592500D02*
D03*
X600500D02*
D03*
X608500D02*
D03*
X616500D02*
D03*
X624500D02*
D03*
X632500D02*
D03*
X640500D02*
D03*
X648500D02*
D03*
D69*
X502000Y695500D02*
D03*
Y666500D02*
D03*
X472000Y695500D02*
D03*
Y666500D02*
D03*
D70*
X755500Y662500D02*
D03*
X784500D02*
D03*
X648000D02*
D03*
X677000D02*
D03*
X533000D02*
D03*
X562000D02*
D03*
D71*
X890000Y376500D02*
D03*
Y393500D02*
D03*
Y426500D02*
D03*
Y443500D02*
D03*
D72*
X910000Y377000D02*
D03*
Y393000D02*
D03*
Y427000D02*
D03*
Y443000D02*
D03*
D73*
X213000Y644625D02*
D03*
Y638275D02*
D03*
Y631925D02*
D03*
Y625575D02*
D03*
Y682725D02*
D03*
Y670025D02*
D03*
Y657325D02*
D03*
Y619225D02*
D03*
Y606525D02*
D03*
Y593825D02*
D03*
Y581125D02*
D03*
Y568425D02*
D03*
Y555725D02*
D03*
Y543025D02*
D03*
Y530325D02*
D03*
Y517625D02*
D03*
Y504925D02*
D03*
Y492225D02*
D03*
Y479525D02*
D03*
Y466825D02*
D03*
Y454125D02*
D03*
Y441425D02*
D03*
Y428725D02*
D03*
Y416025D02*
D03*
Y403325D02*
D03*
Y390625D02*
D03*
Y377925D02*
D03*
Y365225D02*
D03*
Y352525D02*
D03*
Y339825D02*
D03*
Y327125D02*
D03*
Y314425D02*
D03*
Y301725D02*
D03*
Y289025D02*
D03*
Y276325D02*
D03*
Y263625D02*
D03*
Y676375D02*
D03*
Y663675D02*
D03*
Y650975D02*
D03*
Y612875D02*
D03*
Y600175D02*
D03*
Y587475D02*
D03*
Y574775D02*
D03*
Y562075D02*
D03*
Y549375D02*
D03*
Y536675D02*
D03*
Y523975D02*
D03*
Y511275D02*
D03*
Y498575D02*
D03*
Y485875D02*
D03*
Y473175D02*
D03*
Y460475D02*
D03*
Y447775D02*
D03*
Y435075D02*
D03*
Y422375D02*
D03*
Y409675D02*
D03*
Y396975D02*
D03*
Y384275D02*
D03*
Y371575D02*
D03*
Y358875D02*
D03*
Y346175D02*
D03*
Y333475D02*
D03*
Y320775D02*
D03*
Y308075D02*
D03*
Y295375D02*
D03*
Y282675D02*
D03*
Y269975D02*
D03*
Y257275D02*
D03*
D74*
X702500Y533000D02*
D03*
X719500D02*
D03*
X702500Y511000D02*
D03*
X719500D02*
D03*
D75*
X865000Y355400D02*
D03*
Y304600D02*
D03*
Y330000D02*
D03*
X940000Y575000D02*
D03*
Y595000D02*
D03*
Y615000D02*
D03*
Y535000D02*
D03*
Y555000D02*
D03*
Y635000D02*
D03*
X761000Y308000D02*
D03*
X781000Y288000D02*
D03*
Y308000D02*
D03*
X801000Y288000D02*
D03*
Y308000D02*
D03*
X821000Y288000D02*
D03*
Y308000D02*
D03*
X841000Y288000D02*
D03*
Y308000D02*
D03*
D76*
X865000Y279200D02*
D03*
X940000Y515000D02*
D03*
X761000Y288000D02*
D03*
M02*
