G04*
G04 #@! TF.GenerationSoftware,Altium Limited,Altium Designer,24.4.1 (13)*
G04*
G04 Layer_Physical_Order=3*
G04 Layer_Color=16440176*
%FSLAX44Y44*%
%MOMM*%
G71*
G04*
G04 #@! TF.SameCoordinates,12DE7ABD-5068-41A5-B1A4-11BDF0A404C9*
G04*
G04*
G04 #@! TF.FilePolarity,Positive*
G04*
G01*
G75*
%ADD12C,0.2500*%
%ADD37C,0.4200*%
%ADD83C,0.5000*%
%ADD84C,0.4000*%
%ADD86C,0.6000*%
%ADD87C,1.5000*%
%ADD88R,1.5000X1.5000*%
%ADD89C,0.4000*%
G36*
X941626Y715844D02*
X941704Y714451D01*
X940430Y713177D01*
X940291Y712968D01*
X940113Y712791D01*
X939019Y711153D01*
X938923Y710921D01*
X938783Y710712D01*
X938029Y708892D01*
X937980Y708646D01*
X937884Y708414D01*
X937500Y706482D01*
Y706231D01*
X937451Y705985D01*
Y704015D01*
X937500Y703769D01*
Y703518D01*
X937884Y701586D01*
X937980Y701354D01*
X938029Y701108D01*
X938783Y699288D01*
X938923Y699079D01*
X939019Y698847D01*
X940113Y697209D01*
X940291Y697032D01*
X940430Y696823D01*
X941823Y695430D01*
X942032Y695291D01*
X942209Y695113D01*
X943847Y694019D01*
X944079Y693923D01*
X944288Y693783D01*
X946108Y693029D01*
X946354Y692980D01*
X946586Y692884D01*
X948518Y692500D01*
X948769D01*
X949015Y692451D01*
X950985D01*
X951231Y692500D01*
X951482D01*
X953414Y692884D01*
X953646Y692980D01*
X953892Y693029D01*
X955712Y693783D01*
X955921Y693923D01*
X956153Y694019D01*
X957791Y695113D01*
X957968Y695291D01*
X958177Y695430D01*
X959451Y696704D01*
X960844Y696626D01*
X962451Y695647D01*
Y497549D01*
X935000D01*
X934025Y497355D01*
X933198Y496802D01*
X932645Y495975D01*
X932451Y495000D01*
Y465000D01*
X932645Y464025D01*
X933198Y463198D01*
X934025Y462645D01*
X935000Y462451D01*
X962451D01*
Y286838D01*
X938824D01*
Y262838D01*
X962451D01*
Y222549D01*
X232549D01*
Y250000D01*
X232355Y250975D01*
X231802Y251802D01*
X230975Y252355D01*
X230000Y252549D01*
X202549D01*
Y687451D01*
X230000D01*
X230975Y687645D01*
X231802Y688198D01*
X232355Y689025D01*
X232549Y690000D01*
Y717451D01*
X940647Y717451D01*
X941626Y715844D01*
D02*
G37*
G36*
X960825Y264837D02*
X940825D01*
Y284837D01*
X960825D01*
Y264837D01*
D02*
G37*
%LPC*%
G36*
X865798Y712039D02*
X865018Y711884D01*
X864356Y711442D01*
X863667Y710753D01*
X862910Y710439D01*
X862090D01*
X861333Y710753D01*
X860644Y711442D01*
X859982Y711884D01*
X859202Y712039D01*
X814100D01*
X813320Y711884D01*
X812658Y711442D01*
X812216Y710780D01*
X810939Y709879D01*
X810177Y709910D01*
X808067Y710677D01*
X807684Y710930D01*
X807342Y711442D01*
X806680Y711884D01*
X805900Y712039D01*
X760798D01*
X760798Y712039D01*
X760018Y711884D01*
X759356Y711442D01*
X758667Y710753D01*
X757910Y710439D01*
X757090D01*
X756333Y710753D01*
X755644Y711442D01*
X754982Y711884D01*
X754202Y712039D01*
X700798D01*
X700798Y712039D01*
X700018Y711884D01*
X699356Y711442D01*
X698667Y710753D01*
X697910Y710439D01*
X697090D01*
X696333Y710753D01*
X695644Y711442D01*
X694982Y711884D01*
X694202Y712039D01*
X656798D01*
X656018Y711884D01*
X655356Y711442D01*
X655167Y711253D01*
X654410Y710939D01*
X653590D01*
X652833Y711253D01*
X652644Y711442D01*
X651982Y711884D01*
X651202Y712039D01*
X596798D01*
X596018Y711884D01*
X595356Y711442D01*
X595167Y711253D01*
X594410Y710939D01*
X593590D01*
X592833Y711253D01*
X592644Y711442D01*
X591982Y711884D01*
X591202Y712039D01*
X540798D01*
X540018Y711884D01*
X539356Y711442D01*
X539167Y711253D01*
X538410Y710939D01*
X537590D01*
X536833Y711253D01*
X536644Y711442D01*
X535982Y711884D01*
X535202Y712039D01*
X517500D01*
X517500Y712039D01*
X516720Y711884D01*
X516058Y711442D01*
X513558Y708942D01*
X513116Y708280D01*
X512961Y707500D01*
Y690000D01*
X512961Y690000D01*
X513116Y689220D01*
X513558Y688558D01*
X517077Y685039D01*
X515834Y682039D01*
X509150D01*
X508958Y682001D01*
X508762Y682002D01*
X508571Y681924D01*
X508369Y681884D01*
X508206Y681775D01*
X508025Y681701D01*
X505476Y680017D01*
X505330Y679872D01*
X505158Y679757D01*
X505049Y679595D01*
X504910Y679457D01*
X504831Y679267D01*
X504716Y679096D01*
X504678Y678904D01*
X504602Y678724D01*
X504601Y678518D01*
X504561Y678316D01*
Y677090D01*
X504247Y676333D01*
X503667Y675753D01*
X502910Y675439D01*
X502090D01*
X501333Y675753D01*
X500753Y676333D01*
X500439Y677090D01*
Y678316D01*
X500399Y678518D01*
X500398Y678724D01*
X500322Y678904D01*
X500284Y679096D01*
X500169Y679267D01*
X500090Y679457D01*
X499951Y679595D01*
X499842Y679757D01*
X499671Y679872D01*
X499524Y680017D01*
X496975Y681701D01*
X496794Y681775D01*
X496631Y681884D01*
X496429Y681924D01*
X496238Y682002D01*
X496042Y682001D01*
X495851Y682039D01*
X479149D01*
X478958Y682001D01*
X478762Y682002D01*
X478571Y681924D01*
X478369Y681884D01*
X478206Y681775D01*
X478025Y681701D01*
X475476Y680017D01*
X475330Y679872D01*
X475158Y679757D01*
X475049Y679595D01*
X474910Y679457D01*
X474831Y679267D01*
X474716Y679096D01*
X474678Y678904D01*
X474602Y678724D01*
X474601Y678518D01*
X474561Y678316D01*
Y677090D01*
X474247Y676333D01*
X473667Y675753D01*
X472910Y675439D01*
X472090D01*
X471333Y675753D01*
X470753Y676333D01*
X470439Y677090D01*
Y678316D01*
X470399Y678518D01*
X470398Y678724D01*
X470322Y678904D01*
X470284Y679096D01*
X470169Y679267D01*
X470090Y679457D01*
X469951Y679595D01*
X469842Y679757D01*
X469671Y679872D01*
X469524Y680017D01*
X466975Y681701D01*
X466794Y681775D01*
X466631Y681884D01*
X466429Y681924D01*
X466238Y682002D01*
X466042Y682001D01*
X465851Y682039D01*
X410000D01*
X410000Y682039D01*
X409220Y681884D01*
X408558Y681442D01*
X402598Y675482D01*
X402156Y674821D01*
X402156Y674820D01*
X401747Y673833D01*
X401167Y673253D01*
X400179Y672844D01*
X400179Y672844D01*
X399518Y672402D01*
X399518Y672402D01*
X394598Y667482D01*
X394156Y666821D01*
X394156Y666821D01*
X393747Y665833D01*
X393167Y665253D01*
X392179Y664844D01*
X392179Y664844D01*
X391518Y664402D01*
X391518Y664402D01*
X388558Y661442D01*
X388116Y660780D01*
X387961Y660000D01*
Y633718D01*
X388016Y633438D01*
X388040Y633154D01*
X388317Y631991D01*
X388052Y630625D01*
X387796Y629790D01*
X387539Y629337D01*
X387524Y629322D01*
X386900Y627816D01*
Y626184D01*
X387524Y624678D01*
X388301Y623901D01*
X388228Y623724D01*
X388116Y623557D01*
X388077Y623360D01*
X388000Y623175D01*
Y622974D01*
X387961Y622777D01*
Y489223D01*
X388000Y489026D01*
Y488825D01*
X388077Y488640D01*
X388116Y488443D01*
X388228Y488276D01*
X388301Y488099D01*
X387524Y487322D01*
X386900Y485816D01*
Y484184D01*
X387524Y482677D01*
X388678Y481524D01*
X389001Y481390D01*
X389014Y481353D01*
X389305Y480239D01*
X389125Y478128D01*
X389013Y478067D01*
X388795Y477883D01*
X388558Y477724D01*
X388494Y477628D01*
X388405Y477553D01*
X388275Y477300D01*
X388116Y477062D01*
X388093Y476949D01*
X388040Y476846D01*
X388017Y476562D01*
X387961Y476282D01*
Y422046D01*
X388016Y421770D01*
X388038Y421489D01*
X388093Y421383D01*
X388116Y421265D01*
X388272Y421031D01*
X388401Y420781D01*
X390335Y418335D01*
X390426Y418257D01*
X390493Y418158D01*
X390727Y418002D01*
X390941Y417819D01*
X391055Y417783D01*
X391154Y417716D01*
X391430Y417661D01*
X391698Y417575D01*
X391817Y417584D01*
X391935Y417561D01*
X393160D01*
X393917Y417247D01*
X394497Y416667D01*
X394811Y415910D01*
Y415090D01*
X394497Y414333D01*
X393917Y413753D01*
X393160Y413439D01*
X391935D01*
X391817Y413416D01*
X391698Y413425D01*
X391430Y413339D01*
X391154Y413284D01*
X391055Y413218D01*
X390941Y413181D01*
X390727Y412998D01*
X390493Y412842D01*
X390426Y412743D01*
X390335Y412665D01*
X388401Y410219D01*
X388272Y409968D01*
X388116Y409734D01*
X388093Y409617D01*
X388038Y409511D01*
X388016Y409230D01*
X387961Y408954D01*
Y316274D01*
X388116Y315493D01*
X388558Y314832D01*
X389220Y314390D01*
X389220Y314390D01*
X390167Y313997D01*
X390747Y313417D01*
X391061Y312660D01*
Y311840D01*
X390747Y311083D01*
X390167Y310503D01*
X389220Y310110D01*
X389220Y310110D01*
X388558Y309668D01*
X388116Y309007D01*
X387961Y308226D01*
Y260000D01*
X388116Y259220D01*
X388558Y258558D01*
X408558Y238558D01*
X409220Y238116D01*
X410000Y237961D01*
X436943D01*
X437252Y238022D01*
X437564Y238058D01*
X437639Y238099D01*
X437723Y238116D01*
X437985Y238291D01*
X438000Y238299D01*
X438015Y238291D01*
X438277Y238116D01*
X438361Y238099D01*
X438436Y238058D01*
X438748Y238022D01*
X439057Y237961D01*
X463900D01*
Y237185D01*
X464524Y235678D01*
X465678Y234524D01*
X467184Y233900D01*
X468815D01*
X470322Y234524D01*
X471476Y235678D01*
X472100Y237185D01*
Y237961D01*
X475777D01*
X475974Y238000D01*
X476175D01*
X476360Y238077D01*
X476557Y238116D01*
X476724Y238228D01*
X476901Y238301D01*
X477678Y237524D01*
X479184Y236900D01*
X480816D01*
X482323Y237524D01*
X483099Y238301D01*
X483276Y238228D01*
X483443Y238116D01*
X483640Y238077D01*
X483825Y238000D01*
X484026D01*
X484223Y237961D01*
X489943D01*
X490252Y238022D01*
X490564Y238058D01*
X490639Y238099D01*
X490723Y238116D01*
X490985Y238291D01*
X491260Y238443D01*
X493452Y238517D01*
X494572Y238154D01*
X495185Y237900D01*
X496815D01*
X498322Y238524D01*
X499450Y238558D01*
X499617Y238447D01*
X499758Y238305D01*
X499944Y238228D01*
X500111Y238116D01*
X500308Y238077D01*
X500494Y238000D01*
X500695D01*
X500891Y237961D01*
X707500D01*
X708280Y238116D01*
X708942Y238558D01*
X708942Y238558D01*
X733349Y262965D01*
X739657Y256657D01*
X740732Y255939D01*
X742000Y255686D01*
X812000D01*
X813268Y255939D01*
X814343Y256657D01*
X835108Y277422D01*
X835372Y277593D01*
X835731Y277770D01*
X836188Y277941D01*
X836742Y278096D01*
X837393Y278230D01*
X838114Y278333D01*
X839918Y278454D01*
X840940Y278461D01*
X841128Y278500D01*
X842251D01*
X844667Y279147D01*
X846833Y280398D01*
X848602Y282167D01*
X849853Y284333D01*
X850500Y286749D01*
Y289251D01*
X849853Y291667D01*
X848602Y293833D01*
X846833Y295602D01*
X845558Y296338D01*
X845373Y296922D01*
Y299078D01*
X845558Y299662D01*
X846833Y300398D01*
X848602Y302167D01*
X849853Y304333D01*
X850165Y305500D01*
X841000D01*
Y308000D01*
X838500D01*
Y319328D01*
X838029Y320145D01*
X840845Y322961D01*
X855647D01*
X855909Y323013D01*
X856175Y323030D01*
X856296Y323090D01*
X856428Y323116D01*
X856649Y323264D01*
X856889Y323382D01*
X859167Y322398D01*
X861333Y321147D01*
X863749Y320500D01*
X866251D01*
X868667Y321147D01*
X870833Y322398D01*
X870866Y322431D01*
X873178Y323978D01*
X873889Y323745D01*
X873889Y323745D01*
X873889Y323745D01*
X874104Y323678D01*
X874305Y323576D01*
X874481Y323562D01*
X874649Y323509D01*
X875263Y323446D01*
X875369Y323456D01*
X875474Y323435D01*
X875762Y323492D01*
X876055Y323519D01*
X876150Y323569D01*
X876254Y323590D01*
X876499Y323753D01*
X876759Y323891D01*
X876759D01*
X876827Y323973D01*
X876916Y324032D01*
X916442Y363558D01*
X916884Y364220D01*
X917039Y365000D01*
Y467777D01*
X917000Y467974D01*
Y468175D01*
X916923Y468360D01*
X916884Y468557D01*
X916772Y468724D01*
X916699Y468901D01*
X917476Y469678D01*
X918100Y471185D01*
Y472816D01*
X917476Y474322D01*
X916699Y475099D01*
X916772Y475276D01*
X916884Y475443D01*
X916923Y475640D01*
X917000Y475825D01*
Y476026D01*
X917039Y476223D01*
Y589356D01*
X917000Y589553D01*
Y589754D01*
X916923Y589939D01*
X916884Y590136D01*
X916772Y590303D01*
X916695Y590489D01*
X916553Y590631D01*
X916442Y590798D01*
X916275Y590909D01*
X916133Y591051D01*
X915077Y591757D01*
X914891Y591834D01*
X914725Y591945D01*
X914528Y591985D01*
X914342Y592062D01*
X913898Y592388D01*
X913720Y595676D01*
X913944Y595899D01*
X914141Y595938D01*
X914342D01*
X914528Y596015D01*
X914725Y596055D01*
X914892Y596166D01*
X915077Y596243D01*
X916133Y596949D01*
X916275Y597091D01*
X916442Y597202D01*
X916553Y597369D01*
X916695Y597511D01*
X916772Y597697D01*
X916884Y597864D01*
X916923Y598061D01*
X917000Y598246D01*
Y598447D01*
X917039Y598644D01*
Y606547D01*
X916884Y607327D01*
X916442Y607989D01*
X915881Y608364D01*
X915780Y608860D01*
Y611141D01*
X915881Y611636D01*
X916442Y612011D01*
X916884Y612673D01*
X917039Y613453D01*
Y680000D01*
X916884Y680780D01*
X916442Y681442D01*
X916442Y681442D01*
X908089Y689795D01*
X907428Y690237D01*
X906647Y690392D01*
X905867Y690237D01*
X904096Y691096D01*
X903237Y692867D01*
X903392Y693647D01*
X903237Y694428D01*
X902795Y695089D01*
X886442Y711442D01*
X885780Y711884D01*
X885000Y712039D01*
X865798D01*
X865798Y712039D01*
D02*
G37*
G36*
X350816Y699100D02*
X349184D01*
X347678Y698476D01*
X346524Y697322D01*
X345900Y695816D01*
Y694184D01*
X346524Y692678D01*
X347678Y691524D01*
X349184Y690900D01*
X350816D01*
X352323Y691524D01*
X353476Y692678D01*
X354100Y694184D01*
Y695816D01*
X353476Y697322D01*
X352323Y698476D01*
X350816Y699100D01*
D02*
G37*
G36*
X338316D02*
X336684D01*
X335178Y698476D01*
X334024Y697322D01*
X333400Y695816D01*
Y694184D01*
X334024Y692678D01*
X335178Y691524D01*
X336684Y690900D01*
X338316D01*
X339823Y691524D01*
X340976Y692678D01*
X341600Y694184D01*
Y695816D01*
X340976Y697322D01*
X339823Y698476D01*
X338316Y699100D01*
D02*
G37*
G36*
X297815Y693100D02*
X296184D01*
X294678Y692476D01*
X293524Y691322D01*
X292900Y689816D01*
Y688185D01*
X293524Y686677D01*
X294678Y685524D01*
X296184Y684900D01*
X297815D01*
X299322Y685524D01*
X300476Y686677D01*
X301100Y688185D01*
Y689816D01*
X300476Y691322D01*
X299322Y692476D01*
X297815Y693100D01*
D02*
G37*
G36*
X295816Y678100D02*
X294184D01*
X292677Y677476D01*
X291524Y676322D01*
X290900Y674816D01*
Y673185D01*
X291524Y671677D01*
X292677Y670524D01*
X294184Y669900D01*
X295816D01*
X297322Y670524D01*
X298476Y671677D01*
X299100Y673185D01*
Y674816D01*
X298476Y676322D01*
X297322Y677476D01*
X295816Y678100D01*
D02*
G37*
G36*
Y658100D02*
X294184D01*
X292677Y657476D01*
X291524Y656322D01*
X290900Y654816D01*
Y653184D01*
X291524Y651677D01*
X292677Y650524D01*
X294184Y649900D01*
X295816D01*
X297322Y650524D01*
X298476Y651677D01*
X299100Y653184D01*
Y654816D01*
X298476Y656322D01*
X297322Y657476D01*
X295816Y658100D01*
D02*
G37*
G36*
X323815Y648100D02*
X322184D01*
X320677Y647476D01*
X319524Y646322D01*
X318900Y644816D01*
Y643185D01*
X319524Y641678D01*
X320677Y640524D01*
X322184Y639900D01*
X323815D01*
X325322Y640524D01*
X326476Y641678D01*
X327100Y643185D01*
Y644816D01*
X326476Y646322D01*
X325322Y647476D01*
X323815Y648100D01*
D02*
G37*
G36*
X294816Y641100D02*
X293185D01*
X291677Y640476D01*
X290524Y639322D01*
X289900Y637816D01*
Y636185D01*
X290524Y634678D01*
X291677Y633524D01*
X293185Y632900D01*
X294816D01*
X296322Y633524D01*
X297476Y634678D01*
X298100Y636185D01*
Y637816D01*
X297476Y639322D01*
X296322Y640476D01*
X294816Y641100D01*
D02*
G37*
G36*
X333815Y600100D02*
X332184D01*
X330677Y599476D01*
X329524Y598322D01*
X328900Y596815D01*
Y595185D01*
X329524Y593678D01*
X330677Y592524D01*
X332184Y591900D01*
X333815D01*
X335322Y592524D01*
X336476Y593678D01*
X337100Y595185D01*
Y596815D01*
X336476Y598322D01*
X335322Y599476D01*
X333815Y600100D01*
D02*
G37*
G36*
X941251Y644500D02*
X938749D01*
X936333Y643853D01*
X934167Y642602D01*
X932398Y640833D01*
X931147Y638667D01*
X930500Y636251D01*
Y633749D01*
X931147Y631333D01*
X932398Y629167D01*
X934167Y627398D01*
X935442Y626662D01*
X935627Y626078D01*
Y623922D01*
X935442Y623338D01*
X934167Y622602D01*
X932398Y620833D01*
X931147Y618667D01*
X930500Y616251D01*
Y613749D01*
X931147Y611333D01*
X932398Y609167D01*
X934167Y607398D01*
X935442Y606662D01*
X935627Y606078D01*
Y603922D01*
X935442Y603338D01*
X934167Y602602D01*
X932398Y600833D01*
X931147Y598667D01*
X930500Y596251D01*
Y593749D01*
X931147Y591333D01*
X932398Y589167D01*
X934167Y587398D01*
X935442Y586662D01*
X935627Y586078D01*
Y583922D01*
X935442Y583338D01*
X934167Y582602D01*
X932398Y580833D01*
X931147Y578667D01*
X930500Y576251D01*
Y573749D01*
X931147Y571333D01*
X932398Y569167D01*
X934167Y567398D01*
X935442Y566662D01*
X935627Y566078D01*
Y563922D01*
X935442Y563338D01*
X934167Y562602D01*
X932398Y560833D01*
X931147Y558667D01*
X930835Y557500D01*
X940000D01*
X949165D01*
X948853Y558667D01*
X947602Y560833D01*
X945833Y562602D01*
X944558Y563338D01*
X944373Y563922D01*
Y566078D01*
X944558Y566662D01*
X945833Y567398D01*
X947602Y569167D01*
X948853Y571333D01*
X949500Y573749D01*
Y576251D01*
X948853Y578667D01*
X947602Y580833D01*
X945833Y582602D01*
X944558Y583338D01*
X944373Y583922D01*
Y586078D01*
X944558Y586662D01*
X945833Y587398D01*
X947602Y589167D01*
X948853Y591333D01*
X949500Y593749D01*
Y596251D01*
X948853Y598667D01*
X947602Y600833D01*
X945833Y602602D01*
X944558Y603338D01*
X944373Y603922D01*
Y606078D01*
X944558Y606662D01*
X945833Y607398D01*
X947602Y609167D01*
X948853Y611333D01*
X949500Y613749D01*
Y616251D01*
X948853Y618667D01*
X947602Y620833D01*
X945833Y622602D01*
X944558Y623338D01*
X944373Y623922D01*
Y626078D01*
X944558Y626662D01*
X945833Y627398D01*
X947602Y629167D01*
X948853Y631333D01*
X949500Y633749D01*
Y636251D01*
X948853Y638667D01*
X947602Y640833D01*
X945833Y642602D01*
X943667Y643853D01*
X941251Y644500D01*
D02*
G37*
G36*
X318815Y556100D02*
X317185D01*
X315678Y555476D01*
X314524Y554322D01*
X313900Y552816D01*
Y551184D01*
X314524Y549678D01*
X315678Y548524D01*
X317185Y547900D01*
X318815D01*
X320322Y548524D01*
X321476Y549678D01*
X322100Y551184D01*
Y552816D01*
X321476Y554322D01*
X320322Y555476D01*
X318815Y556100D01*
D02*
G37*
G36*
X300816Y514100D02*
X299184D01*
X297678Y513476D01*
X296524Y512322D01*
X295900Y510816D01*
Y509184D01*
X296524Y507677D01*
X297678Y506524D01*
X299184Y505900D01*
X300816D01*
X302323Y506524D01*
X303476Y507677D01*
X304100Y509184D01*
Y510816D01*
X303476Y512322D01*
X302323Y513476D01*
X300816Y514100D01*
D02*
G37*
G36*
X949165Y552500D02*
X940000D01*
X930835D01*
X931147Y551333D01*
X932398Y549167D01*
X934167Y547398D01*
X935442Y546662D01*
X935627Y546078D01*
Y543922D01*
X935442Y543338D01*
X934167Y542602D01*
X932398Y540833D01*
X931147Y538667D01*
X930500Y536251D01*
Y533749D01*
X931147Y531333D01*
X932398Y529167D01*
X934065Y527500D01*
X934043Y527030D01*
X933187Y524500D01*
X930500D01*
Y505500D01*
X949500D01*
Y524500D01*
X946813D01*
X945957Y527030D01*
X945935Y527500D01*
X947602Y529167D01*
X948853Y531333D01*
X949500Y533749D01*
Y536251D01*
X948853Y538667D01*
X947602Y540833D01*
X945833Y542602D01*
X944558Y543338D01*
X944373Y543922D01*
Y546078D01*
X944558Y546662D01*
X945833Y547398D01*
X947602Y549167D01*
X948853Y551333D01*
X949165Y552500D01*
D02*
G37*
G36*
X284816Y473100D02*
X283184D01*
X281677Y472476D01*
X280524Y471323D01*
X279900Y469815D01*
Y468185D01*
X280524Y466678D01*
X281677Y465524D01*
X283184Y464900D01*
X284816D01*
X286322Y465524D01*
X287476Y466678D01*
X288100Y468185D01*
Y469815D01*
X287476Y471323D01*
X286322Y472476D01*
X284816Y473100D01*
D02*
G37*
G36*
X233316Y474100D02*
X231684D01*
X230177Y473476D01*
X229024Y472322D01*
X228400Y470816D01*
Y469184D01*
X229024Y467678D01*
X229992Y466250D01*
X229024Y464822D01*
X228400Y463316D01*
Y461684D01*
X229024Y460177D01*
X230177Y459024D01*
X231684Y458400D01*
X233316D01*
X234822Y459024D01*
X235976Y460177D01*
X236524Y461502D01*
X236611Y461692D01*
X239175Y463394D01*
X239372Y463400D01*
X240816D01*
X242323Y464024D01*
X243476Y465178D01*
X244100Y466684D01*
Y468316D01*
X243476Y469823D01*
X242323Y470976D01*
X240816Y471600D01*
X239184D01*
X237525Y471096D01*
X235976Y472322D01*
X234822Y473476D01*
X233316Y474100D01*
D02*
G37*
G36*
X292815Y442100D02*
X291185D01*
X289678Y441476D01*
X288524Y440322D01*
X287900Y438815D01*
Y437184D01*
X288524Y435677D01*
X289678Y434524D01*
X291185Y433900D01*
X292815D01*
X294322Y434524D01*
X295476Y435677D01*
X296100Y437184D01*
Y438815D01*
X295476Y440322D01*
X294322Y441476D01*
X292815Y442100D01*
D02*
G37*
G36*
X293815Y426100D02*
X292185D01*
X290678Y425476D01*
X289524Y424322D01*
X288900Y422816D01*
Y421185D01*
X289524Y419678D01*
X290678Y418524D01*
X292185Y417900D01*
X293815D01*
X295322Y418524D01*
X296476Y419678D01*
X297100Y421185D01*
Y422816D01*
X296476Y424322D01*
X295322Y425476D01*
X293815Y426100D01*
D02*
G37*
G36*
Y406100D02*
X292185D01*
X290678Y405476D01*
X289524Y404323D01*
X288900Y402816D01*
Y401185D01*
X289524Y399678D01*
X290678Y398524D01*
X292185Y397900D01*
X293815D01*
X295322Y398524D01*
X296476Y399678D01*
X297100Y401185D01*
Y402816D01*
X296476Y404323D01*
X295322Y405476D01*
X293815Y406100D01*
D02*
G37*
G36*
X298291Y391778D02*
X296660D01*
X295153Y391153D01*
X294000Y390000D01*
X293376Y388493D01*
Y386862D01*
X294000Y385355D01*
X295153Y384202D01*
X296660Y383578D01*
X298291D01*
X299798Y384202D01*
X300952Y385355D01*
X301576Y386862D01*
Y388493D01*
X300952Y390000D01*
X299798Y391153D01*
X298291Y391778D01*
D02*
G37*
G36*
X328815Y378100D02*
X327184D01*
X325678Y377476D01*
X324524Y376322D01*
X323900Y374815D01*
Y373184D01*
X324524Y371678D01*
X325678Y370524D01*
X327184Y369900D01*
X328815D01*
X330322Y370524D01*
X331476Y371678D01*
X332100Y373184D01*
Y374815D01*
X331476Y376322D01*
X330322Y377476D01*
X328815Y378100D01*
D02*
G37*
G36*
Y362100D02*
X327184D01*
X325678Y361476D01*
X324524Y360322D01*
X323900Y358815D01*
Y357184D01*
X324524Y355677D01*
X325678Y354524D01*
X327184Y353900D01*
X328815D01*
X330322Y354524D01*
X331476Y355677D01*
X332100Y357184D01*
Y358815D01*
X331476Y360322D01*
X330322Y361476D01*
X328815Y362100D01*
D02*
G37*
G36*
X310816Y353100D02*
X309184D01*
X307677Y352476D01*
X306524Y351322D01*
X305900Y349815D01*
Y348184D01*
X306524Y346678D01*
X307677Y345524D01*
X309184Y344900D01*
X310816D01*
X312322Y345524D01*
X313476Y346678D01*
X314100Y348184D01*
Y349815D01*
X313476Y351322D01*
X312322Y352476D01*
X310816Y353100D01*
D02*
G37*
G36*
X327816Y334100D02*
X326185D01*
X324678Y333476D01*
X323524Y332322D01*
X322900Y330816D01*
Y329184D01*
X323524Y327678D01*
X324678Y326524D01*
X326185Y325900D01*
X327816D01*
X329323Y326524D01*
X330476Y327678D01*
X331100Y329184D01*
Y330816D01*
X330476Y332322D01*
X329323Y333476D01*
X327816Y334100D01*
D02*
G37*
G36*
X843500Y317165D02*
Y310500D01*
X850165D01*
X849853Y311667D01*
X848602Y313833D01*
X846833Y315602D01*
X844667Y316853D01*
X843500Y317165D01*
D02*
G37*
G36*
X910816Y309100D02*
X909184D01*
X907678Y308476D01*
X906524Y307322D01*
X905900Y305816D01*
Y304184D01*
X906524Y302678D01*
X907678Y301524D01*
X909184Y300900D01*
X909185D01*
X910819Y300819D01*
X910900Y299184D01*
X911524Y297678D01*
X912678Y296524D01*
X914184Y295900D01*
X915816D01*
X917322Y296524D01*
X918476Y297678D01*
X919100Y299184D01*
Y300816D01*
X918476Y302323D01*
X917322Y303476D01*
X915816Y304100D01*
X915815D01*
X914181Y304181D01*
X914100Y305816D01*
X913476Y307322D01*
X912322Y308476D01*
X910816Y309100D01*
D02*
G37*
G36*
X866251Y314100D02*
X863749D01*
X861333Y313453D01*
X859167Y312202D01*
X857398Y310433D01*
X856147Y308267D01*
X855500Y305851D01*
Y303349D01*
X856147Y300933D01*
X857398Y298767D01*
X859167Y296998D01*
X861333Y295747D01*
X863749Y295100D01*
X866251D01*
X868667Y295747D01*
X870833Y296998D01*
X872602Y298767D01*
X873853Y300933D01*
X874500Y303349D01*
Y305851D01*
X873853Y308267D01*
X872602Y310433D01*
X870833Y312202D01*
X868667Y313453D01*
X866251Y314100D01*
D02*
G37*
G36*
X332816Y320100D02*
X331185D01*
X329678Y319476D01*
X328524Y318323D01*
X327900Y316815D01*
Y315184D01*
X328524Y313678D01*
X329678Y312524D01*
X331185Y311900D01*
X332178D01*
X332187Y311894D01*
X333593Y310165D01*
X334043Y309161D01*
X333900Y308815D01*
Y307185D01*
X334524Y305678D01*
X335678Y304524D01*
X337184Y303900D01*
X337859D01*
X339028Y302091D01*
X339412Y301269D01*
X339444Y301128D01*
X338900Y299816D01*
Y298185D01*
X339524Y296678D01*
X340678Y295524D01*
X342184Y294900D01*
X343815D01*
X345322Y295524D01*
X346476Y296678D01*
X347100Y298185D01*
Y299816D01*
X346476Y301322D01*
X345322Y302476D01*
X343815Y303100D01*
X343141D01*
X341972Y304909D01*
X341588Y305731D01*
X341556Y305872D01*
X342100Y307185D01*
Y308815D01*
X341476Y310322D01*
X340322Y311476D01*
X338816Y312100D01*
X337822D01*
X337813Y312106D01*
X336407Y313835D01*
X335957Y314839D01*
X336100Y315184D01*
Y316815D01*
X335476Y318323D01*
X334322Y319476D01*
X332816Y320100D01*
D02*
G37*
G36*
X874500Y288700D02*
X855500D01*
Y269700D01*
X874500D01*
Y288700D01*
D02*
G37*
G36*
X377816Y310100D02*
X376185D01*
X374678Y309476D01*
X373524Y308322D01*
X372900Y306815D01*
Y305184D01*
X373524Y303678D01*
X374654Y302500D01*
X373524Y301322D01*
X372900Y299816D01*
Y298185D01*
X373524Y296678D01*
X374678Y295524D01*
X373900Y292815D01*
Y291185D01*
X374524Y289678D01*
X375677Y288524D01*
X375686Y288484D01*
X375524Y288323D01*
X374900Y286816D01*
Y285184D01*
X375524Y283678D01*
X376678Y282524D01*
X376686Y282484D01*
X376524Y282322D01*
X375900Y280816D01*
Y279184D01*
X376140Y277427D01*
X374678Y276476D01*
X373524Y275322D01*
X372900Y273815D01*
Y272184D01*
X373524Y270678D01*
X373686Y270516D01*
X373677Y270476D01*
X372524Y269322D01*
X371900Y267815D01*
Y266185D01*
X372524Y264678D01*
X373678Y263524D01*
X375185Y262900D01*
X376816D01*
X378322Y263524D01*
X379476Y264678D01*
X380100Y266185D01*
Y267815D01*
X379476Y269322D01*
X379314Y269484D01*
X379323Y269524D01*
X380476Y270678D01*
X381100Y272184D01*
Y273815D01*
X380860Y275573D01*
X382323Y276524D01*
X383476Y277677D01*
X384100Y279184D01*
Y280816D01*
X383476Y282322D01*
X382323Y283476D01*
X382314Y283516D01*
X382476Y283678D01*
X383100Y285184D01*
Y286816D01*
X382476Y288323D01*
X381323Y289476D01*
X381314Y289516D01*
X381476Y289678D01*
X382100Y291185D01*
Y292815D01*
X381476Y294322D01*
X380322Y295476D01*
X381100Y298185D01*
Y299816D01*
X380476Y301322D01*
X379346Y302500D01*
X380476Y303678D01*
X381100Y305184D01*
Y306815D01*
X380476Y308322D01*
X379323Y309476D01*
X377816Y310100D01*
D02*
G37*
%LPD*%
G36*
X901353Y693647D02*
X901000Y692796D01*
Y691204D01*
X901609Y689734D01*
X902734Y688609D01*
X904204Y688000D01*
X905796D01*
X906647Y688353D01*
X915000Y680000D01*
Y613453D01*
X913730Y612927D01*
X913266Y613391D01*
X911796Y614000D01*
X910204D01*
X908734Y613391D01*
X907609Y612266D01*
X907000Y610796D01*
Y609204D01*
X907609Y607734D01*
X908734Y606609D01*
X910204Y606000D01*
X911796D01*
X913266Y606609D01*
X913730Y607073D01*
X915000Y606547D01*
Y598644D01*
X913944Y597939D01*
X913796Y598000D01*
X912204D01*
X910734Y597391D01*
X909609Y596266D01*
X909000Y594796D01*
Y593204D01*
X909609Y591734D01*
X910734Y590609D01*
X912204Y590000D01*
X913796D01*
X913944Y590061D01*
X915000Y589356D01*
Y476223D01*
X914816Y476100D01*
X913185D01*
X911678Y475476D01*
X910524Y474322D01*
X909900Y472816D01*
Y471185D01*
X910524Y469678D01*
X911678Y468524D01*
X913185Y467900D01*
X914816D01*
X915000Y467777D01*
Y365000D01*
X875474Y325474D01*
X874860Y325538D01*
X874641Y325711D01*
X873992Y326853D01*
X874500Y328749D01*
Y331251D01*
X873853Y333667D01*
X872602Y335833D01*
X870833Y337602D01*
X868667Y338853D01*
X866251Y339500D01*
X863749D01*
X861333Y338853D01*
X859167Y337602D01*
X857398Y335833D01*
X856147Y333667D01*
X855500Y331251D01*
Y328749D01*
X856147Y326333D01*
X856282Y326100D01*
X855647Y325000D01*
X840000D01*
X832500Y317500D01*
Y312278D01*
X832147Y311667D01*
X831657Y309838D01*
X830343D01*
X829853Y311667D01*
X828602Y313833D01*
X826833Y315602D01*
X824667Y316853D01*
X823500Y317165D01*
Y308000D01*
X818500D01*
Y317165D01*
X817333Y316853D01*
X815167Y315602D01*
X813398Y313833D01*
X812147Y311667D01*
X812041Y311268D01*
X812419Y311360D01*
X813037Y311562D01*
X813623Y311810D01*
X814176Y312103D01*
X814697Y312440D01*
X815187Y312822D01*
X815644Y313250D01*
Y302750D01*
X815187Y303178D01*
X814697Y303560D01*
X814176Y303897D01*
X813623Y304190D01*
X813037Y304438D01*
X812419Y304640D01*
X811769Y304797D01*
X811087Y304910D01*
X811000Y304918D01*
X810913Y304910D01*
X810231Y304797D01*
X809581Y304640D01*
X808963Y304438D01*
X808378Y304190D01*
X807824Y303897D01*
X807302Y303560D01*
X806813Y303178D01*
X806356Y302750D01*
Y313250D01*
X806813Y312822D01*
X807302Y312440D01*
X807824Y312103D01*
X808378Y311810D01*
X808963Y311562D01*
X809581Y311360D01*
X809959Y311268D01*
X809853Y311667D01*
X808602Y313833D01*
X806833Y315602D01*
X804667Y316853D01*
X803500Y317165D01*
Y308000D01*
X798500D01*
Y317165D01*
X797333Y316853D01*
X795167Y315602D01*
X793398Y313833D01*
X793148Y313400D01*
X793414Y313666D01*
X793679Y313417D01*
X793931Y313210D01*
X794171Y313047D01*
X794399Y312926D01*
X794614Y312848D01*
X794817Y312814D01*
X795007Y312822D01*
X795186Y312873D01*
X795351Y312967D01*
X795505Y313104D01*
X793542Y307206D01*
X793498Y307379D01*
X793398Y307593D01*
X793242Y307850D01*
X793030Y308150D01*
X792439Y308876D01*
X791624Y309772D01*
X791560Y309838D01*
X790343D01*
X790000Y311117D01*
Y319616D01*
X822884Y352500D01*
X855942D01*
X856147Y351733D01*
X857398Y349567D01*
X859167Y347798D01*
X861333Y346547D01*
X863749Y345900D01*
X866251D01*
X868667Y346547D01*
X870833Y347798D01*
X872602Y349567D01*
X873853Y351733D01*
X874500Y354149D01*
Y356651D01*
X873853Y359067D01*
X872602Y361233D01*
X871917Y361917D01*
X892500Y382500D01*
Y384645D01*
X892884Y385220D01*
X893039Y386000D01*
Y400777D01*
X893000Y400974D01*
Y401175D01*
X892923Y401360D01*
X892884Y401557D01*
X892772Y401724D01*
X892699Y401901D01*
X893476Y402678D01*
X894100Y404184D01*
Y405816D01*
X893476Y407323D01*
X892699Y408099D01*
X892772Y408276D01*
X892884Y408443D01*
X892923Y408640D01*
X893000Y408825D01*
Y409026D01*
X893039Y409223D01*
Y447777D01*
X893000Y447974D01*
Y448175D01*
X892923Y448360D01*
X892884Y448557D01*
X892772Y448724D01*
X892699Y448901D01*
X893476Y449678D01*
X894100Y451185D01*
Y452816D01*
X893476Y454323D01*
X892699Y455099D01*
X892772Y455276D01*
X892884Y455443D01*
X892923Y455640D01*
X893000Y455826D01*
Y456026D01*
X893039Y456223D01*
Y608038D01*
X893100Y608185D01*
Y609815D01*
X893039Y609962D01*
Y656500D01*
X892884Y657280D01*
X892500Y657855D01*
Y665000D01*
X888975Y668525D01*
X888994Y669819D01*
X890097Y670616D01*
X890796Y670547D01*
X891734Y669609D01*
X893204Y669000D01*
X894796D01*
X896266Y669609D01*
X897391Y670734D01*
X898000Y672204D01*
Y673796D01*
X897391Y675266D01*
X896266Y676391D01*
X894796Y677000D01*
X893204D01*
X891734Y676391D01*
X890796Y675453D01*
X889967Y675371D01*
X889322Y675477D01*
X888323Y676476D01*
X886815Y677100D01*
X885184D01*
X883678Y676476D01*
X882524Y675322D01*
X882235Y675265D01*
X872500Y685000D01*
X520000D01*
X515000Y690000D01*
Y707500D01*
X517500Y710000D01*
X535202D01*
X535677Y709524D01*
X537184Y708900D01*
X538815D01*
X540322Y709524D01*
X540798Y710000D01*
X591202D01*
X591678Y709524D01*
X593185Y708900D01*
X594815D01*
X596323Y709524D01*
X596798Y710000D01*
X651202D01*
X651677Y709524D01*
X653184Y708900D01*
X654816D01*
X656322Y709524D01*
X656798Y710000D01*
X694202D01*
X695178Y709024D01*
X696684Y708400D01*
X698316D01*
X699822Y709024D01*
X700798Y710000D01*
X754202D01*
X755178Y709024D01*
X756684Y708400D01*
X758316D01*
X759822Y709024D01*
X760798Y710000D01*
X805900D01*
Y709184D01*
X806524Y707678D01*
X807678Y706524D01*
X809184Y705900D01*
X810816D01*
X812322Y706524D01*
X812500Y706702D01*
X813476Y707678D01*
X814100Y709184D01*
Y710000D01*
X859202D01*
X860178Y709024D01*
X861684Y708400D01*
X863316D01*
X864822Y709024D01*
X865798Y710000D01*
X885000D01*
X901353Y693647D01*
D02*
G37*
G36*
X891000Y656500D02*
Y456223D01*
X890816Y456100D01*
X889184D01*
X887678Y455476D01*
X886524Y454323D01*
X885900Y452816D01*
Y451185D01*
X886524Y449678D01*
X887678Y448524D01*
X889184Y447900D01*
X890816D01*
X891000Y447777D01*
Y409223D01*
X890816Y409100D01*
X889184D01*
X887678Y408476D01*
X886524Y407323D01*
X885900Y405816D01*
Y404184D01*
X886524Y402678D01*
X887678Y401524D01*
X889184Y400900D01*
X890816D01*
X891000Y400777D01*
Y386000D01*
X869038Y364038D01*
X868667Y364253D01*
X866251Y364900D01*
X863749D01*
X861333Y364253D01*
X859167Y363002D01*
X857398Y361233D01*
X856147Y359067D01*
X855500Y356651D01*
Y355000D01*
X822500D01*
X784419Y316919D01*
X783500Y317165D01*
Y308000D01*
X778500D01*
Y313075D01*
X773500Y308075D01*
X773479Y308701D01*
X773404Y309317D01*
X773274Y309924D01*
X773089Y310523D01*
X772850Y311112D01*
X772556Y311692D01*
X772208Y312263D01*
X772120Y312386D01*
X772078Y312373D01*
X769922D01*
X769338Y312558D01*
X768602Y313833D01*
X766833Y315602D01*
X764667Y316853D01*
X762251Y317500D01*
X759749D01*
X757333Y316853D01*
X755167Y315602D01*
X753398Y313833D01*
X752147Y311667D01*
X751500Y309251D01*
Y306749D01*
X752147Y304333D01*
X753398Y302167D01*
X755065Y300500D01*
X755042Y300030D01*
X754187Y297500D01*
X751500D01*
Y291314D01*
X745373D01*
X730305Y306381D01*
X731408Y309496D01*
X733343Y309859D01*
X733678Y309524D01*
X735184Y308900D01*
X736815D01*
X738323Y309524D01*
X739476Y310678D01*
X740100Y312185D01*
Y313816D01*
X739476Y315322D01*
X738323Y316476D01*
X736815Y317100D01*
X735184D01*
X733388Y316780D01*
X732235Y317933D01*
X730728Y318557D01*
X729097D01*
X727590Y317933D01*
X727227Y317571D01*
X726322Y318476D01*
X724816Y319100D01*
X723185D01*
X721678Y318476D01*
X720524Y317323D01*
X719556Y317130D01*
X716623Y320063D01*
X716476Y323678D01*
X717100Y325184D01*
X719900Y325434D01*
X720524Y323927D01*
X721678Y322774D01*
X723185Y322150D01*
X724816D01*
X726322Y322774D01*
X727476Y323927D01*
X728100Y325434D01*
Y327066D01*
X727476Y328572D01*
X726322Y329726D01*
X724816Y330350D01*
X723185D01*
X721678Y329726D01*
X720524Y328572D01*
X719900Y327066D01*
X717100Y326816D01*
X716476Y328322D01*
X715322Y329476D01*
X713816Y330100D01*
X712185D01*
X710677Y329476D01*
X709524Y328322D01*
X708556Y328130D01*
X690100Y346586D01*
Y346815D01*
X689476Y348322D01*
X688322Y349476D01*
X686815Y350100D01*
X685184D01*
X683678Y349476D01*
X682524Y348322D01*
X681900Y346815D01*
Y345185D01*
X682524Y343677D01*
X682686Y343516D01*
X682678Y343476D01*
X681524Y342323D01*
X680900Y340816D01*
X679184Y339100D01*
X677678Y338476D01*
X676524Y337323D01*
X674816Y336100D01*
X673185D01*
X671677Y335476D01*
X670524Y334322D01*
X669900Y332816D01*
Y331185D01*
X670524Y329678D01*
X670686Y329515D01*
Y327000D01*
X670939Y325732D01*
X671657Y324657D01*
X731907Y264407D01*
X707500Y240000D01*
X500891D01*
X500100Y241185D01*
Y242815D01*
X499476Y244322D01*
X498322Y245476D01*
X496815Y246100D01*
X495181Y246180D01*
X495100Y247815D01*
Y247815D01*
X494476Y249322D01*
X493476Y250678D01*
X494100Y252185D01*
Y253815D01*
X493476Y255322D01*
X492323Y256476D01*
X490816Y257100D01*
X489184D01*
X487678Y256476D01*
X486524Y255322D01*
X485900Y253815D01*
Y252185D01*
X486524Y250678D01*
X487524Y249322D01*
X486900Y247815D01*
Y246184D01*
X487524Y244678D01*
X488678Y243524D01*
X490184Y242900D01*
X489943Y240000D01*
X484223D01*
X484100Y240184D01*
Y241815D01*
X483476Y243322D01*
X482323Y244476D01*
X480816Y245100D01*
X479184D01*
X477678Y244476D01*
X476524Y243322D01*
X475900Y241815D01*
Y240184D01*
X475777Y240000D01*
X471609D01*
X471476Y240322D01*
X470322Y241476D01*
X468815Y242100D01*
X467184D01*
X465678Y241476D01*
X464524Y240322D01*
X464391Y240000D01*
X439057D01*
X438816Y242900D01*
X440322Y243524D01*
X441476Y244678D01*
X442100Y246184D01*
Y247815D01*
X441476Y249322D01*
X440322Y250476D01*
X438815Y251100D01*
X437184D01*
X435677Y250476D01*
X434524Y249322D01*
X433900Y247815D01*
Y246184D01*
X434524Y244678D01*
X435677Y243524D01*
X437184Y242900D01*
X436943Y240000D01*
X410000D01*
X390000Y260000D01*
Y308226D01*
X391323Y308774D01*
X392476Y309928D01*
X393100Y311434D01*
Y313066D01*
X392476Y314573D01*
X391323Y315726D01*
X390000Y316274D01*
Y408954D01*
X391935Y411400D01*
X393566D01*
X395073Y412024D01*
X396226Y413178D01*
X396850Y414684D01*
Y416316D01*
X396226Y417822D01*
X395073Y418976D01*
X393566Y419600D01*
X391935D01*
X390000Y422046D01*
Y476282D01*
X390751Y476697D01*
X393000Y477202D01*
X393677Y476524D01*
X395185Y475900D01*
X395185D01*
X396819Y475820D01*
X396900Y474184D01*
X397524Y472677D01*
X398678Y471524D01*
X399247Y471288D01*
X400297Y468850D01*
X400349Y467900D01*
X399900Y466816D01*
Y465185D01*
X400524Y463678D01*
X401678Y462524D01*
X403185Y461900D01*
X404815D01*
X406323Y462524D01*
X407476Y463678D01*
X408100Y465185D01*
Y466816D01*
X407476Y468322D01*
X406323Y469476D01*
X405753Y469712D01*
X404703Y472150D01*
X404651Y473100D01*
X405100Y474184D01*
Y475816D01*
X404476Y477322D01*
X403322Y478476D01*
X401816Y479100D01*
X401815D01*
X400181Y479180D01*
X400100Y480816D01*
X399476Y482323D01*
X398322Y483476D01*
X396815Y484100D01*
X396815D01*
X395181Y484180D01*
X395100Y485816D01*
X394476Y487322D01*
X393322Y488476D01*
X391815Y489100D01*
X390185D01*
X390000Y489223D01*
Y622777D01*
X390185Y622900D01*
X391815D01*
X393322Y623524D01*
X394476Y624678D01*
X395012Y625971D01*
X395185Y625900D01*
X396815D01*
X398322Y626524D01*
X399476Y627678D01*
X400100Y629184D01*
X401816Y629900D01*
X403322Y630524D01*
X404476Y631678D01*
X405100Y633185D01*
Y634815D01*
X404476Y636323D01*
X403322Y637476D01*
X401816Y638100D01*
X400185D01*
X398678Y637476D01*
X397524Y636323D01*
X396900Y634816D01*
X395184Y634100D01*
X393677Y633476D01*
X393000Y632798D01*
X390751Y633303D01*
X390000Y633718D01*
Y660000D01*
X392960Y662960D01*
X394323Y663524D01*
X395476Y664678D01*
X396040Y666040D01*
X400960Y670960D01*
X402322Y671524D01*
X403476Y672678D01*
X404040Y674040D01*
X410000Y680000D01*
X465851D01*
X468400Y678316D01*
Y676684D01*
X469024Y675178D01*
X470177Y674024D01*
X471684Y673400D01*
X473316D01*
X474822Y674024D01*
X475976Y675178D01*
X476600Y676684D01*
Y678316D01*
X479149Y680000D01*
X495851D01*
X498400Y678316D01*
Y676684D01*
X499024Y675178D01*
X500178Y674024D01*
X501684Y673400D01*
X503316D01*
X504823Y674024D01*
X505976Y675178D01*
X506600Y676684D01*
Y678316D01*
X509150Y680000D01*
X518351D01*
X520900Y678316D01*
Y676684D01*
X521524Y675178D01*
X522677Y674024D01*
X524184Y673400D01*
X525816D01*
X527322Y674024D01*
X528476Y675178D01*
X529100Y676684D01*
Y678316D01*
X531649Y680000D01*
X538400D01*
Y679184D01*
X539024Y677678D01*
X540178Y676524D01*
X541684Y675900D01*
X543316D01*
X544823Y676524D01*
X545976Y677678D01*
X546600Y679184D01*
Y680000D01*
X596219D01*
X596326Y679922D01*
X597976Y677000D01*
X597900Y676815D01*
Y675184D01*
X598524Y673678D01*
X599678Y672524D01*
X601184Y671900D01*
X602816D01*
X604322Y672524D01*
X604388Y672589D01*
X606931Y670890D01*
X606900Y670816D01*
Y669184D01*
X607524Y667678D01*
X608122Y666536D01*
X606946Y663605D01*
X604850Y662703D01*
X603900Y662651D01*
X602816Y663100D01*
X601184D01*
X599678Y662476D01*
X598524Y661322D01*
X597900Y659816D01*
Y658185D01*
X598524Y656678D01*
X599678Y655524D01*
X601184Y654900D01*
X602816D01*
X604128Y655444D01*
X604269Y655412D01*
X605091Y655028D01*
X606900Y653859D01*
Y653184D01*
X607524Y651677D01*
Y649323D01*
X606900Y647815D01*
Y646184D01*
X607524Y644678D01*
X608677Y643524D01*
X610185Y642900D01*
X611815D01*
X613322Y643524D01*
X614476Y644678D01*
X615100Y646184D01*
Y647815D01*
X614476Y649323D01*
Y651677D01*
X615100Y653184D01*
Y653859D01*
X616909Y655028D01*
X617731Y655412D01*
X617872Y655444D01*
X619184Y654900D01*
X620816D01*
X622323Y655524D01*
X623476Y656678D01*
X623583Y656938D01*
X624912Y657272D01*
X626872Y657330D01*
X627678Y656524D01*
X629184Y655900D01*
X630816D01*
X632323Y656524D01*
X633476Y657678D01*
X634100Y659184D01*
Y660816D01*
X633476Y662322D01*
X632323Y663476D01*
X630816Y664100D01*
X629184D01*
X627678Y663476D01*
X626524Y662322D01*
X626417Y662062D01*
X625088Y661728D01*
X623128Y661670D01*
X622323Y662476D01*
X620816Y663100D01*
X619184D01*
X618100Y662651D01*
X617150Y662703D01*
X615054Y663605D01*
X613878Y666536D01*
X614476Y667678D01*
X615100Y669184D01*
Y670816D01*
X615069Y670890D01*
X617612Y672589D01*
X617678Y672524D01*
X619184Y671900D01*
X620816D01*
X622323Y672524D01*
X623476Y673678D01*
X624100Y675184D01*
Y676815D01*
X624024Y677000D01*
X625400Y679437D01*
X627350Y679400D01*
X628453Y679057D01*
X629024Y677678D01*
X630178Y676524D01*
X631684Y675900D01*
X633316D01*
X634823Y676524D01*
X635976Y677678D01*
X636600Y679184D01*
Y680000D01*
X640900D01*
Y679184D01*
X641524Y677678D01*
X642678Y676524D01*
X644184Y675900D01*
X645816D01*
X647322Y676524D01*
X648476Y677678D01*
X649100Y679184D01*
Y680000D01*
X653400D01*
Y679184D01*
X654024Y677678D01*
X655178Y676524D01*
X656684Y675900D01*
X658316D01*
X659822Y676524D01*
X660976Y677678D01*
X661600Y679184D01*
Y680000D01*
X711282D01*
X711697Y679249D01*
X712202Y677000D01*
X711524Y676322D01*
X710900Y674816D01*
Y673185D01*
X711524Y671677D01*
X712678Y670524D01*
X714184Y669900D01*
X715816D01*
X716900Y670349D01*
X719025Y669524D01*
X719995Y668954D01*
X720524Y667678D01*
X721403Y666000D01*
X720524Y664322D01*
X719900Y662815D01*
Y662641D01*
X718621Y661814D01*
X716917Y661144D01*
X715816Y661600D01*
X714184D01*
X712678Y660976D01*
X711524Y659822D01*
X710900Y658316D01*
Y656684D01*
X711524Y655178D01*
X712678Y654024D01*
X714184Y653400D01*
X715816D01*
X717128Y653944D01*
X718512Y653381D01*
X719900Y652359D01*
Y651184D01*
X720524Y649678D01*
Y647322D01*
X719900Y645816D01*
Y644184D01*
X720524Y642678D01*
X721678Y641524D01*
X723185Y640900D01*
X724816D01*
X726322Y641524D01*
X727476Y642678D01*
X728100Y644184D01*
Y645816D01*
X727476Y647322D01*
Y649678D01*
X728100Y651184D01*
Y652815D01*
X728069Y652890D01*
X730612Y654589D01*
X730678Y654524D01*
X732185Y653900D01*
X733816D01*
X735322Y654524D01*
X735835Y655037D01*
X738294Y655145D01*
X739372Y654830D01*
X740178Y654024D01*
X741684Y653400D01*
X743316D01*
X744822Y654024D01*
X745976Y655178D01*
X746600Y656684D01*
Y658316D01*
X745976Y659822D01*
X744822Y660976D01*
X743316Y661600D01*
X741684D01*
X740178Y660976D01*
X739665Y660463D01*
X737206Y660355D01*
X736128Y660670D01*
X735322Y661476D01*
X733816Y662100D01*
X732185D01*
X731100Y661651D01*
X728975Y662476D01*
X728005Y663046D01*
X727476Y664322D01*
X726597Y666000D01*
X727476Y667678D01*
X728005Y668954D01*
X728975Y669524D01*
X731100Y670349D01*
X732185Y669900D01*
X733816D01*
X735322Y670524D01*
X736476Y671677D01*
X737100Y673185D01*
Y674816D01*
X736476Y676322D01*
X735798Y677000D01*
X736303Y679249D01*
X736718Y680000D01*
X740900D01*
Y679184D01*
X741524Y677678D01*
X742678Y676524D01*
X744184Y675900D01*
X745816D01*
X747322Y676524D01*
X748476Y677678D01*
X751524D01*
X752678Y676524D01*
X754184Y675900D01*
X755816D01*
X757322Y676524D01*
X758476Y677678D01*
X761524D01*
X762678Y676524D01*
X764184Y675900D01*
X765816D01*
X767322Y676524D01*
X768476Y677678D01*
X769100Y679184D01*
Y680000D01*
X845851D01*
X848400Y678316D01*
Y676684D01*
X849024Y675178D01*
X850178Y674024D01*
X851684Y673400D01*
X853316D01*
X854822Y674024D01*
X855976Y675178D01*
X856600Y676684D01*
Y678316D01*
X859149Y680000D01*
X867500D01*
X891000Y656500D01*
D02*
G37*
G36*
X688108Y345912D02*
X688134Y345833D01*
X688177Y345743D01*
X688237Y345642D01*
X688315Y345530D01*
X688524Y345272D01*
X688802Y344968D01*
X688968Y344800D01*
X687200Y343032D01*
X687032Y343198D01*
X686470Y343685D01*
X686358Y343763D01*
X686256Y343823D01*
X686167Y343866D01*
X686088Y343892D01*
X686021Y343900D01*
X688100Y345979D01*
X688108Y345912D01*
D02*
G37*
G36*
X687108Y339912D02*
X687134Y339833D01*
X687177Y339743D01*
X687237Y339642D01*
X687315Y339530D01*
X687524Y339272D01*
X687803Y338968D01*
X687968Y338800D01*
X686200Y337032D01*
X686032Y337197D01*
X685470Y337685D01*
X685358Y337763D01*
X685257Y337823D01*
X685167Y337866D01*
X685088Y337892D01*
X685021Y337900D01*
X687100Y339979D01*
X687108Y339912D01*
D02*
G37*
G36*
X681428Y333447D02*
X681391Y333373D01*
X681358Y333279D01*
X681329Y333165D01*
X681305Y333031D01*
X681270Y332700D01*
X681252Y332289D01*
X681250Y332052D01*
X678750D01*
X678748Y332289D01*
X678695Y333031D01*
X678671Y333165D01*
X678642Y333279D01*
X678609Y333373D01*
X678572Y333447D01*
X678530Y333500D01*
X681470D01*
X681428Y333447D01*
D02*
G37*
G36*
X675428Y330447D02*
X675391Y330373D01*
X675358Y330279D01*
X675329Y330165D01*
X675305Y330031D01*
X675270Y329700D01*
X675252Y329289D01*
X675250Y329053D01*
X672750D01*
X672748Y329289D01*
X672695Y330031D01*
X672671Y330165D01*
X672642Y330279D01*
X672609Y330373D01*
X672572Y330447D01*
X672530Y330500D01*
X675470D01*
X675428Y330447D01*
D02*
G37*
G36*
X688108Y329912D02*
X688134Y329833D01*
X688177Y329743D01*
X688237Y329642D01*
X688315Y329530D01*
X688524Y329272D01*
X688802Y328968D01*
X688968Y328800D01*
X687200Y327032D01*
X687032Y327197D01*
X686470Y327685D01*
X686357Y327763D01*
X686256Y327823D01*
X686167Y327866D01*
X686088Y327892D01*
X686021Y327900D01*
X688100Y329979D01*
X688108Y329912D01*
D02*
G37*
G36*
X753561Y285500D02*
X753536Y285737D01*
X753460Y285950D01*
X753333Y286138D01*
X753156Y286300D01*
X752928Y286437D01*
X752650Y286550D01*
X752321Y286637D01*
X751942Y286700D01*
X751511Y286737D01*
X751031Y286750D01*
Y289250D01*
X751511Y289263D01*
X751942Y289300D01*
X752321Y289363D01*
X752650Y289450D01*
X752928Y289562D01*
X753156Y289700D01*
X753333Y289862D01*
X753460Y290050D01*
X753536Y290263D01*
X753561Y290500D01*
Y285500D01*
D02*
G37*
G36*
X840925Y280500D02*
X839842Y280492D01*
X837902Y280362D01*
X837044Y280240D01*
X836262Y280079D01*
X835554Y279881D01*
X834921Y279644D01*
X834363Y279369D01*
X833881Y279056D01*
X833473Y278705D01*
X831705Y280473D01*
X832056Y280881D01*
X832369Y281363D01*
X832644Y281921D01*
X832881Y282554D01*
X833080Y283262D01*
X833240Y284044D01*
X833362Y284902D01*
X833493Y286842D01*
X833500Y287925D01*
X840925Y280500D01*
D02*
G37*
G36*
X820925D02*
X819842Y280492D01*
X817902Y280362D01*
X817044Y280240D01*
X816262Y280079D01*
X815554Y279881D01*
X814921Y279644D01*
X814363Y279369D01*
X813881Y279056D01*
X813473Y278705D01*
X811705Y280473D01*
X812056Y280881D01*
X812369Y281363D01*
X812644Y281921D01*
X812881Y282554D01*
X813080Y283262D01*
X813240Y284044D01*
X813362Y284902D01*
X813493Y286842D01*
X813500Y287925D01*
X820925Y280500D01*
D02*
G37*
G36*
X800925D02*
X799842Y280492D01*
X797902Y280362D01*
X797044Y280240D01*
X796262Y280079D01*
X795554Y279881D01*
X794921Y279644D01*
X794363Y279369D01*
X793881Y279056D01*
X793473Y278705D01*
X791705Y280473D01*
X792056Y280881D01*
X792369Y281363D01*
X792644Y281921D01*
X792881Y282554D01*
X793080Y283262D01*
X793240Y284044D01*
X793362Y284902D01*
X793493Y286842D01*
X793500Y287925D01*
X800925Y280500D01*
D02*
G37*
G36*
X780925D02*
X779842Y280492D01*
X777902Y280362D01*
X777044Y280240D01*
X776262Y280079D01*
X775554Y279881D01*
X774921Y279644D01*
X774363Y279369D01*
X773881Y279056D01*
X773473Y278705D01*
X771705Y280473D01*
X772056Y280881D01*
X772369Y281363D01*
X772644Y281921D01*
X772881Y282554D01*
X773080Y283262D01*
X773240Y284044D01*
X773362Y284902D01*
X773493Y286842D01*
X773500Y287925D01*
X780925Y280500D01*
D02*
G37*
%LPC*%
G36*
X875796Y697000D02*
X874204D01*
X872734Y696391D01*
X871609Y695266D01*
X871000Y693796D01*
Y692204D01*
X871609Y690734D01*
X872734Y689609D01*
X874204Y689000D01*
X875796D01*
X877266Y689609D01*
X878391Y690734D01*
X879000Y692204D01*
Y693796D01*
X878391Y695266D01*
X877266Y696391D01*
X875796Y697000D01*
D02*
G37*
G36*
X593316Y696600D02*
X591684D01*
X590178Y695976D01*
X589024Y694822D01*
X588400Y693316D01*
Y691684D01*
X589024Y690178D01*
X590178Y689024D01*
X591684Y688400D01*
X593316D01*
X594823Y689024D01*
X595976Y690178D01*
X596600Y691684D01*
Y693316D01*
X595976Y694822D01*
X594823Y695976D01*
X593316Y696600D01*
D02*
G37*
G36*
X698316Y676600D02*
X696684D01*
X695178Y675976D01*
X694024Y674822D01*
X693400Y673316D01*
Y671684D01*
X694024Y670178D01*
X695178Y669024D01*
X696684Y668400D01*
X698316D01*
X699822Y669024D01*
X700976Y670178D01*
X701600Y671684D01*
Y673316D01*
X700976Y674822D01*
X699822Y675976D01*
X698316Y676600D01*
D02*
G37*
G36*
X583316Y674100D02*
X581684D01*
X580178Y673476D01*
X579024Y672322D01*
X578400Y670816D01*
Y669184D01*
X579024Y667678D01*
X580178Y666524D01*
X581684Y665900D01*
X583316D01*
X584823Y666524D01*
X585976Y667678D01*
X586600Y669184D01*
Y670816D01*
X585976Y672322D01*
X584823Y673476D01*
X583316Y674100D01*
D02*
G37*
G36*
X803316Y671600D02*
X801684D01*
X800178Y670976D01*
X799024Y669822D01*
X798400Y668316D01*
Y666684D01*
X799024Y665178D01*
X800178Y664024D01*
X801684Y663400D01*
X803316D01*
X804822Y664024D01*
X805976Y665178D01*
X806600Y666684D01*
Y668316D01*
X805976Y669822D01*
X804822Y670976D01*
X803316Y671600D01*
D02*
G37*
G36*
X452816Y671100D02*
X451185D01*
X449678Y670476D01*
X448524Y669323D01*
X447900Y667816D01*
Y666184D01*
X448524Y664678D01*
X449678Y663524D01*
X451185Y662900D01*
X452816D01*
X454323Y663524D01*
X455476Y664678D01*
X456100Y666184D01*
Y667816D01*
X455476Y669323D01*
X454323Y670476D01*
X452816Y671100D01*
D02*
G37*
G36*
X863316Y669100D02*
X861684D01*
X860178Y668476D01*
X859024Y667322D01*
X858400Y665816D01*
Y664184D01*
X859024Y662678D01*
X860178Y661524D01*
X861684Y660900D01*
X863316D01*
X864822Y661524D01*
X865976Y662678D01*
X866600Y664184D01*
Y665816D01*
X865976Y667322D01*
X864822Y668476D01*
X863316Y669100D01*
D02*
G37*
G36*
X488316D02*
X486684D01*
X485177Y668476D01*
X484024Y667322D01*
X483400Y665816D01*
Y664184D01*
X484024Y662678D01*
X485177Y661524D01*
X486684Y660900D01*
X488316D01*
X489822Y661524D01*
X490976Y662678D01*
X491600Y664184D01*
Y665816D01*
X490976Y667322D01*
X489822Y668476D01*
X488316Y669100D01*
D02*
G37*
G36*
X520816Y666600D02*
X519184D01*
X517678Y665976D01*
X516524Y664822D01*
X515900Y663316D01*
Y661684D01*
X516524Y660178D01*
X517678Y659024D01*
X519184Y658400D01*
X520816D01*
X522323Y659024D01*
X523476Y660178D01*
X524100Y661684D01*
Y663316D01*
X523476Y664822D01*
X522323Y665976D01*
X520816Y666600D01*
D02*
G37*
G36*
X411815Y662100D02*
X410184D01*
X408677Y661476D01*
X407524Y660322D01*
X406900Y658816D01*
Y657185D01*
X407524Y655678D01*
X408677Y654524D01*
X410184Y653900D01*
X411815D01*
X413322Y654524D01*
X414476Y655678D01*
X415100Y657185D01*
Y658816D01*
X414476Y660322D01*
X413322Y661476D01*
X411815Y662100D01*
D02*
G37*
G36*
X454815Y653100D02*
X453185D01*
X451678Y652476D01*
X451000Y651798D01*
X450322Y652476D01*
X448815Y653100D01*
X447184D01*
X445677Y652476D01*
X443322D01*
X441816Y653100D01*
X440185D01*
X438678Y652476D01*
X437524Y651322D01*
X436900Y649816D01*
Y648185D01*
X437524Y646677D01*
X438678Y645524D01*
X440185Y644900D01*
X441816D01*
X443322Y645524D01*
X445677D01*
X447184Y644900D01*
X448815D01*
X450322Y645524D01*
X451000Y646202D01*
X451678Y645524D01*
X453185Y644900D01*
X454815D01*
X456323Y645524D01*
X457476Y646677D01*
X458100Y648185D01*
Y649816D01*
X457476Y651322D01*
X456323Y652476D01*
X454815Y653100D01*
D02*
G37*
G36*
X661815Y655100D02*
X660184D01*
X658678Y654476D01*
X657524Y653322D01*
X656900Y651815D01*
Y650184D01*
X657524Y648678D01*
X658678Y647524D01*
X660184Y646900D01*
X661815D01*
X663322Y647524D01*
X664476Y648678D01*
X665100Y650184D01*
Y651815D01*
X664476Y653322D01*
X663322Y654476D01*
X661815Y655100D01*
D02*
G37*
G36*
X545816D02*
X544184D01*
X542678Y654476D01*
X541524Y653322D01*
X540900Y651815D01*
Y650184D01*
X541524Y648678D01*
X542678Y647524D01*
X544184Y646900D01*
X545816D01*
X547323Y647524D01*
X548476Y648678D01*
X549100Y650184D01*
Y651815D01*
X548476Y653322D01*
X547323Y654476D01*
X545816Y655100D01*
D02*
G37*
G36*
X508815D02*
X507184D01*
X505678Y654476D01*
X504524Y653322D01*
X503900Y651815D01*
Y650184D01*
X504524Y648678D01*
X505678Y647524D01*
X507184Y646900D01*
X508815D01*
X510322Y647524D01*
X511476Y648678D01*
X512100Y650184D01*
Y651815D01*
X511476Y653322D01*
X510322Y654476D01*
X508815Y655100D01*
D02*
G37*
G36*
X491816D02*
X490185D01*
X488678Y654476D01*
X487524Y653322D01*
X486900Y651815D01*
Y650184D01*
X487524Y648678D01*
X488678Y647524D01*
X490185Y646900D01*
X491816D01*
X493322Y647524D01*
X494476Y648678D01*
X495100Y650184D01*
Y651815D01*
X494476Y653322D01*
X493322Y654476D01*
X491816Y655100D01*
D02*
G37*
G36*
X474815D02*
X473184D01*
X471678Y654476D01*
X470524Y653322D01*
X469900Y651815D01*
Y650184D01*
X470524Y648678D01*
X471678Y647524D01*
X473184Y646900D01*
X474815D01*
X476322Y647524D01*
X477476Y648678D01*
X478100Y650184D01*
Y651815D01*
X477476Y653322D01*
X476322Y654476D01*
X474815Y655100D01*
D02*
G37*
G36*
X863316Y654100D02*
X861684D01*
X860178Y653476D01*
X859024Y652322D01*
X858400Y650816D01*
Y649184D01*
X859024Y647678D01*
X860178Y646524D01*
X861684Y645900D01*
X863316D01*
X864822Y646524D01*
X865976Y647678D01*
X866600Y649184D01*
Y650816D01*
X865976Y652322D01*
X864822Y653476D01*
X863316Y654100D01*
D02*
G37*
G36*
X766815D02*
X765184D01*
X763678Y653476D01*
X762524Y652322D01*
X761900Y650816D01*
Y649184D01*
X762524Y647678D01*
X763678Y646524D01*
X765184Y645900D01*
X766815D01*
X768322Y646524D01*
X769476Y647678D01*
X770100Y649184D01*
Y650816D01*
X769476Y652322D01*
X768322Y653476D01*
X766815Y654100D01*
D02*
G37*
G36*
X755816Y649100D02*
X754184D01*
X752678Y648476D01*
X751524Y647322D01*
X750900Y645816D01*
Y644184D01*
X751524Y642678D01*
X752678Y641524D01*
X754184Y640900D01*
X755816D01*
X757322Y641524D01*
X758476Y642678D01*
X759100Y644184D01*
Y645816D01*
X758476Y647322D01*
X757322Y648476D01*
X755816Y649100D01*
D02*
G37*
G36*
X648316D02*
X646684D01*
X645178Y648476D01*
X644024Y647322D01*
X643400Y645816D01*
Y644184D01*
X644024Y642678D01*
X645178Y641524D01*
X646684Y640900D01*
X648316D01*
X649822Y641524D01*
X650976Y642678D01*
X651600Y644184D01*
Y645816D01*
X650976Y647322D01*
X649822Y648476D01*
X648316Y649100D01*
D02*
G37*
G36*
X580816D02*
X579184D01*
X577678Y648476D01*
X576524Y647322D01*
X575900Y645816D01*
Y644184D01*
X576524Y642678D01*
X577678Y641524D01*
X579184Y640900D01*
X580816D01*
X582323Y641524D01*
X583476Y642678D01*
X584100Y644184D01*
Y645816D01*
X583476Y647322D01*
X582323Y648476D01*
X580816Y649100D01*
D02*
G37*
G36*
X533316D02*
X531684D01*
X530178Y648476D01*
X529024Y647322D01*
X528400Y645816D01*
Y644184D01*
X529024Y642678D01*
X530178Y641524D01*
X531684Y640900D01*
X533316D01*
X534823Y641524D01*
X535976Y642678D01*
X536600Y644184D01*
Y645816D01*
X535976Y647322D01*
X534823Y648476D01*
X533316Y649100D01*
D02*
G37*
G36*
X802815Y648100D02*
X801184D01*
X799678Y647476D01*
X798524Y646322D01*
X797900Y644816D01*
Y643185D01*
X798524Y641678D01*
X799678Y640524D01*
X801184Y639900D01*
X802815D01*
X804322Y640524D01*
X805476Y641678D01*
X806100Y643185D01*
Y644816D01*
X805476Y646322D01*
X804322Y647476D01*
X802815Y648100D01*
D02*
G37*
G36*
X695816Y646600D02*
X694184D01*
X692678Y645976D01*
X691524Y644822D01*
X690900Y643316D01*
Y641684D01*
X691524Y640178D01*
X692678Y639024D01*
X694184Y638400D01*
X695816D01*
X697322Y639024D01*
X698476Y640178D01*
X699100Y641684D01*
Y643316D01*
X698476Y644822D01*
X697322Y645976D01*
X695816Y646600D01*
D02*
G37*
G36*
X866796Y642000D02*
X865204D01*
X863734Y641391D01*
X862609Y640266D01*
X862000Y638796D01*
Y637204D01*
X862609Y635734D01*
X863734Y634609D01*
X865204Y634000D01*
X866796D01*
X868266Y634609D01*
X869391Y635734D01*
X870000Y637204D01*
Y638796D01*
X869391Y640266D01*
X868266Y641391D01*
X866796Y642000D01*
D02*
G37*
G36*
X758316Y636600D02*
X756684D01*
X755178Y635976D01*
X754024Y634823D01*
X753400Y633316D01*
Y631684D01*
X754024Y630178D01*
X755178Y629024D01*
X756684Y628400D01*
X758316D01*
X759822Y629024D01*
X760976Y630178D01*
X761600Y631684D01*
Y633316D01*
X760976Y634823D01*
X759822Y635976D01*
X758316Y636600D01*
D02*
G37*
G36*
X441065Y635350D02*
X439435D01*
X437928Y634726D01*
X436774Y633572D01*
X436150Y632066D01*
Y630434D01*
X436774Y628927D01*
X437928Y627774D01*
X439435Y627150D01*
X441065D01*
X442572Y627774D01*
X443726Y628927D01*
X444350Y630434D01*
Y632066D01*
X443726Y633572D01*
X442572Y634726D01*
X441065Y635350D01*
D02*
G37*
G36*
X648316Y634100D02*
X646684D01*
X645178Y633476D01*
X644024Y632323D01*
X643400Y630816D01*
Y629184D01*
X644024Y627678D01*
X645178Y626524D01*
X646684Y625900D01*
X648316D01*
X649822Y626524D01*
X650976Y627678D01*
X651600Y629184D01*
Y630816D01*
X650976Y632323D01*
X649822Y633476D01*
X648316Y634100D01*
D02*
G37*
G36*
X775816Y629100D02*
X774184D01*
X772678Y628476D01*
X771524Y627322D01*
X770900Y625816D01*
Y624184D01*
X771524Y622677D01*
X772678Y621524D01*
X774184Y620900D01*
X775816D01*
X777322Y621524D01*
X778476Y622677D01*
X779100Y624184D01*
Y625816D01*
X778476Y627322D01*
X777322Y628476D01*
X775816Y629100D01*
D02*
G37*
G36*
X668316D02*
X666684D01*
X665178Y628476D01*
X664024Y627322D01*
X663400Y625816D01*
Y624184D01*
X664024Y622677D01*
X665178Y621524D01*
X666684Y620900D01*
X668316D01*
X669822Y621524D01*
X670976Y622677D01*
X671600Y624184D01*
Y625816D01*
X670976Y627322D01*
X669822Y628476D01*
X668316Y629100D01*
D02*
G37*
G36*
X553316D02*
X551684D01*
X550178Y628476D01*
X549024Y627322D01*
X548400Y625816D01*
Y624184D01*
X549024Y622677D01*
X550178Y621524D01*
X551684Y620900D01*
X553316D01*
X554823Y621524D01*
X555976Y622677D01*
X556600Y624184D01*
Y625816D01*
X555976Y627322D01*
X554823Y628476D01*
X553316Y629100D01*
D02*
G37*
G36*
X866815Y628100D02*
X865184D01*
X863678Y627476D01*
X862524Y626322D01*
X861900Y624815D01*
Y623185D01*
X862524Y621678D01*
X863678Y620524D01*
X865184Y619900D01*
X866815D01*
X868322Y620524D01*
X869476Y621678D01*
X870100Y623185D01*
Y624815D01*
X869476Y626322D01*
X868322Y627476D01*
X866815Y628100D01*
D02*
G37*
G36*
X648316Y619100D02*
X646684D01*
X645178Y618476D01*
X644024Y617322D01*
X643400Y615816D01*
Y614184D01*
X644024Y612677D01*
X645178Y611524D01*
X646684Y610900D01*
X648316D01*
X649822Y611524D01*
X650976Y612677D01*
X651600Y614184D01*
Y615816D01*
X650976Y617322D01*
X649822Y618476D01*
X648316Y619100D01*
D02*
G37*
G36*
X516816Y616100D02*
X515185D01*
X513678Y615476D01*
X512524Y614322D01*
X511900Y612816D01*
Y611185D01*
X512524Y609678D01*
X513678Y608524D01*
X515185Y607900D01*
X516816D01*
X518322Y608524D01*
X519476Y609678D01*
X520100Y611185D01*
Y612816D01*
X519476Y614322D01*
X518322Y615476D01*
X516816Y616100D01*
D02*
G37*
G36*
X477816Y631100D02*
X476184D01*
X474678Y630476D01*
X473524Y629322D01*
X472900Y627816D01*
Y626184D01*
X473524Y624678D01*
X474678Y623524D01*
X476184Y622900D01*
X477820Y622820D01*
X477900Y621184D01*
X478524Y619678D01*
X479678Y618524D01*
X481184Y617900D01*
X482820Y617820D01*
X482900Y616185D01*
Y616185D01*
X483524Y614678D01*
X484678Y613524D01*
X486184Y612900D01*
X487900Y611184D01*
X488524Y609678D01*
X489678Y608524D01*
X491185Y607900D01*
X492816D01*
X494323Y608524D01*
X495476Y609678D01*
X496100Y611185D01*
Y612816D01*
X495476Y614322D01*
X494323Y615476D01*
X492816Y616100D01*
X491100Y617816D01*
X490476Y619323D01*
X489322Y620476D01*
X487816Y621100D01*
X486180Y621180D01*
X486100Y622815D01*
Y622816D01*
X485476Y624322D01*
X484322Y625476D01*
X482816Y626100D01*
X481180Y626180D01*
X481100Y627816D01*
X480476Y629322D01*
X479322Y630476D01*
X477816Y631100D01*
D02*
G37*
G36*
X867796Y615000D02*
X866204D01*
X864734Y614391D01*
X863609Y613266D01*
X863000Y611796D01*
Y610204D01*
X863609Y608734D01*
X864734Y607609D01*
X866204Y607000D01*
X867796D01*
X869266Y607609D01*
X870391Y608734D01*
X871000Y610204D01*
Y611796D01*
X870391Y613266D01*
X869266Y614391D01*
X867796Y615000D01*
D02*
G37*
G36*
X552816Y608100D02*
X551184D01*
X549678Y607476D01*
X548524Y606323D01*
X547900Y604816D01*
Y603185D01*
X548524Y601678D01*
X549678Y600524D01*
X551184Y599900D01*
X552816D01*
X554322Y600524D01*
X555476Y601678D01*
X556100Y603185D01*
Y604816D01*
X555476Y606323D01*
X554322Y607476D01*
X552816Y608100D01*
D02*
G37*
G36*
X775816Y604100D02*
X774184D01*
X772678Y603476D01*
X771524Y602322D01*
X770900Y600816D01*
Y599184D01*
X771524Y597677D01*
X772678Y596524D01*
X774184Y595900D01*
X775816D01*
X777322Y596524D01*
X778476Y597677D01*
X779100Y599184D01*
Y600816D01*
X778476Y602322D01*
X777322Y603476D01*
X775816Y604100D01*
D02*
G37*
G36*
X748316D02*
X746684D01*
X745178Y603476D01*
X744024Y602322D01*
X743400Y600816D01*
Y599184D01*
X744024Y597677D01*
X745178Y596524D01*
X746684Y595900D01*
X748316D01*
X749822Y596524D01*
X750976Y597677D01*
X751600Y599184D01*
Y600816D01*
X750976Y602322D01*
X749822Y603476D01*
X748316Y604100D01*
D02*
G37*
G36*
X668316D02*
X666684D01*
X665178Y603476D01*
X664024Y602322D01*
X663400Y600816D01*
Y599184D01*
X664024Y597677D01*
X665178Y596524D01*
X666684Y595900D01*
X668316D01*
X669822Y596524D01*
X670976Y597677D01*
X671600Y599184D01*
Y600816D01*
X670976Y602322D01*
X669822Y603476D01*
X668316Y604100D01*
D02*
G37*
G36*
X633316D02*
X631684D01*
X630178Y603476D01*
X629024Y602322D01*
X628400Y600816D01*
Y599184D01*
X629024Y597677D01*
X630178Y596524D01*
X631684Y595900D01*
X633316D01*
X634823Y596524D01*
X635976Y597677D01*
X636600Y599184D01*
Y600816D01*
X635976Y602322D01*
X634823Y603476D01*
X633316Y604100D01*
D02*
G37*
G36*
X447566Y601600D02*
X445934D01*
X444428Y600976D01*
X443274Y599822D01*
X442650Y598316D01*
Y596684D01*
X443274Y595177D01*
X444428Y594024D01*
X445934Y593400D01*
X447566D01*
X449072Y594024D01*
X450226Y595177D01*
X450850Y596684D01*
Y598316D01*
X450226Y599822D01*
X449072Y600976D01*
X447566Y601600D01*
D02*
G37*
G36*
X854816Y601100D02*
X853185D01*
X851677Y600476D01*
X850524Y599322D01*
X849900Y597816D01*
Y596185D01*
X850524Y594678D01*
X851677Y593524D01*
X853185Y592900D01*
X854816D01*
X856322Y593524D01*
X857476Y594678D01*
X858100Y596185D01*
Y597816D01*
X857476Y599322D01*
X856322Y600476D01*
X854816Y601100D01*
D02*
G37*
G36*
X597816D02*
X596185D01*
X594678Y600476D01*
X593524Y599322D01*
X592900Y597816D01*
Y596185D01*
X593524Y594678D01*
X594678Y593524D01*
X596185Y592900D01*
X597816D01*
X599322Y593524D01*
X600476Y594678D01*
X601100Y596185D01*
Y597816D01*
X600476Y599322D01*
X599322Y600476D01*
X597816Y601100D01*
D02*
G37*
G36*
X412816Y600100D02*
X411184D01*
X409678Y599476D01*
X408524Y598322D01*
X407900Y596815D01*
Y595185D01*
X408524Y593678D01*
X409678Y592524D01*
X411184Y591900D01*
X412816D01*
X414322Y592524D01*
X415476Y593678D01*
X416100Y595185D01*
Y596815D01*
X415476Y598322D01*
X414322Y599476D01*
X412816Y600100D01*
D02*
G37*
G36*
X813316Y599100D02*
X811684D01*
X810178Y598476D01*
X809024Y597323D01*
X808400Y595816D01*
Y594184D01*
X809024Y592678D01*
X810178Y591524D01*
X811684Y590900D01*
X813316D01*
X814822Y591524D01*
X815976Y592678D01*
X816600Y594184D01*
Y595816D01*
X815976Y597323D01*
X814822Y598476D01*
X813316Y599100D01*
D02*
G37*
G36*
X705816D02*
X704184D01*
X702678Y598476D01*
X701524Y597323D01*
X700900Y595816D01*
Y594184D01*
X701524Y592678D01*
X702678Y591524D01*
X704184Y590900D01*
X705816D01*
X707322Y591524D01*
X708476Y592678D01*
X709100Y594184D01*
Y595816D01*
X708476Y597323D01*
X707322Y598476D01*
X705816Y599100D01*
D02*
G37*
G36*
X867796Y596000D02*
X866204D01*
X864734Y595391D01*
X863609Y594266D01*
X863000Y592796D01*
Y591204D01*
X863609Y589734D01*
X864734Y588609D01*
X866204Y588000D01*
X867796D01*
X869266Y588609D01*
X870391Y589734D01*
X871000Y591204D01*
Y592796D01*
X870391Y594266D01*
X869266Y595391D01*
X867796Y596000D01*
D02*
G37*
G36*
X766796D02*
X765204D01*
X763734Y595391D01*
X762609Y594266D01*
X762000Y592796D01*
Y591204D01*
X762609Y589734D01*
X763734Y588609D01*
X765204Y588000D01*
X766796D01*
X768266Y588609D01*
X769391Y589734D01*
X770000Y591204D01*
Y592796D01*
X769391Y594266D01*
X768266Y595391D01*
X766796Y596000D01*
D02*
G37*
G36*
X723796Y595000D02*
X722204D01*
X720734Y594391D01*
X719609Y593266D01*
X719000Y591796D01*
Y590204D01*
X719609Y588734D01*
X720734Y587609D01*
X722204Y587000D01*
X723796D01*
X725266Y587609D01*
X726391Y588734D01*
X727000Y590204D01*
Y591796D01*
X726391Y593266D01*
X725266Y594391D01*
X723796Y595000D01*
D02*
G37*
G36*
X564815Y595100D02*
X563184D01*
X561678Y594476D01*
X560524Y593322D01*
X559900Y591816D01*
Y590185D01*
X560524Y588678D01*
X561678Y587524D01*
X563184Y586900D01*
X564815D01*
X566322Y587524D01*
X567476Y588678D01*
X568100Y590185D01*
Y591816D01*
X567476Y593322D01*
X566322Y594476D01*
X564815Y595100D01*
D02*
G37*
G36*
X577816Y593100D02*
X576184D01*
X574678Y592476D01*
X573524Y591322D01*
X572900Y589815D01*
Y588184D01*
X573524Y586678D01*
X574678Y585524D01*
X576184Y584900D01*
X577816D01*
X579322Y585524D01*
X580476Y586678D01*
X581100Y588184D01*
Y589815D01*
X580476Y591322D01*
X579322Y592476D01*
X577816Y593100D01*
D02*
G37*
G36*
X834796Y589000D02*
X833204D01*
X831734Y588391D01*
X830609Y587266D01*
X830000Y585796D01*
Y584204D01*
X830609Y582734D01*
X831734Y581609D01*
X833204Y581000D01*
X834796D01*
X836266Y581609D01*
X837391Y582734D01*
X838000Y584204D01*
Y585796D01*
X837391Y587266D01*
X836266Y588391D01*
X834796Y589000D01*
D02*
G37*
G36*
X808796Y588000D02*
X807204D01*
X805734Y587391D01*
X804609Y586266D01*
X804000Y584796D01*
Y583204D01*
X804609Y581734D01*
X805734Y580609D01*
X807204Y580000D01*
X808796D01*
X810266Y580609D01*
X811391Y581734D01*
X812000Y583204D01*
Y584796D01*
X811391Y586266D01*
X810266Y587391D01*
X808796Y588000D01*
D02*
G37*
G36*
X778796D02*
X777204D01*
X775734Y587391D01*
X774609Y586266D01*
X774000Y584796D01*
Y583204D01*
X774609Y581734D01*
X775734Y580609D01*
X777204Y580000D01*
X778796D01*
X780266Y580609D01*
X781391Y581734D01*
X782000Y583204D01*
Y584796D01*
X781391Y586266D01*
X780266Y587391D01*
X778796Y588000D01*
D02*
G37*
G36*
X750796D02*
X749204D01*
X747734Y587391D01*
X746609Y586266D01*
X746000Y584796D01*
Y583204D01*
X746609Y581734D01*
X747734Y580609D01*
X749204Y580000D01*
X750796D01*
X752266Y580609D01*
X753391Y581734D01*
X754000Y583204D01*
Y584796D01*
X753391Y586266D01*
X752266Y587391D01*
X750796Y588000D01*
D02*
G37*
G36*
X467566Y587600D02*
X465934D01*
X464428Y586976D01*
X463274Y585822D01*
X462650Y584315D01*
Y582685D01*
X463274Y581178D01*
X464428Y580024D01*
X465934Y579400D01*
X467566D01*
X469072Y580024D01*
X470226Y581178D01*
X470850Y582685D01*
Y584315D01*
X470226Y585822D01*
X469072Y586976D01*
X467566Y587600D01*
D02*
G37*
G36*
X601065Y586350D02*
X599435D01*
X597928Y585726D01*
X596774Y584572D01*
X596150Y583065D01*
Y581434D01*
X596774Y579927D01*
X597928Y578774D01*
X599435Y578150D01*
X601065D01*
X602573Y578774D01*
X603726Y579927D01*
X604350Y581434D01*
Y583065D01*
X603726Y584572D01*
X602573Y585726D01*
X601065Y586350D01*
D02*
G37*
G36*
X877796Y586000D02*
X876204D01*
X874734Y585391D01*
X873609Y584266D01*
X873000Y582796D01*
Y581204D01*
X873609Y579734D01*
X874734Y578609D01*
X876204Y578000D01*
X877796D01*
X879266Y578609D01*
X880391Y579734D01*
X881000Y581204D01*
Y582796D01*
X880391Y584266D01*
X879266Y585391D01*
X877796Y586000D01*
D02*
G37*
G36*
X693796Y584000D02*
X692204D01*
X690734Y583391D01*
X689609Y582266D01*
X689000Y580796D01*
Y579204D01*
X689609Y577734D01*
X690734Y576609D01*
X692204Y576000D01*
X693796D01*
X695266Y576609D01*
X696391Y577734D01*
X697000Y579204D01*
Y580796D01*
X696391Y582266D01*
X695266Y583391D01*
X693796Y584000D01*
D02*
G37*
G36*
X622066Y580850D02*
X620434D01*
X618927Y580226D01*
X617774Y579072D01*
X617150Y577565D01*
Y575934D01*
X617774Y574428D01*
X618927Y573274D01*
X620434Y572650D01*
X622066D01*
X623572Y573274D01*
X624726Y574428D01*
X625350Y575934D01*
Y577565D01*
X624726Y579072D01*
X623572Y580226D01*
X622066Y580850D01*
D02*
G37*
G36*
X407816Y580100D02*
X406185D01*
X404678Y579476D01*
X403524Y578322D01*
X402900Y576815D01*
Y575184D01*
X403524Y573677D01*
X404678Y572524D01*
X406185Y571900D01*
X407816D01*
X409322Y572524D01*
X410476Y573677D01*
X411100Y575184D01*
Y576815D01*
X410476Y578322D01*
X409322Y579476D01*
X407816Y580100D01*
D02*
G37*
G36*
X839796Y577000D02*
X838204D01*
X836734Y576391D01*
X835609Y575266D01*
X835000Y573796D01*
Y572204D01*
X835609Y570734D01*
X836734Y569609D01*
X838204Y569000D01*
X839796D01*
X841266Y569609D01*
X842391Y570734D01*
X843000Y572204D01*
Y573796D01*
X842391Y575266D01*
X841266Y576391D01*
X839796Y577000D01*
D02*
G37*
G36*
X808796D02*
X807204D01*
X805734Y576391D01*
X804609Y575266D01*
X804000Y573796D01*
Y572204D01*
X804609Y570734D01*
X805734Y569609D01*
X807204Y569000D01*
X808796D01*
X810266Y569609D01*
X811391Y570734D01*
X812000Y572204D01*
Y573796D01*
X811391Y575266D01*
X810266Y576391D01*
X808796Y577000D01*
D02*
G37*
G36*
X782796D02*
X781204D01*
X779734Y576391D01*
X778609Y575266D01*
X778000Y573796D01*
Y572204D01*
X778609Y570734D01*
X779734Y569609D01*
X781204Y569000D01*
X782796D01*
X784266Y569609D01*
X785391Y570734D01*
X786000Y572204D01*
Y573796D01*
X785391Y575266D01*
X784266Y576391D01*
X782796Y577000D01*
D02*
G37*
G36*
X704796D02*
X703204D01*
X701734Y576391D01*
X700609Y575266D01*
X700000Y573796D01*
Y572204D01*
X700609Y570734D01*
X701734Y569609D01*
X703204Y569000D01*
X704796D01*
X706266Y569609D01*
X707391Y570734D01*
X708000Y572204D01*
Y573796D01*
X707391Y575266D01*
X706266Y576391D01*
X704796Y577000D01*
D02*
G37*
G36*
X452816Y583100D02*
X451185D01*
X449678Y582476D01*
X448524Y581323D01*
X447900Y579816D01*
Y578185D01*
X448524Y576678D01*
X449678Y575524D01*
X450971Y574988D01*
X450900Y574815D01*
Y573185D01*
X451524Y571678D01*
X452202Y571000D01*
X451524Y570322D01*
X450900Y568816D01*
Y567184D01*
X451524Y565678D01*
X452678Y564524D01*
X454184Y563900D01*
X455816D01*
X457323Y564524D01*
X458476Y565678D01*
X459100Y567184D01*
Y568816D01*
X458476Y570322D01*
X457798Y571000D01*
X458476Y571678D01*
X459100Y573185D01*
Y574815D01*
X458476Y576322D01*
X457323Y577476D01*
X456029Y578012D01*
X456100Y578185D01*
Y579816D01*
X455476Y581323D01*
X454323Y582476D01*
X452816Y583100D01*
D02*
G37*
G36*
X860796Y571000D02*
X859204D01*
X857734Y570391D01*
X856609Y569266D01*
X856000Y567796D01*
Y566204D01*
X856609Y564734D01*
X857734Y563609D01*
X859204Y563000D01*
X860796D01*
X862266Y563609D01*
X863391Y564734D01*
X864000Y566204D01*
Y567796D01*
X863391Y569266D01*
X862266Y570391D01*
X860796Y571000D01*
D02*
G37*
G36*
X723796Y570000D02*
X722204D01*
X720734Y569391D01*
X719609Y568266D01*
X719000Y566796D01*
Y565204D01*
X719609Y563734D01*
X720734Y562609D01*
X722204Y562000D01*
X723796D01*
X725266Y562609D01*
X726391Y563734D01*
X727000Y565204D01*
Y566796D01*
X726391Y568266D01*
X725266Y569391D01*
X723796Y570000D01*
D02*
G37*
G36*
X880816Y566600D02*
X879184D01*
X877678Y565976D01*
X876524Y564822D01*
X875900Y563316D01*
Y561684D01*
X876524Y560177D01*
X877678Y559024D01*
X879184Y558400D01*
X880816D01*
X882322Y559024D01*
X883476Y560177D01*
X884100Y561684D01*
Y563316D01*
X883476Y564822D01*
X882322Y565976D01*
X880816Y566600D01*
D02*
G37*
G36*
X510816Y578100D02*
X509184D01*
X507677Y577476D01*
X506524Y576322D01*
X505900Y574815D01*
Y573185D01*
X506524Y571678D01*
X507677Y570524D01*
X507686Y570484D01*
X507524Y570322D01*
X506900Y568816D01*
Y567184D01*
X507524Y565678D01*
X508524Y564322D01*
X507900Y562816D01*
Y561185D01*
X508524Y559678D01*
X509678Y558524D01*
X511184Y557900D01*
X512816D01*
X514322Y558524D01*
X515476Y559678D01*
X516100Y561185D01*
Y562816D01*
X515476Y564322D01*
X514476Y565678D01*
X515100Y567184D01*
Y568816D01*
X514476Y570322D01*
X513322Y571476D01*
X513314Y571516D01*
X513476Y571678D01*
X514100Y573185D01*
Y574815D01*
X513476Y576322D01*
X512322Y577476D01*
X510816Y578100D01*
D02*
G37*
G36*
X808796Y565000D02*
X807204D01*
X805734Y564391D01*
X804609Y563266D01*
X804000Y561796D01*
Y560204D01*
X804609Y558734D01*
X805734Y557609D01*
X807204Y557000D01*
X808796D01*
X810266Y557609D01*
X811391Y558734D01*
X812000Y560204D01*
Y561796D01*
X811391Y563266D01*
X810266Y564391D01*
X808796Y565000D01*
D02*
G37*
G36*
X778796D02*
X777204D01*
X775734Y564391D01*
X774609Y563266D01*
X774000Y561796D01*
Y560204D01*
X774609Y558734D01*
X775734Y557609D01*
X777204Y557000D01*
X778796D01*
X780266Y557609D01*
X781391Y558734D01*
X782000Y560204D01*
Y561796D01*
X781391Y563266D01*
X780266Y564391D01*
X778796Y565000D01*
D02*
G37*
G36*
X673796D02*
X672204D01*
X670734Y564391D01*
X669609Y563266D01*
X669000Y561796D01*
Y560204D01*
X669609Y558734D01*
X670734Y557609D01*
X672204Y557000D01*
X673796D01*
X675266Y557609D01*
X676391Y558734D01*
X677000Y560204D01*
Y561796D01*
X676391Y563266D01*
X675266Y564391D01*
X673796Y565000D01*
D02*
G37*
G36*
X633815Y562100D02*
X632184D01*
X630678Y561476D01*
X629524Y560322D01*
X628900Y558815D01*
Y557184D01*
X629524Y555678D01*
X630678Y554524D01*
X632184Y553900D01*
X633815D01*
X635322Y554524D01*
X636476Y555678D01*
X637100Y557184D01*
Y558815D01*
X636476Y560322D01*
X635322Y561476D01*
X633815Y562100D01*
D02*
G37*
G36*
X492796Y559000D02*
X491204D01*
X489734Y558391D01*
X488609Y557266D01*
X488000Y555796D01*
Y554204D01*
X488609Y552734D01*
X489734Y551609D01*
X491204Y551000D01*
X492796D01*
X494266Y551609D01*
X495391Y552734D01*
X496000Y554204D01*
Y555796D01*
X495391Y557266D01*
X494266Y558391D01*
X492796Y559000D01*
D02*
G37*
G36*
X840816Y559100D02*
X839184D01*
X837678Y558476D01*
X836524Y557323D01*
X835900Y555816D01*
Y554184D01*
X836524Y552678D01*
X837678Y551524D01*
X839184Y550900D01*
X840816D01*
X842322Y551524D01*
X843476Y552678D01*
X844100Y554184D01*
Y555816D01*
X843476Y557323D01*
X842322Y558476D01*
X840816Y559100D01*
D02*
G37*
G36*
X702796Y558000D02*
X701204D01*
X699734Y557391D01*
X698609Y556266D01*
X698000Y554796D01*
Y553204D01*
X698609Y551734D01*
X699734Y550609D01*
X701204Y550000D01*
X702796D01*
X704266Y550609D01*
X705391Y551734D01*
X706000Y553204D01*
Y554796D01*
X705391Y556266D01*
X704266Y557391D01*
X702796Y558000D01*
D02*
G37*
G36*
X439816Y558100D02*
X438185D01*
X436678Y557476D01*
X435524Y556323D01*
X434900Y554816D01*
Y553185D01*
X435524Y551678D01*
X436678Y550524D01*
X438185Y549900D01*
X439816D01*
X441323Y550524D01*
X442476Y551678D01*
X443100Y553185D01*
Y554816D01*
X442476Y556323D01*
X441323Y557476D01*
X439816Y558100D01*
D02*
G37*
G36*
X764796Y557000D02*
X763204D01*
X761734Y556391D01*
X760609Y555266D01*
X760000Y553796D01*
Y552204D01*
X760609Y550734D01*
X761734Y549609D01*
X763204Y549000D01*
X764796D01*
X766266Y549609D01*
X767391Y550734D01*
X768000Y552204D01*
Y553796D01*
X767391Y555266D01*
X766266Y556391D01*
X764796Y557000D01*
D02*
G37*
G36*
X681796Y553000D02*
X680204D01*
X678734Y552391D01*
X677609Y551266D01*
X677000Y549796D01*
Y548204D01*
X677609Y546734D01*
X678734Y545609D01*
X680204Y545000D01*
X681796D01*
X683266Y545609D01*
X684391Y546734D01*
X685000Y548204D01*
Y549796D01*
X684391Y551266D01*
X683266Y552391D01*
X681796Y553000D01*
D02*
G37*
G36*
X666796Y545000D02*
X665204D01*
X663734Y544391D01*
X662609Y543266D01*
X662000Y541796D01*
Y540204D01*
X662609Y538734D01*
X663734Y537609D01*
X665204Y537000D01*
X666796D01*
X668266Y537609D01*
X669391Y538734D01*
X670000Y540204D01*
Y541796D01*
X669391Y543266D01*
X668266Y544391D01*
X666796Y545000D01*
D02*
G37*
G36*
X689796Y540000D02*
X688204D01*
X686734Y539391D01*
X685609Y538266D01*
X685000Y536796D01*
Y535204D01*
X685609Y533734D01*
X686734Y532609D01*
X688204Y532000D01*
X689796D01*
X691266Y532609D01*
X692391Y533734D01*
X693000Y535204D01*
Y536796D01*
X692391Y538266D01*
X691266Y539391D01*
X689796Y540000D01*
D02*
G37*
G36*
X756796Y545000D02*
X755204D01*
X753734Y544391D01*
X752609Y543266D01*
X752000Y541796D01*
Y540204D01*
X752609Y538734D01*
X752676Y536509D01*
X751813Y535611D01*
X751524Y535322D01*
X750900Y533815D01*
Y532184D01*
X751524Y530678D01*
X752678Y529524D01*
X754184Y528900D01*
X755816D01*
X757322Y529524D01*
X758476Y530678D01*
X759100Y532184D01*
Y533815D01*
X758785Y534577D01*
X758279Y537530D01*
X759187Y538531D01*
X759391Y538734D01*
X760000Y540204D01*
Y541796D01*
X759391Y543266D01*
X758266Y544391D01*
X756796Y545000D01*
D02*
G37*
G36*
X796816Y537600D02*
X795184D01*
X793678Y536976D01*
X792524Y535822D01*
X791900Y534315D01*
Y532685D01*
X792524Y531178D01*
X793663Y530039D01*
X793662Y529951D01*
X793045Y527039D01*
X770031D01*
X769600Y527685D01*
Y529316D01*
X768976Y530822D01*
X767822Y531976D01*
X766316Y532600D01*
X764685D01*
X763178Y531976D01*
X762024Y530822D01*
X761400Y529316D01*
Y527685D01*
X761726Y526897D01*
X761720Y526884D01*
X761058Y526442D01*
X733831Y499215D01*
X733641Y498931D01*
X733436Y498657D01*
X733421Y498601D01*
X733389Y498554D01*
X733344Y498324D01*
X733299Y498176D01*
X732997Y497630D01*
X732210Y496789D01*
X731370Y496003D01*
X730825Y495701D01*
X730676Y495656D01*
X730446Y495611D01*
X730398Y495579D01*
X730343Y495564D01*
X730069Y495359D01*
X729785Y495169D01*
X699558Y464942D01*
X699116Y464280D01*
X698961Y463500D01*
Y457890D01*
X696000Y457796D01*
X695391Y459266D01*
X694266Y460391D01*
X692796Y461000D01*
X691204D01*
X689734Y460391D01*
X688609Y459266D01*
X688000Y457796D01*
Y456204D01*
X688609Y454734D01*
X689734Y453609D01*
X691204Y453000D01*
X692796D01*
X694266Y453609D01*
X695391Y454734D01*
X696000Y456204D01*
X698961Y456110D01*
Y446458D01*
X699013Y446198D01*
X699029Y445933D01*
X699089Y445811D01*
X699116Y445677D01*
X699263Y445457D01*
X699380Y445219D01*
X699482Y445129D01*
X699558Y445016D01*
X699845Y444810D01*
X699977Y444693D01*
X700133Y444603D01*
X700524Y444322D01*
X699900Y442816D01*
Y441185D01*
X700524Y439678D01*
X700133Y439397D01*
X699977Y439306D01*
X699845Y439190D01*
X699558Y438984D01*
X699482Y438871D01*
X699380Y438781D01*
X699263Y438543D01*
X699116Y438323D01*
X699089Y438189D01*
X699029Y438067D01*
X699013Y437802D01*
X698961Y437542D01*
Y430890D01*
X696000Y430796D01*
X695391Y432266D01*
X694266Y433391D01*
X692796Y434000D01*
X691204D01*
X689734Y433391D01*
X688609Y432266D01*
X688000Y430796D01*
Y429204D01*
X688609Y427734D01*
X689734Y426609D01*
X691204Y426000D01*
X692796D01*
X694266Y426609D01*
X695391Y427734D01*
X696000Y429204D01*
X698811Y429114D01*
X699052Y428407D01*
X699116Y428220D01*
X699558Y427558D01*
X738558Y388558D01*
X739220Y388116D01*
X740000Y387961D01*
X781041D01*
X783400Y385816D01*
Y384184D01*
X784024Y382677D01*
X785178Y381524D01*
X786684Y380900D01*
X788316D01*
X789822Y381524D01*
X790976Y382677D01*
X791600Y384184D01*
Y385816D01*
X793959Y387961D01*
X827920D01*
X829163Y384961D01*
X829024Y384822D01*
X828400Y383316D01*
Y381684D01*
X829024Y380177D01*
X830178Y379024D01*
X831684Y378400D01*
X833316D01*
X834822Y379024D01*
X835976Y380177D01*
X836600Y381684D01*
Y383316D01*
X835976Y384822D01*
X835837Y384961D01*
X837080Y387961D01*
X840000D01*
X840000Y387961D01*
X840780Y388116D01*
X841442Y388558D01*
X851442Y398558D01*
X851884Y399220D01*
X852039Y400000D01*
Y475920D01*
X853438Y476771D01*
X855039Y477374D01*
X856184Y476900D01*
X857815D01*
X859322Y477524D01*
X860476Y478678D01*
X861100Y480185D01*
Y481815D01*
X860476Y483322D01*
X859322Y484476D01*
X857815Y485100D01*
X856184D01*
X855039Y484626D01*
X853438Y485229D01*
X852039Y486080D01*
Y507500D01*
X851884Y508280D01*
X851442Y508942D01*
X833942Y526442D01*
X833280Y526884D01*
X832500Y527039D01*
X821600D01*
X821132Y526946D01*
X820976Y527322D01*
X819822Y528476D01*
X818316Y529100D01*
X816684D01*
X815178Y528476D01*
X814024Y527322D01*
X813868Y526946D01*
X813400Y527039D01*
X798955D01*
X798338Y529951D01*
X798337Y530039D01*
X799476Y531178D01*
X800100Y532685D01*
Y534315D01*
X799476Y535822D01*
X798323Y536976D01*
X796816Y537600D01*
D02*
G37*
G36*
X517816Y535100D02*
X516185D01*
X514678Y534476D01*
X513524Y533322D01*
X512900Y531815D01*
Y530185D01*
X513524Y528678D01*
X514678Y527524D01*
X516185Y526900D01*
X517816D01*
X519323Y527524D01*
X520476Y528678D01*
X521100Y530185D01*
Y531815D01*
X520476Y533322D01*
X519323Y534476D01*
X517816Y535100D01*
D02*
G37*
G36*
X450816Y531600D02*
X449184D01*
X447677Y530976D01*
X446524Y529823D01*
X445900Y528316D01*
Y526684D01*
X446524Y525178D01*
X447677Y524024D01*
X449184Y523400D01*
X450816D01*
X452322Y524024D01*
X453476Y525178D01*
X454100Y526684D01*
Y528316D01*
X453476Y529823D01*
X452322Y530976D01*
X450816Y531600D01*
D02*
G37*
G36*
X677796Y531000D02*
X676204D01*
X674734Y530391D01*
X673609Y529266D01*
X673000Y527796D01*
Y526204D01*
X673609Y524734D01*
X674734Y523609D01*
X676204Y523000D01*
X677796D01*
X679266Y523609D01*
X680391Y524734D01*
X681000Y526204D01*
Y527796D01*
X680391Y529266D01*
X679266Y530391D01*
X677796Y531000D01*
D02*
G37*
G36*
X407816Y529100D02*
X406185D01*
X404678Y528476D01*
X403524Y527322D01*
X402900Y525816D01*
Y524184D01*
X403524Y522677D01*
X404678Y521524D01*
X406185Y520900D01*
X407816D01*
X409322Y521524D01*
X410476Y522677D01*
X411100Y524184D01*
Y525816D01*
X410476Y527322D01*
X409322Y528476D01*
X407816Y529100D01*
D02*
G37*
G36*
X746316Y528100D02*
X744685D01*
X743178Y527476D01*
X742024Y526322D01*
X741400Y524815D01*
Y523185D01*
X742024Y521678D01*
X743178Y520524D01*
X744685Y519900D01*
X746316D01*
X747822Y520524D01*
X748976Y521678D01*
X749600Y523185D01*
Y524815D01*
X748976Y526322D01*
X747822Y527476D01*
X746316Y528100D01*
D02*
G37*
G36*
X703566Y525600D02*
X701935D01*
X700428Y524976D01*
X699274Y523822D01*
X698650Y522315D01*
Y520685D01*
X699274Y519178D01*
X700428Y518024D01*
X701935Y517400D01*
X703566D01*
X705072Y518024D01*
X706226Y519178D01*
X706850Y520685D01*
Y522315D01*
X706226Y523822D01*
X705072Y524976D01*
X703566Y525600D01*
D02*
G37*
G36*
X527565Y519600D02*
X525934D01*
X524428Y518976D01*
X523274Y517822D01*
X522650Y516316D01*
Y515316D01*
X520641Y514130D01*
X519878Y513920D01*
X519323Y514476D01*
X517816Y515100D01*
X516185D01*
X514678Y514476D01*
X513524Y513322D01*
X512900Y511815D01*
Y510185D01*
X513524Y508677D01*
X514678Y507524D01*
X516185Y506900D01*
X517816D01*
X519323Y507524D01*
X520476Y508677D01*
X521100Y510185D01*
Y511184D01*
X523109Y512370D01*
X523872Y512580D01*
X524428Y512024D01*
X525934Y511400D01*
X527565D01*
X529072Y512024D01*
X530226Y513178D01*
X530850Y514684D01*
Y516316D01*
X530226Y517822D01*
X529072Y518976D01*
X527565Y519600D01*
D02*
G37*
G36*
X667796Y519000D02*
X666204D01*
X664734Y518391D01*
X663609Y517266D01*
X663000Y515796D01*
Y514204D01*
X663609Y512734D01*
X664734Y511609D01*
X666204Y511000D01*
X667796D01*
X669266Y511609D01*
X670391Y512734D01*
X671000Y514204D01*
Y515796D01*
X670391Y517266D01*
X669266Y518391D01*
X667796Y519000D01*
D02*
G37*
G36*
X691566Y515600D02*
X689934D01*
X688428Y514976D01*
X687274Y513822D01*
X686650Y512315D01*
Y510684D01*
X687274Y509178D01*
X688428Y508024D01*
X689934Y507400D01*
X691566D01*
X693073Y508024D01*
X694226Y509178D01*
X694850Y510684D01*
Y512315D01*
X694226Y513822D01*
X693073Y514976D01*
X691566Y515600D01*
D02*
G37*
G36*
X648816Y519100D02*
X647185D01*
X645678Y518476D01*
X644524Y517323D01*
X643900Y515816D01*
Y514184D01*
X644524Y512678D01*
X645678Y511524D01*
X647128Y510923D01*
X647185Y510900D01*
X649125Y510125D01*
X649900Y508185D01*
X649923Y508128D01*
X650524Y506678D01*
X651677Y505524D01*
X653184Y504900D01*
X654816D01*
X656322Y505524D01*
X657476Y506678D01*
X658100Y508185D01*
Y509815D01*
X657476Y511322D01*
X656322Y512476D01*
X654872Y513077D01*
X654816Y513100D01*
X652875Y513875D01*
X652100Y515816D01*
X652077Y515872D01*
X651476Y517323D01*
X650322Y518476D01*
X648816Y519100D01*
D02*
G37*
G36*
X422066Y511350D02*
X420434D01*
X418928Y510726D01*
X417774Y509572D01*
X417150Y508066D01*
Y506435D01*
X417774Y504928D01*
X418928Y503774D01*
X420434Y503150D01*
X422066D01*
X423573Y503774D01*
X424726Y504928D01*
X425350Y506435D01*
Y508066D01*
X424726Y509572D01*
X423573Y510726D01*
X422066Y511350D01*
D02*
G37*
G36*
X590000Y557039D02*
X580000D01*
X579220Y556884D01*
X578558Y556442D01*
X568558Y546442D01*
X538558Y516442D01*
X538116Y515780D01*
X537961Y515000D01*
Y484595D01*
X538101Y483890D01*
X537029Y482818D01*
X536405Y481311D01*
Y479680D01*
X537029Y478173D01*
X537906Y476495D01*
X537024Y474822D01*
X536400Y473316D01*
Y471684D01*
X537024Y470178D01*
X537903Y468500D01*
X537024Y466823D01*
X536400Y465316D01*
Y463685D01*
X537024Y462178D01*
X537903Y460500D01*
X537024Y458823D01*
X536400Y457315D01*
Y455685D01*
X537024Y454178D01*
X538178Y453024D01*
X539684Y452400D01*
X541316D01*
X542019Y452691D01*
X542207Y452409D01*
X553558Y441058D01*
X554220Y440616D01*
X555000Y440461D01*
X560891D01*
X561671Y440616D01*
X562332Y441058D01*
X562333Y441058D01*
X562713Y441627D01*
X562862Y441777D01*
X566138Y441777D01*
X566303Y441611D01*
X566485Y441490D01*
X566643Y441338D01*
X566813Y441271D01*
X566965Y441169D01*
X567179Y441126D01*
X567383Y441046D01*
X568138Y440910D01*
X568500Y440917D01*
X568862Y440910D01*
X569617Y441046D01*
X569821Y441126D01*
X570035Y441169D01*
X570187Y441271D01*
X570357Y441338D01*
X570515Y441490D01*
X570697Y441611D01*
X571333Y442247D01*
X571349Y442254D01*
X574113Y440664D01*
X574369Y439315D01*
X573204Y437559D01*
X572235Y436600D01*
X571684D01*
X570178Y435976D01*
X568500Y435097D01*
X566822Y435976D01*
X565316Y436600D01*
X563684D01*
X562178Y435976D01*
X561024Y434822D01*
X560400Y433316D01*
Y431684D01*
X561024Y430177D01*
X562178Y429024D01*
X563684Y428400D01*
X565316D01*
X566782Y429007D01*
X566881Y428966D01*
X568966Y426881D01*
X569007Y426782D01*
X568400Y425316D01*
Y423684D01*
X569024Y422178D01*
X569903Y420500D01*
X569024Y418823D01*
X568400Y417315D01*
Y415685D01*
X568794Y414734D01*
X568619Y414121D01*
X567858Y413436D01*
X567645Y413274D01*
X565847Y412380D01*
X565316Y412600D01*
X563684D01*
X562178Y411976D01*
X560486Y411218D01*
X559075Y412255D01*
X557568Y412879D01*
X555937D01*
X554430Y412255D01*
X552766Y411362D01*
X551073Y412226D01*
X549566Y412850D01*
X547934D01*
X546428Y412226D01*
X544253Y413988D01*
X544059Y414372D01*
X544605Y415689D01*
Y417320D01*
X543981Y418827D01*
X543102Y420505D01*
X543981Y422182D01*
X544605Y423689D01*
Y425320D01*
X543981Y426827D01*
X543097Y428500D01*
X543971Y430182D01*
X544595Y431689D01*
Y433320D01*
X543971Y434827D01*
X542818Y435981D01*
X541311Y436605D01*
X539680D01*
X538173Y435981D01*
X537019Y434827D01*
X536395Y433320D01*
Y431689D01*
X537019Y430182D01*
X537903Y428510D01*
X537029Y426827D01*
X536405Y425320D01*
Y423689D01*
X537029Y422182D01*
X537908Y420505D01*
X537029Y418827D01*
X536405Y417320D01*
Y415689D01*
X537029Y414182D01*
X538053Y412750D01*
X537274Y411073D01*
X536650Y409566D01*
Y407934D01*
X537274Y406428D01*
X538428Y405274D01*
X539935Y404650D01*
X541566D01*
X543072Y405274D01*
X544750Y406153D01*
X546428Y405274D01*
X547934Y404650D01*
X549566D01*
X550179Y404904D01*
X550215Y404880D01*
X552177Y402485D01*
X551900Y401816D01*
Y400185D01*
X552524Y398678D01*
X553678Y397524D01*
X555185Y396900D01*
X556815D01*
X557672Y397255D01*
X559804Y396330D01*
X560672Y395631D01*
Y393250D01*
X560672Y393250D01*
X560982Y391689D01*
X561866Y390366D01*
X568866Y383366D01*
X570189Y382482D01*
X571750Y382172D01*
X589568D01*
X592150Y380565D01*
Y378934D01*
X592774Y377427D01*
X593927Y376274D01*
X595434Y375650D01*
X597066D01*
X598572Y376274D01*
X599726Y377427D01*
X600350Y378934D01*
Y380565D01*
X602932Y382172D01*
X610482D01*
X612650Y379566D01*
Y377934D01*
X613274Y376428D01*
X614024Y374822D01*
X613400Y373316D01*
Y371684D01*
X614024Y370177D01*
X615178Y369024D01*
X616684Y368400D01*
X618316D01*
X619823Y369024D01*
X620976Y370177D01*
X621600Y371684D01*
Y373316D01*
X620976Y374822D01*
X620226Y376427D01*
X620850Y377934D01*
Y379566D01*
X623018Y382172D01*
X626000D01*
X626000Y382172D01*
X627561Y382482D01*
X628884Y383366D01*
X639384Y393866D01*
X640268Y395189D01*
X640578Y396750D01*
X640578Y396750D01*
Y407632D01*
X640600Y407685D01*
Y409315D01*
X639976Y410822D01*
X639097Y412500D01*
X639976Y414178D01*
X640600Y415684D01*
Y417315D01*
X639976Y418822D01*
X638822Y419976D01*
X637315Y420600D01*
X635685D01*
X634178Y419976D01*
X633024Y418822D01*
X632400Y417315D01*
Y415684D01*
X633010Y414212D01*
X632975Y414128D01*
X630862Y412015D01*
X630787Y411984D01*
X629311Y412595D01*
X627680D01*
X626173Y411971D01*
X624490Y411099D01*
X622822Y411986D01*
X621315Y412610D01*
X619684D01*
X618177Y411986D01*
X617024Y410832D01*
X616400Y409325D01*
Y407694D01*
X617024Y406187D01*
X618177Y405034D01*
X619684Y404410D01*
X621315D01*
X622822Y405034D01*
X624505Y405906D01*
X626173Y405019D01*
X627680Y404395D01*
X629311D01*
X629422Y404441D01*
X632399Y402717D01*
X632422Y402684D01*
Y398439D01*
X624311Y390328D01*
X573439D01*
X568828Y394939D01*
Y402454D01*
X571684Y404400D01*
X573316D01*
X574822Y405024D01*
X575040Y405242D01*
X576457Y406061D01*
X578678Y405524D01*
X580185Y404900D01*
X581815D01*
X583322Y405524D01*
X584476Y406678D01*
X585100Y408185D01*
Y409815D01*
X584476Y411322D01*
X583332Y412500D01*
X583976Y414178D01*
X584600Y415685D01*
Y417315D01*
X585031Y417961D01*
X591969D01*
X592400Y417315D01*
Y415685D01*
X593024Y414178D01*
X593668Y412500D01*
X592524Y411322D01*
X591900Y409815D01*
Y408185D01*
X592524Y406678D01*
X593678Y405524D01*
X595185Y404900D01*
X596815D01*
X598088Y405427D01*
X598299Y405514D01*
X598444Y405550D01*
X599143Y405697D01*
X601145Y403053D01*
X601024Y402822D01*
X600400Y401316D01*
Y399684D01*
X601024Y398178D01*
X602178Y397024D01*
X603685Y396400D01*
X605316D01*
X606823Y397024D01*
X607976Y398178D01*
X608600Y399684D01*
Y401316D01*
X607976Y402822D01*
X607097Y404500D01*
X607976Y406177D01*
X608600Y407685D01*
Y409315D01*
X607976Y410822D01*
X606823Y411976D01*
X605316Y412600D01*
X603685D01*
X602412Y412073D01*
X602201Y411986D01*
X602056Y411950D01*
X601979Y411934D01*
X600915Y413126D01*
X600158Y414616D01*
X600600Y415685D01*
Y417315D01*
X601031Y417961D01*
X605000D01*
X605000Y417961D01*
X605780Y418116D01*
X606442Y418558D01*
X608942Y421058D01*
X609384Y421720D01*
X609539Y422500D01*
Y427500D01*
X609384Y428280D01*
X608942Y428942D01*
X607841Y430043D01*
X607976Y430177D01*
X608600Y431684D01*
Y433316D01*
X607976Y434822D01*
X607097Y436500D01*
X607976Y438178D01*
X608600Y439684D01*
Y441316D01*
X607976Y442822D01*
X606986Y444375D01*
X607726Y446177D01*
X608350Y447684D01*
Y449315D01*
X607726Y450822D01*
X606986Y452625D01*
X607976Y454178D01*
X608600Y455684D01*
Y457315D01*
X607990Y458788D01*
X608025Y458872D01*
X610138Y460985D01*
X610213Y461016D01*
X611689Y460405D01*
X613320D01*
X614827Y461029D01*
X615981Y462182D01*
X616605Y463689D01*
Y465320D01*
X615981Y466827D01*
X614827Y467981D01*
X613320Y468605D01*
X611689D01*
X610182Y467981D01*
X608505Y467100D01*
X606822Y467976D01*
X605316Y468600D01*
X603684D01*
X602569Y468138D01*
X601427Y468720D01*
X600377Y471146D01*
X600600Y471684D01*
Y473316D01*
X599976Y474822D01*
X598822Y475976D01*
X597315Y476600D01*
X595684D01*
X594178Y475976D01*
X590631Y476288D01*
X587033Y479886D01*
Y482045D01*
X586723Y483606D01*
X585839Y484929D01*
X585839Y484929D01*
X578006Y492761D01*
X578081Y494391D01*
X578843Y496043D01*
X578882Y496058D01*
X579031Y496205D01*
X579206Y496322D01*
X581442Y498558D01*
X581442Y498558D01*
X589822Y506938D01*
X592271Y505389D01*
X592395Y505269D01*
Y503680D01*
X593019Y502173D01*
X594173Y501019D01*
X595680Y500395D01*
X597311D01*
X598817Y501019D01*
X600495Y501900D01*
X602178Y501024D01*
X603685Y500400D01*
X605316D01*
X606822Y501024D01*
X608500Y501905D01*
X610182Y501029D01*
X611689Y500405D01*
X613320D01*
X614827Y501029D01*
X615981Y502182D01*
X616605Y503689D01*
Y505320D01*
X615981Y506827D01*
X614827Y507981D01*
X613320Y508605D01*
X611689D01*
X610182Y507981D01*
X608505Y507100D01*
X606823Y507976D01*
X605709Y508437D01*
X605340Y509869D01*
X605374Y511576D01*
X606476Y512678D01*
X607100Y514184D01*
Y515816D01*
X606476Y517323D01*
X605322Y518476D01*
X603815Y519100D01*
X602184D01*
X600678Y518476D01*
X599892Y518064D01*
X598528Y518559D01*
X597039Y519573D01*
X597039Y550000D01*
X597039Y550000D01*
X596884Y550780D01*
X596442Y551442D01*
X596442Y551442D01*
X591442Y556442D01*
X591442Y556442D01*
X590780Y556884D01*
X590000Y557039D01*
D02*
G37*
G36*
X879816Y506100D02*
X878185D01*
X876678Y505476D01*
X875524Y504323D01*
X874900Y502816D01*
Y501185D01*
X875524Y499678D01*
X876678Y498524D01*
X878185Y497900D01*
X879816D01*
X881322Y498524D01*
X882476Y499678D01*
X883100Y501185D01*
Y502816D01*
X882476Y504323D01*
X881322Y505476D01*
X879816Y506100D01*
D02*
G37*
G36*
X456065Y512850D02*
X454434D01*
X452928Y512226D01*
X451774Y511073D01*
X451150Y509566D01*
Y507934D01*
X451774Y506428D01*
X452928Y505274D01*
X454434Y504650D01*
X456065D01*
X456149Y504685D01*
X457619Y503223D01*
X458147Y502265D01*
X457650Y501065D01*
Y499435D01*
X458274Y497928D01*
X459428Y496774D01*
X460934Y496150D01*
X462565D01*
X464072Y496774D01*
X465226Y497928D01*
X465850Y499435D01*
Y501065D01*
X465226Y502573D01*
X464072Y503726D01*
X462565Y504350D01*
X460934D01*
X460851Y504315D01*
X459381Y505777D01*
X458853Y506735D01*
X459350Y507934D01*
Y509566D01*
X458726Y511073D01*
X457572Y512226D01*
X456065Y512850D01*
D02*
G37*
G36*
X677796Y503000D02*
X676204D01*
X674734Y502391D01*
X673609Y501266D01*
X673000Y499796D01*
Y498204D01*
X673609Y496734D01*
X674734Y495609D01*
X676204Y495000D01*
X677796D01*
X679266Y495609D01*
X680391Y496734D01*
X681000Y498204D01*
Y499796D01*
X680391Y501266D01*
X679266Y502391D01*
X677796Y503000D01*
D02*
G37*
G36*
X878816Y493100D02*
X877185D01*
X875678Y492476D01*
X874524Y491323D01*
X873900Y489816D01*
Y488185D01*
X874524Y486678D01*
X875678Y485524D01*
X877185Y484900D01*
X878816D01*
X880322Y485524D01*
X881476Y486678D01*
X882100Y488185D01*
Y489816D01*
X881476Y491323D01*
X880322Y492476D01*
X878816Y493100D01*
D02*
G37*
G36*
X687796Y491000D02*
X686204D01*
X684734Y490391D01*
X683609Y489266D01*
X683000Y487796D01*
Y486204D01*
X683609Y484734D01*
X684734Y483609D01*
X686204Y483000D01*
X687796D01*
X689266Y483609D01*
X690391Y484734D01*
X691000Y486204D01*
Y487796D01*
X690391Y489266D01*
X689266Y490391D01*
X687796Y491000D01*
D02*
G37*
G36*
X465565Y477850D02*
X463935D01*
X462427Y477226D01*
X461274Y476073D01*
X460650Y474566D01*
Y472934D01*
X461274Y471428D01*
X462427Y470274D01*
X463935Y469650D01*
X465565D01*
X467072Y470274D01*
X468226Y471428D01*
X468850Y472934D01*
Y474566D01*
X468226Y476073D01*
X467072Y477226D01*
X465565Y477850D01*
D02*
G37*
G36*
X880816Y462100D02*
X879184D01*
X877678Y461476D01*
X876524Y460322D01*
X875900Y458815D01*
Y457184D01*
X876524Y455677D01*
X877678Y454524D01*
X879184Y453900D01*
X880816D01*
X882322Y454524D01*
X883476Y455677D01*
X884100Y457184D01*
Y458815D01*
X883476Y460322D01*
X882322Y461476D01*
X880816Y462100D01*
D02*
G37*
G36*
X654816Y494100D02*
X653184D01*
X651677Y493476D01*
X650524Y492323D01*
X649900Y490816D01*
Y489184D01*
X650524Y487678D01*
X651677Y486524D01*
X653128Y485923D01*
X653184Y485900D01*
X654315Y485448D01*
X655246Y482681D01*
X653682Y481478D01*
X653678Y481476D01*
X652524Y480322D01*
X651900Y478816D01*
Y477184D01*
X652524Y475678D01*
X653678Y474524D01*
X653938Y474417D01*
X654272Y473088D01*
X654330Y471128D01*
X653524Y470322D01*
X652900Y468815D01*
Y467184D01*
X653524Y465678D01*
X654678Y464524D01*
X656184Y463900D01*
X656185D01*
X657820Y463820D01*
X657900Y462184D01*
X658412Y460949D01*
X658524Y460677D01*
X658570Y460618D01*
X658699Y460435D01*
X657887Y457264D01*
X657535Y457100D01*
X656184Y457100D01*
X654678Y456476D01*
X653524Y455322D01*
X652900Y453816D01*
Y452184D01*
X653524Y450678D01*
X654678Y449524D01*
X656184Y448900D01*
X657815D01*
X659323Y449524D01*
X660476Y450678D01*
X661100Y452184D01*
Y453816D01*
X660588Y455051D01*
X660476Y455322D01*
X660430Y455382D01*
X660301Y455565D01*
X661113Y458736D01*
X661465Y458900D01*
X662815Y458900D01*
X664322Y459524D01*
X665476Y460677D01*
X666100Y462184D01*
Y463815D01*
X665476Y465322D01*
X664323Y466476D01*
Y469524D01*
X665476Y470677D01*
X666100Y472184D01*
Y473815D01*
X665476Y475322D01*
X664322Y476476D01*
X662815Y477100D01*
X661903Y477128D01*
X661408Y480145D01*
X662322Y480524D01*
X663476Y481678D01*
X664100Y483185D01*
Y483624D01*
X665804Y485547D01*
X666857Y486000D01*
X667796D01*
X669266Y486609D01*
X670391Y487734D01*
X671000Y489204D01*
Y490796D01*
X670391Y492266D01*
X669266Y493391D01*
X667796Y494000D01*
X666204D01*
X664734Y493391D01*
X663609Y492266D01*
X663000Y490796D01*
X660515Y489200D01*
X658606Y489548D01*
X658100Y490816D01*
X658077Y490872D01*
X657476Y492323D01*
X656322Y493476D01*
X654816Y494100D01*
D02*
G37*
G36*
X515816Y457100D02*
X514184D01*
X512678Y456476D01*
X511524Y455322D01*
X510900Y453816D01*
Y452184D01*
X511524Y450678D01*
X512678Y449524D01*
X514184Y448900D01*
X515816D01*
X517323Y449524D01*
X518476Y450678D01*
X519100Y452184D01*
Y453816D01*
X518476Y455322D01*
X517323Y456476D01*
X515816Y457100D01*
D02*
G37*
G36*
X465816Y451100D02*
X464184D01*
X462678Y450476D01*
X461524Y449322D01*
X460900Y447816D01*
Y446185D01*
X461524Y444678D01*
X462678Y443524D01*
X464184Y442900D01*
X465816D01*
X467323Y443524D01*
X468476Y444678D01*
X469100Y446185D01*
Y447816D01*
X468476Y449322D01*
X467323Y450476D01*
X465816Y451100D01*
D02*
G37*
G36*
X663796Y446000D02*
X662204D01*
X660734Y445391D01*
X659609Y444266D01*
X659000Y442796D01*
Y441204D01*
X659609Y439734D01*
X660734Y438609D01*
X662204Y438000D01*
X663796D01*
X665266Y438609D01*
X666391Y439734D01*
X667000Y441204D01*
Y442796D01*
X666391Y444266D01*
X665266Y445391D01*
X663796Y446000D01*
D02*
G37*
G36*
X687796Y445000D02*
X686204D01*
X684734Y444391D01*
X683609Y443266D01*
X683000Y441796D01*
Y440204D01*
X683609Y438734D01*
X684734Y437609D01*
X686204Y437000D01*
X687796D01*
X689266Y437609D01*
X690391Y438734D01*
X691000Y440204D01*
Y441796D01*
X690391Y443266D01*
X689266Y444391D01*
X687796Y445000D01*
D02*
G37*
G36*
X637311Y476605D02*
X635680D01*
X634173Y475981D01*
X633019Y474827D01*
X632395Y473320D01*
Y471689D01*
X633019Y470182D01*
X633900Y468505D01*
X633024Y466823D01*
X632400Y465316D01*
Y463685D01*
X633024Y462178D01*
X633902Y460495D01*
X633024Y458813D01*
X632400Y457306D01*
Y455675D01*
X633024Y454168D01*
X633903Y452490D01*
X633024Y450813D01*
X632400Y449306D01*
Y447675D01*
X633024Y446168D01*
X634178Y445014D01*
X635684Y444390D01*
X637315D01*
X638774Y444995D01*
X638894Y444943D01*
X640960Y442896D01*
X641009Y442779D01*
X640405Y441320D01*
Y439689D01*
X641029Y438182D01*
X642182Y437029D01*
X643689Y436405D01*
X645320D01*
X646827Y437029D01*
X647981Y438182D01*
X648605Y439689D01*
Y441320D01*
X647981Y442827D01*
X647097Y444500D01*
X647971Y446182D01*
X648595Y447689D01*
Y449320D01*
X647971Y450827D01*
X646818Y451981D01*
X645311Y452605D01*
X643680D01*
X642229Y452004D01*
X642089Y452064D01*
X640055Y454089D01*
X639998Y454222D01*
X640600Y455675D01*
Y457306D01*
X639976Y458813D01*
X639098Y460495D01*
X639976Y462178D01*
X640600Y463685D01*
Y465316D01*
X639976Y466822D01*
X639095Y468500D01*
X639971Y470182D01*
X640595Y471689D01*
Y473320D01*
X639971Y474827D01*
X638818Y475981D01*
X637311Y476605D01*
D02*
G37*
G36*
X491816Y441100D02*
X490185D01*
X488678Y440476D01*
X487524Y439322D01*
X486900Y437816D01*
Y436184D01*
X487524Y434678D01*
X488678Y433524D01*
X490185Y432900D01*
X491816D01*
X493322Y433524D01*
X494476Y434678D01*
X495100Y436184D01*
Y437816D01*
X494476Y439322D01*
X493322Y440476D01*
X491816Y441100D01*
D02*
G37*
G36*
X502816Y448100D02*
X501185D01*
X499678Y447476D01*
X498524Y446322D01*
X497900Y444815D01*
Y443185D01*
X498524Y441678D01*
X499678Y440524D01*
X501185Y439900D01*
X502900Y439184D01*
X503524Y437677D01*
X504678Y436524D01*
X506185Y435900D01*
X507900Y435184D01*
X508524Y433677D01*
X509678Y432524D01*
X511184Y431900D01*
X512816D01*
X514322Y432524D01*
X515476Y433677D01*
X516100Y435184D01*
Y436815D01*
X515476Y438322D01*
X514322Y439476D01*
X512816Y440100D01*
X511100Y440816D01*
X510476Y442323D01*
X509323Y443476D01*
X507816Y444100D01*
X506100Y444816D01*
X505476Y446323D01*
X504323Y447476D01*
X502816Y448100D01*
D02*
G37*
G36*
X637325Y436600D02*
X635694D01*
X634187Y435976D01*
X633034Y434822D01*
X632410Y433316D01*
Y431684D01*
X633034Y430177D01*
X634187Y429024D01*
X635694Y428400D01*
X637325D01*
X638832Y429024D01*
X639986Y430177D01*
X640610Y431684D01*
Y433316D01*
X639986Y434822D01*
X638832Y435976D01*
X637325Y436600D01*
D02*
G37*
G36*
X677796Y434000D02*
X676204D01*
X674734Y433391D01*
X673609Y432266D01*
X673000Y430796D01*
Y429204D01*
X673609Y427734D01*
X674734Y426609D01*
X676204Y426000D01*
X677796D01*
X679266Y426609D01*
X680391Y427734D01*
X681000Y429204D01*
Y430796D01*
X680391Y432266D01*
X679266Y433391D01*
X677796Y434000D01*
D02*
G37*
G36*
X645315Y428610D02*
X643684D01*
X642178Y427985D01*
X641024Y426832D01*
X640400Y425325D01*
Y423694D01*
X641024Y422187D01*
X642178Y421034D01*
X643684Y420410D01*
X645315D01*
X646822Y421034D01*
X647976Y422187D01*
X648600Y423694D01*
Y425325D01*
X647976Y426832D01*
X646822Y427985D01*
X645315Y428610D01*
D02*
G37*
G36*
X464816Y428100D02*
X463185D01*
X461678Y427476D01*
X460524Y426322D01*
X459900Y424815D01*
Y423184D01*
X460524Y421678D01*
X461678Y420524D01*
X463185Y419900D01*
X464816D01*
X466323Y420524D01*
X467476Y421678D01*
X468100Y423184D01*
Y424815D01*
X467476Y426322D01*
X466323Y427476D01*
X464816Y428100D01*
D02*
G37*
G36*
X657796Y427000D02*
X656204D01*
X654734Y426391D01*
X653609Y425266D01*
X653000Y423796D01*
Y422204D01*
X653609Y420734D01*
X654734Y419609D01*
X656204Y419000D01*
X657796D01*
X659266Y419609D01*
X660391Y420734D01*
X661000Y422204D01*
Y423796D01*
X660391Y425266D01*
X659266Y426391D01*
X657796Y427000D01*
D02*
G37*
G36*
X476815Y423100D02*
X475184D01*
X473677Y422476D01*
X472524Y421322D01*
X471900Y419815D01*
Y418185D01*
X472524Y416678D01*
X473677Y415524D01*
X475184Y414900D01*
X476815D01*
X478322Y415524D01*
X479476Y416678D01*
X480100Y418185D01*
Y419815D01*
X479476Y421322D01*
X478322Y422476D01*
X476815Y423100D01*
D02*
G37*
G36*
X451566Y420600D02*
X449935D01*
X448428Y419976D01*
X447274Y418823D01*
X446650Y417315D01*
Y415685D01*
X447274Y414178D01*
X448428Y413024D01*
X449935Y412400D01*
X451566D01*
X453073Y413024D01*
X454226Y414178D01*
X454850Y415685D01*
Y417315D01*
X454226Y418823D01*
X453073Y419976D01*
X451566Y420600D01*
D02*
G37*
G36*
X678796Y419000D02*
X677204D01*
X675734Y418391D01*
X674609Y417266D01*
X674000Y415796D01*
Y414204D01*
X674609Y412734D01*
X675734Y411609D01*
X677204Y411000D01*
X678796D01*
X680266Y411609D01*
X681391Y412734D01*
X682000Y414204D01*
Y415796D01*
X681391Y417266D01*
X680266Y418391D01*
X678796Y419000D01*
D02*
G37*
G36*
X883316Y419100D02*
X881684D01*
X880178Y418476D01*
X879024Y417323D01*
X878400Y415816D01*
Y414184D01*
X879024Y412678D01*
X880178Y411524D01*
X881684Y410900D01*
X883316D01*
X884822Y411524D01*
X885976Y412678D01*
X886600Y414184D01*
Y415816D01*
X885976Y417323D01*
X884822Y418476D01*
X883316Y419100D01*
D02*
G37*
G36*
X661796Y415000D02*
X660204D01*
X658734Y414391D01*
X657609Y413266D01*
X657000Y411796D01*
Y410204D01*
X657609Y408734D01*
X658734Y407609D01*
X660204Y407000D01*
X661796D01*
X663266Y407609D01*
X664391Y408734D01*
X665000Y410204D01*
Y411796D01*
X664391Y413266D01*
X663266Y414391D01*
X661796Y415000D01*
D02*
G37*
G36*
X490816Y411100D02*
X489184D01*
X487678Y410476D01*
X486524Y409322D01*
X485902Y407821D01*
X485897Y407814D01*
X482960Y406040D01*
X482816Y406100D01*
X481185D01*
X479678Y405476D01*
X478524Y404323D01*
X477900Y402816D01*
Y401185D01*
X478524Y399678D01*
X479678Y398524D01*
X481185Y397900D01*
X482816D01*
X484323Y398524D01*
X485476Y399678D01*
X486098Y401179D01*
X486102Y401186D01*
X489040Y402960D01*
X489184Y402900D01*
X490816D01*
X492323Y403524D01*
X493476Y404678D01*
X494100Y406185D01*
Y407816D01*
X493476Y409322D01*
X492323Y410476D01*
X490816Y411100D01*
D02*
G37*
G36*
X458815Y410100D02*
X457184D01*
X455677Y409476D01*
X454524Y408322D01*
X453900Y406815D01*
Y405185D01*
X454524Y403678D01*
X455677Y402524D01*
X457184Y401900D01*
X458815D01*
X460322Y402524D01*
X461476Y403678D01*
X462100Y405185D01*
Y406815D01*
X461476Y408322D01*
X460322Y409476D01*
X458815Y410100D01*
D02*
G37*
G36*
X512816Y400100D02*
X511184D01*
X509678Y399476D01*
X509000Y398798D01*
X508322Y399476D01*
X506815Y400100D01*
X505185D01*
X503678Y399476D01*
X503000Y398798D01*
X502322Y399476D01*
X500816Y400100D01*
X499184D01*
X497677Y399476D01*
X496524Y398322D01*
X495900Y396815D01*
Y395185D01*
X496524Y393677D01*
X497677Y392524D01*
X499184Y391900D01*
X500816D01*
X502322Y392524D01*
X503000Y393202D01*
X503678Y392524D01*
X505185Y391900D01*
X506815D01*
X508322Y392524D01*
X509000Y393202D01*
X509678Y392524D01*
X511184Y391900D01*
X512816D01*
X514322Y392524D01*
X515476Y393677D01*
X516100Y395185D01*
Y396815D01*
X515476Y398322D01*
X514322Y399476D01*
X512816Y400100D01*
D02*
G37*
G36*
X589320Y404595D02*
X587689D01*
X586182Y403971D01*
X585029Y402818D01*
X584405Y401311D01*
Y399680D01*
X585029Y398173D01*
X586182Y397019D01*
X587689Y396395D01*
X589320D01*
X590827Y397019D01*
X591981Y398173D01*
X592605Y399680D01*
Y401311D01*
X591981Y402818D01*
X590827Y403971D01*
X589320Y404595D01*
D02*
G37*
G36*
X451065Y401350D02*
X449435D01*
X447928Y400726D01*
X446774Y399572D01*
X446150Y398065D01*
Y396435D01*
X446774Y394928D01*
X447928Y393774D01*
X449435Y393150D01*
X451065D01*
X452573Y393774D01*
X453726Y394928D01*
X454350Y396435D01*
Y398065D01*
X453726Y399572D01*
X452573Y400726D01*
X451065Y401350D01*
D02*
G37*
G36*
X880816Y399100D02*
X879184D01*
X877678Y398476D01*
X876524Y397322D01*
X875900Y395816D01*
Y394184D01*
X876524Y392677D01*
X877678Y391524D01*
X879184Y390900D01*
X880816D01*
X882322Y391524D01*
X883476Y392677D01*
X884100Y394184D01*
Y395816D01*
X883476Y397322D01*
X882322Y398476D01*
X880816Y399100D01*
D02*
G37*
G36*
X657316Y392350D02*
X655685D01*
X654178Y391726D01*
X653024Y390572D01*
X652400Y389066D01*
Y387435D01*
X653024Y385928D01*
X654178Y384774D01*
X655685Y384150D01*
X657316D01*
X658822Y384774D01*
X659976Y385928D01*
X660600Y387435D01*
Y389066D01*
X659976Y390572D01*
X658822Y391726D01*
X657316Y392350D01*
D02*
G37*
G36*
X458815Y389100D02*
X457184D01*
X455677Y388476D01*
X454524Y387322D01*
X453900Y385816D01*
Y384184D01*
X454524Y382677D01*
X455677Y381524D01*
X457184Y380900D01*
X458815D01*
X460322Y381524D01*
X461476Y382677D01*
X462100Y384184D01*
Y385816D01*
X461476Y387322D01*
X460322Y388476D01*
X458815Y389100D01*
D02*
G37*
G36*
X522566Y392600D02*
X520934D01*
X519428Y391976D01*
X518274Y390822D01*
X517650Y389316D01*
Y387685D01*
X518274Y386178D01*
X519428Y385024D01*
X520934Y384400D01*
X521650Y382816D01*
Y381185D01*
X522274Y379678D01*
X523428Y378524D01*
X524935Y377900D01*
X526566D01*
X528073Y378524D01*
X529226Y379678D01*
X529850Y381185D01*
Y382816D01*
X529226Y384322D01*
X528073Y385476D01*
X526566Y386100D01*
X525850Y387685D01*
Y389316D01*
X525226Y390822D01*
X524072Y391976D01*
X522566Y392600D01*
D02*
G37*
G36*
X561066Y385600D02*
X559435D01*
X557928Y384976D01*
X556774Y383822D01*
X556150Y382315D01*
Y380685D01*
X556774Y379178D01*
X557928Y378024D01*
X559435Y377400D01*
X561066D01*
X562573Y378024D01*
X563726Y379178D01*
X564350Y380685D01*
Y382315D01*
X563726Y383822D01*
X562573Y384976D01*
X561066Y385600D01*
D02*
G37*
G36*
X639815Y374100D02*
X638184D01*
X636678Y373476D01*
X635750Y372548D01*
X634823Y373476D01*
X633316Y374100D01*
X631684D01*
X630178Y373476D01*
X629024Y372322D01*
X628400Y370816D01*
Y369184D01*
X629024Y367677D01*
X630178Y366524D01*
X631684Y365900D01*
X633316D01*
X634823Y366524D01*
X635750Y367452D01*
X636678Y366524D01*
X638184Y365900D01*
X639815D01*
X641322Y366524D01*
X642476Y367677D01*
X643100Y369184D01*
Y370816D01*
X642476Y372322D01*
X641322Y373476D01*
X639815Y374100D01*
D02*
G37*
G36*
X707816Y377100D02*
X706184D01*
X704678Y376476D01*
X703524Y375322D01*
X702900Y373815D01*
Y372184D01*
X703524Y370677D01*
X704678Y369524D01*
X706184Y368900D01*
X707816D01*
X709323Y369524D01*
X710476Y370677D01*
X711100Y372184D01*
Y373815D01*
X710476Y375322D01*
X709323Y376476D01*
X707816Y377100D01*
D02*
G37*
G36*
X589815Y369100D02*
X588184D01*
X586678Y368476D01*
X585524Y367323D01*
X584900Y365816D01*
Y364184D01*
X585524Y362678D01*
X586678Y361524D01*
X588184Y360900D01*
X589815D01*
X591322Y361524D01*
X592476Y362678D01*
X593100Y364184D01*
Y365816D01*
X592476Y367323D01*
X591322Y368476D01*
X589815Y369100D01*
D02*
G37*
G36*
X556815Y366100D02*
X555185D01*
X553678Y365476D01*
X552524Y364323D01*
X551900Y362816D01*
Y361185D01*
X552524Y359678D01*
X553678Y358524D01*
X555185Y357900D01*
X556815D01*
X558322Y358524D01*
X559476Y359678D01*
X560100Y361185D01*
Y362816D01*
X559476Y364323D01*
X558322Y365476D01*
X556815Y366100D01*
D02*
G37*
G36*
X406566Y363600D02*
X404935D01*
X403428Y362976D01*
X402274Y361822D01*
X401650Y360316D01*
Y358684D01*
X402274Y357178D01*
X403428Y356024D01*
X404935Y355400D01*
X406566D01*
X408073Y356024D01*
X409226Y357178D01*
X409850Y358684D01*
Y360316D01*
X409226Y361822D01*
X408073Y362976D01*
X406566Y363600D01*
D02*
G37*
G36*
X718816Y362100D02*
X717185D01*
X715678Y361476D01*
X714524Y360322D01*
X713900Y358815D01*
Y357184D01*
X714524Y355677D01*
X715678Y354524D01*
X717185Y353900D01*
X718816D01*
X720322Y354524D01*
X721476Y355677D01*
X722100Y357184D01*
Y358815D01*
X721476Y360322D01*
X720322Y361476D01*
X718816Y362100D01*
D02*
G37*
G36*
X605816Y364100D02*
X604184D01*
X602678Y363476D01*
X601524Y362322D01*
X600900Y360816D01*
Y359184D01*
X601524Y357677D01*
X601830Y357372D01*
X602378Y355500D01*
X601830Y353628D01*
X601524Y353322D01*
X600900Y351816D01*
Y350185D01*
X601524Y348678D01*
X600677Y346476D01*
X599524Y345322D01*
X598900Y343815D01*
Y342184D01*
X599524Y340678D01*
X600677Y339524D01*
X602184Y338900D01*
X603815D01*
X605322Y339524D01*
X606476Y340678D01*
X607100Y342184D01*
Y343815D01*
X606476Y345322D01*
X607323Y347524D01*
X608476Y348678D01*
X609100Y350185D01*
Y350895D01*
X609100Y351182D01*
X609516Y351438D01*
X611898Y352304D01*
X612142Y352059D01*
X612677Y351524D01*
X614184Y350900D01*
X615816D01*
X617322Y351524D01*
X618476Y352678D01*
X619100Y354184D01*
Y355816D01*
X618476Y357323D01*
X617322Y358476D01*
X615816Y359100D01*
X614184D01*
X612949Y358588D01*
X612677Y358476D01*
X612450Y358298D01*
X609119Y359150D01*
X609100Y359184D01*
X609100Y360816D01*
X608476Y362322D01*
X607323Y363476D01*
X605816Y364100D01*
D02*
G37*
G36*
X731816Y357100D02*
X730184D01*
X728678Y356476D01*
X727524Y355322D01*
X726900Y353815D01*
Y352184D01*
X727524Y350678D01*
X728678Y349524D01*
X730184Y348900D01*
X731816D01*
X733323Y349524D01*
X734476Y350678D01*
X735100Y352184D01*
Y353815D01*
X734476Y355322D01*
X733323Y356476D01*
X731816Y357100D01*
D02*
G37*
G36*
X449815Y374100D02*
X448184D01*
X446678Y373476D01*
X445524Y372322D01*
X444900Y370816D01*
Y369184D01*
X445524Y367677D01*
X445830Y367372D01*
X446378Y365500D01*
X445830Y363628D01*
X445524Y363322D01*
X444900Y361815D01*
Y360184D01*
X445524Y358677D01*
X445830Y358372D01*
X446378Y356500D01*
X445830Y354628D01*
X445524Y354323D01*
X444900Y352816D01*
Y351185D01*
X445524Y349678D01*
X446678Y348524D01*
X448184Y347900D01*
X449815D01*
X451322Y348524D01*
X452476Y349678D01*
X453100Y351185D01*
Y352668D01*
X453185Y352725D01*
X454815D01*
X456323Y353349D01*
X457476Y354502D01*
X458100Y356009D01*
Y357640D01*
X457476Y359147D01*
X457046Y359577D01*
X456595Y361413D01*
X457046Y363248D01*
X457476Y363678D01*
X458100Y365185D01*
Y366815D01*
X457476Y368322D01*
X456323Y369476D01*
X454815Y370100D01*
X453185D01*
X453100Y370157D01*
Y370816D01*
X452476Y372322D01*
X451322Y373476D01*
X449815Y374100D01*
D02*
G37*
G36*
X560816Y348100D02*
X559184D01*
X557677Y347476D01*
X556524Y346322D01*
X555900Y344815D01*
Y343185D01*
X556524Y341678D01*
X557677Y340524D01*
X559184Y339900D01*
X560816D01*
X562322Y340524D01*
X563476Y341678D01*
X564100Y343185D01*
Y344815D01*
X563476Y346322D01*
X562322Y347476D01*
X560816Y348100D01*
D02*
G37*
G36*
X638815Y342100D02*
X637184D01*
X635677Y341476D01*
X634524Y340322D01*
X633900Y338816D01*
X631100D01*
X630476Y340322D01*
X629322Y341476D01*
X627816Y342100D01*
X626184D01*
X624678Y341476D01*
X623524Y340322D01*
X622900Y338816D01*
Y337184D01*
X623524Y335678D01*
X624678Y334524D01*
X626184Y333900D01*
X627816D01*
X629322Y334524D01*
X630476Y335678D01*
X631100Y337184D01*
X633900D01*
X634524Y335678D01*
X635677Y334524D01*
X637184Y333900D01*
X638815D01*
X640322Y334524D01*
X641476Y335678D01*
X642100Y337184D01*
Y338816D01*
X641476Y340322D01*
X640322Y341476D01*
X638815Y342100D01*
D02*
G37*
G36*
X649816Y345100D02*
X648185D01*
X646677Y344476D01*
X645524Y343322D01*
X644900Y341815D01*
Y340185D01*
X645524Y338678D01*
X646677Y337524D01*
X648185Y336900D01*
X649816D01*
X651322Y337524D01*
X652476Y338678D01*
X653100Y340185D01*
Y341815D01*
X652476Y343322D01*
X651322Y344476D01*
X649816Y345100D01*
D02*
G37*
G36*
X565816Y332100D02*
X564184D01*
X562677Y331476D01*
X561524Y330322D01*
X560900Y328815D01*
Y327184D01*
X561524Y325678D01*
X562677Y324524D01*
X564184Y323900D01*
X565816D01*
X567322Y324524D01*
X568476Y325678D01*
X569100Y327184D01*
Y328815D01*
X568476Y330322D01*
X567322Y331476D01*
X565816Y332100D01*
D02*
G37*
G36*
X545816Y329100D02*
X544184D01*
X542678Y328476D01*
X541524Y327323D01*
X540900Y325816D01*
Y324184D01*
X541524Y322678D01*
X542678Y321524D01*
X544184Y320900D01*
X545816D01*
X547323Y321524D01*
X548476Y322678D01*
X549100Y324184D01*
Y325816D01*
X548476Y327323D01*
X547323Y328476D01*
X545816Y329100D01*
D02*
G37*
G36*
X501815D02*
X500184D01*
X498677Y328476D01*
X497524Y327323D01*
X496900Y325816D01*
Y324184D01*
X497524Y322678D01*
X498677Y321524D01*
X500184Y320900D01*
X501815D01*
X503322Y321524D01*
X504476Y322678D01*
X505100Y324184D01*
Y325816D01*
X504476Y327323D01*
X503322Y328476D01*
X501815Y329100D01*
D02*
G37*
G36*
X469815Y328100D02*
X468185D01*
X466678Y327476D01*
X465524Y326323D01*
X464900Y324816D01*
Y323185D01*
X465524Y321678D01*
X466678Y320524D01*
X468185Y319900D01*
X469815D01*
X471323Y320524D01*
X472476Y321678D01*
X473100Y323185D01*
Y324816D01*
X472476Y326323D01*
X471323Y327476D01*
X469815Y328100D01*
D02*
G37*
G36*
X440816D02*
X439184D01*
X437678Y327476D01*
X436524Y326323D01*
X435900Y324816D01*
Y323185D01*
X436524Y321678D01*
X437678Y320524D01*
X439184Y319900D01*
X440816D01*
X442323Y320524D01*
X443476Y321678D01*
X444100Y323185D01*
Y324816D01*
X443476Y326323D01*
X442323Y327476D01*
X440816Y328100D01*
D02*
G37*
G36*
X778500Y317165D02*
X777333Y316853D01*
X776976Y316646D01*
X777308Y316444D01*
X777888Y316150D01*
X778477Y315911D01*
X778500Y315904D01*
Y317165D01*
D02*
G37*
G36*
X594815Y321100D02*
X593185D01*
X591678Y320476D01*
X590524Y319322D01*
X589900Y317815D01*
Y316185D01*
X590524Y314678D01*
X591678Y313524D01*
X593185Y312900D01*
X594815D01*
X596323Y313524D01*
X597476Y314678D01*
X598100Y316185D01*
Y317815D01*
X597476Y319322D01*
X596323Y320476D01*
X594815Y321100D01*
D02*
G37*
G36*
X511815Y315100D02*
X510185D01*
X508677Y314476D01*
X507524Y313322D01*
X506900Y311815D01*
Y310184D01*
X507524Y308678D01*
X508677Y307524D01*
X510185Y306900D01*
X511815D01*
X513322Y307524D01*
X514476Y308678D01*
X515100Y310184D01*
Y311815D01*
X514476Y313322D01*
X513322Y314476D01*
X511815Y315100D01*
D02*
G37*
G36*
X577816Y309100D02*
X576184D01*
X574678Y308476D01*
X573524Y307322D01*
X572900Y305816D01*
Y304184D01*
X573524Y302678D01*
X574678Y301524D01*
X576184Y300900D01*
X577816D01*
X579322Y301524D01*
X580476Y302678D01*
X581100Y304184D01*
Y305816D01*
X580476Y307322D01*
X579322Y308476D01*
X577816Y309100D01*
D02*
G37*
G36*
X608815Y307100D02*
X607184D01*
X605678Y306476D01*
X604524Y305322D01*
X603900Y303815D01*
Y302185D01*
X604524Y300678D01*
X605678Y299524D01*
X607184Y298900D01*
X608815D01*
X610322Y299524D01*
X611476Y300678D01*
X612100Y302185D01*
Y303815D01*
X611476Y305322D01*
X610322Y306476D01*
X608815Y307100D01*
D02*
G37*
G36*
X595816D02*
X594184D01*
X592678Y306476D01*
X591524Y305322D01*
X590900Y303815D01*
Y302185D01*
X591524Y300678D01*
X592678Y299524D01*
X594184Y298900D01*
X595816D01*
X597323Y299524D01*
X598476Y300678D01*
X599100Y302185D01*
Y303815D01*
X598476Y305322D01*
X597323Y306476D01*
X595816Y307100D01*
D02*
G37*
G36*
X408815Y301350D02*
X407184D01*
X405677Y300726D01*
X404524Y299573D01*
X403900Y298065D01*
Y296434D01*
X404524Y294928D01*
X405677Y293774D01*
X407184Y293150D01*
X408815D01*
X410322Y293774D01*
X411476Y294928D01*
X412100Y296434D01*
Y298065D01*
X411476Y299573D01*
X410322Y300726D01*
X408815Y301350D01*
D02*
G37*
G36*
X666815Y307100D02*
X665184D01*
X663678Y306476D01*
X662524Y305322D01*
X661900Y303815D01*
Y302185D01*
X662524Y300678D01*
X663678Y299524D01*
X663938Y299417D01*
X664272Y298088D01*
X664330Y296128D01*
X663524Y295322D01*
X662900Y293815D01*
Y292185D01*
X663524Y290678D01*
X664678Y289524D01*
X666184Y288900D01*
X667816D01*
X669323Y289524D01*
X670476Y290678D01*
X671100Y292185D01*
Y293815D01*
X670476Y295322D01*
X669323Y296476D01*
X669062Y296583D01*
X668728Y297912D01*
X668670Y299872D01*
X669476Y300678D01*
X670100Y302185D01*
Y303815D01*
X669476Y305322D01*
X668322Y306476D01*
X666815Y307100D01*
D02*
G37*
G36*
X592315Y289100D02*
X590684D01*
X589178Y288476D01*
X588024Y287323D01*
X587400Y285816D01*
Y284184D01*
X588024Y282678D01*
X589178Y281524D01*
X590684Y280900D01*
X592315D01*
X593822Y281524D01*
X594976Y282678D01*
X595600Y284184D01*
Y285816D01*
X594976Y287323D01*
X593822Y288476D01*
X592315Y289100D01*
D02*
G37*
G36*
X560816Y289100D02*
X559184D01*
X557677Y288476D01*
X556524Y287322D01*
X555900Y285816D01*
Y284184D01*
X556524Y282677D01*
X557677Y281524D01*
X559184Y280900D01*
X560816D01*
X562322Y281524D01*
X563476Y282677D01*
X564100Y284184D01*
Y285816D01*
X563476Y287322D01*
X562322Y288476D01*
X560816Y289100D01*
D02*
G37*
G36*
X642816Y288100D02*
X641184D01*
X639678Y287476D01*
X638524Y286322D01*
X637900Y284816D01*
Y283184D01*
X638524Y281677D01*
X639678Y280524D01*
X641184Y279900D01*
X642816D01*
X644323Y280524D01*
X645476Y281677D01*
X646100Y283184D01*
Y284816D01*
X645476Y286322D01*
X644323Y287476D01*
X642816Y288100D01*
D02*
G37*
G36*
X577816Y282100D02*
X576184D01*
X574678Y281476D01*
X573524Y280322D01*
X572900Y278815D01*
Y277185D01*
X573524Y275678D01*
X574678Y274524D01*
X576184Y273900D01*
X577816D01*
X579322Y274524D01*
X580476Y275678D01*
X581100Y277185D01*
Y278815D01*
X580476Y280322D01*
X579322Y281476D01*
X577816Y282100D01*
D02*
G37*
G36*
X641815Y276100D02*
X640184D01*
X638677Y275476D01*
X637524Y274322D01*
X636900Y272815D01*
Y271184D01*
X637524Y269678D01*
X638677Y268524D01*
X640184Y267900D01*
X641815D01*
X643322Y268524D01*
X644476Y269678D01*
X645100Y271184D01*
Y272815D01*
X644476Y274322D01*
X643322Y275476D01*
X641815Y276100D01*
D02*
G37*
G36*
X564815D02*
X563184D01*
X561678Y275476D01*
X560524Y274322D01*
X559900Y272815D01*
Y271184D01*
X560524Y269678D01*
X561678Y268524D01*
X563184Y267900D01*
X564815D01*
X566322Y268524D01*
X567476Y269678D01*
X568100Y271184D01*
Y272815D01*
X567476Y274322D01*
X566322Y275476D01*
X564815Y276100D01*
D02*
G37*
G36*
X605065Y274350D02*
X603434D01*
X601927Y273726D01*
X600774Y272572D01*
X600150Y271066D01*
Y269435D01*
X600774Y267928D01*
X601927Y266774D01*
X603434Y266150D01*
X605065D01*
X606572Y266774D01*
X607726Y267928D01*
X608350Y269435D01*
Y271066D01*
X607726Y272572D01*
X606572Y273726D01*
X605065Y274350D01*
D02*
G37*
G36*
X698316Y266600D02*
X696684D01*
X695178Y265976D01*
X694024Y264823D01*
X693400Y263316D01*
Y261684D01*
X694024Y260178D01*
X695178Y259024D01*
X696684Y258400D01*
X698316D01*
X699822Y259024D01*
X700976Y260178D01*
X701600Y261684D01*
Y263316D01*
X700976Y264823D01*
X699822Y265976D01*
X698316Y266600D01*
D02*
G37*
G36*
X538815Y265100D02*
X537184D01*
X535677Y264476D01*
X534524Y263323D01*
X533900Y261816D01*
Y260184D01*
X534524Y258678D01*
X535677Y257524D01*
X537184Y256900D01*
X538815D01*
X540322Y257524D01*
X541476Y258678D01*
X542100Y260184D01*
Y261816D01*
X541476Y263323D01*
X540322Y264476D01*
X538815Y265100D01*
D02*
G37*
G36*
X407816Y263350D02*
X406185D01*
X404678Y262726D01*
X403524Y261572D01*
X402900Y260065D01*
Y258435D01*
X403524Y256928D01*
X404678Y255774D01*
X406185Y255150D01*
X407816D01*
X409322Y255774D01*
X410476Y256928D01*
X411100Y258435D01*
Y260065D01*
X410476Y261572D01*
X409322Y262726D01*
X407816Y263350D01*
D02*
G37*
G36*
X640816Y263100D02*
X639184D01*
X637677Y262476D01*
X636524Y261322D01*
X635900Y259816D01*
Y258184D01*
X636524Y256677D01*
X637677Y255524D01*
X639184Y254900D01*
X640816D01*
X642322Y255524D01*
X643476Y256677D01*
X644100Y258184D01*
Y259816D01*
X643476Y261322D01*
X642322Y262476D01*
X640816Y263100D01*
D02*
G37*
G36*
X607816Y255100D02*
X606185D01*
X604678Y254476D01*
X603524Y253323D01*
X602900Y251815D01*
Y250184D01*
X603524Y248678D01*
X604678Y247524D01*
X606185Y246900D01*
X607816D01*
X609323Y247524D01*
X610476Y248678D01*
X611100Y250184D01*
Y251815D01*
X610476Y253323D01*
X609323Y254476D01*
X607816Y255100D01*
D02*
G37*
G36*
X595816D02*
X594184D01*
X592678Y254476D01*
X591524Y253323D01*
X590900Y251815D01*
Y250184D01*
X591524Y248678D01*
X592678Y247524D01*
X594184Y246900D01*
X595816D01*
X597323Y247524D01*
X598476Y248678D01*
X599100Y250184D01*
Y251815D01*
X598476Y253323D01*
X597323Y254476D01*
X595816Y255100D01*
D02*
G37*
G36*
X573815D02*
X572184D01*
X570677Y254476D01*
X569524Y253323D01*
X568900Y251815D01*
Y250184D01*
X569524Y248678D01*
X570677Y247524D01*
X572184Y246900D01*
X573815D01*
X575322Y247524D01*
X576476Y248678D01*
X577100Y250184D01*
Y251815D01*
X576476Y253323D01*
X575322Y254476D01*
X573815Y255100D01*
D02*
G37*
G36*
X559815D02*
X558185D01*
X556678Y254476D01*
X555524Y253323D01*
X554900Y251815D01*
Y250184D01*
X555524Y248678D01*
X556678Y247524D01*
X558185Y246900D01*
X559815D01*
X561322Y247524D01*
X562476Y248678D01*
X563100Y250184D01*
Y251815D01*
X562476Y253323D01*
X561322Y254476D01*
X559815Y255100D01*
D02*
G37*
%LPD*%
G36*
X850000Y507500D02*
Y400000D01*
X840000Y390000D01*
X740000D01*
X701000Y429000D01*
Y437542D01*
X702270Y438279D01*
X703185Y437900D01*
X704816D01*
X706322Y438524D01*
X707476Y439678D01*
X708100Y441185D01*
Y442816D01*
X707476Y444323D01*
X706322Y445476D01*
X704816Y446100D01*
X703185D01*
X702270Y445721D01*
X701000Y446458D01*
Y463500D01*
X731227Y493727D01*
X731819Y493519D01*
X732400Y493104D01*
Y491684D01*
X733024Y490178D01*
X734178Y489024D01*
X735685Y488400D01*
X737316D01*
X738822Y489024D01*
X739976Y490178D01*
X740600Y491684D01*
Y493316D01*
X739976Y494823D01*
X738822Y495976D01*
X737316Y496600D01*
X735896D01*
X735481Y497181D01*
X735273Y497773D01*
X762500Y525000D01*
X763236D01*
X764685Y524400D01*
X766316D01*
X767764Y525000D01*
X813400D01*
Y524184D01*
X814024Y522677D01*
X815178Y521524D01*
X816684Y520900D01*
X818316D01*
X819822Y521524D01*
X820976Y522677D01*
X821600Y524184D01*
Y525000D01*
X832500D01*
X850000Y507500D01*
D02*
G37*
%LPC*%
G36*
X781566Y517350D02*
X779934D01*
X778428Y516726D01*
X777274Y515573D01*
X776650Y514066D01*
Y512435D01*
X777274Y510928D01*
X778428Y509774D01*
X779934Y509150D01*
X781566D01*
X783073Y509774D01*
X784226Y510928D01*
X784850Y512435D01*
Y514066D01*
X784226Y515573D01*
X783073Y516726D01*
X781566Y517350D01*
D02*
G37*
G36*
X769816Y510100D02*
X768185D01*
X766678Y509476D01*
X765524Y508322D01*
X764900Y506815D01*
Y505185D01*
X765524Y503678D01*
X766678Y502524D01*
X768185Y501900D01*
X769816D01*
X771322Y502524D01*
X772476Y503678D01*
X773100Y505185D01*
Y506815D01*
X772476Y508322D01*
X771322Y509476D01*
X769816Y510100D01*
D02*
G37*
G36*
X803316Y491600D02*
X801684D01*
X800178Y490976D01*
X799024Y489822D01*
X798400Y488316D01*
Y486684D01*
X799024Y485177D01*
X800178Y484024D01*
X801684Y483400D01*
X803316D01*
X804822Y484024D01*
X805976Y485177D01*
X806600Y486684D01*
Y488316D01*
X805976Y489822D01*
X804822Y490976D01*
X803316Y491600D01*
D02*
G37*
G36*
X781566Y489850D02*
X779934D01*
X778428Y489226D01*
X777274Y488073D01*
X776650Y486566D01*
Y484935D01*
X777274Y483428D01*
X778428Y482274D01*
X779934Y481650D01*
X781566D01*
X783073Y482274D01*
X784226Y483428D01*
X784850Y484935D01*
Y486566D01*
X784226Y488073D01*
X783073Y489226D01*
X781566Y489850D01*
D02*
G37*
G36*
X835816Y484100D02*
X834184D01*
X832678Y483476D01*
X831524Y482323D01*
X830900Y480816D01*
Y479184D01*
X831524Y477678D01*
X832678Y476524D01*
X834184Y475900D01*
X835816D01*
X837322Y476524D01*
X838476Y477678D01*
X839100Y479184D01*
Y480816D01*
X838476Y482323D01*
X837322Y483476D01*
X835816Y484100D01*
D02*
G37*
G36*
X736816Y458100D02*
X735184D01*
X733678Y457476D01*
X732524Y456323D01*
X731900Y454815D01*
Y453185D01*
X732524Y451678D01*
X733678Y450524D01*
X735184Y449900D01*
X736816D01*
X738323Y450524D01*
X739476Y451678D01*
X740100Y453185D01*
Y454815D01*
X739476Y456323D01*
X738323Y457476D01*
X736816Y458100D01*
D02*
G37*
G36*
X773816Y455100D02*
X772185D01*
X770678Y454476D01*
X769524Y453322D01*
X768900Y451816D01*
Y450185D01*
X769524Y448678D01*
X770678Y447524D01*
X772185Y446900D01*
X773816D01*
X775322Y447524D01*
X776476Y448678D01*
X777100Y450185D01*
Y451816D01*
X776476Y453322D01*
X775322Y454476D01*
X773816Y455100D01*
D02*
G37*
G36*
X821816Y462100D02*
X820184D01*
X818678Y461476D01*
X817524Y460322D01*
X816900Y458815D01*
Y457184D01*
X817524Y455677D01*
X817872Y455330D01*
X818655Y454500D01*
X817872Y453670D01*
X817524Y453322D01*
X816900Y451816D01*
Y450185D01*
X817524Y448678D01*
X818678Y447524D01*
X820184Y446900D01*
X821816D01*
X823323Y447524D01*
X823567Y447769D01*
X824024Y447677D01*
X825178Y446524D01*
X826684Y445900D01*
X828316D01*
X829822Y446524D01*
X830976Y447677D01*
X831600Y449184D01*
Y450816D01*
X830976Y452322D01*
X829822Y453476D01*
X828316Y454100D01*
X826684D01*
X825178Y453476D01*
X824371Y453737D01*
X823865Y455051D01*
X824128Y455330D01*
X824476Y455677D01*
X825100Y457184D01*
Y458815D01*
X824476Y460322D01*
X823323Y461476D01*
X821816Y462100D01*
D02*
G37*
G36*
X827815Y444100D02*
X826184D01*
X824678Y443476D01*
X824330Y443128D01*
X823500Y442345D01*
X822670Y443128D01*
X822322Y443476D01*
X820816Y444100D01*
X819184D01*
X817678Y443476D01*
X816524Y442323D01*
X815900Y440816D01*
Y439184D01*
X816524Y437678D01*
X817678Y436524D01*
X819184Y435900D01*
X820816D01*
X822322Y436524D01*
X822670Y436872D01*
X823500Y437655D01*
X824330Y436872D01*
X824678Y436524D01*
X826184Y435900D01*
X827815D01*
X829322Y436524D01*
X830476Y437678D01*
X831100Y439184D01*
Y440816D01*
X830476Y442323D01*
X829322Y443476D01*
X827815Y444100D01*
D02*
G37*
G36*
X728816Y450100D02*
X727185D01*
X725678Y449476D01*
X724524Y448322D01*
X723900Y446815D01*
Y445185D01*
X724524Y443677D01*
X725678Y442524D01*
X727185Y441900D01*
X728816D01*
X730322Y442524D01*
X731476Y443677D01*
X732100Y445185D01*
Y446815D01*
X731476Y448322D01*
X730322Y449476D01*
X728816Y450100D01*
D02*
G37*
G36*
X727816Y439100D02*
X726184D01*
X724678Y438476D01*
X723524Y437322D01*
X722900Y435816D01*
Y434184D01*
X723524Y432677D01*
X724678Y431524D01*
X726184Y430900D01*
X727816D01*
X729323Y431524D01*
X730476Y432677D01*
X731100Y434184D01*
Y435816D01*
X730476Y437322D01*
X729323Y438476D01*
X727816Y439100D01*
D02*
G37*
G36*
X826815Y430100D02*
X825184D01*
X823678Y429476D01*
X822524Y428322D01*
X821900Y426816D01*
Y425185D01*
X822524Y423678D01*
X823678Y422524D01*
X825184Y421900D01*
X826815D01*
X828322Y422524D01*
X829476Y423678D01*
X830100Y425185D01*
Y426816D01*
X829476Y428322D01*
X828322Y429476D01*
X826815Y430100D01*
D02*
G37*
G36*
X825816Y407100D02*
X824184D01*
X822678Y406476D01*
X821524Y405322D01*
X820900Y403815D01*
Y402184D01*
X821524Y400678D01*
X822678Y399524D01*
X824184Y398900D01*
X825816D01*
X827322Y399524D01*
X828476Y400678D01*
X829100Y402184D01*
Y403815D01*
X828476Y405322D01*
X827322Y406476D01*
X825816Y407100D01*
D02*
G37*
%LPD*%
G36*
X595000Y550000D02*
X595000Y519100D01*
X594184D01*
X592678Y518476D01*
X591524Y517323D01*
X590900Y515816D01*
Y514184D01*
X591524Y512678D01*
X592101Y512101D01*
X580000Y500000D01*
X577764Y497764D01*
X576277Y498073D01*
X575966Y498822D01*
X574813Y499976D01*
X573306Y500600D01*
X571675D01*
X570168Y499976D01*
X569015Y498822D01*
X568390Y497315D01*
Y495685D01*
X569015Y494178D01*
X570168Y493024D01*
X570918Y492714D01*
X571227Y491227D01*
X560000Y480000D01*
Y470000D01*
X561000Y469000D01*
X562236D01*
X563684Y468400D01*
X565316D01*
X566764Y469000D01*
X570236D01*
X571684Y468400D01*
X573316D01*
X573870Y468630D01*
X576630Y465870D01*
X576400Y465316D01*
Y463684D01*
X577024Y462178D01*
X577101Y462101D01*
X575000Y460000D01*
X574764D01*
X573316Y460600D01*
X571684D01*
X570236Y460000D01*
X566764D01*
X565316Y460600D01*
X563684D01*
X562178Y459976D01*
X561024Y458822D01*
X560813Y458313D01*
X560000Y457500D01*
Y455000D01*
X562500Y452500D01*
X563443D01*
X563684Y452400D01*
X565316D01*
X565557Y452500D01*
X571443D01*
X571684Y452400D01*
X573316D01*
X573557Y452500D01*
X579443D01*
X579684Y452400D01*
X581316D01*
X581557Y452500D01*
X582500D01*
X584776Y450224D01*
X584400Y449315D01*
Y447684D01*
X585024Y446177D01*
X586177Y445024D01*
X587684Y444400D01*
X589315D01*
X590224Y444776D01*
X592500Y442500D01*
Y441557D01*
X592400Y441316D01*
Y439684D01*
X592500Y439443D01*
Y433557D01*
X592400Y433316D01*
Y431684D01*
X593024Y430177D01*
X594178Y429024D01*
X595684Y428400D01*
X597315D01*
X598822Y429024D01*
X599798Y430000D01*
X601202D01*
X602178Y429024D01*
X603684Y428400D01*
X605316D01*
X606224Y428776D01*
X607500Y427500D01*
Y422500D01*
X605000Y420000D01*
X598764D01*
X597315Y420600D01*
X595684D01*
X594236Y420000D01*
X582764D01*
X581316Y420600D01*
X579684D01*
X579483Y420517D01*
X577500Y422500D01*
Y428042D01*
X578770Y428779D01*
X579684Y428400D01*
X581316D01*
X582822Y429024D01*
X583976Y430177D01*
X584600Y431684D01*
Y433316D01*
X583976Y434822D01*
X582822Y435976D01*
X581316Y436600D01*
X579684D01*
X578770Y436221D01*
X577500Y436958D01*
Y440000D01*
X576600Y440900D01*
Y441316D01*
X575976Y442822D01*
X574822Y443976D01*
X573316Y444600D01*
X571684D01*
X570177Y443976D01*
X569255Y443053D01*
X568500Y442917D01*
X567745Y443053D01*
X566822Y443976D01*
X565316Y444600D01*
X563684D01*
X562178Y443976D01*
X561024Y442822D01*
X560891Y442500D01*
X555000D01*
X543649Y453851D01*
X543976Y454178D01*
X544600Y455685D01*
Y457315D01*
X543976Y458823D01*
X543053Y459745D01*
X542917Y460500D01*
X543053Y461255D01*
X543976Y462178D01*
X544600Y463685D01*
Y465316D01*
X543976Y466823D01*
X543053Y467745D01*
X542917Y468500D01*
X543053Y469255D01*
X543976Y470177D01*
X544600Y471684D01*
Y473316D01*
X543976Y474822D01*
X543058Y475740D01*
X542920Y476503D01*
X543060Y477252D01*
X543981Y478173D01*
X544605Y479680D01*
Y481311D01*
X543981Y482818D01*
X542827Y483971D01*
X541320Y484595D01*
X540000D01*
Y515000D01*
X570000Y545000D01*
X580000Y555000D01*
X590000D01*
X595000Y550000D01*
D02*
G37*
G36*
X578876Y480356D02*
Y478196D01*
X578876Y478196D01*
X579187Y476636D01*
X579103Y476359D01*
X578178Y475976D01*
X577024Y474822D01*
X576400Y473316D01*
Y472953D01*
X575942Y472315D01*
X573979Y470755D01*
X573628Y470621D01*
X573090Y470514D01*
X573090Y470514D01*
X572910Y470439D01*
X572090D01*
X571017Y470884D01*
X571016Y470884D01*
X570236Y471039D01*
X566764D01*
X565984Y470884D01*
X564967Y470463D01*
X562195Y471644D01*
X562039Y473958D01*
Y479155D01*
X569756Y486872D01*
X572361D01*
X578876Y480356D01*
D02*
G37*
G36*
X592896Y462488D02*
X593024Y462178D01*
X594178Y461024D01*
X595684Y460400D01*
X597315D01*
X598822Y461024D01*
X599976Y462178D01*
X600592Y463666D01*
X600662Y463818D01*
X600928Y464255D01*
X601561Y465046D01*
X602407Y465929D01*
X603198Y466198D01*
X603217Y466209D01*
X603349Y466254D01*
X604090Y466561D01*
X604910D01*
X605960Y466126D01*
X607563Y465291D01*
X607738Y465240D01*
X607863Y465172D01*
X608380Y463470D01*
X608423Y462154D01*
X606583Y460313D01*
X606366Y459988D01*
X606144Y459660D01*
X606109Y459576D01*
X606109Y459572D01*
X606106Y459568D01*
X606029Y459180D01*
X605951Y458797D01*
X605952Y458792D01*
X605951Y458788D01*
X606027Y458404D01*
X606103Y458016D01*
X606105Y458012D01*
X606106Y458008D01*
X606561Y456910D01*
Y456090D01*
X606160Y455123D01*
X605267Y453721D01*
X605203Y453557D01*
X605105Y453412D01*
X605060Y453190D01*
X604978Y452980D01*
X604982Y452804D01*
X604947Y452632D01*
X604990Y452410D01*
X604995Y452184D01*
X605066Y452023D01*
X605100Y451851D01*
X605839Y450048D01*
X605841Y450046D01*
X605842Y450042D01*
X606311Y448910D01*
Y448090D01*
X605842Y446958D01*
X605841Y446955D01*
X605839Y446952D01*
X605100Y445149D01*
X605066Y444977D01*
X604995Y444816D01*
X604990Y444590D01*
X604947Y444368D01*
X604982Y444196D01*
X604978Y444021D01*
X605060Y443810D01*
X605105Y443588D01*
X605203Y443443D01*
X605267Y443279D01*
X606160Y441877D01*
X606561Y440910D01*
Y440090D01*
X606127Y439043D01*
X605291Y437446D01*
X605239Y437270D01*
X605151Y437108D01*
X605127Y436892D01*
X605066Y436683D01*
X605086Y436500D01*
X605066Y436317D01*
X605127Y436108D01*
X605151Y435892D01*
X605239Y435730D01*
X605291Y435554D01*
X605885Y434420D01*
X605351Y432674D01*
X604124Y432116D01*
X602067Y431827D01*
X601982Y431884D01*
X601202Y432039D01*
X599798D01*
X599798Y432039D01*
X599018Y431884D01*
X598356Y431442D01*
X597667Y430753D01*
X596910Y430439D01*
X596090D01*
X595333Y430753D01*
X594753Y431333D01*
X594439Y432090D01*
Y433054D01*
X594539Y433557D01*
Y439443D01*
X594439Y439946D01*
Y441054D01*
X594539Y441557D01*
Y442500D01*
X594539Y442500D01*
X594384Y443280D01*
X593942Y443942D01*
X593942Y443942D01*
X591666Y446218D01*
X591004Y446660D01*
X590224Y446815D01*
X589443Y446660D01*
X587315Y447315D01*
X586660Y449443D01*
X586815Y450224D01*
X586660Y451004D01*
X586218Y451666D01*
X583942Y453942D01*
X583280Y454384D01*
X582500Y454539D01*
X581557D01*
X581054Y454439D01*
X579946D01*
X579443Y454539D01*
X577365D01*
X576631Y455639D01*
X576600Y455879D01*
Y457315D01*
X576336Y457953D01*
X576273Y458445D01*
X576442Y458558D01*
X576442Y458558D01*
X578543Y460659D01*
X578985Y461320D01*
X579140Y462101D01*
X578985Y462881D01*
X578867Y463058D01*
X578439Y464090D01*
Y464910D01*
X578514Y465090D01*
X578514Y465090D01*
X578669Y465870D01*
X578514Y466651D01*
X578072Y467312D01*
X578072Y467312D01*
X577407Y467977D01*
X577599Y471126D01*
X578057Y471764D01*
X578154Y471978D01*
X578284Y472172D01*
X578317Y472337D01*
X578386Y472489D01*
X578394Y472723D01*
X578397Y472743D01*
X578734Y472969D01*
X581525Y473859D01*
X592896Y462488D01*
D02*
G37*
%LPC*%
G36*
X588815Y535100D02*
X587184D01*
X585677Y534476D01*
X584524Y533322D01*
X583900Y531815D01*
Y530185D01*
X584524Y528678D01*
X585677Y527524D01*
X587184Y526900D01*
X588815D01*
X590322Y527524D01*
X591476Y528678D01*
X592100Y530185D01*
Y531815D01*
X591476Y533322D01*
X590322Y534476D01*
X588815Y535100D01*
D02*
G37*
G36*
X548815Y518100D02*
X547184D01*
X545677Y517476D01*
X544524Y516322D01*
X543900Y514815D01*
Y513184D01*
X544524Y511678D01*
X545677Y510524D01*
X547184Y509900D01*
X548815D01*
X550322Y510524D01*
X551476Y511678D01*
X552100Y513184D01*
Y514815D01*
X551476Y516322D01*
X550322Y517476D01*
X548815Y518100D01*
D02*
G37*
G36*
X557315Y500600D02*
X555685D01*
X554178Y499976D01*
X553024Y498822D01*
X552400Y497315D01*
Y495685D01*
X553024Y494178D01*
X554178Y493024D01*
X555685Y492400D01*
X557315D01*
X558823Y493024D01*
X559976Y494178D01*
X560600Y495685D01*
Y497315D01*
X559976Y498822D01*
X558823Y499976D01*
X557315Y500600D01*
D02*
G37*
G36*
X957398Y281028D02*
D01*
Y278095D01*
X957389Y278320D01*
X957365Y278536D01*
X957323Y278745D01*
X957264Y278936D01*
X957198Y279120D01*
X957131Y279286D01*
X957048Y279445D01*
X956973Y279595D01*
X956890Y279720D01*
X956815Y279836D01*
X956748Y279936D01*
X956681Y280019D01*
X956623Y280086D01*
X956581Y280128D01*
X956556Y280161D01*
X956548Y280169D01*
X956381Y280319D01*
X956215Y280453D01*
X956040Y280569D01*
X955865Y280669D01*
X955690Y280753D01*
X955515Y280819D01*
X955348Y280878D01*
X955190Y280919D01*
X955040Y280953D01*
X954907Y280986D01*
X954782Y281003D01*
X954682Y281011D01*
X954590Y281019D01*
X954523Y281028D01*
X957398D01*
X952649D01*
X952499Y281019D01*
X952349Y281011D01*
X952066Y280953D01*
X951807Y280886D01*
X951691Y280844D01*
X951583Y280803D01*
X951474Y280753D01*
X951391Y280711D01*
X951308Y280678D01*
X951241Y280644D01*
X951191Y280611D01*
X951149Y280586D01*
X951124Y280578D01*
X951116Y280569D01*
X950983Y280486D01*
X950866Y280394D01*
X950758Y280311D01*
X950666Y280219D01*
X950574Y280136D01*
X950499Y280053D01*
X950433Y279970D01*
X950375Y279895D01*
X950325Y279828D01*
X950283Y279761D01*
X950250Y279703D01*
X950225Y279653D01*
X950208Y279620D01*
X950191Y279586D01*
X950183Y279570D01*
Y279561D01*
X950058Y279728D01*
X949925Y279878D01*
X949791Y280003D01*
X949658Y280103D01*
X949541Y280186D01*
X949450Y280244D01*
X949417Y280269D01*
X949391Y280286D01*
X949375Y280294D01*
X949367D01*
X949258Y280353D01*
X949150Y280403D01*
X949058Y280444D01*
X948967Y280469D01*
X948900Y280486D01*
X948850Y280494D01*
X948808Y280503D01*
X948800D01*
X948600Y280569D01*
X948392D01*
X948092D01*
X947175D01*
X946951Y280561D01*
X946734Y280536D01*
X946526Y280494D01*
X946334Y280436D01*
X946151Y280369D01*
X945984Y280303D01*
X945826Y280228D01*
X945676Y280144D01*
X945551Y280070D01*
X945434Y279986D01*
X945334Y279919D01*
X945251Y279853D01*
X945184Y279795D01*
X945143Y279753D01*
X945109Y279728D01*
X945101Y279720D01*
X944951Y279553D01*
X944818Y279386D01*
X944709Y279211D01*
X944609Y279036D01*
X944526Y278861D01*
X944459Y278687D01*
X944401Y278520D01*
X944360Y278362D01*
X944326Y278212D01*
X944293Y278070D01*
X944276Y277945D01*
X944268Y277845D01*
X944259Y277753D01*
X944251Y277695D01*
Y275812D01*
X944259Y275696D01*
X944293Y275596D01*
X944326Y275512D01*
X944376Y275446D01*
X944418Y275387D01*
X944459Y275354D01*
X944493Y275329D01*
X944501Y275321D01*
X944584Y275271D01*
X944668Y275237D01*
X944734Y275204D01*
X944784Y275187D01*
X944834Y275179D01*
X944868Y275171D01*
X957398D01*
Y281028D01*
D02*
G37*
G36*
Y273588D02*
X956748D01*
X956665Y273580D01*
X956581Y273554D01*
X956506Y273521D01*
X956440Y273488D01*
X956390Y273446D01*
X956348Y273413D01*
X956323Y273388D01*
X956315Y273379D01*
X956248Y273305D01*
X956198Y273230D01*
X956156Y273155D01*
X956131Y273088D01*
X956115Y273021D01*
X956106Y272980D01*
Y269947D01*
X944893D01*
X944784Y269939D01*
X944693Y269914D01*
X944609Y269880D01*
X944543Y269839D01*
X944493Y269797D01*
X944459Y269764D01*
X944434Y269739D01*
X944426Y269730D01*
X944368Y269655D01*
X944326Y269572D01*
X944293Y269506D01*
X944276Y269439D01*
X944259Y269380D01*
X944251Y269339D01*
Y273588D01*
Y268647D01*
D01*
Y269297D01*
X944259Y269197D01*
X944285Y269106D01*
X944318Y269031D01*
X944360Y268964D01*
X944401Y268906D01*
X944434Y268864D01*
X944459Y268839D01*
X944468Y268831D01*
X944551Y268772D01*
X944626Y268722D01*
X944701Y268689D01*
X944759Y268672D01*
X944818Y268656D01*
X944859Y268647D01*
X944251D01*
X956756D01*
X956873Y268656D01*
X956965Y268672D01*
X957056Y268706D01*
X957123Y268747D01*
X957189Y268797D01*
X957240Y268847D01*
X957281Y268906D01*
X957315Y268972D01*
X957365Y269089D01*
X957389Y269189D01*
Y269231D01*
X957398Y269264D01*
Y272938D01*
X957389Y273046D01*
X957365Y273146D01*
X957331Y273221D01*
X957290Y273288D01*
X957256Y273346D01*
X957223Y273379D01*
X957198Y273405D01*
X957189Y273413D01*
X957114Y273471D01*
X957031Y273513D01*
X956956Y273546D01*
X956890Y273563D01*
X956831Y273580D01*
X956790Y273588D01*
X957398D01*
D02*
G37*
%LPD*%
G36*
X954598Y279720D02*
X954724Y279711D01*
X954840Y279686D01*
X954948Y279653D01*
X955148Y279578D01*
X955315Y279495D01*
X955390Y279445D01*
X955457Y279403D01*
X955507Y279361D01*
X955557Y279328D01*
X955590Y279295D01*
X955615Y279270D01*
X955632Y279261D01*
X955640Y279253D01*
X955723Y279161D01*
X955790Y279070D01*
X955856Y278970D01*
X955907Y278870D01*
X955990Y278678D01*
X956048Y278495D01*
X956081Y278337D01*
X956090Y278270D01*
X956098Y278212D01*
X956106Y278162D01*
Y275812D01*
X956115Y275696D01*
X956148Y275596D01*
X956181Y275512D01*
X956231Y275446D01*
X956273Y275387D01*
X956315Y275354D01*
X956348Y275329D01*
X956356Y275321D01*
X956440Y275271D01*
X956523Y275237D01*
X956590Y275204D01*
X956640Y275187D01*
X956690Y275179D01*
X956723Y275171D01*
X944893D01*
X944984Y275179D01*
X945076Y275196D01*
X945159Y275221D01*
X945226Y275254D01*
X945284Y275287D01*
X945326Y275312D01*
X945359Y275329D01*
X945368Y275337D01*
X945426Y275412D01*
X945468Y275487D01*
X945501Y275571D01*
X945518Y275646D01*
X945534Y275712D01*
X945543Y275762D01*
Y277637D01*
X945551Y277762D01*
X945559Y277887D01*
X945584Y278003D01*
X945618Y278112D01*
X945692Y278303D01*
X945784Y278478D01*
X945826Y278545D01*
X945876Y278612D01*
X945917Y278670D01*
X945951Y278711D01*
X945984Y278745D01*
X946001Y278770D01*
X946017Y278787D01*
X946026Y278795D01*
X946117Y278878D01*
X946209Y278953D01*
X946309Y279011D01*
X946409Y279070D01*
X946501Y279120D01*
X946600Y279153D01*
X946776Y279211D01*
X946934Y279245D01*
X947000Y279253D01*
X947059Y279261D01*
X947109Y279270D01*
X947142D01*
X947167D01*
X947175D01*
X948092D01*
X948217Y279261D01*
X948342Y279253D01*
X948458Y279228D01*
X948567Y279195D01*
X948767Y279120D01*
X948933Y279036D01*
X949008Y278986D01*
X949075Y278945D01*
X949125Y278903D01*
X949175Y278870D01*
X949208Y278836D01*
X949233Y278811D01*
X949250Y278803D01*
X949258Y278795D01*
X949342Y278703D01*
X949408Y278612D01*
X949475Y278512D01*
X949525Y278412D01*
X949608Y278220D01*
X949666Y278037D01*
X949700Y277878D01*
X949708Y277812D01*
X949716Y277753D01*
X949725Y277703D01*
Y277637D01*
X949733Y277520D01*
X949766Y277420D01*
X949800Y277337D01*
X949850Y277270D01*
X949891Y277212D01*
X949933Y277178D01*
X949966Y277153D01*
X949975Y277145D01*
X950058Y277095D01*
X950141Y277062D01*
X950208Y277029D01*
X950258Y277012D01*
X950308Y277004D01*
X950341Y276995D01*
X950358D01*
X950366D01*
X950458Y277004D01*
X950549Y277020D01*
X950633Y277045D01*
X950699Y277079D01*
X950758Y277112D01*
X950799Y277137D01*
X950833Y277153D01*
X950841Y277162D01*
X950899Y277237D01*
X950941Y277312D01*
X950974Y277395D01*
X950991Y277470D01*
X951008Y277537D01*
X951016Y277587D01*
Y278095D01*
X951024Y278220D01*
X951033Y278345D01*
X951058Y278461D01*
X951091Y278570D01*
X951166Y278762D01*
X951258Y278936D01*
X951299Y279003D01*
X951349Y279070D01*
X951391Y279128D01*
X951424Y279170D01*
X951458Y279203D01*
X951474Y279228D01*
X951491Y279245D01*
X951499Y279253D01*
X951591Y279336D01*
X951683Y279411D01*
X951783Y279470D01*
X951882Y279528D01*
X951974Y279578D01*
X952074Y279611D01*
X952249Y279670D01*
X952407Y279703D01*
X952474Y279711D01*
X952532Y279720D01*
X952582Y279728D01*
X952616D01*
X952641D01*
X952649D01*
X954473D01*
X954598Y279720D01*
D02*
G37*
G36*
X957398Y275171D02*
X956748D01*
X956840Y275179D01*
X956931Y275196D01*
X957014Y275221D01*
X957081Y275254D01*
X957140Y275287D01*
X957181Y275312D01*
X957215Y275329D01*
X957223Y275337D01*
X957281Y275412D01*
X957323Y275487D01*
X957356Y275571D01*
X957373Y275646D01*
X957389Y275712D01*
X957398Y275762D01*
Y275171D01*
D02*
G37*
D12*
X680000Y328000D02*
Y335000D01*
X674000Y327000D02*
Y332000D01*
Y327000D02*
X742000Y259000D01*
X747000Y269000D02*
X782000D01*
X686000Y330000D02*
X747000Y269000D01*
X680000Y328000D02*
X744000Y264000D01*
X685000Y340000D02*
X751000Y274000D01*
X767000D01*
X686000Y346000D02*
X744000Y288000D01*
X761000D01*
X744000Y264000D02*
X797000D01*
X742000Y259000D02*
X812000D01*
X767000Y274000D02*
X781000Y288000D01*
X812000Y259000D02*
X841000Y288000D01*
X782000Y269000D02*
X801000Y288000D01*
X797000Y264000D02*
X821000Y288000D01*
D37*
X231770Y670024D02*
D03*
X572490Y496500D02*
D03*
X596495Y504495D02*
D03*
X603000Y515000D02*
D03*
X612505Y504505D02*
D03*
X548000Y514000D02*
D03*
X588000Y531000D02*
D03*
X595000Y515000D02*
D03*
X327000Y330000D02*
D03*
X328000Y358000D02*
D03*
Y374000D02*
D03*
X300000Y510000D02*
D03*
X295000Y654000D02*
D03*
Y674000D02*
D03*
X297000Y689000D02*
D03*
X232000Y676000D02*
D03*
X284000Y469000D02*
D03*
X293000Y422000D02*
D03*
X292000Y438000D02*
D03*
X293000Y402000D02*
D03*
X297476Y387678D02*
D03*
X746000Y544000D02*
D03*
X755000Y533000D02*
D03*
X889000Y609000D02*
D03*
X739000Y553000D02*
D03*
X737000Y540000D02*
D03*
X657000Y453000D02*
D03*
X660000Y484000D02*
D03*
X662000Y473000D02*
D03*
Y463000D02*
D03*
X657000Y468000D02*
D03*
X656000Y478000D02*
D03*
X886000Y673000D02*
D03*
X872500Y385000D02*
D03*
X867500Y390000D02*
D03*
X588000Y344000D02*
D03*
X538000Y296000D02*
D03*
Y285000D02*
D03*
Y271000D02*
D03*
Y307000D02*
D03*
X724000Y369000D02*
D03*
X712000D02*
D03*
X701000Y370000D02*
D03*
X665000Y259000D02*
D03*
Y273000D02*
D03*
Y283000D02*
D03*
X649000Y317000D02*
D03*
X638000D02*
D03*
X627000D02*
D03*
X616000D02*
D03*
X605000D02*
D03*
X642000Y297000D02*
D03*
X715000Y255000D02*
D03*
X705000D02*
D03*
X460000Y305000D02*
D03*
X439000Y314000D02*
D03*
X478000Y293000D02*
D03*
X435000Y405000D02*
D03*
X436000Y500000D02*
D03*
Y587000D02*
D03*
Y677000D02*
D03*
X840000Y674000D02*
D03*
X822000D02*
D03*
X831000Y668000D02*
D03*
Y660000D02*
D03*
Y653000D02*
D03*
Y646000D02*
D03*
X840000Y657500D02*
D03*
X822500D02*
D03*
X612505Y448505D02*
D03*
X620495Y448505D02*
D03*
Y432505D02*
D03*
X604500Y480490D02*
D03*
X572495Y480495D02*
D03*
X588505Y480505D02*
D03*
X736000Y524000D02*
D03*
X564500Y440500D02*
D03*
X572500D02*
D03*
Y456500D02*
D03*
X612500Y440500D02*
D03*
X564500Y456500D02*
D03*
X612500D02*
D03*
Y432500D02*
D03*
X572500Y472500D02*
D03*
X604500D02*
D03*
X564500Y424500D02*
D03*
X612500D02*
D03*
X564500Y472500D02*
D03*
X612500D02*
D03*
X780750Y485750D02*
D03*
X802500Y487500D02*
D03*
X817500Y525000D02*
D03*
X718000Y358000D02*
D03*
X615000Y355000D02*
D03*
X617500Y372500D02*
D03*
X880000Y395000D02*
D03*
X910000Y305000D02*
D03*
X915000Y300000D02*
D03*
X882500Y415000D02*
D03*
X827500Y450000D02*
D03*
X890000Y452000D02*
D03*
X880000Y458000D02*
D03*
X914000Y472000D02*
D03*
X857000Y481000D02*
D03*
X835000Y480000D02*
D03*
X821000Y458000D02*
D03*
Y451000D02*
D03*
X827000Y440000D02*
D03*
X820000D02*
D03*
X826000Y426000D02*
D03*
X825000Y403000D02*
D03*
X839000Y401000D02*
D03*
X773000Y451000D02*
D03*
X878000Y489000D02*
D03*
X879000Y502000D02*
D03*
X713000Y326000D02*
D03*
X736000Y313000D02*
D03*
X724000Y315000D02*
D03*
X729912Y314457D02*
D03*
X559000Y251000D02*
D03*
X607000D02*
D03*
X595000D02*
D03*
X573000D02*
D03*
X538000Y261000D02*
D03*
X545000Y325000D02*
D03*
X667000Y293000D02*
D03*
X649000Y341000D02*
D03*
X638000Y338000D02*
D03*
X680000Y335000D02*
D03*
X686000Y330000D02*
D03*
X674000Y332000D02*
D03*
X685000Y340000D02*
D03*
X686000Y346000D02*
D03*
X737000Y225000D02*
D03*
X490000Y253000D02*
D03*
X491000Y247000D02*
D03*
X496000Y242000D02*
D03*
X480000Y241000D02*
D03*
X468000Y238000D02*
D03*
X603000Y343000D02*
D03*
X560000Y344000D02*
D03*
X707000Y373000D02*
D03*
X731000Y353000D02*
D03*
X724000Y326250D02*
D03*
X449000Y361000D02*
D03*
Y352000D02*
D03*
X454000Y366000D02*
D03*
Y356825D02*
D03*
X449000Y370000D02*
D03*
X641000Y272000D02*
D03*
X640000Y259000D02*
D03*
X666000Y303000D02*
D03*
X639000Y370000D02*
D03*
X605000Y351000D02*
D03*
Y360000D02*
D03*
X627000Y338000D02*
D03*
X589000Y365000D02*
D03*
X560000Y285000D02*
D03*
X565000Y328000D02*
D03*
X577000Y305000D02*
D03*
X595000Y303000D02*
D03*
X608000D02*
D03*
X594000Y317000D02*
D03*
X632500Y370000D02*
D03*
X556000Y362000D02*
D03*
X642000Y284000D02*
D03*
X604500Y400500D02*
D03*
X596000Y409000D02*
D03*
X604500Y408500D02*
D03*
X516000Y612000D02*
D03*
X492000D02*
D03*
X487000Y617000D02*
D03*
X482000Y622000D02*
D03*
X477000Y627000D02*
D03*
X515000Y453000D02*
D03*
X540750Y408750D02*
D03*
X548750D02*
D03*
X556752Y408779D02*
D03*
X490000Y407000D02*
D03*
X476000Y419000D02*
D03*
X464000Y424000D02*
D03*
X491000Y437000D02*
D03*
X510000Y574000D02*
D03*
X511000Y568000D02*
D03*
X512000Y562000D02*
D03*
X526750Y515500D02*
D03*
X455000Y568000D02*
D03*
Y574000D02*
D03*
X441000Y649000D02*
D03*
X448000D02*
D03*
X454000D02*
D03*
X580500Y544750D02*
D03*
X584250Y540750D02*
D03*
X440250Y631250D02*
D03*
X506000Y396000D02*
D03*
X512000D02*
D03*
X502000Y444000D02*
D03*
X512000Y436000D02*
D03*
X507000Y440000D02*
D03*
X465000Y447000D02*
D03*
X500000Y396000D02*
D03*
X560250Y381500D02*
D03*
X556000Y401000D02*
D03*
X450250Y397250D02*
D03*
X458000Y385000D02*
D03*
X596250Y379750D02*
D03*
X564500Y408500D02*
D03*
X736000Y454000D02*
D03*
X845000Y499000D02*
D03*
Y506000D02*
D03*
X780750Y513250D02*
D03*
X469000Y324000D02*
D03*
X421250Y507250D02*
D03*
X455250Y508750D02*
D03*
X461750Y500250D02*
D03*
X339000Y396000D02*
D03*
X310000Y390000D02*
D03*
X517000Y531000D02*
D03*
X378000Y669000D02*
D03*
X411000Y658000D02*
D03*
X412000Y596000D02*
D03*
X407000Y525000D02*
D03*
Y576000D02*
D03*
X308000Y512000D02*
D03*
X379000Y561000D02*
D03*
X769000Y506000D02*
D03*
X796000Y533500D02*
D03*
X564000Y591000D02*
D03*
X600250Y582250D02*
D03*
X577000Y589000D02*
D03*
X727000Y435000D02*
D03*
X728000Y446000D02*
D03*
X702750Y521500D02*
D03*
X690750Y511500D02*
D03*
X633000Y558000D02*
D03*
X466750Y583500D02*
D03*
X446750Y597500D02*
D03*
X404000Y466000D02*
D03*
X392750Y415500D02*
D03*
X405750Y359500D02*
D03*
X450750Y416500D02*
D03*
X482000Y402000D02*
D03*
X458000Y406000D02*
D03*
X256000Y315500D02*
D03*
X407000Y259250D02*
D03*
X408000Y297250D02*
D03*
X389000Y312250D02*
D03*
X378000Y332000D02*
D03*
X365000Y327750D02*
D03*
X377500Y387750D02*
D03*
X365000Y417750D02*
D03*
X377500Y427750D02*
D03*
X350000D02*
D03*
X577000Y278000D02*
D03*
X604250Y270250D02*
D03*
X591500Y285000D02*
D03*
X604500Y504500D02*
D03*
X900000Y267500D02*
D03*
X440000Y324000D02*
D03*
X501000Y325000D02*
D03*
X345000Y242500D02*
D03*
X380000Y240000D02*
D03*
X564000Y272000D02*
D03*
X575000Y225000D02*
D03*
X380000Y280000D02*
D03*
X376000Y267000D02*
D03*
X377000Y273000D02*
D03*
X379000Y286000D02*
D03*
X378000Y292000D02*
D03*
X377000Y306000D02*
D03*
Y299000D02*
D03*
X704000Y457000D02*
D03*
X556500Y488500D02*
D03*
X580000Y537500D02*
D03*
X765500Y520250D02*
D03*
X745750Y492750D02*
D03*
X736500Y492500D02*
D03*
X656500Y388250D02*
D03*
X378250Y515000D02*
D03*
X464750Y473750D02*
D03*
X525750Y382000D02*
D03*
X521750Y388500D02*
D03*
X616750Y378750D02*
D03*
X628495Y408495D02*
D03*
X517000Y511000D02*
D03*
X452000Y579000D02*
D03*
X439000Y554000D02*
D03*
X391000Y485000D02*
D03*
X396000Y480000D02*
D03*
X401000Y475000D02*
D03*
X391000Y627000D02*
D03*
X396000Y630000D02*
D03*
X401000Y634000D02*
D03*
X724000Y421000D02*
D03*
X450000Y527500D02*
D03*
X332000Y316000D02*
D03*
X338000Y308000D02*
D03*
X343000Y299000D02*
D03*
X310000Y349000D02*
D03*
X318000Y552000D02*
D03*
X333000Y596000D02*
D03*
X323000Y644000D02*
D03*
X359062Y595241D02*
D03*
X866000Y624000D02*
D03*
X644500Y424510D02*
D03*
X620500Y408510D02*
D03*
X636500Y408500D02*
D03*
X636500Y448490D02*
D03*
X636510Y432500D02*
D03*
X697500Y262500D02*
D03*
X912500Y282500D02*
D03*
X890000Y405000D02*
D03*
X695000Y642500D02*
D03*
X697500Y672500D02*
D03*
X582500Y670000D02*
D03*
X592500Y692500D02*
D03*
X438000Y247000D02*
D03*
X511000Y311000D02*
D03*
X612505Y464505D02*
D03*
X621250Y576750D02*
D03*
X745500Y524000D02*
D03*
X704000Y442000D02*
D03*
X392000Y667000D02*
D03*
X377000Y600000D02*
D03*
X339000Y677000D02*
D03*
X251000Y688000D02*
D03*
X400000Y675000D02*
D03*
X472500Y677500D02*
D03*
X502500D02*
D03*
X487500Y665000D02*
D03*
X525000Y677500D02*
D03*
X542500Y680000D02*
D03*
X520000Y662500D02*
D03*
X532500Y645000D02*
D03*
X508000Y651000D02*
D03*
X491000D02*
D03*
X452000Y667000D02*
D03*
X474000Y651000D02*
D03*
X552500Y625000D02*
D03*
X552000Y604000D02*
D03*
X597000Y597000D02*
D03*
X765000Y680000D02*
D03*
X755000D02*
D03*
X745000D02*
D03*
X757500Y632500D02*
D03*
X705000Y595000D02*
D03*
X667500Y625000D02*
D03*
Y600000D02*
D03*
X632500D02*
D03*
X647500Y615000D02*
D03*
Y630000D02*
D03*
Y645000D02*
D03*
X630000Y660000D02*
D03*
X657500Y680000D02*
D03*
X645000D02*
D03*
X632500D02*
D03*
X697500Y712500D02*
D03*
X757500D02*
D03*
X810000Y710000D02*
D03*
X802500Y667500D02*
D03*
X862500Y650000D02*
D03*
Y665000D02*
D03*
X852500Y677500D02*
D03*
X812500Y595000D02*
D03*
X775000Y625000D02*
D03*
Y600000D02*
D03*
X747500D02*
D03*
X742500Y657500D02*
D03*
X755000Y645000D02*
D03*
X854000Y597000D02*
D03*
X862500Y712500D02*
D03*
X935000Y715000D02*
D03*
X955000Y655000D02*
D03*
Y610000D02*
D03*
X880000Y562500D02*
D03*
X840000Y555000D02*
D03*
X955000Y505000D02*
D03*
X832500Y382500D02*
D03*
X787500Y385000D02*
D03*
X927500Y410000D02*
D03*
X930000Y455000D02*
D03*
X955000D02*
D03*
X957500Y410000D02*
D03*
X960000Y362500D02*
D03*
Y320000D02*
D03*
X862500Y227500D02*
D03*
X807000Y225000D02*
D03*
X647000D02*
D03*
X484000Y226000D02*
D03*
X427500Y227500D02*
D03*
X347500D02*
D03*
X292500D02*
D03*
X366250Y507000D02*
D03*
X644495Y448505D02*
D03*
X654000Y509000D02*
D03*
Y490000D02*
D03*
X294000Y637000D02*
D03*
X648000Y515000D02*
D03*
X540495Y432505D02*
D03*
X540505Y424505D02*
D03*
Y416505D02*
D03*
X540500Y456500D02*
D03*
X636495Y472505D02*
D03*
X588500Y456250D02*
D03*
Y448500D02*
D03*
X604250D02*
D03*
X596500D02*
D03*
X602000Y676000D02*
D03*
X620000D02*
D03*
X715000Y674000D02*
D03*
X733000D02*
D03*
X724000Y670000D02*
D03*
Y662000D02*
D03*
X715000Y657500D02*
D03*
X733000Y658000D02*
D03*
X724000Y652000D02*
D03*
Y645000D02*
D03*
X602000Y659000D02*
D03*
X620000D02*
D03*
X611000Y647000D02*
D03*
Y654000D02*
D03*
Y662000D02*
D03*
Y670000D02*
D03*
X687500Y700000D02*
D03*
X677500Y707500D02*
D03*
X667500Y700000D02*
D03*
X588505Y400495D02*
D03*
X644505Y440505D02*
D03*
X636500Y456490D02*
D03*
X636500Y464500D02*
D03*
X540500D02*
D03*
Y472500D02*
D03*
X556500Y496500D02*
D03*
X588495Y424495D02*
D03*
X581000Y409000D02*
D03*
X540505Y480495D02*
D03*
X802000Y644000D02*
D03*
X766000Y650000D02*
D03*
X661000Y651000D02*
D03*
X580000Y645000D02*
D03*
X545000Y651000D02*
D03*
X532500Y702500D02*
D03*
Y687500D02*
D03*
Y695000D02*
D03*
X522500Y690000D02*
D03*
Y697500D02*
D03*
Y705000D02*
D03*
X562500Y707500D02*
D03*
X572500Y700000D02*
D03*
X552500D02*
D03*
X795000Y697500D02*
D03*
X785000Y707500D02*
D03*
X775000Y697500D02*
D03*
X765500Y528500D02*
D03*
X232500Y470000D02*
D03*
Y462500D02*
D03*
X240000Y467500D02*
D03*
X350000Y695000D02*
D03*
X337500D02*
D03*
X636500Y416500D02*
D03*
X596500Y440500D02*
D03*
X580500Y456500D02*
D03*
X596500D02*
D03*
X580500Y432500D02*
D03*
X596500D02*
D03*
X604500Y440500D02*
D03*
Y456500D02*
D03*
X580500Y464500D02*
D03*
X596500D02*
D03*
X572500Y432500D02*
D03*
X604500D02*
D03*
X572500Y464500D02*
D03*
X604500D02*
D03*
X580500Y424500D02*
D03*
X596500D02*
D03*
X580500Y472500D02*
D03*
X596500D02*
D03*
X572500Y424500D02*
D03*
X604500D02*
D03*
X564500Y432500D02*
D03*
Y464500D02*
D03*
X580500Y416500D02*
D03*
X596500D02*
D03*
X572500D02*
D03*
Y408500D02*
D03*
X654000Y713000D02*
D03*
X594000D02*
D03*
X538000D02*
D03*
X490000Y712500D02*
D03*
X445000D02*
D03*
X390000D02*
D03*
X340000D02*
D03*
X295000D02*
D03*
X260000Y710000D02*
D03*
X239000D02*
D03*
X237000Y696000D02*
D03*
X245000Y477500D02*
D03*
Y227000D02*
D03*
X235000Y252500D02*
D03*
Y262500D02*
D03*
X232000Y276000D02*
D03*
D83*
X829914Y332414D02*
X830000Y332500D01*
X829914Y309914D02*
Y332414D01*
X825000Y307500D02*
X827500D01*
X821500D02*
X825000D01*
X827500D02*
X829914Y309914D01*
X821000Y308000D02*
X821500Y307500D01*
D84*
X582955Y478196D02*
Y482045D01*
X574050Y490950D02*
X582955Y482045D01*
Y478196D02*
X596462Y464689D01*
X567343Y490950D02*
X574050D01*
X596462Y464538D02*
Y464689D01*
Y464538D02*
X596500Y464500D01*
X565000Y493293D02*
Y497500D01*
Y493293D02*
X567343Y490950D01*
X626000Y386250D02*
X636500Y396750D01*
X564750Y393250D02*
X571750Y386250D01*
X626000D01*
X564750Y393250D02*
Y408500D01*
X794147Y310105D02*
X798895D01*
X801000Y308000D01*
X792000Y312252D02*
X794147Y310105D01*
X636500Y396750D02*
Y408500D01*
D86*
X762500Y320000D02*
X769000D01*
X781000Y308000D01*
X821000D02*
X824500D01*
X801000D02*
X821000D01*
X824500D02*
X825000Y307500D01*
D87*
X865000Y355400D02*
D03*
Y304600D02*
D03*
Y330000D02*
D03*
X940000Y575000D02*
D03*
Y595000D02*
D03*
Y615000D02*
D03*
Y535000D02*
D03*
Y555000D02*
D03*
Y635000D02*
D03*
X761000Y308000D02*
D03*
X781000Y288000D02*
D03*
Y308000D02*
D03*
X801000Y288000D02*
D03*
Y308000D02*
D03*
X821000Y288000D02*
D03*
Y308000D02*
D03*
X841000Y288000D02*
D03*
Y308000D02*
D03*
D88*
X865000Y279200D02*
D03*
X940000Y515000D02*
D03*
X761000Y288000D02*
D03*
D89*
X492000Y555000D02*
D03*
X687000Y441000D02*
D03*
X677000Y430000D02*
D03*
X692000Y457000D02*
D03*
X657000Y423000D02*
D03*
X692000Y430000D02*
D03*
X678000Y415000D02*
D03*
X661000Y411000D02*
D03*
X663000Y442000D02*
D03*
X667000Y515000D02*
D03*
X673000Y561000D02*
D03*
X666000Y541000D02*
D03*
X693000Y580000D02*
D03*
X723000Y591000D02*
D03*
Y566000D02*
D03*
X702000Y554000D02*
D03*
X689000Y536000D02*
D03*
X704000Y573000D02*
D03*
X681000Y549000D02*
D03*
X687000Y487000D02*
D03*
X677000Y527000D02*
D03*
Y499000D02*
D03*
X667000Y490000D02*
D03*
X756000Y541000D02*
D03*
X764000Y553000D02*
D03*
X778000Y561000D02*
D03*
X808000D02*
D03*
X834000Y585000D02*
D03*
X808000Y584000D02*
D03*
Y573000D02*
D03*
X782000D02*
D03*
X766000Y592000D02*
D03*
X750000Y584000D02*
D03*
X778000D02*
D03*
X839000Y573000D02*
D03*
X860000Y567000D02*
D03*
X913000Y594000D02*
D03*
X925000Y601000D02*
D03*
X877000Y582000D02*
D03*
X867000Y592000D02*
D03*
Y611000D02*
D03*
X866000Y638000D02*
D03*
X875000Y693000D02*
D03*
X905000Y692000D02*
D03*
X894000Y673000D02*
D03*
X942000D02*
D03*
X934000D02*
D03*
X911000Y610000D02*
D03*
X870000Y530000D02*
D03*
X878000Y519000D02*
D03*
M02*
