G04*
G04 #@! TF.GenerationSoftware,Altium Limited,Altium Designer,24.4.1 (13)*
G04*
G04 Layer_Physical_Order=2*
G04 Layer_Color=36540*
%FSLAX44Y44*%
%MOMM*%
G71*
G04*
G04 #@! TF.SameCoordinates,12DE7ABD-5068-41A5-B1A4-11BDF0A404C9*
G04*
G04*
G04 #@! TF.FilePolarity,Positive*
G04*
G01*
G75*
%ADD37C,0.4200*%
%ADD87C,1.5000*%
%ADD88R,1.5000X1.5000*%
%ADD89C,0.4000*%
G36*
X943054Y715451D02*
X942209Y714887D01*
X942032Y714709D01*
X941823Y714570D01*
X940430Y713177D01*
X940291Y712968D01*
X940113Y712791D01*
X939019Y711153D01*
X938923Y710921D01*
X938783Y710712D01*
X938029Y708892D01*
X937980Y708646D01*
X937884Y708414D01*
X937500Y706482D01*
Y706231D01*
X937451Y705985D01*
Y704015D01*
X937500Y703769D01*
Y703518D01*
X937884Y701586D01*
X937980Y701354D01*
X938029Y701108D01*
X938783Y699288D01*
X938923Y699079D01*
X939019Y698847D01*
X940113Y697209D01*
X940291Y697032D01*
X940430Y696823D01*
X941823Y695430D01*
X942032Y695291D01*
X942209Y695113D01*
X943847Y694019D01*
X944079Y693923D01*
X944288Y693783D01*
X946108Y693029D01*
X946354Y692980D01*
X946586Y692884D01*
X948518Y692500D01*
X948769D01*
X949015Y692451D01*
X950985D01*
X951231Y692500D01*
X951482D01*
X953414Y692884D01*
X953646Y692980D01*
X953892Y693029D01*
X955712Y693783D01*
X955921Y693923D01*
X956153Y694019D01*
X957791Y695113D01*
X957968Y695291D01*
X958177Y695430D01*
X959570Y696823D01*
X959709Y697032D01*
X959887Y697209D01*
X960451Y698054D01*
X962451Y697447D01*
Y497549D01*
X935000D01*
X934025Y497355D01*
X933198Y496802D01*
X932645Y495975D01*
X932451Y495000D01*
Y465000D01*
X932645Y464025D01*
X933198Y463198D01*
X934025Y462645D01*
X935000Y462451D01*
X962451D01*
Y266838D01*
X938825D01*
Y242838D01*
X962451D01*
Y222549D01*
X232549D01*
Y250000D01*
X232355Y250975D01*
X231802Y251802D01*
X230975Y252355D01*
X230000Y252549D01*
X205000D01*
Y687451D01*
X230000D01*
X230975Y687645D01*
X231802Y688198D01*
X232355Y689025D01*
X232549Y690000D01*
Y717451D01*
X942447Y717451D01*
X943054Y715451D01*
D02*
G37*
G36*
X960825Y244838D02*
X940825D01*
Y264838D01*
X960825D01*
Y244838D01*
D02*
G37*
%LPC*%
G36*
X785816Y711600D02*
X784184D01*
X782678Y710976D01*
X781524Y709822D01*
X780900Y708316D01*
Y706684D01*
X781524Y705178D01*
X782678Y704024D01*
X784184Y703400D01*
X785816D01*
X787322Y704024D01*
X788476Y705178D01*
X789100Y706684D01*
Y708316D01*
X788476Y709822D01*
X787322Y710976D01*
X785816Y711600D01*
D02*
G37*
G36*
X678316D02*
X676684D01*
X675178Y710976D01*
X674024Y709822D01*
X673400Y708316D01*
Y706684D01*
X674024Y705178D01*
X675178Y704024D01*
X676684Y703400D01*
X678316D01*
X679822Y704024D01*
X680976Y705178D01*
X681600Y706684D01*
Y708316D01*
X680976Y709822D01*
X679822Y710976D01*
X678316Y711600D01*
D02*
G37*
G36*
X563316D02*
X561684D01*
X560177Y710976D01*
X559024Y709822D01*
X558400Y708316D01*
Y706684D01*
X559024Y705178D01*
X560177Y704024D01*
X561684Y703400D01*
X563316D01*
X564822Y704024D01*
X565976Y705178D01*
X566600Y706684D01*
Y708316D01*
X565976Y709822D01*
X564822Y710976D01*
X563316Y711600D01*
D02*
G37*
G36*
X688316Y704100D02*
X686684D01*
X685178Y703476D01*
X684024Y702322D01*
X683400Y700816D01*
Y699184D01*
X684024Y697678D01*
X685178Y696524D01*
X686684Y695900D01*
X688316D01*
X689822Y696524D01*
X690976Y697678D01*
X691600Y699184D01*
Y700816D01*
X690976Y702322D01*
X689822Y703476D01*
X688316Y704100D01*
D02*
G37*
G36*
X668316D02*
X666684D01*
X665178Y703476D01*
X664024Y702322D01*
X663400Y700816D01*
Y699184D01*
X664024Y697678D01*
X665178Y696524D01*
X666684Y695900D01*
X668316D01*
X669822Y696524D01*
X670976Y697678D01*
X671600Y699184D01*
Y700816D01*
X670976Y702322D01*
X669822Y703476D01*
X668316Y704100D01*
D02*
G37*
G36*
X573316D02*
X571684D01*
X570177Y703476D01*
X569024Y702322D01*
X568400Y700816D01*
Y699184D01*
X569024Y697678D01*
X570177Y696524D01*
X571684Y695900D01*
X573316D01*
X574822Y696524D01*
X575976Y697678D01*
X576600Y699184D01*
Y700816D01*
X575976Y702322D01*
X574822Y703476D01*
X573316Y704100D01*
D02*
G37*
G36*
X553316D02*
X551684D01*
X550178Y703476D01*
X549024Y702322D01*
X548400Y700816D01*
Y699184D01*
X549024Y697678D01*
X550178Y696524D01*
X551684Y695900D01*
X553316D01*
X554823Y696524D01*
X555976Y697678D01*
X556600Y699184D01*
Y700816D01*
X555976Y702322D01*
X554823Y703476D01*
X553316Y704100D01*
D02*
G37*
G36*
X795816Y701600D02*
X794184D01*
X792678Y700976D01*
X791524Y699822D01*
X790900Y698316D01*
Y696684D01*
X791524Y695178D01*
X792678Y694024D01*
X794184Y693400D01*
X795816D01*
X797322Y694024D01*
X798476Y695178D01*
X799100Y696684D01*
Y698316D01*
X798476Y699822D01*
X797322Y700976D01*
X795816Y701600D01*
D02*
G37*
G36*
X775816D02*
X774184D01*
X772678Y700976D01*
X771524Y699822D01*
X770900Y698316D01*
Y696684D01*
X771524Y695178D01*
X772678Y694024D01*
X774184Y693400D01*
X775816D01*
X777322Y694024D01*
X778476Y695178D01*
X779100Y696684D01*
Y698316D01*
X778476Y699822D01*
X777322Y700976D01*
X775816Y701600D01*
D02*
G37*
G36*
X350816Y699100D02*
X349184D01*
X347678Y698476D01*
X346524Y697322D01*
X345900Y695816D01*
Y694184D01*
X346524Y692678D01*
X347678Y691524D01*
X349184Y690900D01*
X350816D01*
X352323Y691524D01*
X353476Y692678D01*
X354100Y694184D01*
Y695816D01*
X353476Y697322D01*
X352323Y698476D01*
X350816Y699100D01*
D02*
G37*
G36*
X338316D02*
X336684D01*
X335178Y698476D01*
X334024Y697322D01*
X333400Y695816D01*
Y694184D01*
X334024Y692678D01*
X335178Y691524D01*
X336684Y690900D01*
X338316D01*
X339823Y691524D01*
X340976Y692678D01*
X341600Y694184D01*
Y695816D01*
X340976Y697322D01*
X339823Y698476D01*
X338316Y699100D01*
D02*
G37*
G36*
X297815Y693100D02*
X296184D01*
X294678Y692476D01*
X293524Y691322D01*
X292900Y689816D01*
Y688185D01*
X293524Y686677D01*
X294678Y685524D01*
X296184Y684900D01*
X297815D01*
X299322Y685524D01*
X300476Y686677D01*
X301100Y688185D01*
Y689816D01*
X300476Y691322D01*
X299322Y692476D01*
X297815Y693100D01*
D02*
G37*
G36*
X523316Y709100D02*
X521684D01*
X520177Y708476D01*
X519024Y707322D01*
X518400Y705816D01*
Y704184D01*
X519024Y702678D01*
X519145Y702557D01*
X519999Y701250D01*
X519145Y699943D01*
X519024Y699822D01*
X518400Y698316D01*
Y696684D01*
X519024Y695178D01*
X519145Y695057D01*
X519999Y693750D01*
X519145Y692443D01*
X519024Y692322D01*
X518400Y690816D01*
Y689184D01*
X519024Y687678D01*
X520177Y686524D01*
X521684Y685900D01*
X523316D01*
X524822Y686524D01*
X525737Y687439D01*
X525976Y687678D01*
X525982Y687682D01*
X526276Y687879D01*
X528355Y686972D01*
X528373Y686928D01*
X528400Y686684D01*
X528442Y686583D01*
X529024Y685178D01*
X530178Y684024D01*
X531684Y683400D01*
X533316D01*
X534823Y684024D01*
X535976Y685178D01*
X536600Y686684D01*
Y688316D01*
X535976Y689822D01*
X535855Y689943D01*
X535001Y691250D01*
X535855Y692557D01*
X535976Y692678D01*
X536600Y694184D01*
Y695816D01*
X535976Y697322D01*
X535855Y697443D01*
X535001Y698750D01*
X535855Y700057D01*
X535976Y700178D01*
X536600Y701684D01*
Y703316D01*
X535976Y704822D01*
X534823Y705976D01*
X533316Y706600D01*
X531684D01*
X530178Y705976D01*
X529263Y705061D01*
X529024Y704822D01*
X529018Y704818D01*
X528723Y704621D01*
X526645Y705528D01*
X526627Y705572D01*
X526600Y705816D01*
X526558Y705917D01*
X525976Y707322D01*
X524822Y708476D01*
X523316Y709100D01*
D02*
G37*
G36*
X436816Y681100D02*
X435185D01*
X433678Y680476D01*
X432524Y679322D01*
X431900Y677815D01*
Y676184D01*
X432524Y674678D01*
X433678Y673524D01*
X435185Y672900D01*
X436816D01*
X438322Y673524D01*
X439476Y674678D01*
X440100Y676184D01*
Y677815D01*
X439476Y679322D01*
X438322Y680476D01*
X436816Y681100D01*
D02*
G37*
G36*
X733816Y678100D02*
X732185D01*
X730678Y677476D01*
X729524Y676322D01*
X728900Y674816D01*
Y673712D01*
X727291Y672803D01*
X727052Y672746D01*
X726322Y673476D01*
X724816Y674100D01*
X723185D01*
X721678Y673476D01*
X720948Y672746D01*
X720709Y672803D01*
X719100Y673712D01*
Y674816D01*
X718476Y676322D01*
X717322Y677476D01*
X715816Y678100D01*
X714184D01*
X712678Y677476D01*
X711524Y676322D01*
X710900Y674816D01*
Y673185D01*
X711524Y671677D01*
X712678Y670524D01*
X714184Y669900D01*
X715816D01*
X717322Y670524D01*
X718052Y671254D01*
X718291Y671197D01*
X719900Y670287D01*
Y669184D01*
X720524Y667678D01*
X720895Y667307D01*
X721453Y666000D01*
X720895Y664693D01*
X720524Y664322D01*
X719900Y662815D01*
Y661212D01*
X719816Y661133D01*
X718175Y660124D01*
X717322Y660976D01*
X715816Y661600D01*
X714184D01*
X712678Y660976D01*
X711524Y659822D01*
X710900Y658316D01*
Y656684D01*
X711524Y655178D01*
X712678Y654024D01*
X714184Y653400D01*
X715816D01*
X717322Y654024D01*
X718476Y655178D01*
X719100Y656684D01*
Y658288D01*
X719184Y658367D01*
X720825Y659376D01*
X721459Y658743D01*
X721677Y658524D01*
X722992Y657615D01*
Y656385D01*
X721677Y655476D01*
X721459Y655257D01*
X720524Y654322D01*
X719900Y652815D01*
Y651184D01*
X720449Y649860D01*
X720524Y649678D01*
X720525Y649677D01*
X721654Y648500D01*
X720525Y647323D01*
X720524Y647322D01*
X720449Y647140D01*
X719900Y645816D01*
Y644184D01*
X720524Y642678D01*
X721678Y641524D01*
X723185Y640900D01*
X724816D01*
X726322Y641524D01*
X727476Y642678D01*
X728100Y644184D01*
Y645816D01*
X727551Y647140D01*
X727476Y647322D01*
X727475Y647323D01*
X726346Y648500D01*
X727475Y649677D01*
X727476Y649678D01*
X727551Y649860D01*
X728100Y651184D01*
Y652815D01*
X727476Y654322D01*
X726541Y655257D01*
X726322Y655476D01*
X725008Y656385D01*
Y657615D01*
X726322Y658524D01*
X726541Y658743D01*
X727052Y659254D01*
X727291Y659197D01*
X728900Y658288D01*
Y657185D01*
X729524Y655678D01*
X730678Y654524D01*
X732185Y653900D01*
X733816D01*
X735322Y654524D01*
X736476Y655678D01*
X737100Y657185D01*
Y658816D01*
X736476Y660322D01*
X735322Y661476D01*
X733816Y662100D01*
X732185D01*
X730678Y661476D01*
X729948Y660746D01*
X729709Y660803D01*
X728100Y661712D01*
Y662815D01*
X727476Y664322D01*
X727105Y664693D01*
X726546Y666000D01*
X727105Y667307D01*
X727476Y667678D01*
X728100Y669184D01*
Y670287D01*
X729709Y671197D01*
X729948Y671254D01*
X730678Y670524D01*
X732185Y669900D01*
X733816D01*
X735322Y670524D01*
X736476Y671677D01*
X737100Y673185D01*
Y674816D01*
X736476Y676322D01*
X735322Y677476D01*
X733816Y678100D01*
D02*
G37*
G36*
X620816Y680100D02*
X619184D01*
X617678Y679476D01*
X616524Y678322D01*
X615900Y676815D01*
Y675184D01*
X616524Y673678D01*
X617678Y672524D01*
X619184Y671900D01*
X620816D01*
X622323Y672524D01*
X623476Y673678D01*
X624100Y675184D01*
Y676815D01*
X623476Y678322D01*
X622323Y679476D01*
X620816Y680100D01*
D02*
G37*
G36*
X602816D02*
X601184D01*
X599678Y679476D01*
X598524Y678322D01*
X597900Y676815D01*
Y675184D01*
X598524Y673678D01*
X599678Y672524D01*
X601184Y671900D01*
X602816D01*
X604322Y672524D01*
X605476Y673678D01*
X606100Y675184D01*
Y676815D01*
X605476Y678322D01*
X604322Y679476D01*
X602816Y680100D01*
D02*
G37*
G36*
X840816Y678100D02*
X839184D01*
X837678Y677476D01*
X836524Y676322D01*
X835900Y674816D01*
Y673185D01*
X836524Y671677D01*
X837678Y670524D01*
X839184Y669900D01*
X840816D01*
X842322Y670524D01*
X843476Y671677D01*
X844100Y673185D01*
Y674816D01*
X843476Y676322D01*
X842322Y677476D01*
X840816Y678100D01*
D02*
G37*
G36*
X822816D02*
X821184D01*
X819678Y677476D01*
X818524Y676322D01*
X817900Y674816D01*
Y673185D01*
X818524Y671677D01*
X819678Y670524D01*
X821184Y669900D01*
X822816D01*
X824323Y670524D01*
X825476Y671677D01*
X826100Y673185D01*
Y674816D01*
X825476Y676322D01*
X824323Y677476D01*
X822816Y678100D01*
D02*
G37*
G36*
X295816D02*
X294184D01*
X292677Y677476D01*
X291524Y676322D01*
X290900Y674816D01*
Y673185D01*
X291524Y671677D01*
X292677Y670524D01*
X294184Y669900D01*
X295816D01*
X297322Y670524D01*
X298476Y671677D01*
X299100Y673185D01*
Y674816D01*
X298476Y676322D01*
X297322Y677476D01*
X295816Y678100D01*
D02*
G37*
G36*
X611815Y674100D02*
X610185D01*
X608677Y673476D01*
X607524Y672322D01*
X606900Y670816D01*
Y669184D01*
X607524Y667678D01*
X607895Y667307D01*
X608453Y666000D01*
X607895Y664693D01*
X607524Y664322D01*
X606900Y662815D01*
Y662712D01*
X604900Y661898D01*
X604322Y662476D01*
X602816Y663100D01*
X601184D01*
X599678Y662476D01*
X598524Y661322D01*
X597900Y659816D01*
Y658185D01*
X598524Y656678D01*
X599678Y655524D01*
X601184Y654900D01*
X602816D01*
X604322Y655524D01*
X605432Y656634D01*
X605485Y656679D01*
X607804Y657073D01*
X607981Y656894D01*
X607895Y656693D01*
X607524Y656322D01*
X606900Y654816D01*
Y653184D01*
X607449Y651860D01*
X607524Y651677D01*
X607525Y651677D01*
X608654Y650500D01*
X607525Y649323D01*
X607524Y649323D01*
X607449Y649140D01*
X606900Y647815D01*
Y646184D01*
X607524Y644678D01*
X608677Y643524D01*
X610185Y642900D01*
X611815D01*
X613322Y643524D01*
X614476Y644678D01*
X615100Y646184D01*
Y647815D01*
X614551Y649140D01*
X614476Y649323D01*
X614475Y649323D01*
X613346Y650500D01*
X614475Y651677D01*
X614476Y651677D01*
X614551Y651860D01*
X615100Y653184D01*
Y654816D01*
X614476Y656322D01*
X614105Y656693D01*
X614019Y656894D01*
X614196Y657073D01*
X616515Y656679D01*
X616568Y656634D01*
X617678Y655524D01*
X619184Y654900D01*
X620816D01*
X622323Y655524D01*
X623476Y656678D01*
X624100Y658185D01*
Y659816D01*
X623476Y661322D01*
X622323Y662476D01*
X620816Y663100D01*
X619184D01*
X617678Y662476D01*
X617100Y661898D01*
X615100Y662712D01*
Y662815D01*
X614476Y664322D01*
X614105Y664693D01*
X613546Y666000D01*
X614105Y667307D01*
X614476Y667678D01*
X615100Y669184D01*
Y670816D01*
X614476Y672322D01*
X613322Y673476D01*
X611815Y674100D01*
D02*
G37*
G36*
X831815Y672100D02*
X830184D01*
X828678Y671476D01*
X827524Y670322D01*
X826900Y668816D01*
Y667185D01*
X827524Y665678D01*
X827895Y665307D01*
X828454Y664000D01*
X827895Y662693D01*
X827524Y662322D01*
X827167Y661460D01*
X825391Y660860D01*
X824924Y660874D01*
X824822Y660976D01*
X823316Y661600D01*
X821684D01*
X820178Y660976D01*
X819024Y659822D01*
X818400Y658316D01*
Y656684D01*
X819024Y655178D01*
X820178Y654024D01*
X821684Y653400D01*
X823316D01*
X824822Y654024D01*
X825052Y654254D01*
X825287Y654198D01*
X826900Y653273D01*
Y652184D01*
X827449Y650860D01*
X827524Y650677D01*
X827525Y650677D01*
X828654Y649500D01*
X827525Y648323D01*
X827524Y648323D01*
X827449Y648140D01*
X826900Y646815D01*
Y645184D01*
X827524Y643678D01*
X828678Y642524D01*
X830184Y641900D01*
X831815D01*
X833322Y642524D01*
X834476Y643678D01*
X835100Y645184D01*
Y646815D01*
X834551Y648140D01*
X834476Y648323D01*
X834475Y648323D01*
X833346Y649500D01*
X834475Y650677D01*
X834476Y650677D01*
X834551Y650860D01*
X835100Y652184D01*
Y653788D01*
X835184Y653867D01*
X836825Y654876D01*
X837678Y654024D01*
X839184Y653400D01*
X840816D01*
X842322Y654024D01*
X843476Y655178D01*
X844100Y656684D01*
Y658316D01*
X843476Y659822D01*
X842322Y660976D01*
X840816Y661600D01*
X839184D01*
X837678Y660976D01*
X837100Y660398D01*
X835976Y660633D01*
X835018Y661014D01*
X834476Y662322D01*
X834105Y662693D01*
X833547Y664000D01*
X834105Y665307D01*
X834476Y665678D01*
X835100Y667185D01*
Y668816D01*
X834476Y670322D01*
X833322Y671476D01*
X831815Y672100D01*
D02*
G37*
G36*
X454815Y653100D02*
X453185D01*
X451678Y652476D01*
X451000Y651798D01*
X450322Y652476D01*
X448815Y653100D01*
X447184D01*
X445860Y652551D01*
X445677Y652476D01*
X445677Y652475D01*
X444500Y651346D01*
X443323Y652475D01*
X443322Y652476D01*
X443140Y652551D01*
X441816Y653100D01*
X440185D01*
X438678Y652476D01*
X437524Y651322D01*
X436900Y649816D01*
Y648185D01*
X437524Y646677D01*
X438678Y645524D01*
X440185Y644900D01*
X441816D01*
X443140Y645449D01*
X443322Y645524D01*
X443323Y645525D01*
X444500Y646654D01*
X445677Y645525D01*
X445677Y645524D01*
X445860Y645449D01*
X447184Y644900D01*
X448815D01*
X450322Y645524D01*
X451000Y646202D01*
X451678Y645524D01*
X453185Y644900D01*
X454815D01*
X456323Y645524D01*
X457476Y646677D01*
X458100Y648185D01*
Y649816D01*
X457476Y651322D01*
X456323Y652476D01*
X454815Y653100D01*
D02*
G37*
G36*
X295816Y658100D02*
X294184D01*
X292677Y657476D01*
X291524Y656322D01*
X290900Y654816D01*
Y653184D01*
X291524Y651677D01*
X292677Y650524D01*
X294184Y649900D01*
X295816D01*
X297322Y650524D01*
X298476Y651677D01*
X299100Y653184D01*
Y654816D01*
X298476Y656322D01*
X297322Y657476D01*
X295816Y658100D01*
D02*
G37*
G36*
X661815Y655100D02*
X660184D01*
X658678Y654476D01*
X657524Y653322D01*
X656900Y651815D01*
Y650184D01*
X657524Y648678D01*
X658678Y647524D01*
X660184Y646900D01*
X661815D01*
X663322Y647524D01*
X664476Y648678D01*
X665100Y650184D01*
Y651815D01*
X664476Y653322D01*
X663322Y654476D01*
X661815Y655100D01*
D02*
G37*
G36*
X545816D02*
X544184D01*
X542678Y654476D01*
X541524Y653322D01*
X540900Y651815D01*
Y650184D01*
X541524Y648678D01*
X542678Y647524D01*
X544184Y646900D01*
X545816D01*
X547323Y647524D01*
X548476Y648678D01*
X549100Y650184D01*
Y651815D01*
X548476Y653322D01*
X547323Y654476D01*
X545816Y655100D01*
D02*
G37*
G36*
X766815Y654100D02*
X765184D01*
X763678Y653476D01*
X762524Y652322D01*
X761900Y650816D01*
Y649184D01*
X762524Y647678D01*
X763678Y646524D01*
X765184Y645900D01*
X766815D01*
X768322Y646524D01*
X769476Y647678D01*
X770100Y649184D01*
Y650816D01*
X769476Y652322D01*
X768322Y653476D01*
X766815Y654100D01*
D02*
G37*
G36*
X580816Y649100D02*
X579184D01*
X577678Y648476D01*
X576524Y647322D01*
X575900Y645816D01*
Y644184D01*
X576524Y642678D01*
X577678Y641524D01*
X579184Y640900D01*
X580816D01*
X582323Y641524D01*
X583476Y642678D01*
X584100Y644184D01*
Y645816D01*
X583476Y647322D01*
X582323Y648476D01*
X580816Y649100D01*
D02*
G37*
G36*
X802815Y648100D02*
X801184D01*
X799678Y647476D01*
X798524Y646322D01*
X797900Y644816D01*
Y643185D01*
X798524Y641678D01*
X799678Y640524D01*
X801184Y639900D01*
X802815D01*
X804322Y640524D01*
X805476Y641678D01*
X806100Y643185D01*
Y644816D01*
X805476Y646322D01*
X804322Y647476D01*
X802815Y648100D01*
D02*
G37*
G36*
X323815D02*
X322184D01*
X320677Y647476D01*
X319524Y646322D01*
X318900Y644816D01*
Y643185D01*
X319524Y641678D01*
X320677Y640524D01*
X322184Y639900D01*
X323815D01*
X325322Y640524D01*
X326476Y641678D01*
X327100Y643185D01*
Y644816D01*
X326476Y646322D01*
X325322Y647476D01*
X323815Y648100D01*
D02*
G37*
G36*
X695816Y646600D02*
X694184D01*
X692678Y645976D01*
X691524Y644822D01*
X690900Y643316D01*
Y641684D01*
X691524Y640178D01*
X692678Y639024D01*
X694184Y638400D01*
X695816D01*
X697322Y639024D01*
X698476Y640178D01*
X699100Y641684D01*
Y643316D01*
X698476Y644822D01*
X697322Y645976D01*
X695816Y646600D01*
D02*
G37*
G36*
X294816Y641100D02*
X293185D01*
X291677Y640476D01*
X290524Y639322D01*
X289900Y637816D01*
Y636185D01*
X290524Y634678D01*
X291677Y633524D01*
X293185Y632900D01*
X294816D01*
X296322Y633524D01*
X297476Y634678D01*
X298100Y636185D01*
Y637816D01*
X297476Y639322D01*
X296322Y640476D01*
X294816Y641100D01*
D02*
G37*
G36*
X401816Y638100D02*
X400185D01*
X398678Y637476D01*
X397524Y636323D01*
X396900Y634816D01*
X395184Y634100D01*
X393677Y633476D01*
X392524Y632323D01*
X391988Y631029D01*
X391815Y631100D01*
X390185D01*
X388678Y630476D01*
X387524Y629322D01*
X386900Y627816D01*
Y626184D01*
X387524Y624678D01*
X388678Y623524D01*
X390185Y622900D01*
X391815D01*
X393322Y623524D01*
X394476Y624678D01*
X395012Y625971D01*
X395185Y625900D01*
X396815D01*
X398322Y626524D01*
X399476Y627678D01*
X400100Y629184D01*
X401816Y629900D01*
X403322Y630524D01*
X404476Y631678D01*
X405100Y633185D01*
Y634815D01*
X404476Y636323D01*
X403322Y637476D01*
X401816Y638100D01*
D02*
G37*
G36*
X441065Y635350D02*
X439435D01*
X437928Y634726D01*
X436774Y633572D01*
X436150Y632066D01*
Y630434D01*
X436774Y628927D01*
X437928Y627774D01*
X439435Y627150D01*
X441065D01*
X442572Y627774D01*
X443726Y628927D01*
X444350Y630434D01*
Y632066D01*
X443726Y633572D01*
X442572Y634726D01*
X441065Y635350D01*
D02*
G37*
G36*
X516816Y616100D02*
X515185D01*
X513678Y615476D01*
X512524Y614322D01*
X511900Y612816D01*
Y611185D01*
X512524Y609678D01*
X513678Y608524D01*
X515185Y607900D01*
X516816D01*
X518322Y608524D01*
X519476Y609678D01*
X520100Y611185D01*
Y612816D01*
X519476Y614322D01*
X518322Y615476D01*
X516816Y616100D01*
D02*
G37*
G36*
X477816Y631100D02*
X476184D01*
X474678Y630476D01*
X473524Y629322D01*
X472900Y627816D01*
Y626184D01*
X473524Y624678D01*
X474678Y623524D01*
X476184Y622900D01*
X477820Y622820D01*
X477900Y621184D01*
X478524Y619678D01*
X479678Y618524D01*
X481184Y617900D01*
X482820Y617820D01*
X482900Y616184D01*
X483524Y614678D01*
X484678Y613524D01*
X486184Y612900D01*
X487820Y612820D01*
X487900Y611184D01*
X488524Y609678D01*
X489678Y608524D01*
X491185Y607900D01*
X492816D01*
X494323Y608524D01*
X495476Y609678D01*
X496100Y611185D01*
Y612816D01*
X495476Y614322D01*
X494323Y615476D01*
X492816Y616100D01*
X491180Y616180D01*
X491100Y617816D01*
X490476Y619323D01*
X489322Y620476D01*
X487816Y621100D01*
X486180Y621180D01*
X486100Y622816D01*
X485476Y624322D01*
X484322Y625476D01*
X482816Y626100D01*
X481180Y626180D01*
X481100Y627816D01*
X480476Y629322D01*
X479322Y630476D01*
X477816Y631100D01*
D02*
G37*
G36*
X889816Y613100D02*
X888185D01*
X886678Y612476D01*
X885524Y611323D01*
X884900Y609815D01*
Y608185D01*
X885524Y606678D01*
X886678Y605524D01*
X888185Y604900D01*
X889816D01*
X891322Y605524D01*
X892476Y606678D01*
X893100Y608185D01*
Y609815D01*
X892476Y611323D01*
X891322Y612476D01*
X889816Y613100D01*
D02*
G37*
G36*
X333815Y600100D02*
X332184D01*
X330677Y599476D01*
X329524Y598322D01*
X328900Y596815D01*
Y595185D01*
X329524Y593678D01*
X330677Y592524D01*
X332184Y591900D01*
X333815D01*
X335322Y592524D01*
X336476Y593678D01*
X337100Y595185D01*
Y596815D01*
X336476Y598322D01*
X335322Y599476D01*
X333815Y600100D01*
D02*
G37*
G36*
X436816Y591100D02*
X435185D01*
X433678Y590476D01*
X432524Y589322D01*
X431900Y587816D01*
Y586185D01*
X432524Y584678D01*
X433678Y583524D01*
X435185Y582900D01*
X436816D01*
X438322Y583524D01*
X439476Y584678D01*
X440100Y586185D01*
Y587816D01*
X439476Y589322D01*
X438322Y590476D01*
X436816Y591100D01*
D02*
G37*
G36*
X455816Y578100D02*
X454184D01*
X452678Y577476D01*
X451524Y576322D01*
X450900Y574815D01*
Y573185D01*
X451524Y571678D01*
X452202Y571000D01*
X451524Y570322D01*
X450900Y568816D01*
Y567184D01*
X451524Y565678D01*
X452678Y564524D01*
X454184Y563900D01*
X455816D01*
X457323Y564524D01*
X458476Y565678D01*
X459100Y567184D01*
Y568816D01*
X458476Y570322D01*
X457798Y571000D01*
X458476Y571678D01*
X459100Y573185D01*
Y574815D01*
X458476Y576322D01*
X457323Y577476D01*
X455816Y578100D01*
D02*
G37*
G36*
X510816D02*
X509184D01*
X507677Y577476D01*
X506524Y576322D01*
X505900Y574815D01*
Y573185D01*
X506524Y571678D01*
X507677Y570524D01*
X507686Y570484D01*
X507524Y570322D01*
X506900Y568816D01*
Y567184D01*
X507524Y565678D01*
X508524Y564322D01*
X507900Y562816D01*
Y561185D01*
X508524Y559678D01*
X509678Y558524D01*
X511184Y557900D01*
X512816D01*
X514322Y558524D01*
X515476Y559678D01*
X516100Y561185D01*
Y562816D01*
X515476Y564322D01*
X514476Y565678D01*
X515100Y567184D01*
Y568816D01*
X514476Y570322D01*
X513322Y571476D01*
X513314Y571516D01*
X513476Y571678D01*
X514100Y573185D01*
Y574815D01*
X513476Y576322D01*
X512322Y577476D01*
X510816Y578100D01*
D02*
G37*
G36*
X941251Y644500D02*
X938749D01*
X936333Y643853D01*
X934167Y642602D01*
X932398Y640833D01*
X931147Y638667D01*
X930500Y636251D01*
Y633749D01*
X931147Y631333D01*
X932398Y629167D01*
X934167Y627398D01*
X936333Y626147D01*
X936752Y626035D01*
Y623965D01*
X936333Y623853D01*
X934167Y622602D01*
X932398Y620833D01*
X931147Y618667D01*
X930500Y616251D01*
Y613749D01*
X931147Y611333D01*
X932398Y609167D01*
X934167Y607398D01*
X936333Y606147D01*
X936752Y606035D01*
Y603965D01*
X936333Y603853D01*
X934167Y602602D01*
X932398Y600833D01*
X931147Y598667D01*
X930500Y596251D01*
Y593749D01*
X931147Y591333D01*
X932398Y589167D01*
X934167Y587398D01*
X936333Y586147D01*
X936752Y586035D01*
Y583965D01*
X936333Y583853D01*
X934167Y582602D01*
X932398Y580833D01*
X931147Y578667D01*
X930500Y576251D01*
Y573749D01*
X931147Y571333D01*
X932398Y569167D01*
X934167Y567398D01*
X936333Y566147D01*
X936752Y566035D01*
Y563965D01*
X936333Y563853D01*
X934167Y562602D01*
X932398Y560833D01*
X931147Y558667D01*
X930835Y557500D01*
X940000D01*
X949165D01*
X948853Y558667D01*
X947602Y560833D01*
X945833Y562602D01*
X943667Y563853D01*
X943248Y563965D01*
Y566035D01*
X943667Y566147D01*
X945833Y567398D01*
X947602Y569167D01*
X948853Y571333D01*
X949500Y573749D01*
Y576251D01*
X948853Y578667D01*
X947602Y580833D01*
X945833Y582602D01*
X943667Y583853D01*
X943248Y583965D01*
Y586035D01*
X943667Y586147D01*
X945833Y587398D01*
X947602Y589167D01*
X948853Y591333D01*
X949500Y593749D01*
Y596251D01*
X948853Y598667D01*
X947602Y600833D01*
X945833Y602602D01*
X943667Y603853D01*
X943248Y603965D01*
Y606035D01*
X943667Y606147D01*
X945833Y607398D01*
X947602Y609167D01*
X948853Y611333D01*
X949500Y613749D01*
Y616251D01*
X948853Y618667D01*
X947602Y620833D01*
X945833Y622602D01*
X943667Y623853D01*
X943248Y623965D01*
Y626035D01*
X943667Y626147D01*
X945833Y627398D01*
X947602Y629167D01*
X948853Y631333D01*
X949500Y633749D01*
Y636251D01*
X948853Y638667D01*
X947602Y640833D01*
X945833Y642602D01*
X943667Y643853D01*
X941251Y644500D01*
D02*
G37*
G36*
X439816Y558100D02*
X438185D01*
X436678Y557476D01*
X435524Y556323D01*
X434900Y554816D01*
Y553185D01*
X435524Y551678D01*
X436678Y550524D01*
X438185Y549900D01*
X439816D01*
X441323Y550524D01*
X442476Y551678D01*
X443100Y553185D01*
Y554816D01*
X442476Y556323D01*
X441323Y557476D01*
X439816Y558100D01*
D02*
G37*
G36*
X739816Y557100D02*
X738185D01*
X736677Y556476D01*
X735524Y555322D01*
X734900Y553816D01*
Y552184D01*
X735524Y550678D01*
X736677Y549524D01*
X738185Y548900D01*
X739816D01*
X741322Y549524D01*
X742476Y550678D01*
X743100Y552184D01*
Y553816D01*
X742476Y555322D01*
X741322Y556476D01*
X739816Y557100D01*
D02*
G37*
G36*
X318815Y556100D02*
X317185D01*
X315678Y555476D01*
X314524Y554322D01*
X313900Y552816D01*
Y551184D01*
X314524Y549678D01*
X315678Y548524D01*
X317185Y547900D01*
X318815D01*
X320322Y548524D01*
X321476Y549678D01*
X322100Y551184D01*
Y552816D01*
X321476Y554322D01*
X320322Y555476D01*
X318815Y556100D01*
D02*
G37*
G36*
X746815Y548100D02*
X745184D01*
X743678Y547476D01*
X742524Y546323D01*
X741900Y544815D01*
Y543713D01*
X740291Y542803D01*
X740052Y542746D01*
X739322Y543476D01*
X737815Y544100D01*
X736184D01*
X734678Y543476D01*
X733524Y542323D01*
X732900Y540816D01*
Y539184D01*
X733524Y537678D01*
X734678Y536524D01*
X736184Y535900D01*
X737815D01*
X739322Y536524D01*
X740476Y537678D01*
X741100Y539184D01*
Y540288D01*
X742709Y541197D01*
X742948Y541254D01*
X743678Y540524D01*
X745184Y539900D01*
X746815D01*
X748323Y540524D01*
X749476Y541678D01*
X750100Y543185D01*
Y544815D01*
X749476Y546323D01*
X748323Y547476D01*
X746815Y548100D01*
D02*
G37*
G36*
X581316Y548850D02*
X579684D01*
X578178Y548226D01*
X577024Y547072D01*
X576400Y545565D01*
Y543934D01*
X577024Y542428D01*
X577677Y540976D01*
X576524Y539822D01*
X575900Y538316D01*
Y536684D01*
X576524Y535177D01*
X577678Y534024D01*
X579184Y533400D01*
X580816D01*
X582323Y534024D01*
X583476Y535177D01*
X584086Y536650D01*
X585066D01*
X586572Y537274D01*
X587726Y538428D01*
X588350Y539935D01*
Y541566D01*
X587726Y543072D01*
X586572Y544226D01*
X585066Y544850D01*
X584600D01*
Y545565D01*
X583976Y547072D01*
X582822Y548226D01*
X581316Y548850D01*
D02*
G37*
G36*
X870796Y534000D02*
X869204D01*
X867734Y533391D01*
X866609Y532266D01*
X866000Y530796D01*
Y529204D01*
X866609Y527734D01*
X867734Y526609D01*
X869204Y526000D01*
X870796D01*
X872266Y526609D01*
X873391Y527734D01*
X874000Y529204D01*
Y530796D01*
X873391Y532266D01*
X872266Y533391D01*
X870796Y534000D01*
D02*
G37*
G36*
X450816Y531600D02*
X449184D01*
X447677Y530976D01*
X446524Y529823D01*
X445900Y528316D01*
Y526684D01*
X446524Y525178D01*
X447677Y524024D01*
X449184Y523400D01*
X450816D01*
X452322Y524024D01*
X453476Y525178D01*
X454100Y526684D01*
Y528316D01*
X453476Y529823D01*
X452322Y530976D01*
X450816Y531600D01*
D02*
G37*
G36*
X818316Y529100D02*
X816684D01*
X815178Y528476D01*
X814024Y527322D01*
X813400Y525816D01*
Y524184D01*
X814024Y522677D01*
X815178Y521524D01*
X816684Y520900D01*
X818316D01*
X819822Y521524D01*
X820976Y522677D01*
X821600Y524184D01*
Y525816D01*
X820976Y527322D01*
X819822Y528476D01*
X818316Y529100D01*
D02*
G37*
G36*
X736815Y528100D02*
X735184D01*
X733678Y527476D01*
X732524Y526323D01*
X731900Y524816D01*
Y523185D01*
X732524Y521678D01*
X733678Y520524D01*
X735184Y519900D01*
X736815D01*
X738323Y520524D01*
X739476Y521678D01*
X740100Y523185D01*
Y524816D01*
X739476Y526323D01*
X738323Y527476D01*
X736815Y528100D01*
D02*
G37*
G36*
X766316Y524350D02*
X764685D01*
X763178Y523726D01*
X762024Y522572D01*
X761400Y521065D01*
Y519434D01*
X762024Y517928D01*
X763178Y516774D01*
X764685Y516150D01*
X766316D01*
X767822Y516774D01*
X768976Y517928D01*
X769600Y519434D01*
Y521065D01*
X768976Y522572D01*
X767822Y523726D01*
X766316Y524350D01*
D02*
G37*
G36*
X878796Y523000D02*
X877204D01*
X875734Y522391D01*
X874609Y521266D01*
X874000Y519796D01*
Y518204D01*
X874609Y516734D01*
X875734Y515609D01*
X877204Y515000D01*
X878796D01*
X880266Y515609D01*
X881391Y516734D01*
X882000Y518204D01*
Y519796D01*
X881391Y521266D01*
X880266Y522391D01*
X878796Y523000D01*
D02*
G37*
G36*
X300816Y514100D02*
X299184D01*
X297678Y513476D01*
X296524Y512322D01*
X295900Y510816D01*
Y509184D01*
X296524Y507677D01*
X297678Y506524D01*
X299184Y505900D01*
X300816D01*
X302323Y506524D01*
X303476Y507677D01*
X304100Y509184D01*
Y510816D01*
X303476Y512322D01*
X302323Y513476D01*
X300816Y514100D01*
D02*
G37*
G36*
X949165Y552500D02*
X940000D01*
X930835D01*
X931147Y551333D01*
X932398Y549167D01*
X934167Y547398D01*
X936333Y546147D01*
X936752Y546035D01*
Y543965D01*
X936333Y543853D01*
X934167Y542602D01*
X932398Y540833D01*
X931147Y538667D01*
X930500Y536251D01*
Y533749D01*
X931147Y531333D01*
X932398Y529167D01*
X934167Y527398D01*
X935723Y526500D01*
X935187Y524500D01*
X930500D01*
Y505500D01*
X949500D01*
Y524500D01*
X944813D01*
X944277Y526500D01*
X945833Y527398D01*
X947602Y529167D01*
X948853Y531333D01*
X949500Y533749D01*
Y536251D01*
X948853Y538667D01*
X947602Y540833D01*
X945833Y542602D01*
X943667Y543853D01*
X943248Y543965D01*
Y546035D01*
X943667Y546147D01*
X945833Y547398D01*
X947602Y549167D01*
X948853Y551333D01*
X949165Y552500D01*
D02*
G37*
G36*
X436816Y504100D02*
X435185D01*
X433678Y503476D01*
X432524Y502322D01*
X431900Y500816D01*
Y499184D01*
X432524Y497677D01*
X433678Y496524D01*
X435185Y495900D01*
X436816D01*
X438322Y496524D01*
X439476Y497677D01*
X440100Y499184D01*
Y500816D01*
X439476Y502322D01*
X438322Y503476D01*
X436816Y504100D01*
D02*
G37*
G36*
X845816Y510100D02*
X844184D01*
X842678Y509476D01*
X841524Y508322D01*
X840900Y506815D01*
Y505185D01*
X841524Y503678D01*
X842654Y502500D01*
X841524Y501322D01*
X840900Y499815D01*
Y498184D01*
X841524Y496678D01*
X842678Y495524D01*
X844184Y494900D01*
X845816D01*
X847322Y495524D01*
X848476Y496678D01*
X849100Y498184D01*
Y499815D01*
X848476Y501322D01*
X847346Y502500D01*
X848476Y503678D01*
X849100Y505185D01*
Y506815D01*
X848476Y508322D01*
X847322Y509476D01*
X845816Y510100D01*
D02*
G37*
G36*
X746566Y496850D02*
X744934D01*
X743428Y496226D01*
X742274Y495072D01*
X741650Y493565D01*
Y491934D01*
X742274Y490428D01*
X743428Y489274D01*
X744934Y488650D01*
X746566D01*
X748073Y489274D01*
X749226Y490428D01*
X749850Y491934D01*
Y493565D01*
X749226Y495072D01*
X748073Y496226D01*
X746566Y496850D01*
D02*
G37*
G36*
X573311Y484595D02*
X571680D01*
X571545Y484539D01*
X562500D01*
X562500Y484539D01*
X561720Y484384D01*
X561058Y483942D01*
X553558Y476442D01*
X553116Y475780D01*
X552961Y475000D01*
Y445000D01*
X553116Y444220D01*
X553558Y443558D01*
X553558Y443558D01*
X561058Y436058D01*
X561058Y436058D01*
X561720Y435616D01*
X562500Y435461D01*
X575000D01*
X575000Y435461D01*
X575780Y435616D01*
X576442Y436058D01*
X578942Y438558D01*
X579384Y439220D01*
X579539Y440000D01*
Y453702D01*
X579539Y453702D01*
X579384Y454482D01*
X578942Y455144D01*
X578942Y455144D01*
X578753Y455333D01*
X578439Y456090D01*
Y456910D01*
X578753Y457667D01*
X578942Y457856D01*
X579384Y458518D01*
X579539Y459298D01*
Y461331D01*
X579498Y461539D01*
X579495Y461752D01*
X579421Y461926D01*
X579384Y462111D01*
X579266Y462288D01*
X579182Y462484D01*
X579047Y462616D01*
X578942Y462773D01*
X578765Y462891D01*
X578613Y463040D01*
X578152Y463340D01*
X577992Y463797D01*
Y465203D01*
X578152Y465660D01*
X578613Y465960D01*
X578765Y466109D01*
X578942Y466227D01*
X579047Y466384D01*
X579182Y466516D01*
X579266Y466712D01*
X579384Y466889D01*
X579421Y467074D01*
X579495Y467248D01*
X579498Y467461D01*
X579539Y467669D01*
Y469702D01*
X579539Y469702D01*
X579384Y470482D01*
X578942Y471144D01*
X578942Y471144D01*
X578753Y471333D01*
X578439Y472090D01*
Y472910D01*
X578753Y473667D01*
X578942Y473856D01*
X579384Y474518D01*
X579539Y475298D01*
Y480000D01*
X579539Y480000D01*
X579384Y480780D01*
X578942Y481442D01*
X576442Y483942D01*
X575780Y484384D01*
X575000Y484539D01*
X573446D01*
X573311Y484595D01*
D02*
G37*
G36*
X557315Y492600D02*
X555685D01*
X554178Y491976D01*
X553024Y490822D01*
X552400Y489315D01*
Y487684D01*
X553024Y486177D01*
X554178Y485024D01*
X555685Y484400D01*
X557315D01*
X558823Y485024D01*
X559976Y486177D01*
X560600Y487684D01*
Y489315D01*
X559976Y490822D01*
X558823Y491976D01*
X557315Y492600D01*
D02*
G37*
G36*
X803316Y491600D02*
X801684D01*
X800178Y490976D01*
X799024Y489822D01*
X798400Y488316D01*
Y486684D01*
X799024Y485177D01*
X800178Y484024D01*
X801684Y483400D01*
X803316D01*
X804822Y484024D01*
X805976Y485177D01*
X806600Y486684D01*
Y488316D01*
X805976Y489822D01*
X804822Y490976D01*
X803316Y491600D01*
D02*
G37*
G36*
X589320Y484605D02*
X587689D01*
X586182Y483981D01*
X585029Y482827D01*
X584405Y481320D01*
Y479689D01*
X585029Y478182D01*
X586182Y477029D01*
X587689Y476405D01*
X589320D01*
X590827Y477029D01*
X591981Y478182D01*
X592605Y479689D01*
Y481320D01*
X591981Y482827D01*
X590827Y483981D01*
X589320Y484605D01*
D02*
G37*
G36*
X391815Y489100D02*
X390185D01*
X388678Y488476D01*
X387524Y487322D01*
X386900Y485816D01*
Y484184D01*
X387524Y482677D01*
X388678Y481524D01*
X390185Y480900D01*
X391819Y480820D01*
X391900Y479184D01*
X392524Y477678D01*
X393677Y476524D01*
X395185Y475900D01*
X396819Y475820D01*
X396900Y474184D01*
X397524Y472677D01*
X398678Y471524D01*
X400185Y470900D01*
X401816D01*
X403322Y471524D01*
X404476Y472677D01*
X405100Y474184D01*
Y475816D01*
X404476Y477322D01*
X403322Y478476D01*
X401816Y479100D01*
X400181Y479180D01*
X400100Y480816D01*
X399476Y482323D01*
X398322Y483476D01*
X396815Y484100D01*
X395181Y484180D01*
X395100Y485816D01*
X394476Y487322D01*
X393322Y488476D01*
X391815Y489100D01*
D02*
G37*
G36*
X465565Y477850D02*
X463935D01*
X462427Y477226D01*
X461274Y476073D01*
X460650Y474566D01*
Y472934D01*
X461274Y471428D01*
X462427Y470274D01*
X463935Y469650D01*
X465565D01*
X467072Y470274D01*
X468226Y471428D01*
X468850Y472934D01*
Y474566D01*
X468226Y476073D01*
X467072Y477226D01*
X465565Y477850D01*
D02*
G37*
G36*
X914816Y476100D02*
X913185D01*
X911678Y475476D01*
X910524Y474322D01*
X909900Y472816D01*
Y471185D01*
X910524Y469678D01*
X911678Y468524D01*
X913185Y467900D01*
X914816D01*
X916322Y468524D01*
X917476Y469678D01*
X918100Y471185D01*
Y472816D01*
X917476Y474322D01*
X916322Y475476D01*
X914816Y476100D01*
D02*
G37*
G36*
X284816Y473100D02*
X283184D01*
X281677Y472476D01*
X280524Y471323D01*
X279900Y469815D01*
Y468185D01*
X280524Y466678D01*
X281677Y465524D01*
X283184Y464900D01*
X284816D01*
X286322Y465524D01*
X287476Y466678D01*
X288100Y468185D01*
Y469815D01*
X287476Y471323D01*
X286322Y472476D01*
X284816Y473100D01*
D02*
G37*
G36*
X233316Y474100D02*
X231684D01*
X230177Y473476D01*
X229024Y472322D01*
X228400Y470816D01*
Y469184D01*
X229024Y467678D01*
X229145Y467557D01*
X229998Y466250D01*
X229145Y464943D01*
X229024Y464822D01*
X228400Y463316D01*
Y461684D01*
X229024Y460177D01*
X230177Y459024D01*
X231684Y458400D01*
X233316D01*
X234822Y459024D01*
X235976Y460177D01*
X236600Y461684D01*
Y462471D01*
X236623Y462504D01*
X238421Y463700D01*
X238448Y463705D01*
X239184Y463400D01*
X240816D01*
X242323Y464024D01*
X243476Y465178D01*
X244100Y466684D01*
Y468316D01*
X243476Y469823D01*
X242323Y470976D01*
X240816Y471600D01*
X239184D01*
X238408Y471278D01*
X237560Y471061D01*
X236040Y472167D01*
X235976Y472322D01*
X234822Y473476D01*
X233316Y474100D01*
D02*
G37*
G36*
X597315Y468600D02*
X595684D01*
X594178Y467976D01*
X593024Y466822D01*
X592400Y465316D01*
Y463684D01*
X593024Y462178D01*
X594178Y461024D01*
X595684Y460400D01*
X597315D01*
X598822Y461024D01*
X599976Y462178D01*
X600600Y463684D01*
Y465316D01*
X599976Y466822D01*
X598822Y467976D01*
X597315Y468600D01*
D02*
G37*
G36*
X660816Y488100D02*
X659184D01*
X657678Y487476D01*
X656524Y486322D01*
X655900Y484815D01*
Y483185D01*
X654606Y481860D01*
X653678Y481476D01*
X652524Y480322D01*
X651900Y478816D01*
Y477184D01*
X652524Y475678D01*
X653678Y474524D01*
X655184Y473900D01*
X655304D01*
X655702Y471900D01*
X654678Y471476D01*
X653524Y470322D01*
X652900Y468815D01*
Y467184D01*
X653524Y465678D01*
X654678Y464524D01*
X656184Y463900D01*
X657820Y463820D01*
X657900Y462184D01*
X658524Y460677D01*
X659678Y459524D01*
X661184Y458900D01*
X662815D01*
X664322Y459524D01*
X665476Y460677D01*
X666100Y462184D01*
Y463815D01*
X665476Y465322D01*
X664322Y466476D01*
X663057Y467000D01*
X662931Y467993D01*
Y468007D01*
X663057Y469000D01*
X664322Y469524D01*
X665476Y470677D01*
X666100Y472184D01*
Y473815D01*
X665476Y475322D01*
X664322Y476476D01*
X662815Y477100D01*
X662234D01*
X661608Y477773D01*
X660972Y479032D01*
X661416Y480149D01*
X662322Y480524D01*
X663476Y481678D01*
X664100Y483185D01*
Y484815D01*
X663476Y486322D01*
X662322Y487476D01*
X660816Y488100D01*
D02*
G37*
G36*
X880816Y462100D02*
X879184D01*
X877678Y461476D01*
X876524Y460322D01*
X875900Y458815D01*
Y457184D01*
X876524Y455677D01*
X877678Y454524D01*
X879184Y453900D01*
X880816D01*
X882322Y454524D01*
X883476Y455677D01*
X884100Y457184D01*
Y458815D01*
X883476Y460322D01*
X882322Y461476D01*
X880816Y462100D01*
D02*
G37*
G36*
X704816Y461100D02*
X703185D01*
X701678Y460476D01*
X700524Y459322D01*
X699900Y457816D01*
Y456185D01*
X700524Y454678D01*
X701678Y453524D01*
X703185Y452900D01*
X704816D01*
X706322Y453524D01*
X707476Y454678D01*
X708100Y456185D01*
Y457816D01*
X707476Y459322D01*
X706322Y460476D01*
X704816Y461100D01*
D02*
G37*
G36*
X605316Y484590D02*
X603684D01*
X602178Y483966D01*
X601024Y482813D01*
X600400Y481306D01*
Y479675D01*
X601024Y478168D01*
X601390Y477802D01*
X601954Y476495D01*
X601390Y475189D01*
X601024Y474822D01*
X600400Y473316D01*
Y471684D01*
X601024Y470177D01*
X602178Y469024D01*
X603684Y468400D01*
X605316D01*
X606822Y469024D01*
X607193Y469395D01*
X608500Y469953D01*
X609520Y469518D01*
X609956Y468506D01*
X609395Y467193D01*
X609029Y466827D01*
X608405Y465320D01*
Y463689D01*
X609029Y462182D01*
X609400Y461811D01*
X609956Y460499D01*
X609400Y459198D01*
X609024Y458822D01*
X608400Y457315D01*
Y455684D01*
X609024Y454178D01*
X609395Y453807D01*
X609956Y452506D01*
X609395Y451193D01*
X609029Y450827D01*
X608405Y449320D01*
Y447689D01*
X609029Y446182D01*
X609400Y445811D01*
X609956Y444499D01*
X609400Y443198D01*
X609024Y442822D01*
X608400Y441316D01*
Y439684D01*
X609024Y438178D01*
X609395Y437807D01*
X609953Y436500D01*
X609395Y435193D01*
X609024Y434822D01*
X608400Y433316D01*
Y431684D01*
X609024Y430177D01*
X609072Y430130D01*
X609056Y429181D01*
X608210Y427621D01*
X607670Y427401D01*
X607193Y427605D01*
X606822Y427976D01*
X605316Y428600D01*
X603684D01*
X602178Y427976D01*
X601807Y427605D01*
X600500Y427047D01*
X599193Y427605D01*
X598822Y427976D01*
X597315Y428600D01*
X595684D01*
X594178Y427976D01*
X593802Y427600D01*
X592501Y427044D01*
X591189Y427600D01*
X590818Y427971D01*
X589311Y428595D01*
X587680D01*
X586173Y427971D01*
X585807Y427605D01*
X584494Y427044D01*
X583193Y427605D01*
X582822Y427976D01*
X581316Y428600D01*
X579684D01*
X578178Y427976D01*
X577807Y427605D01*
X576500Y427047D01*
X575193Y427605D01*
X574822Y427976D01*
X573316Y428600D01*
X571684D01*
X570177Y427976D01*
X569807Y427605D01*
X568500Y427047D01*
X567193Y427605D01*
X566822Y427976D01*
X565316Y428600D01*
X563684D01*
X562178Y427976D01*
X561024Y426822D01*
X560400Y425316D01*
Y423684D01*
X561024Y422178D01*
X562178Y421024D01*
X563684Y420400D01*
X565316D01*
X566822Y421024D01*
X566870Y421072D01*
X567819Y421056D01*
X569379Y420210D01*
X569599Y419670D01*
X569395Y419193D01*
X569024Y418823D01*
X568400Y417315D01*
Y415685D01*
X569024Y414178D01*
X569395Y413807D01*
X569599Y413330D01*
X569379Y412790D01*
X567819Y411944D01*
X566870Y411928D01*
X566822Y411976D01*
X565316Y412600D01*
X563684D01*
X562178Y411976D01*
X562072Y411871D01*
X560462Y411199D01*
X559459Y411871D01*
X559075Y412255D01*
X557568Y412879D01*
X555937D01*
X554430Y412255D01*
X554043Y411869D01*
X552771Y411311D01*
X551430Y411869D01*
X551073Y412226D01*
X549566Y412850D01*
X547934D01*
X546428Y412226D01*
X546057Y411855D01*
X544750Y411297D01*
X543443Y411855D01*
X543072Y412226D01*
X541566Y412850D01*
X539935D01*
X538428Y412226D01*
X537274Y411073D01*
X536650Y409566D01*
Y407934D01*
X537274Y406428D01*
X538428Y405274D01*
X539935Y404650D01*
X541566D01*
X543072Y405274D01*
X543443Y405645D01*
X544750Y406203D01*
X546057Y405645D01*
X546428Y405274D01*
X547934Y404650D01*
X549566D01*
X551073Y405274D01*
X551436Y405638D01*
X551505Y405637D01*
X551835Y405468D01*
X551915Y405377D01*
X552524Y403322D01*
X551900Y401816D01*
Y400185D01*
X552524Y398678D01*
X553678Y397524D01*
X555185Y396900D01*
X556815D01*
X558322Y397524D01*
X559476Y398678D01*
X560100Y400185D01*
Y401816D01*
X559482Y403308D01*
X559476Y403324D01*
X559080Y405278D01*
X559218Y405425D01*
X560790Y406080D01*
X561793Y405409D01*
X562178Y405024D01*
X563684Y404400D01*
X565316D01*
X566822Y405024D01*
X567193Y405395D01*
X568500Y405953D01*
X569807Y405395D01*
X570177Y405024D01*
X571684Y404400D01*
X573316D01*
X574822Y405024D01*
X575693Y405895D01*
X576323Y406164D01*
X578106Y406095D01*
X578678Y405524D01*
X580185Y404900D01*
X581815D01*
X583322Y405524D01*
X584476Y406678D01*
X585100Y408185D01*
Y409815D01*
X584476Y411322D01*
X583322Y412476D01*
X581815Y413100D01*
X580185D01*
X578678Y412476D01*
X578189Y411987D01*
X576049Y412191D01*
X575400Y413327D01*
X575605Y413807D01*
X575976Y414178D01*
X576600Y415685D01*
Y417315D01*
X575976Y418823D01*
X575605Y419193D01*
X575401Y419670D01*
X575621Y420210D01*
X577181Y421056D01*
X578130Y421072D01*
X578178Y421024D01*
X579684Y420400D01*
X581316D01*
X582822Y421024D01*
X583189Y421390D01*
X584501Y421951D01*
X585802Y421390D01*
X586173Y421019D01*
X587680Y420395D01*
X589311D01*
X590818Y421019D01*
X591191Y421393D01*
X591205Y421390D01*
X592760Y420753D01*
X593398Y419199D01*
X593395Y419193D01*
X593024Y418823D01*
X592400Y417315D01*
Y415685D01*
X593024Y414178D01*
X593669Y412497D01*
X592895Y411693D01*
X592524Y411322D01*
X591900Y409815D01*
Y408185D01*
X592524Y406678D01*
X593678Y405524D01*
X595185Y404900D01*
X596815D01*
X598322Y405524D01*
X598894Y406095D01*
X600677Y406164D01*
X600910Y406064D01*
X601758Y404042D01*
X601395Y403193D01*
X601024Y402822D01*
X600400Y401316D01*
Y399684D01*
X601024Y398178D01*
X602178Y397024D01*
X603685Y396400D01*
X605316D01*
X606823Y397024D01*
X607976Y398178D01*
X608600Y399684D01*
Y401316D01*
X607976Y402822D01*
X607605Y403193D01*
X607047Y404500D01*
X607605Y405807D01*
X607976Y406177D01*
X608600Y407685D01*
Y409315D01*
X607976Y410822D01*
X606823Y411976D01*
X605316Y412600D01*
X603685D01*
X602178Y411976D01*
X601606Y411405D01*
X599823Y411336D01*
X599725Y411377D01*
X599180Y413366D01*
X599605Y413807D01*
X599976Y414178D01*
X600600Y415685D01*
Y417315D01*
X599976Y418823D01*
X599605Y419193D01*
X599401Y419670D01*
X599621Y420210D01*
X601181Y421056D01*
X602130Y421072D01*
X602178Y421024D01*
X603684Y420400D01*
X605316D01*
X606822Y421024D01*
X607193Y421395D01*
X608500Y421954D01*
X609807Y421395D01*
X610177Y421024D01*
X611684Y420400D01*
X613316D01*
X614822Y421024D01*
X615976Y422178D01*
X616600Y423684D01*
Y425316D01*
X615976Y426822D01*
X615929Y426869D01*
X615946Y427822D01*
X616791Y429379D01*
X617331Y429598D01*
X617807Y429395D01*
X618173Y429029D01*
X619680Y428405D01*
X621311D01*
X622818Y429029D01*
X623971Y430182D01*
X624595Y431689D01*
Y433320D01*
X623971Y434827D01*
X622818Y435981D01*
X621311Y436605D01*
X619680D01*
X618173Y435981D01*
X617802Y435610D01*
X617329Y435406D01*
X616792Y435623D01*
X615946Y437180D01*
X615928Y438130D01*
X615976Y438178D01*
X616600Y439684D01*
Y441316D01*
X615976Y442822D01*
X615926Y442872D01*
X615942Y443814D01*
X616793Y445382D01*
X617331Y445600D01*
X617807Y445395D01*
X618173Y445029D01*
X619680Y444405D01*
X621311D01*
X622818Y445029D01*
X623971Y446182D01*
X624595Y447689D01*
Y449320D01*
X623971Y450827D01*
X622818Y451981D01*
X621311Y452605D01*
X619680D01*
X618173Y451981D01*
X617807Y451614D01*
X617333Y451410D01*
X616799Y451626D01*
X615949Y453189D01*
X615932Y454134D01*
X615976Y454178D01*
X616600Y455684D01*
Y457315D01*
X615976Y458822D01*
X615605Y459193D01*
X615049Y460506D01*
X615605Y461807D01*
X615981Y462182D01*
X616605Y463689D01*
Y465320D01*
X615981Y466827D01*
X615610Y467198D01*
X615049Y468499D01*
X615610Y469811D01*
X615976Y470177D01*
X616600Y471684D01*
Y473316D01*
X615976Y474822D01*
X614822Y475976D01*
X613316Y476600D01*
X611684D01*
X610177Y475976D01*
X610132Y475930D01*
X609178Y475947D01*
X607624Y476793D01*
X607406Y477329D01*
X607610Y477802D01*
X607976Y478168D01*
X608600Y479675D01*
Y481306D01*
X607976Y482813D01*
X606822Y483966D01*
X605316Y484590D01*
D02*
G37*
G36*
X465816Y451100D02*
X464184D01*
X462678Y450476D01*
X461524Y449322D01*
X460900Y447816D01*
Y446185D01*
X461524Y444678D01*
X462678Y443524D01*
X464184Y442900D01*
X465816D01*
X467323Y443524D01*
X468476Y444678D01*
X469100Y446185D01*
Y447816D01*
X468476Y449322D01*
X467323Y450476D01*
X465816Y451100D01*
D02*
G37*
G36*
X821816Y462100D02*
X820184D01*
X818678Y461476D01*
X817524Y460322D01*
X816900Y458815D01*
Y457184D01*
X817449Y455860D01*
X817524Y455677D01*
X817525Y455677D01*
X818654Y454500D01*
X817525Y453323D01*
X817524Y453322D01*
X817449Y453140D01*
X816900Y451816D01*
Y450185D01*
X817524Y448678D01*
X818678Y447524D01*
X820184Y446900D01*
X821816D01*
X823323Y447524D01*
X823567Y447769D01*
X824024Y447677D01*
X825178Y446524D01*
X826202Y446100D01*
X826188Y444502D01*
X826069Y444052D01*
X824860Y443551D01*
X824678Y443476D01*
X824677Y443475D01*
X823500Y442346D01*
X822323Y443475D01*
X822322Y443476D01*
X822140Y443551D01*
X820816Y444100D01*
X819184D01*
X817678Y443476D01*
X816524Y442323D01*
X815900Y440816D01*
Y439184D01*
X816524Y437678D01*
X817678Y436524D01*
X819184Y435900D01*
X820816D01*
X822140Y436449D01*
X822322Y436524D01*
X822323Y436525D01*
X823500Y437654D01*
X824677Y436525D01*
X824678Y436524D01*
X824860Y436449D01*
X826184Y435900D01*
X827815D01*
X829322Y436524D01*
X830476Y437678D01*
X831100Y439184D01*
Y440816D01*
X830476Y442323D01*
X829322Y443476D01*
X828298Y443900D01*
X828312Y445498D01*
X828431Y445948D01*
X829822Y446524D01*
X830976Y447677D01*
X831600Y449184D01*
Y450816D01*
X830976Y452322D01*
X829822Y453476D01*
X828316Y454100D01*
X826684D01*
X825178Y453476D01*
X825019Y453561D01*
X824450Y455650D01*
X824475Y455677D01*
X824476Y455677D01*
X824551Y455860D01*
X825100Y457184D01*
Y458815D01*
X824476Y460322D01*
X823323Y461476D01*
X821816Y462100D01*
D02*
G37*
G36*
X292815Y442100D02*
X291185D01*
X289678Y441476D01*
X288524Y440322D01*
X287900Y438815D01*
Y437184D01*
X288524Y435677D01*
X289678Y434524D01*
X291185Y433900D01*
X292815D01*
X294322Y434524D01*
X295476Y435677D01*
X296100Y437184D01*
Y438815D01*
X295476Y440322D01*
X294322Y441476D01*
X292815Y442100D01*
D02*
G37*
G36*
X491816Y441100D02*
X490185D01*
X488678Y440476D01*
X487524Y439322D01*
X486900Y437816D01*
Y436184D01*
X487524Y434678D01*
X488678Y433524D01*
X490185Y432900D01*
X491816D01*
X493322Y433524D01*
X494476Y434678D01*
X495100Y436184D01*
Y437816D01*
X494476Y439322D01*
X493322Y440476D01*
X491816Y441100D01*
D02*
G37*
G36*
X502816Y448100D02*
X501185D01*
X499678Y447476D01*
X498524Y446322D01*
X497900Y444815D01*
Y443185D01*
X498524Y441678D01*
X499678Y440524D01*
X501185Y439900D01*
X502900Y439184D01*
X503524Y437678D01*
X504678Y436524D01*
X506185Y435900D01*
X507900Y435184D01*
X508524Y433677D01*
X509678Y432524D01*
X511184Y431900D01*
X512816D01*
X514322Y432524D01*
X515476Y433677D01*
X516100Y435184D01*
Y436815D01*
X515476Y438322D01*
X514322Y439476D01*
X512816Y440100D01*
X511100Y440816D01*
X510476Y442323D01*
X509323Y443476D01*
X507816Y444100D01*
X506100Y444816D01*
X505476Y446322D01*
X504323Y447476D01*
X502816Y448100D01*
D02*
G37*
G36*
X464816Y428100D02*
X463185D01*
X461678Y427476D01*
X460524Y426322D01*
X459900Y424815D01*
Y423184D01*
X460524Y421678D01*
X461678Y420524D01*
X463185Y419900D01*
X464816D01*
X466323Y420524D01*
X467476Y421678D01*
X468100Y423184D01*
Y424815D01*
X467476Y426322D01*
X466323Y427476D01*
X464816Y428100D01*
D02*
G37*
G36*
X293815Y426100D02*
X292185D01*
X290678Y425476D01*
X289524Y424322D01*
X288900Y422816D01*
Y421185D01*
X289524Y419678D01*
X290678Y418524D01*
X292185Y417900D01*
X293815D01*
X295322Y418524D01*
X296476Y419678D01*
X297100Y421185D01*
Y422816D01*
X296476Y424322D01*
X295322Y425476D01*
X293815Y426100D01*
D02*
G37*
G36*
X724816Y425100D02*
X723185D01*
X721678Y424476D01*
X720524Y423322D01*
X719900Y421815D01*
Y420185D01*
X720524Y418677D01*
X721678Y417524D01*
X723185Y416900D01*
X724816D01*
X726322Y417524D01*
X727476Y418677D01*
X728100Y420185D01*
Y421815D01*
X727476Y423322D01*
X726322Y424476D01*
X724816Y425100D01*
D02*
G37*
G36*
X476815Y423100D02*
X475184D01*
X473677Y422476D01*
X472524Y421322D01*
X471900Y419815D01*
Y418185D01*
X472524Y416678D01*
X473677Y415524D01*
X475184Y414900D01*
X476815D01*
X478322Y415524D01*
X479476Y416678D01*
X480100Y418185D01*
Y419815D01*
X479476Y421322D01*
X478322Y422476D01*
X476815Y423100D01*
D02*
G37*
G36*
X637315Y412600D02*
X635685D01*
X634178Y411976D01*
X633802Y411600D01*
X632501Y411044D01*
X631189Y411600D01*
X630818Y411971D01*
X629311Y412595D01*
X627680D01*
X626173Y411971D01*
X625019Y410818D01*
X624395Y409311D01*
Y407680D01*
X625019Y406173D01*
X626173Y405019D01*
X627680Y404395D01*
X629311D01*
X630818Y405019D01*
X631193Y405395D01*
X632494Y405951D01*
X633807Y405395D01*
X634178Y405024D01*
X635685Y404400D01*
X637315D01*
X638822Y405024D01*
X639976Y406177D01*
X640600Y407685D01*
Y409315D01*
X639976Y410822D01*
X638822Y411976D01*
X637315Y412600D01*
D02*
G37*
G36*
X883316Y419100D02*
X881684D01*
X880178Y418476D01*
X879024Y417323D01*
X878400Y415816D01*
Y414184D01*
X879024Y412678D01*
X880178Y411524D01*
X881684Y410900D01*
X883316D01*
X884822Y411524D01*
X885976Y412678D01*
X886600Y414184D01*
Y415816D01*
X885976Y417323D01*
X884822Y418476D01*
X883316Y419100D01*
D02*
G37*
G36*
X490816Y411100D02*
X489184D01*
X487678Y410476D01*
X486524Y409322D01*
X485900Y407816D01*
Y406185D01*
X486524Y404678D01*
X487678Y403524D01*
X489184Y402900D01*
X490816D01*
X492323Y403524D01*
X493476Y404678D01*
X494100Y406185D01*
Y407816D01*
X493476Y409322D01*
X492323Y410476D01*
X490816Y411100D01*
D02*
G37*
G36*
X435816Y409100D02*
X434184D01*
X432678Y408476D01*
X431524Y407323D01*
X430900Y405816D01*
Y404184D01*
X431524Y402678D01*
X432678Y401524D01*
X434184Y400900D01*
X435816D01*
X437323Y401524D01*
X438476Y402678D01*
X439100Y404184D01*
Y405816D01*
X438476Y407323D01*
X437323Y408476D01*
X435816Y409100D01*
D02*
G37*
G36*
X512816Y400100D02*
X511184D01*
X509678Y399476D01*
X509000Y398798D01*
X508322Y399476D01*
X506815Y400100D01*
X505185D01*
X503678Y399476D01*
X503000Y398798D01*
X502322Y399476D01*
X500816Y400100D01*
X499184D01*
X497677Y399476D01*
X496524Y398322D01*
X495900Y396815D01*
Y395185D01*
X496524Y393677D01*
X497677Y392524D01*
X499184Y391900D01*
X500816D01*
X502322Y392524D01*
X503000Y393202D01*
X503678Y392524D01*
X505185Y391900D01*
X506815D01*
X508322Y392524D01*
X509000Y393202D01*
X509678Y392524D01*
X511184Y391900D01*
X512816D01*
X514322Y392524D01*
X515476Y393677D01*
X516100Y395185D01*
Y396815D01*
X515476Y398322D01*
X514322Y399476D01*
X512816Y400100D01*
D02*
G37*
G36*
X293815Y406100D02*
X292185D01*
X290678Y405476D01*
X289524Y404323D01*
X288900Y402816D01*
Y401185D01*
X289524Y399678D01*
X290678Y398524D01*
X292185Y397900D01*
X293815D01*
X295322Y398524D01*
X296476Y399678D01*
X297100Y401185D01*
Y402816D01*
X296476Y404323D01*
X295322Y405476D01*
X293815Y406100D01*
D02*
G37*
G36*
X839816Y405100D02*
X838185D01*
X836677Y404476D01*
X835524Y403322D01*
X834900Y401816D01*
Y400185D01*
X835524Y398678D01*
X836677Y397524D01*
X838185Y396900D01*
X839816D01*
X841322Y397524D01*
X842476Y398678D01*
X843100Y400185D01*
Y401816D01*
X842476Y403322D01*
X841322Y404476D01*
X839816Y405100D01*
D02*
G37*
G36*
X298291Y391778D02*
X296660D01*
X295153Y391153D01*
X294000Y390000D01*
X293376Y388493D01*
Y386862D01*
X294000Y385355D01*
X295153Y384202D01*
X296660Y383578D01*
X298291D01*
X299798Y384202D01*
X300952Y385355D01*
X301576Y386862D01*
Y388493D01*
X300952Y390000D01*
X299798Y391153D01*
X298291Y391778D01*
D02*
G37*
G36*
X868316Y394100D02*
X866684D01*
X865178Y393476D01*
X864024Y392323D01*
X863400Y390816D01*
Y389184D01*
X864024Y387678D01*
X865178Y386524D01*
X866684Y385900D01*
X868319Y385820D01*
X868400Y384184D01*
X869024Y382677D01*
X870178Y381524D01*
X871684Y380900D01*
X873316D01*
X874822Y381524D01*
X875976Y382677D01*
X876600Y384184D01*
Y385816D01*
X875976Y387322D01*
X874822Y388476D01*
X873316Y389100D01*
X871681Y389180D01*
X871600Y390816D01*
X870976Y392323D01*
X869822Y393476D01*
X868316Y394100D01*
D02*
G37*
G36*
X597066Y383850D02*
X595434D01*
X593927Y383226D01*
X592774Y382072D01*
X592150Y380565D01*
Y378934D01*
X592774Y377427D01*
X593927Y376274D01*
X595434Y375650D01*
X597066D01*
X598572Y376274D01*
X599726Y377427D01*
X600350Y378934D01*
Y380565D01*
X599726Y382072D01*
X598572Y383226D01*
X597066Y383850D01*
D02*
G37*
G36*
X639815Y374100D02*
X638184D01*
X636678Y373476D01*
X635750Y372548D01*
X634823Y373476D01*
X633316Y374100D01*
X631684D01*
X630178Y373476D01*
X629024Y372322D01*
X628400Y370816D01*
Y369184D01*
X629024Y367677D01*
X630178Y366524D01*
X631684Y365900D01*
X633316D01*
X634823Y366524D01*
X635750Y367452D01*
X636678Y366524D01*
X638184Y365900D01*
X639815D01*
X641322Y366524D01*
X642476Y367677D01*
X643100Y369184D01*
Y370816D01*
X642476Y372322D01*
X641322Y373476D01*
X639815Y374100D01*
D02*
G37*
G36*
X328815Y378100D02*
X327184D01*
X325678Y377476D01*
X324524Y376322D01*
X323900Y374815D01*
Y373184D01*
X324524Y371678D01*
X325678Y370524D01*
X327184Y369900D01*
X328815D01*
X330322Y370524D01*
X331476Y371678D01*
X332100Y373184D01*
Y374815D01*
X331476Y376322D01*
X330322Y377476D01*
X328815Y378100D01*
D02*
G37*
G36*
X618316Y376600D02*
X616684D01*
X615178Y375976D01*
X614024Y374822D01*
X613400Y373316D01*
Y371684D01*
X614024Y370177D01*
X615178Y369024D01*
X616684Y368400D01*
X618316D01*
X619823Y369024D01*
X620976Y370177D01*
X621600Y371684D01*
Y373316D01*
X620976Y374822D01*
X619823Y375976D01*
X618316Y376600D01*
D02*
G37*
G36*
X724816Y373100D02*
X723185D01*
X721678Y372476D01*
X720524Y371322D01*
X719900Y369815D01*
Y368185D01*
X720524Y366678D01*
X721678Y365524D01*
X723185Y364900D01*
X724816D01*
X726322Y365524D01*
X727476Y366678D01*
X728100Y368185D01*
Y369815D01*
X727476Y371322D01*
X726322Y372476D01*
X724816Y373100D01*
D02*
G37*
G36*
X707816Y377100D02*
X706184D01*
X704678Y376476D01*
X703524Y375322D01*
X701815Y374100D01*
X700184D01*
X698678Y373476D01*
X697524Y372322D01*
X696900Y370816D01*
Y369184D01*
X697524Y367677D01*
X698678Y366524D01*
X700184Y365900D01*
X701815D01*
X703322Y366524D01*
X704476Y367677D01*
X705940Y368725D01*
X705965Y368724D01*
X707698Y368241D01*
X707906Y368169D01*
X708524Y366678D01*
X709678Y365524D01*
X711184Y364900D01*
X712815D01*
X714322Y365524D01*
X715476Y366678D01*
X716100Y368185D01*
Y369815D01*
X715476Y371322D01*
X714322Y372476D01*
X712815Y373100D01*
X711100Y373816D01*
X710476Y375322D01*
X709323Y376476D01*
X707816Y377100D01*
D02*
G37*
G36*
X589815Y369100D02*
X588184D01*
X586678Y368476D01*
X585524Y367323D01*
X584900Y365816D01*
Y364184D01*
X585524Y362678D01*
X586678Y361524D01*
X588184Y360900D01*
X589815D01*
X591322Y361524D01*
X592476Y362678D01*
X593100Y364184D01*
Y365816D01*
X592476Y367323D01*
X591322Y368476D01*
X589815Y369100D01*
D02*
G37*
G36*
X556815Y366100D02*
X555185D01*
X553678Y365476D01*
X552524Y364323D01*
X551900Y362816D01*
Y361185D01*
X552524Y359678D01*
X553678Y358524D01*
X555185Y357900D01*
X556815D01*
X558322Y358524D01*
X559476Y359678D01*
X560100Y361185D01*
Y362816D01*
X559476Y364323D01*
X558322Y365476D01*
X556815Y366100D01*
D02*
G37*
G36*
X867500Y364565D02*
Y357900D01*
X874165D01*
X873853Y359067D01*
X872602Y361233D01*
X870833Y363002D01*
X868667Y364253D01*
X867500Y364565D01*
D02*
G37*
G36*
X862500Y364565D02*
X861333Y364253D01*
X859167Y363002D01*
X857398Y361233D01*
X856147Y359067D01*
X855835Y357900D01*
X862500D01*
Y364565D01*
D02*
G37*
G36*
X718816Y362100D02*
X717185D01*
X715678Y361476D01*
X714524Y360322D01*
X713900Y358815D01*
Y357184D01*
X714524Y355677D01*
X715678Y354524D01*
X717185Y353900D01*
X718816D01*
X720322Y354524D01*
X721476Y355677D01*
X722100Y357184D01*
Y358815D01*
X721476Y360322D01*
X720322Y361476D01*
X718816Y362100D01*
D02*
G37*
G36*
X328815D02*
X327184D01*
X325678Y361476D01*
X324524Y360322D01*
X323900Y358815D01*
Y357184D01*
X324524Y355677D01*
X325678Y354524D01*
X327184Y353900D01*
X328815D01*
X330322Y354524D01*
X331476Y355677D01*
X332100Y357184D01*
Y358815D01*
X331476Y360322D01*
X330322Y361476D01*
X328815Y362100D01*
D02*
G37*
G36*
X615816Y359100D02*
X614184D01*
X612677Y358476D01*
X611524Y357323D01*
X610900Y355816D01*
Y354184D01*
X611524Y352678D01*
X612677Y351524D01*
X614184Y350900D01*
X615816D01*
X617322Y351524D01*
X618476Y352678D01*
X619100Y354184D01*
Y355816D01*
X618476Y357323D01*
X617322Y358476D01*
X615816Y359100D01*
D02*
G37*
G36*
X731816Y357100D02*
X730184D01*
X728678Y356476D01*
X727524Y355322D01*
X726900Y353815D01*
Y352184D01*
X727524Y350678D01*
X728678Y349524D01*
X730184Y348900D01*
X731816D01*
X733323Y349524D01*
X734476Y350678D01*
X735100Y352184D01*
Y353815D01*
X734476Y355322D01*
X733323Y356476D01*
X731816Y357100D01*
D02*
G37*
G36*
X449815Y374100D02*
X448184D01*
X446678Y373476D01*
X445524Y372322D01*
X444900Y370816D01*
Y369184D01*
X445524Y367677D01*
X446678Y366524D01*
Y364476D01*
X445524Y363322D01*
X444900Y361815D01*
Y360184D01*
X445524Y358677D01*
X446678Y357524D01*
Y355476D01*
X445524Y354323D01*
X444900Y352816D01*
Y351185D01*
X445524Y349678D01*
X446678Y348524D01*
X448184Y347900D01*
X449815D01*
X451322Y348524D01*
X452476Y349678D01*
X453100Y351185D01*
Y352668D01*
X453185Y352725D01*
X454815D01*
X456323Y353349D01*
X457476Y354502D01*
X458100Y356009D01*
Y357640D01*
X457476Y359147D01*
X456323Y360301D01*
X456252Y360330D01*
Y362495D01*
X456323Y362524D01*
X457476Y363678D01*
X458100Y365185D01*
Y366815D01*
X457476Y368322D01*
X456323Y369476D01*
X454815Y370100D01*
X453185D01*
X453100Y370157D01*
Y370816D01*
X452476Y372322D01*
X451322Y373476D01*
X449815Y374100D01*
D02*
G37*
G36*
X874165Y352900D02*
X867500D01*
Y346235D01*
X868667Y346547D01*
X870833Y347798D01*
X872602Y349567D01*
X873853Y351733D01*
X874165Y352900D01*
D02*
G37*
G36*
X862500D02*
X855835D01*
X856147Y351733D01*
X857398Y349567D01*
X859167Y347798D01*
X861333Y346547D01*
X862500Y346235D01*
Y352900D01*
D02*
G37*
G36*
X310816Y353100D02*
X309184D01*
X307677Y352476D01*
X306524Y351322D01*
X305900Y349815D01*
Y348184D01*
X306524Y346678D01*
X307677Y345524D01*
X309184Y344900D01*
X310816D01*
X312322Y345524D01*
X313476Y346678D01*
X314100Y348184D01*
Y349815D01*
X313476Y351322D01*
X312322Y352476D01*
X310816Y353100D01*
D02*
G37*
G36*
X588815Y348100D02*
X587184D01*
X585677Y347476D01*
X584524Y346322D01*
X583900Y344815D01*
Y343185D01*
X584524Y341678D01*
X585677Y340524D01*
X587184Y339900D01*
X588815D01*
X590322Y340524D01*
X591476Y341678D01*
X592100Y343185D01*
Y344815D01*
X591476Y346322D01*
X590322Y347476D01*
X588815Y348100D01*
D02*
G37*
G36*
X560816D02*
X559184D01*
X557677Y347476D01*
X556524Y346322D01*
X555900Y344815D01*
Y343185D01*
X556524Y341678D01*
X557677Y340524D01*
X559184Y339900D01*
X560816D01*
X562322Y340524D01*
X563476Y341678D01*
X564100Y343185D01*
Y344815D01*
X563476Y346322D01*
X562322Y347476D01*
X560816Y348100D01*
D02*
G37*
G36*
X605816Y364100D02*
X604184D01*
X602678Y363476D01*
X601524Y362322D01*
X600900Y360816D01*
Y359184D01*
X601524Y357677D01*
X602677Y356524D01*
Y354476D01*
X601524Y353322D01*
X600900Y351816D01*
Y350185D01*
X601524Y348678D01*
X600833Y346540D01*
X600677Y346476D01*
X599524Y345322D01*
X598900Y343815D01*
Y342184D01*
X599524Y340678D01*
X600677Y339524D01*
X602184Y338900D01*
X603815D01*
X605322Y339524D01*
X606476Y340678D01*
X607100Y342184D01*
Y343815D01*
X606476Y345322D01*
X607167Y347460D01*
X607323Y347524D01*
X608476Y348678D01*
X609100Y350185D01*
Y351816D01*
X608476Y353322D01*
X607323Y354476D01*
Y356524D01*
X608476Y357677D01*
X609100Y359184D01*
Y360816D01*
X608476Y362322D01*
X607323Y363476D01*
X605816Y364100D01*
D02*
G37*
G36*
X649816Y345100D02*
X648185D01*
X646677Y344476D01*
X645524Y343322D01*
X644900Y341815D01*
Y340185D01*
X645524Y338678D01*
X646677Y337524D01*
X648185Y336900D01*
X649816D01*
X651322Y337524D01*
X652476Y338678D01*
X653100Y340185D01*
Y341815D01*
X652476Y343322D01*
X651322Y344476D01*
X649816Y345100D01*
D02*
G37*
G36*
X638815Y342100D02*
X637184D01*
X635677Y341476D01*
X634524Y340322D01*
X633900Y338816D01*
Y337184D01*
X634524Y335678D01*
X635677Y334524D01*
X637184Y333900D01*
X638815D01*
X640322Y334524D01*
X641476Y335678D01*
X642100Y337184D01*
Y338816D01*
X641476Y340322D01*
X640322Y341476D01*
X638815Y342100D01*
D02*
G37*
G36*
X627816D02*
X626184D01*
X624678Y341476D01*
X623524Y340322D01*
X622900Y338816D01*
Y337184D01*
X623524Y335678D01*
X624678Y334524D01*
X626184Y333900D01*
X627816D01*
X629322Y334524D01*
X630476Y335678D01*
X631100Y337184D01*
Y338816D01*
X630476Y340322D01*
X629322Y341476D01*
X627816Y342100D01*
D02*
G37*
G36*
X686815Y350100D02*
X685184D01*
X683678Y349476D01*
X682524Y348322D01*
X681900Y346815D01*
Y345185D01*
X682524Y343677D01*
X682686Y343516D01*
X682678Y343476D01*
X681524Y342323D01*
X680900Y340816D01*
X680819Y339180D01*
X679184Y339100D01*
X677678Y338476D01*
X676524Y337323D01*
X674816Y336100D01*
X673185D01*
X671677Y335476D01*
X670524Y334322D01*
X669900Y332816D01*
Y331185D01*
X670524Y329678D01*
X671677Y328524D01*
X673185Y327900D01*
X674816D01*
X676322Y328524D01*
X677476Y329678D01*
X678982Y330755D01*
X681090Y330465D01*
X681900Y329184D01*
X682524Y327678D01*
X683678Y326524D01*
X685184Y325900D01*
X686815D01*
X688322Y326524D01*
X689476Y327678D01*
X690100Y329184D01*
Y330816D01*
X689476Y332322D01*
X688322Y333476D01*
X686815Y334100D01*
X686696D01*
X686298Y336100D01*
X687322Y336524D01*
X688476Y337678D01*
X689100Y339184D01*
Y340816D01*
X688476Y342323D01*
X688314Y342484D01*
X688323Y342524D01*
X689476Y343677D01*
X690100Y345185D01*
Y346815D01*
X689476Y348322D01*
X688322Y349476D01*
X686815Y350100D01*
D02*
G37*
G36*
X327816Y334100D02*
X326185D01*
X324678Y333476D01*
X323524Y332322D01*
X322900Y330816D01*
Y329184D01*
X323524Y327678D01*
X324678Y326524D01*
X326185Y325900D01*
X327816D01*
X329323Y326524D01*
X330476Y327678D01*
X331100Y329184D01*
Y330816D01*
X330476Y332322D01*
X329323Y333476D01*
X327816Y334100D01*
D02*
G37*
G36*
X565816Y332100D02*
X564184D01*
X562677Y331476D01*
X561524Y330322D01*
X560900Y328815D01*
Y327184D01*
X561524Y325678D01*
X562677Y324524D01*
X564184Y323900D01*
X565816D01*
X567322Y324524D01*
X568476Y325678D01*
X569100Y327184D01*
Y328815D01*
X568476Y330322D01*
X567322Y331476D01*
X565816Y332100D01*
D02*
G37*
G36*
X545816Y329100D02*
X544184D01*
X542678Y328476D01*
X541524Y327323D01*
X540900Y325816D01*
Y324184D01*
X541524Y322678D01*
X542678Y321524D01*
X544184Y320900D01*
X545816D01*
X547323Y321524D01*
X548476Y322678D01*
X549100Y324184D01*
Y325816D01*
X548476Y327323D01*
X547323Y328476D01*
X545816Y329100D01*
D02*
G37*
G36*
X866251Y339500D02*
X863749D01*
X861333Y338853D01*
X859167Y337602D01*
X857398Y335833D01*
X856147Y333667D01*
X855500Y331251D01*
Y328749D01*
X856147Y326333D01*
X857398Y324167D01*
X859167Y322398D01*
X861333Y321147D01*
X863749Y320500D01*
X866251D01*
X868667Y321147D01*
X870833Y322398D01*
X872602Y324167D01*
X873853Y326333D01*
X874500Y328749D01*
Y331251D01*
X873853Y333667D01*
X872602Y335833D01*
X870833Y337602D01*
X868667Y338853D01*
X866251Y339500D01*
D02*
G37*
G36*
X649816Y321100D02*
X648185D01*
X646677Y320476D01*
X645524Y319322D01*
X644900Y317815D01*
Y316185D01*
X645524Y314678D01*
X646677Y313524D01*
X648185Y312900D01*
X649816D01*
X651322Y313524D01*
X652476Y314678D01*
X653100Y316185D01*
Y317815D01*
X652476Y319322D01*
X651322Y320476D01*
X649816Y321100D01*
D02*
G37*
G36*
X638815D02*
X637184D01*
X635677Y320476D01*
X634524Y319322D01*
X633900Y317815D01*
Y316185D01*
X634524Y314678D01*
X635677Y313524D01*
X637184Y312900D01*
X638815D01*
X640322Y313524D01*
X641476Y314678D01*
X642100Y316185D01*
Y317815D01*
X641476Y319322D01*
X640322Y320476D01*
X638815Y321100D01*
D02*
G37*
G36*
X627816D02*
X626184D01*
X624678Y320476D01*
X623524Y319322D01*
X622900Y317815D01*
Y316185D01*
X623524Y314678D01*
X624678Y313524D01*
X626184Y312900D01*
X627816D01*
X629322Y313524D01*
X630476Y314678D01*
X631100Y316185D01*
Y317815D01*
X630476Y319322D01*
X629322Y320476D01*
X627816Y321100D01*
D02*
G37*
G36*
X616816D02*
X615185D01*
X613678Y320476D01*
X612524Y319322D01*
X611900Y317815D01*
Y316185D01*
X612524Y314678D01*
X613678Y313524D01*
X615185Y312900D01*
X616816D01*
X618322Y313524D01*
X619476Y314678D01*
X620100Y316185D01*
Y317815D01*
X619476Y319322D01*
X618322Y320476D01*
X616816Y321100D01*
D02*
G37*
G36*
X605816D02*
X604184D01*
X602678Y320476D01*
X601524Y319322D01*
X600900Y317815D01*
Y316185D01*
X601524Y314678D01*
X602678Y313524D01*
X604184Y312900D01*
X605816D01*
X607323Y313524D01*
X608476Y314678D01*
X609100Y316185D01*
Y317815D01*
X608476Y319322D01*
X607323Y320476D01*
X605816Y321100D01*
D02*
G37*
G36*
X822251Y317500D02*
X819749D01*
X817333Y316853D01*
X815167Y315602D01*
X813398Y313833D01*
X812147Y311667D01*
X812035Y311248D01*
X809965D01*
X809853Y311667D01*
X808602Y313833D01*
X806833Y315602D01*
X804667Y316853D01*
X802251Y317500D01*
X799749D01*
X797333Y316853D01*
X795167Y315602D01*
X793398Y313833D01*
X792147Y311667D01*
X792035Y311248D01*
X789965D01*
X789853Y311667D01*
X788602Y313833D01*
X786833Y315602D01*
X784667Y316853D01*
X782251Y317500D01*
X779749D01*
X777333Y316853D01*
X775167Y315602D01*
X773398Y313833D01*
X772148Y311667D01*
X772035Y311248D01*
X769965D01*
X769853Y311667D01*
X768602Y313833D01*
X766833Y315602D01*
X764667Y316853D01*
X763500Y317165D01*
Y308000D01*
X761000D01*
Y305500D01*
X751835D01*
X752147Y304333D01*
X753398Y302167D01*
X755167Y300398D01*
X756722Y299500D01*
X756187Y297500D01*
X751500D01*
Y278500D01*
X770500D01*
Y283187D01*
X772500Y283722D01*
X773398Y282167D01*
X775167Y280398D01*
X777333Y279147D01*
X779749Y278500D01*
X782251D01*
X784667Y279147D01*
X786833Y280398D01*
X788602Y282167D01*
X789853Y284333D01*
X789965Y284752D01*
X792035D01*
X792147Y284333D01*
X793398Y282167D01*
X795167Y280398D01*
X797333Y279147D01*
X799749Y278500D01*
X802251D01*
X804667Y279147D01*
X806833Y280398D01*
X808602Y282167D01*
X809853Y284333D01*
X809965Y284752D01*
X812035D01*
X812147Y284333D01*
X813398Y282167D01*
X815167Y280398D01*
X817333Y279147D01*
X819749Y278500D01*
X822251D01*
X824667Y279147D01*
X826833Y280398D01*
X828602Y282167D01*
X829853Y284333D01*
X829965Y284752D01*
X832035D01*
X832147Y284333D01*
X833398Y282167D01*
X835167Y280398D01*
X837333Y279147D01*
X839749Y278500D01*
X842251D01*
X844667Y279147D01*
X846833Y280398D01*
X848602Y282167D01*
X849853Y284333D01*
X850500Y286749D01*
Y289251D01*
X849853Y291667D01*
X848602Y293833D01*
X846833Y295602D01*
X844667Y296852D01*
X844248Y296965D01*
Y299035D01*
X844667Y299147D01*
X846833Y300398D01*
X848602Y302167D01*
X849853Y304333D01*
X850165Y305500D01*
X841000D01*
Y308000D01*
X838500D01*
Y317165D01*
X837333Y316853D01*
X835167Y315602D01*
X833398Y313833D01*
X832147Y311667D01*
X832035Y311248D01*
X829965D01*
X829853Y311667D01*
X828602Y313833D01*
X826833Y315602D01*
X824667Y316853D01*
X822251Y317500D01*
D02*
G37*
G36*
X843500Y317165D02*
Y310500D01*
X850165D01*
X849853Y311667D01*
X848602Y313833D01*
X846833Y315602D01*
X844667Y316853D01*
X843500Y317165D01*
D02*
G37*
G36*
X758500D02*
X757333Y316853D01*
X755167Y315602D01*
X753398Y313833D01*
X752147Y311667D01*
X751835Y310500D01*
X758500D01*
Y317165D01*
D02*
G37*
G36*
X439816Y318100D02*
X438185D01*
X436678Y317476D01*
X435524Y316322D01*
X434900Y314816D01*
Y313185D01*
X435524Y311678D01*
X436678Y310524D01*
X438185Y309900D01*
X439816D01*
X441323Y310524D01*
X442476Y311678D01*
X443100Y313185D01*
Y314816D01*
X442476Y316322D01*
X441323Y317476D01*
X439816Y318100D01*
D02*
G37*
G36*
X724816Y319100D02*
X723185D01*
X721678Y318476D01*
X720524Y317323D01*
X719900Y315816D01*
Y314184D01*
X720524Y312678D01*
X721678Y311524D01*
X723185Y310900D01*
X724816D01*
X726322Y311524D01*
X726685Y311887D01*
X727590Y310982D01*
X729097Y310357D01*
X730728D01*
X732524Y310678D01*
X733678Y309524D01*
X735184Y308900D01*
X736815D01*
X738323Y309524D01*
X739476Y310678D01*
X740100Y312185D01*
Y313816D01*
X739476Y315322D01*
X738323Y316476D01*
X736815Y317100D01*
X735184D01*
X733388Y316780D01*
X732235Y317933D01*
X730728Y318557D01*
X729097D01*
X727590Y317933D01*
X727227Y317571D01*
X726322Y318476D01*
X724816Y319100D01*
D02*
G37*
G36*
X332816Y320100D02*
X331185D01*
X329678Y319476D01*
X328524Y318323D01*
X327900Y316815D01*
Y315184D01*
X328524Y313678D01*
X329678Y312524D01*
X331185Y311900D01*
X332816D01*
X333597Y312224D01*
X334730Y310528D01*
X334524Y310322D01*
X333900Y308815D01*
Y307185D01*
X334524Y305678D01*
X335678Y304524D01*
X337184Y303900D01*
X338816D01*
X340322Y304524D01*
X341476Y305678D01*
X342100Y307185D01*
Y308815D01*
X341476Y310322D01*
X340322Y311476D01*
X338816Y312100D01*
X337184D01*
X336403Y311776D01*
X335270Y313472D01*
X335476Y313678D01*
X336100Y315184D01*
Y316815D01*
X335476Y318323D01*
X334322Y319476D01*
X332816Y320100D01*
D02*
G37*
G36*
X538815Y311100D02*
X537184D01*
X535677Y310476D01*
X534524Y309322D01*
X533900Y307815D01*
Y306185D01*
X534524Y304678D01*
X535677Y303524D01*
X537184Y302900D01*
X538815D01*
X540322Y303524D01*
X541476Y304678D01*
X542100Y306185D01*
Y307815D01*
X541476Y309322D01*
X540322Y310476D01*
X538815Y311100D01*
D02*
G37*
G36*
X577816Y309100D02*
X576184D01*
X574678Y308476D01*
X573524Y307322D01*
X572900Y305816D01*
Y304184D01*
X573524Y302678D01*
X574678Y301524D01*
X576184Y300900D01*
X577816D01*
X579322Y301524D01*
X580476Y302678D01*
X581100Y304184D01*
Y305816D01*
X580476Y307322D01*
X579322Y308476D01*
X577816Y309100D01*
D02*
G37*
G36*
X460816D02*
X459184D01*
X457677Y308476D01*
X456524Y307322D01*
X455900Y305816D01*
Y304184D01*
X456524Y302678D01*
X457677Y301524D01*
X459184Y300900D01*
X460816D01*
X462322Y301524D01*
X463476Y302678D01*
X464100Y304184D01*
Y305816D01*
X463476Y307322D01*
X462322Y308476D01*
X460816Y309100D01*
D02*
G37*
G36*
X910816D02*
X909184D01*
X907678Y308476D01*
X906524Y307322D01*
X905900Y305816D01*
Y304184D01*
X906524Y302678D01*
X907678Y301524D01*
X909184Y300900D01*
X910819Y300819D01*
X910900Y299184D01*
X911524Y297678D01*
X912678Y296524D01*
X914184Y295900D01*
X915816D01*
X917322Y296524D01*
X918476Y297678D01*
X919100Y299184D01*
Y300816D01*
X918476Y302323D01*
X917322Y303476D01*
X915816Y304100D01*
X914181Y304181D01*
X914100Y305816D01*
X913476Y307322D01*
X912322Y308476D01*
X910816Y309100D01*
D02*
G37*
G36*
X866251Y314100D02*
X863749D01*
X861333Y313453D01*
X859167Y312202D01*
X857398Y310433D01*
X856147Y308267D01*
X855500Y305851D01*
Y303349D01*
X856147Y300933D01*
X857398Y298767D01*
X859167Y296998D01*
X861333Y295747D01*
X863749Y295100D01*
X866251D01*
X868667Y295747D01*
X870833Y296998D01*
X872602Y298767D01*
X873853Y300933D01*
X874500Y303349D01*
Y305851D01*
X873853Y308267D01*
X872602Y310433D01*
X870833Y312202D01*
X868667Y313453D01*
X866251Y314100D01*
D02*
G37*
G36*
X343815Y303100D02*
X342184D01*
X340678Y302476D01*
X339524Y301322D01*
X338900Y299816D01*
Y298185D01*
X339524Y296678D01*
X340678Y295524D01*
X342184Y294900D01*
X343815D01*
X345322Y295524D01*
X346476Y296678D01*
X347100Y298185D01*
Y299816D01*
X346476Y301322D01*
X345322Y302476D01*
X343815Y303100D01*
D02*
G37*
G36*
X642816Y301100D02*
X641184D01*
X639678Y300476D01*
X638524Y299322D01*
X637900Y297815D01*
Y296184D01*
X638524Y294678D01*
X639678Y293524D01*
X641184Y292900D01*
X642816D01*
X644323Y293524D01*
X645476Y294678D01*
X646100Y296184D01*
Y297815D01*
X645476Y299322D01*
X644323Y300476D01*
X642816Y301100D01*
D02*
G37*
G36*
X538815Y300100D02*
X537184D01*
X535677Y299476D01*
X534524Y298322D01*
X533900Y296815D01*
Y295184D01*
X534524Y293678D01*
X535677Y292524D01*
X537184Y291900D01*
X538815D01*
X540322Y292524D01*
X541476Y293678D01*
X542100Y295184D01*
Y296815D01*
X541476Y298322D01*
X540322Y299476D01*
X538815Y300100D01*
D02*
G37*
G36*
X478816Y297100D02*
X477184D01*
X475678Y296476D01*
X474524Y295322D01*
X473900Y293815D01*
Y292185D01*
X474524Y290678D01*
X475678Y289524D01*
X477184Y288900D01*
X478816D01*
X480322Y289524D01*
X481476Y290678D01*
X482100Y292185D01*
Y293815D01*
X481476Y295322D01*
X480322Y296476D01*
X478816Y297100D01*
D02*
G37*
G36*
X560816Y289100D02*
X559184D01*
X557677Y288476D01*
X556524Y287322D01*
X555900Y285816D01*
Y284184D01*
X556524Y282677D01*
X557677Y281524D01*
X559184Y280900D01*
X560816D01*
X562322Y281524D01*
X563476Y282677D01*
X564100Y284184D01*
Y285816D01*
X563476Y287322D01*
X562322Y288476D01*
X560816Y289100D01*
D02*
G37*
G36*
X538815D02*
X537184D01*
X535677Y288476D01*
X534524Y287322D01*
X533900Y285816D01*
Y284184D01*
X534524Y282677D01*
X535677Y281524D01*
X537184Y280900D01*
X538815D01*
X540322Y281524D01*
X541476Y282677D01*
X542100Y284184D01*
Y285816D01*
X541476Y287322D01*
X540322Y288476D01*
X538815Y289100D01*
D02*
G37*
G36*
X642816Y288100D02*
X641184D01*
X639678Y287476D01*
X638524Y286322D01*
X637900Y284816D01*
Y283184D01*
X638524Y281677D01*
X639678Y280524D01*
X641184Y279900D01*
X642816D01*
X644323Y280524D01*
X645476Y281677D01*
X646100Y283184D01*
Y284816D01*
X645476Y286322D01*
X644323Y287476D01*
X642816Y288100D01*
D02*
G37*
G36*
X874500Y288700D02*
X855500D01*
Y269700D01*
X874500D01*
Y288700D01*
D02*
G37*
G36*
X667816Y297100D02*
X666184D01*
X664678Y296476D01*
X663524Y295322D01*
X662900Y293815D01*
Y292185D01*
X663524Y290678D01*
X664678Y289524D01*
X665702Y289100D01*
X665304Y287100D01*
X664184Y287100D01*
X662678Y286476D01*
X661524Y285322D01*
X660900Y283815D01*
Y282184D01*
X661524Y280678D01*
X662459Y279743D01*
X662678Y279524D01*
X663992Y278615D01*
Y277385D01*
X662678Y276476D01*
X662459Y276257D01*
X661524Y275322D01*
X660900Y273815D01*
Y272184D01*
X661524Y270678D01*
X662678Y269524D01*
X664184Y268900D01*
X665816D01*
X667322Y269524D01*
X668476Y270678D01*
X669100Y272184D01*
Y273815D01*
X668476Y275322D01*
X667541Y276257D01*
X667322Y276476D01*
X666008Y277385D01*
Y278615D01*
X667322Y279524D01*
X667541Y279743D01*
X668476Y280678D01*
X669100Y282184D01*
Y283815D01*
X668476Y285322D01*
X667322Y286476D01*
X666298Y286900D01*
X666696Y288900D01*
X667816Y288900D01*
X669323Y289524D01*
X670476Y290678D01*
X671100Y292185D01*
Y293815D01*
X670476Y295322D01*
X669323Y296476D01*
X667816Y297100D01*
D02*
G37*
G36*
X641815Y276100D02*
X640184D01*
X638677Y275476D01*
X637524Y274322D01*
X636900Y272815D01*
Y271184D01*
X637524Y269678D01*
X638677Y268524D01*
X640184Y267900D01*
X641815D01*
X643322Y268524D01*
X644476Y269678D01*
X645100Y271184D01*
Y272815D01*
X644476Y274322D01*
X643322Y275476D01*
X641815Y276100D01*
D02*
G37*
G36*
X564815D02*
X563184D01*
X561678Y275476D01*
X560524Y274322D01*
X559900Y272815D01*
Y271184D01*
X560524Y269678D01*
X561678Y268524D01*
X563184Y267900D01*
X564815D01*
X566322Y268524D01*
X567476Y269678D01*
X568100Y271184D01*
Y272815D01*
X567476Y274322D01*
X566322Y275476D01*
X564815Y276100D01*
D02*
G37*
G36*
X377816Y310100D02*
X376185D01*
X374678Y309476D01*
X373524Y308322D01*
X372900Y306815D01*
Y305184D01*
X373524Y303678D01*
X374654Y302500D01*
X373524Y301322D01*
X372900Y299816D01*
Y298185D01*
X373524Y296678D01*
X374678Y295524D01*
X374206Y293555D01*
X373900Y292815D01*
Y291185D01*
X374524Y289678D01*
X375677Y288524D01*
X375686Y288484D01*
X375524Y288323D01*
X374900Y286816D01*
Y285184D01*
X375524Y283678D01*
X376678Y282524D01*
X376686Y282484D01*
X376524Y282322D01*
X375900Y280816D01*
Y279184D01*
X375971Y279012D01*
X376149Y277417D01*
X374972Y276598D01*
X374678Y276476D01*
X373524Y275322D01*
X372900Y273815D01*
Y272184D01*
X373524Y270678D01*
X373686Y270516D01*
X373677Y270476D01*
X372524Y269322D01*
X371900Y267815D01*
Y266185D01*
X372524Y264678D01*
X373678Y263524D01*
X375185Y262900D01*
X376816D01*
X378322Y263524D01*
X379476Y264678D01*
X380100Y266185D01*
Y267815D01*
X379476Y269322D01*
X379314Y269484D01*
X379323Y269524D01*
X380476Y270678D01*
X381100Y272184D01*
Y273815D01*
X381029Y273988D01*
X380851Y275583D01*
X382028Y276402D01*
X382323Y276524D01*
X383476Y277677D01*
X384100Y279184D01*
Y280816D01*
X383476Y282322D01*
X382323Y283476D01*
X382314Y283516D01*
X382476Y283678D01*
X383100Y285184D01*
Y286816D01*
X382476Y288323D01*
X381323Y289476D01*
X381314Y289516D01*
X381476Y289678D01*
X382100Y291185D01*
Y292815D01*
X381476Y294322D01*
X380322Y295476D01*
X380794Y297445D01*
X381100Y298185D01*
Y299816D01*
X380476Y301322D01*
X379346Y302500D01*
X380476Y303678D01*
X381100Y305184D01*
Y306815D01*
X380476Y308322D01*
X379323Y309476D01*
X377816Y310100D01*
D02*
G37*
G36*
X538815Y275100D02*
X537184D01*
X535677Y274476D01*
X534524Y273322D01*
X533900Y271815D01*
Y270184D01*
X534524Y268678D01*
X535459Y267743D01*
X535677Y267524D01*
X536992Y266615D01*
Y265385D01*
X535677Y264476D01*
X535459Y264257D01*
X534524Y263323D01*
X533900Y261816D01*
Y260184D01*
X534524Y258678D01*
X535677Y257524D01*
X537184Y256900D01*
X538815D01*
X540322Y257524D01*
X541476Y258678D01*
X542100Y260184D01*
Y261816D01*
X541476Y263323D01*
X540541Y264257D01*
X540322Y264476D01*
X539008Y265385D01*
Y266615D01*
X540322Y267524D01*
X540541Y267743D01*
X541476Y268678D01*
X542100Y270184D01*
Y271815D01*
X541476Y273322D01*
X540322Y274476D01*
X538815Y275100D01*
D02*
G37*
G36*
X715816Y259100D02*
X714184D01*
X712678Y258476D01*
X711743Y257541D01*
X711524Y257323D01*
X710615Y256008D01*
X709385D01*
X708476Y257323D01*
X708257Y257541D01*
X707322Y258476D01*
X705816Y259100D01*
X704184D01*
X702678Y258476D01*
X701524Y257322D01*
X700900Y255816D01*
Y254184D01*
X701524Y252677D01*
X702678Y251524D01*
X704184Y250900D01*
X705816D01*
X707322Y251524D01*
X708257Y252459D01*
X708476Y252677D01*
X709385Y253992D01*
X710615D01*
X711524Y252677D01*
X711743Y252459D01*
X712678Y251524D01*
X714184Y250900D01*
X715816D01*
X717322Y251524D01*
X718476Y252677D01*
X719100Y254184D01*
Y255816D01*
X718476Y257322D01*
X717322Y258476D01*
X715816Y259100D01*
D02*
G37*
G36*
X665816Y263100D02*
X664184D01*
X662678Y262476D01*
X661524Y261322D01*
X660900Y259816D01*
Y258184D01*
X661524Y256677D01*
X662678Y255524D01*
X664184Y254900D01*
X665816D01*
X667322Y255524D01*
X668476Y256677D01*
X669100Y258184D01*
Y259816D01*
X668476Y261322D01*
X667322Y262476D01*
X665816Y263100D01*
D02*
G37*
G36*
X640816D02*
X639184D01*
X637677Y262476D01*
X636524Y261322D01*
X635900Y259816D01*
Y258184D01*
X636524Y256677D01*
X637677Y255524D01*
X639184Y254900D01*
X640816D01*
X642322Y255524D01*
X643476Y256677D01*
X644100Y258184D01*
Y259816D01*
X643476Y261322D01*
X642322Y262476D01*
X640816Y263100D01*
D02*
G37*
G36*
X490816Y257100D02*
X489184D01*
X487678Y256476D01*
X486524Y255322D01*
X485900Y253815D01*
Y252185D01*
X486524Y250678D01*
X487524Y249322D01*
X486900Y247815D01*
Y246184D01*
X487524Y244678D01*
X488678Y243524D01*
X490185Y242900D01*
X491819Y242819D01*
X491900Y241184D01*
X492524Y239678D01*
X493677Y238524D01*
X495185Y237900D01*
X496815D01*
X498322Y238524D01*
X499476Y239678D01*
X500100Y241185D01*
Y242815D01*
X499476Y244322D01*
X498322Y245476D01*
X496815Y246100D01*
X495181Y246180D01*
X495100Y247816D01*
X494476Y249322D01*
X493476Y250678D01*
X494100Y252185D01*
Y253815D01*
X493476Y255322D01*
X492323Y256476D01*
X490816Y257100D01*
D02*
G37*
G36*
X480816Y245100D02*
X479184D01*
X477678Y244476D01*
X476524Y243322D01*
X475900Y241815D01*
Y240184D01*
X476524Y238678D01*
X477678Y237524D01*
X479184Y236900D01*
X480816D01*
X482323Y237524D01*
X483476Y238678D01*
X484100Y240184D01*
Y241815D01*
X483476Y243322D01*
X482323Y244476D01*
X480816Y245100D01*
D02*
G37*
G36*
X468815Y242100D02*
X467184D01*
X465678Y241476D01*
X464524Y240322D01*
X463900Y238815D01*
Y237185D01*
X464524Y235678D01*
X465678Y234524D01*
X467184Y233900D01*
X468815D01*
X470322Y234524D01*
X471476Y235678D01*
X472100Y237185D01*
Y238815D01*
X471476Y240322D01*
X470322Y241476D01*
X468815Y242100D01*
D02*
G37*
%LPD*%
G36*
X577500Y480000D02*
Y475298D01*
X577024Y474822D01*
X576400Y473316D01*
Y471684D01*
X577024Y470177D01*
X577500Y469702D01*
Y467669D01*
X576379Y466939D01*
X575745Y467053D01*
X574822Y467976D01*
X573316Y468600D01*
X571684D01*
X570177Y467976D01*
X569255Y467053D01*
X568500Y466917D01*
X567745Y467053D01*
X566822Y467976D01*
X565316Y468600D01*
X563684D01*
X562178Y467976D01*
X561024Y466822D01*
X560400Y465316D01*
Y463684D01*
X561024Y462178D01*
X562178Y461024D01*
X563684Y460400D01*
X565316D01*
X566822Y461024D01*
X567745Y461947D01*
X568500Y462083D01*
X569255Y461947D01*
X570177Y461024D01*
X571684Y460400D01*
X573316D01*
X574822Y461024D01*
X575745Y461947D01*
X576379Y462061D01*
X577500Y461331D01*
Y459298D01*
X577024Y458822D01*
X576400Y457315D01*
Y455684D01*
X577024Y454178D01*
X577500Y453702D01*
Y440000D01*
X575000Y437500D01*
X562500D01*
X555000Y445000D01*
Y475000D01*
X562500Y482500D01*
X575000D01*
X577500Y480000D01*
D02*
G37*
%LPC*%
G36*
X957402Y261519D02*
X944247D01*
D01*
X947571D01*
X947321Y261511D01*
X947088Y261469D01*
X946871Y261419D01*
X946663Y261353D01*
X946480Y261269D01*
X946313Y261178D01*
X946163Y261078D01*
X946030Y260978D01*
X945905Y260878D01*
X945805Y260778D01*
X945722Y260686D01*
X945647Y260603D01*
X945588Y260536D01*
X945555Y260486D01*
X945530Y260445D01*
X945522Y260436D01*
X945297Y260219D01*
X945097Y259995D01*
X944930Y259778D01*
X944789Y259553D01*
X944664Y259345D01*
X944555Y259137D01*
X944472Y258928D01*
X944405Y258745D01*
X944355Y258570D01*
X944314Y258412D01*
X944289Y258270D01*
X944264Y258145D01*
X944255Y258045D01*
X944247Y257970D01*
Y254679D01*
D01*
Y257912D01*
X944255Y257729D01*
X944272Y257545D01*
X944297Y257370D01*
X944330Y257212D01*
X944372Y257054D01*
X944422Y256904D01*
X944464Y256770D01*
X944514Y256645D01*
X944572Y256529D01*
X944614Y256429D01*
X944664Y256337D01*
X944705Y256262D01*
X944739Y256204D01*
X944764Y256162D01*
X944780Y256137D01*
X944789Y256129D01*
X944905Y255971D01*
X945039Y255829D01*
X945172Y255687D01*
X945313Y255562D01*
X945463Y255446D01*
X945613Y255346D01*
X945755Y255254D01*
X945905Y255171D01*
X946038Y255096D01*
X946163Y255029D01*
X946280Y254979D01*
X946380Y254929D01*
X946455Y254896D01*
X946522Y254871D01*
X946555Y254863D01*
X946572Y254854D01*
X946738Y254829D01*
X946855Y254838D01*
X946955Y254863D01*
X947038Y254888D01*
X947113Y254929D01*
X947163Y254963D01*
X947205Y254988D01*
X947230Y255012D01*
X947238Y255021D01*
X947296Y255104D01*
X947338Y255187D01*
X947363Y255271D01*
X947380Y255354D01*
X947396Y255421D01*
X947405Y255479D01*
Y255529D01*
X947371Y255654D01*
X947338Y255746D01*
X947330Y255787D01*
X947313Y255812D01*
X947305Y255829D01*
Y255837D01*
X947255Y255896D01*
X947213Y255946D01*
X947163Y255979D01*
X947121Y256012D01*
X947088Y256037D01*
X947063Y256054D01*
X947046Y256062D01*
X947038D01*
X946888Y256129D01*
X946747Y256196D01*
X946621Y256262D01*
X946505Y256329D01*
X946397Y256404D01*
X946305Y256471D01*
X946213Y256537D01*
X946147Y256604D01*
X946080Y256662D01*
X946022Y256712D01*
X945980Y256762D01*
X945938Y256804D01*
X945913Y256837D01*
X945897Y256862D01*
X945880Y256879D01*
Y256887D01*
X945772Y257070D01*
X945688Y257262D01*
X945630Y257437D01*
X945597Y257603D01*
X945572Y257745D01*
X945563Y257803D01*
Y257854D01*
X945555Y257895D01*
Y257953D01*
X945563Y258112D01*
X945580Y258262D01*
X945605Y258403D01*
X945638Y258528D01*
X945672Y258637D01*
X945697Y258712D01*
X945705Y258745D01*
X945713Y258770D01*
X945722Y258778D01*
Y258787D01*
X945788Y258937D01*
X945863Y259078D01*
X945938Y259203D01*
X946005Y259311D01*
X946072Y259395D01*
X946122Y259461D01*
X946155Y259503D01*
X946172Y259520D01*
X946280Y259636D01*
X946397Y259745D01*
X946513Y259836D01*
X946630Y259911D01*
X946755Y259978D01*
X946863Y260028D01*
X946980Y260078D01*
X947088Y260111D01*
X947188Y260136D01*
X947280Y260161D01*
X947363Y260178D01*
X947430Y260186D01*
X947488D01*
X947538Y260194D01*
X947563D01*
X947571D01*
X947688D01*
X947804Y260178D01*
X947905Y260161D01*
X947996Y260145D01*
X948080Y260128D01*
X948138Y260111D01*
X948171Y260103D01*
X948188Y260095D01*
X948479Y259970D01*
X948838Y259778D01*
X956427Y254754D01*
X956519Y254713D01*
X956611Y254688D01*
X956652D01*
X956686Y254679D01*
X956719D01*
X956819Y254688D01*
X956902Y254704D01*
X956985Y254738D01*
X957052Y254771D01*
X957111Y254796D01*
X957160Y254829D01*
X957186Y254846D01*
X957194Y254854D01*
X957260Y254937D01*
X957310Y255021D01*
X957352Y255104D01*
X957377Y255171D01*
X957394Y255229D01*
X957402Y255279D01*
Y260778D01*
X957394Y260886D01*
X957369Y260986D01*
X957335Y261061D01*
X957294Y261128D01*
X957260Y261186D01*
X957227Y261219D01*
X957202Y261244D01*
X957194Y261253D01*
X957119Y261311D01*
X957036Y261353D01*
X956961Y261378D01*
X956894Y261403D01*
X956836Y261411D01*
X956794Y261419D01*
X956761D01*
X956752D01*
X956669Y261411D01*
X956586Y261386D01*
X956511Y261353D01*
X956444Y261319D01*
X956394Y261286D01*
X956352Y261253D01*
X956327Y261228D01*
X956319Y261219D01*
X956252Y261144D01*
X956202Y261069D01*
X956161Y260994D01*
X956136Y260928D01*
X956119Y260861D01*
X956111Y260819D01*
Y256371D01*
X949554Y260861D01*
X949337Y260986D01*
X949137Y261094D01*
X948963Y261178D01*
X948804Y261253D01*
X948679Y261303D01*
X948629Y261328D01*
X948588Y261344D01*
X948554Y261353D01*
X948521Y261361D01*
X948513Y261369D01*
X948504D01*
X948329Y261419D01*
X948163Y261453D01*
X948005Y261486D01*
X947863Y261502D01*
X947746Y261511D01*
X947655Y261519D01*
X957402D01*
D01*
D02*
G37*
G36*
Y253096D02*
X944255D01*
Y248156D01*
D01*
Y248806D01*
X944264Y248706D01*
X944289Y248614D01*
X944322Y248539D01*
X944364Y248472D01*
X944405Y248414D01*
X944439Y248373D01*
X944464Y248348D01*
X944472Y248339D01*
X944555Y248281D01*
X944630Y248231D01*
X944705Y248198D01*
X944764Y248181D01*
X944822Y248164D01*
X944864Y248156D01*
X956761D01*
X956877Y248164D01*
X956969Y248181D01*
X957060Y248214D01*
X957127Y248256D01*
X957194Y248306D01*
X957244Y248356D01*
X957285Y248414D01*
X957319Y248481D01*
X957369Y248598D01*
X957394Y248697D01*
Y248739D01*
X957402Y248773D01*
Y252446D01*
X957394Y252555D01*
X957369Y252655D01*
X957335Y252730D01*
X957294Y252796D01*
X957260Y252855D01*
X957227Y252888D01*
X957202Y252913D01*
X957194Y252921D01*
X957119Y252980D01*
X957036Y253021D01*
X956961Y253055D01*
X956894Y253071D01*
X956836Y253088D01*
X956794Y253096D01*
X957402D01*
D01*
D02*
G37*
%LPD*%
G36*
X956669Y253088D02*
X956586Y253063D01*
X956511Y253030D01*
X956444Y252996D01*
X956394Y252955D01*
X956352Y252921D01*
X956327Y252896D01*
X956319Y252888D01*
X956252Y252813D01*
X956202Y252738D01*
X956161Y252663D01*
X956136Y252596D01*
X956119Y252530D01*
X956111Y252488D01*
Y249456D01*
X944897D01*
X944789Y249447D01*
X944697Y249422D01*
X944614Y249389D01*
X944547Y249347D01*
X944497Y249306D01*
X944464Y249272D01*
X944439Y249247D01*
X944430Y249239D01*
X944372Y249164D01*
X944330Y249081D01*
X944297Y249014D01*
X944280Y248947D01*
X944264Y248889D01*
X944255Y248847D01*
Y253096D01*
X956752D01*
X956669Y253088D01*
D02*
G37*
D37*
X231770Y670024D02*
D03*
X572490Y496500D02*
D03*
X596495Y504495D02*
D03*
X603000Y515000D02*
D03*
X612505Y504505D02*
D03*
X548000Y514000D02*
D03*
X588000Y531000D02*
D03*
X595000Y515000D02*
D03*
X327000Y330000D02*
D03*
X328000Y358000D02*
D03*
Y374000D02*
D03*
X300000Y510000D02*
D03*
X295000Y654000D02*
D03*
Y674000D02*
D03*
X297000Y689000D02*
D03*
X232000Y676000D02*
D03*
X284000Y469000D02*
D03*
X293000Y422000D02*
D03*
X292000Y438000D02*
D03*
X293000Y402000D02*
D03*
X297476Y387678D02*
D03*
X746000Y544000D02*
D03*
X755000Y533000D02*
D03*
X889000Y609000D02*
D03*
X739000Y553000D02*
D03*
X737000Y540000D02*
D03*
X657000Y453000D02*
D03*
X660000Y484000D02*
D03*
X662000Y473000D02*
D03*
Y463000D02*
D03*
X657000Y468000D02*
D03*
X656000Y478000D02*
D03*
X886000Y673000D02*
D03*
X872500Y385000D02*
D03*
X867500Y390000D02*
D03*
X588000Y344000D02*
D03*
X538000Y296000D02*
D03*
Y285000D02*
D03*
Y271000D02*
D03*
Y307000D02*
D03*
X724000Y369000D02*
D03*
X712000D02*
D03*
X701000Y370000D02*
D03*
X665000Y259000D02*
D03*
Y273000D02*
D03*
Y283000D02*
D03*
X649000Y317000D02*
D03*
X638000D02*
D03*
X627000D02*
D03*
X616000D02*
D03*
X605000D02*
D03*
X642000Y297000D02*
D03*
X715000Y255000D02*
D03*
X705000D02*
D03*
X460000Y305000D02*
D03*
X439000Y314000D02*
D03*
X478000Y293000D02*
D03*
X435000Y405000D02*
D03*
X436000Y500000D02*
D03*
Y587000D02*
D03*
Y677000D02*
D03*
X840000Y674000D02*
D03*
X822000D02*
D03*
X831000Y668000D02*
D03*
Y660000D02*
D03*
Y653000D02*
D03*
Y646000D02*
D03*
X840000Y657500D02*
D03*
X822500D02*
D03*
X612505Y448505D02*
D03*
X620495Y448505D02*
D03*
Y432505D02*
D03*
X604500Y480490D02*
D03*
X572495Y480495D02*
D03*
X588505Y480505D02*
D03*
X736000Y524000D02*
D03*
X564500Y440500D02*
D03*
X572500D02*
D03*
Y456500D02*
D03*
X612500Y440500D02*
D03*
X564500Y456500D02*
D03*
X612500D02*
D03*
Y432500D02*
D03*
X572500Y472500D02*
D03*
X604500D02*
D03*
X564500Y424500D02*
D03*
X612500D02*
D03*
X564500Y472500D02*
D03*
X612500D02*
D03*
X780750Y485750D02*
D03*
X802500Y487500D02*
D03*
X817500Y525000D02*
D03*
X718000Y358000D02*
D03*
X615000Y355000D02*
D03*
X617500Y372500D02*
D03*
X880000Y395000D02*
D03*
X910000Y305000D02*
D03*
X915000Y300000D02*
D03*
X882500Y415000D02*
D03*
X827500Y450000D02*
D03*
X890000Y452000D02*
D03*
X880000Y458000D02*
D03*
X914000Y472000D02*
D03*
X857000Y481000D02*
D03*
X835000Y480000D02*
D03*
X821000Y458000D02*
D03*
Y451000D02*
D03*
X827000Y440000D02*
D03*
X820000D02*
D03*
X826000Y426000D02*
D03*
X825000Y403000D02*
D03*
X839000Y401000D02*
D03*
X773000Y451000D02*
D03*
X878000Y489000D02*
D03*
X879000Y502000D02*
D03*
X713000Y326000D02*
D03*
X736000Y313000D02*
D03*
X724000Y315000D02*
D03*
X729912Y314457D02*
D03*
X559000Y251000D02*
D03*
X607000D02*
D03*
X595000D02*
D03*
X573000D02*
D03*
X538000Y261000D02*
D03*
X545000Y325000D02*
D03*
X667000Y293000D02*
D03*
X649000Y341000D02*
D03*
X638000Y338000D02*
D03*
X680000Y335000D02*
D03*
X686000Y330000D02*
D03*
X674000Y332000D02*
D03*
X685000Y340000D02*
D03*
X686000Y346000D02*
D03*
X737000Y225000D02*
D03*
X490000Y253000D02*
D03*
X491000Y247000D02*
D03*
X496000Y242000D02*
D03*
X480000Y241000D02*
D03*
X468000Y238000D02*
D03*
X603000Y343000D02*
D03*
X560000Y344000D02*
D03*
X707000Y373000D02*
D03*
X731000Y353000D02*
D03*
X724000Y326250D02*
D03*
X449000Y361000D02*
D03*
Y352000D02*
D03*
X454000Y366000D02*
D03*
Y356825D02*
D03*
X449000Y370000D02*
D03*
X641000Y272000D02*
D03*
X640000Y259000D02*
D03*
X666000Y303000D02*
D03*
X639000Y370000D02*
D03*
X605000Y351000D02*
D03*
Y360000D02*
D03*
X627000Y338000D02*
D03*
X589000Y365000D02*
D03*
X560000Y285000D02*
D03*
X565000Y328000D02*
D03*
X577000Y305000D02*
D03*
X595000Y303000D02*
D03*
X608000D02*
D03*
X594000Y317000D02*
D03*
X632500Y370000D02*
D03*
X556000Y362000D02*
D03*
X642000Y284000D02*
D03*
X604500Y400500D02*
D03*
X596000Y409000D02*
D03*
X604500Y408500D02*
D03*
X516000Y612000D02*
D03*
X492000D02*
D03*
X487000Y617000D02*
D03*
X482000Y622000D02*
D03*
X477000Y627000D02*
D03*
X515000Y453000D02*
D03*
X540750Y408750D02*
D03*
X548750D02*
D03*
X556752Y408779D02*
D03*
X490000Y407000D02*
D03*
X476000Y419000D02*
D03*
X464000Y424000D02*
D03*
X491000Y437000D02*
D03*
X510000Y574000D02*
D03*
X511000Y568000D02*
D03*
X512000Y562000D02*
D03*
X526750Y515500D02*
D03*
X455000Y568000D02*
D03*
Y574000D02*
D03*
X441000Y649000D02*
D03*
X448000D02*
D03*
X454000D02*
D03*
X580500Y544750D02*
D03*
X584250Y540750D02*
D03*
X440250Y631250D02*
D03*
X506000Y396000D02*
D03*
X512000D02*
D03*
X502000Y444000D02*
D03*
X512000Y436000D02*
D03*
X507000Y440000D02*
D03*
X465000Y447000D02*
D03*
X500000Y396000D02*
D03*
X560250Y381500D02*
D03*
X556000Y401000D02*
D03*
X450250Y397250D02*
D03*
X458000Y385000D02*
D03*
X596250Y379750D02*
D03*
X564500Y408500D02*
D03*
X736000Y454000D02*
D03*
X845000Y499000D02*
D03*
Y506000D02*
D03*
X780750Y513250D02*
D03*
X469000Y324000D02*
D03*
X421250Y507250D02*
D03*
X455250Y508750D02*
D03*
X461750Y500250D02*
D03*
X339000Y396000D02*
D03*
X310000Y390000D02*
D03*
X517000Y531000D02*
D03*
X378000Y669000D02*
D03*
X411000Y658000D02*
D03*
X412000Y596000D02*
D03*
X407000Y525000D02*
D03*
Y576000D02*
D03*
X308000Y512000D02*
D03*
X379000Y561000D02*
D03*
X769000Y506000D02*
D03*
X796000Y533500D02*
D03*
X564000Y591000D02*
D03*
X600250Y582250D02*
D03*
X577000Y589000D02*
D03*
X727000Y435000D02*
D03*
X728000Y446000D02*
D03*
X702750Y521500D02*
D03*
X690750Y511500D02*
D03*
X633000Y558000D02*
D03*
X466750Y583500D02*
D03*
X446750Y597500D02*
D03*
X404000Y466000D02*
D03*
X392750Y415500D02*
D03*
X405750Y359500D02*
D03*
X450750Y416500D02*
D03*
X482000Y402000D02*
D03*
X458000Y406000D02*
D03*
X256000Y315500D02*
D03*
X407000Y259250D02*
D03*
X408000Y297250D02*
D03*
X389000Y312250D02*
D03*
X378000Y332000D02*
D03*
X365000Y327750D02*
D03*
X377500Y387750D02*
D03*
X365000Y417750D02*
D03*
X377500Y427750D02*
D03*
X350000D02*
D03*
X577000Y278000D02*
D03*
X604250Y270250D02*
D03*
X591500Y285000D02*
D03*
X604500Y504500D02*
D03*
X900000Y267500D02*
D03*
X440000Y324000D02*
D03*
X501000Y325000D02*
D03*
X345000Y242500D02*
D03*
X380000Y240000D02*
D03*
X564000Y272000D02*
D03*
X575000Y225000D02*
D03*
X380000Y280000D02*
D03*
X376000Y267000D02*
D03*
X377000Y273000D02*
D03*
X379000Y286000D02*
D03*
X378000Y292000D02*
D03*
X377000Y306000D02*
D03*
Y299000D02*
D03*
X704000Y457000D02*
D03*
X556500Y488500D02*
D03*
X580000Y537500D02*
D03*
X765500Y520250D02*
D03*
X745750Y492750D02*
D03*
X736500Y492500D02*
D03*
X656500Y388250D02*
D03*
X378250Y515000D02*
D03*
X464750Y473750D02*
D03*
X525750Y382000D02*
D03*
X521750Y388500D02*
D03*
X616750Y378750D02*
D03*
X628495Y408495D02*
D03*
X517000Y511000D02*
D03*
X452000Y579000D02*
D03*
X439000Y554000D02*
D03*
X391000Y485000D02*
D03*
X396000Y480000D02*
D03*
X401000Y475000D02*
D03*
X391000Y627000D02*
D03*
X396000Y630000D02*
D03*
X401000Y634000D02*
D03*
X724000Y421000D02*
D03*
X450000Y527500D02*
D03*
X332000Y316000D02*
D03*
X338000Y308000D02*
D03*
X343000Y299000D02*
D03*
X310000Y349000D02*
D03*
X318000Y552000D02*
D03*
X333000Y596000D02*
D03*
X323000Y644000D02*
D03*
X359062Y595241D02*
D03*
X866000Y624000D02*
D03*
X644500Y424510D02*
D03*
X620500Y408510D02*
D03*
X636500Y408500D02*
D03*
X636500Y448490D02*
D03*
X636510Y432500D02*
D03*
X697500Y262500D02*
D03*
X912500Y282500D02*
D03*
X890000Y405000D02*
D03*
X695000Y642500D02*
D03*
X697500Y672500D02*
D03*
X582500Y670000D02*
D03*
X592500Y692500D02*
D03*
X438000Y247000D02*
D03*
X511000Y311000D02*
D03*
X612505Y464505D02*
D03*
X621250Y576750D02*
D03*
X745500Y524000D02*
D03*
X704000Y442000D02*
D03*
X392000Y667000D02*
D03*
X377000Y600000D02*
D03*
X339000Y677000D02*
D03*
X251000Y688000D02*
D03*
X400000Y675000D02*
D03*
X472500Y677500D02*
D03*
X502500D02*
D03*
X487500Y665000D02*
D03*
X525000Y677500D02*
D03*
X542500Y680000D02*
D03*
X520000Y662500D02*
D03*
X532500Y645000D02*
D03*
X508000Y651000D02*
D03*
X491000D02*
D03*
X452000Y667000D02*
D03*
X474000Y651000D02*
D03*
X552500Y625000D02*
D03*
X552000Y604000D02*
D03*
X597000Y597000D02*
D03*
X765000Y680000D02*
D03*
X755000D02*
D03*
X745000D02*
D03*
X757500Y632500D02*
D03*
X705000Y595000D02*
D03*
X667500Y625000D02*
D03*
Y600000D02*
D03*
X632500D02*
D03*
X647500Y615000D02*
D03*
Y630000D02*
D03*
Y645000D02*
D03*
X630000Y660000D02*
D03*
X657500Y680000D02*
D03*
X645000D02*
D03*
X632500D02*
D03*
X697500Y712500D02*
D03*
X757500D02*
D03*
X810000Y710000D02*
D03*
X802500Y667500D02*
D03*
X862500Y650000D02*
D03*
Y665000D02*
D03*
X852500Y677500D02*
D03*
X812500Y595000D02*
D03*
X775000Y625000D02*
D03*
Y600000D02*
D03*
X747500D02*
D03*
X742500Y657500D02*
D03*
X755000Y645000D02*
D03*
X854000Y597000D02*
D03*
X862500Y712500D02*
D03*
X935000Y715000D02*
D03*
X955000Y655000D02*
D03*
Y610000D02*
D03*
X880000Y562500D02*
D03*
X840000Y555000D02*
D03*
X955000Y505000D02*
D03*
X832500Y382500D02*
D03*
X787500Y385000D02*
D03*
X927500Y410000D02*
D03*
X930000Y455000D02*
D03*
X955000D02*
D03*
X957500Y410000D02*
D03*
X960000Y362500D02*
D03*
Y320000D02*
D03*
X862500Y227500D02*
D03*
X807000Y225000D02*
D03*
X647000D02*
D03*
X484000Y226000D02*
D03*
X427500Y227500D02*
D03*
X347500D02*
D03*
X292500D02*
D03*
X366250Y507000D02*
D03*
X644495Y448505D02*
D03*
X654000Y509000D02*
D03*
Y490000D02*
D03*
X294000Y637000D02*
D03*
X648000Y515000D02*
D03*
X540495Y432505D02*
D03*
X540505Y424505D02*
D03*
Y416505D02*
D03*
X540500Y456500D02*
D03*
X636495Y472505D02*
D03*
X588500Y456250D02*
D03*
Y448500D02*
D03*
X604250D02*
D03*
X596500D02*
D03*
X602000Y676000D02*
D03*
X620000D02*
D03*
X715000Y674000D02*
D03*
X733000D02*
D03*
X724000Y670000D02*
D03*
Y662000D02*
D03*
X715000Y657500D02*
D03*
X733000Y658000D02*
D03*
X724000Y652000D02*
D03*
Y645000D02*
D03*
X602000Y659000D02*
D03*
X620000D02*
D03*
X611000Y647000D02*
D03*
Y654000D02*
D03*
Y662000D02*
D03*
Y670000D02*
D03*
X687500Y700000D02*
D03*
X677500Y707500D02*
D03*
X667500Y700000D02*
D03*
X588505Y400495D02*
D03*
X644505Y440505D02*
D03*
X636500Y456490D02*
D03*
X636500Y464500D02*
D03*
X540500D02*
D03*
Y472500D02*
D03*
X556500Y496500D02*
D03*
X588495Y424495D02*
D03*
X581000Y409000D02*
D03*
X540505Y480495D02*
D03*
X802000Y644000D02*
D03*
X766000Y650000D02*
D03*
X661000Y651000D02*
D03*
X580000Y645000D02*
D03*
X545000Y651000D02*
D03*
X532500Y702500D02*
D03*
Y687500D02*
D03*
Y695000D02*
D03*
X522500Y690000D02*
D03*
Y697500D02*
D03*
Y705000D02*
D03*
X562500Y707500D02*
D03*
X572500Y700000D02*
D03*
X552500D02*
D03*
X795000Y697500D02*
D03*
X785000Y707500D02*
D03*
X775000Y697500D02*
D03*
X765500Y528500D02*
D03*
X232500Y470000D02*
D03*
Y462500D02*
D03*
X240000Y467500D02*
D03*
X350000Y695000D02*
D03*
X337500D02*
D03*
X636500Y416500D02*
D03*
X596500Y440500D02*
D03*
X580500Y456500D02*
D03*
X596500D02*
D03*
X580500Y432500D02*
D03*
X596500D02*
D03*
X604500Y440500D02*
D03*
Y456500D02*
D03*
X580500Y464500D02*
D03*
X596500D02*
D03*
X572500Y432500D02*
D03*
X604500D02*
D03*
X572500Y464500D02*
D03*
X604500D02*
D03*
X580500Y424500D02*
D03*
X596500D02*
D03*
X580500Y472500D02*
D03*
X596500D02*
D03*
X572500Y424500D02*
D03*
X604500D02*
D03*
X564500Y432500D02*
D03*
Y464500D02*
D03*
X580500Y416500D02*
D03*
X596500D02*
D03*
X572500D02*
D03*
Y408500D02*
D03*
X654000Y713000D02*
D03*
X594000D02*
D03*
X538000D02*
D03*
X490000Y712500D02*
D03*
X445000D02*
D03*
X390000D02*
D03*
X340000D02*
D03*
X295000D02*
D03*
X260000Y710000D02*
D03*
X239000D02*
D03*
X237000Y696000D02*
D03*
X245000Y477500D02*
D03*
Y227000D02*
D03*
X235000Y252500D02*
D03*
Y262500D02*
D03*
X232000Y276000D02*
D03*
D87*
X865000Y355400D02*
D03*
Y304600D02*
D03*
Y330000D02*
D03*
X940000Y575000D02*
D03*
Y595000D02*
D03*
Y615000D02*
D03*
Y535000D02*
D03*
Y555000D02*
D03*
Y635000D02*
D03*
X761000Y308000D02*
D03*
X781000Y288000D02*
D03*
Y308000D02*
D03*
X801000Y288000D02*
D03*
Y308000D02*
D03*
X821000Y288000D02*
D03*
Y308000D02*
D03*
X841000Y288000D02*
D03*
Y308000D02*
D03*
D88*
X865000Y279200D02*
D03*
X940000Y515000D02*
D03*
X761000Y288000D02*
D03*
D89*
X492000Y555000D02*
D03*
X687000Y441000D02*
D03*
X677000Y430000D02*
D03*
X692000Y457000D02*
D03*
X657000Y423000D02*
D03*
X692000Y430000D02*
D03*
X678000Y415000D02*
D03*
X661000Y411000D02*
D03*
X663000Y442000D02*
D03*
X667000Y515000D02*
D03*
X673000Y561000D02*
D03*
X666000Y541000D02*
D03*
X693000Y580000D02*
D03*
X723000Y591000D02*
D03*
Y566000D02*
D03*
X702000Y554000D02*
D03*
X689000Y536000D02*
D03*
X704000Y573000D02*
D03*
X681000Y549000D02*
D03*
X687000Y487000D02*
D03*
X677000Y527000D02*
D03*
Y499000D02*
D03*
X667000Y490000D02*
D03*
X756000Y541000D02*
D03*
X764000Y553000D02*
D03*
X778000Y561000D02*
D03*
X808000D02*
D03*
X834000Y585000D02*
D03*
X808000Y584000D02*
D03*
Y573000D02*
D03*
X782000D02*
D03*
X766000Y592000D02*
D03*
X750000Y584000D02*
D03*
X778000D02*
D03*
X839000Y573000D02*
D03*
X860000Y567000D02*
D03*
X913000Y594000D02*
D03*
X925000Y601000D02*
D03*
X877000Y582000D02*
D03*
X867000Y592000D02*
D03*
Y611000D02*
D03*
X866000Y638000D02*
D03*
X875000Y693000D02*
D03*
X905000Y692000D02*
D03*
X894000Y673000D02*
D03*
X942000D02*
D03*
X934000D02*
D03*
X911000Y610000D02*
D03*
X870000Y530000D02*
D03*
X878000Y519000D02*
D03*
M02*
