M48
;Layer_Color=9474304
;FILE_FORMAT=4:4
METRIC,LZ
;TYPE=PLATED
T01F00S00C0.2000
T02F00S00C0.2100
T03F00S00C1.0000
%
T01
X00808Y00561
Y00573
Y00584
X00834Y00585
X00839Y00573
X0086Y00567
X00877Y00582
X00867Y00592
Y00611
X00866Y00638
X00894Y00673
X00905Y00692
X00875Y00693
X00934Y00673
X00942
X00925Y00601
X00913Y00594
X00911Y0061
X0087Y0053
X00878Y00519
X00778Y00561
X00782Y00573
X00778Y00584
X00766Y00592
X0075Y00584
X00723Y00591
Y00566
X00704Y00573
X00693Y0058
X00702Y00554
X00681Y00549
X00673Y00561
X00666Y00541
X00677Y00527
X00689Y00536
X00667Y00515
Y0049
X00677Y00499
X00687Y00487
X00692Y00457
X00687Y00441
X00692Y0043
X00677
X00678Y00415
X00661Y00411
X00657Y00423
X00663Y00442
X00756Y00541
X00764Y00553
X00492Y00555
T02
X00245Y00227
X00235Y002525
Y002625
X00232Y00276
X00256Y003155
X00332Y00316
X00338Y00308
X00343Y00299
X00377
Y00306
X00378Y00292
X00379Y00286
X0038Y0028
X00377Y00273
X00376Y00267
X0038Y0024
X00345Y002425
X003475Y002275
X002925
X00327Y0033
X00328Y00358
Y00374
X00339Y00396
X0031Y0039
X00297476Y00387678
X0031Y00349
X00365Y0032775
X00378Y00332
X00389Y0031225
X003775Y0038775
X0040575Y003595
X00449Y00361
Y00352
X00454Y00356825
Y00366
X00449Y0037
X00458Y00385
X005Y00396
X00506
X00512
X0052175Y003885
X0052575Y00382
X0056025Y003815
X00556Y00362
X0056Y00344
X00565Y00328
X00545Y00325
X00538Y00307
Y00296
Y00285
Y00271
Y00261
X00559Y00251
X00573
X00595
X00607
X0060425Y0027025
X005915Y00285
X00595Y00303
X00608
X00605Y00317
X00616
X00627
X00638
X00649
Y00341
X00638Y00338
X00627
X00615Y00355
X00605Y00351
Y0036
X00603Y00343
X00588Y00344
X00589Y00365
X0059625Y0037975
X0061675Y0037875
X006175Y003725
X006325Y0037
X00639
X006565Y0038825
X00701Y0037
X00707Y00373
X00712Y00369
X00724
X00718Y00358
X00731Y00353
X00724Y0032625
X00713Y00326
X00724Y00315
X00729912Y00314457
X00736Y00313
X00686Y0033
X0068Y00335
X00674Y00332
X00685Y0034
X00686Y00346
X00666Y00303
X00667Y00293
X00665Y00283
Y00273
Y00259
X0064
X00641Y00272
X00642Y00284
Y00297
X00594Y00317
X00577Y00305
Y00278
X00564Y00272
X0056Y00285
X00575Y00225
X00647
X00705Y00255
X00715
X006975Y002625
X00737Y00225
X007875Y00385
X00501Y00325
X00511Y00311
X00478Y00293
X0046Y00305
X00469Y00324
X0044
X00439Y00314
X00408Y0029725
X00407Y0025925
X00438Y00247
X004275Y002275
X00468Y00238
X0048Y00241
X00491Y00247
X0049Y00253
X00496Y00242
X00484Y00226
X00807Y00225
X008625Y002275
X009Y002675
X009125Y002825
X00915Y003
X0091Y00305
X0096Y0032
Y003625
X008725Y00385
X008675Y0039
X0088Y00395
X008325Y003825
X00839Y00401
X00825Y00403
X00826Y00426
X00827Y0044
X0082
X00821Y00451
Y00458
X008275Y0045
X00835Y0048
X00857Y00481
X00878Y00489
X00879Y00502
X00845Y00499
Y00506
X008175Y00525
X00796Y005335
X008025Y004875
X0084Y00555
X0088Y005625
X00889Y00609
X00866Y00624
X008625Y0065
Y00665
X008525Y006775
X0084Y00674
X00831Y00668
Y0066
Y00653
Y00646
X008225Y006575
X00822Y00674
X008025Y006675
X00802Y00644
X0084Y006575
X00886Y00673
X008625Y007125
X0081Y0071
X00795Y006975
X008125Y00595
X00854Y00597
X00955Y0061
Y00655
X00935Y00715
X00955Y00505
Y00455
X0093
X00914Y00472
X0089Y00452
X0088Y00458
X008825Y00415
X0089Y00405
X009275Y0041
X009575
X00773Y00451
X00736Y00454
X00728Y00446
X00727Y00435
X00724Y00421
X00704Y00442
Y00457
X00662Y00463
Y00473
X00657Y00468
X00656Y00478
X0066Y00484
X00654Y0049
Y00509
X00648Y00515
X00603
X00595
X00596495Y00504495
X006045Y005045
X00612505Y00504505
X006125Y004725
X006045
Y0048049
Y004645
Y004565
X006125
X00612505Y00448505
X00620495Y00448505
Y00432505
X006125Y004325
Y004405
X006045
X005965
X005965Y004485
X0060425
X005885
Y0045625
X005805Y004565
X005725
X005645
Y004645
Y004725
X005725
X00572495Y00480495
X005725Y004645
X005805
Y004725
X005965
Y004645
Y004565
Y004325
X006045
Y004245
X006125
X005965
Y004165
X00596Y00409
X006045Y004085
Y004005
X00588505Y00400495
X00581Y00409
X005805Y004165
Y004245
X00588495Y00424495
X005805Y004325
X005725
Y004405
X005645
Y004325
Y004245
X005725
Y004165
Y004085
X005645
X00556752Y00408779
X0054875Y0040875
X0054075
X00540505Y00416505
Y00424505
X00540495Y00432505
X005405Y004565
Y004645
Y004725
X00540505Y00480495
X005565Y004885
Y004965
X0057249
X00588505Y00480505
X00612505Y00464505
X006365Y004645
X00636495Y00472505
X006365Y0045649
Y0044849
X00644495Y00448505
X00644505Y00440505
X006445Y0042451
X0063651Y004325
X006365Y004165
Y004085
X00628495Y00408495
X006205Y0040851
X00556Y00401
X0049Y00407
X00482Y00402
X00476Y00419
X00464Y00424
X0045075Y004165
X00458Y00406
X0045025Y0039725
X00435Y00405
X00465Y00447
X0046475Y0047375
X0046175Y0050025
X0045525Y0050875
X0045Y005275
X00439Y00554
X00455Y00568
Y00574
X00452Y00579
X0046675Y005835
X0044675Y005975
X00436Y00587
X00412Y00596
X00407Y00576
Y00525
X0042125Y0050725
X00436Y005
X00401Y00475
X00404Y00466
X00491Y00437
X00502Y00444
X00507Y0044
X00512Y00436
X00515Y00453
X00517Y00511
X0052675Y005155
X00548Y00514
X00517Y00531
X00512Y00562
X00511Y00568
X0051Y00574
X00516Y00612
X00492
X00487Y00617
X00482Y00622
X00477Y00627
X00474Y00651
X00491
X00508
X0052Y006625
X00525Y006775
X005225Y0069
Y006975
Y00705
X005325Y007025
Y00695
Y006875
X005425Y0068
X005525Y007
X005625Y007075
X005725Y007
X005925Y006925
X00594Y00713
X00602Y00676
X00611Y0067
Y00662
Y00654
Y00647
X00602Y00659
X0062
X0063Y0066
X006325Y0068
X00645
X006575
X006675Y007
X006775Y007075
X006875Y007
X006975Y007125
Y006725
X00715Y00674
X00724Y0067
Y00662
Y00652
Y00645
X00715Y006575
X00733Y00658
X007425Y006575
X00755Y00645
X007575Y006325
X00775Y00625
Y006
X007475
X00705Y00595
X006675Y006
Y00625
X006475Y0063
Y00645
X00661Y00651
X00695Y006425
X00733Y00674
X00745Y0068
X00755
X00765
X00775Y006975
X00785Y007075
X007575Y007125
X00766Y0065
X007655Y005285
Y0052025
X00769Y00506
X0078075Y0051325
Y0048575
X0074575Y0049275
X007365Y004925
X00736Y00524
X007455Y00524
X00755Y00533
X00746Y00544
X00737Y0054
X00739Y00553
X0070275Y005215
X0069075Y005115
X00657Y00453
X00633Y00558
X0062125Y0057675
X0060025Y0058225
X00597Y00597
X00577Y00589
X00564Y00591
X00552Y00604
X005525Y00625
X00545Y00651
X005325Y00645
X0058
X005825Y0067
X0062Y00676
X00654Y00713
X006475Y00615
X006325Y006
X005805Y0054475
X0058425Y0054075
X0058Y005375
X00588Y00531
X005025Y006775
X004875Y00665
X004725Y006775
X00452Y00667
X00454Y00649
X00448
X00441
X0044025Y0063125
X00401Y00634
X00411Y00658
X004Y00675
X00436Y00677
X00445Y007125
X0049
X00538Y00713
X0039Y007125
X00392Y00667
X00378Y00669
X00339Y00677
X003375Y00695
X0035
X0034Y007125
X00295
X00297Y00689
X00295Y00674
Y00654
X00294Y00637
X00323Y00644
X00333Y00596
X00359062Y00595241
X00377Y006
X00379Y00561
X0037825Y00515
X0036625Y00507
X00391Y00485
X00396Y0048
X0039275Y004155
X003775Y0042775
X00365Y0041775
X0035Y0042775
X00293Y00422
X00292Y00438
X00293Y00402
X00284Y00469
X0024Y004675
X002325Y0047
Y004625
X00245Y004775
X003Y0051
X00308Y00512
X00318Y00552
X00391Y00627
X00396Y0063
X00251Y00688
X00237Y00696
X00239Y0071
X0026
X00232Y00676
X0023177Y00670024
T03
X00761Y00288
Y00308
X00781
Y00288
X00801
Y00308
X00821
X00841
Y00288
X00821
X00865Y002792
Y003046
Y0033
Y003554
X0094Y00515
Y00535
Y00555
Y00575
Y00595
Y00615
Y00635
M30
