G04*
G04 #@! TF.GenerationSoftware,Altium Limited,Altium Designer,24.4.1 (13)*
G04*
G04 Layer_Physical_Order=1*
G04 Layer_Color=255*
%FSLAX44Y44*%
%MOMM*%
G71*
G04*
G04 #@! TF.SameCoordinates,5C46C37F-926F-48B5-82F6-D16DC70D24A0*
G04*
G04*
G04 #@! TF.FilePolarity,Positive*
G04*
G01*
G75*
%ADD12C,0.2000*%
%ADD14R,1.0000X1.5000*%
%ADD15R,1.5000X1.0000*%
%ADD16R,2.0000X0.3800*%
%ADD25C,1.0000*%
%ADD26C,1.0000*%
%ADD27C,0.3000*%
%ADD28C,1.1000*%
%ADD29C,0.6000*%
G36*
X1189501Y713827D02*
X1161968Y686293D01*
X235000D01*
Y715000D01*
X1189015D01*
X1189501Y713827D01*
D02*
G37*
G36*
X1343089Y683585D02*
X1342921Y683295D01*
X1342479Y681643D01*
X1341270Y681056D01*
X1312663Y709663D01*
X1311671Y710326D01*
X1310500Y710559D01*
X1310500Y710559D01*
X1264750D01*
X1264685Y710671D01*
X1265418Y711941D01*
X1314733D01*
X1343089Y683585D01*
D02*
G37*
G36*
X1410000Y175000D02*
X1245000Y175000D01*
X1217193Y202807D01*
X1217819Y203977D01*
X1218000Y203941D01*
X1218000Y203941D01*
X1278461D01*
X1278461Y194250D01*
X1278616Y193470D01*
X1279058Y192808D01*
X1279720Y192366D01*
X1280202Y192270D01*
X1280077Y191000D01*
X1278500D01*
Y185500D01*
X1280485D01*
Y191235D01*
X1288000Y198750D01*
X1295500Y191250D01*
Y185500D01*
X1297500D01*
Y191000D01*
X1295923D01*
X1295797Y192270D01*
X1296280Y192366D01*
X1296942Y192808D01*
X1297384Y193470D01*
X1297539Y194250D01*
Y204049D01*
X1298170Y204174D01*
X1299163Y204837D01*
X1333013Y238687D01*
X1333013Y238687D01*
X1333676Y239680D01*
X1333909Y240850D01*
Y254406D01*
X1335455Y255299D01*
X1336852Y256695D01*
X1337839Y258405D01*
X1338350Y260313D01*
Y262287D01*
X1337839Y264195D01*
X1337574Y264653D01*
X1338205Y266101D01*
X1338505Y266169D01*
X1344337Y260337D01*
X1345329Y259674D01*
X1346500Y259441D01*
X1346500Y259441D01*
X1361684D01*
X1361961Y258405D01*
X1362948Y256695D01*
X1364345Y255299D01*
X1366055Y254311D01*
X1367963Y253800D01*
X1369937D01*
X1371845Y254311D01*
X1373555Y255299D01*
X1374951Y256695D01*
X1375939Y258405D01*
X1376450Y260313D01*
Y262287D01*
X1375939Y264195D01*
X1374951Y265905D01*
X1373555Y267302D01*
X1371845Y268289D01*
X1369937Y268800D01*
X1367963D01*
X1366055Y268289D01*
X1364345Y267302D01*
X1362948Y265905D01*
X1362749Y265559D01*
X1352292D01*
X1352124Y266829D01*
X1352805Y267011D01*
X1354515Y267999D01*
X1355912Y269395D01*
X1356899Y271105D01*
X1357410Y273013D01*
Y274987D01*
X1356899Y276895D01*
X1356784Y277095D01*
X1357800Y277874D01*
X1363837Y271837D01*
X1363837Y271837D01*
X1364830Y271174D01*
X1366000Y270941D01*
X1381106D01*
X1381998Y269395D01*
X1383395Y267999D01*
X1385105Y267011D01*
X1387013Y266500D01*
X1388987D01*
X1390895Y267011D01*
X1392605Y267999D01*
X1394001Y269395D01*
X1394989Y271105D01*
X1395500Y273013D01*
Y274987D01*
X1394989Y276895D01*
X1394001Y278605D01*
X1392605Y280002D01*
X1390895Y280989D01*
X1388987Y281500D01*
X1387013D01*
X1385105Y280989D01*
X1383395Y280002D01*
X1381998Y278605D01*
X1381106Y277059D01*
X1367267D01*
X1365883Y278442D01*
X1366541Y279581D01*
X1367963Y279200D01*
X1369937D01*
X1371845Y279711D01*
X1373555Y280699D01*
X1374951Y282095D01*
X1375939Y283805D01*
X1376450Y285713D01*
Y287687D01*
X1375939Y289595D01*
X1374951Y291305D01*
X1373555Y292701D01*
X1371845Y293689D01*
X1369937Y294200D01*
X1367963D01*
X1366055Y293689D01*
X1364345Y292701D01*
X1362948Y291305D01*
X1362056Y289759D01*
X1350567D01*
X1349696Y290630D01*
X1350222Y291900D01*
X1350897D01*
X1352805Y292411D01*
X1354515Y293398D01*
X1355912Y294795D01*
X1356899Y296505D01*
X1357410Y298413D01*
Y300387D01*
X1357069Y301659D01*
X1358208Y302316D01*
X1363287Y297237D01*
X1364279Y296574D01*
X1365450Y296341D01*
X1365450Y296341D01*
X1381106D01*
X1381998Y294795D01*
X1383395Y293398D01*
X1385105Y292411D01*
X1387013Y291900D01*
X1388987D01*
X1390895Y292411D01*
X1392605Y293398D01*
X1394001Y294795D01*
X1394989Y296505D01*
X1395500Y298413D01*
Y300387D01*
X1394989Y302295D01*
X1394001Y304005D01*
X1392605Y305401D01*
X1390895Y306389D01*
X1388987Y306900D01*
X1387013D01*
X1385105Y306389D01*
X1383395Y305401D01*
X1381998Y304005D01*
X1381106Y302459D01*
X1366717D01*
X1364815Y304361D01*
X1365595Y305377D01*
X1366055Y305111D01*
X1367963Y304600D01*
X1369937D01*
X1371845Y305111D01*
X1373555Y306098D01*
X1374951Y307495D01*
X1375939Y309205D01*
X1376450Y311113D01*
Y313087D01*
X1375939Y314995D01*
X1374951Y316705D01*
X1373555Y318102D01*
X1371845Y319089D01*
X1369937Y319600D01*
X1367963D01*
X1366055Y319089D01*
X1364345Y318102D01*
X1362948Y316705D01*
X1362056Y315159D01*
X1348167D01*
X1346761Y316564D01*
X1347419Y317703D01*
X1348923Y317300D01*
X1350897D01*
X1352805Y317811D01*
X1354515Y318799D01*
X1355912Y320195D01*
X1356899Y321905D01*
X1357410Y323813D01*
Y325787D01*
X1356899Y327695D01*
X1356221Y328870D01*
X1356688Y330148D01*
X1356821Y330275D01*
X1357308Y330366D01*
X1365037Y322637D01*
X1365037Y322637D01*
X1366030Y321974D01*
X1367200Y321741D01*
X1367200Y321741D01*
X1381106D01*
X1381998Y320195D01*
X1383395Y318799D01*
X1385105Y317811D01*
X1387013Y317300D01*
X1388987D01*
X1390895Y317811D01*
X1392605Y318799D01*
X1394001Y320195D01*
X1394989Y321905D01*
X1395500Y323813D01*
Y325787D01*
X1394989Y327695D01*
X1394001Y329405D01*
X1392605Y330802D01*
X1390895Y331789D01*
X1388987Y332300D01*
X1387013D01*
X1385105Y331789D01*
X1383395Y330802D01*
X1381998Y329405D01*
X1381106Y327859D01*
X1368467D01*
X1367523Y328803D01*
X1367820Y329612D01*
X1368122Y330000D01*
X1369937D01*
X1371845Y330511D01*
X1373555Y331498D01*
X1374951Y332895D01*
X1375939Y334605D01*
X1376450Y336513D01*
Y338487D01*
X1375939Y340395D01*
X1374951Y342105D01*
X1373555Y343502D01*
X1371845Y344489D01*
X1369937Y345000D01*
X1367963D01*
X1366055Y344489D01*
X1364345Y343502D01*
X1362948Y342105D01*
X1362056Y340559D01*
X1348767D01*
X1347581Y341745D01*
X1348239Y342883D01*
X1348923Y342700D01*
X1350897D01*
X1352805Y343211D01*
X1354515Y344198D01*
X1355912Y345595D01*
X1356899Y347305D01*
X1357410Y349213D01*
Y351187D01*
X1356899Y353095D01*
X1356570Y353665D01*
X1357188Y355135D01*
X1357467Y355207D01*
X1364637Y348037D01*
X1364637Y348037D01*
X1365629Y347374D01*
X1366800Y347141D01*
X1366800Y347141D01*
X1381106D01*
X1381998Y345595D01*
X1383395Y344198D01*
X1385105Y343211D01*
X1387013Y342700D01*
X1388987D01*
X1390895Y343211D01*
X1392605Y344198D01*
X1394001Y345595D01*
X1394989Y347305D01*
X1395500Y349213D01*
Y351187D01*
X1394989Y353095D01*
X1394001Y354805D01*
X1392605Y356202D01*
X1390895Y357189D01*
X1388987Y357700D01*
X1387013D01*
X1385105Y357189D01*
X1383395Y356202D01*
X1381998Y354805D01*
X1381106Y353259D01*
X1368067D01*
X1366976Y354350D01*
X1367634Y355488D01*
X1367963Y355400D01*
X1369937D01*
X1371845Y355911D01*
X1373555Y356898D01*
X1374951Y358295D01*
X1375939Y360005D01*
X1376450Y361913D01*
Y363887D01*
X1375939Y365795D01*
X1374951Y367505D01*
X1373555Y368901D01*
X1371845Y369889D01*
X1369937Y370400D01*
X1367963D01*
X1366055Y369889D01*
X1364345Y368901D01*
X1362948Y367505D01*
X1362056Y365959D01*
X1349367D01*
X1348401Y366925D01*
X1348815Y367859D01*
X1349022Y368100D01*
X1350897D01*
X1352805Y368611D01*
X1354515Y369599D01*
X1355912Y370995D01*
X1356899Y372705D01*
X1357410Y374613D01*
Y376587D01*
X1357088Y377790D01*
X1358226Y378448D01*
X1363237Y373437D01*
X1363237Y373437D01*
X1364229Y372774D01*
X1365400Y372541D01*
X1381106D01*
X1381998Y370995D01*
X1383395Y369599D01*
X1385105Y368611D01*
X1387013Y368100D01*
X1388987D01*
X1390895Y368611D01*
X1392605Y369599D01*
X1394001Y370995D01*
X1394989Y372705D01*
X1395500Y374613D01*
Y376587D01*
X1394989Y378495D01*
X1394001Y380205D01*
X1392605Y381601D01*
X1390895Y382589D01*
X1388987Y383100D01*
X1387013D01*
X1385105Y382589D01*
X1383395Y381601D01*
X1381998Y380205D01*
X1381106Y378659D01*
X1366667D01*
X1364697Y380629D01*
X1365477Y381645D01*
X1366055Y381311D01*
X1367963Y380800D01*
X1369937D01*
X1371845Y381311D01*
X1373555Y382299D01*
X1374951Y383695D01*
X1375939Y385405D01*
X1376450Y387313D01*
Y389287D01*
X1375939Y391195D01*
X1374951Y392905D01*
X1373555Y394301D01*
X1371845Y395289D01*
X1369937Y395800D01*
X1367963D01*
X1366055Y395289D01*
X1364345Y394301D01*
X1362948Y392905D01*
X1362056Y391359D01*
X1347717D01*
X1345870Y393206D01*
X1346650Y394222D01*
X1347015Y394011D01*
X1348923Y393500D01*
X1350897D01*
X1352805Y394011D01*
X1354515Y394999D01*
X1355912Y396395D01*
X1356899Y398105D01*
X1357410Y400013D01*
Y401987D01*
X1357234Y402644D01*
X1358373Y403302D01*
X1362837Y398837D01*
X1362837Y398837D01*
X1363829Y398174D01*
X1365000Y397941D01*
X1381106D01*
X1381998Y396395D01*
X1383395Y394999D01*
X1385105Y394011D01*
X1387013Y393500D01*
X1388987D01*
X1390895Y394011D01*
X1392605Y394999D01*
X1394001Y396395D01*
X1394989Y398105D01*
X1395500Y400013D01*
Y401987D01*
X1394989Y403895D01*
X1394001Y405605D01*
X1392605Y407001D01*
X1390895Y407989D01*
X1388987Y408500D01*
X1387013D01*
X1385105Y407989D01*
X1383395Y407001D01*
X1381998Y405605D01*
X1381106Y404059D01*
X1366267D01*
X1363750Y406575D01*
X1364530Y407592D01*
X1366055Y406711D01*
X1367963Y406200D01*
X1369937D01*
X1371845Y406711D01*
X1373555Y407699D01*
X1374951Y409095D01*
X1375939Y410805D01*
X1376450Y412713D01*
Y414687D01*
X1375939Y416595D01*
X1374951Y418305D01*
X1373555Y419701D01*
X1371845Y420689D01*
X1369937Y421200D01*
X1367963D01*
X1366055Y420689D01*
X1364345Y419701D01*
X1362948Y418305D01*
X1362056Y416759D01*
X1348567D01*
X1347308Y418018D01*
X1347965Y419156D01*
X1348923Y418900D01*
X1350897D01*
X1352805Y419411D01*
X1354515Y420398D01*
X1355912Y421795D01*
X1356899Y423505D01*
X1357410Y425413D01*
Y427387D01*
X1356899Y429295D01*
X1355912Y431005D01*
X1354515Y432402D01*
X1354048Y432671D01*
X1354388Y433941D01*
X1357733D01*
X1367437Y424237D01*
X1367437Y424237D01*
X1368429Y423574D01*
X1369600Y423341D01*
X1381106D01*
X1381998Y421795D01*
X1383395Y420398D01*
X1385105Y419411D01*
X1387013Y418900D01*
X1388987D01*
X1390895Y419411D01*
X1392605Y420398D01*
X1394001Y421795D01*
X1394989Y423505D01*
X1395500Y425413D01*
Y427387D01*
X1394989Y429295D01*
X1394001Y431005D01*
X1392605Y432402D01*
X1390895Y433389D01*
X1388987Y433900D01*
X1387013D01*
X1385105Y433389D01*
X1383395Y432402D01*
X1381998Y431005D01*
X1381106Y429459D01*
X1370867D01*
X1369905Y430421D01*
X1370398Y431724D01*
X1371845Y432111D01*
X1373555Y433098D01*
X1374951Y434495D01*
X1375939Y436205D01*
X1376450Y438113D01*
Y440087D01*
X1375939Y441995D01*
X1374951Y443705D01*
X1373555Y445102D01*
X1371845Y446089D01*
X1369937Y446600D01*
X1367963D01*
X1366055Y446089D01*
X1364345Y445102D01*
X1363302Y444059D01*
X1354042D01*
X1353701Y445329D01*
X1354515Y445798D01*
X1355912Y447195D01*
X1356899Y448905D01*
X1357410Y450813D01*
Y452787D01*
X1356899Y454695D01*
X1356510Y455368D01*
X1357527Y456147D01*
X1364037Y449637D01*
X1364037Y449637D01*
X1365029Y448974D01*
X1366200Y448741D01*
X1366200Y448741D01*
X1381106D01*
X1381998Y447195D01*
X1383395Y445798D01*
X1385105Y444811D01*
X1387013Y444300D01*
X1388987D01*
X1390895Y444811D01*
X1392605Y445798D01*
X1394001Y447195D01*
X1394989Y448905D01*
X1395500Y450813D01*
Y452787D01*
X1394989Y454695D01*
X1394001Y456405D01*
X1392605Y457802D01*
X1390895Y458789D01*
X1388987Y459300D01*
X1387013D01*
X1385105Y458789D01*
X1383395Y457802D01*
X1381998Y456405D01*
X1381106Y454859D01*
X1367467D01*
X1366157Y456169D01*
X1366814Y457308D01*
X1367963Y457000D01*
X1369937D01*
X1371845Y457511D01*
X1373555Y458498D01*
X1374951Y459895D01*
X1375939Y461605D01*
X1376450Y463513D01*
Y465487D01*
X1375939Y467395D01*
X1374951Y469105D01*
X1373555Y470502D01*
X1371845Y471489D01*
X1369937Y472000D01*
X1367963D01*
X1366055Y471489D01*
X1364345Y470502D01*
X1362948Y469105D01*
X1362056Y467559D01*
X1349767D01*
X1348877Y468449D01*
X1349422Y469700D01*
X1350897D01*
X1352805Y470211D01*
X1354515Y471199D01*
X1355912Y472595D01*
X1356899Y474305D01*
X1357410Y476213D01*
Y478187D01*
X1356968Y479837D01*
X1357318Y480660D01*
X1357723Y481207D01*
X1358388Y481286D01*
X1364837Y474837D01*
X1364837Y474837D01*
X1365829Y474174D01*
X1367000Y473941D01*
X1367000Y473941D01*
X1381221D01*
X1381998Y472595D01*
X1383395Y471199D01*
X1385105Y470211D01*
X1387013Y469700D01*
X1388987D01*
X1390895Y470211D01*
X1392605Y471199D01*
X1394001Y472595D01*
X1394989Y474305D01*
X1395500Y476213D01*
Y478187D01*
X1394989Y480095D01*
X1394001Y481805D01*
X1392605Y483201D01*
X1390895Y484189D01*
X1388987Y484700D01*
X1387013D01*
X1385105Y484189D01*
X1383395Y483201D01*
X1381998Y481805D01*
X1381011Y480095D01*
X1381001Y480059D01*
X1368267D01*
X1366976Y481349D01*
X1367634Y482488D01*
X1367963Y482400D01*
X1369937D01*
X1371845Y482911D01*
X1373555Y483899D01*
X1374951Y485295D01*
X1375939Y487005D01*
X1376450Y488913D01*
Y490887D01*
X1375939Y492795D01*
X1374951Y494505D01*
X1373555Y495901D01*
X1371845Y496889D01*
X1369937Y497400D01*
X1367963D01*
X1366055Y496889D01*
X1364345Y495901D01*
X1362948Y494505D01*
X1362056Y492959D01*
X1347367D01*
X1345042Y495284D01*
X1345822Y496300D01*
X1347015Y495611D01*
X1348923Y495100D01*
X1350897D01*
X1352805Y495611D01*
X1354515Y496599D01*
X1355912Y497995D01*
X1356899Y499705D01*
X1357410Y501613D01*
Y502468D01*
X1358680Y502994D01*
X1361837Y499837D01*
X1361837Y499837D01*
X1362829Y499174D01*
X1364000Y498941D01*
X1381452D01*
X1381998Y497995D01*
X1383395Y496599D01*
X1385105Y495611D01*
X1387013Y495100D01*
X1388987D01*
X1390895Y495611D01*
X1392605Y496599D01*
X1394001Y497995D01*
X1394989Y499705D01*
X1395500Y501613D01*
Y503587D01*
X1394989Y505495D01*
X1394001Y507205D01*
X1392605Y508601D01*
X1390895Y509589D01*
X1388987Y510100D01*
X1387013D01*
X1385105Y509589D01*
X1383395Y508601D01*
X1381998Y507205D01*
X1381011Y505495D01*
X1380894Y505059D01*
X1365267D01*
X1359558Y510768D01*
X1360044Y511941D01*
X1362229D01*
X1362948Y510695D01*
X1364345Y509299D01*
X1366055Y508311D01*
X1367963Y507800D01*
X1369937D01*
X1371845Y508311D01*
X1373555Y509299D01*
X1374951Y510695D01*
X1375939Y512405D01*
X1376450Y514313D01*
Y516287D01*
X1375939Y518195D01*
X1374951Y519905D01*
X1373555Y521301D01*
X1371845Y522289D01*
X1369937Y522800D01*
X1367963D01*
X1366055Y522289D01*
X1364345Y521301D01*
X1362948Y519905D01*
X1361961Y518195D01*
X1361925Y518059D01*
X1349267D01*
X1347854Y519472D01*
X1348512Y520610D01*
X1348923Y520500D01*
X1350897D01*
X1352805Y521011D01*
X1354515Y521998D01*
X1355912Y523395D01*
X1356899Y525105D01*
X1357410Y527013D01*
Y528987D01*
X1356899Y530895D01*
X1356784Y531095D01*
X1357800Y531874D01*
X1363837Y525837D01*
X1363837Y525837D01*
X1364830Y525174D01*
X1366000Y524941D01*
X1366000Y524941D01*
X1381106D01*
X1381998Y523395D01*
X1383395Y521998D01*
X1385105Y521011D01*
X1387013Y520500D01*
X1388987D01*
X1390895Y521011D01*
X1392605Y521998D01*
X1394001Y523395D01*
X1394989Y525105D01*
X1395500Y527013D01*
Y528987D01*
X1394989Y530895D01*
X1394001Y532605D01*
X1392605Y534002D01*
X1390895Y534989D01*
X1388987Y535500D01*
X1387013D01*
X1385105Y534989D01*
X1383395Y534002D01*
X1381998Y532605D01*
X1381106Y531059D01*
X1367267D01*
X1365883Y532442D01*
X1366541Y533581D01*
X1367963Y533200D01*
X1369937D01*
X1371845Y533711D01*
X1373555Y534698D01*
X1374951Y536095D01*
X1375939Y537805D01*
X1376450Y539713D01*
Y541687D01*
X1375939Y543595D01*
X1374951Y545305D01*
X1373555Y546702D01*
X1371845Y547689D01*
X1369937Y548200D01*
X1367963D01*
X1366055Y547689D01*
X1364345Y546702D01*
X1362948Y545305D01*
X1361961Y543595D01*
X1361817Y543059D01*
X1351267D01*
X1349696Y544630D01*
X1350222Y545900D01*
X1350897D01*
X1352805Y546411D01*
X1354515Y547398D01*
X1355912Y548795D01*
X1356899Y550505D01*
X1357410Y552413D01*
Y554387D01*
X1357014Y555864D01*
X1358153Y556521D01*
X1363837Y550837D01*
X1363837Y550837D01*
X1364830Y550174D01*
X1366000Y549941D01*
X1381337D01*
X1381998Y548795D01*
X1383395Y547398D01*
X1385105Y546411D01*
X1387013Y545900D01*
X1388987D01*
X1390895Y546411D01*
X1392605Y547398D01*
X1394001Y548795D01*
X1394989Y550505D01*
X1395500Y552413D01*
Y554387D01*
X1394989Y556295D01*
X1394001Y558005D01*
X1392605Y559402D01*
X1390895Y560389D01*
X1388987Y560900D01*
X1387013D01*
X1385105Y560389D01*
X1383395Y559402D01*
X1381998Y558005D01*
X1381011Y556295D01*
X1380948Y556059D01*
X1367267D01*
X1365170Y558156D01*
X1365950Y559172D01*
X1366055Y559111D01*
X1367963Y558600D01*
X1369937D01*
X1371845Y559111D01*
X1373555Y560098D01*
X1374951Y561495D01*
X1375939Y563205D01*
X1376450Y565113D01*
Y567087D01*
X1375939Y568995D01*
X1374951Y570705D01*
X1373555Y572102D01*
X1371845Y573089D01*
X1369937Y573600D01*
X1367963D01*
X1366055Y573089D01*
X1364345Y572102D01*
X1362948Y570705D01*
X1362056Y569159D01*
X1351167D01*
X1350199Y570127D01*
X1350685Y571300D01*
X1350897D01*
X1352805Y571811D01*
X1354515Y572799D01*
X1355912Y574195D01*
X1356899Y575905D01*
X1357410Y577813D01*
Y579787D01*
X1356899Y581695D01*
X1356510Y582368D01*
X1357527Y583148D01*
X1363837Y576837D01*
X1363837Y576837D01*
X1364830Y576174D01*
X1366000Y575941D01*
X1366000Y575941D01*
X1381001D01*
X1381011Y575905D01*
X1381998Y574195D01*
X1383395Y572799D01*
X1385105Y571811D01*
X1387013Y571300D01*
X1388987D01*
X1390895Y571811D01*
X1392605Y572799D01*
X1394001Y574195D01*
X1394989Y575905D01*
X1395500Y577813D01*
Y579787D01*
X1394989Y581695D01*
X1394001Y583405D01*
X1392605Y584801D01*
X1390895Y585789D01*
X1388987Y586300D01*
X1387013D01*
X1385105Y585789D01*
X1383395Y584801D01*
X1381998Y583405D01*
X1381221Y582059D01*
X1367267D01*
X1366157Y583169D01*
X1366814Y584308D01*
X1367963Y584000D01*
X1369937D01*
X1371845Y584511D01*
X1373555Y585499D01*
X1374951Y586895D01*
X1375939Y588605D01*
X1376450Y590513D01*
Y592487D01*
X1375939Y594395D01*
X1374951Y596105D01*
X1373555Y597501D01*
X1371845Y598489D01*
X1369937Y599000D01*
X1367963D01*
X1366055Y598489D01*
X1364345Y597501D01*
X1362948Y596105D01*
X1361961Y594395D01*
X1361871Y594059D01*
X1352267D01*
X1350796Y595530D01*
X1351311Y596811D01*
X1352805Y597211D01*
X1354515Y598199D01*
X1355912Y599595D01*
X1356899Y601305D01*
X1357410Y603213D01*
Y605187D01*
X1357307Y605571D01*
X1358446Y606228D01*
X1362837Y601837D01*
X1362837Y601837D01*
X1363829Y601174D01*
X1365000Y600941D01*
X1381221D01*
X1381998Y599595D01*
X1383395Y598199D01*
X1385105Y597211D01*
X1387013Y596700D01*
X1388987D01*
X1390895Y597211D01*
X1392605Y598199D01*
X1394001Y599595D01*
X1394989Y601305D01*
X1395500Y603213D01*
Y605187D01*
X1394989Y607095D01*
X1394001Y608805D01*
X1392605Y610201D01*
X1390895Y611189D01*
X1388987Y611700D01*
X1387013D01*
X1385105Y611189D01*
X1383395Y610201D01*
X1381998Y608805D01*
X1381011Y607095D01*
X1381001Y607059D01*
X1366267D01*
X1361069Y612257D01*
X1361579Y613542D01*
X1362217Y613562D01*
X1362948Y612295D01*
X1364345Y610899D01*
X1366055Y609911D01*
X1367963Y609400D01*
X1369937D01*
X1371845Y609911D01*
X1373555Y610899D01*
X1374951Y612295D01*
X1375939Y614005D01*
X1376450Y615913D01*
Y617887D01*
X1375939Y619795D01*
X1374951Y621505D01*
X1373555Y622901D01*
X1371845Y623889D01*
X1369937Y624400D01*
X1367963D01*
X1366055Y623889D01*
X1364345Y622901D01*
X1362948Y621505D01*
X1362113Y620059D01*
X1350384D01*
X1349629Y620993D01*
X1350104Y622100D01*
X1350897D01*
X1352805Y622611D01*
X1354515Y623599D01*
X1355912Y624995D01*
X1356899Y626705D01*
X1357410Y628613D01*
Y630587D01*
X1357088Y631791D01*
X1358226Y632448D01*
X1362837Y627837D01*
X1362837Y627837D01*
X1363829Y627174D01*
X1365000Y626941D01*
X1380948D01*
X1381011Y626705D01*
X1381998Y624995D01*
X1383395Y623599D01*
X1385105Y622611D01*
X1387013Y622100D01*
X1388987D01*
X1390895Y622611D01*
X1392605Y623599D01*
X1394001Y624995D01*
X1394989Y626705D01*
X1395500Y628613D01*
Y630587D01*
X1394989Y632495D01*
X1394001Y634205D01*
X1392605Y635602D01*
X1390895Y636589D01*
X1388987Y637100D01*
X1387013D01*
X1385105Y636589D01*
X1383395Y635602D01*
X1381998Y634205D01*
X1381337Y633059D01*
X1366267D01*
X1364697Y634629D01*
X1365477Y635645D01*
X1366055Y635311D01*
X1367963Y634800D01*
X1369937D01*
X1371845Y635311D01*
X1373555Y636298D01*
X1374951Y637695D01*
X1375939Y639405D01*
X1376450Y641313D01*
Y643287D01*
X1375939Y645195D01*
X1374951Y646905D01*
X1373555Y648301D01*
X1371845Y649289D01*
X1369937Y649800D01*
X1367963D01*
X1366055Y649289D01*
X1365488Y648962D01*
X1365000Y649059D01*
X1365000Y649059D01*
X1356235D01*
X1355749Y650232D01*
X1355912Y650395D01*
X1356899Y652105D01*
X1357410Y654013D01*
Y655987D01*
X1357234Y656644D01*
X1358373Y657302D01*
X1362837Y652837D01*
X1362837Y652837D01*
X1363829Y652174D01*
X1365000Y651941D01*
X1365000Y651941D01*
X1381106D01*
X1381998Y650395D01*
X1383395Y648998D01*
X1385105Y648011D01*
X1387013Y647500D01*
X1388987D01*
X1390895Y648011D01*
X1392605Y648998D01*
X1394001Y650395D01*
X1394989Y652105D01*
X1395500Y654013D01*
Y655987D01*
X1394989Y657895D01*
X1394001Y659605D01*
X1392605Y661002D01*
X1390895Y661989D01*
X1388987Y662500D01*
X1387013D01*
X1385105Y661989D01*
X1383395Y661002D01*
X1381998Y659605D01*
X1381106Y658059D01*
X1366267D01*
X1363751Y660575D01*
X1364530Y661591D01*
X1366055Y660711D01*
X1367963Y660200D01*
X1369937D01*
X1371845Y660711D01*
X1373555Y661699D01*
X1374951Y663095D01*
X1375939Y664805D01*
X1376450Y666713D01*
Y668687D01*
X1375939Y670595D01*
X1374951Y672305D01*
X1373555Y673701D01*
X1371845Y674689D01*
X1369937Y675200D01*
X1367963D01*
X1366055Y674689D01*
X1364345Y673701D01*
X1362948Y672305D01*
X1361961Y670595D01*
X1361817Y670059D01*
X1352267D01*
X1350565Y671760D01*
X1351153Y672969D01*
X1352805Y673411D01*
X1354515Y674398D01*
X1355912Y675795D01*
X1356899Y677505D01*
X1357410Y679413D01*
Y681387D01*
X1356899Y683295D01*
X1355912Y685005D01*
X1354515Y686402D01*
X1352805Y687389D01*
X1350897Y687900D01*
X1348923D01*
X1347742Y687584D01*
X1318163Y717163D01*
X1317171Y717826D01*
X1316000Y718059D01*
X1316000Y718059D01*
X1242654D01*
X1242589Y718171D01*
X1243322Y719441D01*
X1345233D01*
X1381146Y683528D01*
X1381011Y683295D01*
X1380500Y681387D01*
Y679413D01*
X1381011Y677505D01*
X1381998Y675795D01*
X1383395Y674398D01*
X1385105Y673411D01*
X1387013Y672900D01*
X1388987D01*
X1390895Y673411D01*
X1392605Y674398D01*
X1394001Y675795D01*
X1394989Y677505D01*
X1395500Y679413D01*
Y681387D01*
X1394989Y683295D01*
X1394001Y685005D01*
X1392605Y686402D01*
X1390895Y687389D01*
X1388987Y687900D01*
X1387013D01*
X1385761Y687565D01*
X1348663Y724663D01*
X1347671Y725326D01*
X1346500Y725559D01*
X1346500Y725559D01*
X1221464D01*
X1220749Y726798D01*
X1219445Y728101D01*
X1217849Y729023D01*
X1216069Y729500D01*
X1214226D01*
X1212445Y729023D01*
X1210849Y728101D01*
X1209546Y726798D01*
X1208624Y725202D01*
X1208586Y725059D01*
X1206718D01*
X1206232Y726232D01*
X1245000Y765000D01*
X1410000D01*
Y175000D01*
D02*
G37*
G36*
X1346442Y667232D02*
X1345956Y666059D01*
X1341000D01*
X1339830Y665826D01*
X1339339Y665499D01*
X1338237Y666289D01*
X1338350Y666713D01*
Y668687D01*
X1337839Y670595D01*
X1336852Y672305D01*
X1335455Y673701D01*
X1333745Y674689D01*
X1331837Y675200D01*
X1329863D01*
X1329281Y675044D01*
X1302163Y702163D01*
X1301171Y702826D01*
X1300000Y703059D01*
X1300000Y703059D01*
X1288326D01*
X1288261Y703171D01*
X1288994Y704441D01*
X1309233D01*
X1346442Y667232D01*
D02*
G37*
G36*
X1275071Y545702D02*
X1276374Y544399D01*
X1277970Y543477D01*
X1278524Y543329D01*
X1278356Y542059D01*
X1221464D01*
X1220749Y543298D01*
X1219445Y544601D01*
X1219324Y544671D01*
X1219665Y545941D01*
X1274933D01*
X1275071Y545702D01*
D02*
G37*
G36*
X1303400Y534274D02*
X1303141Y533487D01*
X1302819Y533059D01*
X1241317D01*
X1240601Y534298D01*
X1240228Y534671D01*
X1240754Y535941D01*
X1301733D01*
X1303400Y534274D01*
D02*
G37*
G36*
X260250Y241000D02*
X267750Y233500D01*
X250250Y233500D01*
Y248500D01*
X267750D01*
X260250Y241000D01*
D02*
G37*
G36*
X283000Y233485D02*
X270765D01*
X263250Y241000D01*
X270750Y248500D01*
X283000Y248500D01*
Y233485D01*
D02*
G37*
G36*
X1194404Y226270D02*
X1193878Y225000D01*
X235000D01*
Y253706D01*
X251731D01*
Y250539D01*
X250250D01*
X250053Y250500D01*
X248300D01*
Y248948D01*
X248211Y248500D01*
Y233500D01*
X248300Y233051D01*
Y231500D01*
X250053D01*
X250250Y231461D01*
X267750Y231461D01*
X268530Y231616D01*
X269268Y232014D01*
X269984Y231601D01*
X270765Y231446D01*
X283000D01*
X283271Y231500D01*
X285000D01*
Y233288D01*
X285039Y233485D01*
Y248500D01*
X285000Y248697D01*
Y250500D01*
X283197D01*
X283000Y250539D01*
X270750Y250539D01*
X270750Y250539D01*
X269970Y250384D01*
X269308Y249942D01*
X268530Y250384D01*
X267750Y250539D01*
X258869D01*
Y253706D01*
X1166968Y253706D01*
X1194404Y226270D01*
D02*
G37*
G36*
X1323350Y261228D02*
Y260313D01*
X1323861Y258405D01*
X1324848Y256695D01*
X1326245Y255299D01*
X1327791Y254406D01*
Y242117D01*
X1298770Y213096D01*
X1297500Y213622D01*
Y213700D01*
X1295948D01*
X1295500Y213789D01*
X1280500D01*
X1280052Y213700D01*
X1278500D01*
Y211947D01*
X1278461Y211750D01*
Y210059D01*
X1219267D01*
X1211154Y218171D01*
X1211681Y219441D01*
X1250780D01*
X1251495Y218202D01*
X1252798Y216899D01*
X1254395Y215977D01*
X1256175Y215500D01*
X1258018D01*
X1259798Y215977D01*
X1261395Y216899D01*
X1262698Y218202D01*
X1263413Y219441D01*
X1301500D01*
X1301500Y219441D01*
X1302670Y219674D01*
X1303663Y220337D01*
X1319163Y235837D01*
X1319163Y235837D01*
X1319826Y236829D01*
X1320059Y238000D01*
Y259733D01*
X1322080Y261754D01*
X1323350Y261228D01*
D02*
G37*
G36*
X1295500Y194250D02*
X1288000Y201750D01*
X1280500Y194250D01*
X1280500Y211750D01*
X1295500D01*
Y194250D01*
D02*
G37*
%LPC*%
G36*
X1382777Y744700D02*
X1379223D01*
X1375789Y743780D01*
X1372711Y742003D01*
X1370197Y739489D01*
X1368420Y736411D01*
X1367500Y732977D01*
Y729423D01*
X1368420Y725989D01*
X1370197Y722911D01*
X1372711Y720397D01*
X1375789Y718620D01*
X1379223Y717700D01*
X1382777D01*
X1386211Y718620D01*
X1389289Y720397D01*
X1391803Y722911D01*
X1393580Y725989D01*
X1394500Y729423D01*
Y732977D01*
X1393580Y736411D01*
X1391803Y739489D01*
X1389289Y742003D01*
X1386211Y743780D01*
X1382777Y744700D01*
D02*
G37*
G36*
Y224000D02*
X1379223D01*
X1375789Y223080D01*
X1372711Y221303D01*
X1370197Y218789D01*
X1368420Y215711D01*
X1367500Y212277D01*
Y208723D01*
X1368420Y205289D01*
X1370197Y202211D01*
X1372711Y199697D01*
X1375789Y197920D01*
X1379223Y197000D01*
X1382777D01*
X1386211Y197920D01*
X1389289Y199697D01*
X1391803Y202211D01*
X1393580Y205289D01*
X1394500Y208723D01*
Y212277D01*
X1393580Y215711D01*
X1391803Y218789D01*
X1389289Y221303D01*
X1386211Y223080D01*
X1382777Y224000D01*
D02*
G37*
G36*
X1297500Y182500D02*
X1295500D01*
Y179000D01*
X1289500D01*
Y177000D01*
X1297500D01*
Y182500D01*
D02*
G37*
G36*
X1280485D02*
X1278500D01*
Y177000D01*
X1286500D01*
Y179000D01*
X1280485D01*
Y182500D01*
D02*
G37*
%LPD*%
D12*
X1208000Y245000D02*
X1282500D01*
X1328772Y286022D02*
X1329450Y286700D01*
X1282500Y245000D02*
X1323522Y286022D01*
X1328772D01*
X1303000Y500000D02*
X1306000Y503000D01*
X1235000Y500000D02*
X1303000D01*
X1306000Y503000D02*
X1350000D01*
X1234563Y485438D02*
X1235000Y485000D01*
X1280672D01*
X1201250Y700250D02*
X1210250D01*
X1164675Y663675D02*
X1201250Y700250D01*
X1329450Y286700D02*
X1330850D01*
X1285422Y253826D02*
Y253882D01*
X1289790Y258250D02*
X1289846D01*
X1284096Y252500D02*
X1285422Y253826D01*
Y253882D02*
X1289790Y258250D01*
X1257096Y252500D02*
X1284096D01*
X1210500Y700000D02*
X1211894D01*
X1212144Y700250D01*
X1218150D01*
X1210250D02*
X1210500Y700000D01*
X1218150Y700250D02*
X1218400Y700000D01*
X1280672D01*
X1215147Y693000D02*
X1277419D01*
X1215147Y267500D02*
X1285500D01*
X1201000Y670000D02*
X1298000D01*
X1325000Y643000D02*
X1331000D01*
X1298000Y670000D02*
X1325000Y643000D01*
X1277669Y631750D02*
X1298250D01*
X1365000Y604000D02*
X1386000D01*
X1356000Y613000D02*
X1365000Y604000D01*
X1343000Y613000D02*
X1356000D01*
X1338000Y608000D02*
X1343000Y613000D01*
X1322000Y608000D02*
X1338000D01*
X1298250Y631750D02*
X1322000Y608000D01*
X1170325Y282675D02*
X1208000Y245000D01*
X1280672Y485000D02*
X1305000D01*
X1309900Y489900D02*
X1330850D01*
X1305000Y485000D02*
X1309900Y489900D01*
X1280672Y639000D02*
X1298000D01*
X1319000Y618000D02*
X1331000D01*
X1298000Y639000D02*
X1319000Y618000D01*
X1198750Y639750D02*
X1279922D01*
X1280672Y639000D01*
X1171875Y612875D02*
X1198750Y639750D01*
X1280672Y485000D02*
X1280672Y485000D01*
X1192000Y549000D02*
X1279672D01*
X1280672Y550000D01*
X1179675Y536675D02*
X1192000Y549000D01*
X1169275Y638275D02*
X1201000Y670000D01*
X1280672Y580000D02*
X1301000D01*
X1315000Y566000D02*
X1330000D01*
X1301000Y580000D02*
X1315000Y566000D01*
X1195250Y580250D02*
X1280422D01*
X1280672Y580000D01*
X1177075Y562075D02*
X1195250Y580250D01*
X1192000Y515000D02*
X1280672D01*
X1188275Y511275D02*
X1192000Y515000D01*
X1280672Y425000D02*
X1306000D01*
X1320100Y439100D02*
X1330850D01*
X1306000Y425000D02*
X1320100Y439100D01*
X1215147Y632500D02*
X1276919D01*
X1198000Y425000D02*
X1280672D01*
X1280672Y425000D01*
X1187925Y435075D02*
X1198000Y425000D01*
X1280672Y550000D02*
X1303000D01*
X1312300Y540700D02*
X1330850D01*
X1303000Y550000D02*
X1312300Y540700D01*
X1280672Y515000D02*
X1331000D01*
X1331000Y515000D01*
X1280672Y455000D02*
X1308000D01*
X1280049Y455624D02*
X1280672Y455000D01*
X1317500Y464500D02*
X1330850D01*
X1308000Y455000D02*
X1317500Y464500D01*
X1204500Y455000D02*
X1280672D01*
X1199025Y460475D02*
X1204500Y455000D01*
X1205500Y305000D02*
X1292000D01*
X1324500Y337500D02*
X1330850D01*
X1292000Y305000D02*
X1324500Y337500D01*
X1204000Y335000D02*
X1298000D01*
X1325900Y362900D02*
X1330850D01*
X1298000Y335000D02*
X1325900Y362900D01*
X1180125Y358875D02*
X1204000Y335000D01*
X1287531Y276531D02*
X1323100Y312100D01*
X1282203Y276531D02*
X1287531D01*
X1280672Y275000D02*
X1282203Y276531D01*
X1323100Y312100D02*
X1330850D01*
X1207500Y275000D02*
X1280672D01*
X1174425Y308075D02*
X1207500Y275000D01*
X1197000Y610000D02*
X1299000D01*
X1318000Y591000D02*
X1330000D01*
X1299000Y610000D02*
X1318000Y591000D01*
X1174475Y587475D02*
X1197000Y610000D01*
X1200000Y395000D02*
X1304000D01*
X1322700Y413700D02*
X1330850D01*
X1304000Y395000D02*
X1322700Y413700D01*
X1277669Y692750D02*
X1293250D01*
X1365000Y655000D02*
X1385000D01*
X1357000Y663000D02*
X1365000Y655000D01*
X1341000Y663000D02*
X1357000D01*
X1337000Y659000D02*
X1341000Y663000D01*
X1327000Y659000D02*
X1337000D01*
X1293250Y692750D02*
X1327000Y659000D01*
X1185325Y409675D02*
X1200000Y395000D01*
X1202000Y365000D02*
X1302000D01*
X1325300Y388300D02*
X1330850D01*
X1302000Y365000D02*
X1325300Y388300D01*
X1177025Y333475D02*
X1205500Y305000D01*
X1182725Y384275D02*
X1202000Y365000D01*
X1281172Y267500D02*
X1287753D01*
X1365450Y299400D02*
X1388000D01*
X1356000Y308850D02*
X1365450Y299400D01*
X1345554Y308850D02*
X1356000D01*
X1343850D02*
X1345554D01*
X1338000Y303000D02*
X1343850Y308850D01*
X1323253Y303000D02*
X1338000D01*
X1298000Y277747D02*
X1323253Y303000D01*
X1287753Y267500D02*
X1298000Y277747D01*
X1280672Y700000D02*
X1300000D01*
X1331000Y669000D01*
X1289846Y258250D02*
X1327746Y296150D01*
X1236500Y261500D02*
X1287500D01*
X1235000Y260000D02*
X1236500Y261500D01*
X1207500Y252500D02*
X1257096D01*
X1287500Y261500D02*
X1325400Y299400D01*
X1349300Y286700D02*
X1368950D01*
X1339850Y296150D02*
X1349300Y286700D01*
X1327746Y296150D02*
X1339850D01*
X1170975Y289025D02*
X1207500Y252500D01*
X1200875Y677500D02*
X1257096D01*
X1168000Y644625D02*
X1200875Y677500D01*
X1257096D02*
X1296500D01*
X1365000Y646000D02*
X1369000Y642000D01*
X1340000Y646000D02*
X1365000D01*
X1335000Y651000D02*
X1340000Y646000D01*
X1323000Y651000D02*
X1335000D01*
X1296500Y677500D02*
X1323000Y651000D01*
X1210000Y222500D02*
X1301500D01*
X1346500Y262500D02*
X1370000D01*
X1339000Y270000D02*
X1346500Y262500D01*
X1326000Y270000D02*
X1339000D01*
X1317000Y261000D02*
X1326000Y270000D01*
X1317000Y238000D02*
Y261000D01*
X1301500Y222500D02*
X1317000Y238000D01*
X1168875Y263625D02*
X1210000Y222500D01*
X1201000Y707000D02*
X1256597D01*
X1257096Y707500D01*
X1164025Y670025D02*
X1201000Y707000D01*
X1207000Y282500D02*
X1257096D01*
X1175075Y314425D02*
X1207000Y282500D01*
X1257096Y462500D02*
X1307500D01*
X1348500Y464500D02*
X1368950D01*
X1340000Y473000D02*
X1348500Y464500D01*
X1318000Y473000D02*
X1340000D01*
X1307500Y462500D02*
X1318000Y473000D01*
X1257096Y282500D02*
X1287500D01*
X1346900Y312100D02*
X1368950D01*
X1338000Y321000D02*
X1346900Y312100D01*
X1326000Y321000D02*
X1338000D01*
X1287500Y282500D02*
X1326000Y321000D01*
X1206500Y462000D02*
X1256597D01*
X1257096Y462500D01*
X1201675Y466825D02*
X1206500Y462000D01*
X1197000Y617000D02*
X1256597D01*
X1257096Y617500D01*
X1173825Y593825D02*
X1197000Y617000D01*
X1257096Y707500D02*
X1310500D01*
X1351000Y667000D02*
X1368000D01*
X1310500Y707500D02*
X1351000Y667000D01*
X1257096Y617500D02*
X1298500D01*
X1351000Y591000D02*
X1370000D01*
X1342000Y600000D02*
X1351000Y591000D01*
X1316000Y600000D02*
X1342000D01*
X1298500Y617500D02*
X1316000Y600000D01*
X1257096Y342500D02*
X1298500D01*
X1348100Y362900D02*
X1368950D01*
X1339000Y372000D02*
X1348100Y362900D01*
X1328000Y372000D02*
X1339000D01*
X1298500Y342500D02*
X1328000Y372000D01*
X1203250Y342750D02*
X1256846D01*
X1257096Y342500D01*
X1180775Y365225D02*
X1203250Y342750D01*
X1257096Y492500D02*
X1304500D01*
X1346100Y489900D02*
X1368950D01*
X1337000Y499000D02*
X1346100Y489900D01*
X1311000Y499000D02*
X1337000D01*
X1304500Y492500D02*
X1311000Y499000D01*
X1195500Y587500D02*
X1300500D01*
X1349900Y566100D02*
X1368950D01*
X1342000Y574000D02*
X1349900Y566100D01*
X1314000Y574000D02*
X1342000D01*
X1300500Y587500D02*
X1314000Y574000D01*
X1193500Y557500D02*
X1257096D01*
X1179025Y543025D02*
X1193500Y557500D01*
X1176425Y568425D02*
X1195500Y587500D01*
X1257096Y557500D02*
X1302500D01*
X1350000Y540000D02*
X1369000D01*
X1341000Y549000D02*
X1350000Y540000D01*
X1311000Y549000D02*
X1341000D01*
X1302500Y557500D02*
X1311000Y549000D01*
X1201500Y372500D02*
X1302500D01*
X1346450Y388300D02*
X1368950D01*
X1337000Y397750D02*
X1346450Y388300D01*
X1327750Y397750D02*
X1337000D01*
X1302500Y372500D02*
X1327750Y397750D01*
X1197500Y432500D02*
X1307500D01*
X1367050Y441000D02*
X1368950Y439100D01*
X1345000Y441000D02*
X1367050D01*
X1338000Y448000D02*
X1345000Y441000D01*
X1323000Y448000D02*
X1338000D01*
X1307500Y432500D02*
X1323000Y448000D01*
X1205000Y312500D02*
X1293500D01*
X1347500Y337500D02*
X1368950D01*
X1338050Y346950D02*
X1347500Y337500D01*
X1327950Y346950D02*
X1338050D01*
X1293500Y312500D02*
X1327950Y346950D01*
X1177675Y339825D02*
X1205000Y312500D01*
X1199000Y647000D02*
X1257096D01*
X1171225Y619225D02*
X1199000Y647000D01*
X1183375Y390625D02*
X1201500Y372500D01*
X1257096Y647000D02*
X1298000D01*
X1349000Y617000D02*
X1369000D01*
X1341000Y625000D02*
X1349000Y617000D01*
X1320000Y625000D02*
X1341000D01*
X1298000Y647000D02*
X1320000Y625000D01*
X1257096Y402500D02*
X1304500D01*
X1347300Y413700D02*
X1368950D01*
X1338000Y423000D02*
X1347300Y413700D01*
X1325000Y423000D02*
X1338000D01*
X1304500Y402500D02*
X1325000Y423000D01*
X1190500Y522500D02*
X1304500D01*
X1368000Y515000D02*
X1369000Y516000D01*
X1348000Y515000D02*
X1368000D01*
X1339000Y524000D02*
X1348000Y515000D01*
X1306000Y524000D02*
X1339000D01*
X1304500Y522500D02*
X1306000Y524000D01*
X1200025Y402000D02*
X1256597D01*
X1257096Y402500D01*
X1186000Y416025D02*
X1200025Y402000D01*
X1185625Y517625D02*
X1190500Y522500D01*
X1188575Y441425D02*
X1197500Y432500D01*
X1215397Y507250D02*
X1231997D01*
X1215147Y507500D02*
X1215397Y507250D01*
X1200500Y685000D02*
X1235000D01*
X1166475Y650975D02*
X1200500Y685000D01*
X1196000Y595000D02*
X1235000D01*
X1175775Y574775D02*
X1196000Y595000D01*
X1235000D02*
X1300000D01*
X1316200Y578800D02*
X1349910D01*
X1300000Y595000D02*
X1316200Y578800D01*
X1206500Y290000D02*
X1235000D01*
X1175725Y320775D02*
X1206500Y290000D01*
X1194000Y565000D02*
X1235000D01*
X1178375Y549375D02*
X1194000Y565000D01*
X1235000Y290000D02*
X1289000D01*
X1323800Y324800D02*
X1349910D01*
X1289000Y290000D02*
X1323800Y324800D01*
X1235000Y685000D02*
X1295000D01*
X1325000Y655000D02*
X1349910D01*
X1295000Y685000D02*
X1325000Y655000D01*
X1204500Y320000D02*
X1235000D01*
X1178325Y346175D02*
X1204500Y320000D01*
X1235000Y715000D02*
X1316000D01*
X1351000Y680000D01*
X1207500Y470000D02*
X1235000D01*
X1204325Y473175D02*
X1207500Y470000D01*
X1190000Y530000D02*
X1235000D01*
X1183975Y523975D02*
X1190000Y530000D01*
X1235000D02*
X1303000D01*
X1305000Y528000D02*
X1348000D01*
X1303000Y530000D02*
X1305000Y528000D01*
X1207500Y260000D02*
X1235000D01*
X1172125Y295375D02*
X1207500Y260000D01*
X1325400Y299400D02*
X1349910D01*
X1198000Y625000D02*
X1298000D01*
X1318800Y604200D02*
X1349910D01*
X1298000Y625000D02*
X1318800Y604200D01*
X1200000Y655000D02*
X1235000D01*
X1170575Y625575D02*
X1200000Y655000D01*
X1235000D02*
X1297000D01*
X1322400Y629600D02*
X1349910D01*
X1297000Y655000D02*
X1322400Y629600D01*
X1203500Y440000D02*
X1235000D01*
X1195725Y447775D02*
X1203500Y440000D01*
X1173175Y600175D02*
X1198000Y625000D01*
X1235000Y320000D02*
X1295000D01*
X1325200Y350200D02*
X1349910D01*
X1295000Y320000D02*
X1325200Y350200D01*
X1235000Y440000D02*
X1306000D01*
X1317800Y451800D02*
X1349910D01*
X1306000Y440000D02*
X1317800Y451800D01*
X1209000Y230000D02*
X1297000D01*
X1324000Y274000D02*
X1349910D01*
X1311000Y261000D02*
X1324000Y274000D01*
X1311000Y244000D02*
Y261000D01*
X1297000Y230000D02*
X1311000Y244000D01*
X1235000Y470000D02*
X1307000D01*
X1314000Y477000D02*
X1350000D01*
X1307000Y470000D02*
X1314000Y477000D01*
X1235000Y565000D02*
X1302000D01*
X1314000Y553000D02*
X1352000D01*
X1302000Y565000D02*
X1314000Y553000D01*
X1201000Y380000D02*
X1235000D01*
X1184025Y396975D02*
X1201000Y380000D01*
X1235000Y380000D02*
X1303000D01*
X1324000Y401000D02*
X1349910D01*
X1303000Y380000D02*
X1324000Y401000D01*
X1199000Y410000D02*
X1235000D01*
X1235000Y410000D01*
X1186625Y422375D02*
X1199000Y410000D01*
X1203000Y350000D02*
X1235000D01*
X1181425Y371575D02*
X1203000Y350000D01*
X1235000Y410000D02*
X1305000D01*
X1321400Y426400D02*
X1349910D01*
X1305000Y410000D02*
X1321400Y426400D01*
X1231997Y507250D02*
X1337250D01*
X1231997Y507250D02*
X1231997Y507250D01*
X1364000Y502000D02*
X1388000D01*
X1355000Y511000D02*
X1364000Y502000D01*
X1341000Y511000D02*
X1355000D01*
X1337250Y507250D02*
X1341000Y511000D01*
X1235000Y350000D02*
X1299000D01*
X1324600Y375600D02*
X1349910D01*
X1299000Y350000D02*
X1324600Y375600D01*
X1169025Y269975D02*
X1209000Y230000D01*
X1201000Y714000D02*
X1234000D01*
X1235000Y715000D01*
X1163375Y676375D02*
X1201000Y714000D01*
X1215147Y357500D02*
X1300500D01*
X1365400Y375600D02*
X1388000D01*
X1356000Y385000D02*
X1365400Y375600D01*
X1346000Y385000D02*
X1356000D01*
X1340000Y379000D02*
X1346000Y385000D01*
X1322000Y379000D02*
X1340000D01*
X1300500Y357500D02*
X1322000Y379000D01*
X1202000Y693000D02*
X1215147D01*
X1166319Y657319D02*
X1202000Y693000D01*
X1277419D02*
X1277669Y692750D01*
X1215147Y477500D02*
X1305500D01*
X1388000Y477200D02*
Y478000D01*
X1387000Y477000D02*
X1388000Y478000D01*
X1367000Y477000D02*
X1387000D01*
X1359000Y485000D02*
X1367000Y477000D01*
X1343000Y485000D02*
X1359000D01*
X1339000Y481000D02*
X1343000Y485000D01*
X1309000Y481000D02*
X1339000D01*
X1305500Y477500D02*
X1309000Y481000D01*
X1215147Y722500D02*
X1346500D01*
X1388000Y681000D01*
X1201000Y387000D02*
X1214647D01*
X1215147Y387500D01*
X1184675Y403325D02*
X1201000Y387000D01*
X1202000Y722000D02*
X1214647D01*
X1215147Y722500D01*
X1162725Y682725D02*
X1202000Y722000D01*
X1203000Y447500D02*
X1215147D01*
X1196375Y454125D02*
X1203000Y447500D01*
X1206000Y297500D02*
X1215147D01*
X1176375Y327125D02*
X1206000Y297500D01*
X1215147Y447500D02*
X1306500D01*
X1366200Y451800D02*
X1388000D01*
X1357000Y461000D02*
X1366200Y451800D01*
X1341000Y461000D02*
X1357000D01*
X1336000Y456000D02*
X1341000Y461000D01*
X1315000Y456000D02*
X1336000D01*
X1306500Y447500D02*
X1315000Y456000D01*
X1215147Y297500D02*
X1290500D01*
X1367200Y324800D02*
X1388000D01*
X1358000Y334000D02*
X1367200Y324800D01*
X1343000Y334000D02*
X1358000D01*
X1338000Y329000D02*
X1343000Y334000D01*
X1322000Y329000D02*
X1338000D01*
X1290500Y297500D02*
X1322000Y329000D01*
X1215147Y602500D02*
X1299500D01*
X1366000Y579000D02*
X1388000D01*
X1358000Y587000D02*
X1366000Y579000D01*
X1344000Y587000D02*
X1358000D01*
X1340000Y583000D02*
X1344000Y587000D01*
X1319000Y583000D02*
X1340000D01*
X1299500Y602500D02*
X1319000Y583000D01*
X1197000Y603000D02*
X1214647D01*
X1215147Y602500D01*
X1175125Y581125D02*
X1197000Y603000D01*
X1198000Y418000D02*
X1214647D01*
X1215147Y417500D01*
X1187275Y428725D02*
X1198000Y418000D01*
X1215147Y417500D02*
X1305500D01*
X1369600Y426400D02*
X1388000D01*
X1359000Y437000D02*
X1369600Y426400D01*
X1344000Y437000D02*
X1359000D01*
X1337000Y430000D02*
X1344000Y437000D01*
X1318000Y430000D02*
X1337000D01*
X1305500Y417500D02*
X1318000Y430000D01*
X1195000Y573000D02*
X1214647D01*
X1215147Y572500D01*
X1177725Y555725D02*
X1195000Y573000D01*
X1192000Y507000D02*
X1214647D01*
X1215147Y507500D01*
X1190736Y505736D02*
X1192000Y507000D01*
X1188811Y505736D02*
X1190736D01*
X1188000Y504925D02*
X1188811Y505736D01*
X1208000Y267500D02*
X1215147D01*
X1173775Y301725D02*
X1208000Y267500D01*
X1215147Y572500D02*
X1301500D01*
X1366000Y553000D02*
X1390000D01*
X1357000Y562000D02*
X1366000Y553000D01*
X1342000Y562000D02*
X1357000D01*
X1337000Y557000D02*
X1342000Y562000D01*
X1317000Y557000D02*
X1337000D01*
X1301500Y572500D02*
X1317000Y557000D01*
X1200500Y662500D02*
X1215147D01*
X1169925Y631925D02*
X1200500Y662500D01*
X1203000Y357000D02*
X1214647D01*
X1215147Y357500D01*
X1182075Y377925D02*
X1203000Y357000D01*
X1215147Y662500D02*
X1296500D01*
X1365000Y630000D02*
X1389000D01*
X1356000Y639000D02*
X1365000Y630000D01*
X1342000Y639000D02*
X1356000D01*
X1337000Y634000D02*
X1342000Y639000D01*
X1325000Y634000D02*
X1337000D01*
X1296500Y662500D02*
X1325000Y634000D01*
X1198000Y632000D02*
X1214647D01*
X1215147Y632500D01*
X1172525Y606525D02*
X1198000Y632000D01*
X1208000Y237500D02*
X1215147D01*
X1169175Y276325D02*
X1208000Y237500D01*
X1191000Y539000D02*
X1215147D01*
X1182325Y530325D02*
X1191000Y539000D01*
X1204500Y327500D02*
X1215147D01*
X1179475Y352525D02*
X1204500Y327500D01*
X1215147Y539000D02*
X1303000D01*
X1366000Y528000D02*
X1387000D01*
X1358000Y536000D02*
X1366000Y528000D01*
X1342000Y536000D02*
X1358000D01*
X1338000Y532000D02*
X1342000Y536000D01*
X1310000Y532000D02*
X1338000D01*
X1303000Y539000D02*
X1310000Y532000D01*
X1215147Y237500D02*
X1292500D01*
X1366000Y274000D02*
X1388000D01*
X1357500Y282500D02*
X1366000Y274000D01*
X1341500Y282500D02*
X1357500D01*
X1337000Y278000D02*
X1341500Y282500D01*
X1322000Y278000D02*
X1337000D01*
X1305000Y261000D02*
X1322000Y278000D01*
X1305000Y250000D02*
Y261000D01*
X1292500Y237500D02*
X1305000Y250000D01*
X1214647Y478000D02*
X1215147Y477500D01*
X1213147Y478000D02*
X1214647D01*
X1276919Y632500D02*
X1277669Y631750D01*
X1215147Y327500D02*
X1296500D01*
X1366800Y350200D02*
X1388000D01*
X1358000Y359000D02*
X1366800Y350200D01*
X1343000Y359000D02*
X1358000D01*
X1338000Y354000D02*
X1343000Y359000D01*
X1323000Y354000D02*
X1338000D01*
X1296500Y327500D02*
X1323000Y354000D01*
X1215147Y387500D02*
X1303500D01*
X1365000Y401000D02*
X1388000D01*
X1356000Y410000D02*
X1365000Y401000D01*
X1342000Y410000D02*
X1356000D01*
X1337000Y405000D02*
X1342000Y410000D01*
X1321000Y405000D02*
X1337000D01*
X1303500Y387500D02*
X1321000Y405000D01*
X1288000Y207000D02*
X1297000D01*
X1218000D02*
X1288000D01*
X1167725Y257275D02*
X1218000Y207000D01*
X1256597Y492000D02*
X1257096Y492500D01*
X1254097Y492000D02*
X1256597D01*
X254977Y257275D02*
X255300Y256952D01*
X1297000Y207000D02*
X1330850Y240850D01*
Y261300D01*
X1211622Y479525D02*
X1213147Y478000D01*
D14*
X255300Y241000D02*
D03*
X278000D02*
D03*
D15*
X1288000Y184000D02*
D03*
Y206700D02*
D03*
D16*
X213000Y644625D02*
D03*
Y638275D02*
D03*
Y631925D02*
D03*
Y625575D02*
D03*
Y682725D02*
D03*
Y670025D02*
D03*
Y657325D02*
D03*
Y619225D02*
D03*
Y606525D02*
D03*
Y593825D02*
D03*
Y581125D02*
D03*
Y568425D02*
D03*
Y555725D02*
D03*
Y543025D02*
D03*
Y530325D02*
D03*
Y517625D02*
D03*
Y504925D02*
D03*
Y492225D02*
D03*
Y479525D02*
D03*
Y466825D02*
D03*
Y454125D02*
D03*
Y441425D02*
D03*
Y428725D02*
D03*
Y416025D02*
D03*
Y403325D02*
D03*
Y390625D02*
D03*
Y377925D02*
D03*
Y365225D02*
D03*
Y352525D02*
D03*
Y339825D02*
D03*
Y327125D02*
D03*
Y314425D02*
D03*
Y301725D02*
D03*
Y289025D02*
D03*
Y276325D02*
D03*
Y263625D02*
D03*
Y676375D02*
D03*
Y663675D02*
D03*
Y650975D02*
D03*
Y612875D02*
D03*
Y600175D02*
D03*
Y587475D02*
D03*
Y574775D02*
D03*
Y562075D02*
D03*
Y549375D02*
D03*
Y536675D02*
D03*
Y523975D02*
D03*
Y511275D02*
D03*
Y498575D02*
D03*
Y485875D02*
D03*
Y473175D02*
D03*
Y460475D02*
D03*
Y447775D02*
D03*
Y435075D02*
D03*
Y422375D02*
D03*
Y409675D02*
D03*
Y396975D02*
D03*
Y384275D02*
D03*
Y371575D02*
D03*
Y358875D02*
D03*
Y346175D02*
D03*
Y333475D02*
D03*
Y320775D02*
D03*
Y308075D02*
D03*
Y295375D02*
D03*
Y282675D02*
D03*
Y269975D02*
D03*
Y257275D02*
D03*
D25*
X1257096Y222500D02*
D03*
X1235000Y230000D02*
D03*
X1215147Y237500D02*
D03*
X1280672Y245000D02*
D03*
X1257096Y252500D02*
D03*
X1235000Y260000D02*
D03*
X1215147Y267500D02*
D03*
Y297500D02*
D03*
Y327500D02*
D03*
Y447500D02*
D03*
Y417500D02*
D03*
Y357500D02*
D03*
Y387500D02*
D03*
X1235000Y290000D02*
D03*
Y440000D02*
D03*
Y350000D02*
D03*
Y380000D02*
D03*
Y410000D02*
D03*
X1235000Y320000D02*
D03*
X1257096Y282500D02*
D03*
Y312500D02*
D03*
Y342500D02*
D03*
Y432500D02*
D03*
Y402500D02*
D03*
Y462500D02*
D03*
Y372500D02*
D03*
X1280672Y275000D02*
D03*
X1280672Y305000D02*
D03*
X1280672Y335000D02*
D03*
Y395000D02*
D03*
Y455000D02*
D03*
Y425000D02*
D03*
X1280672Y365000D02*
D03*
X1257096Y587500D02*
D03*
X1215147Y477500D02*
D03*
Y507500D02*
D03*
Y539000D02*
D03*
Y572500D02*
D03*
X1257096Y557500D02*
D03*
Y522500D02*
D03*
Y492500D02*
D03*
X1235000Y470000D02*
D03*
Y500000D02*
D03*
Y530000D02*
D03*
Y565000D02*
D03*
X1280672Y580000D02*
D03*
Y550000D02*
D03*
Y515000D02*
D03*
Y485000D02*
D03*
X1215147Y602500D02*
D03*
Y662500D02*
D03*
Y632500D02*
D03*
Y693000D02*
D03*
Y722500D02*
D03*
X1257096Y617500D02*
D03*
X1257096Y647000D02*
D03*
X1235000Y595000D02*
D03*
Y625000D02*
D03*
Y655000D02*
D03*
Y685000D02*
D03*
Y715000D02*
D03*
X1257096Y677500D02*
D03*
Y707500D02*
D03*
X1280672Y610000D02*
D03*
X1280672Y639000D02*
D03*
X1280672Y670000D02*
D03*
X1280672Y700000D02*
D03*
D26*
X295000Y235000D02*
Y247500D01*
X278000Y241000D02*
X288500D01*
X295000Y247500D01*
X1288000Y184000D02*
Y185000D01*
X1272000D02*
X1288000D01*
X1289000D02*
X1304000D01*
X1288000Y184000D02*
X1289000Y185000D01*
D27*
X255300Y241000D02*
Y256952D01*
X213000Y492225D02*
X1253872D01*
X213000Y492225D02*
X213000Y492225D01*
X1253872D02*
X1254097Y492000D01*
X213000Y485875D02*
X1234125D01*
X213000Y485875D02*
X213000Y485875D01*
X1234125D02*
X1234563Y485438D01*
X213000Y485875D02*
Y485875D01*
X213000Y498575D02*
X1224000D01*
X213000Y498575D02*
X213000Y498575D01*
X1224000D02*
X1225425Y500000D01*
X1231766D01*
X1232575Y499191D01*
Y498575D02*
Y499191D01*
X213000Y479525D02*
Y479525D01*
Y479525D02*
X1211622Y479525D01*
X213000Y670025D02*
X1164025D01*
X213000Y562075D02*
X1177075D01*
X213000Y663675D02*
X1164675D01*
X213000Y650975D02*
X1166475D01*
X213000Y581125D02*
X1175125D01*
X213000Y523975D02*
X1183975D01*
X213000Y631925D02*
X1169925Y631925D01*
X213000Y612875D02*
X1171875D01*
X213000Y555725D02*
X1177725D01*
X213000Y517625D02*
X1185625D01*
X213000Y511275D02*
X1188275D01*
X213000Y587475D02*
X1174475D01*
X213006Y657319D02*
X1166319Y657319D01*
X213000Y676375D02*
X1163375D01*
X213000Y574775D02*
X1175775D01*
X213000Y543025D02*
X1179025Y543025D01*
X213000Y619225D02*
X1171225D01*
X213000Y536675D02*
X1179675D01*
X213000Y682725D02*
X1162725D01*
X213000Y549375D02*
X1178375D01*
X213000Y600175D02*
X1173175D01*
X213000Y625575D02*
X1170575D01*
X213000Y638275D02*
X1169275D01*
X213000Y593825D02*
X1173825D01*
X213000Y644625D02*
X1168000D01*
X213000Y568425D02*
X1176425D01*
X213000Y504925D02*
X1188000D01*
X213000Y606525D02*
X1172525D01*
X213000Y530325D02*
X1182325D01*
X213000Y473175D02*
X1204325Y473175D01*
X213000Y466825D02*
X1201675Y466825D01*
X213000Y454125D02*
X1196375Y454125D01*
X213000Y460475D02*
X1199025Y460475D01*
X213000Y447775D02*
X1195725Y447775D01*
X213000Y358875D02*
X1180125Y358875D01*
X213000Y416025D02*
X1186000Y416025D01*
X213000Y371575D02*
X1181425Y371575D01*
X213000Y428725D02*
X1187275Y428725D01*
X213000Y377925D02*
X1182075Y377925D01*
X213000Y422375D02*
X1186625Y422375D01*
X213000Y384275D02*
X1182725Y384275D01*
X213000Y396975D02*
X1184025Y396975D01*
X213000Y409675D02*
X1185325Y409675D01*
X213000Y441425D02*
X1188575Y441425D01*
X213000Y403325D02*
X1184675Y403325D01*
X213000Y365225D02*
X1180775Y365225D01*
X213000Y352525D02*
X1179475Y352525D01*
X213000Y435075D02*
X1187925Y435075D01*
X213000Y390625D02*
X1183375Y390625D01*
X213000Y314425D02*
X1175075Y314425D01*
X213000Y308075D02*
X1174425Y308075D01*
X213000Y295375D02*
X1172125Y295375D01*
X213000Y327125D02*
X1176375Y327125D01*
X213000Y333475D02*
X1177025Y333475D01*
X213000Y301725D02*
X1173775Y301725D01*
X213000Y346175D02*
X1178325Y346175D01*
X213000Y320775D02*
X1175725Y320775D01*
X213000Y339825D02*
X1177675Y339825D01*
X213000Y282675D02*
X1170325Y282675D01*
X213000Y269975D02*
X1169025Y269975D01*
X213000Y276325D02*
X1169175Y276325D01*
X213000Y289025D02*
X1170975Y289025D01*
X213000Y263625D02*
X1168875Y263625D01*
X254977Y257275D02*
X1167725Y257275D01*
X213000Y257275D02*
X254977D01*
D28*
X1381000Y210500D02*
D03*
Y731200D02*
D03*
X1388000Y680400D02*
D03*
X1368950Y667700D02*
D03*
X1388000Y655000D02*
D03*
X1368950Y642300D02*
D03*
X1388000Y629600D02*
D03*
X1368950Y616900D02*
D03*
X1388000Y604200D02*
D03*
X1368950Y591500D02*
D03*
X1388000Y578800D02*
D03*
X1368950Y566100D02*
D03*
X1388000Y553400D02*
D03*
X1368950Y540700D02*
D03*
X1388000Y528000D02*
D03*
X1368950Y515300D02*
D03*
X1388000Y502600D02*
D03*
X1368950Y489900D02*
D03*
X1388000Y477200D02*
D03*
X1368950Y464500D02*
D03*
X1388000Y451800D02*
D03*
X1368950Y439100D02*
D03*
X1388000Y426400D02*
D03*
X1368950Y413700D02*
D03*
X1388000Y401000D02*
D03*
X1368950Y388300D02*
D03*
X1388000Y375600D02*
D03*
X1368950Y362900D02*
D03*
X1388000Y350200D02*
D03*
X1368950Y337500D02*
D03*
X1388000Y324800D02*
D03*
X1368950Y312100D02*
D03*
X1388000Y299400D02*
D03*
X1368950Y286700D02*
D03*
X1388000Y274000D02*
D03*
X1368950Y261300D02*
D03*
X1349910Y680400D02*
D03*
X1330850Y667700D02*
D03*
X1349910Y655000D02*
D03*
X1330850Y642300D02*
D03*
X1349910Y629600D02*
D03*
X1330850Y616900D02*
D03*
X1349910Y604200D02*
D03*
X1330850Y591500D02*
D03*
X1349910Y578800D02*
D03*
X1330850Y566100D02*
D03*
X1349910Y553400D02*
D03*
X1330850Y540700D02*
D03*
X1349910Y528000D02*
D03*
X1330850Y515300D02*
D03*
X1349910Y502600D02*
D03*
X1330850Y489900D02*
D03*
X1349910Y477200D02*
D03*
X1330850Y464500D02*
D03*
X1349910Y451800D02*
D03*
X1330850Y439100D02*
D03*
X1349910Y426400D02*
D03*
X1330850Y413700D02*
D03*
X1349910Y401000D02*
D03*
X1330850Y388300D02*
D03*
X1349910Y375600D02*
D03*
X1330850Y362900D02*
D03*
X1349910Y350200D02*
D03*
X1330850Y337500D02*
D03*
X1349910Y324800D02*
D03*
X1330850Y312100D02*
D03*
X1349910Y299400D02*
D03*
X1330850Y286700D02*
D03*
X1349910Y274000D02*
D03*
X1330850Y261300D02*
D03*
D29*
X295000Y247500D02*
D03*
Y235000D02*
D03*
X319000Y701000D02*
D03*
X729000Y699000D02*
D03*
X809000D02*
D03*
X899000D02*
D03*
X484000Y700000D02*
D03*
X564000D02*
D03*
X654000D02*
D03*
X250000D02*
D03*
X400000D02*
D03*
X991000Y699000D02*
D03*
X1083000Y700000D02*
D03*
X1160000D02*
D03*
X1340000Y740000D02*
D03*
X1257096D02*
D03*
X1400000Y250000D02*
D03*
X1320000Y200000D02*
D03*
X1160000Y240000D02*
D03*
X1070000D02*
D03*
X980000D02*
D03*
X890000D02*
D03*
X800000D02*
D03*
X710000D02*
D03*
X620000D02*
D03*
X540000D02*
D03*
X450000D02*
D03*
X370000D02*
D03*
X1272000Y185000D02*
D03*
X1304000D02*
D03*
M02*
