G04*
G04 #@! TF.GenerationSoftware,Altium Limited,Altium Designer,24.4.1 (13)*
G04*
G04 Layer_Color=8388736*
%FSLAX44Y44*%
%MOMM*%
G71*
G04*
G04 #@! TF.SameCoordinates,5C46C37F-926F-48B5-82F6-D16DC70D24A0*
G04*
G04*
G04 #@! TF.FilePolarity,Negative*
G04*
G01*
G75*
%ADD17R,3.4750X1.7000*%
%ADD18R,1.7000X3.4750*%
%ADD19R,1.1200X1.6200*%
%ADD20R,1.6200X1.1200*%
%ADD21C,1.1200*%
%ADD22R,2.1200X0.5000*%
%ADD23C,1.2200*%
%ADD24C,0.7200*%
D17*
X266625Y241000D02*
D03*
D18*
X1288002Y195376D02*
D03*
D19*
X255300Y241000D02*
D03*
X278000D02*
D03*
D20*
X1288000Y184000D02*
D03*
Y206700D02*
D03*
D21*
X1257096Y222500D02*
D03*
X1235000Y230000D02*
D03*
X1215147Y237500D02*
D03*
X1280672Y245000D02*
D03*
X1257096Y252500D02*
D03*
X1235000Y260000D02*
D03*
X1215147Y267500D02*
D03*
Y297500D02*
D03*
Y327500D02*
D03*
Y447500D02*
D03*
Y417500D02*
D03*
Y357500D02*
D03*
Y387500D02*
D03*
X1235000Y290000D02*
D03*
Y440000D02*
D03*
Y350000D02*
D03*
Y380000D02*
D03*
Y410000D02*
D03*
X1235000Y320000D02*
D03*
X1257096Y282500D02*
D03*
Y312500D02*
D03*
Y342500D02*
D03*
Y432500D02*
D03*
Y402500D02*
D03*
Y462500D02*
D03*
Y372500D02*
D03*
X1280672Y275000D02*
D03*
X1280672Y305000D02*
D03*
X1280672Y335000D02*
D03*
Y395000D02*
D03*
Y455000D02*
D03*
Y425000D02*
D03*
X1280672Y365000D02*
D03*
X1257096Y587500D02*
D03*
X1215147Y477500D02*
D03*
Y507500D02*
D03*
Y539000D02*
D03*
Y572500D02*
D03*
X1257096Y557500D02*
D03*
Y522500D02*
D03*
Y492500D02*
D03*
X1235000Y470000D02*
D03*
Y500000D02*
D03*
Y530000D02*
D03*
Y565000D02*
D03*
X1280672Y580000D02*
D03*
Y550000D02*
D03*
Y515000D02*
D03*
Y485000D02*
D03*
X1215147Y602500D02*
D03*
Y662500D02*
D03*
Y632500D02*
D03*
Y693000D02*
D03*
Y722500D02*
D03*
X1257096Y617500D02*
D03*
X1257096Y647000D02*
D03*
X1235000Y595000D02*
D03*
Y625000D02*
D03*
Y655000D02*
D03*
Y685000D02*
D03*
Y715000D02*
D03*
X1257096Y677500D02*
D03*
Y707500D02*
D03*
X1280672Y610000D02*
D03*
X1280672Y639000D02*
D03*
X1280672Y670000D02*
D03*
X1280672Y700000D02*
D03*
D22*
X213000Y644625D02*
D03*
Y638275D02*
D03*
Y631925D02*
D03*
Y625575D02*
D03*
Y682725D02*
D03*
Y670025D02*
D03*
Y657325D02*
D03*
Y619225D02*
D03*
Y606525D02*
D03*
Y593825D02*
D03*
Y581125D02*
D03*
Y568425D02*
D03*
Y555725D02*
D03*
Y543025D02*
D03*
Y530325D02*
D03*
Y517625D02*
D03*
Y504925D02*
D03*
Y492225D02*
D03*
Y479525D02*
D03*
Y466825D02*
D03*
Y454125D02*
D03*
Y441425D02*
D03*
Y428725D02*
D03*
Y416025D02*
D03*
Y403325D02*
D03*
Y390625D02*
D03*
Y377925D02*
D03*
Y365225D02*
D03*
Y352525D02*
D03*
Y339825D02*
D03*
Y327125D02*
D03*
Y314425D02*
D03*
Y301725D02*
D03*
Y289025D02*
D03*
Y276325D02*
D03*
Y263625D02*
D03*
Y676375D02*
D03*
Y663675D02*
D03*
Y650975D02*
D03*
Y612875D02*
D03*
Y600175D02*
D03*
Y587475D02*
D03*
Y574775D02*
D03*
Y562075D02*
D03*
Y549375D02*
D03*
Y536675D02*
D03*
Y523975D02*
D03*
Y511275D02*
D03*
Y498575D02*
D03*
Y485875D02*
D03*
Y473175D02*
D03*
Y460475D02*
D03*
Y447775D02*
D03*
Y435075D02*
D03*
Y422375D02*
D03*
Y409675D02*
D03*
Y396975D02*
D03*
Y384275D02*
D03*
Y371575D02*
D03*
Y358875D02*
D03*
Y346175D02*
D03*
Y333475D02*
D03*
Y320775D02*
D03*
Y308075D02*
D03*
Y295375D02*
D03*
Y282675D02*
D03*
Y269975D02*
D03*
Y257275D02*
D03*
D23*
X1381000Y210500D02*
D03*
Y731200D02*
D03*
X1388000Y680400D02*
D03*
X1368950Y667700D02*
D03*
X1388000Y655000D02*
D03*
X1368950Y642300D02*
D03*
X1388000Y629600D02*
D03*
X1368950Y616900D02*
D03*
X1388000Y604200D02*
D03*
X1368950Y591500D02*
D03*
X1388000Y578800D02*
D03*
X1368950Y566100D02*
D03*
X1388000Y553400D02*
D03*
X1368950Y540700D02*
D03*
X1388000Y528000D02*
D03*
X1368950Y515300D02*
D03*
X1388000Y502600D02*
D03*
X1368950Y489900D02*
D03*
X1388000Y477200D02*
D03*
X1368950Y464500D02*
D03*
X1388000Y451800D02*
D03*
X1368950Y439100D02*
D03*
X1388000Y426400D02*
D03*
X1368950Y413700D02*
D03*
X1388000Y401000D02*
D03*
X1368950Y388300D02*
D03*
X1388000Y375600D02*
D03*
X1368950Y362900D02*
D03*
X1388000Y350200D02*
D03*
X1368950Y337500D02*
D03*
X1388000Y324800D02*
D03*
X1368950Y312100D02*
D03*
X1388000Y299400D02*
D03*
X1368950Y286700D02*
D03*
X1388000Y274000D02*
D03*
X1368950Y261300D02*
D03*
X1349910Y680400D02*
D03*
X1330850Y667700D02*
D03*
X1349910Y655000D02*
D03*
X1330850Y642300D02*
D03*
X1349910Y629600D02*
D03*
X1330850Y616900D02*
D03*
X1349910Y604200D02*
D03*
X1330850Y591500D02*
D03*
X1349910Y578800D02*
D03*
X1330850Y566100D02*
D03*
X1349910Y553400D02*
D03*
X1330850Y540700D02*
D03*
X1349910Y528000D02*
D03*
X1330850Y515300D02*
D03*
X1349910Y502600D02*
D03*
X1330850Y489900D02*
D03*
X1349910Y477200D02*
D03*
X1330850Y464500D02*
D03*
X1349910Y451800D02*
D03*
X1330850Y439100D02*
D03*
X1349910Y426400D02*
D03*
X1330850Y413700D02*
D03*
X1349910Y401000D02*
D03*
X1330850Y388300D02*
D03*
X1349910Y375600D02*
D03*
X1330850Y362900D02*
D03*
X1349910Y350200D02*
D03*
X1330850Y337500D02*
D03*
X1349910Y324800D02*
D03*
X1330850Y312100D02*
D03*
X1349910Y299400D02*
D03*
X1330850Y286700D02*
D03*
X1349910Y274000D02*
D03*
X1330850Y261300D02*
D03*
D24*
X295000Y247500D02*
D03*
Y235000D02*
D03*
X319000Y701000D02*
D03*
X729000Y699000D02*
D03*
X809000D02*
D03*
X899000D02*
D03*
X484000Y700000D02*
D03*
X564000D02*
D03*
X654000D02*
D03*
X250000D02*
D03*
X400000D02*
D03*
X991000Y699000D02*
D03*
X1083000Y700000D02*
D03*
X1160000D02*
D03*
X1340000Y740000D02*
D03*
X1257096D02*
D03*
X1400000Y250000D02*
D03*
X1320000Y200000D02*
D03*
X1160000Y240000D02*
D03*
X1070000D02*
D03*
X980000D02*
D03*
X890000D02*
D03*
X800000D02*
D03*
X710000D02*
D03*
X620000D02*
D03*
X540000D02*
D03*
X450000D02*
D03*
X370000D02*
D03*
X1272000Y185000D02*
D03*
X1304000D02*
D03*
M02*
