G04*
G04 #@! TF.GenerationSoftware,Altium Limited,Altium Designer,24.4.1 (13)*
G04*
G04 Layer_Physical_Order=2*
G04 Layer_Color=16711680*
%FSLAX44Y44*%
%MOMM*%
G71*
G04*
G04 #@! TF.SameCoordinates,5C46C37F-926F-48B5-82F6-D16DC70D24A0*
G04*
G04*
G04 #@! TF.FilePolarity,Positive*
G04*
G01*
G75*
%ADD28C,1.1000*%
%ADD29C,0.6000*%
G36*
X1410349Y175375D02*
X1244625D01*
X1194625Y225375D01*
X235349D01*
Y255375D01*
X205349D01*
Y685375D01*
X235349D01*
Y715375D01*
X1195375D01*
X1245375Y765375D01*
X1410349D01*
Y175375D01*
D02*
G37*
%LPC*%
G36*
X1382777Y744700D02*
X1379223D01*
X1375789Y743780D01*
X1372711Y742003D01*
X1370197Y739489D01*
X1368420Y736411D01*
X1367500Y732977D01*
Y729423D01*
X1368420Y725989D01*
X1370197Y722911D01*
X1372711Y720397D01*
X1375789Y718620D01*
X1379223Y717700D01*
X1382777D01*
X1386211Y718620D01*
X1389289Y720397D01*
X1391803Y722911D01*
X1393580Y725989D01*
X1394500Y729423D01*
Y732977D01*
X1393580Y736411D01*
X1391803Y739489D01*
X1389289Y742003D01*
X1386211Y743780D01*
X1382777Y744700D01*
D02*
G37*
G36*
X1388987Y687900D02*
X1387013D01*
X1385105Y687389D01*
X1383395Y686402D01*
X1381998Y685005D01*
X1381011Y683295D01*
X1380500Y681387D01*
Y679413D01*
X1381011Y677505D01*
X1381998Y675795D01*
X1383395Y674398D01*
X1385105Y673411D01*
X1387013Y672900D01*
X1388987D01*
X1390895Y673411D01*
X1392605Y674398D01*
X1394001Y675795D01*
X1394989Y677505D01*
X1395500Y679413D01*
Y681387D01*
X1394989Y683295D01*
X1394001Y685005D01*
X1392605Y686402D01*
X1390895Y687389D01*
X1388987Y687900D01*
D02*
G37*
G36*
X1350897D02*
X1348923D01*
X1347015Y687389D01*
X1345305Y686402D01*
X1343909Y685005D01*
X1342921Y683295D01*
X1342410Y681387D01*
Y679413D01*
X1342921Y677505D01*
X1343909Y675795D01*
X1345305Y674398D01*
X1347015Y673411D01*
X1348923Y672900D01*
X1350897D01*
X1352805Y673411D01*
X1354515Y674398D01*
X1355912Y675795D01*
X1356899Y677505D01*
X1357410Y679413D01*
Y681387D01*
X1356899Y683295D01*
X1355912Y685005D01*
X1354515Y686402D01*
X1352805Y687389D01*
X1350897Y687900D01*
D02*
G37*
G36*
X1369937Y675200D02*
X1367963D01*
X1366055Y674689D01*
X1364345Y673701D01*
X1362948Y672305D01*
X1361961Y670595D01*
X1361450Y668687D01*
Y666713D01*
X1361961Y664805D01*
X1362948Y663095D01*
X1364345Y661699D01*
X1366055Y660711D01*
X1367963Y660200D01*
X1369937D01*
X1371845Y660711D01*
X1373555Y661699D01*
X1374951Y663095D01*
X1375939Y664805D01*
X1376450Y666713D01*
Y668687D01*
X1375939Y670595D01*
X1374951Y672305D01*
X1373555Y673701D01*
X1371845Y674689D01*
X1369937Y675200D01*
D02*
G37*
G36*
X1331837D02*
X1329863D01*
X1327955Y674689D01*
X1326245Y673701D01*
X1324848Y672305D01*
X1323861Y670595D01*
X1323350Y668687D01*
Y666713D01*
X1323861Y664805D01*
X1324848Y663095D01*
X1326245Y661699D01*
X1327955Y660711D01*
X1329863Y660200D01*
X1331837D01*
X1333745Y660711D01*
X1335455Y661699D01*
X1336852Y663095D01*
X1337839Y664805D01*
X1338350Y666713D01*
Y668687D01*
X1337839Y670595D01*
X1336852Y672305D01*
X1335455Y673701D01*
X1333745Y674689D01*
X1331837Y675200D01*
D02*
G37*
G36*
X1388987Y662500D02*
X1387013D01*
X1385105Y661989D01*
X1383395Y661002D01*
X1381998Y659605D01*
X1381011Y657895D01*
X1380500Y655987D01*
Y654013D01*
X1381011Y652105D01*
X1381998Y650395D01*
X1383395Y648998D01*
X1385105Y648011D01*
X1387013Y647500D01*
X1388987D01*
X1390895Y648011D01*
X1392605Y648998D01*
X1394001Y650395D01*
X1394989Y652105D01*
X1395500Y654013D01*
Y655987D01*
X1394989Y657895D01*
X1394001Y659605D01*
X1392605Y661002D01*
X1390895Y661989D01*
X1388987Y662500D01*
D02*
G37*
G36*
X1350897D02*
X1348923D01*
X1347015Y661989D01*
X1345305Y661002D01*
X1343909Y659605D01*
X1342921Y657895D01*
X1342410Y655987D01*
Y654013D01*
X1342921Y652105D01*
X1343909Y650395D01*
X1345305Y648998D01*
X1347015Y648011D01*
X1348923Y647500D01*
X1350897D01*
X1352805Y648011D01*
X1354515Y648998D01*
X1355912Y650395D01*
X1356899Y652105D01*
X1357410Y654013D01*
Y655987D01*
X1356899Y657895D01*
X1355912Y659605D01*
X1354515Y661002D01*
X1352805Y661989D01*
X1350897Y662500D01*
D02*
G37*
G36*
X1369937Y649800D02*
X1367963D01*
X1366055Y649289D01*
X1364345Y648301D01*
X1362948Y646905D01*
X1361961Y645195D01*
X1361450Y643287D01*
Y641313D01*
X1361961Y639405D01*
X1362948Y637695D01*
X1364345Y636298D01*
X1366055Y635311D01*
X1367963Y634800D01*
X1369937D01*
X1371845Y635311D01*
X1373555Y636298D01*
X1374951Y637695D01*
X1375939Y639405D01*
X1376450Y641313D01*
Y643287D01*
X1375939Y645195D01*
X1374951Y646905D01*
X1373555Y648301D01*
X1371845Y649289D01*
X1369937Y649800D01*
D02*
G37*
G36*
X1331837D02*
X1329863D01*
X1327955Y649289D01*
X1326245Y648301D01*
X1324848Y646905D01*
X1323861Y645195D01*
X1323350Y643287D01*
Y641313D01*
X1323861Y639405D01*
X1324848Y637695D01*
X1326245Y636298D01*
X1327955Y635311D01*
X1329863Y634800D01*
X1331837D01*
X1333745Y635311D01*
X1335455Y636298D01*
X1336852Y637695D01*
X1337839Y639405D01*
X1338350Y641313D01*
Y643287D01*
X1337839Y645195D01*
X1336852Y646905D01*
X1335455Y648301D01*
X1333745Y649289D01*
X1331837Y649800D01*
D02*
G37*
G36*
X1388987Y637100D02*
X1387013D01*
X1385105Y636589D01*
X1383395Y635602D01*
X1381998Y634205D01*
X1381011Y632495D01*
X1380500Y630587D01*
Y628613D01*
X1381011Y626705D01*
X1381998Y624995D01*
X1383395Y623599D01*
X1385105Y622611D01*
X1387013Y622100D01*
X1388987D01*
X1390895Y622611D01*
X1392605Y623599D01*
X1394001Y624995D01*
X1394989Y626705D01*
X1395500Y628613D01*
Y630587D01*
X1394989Y632495D01*
X1394001Y634205D01*
X1392605Y635602D01*
X1390895Y636589D01*
X1388987Y637100D01*
D02*
G37*
G36*
X1350897D02*
X1348923D01*
X1347015Y636589D01*
X1345305Y635602D01*
X1343909Y634205D01*
X1342921Y632495D01*
X1342410Y630587D01*
Y628613D01*
X1342921Y626705D01*
X1343909Y624995D01*
X1345305Y623599D01*
X1347015Y622611D01*
X1348923Y622100D01*
X1350897D01*
X1352805Y622611D01*
X1354515Y623599D01*
X1355912Y624995D01*
X1356899Y626705D01*
X1357410Y628613D01*
Y630587D01*
X1356899Y632495D01*
X1355912Y634205D01*
X1354515Y635602D01*
X1352805Y636589D01*
X1350897Y637100D01*
D02*
G37*
G36*
X1369937Y624400D02*
X1367963D01*
X1366055Y623889D01*
X1364345Y622901D01*
X1362948Y621505D01*
X1361961Y619795D01*
X1361450Y617887D01*
Y615913D01*
X1361961Y614005D01*
X1362948Y612295D01*
X1364345Y610899D01*
X1366055Y609911D01*
X1367963Y609400D01*
X1369937D01*
X1371845Y609911D01*
X1373555Y610899D01*
X1374951Y612295D01*
X1375939Y614005D01*
X1376450Y615913D01*
Y617887D01*
X1375939Y619795D01*
X1374951Y621505D01*
X1373555Y622901D01*
X1371845Y623889D01*
X1369937Y624400D01*
D02*
G37*
G36*
X1331837D02*
X1329863D01*
X1327955Y623889D01*
X1326245Y622901D01*
X1324848Y621505D01*
X1323861Y619795D01*
X1323350Y617887D01*
Y615913D01*
X1323861Y614005D01*
X1324848Y612295D01*
X1326245Y610899D01*
X1327955Y609911D01*
X1329863Y609400D01*
X1331837D01*
X1333745Y609911D01*
X1335455Y610899D01*
X1336852Y612295D01*
X1337839Y614005D01*
X1338350Y615913D01*
Y617887D01*
X1337839Y619795D01*
X1336852Y621505D01*
X1335455Y622901D01*
X1333745Y623889D01*
X1331837Y624400D01*
D02*
G37*
G36*
X1388987Y611700D02*
X1387013D01*
X1385105Y611189D01*
X1383395Y610201D01*
X1381998Y608805D01*
X1381011Y607095D01*
X1380500Y605187D01*
Y603213D01*
X1381011Y601305D01*
X1381998Y599595D01*
X1383395Y598199D01*
X1385105Y597211D01*
X1387013Y596700D01*
X1388987D01*
X1390895Y597211D01*
X1392605Y598199D01*
X1394001Y599595D01*
X1394989Y601305D01*
X1395500Y603213D01*
Y605187D01*
X1394989Y607095D01*
X1394001Y608805D01*
X1392605Y610201D01*
X1390895Y611189D01*
X1388987Y611700D01*
D02*
G37*
G36*
X1350897D02*
X1348923D01*
X1347015Y611189D01*
X1345305Y610201D01*
X1343909Y608805D01*
X1342921Y607095D01*
X1342410Y605187D01*
Y603213D01*
X1342921Y601305D01*
X1343909Y599595D01*
X1345305Y598199D01*
X1347015Y597211D01*
X1348923Y596700D01*
X1350897D01*
X1352805Y597211D01*
X1354515Y598199D01*
X1355912Y599595D01*
X1356899Y601305D01*
X1357410Y603213D01*
Y605187D01*
X1356899Y607095D01*
X1355912Y608805D01*
X1354515Y610201D01*
X1352805Y611189D01*
X1350897Y611700D01*
D02*
G37*
G36*
X1369937Y599000D02*
X1367963D01*
X1366055Y598489D01*
X1364345Y597501D01*
X1362948Y596105D01*
X1361961Y594395D01*
X1361450Y592487D01*
Y590513D01*
X1361961Y588605D01*
X1362948Y586895D01*
X1364345Y585499D01*
X1366055Y584511D01*
X1367963Y584000D01*
X1369937D01*
X1371845Y584511D01*
X1373555Y585499D01*
X1374951Y586895D01*
X1375939Y588605D01*
X1376450Y590513D01*
Y592487D01*
X1375939Y594395D01*
X1374951Y596105D01*
X1373555Y597501D01*
X1371845Y598489D01*
X1369937Y599000D01*
D02*
G37*
G36*
X1331837D02*
X1329863D01*
X1327955Y598489D01*
X1326245Y597501D01*
X1324848Y596105D01*
X1323861Y594395D01*
X1323350Y592487D01*
Y590513D01*
X1323861Y588605D01*
X1324848Y586895D01*
X1326245Y585499D01*
X1327955Y584511D01*
X1329863Y584000D01*
X1331837D01*
X1333745Y584511D01*
X1335455Y585499D01*
X1336852Y586895D01*
X1337839Y588605D01*
X1338350Y590513D01*
Y592487D01*
X1337839Y594395D01*
X1336852Y596105D01*
X1335455Y597501D01*
X1333745Y598489D01*
X1331837Y599000D01*
D02*
G37*
G36*
X1388987Y586300D02*
X1387013D01*
X1385105Y585789D01*
X1383395Y584801D01*
X1381998Y583405D01*
X1381011Y581695D01*
X1380500Y579787D01*
Y577813D01*
X1381011Y575905D01*
X1381998Y574195D01*
X1383395Y572799D01*
X1385105Y571811D01*
X1387013Y571300D01*
X1388987D01*
X1390895Y571811D01*
X1392605Y572799D01*
X1394001Y574195D01*
X1394989Y575905D01*
X1395500Y577813D01*
Y579787D01*
X1394989Y581695D01*
X1394001Y583405D01*
X1392605Y584801D01*
X1390895Y585789D01*
X1388987Y586300D01*
D02*
G37*
G36*
X1350897D02*
X1348923D01*
X1347015Y585789D01*
X1345305Y584801D01*
X1343909Y583405D01*
X1342921Y581695D01*
X1342410Y579787D01*
Y577813D01*
X1342921Y575905D01*
X1343909Y574195D01*
X1345305Y572799D01*
X1347015Y571811D01*
X1348923Y571300D01*
X1350897D01*
X1352805Y571811D01*
X1354515Y572799D01*
X1355912Y574195D01*
X1356899Y575905D01*
X1357410Y577813D01*
Y579787D01*
X1356899Y581695D01*
X1355912Y583405D01*
X1354515Y584801D01*
X1352805Y585789D01*
X1350897Y586300D01*
D02*
G37*
G36*
X1369937Y573600D02*
X1367963D01*
X1366055Y573089D01*
X1364345Y572102D01*
X1362948Y570705D01*
X1361961Y568995D01*
X1361450Y567087D01*
Y565113D01*
X1361961Y563205D01*
X1362948Y561495D01*
X1364345Y560098D01*
X1366055Y559111D01*
X1367963Y558600D01*
X1369937D01*
X1371845Y559111D01*
X1373555Y560098D01*
X1374951Y561495D01*
X1375939Y563205D01*
X1376450Y565113D01*
Y567087D01*
X1375939Y568995D01*
X1374951Y570705D01*
X1373555Y572102D01*
X1371845Y573089D01*
X1369937Y573600D01*
D02*
G37*
G36*
X1331837D02*
X1329863D01*
X1327955Y573089D01*
X1326245Y572102D01*
X1324848Y570705D01*
X1323861Y568995D01*
X1323350Y567087D01*
Y565113D01*
X1323861Y563205D01*
X1324848Y561495D01*
X1326245Y560098D01*
X1327955Y559111D01*
X1329863Y558600D01*
X1331837D01*
X1333745Y559111D01*
X1335455Y560098D01*
X1336852Y561495D01*
X1337839Y563205D01*
X1338350Y565113D01*
Y567087D01*
X1337839Y568995D01*
X1336852Y570705D01*
X1335455Y572102D01*
X1333745Y573089D01*
X1331837Y573600D01*
D02*
G37*
G36*
X1388987Y560900D02*
X1387013D01*
X1385105Y560389D01*
X1383395Y559402D01*
X1381998Y558005D01*
X1381011Y556295D01*
X1380500Y554387D01*
Y552413D01*
X1381011Y550505D01*
X1381998Y548795D01*
X1383395Y547398D01*
X1385105Y546411D01*
X1387013Y545900D01*
X1388987D01*
X1390895Y546411D01*
X1392605Y547398D01*
X1394001Y548795D01*
X1394989Y550505D01*
X1395500Y552413D01*
Y554387D01*
X1394989Y556295D01*
X1394001Y558005D01*
X1392605Y559402D01*
X1390895Y560389D01*
X1388987Y560900D01*
D02*
G37*
G36*
X1350897D02*
X1348923D01*
X1347015Y560389D01*
X1345305Y559402D01*
X1343909Y558005D01*
X1342921Y556295D01*
X1342410Y554387D01*
Y552413D01*
X1342921Y550505D01*
X1343909Y548795D01*
X1345305Y547398D01*
X1347015Y546411D01*
X1348923Y545900D01*
X1350897D01*
X1352805Y546411D01*
X1354515Y547398D01*
X1355912Y548795D01*
X1356899Y550505D01*
X1357410Y552413D01*
Y554387D01*
X1356899Y556295D01*
X1355912Y558005D01*
X1354515Y559402D01*
X1352805Y560389D01*
X1350897Y560900D01*
D02*
G37*
G36*
X1369937Y548200D02*
X1367963D01*
X1366055Y547689D01*
X1364345Y546702D01*
X1362948Y545305D01*
X1361961Y543595D01*
X1361450Y541687D01*
Y539713D01*
X1361961Y537805D01*
X1362948Y536095D01*
X1364345Y534698D01*
X1366055Y533711D01*
X1367963Y533200D01*
X1369937D01*
X1371845Y533711D01*
X1373555Y534698D01*
X1374951Y536095D01*
X1375939Y537805D01*
X1376450Y539713D01*
Y541687D01*
X1375939Y543595D01*
X1374951Y545305D01*
X1373555Y546702D01*
X1371845Y547689D01*
X1369937Y548200D01*
D02*
G37*
G36*
X1331837D02*
X1329863D01*
X1327955Y547689D01*
X1326245Y546702D01*
X1324848Y545305D01*
X1323861Y543595D01*
X1323350Y541687D01*
Y539713D01*
X1323861Y537805D01*
X1324848Y536095D01*
X1326245Y534698D01*
X1327955Y533711D01*
X1329863Y533200D01*
X1331837D01*
X1333745Y533711D01*
X1335455Y534698D01*
X1336852Y536095D01*
X1337839Y537805D01*
X1338350Y539713D01*
Y541687D01*
X1337839Y543595D01*
X1336852Y545305D01*
X1335455Y546702D01*
X1333745Y547689D01*
X1331837Y548200D01*
D02*
G37*
G36*
X1388987Y535500D02*
X1387013D01*
X1385105Y534989D01*
X1383395Y534002D01*
X1381998Y532605D01*
X1381011Y530895D01*
X1380500Y528987D01*
Y527013D01*
X1381011Y525105D01*
X1381998Y523395D01*
X1383395Y521998D01*
X1385105Y521011D01*
X1387013Y520500D01*
X1388987D01*
X1390895Y521011D01*
X1392605Y521998D01*
X1394001Y523395D01*
X1394989Y525105D01*
X1395500Y527013D01*
Y528987D01*
X1394989Y530895D01*
X1394001Y532605D01*
X1392605Y534002D01*
X1390895Y534989D01*
X1388987Y535500D01*
D02*
G37*
G36*
X1350897D02*
X1348923D01*
X1347015Y534989D01*
X1345305Y534002D01*
X1343909Y532605D01*
X1342921Y530895D01*
X1342410Y528987D01*
Y527013D01*
X1342921Y525105D01*
X1343909Y523395D01*
X1345305Y521998D01*
X1347015Y521011D01*
X1348923Y520500D01*
X1350897D01*
X1352805Y521011D01*
X1354515Y521998D01*
X1355912Y523395D01*
X1356899Y525105D01*
X1357410Y527013D01*
Y528987D01*
X1356899Y530895D01*
X1355912Y532605D01*
X1354515Y534002D01*
X1352805Y534989D01*
X1350897Y535500D01*
D02*
G37*
G36*
X1369937Y522800D02*
X1367963D01*
X1366055Y522289D01*
X1364345Y521301D01*
X1362948Y519905D01*
X1361961Y518195D01*
X1361450Y516287D01*
Y514313D01*
X1361961Y512405D01*
X1362948Y510695D01*
X1364345Y509299D01*
X1366055Y508311D01*
X1367963Y507800D01*
X1369937D01*
X1371845Y508311D01*
X1373555Y509299D01*
X1374951Y510695D01*
X1375939Y512405D01*
X1376450Y514313D01*
Y516287D01*
X1375939Y518195D01*
X1374951Y519905D01*
X1373555Y521301D01*
X1371845Y522289D01*
X1369937Y522800D01*
D02*
G37*
G36*
X1331837D02*
X1329863D01*
X1327955Y522289D01*
X1326245Y521301D01*
X1324848Y519905D01*
X1323861Y518195D01*
X1323350Y516287D01*
Y514313D01*
X1323861Y512405D01*
X1324848Y510695D01*
X1326245Y509299D01*
X1327955Y508311D01*
X1329863Y507800D01*
X1331837D01*
X1333745Y508311D01*
X1335455Y509299D01*
X1336852Y510695D01*
X1337839Y512405D01*
X1338350Y514313D01*
Y516287D01*
X1337839Y518195D01*
X1336852Y519905D01*
X1335455Y521301D01*
X1333745Y522289D01*
X1331837Y522800D01*
D02*
G37*
G36*
X1388987Y510100D02*
X1387013D01*
X1385105Y509589D01*
X1383395Y508601D01*
X1381998Y507205D01*
X1381011Y505495D01*
X1380500Y503587D01*
Y501613D01*
X1381011Y499705D01*
X1381998Y497995D01*
X1383395Y496599D01*
X1385105Y495611D01*
X1387013Y495100D01*
X1388987D01*
X1390895Y495611D01*
X1392605Y496599D01*
X1394001Y497995D01*
X1394989Y499705D01*
X1395500Y501613D01*
Y503587D01*
X1394989Y505495D01*
X1394001Y507205D01*
X1392605Y508601D01*
X1390895Y509589D01*
X1388987Y510100D01*
D02*
G37*
G36*
X1350897D02*
X1348923D01*
X1347015Y509589D01*
X1345305Y508601D01*
X1343909Y507205D01*
X1342921Y505495D01*
X1342410Y503587D01*
Y501613D01*
X1342921Y499705D01*
X1343909Y497995D01*
X1345305Y496599D01*
X1347015Y495611D01*
X1348923Y495100D01*
X1350897D01*
X1352805Y495611D01*
X1354515Y496599D01*
X1355912Y497995D01*
X1356899Y499705D01*
X1357410Y501613D01*
Y503587D01*
X1356899Y505495D01*
X1355912Y507205D01*
X1354515Y508601D01*
X1352805Y509589D01*
X1350897Y510100D01*
D02*
G37*
G36*
X1369937Y497400D02*
X1367963D01*
X1366055Y496889D01*
X1364345Y495901D01*
X1362948Y494505D01*
X1361961Y492795D01*
X1361450Y490887D01*
Y488913D01*
X1361961Y487005D01*
X1362948Y485295D01*
X1364345Y483899D01*
X1366055Y482911D01*
X1367963Y482400D01*
X1369937D01*
X1371845Y482911D01*
X1373555Y483899D01*
X1374951Y485295D01*
X1375939Y487005D01*
X1376450Y488913D01*
Y490887D01*
X1375939Y492795D01*
X1374951Y494505D01*
X1373555Y495901D01*
X1371845Y496889D01*
X1369937Y497400D01*
D02*
G37*
G36*
X1331837D02*
X1329863D01*
X1327955Y496889D01*
X1326245Y495901D01*
X1324848Y494505D01*
X1323861Y492795D01*
X1323350Y490887D01*
Y488913D01*
X1323861Y487005D01*
X1324848Y485295D01*
X1326245Y483899D01*
X1327955Y482911D01*
X1329863Y482400D01*
X1331837D01*
X1333745Y482911D01*
X1335455Y483899D01*
X1336852Y485295D01*
X1337839Y487005D01*
X1338350Y488913D01*
Y490887D01*
X1337839Y492795D01*
X1336852Y494505D01*
X1335455Y495901D01*
X1333745Y496889D01*
X1331837Y497400D01*
D02*
G37*
G36*
X1388987Y484700D02*
X1387013D01*
X1385105Y484189D01*
X1383395Y483201D01*
X1381998Y481805D01*
X1381011Y480095D01*
X1380500Y478187D01*
Y476213D01*
X1381011Y474305D01*
X1381998Y472595D01*
X1383395Y471199D01*
X1385105Y470211D01*
X1387013Y469700D01*
X1388987D01*
X1390895Y470211D01*
X1392605Y471199D01*
X1394001Y472595D01*
X1394989Y474305D01*
X1395500Y476213D01*
Y478187D01*
X1394989Y480095D01*
X1394001Y481805D01*
X1392605Y483201D01*
X1390895Y484189D01*
X1388987Y484700D01*
D02*
G37*
G36*
X1350897D02*
X1348923D01*
X1347015Y484189D01*
X1345305Y483201D01*
X1343909Y481805D01*
X1342921Y480095D01*
X1342410Y478187D01*
Y476213D01*
X1342921Y474305D01*
X1343909Y472595D01*
X1345305Y471199D01*
X1347015Y470211D01*
X1348923Y469700D01*
X1350897D01*
X1352805Y470211D01*
X1354515Y471199D01*
X1355912Y472595D01*
X1356899Y474305D01*
X1357410Y476213D01*
Y478187D01*
X1356899Y480095D01*
X1355912Y481805D01*
X1354515Y483201D01*
X1352805Y484189D01*
X1350897Y484700D01*
D02*
G37*
G36*
X1369937Y472000D02*
X1367963D01*
X1366055Y471489D01*
X1364345Y470502D01*
X1362948Y469105D01*
X1361961Y467395D01*
X1361450Y465487D01*
Y463513D01*
X1361961Y461605D01*
X1362948Y459895D01*
X1364345Y458498D01*
X1366055Y457511D01*
X1367963Y457000D01*
X1369937D01*
X1371845Y457511D01*
X1373555Y458498D01*
X1374951Y459895D01*
X1375939Y461605D01*
X1376450Y463513D01*
Y465487D01*
X1375939Y467395D01*
X1374951Y469105D01*
X1373555Y470502D01*
X1371845Y471489D01*
X1369937Y472000D01*
D02*
G37*
G36*
X1331837D02*
X1329863D01*
X1327955Y471489D01*
X1326245Y470502D01*
X1324848Y469105D01*
X1323861Y467395D01*
X1323350Y465487D01*
Y463513D01*
X1323861Y461605D01*
X1324848Y459895D01*
X1326245Y458498D01*
X1327955Y457511D01*
X1329863Y457000D01*
X1331837D01*
X1333745Y457511D01*
X1335455Y458498D01*
X1336852Y459895D01*
X1337839Y461605D01*
X1338350Y463513D01*
Y465487D01*
X1337839Y467395D01*
X1336852Y469105D01*
X1335455Y470502D01*
X1333745Y471489D01*
X1331837Y472000D01*
D02*
G37*
G36*
X1388987Y459300D02*
X1387013D01*
X1385105Y458789D01*
X1383395Y457802D01*
X1381998Y456405D01*
X1381011Y454695D01*
X1380500Y452787D01*
Y450813D01*
X1381011Y448905D01*
X1381998Y447195D01*
X1383395Y445798D01*
X1385105Y444811D01*
X1387013Y444300D01*
X1388987D01*
X1390895Y444811D01*
X1392605Y445798D01*
X1394001Y447195D01*
X1394989Y448905D01*
X1395500Y450813D01*
Y452787D01*
X1394989Y454695D01*
X1394001Y456405D01*
X1392605Y457802D01*
X1390895Y458789D01*
X1388987Y459300D01*
D02*
G37*
G36*
X1350897D02*
X1348923D01*
X1347015Y458789D01*
X1345305Y457802D01*
X1343909Y456405D01*
X1342921Y454695D01*
X1342410Y452787D01*
Y450813D01*
X1342921Y448905D01*
X1343909Y447195D01*
X1345305Y445798D01*
X1347015Y444811D01*
X1348923Y444300D01*
X1350897D01*
X1352805Y444811D01*
X1354515Y445798D01*
X1355912Y447195D01*
X1356899Y448905D01*
X1357410Y450813D01*
Y452787D01*
X1356899Y454695D01*
X1355912Y456405D01*
X1354515Y457802D01*
X1352805Y458789D01*
X1350897Y459300D01*
D02*
G37*
G36*
X1369937Y446600D02*
X1367963D01*
X1366055Y446089D01*
X1364345Y445102D01*
X1362948Y443705D01*
X1361961Y441995D01*
X1361450Y440087D01*
Y438113D01*
X1361961Y436205D01*
X1362948Y434495D01*
X1364345Y433098D01*
X1366055Y432111D01*
X1367963Y431600D01*
X1369937D01*
X1371845Y432111D01*
X1373555Y433098D01*
X1374951Y434495D01*
X1375939Y436205D01*
X1376450Y438113D01*
Y440087D01*
X1375939Y441995D01*
X1374951Y443705D01*
X1373555Y445102D01*
X1371845Y446089D01*
X1369937Y446600D01*
D02*
G37*
G36*
X1331837D02*
X1329863D01*
X1327955Y446089D01*
X1326245Y445102D01*
X1324848Y443705D01*
X1323861Y441995D01*
X1323350Y440087D01*
Y438113D01*
X1323861Y436205D01*
X1324848Y434495D01*
X1326245Y433098D01*
X1327955Y432111D01*
X1329863Y431600D01*
X1331837D01*
X1333745Y432111D01*
X1335455Y433098D01*
X1336852Y434495D01*
X1337839Y436205D01*
X1338350Y438113D01*
Y440087D01*
X1337839Y441995D01*
X1336852Y443705D01*
X1335455Y445102D01*
X1333745Y446089D01*
X1331837Y446600D01*
D02*
G37*
G36*
X1388987Y433900D02*
X1387013D01*
X1385105Y433389D01*
X1383395Y432402D01*
X1381998Y431005D01*
X1381011Y429295D01*
X1380500Y427387D01*
Y425413D01*
X1381011Y423505D01*
X1381998Y421795D01*
X1383395Y420398D01*
X1385105Y419411D01*
X1387013Y418900D01*
X1388987D01*
X1390895Y419411D01*
X1392605Y420398D01*
X1394001Y421795D01*
X1394989Y423505D01*
X1395500Y425413D01*
Y427387D01*
X1394989Y429295D01*
X1394001Y431005D01*
X1392605Y432402D01*
X1390895Y433389D01*
X1388987Y433900D01*
D02*
G37*
G36*
X1350897D02*
X1348923D01*
X1347015Y433389D01*
X1345305Y432402D01*
X1343909Y431005D01*
X1342921Y429295D01*
X1342410Y427387D01*
Y425413D01*
X1342921Y423505D01*
X1343909Y421795D01*
X1345305Y420398D01*
X1347015Y419411D01*
X1348923Y418900D01*
X1350897D01*
X1352805Y419411D01*
X1354515Y420398D01*
X1355912Y421795D01*
X1356899Y423505D01*
X1357410Y425413D01*
Y427387D01*
X1356899Y429295D01*
X1355912Y431005D01*
X1354515Y432402D01*
X1352805Y433389D01*
X1350897Y433900D01*
D02*
G37*
G36*
X1369937Y421200D02*
X1367963D01*
X1366055Y420689D01*
X1364345Y419701D01*
X1362948Y418305D01*
X1361961Y416595D01*
X1361450Y414687D01*
Y412713D01*
X1361961Y410805D01*
X1362948Y409095D01*
X1364345Y407699D01*
X1366055Y406711D01*
X1367963Y406200D01*
X1369937D01*
X1371845Y406711D01*
X1373555Y407699D01*
X1374951Y409095D01*
X1375939Y410805D01*
X1376450Y412713D01*
Y414687D01*
X1375939Y416595D01*
X1374951Y418305D01*
X1373555Y419701D01*
X1371845Y420689D01*
X1369937Y421200D01*
D02*
G37*
G36*
X1331837D02*
X1329863D01*
X1327955Y420689D01*
X1326245Y419701D01*
X1324848Y418305D01*
X1323861Y416595D01*
X1323350Y414687D01*
Y412713D01*
X1323861Y410805D01*
X1324848Y409095D01*
X1326245Y407699D01*
X1327955Y406711D01*
X1329863Y406200D01*
X1331837D01*
X1333745Y406711D01*
X1335455Y407699D01*
X1336852Y409095D01*
X1337839Y410805D01*
X1338350Y412713D01*
Y414687D01*
X1337839Y416595D01*
X1336852Y418305D01*
X1335455Y419701D01*
X1333745Y420689D01*
X1331837Y421200D01*
D02*
G37*
G36*
X1388987Y408500D02*
X1387013D01*
X1385105Y407989D01*
X1383395Y407001D01*
X1381998Y405605D01*
X1381011Y403895D01*
X1380500Y401987D01*
Y400013D01*
X1381011Y398105D01*
X1381998Y396395D01*
X1383395Y394999D01*
X1385105Y394011D01*
X1387013Y393500D01*
X1388987D01*
X1390895Y394011D01*
X1392605Y394999D01*
X1394001Y396395D01*
X1394989Y398105D01*
X1395500Y400013D01*
Y401987D01*
X1394989Y403895D01*
X1394001Y405605D01*
X1392605Y407001D01*
X1390895Y407989D01*
X1388987Y408500D01*
D02*
G37*
G36*
X1350897D02*
X1348923D01*
X1347015Y407989D01*
X1345305Y407001D01*
X1343909Y405605D01*
X1342921Y403895D01*
X1342410Y401987D01*
Y400013D01*
X1342921Y398105D01*
X1343909Y396395D01*
X1345305Y394999D01*
X1347015Y394011D01*
X1348923Y393500D01*
X1350897D01*
X1352805Y394011D01*
X1354515Y394999D01*
X1355912Y396395D01*
X1356899Y398105D01*
X1357410Y400013D01*
Y401987D01*
X1356899Y403895D01*
X1355912Y405605D01*
X1354515Y407001D01*
X1352805Y407989D01*
X1350897Y408500D01*
D02*
G37*
G36*
X1369937Y395800D02*
X1367963D01*
X1366055Y395289D01*
X1364345Y394301D01*
X1362948Y392905D01*
X1361961Y391195D01*
X1361450Y389287D01*
Y387313D01*
X1361961Y385405D01*
X1362948Y383695D01*
X1364345Y382299D01*
X1366055Y381311D01*
X1367963Y380800D01*
X1369937D01*
X1371845Y381311D01*
X1373555Y382299D01*
X1374951Y383695D01*
X1375939Y385405D01*
X1376450Y387313D01*
Y389287D01*
X1375939Y391195D01*
X1374951Y392905D01*
X1373555Y394301D01*
X1371845Y395289D01*
X1369937Y395800D01*
D02*
G37*
G36*
X1331837D02*
X1329863D01*
X1327955Y395289D01*
X1326245Y394301D01*
X1324848Y392905D01*
X1323861Y391195D01*
X1323350Y389287D01*
Y387313D01*
X1323861Y385405D01*
X1324848Y383695D01*
X1326245Y382299D01*
X1327955Y381311D01*
X1329863Y380800D01*
X1331837D01*
X1333745Y381311D01*
X1335455Y382299D01*
X1336852Y383695D01*
X1337839Y385405D01*
X1338350Y387313D01*
Y389287D01*
X1337839Y391195D01*
X1336852Y392905D01*
X1335455Y394301D01*
X1333745Y395289D01*
X1331837Y395800D01*
D02*
G37*
G36*
X1388987Y383100D02*
X1387013D01*
X1385105Y382589D01*
X1383395Y381601D01*
X1381998Y380205D01*
X1381011Y378495D01*
X1380500Y376587D01*
Y374613D01*
X1381011Y372705D01*
X1381998Y370995D01*
X1383395Y369599D01*
X1385105Y368611D01*
X1387013Y368100D01*
X1388987D01*
X1390895Y368611D01*
X1392605Y369599D01*
X1394001Y370995D01*
X1394989Y372705D01*
X1395500Y374613D01*
Y376587D01*
X1394989Y378495D01*
X1394001Y380205D01*
X1392605Y381601D01*
X1390895Y382589D01*
X1388987Y383100D01*
D02*
G37*
G36*
X1350897D02*
X1348923D01*
X1347015Y382589D01*
X1345305Y381601D01*
X1343909Y380205D01*
X1342921Y378495D01*
X1342410Y376587D01*
Y374613D01*
X1342921Y372705D01*
X1343909Y370995D01*
X1345305Y369599D01*
X1347015Y368611D01*
X1348923Y368100D01*
X1350897D01*
X1352805Y368611D01*
X1354515Y369599D01*
X1355912Y370995D01*
X1356899Y372705D01*
X1357410Y374613D01*
Y376587D01*
X1356899Y378495D01*
X1355912Y380205D01*
X1354515Y381601D01*
X1352805Y382589D01*
X1350897Y383100D01*
D02*
G37*
G36*
X1369937Y370400D02*
X1367963D01*
X1366055Y369889D01*
X1364345Y368901D01*
X1362948Y367505D01*
X1361961Y365795D01*
X1361450Y363887D01*
Y361913D01*
X1361961Y360005D01*
X1362948Y358295D01*
X1364345Y356898D01*
X1366055Y355911D01*
X1367963Y355400D01*
X1369937D01*
X1371845Y355911D01*
X1373555Y356898D01*
X1374951Y358295D01*
X1375939Y360005D01*
X1376450Y361913D01*
Y363887D01*
X1375939Y365795D01*
X1374951Y367505D01*
X1373555Y368901D01*
X1371845Y369889D01*
X1369937Y370400D01*
D02*
G37*
G36*
X1331837D02*
X1329863D01*
X1327955Y369889D01*
X1326245Y368901D01*
X1324848Y367505D01*
X1323861Y365795D01*
X1323350Y363887D01*
Y361913D01*
X1323861Y360005D01*
X1324848Y358295D01*
X1326245Y356898D01*
X1327955Y355911D01*
X1329863Y355400D01*
X1331837D01*
X1333745Y355911D01*
X1335455Y356898D01*
X1336852Y358295D01*
X1337839Y360005D01*
X1338350Y361913D01*
Y363887D01*
X1337839Y365795D01*
X1336852Y367505D01*
X1335455Y368901D01*
X1333745Y369889D01*
X1331837Y370400D01*
D02*
G37*
G36*
X1388987Y357700D02*
X1387013D01*
X1385105Y357189D01*
X1383395Y356202D01*
X1381998Y354805D01*
X1381011Y353095D01*
X1380500Y351187D01*
Y349213D01*
X1381011Y347305D01*
X1381998Y345595D01*
X1383395Y344198D01*
X1385105Y343211D01*
X1387013Y342700D01*
X1388987D01*
X1390895Y343211D01*
X1392605Y344198D01*
X1394001Y345595D01*
X1394989Y347305D01*
X1395500Y349213D01*
Y351187D01*
X1394989Y353095D01*
X1394001Y354805D01*
X1392605Y356202D01*
X1390895Y357189D01*
X1388987Y357700D01*
D02*
G37*
G36*
X1350897D02*
X1348923D01*
X1347015Y357189D01*
X1345305Y356202D01*
X1343909Y354805D01*
X1342921Y353095D01*
X1342410Y351187D01*
Y349213D01*
X1342921Y347305D01*
X1343909Y345595D01*
X1345305Y344198D01*
X1347015Y343211D01*
X1348923Y342700D01*
X1350897D01*
X1352805Y343211D01*
X1354515Y344198D01*
X1355912Y345595D01*
X1356899Y347305D01*
X1357410Y349213D01*
Y351187D01*
X1356899Y353095D01*
X1355912Y354805D01*
X1354515Y356202D01*
X1352805Y357189D01*
X1350897Y357700D01*
D02*
G37*
G36*
X1369937Y345000D02*
X1367963D01*
X1366055Y344489D01*
X1364345Y343502D01*
X1362948Y342105D01*
X1361961Y340395D01*
X1361450Y338487D01*
Y336513D01*
X1361961Y334605D01*
X1362948Y332895D01*
X1364345Y331498D01*
X1366055Y330511D01*
X1367963Y330000D01*
X1369937D01*
X1371845Y330511D01*
X1373555Y331498D01*
X1374951Y332895D01*
X1375939Y334605D01*
X1376450Y336513D01*
Y338487D01*
X1375939Y340395D01*
X1374951Y342105D01*
X1373555Y343502D01*
X1371845Y344489D01*
X1369937Y345000D01*
D02*
G37*
G36*
X1331837D02*
X1329863D01*
X1327955Y344489D01*
X1326245Y343502D01*
X1324848Y342105D01*
X1323861Y340395D01*
X1323350Y338487D01*
Y336513D01*
X1323861Y334605D01*
X1324848Y332895D01*
X1326245Y331498D01*
X1327955Y330511D01*
X1329863Y330000D01*
X1331837D01*
X1333745Y330511D01*
X1335455Y331498D01*
X1336852Y332895D01*
X1337839Y334605D01*
X1338350Y336513D01*
Y338487D01*
X1337839Y340395D01*
X1336852Y342105D01*
X1335455Y343502D01*
X1333745Y344489D01*
X1331837Y345000D01*
D02*
G37*
G36*
X1388987Y332300D02*
X1387013D01*
X1385105Y331789D01*
X1383395Y330802D01*
X1381998Y329405D01*
X1381011Y327695D01*
X1380500Y325787D01*
Y323813D01*
X1381011Y321905D01*
X1381998Y320195D01*
X1383395Y318799D01*
X1385105Y317811D01*
X1387013Y317300D01*
X1388987D01*
X1390895Y317811D01*
X1392605Y318799D01*
X1394001Y320195D01*
X1394989Y321905D01*
X1395500Y323813D01*
Y325787D01*
X1394989Y327695D01*
X1394001Y329405D01*
X1392605Y330802D01*
X1390895Y331789D01*
X1388987Y332300D01*
D02*
G37*
G36*
X1350897D02*
X1348923D01*
X1347015Y331789D01*
X1345305Y330802D01*
X1343909Y329405D01*
X1342921Y327695D01*
X1342410Y325787D01*
Y323813D01*
X1342921Y321905D01*
X1343909Y320195D01*
X1345305Y318799D01*
X1347015Y317811D01*
X1348923Y317300D01*
X1350897D01*
X1352805Y317811D01*
X1354515Y318799D01*
X1355912Y320195D01*
X1356899Y321905D01*
X1357410Y323813D01*
Y325787D01*
X1356899Y327695D01*
X1355912Y329405D01*
X1354515Y330802D01*
X1352805Y331789D01*
X1350897Y332300D01*
D02*
G37*
G36*
X1369937Y319600D02*
X1367963D01*
X1366055Y319089D01*
X1364345Y318102D01*
X1362948Y316705D01*
X1361961Y314995D01*
X1361450Y313087D01*
Y311113D01*
X1361961Y309205D01*
X1362948Y307495D01*
X1364345Y306098D01*
X1366055Y305111D01*
X1367963Y304600D01*
X1369937D01*
X1371845Y305111D01*
X1373555Y306098D01*
X1374951Y307495D01*
X1375939Y309205D01*
X1376450Y311113D01*
Y313087D01*
X1375939Y314995D01*
X1374951Y316705D01*
X1373555Y318102D01*
X1371845Y319089D01*
X1369937Y319600D01*
D02*
G37*
G36*
X1331837D02*
X1329863D01*
X1327955Y319089D01*
X1326245Y318102D01*
X1324848Y316705D01*
X1323861Y314995D01*
X1323350Y313087D01*
Y311113D01*
X1323861Y309205D01*
X1324848Y307495D01*
X1326245Y306098D01*
X1327955Y305111D01*
X1329863Y304600D01*
X1331837D01*
X1333745Y305111D01*
X1335455Y306098D01*
X1336852Y307495D01*
X1337839Y309205D01*
X1338350Y311113D01*
Y313087D01*
X1337839Y314995D01*
X1336852Y316705D01*
X1335455Y318102D01*
X1333745Y319089D01*
X1331837Y319600D01*
D02*
G37*
G36*
X1388987Y306900D02*
X1387013D01*
X1385105Y306389D01*
X1383395Y305401D01*
X1381998Y304005D01*
X1381011Y302295D01*
X1380500Y300387D01*
Y298413D01*
X1381011Y296505D01*
X1381998Y294795D01*
X1383395Y293398D01*
X1385105Y292411D01*
X1387013Y291900D01*
X1388987D01*
X1390895Y292411D01*
X1392605Y293398D01*
X1394001Y294795D01*
X1394989Y296505D01*
X1395500Y298413D01*
Y300387D01*
X1394989Y302295D01*
X1394001Y304005D01*
X1392605Y305401D01*
X1390895Y306389D01*
X1388987Y306900D01*
D02*
G37*
G36*
X1350897D02*
X1348923D01*
X1347015Y306389D01*
X1345305Y305401D01*
X1343909Y304005D01*
X1342921Y302295D01*
X1342410Y300387D01*
Y298413D01*
X1342921Y296505D01*
X1343909Y294795D01*
X1345305Y293398D01*
X1347015Y292411D01*
X1348923Y291900D01*
X1350897D01*
X1352805Y292411D01*
X1354515Y293398D01*
X1355912Y294795D01*
X1356899Y296505D01*
X1357410Y298413D01*
Y300387D01*
X1356899Y302295D01*
X1355912Y304005D01*
X1354515Y305401D01*
X1352805Y306389D01*
X1350897Y306900D01*
D02*
G37*
G36*
X1369937Y294200D02*
X1367963D01*
X1366055Y293689D01*
X1364345Y292701D01*
X1362948Y291305D01*
X1361961Y289595D01*
X1361450Y287687D01*
Y285713D01*
X1361961Y283805D01*
X1362948Y282095D01*
X1364345Y280699D01*
X1366055Y279711D01*
X1367963Y279200D01*
X1369937D01*
X1371845Y279711D01*
X1373555Y280699D01*
X1374951Y282095D01*
X1375939Y283805D01*
X1376450Y285713D01*
Y287687D01*
X1375939Y289595D01*
X1374951Y291305D01*
X1373555Y292701D01*
X1371845Y293689D01*
X1369937Y294200D01*
D02*
G37*
G36*
X1331837D02*
X1329863D01*
X1327955Y293689D01*
X1326245Y292701D01*
X1324848Y291305D01*
X1323861Y289595D01*
X1323350Y287687D01*
Y285713D01*
X1323861Y283805D01*
X1324848Y282095D01*
X1326245Y280699D01*
X1327955Y279711D01*
X1329863Y279200D01*
X1331837D01*
X1333745Y279711D01*
X1335455Y280699D01*
X1336852Y282095D01*
X1337839Y283805D01*
X1338350Y285713D01*
Y287687D01*
X1337839Y289595D01*
X1336852Y291305D01*
X1335455Y292701D01*
X1333745Y293689D01*
X1331837Y294200D01*
D02*
G37*
G36*
X1388987Y281500D02*
X1387013D01*
X1385105Y280989D01*
X1383395Y280002D01*
X1381998Y278605D01*
X1381011Y276895D01*
X1380500Y274987D01*
Y273013D01*
X1381011Y271105D01*
X1381998Y269395D01*
X1383395Y267999D01*
X1385105Y267011D01*
X1387013Y266500D01*
X1388987D01*
X1390895Y267011D01*
X1392605Y267999D01*
X1394001Y269395D01*
X1394989Y271105D01*
X1395500Y273013D01*
Y274987D01*
X1394989Y276895D01*
X1394001Y278605D01*
X1392605Y280002D01*
X1390895Y280989D01*
X1388987Y281500D01*
D02*
G37*
G36*
X1350897D02*
X1348923D01*
X1347015Y280989D01*
X1345305Y280002D01*
X1343909Y278605D01*
X1342921Y276895D01*
X1342410Y274987D01*
Y273013D01*
X1342921Y271105D01*
X1343909Y269395D01*
X1345305Y267999D01*
X1347015Y267011D01*
X1348923Y266500D01*
X1350897D01*
X1352805Y267011D01*
X1354515Y267999D01*
X1355912Y269395D01*
X1356899Y271105D01*
X1357410Y273013D01*
Y274987D01*
X1356899Y276895D01*
X1355912Y278605D01*
X1354515Y280002D01*
X1352805Y280989D01*
X1350897Y281500D01*
D02*
G37*
G36*
X1369937Y268800D02*
X1367963D01*
X1366055Y268289D01*
X1364345Y267302D01*
X1362948Y265905D01*
X1361961Y264195D01*
X1361450Y262287D01*
Y260313D01*
X1361961Y258405D01*
X1362948Y256695D01*
X1364345Y255299D01*
X1366055Y254311D01*
X1367963Y253800D01*
X1369937D01*
X1371845Y254311D01*
X1373555Y255299D01*
X1374951Y256695D01*
X1375939Y258405D01*
X1376450Y260313D01*
Y262287D01*
X1375939Y264195D01*
X1374951Y265905D01*
X1373555Y267302D01*
X1371845Y268289D01*
X1369937Y268800D01*
D02*
G37*
G36*
X1331837D02*
X1329863D01*
X1327955Y268289D01*
X1326245Y267302D01*
X1324848Y265905D01*
X1323861Y264195D01*
X1323350Y262287D01*
Y260313D01*
X1323861Y258405D01*
X1324848Y256695D01*
X1326245Y255299D01*
X1327955Y254311D01*
X1329863Y253800D01*
X1331837D01*
X1333745Y254311D01*
X1335455Y255299D01*
X1336852Y256695D01*
X1337839Y258405D01*
X1338350Y260313D01*
Y262287D01*
X1337839Y264195D01*
X1336852Y265905D01*
X1335455Y267302D01*
X1333745Y268289D01*
X1331837Y268800D01*
D02*
G37*
G36*
X1382777Y224000D02*
X1379223D01*
X1375789Y223080D01*
X1372711Y221303D01*
X1370197Y218789D01*
X1368420Y215711D01*
X1367500Y212277D01*
Y208723D01*
X1368420Y205289D01*
X1370197Y202211D01*
X1372711Y199697D01*
X1375789Y197920D01*
X1379223Y197000D01*
X1382777D01*
X1386211Y197920D01*
X1389289Y199697D01*
X1391803Y202211D01*
X1393580Y205289D01*
X1394500Y208723D01*
Y212277D01*
X1393580Y215711D01*
X1391803Y218789D01*
X1389289Y221303D01*
X1386211Y223080D01*
X1382777Y224000D01*
D02*
G37*
%LPD*%
D28*
X1381000Y210500D02*
D03*
Y731200D02*
D03*
X1388000Y680400D02*
D03*
X1368950Y667700D02*
D03*
X1388000Y655000D02*
D03*
X1368950Y642300D02*
D03*
X1388000Y629600D02*
D03*
X1368950Y616900D02*
D03*
X1388000Y604200D02*
D03*
X1368950Y591500D02*
D03*
X1388000Y578800D02*
D03*
X1368950Y566100D02*
D03*
X1388000Y553400D02*
D03*
X1368950Y540700D02*
D03*
X1388000Y528000D02*
D03*
X1368950Y515300D02*
D03*
X1388000Y502600D02*
D03*
X1368950Y489900D02*
D03*
X1388000Y477200D02*
D03*
X1368950Y464500D02*
D03*
X1388000Y451800D02*
D03*
X1368950Y439100D02*
D03*
X1388000Y426400D02*
D03*
X1368950Y413700D02*
D03*
X1388000Y401000D02*
D03*
X1368950Y388300D02*
D03*
X1388000Y375600D02*
D03*
X1368950Y362900D02*
D03*
X1388000Y350200D02*
D03*
X1368950Y337500D02*
D03*
X1388000Y324800D02*
D03*
X1368950Y312100D02*
D03*
X1388000Y299400D02*
D03*
X1368950Y286700D02*
D03*
X1388000Y274000D02*
D03*
X1368950Y261300D02*
D03*
X1349910Y680400D02*
D03*
X1330850Y667700D02*
D03*
X1349910Y655000D02*
D03*
X1330850Y642300D02*
D03*
X1349910Y629600D02*
D03*
X1330850Y616900D02*
D03*
X1349910Y604200D02*
D03*
X1330850Y591500D02*
D03*
X1349910Y578800D02*
D03*
X1330850Y566100D02*
D03*
X1349910Y553400D02*
D03*
X1330850Y540700D02*
D03*
X1349910Y528000D02*
D03*
X1330850Y515300D02*
D03*
X1349910Y502600D02*
D03*
X1330850Y489900D02*
D03*
X1349910Y477200D02*
D03*
X1330850Y464500D02*
D03*
X1349910Y451800D02*
D03*
X1330850Y439100D02*
D03*
X1349910Y426400D02*
D03*
X1330850Y413700D02*
D03*
X1349910Y401000D02*
D03*
X1330850Y388300D02*
D03*
X1349910Y375600D02*
D03*
X1330850Y362900D02*
D03*
X1349910Y350200D02*
D03*
X1330850Y337500D02*
D03*
X1349910Y324800D02*
D03*
X1330850Y312100D02*
D03*
X1349910Y299400D02*
D03*
X1330850Y286700D02*
D03*
X1349910Y274000D02*
D03*
X1330850Y261300D02*
D03*
D29*
X295000Y247500D02*
D03*
Y235000D02*
D03*
X319000Y701000D02*
D03*
X729000Y699000D02*
D03*
X809000D02*
D03*
X899000D02*
D03*
X484000Y700000D02*
D03*
X564000D02*
D03*
X654000D02*
D03*
X250000D02*
D03*
X400000D02*
D03*
X991000Y699000D02*
D03*
X1083000Y700000D02*
D03*
X1160000D02*
D03*
X1340000Y740000D02*
D03*
X1257096D02*
D03*
X1400000Y250000D02*
D03*
X1320000Y200000D02*
D03*
X1160000Y240000D02*
D03*
X1070000D02*
D03*
X980000D02*
D03*
X890000D02*
D03*
X800000D02*
D03*
X710000D02*
D03*
X620000D02*
D03*
X540000D02*
D03*
X450000D02*
D03*
X370000D02*
D03*
X1272000Y185000D02*
D03*
X1304000D02*
D03*
M02*
