G04*
G04 #@! TF.GenerationSoftware,Altium Limited,Altium Designer,24.4.1 (13)*
G04*
G04 Layer_Color=8421504*
%FSLAX44Y44*%
%MOMM*%
G71*
G04*
G04 #@! TF.SameCoordinates,5C46C37F-926F-48B5-82F6-D16DC70D24A0*
G04*
G04*
G04 #@! TF.FilePolarity,Positive*
G04*
G01*
G75*
%ADD14R,1.0000X1.5000*%
%ADD15R,1.5000X1.0000*%
%ADD16R,2.0000X0.3800*%
D14*
X255300Y241000D02*
D03*
X278000D02*
D03*
D15*
X1288000Y184000D02*
D03*
Y206700D02*
D03*
D16*
X213000Y644625D02*
D03*
Y638275D02*
D03*
Y631925D02*
D03*
Y625575D02*
D03*
Y682725D02*
D03*
Y670025D02*
D03*
Y657325D02*
D03*
Y619225D02*
D03*
Y606525D02*
D03*
Y593825D02*
D03*
Y581125D02*
D03*
Y568425D02*
D03*
Y555725D02*
D03*
Y543025D02*
D03*
Y530325D02*
D03*
Y517625D02*
D03*
Y504925D02*
D03*
Y492225D02*
D03*
Y479525D02*
D03*
Y466825D02*
D03*
Y454125D02*
D03*
Y441425D02*
D03*
Y428725D02*
D03*
Y416025D02*
D03*
Y403325D02*
D03*
Y390625D02*
D03*
Y377925D02*
D03*
Y365225D02*
D03*
Y352525D02*
D03*
Y339825D02*
D03*
Y327125D02*
D03*
Y314425D02*
D03*
Y301725D02*
D03*
Y289025D02*
D03*
Y276325D02*
D03*
Y263625D02*
D03*
Y676375D02*
D03*
Y663675D02*
D03*
Y650975D02*
D03*
Y612875D02*
D03*
Y600175D02*
D03*
Y587475D02*
D03*
Y574775D02*
D03*
Y562075D02*
D03*
Y549375D02*
D03*
Y536675D02*
D03*
Y523975D02*
D03*
Y511275D02*
D03*
Y498575D02*
D03*
Y485875D02*
D03*
Y473175D02*
D03*
Y460475D02*
D03*
Y447775D02*
D03*
Y435075D02*
D03*
Y422375D02*
D03*
Y409675D02*
D03*
Y396975D02*
D03*
Y384275D02*
D03*
Y371575D02*
D03*
Y358875D02*
D03*
Y346175D02*
D03*
Y333475D02*
D03*
Y320775D02*
D03*
Y308075D02*
D03*
Y295375D02*
D03*
Y282675D02*
D03*
Y269975D02*
D03*
Y257275D02*
D03*
M02*
