G04*
G04 #@! TF.GenerationSoftware,Altium Limited,Altium Designer,24.4.1 (13)*
G04*
G04 Layer_Color=16711935*
%FSLAX44Y44*%
%MOMM*%
G71*
G04*
G04 #@! TF.SameCoordinates,5CD8CDA4-0F32-4F39-920B-777DEE314C42*
G04*
G04*
G04 #@! TF.FilePolarity,Negative*
G04*
G01*
G75*
%ADD75C,1.6200*%
%ADD76R,1.6200X1.6200*%
%ADD77C,0.7200*%
D75*
X902500Y565000D02*
D03*
Y585000D02*
D03*
Y605000D02*
D03*
Y525000D02*
D03*
Y545000D02*
D03*
Y625000D02*
D03*
Y645000D02*
D03*
Y665000D02*
D03*
X572000Y676000D02*
D03*
Y656000D02*
D03*
X552000Y676000D02*
D03*
Y656000D02*
D03*
X532000Y676000D02*
D03*
Y656000D02*
D03*
X512000Y676000D02*
D03*
Y656000D02*
D03*
X492000Y676000D02*
D03*
D76*
X902500Y505000D02*
D03*
X492000Y656000D02*
D03*
D77*
X333250Y316750D02*
D03*
X362000Y292000D02*
D03*
X359000Y271000D02*
D03*
X476000Y322000D02*
D03*
X498000Y344000D02*
D03*
X388000Y423000D02*
D03*
X359000Y394000D02*
D03*
X337000Y409000D02*
D03*
X359000Y422000D02*
D03*
Y488000D02*
D03*
X427000Y457000D02*
D03*
X433000Y482000D02*
D03*
X417000Y572000D02*
D03*
X358000Y539000D02*
D03*
X359000Y572000D02*
D03*
X377000Y606000D02*
D03*
X353000Y680000D02*
D03*
X293000D02*
D03*
X337000Y578000D02*
D03*
X349000Y635000D02*
D03*
M02*
