G04*
G04 #@! TF.GenerationSoftware,Altium Limited,Altium Designer,24.4.1 (13)*
G04*
G04 Layer_Physical_Order=3*
G04 Layer_Color=16440176*
%FSLAX44Y44*%
%MOMM*%
G71*
G04*
G04 #@! TF.SameCoordinates,5CD8CDA4-0F32-4F39-920B-777DEE314C42*
G04*
G04*
G04 #@! TF.FilePolarity,Positive*
G04*
G01*
G75*
%ADD10C,0.2000*%
%ADD79C,0.3000*%
%ADD82C,0.5000*%
%ADD84C,0.8000*%
%ADD85C,1.5000*%
%ADD86R,1.5000X1.5000*%
%ADD87C,0.5000*%
%ADD88C,0.6000*%
%ADD89C,0.7000*%
G36*
X775000Y672039D02*
X750000D01*
X749220Y671884D01*
X748558Y671442D01*
X746847Y669731D01*
X746704Y669517D01*
X745483Y668296D01*
X745269Y668153D01*
X745269Y668153D01*
X733558Y656442D01*
X733116Y655780D01*
X732961Y655000D01*
Y629648D01*
X731691Y629088D01*
X730696Y629500D01*
X729304D01*
X728017Y628967D01*
X727033Y627983D01*
X726500Y626696D01*
Y625304D01*
X727033Y624017D01*
X728017Y623033D01*
X729304Y622500D01*
X730696D01*
X731691Y622912D01*
X732961Y622352D01*
Y617119D01*
X731905Y616414D01*
X731696Y616500D01*
X730304D01*
X729017Y615967D01*
X728033Y614983D01*
X727500Y613696D01*
Y612304D01*
X728033Y611017D01*
X729017Y610033D01*
X730304Y609500D01*
X731696D01*
X731905Y609586D01*
X732961Y608881D01*
Y567687D01*
X731787Y567201D01*
X724240Y574748D01*
X724239Y574756D01*
X723244Y576244D01*
X682244Y617244D01*
X680756Y618239D01*
X679000Y618588D01*
X651904D01*
X651838Y618694D01*
X651515Y619858D01*
X652391Y620734D01*
X653000Y622204D01*
Y623796D01*
X652391Y625266D01*
X651266Y626391D01*
X649796Y627000D01*
X648204D01*
X646734Y626391D01*
X645609Y625266D01*
X645000Y623796D01*
Y622204D01*
X645609Y620734D01*
X646485Y619858D01*
X646162Y618694D01*
X646096Y618588D01*
X610904D01*
X610838Y618694D01*
X610515Y619858D01*
X611391Y620734D01*
X612000Y622204D01*
Y623796D01*
X611391Y625266D01*
X610266Y626391D01*
X608796Y627000D01*
X607204D01*
X605734Y626391D01*
X604609Y625266D01*
X604000Y623796D01*
Y622204D01*
X604609Y620734D01*
X605485Y619858D01*
X605162Y618694D01*
X605096Y618588D01*
X557904D01*
X557838Y618694D01*
X557515Y619858D01*
X558391Y620734D01*
X559000Y622204D01*
Y623796D01*
X558391Y625266D01*
X557266Y626391D01*
X555796Y627000D01*
X554204D01*
X552734Y626391D01*
X551609Y625266D01*
X551000Y623796D01*
Y622204D01*
X551609Y620734D01*
X552485Y619858D01*
X552162Y618694D01*
X552096Y618588D01*
X519000D01*
X517244Y618239D01*
X515756Y617244D01*
X467756Y569244D01*
X466761Y567756D01*
X466412Y566000D01*
Y559901D01*
X465756Y559244D01*
X465505Y558869D01*
X465185Y558549D01*
X465012Y558132D01*
X464761Y557756D01*
X464673Y557313D01*
X464500Y556895D01*
Y556443D01*
X464412Y556000D01*
X464500Y555557D01*
Y555105D01*
X464673Y554688D01*
X464761Y554244D01*
X465012Y553868D01*
X465185Y553451D01*
X465505Y553131D01*
X465756Y552756D01*
X466131Y552505D01*
X466451Y552185D01*
X466868Y552012D01*
X467244Y551761D01*
X467687Y551673D01*
X468105Y551500D01*
X468557D01*
X469000Y551412D01*
X469443Y551500D01*
X469895D01*
X470312Y551673D01*
X470756Y551761D01*
X471132Y552012D01*
X471549Y552185D01*
X471869Y552505D01*
X472244Y552756D01*
X474244Y554756D01*
X475239Y556244D01*
X475588Y558000D01*
Y564100D01*
X518867Y607378D01*
X519781Y606908D01*
X520000Y606715D01*
Y605204D01*
X520609Y603734D01*
X521734Y602609D01*
X523204Y602000D01*
X524715D01*
X524908Y601781D01*
X525378Y600867D01*
X511756Y587244D01*
X510761Y585756D01*
X510412Y584000D01*
Y575000D01*
X510500Y574557D01*
Y574105D01*
X510673Y573687D01*
X510761Y573244D01*
X511012Y572868D01*
X511185Y572451D01*
X511505Y572132D01*
X511756Y571756D01*
X512131Y571505D01*
X512171Y571465D01*
X512398Y570863D01*
X512241Y569898D01*
X511495Y569151D01*
X510886Y567681D01*
Y566090D01*
X511495Y564620D01*
X512620Y563495D01*
X514090Y562886D01*
X515681D01*
X517151Y563495D01*
X518277Y564620D01*
X518886Y566090D01*
Y567681D01*
X518277Y569151D01*
X517618Y569810D01*
X517588Y569885D01*
X517553Y571036D01*
X517726Y571362D01*
X517868Y571505D01*
X518244Y571756D01*
X518495Y572132D01*
X518815Y572451D01*
X518988Y572868D01*
X519239Y573244D01*
X519327Y573687D01*
X519500Y574105D01*
Y574557D01*
X519588Y575000D01*
Y582099D01*
X532286Y594797D01*
X533410Y594674D01*
X533865Y593522D01*
X533609Y593266D01*
X533000Y591796D01*
Y590204D01*
X533609Y588734D01*
X534734Y587609D01*
X536204Y587000D01*
X537796D01*
X539266Y587609D01*
X540391Y588734D01*
X541000Y590204D01*
Y591796D01*
X540391Y593266D01*
X540015Y593642D01*
X540541Y594912D01*
X549319D01*
X550025Y593856D01*
X550000Y593796D01*
Y592204D01*
X550609Y590734D01*
X551734Y589609D01*
X553204Y589000D01*
X554796D01*
X556266Y589609D01*
X557391Y590734D01*
X558000Y592204D01*
Y593796D01*
X557975Y593856D01*
X558681Y594912D01*
X581500D01*
X583256Y595261D01*
X584744Y596256D01*
X587901Y599412D01*
X673100D01*
X696756Y575756D01*
X743412Y529100D01*
Y498669D01*
X742142Y497820D01*
X741707Y498000D01*
X740116D01*
X738646Y497391D01*
X737520Y496266D01*
X736911Y494796D01*
Y493204D01*
X737520Y491734D01*
X738646Y490609D01*
X740116Y490000D01*
X741707D01*
X742142Y490180D01*
X743412Y489332D01*
Y454041D01*
X742740Y453660D01*
X742142Y453442D01*
X740796Y454000D01*
X739204D01*
X737734Y453391D01*
X736609Y452266D01*
X736000Y450796D01*
Y449204D01*
X736609Y447734D01*
X737734Y446609D01*
X739204Y446000D01*
X740796D01*
X742142Y446558D01*
X742740Y446340D01*
X743412Y445959D01*
Y420041D01*
X742740Y419660D01*
X742142Y419442D01*
X740796Y420000D01*
X739204D01*
X737734Y419391D01*
X736609Y418266D01*
X736000Y416796D01*
Y415204D01*
X736609Y413734D01*
X737734Y412609D01*
X739204Y412000D01*
X739300D01*
X739553Y410730D01*
X738734Y410391D01*
X737609Y409266D01*
X737000Y407796D01*
Y406204D01*
X737609Y404734D01*
X738734Y403609D01*
X740204Y403000D01*
X741796D01*
X742142Y403143D01*
X743412Y402295D01*
Y392412D01*
X742796Y392000D01*
X741204D01*
X739734Y391391D01*
X738609Y390266D01*
X738000Y388796D01*
Y387204D01*
X738609Y385734D01*
X739734Y384609D01*
X741204Y384000D01*
X742796D01*
X743412Y383588D01*
Y370900D01*
X740756Y368244D01*
X739761Y366756D01*
X739412Y365000D01*
Y342650D01*
X733350Y336588D01*
X732000D01*
X731557Y336500D01*
X731105D01*
X730687Y336327D01*
X730244Y336239D01*
X729868Y335988D01*
X729451Y335815D01*
X729131Y335495D01*
X728756Y335244D01*
X728505Y334869D01*
X728185Y334549D01*
X728012Y334132D01*
X727761Y333756D01*
X727673Y333313D01*
X727500Y332895D01*
Y332443D01*
X727412Y332000D01*
X727500Y331557D01*
Y331105D01*
X727673Y330687D01*
X727761Y330244D01*
X728012Y329869D01*
X728185Y329451D01*
X728505Y329132D01*
X728756Y328756D01*
X729131Y328505D01*
X729451Y328185D01*
X729868Y328012D01*
X730244Y327761D01*
X730687Y327673D01*
X731105Y327500D01*
X731557D01*
X732000Y327412D01*
X735127D01*
X735386Y327097D01*
X735697Y326381D01*
X735735Y326213D01*
X734761Y324756D01*
X734412Y323000D01*
Y317000D01*
X734500Y316557D01*
Y316105D01*
X734673Y315688D01*
X734761Y315244D01*
X735012Y314869D01*
X735185Y314451D01*
X735505Y314132D01*
X735756Y313756D01*
X736131Y313505D01*
X736451Y313185D01*
X736868Y313012D01*
X737244Y312761D01*
X737687Y312673D01*
X738105Y312500D01*
X738557D01*
X739000Y312412D01*
X739443Y312500D01*
X739895D01*
X740313Y312673D01*
X740756Y312761D01*
X741132Y313012D01*
X741549Y313185D01*
X741869Y313505D01*
X742244Y313756D01*
X742495Y314132D01*
X742815Y314451D01*
X742937Y314746D01*
X743283Y314890D01*
X744275Y314957D01*
X744429Y314914D01*
X745234Y314109D01*
X746704Y313500D01*
X748296D01*
X749766Y314109D01*
X750891Y315234D01*
X751500Y316704D01*
Y318296D01*
X750891Y319766D01*
X749766Y320891D01*
X748296Y321500D01*
X746704D01*
X745979Y321200D01*
X744558Y321864D01*
X744549Y321877D01*
X744519Y322030D01*
X763244Y340756D01*
X764239Y342244D01*
X764588Y344000D01*
Y365000D01*
X764500Y365443D01*
Y365895D01*
X764327Y366313D01*
X764239Y366756D01*
X763988Y367132D01*
X763815Y367549D01*
X763495Y367869D01*
X763244Y368244D01*
X761588Y369901D01*
Y465295D01*
X762858Y466143D01*
X763204Y466000D01*
X764796D01*
X766266Y466609D01*
X767391Y467734D01*
X768000Y469204D01*
Y470796D01*
X767391Y472266D01*
X766266Y473391D01*
X764796Y474000D01*
X763204D01*
X762858Y473857D01*
X761588Y474705D01*
Y481295D01*
X762858Y482143D01*
X763204Y482000D01*
X764796D01*
X766266Y482609D01*
X767391Y483734D01*
X768000Y485204D01*
Y486796D01*
X767391Y488266D01*
X766266Y489391D01*
X764796Y490000D01*
X763204D01*
X762858Y489857D01*
X761588Y490705D01*
Y503869D01*
X762762Y504355D01*
X778558Y488558D01*
X779220Y488116D01*
X780000Y487961D01*
X915000D01*
X915780Y488116D01*
X916181Y488384D01*
X917107Y488072D01*
X917451Y487821D01*
Y477549D01*
X890000D01*
X889025Y477355D01*
X888198Y476802D01*
X887645Y475975D01*
X887451Y475000D01*
Y445000D01*
X887645Y444025D01*
X888198Y443198D01*
X889025Y442645D01*
X890000Y442451D01*
X917451D01*
Y360002D01*
X916266Y359391D01*
X914796Y360000D01*
X913204D01*
X913181Y359991D01*
X912000Y360876D01*
Y361796D01*
X911391Y363266D01*
X910266Y364391D01*
X909513Y364703D01*
X909447Y364730D01*
X909700Y366000D01*
X909794Y366000D01*
X910796D01*
X912266Y366609D01*
X913391Y367734D01*
X914000Y369204D01*
Y370796D01*
X913391Y372266D01*
X912266Y373391D01*
X910796Y374000D01*
X909204D01*
X907734Y373391D01*
X906609Y372266D01*
X906000Y370796D01*
Y369204D01*
X906609Y367734D01*
X907734Y366609D01*
X908487Y366297D01*
X908552Y366270D01*
X908300Y365000D01*
X908206Y365000D01*
X907204D01*
X905734Y364391D01*
X904609Y363266D01*
X904000Y361796D01*
Y360204D01*
X904609Y358734D01*
X905734Y357609D01*
X907204Y357000D01*
X908796D01*
X909040Y356077D01*
X907922Y355000D01*
X907204D01*
X905734Y354391D01*
X904609Y353266D01*
X904000Y351796D01*
Y350204D01*
X904609Y348734D01*
X905734Y347609D01*
X907204Y347000D01*
X908796D01*
X910266Y347609D01*
X911391Y348734D01*
X912000Y350204D01*
Y351124D01*
X913181Y352010D01*
X913204Y352000D01*
X914796D01*
X916266Y352609D01*
X917451Y351998D01*
Y238865D01*
X917172Y238707D01*
X916181Y238476D01*
X915266Y239391D01*
X913796Y240000D01*
X912204D01*
X910734Y239391D01*
X909609Y238266D01*
X909000Y236796D01*
Y235204D01*
X909609Y233734D01*
X910734Y232609D01*
X912204Y232000D01*
X913796D01*
X915266Y232609D01*
X916181Y233524D01*
X917172Y233293D01*
X917451Y233135D01*
Y209865D01*
X917172Y209707D01*
X916181Y209476D01*
X915266Y210391D01*
X913796Y211000D01*
X912204D01*
X910734Y210391D01*
X909609Y209266D01*
X909000Y207796D01*
Y206204D01*
X909609Y204734D01*
X910524Y203819D01*
X910293Y202828D01*
X910135Y202549D01*
X905002D01*
X904391Y203734D01*
X905000Y205204D01*
Y206796D01*
X904391Y208266D01*
X903266Y209391D01*
X901796Y210000D01*
X900204D01*
X898734Y209391D01*
X897609Y208266D01*
X897173Y207214D01*
X895827D01*
X895391Y208266D01*
X894266Y209391D01*
X892796Y210000D01*
X891204D01*
X889734Y209391D01*
X888609Y208266D01*
X888000Y206796D01*
Y205204D01*
X888609Y203734D01*
X887998Y202549D01*
X677002D01*
X676391Y203734D01*
X677000Y205204D01*
Y206796D01*
X676391Y208266D01*
X675266Y209391D01*
X673796Y210000D01*
X672204D01*
X670734Y209391D01*
X669609Y208266D01*
X669000Y206796D01*
Y205204D01*
X669609Y203734D01*
X668998Y202549D01*
X659002D01*
X658391Y203734D01*
X659000Y205204D01*
Y206796D01*
X658391Y208266D01*
X657266Y209391D01*
X655796Y210000D01*
X654204D01*
X652734Y209391D01*
X651609Y208266D01*
X651000Y206796D01*
Y205204D01*
X651609Y203734D01*
X650998Y202549D01*
X572865D01*
X572707Y202828D01*
X572476Y203819D01*
X573391Y204734D01*
X574000Y206204D01*
Y207796D01*
X573391Y209266D01*
X572266Y210391D01*
X570796Y211000D01*
X569204D01*
X567734Y210391D01*
X566609Y209266D01*
X566000Y207796D01*
Y206204D01*
X566609Y204734D01*
X567524Y203819D01*
X567293Y202828D01*
X567135Y202549D01*
X562865D01*
X562707Y202828D01*
X562476Y203819D01*
X563391Y204734D01*
X564000Y206204D01*
Y207796D01*
X563391Y209266D01*
X562266Y210391D01*
X560796Y211000D01*
X559204D01*
X557734Y210391D01*
X556609Y209266D01*
X556000Y207796D01*
Y206204D01*
X556609Y204734D01*
X557524Y203819D01*
X557293Y202828D01*
X557135Y202549D01*
X549865D01*
X549707Y202828D01*
X549476Y203819D01*
X550391Y204734D01*
X551000Y206204D01*
Y207796D01*
X550391Y209266D01*
X549266Y210391D01*
X547796Y211000D01*
X546204D01*
X544734Y210391D01*
X543609Y209266D01*
X543000Y207796D01*
Y206204D01*
X543609Y204734D01*
X544524Y203819D01*
X544293Y202828D01*
X544135Y202549D01*
X537865D01*
X537707Y202828D01*
X537476Y203819D01*
X538391Y204734D01*
X539000Y206204D01*
Y207796D01*
X538391Y209266D01*
X537266Y210391D01*
X535796Y211000D01*
X534204D01*
X532734Y210391D01*
X531609Y209266D01*
X531000Y207796D01*
Y206204D01*
X531609Y204734D01*
X532524Y203819D01*
X532293Y202828D01*
X532135Y202549D01*
X522865D01*
X522707Y202828D01*
X522476Y203819D01*
X523391Y204734D01*
X524000Y206204D01*
Y207796D01*
X523391Y209266D01*
X522266Y210391D01*
X520796Y211000D01*
X519204D01*
X517734Y210391D01*
X516609Y209266D01*
X516000Y207796D01*
Y206204D01*
X516609Y204734D01*
X517524Y203819D01*
X517293Y202828D01*
X517135Y202549D01*
X499318D01*
X499065Y203819D01*
X499766Y204109D01*
X500891Y205234D01*
X501500Y206704D01*
Y208296D01*
X500891Y209766D01*
X499766Y210891D01*
X498296Y211500D01*
X496704D01*
X495234Y210891D01*
X494109Y209766D01*
X493500Y208296D01*
Y206704D01*
X494109Y205234D01*
X495234Y204109D01*
X495935Y203819D01*
X495682Y202549D01*
X217865D01*
X217707Y202828D01*
X217476Y203819D01*
X218391Y204734D01*
X219000Y206204D01*
Y207796D01*
X218391Y209266D01*
X217266Y210391D01*
X215796Y211000D01*
X214204D01*
X212734Y210391D01*
X211609Y209266D01*
X211000Y207796D01*
Y206204D01*
X211609Y204734D01*
X212524Y203819D01*
X212293Y202828D01*
X212135Y202549D01*
X202549D01*
Y230000D01*
X202355Y230975D01*
X201802Y231802D01*
X200975Y232355D01*
X200000Y232549D01*
X172549D01*
Y667451D01*
X200000D01*
X200975Y667645D01*
X201061Y667702D01*
X201413Y667442D01*
X201942Y666764D01*
X201500Y665696D01*
Y664304D01*
X202033Y663017D01*
X203017Y662033D01*
X204304Y661500D01*
X205696D01*
X206529Y661845D01*
X207435Y660845D01*
X207000Y659796D01*
Y658204D01*
X207164Y657808D01*
X206192Y656836D01*
X205796Y657000D01*
X204204D01*
X202734Y656391D01*
X201609Y655266D01*
X201000Y653796D01*
Y652204D01*
X201609Y650734D01*
X201881Y650462D01*
X201976Y650367D01*
X201266Y649391D01*
X201065Y649474D01*
X199796Y650000D01*
X198204D01*
X196734Y649391D01*
X195609Y648266D01*
X195000Y646796D01*
Y645204D01*
X195609Y643734D01*
X196734Y642609D01*
X198204Y642000D01*
X199796D01*
X201266Y642609D01*
X202391Y643734D01*
X203000Y645204D01*
Y646796D01*
X202391Y648266D01*
X202119Y648538D01*
X202024Y648633D01*
X202734Y649609D01*
X202935Y649526D01*
X204204Y649000D01*
X205796D01*
X207266Y649609D01*
X208391Y650734D01*
X209000Y652204D01*
Y653796D01*
X208836Y654192D01*
X209808Y655164D01*
X210204Y655000D01*
X211796D01*
X213266Y655609D01*
X214391Y656734D01*
X215000Y658204D01*
Y659796D01*
X214391Y661266D01*
X213266Y662391D01*
X211796Y663000D01*
X210204D01*
X209154Y662565D01*
X208155Y663471D01*
X208500Y664304D01*
Y665696D01*
X207967Y666983D01*
X206983Y667967D01*
X205696Y668500D01*
X204304D01*
X203236Y668058D01*
X202558Y668587D01*
X202297Y668939D01*
X202355Y669025D01*
X202549Y670000D01*
Y697451D01*
X222327D01*
X222813Y696278D01*
X219674Y693139D01*
X218348Y691155D01*
X217882Y688814D01*
Y652534D01*
X177674Y612326D01*
X176348Y610341D01*
X175882Y608000D01*
Y465000D01*
X176348Y462659D01*
X177674Y460674D01*
X193674Y444674D01*
X195168Y443676D01*
X195348Y442771D01*
X196674Y440787D01*
X200674Y436787D01*
X202659Y435461D01*
X205000Y434995D01*
X207341Y435461D01*
X209326Y436787D01*
X213326Y440787D01*
X214652Y442771D01*
X215117Y445112D01*
Y445859D01*
X215652Y446659D01*
X215695Y446875D01*
X217069Y447274D01*
X217734Y446609D01*
X219204Y446000D01*
X220796D01*
X222266Y446609D01*
X223391Y447734D01*
X224000Y449204D01*
Y450796D01*
X223391Y452266D01*
X222266Y453391D01*
X220796Y454000D01*
X219204D01*
X217734Y453391D01*
X216609Y452266D01*
X216591Y452222D01*
X215158Y452081D01*
X214326Y453326D01*
X212341Y454652D01*
X210000Y455118D01*
X200534D01*
X188118Y467534D01*
Y605466D01*
X228326Y645674D01*
X229652Y647659D01*
X230117Y650000D01*
Y679016D01*
X231388Y679269D01*
X231609Y678734D01*
X232734Y677609D01*
X234204Y677000D01*
X235796D01*
X237266Y677609D01*
X238391Y678734D01*
X239000Y680204D01*
Y681796D01*
X238391Y683266D01*
X237266Y684391D01*
X235796Y685000D01*
X234204D01*
X232734Y684391D01*
X231609Y683266D01*
X231388Y682731D01*
X230117Y682984D01*
Y686280D01*
X231220Y687383D01*
X417066D01*
X417545Y686113D01*
X417000Y684796D01*
Y683204D01*
X417609Y681734D01*
X418734Y680609D01*
X420204Y680000D01*
X421796D01*
X423266Y680609D01*
X424391Y681734D01*
X425000Y683204D01*
Y684796D01*
X424454Y686113D01*
X424934Y687383D01*
X520966D01*
X524594Y683755D01*
Y682029D01*
X524398Y681833D01*
X523147Y679667D01*
X522657Y677838D01*
X521343D01*
X520853Y679667D01*
X519602Y681833D01*
X517833Y683602D01*
X515667Y684853D01*
X513251Y685500D01*
X513000D01*
Y676000D01*
X511000D01*
Y685500D01*
X510749D01*
X508333Y684853D01*
X506167Y683602D01*
X504398Y681833D01*
X503147Y679667D01*
X502657Y677838D01*
X501343D01*
X500853Y679667D01*
X499602Y681833D01*
X497833Y683602D01*
X495667Y684853D01*
X493251Y685500D01*
X490749D01*
X488333Y684853D01*
X486167Y683602D01*
X484398Y681833D01*
X483147Y679667D01*
X482500Y677251D01*
Y674749D01*
X483147Y672333D01*
X484398Y670167D01*
X486167Y668398D01*
X488333Y667148D01*
X489742Y666770D01*
X489575Y665500D01*
X482500D01*
Y663569D01*
X459478D01*
X450523Y672523D01*
X449366Y673297D01*
X448000Y673569D01*
X402021D01*
X401624Y674303D01*
X401434Y674839D01*
X402000Y676204D01*
Y677796D01*
X401391Y679266D01*
X400266Y680391D01*
X398796Y681000D01*
X397204D01*
X395734Y680391D01*
X394609Y679266D01*
X394000Y677796D01*
Y676204D01*
X394566Y674839D01*
X394376Y674303D01*
X393979Y673569D01*
X378478D01*
X373523Y678523D01*
X372366Y679297D01*
X371000Y679569D01*
X365795D01*
X365549Y679815D01*
X363895Y680500D01*
X362105D01*
X360451Y679815D01*
X359185Y678549D01*
X359173Y678521D01*
X358000Y679006D01*
Y680995D01*
X357239Y682832D01*
X355832Y684239D01*
X353995Y685000D01*
X352005D01*
X350168Y684239D01*
X348761Y682832D01*
X348000Y680995D01*
Y679005D01*
X348761Y677168D01*
X350168Y675761D01*
X352005Y675000D01*
X353995D01*
X355832Y675761D01*
X357239Y677168D01*
X357327Y677380D01*
X358500Y676895D01*
Y675105D01*
X359185Y673451D01*
X359806Y672830D01*
X360333Y672000D01*
X359806Y671170D01*
X359185Y670549D01*
X358500Y668895D01*
Y667105D01*
X359185Y665451D01*
X360136Y664500D01*
X359185Y663549D01*
X358500Y661895D01*
Y660105D01*
X359185Y658451D01*
X360155Y657481D01*
X360087Y656336D01*
X359954Y656023D01*
X359451Y655815D01*
X358185Y654549D01*
X357500Y652895D01*
Y651105D01*
X358185Y649451D01*
X359451Y648185D01*
X359824Y648030D01*
X360033Y646983D01*
X359500Y645696D01*
Y644304D01*
X360033Y643017D01*
X361017Y642033D01*
X362304Y641500D01*
X363696D01*
X364983Y642033D01*
X365967Y643017D01*
X366500Y644304D01*
Y645696D01*
X365967Y646983D01*
X365788Y647161D01*
X366314Y648431D01*
X388303D01*
X389151Y647161D01*
X389000Y646796D01*
Y645204D01*
X389609Y643734D01*
X390734Y642609D01*
X392204Y642000D01*
X393796D01*
X395266Y642609D01*
X396391Y643734D01*
X397000Y645204D01*
Y646796D01*
X396848Y647161D01*
X397697Y648431D01*
X414522D01*
X432477Y630477D01*
X433634Y629703D01*
X435000Y629431D01*
X445303D01*
X446152Y628161D01*
X446000Y627796D01*
Y626204D01*
X446609Y624734D01*
X447734Y623609D01*
X449204Y623000D01*
X450796D01*
X452266Y623609D01*
X453391Y624734D01*
X454000Y626204D01*
Y627796D01*
X453848Y628161D01*
X454697Y629431D01*
X479115D01*
X479229Y629241D01*
X479505Y628161D01*
X478609Y627266D01*
X478000Y625796D01*
Y624204D01*
X478609Y622734D01*
X479734Y621609D01*
X481204Y621000D01*
X482796D01*
X484266Y621609D01*
X485391Y622734D01*
X486000Y624204D01*
Y625796D01*
X485391Y627266D01*
X484495Y628161D01*
X484771Y629241D01*
X484885Y629431D01*
X501009D01*
X501500Y628696D01*
Y627304D01*
X502033Y626017D01*
X503017Y625033D01*
X504304Y624500D01*
X505696D01*
X506983Y625033D01*
X507967Y626017D01*
X508500Y627304D01*
Y628696D01*
X508991Y629431D01*
X549000D01*
X550366Y629703D01*
X551523Y630477D01*
X567344Y646297D01*
X567345Y646297D01*
X567911Y646473D01*
X568557Y646621D01*
X569260Y646734D01*
X569737Y646771D01*
X570749Y646500D01*
X573251D01*
X575667Y647147D01*
X577833Y648398D01*
X579602Y650167D01*
X580853Y652333D01*
X581500Y654749D01*
Y657251D01*
X580853Y659667D01*
X579602Y661833D01*
X577833Y663602D01*
X575667Y664853D01*
X573838Y665343D01*
Y666657D01*
X575667Y667148D01*
X577833Y668398D01*
X579602Y670167D01*
X580853Y672333D01*
X581500Y674749D01*
Y677251D01*
X580853Y679667D01*
X579602Y681833D01*
X577833Y683602D01*
X575667Y684853D01*
X573251Y685500D01*
X570749D01*
X568333Y684853D01*
X566167Y683602D01*
X564398Y681833D01*
X563147Y679667D01*
X562657Y677838D01*
X561343D01*
X560853Y679667D01*
X559602Y681833D01*
X557833Y683602D01*
X555667Y684853D01*
X553251Y685500D01*
X550749D01*
X548333Y684853D01*
X546167Y683602D01*
X544398Y681833D01*
X543147Y679667D01*
X542657Y677838D01*
X541343D01*
X540853Y679667D01*
X539602Y681833D01*
X537833Y683602D01*
X536829Y684182D01*
Y686289D01*
X536363Y688630D01*
X535037Y690614D01*
X529374Y696278D01*
X529860Y697451D01*
X541135D01*
X541293Y697172D01*
X541524Y696181D01*
X540609Y695266D01*
X540000Y693796D01*
Y692204D01*
X540609Y690734D01*
X541734Y689609D01*
X543204Y689000D01*
X544796D01*
X546266Y689609D01*
X547391Y690734D01*
X548000Y692204D01*
Y693796D01*
X547391Y695266D01*
X546476Y696181D01*
X546707Y697172D01*
X546865Y697451D01*
X775000Y697451D01*
Y672039D01*
D02*
G37*
G36*
X364847Y677702D02*
X364932Y677660D01*
X365043Y677623D01*
X365177Y677590D01*
X365337Y677562D01*
X365728Y677523D01*
X366218Y677503D01*
X366500Y677500D01*
Y674500D01*
X366218Y674498D01*
X365337Y674437D01*
X365177Y674410D01*
X365043Y674378D01*
X364932Y674340D01*
X364847Y674297D01*
X364785Y674250D01*
Y677750D01*
X364847Y677702D01*
D02*
G37*
G36*
Y669703D02*
X364932Y669660D01*
X365043Y669622D01*
X365177Y669590D01*
X365337Y669563D01*
X365728Y669522D01*
X366218Y669502D01*
X366500Y669500D01*
Y666500D01*
X366218Y666497D01*
X365337Y666438D01*
X365177Y666410D01*
X365043Y666377D01*
X364932Y666340D01*
X364847Y666298D01*
X364785Y666250D01*
Y669750D01*
X364847Y669703D01*
D02*
G37*
G36*
X365510Y660898D02*
X365540Y660807D01*
X365592Y660703D01*
X365664Y660585D01*
X365757Y660453D01*
X366006Y660147D01*
X366338Y659787D01*
X366535Y659586D01*
X364414Y657465D01*
X364213Y657662D01*
X363547Y658243D01*
X363415Y658336D01*
X363297Y658408D01*
X363193Y658460D01*
X363102Y658490D01*
X363025Y658500D01*
X365500Y660975D01*
X365510Y660898D01*
D02*
G37*
G36*
X484561Y657000D02*
X484531Y657285D01*
X484440Y657540D01*
X484288Y657765D01*
X484076Y657960D01*
X483803Y658125D01*
X483470Y658260D01*
X483076Y658365D01*
X482621Y658440D01*
X482106Y658485D01*
X481530Y658500D01*
Y661500D01*
X482106Y661515D01*
X482621Y661560D01*
X483076Y661635D01*
X483470Y661740D01*
X483803Y661875D01*
X484076Y662040D01*
X484288Y662235D01*
X484440Y662460D01*
X484531Y662715D01*
X484561Y663000D01*
Y657000D01*
D02*
G37*
G36*
X910005Y663777D02*
X910123Y661737D01*
X910234Y660844D01*
X910381Y660036D01*
X910563Y659313D01*
X910781Y658674D01*
X911034Y658121D01*
X911322Y657653D01*
X911645Y657269D01*
X910231Y655855D01*
X909847Y656178D01*
X909379Y656466D01*
X908826Y656719D01*
X908187Y656937D01*
X907464Y657119D01*
X906656Y657266D01*
X905763Y657377D01*
X903723Y657495D01*
X902575Y657500D01*
X910000Y664925D01*
X910005Y663777D01*
D02*
G37*
G36*
X363847Y653702D02*
X363932Y653660D01*
X364043Y653623D01*
X364177Y653590D01*
X364337Y653562D01*
X364729Y653522D01*
X365218Y653503D01*
X365500Y653500D01*
Y650500D01*
X365218Y650498D01*
X364337Y650437D01*
X364177Y650410D01*
X364043Y650378D01*
X363932Y650340D01*
X363847Y650297D01*
X363785Y650250D01*
Y653750D01*
X363847Y653702D01*
D02*
G37*
G36*
X571925Y648500D02*
X570907Y648490D01*
X569068Y648348D01*
X568246Y648215D01*
X567489Y648042D01*
X566797Y647828D01*
X566171Y647572D01*
X565610Y647276D01*
X565113Y646939D01*
X564683Y646561D01*
X562561Y648682D01*
X562939Y649113D01*
X563276Y649610D01*
X563572Y650171D01*
X563827Y650797D01*
X564042Y651489D01*
X564215Y652246D01*
X564348Y653068D01*
X564440Y653955D01*
X564500Y655925D01*
X571925Y648500D01*
D02*
G37*
G36*
X531925D02*
X530907Y648490D01*
X529068Y648348D01*
X528246Y648215D01*
X527489Y648042D01*
X526797Y647828D01*
X526171Y647572D01*
X525610Y647276D01*
X525113Y646939D01*
X524683Y646561D01*
X522561Y648682D01*
X522939Y649113D01*
X523276Y649610D01*
X523572Y650171D01*
X523828Y650797D01*
X524042Y651489D01*
X524215Y652246D01*
X524348Y653068D01*
X524440Y653955D01*
X524500Y655925D01*
X531925Y648500D01*
D02*
G37*
G36*
X511925D02*
X510907Y648490D01*
X509068Y648348D01*
X508246Y648215D01*
X507489Y648042D01*
X506797Y647828D01*
X506171Y647572D01*
X505610Y647276D01*
X505113Y646939D01*
X504683Y646561D01*
X502561Y648682D01*
X502939Y649113D01*
X503276Y649610D01*
X503572Y650171D01*
X503828Y650797D01*
X504042Y651489D01*
X504215Y652246D01*
X504348Y653068D01*
X504440Y653955D01*
X504500Y655925D01*
X511925Y648500D01*
D02*
G37*
G36*
X902768Y617505D02*
X901733Y617449D01*
X899866Y617233D01*
X899035Y617072D01*
X898272Y616876D01*
X897578Y616646D01*
X896951Y616380D01*
X896393Y616080D01*
X895903Y615745D01*
X895481Y615374D01*
X893260Y617396D01*
X893645Y617835D01*
X893983Y618336D01*
X894274Y618899D01*
X894519Y619525D01*
X894717Y620212D01*
X894869Y620962D01*
X894975Y621774D01*
X895033Y622648D01*
X895046Y623584D01*
X895012Y624582D01*
X902768Y617505D01*
D02*
G37*
G36*
X827500Y647500D02*
X832879Y642121D01*
X832734Y641391D01*
X831609Y640266D01*
X831000Y638796D01*
Y637204D01*
X831609Y635734D01*
X832734Y634609D01*
X834204Y634000D01*
X835796D01*
X837266Y634609D01*
X838391Y635734D01*
X839000Y637204D01*
Y638796D01*
X838939Y638944D01*
X839644Y640000D01*
X860163D01*
X877000Y640000D01*
Y639204D01*
X877609Y637734D01*
X878734Y636609D01*
X880204Y636000D01*
X881796D01*
X882792Y636413D01*
X883511Y635336D01*
X876477Y628302D01*
X875703Y627144D01*
X875431Y625778D01*
Y596478D01*
X869821Y590868D01*
X868744Y591587D01*
X869000Y592204D01*
Y593796D01*
X868391Y595266D01*
X867266Y596391D01*
X865796Y597000D01*
X864204D01*
X862734Y596391D01*
X861609Y595266D01*
X860249Y595302D01*
X859967Y595983D01*
X858983Y596967D01*
X857696Y597500D01*
X856669D01*
X855940Y598289D01*
X855772Y598655D01*
X856000Y599204D01*
Y600796D01*
X855391Y602266D01*
X854266Y603391D01*
X852796Y604000D01*
X851204D01*
X849734Y603391D01*
X848609Y602266D01*
X848000Y600796D01*
Y599204D01*
X848609Y597734D01*
X849734Y596609D01*
X851204Y596000D01*
X852665D01*
X853126Y595579D01*
X853611Y594963D01*
X853500Y594696D01*
Y593304D01*
X854033Y592017D01*
X855017Y591033D01*
X856304Y590500D01*
X857696D01*
X858983Y591033D01*
X859827Y591877D01*
X860638Y591845D01*
X861210Y591698D01*
X861609Y590734D01*
X862734Y589609D01*
X864204Y589000D01*
X865796D01*
X866413Y589256D01*
X867132Y588179D01*
X862522Y583569D01*
X845295D01*
X845049Y583815D01*
X843395Y584500D01*
X841605D01*
X839951Y583815D01*
X839446Y583310D01*
X838299Y582815D01*
X837587Y583110D01*
X836645Y583500D01*
X834855D01*
X833201Y582815D01*
X831935Y581549D01*
X831250Y579895D01*
Y578105D01*
X831935Y576451D01*
X832824Y575562D01*
X832836Y575502D01*
X833609Y574344D01*
X834379Y573574D01*
X834081Y572076D01*
X833451Y571815D01*
X832185Y570549D01*
X831500Y568895D01*
Y567105D01*
X832185Y565451D01*
X833451Y564185D01*
X835105Y563500D01*
X836895D01*
X838549Y564185D01*
X839305Y564941D01*
X869000D01*
X869000Y564941D01*
X870171Y565174D01*
X871163Y565837D01*
X877267Y571941D01*
X894415D01*
X894805Y570671D01*
X893647Y568667D01*
X893000Y566251D01*
Y563749D01*
X893647Y561333D01*
X894550Y559770D01*
X893840Y558500D01*
X893304D01*
X892017Y557967D01*
X891033Y556983D01*
X890500Y555696D01*
Y554304D01*
X891033Y553017D01*
X892017Y552033D01*
X893304Y551500D01*
X893840D01*
X894550Y550230D01*
X893647Y548667D01*
X893000Y546251D01*
Y543749D01*
X893647Y541333D01*
X894898Y539167D01*
X896667Y537398D01*
X898833Y536147D01*
X900662Y535657D01*
Y534343D01*
X898833Y533853D01*
X896667Y532602D01*
X894898Y530833D01*
X893647Y528667D01*
X893000Y526251D01*
Y523749D01*
X893647Y521333D01*
X894898Y519167D01*
X896667Y517398D01*
X898833Y516147D01*
X900242Y515770D01*
X900075Y514500D01*
X893000D01*
Y506000D01*
X902500D01*
X912000D01*
Y514500D01*
X904925D01*
X904758Y515770D01*
X906167Y516147D01*
X908333Y517398D01*
X910102Y519167D01*
X911352Y521333D01*
X912000Y523749D01*
Y526251D01*
X911352Y528667D01*
X910102Y530833D01*
X908333Y532602D01*
X906167Y533853D01*
X904338Y534343D01*
Y535657D01*
X906167Y536147D01*
X908333Y537398D01*
X910102Y539167D01*
X911352Y541333D01*
X912000Y543749D01*
Y546251D01*
X911352Y548667D01*
X910102Y550833D01*
X908333Y552602D01*
X906167Y553853D01*
X904338Y554343D01*
Y555657D01*
X906167Y556147D01*
X908333Y557398D01*
X910102Y559167D01*
X911352Y561333D01*
X912000Y563749D01*
Y566251D01*
X911352Y568667D01*
X910102Y570833D01*
X910075Y570860D01*
X910110Y571339D01*
X910402Y572329D01*
X911163Y572837D01*
X913827Y575501D01*
X915000Y575015D01*
Y490000D01*
X780000D01*
X761588Y508412D01*
Y535500D01*
X761239Y537256D01*
X760244Y538744D01*
X740769Y558220D01*
X741488Y559297D01*
X742204Y559000D01*
X743796D01*
X745266Y559609D01*
X746391Y560734D01*
X747000Y562204D01*
Y563796D01*
X746391Y565266D01*
X745266Y566391D01*
X743796Y567000D01*
X742204D01*
X740734Y566391D01*
X739609Y565266D01*
X739000Y563796D01*
Y562204D01*
X739297Y561488D01*
X738220Y560769D01*
X735000Y563989D01*
Y655000D01*
X746711Y666711D01*
X746832Y666761D01*
X748239Y668168D01*
X748289Y668289D01*
X750000Y670000D01*
X777500D01*
Y697451D01*
X827500Y697451D01*
Y647500D01*
D02*
G37*
G36*
X844347Y581702D02*
X844432Y581660D01*
X844543Y581623D01*
X844677Y581590D01*
X844837Y581562D01*
X845228Y581522D01*
X845718Y581502D01*
X846000Y581500D01*
Y578500D01*
X845718Y578498D01*
X844837Y578438D01*
X844677Y578410D01*
X844543Y578377D01*
X844432Y578340D01*
X844347Y578298D01*
X844285Y578250D01*
Y581750D01*
X844347Y581702D01*
D02*
G37*
G36*
X837883Y577667D02*
X837881Y577579D01*
X837904Y577477D01*
X837951Y577361D01*
X838023Y577230D01*
X838120Y577086D01*
X838242Y576927D01*
X838559Y576568D01*
X838754Y576367D01*
X836411Y574468D01*
X834629Y576765D01*
X837910Y577741D01*
X837883Y577667D01*
D02*
G37*
G36*
X837938Y569608D02*
X838101Y569480D01*
X838275Y569367D01*
X838459Y569270D01*
X838654Y569188D01*
X838860Y569120D01*
X839077Y569067D01*
X839304Y569030D01*
X839542Y569007D01*
X839791Y569000D01*
Y567000D01*
X839542Y566992D01*
X839304Y566970D01*
X839077Y566932D01*
X838860Y566880D01*
X838654Y566813D01*
X838459Y566730D01*
X838275Y566632D01*
X838101Y566520D01*
X837938Y566393D01*
X837785Y566250D01*
Y569750D01*
X837938Y569608D01*
D02*
G37*
%LPC*%
G36*
X210796Y694000D02*
X209204D01*
X207734Y693391D01*
X206609Y692266D01*
X206000Y690796D01*
Y689204D01*
X206609Y687734D01*
X207734Y686609D01*
X209204Y686000D01*
X210796D01*
X212266Y686609D01*
X213391Y687734D01*
X214000Y689204D01*
Y690796D01*
X213391Y692266D01*
X212266Y693391D01*
X210796Y694000D01*
D02*
G37*
G36*
X413696Y683500D02*
X412304D01*
X411017Y682967D01*
X410033Y681983D01*
X409500Y680696D01*
Y679304D01*
X410033Y678017D01*
X411017Y677033D01*
X412304Y676500D01*
X413696D01*
X414983Y677033D01*
X415967Y678017D01*
X416500Y679304D01*
Y680696D01*
X415967Y681983D01*
X414983Y682967D01*
X413696Y683500D01*
D02*
G37*
G36*
X680796Y684000D02*
X679204D01*
X677734Y683391D01*
X676609Y682266D01*
X676000Y680796D01*
Y679204D01*
X676609Y677734D01*
X677734Y676609D01*
X679204Y676000D01*
X680796D01*
X682266Y676609D01*
X683391Y677734D01*
X684000Y679204D01*
Y680796D01*
X683391Y682266D01*
X682266Y683391D01*
X680796Y684000D01*
D02*
G37*
G36*
X293995Y685000D02*
X292005D01*
X290168Y684239D01*
X288761Y682832D01*
X288000Y680995D01*
Y679005D01*
X288761Y677168D01*
X290168Y675761D01*
X292005Y675000D01*
X293995D01*
X295832Y675761D01*
X297239Y677168D01*
X297263Y677225D01*
X297852Y677263D01*
X298585Y677099D01*
X299033Y676017D01*
X300017Y675033D01*
X301304Y674500D01*
X302696D01*
X303983Y675033D01*
X304967Y676017D01*
X305500Y677304D01*
Y678696D01*
X304967Y679983D01*
X303983Y680967D01*
X302696Y681500D01*
X301304D01*
X300017Y680967D01*
X299270Y680220D01*
X298158Y680514D01*
X298000Y680609D01*
Y680995D01*
X297239Y682832D01*
X295832Y684239D01*
X293995Y685000D01*
D02*
G37*
G36*
X591796Y682000D02*
X590204D01*
X588734Y681391D01*
X587609Y680266D01*
X587000Y678796D01*
Y677204D01*
X587609Y675734D01*
X588734Y674609D01*
X590204Y674000D01*
X591796D01*
X593266Y674609D01*
X594391Y675734D01*
X595000Y677204D01*
Y678796D01*
X594391Y680266D01*
X593266Y681391D01*
X591796Y682000D01*
D02*
G37*
G36*
X477796Y681500D02*
X476204D01*
X474734Y680891D01*
X473609Y679766D01*
X473000Y678296D01*
Y676704D01*
X473609Y675234D01*
X474734Y674109D01*
X476204Y673500D01*
X477796D01*
X479266Y674109D01*
X480391Y675234D01*
X481000Y676704D01*
Y678296D01*
X480391Y679766D01*
X479266Y680891D01*
X477796Y681500D01*
D02*
G37*
G36*
X335696Y680500D02*
X334304D01*
X333017Y679967D01*
X332033Y678983D01*
X331500Y677696D01*
Y676304D01*
X332033Y675017D01*
X333017Y674033D01*
X334304Y673500D01*
X335696D01*
X336983Y674033D01*
X337967Y675017D01*
X338500Y676304D01*
Y677696D01*
X337967Y678983D01*
X336983Y679967D01*
X335696Y680500D01*
D02*
G37*
G36*
X735796Y679000D02*
X734204D01*
X732734Y678391D01*
X731609Y677266D01*
X731000Y675796D01*
Y674204D01*
X731609Y672734D01*
X732734Y671609D01*
X734204Y671000D01*
X735796D01*
X737266Y671609D01*
X738391Y672734D01*
X739000Y674204D01*
Y675796D01*
X738391Y677266D01*
X737266Y678391D01*
X735796Y679000D01*
D02*
G37*
G36*
X210796Y678000D02*
X209204D01*
X207734Y677391D01*
X206609Y676266D01*
X206000Y674796D01*
Y673204D01*
X206609Y671734D01*
X207734Y670609D01*
X209204Y670000D01*
X210796D01*
X212266Y670609D01*
X213391Y671734D01*
X214000Y673204D01*
Y674796D01*
X213391Y676266D01*
X212266Y677391D01*
X210796Y678000D01*
D02*
G37*
G36*
X591796Y658000D02*
X590204D01*
X588734Y657391D01*
X587609Y656266D01*
X587000Y654796D01*
Y653204D01*
X587609Y651734D01*
X588734Y650609D01*
X590204Y650000D01*
X591796D01*
X593266Y650609D01*
X594391Y651734D01*
X595000Y653204D01*
Y654796D01*
X594391Y656266D01*
X593266Y657391D01*
X591796Y658000D01*
D02*
G37*
G36*
X674796Y657000D02*
X673204D01*
X671734Y656391D01*
X670609Y655266D01*
X670000Y653796D01*
Y652204D01*
X670609Y650734D01*
X671734Y649609D01*
X673204Y649000D01*
X674796D01*
X676266Y649609D01*
X677391Y650734D01*
X678000Y652204D01*
Y653796D01*
X677391Y655266D01*
X676266Y656391D01*
X674796Y657000D01*
D02*
G37*
G36*
X397696Y641500D02*
X396304D01*
X395017Y640967D01*
X394033Y639983D01*
X393500Y638696D01*
Y637304D01*
X393541Y637205D01*
X392464Y636485D01*
X391983Y636967D01*
X390696Y637500D01*
X389304D01*
X388017Y636967D01*
X387033Y635983D01*
X386500Y634696D01*
Y633304D01*
X387033Y632017D01*
X388017Y631033D01*
X389304Y630500D01*
X390696D01*
X391983Y631033D01*
X392967Y632017D01*
X393500Y633304D01*
Y634696D01*
X393459Y634795D01*
X394536Y635515D01*
X395017Y635033D01*
X396304Y634500D01*
X397696D01*
X398983Y635033D01*
X399967Y636017D01*
X400500Y637304D01*
Y638696D01*
X399967Y639983D01*
X398983Y640967D01*
X397696Y641500D01*
D02*
G37*
G36*
X722796Y642000D02*
X721204D01*
X719734Y641391D01*
X718609Y640266D01*
X718000Y638796D01*
Y637204D01*
X718609Y635734D01*
X719734Y634609D01*
X721204Y634000D01*
X722796D01*
X724266Y634609D01*
X725391Y635734D01*
X726000Y637204D01*
Y638796D01*
X725391Y640266D01*
X724266Y641391D01*
X722796Y642000D01*
D02*
G37*
G36*
X337696Y671500D02*
X336304D01*
X335017Y670967D01*
X334033Y669983D01*
X333500Y668696D01*
Y667304D01*
X334033Y666017D01*
X335017Y665033D01*
X335271Y664928D01*
X335506Y663456D01*
X335033Y662983D01*
X334500Y661696D01*
Y660304D01*
X335033Y659017D01*
X336017Y658033D01*
X337304Y657500D01*
X338696D01*
X339029Y657638D01*
X339881Y656616D01*
X339500Y655696D01*
Y654542D01*
X339046Y653954D01*
X338458Y653500D01*
X337304D01*
X336017Y652967D01*
X335033Y651983D01*
X334500Y650696D01*
Y649304D01*
X334726Y648758D01*
X333891Y647500D01*
X333304D01*
X332017Y646967D01*
X331033Y645983D01*
X330500Y644696D01*
Y643304D01*
X331033Y642017D01*
X331287Y641763D01*
X331292Y641427D01*
X330915Y640339D01*
X330017Y639967D01*
X329033Y638983D01*
X328500Y637696D01*
Y636304D01*
X329033Y635017D01*
X330017Y634033D01*
X331304Y633500D01*
X332696D01*
X333983Y634033D01*
X334967Y635017D01*
X335500Y636304D01*
Y637696D01*
X334967Y638983D01*
X334713Y639237D01*
X334708Y639573D01*
X335085Y640661D01*
X335983Y641033D01*
X336967Y642017D01*
X337500Y643304D01*
Y644696D01*
X337274Y645242D01*
X338109Y646500D01*
X338696D01*
X339983Y647033D01*
X340967Y648017D01*
X341500Y649304D01*
Y650458D01*
X341954Y651046D01*
X342542Y651500D01*
X343696D01*
X344983Y652033D01*
X345967Y653017D01*
X346500Y654304D01*
Y655696D01*
X345967Y656983D01*
X344983Y657967D01*
X343696Y658500D01*
X342304D01*
X341971Y658362D01*
X341119Y659384D01*
X341500Y660304D01*
Y661696D01*
X340967Y662983D01*
X339983Y663967D01*
X339729Y664072D01*
X339494Y665544D01*
X339967Y666017D01*
X340500Y667304D01*
Y668696D01*
X339967Y669983D01*
X338983Y670967D01*
X337696Y671500D01*
D02*
G37*
G36*
X301696Y640500D02*
X300304D01*
X299017Y639967D01*
X298033Y638983D01*
X297500Y637696D01*
Y636304D01*
X298033Y635017D01*
X299017Y634033D01*
X300304Y633500D01*
X301696D01*
X302983Y634033D01*
X303967Y635017D01*
X304500Y636304D01*
Y637696D01*
X303967Y638983D01*
X302983Y639967D01*
X301696Y640500D01*
D02*
G37*
G36*
X669696Y638500D02*
X668304D01*
X667017Y637967D01*
X666033Y636983D01*
X665500Y635696D01*
Y634304D01*
X666033Y633017D01*
X667017Y632033D01*
X668304Y631500D01*
X669696D01*
X670983Y632033D01*
X671967Y633017D01*
X672500Y634304D01*
Y635696D01*
X671967Y636983D01*
X670983Y637967D01*
X669696Y638500D01*
D02*
G37*
G36*
X289696Y637500D02*
X288304D01*
X287017Y636967D01*
X286033Y635983D01*
X285500Y634696D01*
Y633304D01*
X286033Y632017D01*
X287017Y631033D01*
X288304Y630500D01*
X289696D01*
X290983Y631033D01*
X291967Y632017D01*
X292500Y633304D01*
Y634696D01*
X291967Y635983D01*
X290983Y636967D01*
X289696Y637500D01*
D02*
G37*
G36*
X349995Y640000D02*
X348005D01*
X346168Y639239D01*
X344761Y637832D01*
X344000Y635995D01*
Y634005D01*
X344761Y632168D01*
X346168Y630761D01*
X348005Y630000D01*
X349995D01*
X351832Y630761D01*
X353239Y632168D01*
X354000Y634005D01*
Y635995D01*
X353239Y637832D01*
X351832Y639239D01*
X349995Y640000D01*
D02*
G37*
G36*
X279696Y631500D02*
X278304D01*
X277017Y630967D01*
X276033Y629983D01*
X275500Y628696D01*
Y627304D01*
X276033Y626017D01*
X277017Y625033D01*
X278304Y624500D01*
X279696D01*
X280983Y625033D01*
X281967Y626017D01*
X282500Y627304D01*
Y628696D01*
X281967Y629983D01*
X280983Y630967D01*
X279696Y631500D01*
D02*
G37*
G36*
X634796Y629000D02*
X633204D01*
X631734Y628391D01*
X630609Y627266D01*
X630000Y625796D01*
Y624204D01*
X630609Y622734D01*
X631734Y621609D01*
X633204Y621000D01*
X634796D01*
X636266Y621609D01*
X637391Y622734D01*
X638000Y624204D01*
Y625796D01*
X637391Y627266D01*
X636266Y628391D01*
X634796Y629000D01*
D02*
G37*
G36*
X658696Y627500D02*
X657304D01*
X656017Y626967D01*
X655033Y625983D01*
X654500Y624696D01*
Y623304D01*
X655033Y622017D01*
X656017Y621033D01*
X657304Y620500D01*
X658696D01*
X659983Y621033D01*
X660967Y622017D01*
X661500Y623304D01*
Y624696D01*
X660967Y625983D01*
X659983Y626967D01*
X658696Y627500D01*
D02*
G37*
G36*
X583696D02*
X582304D01*
X581017Y626967D01*
X580033Y625983D01*
X579500Y624696D01*
Y623304D01*
X580033Y622017D01*
X581017Y621033D01*
X582304Y620500D01*
X583696D01*
X584983Y621033D01*
X585967Y622017D01*
X586500Y623304D01*
Y624696D01*
X585967Y625983D01*
X584983Y626967D01*
X583696Y627500D01*
D02*
G37*
G36*
X464796Y618000D02*
X463204D01*
X461734Y617391D01*
X460609Y616266D01*
X460000Y614796D01*
Y613204D01*
X460609Y611734D01*
X461734Y610609D01*
X463204Y610000D01*
X464796D01*
X466266Y610609D01*
X467391Y611734D01*
X468000Y613204D01*
Y614796D01*
X467391Y616266D01*
X466266Y617391D01*
X464796Y618000D01*
D02*
G37*
G36*
X332796Y617000D02*
X331204D01*
X329734Y616391D01*
X328609Y615266D01*
X328000Y613796D01*
Y612204D01*
X328609Y610734D01*
X329734Y609609D01*
X331204Y609000D01*
X332796D01*
X334266Y609609D01*
X335391Y610734D01*
X336000Y612204D01*
Y613796D01*
X335391Y615266D01*
X334266Y616391D01*
X332796Y617000D01*
D02*
G37*
G36*
X279696Y613500D02*
X278304D01*
X277017Y612967D01*
X276033Y611983D01*
X275500Y610696D01*
Y609304D01*
X276033Y608017D01*
X277017Y607033D01*
X278304Y606500D01*
X279696D01*
X280983Y607033D01*
X281967Y608017D01*
X282500Y609304D01*
Y610696D01*
X281967Y611983D01*
X280983Y612967D01*
X279696Y613500D01*
D02*
G37*
G36*
X499796Y613000D02*
X498204D01*
X496734Y612391D01*
X495609Y611266D01*
X495000Y609796D01*
Y608204D01*
X495609Y606734D01*
X496734Y605609D01*
X498204Y605000D01*
X499796D01*
X501266Y605609D01*
X502391Y606734D01*
X503000Y608204D01*
Y609796D01*
X502391Y611266D01*
X501266Y612391D01*
X499796Y613000D01*
D02*
G37*
G36*
X419796Y616000D02*
X418204D01*
X416734Y615391D01*
X415609Y614266D01*
X415000Y612796D01*
Y611204D01*
X415457Y610101D01*
X415068Y609454D01*
X414758Y609087D01*
X414643Y609000D01*
X413204D01*
X411734Y608391D01*
X410609Y607266D01*
X410000Y605796D01*
Y604204D01*
X410609Y602734D01*
X411734Y601609D01*
X413204Y601000D01*
X414796D01*
X416266Y601609D01*
X417391Y602734D01*
X418000Y604204D01*
Y605796D01*
X417543Y606899D01*
X417932Y607546D01*
X418242Y607913D01*
X418357Y608000D01*
X419796D01*
X421266Y608609D01*
X422391Y609734D01*
X423000Y611204D01*
Y612796D01*
X422391Y614266D01*
X421266Y615391D01*
X419796Y616000D01*
D02*
G37*
G36*
X377995Y611000D02*
X376005D01*
X374168Y610239D01*
X372761Y608832D01*
X372000Y606995D01*
Y605005D01*
X372761Y603168D01*
X374168Y601761D01*
X376005Y601000D01*
X377995D01*
X379832Y601761D01*
X381239Y603168D01*
X382000Y605005D01*
Y606995D01*
X381239Y608832D01*
X379832Y610239D01*
X377995Y611000D01*
D02*
G37*
G36*
X670796Y596500D02*
X669204D01*
X667734Y595891D01*
X666609Y594766D01*
X666000Y593296D01*
Y591704D01*
X666609Y590234D01*
X667734Y589109D01*
X669204Y588500D01*
X670796D01*
X672266Y589109D01*
X673391Y590234D01*
X674000Y591704D01*
Y593296D01*
X673391Y594766D01*
X672266Y595891D01*
X670796Y596500D01*
D02*
G37*
G36*
X600796Y592000D02*
X599204D01*
X597734Y591391D01*
X596609Y590266D01*
X596000Y588796D01*
Y587204D01*
X596609Y585734D01*
X597734Y584609D01*
X599204Y584000D01*
X600796D01*
X602266Y584609D01*
X603391Y585734D01*
X604000Y587204D01*
Y588796D01*
X603391Y590266D01*
X602266Y591391D01*
X600796Y592000D01*
D02*
G37*
G36*
X680796Y588000D02*
X679204D01*
X677734Y587391D01*
X676609Y586266D01*
X676000Y584796D01*
Y583204D01*
X676609Y581734D01*
X677734Y580609D01*
X679204Y580000D01*
X680796D01*
X682266Y580609D01*
X683391Y581734D01*
X684000Y583204D01*
Y584796D01*
X683391Y586266D01*
X682266Y587391D01*
X680796Y588000D01*
D02*
G37*
G36*
X278696Y582500D02*
X277304D01*
X276017Y581967D01*
X275033Y580983D01*
X274500Y579696D01*
Y578304D01*
X275033Y577017D01*
X276017Y576033D01*
X277304Y575500D01*
X278696D01*
X279983Y576033D01*
X280967Y577017D01*
X281500Y578304D01*
Y579696D01*
X280967Y580983D01*
X279983Y581967D01*
X278696Y582500D01*
D02*
G37*
G36*
X458696Y578500D02*
X457304D01*
X456017Y577967D01*
X455033Y576983D01*
X454500Y575696D01*
Y574304D01*
X454638Y573971D01*
X453616Y573119D01*
X452696Y573500D01*
X451304D01*
X450017Y572967D01*
X449033Y571983D01*
X448500Y570696D01*
Y569304D01*
X448638Y568971D01*
X447616Y568119D01*
X446696Y568500D01*
X445304D01*
X444017Y567967D01*
X443033Y566983D01*
X442500Y565696D01*
Y564304D01*
X443033Y563017D01*
X444017Y562033D01*
X445304Y561500D01*
X446696D01*
X447983Y562033D01*
X448967Y563017D01*
X449500Y564304D01*
Y565696D01*
X449362Y566029D01*
X450384Y566881D01*
X451304Y566500D01*
X452696D01*
X453983Y567033D01*
X454967Y568017D01*
X455500Y569304D01*
Y570696D01*
X455362Y571029D01*
X456384Y571881D01*
X457304Y571500D01*
X458696D01*
X459983Y572033D01*
X460967Y573017D01*
X461500Y574304D01*
Y575696D01*
X460967Y576983D01*
X459983Y577967D01*
X458696Y578500D01*
D02*
G37*
G36*
X337995Y583000D02*
X336005D01*
X334168Y582239D01*
X332761Y580832D01*
X332000Y578995D01*
Y577005D01*
X332761Y575168D01*
X334168Y573761D01*
X336005Y573000D01*
X337995D01*
X339832Y573761D01*
X341239Y575168D01*
X342000Y577005D01*
Y578995D01*
X341239Y580832D01*
X339832Y582239D01*
X337995Y583000D01*
D02*
G37*
G36*
X680796Y576000D02*
X679204D01*
X677734Y575391D01*
X676609Y574266D01*
X676000Y572796D01*
Y572106D01*
X674730Y571721D01*
X674326Y572326D01*
X672341Y573652D01*
X670000Y574118D01*
X667659Y573652D01*
X665674Y572326D01*
X664348Y570341D01*
X663882Y568000D01*
Y567500D01*
X664348Y565159D01*
X665674Y563174D01*
X673174Y555674D01*
X675159Y554348D01*
X677500Y553882D01*
X678466D01*
X686334Y546014D01*
X686036Y544516D01*
X685734Y544391D01*
X684609Y543266D01*
X684000Y541796D01*
Y540204D01*
X684609Y538734D01*
X685734Y537609D01*
X687204Y537000D01*
X688796D01*
X690266Y537609D01*
X691391Y538734D01*
X691516Y539036D01*
X693014Y539334D01*
X704382Y527966D01*
Y517934D01*
X703112Y517455D01*
X701796Y518000D01*
X700204D01*
X698734Y517391D01*
X697609Y516266D01*
X697000Y514796D01*
Y513204D01*
X697609Y511734D01*
X698734Y510609D01*
X700204Y510000D01*
X701796D01*
X703112Y510546D01*
X704382Y510066D01*
Y503363D01*
X703112Y502837D01*
X702983Y502967D01*
X701696Y503500D01*
X700304D01*
X699017Y502967D01*
X698033Y501983D01*
X697500Y500696D01*
Y499304D01*
X698033Y498017D01*
X699017Y497033D01*
X700304Y496500D01*
X701696D01*
X702983Y497033D01*
X703112Y497163D01*
X704382Y496637D01*
Y479393D01*
X704348Y479341D01*
X703943Y477303D01*
X703147Y476906D01*
X702612Y476837D01*
X702483Y476967D01*
X701196Y477500D01*
X699804D01*
X698517Y476967D01*
X697533Y475983D01*
X697000Y474696D01*
Y473304D01*
X697533Y472017D01*
X698517Y471033D01*
X699804Y470500D01*
X701196D01*
X702483Y471033D01*
X702612Y471163D01*
X703882Y470637D01*
Y458570D01*
X702612Y458044D01*
X702266Y458391D01*
X700796Y459000D01*
X699204D01*
X697734Y458391D01*
X696609Y457266D01*
X696000Y455796D01*
Y454204D01*
X696609Y452734D01*
X697734Y451609D01*
X699002Y451084D01*
X699165Y450361D01*
X699128Y449762D01*
X698234Y449391D01*
X697109Y448266D01*
X696500Y446796D01*
Y445204D01*
X697109Y443734D01*
X698234Y442609D01*
X699704Y442000D01*
X701296D01*
X702766Y442609D01*
X703891Y443734D01*
X704500Y445204D01*
Y446796D01*
X704141Y447663D01*
X704118Y447717D01*
X704614Y447981D01*
X704613Y447981D01*
X704614Y447981D01*
X705761Y447587D01*
X716348Y437000D01*
X712674Y433326D01*
X711348Y431341D01*
X710882Y429000D01*
Y388000D01*
X711348Y385659D01*
X712674Y383674D01*
X720674Y375674D01*
X722659Y374348D01*
X725000Y373882D01*
X726000D01*
X728341Y374348D01*
X730326Y375674D01*
X731652Y377659D01*
X732117Y380000D01*
X731652Y382341D01*
X730326Y384326D01*
X728341Y385652D01*
X727915Y385737D01*
X723118Y390534D01*
Y401566D01*
X724388Y402338D01*
X725204Y402000D01*
X726796D01*
X728266Y402609D01*
X729391Y403734D01*
X730000Y405204D01*
Y406796D01*
X729391Y408266D01*
X728266Y409391D01*
X726796Y410000D01*
X725204D01*
X724388Y409662D01*
X723118Y410434D01*
Y425016D01*
X724388Y425269D01*
X724609Y424734D01*
X725734Y423609D01*
X727204Y423000D01*
X728796D01*
X730266Y423609D01*
X731391Y424734D01*
X732000Y426204D01*
Y427796D01*
X731391Y429266D01*
X730266Y430391D01*
X729257Y430809D01*
X728825Y432173D01*
X729326Y432674D01*
X730652Y434659D01*
X731117Y437000D01*
X730652Y439341D01*
X729577Y440949D01*
X729756Y442106D01*
X729964Y442484D01*
X730266Y442609D01*
X731391Y443734D01*
X732000Y445204D01*
Y446796D01*
X731391Y448266D01*
X730266Y449391D01*
X728796Y450000D01*
X727204D01*
X725734Y449391D01*
X724609Y448266D01*
X724484Y447964D01*
X722986Y447666D01*
X716117Y454534D01*
Y473932D01*
X722384D01*
X722781Y473197D01*
X722971Y472662D01*
X722405Y471296D01*
Y469704D01*
X723015Y468234D01*
X724140Y467109D01*
X725610Y466500D01*
X727201D01*
X728671Y467109D01*
X729797Y468234D01*
X730406Y469704D01*
Y471296D01*
X730393Y471327D01*
X731107Y472920D01*
X731930Y473261D01*
X733337Y474668D01*
X734098Y476506D01*
Y478495D01*
X733337Y480332D01*
X731930Y481739D01*
X730092Y482500D01*
X728103D01*
X726266Y481739D01*
X725595Y481069D01*
X716618D01*
Y530500D01*
X716152Y532841D01*
X714826Y534826D01*
X685326Y564326D01*
X683341Y565652D01*
X681000Y566118D01*
X680468D01*
X679998Y566730D01*
X680615Y568000D01*
X680796D01*
X682266Y568609D01*
X683391Y569734D01*
X684000Y571204D01*
Y572796D01*
X683391Y574266D01*
X682266Y575391D01*
X680796Y576000D01*
D02*
G37*
G36*
X417995Y577000D02*
X416005D01*
X414168Y576239D01*
X412761Y574832D01*
X412000Y572995D01*
Y571005D01*
X412761Y569168D01*
X414168Y567761D01*
X416005Y567000D01*
X417995D01*
X419832Y567761D01*
X421239Y569168D01*
X422000Y571005D01*
Y572995D01*
X421239Y574832D01*
X419832Y576239D01*
X417995Y577000D01*
D02*
G37*
G36*
X359995D02*
X358005D01*
X356168Y576239D01*
X354761Y574832D01*
X354000Y572995D01*
Y571005D01*
X354761Y569168D01*
X356168Y567761D01*
X358005Y567000D01*
X359995D01*
X361832Y567761D01*
X363239Y569168D01*
X364000Y571005D01*
Y572995D01*
X363239Y574832D01*
X361832Y576239D01*
X359995Y577000D01*
D02*
G37*
G36*
X576796Y571000D02*
X575204D01*
X573734Y570391D01*
X572609Y569266D01*
X572000Y567796D01*
Y566204D01*
X572609Y564734D01*
X573734Y563609D01*
X575204Y563000D01*
X576796D01*
X578266Y563609D01*
X579391Y564734D01*
X580000Y566204D01*
Y567796D01*
X579391Y569266D01*
X578266Y570391D01*
X576796Y571000D01*
D02*
G37*
G36*
X551000Y588117D02*
X548659Y587652D01*
X546674Y586326D01*
X545348Y584341D01*
X544883Y582000D01*
Y573534D01*
X492174Y520826D01*
X490848Y518841D01*
X490382Y516500D01*
Y434534D01*
X479966Y424118D01*
X471500D01*
X469159Y423652D01*
X467174Y422326D01*
X465174Y420326D01*
X463848Y418341D01*
X463382Y416000D01*
X463848Y413659D01*
X464363Y412888D01*
X464367Y412373D01*
X463843Y411380D01*
X463609Y411331D01*
X461995Y412000D01*
X460005D01*
X458168Y411239D01*
X456761Y409832D01*
X456000Y407995D01*
Y406006D01*
X456761Y404168D01*
X458168Y402761D01*
X460005Y402000D01*
X461995D01*
X463832Y402761D01*
X464502Y403432D01*
X474303D01*
X475151Y402161D01*
X475000Y401796D01*
Y400204D01*
X475609Y398734D01*
X476734Y397609D01*
X478204Y397000D01*
X479796D01*
X481266Y397609D01*
X482391Y398734D01*
X483000Y400204D01*
Y401796D01*
X482849Y402161D01*
X483697Y403432D01*
X505000D01*
X506366Y403703D01*
X507523Y404477D01*
X515047Y412000D01*
X515994D01*
X517832Y412761D01*
X519239Y414168D01*
X520000Y416005D01*
Y417995D01*
X519239Y419832D01*
X517832Y421239D01*
X515994Y422000D01*
X514005D01*
X513500Y422338D01*
Y422696D01*
X512967Y423983D01*
X511983Y424967D01*
X510696Y425500D01*
X509304D01*
X508017Y424967D01*
X507033Y423983D01*
X506500Y422696D01*
Y421304D01*
X507033Y420017D01*
X508017Y419033D01*
X509304Y418500D01*
X509662D01*
X510000Y417994D01*
Y417047D01*
X503522Y410569D01*
X475831D01*
X475237Y411839D01*
X475273Y411883D01*
X482500D01*
X484841Y412348D01*
X486826Y413674D01*
X500826Y427674D01*
X502152Y429659D01*
X502617Y432000D01*
Y513966D01*
X504327Y515675D01*
X504815Y515517D01*
X505500Y515052D01*
Y513704D01*
X506109Y512234D01*
X507234Y511109D01*
X508704Y510500D01*
X510296D01*
X511766Y511109D01*
X512891Y512234D01*
X513500Y513704D01*
Y515296D01*
X512891Y516766D01*
X511766Y517891D01*
X510296Y518500D01*
X508947D01*
X508483Y519185D01*
X508325Y519673D01*
X525730Y537079D01*
X527000Y536552D01*
Y536204D01*
X527609Y534734D01*
X528734Y533609D01*
X530204Y533000D01*
X531796D01*
X533266Y533609D01*
X534391Y534734D01*
X535000Y536204D01*
Y537796D01*
X534391Y539266D01*
X533266Y540391D01*
X531796Y541000D01*
X531448D01*
X530922Y542270D01*
X555230Y566578D01*
X555662Y566532D01*
X556515Y566168D01*
X557109Y564734D01*
X558234Y563609D01*
X559704Y563000D01*
X561296D01*
X562766Y563609D01*
X563891Y564734D01*
X564500Y566204D01*
Y567796D01*
X563891Y569266D01*
X562766Y570391D01*
X561296Y571000D01*
X559704D01*
X558296Y570417D01*
X557825Y570614D01*
X557319Y570890D01*
X557118Y571071D01*
Y582000D01*
X556652Y584341D01*
X555326Y586326D01*
X553341Y587652D01*
X551000Y588117D01*
D02*
G37*
G36*
X498296Y569000D02*
X496704D01*
X495234Y568391D01*
X494109Y567266D01*
X493500Y565796D01*
Y564204D01*
X494109Y562734D01*
X495234Y561609D01*
X496704Y561000D01*
X498296D01*
X499766Y561609D01*
X500891Y562734D01*
X501500Y564204D01*
Y565796D01*
X500891Y567266D01*
X499766Y568391D01*
X498296Y569000D01*
D02*
G37*
G36*
X505796Y561500D02*
X504204D01*
X502734Y560891D01*
X501609Y559766D01*
X501000Y558296D01*
Y556704D01*
X501609Y555234D01*
X502734Y554109D01*
X504204Y553500D01*
X505796D01*
X507266Y554109D01*
X508391Y555234D01*
X509000Y556704D01*
Y558296D01*
X508391Y559766D01*
X507266Y560891D01*
X505796Y561500D01*
D02*
G37*
G36*
X433587Y561265D02*
X431995D01*
X430525Y560656D01*
X429400Y559531D01*
X428791Y558061D01*
Y556470D01*
X429400Y555000D01*
X430525Y553874D01*
X431995Y553265D01*
X433587D01*
X435057Y553874D01*
X436182Y555000D01*
X436791Y556470D01*
Y558061D01*
X436182Y559531D01*
X435057Y560656D01*
X433587Y561265D01*
D02*
G37*
G36*
X713296Y556500D02*
X711704D01*
X710234Y555891D01*
X709109Y554766D01*
X708500Y553296D01*
Y551704D01*
X709109Y550234D01*
X710234Y549109D01*
X711704Y548500D01*
X713296D01*
X714766Y549109D01*
X715891Y550234D01*
X716500Y551704D01*
Y553296D01*
X715891Y554766D01*
X714766Y555891D01*
X713296Y556500D01*
D02*
G37*
G36*
X408696Y555500D02*
X407304D01*
X406017Y554967D01*
X405033Y553983D01*
X404500Y552696D01*
Y551304D01*
X405033Y550017D01*
X406017Y549033D01*
X407304Y548500D01*
X408696D01*
X409983Y549033D01*
X410967Y550017D01*
X411500Y551304D01*
Y552696D01*
X410967Y553983D01*
X409983Y554967D01*
X408696Y555500D01*
D02*
G37*
G36*
X417796Y555000D02*
X416204D01*
X414734Y554391D01*
X413609Y553266D01*
X413000Y551796D01*
Y550204D01*
X413609Y548734D01*
X414734Y547609D01*
X416204Y547000D01*
X417796D01*
X419266Y547609D01*
X420391Y548734D01*
X421000Y550204D01*
Y551796D01*
X420391Y553266D01*
X419266Y554391D01*
X417796Y555000D01*
D02*
G37*
G36*
X451796Y552000D02*
X450204D01*
X448734Y551391D01*
X447609Y550266D01*
X447000Y548796D01*
Y547204D01*
X447609Y545734D01*
X448734Y544609D01*
X450204Y544000D01*
X451796D01*
X453266Y544609D01*
X454391Y545734D01*
X455000Y547204D01*
Y548796D01*
X454391Y550266D01*
X453266Y551391D01*
X451796Y552000D01*
D02*
G37*
G36*
X603796Y546000D02*
X602204D01*
X600734Y545391D01*
X599609Y544266D01*
X599000Y542796D01*
Y541204D01*
X599609Y539734D01*
X600734Y538609D01*
X602204Y538000D01*
X603796D01*
X605266Y538609D01*
X606391Y539734D01*
X607000Y541204D01*
Y542796D01*
X606391Y544266D01*
X605266Y545391D01*
X603796Y546000D01*
D02*
G37*
G36*
X588796D02*
X587204D01*
X585734Y545391D01*
X584609Y544266D01*
X584000Y542796D01*
Y541204D01*
X584609Y539734D01*
X585734Y538609D01*
X587204Y538000D01*
X588796D01*
X590266Y538609D01*
X591391Y539734D01*
X592000Y541204D01*
Y542796D01*
X591391Y544266D01*
X590266Y545391D01*
X588796Y546000D01*
D02*
G37*
G36*
X576296Y545500D02*
X574704D01*
X573234Y544891D01*
X572109Y543766D01*
X571500Y542296D01*
Y540704D01*
X572109Y539234D01*
X573234Y538109D01*
X574704Y537500D01*
X576296D01*
X577766Y538109D01*
X578891Y539234D01*
X579500Y540704D01*
Y542296D01*
X578891Y543766D01*
X577766Y544891D01*
X576296Y545500D01*
D02*
G37*
G36*
X565285D02*
X563694D01*
X562224Y544891D01*
X561099Y543766D01*
X560490Y542296D01*
Y540704D01*
X561099Y539234D01*
X562224Y538109D01*
X563694Y537500D01*
X565285D01*
X566755Y538109D01*
X567881Y539234D01*
X568489Y540704D01*
Y542296D01*
X567881Y543766D01*
X566755Y544891D01*
X565285Y545500D01*
D02*
G37*
G36*
X492696Y544500D02*
X491304D01*
X490017Y543967D01*
X489033Y542983D01*
X488500Y541696D01*
Y540304D01*
X489033Y539017D01*
X490017Y538033D01*
X491304Y537500D01*
X492696D01*
X493983Y538033D01*
X494967Y539017D01*
X495500Y540304D01*
Y541696D01*
X494967Y542983D01*
X493983Y543967D01*
X492696Y544500D01*
D02*
G37*
G36*
X677796Y545000D02*
X676204D01*
X674734Y544391D01*
X673609Y543266D01*
X673000Y541796D01*
Y540204D01*
X673609Y538734D01*
X674734Y537609D01*
X676204Y537000D01*
X677796D01*
X679266Y537609D01*
X680391Y538734D01*
X681000Y540204D01*
Y541796D01*
X680391Y543266D01*
X679266Y544391D01*
X677796Y545000D01*
D02*
G37*
G36*
X630796Y544000D02*
X629204D01*
X627734Y543391D01*
X626609Y542266D01*
X626000Y540796D01*
Y539204D01*
X626609Y537734D01*
X627734Y536609D01*
X629204Y536000D01*
X630796D01*
X632266Y536609D01*
X633391Y537734D01*
X634000Y539204D01*
Y540796D01*
X633391Y542266D01*
X632266Y543391D01*
X630796Y544000D01*
D02*
G37*
G36*
X358995Y544000D02*
X357005D01*
X355168Y543239D01*
X353761Y541832D01*
X353000Y539995D01*
Y538005D01*
X353761Y536168D01*
X355168Y534761D01*
X357005Y534000D01*
X358995D01*
X360832Y534761D01*
X362239Y536168D01*
X363000Y538005D01*
Y539995D01*
X362239Y541832D01*
X360832Y543239D01*
X358995Y544000D01*
D02*
G37*
G36*
X280696Y540500D02*
X279304D01*
X278017Y539967D01*
X277033Y538983D01*
X276500Y537696D01*
Y536304D01*
X277033Y535017D01*
X278017Y534033D01*
X279304Y533500D01*
X280696D01*
X281983Y534033D01*
X282967Y535017D01*
X283500Y536304D01*
Y537696D01*
X282967Y538983D01*
X281983Y539967D01*
X280696Y540500D01*
D02*
G37*
G36*
X411696Y543500D02*
X410304D01*
X409017Y542967D01*
X408033Y541983D01*
X407500Y540696D01*
Y539304D01*
X408033Y538017D01*
X408280Y537770D01*
X407754Y536500D01*
X407304D01*
X406017Y535967D01*
X405033Y534983D01*
X404500Y533696D01*
Y532304D01*
X405033Y531017D01*
X406017Y530033D01*
X407304Y529500D01*
X408696D01*
X409983Y530033D01*
X410967Y531017D01*
X411500Y532304D01*
Y533696D01*
X410967Y534983D01*
X410720Y535230D01*
X411246Y536500D01*
X411696D01*
X412983Y537033D01*
X413967Y538017D01*
X414500Y539304D01*
Y540696D01*
X413967Y541983D01*
X412983Y542967D01*
X411696Y543500D01*
D02*
G37*
G36*
X565696Y534500D02*
X564304D01*
X563017Y533967D01*
X562033Y532983D01*
X561500Y531696D01*
Y530304D01*
X562033Y529017D01*
X563017Y528033D01*
X564304Y527500D01*
X565696D01*
X566983Y528033D01*
X567967Y529017D01*
X568500Y530304D01*
Y531696D01*
X567967Y532983D01*
X566983Y533967D01*
X565696Y534500D01*
D02*
G37*
G36*
X358696Y530500D02*
X357304D01*
X356017Y529967D01*
X355033Y528983D01*
X354500Y527696D01*
Y526304D01*
X355033Y525017D01*
X356017Y524033D01*
X357304Y523500D01*
X358696D01*
X359983Y524033D01*
X360967Y525017D01*
X361500Y526304D01*
Y527696D01*
X360967Y528983D01*
X359983Y529967D01*
X358696Y530500D01*
D02*
G37*
G36*
X556696Y528500D02*
X555304D01*
X554017Y527967D01*
X553033Y526983D01*
X552500Y525696D01*
Y524304D01*
X553033Y523017D01*
X554017Y522033D01*
X555304Y521500D01*
X556696D01*
X557983Y522033D01*
X558967Y523017D01*
X559500Y524304D01*
Y525696D01*
X558967Y526983D01*
X557983Y527967D01*
X556696Y528500D01*
D02*
G37*
G36*
X398696D02*
X397304D01*
X396017Y527967D01*
X395033Y526983D01*
X394500Y525696D01*
Y524304D01*
X395033Y523017D01*
X396017Y522033D01*
X397304Y521500D01*
X398696D01*
X399983Y522033D01*
X400967Y523017D01*
X401500Y524304D01*
Y525696D01*
X400967Y526983D01*
X399983Y527967D01*
X398696Y528500D01*
D02*
G37*
G36*
X331796Y529000D02*
X330204D01*
X328734Y528391D01*
X327609Y527266D01*
X327000Y525796D01*
Y524204D01*
X327609Y522734D01*
X328734Y521609D01*
X330204Y521000D01*
X331796D01*
X333266Y521609D01*
X334391Y522734D01*
X335000Y524204D01*
Y525796D01*
X334391Y527266D01*
X333266Y528391D01*
X331796Y529000D01*
D02*
G37*
G36*
X681696Y532500D02*
X680304D01*
X679017Y531967D01*
X678033Y530983D01*
X677500Y529696D01*
Y528304D01*
X678033Y527017D01*
X679017Y526033D01*
X680304Y525500D01*
X681458D01*
X682046Y525046D01*
X682500Y524458D01*
Y523304D01*
X683033Y522017D01*
X684017Y521033D01*
X685304Y520500D01*
X686696D01*
X687983Y521033D01*
X688967Y522017D01*
X689500Y523304D01*
Y524696D01*
X688967Y525983D01*
X687983Y526967D01*
X686696Y527500D01*
X685542D01*
X684954Y527954D01*
X684500Y528542D01*
Y529696D01*
X683967Y530983D01*
X682983Y531967D01*
X681696Y532500D01*
D02*
G37*
G36*
X451796Y528000D02*
X450204D01*
X448734Y527391D01*
X447609Y526266D01*
X447000Y524796D01*
Y523204D01*
X447609Y521734D01*
X448734Y520609D01*
X450204Y520000D01*
X451796D01*
X453266Y520609D01*
X454391Y521734D01*
X455000Y523204D01*
Y524796D01*
X454391Y526266D01*
X453266Y527391D01*
X451796Y528000D01*
D02*
G37*
G36*
X651796Y527000D02*
X650204D01*
X648734Y526391D01*
X647609Y525266D01*
X647000Y523796D01*
Y522204D01*
X647609Y520734D01*
X648734Y519609D01*
X650204Y519000D01*
X651796D01*
X653266Y519609D01*
X654391Y520734D01*
X655000Y522204D01*
Y523796D01*
X654391Y525266D01*
X653266Y526391D01*
X651796Y527000D01*
D02*
G37*
G36*
X545696Y523500D02*
X544304D01*
X543017Y522967D01*
X542033Y521983D01*
X541500Y520696D01*
Y519304D01*
X542033Y518017D01*
X543017Y517033D01*
X544304Y516500D01*
X545696D01*
X546983Y517033D01*
X547967Y518017D01*
X548500Y519304D01*
Y520696D01*
X547967Y521983D01*
X546983Y522967D01*
X545696Y523500D01*
D02*
G37*
G36*
X436696Y515500D02*
X435304D01*
X434017Y514967D01*
X433251Y514201D01*
X432500Y514073D01*
X431749Y514201D01*
X430983Y514967D01*
X429696Y515500D01*
X428304D01*
X427017Y514967D01*
X426033Y513983D01*
X425500Y512696D01*
Y511304D01*
X426033Y510017D01*
X427017Y509033D01*
X428304Y508500D01*
X429696D01*
X430983Y509033D01*
X431749Y509799D01*
X432500Y509927D01*
X433251Y509799D01*
X434017Y509033D01*
X435304Y508500D01*
X436696D01*
X437983Y509033D01*
X438967Y510017D01*
X439500Y511304D01*
Y512696D01*
X438967Y513983D01*
X437983Y514967D01*
X436696Y515500D01*
D02*
G37*
G36*
X317796Y522000D02*
X316204D01*
X314734Y521391D01*
X313609Y520266D01*
X313000Y518796D01*
Y517204D01*
X313609Y515734D01*
X314734Y514609D01*
X316204Y514000D01*
X317796D01*
X319266Y514609D01*
X320391Y515734D01*
X321000Y517204D01*
Y518796D01*
X320391Y520266D01*
X319266Y521391D01*
X317796Y522000D01*
D02*
G37*
G36*
X537696Y519500D02*
X536304D01*
X535017Y518967D01*
X534033Y517983D01*
X533500Y516696D01*
Y515304D01*
X534033Y514017D01*
X535017Y513033D01*
X536304Y512500D01*
X537696D01*
X538983Y513033D01*
X539967Y514017D01*
X540500Y515304D01*
Y516696D01*
X539967Y517983D01*
X538983Y518967D01*
X537696Y519500D01*
D02*
G37*
G36*
X481296Y519000D02*
X479704D01*
X478234Y518391D01*
X477109Y517266D01*
X476500Y515796D01*
Y514204D01*
X477109Y512734D01*
X478234Y511609D01*
X479704Y511000D01*
X481296D01*
X482766Y511609D01*
X483891Y512734D01*
X484500Y514204D01*
Y515796D01*
X483891Y517266D01*
X482766Y518391D01*
X481296Y519000D01*
D02*
G37*
G36*
X730796Y518000D02*
X729204D01*
X727734Y517391D01*
X726609Y516266D01*
X726000Y514796D01*
Y513204D01*
X726609Y511734D01*
X727734Y510609D01*
X729204Y510000D01*
X730796D01*
X732266Y510609D01*
X733391Y511734D01*
X734000Y513204D01*
Y514796D01*
X733391Y516266D01*
X732266Y517391D01*
X730796Y518000D01*
D02*
G37*
G36*
X665796Y512000D02*
X664204D01*
X662734Y511391D01*
X661609Y510266D01*
X661000Y508796D01*
Y507204D01*
X661609Y505734D01*
X662734Y504609D01*
X664204Y504000D01*
X665796D01*
X667266Y504609D01*
X668391Y505734D01*
X669000Y507204D01*
Y508796D01*
X668391Y510266D01*
X667266Y511391D01*
X665796Y512000D01*
D02*
G37*
G36*
X684796Y510000D02*
X683204D01*
X681734Y509391D01*
X680609Y508266D01*
X680000Y506796D01*
Y505204D01*
X680609Y503734D01*
X681734Y502609D01*
X683204Y502000D01*
X684796D01*
X686266Y502609D01*
X687391Y503734D01*
X688000Y505204D01*
Y506796D01*
X687391Y508266D01*
X686266Y509391D01*
X684796Y510000D01*
D02*
G37*
G36*
X357696Y508500D02*
X356304D01*
X355017Y507967D01*
X354033Y506983D01*
X353500Y505696D01*
Y504304D01*
X354033Y503017D01*
X355017Y502033D01*
X356304Y501500D01*
X357696D01*
X358983Y502033D01*
X359967Y503017D01*
X360500Y504304D01*
Y505696D01*
X359967Y506983D01*
X358983Y507967D01*
X357696Y508500D01*
D02*
G37*
G36*
X343696Y507500D02*
X342304D01*
X341017Y506967D01*
X340033Y505983D01*
X339500Y504696D01*
Y503304D01*
X340033Y502017D01*
X341017Y501033D01*
X342304Y500500D01*
X343696D01*
X344983Y501033D01*
X345967Y502017D01*
X346500Y503304D01*
Y504696D01*
X345967Y505983D01*
X344983Y506967D01*
X343696Y507500D01*
D02*
G37*
G36*
X531196Y503000D02*
X529804D01*
X528517Y502467D01*
X527533Y501483D01*
X527000Y500196D01*
Y498804D01*
X527533Y497517D01*
X528517Y496533D01*
X529804Y496000D01*
X531196D01*
X532483Y496533D01*
X533467Y497517D01*
X534000Y498804D01*
Y500196D01*
X533467Y501483D01*
X532483Y502467D01*
X531196Y503000D01*
D02*
G37*
G36*
X278696Y502500D02*
X277304D01*
X276017Y501967D01*
X275033Y500983D01*
X274500Y499696D01*
Y498304D01*
X275033Y497017D01*
X276017Y496033D01*
X277304Y495500D01*
X278696D01*
X279983Y496033D01*
X280967Y497017D01*
X281500Y498304D01*
Y499696D01*
X280967Y500983D01*
X279983Y501967D01*
X278696Y502500D01*
D02*
G37*
G36*
X405796Y498000D02*
X404204D01*
X402734Y497391D01*
X401609Y496266D01*
X401000Y494796D01*
Y493204D01*
X401609Y491734D01*
X402734Y490609D01*
X404204Y490000D01*
X405796D01*
X407266Y490609D01*
X408391Y491734D01*
X409000Y493204D01*
Y494796D01*
X408391Y496266D01*
X407266Y497391D01*
X405796Y498000D01*
D02*
G37*
G36*
X535196Y495500D02*
X533804D01*
X532517Y494967D01*
X531533Y493983D01*
X531000Y492696D01*
Y491304D01*
X531533Y490017D01*
X532517Y489033D01*
X533804Y488500D01*
X535196D01*
X536483Y489033D01*
X537467Y490017D01*
X538000Y491304D01*
Y492696D01*
X537467Y493983D01*
X536483Y494967D01*
X535196Y495500D01*
D02*
G37*
G36*
X440196Y493500D02*
X438804D01*
X437517Y492967D01*
X436533Y491983D01*
X436000Y490696D01*
Y489304D01*
X436533Y488017D01*
X437517Y487033D01*
X438804Y486500D01*
X440196D01*
X441483Y487033D01*
X442467Y488017D01*
X443000Y489304D01*
Y490696D01*
X442467Y491983D01*
X441483Y492967D01*
X440196Y493500D01*
D02*
G37*
G36*
X657696Y498500D02*
X656304D01*
X655017Y497967D01*
X654033Y496983D01*
X653500Y495696D01*
Y494304D01*
X654033Y493017D01*
X654506Y492544D01*
X654271Y491072D01*
X654017Y490967D01*
X653033Y489983D01*
X652500Y488696D01*
Y487304D01*
X653033Y486017D01*
X654017Y485033D01*
X655304Y484500D01*
X656696D01*
X657983Y485033D01*
X658967Y486017D01*
X659500Y487304D01*
Y488696D01*
X658967Y489983D01*
X658494Y490456D01*
X658729Y491928D01*
X658983Y492033D01*
X659967Y493017D01*
X660500Y494304D01*
Y495696D01*
X659967Y496983D01*
X658983Y497967D01*
X657696Y498500D01*
D02*
G37*
G36*
X626296Y491000D02*
X624704D01*
X623234Y490391D01*
X622109Y489266D01*
X621500Y487796D01*
Y486204D01*
X622109Y484734D01*
X623234Y483609D01*
X624704Y483000D01*
X626296D01*
X627766Y483609D01*
X628891Y484734D01*
X629500Y486204D01*
Y487796D01*
X628891Y489266D01*
X627766Y490391D01*
X626296Y491000D01*
D02*
G37*
G36*
X606296D02*
X604704D01*
X603234Y490391D01*
X602109Y489266D01*
X601500Y487796D01*
Y486204D01*
X602109Y484734D01*
X603234Y483609D01*
X604704Y483000D01*
X606296D01*
X607766Y483609D01*
X608891Y484734D01*
X609500Y486204D01*
Y487796D01*
X608891Y489266D01*
X607766Y490391D01*
X606296Y491000D01*
D02*
G37*
G36*
X586296D02*
X584704D01*
X583234Y490391D01*
X582109Y489266D01*
X581500Y487796D01*
Y486204D01*
X582109Y484734D01*
X583234Y483609D01*
X584704Y483000D01*
X586296D01*
X587766Y483609D01*
X588891Y484734D01*
X589500Y486204D01*
Y487796D01*
X588891Y489266D01*
X587766Y490391D01*
X586296Y491000D01*
D02*
G37*
G36*
X566296D02*
X564704D01*
X563234Y490391D01*
X562109Y489266D01*
X561500Y487796D01*
Y486204D01*
X562109Y484734D01*
X563234Y483609D01*
X564704Y483000D01*
X566296D01*
X567766Y483609D01*
X568891Y484734D01*
X569500Y486204D01*
Y487796D01*
X568891Y489266D01*
X567766Y490391D01*
X566296Y491000D01*
D02*
G37*
G36*
X359995Y493000D02*
X358005D01*
X356168Y492239D01*
X354761Y490832D01*
X354000Y488995D01*
Y487005D01*
X354761Y485168D01*
X356168Y483761D01*
X358005Y483000D01*
X359995D01*
X361832Y483761D01*
X363239Y485168D01*
X364000Y487005D01*
Y488995D01*
X363239Y490832D01*
X361832Y492239D01*
X359995Y493000D01*
D02*
G37*
G36*
X447796Y489000D02*
X446204D01*
X444734Y488391D01*
X443609Y487266D01*
X443000Y485796D01*
Y484204D01*
X443609Y482734D01*
X444734Y481609D01*
X446204Y481000D01*
X447796D01*
X449266Y481609D01*
X450391Y482734D01*
X451000Y484204D01*
Y485796D01*
X450391Y487266D01*
X449266Y488391D01*
X447796Y489000D01*
D02*
G37*
G36*
X479296Y486000D02*
X477704D01*
X476234Y485391D01*
X475109Y484266D01*
X474500Y482796D01*
Y481204D01*
X475109Y479734D01*
X476234Y478609D01*
X477704Y478000D01*
X479296D01*
X480766Y478609D01*
X481891Y479734D01*
X482500Y481204D01*
Y482796D01*
X481891Y484266D01*
X480766Y485391D01*
X479296Y486000D01*
D02*
G37*
G36*
X433995Y487000D02*
X432005D01*
X430168Y486239D01*
X428761Y484832D01*
X428000Y482995D01*
Y481005D01*
X428761Y479168D01*
X430168Y477761D01*
X432005Y477000D01*
X433995D01*
X435832Y477761D01*
X437239Y479168D01*
X438000Y481005D01*
Y482995D01*
X437239Y484832D01*
X435832Y486239D01*
X433995Y487000D01*
D02*
G37*
G36*
X510296Y483500D02*
X508704D01*
X507234Y482891D01*
X506109Y481766D01*
X505500Y480296D01*
Y478704D01*
X506109Y477234D01*
X507234Y476109D01*
X508704Y475500D01*
X510296D01*
X511766Y476109D01*
X512891Y477234D01*
X513500Y478704D01*
Y480296D01*
X512891Y481766D01*
X511766Y482891D01*
X510296Y483500D01*
D02*
G37*
G36*
X690796Y483000D02*
X689204D01*
X687734Y482391D01*
X686609Y481266D01*
X686000Y479796D01*
Y478204D01*
X686609Y476734D01*
X687734Y475609D01*
X689204Y475000D01*
X690796D01*
X692266Y475609D01*
X693391Y476734D01*
X694000Y478204D01*
Y479796D01*
X693391Y481266D01*
X692266Y482391D01*
X690796Y483000D01*
D02*
G37*
G36*
X390696Y481500D02*
X389304D01*
X388017Y480967D01*
X387033Y479983D01*
X386500Y478696D01*
Y477304D01*
X387033Y476017D01*
X388017Y475033D01*
X389304Y474500D01*
X390696D01*
X391983Y475033D01*
X392967Y476017D01*
X393500Y477304D01*
Y478696D01*
X392967Y479983D01*
X391983Y480967D01*
X390696Y481500D01*
D02*
G37*
G36*
X850696Y481000D02*
X849304D01*
X848017Y480467D01*
X847033Y479483D01*
X846500Y478196D01*
Y476804D01*
X847033Y475517D01*
X848017Y474533D01*
X849304Y474000D01*
X850696D01*
X851983Y474533D01*
X852967Y475517D01*
X853500Y476804D01*
Y478196D01*
X852967Y479483D01*
X851983Y480467D01*
X850696Y481000D01*
D02*
G37*
G36*
X786796Y482000D02*
X785204D01*
X783734Y481391D01*
X782609Y480266D01*
X782000Y478796D01*
Y477204D01*
X782609Y475734D01*
X783734Y474609D01*
X785204Y474000D01*
X786796D01*
X788266Y474609D01*
X789391Y475734D01*
X790000Y477204D01*
Y478796D01*
X789391Y480266D01*
X788266Y481391D01*
X786796Y482000D01*
D02*
G37*
G36*
X770696Y480500D02*
X769304D01*
X768017Y479967D01*
X767033Y478983D01*
X766500Y477696D01*
Y476304D01*
X767033Y475017D01*
X768017Y474033D01*
X769304Y473500D01*
X770696D01*
X771983Y474033D01*
X772967Y475017D01*
X773500Y476304D01*
Y477696D01*
X772967Y478983D01*
X771983Y479967D01*
X770696Y480500D01*
D02*
G37*
G36*
X526296Y481000D02*
X524704D01*
X523234Y480391D01*
X522109Y479266D01*
X521500Y477796D01*
Y476204D01*
X522109Y474734D01*
X523234Y473609D01*
X524704Y473000D01*
X526296D01*
X527766Y473609D01*
X528891Y474734D01*
X529500Y476204D01*
Y477796D01*
X528891Y479266D01*
X527766Y480391D01*
X526296Y481000D01*
D02*
G37*
G36*
X625796Y474000D02*
X624204D01*
X622734Y473391D01*
X621609Y472266D01*
X621000Y470796D01*
Y469204D01*
X621609Y467734D01*
X622734Y466609D01*
X624204Y466000D01*
X625796D01*
X627266Y466609D01*
X628391Y467734D01*
X629000Y469204D01*
Y470796D01*
X628391Y472266D01*
X627266Y473391D01*
X625796Y474000D01*
D02*
G37*
G36*
X605796D02*
X604204D01*
X602734Y473391D01*
X601609Y472266D01*
X601000Y470796D01*
Y469204D01*
X601609Y467734D01*
X602734Y466609D01*
X604204Y466000D01*
X605796D01*
X607266Y466609D01*
X608391Y467734D01*
X609000Y469204D01*
Y470796D01*
X608391Y472266D01*
X607266Y473391D01*
X605796Y474000D01*
D02*
G37*
G36*
X585796D02*
X584204D01*
X582734Y473391D01*
X581609Y472266D01*
X581000Y470796D01*
Y469204D01*
X581609Y467734D01*
X582734Y466609D01*
X584204Y466000D01*
X585796D01*
X587266Y466609D01*
X588391Y467734D01*
X589000Y469204D01*
Y470796D01*
X588391Y472266D01*
X587266Y473391D01*
X585796Y474000D01*
D02*
G37*
G36*
X646296Y471000D02*
X644704D01*
X643234Y470391D01*
X642109Y469266D01*
X641500Y467796D01*
Y466204D01*
X642109Y464734D01*
X643234Y463609D01*
X644704Y463000D01*
X646296D01*
X647766Y463609D01*
X648891Y464734D01*
X649500Y466204D01*
Y467796D01*
X648891Y469266D01*
X647766Y470391D01*
X646296Y471000D01*
D02*
G37*
G36*
X566296D02*
X564704D01*
X563234Y470391D01*
X562109Y469266D01*
X561500Y467796D01*
Y466204D01*
X562109Y464734D01*
X563234Y463609D01*
X564704Y463000D01*
X566296D01*
X567766Y463609D01*
X568891Y464734D01*
X569500Y466204D01*
Y467796D01*
X568891Y469266D01*
X567766Y470391D01*
X566296Y471000D01*
D02*
G37*
G36*
X546296D02*
X544704D01*
X543234Y470391D01*
X542109Y469266D01*
X541500Y467796D01*
Y466204D01*
X542109Y464734D01*
X543234Y463609D01*
X544704Y463000D01*
X546296D01*
X547766Y463609D01*
X548891Y464734D01*
X549500Y466204D01*
Y467796D01*
X548891Y469266D01*
X547766Y470391D01*
X546296Y471000D01*
D02*
G37*
G36*
X395696Y469500D02*
X394304D01*
X393017Y468967D01*
X392033Y467983D01*
X391500Y466696D01*
Y465304D01*
X392033Y464017D01*
X393017Y463033D01*
X394304Y462500D01*
X395696D01*
X396983Y463033D01*
X397967Y464017D01*
X398500Y465304D01*
Y466696D01*
X397967Y467983D01*
X396983Y468967D01*
X395696Y469500D01*
D02*
G37*
G36*
X850796Y469000D02*
X849204D01*
X847734Y468391D01*
X846609Y467266D01*
X846000Y465796D01*
Y464204D01*
X846609Y462734D01*
X847734Y461609D01*
X849204Y461000D01*
X850796D01*
X852266Y461609D01*
X853391Y462734D01*
X854000Y464204D01*
Y465796D01*
X853391Y467266D01*
X852266Y468391D01*
X850796Y469000D01*
D02*
G37*
G36*
X683696Y472500D02*
X682304D01*
X681017Y471967D01*
X680033Y470983D01*
X679500Y469696D01*
Y468304D01*
X680033Y467017D01*
X681017Y466033D01*
X681885Y465673D01*
Y464327D01*
X681017Y463967D01*
X680033Y462983D01*
X679500Y461696D01*
Y460304D01*
X680033Y459017D01*
X681017Y458033D01*
X682304Y457500D01*
X683696D01*
X684983Y458033D01*
X685967Y459017D01*
X686500Y460304D01*
Y461696D01*
X685967Y462983D01*
X684983Y463967D01*
X684115Y464327D01*
Y465673D01*
X684983Y466033D01*
X685967Y467017D01*
X686500Y468304D01*
Y469696D01*
X685967Y470983D01*
X684983Y471967D01*
X683696Y472500D01*
D02*
G37*
G36*
X510296Y463500D02*
X508704D01*
X507234Y462891D01*
X506109Y461766D01*
X505500Y460296D01*
Y458704D01*
X506109Y457234D01*
X507234Y456109D01*
X508704Y455500D01*
X510296D01*
X511766Y456109D01*
X512891Y457234D01*
X513500Y458704D01*
Y460296D01*
X512891Y461766D01*
X511766Y462891D01*
X510296Y463500D01*
D02*
G37*
G36*
X411696Y462500D02*
X410304D01*
X409017Y461967D01*
X408033Y460983D01*
X407500Y459696D01*
Y458304D01*
X408033Y457017D01*
X409017Y456033D01*
X410304Y455500D01*
X411696D01*
X412983Y456033D01*
X413967Y457017D01*
X414500Y458304D01*
Y459696D01*
X413967Y460983D01*
X412983Y461967D01*
X411696Y462500D01*
D02*
G37*
G36*
X443696Y461500D02*
X442304D01*
X441017Y460967D01*
X440033Y459983D01*
X439500Y458696D01*
Y457304D01*
X440033Y456017D01*
X441017Y455033D01*
X442304Y454500D01*
X443696D01*
X444983Y455033D01*
X445967Y456017D01*
X446500Y457304D01*
Y458696D01*
X445967Y459983D01*
X444983Y460967D01*
X443696Y461500D01*
D02*
G37*
G36*
X726053Y460757D02*
X724462D01*
X722991Y460148D01*
X721866Y459023D01*
X721257Y457553D01*
Y455962D01*
X721866Y454492D01*
X722991Y453366D01*
X724462Y452757D01*
X726053D01*
X727523Y453366D01*
X728648Y454492D01*
X729257Y455962D01*
Y457553D01*
X728648Y459023D01*
X727523Y460148D01*
X726053Y460757D01*
D02*
G37*
G36*
X427995Y462000D02*
X426005D01*
X424168Y461239D01*
X422761Y459832D01*
X422000Y457995D01*
Y456005D01*
X422761Y454168D01*
X424168Y452761D01*
X426005Y452000D01*
X427995D01*
X429832Y452761D01*
X431239Y454168D01*
X432000Y456005D01*
Y457995D01*
X431239Y459832D01*
X429832Y461239D01*
X427995Y462000D01*
D02*
G37*
G36*
X872796Y459000D02*
X871204D01*
X869734Y458391D01*
X868609Y457266D01*
X868000Y455796D01*
Y454204D01*
X868609Y452734D01*
X869734Y451609D01*
X871204Y451000D01*
X872796D01*
X874266Y451609D01*
X875391Y452734D01*
X876000Y454204D01*
Y455796D01*
X875391Y457266D01*
X874266Y458391D01*
X872796Y459000D01*
D02*
G37*
G36*
X669796Y456000D02*
X668204D01*
X666734Y455391D01*
X665609Y454266D01*
X665000Y452796D01*
Y451204D01*
X665609Y449734D01*
X666734Y448609D01*
X668204Y448000D01*
X669796D01*
X671266Y448609D01*
X672391Y449734D01*
X673000Y451204D01*
Y452796D01*
X672391Y454266D01*
X671266Y455391D01*
X669796Y456000D01*
D02*
G37*
G36*
X625796Y454000D02*
X624204D01*
X622734Y453391D01*
X621609Y452266D01*
X621000Y450796D01*
Y449204D01*
X621609Y447734D01*
X622734Y446609D01*
X624204Y446000D01*
X625796D01*
X627266Y446609D01*
X628391Y447734D01*
X629000Y449204D01*
Y450796D01*
X628391Y452266D01*
X627266Y453391D01*
X625796Y454000D01*
D02*
G37*
G36*
X605796D02*
X604204D01*
X602734Y453391D01*
X601609Y452266D01*
X601000Y450796D01*
Y449204D01*
X601609Y447734D01*
X602734Y446609D01*
X604204Y446000D01*
X605796D01*
X607266Y446609D01*
X608391Y447734D01*
X609000Y449204D01*
Y450796D01*
X608391Y452266D01*
X607266Y453391D01*
X605796Y454000D01*
D02*
G37*
G36*
X585796D02*
X584204D01*
X582734Y453391D01*
X581609Y452266D01*
X581000Y450796D01*
Y449204D01*
X581609Y447734D01*
X582734Y446609D01*
X584204Y446000D01*
X585796D01*
X587266Y446609D01*
X588391Y447734D01*
X589000Y449204D01*
Y450796D01*
X588391Y452266D01*
X587266Y453391D01*
X585796Y454000D01*
D02*
G37*
G36*
X483796Y452000D02*
X482204D01*
X480734Y451391D01*
X479609Y450266D01*
X479000Y448796D01*
Y447204D01*
X479609Y445734D01*
X480734Y444609D01*
X482204Y444000D01*
X483796D01*
X485266Y444609D01*
X486391Y445734D01*
X487000Y447204D01*
Y448796D01*
X486391Y450266D01*
X485266Y451391D01*
X483796Y452000D01*
D02*
G37*
G36*
X449296D02*
X447704D01*
X446234Y451391D01*
X445109Y450266D01*
X444500Y448796D01*
Y447204D01*
X445109Y445734D01*
X446234Y444609D01*
X447704Y444000D01*
X449296D01*
X450766Y444609D01*
X451891Y445734D01*
X452500Y447204D01*
Y448796D01*
X451891Y450266D01*
X450766Y451391D01*
X449296Y452000D01*
D02*
G37*
G36*
X646296Y451000D02*
X644704D01*
X643234Y450391D01*
X642109Y449266D01*
X641500Y447796D01*
Y446204D01*
X642109Y444734D01*
X643234Y443609D01*
X644704Y443000D01*
X646296D01*
X647766Y443609D01*
X648891Y444734D01*
X649500Y446204D01*
Y447796D01*
X648891Y449266D01*
X647766Y450391D01*
X646296Y451000D01*
D02*
G37*
G36*
X566296D02*
X564704D01*
X563234Y450391D01*
X562109Y449266D01*
X561500Y447796D01*
Y446204D01*
X562109Y444734D01*
X563234Y443609D01*
X564704Y443000D01*
X566296D01*
X567766Y443609D01*
X568891Y444734D01*
X569500Y446204D01*
Y447796D01*
X568891Y449266D01*
X567766Y450391D01*
X566296Y451000D01*
D02*
G37*
G36*
X526296D02*
X524704D01*
X523234Y450391D01*
X522109Y449266D01*
X521500Y447796D01*
Y446204D01*
X522109Y444734D01*
X523234Y443609D01*
X524704Y443000D01*
X526296D01*
X527766Y443609D01*
X528891Y444734D01*
X529500Y446204D01*
Y447796D01*
X528891Y449266D01*
X527766Y450391D01*
X526296Y451000D01*
D02*
G37*
G36*
X391696Y449500D02*
X390304D01*
X389017Y448967D01*
X388033Y447983D01*
X387500Y446696D01*
Y445304D01*
X388033Y444017D01*
X389017Y443033D01*
X390304Y442500D01*
X391696D01*
X392983Y443033D01*
X393967Y444017D01*
X394500Y445304D01*
Y446696D01*
X393967Y447983D01*
X392983Y448967D01*
X391696Y449500D01*
D02*
G37*
G36*
X855796Y449000D02*
X854204D01*
X852734Y448391D01*
X851609Y447266D01*
X851000Y445796D01*
Y444204D01*
X851609Y442734D01*
X852734Y441609D01*
X854204Y441000D01*
X855796D01*
X857266Y441609D01*
X858391Y442734D01*
X859000Y444204D01*
Y445796D01*
X858391Y447266D01*
X857266Y448391D01*
X855796Y449000D01*
D02*
G37*
G36*
X790796D02*
X789204D01*
X787734Y448391D01*
X786609Y447266D01*
X786000Y445796D01*
Y444204D01*
X786609Y442734D01*
X787734Y441609D01*
X789204Y441000D01*
X790796D01*
X792266Y441609D01*
X793391Y442734D01*
X794000Y444204D01*
Y445796D01*
X793391Y447266D01*
X792266Y448391D01*
X790796Y449000D01*
D02*
G37*
G36*
X510296Y448500D02*
X508704D01*
X507234Y447891D01*
X506109Y446766D01*
X505500Y445296D01*
Y443704D01*
X506109Y442234D01*
X507234Y441109D01*
X508704Y440500D01*
X510296D01*
X511766Y441109D01*
X512891Y442234D01*
X513500Y443704D01*
Y445296D01*
X512891Y446766D01*
X511766Y447891D01*
X510296Y448500D01*
D02*
G37*
G36*
X663196Y446500D02*
X661804D01*
X660517Y445967D01*
X659533Y444983D01*
X659000Y443696D01*
Y442304D01*
X659533Y441017D01*
X660517Y440033D01*
X661804Y439500D01*
X663196D01*
X664483Y440033D01*
X665467Y441017D01*
X666000Y442304D01*
Y443696D01*
X665467Y444983D01*
X664483Y445967D01*
X663196Y446500D01*
D02*
G37*
G36*
X546296Y441000D02*
X544704D01*
X543234Y440391D01*
X542109Y439266D01*
X541500Y437796D01*
Y436204D01*
X542109Y434734D01*
X543234Y433609D01*
X544704Y433000D01*
X546296D01*
X547766Y433609D01*
X548891Y434734D01*
X549500Y436204D01*
Y437796D01*
X548891Y439266D01*
X547766Y440391D01*
X546296Y441000D01*
D02*
G37*
G36*
X278696Y439500D02*
X277304D01*
X276017Y438967D01*
X275033Y437983D01*
X274500Y436696D01*
Y435304D01*
X275033Y434017D01*
X276017Y433033D01*
X277304Y432500D01*
X278696D01*
X279983Y433033D01*
X280967Y434017D01*
X281500Y435304D01*
Y436696D01*
X280967Y437983D01*
X279983Y438967D01*
X278696Y439500D01*
D02*
G37*
G36*
X481296Y439000D02*
X479704D01*
X478234Y438391D01*
X477109Y437266D01*
X476500Y435796D01*
Y434204D01*
X477109Y432734D01*
X478234Y431609D01*
X479704Y431000D01*
X481296D01*
X482766Y431609D01*
X483891Y432734D01*
X484500Y434204D01*
Y435796D01*
X483891Y437266D01*
X482766Y438391D01*
X481296Y439000D01*
D02*
G37*
G36*
X811696Y437500D02*
X810304D01*
X809017Y436967D01*
X808033Y435983D01*
X807500Y434696D01*
Y433304D01*
X808033Y432017D01*
X809017Y431033D01*
X810304Y430500D01*
X811696D01*
X812983Y431033D01*
X813967Y432017D01*
X814500Y433304D01*
Y434696D01*
X813967Y435983D01*
X812983Y436967D01*
X811696Y437500D01*
D02*
G37*
G36*
X510296Y437052D02*
X508704D01*
X507234Y436443D01*
X506109Y435318D01*
X505500Y433848D01*
Y432256D01*
X506109Y430786D01*
X507234Y429661D01*
X508704Y429052D01*
X510296D01*
X511766Y429661D01*
X512891Y430786D01*
X513500Y432256D01*
Y433848D01*
X512891Y435318D01*
X511766Y436443D01*
X510296Y437052D01*
D02*
G37*
G36*
X331796Y437000D02*
X330204D01*
X328734Y436391D01*
X327609Y435266D01*
X327000Y433796D01*
Y432204D01*
X327609Y430734D01*
X328734Y429609D01*
X330204Y429000D01*
X331796D01*
X333266Y429609D01*
X334391Y430734D01*
X335000Y432204D01*
Y433796D01*
X334391Y435266D01*
X333266Y436391D01*
X331796Y437000D01*
D02*
G37*
G36*
X701296Y434000D02*
X699704D01*
X698234Y433391D01*
X697109Y432266D01*
X696500Y430796D01*
Y429204D01*
X697109Y427734D01*
X698234Y426609D01*
X699704Y426000D01*
X701296D01*
X702766Y426609D01*
X703891Y427734D01*
X704500Y429204D01*
Y430796D01*
X703891Y432266D01*
X702766Y433391D01*
X701296Y434000D01*
D02*
G37*
G36*
X625796Y434000D02*
X624204D01*
X622734Y433391D01*
X621609Y432266D01*
X621000Y430796D01*
Y429204D01*
X621609Y427734D01*
X622734Y426609D01*
X624204Y426000D01*
X625796D01*
X627266Y426609D01*
X628391Y427734D01*
X629000Y429204D01*
Y430796D01*
X628391Y432266D01*
X627266Y433391D01*
X625796Y434000D01*
D02*
G37*
G36*
X605796D02*
X604204D01*
X602734Y433391D01*
X601609Y432266D01*
X601000Y430796D01*
Y429204D01*
X601609Y427734D01*
X602734Y426609D01*
X604204Y426000D01*
X605796D01*
X607266Y426609D01*
X608391Y427734D01*
X609000Y429204D01*
Y430796D01*
X608391Y432266D01*
X607266Y433391D01*
X605796Y434000D01*
D02*
G37*
G36*
X443696Y432500D02*
X442304D01*
X441017Y431967D01*
X440033Y430983D01*
X439500Y429696D01*
Y428304D01*
X440033Y427017D01*
X441017Y426033D01*
X442304Y425500D01*
X443696D01*
X444983Y426033D01*
X445967Y427017D01*
X446500Y428304D01*
Y429696D01*
X445967Y430983D01*
X444983Y431967D01*
X443696Y432500D01*
D02*
G37*
G36*
X665696Y431500D02*
X664304D01*
X663017Y430967D01*
X662033Y429983D01*
X661500Y428696D01*
Y427304D01*
X662033Y426017D01*
X663017Y425033D01*
X664304Y424500D01*
X665696D01*
X666983Y425033D01*
X667967Y426017D01*
X668500Y427304D01*
Y428696D01*
X667967Y429983D01*
X666983Y430967D01*
X665696Y431500D01*
D02*
G37*
G36*
X219696D02*
X218304D01*
X217017Y430967D01*
X216033Y429983D01*
X215500Y428696D01*
Y427304D01*
X216033Y426017D01*
X217017Y425033D01*
X218304Y424500D01*
X219696D01*
X220983Y425033D01*
X221967Y426017D01*
X222500Y427304D01*
Y428696D01*
X221967Y429983D01*
X220983Y430967D01*
X219696Y431500D01*
D02*
G37*
G36*
X398696Y430500D02*
X397304D01*
X396017Y429967D01*
X395033Y428983D01*
X394500Y427696D01*
Y426304D01*
X395033Y425017D01*
X396017Y424033D01*
X397304Y423500D01*
X398696D01*
X399983Y424033D01*
X400967Y425017D01*
X401500Y426304D01*
Y427696D01*
X400967Y428983D01*
X399983Y429967D01*
X398696Y430500D01*
D02*
G37*
G36*
X646296Y431000D02*
X644704D01*
X643234Y430391D01*
X642109Y429266D01*
X641500Y427796D01*
Y426204D01*
X642109Y424734D01*
X643234Y423609D01*
X644704Y423000D01*
X646296D01*
X647766Y423609D01*
X648891Y424734D01*
X649500Y426204D01*
Y427796D01*
X648891Y429266D01*
X647766Y430391D01*
X646296Y431000D01*
D02*
G37*
G36*
X586296D02*
X584704D01*
X583234Y430391D01*
X582109Y429266D01*
X581500Y427796D01*
Y426204D01*
X582109Y424734D01*
X583234Y423609D01*
X584704Y423000D01*
X586296D01*
X587766Y423609D01*
X588891Y424734D01*
X589500Y426204D01*
Y427796D01*
X588891Y429266D01*
X587766Y430391D01*
X586296Y431000D01*
D02*
G37*
G36*
X566296D02*
X564704D01*
X563234Y430391D01*
X562109Y429266D01*
X561500Y427796D01*
Y426204D01*
X562109Y424734D01*
X563234Y423609D01*
X564704Y423000D01*
X566296D01*
X567766Y423609D01*
X568891Y424734D01*
X569500Y426204D01*
Y427796D01*
X568891Y429266D01*
X567766Y430391D01*
X566296Y431000D01*
D02*
G37*
G36*
X526296D02*
X524704D01*
X523234Y430391D01*
X522109Y429266D01*
X521500Y427796D01*
Y426204D01*
X522109Y424734D01*
X523234Y423609D01*
X524704Y423000D01*
X526296D01*
X527766Y423609D01*
X528891Y424734D01*
X529500Y426204D01*
Y427796D01*
X528891Y429266D01*
X527766Y430391D01*
X526296Y431000D01*
D02*
G37*
G36*
X388995Y428000D02*
X387005D01*
X385168Y427239D01*
X383761Y425832D01*
X383000Y423995D01*
Y422005D01*
X383761Y420168D01*
X385168Y418761D01*
X387005Y418000D01*
X388995D01*
X390832Y418761D01*
X392239Y420168D01*
X393000Y422005D01*
Y423995D01*
X392239Y425832D01*
X390832Y427239D01*
X388995Y428000D01*
D02*
G37*
G36*
X359995Y427000D02*
X358005D01*
X356168Y426239D01*
X354761Y424832D01*
X354000Y422995D01*
Y421005D01*
X354761Y419168D01*
X356168Y417761D01*
X358005Y417000D01*
X359995D01*
X361832Y417761D01*
X363239Y419168D01*
X364000Y421005D01*
Y422995D01*
X363239Y424832D01*
X361832Y426239D01*
X359995Y427000D01*
D02*
G37*
G36*
X825796Y424000D02*
X824204D01*
X822734Y423391D01*
X821609Y422266D01*
X821000Y420796D01*
Y419204D01*
X821609Y417734D01*
X822734Y416609D01*
X824204Y416000D01*
X825796D01*
X827266Y416609D01*
X828391Y417734D01*
X829000Y419204D01*
Y420796D01*
X828391Y422266D01*
X827266Y423391D01*
X825796Y424000D01*
D02*
G37*
G36*
X444296Y419000D02*
X442704D01*
X441234Y418391D01*
X440109Y417266D01*
X439500Y415796D01*
Y414204D01*
X440109Y412734D01*
X441234Y411609D01*
X442704Y411000D01*
X444296D01*
X445766Y411609D01*
X446891Y412734D01*
X447500Y414204D01*
Y415796D01*
X446891Y417266D01*
X445766Y418391D01*
X444296Y419000D01*
D02*
G37*
G36*
X908296Y416500D02*
X906704D01*
X905234Y415891D01*
X904109Y414766D01*
X903500Y413296D01*
Y411704D01*
X904109Y410234D01*
X905234Y409109D01*
X906704Y408500D01*
X908296D01*
X909766Y409109D01*
X910891Y410234D01*
X911500Y411704D01*
Y413296D01*
X910891Y414766D01*
X909766Y415891D01*
X908296Y416500D01*
D02*
G37*
G36*
X840696Y415500D02*
X839304D01*
X838017Y414967D01*
X837033Y413983D01*
X836500Y412696D01*
Y411304D01*
X837033Y410017D01*
X838017Y409033D01*
X839304Y408500D01*
X840696D01*
X841983Y409033D01*
X842967Y410017D01*
X843500Y411304D01*
Y412696D01*
X842967Y413983D01*
X841983Y414967D01*
X840696Y415500D01*
D02*
G37*
G36*
X798696Y413500D02*
X797304D01*
X796017Y412967D01*
X795033Y411983D01*
X794500Y410696D01*
Y409304D01*
X795033Y408017D01*
X796017Y407033D01*
X797304Y406500D01*
X798696D01*
X799983Y407033D01*
X800967Y408017D01*
X801500Y409304D01*
Y410696D01*
X800967Y411983D01*
X799983Y412967D01*
X798696Y413500D01*
D02*
G37*
G36*
X337995Y414000D02*
X336005D01*
X334168Y413239D01*
X332761Y411832D01*
X332000Y409995D01*
Y408005D01*
X332761Y406168D01*
X334168Y404761D01*
X336005Y404000D01*
X337995D01*
X339832Y404761D01*
X341239Y406168D01*
X342000Y408005D01*
Y409995D01*
X341239Y411832D01*
X339832Y413239D01*
X337995Y414000D01*
D02*
G37*
G36*
X691196Y407500D02*
X689804D01*
X688517Y406967D01*
X687533Y405983D01*
X687000Y404696D01*
Y403304D01*
X687533Y402017D01*
X688517Y401033D01*
X689804Y400500D01*
X691196D01*
X692483Y401033D01*
X693467Y402017D01*
X694000Y403304D01*
Y404696D01*
X693467Y405983D01*
X692483Y406967D01*
X691196Y407500D01*
D02*
G37*
G36*
X402796Y406000D02*
X401204D01*
X399734Y405391D01*
X398609Y404266D01*
X398000Y402796D01*
Y401204D01*
X398609Y399734D01*
X399734Y398609D01*
X401204Y398000D01*
X402796D01*
X404266Y398609D01*
X405391Y399734D01*
X406000Y401204D01*
Y402796D01*
X405391Y404266D01*
X404266Y405391D01*
X402796Y406000D01*
D02*
G37*
G36*
X830696Y401500D02*
X829304D01*
X828017Y400967D01*
X827033Y399983D01*
X826500Y398696D01*
Y397304D01*
X827033Y396017D01*
X828017Y395033D01*
X829304Y394500D01*
X830696D01*
X831983Y395033D01*
X832967Y396017D01*
X833500Y397304D01*
Y398696D01*
X832967Y399983D01*
X831983Y400967D01*
X830696Y401500D01*
D02*
G37*
G36*
X697796Y402000D02*
X696204D01*
X694734Y401391D01*
X693609Y400266D01*
X693000Y398796D01*
Y397204D01*
X693609Y395734D01*
X694734Y394609D01*
X696204Y394000D01*
X697796D01*
X699266Y394609D01*
X700391Y395734D01*
X701000Y397204D01*
Y398796D01*
X700391Y400266D01*
X699266Y401391D01*
X697796Y402000D01*
D02*
G37*
G36*
X442796Y401000D02*
X441204D01*
X439734Y400391D01*
X438609Y399266D01*
X438000Y397796D01*
Y396204D01*
X438609Y394734D01*
X439734Y393609D01*
X441204Y393000D01*
X442796D01*
X444266Y393609D01*
X445391Y394734D01*
X446000Y396204D01*
Y397796D01*
X445391Y399266D01*
X444266Y400391D01*
X442796Y401000D01*
D02*
G37*
G36*
X806796Y397000D02*
X805204D01*
X803734Y396391D01*
X802609Y395266D01*
X802000Y393796D01*
Y392204D01*
X802609Y390734D01*
X803734Y389609D01*
X805204Y389000D01*
X806796D01*
X808266Y389609D01*
X809391Y390734D01*
X810000Y392204D01*
Y393796D01*
X809391Y395266D01*
X808266Y396391D01*
X806796Y397000D01*
D02*
G37*
G36*
X359995Y399000D02*
X358005D01*
X356168Y398239D01*
X354761Y396832D01*
X354000Y394995D01*
Y393005D01*
X354761Y391168D01*
X356168Y389761D01*
X358005Y389000D01*
X359995D01*
X361832Y389761D01*
X363239Y391168D01*
X364000Y393005D01*
Y394995D01*
X363239Y396832D01*
X361832Y398239D01*
X359995Y399000D01*
D02*
G37*
G36*
X664696Y408500D02*
X663304D01*
X662017Y407967D01*
X661033Y406983D01*
X660500Y405696D01*
Y404304D01*
X661033Y403017D01*
X661280Y402770D01*
X660754Y401500D01*
X660304D01*
X659017Y400967D01*
X658033Y399983D01*
X657500Y398696D01*
Y397304D01*
X657726Y396758D01*
X656891Y395500D01*
X656304D01*
X655017Y394967D01*
X654033Y393983D01*
X653500Y392696D01*
Y391304D01*
X654033Y390017D01*
X655017Y389033D01*
X656304Y388500D01*
X657696D01*
X658983Y389033D01*
X659967Y390017D01*
X660500Y391304D01*
Y392696D01*
X660274Y393242D01*
X661109Y394500D01*
X661696D01*
X662983Y395033D01*
X663967Y396017D01*
X664500Y397304D01*
Y398696D01*
X663967Y399983D01*
X663720Y400230D01*
X664246Y401500D01*
X664696D01*
X665983Y402033D01*
X666967Y403017D01*
X667500Y404304D01*
Y405696D01*
X666967Y406983D01*
X665983Y407967D01*
X664696Y408500D01*
D02*
G37*
G36*
X870696Y390500D02*
X869304D01*
X868017Y389967D01*
X867033Y388983D01*
X866500Y387696D01*
Y386304D01*
X867033Y385017D01*
X868017Y384033D01*
X869304Y383500D01*
X870696D01*
X871983Y384033D01*
X872967Y385017D01*
X873500Y386304D01*
Y387696D01*
X872967Y388983D01*
X871983Y389967D01*
X870696Y390500D01*
D02*
G37*
G36*
X669696Y389500D02*
X668304D01*
X667017Y388967D01*
X666033Y387983D01*
X665500Y386696D01*
Y385304D01*
X666033Y384017D01*
X667017Y383033D01*
X668304Y382500D01*
X669696D01*
X670983Y383033D01*
X671967Y384017D01*
X672500Y385304D01*
Y386696D01*
X671967Y387983D01*
X670983Y388967D01*
X669696Y389500D01*
D02*
G37*
G36*
X394696Y389500D02*
X393304D01*
X392017Y388967D01*
X391033Y387983D01*
X390500Y386696D01*
Y385304D01*
X391033Y384017D01*
X392017Y383033D01*
X393304Y382500D01*
X394696D01*
X395983Y383033D01*
X396967Y384017D01*
X397500Y385304D01*
Y386696D01*
X396967Y387983D01*
X395983Y388967D01*
X394696Y389500D01*
D02*
G37*
G36*
X771796Y390000D02*
X770204D01*
X768734Y389391D01*
X767609Y388266D01*
X767000Y386796D01*
Y385204D01*
X767609Y383734D01*
X768734Y382609D01*
X770204Y382000D01*
X771796D01*
X773266Y382609D01*
X774391Y383734D01*
X775000Y385204D01*
Y386796D01*
X774391Y388266D01*
X773266Y389391D01*
X771796Y390000D01*
D02*
G37*
G36*
X682196Y388500D02*
X680804D01*
X679517Y387967D01*
X678533Y386983D01*
X678000Y385696D01*
Y384304D01*
X678533Y383017D01*
X679517Y382033D01*
X680804Y381500D01*
X682196D01*
X683483Y382033D01*
X684467Y383017D01*
X685000Y384304D01*
Y385696D01*
X684467Y386983D01*
X683483Y387967D01*
X682196Y388500D01*
D02*
G37*
G36*
X691696Y387500D02*
X690304D01*
X689017Y386967D01*
X688033Y385983D01*
X687500Y384696D01*
Y383304D01*
X688033Y382017D01*
X689017Y381033D01*
X690304Y380500D01*
X691696D01*
X692983Y381033D01*
X693967Y382017D01*
X694500Y383304D01*
Y384696D01*
X693967Y385983D01*
X692983Y386967D01*
X691696Y387500D01*
D02*
G37*
G36*
X895796Y386500D02*
X894204D01*
X892734Y385891D01*
X891609Y384766D01*
X891000Y383296D01*
Y381704D01*
X891609Y380234D01*
X892734Y379109D01*
X894204Y378500D01*
X895796D01*
X897266Y379109D01*
X898391Y380234D01*
X899000Y381704D01*
Y383296D01*
X898391Y384766D01*
X897266Y385891D01*
X895796Y386500D01*
D02*
G37*
G36*
X303696Y382500D02*
X302304D01*
X301017Y381967D01*
X300033Y380983D01*
X299500Y379696D01*
Y378304D01*
X300033Y377017D01*
X301017Y376033D01*
X302304Y375500D01*
X303696D01*
X304983Y376033D01*
X305967Y377017D01*
X306500Y378304D01*
Y379696D01*
X305967Y380983D01*
X304983Y381967D01*
X303696Y382500D01*
D02*
G37*
G36*
X883296Y374000D02*
X881704D01*
X880234Y373391D01*
X879109Y372266D01*
X878500Y370796D01*
Y369204D01*
X879109Y367734D01*
X880234Y366609D01*
X881704Y366000D01*
X883296D01*
X884766Y366609D01*
X885891Y367734D01*
X886500Y369204D01*
Y370796D01*
X885891Y372266D01*
X884766Y373391D01*
X883296Y374000D01*
D02*
G37*
G36*
X675796Y369000D02*
X674204D01*
X672734Y368391D01*
X671609Y367266D01*
X671132Y366114D01*
X670151Y365745D01*
X669730Y365720D01*
X669483Y365967D01*
X668196Y366500D01*
X666804D01*
X665517Y365967D01*
X664533Y364983D01*
X664000Y363696D01*
Y362304D01*
X664533Y361017D01*
X665517Y360033D01*
X666804Y359500D01*
X668196D01*
X669483Y360033D01*
X670467Y361017D01*
X670778Y361769D01*
X672114Y362153D01*
X672202Y362141D01*
X672734Y361609D01*
X674204Y361000D01*
X675796D01*
X677266Y361609D01*
X678391Y362734D01*
X679000Y364204D01*
Y365796D01*
X678391Y367266D01*
X677266Y368391D01*
X675796Y369000D01*
D02*
G37*
G36*
X298696Y372500D02*
X297304D01*
X296017Y371967D01*
X295033Y370983D01*
X294500Y369696D01*
Y368304D01*
X295033Y367017D01*
X296017Y366033D01*
X297304Y365500D01*
X298696D01*
X299983Y366033D01*
X300967Y367017D01*
X301500Y368304D01*
Y369696D01*
X300967Y370983D01*
X299983Y371967D01*
X298696Y372500D01*
D02*
G37*
G36*
X651196Y368000D02*
X649804D01*
X648517Y367467D01*
X647533Y366483D01*
X647000Y365196D01*
Y364609D01*
X646842Y364514D01*
X645730Y364220D01*
X644983Y364967D01*
X643696Y365500D01*
X642304D01*
X641017Y364967D01*
X640033Y363983D01*
X639500Y362696D01*
Y361304D01*
X640033Y360017D01*
X641017Y359033D01*
X642304Y358500D01*
X643696D01*
X644983Y359033D01*
X645967Y360017D01*
X646500Y361304D01*
Y361891D01*
X646658Y361987D01*
X647770Y362280D01*
X648517Y361533D01*
X649804Y361000D01*
X651196D01*
X652483Y361533D01*
X653467Y362517D01*
X654000Y363804D01*
Y365196D01*
X653467Y366483D01*
X652483Y367467D01*
X651196Y368000D01*
D02*
G37*
G36*
X777696Y369500D02*
X776304D01*
X775017Y368967D01*
X774033Y367983D01*
X773500Y366696D01*
Y365304D01*
X774033Y364017D01*
X775017Y363033D01*
X776304Y362500D01*
X777696D01*
X778983Y363033D01*
X779967Y364017D01*
X780500Y365304D01*
Y366696D01*
X779967Y367983D01*
X778983Y368967D01*
X777696Y369500D01*
D02*
G37*
G36*
X804696Y368500D02*
X803304D01*
X802017Y367967D01*
X801033Y366983D01*
X800500Y365696D01*
Y364304D01*
X801033Y363017D01*
X802017Y362033D01*
X803304Y361500D01*
X804696D01*
X805983Y362033D01*
X806967Y363017D01*
X807500Y364304D01*
Y365696D01*
X806967Y366983D01*
X805983Y367967D01*
X804696Y368500D01*
D02*
G37*
G36*
X581696Y363500D02*
X580304D01*
X579017Y362967D01*
X578033Y361983D01*
X577673Y361115D01*
X576327D01*
X575967Y361983D01*
X574983Y362967D01*
X573696Y363500D01*
X572304D01*
X571017Y362967D01*
X570033Y361983D01*
X569500Y360696D01*
Y359304D01*
X570033Y358017D01*
X571017Y357033D01*
X572304Y356500D01*
X573696D01*
X574983Y357033D01*
X575967Y358017D01*
X576327Y358885D01*
X577673D01*
X578033Y358017D01*
X579017Y357033D01*
X580304Y356500D01*
X581696D01*
X582983Y357033D01*
X583967Y358017D01*
X584500Y359304D01*
Y360696D01*
X583967Y361983D01*
X582983Y362967D01*
X581696Y363500D01*
D02*
G37*
G36*
X849796Y369000D02*
X848204D01*
X846734Y368391D01*
X845609Y367266D01*
X845000Y365796D01*
Y364204D01*
X845609Y362734D01*
X846734Y361609D01*
X848204Y361000D01*
X849796D01*
X851266Y361609D01*
X852391Y362734D01*
X853000Y364204D01*
Y365796D01*
X852391Y367266D01*
X851266Y368391D01*
X849796Y369000D01*
D02*
G37*
G36*
X604696Y367500D02*
X603304D01*
X602017Y366967D01*
X601033Y365983D01*
X600500Y364696D01*
Y363304D01*
X601033Y362017D01*
X602017Y361033D01*
X603304Y360500D01*
X604696D01*
X605983Y361033D01*
X606967Y362017D01*
X607500Y363304D01*
Y364696D01*
X606967Y365983D01*
X605983Y366967D01*
X604696Y367500D01*
D02*
G37*
G36*
X594696D02*
X593304D01*
X592017Y366967D01*
X591033Y365983D01*
X590500Y364696D01*
Y363304D01*
X591033Y362017D01*
X592017Y361033D01*
X593304Y360500D01*
X594696D01*
X595983Y361033D01*
X596967Y362017D01*
X597500Y363304D01*
Y364696D01*
X596967Y365983D01*
X595983Y366967D01*
X594696Y367500D01*
D02*
G37*
G36*
X627696Y370500D02*
X626304D01*
X625017Y369967D01*
X624033Y368983D01*
X623500Y367696D01*
Y366304D01*
X624033Y365017D01*
X625017Y364033D01*
X626304Y363500D01*
X627047D01*
X627573Y362230D01*
X627109Y361766D01*
X626500Y360296D01*
Y358704D01*
X627109Y357234D01*
X628234Y356109D01*
X629704Y355500D01*
X631296D01*
X632766Y356109D01*
X633891Y357234D01*
X634500Y358704D01*
Y360296D01*
X633891Y361766D01*
X632766Y362891D01*
X631296Y363500D01*
X630246D01*
X629720Y364770D01*
X629967Y365017D01*
X630500Y366304D01*
Y367696D01*
X629967Y368983D01*
X628983Y369967D01*
X627696Y370500D01*
D02*
G37*
G36*
X293696Y361500D02*
X292304D01*
X291017Y360967D01*
X290033Y359983D01*
X289500Y358696D01*
Y357304D01*
X290033Y356017D01*
X291017Y355033D01*
X292304Y354500D01*
X293696D01*
X294983Y355033D01*
X295967Y356017D01*
X296500Y357304D01*
Y358696D01*
X295967Y359983D01*
X294983Y360967D01*
X293696Y361500D01*
D02*
G37*
G36*
X659696Y360500D02*
X658304D01*
X657017Y359967D01*
X656033Y358983D01*
X655500Y357696D01*
Y356304D01*
X656033Y355017D01*
X657017Y354033D01*
X658304Y353500D01*
X659696D01*
X660983Y354033D01*
X661967Y355017D01*
X662500Y356304D01*
Y357696D01*
X661967Y358983D01*
X660983Y359967D01*
X659696Y360500D01*
D02*
G37*
G36*
X561296Y358000D02*
X559704D01*
X558234Y357391D01*
X557109Y356266D01*
X556500Y354796D01*
Y353204D01*
X557109Y351734D01*
X558234Y350609D01*
X559704Y350000D01*
X561296D01*
X562766Y350609D01*
X563891Y351734D01*
X564500Y353204D01*
Y354796D01*
X563891Y356266D01*
X562766Y357391D01*
X561296Y358000D01*
D02*
G37*
G36*
X546296Y357000D02*
X544704D01*
X543234Y356391D01*
X542109Y355266D01*
X541500Y353796D01*
Y352204D01*
X542109Y350734D01*
X543234Y349609D01*
X544704Y349000D01*
X546296D01*
X547766Y349609D01*
X548891Y350734D01*
X549500Y352204D01*
Y353796D01*
X548891Y355266D01*
X547766Y356391D01*
X546296Y357000D01*
D02*
G37*
G36*
X608796Y356000D02*
X607204D01*
X605734Y355391D01*
X604609Y354266D01*
X604000Y352796D01*
Y351204D01*
X604609Y349734D01*
X605734Y348609D01*
X607204Y348000D01*
X608796D01*
X610266Y348609D01*
X611391Y349734D01*
X612000Y351204D01*
Y352796D01*
X611391Y354266D01*
X610266Y355391D01*
X608796Y356000D01*
D02*
G37*
G36*
X596796D02*
X595204D01*
X593734Y355391D01*
X592609Y354266D01*
X592000Y352796D01*
Y351204D01*
X592609Y349734D01*
X593734Y348609D01*
X595204Y348000D01*
X596796D01*
X598266Y348609D01*
X599391Y349734D01*
X600000Y351204D01*
Y352796D01*
X599391Y354266D01*
X598266Y355391D01*
X596796Y356000D01*
D02*
G37*
G36*
X525296Y355500D02*
X523704D01*
X522234Y354891D01*
X521109Y353766D01*
X520500Y352296D01*
Y350704D01*
X521109Y349234D01*
X522234Y348109D01*
X523704Y347500D01*
X525296D01*
X526766Y348109D01*
X527891Y349234D01*
X528500Y350704D01*
Y352296D01*
X527891Y353766D01*
X526766Y354891D01*
X525296Y355500D01*
D02*
G37*
G36*
X898796Y355000D02*
X897204D01*
X895734Y354391D01*
X894609Y353266D01*
X894000Y351796D01*
Y350204D01*
X894609Y348734D01*
X895734Y347609D01*
X897204Y347000D01*
X898796D01*
X900266Y347609D01*
X901391Y348734D01*
X902000Y350204D01*
Y351796D01*
X901391Y353266D01*
X900266Y354391D01*
X898796Y355000D01*
D02*
G37*
G36*
X840796Y354000D02*
X839204D01*
X837734Y353391D01*
X836609Y352266D01*
X836000Y350796D01*
Y349204D01*
X836609Y347734D01*
X837734Y346609D01*
X839204Y346000D01*
X840796D01*
X842266Y346609D01*
X843391Y347734D01*
X844000Y349204D01*
Y350796D01*
X843391Y352266D01*
X842266Y353391D01*
X840796Y354000D01*
D02*
G37*
G36*
X288696Y350500D02*
X287304D01*
X286017Y349967D01*
X285033Y348983D01*
X284500Y347696D01*
Y346304D01*
X285033Y345017D01*
X286017Y344033D01*
X287304Y343500D01*
X288696D01*
X289983Y344033D01*
X290967Y345017D01*
X291500Y346304D01*
Y347696D01*
X290967Y348983D01*
X289983Y349967D01*
X288696Y350500D01*
D02*
G37*
G36*
X800796Y349000D02*
X799204D01*
X797734Y348391D01*
X796609Y347266D01*
X796000Y345796D01*
Y344204D01*
X796609Y342734D01*
X797734Y341609D01*
X799204Y341000D01*
X800796D01*
X802266Y341609D01*
X803391Y342734D01*
X804000Y344204D01*
Y345796D01*
X803391Y347266D01*
X802266Y348391D01*
X800796Y349000D01*
D02*
G37*
G36*
X788296D02*
X786704D01*
X785234Y348391D01*
X784109Y347266D01*
X783500Y345796D01*
Y344204D01*
X784109Y342734D01*
X785234Y341609D01*
X786704Y341000D01*
X788296D01*
X789766Y341609D01*
X790891Y342734D01*
X791500Y344204D01*
Y345796D01*
X790891Y347266D01*
X789766Y348391D01*
X788296Y349000D01*
D02*
G37*
G36*
X498995Y349000D02*
X497005D01*
X495168Y348239D01*
X493761Y346832D01*
X493000Y344995D01*
Y343005D01*
X493761Y341168D01*
X495168Y339761D01*
X497005Y339000D01*
X498995D01*
X500832Y339761D01*
X502239Y341168D01*
X503000Y343005D01*
Y344995D01*
X502239Y346832D01*
X500832Y348239D01*
X498995Y349000D01*
D02*
G37*
G36*
X333796Y345000D02*
X332204D01*
X330734Y344391D01*
X329609Y343266D01*
X329000Y341796D01*
Y340204D01*
X329609Y338734D01*
X330734Y337609D01*
X332204Y337000D01*
X333796D01*
X335266Y337609D01*
X336391Y338734D01*
X337000Y340204D01*
Y341796D01*
X336391Y343266D01*
X335266Y344391D01*
X333796Y345000D01*
D02*
G37*
G36*
X855796Y344000D02*
X854204D01*
X852734Y343391D01*
X851609Y342266D01*
X851000Y340796D01*
Y339204D01*
X851609Y337734D01*
X852734Y336609D01*
X854204Y336000D01*
X855796D01*
X857266Y336609D01*
X858391Y337734D01*
X859000Y339204D01*
Y340796D01*
X858391Y342266D01*
X857266Y343391D01*
X855796Y344000D01*
D02*
G37*
G36*
X303796D02*
X302204D01*
X300734Y343391D01*
X299609Y342266D01*
X299000Y340796D01*
Y339204D01*
X299609Y337734D01*
X300734Y336609D01*
X302204Y336000D01*
X303796D01*
X305266Y336609D01*
X306391Y337734D01*
X307000Y339204D01*
Y340796D01*
X306391Y342266D01*
X305266Y343391D01*
X303796Y344000D01*
D02*
G37*
G36*
X410796Y343000D02*
X409204D01*
X407734Y342391D01*
X406609Y341266D01*
X406000Y339796D01*
Y338204D01*
X406609Y336734D01*
X407734Y335609D01*
X409204Y335000D01*
X410796D01*
X412266Y335609D01*
X413391Y336734D01*
X414000Y338204D01*
Y339796D01*
X413391Y341266D01*
X412266Y342391D01*
X410796Y343000D01*
D02*
G37*
G36*
X713796Y340000D02*
X712204D01*
X710734Y339391D01*
X709609Y338266D01*
X709000Y336796D01*
Y335204D01*
X709609Y333734D01*
X710734Y332609D01*
X712204Y332000D01*
X713796D01*
X715266Y332609D01*
X716391Y333734D01*
X717000Y335204D01*
Y336796D01*
X716391Y338266D01*
X715266Y339391D01*
X713796Y340000D01*
D02*
G37*
G36*
X908796Y339000D02*
X907204D01*
X905734Y338391D01*
X904609Y337266D01*
X904000Y335796D01*
Y334204D01*
X904609Y332734D01*
X905734Y331609D01*
X907204Y331000D01*
X908796D01*
X910266Y331609D01*
X911391Y332734D01*
X912000Y334204D01*
Y335796D01*
X911391Y337266D01*
X910266Y338391D01*
X908796Y339000D01*
D02*
G37*
G36*
X512196Y342500D02*
X510804D01*
X509517Y341967D01*
X508533Y340983D01*
X508000Y339696D01*
Y338304D01*
X508533Y337017D01*
X509517Y336033D01*
X510228Y335739D01*
X510265Y335139D01*
X510102Y334416D01*
X509017Y333967D01*
X508033Y332983D01*
X507500Y331696D01*
Y330304D01*
X508033Y329017D01*
X509017Y328033D01*
X510304Y327500D01*
X511696D01*
X512983Y328033D01*
X513967Y329017D01*
X514500Y330304D01*
Y331696D01*
X513967Y332983D01*
X512983Y333967D01*
X512272Y334262D01*
X512235Y334861D01*
X512398Y335584D01*
X513483Y336033D01*
X514467Y337017D01*
X515000Y338304D01*
Y339696D01*
X514467Y340983D01*
X513483Y341967D01*
X512196Y342500D01*
D02*
G37*
G36*
X283696Y334500D02*
X282304D01*
X281017Y333967D01*
X280033Y332983D01*
X279500Y331696D01*
Y330304D01*
X280033Y329017D01*
X281017Y328033D01*
X282304Y327500D01*
X283696D01*
X284983Y328033D01*
X285967Y329017D01*
X286500Y330304D01*
Y331696D01*
X285967Y332983D01*
X284983Y333967D01*
X283696Y334500D01*
D02*
G37*
G36*
X551296Y331000D02*
X549704D01*
X548234Y330391D01*
X547109Y329266D01*
X546500Y327796D01*
X545266Y327363D01*
X543796Y327972D01*
X542204D01*
X540734Y327363D01*
X539609Y326237D01*
X539000Y324767D01*
Y323176D01*
X539609Y321706D01*
X540734Y320581D01*
X542204Y319972D01*
X543796D01*
X545266Y320581D01*
X546391Y321706D01*
X547000Y323176D01*
X548234Y323609D01*
X549704Y323000D01*
X551296D01*
X552766Y323609D01*
X553891Y324734D01*
X554500Y326204D01*
Y327796D01*
X553891Y329266D01*
X552766Y330391D01*
X551296Y331000D01*
D02*
G37*
G36*
X840796Y334000D02*
X839204D01*
X837734Y333391D01*
X836609Y332266D01*
X836000Y330796D01*
Y329204D01*
X836609Y327734D01*
X837734Y326609D01*
X839204Y326000D01*
X840796D01*
X842266Y326609D01*
X843391Y327734D01*
X844000Y329204D01*
Y330796D01*
X843391Y332266D01*
X842266Y333391D01*
X840796Y334000D01*
D02*
G37*
G36*
X696796Y333000D02*
X695204D01*
X693734Y332391D01*
X692609Y331266D01*
X692000Y329796D01*
Y328204D01*
X692609Y326734D01*
X693734Y325609D01*
X695204Y325000D01*
X696796D01*
X698266Y325609D01*
X699391Y326734D01*
X700000Y328204D01*
Y329796D01*
X699391Y331266D01*
X698266Y332391D01*
X696796Y333000D01*
D02*
G37*
G36*
X605796Y329000D02*
X604204D01*
X602734Y328391D01*
X601609Y327266D01*
X601000Y325796D01*
Y324204D01*
X601609Y322734D01*
X602734Y321609D01*
X604204Y321000D01*
X605796D01*
X607266Y321609D01*
X608391Y322734D01*
X609000Y324204D01*
Y325796D01*
X608391Y327266D01*
X607266Y328391D01*
X605796Y329000D01*
D02*
G37*
G36*
X638796Y328000D02*
X637204D01*
X635734Y327391D01*
X634609Y326266D01*
X634000Y324796D01*
Y323204D01*
X634609Y321734D01*
X635734Y320609D01*
X637204Y320000D01*
X638796D01*
X640266Y320609D01*
X641391Y321734D01*
X642000Y323204D01*
Y324796D01*
X641391Y326266D01*
X640266Y327391D01*
X638796Y328000D01*
D02*
G37*
G36*
X626796D02*
X625204D01*
X623734Y327391D01*
X622609Y326266D01*
X622000Y324796D01*
Y323204D01*
X622609Y321734D01*
X623734Y320609D01*
X625204Y320000D01*
X626796D01*
X628266Y320609D01*
X629391Y321734D01*
X630000Y323204D01*
Y324796D01*
X629391Y326266D01*
X628266Y327391D01*
X626796Y328000D01*
D02*
G37*
G36*
X580296Y327000D02*
X578704D01*
X577234Y326391D01*
X576109Y325266D01*
X575500Y323796D01*
Y322204D01*
X576109Y320734D01*
X577234Y319609D01*
X578704Y319000D01*
X580296D01*
X581766Y319609D01*
X582891Y320734D01*
X583500Y322204D01*
Y323796D01*
X582891Y325266D01*
X581766Y326391D01*
X580296Y327000D01*
D02*
G37*
G36*
X476995Y327000D02*
X475005D01*
X473168Y326239D01*
X471761Y324832D01*
X471000Y322995D01*
Y321005D01*
X471761Y319168D01*
X473168Y317761D01*
X475005Y317000D01*
X476995D01*
X478832Y317761D01*
X480239Y319168D01*
X481000Y321005D01*
Y322995D01*
X480239Y324832D01*
X478832Y326239D01*
X476995Y327000D01*
D02*
G37*
G36*
X855796Y324000D02*
X854204D01*
X852734Y323391D01*
X851609Y322266D01*
X851000Y320796D01*
Y319204D01*
X851609Y317734D01*
X852734Y316609D01*
X854204Y316000D01*
X855796D01*
X857266Y316609D01*
X858391Y317734D01*
X859000Y319204D01*
Y320796D01*
X858391Y322266D01*
X857266Y323391D01*
X855796Y324000D01*
D02*
G37*
G36*
X800796D02*
X799204D01*
X797734Y323391D01*
X796609Y322266D01*
X796000Y320796D01*
Y319204D01*
X796609Y317734D01*
X797734Y316609D01*
X799204Y316000D01*
X800796D01*
X802266Y316609D01*
X803391Y317734D01*
X804000Y319204D01*
Y320796D01*
X803391Y322266D01*
X802266Y323391D01*
X800796Y324000D01*
D02*
G37*
G36*
X898796Y320000D02*
X897204D01*
X895734Y319391D01*
X894609Y318266D01*
X894000Y316796D01*
Y315204D01*
X894609Y313734D01*
X895734Y312609D01*
X897204Y312000D01*
X898796D01*
X900266Y312609D01*
X901391Y313734D01*
X902000Y315204D01*
Y316796D01*
X901391Y318266D01*
X900266Y319391D01*
X898796Y320000D01*
D02*
G37*
G36*
X334245Y321750D02*
X332255D01*
X330418Y320989D01*
X329011Y319582D01*
X328250Y317745D01*
Y315755D01*
X329011Y313918D01*
X330418Y312511D01*
X332255Y311750D01*
X334245D01*
X336082Y312511D01*
X337489Y313918D01*
X338250Y315755D01*
Y317745D01*
X337489Y319582D01*
X336082Y320989D01*
X334245Y321750D01*
D02*
G37*
G36*
X590796Y329000D02*
X589204D01*
X587734Y328391D01*
X586609Y327266D01*
X586000Y325796D01*
Y324204D01*
X586609Y322734D01*
X587073Y322270D01*
X587051Y321855D01*
X586681Y320866D01*
X585168Y320239D01*
X583761Y318832D01*
X583000Y316995D01*
Y315005D01*
X583761Y313168D01*
X585168Y311761D01*
X587005Y311000D01*
X588995D01*
X590832Y311761D01*
X592239Y313168D01*
X593000Y315005D01*
Y316995D01*
X592239Y318832D01*
X591244Y319827D01*
X591422Y321217D01*
X591457Y321274D01*
X592266Y321609D01*
X593391Y322734D01*
X594000Y324204D01*
Y325796D01*
X593391Y327266D01*
X592266Y328391D01*
X590796Y329000D01*
D02*
G37*
G36*
X470696Y317500D02*
X469304D01*
X468017Y316967D01*
X467033Y315983D01*
X466500Y314696D01*
Y313304D01*
X467033Y312017D01*
X468017Y311033D01*
X469304Y310500D01*
X470696D01*
X471983Y311033D01*
X472967Y312017D01*
X473500Y313304D01*
Y314696D01*
X472967Y315983D01*
X471983Y316967D01*
X470696Y317500D01*
D02*
G37*
G36*
X840796Y314000D02*
X839204D01*
X837734Y313391D01*
X836609Y312266D01*
X836000Y310796D01*
Y309204D01*
X836609Y307734D01*
X837734Y306609D01*
X839204Y306000D01*
X840796D01*
X842266Y306609D01*
X843391Y307734D01*
X844000Y309204D01*
Y310796D01*
X843391Y312266D01*
X842266Y313391D01*
X840796Y314000D01*
D02*
G37*
G36*
X357796Y313000D02*
X356204D01*
X354734Y312391D01*
X353609Y311266D01*
X353000Y309796D01*
Y308204D01*
X353609Y306734D01*
X354734Y305609D01*
X356204Y305000D01*
X357796D01*
X359266Y305609D01*
X360391Y306734D01*
X361000Y308204D01*
Y309796D01*
X360391Y311266D01*
X359266Y312391D01*
X357796Y313000D01*
D02*
G37*
G36*
X278696Y318500D02*
X277304D01*
X276017Y317967D01*
X275033Y316983D01*
X274500Y315696D01*
Y314304D01*
X275033Y313017D01*
X276017Y312033D01*
X277304Y311500D01*
X278107D01*
X278399Y311500D01*
X278652Y310230D01*
X278431Y310138D01*
X278017Y309967D01*
X277033Y308983D01*
X276500Y307696D01*
Y306304D01*
X277033Y305017D01*
X278017Y304033D01*
X279304Y303500D01*
X280696D01*
X281983Y304033D01*
X282967Y305017D01*
X283500Y306304D01*
Y307696D01*
X282967Y308983D01*
X281983Y309967D01*
X280696Y310500D01*
X279893D01*
X279601Y310500D01*
X279348Y311770D01*
X279569Y311861D01*
X279983Y312033D01*
X280967Y313017D01*
X281500Y314304D01*
Y315696D01*
X280967Y316983D01*
X279983Y317967D01*
X278696Y318500D01*
D02*
G37*
G36*
X610796Y309000D02*
X609204D01*
X607734Y308391D01*
X606609Y307266D01*
X606000Y305796D01*
Y304204D01*
X606609Y302734D01*
X607734Y301609D01*
X609204Y301000D01*
X610796D01*
X612266Y301609D01*
X613391Y302734D01*
X614000Y304204D01*
Y305796D01*
X613391Y307266D01*
X612266Y308391D01*
X610796Y309000D01*
D02*
G37*
G36*
X545796D02*
X544204D01*
X542734Y308391D01*
X541609Y307266D01*
X541000Y305796D01*
Y304204D01*
X541609Y302734D01*
X542734Y301609D01*
X544204Y301000D01*
X545796D01*
X547266Y301609D01*
X548391Y302734D01*
X549000Y304204D01*
Y305796D01*
X548391Y307266D01*
X547266Y308391D01*
X545796Y309000D01*
D02*
G37*
G36*
X498296D02*
X496704D01*
X495234Y308391D01*
X494109Y307266D01*
X493500Y305796D01*
Y304204D01*
X494109Y302734D01*
X495234Y301609D01*
X496704Y301000D01*
X498296D01*
X499766Y301609D01*
X500891Y302734D01*
X501500Y304204D01*
Y305796D01*
X500891Y307266D01*
X499766Y308391D01*
X498296Y309000D01*
D02*
G37*
G36*
X898796Y308000D02*
X897204D01*
X895734Y307391D01*
X894609Y306266D01*
X894000Y304796D01*
Y303204D01*
X894609Y301734D01*
X895734Y300609D01*
X897204Y300000D01*
X898796D01*
X900266Y300609D01*
X901391Y301734D01*
X902000Y303204D01*
Y304796D01*
X901391Y306266D01*
X900266Y307391D01*
X898796Y308000D01*
D02*
G37*
G36*
X862796D02*
X861204D01*
X859734Y307391D01*
X858609Y306266D01*
X858000Y304796D01*
Y303204D01*
X858609Y301734D01*
X859734Y300609D01*
X861204Y300000D01*
X862796D01*
X864266Y300609D01*
X865391Y301734D01*
X866000Y303204D01*
Y304796D01*
X865391Y306266D01*
X864266Y307391D01*
X862796Y308000D01*
D02*
G37*
G36*
X825796Y304000D02*
X824204D01*
X822734Y303391D01*
X821609Y302266D01*
X821000Y300796D01*
Y299204D01*
X821609Y297734D01*
X822734Y296609D01*
X824204Y296000D01*
X825796D01*
X827266Y296609D01*
X828391Y297734D01*
X829000Y299204D01*
Y300796D01*
X828391Y302266D01*
X827266Y303391D01*
X825796Y304000D01*
D02*
G37*
G36*
X805796D02*
X804204D01*
X802734Y303391D01*
X801609Y302266D01*
X801000Y300796D01*
Y299204D01*
X801609Y297734D01*
X802734Y296609D01*
X804204Y296000D01*
X805796D01*
X807266Y296609D01*
X808391Y297734D01*
X809000Y299204D01*
Y300796D01*
X808391Y302266D01*
X807266Y303391D01*
X805796Y304000D01*
D02*
G37*
G36*
X580796Y301500D02*
X579204D01*
X577734Y300891D01*
X576609Y299766D01*
X576000Y298296D01*
Y296704D01*
X576609Y295234D01*
X577734Y294109D01*
X579204Y293500D01*
X580796D01*
X582266Y294109D01*
X583391Y295234D01*
X584000Y296704D01*
Y298296D01*
X583391Y299766D01*
X582266Y300891D01*
X580796Y301500D01*
D02*
G37*
G36*
X558296D02*
X556704D01*
X555234Y300891D01*
X554109Y299766D01*
X553500Y298296D01*
Y296704D01*
X554109Y295234D01*
X555234Y294109D01*
X556704Y293500D01*
X558296D01*
X559766Y294109D01*
X560891Y295234D01*
X561500Y296704D01*
Y298296D01*
X560891Y299766D01*
X559766Y300891D01*
X558296Y301500D01*
D02*
G37*
G36*
X673000Y329608D02*
X664000D01*
X661854Y329181D01*
X660035Y327965D01*
X650403Y318333D01*
X646476D01*
X644330Y317906D01*
X642510Y316691D01*
X616427Y290608D01*
X543323D01*
X531608Y302323D01*
Y314000D01*
X531181Y316146D01*
X529965Y317965D01*
X528146Y319181D01*
X526580Y319492D01*
X525846Y319976D01*
X525500Y320803D01*
Y321796D01*
X524891Y323266D01*
X523766Y324391D01*
X522296Y325000D01*
X520704D01*
X519234Y324391D01*
X518109Y323266D01*
X517500Y321796D01*
Y320604D01*
X516520Y319504D01*
X516000Y319608D01*
X513854Y319181D01*
X512035Y317965D01*
X510819Y316146D01*
X510392Y314000D01*
Y293000D01*
X510819Y290854D01*
X512035Y289035D01*
X530035Y271035D01*
X531854Y269819D01*
X534000Y269392D01*
X581896D01*
X582422Y268122D01*
X582033Y267733D01*
X581500Y266446D01*
Y265054D01*
X582033Y263767D01*
X583017Y262783D01*
X584304Y262250D01*
X585696D01*
X586983Y262783D01*
X587967Y263767D01*
X588500Y265054D01*
Y266446D01*
X587967Y267733D01*
X587578Y268122D01*
X588103Y269392D01*
X624750D01*
X626896Y269819D01*
X628715Y271035D01*
X638073Y280392D01*
X714000D01*
X716146Y280819D01*
X717965Y282035D01*
X727965Y292035D01*
X729181Y293854D01*
X729608Y296000D01*
X729181Y298146D01*
X727965Y299965D01*
X726146Y301181D01*
X724000Y301608D01*
X721854Y301181D01*
X720035Y299965D01*
X711677Y291608D01*
X635750D01*
X634919Y291443D01*
X634293Y292613D01*
X639809Y298128D01*
X641079Y297972D01*
X642017Y297033D01*
X643304Y296500D01*
X644696D01*
X645983Y297033D01*
X646967Y298017D01*
X647500Y299304D01*
Y300696D01*
X646967Y301983D01*
X645983Y302967D01*
X645761Y304081D01*
X648798Y307118D01*
X649952D01*
X656035Y301035D01*
X655924Y299581D01*
X655609Y299266D01*
X655000Y297796D01*
Y296204D01*
X655609Y294734D01*
X656734Y293609D01*
X658204Y293000D01*
X659796D01*
X661266Y293609D01*
X662391Y294734D01*
X663000Y296204D01*
Y297796D01*
X662865Y298122D01*
X663713Y299392D01*
X677287D01*
X678135Y298122D01*
X678000Y297796D01*
Y296204D01*
X678609Y294734D01*
X679734Y293609D01*
X681204Y293000D01*
X682796D01*
X684266Y293609D01*
X685391Y294734D01*
X686000Y296204D01*
Y297796D01*
X685865Y298122D01*
X686713Y299392D01*
X705000D01*
X707146Y299819D01*
X708965Y301035D01*
X719965Y312035D01*
X721181Y313854D01*
X721608Y316000D01*
X721181Y318146D01*
X719965Y319965D01*
X718146Y321181D01*
X716000Y321608D01*
X713854Y321181D01*
X712035Y319965D01*
X703390Y311321D01*
X702707Y311395D01*
X701896Y312754D01*
X702000Y313005D01*
Y314995D01*
X701239Y316832D01*
X699832Y318239D01*
X697995Y319000D01*
X696005D01*
X694168Y318239D01*
X692761Y316832D01*
X692000Y314995D01*
Y313005D01*
X692467Y311878D01*
X691662Y310608D01*
X671061D01*
X670694Y311224D01*
X670451Y311878D01*
X671000Y313204D01*
Y314796D01*
X670391Y316266D01*
X669535Y317122D01*
X669907Y318366D01*
X669924Y318392D01*
X673000D01*
X675146Y318819D01*
X676965Y320035D01*
X678181Y321854D01*
X678608Y324000D01*
X678181Y326146D01*
X676965Y327965D01*
X675146Y329181D01*
X673000Y329608D01*
D02*
G37*
G36*
X280696Y294500D02*
X279304D01*
X278017Y293967D01*
X277033Y292983D01*
X276500Y291696D01*
Y290304D01*
X277033Y289017D01*
X278017Y288033D01*
X279304Y287500D01*
X280696D01*
X281983Y288033D01*
X282967Y289017D01*
X283500Y290304D01*
Y291696D01*
X282967Y292983D01*
X281983Y293967D01*
X280696Y294500D01*
D02*
G37*
G36*
X907796Y295000D02*
X906204D01*
X904734Y294391D01*
X903609Y293266D01*
X903000Y291796D01*
Y290204D01*
X903609Y288734D01*
X904734Y287609D01*
X906204Y287000D01*
X907796D01*
X909266Y287609D01*
X910391Y288734D01*
X911000Y290204D01*
Y291796D01*
X910391Y293266D01*
X909266Y294391D01*
X907796Y295000D01*
D02*
G37*
G36*
X503796D02*
X502204D01*
X500734Y294391D01*
X499609Y293266D01*
X499000Y291796D01*
Y290204D01*
X499609Y288734D01*
X500734Y287609D01*
X502204Y287000D01*
X503796D01*
X505266Y287609D01*
X506391Y288734D01*
X507000Y290204D01*
Y291796D01*
X506391Y293266D01*
X505266Y294391D01*
X503796Y295000D01*
D02*
G37*
G36*
X362995Y297000D02*
X361006D01*
X359168Y296239D01*
X357761Y294832D01*
X357000Y292995D01*
Y291005D01*
X357761Y289168D01*
X359168Y287761D01*
X361006Y287000D01*
X362995D01*
X364832Y287761D01*
X366239Y289168D01*
X367000Y291005D01*
Y292995D01*
X366239Y294832D01*
X364832Y296239D01*
X362995Y297000D01*
D02*
G37*
G36*
X478696Y292500D02*
X477304D01*
X476017Y291967D01*
X475033Y290983D01*
X474500Y289696D01*
Y288304D01*
X475033Y287017D01*
X476017Y286033D01*
X477304Y285500D01*
X478696D01*
X479983Y286033D01*
X480967Y287017D01*
X481500Y288304D01*
Y289696D01*
X480967Y290983D01*
X479983Y291967D01*
X478696Y292500D01*
D02*
G37*
G36*
X439696Y285500D02*
X438304D01*
X437017Y284967D01*
X436033Y283983D01*
X435673Y283115D01*
X434327D01*
X433967Y283983D01*
X432983Y284967D01*
X431696Y285500D01*
X430304D01*
X429017Y284967D01*
X428033Y283983D01*
X427928Y283729D01*
X426456Y283494D01*
X425983Y283967D01*
X424696Y284500D01*
X423304D01*
X422017Y283967D01*
X421033Y282983D01*
X420500Y281696D01*
Y280304D01*
X421033Y279017D01*
X422017Y278033D01*
X423304Y277500D01*
X424696D01*
X425983Y278033D01*
X426967Y279017D01*
X427072Y279271D01*
X428544Y279506D01*
X429017Y279033D01*
X430304Y278500D01*
X431696D01*
X432983Y279033D01*
X433967Y280017D01*
X434327Y280885D01*
X435673D01*
X436033Y280017D01*
X437017Y279033D01*
X438304Y278500D01*
X439696D01*
X440983Y279033D01*
X441967Y280017D01*
X442500Y281304D01*
Y282696D01*
X441967Y283983D01*
X440983Y284967D01*
X439696Y285500D01*
D02*
G37*
G36*
X870796Y291000D02*
X869204D01*
X867734Y290391D01*
X866609Y289266D01*
X866000Y287796D01*
Y286204D01*
X866609Y284734D01*
X867734Y283609D01*
X869204Y283000D01*
X870796D01*
X872266Y283609D01*
X873391Y284734D01*
X874000Y286204D01*
Y287796D01*
X873391Y289266D01*
X872266Y290391D01*
X870796Y291000D01*
D02*
G37*
G36*
X850796D02*
X849204D01*
X847734Y290391D01*
X846609Y289266D01*
X846000Y287796D01*
Y286204D01*
X846609Y284734D01*
X847734Y283609D01*
X849204Y283000D01*
X850796D01*
X852266Y283609D01*
X853391Y284734D01*
X854000Y286204D01*
Y287796D01*
X853391Y289266D01*
X852266Y290391D01*
X850796Y291000D01*
D02*
G37*
G36*
X773796Y288000D02*
X772204D01*
X770734Y287391D01*
X769609Y286266D01*
X769000Y284796D01*
Y283204D01*
X769609Y281734D01*
X770734Y280609D01*
X772204Y280000D01*
X773796D01*
X775266Y280609D01*
X776391Y281734D01*
X777000Y283204D01*
Y284796D01*
X776391Y286266D01*
X775266Y287391D01*
X773796Y288000D01*
D02*
G37*
G36*
X801796Y287000D02*
X800204D01*
X798734Y286391D01*
X797609Y285266D01*
X797000Y283796D01*
Y282204D01*
X797609Y280734D01*
X798734Y279609D01*
X800204Y279000D01*
X801796D01*
X803266Y279609D01*
X804391Y280734D01*
X805000Y282204D01*
Y283796D01*
X804391Y285266D01*
X803266Y286391D01*
X801796Y287000D01*
D02*
G37*
G36*
X453696Y286500D02*
X452304D01*
X451017Y285967D01*
X450033Y284983D01*
X449500Y283696D01*
Y282304D01*
X450033Y281017D01*
X451017Y280033D01*
X452304Y279500D01*
X453458D01*
X454046Y279046D01*
X454500Y278458D01*
Y277304D01*
X455033Y276017D01*
X456017Y275033D01*
X457304Y274500D01*
X458696D01*
X459983Y275033D01*
X460967Y276017D01*
X461500Y277304D01*
Y278696D01*
X460967Y279983D01*
X459983Y280967D01*
X458696Y281500D01*
X457542D01*
X456954Y281954D01*
X456500Y282542D01*
Y283696D01*
X455967Y284983D01*
X454983Y285967D01*
X453696Y286500D01*
D02*
G37*
G36*
X518796Y279000D02*
X517204D01*
X515734Y278391D01*
X514609Y277266D01*
X514000Y275796D01*
Y274204D01*
X514609Y272734D01*
X515734Y271609D01*
X517204Y271000D01*
X518796D01*
X520266Y271609D01*
X521391Y272734D01*
X522000Y274204D01*
Y275796D01*
X521391Y277266D01*
X520266Y278391D01*
X518796Y279000D01*
D02*
G37*
G36*
X280696Y276500D02*
X279304D01*
X278017Y275967D01*
X277033Y274983D01*
X276500Y273696D01*
Y272304D01*
X277033Y271017D01*
X278017Y270033D01*
X279304Y269500D01*
X280696D01*
X281983Y270033D01*
X282967Y271017D01*
X283500Y272304D01*
Y273696D01*
X282967Y274983D01*
X281983Y275967D01*
X280696Y276500D01*
D02*
G37*
G36*
X456796Y270000D02*
X455204D01*
X453734Y269391D01*
X452720Y268377D01*
X452000Y268317D01*
X451280Y268377D01*
X450266Y269391D01*
X448796Y270000D01*
X447204D01*
X445734Y269391D01*
X444609Y268266D01*
X444000Y266796D01*
Y265204D01*
X444609Y263734D01*
X445734Y262609D01*
X447204Y262000D01*
X448796D01*
X450266Y262609D01*
X451280Y263623D01*
X452000Y263683D01*
X452720Y263623D01*
X453734Y262609D01*
X455204Y262000D01*
X456796D01*
X458266Y262609D01*
X459391Y263734D01*
X460000Y265204D01*
Y266796D01*
X459391Y268266D01*
X458266Y269391D01*
X456796Y270000D01*
D02*
G37*
G36*
X359995Y276000D02*
X358005D01*
X356168Y275239D01*
X354761Y273832D01*
X354000Y271995D01*
Y270005D01*
X354761Y268168D01*
X356168Y266761D01*
X358005Y266000D01*
X359995D01*
X361832Y266761D01*
X363239Y268168D01*
X364000Y270005D01*
Y271995D01*
X363239Y273832D01*
X361832Y275239D01*
X359995Y276000D01*
D02*
G37*
G36*
X785796Y273000D02*
X784204D01*
X782734Y272391D01*
X781609Y271266D01*
X781000Y269796D01*
Y268204D01*
X781609Y266734D01*
X782734Y265609D01*
X784204Y265000D01*
X785796D01*
X787266Y265609D01*
X788391Y266734D01*
X789000Y268204D01*
Y269796D01*
X788391Y271266D01*
X787266Y272391D01*
X785796Y273000D01*
D02*
G37*
G36*
X772796D02*
X771204D01*
X769734Y272391D01*
X768609Y271266D01*
X768000Y269796D01*
Y268204D01*
X768609Y266734D01*
X769734Y265609D01*
X771204Y265000D01*
X772796D01*
X774266Y265609D01*
X775391Y266734D01*
X776000Y268204D01*
Y269796D01*
X775391Y271266D01*
X774266Y272391D01*
X772796Y273000D01*
D02*
G37*
G36*
X639796Y268000D02*
X638204D01*
X636734Y267391D01*
X635609Y266266D01*
X635000Y264796D01*
Y263204D01*
X635609Y261734D01*
X636734Y260609D01*
X638204Y260000D01*
X639796D01*
X641266Y260609D01*
X642391Y261734D01*
X643000Y263204D01*
Y264796D01*
X642391Y266266D01*
X641266Y267391D01*
X639796Y268000D01*
D02*
G37*
G36*
X623796D02*
X622204D01*
X620734Y267391D01*
X619609Y266266D01*
X619000Y264796D01*
Y263204D01*
X619609Y261734D01*
X620734Y260609D01*
X622204Y260000D01*
X623796D01*
X625266Y260609D01*
X626391Y261734D01*
X627000Y263204D01*
Y264796D01*
X626391Y266266D01*
X625266Y267391D01*
X623796Y268000D01*
D02*
G37*
G36*
X814796Y266000D02*
X813204D01*
X811734Y265391D01*
X810609Y264266D01*
X810000Y262796D01*
Y261204D01*
X810609Y259734D01*
X811734Y258609D01*
X813204Y258000D01*
X814796D01*
X816266Y258609D01*
X817391Y259734D01*
X818000Y261204D01*
Y262796D01*
X817391Y264266D01*
X816266Y265391D01*
X814796Y266000D01*
D02*
G37*
G36*
X795796D02*
X794204D01*
X792734Y265391D01*
X791609Y264266D01*
X791000Y262796D01*
Y261204D01*
X791609Y259734D01*
X792734Y258609D01*
X794204Y258000D01*
X795796D01*
X797266Y258609D01*
X798391Y259734D01*
X799000Y261204D01*
Y262796D01*
X798391Y264266D01*
X797266Y265391D01*
X795796Y266000D01*
D02*
G37*
G36*
X631796Y261000D02*
X630204D01*
X628734Y260391D01*
X627609Y259266D01*
X627000Y257796D01*
Y256204D01*
X627609Y254734D01*
X628734Y253609D01*
X630204Y253000D01*
X631796D01*
X633266Y253609D01*
X634391Y254734D01*
X635000Y256204D01*
Y257796D01*
X634391Y259266D01*
X633266Y260391D01*
X631796Y261000D01*
D02*
G37*
G36*
X602946Y259500D02*
X601554D01*
X600267Y258967D01*
X599283Y257983D01*
X598750Y256696D01*
Y255304D01*
X599283Y254017D01*
X600267Y253033D01*
X601554Y252500D01*
X602946D01*
X604233Y253033D01*
X605217Y254017D01*
X605750Y255304D01*
Y256696D01*
X605217Y257983D01*
X604233Y258967D01*
X602946Y259500D01*
D02*
G37*
G36*
X280696Y259500D02*
X279304D01*
X278017Y258967D01*
X277033Y257983D01*
X276500Y256696D01*
Y255304D01*
X277033Y254017D01*
X278017Y253033D01*
X279304Y252500D01*
X280696D01*
X281983Y253033D01*
X282967Y254017D01*
X283500Y255304D01*
Y256696D01*
X282967Y257983D01*
X281983Y258967D01*
X280696Y259500D01*
D02*
G37*
G36*
X724796Y260000D02*
X723204D01*
X721734Y259391D01*
X720609Y258266D01*
X720000Y256796D01*
Y255204D01*
X720609Y253734D01*
X721734Y252609D01*
X723204Y252000D01*
X724796D01*
X726266Y252609D01*
X727391Y253734D01*
X728000Y255204D01*
Y256796D01*
X727391Y258266D01*
X726266Y259391D01*
X724796Y260000D01*
D02*
G37*
G36*
X199796D02*
X198204D01*
X196734Y259391D01*
X195609Y258266D01*
X195000Y256796D01*
Y255204D01*
X195609Y253734D01*
X196734Y252609D01*
X198204Y252000D01*
X199796D01*
X201266Y252609D01*
X202391Y253734D01*
X203000Y255204D01*
Y256796D01*
X202391Y258266D01*
X201266Y259391D01*
X199796Y260000D01*
D02*
G37*
G36*
X465796Y258000D02*
X464204D01*
X462734Y257391D01*
X461609Y256266D01*
X461000Y254796D01*
Y253204D01*
X461609Y251734D01*
X462734Y250609D01*
X464204Y250000D01*
X465796D01*
X467266Y250609D01*
X468391Y251734D01*
X469000Y253204D01*
Y254796D01*
X468391Y256266D01*
X467266Y257391D01*
X465796Y258000D01*
D02*
G37*
G36*
X434796Y256000D02*
X433204D01*
X431734Y255391D01*
X430609Y254266D01*
X430000Y252796D01*
Y251204D01*
X430609Y249734D01*
X431734Y248609D01*
X433204Y248000D01*
X434796D01*
X436266Y248609D01*
X437391Y249734D01*
X438000Y251204D01*
Y252796D01*
X437391Y254266D01*
X436266Y255391D01*
X434796Y256000D01*
D02*
G37*
G36*
X573296Y261500D02*
X571704D01*
X570234Y260891D01*
X569109Y259766D01*
X568500Y258296D01*
Y256704D01*
X569109Y255234D01*
X570234Y254109D01*
X571704Y253500D01*
X573296D01*
X573725Y253678D01*
X574444Y252601D01*
X574109Y252266D01*
X573500Y250796D01*
Y249204D01*
X574109Y247734D01*
X574444Y247399D01*
X573725Y246322D01*
X573296Y246500D01*
X571704D01*
X570234Y245891D01*
X569109Y244766D01*
X568500Y243296D01*
Y241704D01*
X569109Y240234D01*
X570234Y239109D01*
X571704Y238500D01*
X573296D01*
X574766Y239109D01*
X575891Y240234D01*
X576500Y241704D01*
Y243296D01*
X575891Y244766D01*
X575556Y245101D01*
X576275Y246178D01*
X576704Y246000D01*
X578296D01*
X579766Y246609D01*
X580891Y247734D01*
X581500Y249204D01*
Y250796D01*
X580891Y252266D01*
X579766Y253391D01*
X578296Y254000D01*
X576704D01*
X576275Y253822D01*
X575556Y254899D01*
X575891Y255234D01*
X576500Y256704D01*
Y258296D01*
X575891Y259766D01*
X574766Y260891D01*
X573296Y261500D01*
D02*
G37*
G36*
X801796Y252000D02*
X800204D01*
X798734Y251391D01*
X797609Y250266D01*
X797000Y248796D01*
Y247204D01*
X797609Y245734D01*
X798734Y244609D01*
X800204Y244000D01*
X801796D01*
X803266Y244609D01*
X804391Y245734D01*
X805000Y247204D01*
Y248796D01*
X804391Y250266D01*
X803266Y251391D01*
X801796Y252000D01*
D02*
G37*
G36*
X789796D02*
X788204D01*
X786734Y251391D01*
X785609Y250266D01*
X785000Y248796D01*
Y247204D01*
X785609Y245734D01*
X786734Y244609D01*
X788204Y244000D01*
X789796D01*
X791266Y244609D01*
X792391Y245734D01*
X793000Y247204D01*
Y248796D01*
X792391Y250266D01*
X791266Y251391D01*
X789796Y252000D01*
D02*
G37*
G36*
X712796Y250000D02*
X711204D01*
X709734Y249391D01*
X708609Y248266D01*
X708000Y246796D01*
Y245204D01*
X708609Y243734D01*
X709734Y242609D01*
X711204Y242000D01*
X712796D01*
X714266Y242609D01*
X715391Y243734D01*
X716000Y245204D01*
Y246796D01*
X715391Y248266D01*
X714266Y249391D01*
X712796Y250000D01*
D02*
G37*
G36*
X765696Y248500D02*
X764304D01*
X763017Y247967D01*
X762033Y246983D01*
X761500Y245696D01*
Y244304D01*
X762033Y243017D01*
X763017Y242033D01*
X764304Y241500D01*
X765696D01*
X766983Y242033D01*
X767967Y243017D01*
X768500Y244304D01*
Y245696D01*
X767967Y246983D01*
X766983Y247967D01*
X765696Y248500D01*
D02*
G37*
G36*
X622796Y249000D02*
X621204D01*
X619734Y248391D01*
X618609Y247266D01*
X618000Y245796D01*
Y244204D01*
X618609Y242734D01*
X619734Y241609D01*
X621204Y241000D01*
X622796D01*
X624266Y241609D01*
X625391Y242734D01*
X626000Y244204D01*
Y245796D01*
X625391Y247266D01*
X624266Y248391D01*
X622796Y249000D01*
D02*
G37*
G36*
X609796D02*
X608204D01*
X606734Y248391D01*
X605609Y247266D01*
X605000Y245796D01*
Y244204D01*
X605609Y242734D01*
X606734Y241609D01*
X608204Y241000D01*
X609796D01*
X611266Y241609D01*
X612391Y242734D01*
X613000Y244204D01*
Y245796D01*
X612391Y247266D01*
X611266Y248391D01*
X609796Y249000D01*
D02*
G37*
G36*
X201796Y247000D02*
X200204D01*
X198734Y246391D01*
X197609Y245266D01*
X197000Y243796D01*
Y242204D01*
X197609Y240734D01*
X198734Y239609D01*
X200204Y239000D01*
X201796D01*
X203266Y239609D01*
X204391Y240734D01*
X205000Y242204D01*
Y243796D01*
X204391Y245266D01*
X203266Y246391D01*
X201796Y247000D01*
D02*
G37*
G36*
X280696Y244500D02*
X279304D01*
X278017Y243967D01*
X277033Y242983D01*
X276500Y241696D01*
Y240304D01*
X277033Y239017D01*
X278017Y238033D01*
X279304Y237500D01*
X280696D01*
X281983Y238033D01*
X282967Y239017D01*
X283500Y240304D01*
Y241696D01*
X282967Y242983D01*
X281983Y243967D01*
X280696Y244500D01*
D02*
G37*
G36*
X432796Y245000D02*
X431204D01*
X429734Y244391D01*
X428609Y243266D01*
X428000Y241796D01*
Y240204D01*
X428609Y238734D01*
X429734Y237609D01*
X431204Y237000D01*
X432796D01*
X434266Y237609D01*
X435391Y238734D01*
X436000Y240204D01*
Y241796D01*
X435391Y243266D01*
X434266Y244391D01*
X432796Y245000D01*
D02*
G37*
G36*
X795796Y243000D02*
X794204D01*
X792734Y242391D01*
X791609Y241266D01*
X791000Y239796D01*
Y238204D01*
X791609Y236734D01*
X792734Y235609D01*
X794204Y235000D01*
X795796D01*
X797266Y235609D01*
X798391Y236734D01*
X799000Y238204D01*
Y239796D01*
X798391Y241266D01*
X797266Y242391D01*
X795796Y243000D01*
D02*
G37*
G36*
X581696Y241500D02*
X580304D01*
X579017Y240967D01*
X578033Y239983D01*
X577500Y238696D01*
Y237304D01*
X578033Y236017D01*
X579017Y235033D01*
X580304Y234500D01*
X581696D01*
X582983Y235033D01*
X583967Y236017D01*
X584500Y237304D01*
Y238696D01*
X583967Y239983D01*
X582983Y240967D01*
X581696Y241500D01*
D02*
G37*
G36*
X706796Y241000D02*
X705204D01*
X703734Y240391D01*
X702609Y239266D01*
X702000Y237796D01*
Y236204D01*
X702609Y234734D01*
X703734Y233609D01*
X705204Y233000D01*
X706796D01*
X708266Y233609D01*
X709391Y234734D01*
X710000Y236204D01*
Y237796D01*
X709391Y239266D01*
X708266Y240391D01*
X706796Y241000D01*
D02*
G37*
G36*
X897796Y240000D02*
X896204D01*
X894734Y239391D01*
X893609Y238266D01*
X893000Y236796D01*
Y235204D01*
X893609Y233734D01*
X894734Y232609D01*
X896204Y232000D01*
X897796D01*
X899266Y232609D01*
X900391Y233734D01*
X901000Y235204D01*
Y236796D01*
X900391Y238266D01*
X899266Y239391D01*
X897796Y240000D01*
D02*
G37*
G36*
X615796Y239000D02*
X614204D01*
X612734Y238391D01*
X611609Y237266D01*
X611000Y235796D01*
Y234204D01*
X611609Y232734D01*
X612734Y231609D01*
X614204Y231000D01*
X615796D01*
X617266Y231609D01*
X618391Y232734D01*
X619000Y234204D01*
Y235796D01*
X618391Y237266D01*
X617266Y238391D01*
X615796Y239000D01*
D02*
G37*
G36*
X209796Y237000D02*
X208204D01*
X206734Y236391D01*
X205609Y235266D01*
X205000Y233796D01*
Y232204D01*
X205609Y230734D01*
X206734Y229609D01*
X208204Y229000D01*
X209796D01*
X211266Y229609D01*
X212391Y230734D01*
X213000Y232204D01*
Y233796D01*
X212391Y235266D01*
X211266Y236391D01*
X209796Y237000D01*
D02*
G37*
G36*
X823696Y235750D02*
X822304D01*
X821017Y235217D01*
X820033Y234233D01*
X819500Y232946D01*
Y231554D01*
X820033Y230267D01*
X821017Y229283D01*
X822304Y228750D01*
X823696D01*
X824983Y229283D01*
X825967Y230267D01*
X826500Y231554D01*
Y232946D01*
X825967Y234233D01*
X824983Y235217D01*
X823696Y235750D01*
D02*
G37*
G36*
X643696Y234500D02*
X642304D01*
X641017Y233967D01*
X640033Y232983D01*
X639500Y231696D01*
Y230304D01*
X640033Y229017D01*
X641017Y228033D01*
X642304Y227500D01*
X643696D01*
X644983Y228033D01*
X645967Y229017D01*
X646500Y230304D01*
Y231696D01*
X645967Y232983D01*
X644983Y233967D01*
X643696Y234500D01*
D02*
G37*
G36*
X724796Y233000D02*
X723204D01*
X721734Y232391D01*
X720609Y231266D01*
X720000Y229796D01*
Y228204D01*
X720609Y226734D01*
X721734Y225609D01*
X723204Y225000D01*
X724796D01*
X726266Y225609D01*
X727391Y226734D01*
X728000Y228204D01*
Y229796D01*
X727391Y231266D01*
X726266Y232391D01*
X724796Y233000D01*
D02*
G37*
G36*
X547796Y232000D02*
X546204D01*
X544734Y231391D01*
X543609Y230266D01*
X543000Y228796D01*
Y227204D01*
X543609Y225734D01*
X544734Y224609D01*
X546204Y224000D01*
X547796D01*
X549266Y224609D01*
X550391Y225734D01*
X551000Y227204D01*
Y228796D01*
X550391Y230266D01*
X549266Y231391D01*
X547796Y232000D01*
D02*
G37*
G36*
X432796Y231000D02*
X431204D01*
X429734Y230391D01*
X428609Y229266D01*
X428000Y227796D01*
Y226204D01*
X428609Y224734D01*
X429734Y223609D01*
X431204Y223000D01*
X432796D01*
X434266Y223609D01*
X435391Y224734D01*
X436000Y226204D01*
Y227796D01*
X435391Y229266D01*
X434266Y230391D01*
X432796Y231000D01*
D02*
G37*
G36*
X802796Y230000D02*
X801204D01*
X799734Y229391D01*
X798609Y228266D01*
X798000Y226796D01*
Y225204D01*
X798609Y223734D01*
X799734Y222609D01*
X801204Y222000D01*
X802796D01*
X804266Y222609D01*
X805391Y223734D01*
X806000Y225204D01*
Y226796D01*
X805391Y228266D01*
X804266Y229391D01*
X802796Y230000D01*
D02*
G37*
G36*
X788796D02*
X787204D01*
X785734Y229391D01*
X784609Y228266D01*
X784000Y226796D01*
Y225204D01*
X784609Y223734D01*
X785734Y222609D01*
X787204Y222000D01*
X788796D01*
X790266Y222609D01*
X791391Y223734D01*
X792000Y225204D01*
Y226796D01*
X791391Y228266D01*
X790266Y229391D01*
X788796Y230000D01*
D02*
G37*
G36*
X411796D02*
X410204D01*
X408734Y229391D01*
X407609Y228266D01*
X407000Y226796D01*
Y225204D01*
X407609Y223734D01*
X408734Y222609D01*
X410204Y222000D01*
X411796D01*
X413266Y222609D01*
X414391Y223734D01*
X415000Y225204D01*
Y226796D01*
X414391Y228266D01*
X413266Y229391D01*
X411796Y230000D01*
D02*
G37*
G36*
X897796Y229000D02*
X896204D01*
X894734Y228391D01*
X893609Y227266D01*
X893000Y225796D01*
Y224204D01*
X893609Y222734D01*
X894734Y221609D01*
X896204Y221000D01*
X897796D01*
X899266Y221609D01*
X900391Y222734D01*
X901000Y224204D01*
Y225796D01*
X900391Y227266D01*
X899266Y228391D01*
X897796Y229000D01*
D02*
G37*
G36*
X765796D02*
X764204D01*
X762734Y228391D01*
X761609Y227266D01*
X761000Y225796D01*
Y224204D01*
X761609Y222734D01*
X762734Y221609D01*
X764204Y221000D01*
X765796D01*
X767266Y221609D01*
X768391Y222734D01*
X769000Y224204D01*
Y225796D01*
X768391Y227266D01*
X767266Y228391D01*
X765796Y229000D01*
D02*
G37*
G36*
X622796D02*
X621204D01*
X619734Y228391D01*
X618609Y227266D01*
X618000Y225796D01*
Y224204D01*
X618609Y222734D01*
X619734Y221609D01*
X621204Y221000D01*
X622796D01*
X624266Y221609D01*
X625391Y222734D01*
X626000Y224204D01*
Y225796D01*
X625391Y227266D01*
X624266Y228391D01*
X622796Y229000D01*
D02*
G37*
G36*
X609796D02*
X608204D01*
X606734Y228391D01*
X605609Y227266D01*
X605000Y225796D01*
Y224204D01*
X605609Y222734D01*
X606734Y221609D01*
X608204Y221000D01*
X609796D01*
X611266Y221609D01*
X612391Y222734D01*
X613000Y224204D01*
Y225796D01*
X612391Y227266D01*
X611266Y228391D01*
X609796Y229000D01*
D02*
G37*
G36*
X520796Y224000D02*
X519204D01*
X517734Y223391D01*
X516609Y222266D01*
X516000Y220796D01*
Y219204D01*
X516609Y217734D01*
X517734Y216609D01*
X519204Y216000D01*
X520796D01*
X522266Y216609D01*
X523391Y217734D01*
X524000Y219204D01*
Y220796D01*
X523391Y222266D01*
X522266Y223391D01*
X520796Y224000D01*
D02*
G37*
G36*
X333796Y224000D02*
X332204D01*
X330734Y223391D01*
X329609Y222266D01*
X329000Y220796D01*
Y219204D01*
X329609Y217734D01*
X330734Y216609D01*
X332204Y216000D01*
X333796D01*
X335266Y216609D01*
X336391Y217734D01*
X337000Y219204D01*
Y220796D01*
X336391Y222266D01*
X335266Y223391D01*
X333796Y224000D01*
D02*
G37*
G36*
X302796Y223000D02*
X301204D01*
X299734Y222391D01*
X298609Y221266D01*
X298000Y219796D01*
Y218204D01*
X298609Y216734D01*
X299734Y215609D01*
X301204Y215000D01*
X302796D01*
X304266Y215609D01*
X305391Y216734D01*
X306000Y218204D01*
Y219796D01*
X305391Y221266D01*
X304266Y222391D01*
X302796Y223000D01*
D02*
G37*
G36*
X745796Y222000D02*
X744204D01*
X742734Y221391D01*
X741609Y220266D01*
X741000Y218796D01*
Y217204D01*
X741609Y215734D01*
X742734Y214609D01*
X744204Y214000D01*
X745796D01*
X747266Y214609D01*
X748391Y215734D01*
X749000Y217204D01*
Y218796D01*
X748391Y220266D01*
X747266Y221391D01*
X745796Y222000D01*
D02*
G37*
G36*
X547796Y221000D02*
X546204D01*
X544734Y220391D01*
X543609Y219266D01*
X543000Y217796D01*
Y216204D01*
X543609Y214734D01*
X544734Y213609D01*
X546204Y213000D01*
X547796D01*
X549266Y213609D01*
X550391Y214734D01*
X551000Y216204D01*
Y217796D01*
X550391Y219266D01*
X549266Y220391D01*
X547796Y221000D01*
D02*
G37*
G36*
X897796Y219000D02*
X896204D01*
X894734Y218391D01*
X893609Y217266D01*
X893000Y215796D01*
Y214204D01*
X893609Y212734D01*
X894734Y211609D01*
X896204Y211000D01*
X897796D01*
X899266Y211609D01*
X900391Y212734D01*
X901000Y214204D01*
Y215796D01*
X900391Y217266D01*
X899266Y218391D01*
X897796Y219000D01*
D02*
G37*
G36*
X634796D02*
X633204D01*
X631734Y218391D01*
X630609Y217266D01*
X630000Y215796D01*
Y214204D01*
X630609Y212734D01*
X631734Y211609D01*
X633204Y211000D01*
X634796D01*
X636266Y211609D01*
X637391Y212734D01*
X638000Y214204D01*
Y215796D01*
X637391Y217266D01*
X636266Y218391D01*
X634796Y219000D01*
D02*
G37*
G36*
X596796Y218000D02*
X595204D01*
X593734Y217391D01*
X592609Y216266D01*
X592000Y214796D01*
Y213204D01*
X592609Y211734D01*
X593734Y210609D01*
X595204Y210000D01*
X596796D01*
X598266Y210609D01*
X599391Y211734D01*
X600000Y213204D01*
Y214796D01*
X599391Y216266D01*
X598266Y217391D01*
X596796Y218000D01*
D02*
G37*
G36*
X875796Y217000D02*
X874204D01*
X872734Y216391D01*
X871609Y215266D01*
X871000Y213796D01*
Y212204D01*
X871609Y210734D01*
X872734Y209609D01*
X874204Y209000D01*
X875796D01*
X877266Y209609D01*
X878391Y210734D01*
X879000Y212204D01*
Y213796D01*
X878391Y215266D01*
X877266Y216391D01*
X875796Y217000D01*
D02*
G37*
G36*
X854796D02*
X853204D01*
X851734Y216391D01*
X850609Y215266D01*
X850000Y213796D01*
Y212204D01*
X850609Y210734D01*
X851734Y209609D01*
X853204Y209000D01*
X854796D01*
X856266Y209609D01*
X857391Y210734D01*
X858000Y212204D01*
Y213796D01*
X857391Y215266D01*
X856266Y216391D01*
X854796Y217000D01*
D02*
G37*
G36*
X832796D02*
X831204D01*
X829734Y216391D01*
X828609Y215266D01*
X828000Y213796D01*
Y212204D01*
X828609Y210734D01*
X829734Y209609D01*
X831204Y209000D01*
X832796D01*
X834266Y209609D01*
X835391Y210734D01*
X836000Y212204D01*
Y213796D01*
X835391Y215266D01*
X834266Y216391D01*
X832796Y217000D01*
D02*
G37*
G36*
X822796D02*
X821204D01*
X819734Y216391D01*
X818609Y215266D01*
X818000Y213796D01*
Y212204D01*
X818609Y210734D01*
X819734Y209609D01*
X821204Y209000D01*
X822796D01*
X824266Y209609D01*
X825391Y210734D01*
X826000Y212204D01*
Y213796D01*
X825391Y215266D01*
X824266Y216391D01*
X822796Y217000D01*
D02*
G37*
G36*
X807796D02*
X806204D01*
X804734Y216391D01*
X803609Y215266D01*
X803000Y213796D01*
Y212204D01*
X803609Y210734D01*
X804734Y209609D01*
X806204Y209000D01*
X807796D01*
X809266Y209609D01*
X810391Y210734D01*
X811000Y212204D01*
Y213796D01*
X810391Y215266D01*
X809266Y216391D01*
X807796Y217000D01*
D02*
G37*
G36*
X719796Y221000D02*
X718204D01*
X716734Y220391D01*
X715609Y219266D01*
X715000Y217796D01*
Y216204D01*
X715609Y214734D01*
X716734Y213609D01*
X717786Y213173D01*
Y211827D01*
X716734Y211391D01*
X715609Y210266D01*
X715000Y208796D01*
Y207204D01*
X715609Y205734D01*
X716734Y204609D01*
X718204Y204000D01*
X719796D01*
X721266Y204609D01*
X722391Y205734D01*
X723000Y207204D01*
Y208796D01*
X722391Y210266D01*
X721266Y211391D01*
X720214Y211827D01*
Y213173D01*
X721266Y213609D01*
X722391Y214734D01*
X723000Y216204D01*
Y217796D01*
X722391Y219266D01*
X721266Y220391D01*
X719796Y221000D01*
D02*
G37*
G36*
X708796Y212000D02*
X707204D01*
X705734Y211391D01*
X704609Y210266D01*
X704000Y208796D01*
Y207204D01*
X704609Y205734D01*
X705734Y204609D01*
X707204Y204000D01*
X708796D01*
X710266Y204609D01*
X711391Y205734D01*
X712000Y207204D01*
Y208796D01*
X711391Y210266D01*
X710266Y211391D01*
X708796Y212000D01*
D02*
G37*
%LPD*%
G36*
X726955Y475400D02*
X726827Y475514D01*
X726677Y475616D01*
X726506Y475706D01*
X726312Y475784D01*
X726098Y475850D01*
X725861Y475904D01*
X725603Y475946D01*
X725324Y475976D01*
X724700Y476000D01*
Y479000D01*
X725023Y479006D01*
X725603Y479054D01*
X725861Y479096D01*
X726098Y479150D01*
X726312Y479216D01*
X726506Y479294D01*
X726677Y479384D01*
X726827Y479486D01*
X726955Y479600D01*
Y475400D01*
D02*
G37*
G36*
X514970Y414000D02*
X514799Y413990D01*
X514620Y413956D01*
X514435Y413898D01*
X514244Y413817D01*
X514045Y413712D01*
X513840Y413583D01*
X513628Y413430D01*
X513409Y413254D01*
X512951Y412830D01*
X510829Y414951D01*
X511053Y415183D01*
X511430Y415628D01*
X511583Y415840D01*
X511712Y416045D01*
X511817Y416244D01*
X511898Y416435D01*
X511956Y416620D01*
X511990Y416799D01*
X512000Y416970D01*
X514970Y414000D01*
D02*
G37*
G36*
X463271Y408986D02*
X463421Y408884D01*
X463592Y408794D01*
X463786Y408716D01*
X464000Y408650D01*
X464237Y408596D01*
X464495Y408554D01*
X464774Y408524D01*
X465398Y408500D01*
Y405500D01*
X465075Y405494D01*
X464495Y405446D01*
X464237Y405404D01*
X464000Y405350D01*
X463786Y405284D01*
X463592Y405206D01*
X463421Y405116D01*
X463271Y405014D01*
X463142Y404900D01*
Y409100D01*
X463271Y408986D01*
D02*
G37*
%LPC*%
G36*
X809796Y695000D02*
X808204D01*
X806734Y694391D01*
X805609Y693266D01*
X805000Y691796D01*
Y690204D01*
X805609Y688734D01*
X806734Y687609D01*
X808204Y687000D01*
X809796D01*
X811266Y687609D01*
X812391Y688734D01*
X813000Y690204D01*
Y691796D01*
X812391Y693266D01*
X811266Y694391D01*
X809796Y695000D01*
D02*
G37*
G36*
X810796Y676000D02*
X809204D01*
X807734Y675391D01*
X806609Y674266D01*
X806000Y672796D01*
Y671204D01*
X806609Y669734D01*
X807734Y668609D01*
X809204Y668000D01*
X810796D01*
X812266Y668609D01*
X813391Y669734D01*
X814000Y671204D01*
Y672796D01*
X813391Y674266D01*
X812266Y675391D01*
X810796Y676000D01*
D02*
G37*
G36*
X749796Y662000D02*
X748204D01*
X746734Y661391D01*
X745609Y660266D01*
X745000Y658796D01*
Y657204D01*
X745609Y655734D01*
X746734Y654609D01*
X748204Y654000D01*
X749796D01*
X751266Y654609D01*
X752391Y655734D01*
X753000Y657204D01*
Y658796D01*
X752391Y660266D01*
X751266Y661391D01*
X749796Y662000D01*
D02*
G37*
G36*
X759796Y654000D02*
X758204D01*
X756734Y653391D01*
X755609Y652266D01*
X755000Y650796D01*
Y650000D01*
X754204D01*
X752734Y649391D01*
X751609Y648266D01*
X751000Y646796D01*
Y645204D01*
X751609Y643734D01*
X752734Y642609D01*
X754204Y642000D01*
X755796D01*
X757266Y642609D01*
X758391Y643734D01*
X759000Y645204D01*
Y646000D01*
X759796D01*
X761266Y646609D01*
X762391Y647734D01*
X763000Y649204D01*
Y650796D01*
X762391Y652266D01*
X761266Y653391D01*
X759796Y654000D01*
D02*
G37*
G36*
X790796Y639000D02*
X789204D01*
X787734Y638391D01*
X786609Y637266D01*
X786000Y635796D01*
Y634204D01*
X786609Y632734D01*
X787734Y631609D01*
X789204Y631000D01*
X790796D01*
X792266Y631609D01*
X793391Y632734D01*
X794000Y634204D01*
Y635796D01*
X793391Y637266D01*
X792266Y638391D01*
X790796Y639000D01*
D02*
G37*
G36*
X854696Y637500D02*
X853304D01*
X852017Y636967D01*
X851033Y635983D01*
X850500Y634696D01*
Y633304D01*
X851033Y632017D01*
X852017Y631033D01*
X853304Y630500D01*
X854696D01*
X855983Y631033D01*
X856967Y632017D01*
X857500Y633304D01*
Y634696D01*
X856967Y635983D01*
X855983Y636967D01*
X854696Y637500D01*
D02*
G37*
G36*
X779796Y637000D02*
X778204D01*
X776734Y636391D01*
X775609Y635266D01*
X775000Y633796D01*
Y632204D01*
X775609Y630734D01*
X776734Y629609D01*
X778204Y629000D01*
X779796D01*
X781266Y629609D01*
X782391Y630734D01*
X783000Y632204D01*
Y633796D01*
X782391Y635266D01*
X781266Y636391D01*
X779796Y637000D01*
D02*
G37*
G36*
X826796Y632000D02*
X825204D01*
X823734Y631391D01*
X822609Y630266D01*
X822000Y628796D01*
Y627204D01*
X822609Y625734D01*
X823734Y624609D01*
X825204Y624000D01*
X826796D01*
X828266Y624609D01*
X829391Y625734D01*
X830000Y627204D01*
Y628796D01*
X829391Y630266D01*
X828266Y631391D01*
X826796Y632000D01*
D02*
G37*
G36*
X786796Y615000D02*
X785204D01*
X783734Y614391D01*
X782609Y613266D01*
X782000Y611796D01*
Y610204D01*
X782609Y608734D01*
X783734Y607609D01*
X785204Y607000D01*
X786796D01*
X788266Y607609D01*
X789391Y608734D01*
X790000Y610204D01*
Y611796D01*
X789391Y613266D01*
X788266Y614391D01*
X786796Y615000D01*
D02*
G37*
G36*
X745796D02*
X744204D01*
X742734Y614391D01*
X741609Y613266D01*
X741000Y611796D01*
Y610204D01*
X741609Y608734D01*
X742734Y607609D01*
X744204Y607000D01*
X745796D01*
X747266Y607609D01*
X748391Y608734D01*
X749000Y610204D01*
Y611796D01*
X748391Y613266D01*
X747266Y614391D01*
X745796Y615000D01*
D02*
G37*
G36*
X823296Y589000D02*
X821704D01*
X820234Y588391D01*
X819109Y587266D01*
X818500Y585796D01*
Y584204D01*
X819109Y582734D01*
X820234Y581609D01*
X821704Y581000D01*
X823296D01*
X824766Y581609D01*
X825891Y582734D01*
X826500Y584204D01*
Y585796D01*
X825891Y587266D01*
X824766Y588391D01*
X823296Y589000D01*
D02*
G37*
G36*
X762796Y579000D02*
X761204D01*
X759734Y578391D01*
X758609Y577266D01*
X758000Y575796D01*
Y574204D01*
X758609Y572734D01*
X759734Y571609D01*
X761204Y571000D01*
X762796D01*
X764266Y571609D01*
X765391Y572734D01*
X766000Y574204D01*
Y575796D01*
X765391Y577266D01*
X764266Y578391D01*
X762796Y579000D01*
D02*
G37*
G36*
X757696Y567500D02*
X756304D01*
X755017Y566967D01*
X754033Y565983D01*
X753500Y564696D01*
Y563304D01*
X754033Y562017D01*
X755017Y561033D01*
X756304Y560500D01*
X757696D01*
X758983Y561033D01*
X759237Y561287D01*
X759573Y561292D01*
X760661Y560915D01*
X761033Y560017D01*
X762017Y559033D01*
X763304Y558500D01*
X764696D01*
X765983Y559033D01*
X766967Y560017D01*
X767500Y561304D01*
Y562696D01*
X766967Y563983D01*
X765983Y564967D01*
X764696Y565500D01*
X763304D01*
X762017Y564967D01*
X761763Y564713D01*
X761427Y564708D01*
X760339Y565085D01*
X759967Y565983D01*
X758983Y566967D01*
X757696Y567500D01*
D02*
G37*
G36*
X820696Y563500D02*
X819304D01*
X818017Y562967D01*
X817033Y561983D01*
X816500Y560696D01*
Y559542D01*
X816046Y558954D01*
X815458Y558500D01*
X814542D01*
X813954Y558954D01*
X813500Y559542D01*
Y560696D01*
X812967Y561983D01*
X811983Y562967D01*
X810696Y563500D01*
X809304D01*
X808017Y562967D01*
X807033Y561983D01*
X806500Y560696D01*
Y559542D01*
X806046Y558954D01*
X805458Y558500D01*
X804304D01*
X803017Y557967D01*
X802033Y556983D01*
X801500Y555696D01*
Y554304D01*
X802033Y553017D01*
X803017Y552033D01*
X804304Y551500D01*
X805696D01*
X806983Y552033D01*
X807967Y553017D01*
X808500Y554304D01*
Y555458D01*
X808954Y556046D01*
X809542Y556500D01*
X810458D01*
X811046Y556046D01*
X811500Y555458D01*
Y554304D01*
X812033Y553017D01*
X813017Y552033D01*
X814304Y551500D01*
X815696D01*
X816983Y552033D01*
X817967Y553017D01*
X818500Y554304D01*
Y555458D01*
X818954Y556046D01*
X819542Y556500D01*
X820696D01*
X821983Y557033D01*
X822967Y558017D01*
X823500Y559304D01*
Y560696D01*
X822967Y561983D01*
X821983Y562967D01*
X820696Y563500D01*
D02*
G37*
G36*
X863796Y563000D02*
X862204D01*
X860734Y562391D01*
X859609Y561266D01*
X859000Y559796D01*
Y558204D01*
X859609Y556734D01*
X860734Y555609D01*
X862204Y555000D01*
X863796D01*
X865266Y555609D01*
X866391Y556734D01*
X867000Y558204D01*
Y559796D01*
X866391Y561266D01*
X865266Y562391D01*
X863796Y563000D01*
D02*
G37*
G36*
X763796Y557000D02*
X762204D01*
X760734Y556391D01*
X759609Y555266D01*
X759000Y553796D01*
Y552204D01*
X759609Y550734D01*
X760734Y549609D01*
X762204Y549000D01*
X763796D01*
X765266Y549609D01*
X766391Y550734D01*
X767000Y552204D01*
Y553796D01*
X766391Y555266D01*
X765266Y556391D01*
X763796Y557000D01*
D02*
G37*
G36*
X780796Y555000D02*
X779204D01*
X777734Y554391D01*
X776609Y553266D01*
X776000Y551796D01*
Y550204D01*
X776609Y548734D01*
X777734Y547609D01*
X779204Y547000D01*
X780796D01*
X782266Y547609D01*
X783391Y548734D01*
X784000Y550204D01*
Y551796D01*
X783391Y553266D01*
X782266Y554391D01*
X780796Y555000D01*
D02*
G37*
G36*
X840796Y550000D02*
X839204D01*
X837734Y549391D01*
X836609Y548266D01*
X836000Y546796D01*
Y545204D01*
X836609Y543734D01*
X837734Y542609D01*
X839204Y542000D01*
X840796D01*
X842266Y542609D01*
X843391Y543734D01*
X844000Y545204D01*
Y546796D01*
X843391Y548266D01*
X842266Y549391D01*
X840796Y550000D01*
D02*
G37*
G36*
X838696Y517500D02*
X837304D01*
X836017Y516967D01*
X835033Y515983D01*
X834500Y514696D01*
Y513304D01*
X835033Y512017D01*
X836017Y511033D01*
X837304Y510500D01*
X838696D01*
X839983Y511033D01*
X840967Y512017D01*
X841500Y513304D01*
Y514696D01*
X840967Y515983D01*
X839983Y516967D01*
X838696Y517500D01*
D02*
G37*
G36*
X854796Y518000D02*
X853204D01*
X851734Y517391D01*
X850609Y516266D01*
X850000Y514796D01*
Y513204D01*
X850609Y511734D01*
X851734Y510609D01*
X853204Y510000D01*
X854796D01*
X856266Y510609D01*
X857391Y511734D01*
X858000Y513204D01*
Y514796D01*
X857391Y516266D01*
X856266Y517391D01*
X854796Y518000D01*
D02*
G37*
G36*
X791696Y531500D02*
X790304D01*
X789017Y530967D01*
X788033Y529983D01*
X787500Y528696D01*
Y527304D01*
X787721Y526770D01*
X787328Y525575D01*
X787025Y525384D01*
X786017Y524967D01*
X785033Y523983D01*
X784500Y522696D01*
Y521542D01*
X784046Y520954D01*
X783458Y520500D01*
X782304D01*
X781017Y519967D01*
X780033Y518983D01*
X779500Y517696D01*
Y516304D01*
X780033Y515017D01*
X781017Y514033D01*
X782025Y513615D01*
X782328Y513425D01*
X782721Y512230D01*
X782500Y511696D01*
Y510304D01*
X783033Y509017D01*
X784017Y508033D01*
X785304Y507500D01*
X786696D01*
X787983Y508033D01*
X788967Y509017D01*
X789500Y510304D01*
Y511696D01*
X788967Y512983D01*
X787983Y513967D01*
X786975Y514384D01*
X786672Y514575D01*
X786279Y515770D01*
X786500Y516304D01*
Y517458D01*
X786954Y518046D01*
X787542Y518500D01*
X788696D01*
X789983Y519033D01*
X790967Y520017D01*
X791500Y521304D01*
Y522696D01*
X791279Y523230D01*
X791672Y524425D01*
X791975Y524616D01*
X792983Y525033D01*
X793967Y526017D01*
X794500Y527304D01*
Y528696D01*
X793967Y529983D01*
X792983Y530967D01*
X791696Y531500D01*
D02*
G37*
G36*
X776796Y510000D02*
X775204D01*
X773734Y509391D01*
X772609Y508266D01*
X772000Y506796D01*
Y505204D01*
X772609Y503734D01*
X773734Y502609D01*
X775204Y502000D01*
X776796D01*
X778266Y502609D01*
X779391Y503734D01*
X780000Y505204D01*
Y506796D01*
X779391Y508266D01*
X778266Y509391D01*
X776796Y510000D01*
D02*
G37*
G36*
X873296Y504000D02*
X871704D01*
X870234Y503391D01*
X869109Y502266D01*
X868500Y500796D01*
Y499204D01*
X869109Y497734D01*
X870234Y496609D01*
X871704Y496000D01*
X873296D01*
X874766Y496609D01*
X875891Y497734D01*
X876500Y499204D01*
Y500796D01*
X875891Y502266D01*
X874766Y503391D01*
X873296Y504000D01*
D02*
G37*
G36*
X912000D02*
X903500D01*
Y495500D01*
X912000D01*
Y504000D01*
D02*
G37*
G36*
X901500D02*
X893000D01*
Y495500D01*
X901500D01*
Y504000D01*
D02*
G37*
%LPD*%
D10*
X836000Y568000D02*
X869000D01*
X876000Y575000D02*
X909000D01*
X869000Y568000D02*
X876000Y575000D01*
X909000D02*
X914000Y580000D01*
Y653500D01*
X902500Y665000D02*
X914000Y653500D01*
D79*
X836133Y576867D02*
X839000Y574000D01*
X836133Y576867D02*
Y578617D01*
X835750Y579000D02*
X836133Y578617D01*
X839000Y574000D02*
X866000D01*
X549000Y633000D02*
X572000Y656000D01*
X416000Y652000D02*
X435000Y633000D01*
X549000D01*
X419000Y658000D02*
X438000Y639000D01*
X515000D02*
X532000Y656000D01*
X438000Y639000D02*
X515000D01*
X501000Y645000D02*
X512000Y656000D01*
X431000Y664000D02*
X450000Y645000D01*
X501000D01*
X488000Y660000D02*
X492000Y656000D01*
X448000Y670000D02*
X458000Y660000D01*
X488000D01*
X377000Y670000D02*
X448000D01*
X368000Y668000D02*
X372000Y664000D01*
X363000Y668000D02*
X368000D01*
X372000Y664000D02*
X431000D01*
X366000Y658000D02*
X419000D01*
X363000Y661000D02*
X366000Y658000D01*
X371000Y676000D02*
X377000Y670000D01*
X362000Y652000D02*
X416000D01*
X363000Y676000D02*
X371000D01*
X866000Y574000D02*
X886000Y594000D01*
X899253Y645000D02*
X902500D01*
X895907Y641654D02*
X899253Y645000D01*
X894876Y641654D02*
X895907D01*
X879000Y625778D02*
X894876Y641654D01*
X879000Y595000D02*
Y625778D01*
X864000Y580000D02*
X879000Y595000D01*
X842500Y580000D02*
X864000D01*
X900985Y623000D02*
X901000D01*
X886000Y608015D02*
X900985Y623000D01*
X886000Y594000D02*
Y608015D01*
X461000Y407000D02*
X505000D01*
X515000Y417000D01*
X696697Y314303D02*
X697000Y314000D01*
X710000Y477000D02*
X710500Y477500D01*
X709496Y476497D02*
X710000Y477000D01*
X710500Y477500D02*
X729098D01*
D82*
X581500Y599500D02*
X586000Y604000D01*
X530500Y599500D02*
X581500D01*
X586000Y604000D02*
X675000D01*
X700000Y579000D01*
X748000Y531000D01*
X757000Y368000D02*
X760000Y365000D01*
X757000Y368000D02*
Y535500D01*
X720000Y572500D02*
X757000Y535500D01*
X748000Y369000D02*
Y384808D01*
X748500Y385308D01*
X744000Y365000D02*
X748000Y369000D01*
Y391192D02*
Y531000D01*
X748500Y385308D02*
Y390692D01*
X748000Y391192D02*
X748500Y390692D01*
X760000Y344000D02*
Y365000D01*
X744000Y340750D02*
Y365000D01*
X739000Y323000D02*
X760000Y344000D01*
X679000Y614000D02*
X720000Y573000D01*
Y572500D02*
Y573000D01*
X519000Y614000D02*
X679000D01*
X471000Y566000D02*
X519000Y614000D01*
X471000Y558000D02*
Y566000D01*
X469000Y556000D02*
X471000Y558000D01*
X515000Y584000D02*
X530500Y599500D01*
X515000Y575000D02*
Y584000D01*
X732000Y332000D02*
X735250D01*
X744000Y340750D01*
X587809Y315809D02*
X588000Y316000D01*
X739000Y317000D02*
Y323000D01*
D84*
X523500Y693500D02*
X530711Y686289D01*
Y677289D02*
Y686289D01*
X228686Y693500D02*
X523500D01*
X530711Y677289D02*
X532000Y676000D01*
X224000Y650000D02*
Y688814D01*
X182000Y465000D02*
Y608000D01*
X224000Y650000D01*
Y688814D02*
X228686Y693500D01*
X182000Y465000D02*
X198000Y449000D01*
X710500Y477500D02*
Y530500D01*
X677500Y560000D02*
X681000D01*
X710500Y530500D01*
X670000Y567500D02*
X677500Y560000D01*
X725000Y380000D02*
X726000D01*
X717000Y388000D02*
X725000Y380000D01*
X717000Y429000D02*
X725000Y437000D01*
X717000Y388000D02*
Y429000D01*
X670000Y567500D02*
Y568000D01*
X198000Y449000D02*
X201000D01*
X710000Y452000D02*
Y477000D01*
Y452000D02*
X725000Y437000D01*
X201000Y445112D02*
X205000Y441112D01*
X201000Y445112D02*
Y449000D01*
X205000Y441112D02*
X209000Y445112D01*
Y449000D01*
X210000D01*
X201000D02*
X209000D01*
X496500Y516500D02*
X551000Y571000D01*
Y582000D01*
X496500Y432000D02*
Y516500D01*
X482500Y418000D02*
X496500Y432000D01*
X471500Y418000D02*
X482500D01*
X469500Y416000D02*
X471500Y418000D01*
D85*
X902500Y565000D02*
D03*
Y585000D02*
D03*
Y605000D02*
D03*
Y525000D02*
D03*
Y545000D02*
D03*
Y625000D02*
D03*
Y645000D02*
D03*
Y665000D02*
D03*
X572000Y676000D02*
D03*
Y656000D02*
D03*
X552000Y676000D02*
D03*
Y656000D02*
D03*
X532000Y676000D02*
D03*
Y656000D02*
D03*
X512000Y676000D02*
D03*
Y656000D02*
D03*
X492000Y676000D02*
D03*
D86*
X902500Y505000D02*
D03*
X492000Y656000D02*
D03*
D87*
X835750Y579000D02*
D03*
X362000Y652000D02*
D03*
X363000Y661000D02*
D03*
Y668000D02*
D03*
Y676000D02*
D03*
X836000Y568000D02*
D03*
X868000Y625000D02*
D03*
X772000Y555000D02*
D03*
X821000Y651000D02*
D03*
X870000Y510000D02*
D03*
X760000Y365000D02*
D03*
X842500Y580000D02*
D03*
X720000Y572500D02*
D03*
X567000Y630000D02*
D03*
X784000Y672000D02*
D03*
X700000Y579000D02*
D03*
X515000Y575000D02*
D03*
X716000Y316000D02*
D03*
X724000Y296000D02*
D03*
X739000Y317000D02*
D03*
X732000Y332000D02*
D03*
X526000Y314000D02*
D03*
X516000D02*
D03*
X469000Y556000D02*
D03*
X673000Y324000D02*
D03*
D88*
X333250Y316750D02*
D03*
X362000Y292000D02*
D03*
X359000Y271000D02*
D03*
X476000Y322000D02*
D03*
X498000Y344000D02*
D03*
X388000Y423000D02*
D03*
X359000Y394000D02*
D03*
X337000Y409000D02*
D03*
X359000Y422000D02*
D03*
Y488000D02*
D03*
X427000Y457000D02*
D03*
X433000Y482000D02*
D03*
X417000Y572000D02*
D03*
X358000Y539000D02*
D03*
X359000Y572000D02*
D03*
X377000Y606000D02*
D03*
X353000Y680000D02*
D03*
X293000D02*
D03*
X337000Y578000D02*
D03*
X349000Y635000D02*
D03*
X730000Y583000D02*
D03*
X389000Y685000D02*
D03*
X432000Y683000D02*
D03*
X438000Y627000D02*
D03*
X407000Y614000D02*
D03*
X393000Y405000D02*
D03*
X396000Y497000D02*
D03*
X395000Y613000D02*
D03*
X383000Y303000D02*
D03*
X780000Y646000D02*
D03*
X784000Y660000D02*
D03*
X744000Y671000D02*
D03*
X743000Y682000D02*
D03*
X788000Y646000D02*
D03*
X867500Y470000D02*
D03*
X770000Y399000D02*
D03*
X726000Y380000D02*
D03*
X733000Y411000D02*
D03*
X871000Y424000D02*
D03*
Y411000D02*
D03*
X677500Y632500D02*
D03*
X722500Y657500D02*
D03*
X645000Y640000D02*
D03*
Y652500D02*
D03*
X601000Y579000D02*
D03*
X541000Y624000D02*
D03*
X731000Y464000D02*
D03*
X670000Y568000D02*
D03*
X765000Y217000D02*
D03*
X725000Y437000D02*
D03*
X737389Y511712D02*
D03*
X902000Y246000D02*
D03*
X910000Y252000D02*
D03*
X902000Y260000D02*
D03*
X910000Y266000D02*
D03*
X902000Y273000D02*
D03*
X627000Y312000D02*
D03*
X591000Y304000D02*
D03*
X558000Y323000D02*
D03*
X470000Y400000D02*
D03*
X472500Y486500D02*
D03*
X474000Y448000D02*
D03*
X477000Y524000D02*
D03*
X650000Y594000D02*
D03*
X630000Y593000D02*
D03*
X568000Y571000D02*
D03*
X588000Y316000D02*
D03*
X697000Y314000D02*
D03*
X209000Y449000D02*
D03*
X201000D02*
D03*
X515000Y417000D02*
D03*
X551000Y582000D02*
D03*
X461000Y407000D02*
D03*
X469500Y416000D02*
D03*
X729098Y477500D02*
D03*
X205000Y441112D02*
D03*
D89*
X516000Y293000D02*
X534000Y275000D01*
X624750D01*
X516000Y293000D02*
Y314000D01*
X624750Y275000D02*
X635750Y286000D01*
X714000D01*
X618750Y285000D02*
X646476Y312726D01*
X541000Y285000D02*
X618750D01*
X652274Y312726D02*
X652500Y312500D01*
X646476Y312726D02*
X652274D01*
X526000Y300000D02*
X541000Y285000D01*
X664000Y324000D02*
X673000D01*
X652500Y312500D02*
X664000Y324000D01*
X652500Y312500D02*
X660000Y305000D01*
Y305000D02*
X705000D01*
X716000Y316000D01*
X714000Y286000D02*
X724000Y296000D01*
X526000Y300000D02*
Y314000D01*
M02*
