G04*
G04 #@! TF.GenerationSoftware,Altium Limited,Altium Designer,24.4.1 (13)*
G04*
G04 Layer_Color=8421504*
%FSLAX44Y44*%
%MOMM*%
G71*
G04*
G04 #@! TF.SameCoordinates,5CD8CDA4-0F32-4F39-920B-777DEE314C42*
G04*
G04*
G04 #@! TF.FilePolarity,Positive*
G04*
G01*
G75*
%ADD17R,0.6400X0.6000*%
%ADD18R,0.4000X1.0500*%
%ADD19R,0.6000X0.5000*%
%ADD20R,1.4750X0.4500*%
%ADD21R,0.9000X0.4500*%
%ADD22R,0.6000X0.6400*%
%ADD23R,1.0000X0.9000*%
%ADD24R,0.5000X0.6000*%
%ADD25R,1.3300X0.5300*%
%ADD26R,0.3000X1.4750*%
%ADD27R,1.4750X0.3000*%
%ADD28R,1.5250X0.7000*%
%ADD29R,0.9500X0.9000*%
%ADD30R,1.6500X0.6500*%
%ADD31R,0.7500X0.6000*%
%ADD32R,0.9500X0.8500*%
%ADD33R,0.9000X1.0000*%
%ADD34R,1.1000X1.3000*%
%ADD35R,0.6000X0.7500*%
%ADD36R,6.8500X6.8500*%
%ADD37R,2.0000X1.5000*%
%ADD38R,2.0000X3.8000*%
%ADD39R,1.5000X3.6000*%
%ADD40R,0.9500X0.3500*%
%ADD41R,2.3000X3.2300*%
%ADD42R,1.2300X1.8000*%
%ADD43R,2.0000X0.3800*%
%ADD44R,1.4000X1.2000*%
D17*
X393000Y665400D02*
D03*
Y656600D02*
D03*
X419000Y628600D02*
D03*
Y637400D02*
D03*
X876000Y633400D02*
D03*
Y624600D02*
D03*
X732500Y563100D02*
D03*
Y571900D02*
D03*
X430000Y668600D02*
D03*
Y677400D02*
D03*
X609000Y578600D02*
D03*
Y587400D02*
D03*
X690000Y585000D02*
D03*
Y576200D02*
D03*
X712500Y563100D02*
D03*
Y571900D02*
D03*
X670000Y575600D02*
D03*
Y584400D02*
D03*
X899000Y369400D02*
D03*
Y360600D02*
D03*
X884000Y221400D02*
D03*
Y212600D02*
D03*
X831000Y222600D02*
D03*
Y231400D02*
D03*
X655000Y219600D02*
D03*
Y228400D02*
D03*
X706000Y226400D02*
D03*
Y217600D02*
D03*
X544000Y591400D02*
D03*
Y582600D02*
D03*
X682000Y314400D02*
D03*
Y305600D02*
D03*
X535000Y314400D02*
D03*
Y305600D02*
D03*
X505000Y574400D02*
D03*
Y565600D02*
D03*
X507500Y314400D02*
D03*
Y305600D02*
D03*
X617500Y314400D02*
D03*
Y305600D02*
D03*
X557500Y314400D02*
D03*
Y305600D02*
D03*
X563000Y582600D02*
D03*
Y591400D02*
D03*
X659000Y314400D02*
D03*
Y305600D02*
D03*
X580000Y314400D02*
D03*
Y305600D02*
D03*
X722500Y668100D02*
D03*
Y676900D02*
D03*
X762000Y294400D02*
D03*
Y285600D02*
D03*
X862500Y509400D02*
D03*
Y500600D02*
D03*
X821000Y681600D02*
D03*
Y690400D02*
D03*
D18*
X419500Y670000D02*
D03*
X413000D02*
D03*
X406500D02*
D03*
Y650000D02*
D03*
X419500D02*
D03*
D19*
X407000Y628000D02*
D03*
Y638000D02*
D03*
D20*
X376380Y596750D02*
D03*
Y590250D02*
D03*
Y583750D02*
D03*
Y577250D02*
D03*
Y570750D02*
D03*
Y564250D02*
D03*
Y557750D02*
D03*
Y551250D02*
D03*
Y544750D02*
D03*
Y538250D02*
D03*
Y531750D02*
D03*
Y525250D02*
D03*
X317620D02*
D03*
Y531750D02*
D03*
Y538250D02*
D03*
Y544750D02*
D03*
Y551250D02*
D03*
Y557750D02*
D03*
Y564250D02*
D03*
Y570750D02*
D03*
Y577250D02*
D03*
Y583750D02*
D03*
Y590250D02*
D03*
Y596750D02*
D03*
Y685750D02*
D03*
Y679250D02*
D03*
Y672750D02*
D03*
Y666250D02*
D03*
Y659750D02*
D03*
Y653250D02*
D03*
Y646750D02*
D03*
Y640250D02*
D03*
Y633750D02*
D03*
Y627250D02*
D03*
Y620750D02*
D03*
Y614250D02*
D03*
X376380D02*
D03*
Y620750D02*
D03*
Y627250D02*
D03*
Y633750D02*
D03*
Y640250D02*
D03*
Y646750D02*
D03*
Y653250D02*
D03*
Y659750D02*
D03*
Y666250D02*
D03*
Y672750D02*
D03*
Y679250D02*
D03*
Y685750D02*
D03*
Y504250D02*
D03*
Y497750D02*
D03*
Y491250D02*
D03*
Y484750D02*
D03*
Y478250D02*
D03*
Y471750D02*
D03*
Y465250D02*
D03*
Y458750D02*
D03*
Y452250D02*
D03*
Y445750D02*
D03*
Y439250D02*
D03*
Y432750D02*
D03*
X317620D02*
D03*
Y439250D02*
D03*
Y445750D02*
D03*
Y452250D02*
D03*
Y458750D02*
D03*
Y465250D02*
D03*
Y471750D02*
D03*
Y478250D02*
D03*
Y484750D02*
D03*
Y491250D02*
D03*
Y497750D02*
D03*
Y504250D02*
D03*
X376380Y411750D02*
D03*
Y405250D02*
D03*
Y398750D02*
D03*
Y392250D02*
D03*
Y385750D02*
D03*
Y379250D02*
D03*
Y372750D02*
D03*
Y366250D02*
D03*
Y359750D02*
D03*
Y353250D02*
D03*
Y346750D02*
D03*
Y340250D02*
D03*
X317620D02*
D03*
Y346750D02*
D03*
Y353250D02*
D03*
Y359750D02*
D03*
Y366250D02*
D03*
Y372750D02*
D03*
Y379250D02*
D03*
Y385750D02*
D03*
Y392250D02*
D03*
Y398750D02*
D03*
Y405250D02*
D03*
Y411750D02*
D03*
X375760Y290000D02*
D03*
Y283500D02*
D03*
Y277000D02*
D03*
Y270500D02*
D03*
Y264000D02*
D03*
Y257500D02*
D03*
Y251000D02*
D03*
Y244500D02*
D03*
Y238000D02*
D03*
Y231500D02*
D03*
Y225000D02*
D03*
Y218500D02*
D03*
X317000D02*
D03*
Y225000D02*
D03*
Y231500D02*
D03*
Y238000D02*
D03*
Y244500D02*
D03*
Y251000D02*
D03*
Y257500D02*
D03*
Y264000D02*
D03*
Y270500D02*
D03*
Y277000D02*
D03*
Y283500D02*
D03*
Y290000D02*
D03*
D21*
X268500Y621000D02*
D03*
Y629000D02*
D03*
Y645000D02*
D03*
Y637000D02*
D03*
Y661000D02*
D03*
Y677000D02*
D03*
Y669000D02*
D03*
Y653000D02*
D03*
X251500D02*
D03*
Y669000D02*
D03*
Y677000D02*
D03*
Y661000D02*
D03*
Y637000D02*
D03*
Y645000D02*
D03*
Y629000D02*
D03*
Y621000D02*
D03*
X268500Y225000D02*
D03*
Y233000D02*
D03*
Y249000D02*
D03*
Y241000D02*
D03*
Y265000D02*
D03*
Y281000D02*
D03*
Y273000D02*
D03*
Y257000D02*
D03*
X251500D02*
D03*
Y273000D02*
D03*
Y281000D02*
D03*
Y265000D02*
D03*
Y241000D02*
D03*
Y249000D02*
D03*
Y233000D02*
D03*
Y225000D02*
D03*
X268500Y291000D02*
D03*
Y299000D02*
D03*
Y315000D02*
D03*
Y307000D02*
D03*
Y331000D02*
D03*
Y347000D02*
D03*
Y339000D02*
D03*
Y323000D02*
D03*
X251500D02*
D03*
Y339000D02*
D03*
Y347000D02*
D03*
Y331000D02*
D03*
Y307000D02*
D03*
Y315000D02*
D03*
Y299000D02*
D03*
Y291000D02*
D03*
X268500Y357000D02*
D03*
Y365000D02*
D03*
Y381000D02*
D03*
Y373000D02*
D03*
Y397000D02*
D03*
Y413000D02*
D03*
Y405000D02*
D03*
Y389000D02*
D03*
X251500D02*
D03*
Y405000D02*
D03*
Y413000D02*
D03*
Y397000D02*
D03*
Y373000D02*
D03*
Y381000D02*
D03*
Y365000D02*
D03*
Y357000D02*
D03*
X268500Y555000D02*
D03*
Y563000D02*
D03*
Y579000D02*
D03*
Y571000D02*
D03*
Y595000D02*
D03*
Y611000D02*
D03*
Y603000D02*
D03*
Y587000D02*
D03*
X251500D02*
D03*
Y603000D02*
D03*
Y611000D02*
D03*
Y595000D02*
D03*
Y571000D02*
D03*
Y579000D02*
D03*
Y563000D02*
D03*
Y555000D02*
D03*
X268500Y489000D02*
D03*
Y497000D02*
D03*
Y513000D02*
D03*
Y505000D02*
D03*
Y529000D02*
D03*
Y545000D02*
D03*
Y537000D02*
D03*
Y521000D02*
D03*
X251500D02*
D03*
Y537000D02*
D03*
Y545000D02*
D03*
Y529000D02*
D03*
Y505000D02*
D03*
Y513000D02*
D03*
Y497000D02*
D03*
Y489000D02*
D03*
X268500Y423000D02*
D03*
Y431000D02*
D03*
Y447000D02*
D03*
Y439000D02*
D03*
Y463000D02*
D03*
Y479000D02*
D03*
Y471000D02*
D03*
Y455000D02*
D03*
X251500D02*
D03*
Y471000D02*
D03*
Y479000D02*
D03*
Y463000D02*
D03*
Y439000D02*
D03*
Y447000D02*
D03*
Y431000D02*
D03*
Y423000D02*
D03*
D22*
X366600Y303000D02*
D03*
X375400D02*
D03*
X396600Y685000D02*
D03*
X405400D02*
D03*
X763600Y546000D02*
D03*
X772400D02*
D03*
X460600Y524000D02*
D03*
X469400D02*
D03*
X741400Y399000D02*
D03*
X732600D02*
D03*
X745400Y503000D02*
D03*
X736600D02*
D03*
X845400Y647000D02*
D03*
X836600D02*
D03*
X863400Y691750D02*
D03*
X854600D02*
D03*
X771400Y646000D02*
D03*
X762600D02*
D03*
X810400D02*
D03*
X801600D02*
D03*
X762400Y399000D02*
D03*
X753600D02*
D03*
X735600Y360000D02*
D03*
X744400D02*
D03*
X469400Y547500D02*
D03*
X460600D02*
D03*
X738100Y467500D02*
D03*
X746900D02*
D03*
X460400Y397000D02*
D03*
X451600D02*
D03*
X465400Y448000D02*
D03*
X456600D02*
D03*
X464900Y487000D02*
D03*
X456100D02*
D03*
X736600Y485000D02*
D03*
X745400D02*
D03*
X733600Y380000D02*
D03*
X742400D02*
D03*
X460900Y415000D02*
D03*
X452100D02*
D03*
X810400Y633000D02*
D03*
X801600D02*
D03*
X392600Y412000D02*
D03*
X401400D02*
D03*
X394600Y605000D02*
D03*
X403400D02*
D03*
X395600Y504000D02*
D03*
X404400D02*
D03*
D23*
X844000Y213250D02*
D03*
Y226750D02*
D03*
X864000D02*
D03*
Y213250D02*
D03*
X690000Y229250D02*
D03*
Y215750D02*
D03*
X672500Y229250D02*
D03*
Y215750D02*
D03*
X612500Y279250D02*
D03*
Y265750D02*
D03*
X760000Y318250D02*
D03*
Y331750D02*
D03*
X735000Y218250D02*
D03*
Y231750D02*
D03*
Y268750D02*
D03*
Y255250D02*
D03*
X712500Y269250D02*
D03*
Y255750D02*
D03*
X785000Y318250D02*
D03*
Y331750D02*
D03*
X884000Y235250D02*
D03*
Y248750D02*
D03*
Y286750D02*
D03*
Y273250D02*
D03*
X785000Y283250D02*
D03*
Y296750D02*
D03*
D24*
X867500Y477500D02*
D03*
X857500D02*
D03*
X676000Y623000D02*
D03*
X686000D02*
D03*
X676000Y609000D02*
D03*
X686000D02*
D03*
D25*
X805750Y465300D02*
D03*
Y478000D02*
D03*
Y490700D02*
D03*
X836250D02*
D03*
Y478000D02*
D03*
Y465300D02*
D03*
D26*
X862500Y612380D02*
D03*
X857500D02*
D03*
X852500D02*
D03*
X847500D02*
D03*
X842500D02*
D03*
X837500D02*
D03*
X832500D02*
D03*
X827500D02*
D03*
X822500D02*
D03*
X817500D02*
D03*
X812500D02*
D03*
X807500D02*
D03*
Y527620D02*
D03*
X812500D02*
D03*
X817500D02*
D03*
X822500D02*
D03*
X827500D02*
D03*
X832500D02*
D03*
X837500D02*
D03*
X842500D02*
D03*
X847500D02*
D03*
X852500D02*
D03*
X857500D02*
D03*
X862500D02*
D03*
X693000Y554380D02*
D03*
X688000D02*
D03*
X683000D02*
D03*
X678000D02*
D03*
X673000D02*
D03*
X668000D02*
D03*
X663000D02*
D03*
X653000D02*
D03*
X648000D02*
D03*
X643000D02*
D03*
X623000D02*
D03*
X618000D02*
D03*
X613000D02*
D03*
X658000D02*
D03*
X603000D02*
D03*
X608000D02*
D03*
X593000D02*
D03*
X598000D02*
D03*
X588000D02*
D03*
X583000D02*
D03*
X578000D02*
D03*
X638000D02*
D03*
X633000D02*
D03*
X628000D02*
D03*
X573000D02*
D03*
X568000D02*
D03*
X563000D02*
D03*
X558000D02*
D03*
X553000D02*
D03*
X548000D02*
D03*
X543000D02*
D03*
X538000D02*
D03*
X533000D02*
D03*
X528000D02*
D03*
X523000D02*
D03*
X518000D02*
D03*
X693000Y339620D02*
D03*
X688000D02*
D03*
X683000D02*
D03*
X678000D02*
D03*
X673000D02*
D03*
X668000D02*
D03*
X663000D02*
D03*
X658000D02*
D03*
X653000D02*
D03*
X648000D02*
D03*
X643000D02*
D03*
X638000D02*
D03*
X633000D02*
D03*
X628000D02*
D03*
X623000D02*
D03*
X618000D02*
D03*
X608000D02*
D03*
X613000D02*
D03*
X603000D02*
D03*
X598000D02*
D03*
X593000D02*
D03*
X588000D02*
D03*
X583000D02*
D03*
X578000D02*
D03*
X573000D02*
D03*
X568000D02*
D03*
X563000D02*
D03*
X558000D02*
D03*
X553000D02*
D03*
X548000D02*
D03*
X543000D02*
D03*
X538000D02*
D03*
X533000D02*
D03*
X528000D02*
D03*
X523000D02*
D03*
X518000D02*
D03*
D27*
X792620Y597500D02*
D03*
Y592500D02*
D03*
Y587500D02*
D03*
Y582500D02*
D03*
Y577500D02*
D03*
Y572500D02*
D03*
Y567500D02*
D03*
Y562500D02*
D03*
Y557500D02*
D03*
Y552500D02*
D03*
Y547500D02*
D03*
Y542500D02*
D03*
X877380D02*
D03*
Y547500D02*
D03*
Y552500D02*
D03*
Y557500D02*
D03*
Y562500D02*
D03*
Y567500D02*
D03*
Y572500D02*
D03*
Y577500D02*
D03*
Y582500D02*
D03*
Y587500D02*
D03*
Y592500D02*
D03*
Y597500D02*
D03*
X498120Y359500D02*
D03*
Y364500D02*
D03*
Y369500D02*
D03*
Y374500D02*
D03*
Y379500D02*
D03*
Y384500D02*
D03*
Y389500D02*
D03*
Y394500D02*
D03*
Y399500D02*
D03*
Y404500D02*
D03*
Y409500D02*
D03*
Y414500D02*
D03*
Y419500D02*
D03*
Y424500D02*
D03*
Y429500D02*
D03*
Y434500D02*
D03*
Y439500D02*
D03*
Y444500D02*
D03*
Y449500D02*
D03*
Y454500D02*
D03*
Y459500D02*
D03*
Y464500D02*
D03*
Y469500D02*
D03*
Y474500D02*
D03*
Y479500D02*
D03*
Y484500D02*
D03*
Y489500D02*
D03*
Y494500D02*
D03*
Y499500D02*
D03*
Y504500D02*
D03*
Y509500D02*
D03*
Y514500D02*
D03*
Y519500D02*
D03*
Y524500D02*
D03*
Y529500D02*
D03*
Y534500D02*
D03*
X712880Y359500D02*
D03*
Y364500D02*
D03*
Y369500D02*
D03*
Y374500D02*
D03*
Y379500D02*
D03*
Y384500D02*
D03*
Y389500D02*
D03*
Y394500D02*
D03*
Y399500D02*
D03*
Y404500D02*
D03*
Y409500D02*
D03*
Y414500D02*
D03*
Y419500D02*
D03*
Y424500D02*
D03*
Y429500D02*
D03*
Y459500D02*
D03*
Y434500D02*
D03*
Y504500D02*
D03*
Y439500D02*
D03*
Y444500D02*
D03*
Y469500D02*
D03*
Y514500D02*
D03*
Y449500D02*
D03*
Y454500D02*
D03*
Y509500D02*
D03*
Y464500D02*
D03*
Y519500D02*
D03*
Y474500D02*
D03*
Y479500D02*
D03*
Y484500D02*
D03*
Y489500D02*
D03*
Y494500D02*
D03*
Y499500D02*
D03*
Y524500D02*
D03*
Y529500D02*
D03*
Y534500D02*
D03*
D28*
X763120Y587950D02*
D03*
Y600650D02*
D03*
Y613350D02*
D03*
Y626050D02*
D03*
X708880D02*
D03*
Y613350D02*
D03*
Y600650D02*
D03*
Y587950D02*
D03*
X447880Y254050D02*
D03*
Y241350D02*
D03*
Y228650D02*
D03*
Y215950D02*
D03*
X502120D02*
D03*
Y228650D02*
D03*
Y241350D02*
D03*
Y254050D02*
D03*
D29*
X882500Y384500D02*
D03*
Y400500D02*
D03*
Y422000D02*
D03*
Y438000D02*
D03*
D30*
X784000Y424050D02*
D03*
Y411350D02*
D03*
Y398650D02*
D03*
Y385950D02*
D03*
X856000D02*
D03*
Y398650D02*
D03*
Y411350D02*
D03*
Y424050D02*
D03*
X629000Y640950D02*
D03*
Y653650D02*
D03*
Y666350D02*
D03*
Y679050D02*
D03*
X701000D02*
D03*
Y666350D02*
D03*
Y653650D02*
D03*
Y640950D02*
D03*
D31*
X760750Y450000D02*
D03*
X749250D02*
D03*
X576250Y632000D02*
D03*
X587750D02*
D03*
X750250Y412000D02*
D03*
X761750D02*
D03*
X799250Y445000D02*
D03*
X810750D02*
D03*
X845750D02*
D03*
X834250D02*
D03*
X497250Y275000D02*
D03*
X508750D02*
D03*
X773750Y536000D02*
D03*
X762250D02*
D03*
X454750Y458000D02*
D03*
X466250D02*
D03*
X454750Y432000D02*
D03*
X466250D02*
D03*
Y507000D02*
D03*
X454750D02*
D03*
D32*
X907500Y421000D02*
D03*
Y434000D02*
D03*
X755000Y231500D02*
D03*
Y218500D02*
D03*
X595000Y279000D02*
D03*
Y266000D02*
D03*
X907500Y401500D02*
D03*
Y388500D02*
D03*
X605000Y653500D02*
D03*
Y666500D02*
D03*
D33*
X772750Y660000D02*
D03*
X759250D02*
D03*
X795250D02*
D03*
X808750D02*
D03*
X759250Y677000D02*
D03*
X772750D02*
D03*
D34*
X446000Y676000D02*
D03*
X463000D02*
D03*
X446000Y654000D02*
D03*
X463000D02*
D03*
D35*
Y625250D02*
D03*
Y636750D02*
D03*
X762000Y258250D02*
D03*
Y269750D02*
D03*
X580000Y216750D02*
D03*
Y228250D02*
D03*
X821000Y659250D02*
D03*
Y670750D02*
D03*
X600000Y304250D02*
D03*
Y315750D02*
D03*
X582000Y592750D02*
D03*
Y581250D02*
D03*
X630000Y584750D02*
D03*
Y573250D02*
D03*
X532000Y635750D02*
D03*
Y624250D02*
D03*
X492000D02*
D03*
Y635750D02*
D03*
X649000Y584750D02*
D03*
Y573250D02*
D03*
D36*
X605500Y447000D02*
D03*
D37*
X880000Y309500D02*
D03*
Y332500D02*
D03*
Y355500D02*
D03*
D38*
X817000Y332500D02*
D03*
D39*
X864750Y257250D02*
D03*
X834250D02*
D03*
X657250Y260000D02*
D03*
X687750D02*
D03*
D40*
X776000Y249500D02*
D03*
Y241500D02*
D03*
Y233500D02*
D03*
Y225500D02*
D03*
X814000D02*
D03*
Y233500D02*
D03*
Y241500D02*
D03*
Y249500D02*
D03*
X596000Y247000D02*
D03*
Y239000D02*
D03*
Y231000D02*
D03*
Y223000D02*
D03*
X634000D02*
D03*
Y231000D02*
D03*
Y239000D02*
D03*
Y247000D02*
D03*
D41*
X795000Y237500D02*
D03*
X615000Y235000D02*
D03*
D42*
X535000Y221900D02*
D03*
Y248100D02*
D03*
X560000Y221900D02*
D03*
Y248100D02*
D03*
D43*
X183000Y624625D02*
D03*
Y618275D02*
D03*
Y611925D02*
D03*
Y605575D02*
D03*
Y662725D02*
D03*
Y650025D02*
D03*
Y637325D02*
D03*
Y599225D02*
D03*
Y586525D02*
D03*
Y573825D02*
D03*
Y561125D02*
D03*
Y548425D02*
D03*
Y535725D02*
D03*
Y523025D02*
D03*
Y510325D02*
D03*
Y497625D02*
D03*
Y484925D02*
D03*
Y472225D02*
D03*
Y459525D02*
D03*
Y446825D02*
D03*
Y434125D02*
D03*
Y421425D02*
D03*
Y408725D02*
D03*
Y396025D02*
D03*
Y383325D02*
D03*
Y370625D02*
D03*
Y357925D02*
D03*
Y345225D02*
D03*
Y332525D02*
D03*
Y319825D02*
D03*
Y307125D02*
D03*
Y294425D02*
D03*
Y281725D02*
D03*
Y269025D02*
D03*
Y256325D02*
D03*
Y243625D02*
D03*
Y656375D02*
D03*
Y643675D02*
D03*
Y630975D02*
D03*
Y592875D02*
D03*
Y580175D02*
D03*
Y567475D02*
D03*
Y554775D02*
D03*
Y542075D02*
D03*
Y529375D02*
D03*
Y516675D02*
D03*
Y503975D02*
D03*
Y491275D02*
D03*
Y478575D02*
D03*
Y465875D02*
D03*
Y453175D02*
D03*
Y440475D02*
D03*
Y427775D02*
D03*
Y415075D02*
D03*
Y402375D02*
D03*
Y389675D02*
D03*
Y376975D02*
D03*
Y364275D02*
D03*
Y351575D02*
D03*
Y338875D02*
D03*
Y326175D02*
D03*
Y313475D02*
D03*
Y300775D02*
D03*
Y288075D02*
D03*
Y275375D02*
D03*
Y262675D02*
D03*
Y249975D02*
D03*
Y237275D02*
D03*
D44*
X842000Y678500D02*
D03*
X864000D02*
D03*
Y661500D02*
D03*
X842000D02*
D03*
M02*
