G04*
G04 #@! TF.GenerationSoftware,Altium Limited,Altium Designer,24.4.1 (13)*
G04*
G04 Layer_Physical_Order=2*
G04 Layer_Color=36540*
%FSLAX44Y44*%
%MOMM*%
G71*
G04*
G04 #@! TF.SameCoordinates,5CD8CDA4-0F32-4F39-920B-777DEE314C42*
G04*
G04*
G04 #@! TF.FilePolarity,Positive*
G04*
G01*
G75*
%ADD85C,1.5000*%
%ADD86R,1.5000X1.5000*%
%ADD87C,0.5000*%
%ADD88C,0.6000*%
G36*
X917451Y651050D02*
X916181Y650023D01*
X916000Y650059D01*
X913000D01*
X911829Y649826D01*
X911775Y649789D01*
X910538Y650078D01*
X910102Y650833D01*
X908333Y652602D01*
X906167Y653853D01*
X904338Y654343D01*
Y655657D01*
X906167Y656148D01*
X908333Y657398D01*
X910102Y659167D01*
X911352Y661333D01*
X912000Y663749D01*
Y666251D01*
X911352Y668667D01*
X910102Y670833D01*
X908333Y672602D01*
X906167Y673853D01*
X903751Y674500D01*
X901249D01*
X898833Y673853D01*
X896667Y672602D01*
X894898Y670833D01*
X893647Y668667D01*
X893000Y666251D01*
Y663749D01*
X893647Y661333D01*
X894898Y659167D01*
X896667Y657398D01*
X898833Y656148D01*
X900662Y655657D01*
Y654343D01*
X898833Y653853D01*
X896667Y652602D01*
X894898Y650833D01*
X893927Y649151D01*
X892531Y649123D01*
X892521Y649127D01*
X892163Y649663D01*
X891171Y650326D01*
X890000Y650559D01*
X876500D01*
X875329Y650326D01*
X874337Y649663D01*
X874337Y649663D01*
X867837Y643163D01*
X867837Y643163D01*
X867837Y643163D01*
X850337Y625663D01*
X849674Y624670D01*
X849441Y623500D01*
X849441Y623500D01*
Y615000D01*
Y610000D01*
X849674Y608829D01*
X850337Y607837D01*
X851329Y607174D01*
X852500Y606941D01*
X853671Y607174D01*
X854663Y607837D01*
X855326Y608829D01*
X855559Y610000D01*
Y622233D01*
X872163Y638837D01*
X872163Y638837D01*
X872163Y638837D01*
X877767Y644441D01*
X890000D01*
X891171Y644674D01*
X891730Y645048D01*
X893000Y644478D01*
Y643749D01*
X893647Y641333D01*
X894898Y639167D01*
X896667Y637398D01*
X898833Y636147D01*
X900662Y635657D01*
Y634343D01*
X898833Y633853D01*
X896667Y632602D01*
X894898Y630833D01*
X893647Y628667D01*
X893000Y626251D01*
Y623749D01*
X893647Y621333D01*
X894898Y619167D01*
X896667Y617398D01*
X898833Y616147D01*
X900662Y615657D01*
Y614343D01*
X898833Y613853D01*
X896667Y612602D01*
X894898Y610833D01*
X893647Y608667D01*
X893000Y606251D01*
Y603749D01*
X893647Y601333D01*
X894898Y599167D01*
X896667Y597398D01*
X898833Y596147D01*
X900662Y595657D01*
Y594343D01*
X898833Y593853D01*
X896667Y592602D01*
X894898Y590833D01*
X893647Y588667D01*
X893000Y586251D01*
Y583749D01*
X893647Y581333D01*
X894898Y579167D01*
X896667Y577398D01*
X898833Y576147D01*
X900662Y575657D01*
Y574343D01*
X898833Y573853D01*
X896667Y572602D01*
X894898Y570833D01*
X893647Y568667D01*
X893000Y566251D01*
Y563749D01*
X893647Y561333D01*
X894550Y559770D01*
X893840Y558500D01*
X893304D01*
X892017Y557967D01*
X891033Y556983D01*
X890500Y555696D01*
Y554304D01*
X891033Y553017D01*
X892017Y552033D01*
X893304Y551500D01*
X893840D01*
X894550Y550230D01*
X893647Y548667D01*
X893000Y546251D01*
Y546000D01*
X902500D01*
X912000D01*
Y546251D01*
X911352Y548667D01*
X910102Y550833D01*
X908333Y552602D01*
X906167Y553853D01*
X904338Y554343D01*
Y555657D01*
X906167Y556147D01*
X908333Y557398D01*
X910102Y559167D01*
X911352Y561333D01*
X912000Y563749D01*
Y566251D01*
X911352Y568667D01*
X910102Y570833D01*
X908333Y572602D01*
X906167Y573853D01*
X904338Y574343D01*
Y575657D01*
X906167Y576147D01*
X908333Y577398D01*
X910102Y579167D01*
X911352Y581333D01*
X912000Y583749D01*
Y586251D01*
X911352Y588667D01*
X910102Y590833D01*
X908333Y592602D01*
X906167Y593853D01*
X904338Y594343D01*
Y595657D01*
X906167Y596147D01*
X908333Y597398D01*
X910102Y599167D01*
X911352Y601333D01*
X912000Y603749D01*
Y606251D01*
X911352Y608667D01*
X910102Y610833D01*
X908333Y612602D01*
X906167Y613853D01*
X904338Y614343D01*
Y615657D01*
X906167Y616147D01*
X908333Y617398D01*
X910102Y619167D01*
X911352Y621333D01*
X912000Y623749D01*
Y626251D01*
X911352Y628667D01*
X910102Y630833D01*
X908333Y632602D01*
X906167Y633853D01*
X904338Y634343D01*
Y635657D01*
X906167Y636147D01*
X908333Y637398D01*
X910102Y639167D01*
X911352Y641333D01*
X912000Y643749D01*
X912383Y644064D01*
X913000Y643941D01*
X916000D01*
X916181Y643977D01*
X917451Y642950D01*
X917451Y477549D01*
X890000D01*
X889025Y477355D01*
X888198Y476802D01*
X887645Y475975D01*
X887451Y475000D01*
Y445000D01*
X887645Y444025D01*
X888198Y443198D01*
X889025Y442645D01*
X890000Y442451D01*
X917451D01*
Y360002D01*
X916266Y359391D01*
X914796Y360000D01*
X913204D01*
X913181Y359991D01*
X912000Y360876D01*
Y361796D01*
X911391Y363266D01*
X910266Y364391D01*
X908796Y365000D01*
X907204D01*
X905734Y364391D01*
X904609Y363266D01*
X904000Y361796D01*
Y360204D01*
X904609Y358734D01*
X905734Y357609D01*
X907204Y357000D01*
X908796D01*
X909040Y356077D01*
X907922Y355000D01*
X907204D01*
X905734Y354391D01*
X904609Y353266D01*
X904000Y351796D01*
Y350204D01*
X904609Y348734D01*
X905734Y347609D01*
X907204Y347000D01*
X908796D01*
X910266Y347609D01*
X911391Y348734D01*
X912000Y350204D01*
Y351124D01*
X913181Y352010D01*
X913204Y352000D01*
X914796D01*
X916266Y352609D01*
X917451Y351998D01*
Y202549D01*
X905002D01*
X904391Y203734D01*
X905000Y205204D01*
Y206796D01*
X904391Y208266D01*
X903266Y209391D01*
X901796Y210000D01*
X900204D01*
X898734Y209391D01*
X897609Y208266D01*
X897173Y207214D01*
X895827D01*
X895391Y208266D01*
X894266Y209391D01*
X892796Y210000D01*
X891204D01*
X889734Y209391D01*
X888609Y208266D01*
X888000Y206796D01*
Y205204D01*
X888609Y203734D01*
X887998Y202549D01*
X202549D01*
Y230000D01*
X202355Y230975D01*
X201802Y231802D01*
X200975Y232355D01*
X200000Y232549D01*
X172549D01*
Y667451D01*
X200000D01*
X200975Y667645D01*
X201061Y667702D01*
X201413Y667442D01*
X201942Y666764D01*
X201500Y665696D01*
Y664304D01*
X202033Y663017D01*
X203017Y662033D01*
X204304Y661500D01*
X205696D01*
X206983Y662033D01*
X207967Y663017D01*
X208500Y664304D01*
Y665696D01*
X207967Y666983D01*
X206983Y667967D01*
X205696Y668500D01*
X204304D01*
X203236Y668058D01*
X202558Y668587D01*
X202297Y668939D01*
X202355Y669025D01*
X202549Y670000D01*
Y697451D01*
X826858Y697451D01*
X827941Y696181D01*
Y644767D01*
X825837Y642663D01*
X825174Y641671D01*
X824941Y640500D01*
X824941Y640500D01*
Y634000D01*
X825174Y632830D01*
X825837Y631837D01*
X826830Y631174D01*
X828000Y630941D01*
X829171Y631174D01*
X830163Y631837D01*
X830826Y632830D01*
X831059Y634000D01*
Y639233D01*
X833163Y641337D01*
X833163Y641337D01*
X833826Y642329D01*
X834059Y643500D01*
X834059Y643500D01*
Y697000D01*
X834429Y697451D01*
X917451D01*
Y651050D01*
D02*
G37*
%LPC*%
G36*
X389796Y689000D02*
X388204D01*
X386734Y688391D01*
X385609Y687266D01*
X385000Y685796D01*
Y684204D01*
X385609Y682734D01*
X386734Y681609D01*
X388204Y681000D01*
X389796D01*
X391266Y681609D01*
X392391Y682734D01*
X393000Y684204D01*
Y685796D01*
X392391Y687266D01*
X391266Y688391D01*
X389796Y689000D01*
D02*
G37*
G36*
X432796Y687000D02*
X431204D01*
X429734Y686391D01*
X428609Y685266D01*
X428000Y683796D01*
Y682204D01*
X428609Y680734D01*
X429734Y679609D01*
X431204Y679000D01*
X432796D01*
X434266Y679609D01*
X435391Y680734D01*
X436000Y682204D01*
Y683796D01*
X435391Y685266D01*
X434266Y686391D01*
X432796Y687000D01*
D02*
G37*
G36*
X743796Y686000D02*
X742204D01*
X740734Y685391D01*
X739609Y684266D01*
X739000Y682796D01*
Y681204D01*
X739609Y679734D01*
X740734Y678609D01*
X742204Y678000D01*
X743796D01*
X745266Y678609D01*
X746391Y679734D01*
X747000Y681204D01*
Y682796D01*
X746391Y684266D01*
X745266Y685391D01*
X743796Y686000D01*
D02*
G37*
G36*
X573251Y685500D02*
X570749D01*
X568333Y684853D01*
X566167Y683602D01*
X564398Y681833D01*
X563147Y679667D01*
X562657Y677838D01*
X561343D01*
X560853Y679667D01*
X559602Y681833D01*
X557833Y683602D01*
X555667Y684853D01*
X553251Y685500D01*
X550749D01*
X548333Y684853D01*
X546167Y683602D01*
X544398Y681833D01*
X543147Y679667D01*
X542657Y677838D01*
X541343D01*
X540853Y679667D01*
X539602Y681833D01*
X537833Y683602D01*
X535667Y684853D01*
X533251Y685500D01*
X530749D01*
X528333Y684853D01*
X526167Y683602D01*
X524398Y681833D01*
X523147Y679667D01*
X522657Y677838D01*
X521343D01*
X520853Y679667D01*
X519602Y681833D01*
X517833Y683602D01*
X515667Y684853D01*
X513251Y685500D01*
X510749D01*
X508333Y684853D01*
X506167Y683602D01*
X504398Y681833D01*
X503147Y679667D01*
X502657Y677838D01*
X501343D01*
X500853Y679667D01*
X499602Y681833D01*
X497833Y683602D01*
X495667Y684853D01*
X493251Y685500D01*
X493000D01*
Y676000D01*
X492000D01*
Y675000D01*
X482500D01*
Y674749D01*
X483147Y672333D01*
X484398Y670167D01*
X486167Y668398D01*
X488333Y667148D01*
X489742Y666770D01*
X489575Y665500D01*
X482500D01*
Y646500D01*
X501500D01*
Y653575D01*
X502770Y653742D01*
X503147Y652333D01*
X504398Y650167D01*
X506167Y648398D01*
X508333Y647147D01*
X510749Y646500D01*
X513251D01*
X515667Y647147D01*
X517833Y648398D01*
X519602Y650167D01*
X520853Y652333D01*
X521343Y654162D01*
X522657D01*
X523147Y652333D01*
X524398Y650167D01*
X526167Y648398D01*
X528333Y647147D01*
X530749Y646500D01*
X533251D01*
X535667Y647147D01*
X537833Y648398D01*
X539602Y650167D01*
X540853Y652333D01*
X541343Y654162D01*
X542657D01*
X543147Y652333D01*
X544398Y650167D01*
X546167Y648398D01*
X548333Y647147D01*
X550749Y646500D01*
X553251D01*
X555667Y647147D01*
X557833Y648398D01*
X559602Y650167D01*
X560853Y652333D01*
X561343Y654162D01*
X562657D01*
X563147Y652333D01*
X564398Y650167D01*
X566167Y648398D01*
X568333Y647147D01*
X570749Y646500D01*
X573251D01*
X575667Y647147D01*
X577833Y648398D01*
X579602Y650167D01*
X580853Y652333D01*
X581500Y654749D01*
Y657251D01*
X580853Y659667D01*
X579602Y661833D01*
X577833Y663602D01*
X575667Y664853D01*
X573838Y665343D01*
Y666657D01*
X575667Y667148D01*
X577833Y668398D01*
X579602Y670167D01*
X580853Y672333D01*
X581500Y674749D01*
Y677251D01*
X580853Y679667D01*
X579602Y681833D01*
X577833Y683602D01*
X575667Y684853D01*
X573251Y685500D01*
D02*
G37*
G36*
X491000D02*
X490749D01*
X488333Y684853D01*
X486167Y683602D01*
X484398Y681833D01*
X483147Y679667D01*
X482500Y677251D01*
Y677000D01*
X491000D01*
Y685500D01*
D02*
G37*
G36*
X413696Y683500D02*
X412304D01*
X411017Y682967D01*
X410033Y681983D01*
X409500Y680696D01*
Y679304D01*
X410033Y678017D01*
X411017Y677033D01*
X412304Y676500D01*
X413696D01*
X414983Y677033D01*
X415967Y678017D01*
X416500Y679304D01*
Y680696D01*
X415967Y681983D01*
X414983Y682967D01*
X413696Y683500D01*
D02*
G37*
G36*
X302696Y681500D02*
X301304D01*
X300017Y680967D01*
X299033Y679983D01*
X298500Y678696D01*
Y677304D01*
X299033Y676017D01*
X300017Y675033D01*
X301304Y674500D01*
X302696D01*
X303983Y675033D01*
X304967Y676017D01*
X305500Y677304D01*
Y678696D01*
X304967Y679983D01*
X303983Y680967D01*
X302696Y681500D01*
D02*
G37*
G36*
X335696Y680500D02*
X334304D01*
X333017Y679967D01*
X332033Y678983D01*
X331500Y677696D01*
Y676304D01*
X332033Y675017D01*
X333017Y674033D01*
X334304Y673500D01*
X335696D01*
X336983Y674033D01*
X337967Y675017D01*
X338500Y676304D01*
Y677696D01*
X337967Y678983D01*
X336983Y679967D01*
X335696Y680500D01*
D02*
G37*
G36*
X784696Y675500D02*
X783304D01*
X782017Y674967D01*
X781033Y673983D01*
X780500Y672696D01*
Y671304D01*
X781033Y670017D01*
X782017Y669033D01*
X783304Y668500D01*
X784696D01*
X785983Y669033D01*
X786967Y670017D01*
X787500Y671304D01*
Y672696D01*
X786967Y673983D01*
X785983Y674967D01*
X784696Y675500D01*
D02*
G37*
G36*
X744796Y675000D02*
X743204D01*
X741734Y674391D01*
X740609Y673266D01*
X740000Y671796D01*
Y670204D01*
X740609Y668734D01*
X741734Y667609D01*
X743204Y667000D01*
X744796D01*
X746266Y667609D01*
X747391Y668734D01*
X748000Y670204D01*
Y671796D01*
X747391Y673266D01*
X746266Y674391D01*
X744796Y675000D01*
D02*
G37*
G36*
X363696Y679500D02*
X362304D01*
X361017Y678967D01*
X360033Y677983D01*
X359500Y676696D01*
Y675304D01*
X360033Y674017D01*
X361017Y673033D01*
X361885Y672673D01*
Y671327D01*
X361017Y670967D01*
X360033Y669983D01*
X359500Y668696D01*
Y667304D01*
X360033Y666017D01*
X360799Y665251D01*
X360927Y664500D01*
X360799Y663749D01*
X360033Y662983D01*
X359500Y661696D01*
Y660304D01*
X360033Y659017D01*
X361017Y658033D01*
X362304Y657500D01*
X363696D01*
X364983Y658033D01*
X365967Y659017D01*
X366500Y660304D01*
Y661696D01*
X365967Y662983D01*
X365201Y663749D01*
X365073Y664500D01*
X365201Y665251D01*
X365967Y666017D01*
X366500Y667304D01*
Y668696D01*
X365967Y669983D01*
X364983Y670967D01*
X364115Y671327D01*
Y672673D01*
X364983Y673033D01*
X365967Y674017D01*
X366500Y675304D01*
Y676696D01*
X365967Y677983D01*
X364983Y678967D01*
X363696Y679500D01*
D02*
G37*
G36*
X784796Y664000D02*
X783204D01*
X781734Y663391D01*
X780609Y662266D01*
X780000Y660796D01*
Y659204D01*
X780609Y657734D01*
X781734Y656609D01*
X783204Y656000D01*
X784796D01*
X786266Y656609D01*
X787391Y657734D01*
X788000Y659204D01*
Y660796D01*
X787391Y662266D01*
X786266Y663391D01*
X784796Y664000D01*
D02*
G37*
G36*
X723296Y661500D02*
X721704D01*
X720234Y660891D01*
X719109Y659766D01*
X718500Y658296D01*
Y656704D01*
X719109Y655234D01*
X720234Y654109D01*
X721704Y653500D01*
X723296D01*
X724766Y654109D01*
X725891Y655234D01*
X726500Y656704D01*
Y658296D01*
X725891Y659766D01*
X724766Y660891D01*
X723296Y661500D01*
D02*
G37*
G36*
X645796Y656500D02*
X644204D01*
X642734Y655891D01*
X641609Y654766D01*
X641000Y653296D01*
Y651704D01*
X641609Y650234D01*
X642734Y649109D01*
X644204Y648500D01*
X645796D01*
X647266Y649109D01*
X648391Y650234D01*
X649000Y651704D01*
Y653296D01*
X648391Y654766D01*
X647266Y655891D01*
X645796Y656500D01*
D02*
G37*
G36*
X788796Y650000D02*
X787204D01*
X785734Y649391D01*
X784720Y648377D01*
X784000Y648317D01*
X783280Y648377D01*
X782266Y649391D01*
X780796Y650000D01*
X779204D01*
X777734Y649391D01*
X776609Y648266D01*
X776000Y646796D01*
Y645204D01*
X776609Y643734D01*
X777734Y642609D01*
X779204Y642000D01*
X780796D01*
X782266Y642609D01*
X783280Y643623D01*
X784000Y643683D01*
X784720Y643623D01*
X785734Y642609D01*
X787204Y642000D01*
X788796D01*
X790266Y642609D01*
X791391Y643734D01*
X792000Y645204D01*
Y646796D01*
X791391Y648266D01*
X790266Y649391D01*
X788796Y650000D01*
D02*
G37*
G36*
X821696Y654500D02*
X820304D01*
X819017Y653967D01*
X818033Y652983D01*
X817500Y651696D01*
Y650304D01*
X818033Y649017D01*
X819017Y648033D01*
X820304Y647500D01*
X821696D01*
X822983Y648033D01*
X823967Y649017D01*
X824500Y650304D01*
Y651696D01*
X823967Y652983D01*
X822983Y653967D01*
X821696Y654500D01*
D02*
G37*
G36*
X362696Y655500D02*
X361304D01*
X360017Y654967D01*
X359033Y653983D01*
X358500Y652696D01*
Y651304D01*
X359033Y650017D01*
X360017Y649033D01*
X360271Y648928D01*
X360506Y647456D01*
X360033Y646983D01*
X359500Y645696D01*
Y644304D01*
X360033Y643017D01*
X361017Y642033D01*
X362304Y641500D01*
X363696D01*
X364983Y642033D01*
X365967Y643017D01*
X366500Y644304D01*
Y645696D01*
X365967Y646983D01*
X364983Y647967D01*
X364729Y648072D01*
X364494Y649544D01*
X364967Y650017D01*
X365500Y651304D01*
Y652696D01*
X364967Y653983D01*
X363983Y654967D01*
X362696Y655500D01*
D02*
G37*
G36*
X397696Y641500D02*
X396304D01*
X395017Y640967D01*
X394033Y639983D01*
X393500Y638696D01*
Y637304D01*
X393541Y637205D01*
X392464Y636485D01*
X391983Y636967D01*
X390696Y637500D01*
X389304D01*
X388017Y636967D01*
X387033Y635983D01*
X386500Y634696D01*
Y633304D01*
X387033Y632017D01*
X388017Y631033D01*
X389304Y630500D01*
X390696D01*
X391983Y631033D01*
X392967Y632017D01*
X393500Y633304D01*
Y634696D01*
X393459Y634795D01*
X394536Y635515D01*
X395017Y635033D01*
X396304Y634500D01*
X397696D01*
X398983Y635033D01*
X399967Y636017D01*
X400500Y637304D01*
Y638696D01*
X399967Y639983D01*
X398983Y640967D01*
X397696Y641500D01*
D02*
G37*
G36*
X645796Y644000D02*
X644204D01*
X642734Y643391D01*
X641609Y642266D01*
X641000Y640796D01*
Y639204D01*
X641609Y637734D01*
X642734Y636609D01*
X644204Y636000D01*
X645796D01*
X647266Y636609D01*
X648391Y637734D01*
X649000Y639204D01*
Y640796D01*
X648391Y642266D01*
X647266Y643391D01*
X645796Y644000D01*
D02*
G37*
G36*
X337696Y671500D02*
X336304D01*
X335017Y670967D01*
X334033Y669983D01*
X333500Y668696D01*
Y667304D01*
X334033Y666017D01*
X335017Y665033D01*
X335271Y664928D01*
X335506Y663456D01*
X335033Y662983D01*
X334500Y661696D01*
Y660304D01*
X335033Y659017D01*
X336017Y658033D01*
X337304Y657500D01*
X338696D01*
X339029Y657638D01*
X339881Y656616D01*
X339500Y655696D01*
Y654542D01*
X339046Y653954D01*
X338458Y653500D01*
X337304D01*
X336017Y652967D01*
X335033Y651983D01*
X334500Y650696D01*
Y649304D01*
X334726Y648758D01*
X333891Y647500D01*
X333304D01*
X332017Y646967D01*
X331033Y645983D01*
X330500Y644696D01*
Y643304D01*
X331033Y642017D01*
X331287Y641763D01*
X331292Y641427D01*
X330915Y640339D01*
X330017Y639967D01*
X329033Y638983D01*
X328500Y637696D01*
Y636304D01*
X329033Y635017D01*
X330017Y634033D01*
X331304Y633500D01*
X332696D01*
X333983Y634033D01*
X334967Y635017D01*
X335500Y636304D01*
Y637696D01*
X334967Y638983D01*
X334713Y639237D01*
X334708Y639573D01*
X335085Y640661D01*
X335983Y641033D01*
X336967Y642017D01*
X337500Y643304D01*
Y644696D01*
X337274Y645242D01*
X338109Y646500D01*
X338696D01*
X339983Y647033D01*
X340967Y648017D01*
X341500Y649304D01*
Y650458D01*
X341954Y651046D01*
X342542Y651500D01*
X343696D01*
X344983Y652033D01*
X345967Y653017D01*
X346500Y654304D01*
Y655696D01*
X345967Y656983D01*
X344983Y657967D01*
X343696Y658500D01*
X342304D01*
X341971Y658362D01*
X341119Y659384D01*
X341500Y660304D01*
Y661696D01*
X340967Y662983D01*
X339983Y663967D01*
X339729Y664072D01*
X339494Y665544D01*
X339967Y666017D01*
X340500Y667304D01*
Y668696D01*
X339967Y669983D01*
X338983Y670967D01*
X337696Y671500D01*
D02*
G37*
G36*
X301696Y640500D02*
X300304D01*
X299017Y639967D01*
X298033Y638983D01*
X297500Y637696D01*
Y636304D01*
X298033Y635017D01*
X299017Y634033D01*
X300304Y633500D01*
X301696D01*
X302983Y634033D01*
X303967Y635017D01*
X304500Y636304D01*
Y637696D01*
X303967Y638983D01*
X302983Y639967D01*
X301696Y640500D01*
D02*
G37*
G36*
X669696Y638500D02*
X668304D01*
X667017Y637967D01*
X666033Y636983D01*
X665500Y635696D01*
Y634304D01*
X666033Y633017D01*
X667017Y632033D01*
X668304Y631500D01*
X669696D01*
X670983Y632033D01*
X671967Y633017D01*
X672500Y634304D01*
Y635696D01*
X671967Y636983D01*
X670983Y637967D01*
X669696Y638500D01*
D02*
G37*
G36*
X289696Y637500D02*
X288304D01*
X287017Y636967D01*
X286033Y635983D01*
X285500Y634696D01*
Y633304D01*
X286033Y632017D01*
X287017Y631033D01*
X288304Y630500D01*
X289696D01*
X290983Y631033D01*
X291967Y632017D01*
X292500Y633304D01*
Y634696D01*
X291967Y635983D01*
X290983Y636967D01*
X289696Y637500D01*
D02*
G37*
G36*
X678296Y636500D02*
X676704D01*
X675234Y635891D01*
X674109Y634766D01*
X673500Y633296D01*
Y631704D01*
X674109Y630234D01*
X675234Y629109D01*
X676704Y628500D01*
X678296D01*
X679766Y629109D01*
X680891Y630234D01*
X681500Y631704D01*
Y633296D01*
X680891Y634766D01*
X679766Y635891D01*
X678296Y636500D01*
D02*
G37*
G36*
X567696Y633500D02*
X566304D01*
X565017Y632967D01*
X564033Y631983D01*
X563500Y630696D01*
Y629304D01*
X564033Y628017D01*
X565017Y627033D01*
X566304Y626500D01*
X567696D01*
X568983Y627033D01*
X569967Y628017D01*
X570500Y629304D01*
Y630696D01*
X569967Y631983D01*
X568983Y632967D01*
X567696Y633500D01*
D02*
G37*
G36*
X505696Y631500D02*
X504304D01*
X503017Y630967D01*
X502033Y629983D01*
X501500Y628696D01*
Y627304D01*
X502033Y626017D01*
X503017Y625033D01*
X504304Y624500D01*
X505696D01*
X506983Y625033D01*
X507967Y626017D01*
X508500Y627304D01*
Y628696D01*
X507967Y629983D01*
X506983Y630967D01*
X505696Y631500D01*
D02*
G37*
G36*
X279696D02*
X278304D01*
X277017Y630967D01*
X276033Y629983D01*
X275500Y628696D01*
Y627304D01*
X276033Y626017D01*
X277017Y625033D01*
X278304Y624500D01*
X279696D01*
X280983Y625033D01*
X281967Y626017D01*
X282500Y627304D01*
Y628696D01*
X281967Y629983D01*
X280983Y630967D01*
X279696Y631500D01*
D02*
G37*
G36*
X438796Y631000D02*
X437204D01*
X435734Y630391D01*
X434609Y629266D01*
X434000Y627796D01*
Y626204D01*
X434609Y624734D01*
X435734Y623609D01*
X437204Y623000D01*
X438796D01*
X440266Y623609D01*
X441391Y624734D01*
X442000Y626204D01*
Y627796D01*
X441391Y629266D01*
X440266Y630391D01*
X438796Y631000D01*
D02*
G37*
G36*
X730696Y629500D02*
X729304D01*
X728017Y628967D01*
X727033Y627983D01*
X726500Y626696D01*
Y625304D01*
X727033Y624017D01*
X728017Y623033D01*
X729304Y622500D01*
X730696D01*
X731983Y623033D01*
X732967Y624017D01*
X733500Y625304D01*
Y626696D01*
X732967Y627983D01*
X731983Y628967D01*
X730696Y629500D01*
D02*
G37*
G36*
X868696Y628500D02*
X867304D01*
X866017Y627967D01*
X865033Y626983D01*
X864500Y625696D01*
Y624304D01*
X865033Y623017D01*
X866017Y622033D01*
X867304Y621500D01*
X868696D01*
X869983Y622033D01*
X870967Y623017D01*
X871500Y624304D01*
Y625696D01*
X870967Y626983D01*
X869983Y627967D01*
X868696Y628500D01*
D02*
G37*
G36*
X658696Y627500D02*
X657304D01*
X656017Y626967D01*
X655033Y625983D01*
X654500Y624696D01*
Y623304D01*
X655033Y622017D01*
X656017Y621033D01*
X657304Y620500D01*
X658696D01*
X659983Y621033D01*
X660967Y622017D01*
X661500Y623304D01*
Y624696D01*
X660967Y625983D01*
X659983Y626967D01*
X658696Y627500D01*
D02*
G37*
G36*
X583696D02*
X582304D01*
X581017Y626967D01*
X580033Y625983D01*
X579500Y624696D01*
Y623304D01*
X580033Y622017D01*
X581017Y621033D01*
X582304Y620500D01*
X583696D01*
X584983Y621033D01*
X585967Y622017D01*
X586500Y623304D01*
Y624696D01*
X585967Y625983D01*
X584983Y626967D01*
X583696Y627500D01*
D02*
G37*
G36*
X541796Y628000D02*
X540204D01*
X538734Y627391D01*
X537609Y626266D01*
X537000Y624796D01*
Y623204D01*
X537609Y621734D01*
X538734Y620609D01*
X540204Y620000D01*
X541796D01*
X543266Y620609D01*
X544391Y621734D01*
X545000Y623204D01*
Y624796D01*
X544391Y626266D01*
X543266Y627391D01*
X541796Y628000D01*
D02*
G37*
G36*
X407796Y618000D02*
X406204D01*
X404734Y617391D01*
X403609Y616266D01*
X403000Y614796D01*
Y613204D01*
X403609Y611734D01*
X404734Y610609D01*
X406204Y610000D01*
X407796D01*
X409266Y610609D01*
X410391Y611734D01*
X411000Y613204D01*
Y614796D01*
X410391Y616266D01*
X409266Y617391D01*
X407796Y618000D01*
D02*
G37*
G36*
X731696Y616500D02*
X730304D01*
X729017Y615967D01*
X728033Y614983D01*
X727500Y613696D01*
Y612304D01*
X728033Y611017D01*
X729017Y610033D01*
X730304Y609500D01*
X731696D01*
X732983Y610033D01*
X733967Y611017D01*
X734500Y612304D01*
Y613696D01*
X733967Y614983D01*
X732983Y615967D01*
X731696Y616500D01*
D02*
G37*
G36*
X395796Y617000D02*
X394204D01*
X392734Y616391D01*
X391609Y615266D01*
X391000Y613796D01*
Y612204D01*
X391609Y610734D01*
X392734Y609609D01*
X394204Y609000D01*
X395796D01*
X397266Y609609D01*
X398391Y610734D01*
X399000Y612204D01*
Y613796D01*
X398391Y615266D01*
X397266Y616391D01*
X395796Y617000D01*
D02*
G37*
G36*
X279696Y613500D02*
X278304D01*
X277017Y612967D01*
X276033Y611983D01*
X275500Y610696D01*
Y609304D01*
X276033Y608017D01*
X277017Y607033D01*
X278304Y606500D01*
X279696D01*
X280983Y607033D01*
X281967Y608017D01*
X282500Y609304D01*
Y610696D01*
X281967Y611983D01*
X280983Y612967D01*
X279696Y613500D01*
D02*
G37*
G36*
X857696Y597500D02*
X856304D01*
X855017Y596967D01*
X854033Y595983D01*
X853500Y594696D01*
Y593304D01*
X854033Y592017D01*
X855017Y591033D01*
X856304Y590500D01*
X857696D01*
X858983Y591033D01*
X859967Y592017D01*
X860500Y593304D01*
Y594696D01*
X859967Y595983D01*
X858983Y596967D01*
X857696Y597500D01*
D02*
G37*
G36*
X650796Y598000D02*
X649204D01*
X647734Y597391D01*
X646609Y596266D01*
X646000Y594796D01*
Y593204D01*
X646609Y591734D01*
X647734Y590609D01*
X649204Y590000D01*
X650796D01*
X652266Y590609D01*
X653391Y591734D01*
X654000Y593204D01*
Y594796D01*
X653391Y596266D01*
X652266Y597391D01*
X650796Y598000D01*
D02*
G37*
G36*
X630796Y597000D02*
X629204D01*
X627734Y596391D01*
X626609Y595266D01*
X626000Y593796D01*
Y592204D01*
X626609Y590734D01*
X627734Y589609D01*
X629204Y589000D01*
X630796D01*
X632266Y589609D01*
X633391Y590734D01*
X634000Y592204D01*
Y593796D01*
X633391Y595266D01*
X632266Y596391D01*
X630796Y597000D01*
D02*
G37*
G36*
X843196Y583500D02*
X841804D01*
X840517Y582967D01*
X839533Y581983D01*
X839527Y581969D01*
X838029Y581671D01*
X837733Y581967D01*
X836446Y582500D01*
X835054D01*
X833767Y581967D01*
X832783Y580983D01*
X832250Y579696D01*
Y578304D01*
X832783Y577017D01*
X833767Y576033D01*
X835054Y575500D01*
X836446D01*
X837733Y576033D01*
X838717Y577017D01*
X838723Y577031D01*
X840221Y577329D01*
X840517Y577033D01*
X841804Y576500D01*
X843196D01*
X844483Y577033D01*
X845467Y578017D01*
X846000Y579304D01*
Y580696D01*
X845467Y581983D01*
X844483Y582967D01*
X843196Y583500D01*
D02*
G37*
G36*
X730796Y587000D02*
X729204D01*
X727734Y586391D01*
X726609Y585266D01*
X726000Y583796D01*
Y582204D01*
X726609Y580734D01*
X727734Y579609D01*
X729204Y579000D01*
X730796D01*
X732266Y579609D01*
X733391Y580734D01*
X734000Y582204D01*
Y583796D01*
X733391Y585266D01*
X732266Y586391D01*
X730796Y587000D01*
D02*
G37*
G36*
X551796Y586000D02*
X550204D01*
X548734Y585391D01*
X547609Y584266D01*
X547000Y582796D01*
Y581204D01*
X547609Y579734D01*
X548734Y578609D01*
X550204Y578000D01*
X551796D01*
X553266Y578609D01*
X554391Y579734D01*
X555000Y581204D01*
Y582796D01*
X554391Y584266D01*
X553266Y585391D01*
X551796Y586000D01*
D02*
G37*
G36*
X700696Y582500D02*
X699304D01*
X698017Y581967D01*
X697033Y580983D01*
X696500Y579696D01*
Y578304D01*
X697033Y577017D01*
X698017Y576033D01*
X699304Y575500D01*
X700696D01*
X701983Y576033D01*
X702967Y577017D01*
X703500Y578304D01*
Y579696D01*
X702967Y580983D01*
X701983Y581967D01*
X700696Y582500D01*
D02*
G37*
G36*
X278696D02*
X277304D01*
X276017Y581967D01*
X275033Y580983D01*
X274500Y579696D01*
Y578304D01*
X275033Y577017D01*
X276017Y576033D01*
X277304Y575500D01*
X278696D01*
X279983Y576033D01*
X280967Y577017D01*
X281500Y578304D01*
Y579696D01*
X280967Y580983D01*
X279983Y581967D01*
X278696Y582500D01*
D02*
G37*
G36*
X601796Y583000D02*
X600204D01*
X598734Y582391D01*
X597609Y581266D01*
X597000Y579796D01*
Y578204D01*
X597609Y576734D01*
X598734Y575609D01*
X600204Y575000D01*
X601796D01*
X603266Y575609D01*
X604391Y576734D01*
X605000Y578204D01*
Y579796D01*
X604391Y581266D01*
X603266Y582391D01*
X601796Y583000D01*
D02*
G37*
G36*
X458696Y578500D02*
X457304D01*
X456017Y577967D01*
X455033Y576983D01*
X454500Y575696D01*
Y574304D01*
X454638Y573971D01*
X453616Y573119D01*
X452696Y573500D01*
X451304D01*
X450017Y572967D01*
X449033Y571983D01*
X448500Y570696D01*
Y569304D01*
X448638Y568971D01*
X447616Y568119D01*
X446696Y568500D01*
X445304D01*
X444017Y567967D01*
X443033Y566983D01*
X442500Y565696D01*
Y564304D01*
X443033Y563017D01*
X444017Y562033D01*
X445304Y561500D01*
X446696D01*
X447983Y562033D01*
X448967Y563017D01*
X449500Y564304D01*
Y565696D01*
X449362Y566029D01*
X450384Y566881D01*
X451304Y566500D01*
X452696D01*
X453983Y567033D01*
X454967Y568017D01*
X455500Y569304D01*
Y570696D01*
X455362Y571029D01*
X456384Y571881D01*
X457304Y571500D01*
X458696D01*
X459983Y572033D01*
X460967Y573017D01*
X461500Y574304D01*
Y575696D01*
X460967Y576983D01*
X459983Y577967D01*
X458696Y578500D01*
D02*
G37*
G36*
X515696Y578500D02*
X514304D01*
X513017Y577967D01*
X512033Y576983D01*
X511500Y575696D01*
Y574304D01*
X512033Y573017D01*
X513017Y572033D01*
X514304Y571500D01*
X515696D01*
X516983Y572033D01*
X517967Y573017D01*
X518500Y574304D01*
Y575696D01*
X517967Y576983D01*
X516983Y577967D01*
X515696Y578500D01*
D02*
G37*
G36*
X720696Y576000D02*
X719304D01*
X718017Y575467D01*
X717033Y574483D01*
X716500Y573196D01*
Y571804D01*
X717033Y570517D01*
X718017Y569533D01*
X719304Y569000D01*
X720696D01*
X721983Y569533D01*
X722967Y570517D01*
X723500Y571804D01*
Y573196D01*
X722967Y574483D01*
X721983Y575467D01*
X720696Y576000D01*
D02*
G37*
G36*
X568796Y575000D02*
X567204D01*
X565734Y574391D01*
X564609Y573266D01*
X564000Y571796D01*
Y570204D01*
X564609Y568734D01*
X565734Y567609D01*
X567204Y567000D01*
X568796D01*
X570266Y567609D01*
X571391Y568734D01*
X572000Y570204D01*
Y571796D01*
X571391Y573266D01*
X570266Y574391D01*
X568796Y575000D01*
D02*
G37*
G36*
X836696Y571500D02*
X835304D01*
X834017Y570967D01*
X833033Y569983D01*
X832500Y568696D01*
Y567304D01*
X833033Y566017D01*
X834017Y565033D01*
X835304Y564500D01*
X836696D01*
X837983Y565033D01*
X838967Y566017D01*
X839500Y567304D01*
Y568696D01*
X838967Y569983D01*
X837983Y570967D01*
X836696Y571500D01*
D02*
G37*
G36*
X670796Y572000D02*
X669204D01*
X667734Y571391D01*
X666609Y570266D01*
X666000Y568796D01*
Y567204D01*
X666609Y565734D01*
X667734Y564609D01*
X669204Y564000D01*
X670796D01*
X672266Y564609D01*
X673391Y565734D01*
X674000Y567204D01*
Y568796D01*
X673391Y570266D01*
X672266Y571391D01*
X670796Y572000D01*
D02*
G37*
G36*
X757696Y567500D02*
X756304D01*
X755017Y566967D01*
X754033Y565983D01*
X753500Y564696D01*
Y563304D01*
X754033Y562017D01*
X755017Y561033D01*
X756304Y560500D01*
X757696D01*
X758983Y561033D01*
X759237Y561287D01*
X759573Y561292D01*
X760661Y560915D01*
X761033Y560017D01*
X762017Y559033D01*
X763304Y558500D01*
X764696D01*
X765983Y559033D01*
X766967Y560017D01*
X767500Y561304D01*
Y562696D01*
X766967Y563983D01*
X765983Y564967D01*
X764696Y565500D01*
X763304D01*
X762017Y564967D01*
X761763Y564713D01*
X761427Y564708D01*
X760339Y565085D01*
X759967Y565983D01*
X758983Y566967D01*
X757696Y567500D01*
D02*
G37*
G36*
X820696Y563500D02*
X819304D01*
X818017Y562967D01*
X817033Y561983D01*
X816500Y560696D01*
Y559542D01*
X816046Y558954D01*
X815458Y558500D01*
X814542D01*
X813954Y558954D01*
X813500Y559542D01*
Y560696D01*
X812967Y561983D01*
X811983Y562967D01*
X810696Y563500D01*
X809304D01*
X808017Y562967D01*
X807033Y561983D01*
X806500Y560696D01*
Y559542D01*
X806046Y558954D01*
X805458Y558500D01*
X804304D01*
X803017Y557967D01*
X802033Y556983D01*
X801500Y555696D01*
Y554304D01*
X802033Y553017D01*
X803017Y552033D01*
X804304Y551500D01*
X805696D01*
X806983Y552033D01*
X807967Y553017D01*
X808500Y554304D01*
Y555458D01*
X808954Y556046D01*
X809542Y556500D01*
X810458D01*
X811046Y556046D01*
X811500Y555458D01*
Y554304D01*
X812033Y553017D01*
X813017Y552033D01*
X814304Y551500D01*
X815696D01*
X816983Y552033D01*
X817967Y553017D01*
X818500Y554304D01*
Y555458D01*
X818954Y556046D01*
X819542Y556500D01*
X820696D01*
X821983Y557033D01*
X822967Y558017D01*
X823500Y559304D01*
Y560696D01*
X822967Y561983D01*
X821983Y562967D01*
X820696Y563500D01*
D02*
G37*
G36*
X469696Y559500D02*
X468304D01*
X467017Y558967D01*
X466033Y557983D01*
X465500Y556696D01*
Y555304D01*
X466033Y554017D01*
X467017Y553033D01*
X468304Y552500D01*
X469696D01*
X470983Y553033D01*
X471967Y554017D01*
X472500Y555304D01*
Y556696D01*
X471967Y557983D01*
X470983Y558967D01*
X469696Y559500D01*
D02*
G37*
G36*
X772696Y558500D02*
X771304D01*
X770017Y557967D01*
X769033Y556983D01*
X768500Y555696D01*
Y554304D01*
X769033Y553017D01*
X770017Y552033D01*
X771304Y551500D01*
X772696D01*
X773983Y552033D01*
X774967Y553017D01*
X775500Y554304D01*
Y555696D01*
X774967Y556983D01*
X773983Y557967D01*
X772696Y558500D01*
D02*
G37*
G36*
X408696Y555500D02*
X407304D01*
X406017Y554967D01*
X405033Y553983D01*
X404500Y552696D01*
Y551304D01*
X405033Y550017D01*
X406017Y549033D01*
X407304Y548500D01*
X408696D01*
X409983Y549033D01*
X410967Y550017D01*
X411500Y551304D01*
Y552696D01*
X410967Y553983D01*
X409983Y554967D01*
X408696Y555500D01*
D02*
G37*
G36*
X492696Y544500D02*
X491304D01*
X490017Y543967D01*
X489033Y542983D01*
X488500Y541696D01*
Y540304D01*
X489033Y539017D01*
X490017Y538033D01*
X491304Y537500D01*
X492696D01*
X493983Y538033D01*
X494967Y539017D01*
X495500Y540304D01*
Y541696D01*
X494967Y542983D01*
X493983Y543967D01*
X492696Y544500D01*
D02*
G37*
G36*
X280696Y540500D02*
X279304D01*
X278017Y539967D01*
X277033Y538983D01*
X276500Y537696D01*
Y536304D01*
X277033Y535017D01*
X278017Y534033D01*
X279304Y533500D01*
X280696D01*
X281983Y534033D01*
X282967Y535017D01*
X283500Y536304D01*
Y537696D01*
X282967Y538983D01*
X281983Y539967D01*
X280696Y540500D01*
D02*
G37*
G36*
X411696Y543500D02*
X410304D01*
X409017Y542967D01*
X408033Y541983D01*
X407500Y540696D01*
Y539304D01*
X408033Y538017D01*
X408280Y537770D01*
X407754Y536500D01*
X407304D01*
X406017Y535967D01*
X405033Y534983D01*
X404500Y533696D01*
Y532304D01*
X405033Y531017D01*
X406017Y530033D01*
X407304Y529500D01*
X408696D01*
X409983Y530033D01*
X410967Y531017D01*
X411500Y532304D01*
Y533696D01*
X410967Y534983D01*
X410720Y535230D01*
X411246Y536500D01*
X411696D01*
X412983Y537033D01*
X413967Y538017D01*
X414500Y539304D01*
Y540696D01*
X413967Y541983D01*
X412983Y542967D01*
X411696Y543500D01*
D02*
G37*
G36*
X565696Y534500D02*
X564304D01*
X563017Y533967D01*
X562033Y532983D01*
X561500Y531696D01*
Y530304D01*
X562033Y529017D01*
X563017Y528033D01*
X564304Y527500D01*
X565696D01*
X566983Y528033D01*
X567967Y529017D01*
X568500Y530304D01*
Y531696D01*
X567967Y532983D01*
X566983Y533967D01*
X565696Y534500D01*
D02*
G37*
G36*
X358696Y530500D02*
X357304D01*
X356017Y529967D01*
X355033Y528983D01*
X354500Y527696D01*
Y526304D01*
X355033Y525017D01*
X356017Y524033D01*
X357304Y523500D01*
X358696D01*
X359983Y524033D01*
X360967Y525017D01*
X361500Y526304D01*
Y527696D01*
X360967Y528983D01*
X359983Y529967D01*
X358696Y530500D01*
D02*
G37*
G36*
X556696Y528500D02*
X555304D01*
X554017Y527967D01*
X553033Y526983D01*
X552500Y525696D01*
Y524304D01*
X553033Y523017D01*
X554017Y522033D01*
X555304Y521500D01*
X556696D01*
X557983Y522033D01*
X558967Y523017D01*
X559500Y524304D01*
Y525696D01*
X558967Y526983D01*
X557983Y527967D01*
X556696Y528500D01*
D02*
G37*
G36*
X398696D02*
X397304D01*
X396017Y527967D01*
X395033Y526983D01*
X394500Y525696D01*
Y524304D01*
X395033Y523017D01*
X396017Y522033D01*
X397304Y521500D01*
X398696D01*
X399983Y522033D01*
X400967Y523017D01*
X401500Y524304D01*
Y525696D01*
X400967Y526983D01*
X399983Y527967D01*
X398696Y528500D01*
D02*
G37*
G36*
X681696Y532500D02*
X680304D01*
X679017Y531967D01*
X678033Y530983D01*
X677500Y529696D01*
Y528304D01*
X678033Y527017D01*
X679017Y526033D01*
X680304Y525500D01*
X681458D01*
X682046Y525046D01*
X682500Y524458D01*
Y523304D01*
X683033Y522017D01*
X684017Y521033D01*
X685304Y520500D01*
X686696D01*
X687983Y521033D01*
X688967Y522017D01*
X689500Y523304D01*
Y524696D01*
X688967Y525983D01*
X687983Y526967D01*
X686696Y527500D01*
X685542D01*
X684954Y527954D01*
X684500Y528542D01*
Y529696D01*
X683967Y530983D01*
X682983Y531967D01*
X681696Y532500D01*
D02*
G37*
G36*
X477796Y528000D02*
X476204D01*
X474734Y527391D01*
X473609Y526266D01*
X473000Y524796D01*
Y523204D01*
X473609Y521734D01*
X474734Y520609D01*
X476204Y520000D01*
X477796D01*
X479266Y520609D01*
X480391Y521734D01*
X481000Y523204D01*
Y524796D01*
X480391Y526266D01*
X479266Y527391D01*
X477796Y528000D01*
D02*
G37*
G36*
X545696Y523500D02*
X544304D01*
X543017Y522967D01*
X542033Y521983D01*
X541500Y520696D01*
Y519304D01*
X542033Y518017D01*
X543017Y517033D01*
X544304Y516500D01*
X545696D01*
X546983Y517033D01*
X547967Y518017D01*
X548500Y519304D01*
Y520696D01*
X547967Y521983D01*
X546983Y522967D01*
X545696Y523500D01*
D02*
G37*
G36*
X436696Y515500D02*
X435304D01*
X434017Y514967D01*
X433251Y514201D01*
X432500Y514073D01*
X431749Y514201D01*
X430983Y514967D01*
X429696Y515500D01*
X428304D01*
X427017Y514967D01*
X426033Y513983D01*
X425500Y512696D01*
Y511304D01*
X426033Y510017D01*
X427017Y509033D01*
X428304Y508500D01*
X429696D01*
X430983Y509033D01*
X431749Y509799D01*
X432500Y509927D01*
X433251Y509799D01*
X434017Y509033D01*
X435304Y508500D01*
X436696D01*
X437983Y509033D01*
X438967Y510017D01*
X439500Y511304D01*
Y512696D01*
X438967Y513983D01*
X437983Y514967D01*
X436696Y515500D01*
D02*
G37*
G36*
X537696Y519500D02*
X536304D01*
X535017Y518967D01*
X534033Y517983D01*
X533500Y516696D01*
Y515304D01*
X534033Y514017D01*
X535017Y513033D01*
X536304Y512500D01*
X537696D01*
X538983Y513033D01*
X539967Y514017D01*
X540500Y515304D01*
Y516696D01*
X539967Y517983D01*
X538983Y518967D01*
X537696Y519500D01*
D02*
G37*
G36*
X838696Y517500D02*
X837304D01*
X836017Y516967D01*
X835033Y515983D01*
X834500Y514696D01*
Y513304D01*
X835033Y512017D01*
X836017Y511033D01*
X837304Y510500D01*
X838696D01*
X839983Y511033D01*
X840967Y512017D01*
X841500Y513304D01*
Y514696D01*
X840967Y515983D01*
X839983Y516967D01*
X838696Y517500D01*
D02*
G37*
G36*
X738184Y515712D02*
X736593D01*
X735123Y515103D01*
X733997Y513978D01*
X733389Y512508D01*
Y510916D01*
X733997Y509446D01*
X735123Y508321D01*
X736593Y507712D01*
X738184D01*
X739654Y508321D01*
X740780Y509446D01*
X741388Y510916D01*
Y512508D01*
X740780Y513978D01*
X739654Y515103D01*
X738184Y515712D01*
D02*
G37*
G36*
X791696Y531500D02*
X790304D01*
X789017Y530967D01*
X788033Y529983D01*
X787500Y528696D01*
Y527304D01*
X787721Y526770D01*
X787328Y525575D01*
X787025Y525384D01*
X786017Y524967D01*
X785033Y523983D01*
X784500Y522696D01*
Y521542D01*
X784046Y520954D01*
X783458Y520500D01*
X782304D01*
X781017Y519967D01*
X780033Y518983D01*
X779500Y517696D01*
Y516304D01*
X780033Y515017D01*
X781017Y514033D01*
X782025Y513615D01*
X782328Y513425D01*
X782721Y512230D01*
X782500Y511696D01*
Y510304D01*
X783033Y509017D01*
X784017Y508033D01*
X785304Y507500D01*
X786696D01*
X787983Y508033D01*
X788967Y509017D01*
X789500Y510304D01*
Y511696D01*
X788967Y512983D01*
X787983Y513967D01*
X786975Y514384D01*
X786672Y514575D01*
X786279Y515770D01*
X786500Y516304D01*
Y517458D01*
X786954Y518046D01*
X787542Y518500D01*
X788696D01*
X789983Y519033D01*
X790967Y520017D01*
X791500Y521304D01*
Y522696D01*
X791279Y523230D01*
X791672Y524425D01*
X791975Y524616D01*
X792983Y525033D01*
X793967Y526017D01*
X794500Y527304D01*
Y528696D01*
X793967Y529983D01*
X792983Y530967D01*
X791696Y531500D01*
D02*
G37*
G36*
X870696Y513500D02*
X869304D01*
X868017Y512967D01*
X867033Y511983D01*
X866500Y510696D01*
Y509304D01*
X867033Y508017D01*
X868017Y507033D01*
X869304Y506500D01*
X870696D01*
X871983Y507033D01*
X872967Y508017D01*
X873500Y509304D01*
Y510696D01*
X872967Y511983D01*
X871983Y512967D01*
X870696Y513500D01*
D02*
G37*
G36*
X357696Y508500D02*
X356304D01*
X355017Y507967D01*
X354033Y506983D01*
X353500Y505696D01*
Y504304D01*
X354033Y503017D01*
X355017Y502033D01*
X356304Y501500D01*
X357696D01*
X358983Y502033D01*
X359967Y503017D01*
X360500Y504304D01*
Y505696D01*
X359967Y506983D01*
X358983Y507967D01*
X357696Y508500D01*
D02*
G37*
G36*
X343696Y507500D02*
X342304D01*
X341017Y506967D01*
X340033Y505983D01*
X339500Y504696D01*
Y503304D01*
X340033Y502017D01*
X341017Y501033D01*
X342304Y500500D01*
X343696D01*
X344983Y501033D01*
X345967Y502017D01*
X346500Y503304D01*
Y504696D01*
X345967Y505983D01*
X344983Y506967D01*
X343696Y507500D01*
D02*
G37*
G36*
X701696Y503500D02*
X700304D01*
X699017Y502967D01*
X698033Y501983D01*
X697500Y500696D01*
Y499304D01*
X698033Y498017D01*
X699017Y497033D01*
X700304Y496500D01*
X701696D01*
X702983Y497033D01*
X703967Y498017D01*
X704500Y499304D01*
Y500696D01*
X703967Y501983D01*
X702983Y502967D01*
X701696Y503500D01*
D02*
G37*
G36*
X531196Y503000D02*
X529804D01*
X528517Y502467D01*
X527533Y501483D01*
X527000Y500196D01*
Y498804D01*
X527533Y497517D01*
X528517Y496533D01*
X529804Y496000D01*
X531196D01*
X532483Y496533D01*
X533467Y497517D01*
X534000Y498804D01*
Y500196D01*
X533467Y501483D01*
X532483Y502467D01*
X531196Y503000D01*
D02*
G37*
G36*
X912000Y544000D02*
X902500D01*
X893000D01*
Y543749D01*
X893647Y541333D01*
X894898Y539167D01*
X896667Y537398D01*
X898833Y536147D01*
X900662Y535657D01*
Y534343D01*
X898833Y533853D01*
X896667Y532602D01*
X894898Y530833D01*
X893647Y528667D01*
X893000Y526251D01*
Y523749D01*
X893647Y521333D01*
X894898Y519167D01*
X896667Y517398D01*
X898833Y516147D01*
X900242Y515770D01*
X900075Y514500D01*
X893000D01*
Y495500D01*
X912000D01*
Y514500D01*
X904925D01*
X904758Y515770D01*
X906167Y516147D01*
X908333Y517398D01*
X910102Y519167D01*
X911352Y521333D01*
X912000Y523749D01*
Y526251D01*
X911352Y528667D01*
X910102Y530833D01*
X908333Y532602D01*
X906167Y533853D01*
X904338Y534343D01*
Y535657D01*
X906167Y536147D01*
X908333Y537398D01*
X910102Y539167D01*
X911352Y541333D01*
X912000Y543749D01*
Y544000D01*
D02*
G37*
G36*
X278696Y502500D02*
X277304D01*
X276017Y501967D01*
X275033Y500983D01*
X274500Y499696D01*
Y498304D01*
X275033Y497017D01*
X276017Y496033D01*
X277304Y495500D01*
X278696D01*
X279983Y496033D01*
X280967Y497017D01*
X281500Y498304D01*
Y499696D01*
X280967Y500983D01*
X279983Y501967D01*
X278696Y502500D01*
D02*
G37*
G36*
X396796Y501000D02*
X395204D01*
X393734Y500391D01*
X392609Y499266D01*
X392000Y497796D01*
Y496204D01*
X392609Y494734D01*
X393734Y493609D01*
X395204Y493000D01*
X396796D01*
X398266Y493609D01*
X399391Y494734D01*
X400000Y496204D01*
Y497796D01*
X399391Y499266D01*
X398266Y500391D01*
X396796Y501000D01*
D02*
G37*
G36*
X535196Y495500D02*
X533804D01*
X532517Y494967D01*
X531533Y493983D01*
X531000Y492696D01*
Y491304D01*
X531533Y490017D01*
X532517Y489033D01*
X533804Y488500D01*
X535196D01*
X536483Y489033D01*
X537467Y490017D01*
X538000Y491304D01*
Y492696D01*
X537467Y493983D01*
X536483Y494967D01*
X535196Y495500D01*
D02*
G37*
G36*
X440196Y493500D02*
X438804D01*
X437517Y492967D01*
X436533Y491983D01*
X436000Y490696D01*
Y489304D01*
X436533Y488017D01*
X437517Y487033D01*
X438804Y486500D01*
X440196D01*
X441483Y487033D01*
X442467Y488017D01*
X443000Y489304D01*
Y490696D01*
X442467Y491983D01*
X441483Y492967D01*
X440196Y493500D01*
D02*
G37*
G36*
X657696Y498500D02*
X656304D01*
X655017Y497967D01*
X654033Y496983D01*
X653500Y495696D01*
Y494304D01*
X654033Y493017D01*
X654506Y492544D01*
X654271Y491072D01*
X654017Y490967D01*
X653033Y489983D01*
X652500Y488696D01*
Y487304D01*
X653033Y486017D01*
X654017Y485033D01*
X655304Y484500D01*
X656696D01*
X657983Y485033D01*
X658967Y486017D01*
X659500Y487304D01*
Y488696D01*
X658967Y489983D01*
X658494Y490456D01*
X658729Y491928D01*
X658983Y492033D01*
X659967Y493017D01*
X660500Y494304D01*
Y495696D01*
X659967Y496983D01*
X658983Y497967D01*
X657696Y498500D01*
D02*
G37*
G36*
X473296Y490500D02*
X471704D01*
X470234Y489891D01*
X469109Y488766D01*
X468500Y487296D01*
Y485704D01*
X469109Y484234D01*
X470234Y483109D01*
X471704Y482500D01*
X473296D01*
X474766Y483109D01*
X475891Y484234D01*
X476500Y485704D01*
Y487296D01*
X475891Y488766D01*
X474766Y489891D01*
X473296Y490500D01*
D02*
G37*
G36*
X390696Y481500D02*
X389304D01*
X388017Y480967D01*
X387033Y479983D01*
X386500Y478696D01*
Y477304D01*
X387033Y476017D01*
X388017Y475033D01*
X389304Y474500D01*
X390696D01*
X391983Y475033D01*
X392967Y476017D01*
X393500Y477304D01*
Y478696D01*
X392967Y479983D01*
X391983Y480967D01*
X390696Y481500D01*
D02*
G37*
G36*
X850696Y481000D02*
X849304D01*
X848017Y480467D01*
X847033Y479483D01*
X846500Y478196D01*
Y476804D01*
X847033Y475517D01*
X848017Y474533D01*
X849304Y474000D01*
X850696D01*
X851983Y474533D01*
X852967Y475517D01*
X853500Y476804D01*
Y478196D01*
X852967Y479483D01*
X851983Y480467D01*
X850696Y481000D01*
D02*
G37*
G36*
X729894Y481500D02*
X728302D01*
X726832Y480891D01*
X725707Y479766D01*
X725098Y478296D01*
Y476704D01*
X725707Y475234D01*
X726832Y474109D01*
X728302Y473500D01*
X729894D01*
X731364Y474109D01*
X732489Y475234D01*
X733098Y476704D01*
Y478296D01*
X732489Y479766D01*
X731364Y480891D01*
X729894Y481500D01*
D02*
G37*
G36*
X770696Y480500D02*
X769304D01*
X768017Y479967D01*
X767033Y478983D01*
X766500Y477696D01*
Y476304D01*
X767033Y475017D01*
X768017Y474033D01*
X769304Y473500D01*
X770696D01*
X771983Y474033D01*
X772967Y475017D01*
X773500Y476304D01*
Y477696D01*
X772967Y478983D01*
X771983Y479967D01*
X770696Y480500D01*
D02*
G37*
G36*
X701196Y477500D02*
X699804D01*
X698517Y476967D01*
X697533Y475983D01*
X697000Y474696D01*
Y473304D01*
X697533Y472017D01*
X698517Y471033D01*
X699804Y470500D01*
X701196D01*
X702483Y471033D01*
X703467Y472017D01*
X704000Y473304D01*
Y474696D01*
X703467Y475983D01*
X702483Y476967D01*
X701196Y477500D01*
D02*
G37*
G36*
X868296Y474000D02*
X866704D01*
X865234Y473391D01*
X864109Y472266D01*
X863500Y470796D01*
Y469204D01*
X864109Y467734D01*
X865234Y466609D01*
X866704Y466000D01*
X868296D01*
X869766Y466609D01*
X870891Y467734D01*
X871500Y469204D01*
Y470796D01*
X870891Y472266D01*
X869766Y473391D01*
X868296Y474000D01*
D02*
G37*
G36*
X395696Y469500D02*
X394304D01*
X393017Y468967D01*
X392033Y467983D01*
X391500Y466696D01*
Y465304D01*
X392033Y464017D01*
X393017Y463033D01*
X394304Y462500D01*
X395696D01*
X396983Y463033D01*
X397967Y464017D01*
X398500Y465304D01*
Y466696D01*
X397967Y467983D01*
X396983Y468967D01*
X395696Y469500D01*
D02*
G37*
G36*
X731796Y468000D02*
X730204D01*
X728734Y467391D01*
X727609Y466266D01*
X727000Y464796D01*
Y463204D01*
X727609Y461734D01*
X728734Y460609D01*
X730204Y460000D01*
X731796D01*
X733266Y460609D01*
X734391Y461734D01*
X735000Y463204D01*
Y464796D01*
X734391Y466266D01*
X733266Y467391D01*
X731796Y468000D01*
D02*
G37*
G36*
X683696Y472500D02*
X682304D01*
X681017Y471967D01*
X680033Y470983D01*
X679500Y469696D01*
Y468304D01*
X680033Y467017D01*
X681017Y466033D01*
X681885Y465673D01*
Y464327D01*
X681017Y463967D01*
X680033Y462983D01*
X679500Y461696D01*
Y460304D01*
X680033Y459017D01*
X681017Y458033D01*
X682304Y457500D01*
X683696D01*
X684983Y458033D01*
X685967Y459017D01*
X686500Y460304D01*
Y461696D01*
X685967Y462983D01*
X684983Y463967D01*
X684115Y464327D01*
Y465673D01*
X684983Y466033D01*
X685967Y467017D01*
X686500Y468304D01*
Y469696D01*
X685967Y470983D01*
X684983Y471967D01*
X683696Y472500D01*
D02*
G37*
G36*
X411696Y462500D02*
X410304D01*
X409017Y461967D01*
X408033Y460983D01*
X407500Y459696D01*
Y458304D01*
X408033Y457017D01*
X409017Y456033D01*
X410304Y455500D01*
X411696D01*
X412983Y456033D01*
X413967Y457017D01*
X414500Y458304D01*
Y459696D01*
X413967Y460983D01*
X412983Y461967D01*
X411696Y462500D01*
D02*
G37*
G36*
X443696Y461500D02*
X442304D01*
X441017Y460967D01*
X440033Y459983D01*
X439500Y458696D01*
Y457304D01*
X440033Y456017D01*
X441017Y455033D01*
X442304Y454500D01*
X443696D01*
X444983Y455033D01*
X445967Y456017D01*
X446500Y457304D01*
Y458696D01*
X445967Y459983D01*
X444983Y460967D01*
X443696Y461500D01*
D02*
G37*
G36*
X209796Y453000D02*
X208204D01*
X206734Y452391D01*
X205720Y451377D01*
X205000Y451317D01*
X204280Y451377D01*
X203266Y452391D01*
X201796Y453000D01*
X200204D01*
X198734Y452391D01*
X197609Y451266D01*
X197000Y449796D01*
Y448204D01*
X197609Y446734D01*
X198734Y445609D01*
X200204Y445000D01*
X201435D01*
X202037Y443920D01*
X202057Y443827D01*
X201609Y443378D01*
X201000Y441908D01*
Y440317D01*
X201609Y438847D01*
X202734Y437721D01*
X204204Y437112D01*
X205796D01*
X207266Y437721D01*
X208391Y438847D01*
X209000Y440317D01*
Y441908D01*
X208391Y443378D01*
X207943Y443827D01*
X207963Y443920D01*
X208565Y445000D01*
X209796D01*
X211266Y445609D01*
X212391Y446734D01*
X213000Y448204D01*
Y449796D01*
X212391Y451266D01*
X211266Y452391D01*
X209796Y453000D01*
D02*
G37*
G36*
X474796Y452000D02*
X473204D01*
X471734Y451391D01*
X470609Y450266D01*
X470000Y448796D01*
Y447204D01*
X470609Y445734D01*
X471734Y444609D01*
X473204Y444000D01*
X474796D01*
X476266Y444609D01*
X477391Y445734D01*
X478000Y447204D01*
Y448796D01*
X477391Y450266D01*
X476266Y451391D01*
X474796Y452000D01*
D02*
G37*
G36*
X391696Y449500D02*
X390304D01*
X389017Y448967D01*
X388033Y447983D01*
X387500Y446696D01*
Y445304D01*
X388033Y444017D01*
X389017Y443033D01*
X390304Y442500D01*
X391696D01*
X392983Y443033D01*
X393967Y444017D01*
X394500Y445304D01*
Y446696D01*
X393967Y447983D01*
X392983Y448967D01*
X391696Y449500D01*
D02*
G37*
G36*
X663196Y446500D02*
X661804D01*
X660517Y445967D01*
X659533Y444983D01*
X659000Y443696D01*
Y442304D01*
X659533Y441017D01*
X660517Y440033D01*
X661804Y439500D01*
X663196D01*
X664483Y440033D01*
X665467Y441017D01*
X666000Y442304D01*
Y443696D01*
X665467Y444983D01*
X664483Y445967D01*
X663196Y446500D01*
D02*
G37*
G36*
X725796Y441000D02*
X724204D01*
X722734Y440391D01*
X721609Y439266D01*
X721000Y437796D01*
Y436204D01*
X721609Y434734D01*
X722734Y433609D01*
X724204Y433000D01*
X725796D01*
X727266Y433609D01*
X728391Y434734D01*
X729000Y436204D01*
Y437796D01*
X728391Y439266D01*
X727266Y440391D01*
X725796Y441000D01*
D02*
G37*
G36*
X278696Y439500D02*
X277304D01*
X276017Y438967D01*
X275033Y437983D01*
X274500Y436696D01*
Y435304D01*
X275033Y434017D01*
X276017Y433033D01*
X277304Y432500D01*
X278696D01*
X279983Y433033D01*
X280967Y434017D01*
X281500Y435304D01*
Y436696D01*
X280967Y437983D01*
X279983Y438967D01*
X278696Y439500D01*
D02*
G37*
G36*
X811696Y437500D02*
X810304D01*
X809017Y436967D01*
X808033Y435983D01*
X807500Y434696D01*
Y433304D01*
X808033Y432017D01*
X809017Y431033D01*
X810304Y430500D01*
X811696D01*
X812983Y431033D01*
X813967Y432017D01*
X814500Y433304D01*
Y434696D01*
X813967Y435983D01*
X812983Y436967D01*
X811696Y437500D01*
D02*
G37*
G36*
X443696Y432500D02*
X442304D01*
X441017Y431967D01*
X440033Y430983D01*
X439500Y429696D01*
Y428304D01*
X440033Y427017D01*
X441017Y426033D01*
X442304Y425500D01*
X443696D01*
X444983Y426033D01*
X445967Y427017D01*
X446500Y428304D01*
Y429696D01*
X445967Y430983D01*
X444983Y431967D01*
X443696Y432500D01*
D02*
G37*
G36*
X665696Y431500D02*
X664304D01*
X663017Y430967D01*
X662033Y429983D01*
X661500Y428696D01*
Y427304D01*
X662033Y426017D01*
X663017Y425033D01*
X664304Y424500D01*
X665696D01*
X666983Y425033D01*
X667967Y426017D01*
X668500Y427304D01*
Y428696D01*
X667967Y429983D01*
X666983Y430967D01*
X665696Y431500D01*
D02*
G37*
G36*
X219696D02*
X218304D01*
X217017Y430967D01*
X216033Y429983D01*
X215500Y428696D01*
Y427304D01*
X216033Y426017D01*
X217017Y425033D01*
X218304Y424500D01*
X219696D01*
X220983Y425033D01*
X221967Y426017D01*
X222500Y427304D01*
Y428696D01*
X221967Y429983D01*
X220983Y430967D01*
X219696Y431500D01*
D02*
G37*
G36*
X398696Y430500D02*
X397304D01*
X396017Y429967D01*
X395033Y428983D01*
X394500Y427696D01*
Y426304D01*
X395033Y425017D01*
X396017Y424033D01*
X397304Y423500D01*
X398696D01*
X399983Y424033D01*
X400967Y425017D01*
X401500Y426304D01*
Y427696D01*
X400967Y428983D01*
X399983Y429967D01*
X398696Y430500D01*
D02*
G37*
G36*
X871796Y428000D02*
X870204D01*
X868734Y427391D01*
X867609Y426266D01*
X867000Y424796D01*
Y423204D01*
X867609Y421734D01*
X868734Y420609D01*
X870204Y420000D01*
X871796D01*
X873266Y420609D01*
X874391Y421734D01*
X875000Y423204D01*
Y424796D01*
X874391Y426266D01*
X873266Y427391D01*
X871796Y428000D01*
D02*
G37*
G36*
X510696Y425500D02*
X509304D01*
X508017Y424967D01*
X507033Y423983D01*
X506500Y422696D01*
Y421304D01*
X507033Y420017D01*
X508017Y419033D01*
X509304Y418500D01*
X509917D01*
X510854Y417891D01*
X511000Y417327D01*
Y416204D01*
X511609Y414734D01*
X512734Y413609D01*
X514204Y413000D01*
X515796D01*
X517266Y413609D01*
X518391Y414734D01*
X519000Y416204D01*
Y417796D01*
X518391Y419266D01*
X517266Y420391D01*
X515796Y421000D01*
X514673D01*
X514109Y421146D01*
X513500Y422083D01*
Y422696D01*
X512967Y423983D01*
X511983Y424967D01*
X510696Y425500D01*
D02*
G37*
G36*
X470296Y420000D02*
X468704D01*
X467234Y419391D01*
X466109Y418266D01*
X465500Y416796D01*
Y415204D01*
X466109Y413734D01*
X467234Y412609D01*
X468704Y412000D01*
X470296D01*
X471766Y412609D01*
X472891Y413734D01*
X473500Y415204D01*
Y416796D01*
X472891Y418266D01*
X471766Y419391D01*
X470296Y420000D01*
D02*
G37*
G36*
X840696Y415500D02*
X839304D01*
X838017Y414967D01*
X837033Y413983D01*
X836500Y412696D01*
Y411304D01*
X837033Y410017D01*
X838017Y409033D01*
X839304Y408500D01*
X840696D01*
X841983Y409033D01*
X842967Y410017D01*
X843500Y411304D01*
Y412696D01*
X842967Y413983D01*
X841983Y414967D01*
X840696Y415500D01*
D02*
G37*
G36*
X871796Y415000D02*
X870204D01*
X868734Y414391D01*
X867609Y413266D01*
X867000Y411796D01*
Y410204D01*
X867609Y408734D01*
X868734Y407609D01*
X870204Y407000D01*
X871796D01*
X873266Y407609D01*
X874391Y408734D01*
X875000Y410204D01*
Y411796D01*
X874391Y413266D01*
X873266Y414391D01*
X871796Y415000D01*
D02*
G37*
G36*
X733796D02*
X732204D01*
X730734Y414391D01*
X729609Y413266D01*
X729000Y411796D01*
Y410204D01*
X729609Y408734D01*
X730734Y407609D01*
X732204Y407000D01*
X733796D01*
X735266Y407609D01*
X736391Y408734D01*
X737000Y410204D01*
Y411796D01*
X736391Y413266D01*
X735266Y414391D01*
X733796Y415000D01*
D02*
G37*
G36*
X798696Y413500D02*
X797304D01*
X796017Y412967D01*
X795033Y411983D01*
X794500Y410696D01*
Y409304D01*
X795033Y408017D01*
X796017Y407033D01*
X797304Y406500D01*
X798696D01*
X799983Y407033D01*
X800967Y408017D01*
X801500Y409304D01*
Y410696D01*
X800967Y411983D01*
X799983Y412967D01*
X798696Y413500D01*
D02*
G37*
G36*
X461796Y411000D02*
X460204D01*
X458734Y410391D01*
X457609Y409266D01*
X457000Y407796D01*
Y406204D01*
X457609Y404734D01*
X458734Y403609D01*
X460204Y403000D01*
X461796D01*
X463266Y403609D01*
X464391Y404734D01*
X465000Y406204D01*
Y407796D01*
X464391Y409266D01*
X463266Y410391D01*
X461796Y411000D01*
D02*
G37*
G36*
X393796Y409000D02*
X392204D01*
X390734Y408391D01*
X389609Y407266D01*
X389000Y405796D01*
Y404204D01*
X389609Y402734D01*
X390734Y401609D01*
X392204Y401000D01*
X393796D01*
X395266Y401609D01*
X396391Y402734D01*
X397000Y404204D01*
Y405796D01*
X396391Y407266D01*
X395266Y408391D01*
X393796Y409000D01*
D02*
G37*
G36*
X691196Y407500D02*
X689804D01*
X688517Y406967D01*
X687533Y405983D01*
X687000Y404696D01*
Y403304D01*
X687533Y402017D01*
X688517Y401033D01*
X689804Y400500D01*
X691196D01*
X692483Y401033D01*
X693467Y402017D01*
X694000Y403304D01*
Y404696D01*
X693467Y405983D01*
X692483Y406967D01*
X691196Y407500D01*
D02*
G37*
G36*
X470796Y404000D02*
X469204D01*
X467734Y403391D01*
X466609Y402266D01*
X466000Y400796D01*
Y399204D01*
X466609Y397734D01*
X467734Y396609D01*
X469204Y396000D01*
X470796D01*
X472266Y396609D01*
X473391Y397734D01*
X474000Y399204D01*
Y400796D01*
X473391Y402266D01*
X472266Y403391D01*
X470796Y404000D01*
D02*
G37*
G36*
X770796Y403000D02*
X769204D01*
X767734Y402391D01*
X766609Y401266D01*
X766000Y399796D01*
Y398204D01*
X766609Y396734D01*
X767734Y395609D01*
X769204Y395000D01*
X770796D01*
X772266Y395609D01*
X773391Y396734D01*
X774000Y398204D01*
Y399796D01*
X773391Y401266D01*
X772266Y402391D01*
X770796Y403000D01*
D02*
G37*
G36*
X830696Y401500D02*
X829304D01*
X828017Y400967D01*
X827033Y399983D01*
X826500Y398696D01*
Y397304D01*
X827033Y396017D01*
X828017Y395033D01*
X829304Y394500D01*
X830696D01*
X831983Y395033D01*
X832967Y396017D01*
X833500Y397304D01*
Y398696D01*
X832967Y399983D01*
X831983Y400967D01*
X830696Y401500D01*
D02*
G37*
G36*
X664696Y408500D02*
X663304D01*
X662017Y407967D01*
X661033Y406983D01*
X660500Y405696D01*
Y404304D01*
X661033Y403017D01*
X661280Y402770D01*
X660754Y401500D01*
X660304D01*
X659017Y400967D01*
X658033Y399983D01*
X657500Y398696D01*
Y397304D01*
X657726Y396758D01*
X656891Y395500D01*
X656304D01*
X655017Y394967D01*
X654033Y393983D01*
X653500Y392696D01*
Y391304D01*
X654033Y390017D01*
X655017Y389033D01*
X656304Y388500D01*
X657696D01*
X658983Y389033D01*
X659967Y390017D01*
X660500Y391304D01*
Y392696D01*
X660274Y393242D01*
X661109Y394500D01*
X661696D01*
X662983Y395033D01*
X663967Y396017D01*
X664500Y397304D01*
Y398696D01*
X663967Y399983D01*
X663720Y400230D01*
X664246Y401500D01*
X664696D01*
X665983Y402033D01*
X666967Y403017D01*
X667500Y404304D01*
Y405696D01*
X666967Y406983D01*
X665983Y407967D01*
X664696Y408500D01*
D02*
G37*
G36*
X870696Y390500D02*
X869304D01*
X868017Y389967D01*
X867033Y388983D01*
X866500Y387696D01*
Y386304D01*
X867033Y385017D01*
X868017Y384033D01*
X869304Y383500D01*
X870696D01*
X871983Y384033D01*
X872967Y385017D01*
X873500Y386304D01*
Y387696D01*
X872967Y388983D01*
X871983Y389967D01*
X870696Y390500D01*
D02*
G37*
G36*
X669696Y389500D02*
X668304D01*
X667017Y388967D01*
X666033Y387983D01*
X665500Y386696D01*
Y385304D01*
X666033Y384017D01*
X667017Y383033D01*
X668304Y382500D01*
X669696D01*
X670983Y383033D01*
X671967Y384017D01*
X672500Y385304D01*
Y386696D01*
X671967Y387983D01*
X670983Y388967D01*
X669696Y389500D01*
D02*
G37*
G36*
X394696Y389500D02*
X393304D01*
X392017Y388967D01*
X391033Y387983D01*
X390500Y386696D01*
Y385304D01*
X391033Y384017D01*
X392017Y383033D01*
X393304Y382500D01*
X394696D01*
X395983Y383033D01*
X396967Y384017D01*
X397500Y385304D01*
Y386696D01*
X396967Y387983D01*
X395983Y388967D01*
X394696Y389500D01*
D02*
G37*
G36*
X682196Y388500D02*
X680804D01*
X679517Y387967D01*
X678533Y386983D01*
X678000Y385696D01*
Y384304D01*
X678533Y383017D01*
X679517Y382033D01*
X680804Y381500D01*
X682196D01*
X683483Y382033D01*
X684467Y383017D01*
X685000Y384304D01*
Y385696D01*
X684467Y386983D01*
X683483Y387967D01*
X682196Y388500D01*
D02*
G37*
G36*
X691696Y387500D02*
X690304D01*
X689017Y386967D01*
X688033Y385983D01*
X687500Y384696D01*
Y383304D01*
X688033Y382017D01*
X689017Y381033D01*
X690304Y380500D01*
X691696D01*
X692983Y381033D01*
X693967Y382017D01*
X694500Y383304D01*
Y384696D01*
X693967Y385983D01*
X692983Y386967D01*
X691696Y387500D01*
D02*
G37*
G36*
X726796Y384000D02*
X725204D01*
X723734Y383391D01*
X722609Y382266D01*
X722000Y380796D01*
Y379204D01*
X722609Y377734D01*
X723734Y376609D01*
X725204Y376000D01*
X726796D01*
X728266Y376609D01*
X729391Y377734D01*
X730000Y379204D01*
Y380796D01*
X729391Y382266D01*
X728266Y383391D01*
X726796Y384000D01*
D02*
G37*
G36*
X303696Y382500D02*
X302304D01*
X301017Y381967D01*
X300033Y380983D01*
X299500Y379696D01*
Y378304D01*
X300033Y377017D01*
X301017Y376033D01*
X302304Y375500D01*
X303696D01*
X304983Y376033D01*
X305967Y377017D01*
X306500Y378304D01*
Y379696D01*
X305967Y380983D01*
X304983Y381967D01*
X303696Y382500D01*
D02*
G37*
G36*
X298696Y372500D02*
X297304D01*
X296017Y371967D01*
X295033Y370983D01*
X294500Y369696D01*
Y368304D01*
X295033Y367017D01*
X296017Y366033D01*
X297304Y365500D01*
X298696D01*
X299983Y366033D01*
X300967Y367017D01*
X301500Y368304D01*
Y369696D01*
X300967Y370983D01*
X299983Y371967D01*
X298696Y372500D01*
D02*
G37*
G36*
X651196Y368000D02*
X649804D01*
X648517Y367467D01*
X647533Y366483D01*
X647000Y365196D01*
Y364609D01*
X646842Y364514D01*
X645730Y364220D01*
X644983Y364967D01*
X643696Y365500D01*
X642304D01*
X641017Y364967D01*
X640033Y363983D01*
X639500Y362696D01*
Y361304D01*
X640033Y360017D01*
X641017Y359033D01*
X642304Y358500D01*
X643696D01*
X644983Y359033D01*
X645967Y360017D01*
X646500Y361304D01*
Y361891D01*
X646658Y361987D01*
X647770Y362280D01*
X648517Y361533D01*
X649804Y361000D01*
X651196D01*
X652483Y361533D01*
X653467Y362517D01*
X654000Y363804D01*
Y365196D01*
X653467Y366483D01*
X652483Y367467D01*
X651196Y368000D01*
D02*
G37*
G36*
X627696Y370500D02*
X626304D01*
X625017Y369967D01*
X624033Y368983D01*
X623500Y367696D01*
Y366304D01*
X624033Y365017D01*
X625017Y364033D01*
X626304Y363500D01*
X627696D01*
X628983Y364033D01*
X629967Y365017D01*
X630500Y366304D01*
Y367696D01*
X629967Y368983D01*
X628983Y369967D01*
X627696Y370500D01*
D02*
G37*
G36*
X777696Y369500D02*
X776304D01*
X775017Y368967D01*
X774033Y367983D01*
X773500Y366696D01*
Y365304D01*
X774033Y364017D01*
X775017Y363033D01*
X776304Y362500D01*
X777696D01*
X778983Y363033D01*
X779967Y364017D01*
X780500Y365304D01*
Y366696D01*
X779967Y367983D01*
X778983Y368967D01*
X777696Y369500D01*
D02*
G37*
G36*
X804696Y368500D02*
X803304D01*
X802017Y367967D01*
X801033Y366983D01*
X800500Y365696D01*
Y364304D01*
X801033Y363017D01*
X802017Y362033D01*
X803304Y361500D01*
X804696D01*
X805983Y362033D01*
X806967Y363017D01*
X807500Y364304D01*
Y365696D01*
X806967Y366983D01*
X805983Y367967D01*
X804696Y368500D01*
D02*
G37*
G36*
X760696D02*
X759304D01*
X758017Y367967D01*
X757033Y366983D01*
X756500Y365696D01*
Y364304D01*
X757033Y363017D01*
X758017Y362033D01*
X759304Y361500D01*
X760696D01*
X761983Y362033D01*
X762967Y363017D01*
X763500Y364304D01*
Y365696D01*
X762967Y366983D01*
X761983Y367967D01*
X760696Y368500D01*
D02*
G37*
G36*
X581696Y363500D02*
X580304D01*
X579017Y362967D01*
X578033Y361983D01*
X577673Y361115D01*
X576327D01*
X575967Y361983D01*
X574983Y362967D01*
X573696Y363500D01*
X572304D01*
X571017Y362967D01*
X570033Y361983D01*
X569500Y360696D01*
Y359304D01*
X570033Y358017D01*
X571017Y357033D01*
X572304Y356500D01*
X573696D01*
X574983Y357033D01*
X575967Y358017D01*
X576327Y358885D01*
X577673D01*
X578033Y358017D01*
X579017Y357033D01*
X580304Y356500D01*
X581696D01*
X582983Y357033D01*
X583967Y358017D01*
X584500Y359304D01*
Y360696D01*
X583967Y361983D01*
X582983Y362967D01*
X581696Y363500D01*
D02*
G37*
G36*
X668196Y366500D02*
X666804D01*
X665517Y365967D01*
X664533Y364983D01*
X664000Y363696D01*
Y362304D01*
X664533Y361017D01*
X665517Y360033D01*
X666804Y359500D01*
X668196D01*
X669483Y360033D01*
X670467Y361017D01*
X671000Y362304D01*
Y363696D01*
X670467Y364983D01*
X669483Y365967D01*
X668196Y366500D01*
D02*
G37*
G36*
X293696Y361500D02*
X292304D01*
X291017Y360967D01*
X290033Y359983D01*
X289500Y358696D01*
Y357304D01*
X290033Y356017D01*
X291017Y355033D01*
X292304Y354500D01*
X293696D01*
X294983Y355033D01*
X295967Y356017D01*
X296500Y357304D01*
Y358696D01*
X295967Y359983D01*
X294983Y360967D01*
X293696Y361500D01*
D02*
G37*
G36*
X659696Y360500D02*
X658304D01*
X657017Y359967D01*
X656033Y358983D01*
X655500Y357696D01*
Y356304D01*
X656033Y355017D01*
X657017Y354033D01*
X658304Y353500D01*
X659696D01*
X660983Y354033D01*
X661967Y355017D01*
X662500Y356304D01*
Y357696D01*
X661967Y358983D01*
X660983Y359967D01*
X659696Y360500D01*
D02*
G37*
G36*
X898796Y355000D02*
X897204D01*
X895734Y354391D01*
X894609Y353266D01*
X894000Y351796D01*
Y350204D01*
X894609Y348734D01*
X895734Y347609D01*
X897204Y347000D01*
X898796D01*
X900266Y347609D01*
X901391Y348734D01*
X902000Y350204D01*
Y351796D01*
X901391Y353266D01*
X900266Y354391D01*
X898796Y355000D01*
D02*
G37*
G36*
X840796Y354000D02*
X839204D01*
X837734Y353391D01*
X836609Y352266D01*
X836000Y350796D01*
Y349204D01*
X836609Y347734D01*
X837734Y346609D01*
X839204Y346000D01*
X840796D01*
X842266Y346609D01*
X843391Y347734D01*
X844000Y349204D01*
Y350796D01*
X843391Y352266D01*
X842266Y353391D01*
X840796Y354000D01*
D02*
G37*
G36*
X288696Y350500D02*
X287304D01*
X286017Y349967D01*
X285033Y348983D01*
X284500Y347696D01*
Y346304D01*
X285033Y345017D01*
X286017Y344033D01*
X287304Y343500D01*
X288696D01*
X289983Y344033D01*
X290967Y345017D01*
X291500Y346304D01*
Y347696D01*
X290967Y348983D01*
X289983Y349967D01*
X288696Y350500D01*
D02*
G37*
G36*
X800796Y349000D02*
X799204D01*
X797734Y348391D01*
X796609Y347266D01*
X796000Y345796D01*
Y344204D01*
X796609Y342734D01*
X797734Y341609D01*
X799204Y341000D01*
X800796D01*
X802266Y341609D01*
X803391Y342734D01*
X804000Y344204D01*
Y345796D01*
X803391Y347266D01*
X802266Y348391D01*
X800796Y349000D01*
D02*
G37*
G36*
X855796Y344000D02*
X854204D01*
X852734Y343391D01*
X851609Y342266D01*
X851000Y340796D01*
Y339204D01*
X851609Y337734D01*
X852734Y336609D01*
X854204Y336000D01*
X855796D01*
X857266Y336609D01*
X858391Y337734D01*
X859000Y339204D01*
Y340796D01*
X858391Y342266D01*
X857266Y343391D01*
X855796Y344000D01*
D02*
G37*
G36*
X713796Y340000D02*
X712204D01*
X710734Y339391D01*
X709609Y338266D01*
X709000Y336796D01*
Y335204D01*
X709609Y333734D01*
X710734Y332609D01*
X712204Y332000D01*
X713796D01*
X715266Y332609D01*
X716391Y333734D01*
X717000Y335204D01*
Y336796D01*
X716391Y338266D01*
X715266Y339391D01*
X713796Y340000D01*
D02*
G37*
G36*
X732696Y335500D02*
X731304D01*
X730017Y334967D01*
X729033Y333983D01*
X728500Y332696D01*
Y331304D01*
X729033Y330017D01*
X730017Y329033D01*
X731304Y328500D01*
X732696D01*
X733983Y329033D01*
X734967Y330017D01*
X735500Y331304D01*
Y332696D01*
X734967Y333983D01*
X733983Y334967D01*
X732696Y335500D01*
D02*
G37*
G36*
X512196Y342500D02*
X510804D01*
X509517Y341967D01*
X508533Y340983D01*
X508000Y339696D01*
Y338304D01*
X508533Y337017D01*
X509517Y336033D01*
X510228Y335739D01*
X510265Y335139D01*
X510102Y334416D01*
X509017Y333967D01*
X508033Y332983D01*
X507500Y331696D01*
Y330304D01*
X508033Y329017D01*
X509017Y328033D01*
X510304Y327500D01*
X511696D01*
X512983Y328033D01*
X513967Y329017D01*
X514500Y330304D01*
Y331696D01*
X513967Y332983D01*
X512983Y333967D01*
X512272Y334262D01*
X512235Y334861D01*
X512398Y335584D01*
X513483Y336033D01*
X514467Y337017D01*
X515000Y338304D01*
Y339696D01*
X514467Y340983D01*
X513483Y341967D01*
X512196Y342500D01*
D02*
G37*
G36*
X283696Y334500D02*
X282304D01*
X281017Y333967D01*
X280033Y332983D01*
X279500Y331696D01*
Y330304D01*
X280033Y329017D01*
X281017Y328033D01*
X282304Y327500D01*
X283696D01*
X284983Y328033D01*
X285967Y329017D01*
X286500Y330304D01*
Y331696D01*
X285967Y332983D01*
X284983Y333967D01*
X283696Y334500D01*
D02*
G37*
G36*
X840796Y334000D02*
X839204D01*
X837734Y333391D01*
X836609Y332266D01*
X836000Y330796D01*
Y329204D01*
X836609Y327734D01*
X837734Y326609D01*
X839204Y326000D01*
X840796D01*
X842266Y326609D01*
X843391Y327734D01*
X844000Y329204D01*
Y330796D01*
X843391Y332266D01*
X842266Y333391D01*
X840796Y334000D01*
D02*
G37*
G36*
X673696Y327500D02*
X672304D01*
X671017Y326967D01*
X670033Y325983D01*
X669500Y324696D01*
Y323304D01*
X670033Y322017D01*
X671017Y321033D01*
X672304Y320500D01*
X673696D01*
X674983Y321033D01*
X675967Y322017D01*
X676500Y323304D01*
Y324696D01*
X675967Y325983D01*
X674983Y326967D01*
X673696Y327500D01*
D02*
G37*
G36*
X543796Y327972D02*
X542204D01*
X540734Y327363D01*
X539609Y326237D01*
X539000Y324767D01*
Y323176D01*
X539609Y321706D01*
X540734Y320581D01*
X542204Y319972D01*
X543796D01*
X545266Y320581D01*
X546391Y321706D01*
X547000Y323176D01*
Y324767D01*
X546391Y326237D01*
X545266Y327363D01*
X543796Y327972D01*
D02*
G37*
G36*
X580296Y327000D02*
X578704D01*
X577234Y326391D01*
X576109Y325266D01*
X575500Y323796D01*
Y322204D01*
X576109Y320734D01*
X577234Y319609D01*
X578704Y319000D01*
X580296D01*
X581766Y319609D01*
X582891Y320734D01*
X583500Y322204D01*
Y323796D01*
X582891Y325266D01*
X581766Y326391D01*
X580296Y327000D01*
D02*
G37*
G36*
X558796D02*
X557204D01*
X555734Y326391D01*
X554609Y325266D01*
X554000Y323796D01*
Y322204D01*
X554609Y320734D01*
X555734Y319609D01*
X557204Y319000D01*
X558796D01*
X560266Y319609D01*
X561391Y320734D01*
X562000Y322204D01*
Y323796D01*
X561391Y325266D01*
X560266Y326391D01*
X558796Y327000D01*
D02*
G37*
G36*
X855796Y324000D02*
X854204D01*
X852734Y323391D01*
X851609Y322266D01*
X851000Y320796D01*
Y319204D01*
X851609Y317734D01*
X852734Y316609D01*
X854204Y316000D01*
X855796D01*
X857266Y316609D01*
X858391Y317734D01*
X859000Y319204D01*
Y320796D01*
X858391Y322266D01*
X857266Y323391D01*
X855796Y324000D01*
D02*
G37*
G36*
X800796D02*
X799204D01*
X797734Y323391D01*
X796609Y322266D01*
X796000Y320796D01*
Y319204D01*
X796609Y317734D01*
X797734Y316609D01*
X799204Y316000D01*
X800796D01*
X802266Y316609D01*
X803391Y317734D01*
X804000Y319204D01*
Y320796D01*
X803391Y322266D01*
X802266Y323391D01*
X800796Y324000D01*
D02*
G37*
G36*
X739696Y320500D02*
X738304D01*
X737017Y319967D01*
X736033Y318983D01*
X735500Y317696D01*
Y316304D01*
X736033Y315017D01*
X737017Y314033D01*
X738304Y313500D01*
X739696D01*
X740983Y314033D01*
X741967Y315017D01*
X742500Y316304D01*
Y317696D01*
X741967Y318983D01*
X740983Y319967D01*
X739696Y320500D01*
D02*
G37*
G36*
X716696Y319500D02*
X715304D01*
X714017Y318967D01*
X713033Y317983D01*
X712500Y316696D01*
Y315304D01*
X713033Y314017D01*
X714017Y313033D01*
X715304Y312500D01*
X716696D01*
X717983Y313033D01*
X718967Y314017D01*
X719500Y315304D01*
Y316696D01*
X718967Y317983D01*
X717983Y318967D01*
X716696Y319500D01*
D02*
G37*
G36*
X588796Y320000D02*
X587204D01*
X585734Y319391D01*
X584609Y318266D01*
X584000Y316796D01*
Y315204D01*
X584609Y313734D01*
X585734Y312609D01*
X587204Y312000D01*
X588796D01*
X590266Y312609D01*
X591391Y313734D01*
X592000Y315204D01*
Y316796D01*
X591391Y318266D01*
X590266Y319391D01*
X588796Y320000D01*
D02*
G37*
G36*
X526696Y317500D02*
X525304D01*
X524017Y316967D01*
X523033Y315983D01*
X522500Y314696D01*
Y313304D01*
X523033Y312017D01*
X524017Y311033D01*
X525304Y310500D01*
X526696D01*
X527983Y311033D01*
X528967Y312017D01*
X529500Y313304D01*
Y314696D01*
X528967Y315983D01*
X527983Y316967D01*
X526696Y317500D01*
D02*
G37*
G36*
X516696D02*
X515304D01*
X514017Y316967D01*
X513033Y315983D01*
X512500Y314696D01*
Y313304D01*
X513033Y312017D01*
X514017Y311033D01*
X515304Y310500D01*
X516696D01*
X517983Y311033D01*
X518967Y312017D01*
X519500Y313304D01*
Y314696D01*
X518967Y315983D01*
X517983Y316967D01*
X516696Y317500D01*
D02*
G37*
G36*
X470696D02*
X469304D01*
X468017Y316967D01*
X467033Y315983D01*
X466500Y314696D01*
Y313304D01*
X467033Y312017D01*
X468017Y311033D01*
X469304Y310500D01*
X470696D01*
X471983Y311033D01*
X472967Y312017D01*
X473500Y313304D01*
Y314696D01*
X472967Y315983D01*
X471983Y316967D01*
X470696Y317500D01*
D02*
G37*
G36*
X697796Y318000D02*
X696204D01*
X694734Y317391D01*
X693609Y316266D01*
X693000Y314796D01*
Y313204D01*
X693609Y311734D01*
X694734Y310609D01*
X696204Y310000D01*
X697796D01*
X699266Y310609D01*
X700391Y311734D01*
X701000Y313204D01*
Y314796D01*
X700391Y316266D01*
X699266Y317391D01*
X697796Y318000D01*
D02*
G37*
G36*
X667796D02*
X666204D01*
X664734Y317391D01*
X663609Y316266D01*
X663000Y314796D01*
Y313204D01*
X663609Y311734D01*
X664734Y310609D01*
X666204Y310000D01*
X667796D01*
X669266Y310609D01*
X670391Y311734D01*
X671000Y313204D01*
Y314796D01*
X670391Y316266D01*
X669266Y317391D01*
X667796Y318000D01*
D02*
G37*
G36*
X627796Y316000D02*
X626204D01*
X624734Y315391D01*
X623609Y314266D01*
X623000Y312796D01*
Y311204D01*
X623609Y309734D01*
X624734Y308609D01*
X626204Y308000D01*
X627796D01*
X629266Y308609D01*
X630391Y309734D01*
X631000Y311204D01*
Y312796D01*
X630391Y314266D01*
X629266Y315391D01*
X627796Y316000D01*
D02*
G37*
G36*
X840796Y314000D02*
X839204D01*
X837734Y313391D01*
X836609Y312266D01*
X836000Y310796D01*
Y309204D01*
X836609Y307734D01*
X837734Y306609D01*
X839204Y306000D01*
X840796D01*
X842266Y306609D01*
X843391Y307734D01*
X844000Y309204D01*
Y310796D01*
X843391Y312266D01*
X842266Y313391D01*
X840796Y314000D01*
D02*
G37*
G36*
X278696Y318500D02*
X277304D01*
X276017Y317967D01*
X275033Y316983D01*
X274500Y315696D01*
Y314304D01*
X275033Y313017D01*
X276017Y312033D01*
X277304Y311500D01*
X278107D01*
X278399Y311500D01*
X278652Y310230D01*
X278431Y310138D01*
X278017Y309967D01*
X277033Y308983D01*
X276500Y307696D01*
Y306304D01*
X277033Y305017D01*
X278017Y304033D01*
X279304Y303500D01*
X280696D01*
X281983Y304033D01*
X282967Y305017D01*
X283500Y306304D01*
Y307696D01*
X282967Y308983D01*
X281983Y309967D01*
X280696Y310500D01*
X279893D01*
X279601Y310500D01*
X279348Y311770D01*
X279569Y311861D01*
X279983Y312033D01*
X280967Y313017D01*
X281500Y314304D01*
Y315696D01*
X280967Y316983D01*
X279983Y317967D01*
X278696Y318500D01*
D02*
G37*
G36*
X591796Y308000D02*
X590204D01*
X588734Y307391D01*
X587609Y306266D01*
X587000Y304796D01*
Y303204D01*
X587609Y301734D01*
X588734Y300609D01*
X590204Y300000D01*
X591796D01*
X593266Y300609D01*
X594391Y301734D01*
X595000Y303204D01*
Y304796D01*
X594391Y306266D01*
X593266Y307391D01*
X591796Y308000D01*
D02*
G37*
G36*
X383796Y307000D02*
X382204D01*
X380734Y306391D01*
X379609Y305266D01*
X379000Y303796D01*
Y302204D01*
X379609Y300734D01*
X380734Y299609D01*
X382204Y299000D01*
X383796D01*
X385266Y299609D01*
X386391Y300734D01*
X387000Y302204D01*
Y303796D01*
X386391Y305266D01*
X385266Y306391D01*
X383796Y307000D01*
D02*
G37*
G36*
X644696Y303500D02*
X643304D01*
X642017Y302967D01*
X641033Y301983D01*
X640500Y300696D01*
Y299304D01*
X641033Y298017D01*
X642017Y297033D01*
X643304Y296500D01*
X644696D01*
X645983Y297033D01*
X646967Y298017D01*
X647500Y299304D01*
Y300696D01*
X646967Y301983D01*
X645983Y302967D01*
X644696Y303500D01*
D02*
G37*
G36*
X825796Y304000D02*
X824204D01*
X822734Y303391D01*
X821609Y302266D01*
X821000Y300796D01*
Y299204D01*
X821609Y297734D01*
X822734Y296609D01*
X824204Y296000D01*
X825796D01*
X827266Y296609D01*
X828391Y297734D01*
X829000Y299204D01*
Y300796D01*
X828391Y302266D01*
X827266Y303391D01*
X825796Y304000D01*
D02*
G37*
G36*
X805796D02*
X804204D01*
X802734Y303391D01*
X801609Y302266D01*
X801000Y300796D01*
Y299204D01*
X801609Y297734D01*
X802734Y296609D01*
X804204Y296000D01*
X805796D01*
X807266Y296609D01*
X808391Y297734D01*
X809000Y299204D01*
Y300796D01*
X808391Y302266D01*
X807266Y303391D01*
X805796Y304000D01*
D02*
G37*
G36*
X724696Y299500D02*
X723304D01*
X722017Y298967D01*
X721033Y297983D01*
X720500Y296696D01*
Y295304D01*
X721033Y294017D01*
X722017Y293033D01*
X723304Y292500D01*
X724696D01*
X725983Y293033D01*
X726967Y294017D01*
X727500Y295304D01*
Y296696D01*
X726967Y297983D01*
X725983Y298967D01*
X724696Y299500D01*
D02*
G37*
G36*
X280696Y294500D02*
X279304D01*
X278017Y293967D01*
X277033Y292983D01*
X276500Y291696D01*
Y290304D01*
X277033Y289017D01*
X278017Y288033D01*
X279304Y287500D01*
X280696D01*
X281983Y288033D01*
X282967Y289017D01*
X283500Y290304D01*
Y291696D01*
X282967Y292983D01*
X281983Y293967D01*
X280696Y294500D01*
D02*
G37*
G36*
X478696Y292500D02*
X477304D01*
X476017Y291967D01*
X475033Y290983D01*
X474500Y289696D01*
Y288304D01*
X475033Y287017D01*
X476017Y286033D01*
X477304Y285500D01*
X478696D01*
X479983Y286033D01*
X480967Y287017D01*
X481500Y288304D01*
Y289696D01*
X480967Y290983D01*
X479983Y291967D01*
X478696Y292500D01*
D02*
G37*
G36*
X439696Y285500D02*
X438304D01*
X437017Y284967D01*
X436033Y283983D01*
X435673Y283115D01*
X434327D01*
X433967Y283983D01*
X432983Y284967D01*
X431696Y285500D01*
X430304D01*
X429017Y284967D01*
X428033Y283983D01*
X427928Y283729D01*
X426456Y283494D01*
X425983Y283967D01*
X424696Y284500D01*
X423304D01*
X422017Y283967D01*
X421033Y282983D01*
X420500Y281696D01*
Y280304D01*
X421033Y279017D01*
X422017Y278033D01*
X423304Y277500D01*
X424696D01*
X425983Y278033D01*
X426967Y279017D01*
X427072Y279271D01*
X428544Y279506D01*
X429017Y279033D01*
X430304Y278500D01*
X431696D01*
X432983Y279033D01*
X433967Y280017D01*
X434327Y280885D01*
X435673D01*
X436033Y280017D01*
X437017Y279033D01*
X438304Y278500D01*
X439696D01*
X440983Y279033D01*
X441967Y280017D01*
X442500Y281304D01*
Y282696D01*
X441967Y283983D01*
X440983Y284967D01*
X439696Y285500D01*
D02*
G37*
G36*
X453696Y286500D02*
X452304D01*
X451017Y285967D01*
X450033Y284983D01*
X449500Y283696D01*
Y282304D01*
X450033Y281017D01*
X451017Y280033D01*
X452304Y279500D01*
X453458D01*
X454046Y279046D01*
X454500Y278458D01*
Y277304D01*
X455033Y276017D01*
X456017Y275033D01*
X457304Y274500D01*
X458696D01*
X459983Y275033D01*
X460967Y276017D01*
X461500Y277304D01*
Y278696D01*
X460967Y279983D01*
X459983Y280967D01*
X458696Y281500D01*
X457542D01*
X456954Y281954D01*
X456500Y282542D01*
Y283696D01*
X455967Y284983D01*
X454983Y285967D01*
X453696Y286500D01*
D02*
G37*
G36*
X280696Y276500D02*
X279304D01*
X278017Y275967D01*
X277033Y274983D01*
X276500Y273696D01*
Y272304D01*
X277033Y271017D01*
X278017Y270033D01*
X279304Y269500D01*
X280696D01*
X281983Y270033D01*
X282967Y271017D01*
X283500Y272304D01*
Y273696D01*
X282967Y274983D01*
X281983Y275967D01*
X280696Y276500D01*
D02*
G37*
G36*
X902796Y277000D02*
X901204D01*
X899734Y276391D01*
X898609Y275266D01*
X898000Y273796D01*
Y272204D01*
X898609Y270734D01*
X899734Y269609D01*
X901204Y269000D01*
X902796D01*
X904266Y269609D01*
X905391Y270734D01*
X906000Y272204D01*
Y273796D01*
X905391Y275266D01*
X904266Y276391D01*
X902796Y277000D01*
D02*
G37*
G36*
X585696Y269250D02*
X584304D01*
X583017Y268717D01*
X582033Y267733D01*
X581500Y266446D01*
Y265054D01*
X582033Y263767D01*
X583017Y262783D01*
X584304Y262250D01*
X585696D01*
X586983Y262783D01*
X587967Y263767D01*
X588500Y265054D01*
Y266446D01*
X587967Y267733D01*
X586983Y268717D01*
X585696Y269250D01*
D02*
G37*
G36*
X910796Y270000D02*
X909204D01*
X907734Y269391D01*
X906609Y268266D01*
X906000Y266796D01*
Y265204D01*
X906609Y263734D01*
X907734Y262609D01*
X909204Y262000D01*
X910796D01*
X912266Y262609D01*
X913391Y263734D01*
X914000Y265204D01*
Y266796D01*
X913391Y268266D01*
X912266Y269391D01*
X910796Y270000D01*
D02*
G37*
G36*
X902796Y264000D02*
X901204D01*
X899734Y263391D01*
X898609Y262266D01*
X898000Y260796D01*
Y259204D01*
X898609Y257734D01*
X899734Y256609D01*
X901204Y256000D01*
X902796D01*
X904266Y256609D01*
X905391Y257734D01*
X906000Y259204D01*
Y260796D01*
X905391Y262266D01*
X904266Y263391D01*
X902796Y264000D01*
D02*
G37*
G36*
X602946Y259500D02*
X601554D01*
X600267Y258967D01*
X599283Y257983D01*
X598750Y256696D01*
Y255304D01*
X599283Y254017D01*
X600267Y253033D01*
X601554Y252500D01*
X602946D01*
X604233Y253033D01*
X605217Y254017D01*
X605750Y255304D01*
Y256696D01*
X605217Y257983D01*
X604233Y258967D01*
X602946Y259500D01*
D02*
G37*
G36*
X280696Y259500D02*
X279304D01*
X278017Y258967D01*
X277033Y257983D01*
X276500Y256696D01*
Y255304D01*
X277033Y254017D01*
X278017Y253033D01*
X279304Y252500D01*
X280696D01*
X281983Y253033D01*
X282967Y254017D01*
X283500Y255304D01*
Y256696D01*
X282967Y257983D01*
X281983Y258967D01*
X280696Y259500D01*
D02*
G37*
G36*
X910796Y256000D02*
X909204D01*
X907734Y255391D01*
X906609Y254266D01*
X906000Y252796D01*
Y251204D01*
X906609Y249734D01*
X907734Y248609D01*
X909204Y248000D01*
X910796D01*
X912266Y248609D01*
X913391Y249734D01*
X914000Y251204D01*
Y252796D01*
X913391Y254266D01*
X912266Y255391D01*
X910796Y256000D01*
D02*
G37*
G36*
X573296Y261500D02*
X571704D01*
X570234Y260891D01*
X569109Y259766D01*
X568500Y258296D01*
Y256704D01*
X569109Y255234D01*
X570234Y254109D01*
X571704Y253500D01*
X573296D01*
X573725Y253678D01*
X574444Y252601D01*
X574109Y252266D01*
X573500Y250796D01*
Y249204D01*
X574109Y247734D01*
X574444Y247399D01*
X573725Y246322D01*
X573296Y246500D01*
X571704D01*
X570234Y245891D01*
X569109Y244766D01*
X568500Y243296D01*
Y241704D01*
X569109Y240234D01*
X570234Y239109D01*
X571704Y238500D01*
X573296D01*
X574766Y239109D01*
X575891Y240234D01*
X576500Y241704D01*
Y243296D01*
X575891Y244766D01*
X575556Y245101D01*
X576275Y246178D01*
X576704Y246000D01*
X578296D01*
X579766Y246609D01*
X580891Y247734D01*
X581500Y249204D01*
Y250796D01*
X580891Y252266D01*
X579766Y253391D01*
X578296Y254000D01*
X576704D01*
X576275Y253822D01*
X575556Y254899D01*
X575891Y255234D01*
X576500Y256704D01*
Y258296D01*
X575891Y259766D01*
X574766Y260891D01*
X573296Y261500D01*
D02*
G37*
G36*
X902796Y250000D02*
X901204D01*
X899734Y249391D01*
X898609Y248266D01*
X898000Y246796D01*
Y245204D01*
X898609Y243734D01*
X899734Y242609D01*
X901204Y242000D01*
X902796D01*
X904266Y242609D01*
X905391Y243734D01*
X906000Y245204D01*
Y246796D01*
X905391Y248266D01*
X904266Y249391D01*
X902796Y250000D01*
D02*
G37*
G36*
X765696Y248500D02*
X764304D01*
X763017Y247967D01*
X762033Y246983D01*
X761500Y245696D01*
Y244304D01*
X762033Y243017D01*
X763017Y242033D01*
X764304Y241500D01*
X765696D01*
X766983Y242033D01*
X767967Y243017D01*
X768500Y244304D01*
Y245696D01*
X767967Y246983D01*
X766983Y247967D01*
X765696Y248500D01*
D02*
G37*
G36*
X280696Y244500D02*
X279304D01*
X278017Y243967D01*
X277033Y242983D01*
X276500Y241696D01*
Y240304D01*
X277033Y239017D01*
X278017Y238033D01*
X279304Y237500D01*
X280696D01*
X281983Y238033D01*
X282967Y239017D01*
X283500Y240304D01*
Y241696D01*
X282967Y242983D01*
X281983Y243967D01*
X280696Y244500D01*
D02*
G37*
G36*
X432796Y245000D02*
X431204D01*
X429734Y244391D01*
X428609Y243266D01*
X428000Y241796D01*
Y240204D01*
X428609Y238734D01*
X429734Y237609D01*
X431204Y237000D01*
X432796D01*
X434266Y237609D01*
X435391Y238734D01*
X436000Y240204D01*
Y241796D01*
X435391Y243266D01*
X434266Y244391D01*
X432796Y245000D01*
D02*
G37*
G36*
X581696Y241500D02*
X580304D01*
X579017Y240967D01*
X578033Y239983D01*
X577500Y238696D01*
Y237304D01*
X578033Y236017D01*
X579017Y235033D01*
X580304Y234500D01*
X581696D01*
X582983Y235033D01*
X583967Y236017D01*
X584500Y237304D01*
Y238696D01*
X583967Y239983D01*
X582983Y240967D01*
X581696Y241500D01*
D02*
G37*
G36*
X823696Y235750D02*
X822304D01*
X821017Y235217D01*
X820033Y234233D01*
X819500Y232946D01*
Y231554D01*
X820033Y230267D01*
X821017Y229283D01*
X822304Y228750D01*
X823696D01*
X824983Y229283D01*
X825967Y230267D01*
X826500Y231554D01*
Y232946D01*
X825967Y234233D01*
X824983Y235217D01*
X823696Y235750D01*
D02*
G37*
G36*
X643696Y234500D02*
X642304D01*
X641017Y233967D01*
X640033Y232983D01*
X639500Y231696D01*
Y230304D01*
X640033Y229017D01*
X641017Y228033D01*
X642304Y227500D01*
X643696D01*
X644983Y228033D01*
X645967Y229017D01*
X646500Y230304D01*
Y231696D01*
X645967Y232983D01*
X644983Y233967D01*
X643696Y234500D01*
D02*
G37*
G36*
X432796Y231000D02*
X431204D01*
X429734Y230391D01*
X428609Y229266D01*
X428000Y227796D01*
Y226204D01*
X428609Y224734D01*
X429734Y223609D01*
X431204Y223000D01*
X432796D01*
X434266Y223609D01*
X435391Y224734D01*
X436000Y226204D01*
Y227796D01*
X435391Y229266D01*
X434266Y230391D01*
X432796Y231000D01*
D02*
G37*
G36*
X765796Y221000D02*
X764204D01*
X762734Y220391D01*
X761609Y219266D01*
X761000Y217796D01*
Y216204D01*
X761609Y214734D01*
X762734Y213609D01*
X764204Y213000D01*
X765796D01*
X767266Y213609D01*
X768391Y214734D01*
X769000Y216204D01*
Y217796D01*
X768391Y219266D01*
X767266Y220391D01*
X765796Y221000D01*
D02*
G37*
G36*
X897796Y219000D02*
X896204D01*
X894734Y218391D01*
X893609Y217266D01*
X893000Y215796D01*
Y214204D01*
X893609Y212734D01*
X894734Y211609D01*
X896204Y211000D01*
X897796D01*
X899266Y211609D01*
X900391Y212734D01*
X901000Y214204D01*
Y215796D01*
X900391Y217266D01*
X899266Y218391D01*
X897796Y219000D01*
D02*
G37*
G36*
X875796Y217000D02*
X874204D01*
X872734Y216391D01*
X871609Y215266D01*
X871000Y213796D01*
Y212204D01*
X871609Y210734D01*
X872734Y209609D01*
X874204Y209000D01*
X875796D01*
X877266Y209609D01*
X878391Y210734D01*
X879000Y212204D01*
Y213796D01*
X878391Y215266D01*
X877266Y216391D01*
X875796Y217000D01*
D02*
G37*
G36*
X719796Y221000D02*
X718204D01*
X716734Y220391D01*
X715609Y219266D01*
X715000Y217796D01*
Y216204D01*
X715609Y214734D01*
X716734Y213609D01*
X717786Y213173D01*
Y211827D01*
X716734Y211391D01*
X715609Y210266D01*
X715000Y208796D01*
Y207204D01*
X715609Y205734D01*
X716734Y204609D01*
X718204Y204000D01*
X719796D01*
X721266Y204609D01*
X722391Y205734D01*
X723000Y207204D01*
Y208796D01*
X722391Y210266D01*
X721266Y211391D01*
X720214Y211827D01*
Y213173D01*
X721266Y213609D01*
X722391Y214734D01*
X723000Y216204D01*
Y217796D01*
X722391Y219266D01*
X721266Y220391D01*
X719796Y221000D01*
D02*
G37*
G36*
X708796Y212000D02*
X707204D01*
X705734Y211391D01*
X704609Y210266D01*
X704000Y208796D01*
Y207204D01*
X704609Y205734D01*
X705734Y204609D01*
X707204Y204000D01*
X708796D01*
X710266Y204609D01*
X711391Y205734D01*
X712000Y207204D01*
Y208796D01*
X711391Y210266D01*
X710266Y211391D01*
X708796Y212000D01*
D02*
G37*
%LPD*%
D85*
X902500Y565000D02*
D03*
Y585000D02*
D03*
Y605000D02*
D03*
Y525000D02*
D03*
Y545000D02*
D03*
Y625000D02*
D03*
Y645000D02*
D03*
Y665000D02*
D03*
X572000Y676000D02*
D03*
Y656000D02*
D03*
X552000Y676000D02*
D03*
Y656000D02*
D03*
X532000Y676000D02*
D03*
Y656000D02*
D03*
X512000Y676000D02*
D03*
Y656000D02*
D03*
X492000Y676000D02*
D03*
D86*
X902500Y505000D02*
D03*
X492000Y656000D02*
D03*
D87*
X604000Y364000D02*
D03*
X594000D02*
D03*
X854000Y634000D02*
D03*
D88*
X333250Y316750D02*
D03*
X362000Y292000D02*
D03*
X357000Y309000D02*
D03*
X359000Y271000D02*
D03*
X476000Y322000D02*
D03*
X498000Y344000D02*
D03*
X479000Y401000D02*
D03*
X388000Y423000D02*
D03*
X359000Y394000D02*
D03*
X337000Y409000D02*
D03*
X359000Y422000D02*
D03*
Y488000D02*
D03*
X447000Y485000D02*
D03*
X427000Y457000D02*
D03*
X433000Y482000D02*
D03*
X417000Y572000D02*
D03*
X358000Y539000D02*
D03*
X359000Y572000D02*
D03*
X377000Y606000D02*
D03*
X353000Y680000D02*
D03*
X293000D02*
D03*
X337000Y578000D02*
D03*
X349000Y635000D02*
D03*
X405000Y494000D02*
D03*
X414000Y605000D02*
D03*
X333000Y341000D02*
D03*
X303000Y340000D02*
D03*
X446000Y664000D02*
D03*
X393000Y646000D02*
D03*
X398000Y677000D02*
D03*
X421000Y684000D02*
D03*
X402000Y402000D02*
D03*
X331000Y433000D02*
D03*
X317000Y518000D02*
D03*
X205000Y653000D02*
D03*
X199000Y646000D02*
D03*
X211000Y659000D02*
D03*
X332000Y613000D02*
D03*
X331000Y525000D02*
D03*
X333000Y220000D02*
D03*
X302000Y219000D02*
D03*
X199000Y256000D02*
D03*
X881000Y640000D02*
D03*
X763000Y553000D02*
D03*
X780000Y551000D02*
D03*
X822500Y585000D02*
D03*
X810000Y672000D02*
D03*
X724000Y256000D02*
D03*
X785000Y269000D02*
D03*
X790000Y635000D02*
D03*
X865000Y593000D02*
D03*
X835000Y638000D02*
D03*
X898000Y316000D02*
D03*
X913000Y207000D02*
D03*
X897000Y236000D02*
D03*
Y225000D02*
D03*
X906000Y688000D02*
D03*
X837000Y692000D02*
D03*
X878000Y662000D02*
D03*
X743000Y563000D02*
D03*
X845000Y692000D02*
D03*
X591000Y678000D02*
D03*
X826000Y628000D02*
D03*
X854000Y514000D02*
D03*
X878000Y691000D02*
D03*
X852000Y600000D02*
D03*
X872000Y455000D02*
D03*
X764000Y470000D02*
D03*
Y486000D02*
D03*
X786000Y478000D02*
D03*
X776000Y506000D02*
D03*
X697000Y398000D02*
D03*
X596000Y352000D02*
D03*
X608000D02*
D03*
X771000Y386000D02*
D03*
X806000Y393000D02*
D03*
X825000Y420000D02*
D03*
X863000Y559000D02*
D03*
X840000Y546000D02*
D03*
X762000Y575000D02*
D03*
X608000Y623000D02*
D03*
X649000D02*
D03*
X674000Y653000D02*
D03*
X722000Y638000D02*
D03*
X779000Y633000D02*
D03*
X755000Y646000D02*
D03*
X786000Y611000D02*
D03*
X745000D02*
D03*
X634000Y625000D02*
D03*
X735000Y675000D02*
D03*
X680000Y680000D02*
D03*
X557500Y297500D02*
D03*
X730000Y514000D02*
D03*
X701000D02*
D03*
X872500Y500000D02*
D03*
X850000Y465000D02*
D03*
X742000Y388000D02*
D03*
X740000Y416000D02*
D03*
X741000Y407000D02*
D03*
X726000Y406000D02*
D03*
X740911Y494000D02*
D03*
X712500Y552500D02*
D03*
X728000Y446000D02*
D03*
Y427000D02*
D03*
X680000Y584000D02*
D03*
X894000Y596000D02*
D03*
X740000Y450000D02*
D03*
X790000Y445000D02*
D03*
X855000D02*
D03*
X600000Y588000D02*
D03*
X578000Y607000D02*
D03*
X630000Y540000D02*
D03*
X675000Y365000D02*
D03*
X626000Y324000D02*
D03*
X638000D02*
D03*
X210000Y674000D02*
D03*
X907500Y412500D02*
D03*
X680000Y572000D02*
D03*
X591000Y654000D02*
D03*
X759000Y650000D02*
D03*
X749000Y658000D02*
D03*
X555000Y623000D02*
D03*
X576000Y567000D02*
D03*
X670000Y592500D02*
D03*
X563000Y606000D02*
D03*
X432791Y557265D02*
D03*
X450000Y627000D02*
D03*
X524000Y606000D02*
D03*
X478000Y654000D02*
D03*
X514886Y566886D02*
D03*
X497500Y565000D02*
D03*
X505000Y557500D02*
D03*
X477000Y677500D02*
D03*
X429000Y657000D02*
D03*
X210000Y690000D02*
D03*
X882500Y370000D02*
D03*
X787500Y345000D02*
D03*
X910000Y370000D02*
D03*
X895000Y382500D02*
D03*
X795000Y239000D02*
D03*
X849000Y365000D02*
D03*
X772000Y269000D02*
D03*
X773000Y284000D02*
D03*
X464000Y614000D02*
D03*
X419000Y612000D02*
D03*
X410000Y339000D02*
D03*
X503000Y291000D02*
D03*
X456000Y266000D02*
D03*
X448000Y266000D02*
D03*
X655000Y206000D02*
D03*
X673000D02*
D03*
X712000Y246000D02*
D03*
X765000Y225000D02*
D03*
X745000Y218000D02*
D03*
X801000Y283000D02*
D03*
X898000Y304000D02*
D03*
X862000D02*
D03*
X870000Y287000D02*
D03*
X850000D02*
D03*
X417000Y551000D02*
D03*
X554000Y593000D02*
D03*
X541000Y607000D02*
D03*
X499000Y609000D02*
D03*
X795000Y262000D02*
D03*
X814000D02*
D03*
X807000Y213000D02*
D03*
X822000D02*
D03*
X832000D02*
D03*
X854000D02*
D03*
X802000Y226000D02*
D03*
X788000D02*
D03*
X801000Y248000D02*
D03*
X789000D02*
D03*
X625000Y430000D02*
D03*
X605000D02*
D03*
X585000Y450000D02*
D03*
X605000D02*
D03*
X625000D02*
D03*
Y470000D02*
D03*
X605000D02*
D03*
X585000D02*
D03*
X631000Y257000D02*
D03*
X639000Y264000D02*
D03*
X623000D02*
D03*
X634000Y215000D02*
D03*
X622000Y225000D02*
D03*
X609000D02*
D03*
X615000Y235000D02*
D03*
X622000Y245000D02*
D03*
X609000D02*
D03*
X596000Y214000D02*
D03*
X547000Y217000D02*
D03*
Y228000D02*
D03*
Y207000D02*
D03*
X535000D02*
D03*
X560000D02*
D03*
X482000Y625000D02*
D03*
X726405Y470500D02*
D03*
X696000Y329000D02*
D03*
X724000Y229000D02*
D03*
X603000Y542000D02*
D03*
X588000D02*
D03*
X537000Y591000D02*
D03*
X531000Y537000D02*
D03*
X448500Y448000D02*
D03*
X747500Y317500D02*
D03*
X451000Y548000D02*
D03*
Y524000D02*
D03*
X659000Y297000D02*
D03*
X752500Y360000D02*
D03*
X682000Y297000D02*
D03*
X706000Y237000D02*
D03*
X610000Y305000D02*
D03*
X605000Y325000D02*
D03*
X590000D02*
D03*
X545000Y305000D02*
D03*
X497500D02*
D03*
X580000Y297500D02*
D03*
X518000Y275000D02*
D03*
X544000Y693000D02*
D03*
X688000Y541000D02*
D03*
X677000D02*
D03*
X630500Y359500D02*
D03*
X443500Y415000D02*
D03*
X442000Y397000D02*
D03*
X478500Y482000D02*
D03*
X480500Y435000D02*
D03*
X625500Y487000D02*
D03*
X560500Y567000D02*
D03*
X564490Y541500D02*
D03*
X565500Y487000D02*
D03*
Y467000D02*
D03*
X575500Y541500D02*
D03*
X585500Y487000D02*
D03*
X605500D02*
D03*
X645500Y427000D02*
D03*
Y447000D02*
D03*
X669000Y452000D02*
D03*
X809000Y691000D02*
D03*
X645500Y467000D02*
D03*
X651000Y523000D02*
D03*
X665000Y508000D02*
D03*
X684000Y506000D02*
D03*
X690000Y479000D02*
D03*
X700000Y455000D02*
D03*
X700500Y430000D02*
D03*
Y446000D02*
D03*
X725257Y456757D02*
D03*
X509500Y514500D02*
D03*
X480500Y515000D02*
D03*
X509500Y459500D02*
D03*
X545500Y467000D02*
D03*
X509500Y479500D02*
D03*
X525500Y477000D02*
D03*
Y427000D02*
D03*
Y447000D02*
D03*
X483000Y448000D02*
D03*
X524500Y351500D02*
D03*
X509500Y444500D02*
D03*
Y433052D02*
D03*
X521500Y321000D02*
D03*
X545500Y353000D02*
D03*
Y437000D02*
D03*
X560500Y354000D02*
D03*
X550500Y327000D02*
D03*
X565500Y427000D02*
D03*
Y447000D02*
D03*
X585500Y427000D02*
D03*
X434000Y252000D02*
D03*
X913000Y236000D02*
D03*
X907000Y291000D02*
D03*
X908000Y335000D02*
D03*
X235000Y681000D02*
D03*
X220000Y450000D02*
D03*
X215000Y207000D02*
D03*
X209000Y233000D02*
D03*
X201000Y243000D02*
D03*
X411000Y226000D02*
D03*
X465000Y254000D02*
D03*
X497500Y207500D02*
D03*
X520000Y207000D02*
D03*
Y220000D02*
D03*
X570000Y207000D02*
D03*
M02*
