G04*
G04 #@! TF.GenerationSoftware,Altium Limited,Altium Designer,21.6.4 (81)*
G04*
G04 Layer_Physical_Order=1*
G04 Layer_Color=255*
%FSLAX44Y44*%
%MOMM*%
G71*
G04*
G04 #@! TF.SameCoordinates,6F4435E8-1246-4E1E-919F-4622FBB0EAFB*
G04*
G04*
G04 #@! TF.FilePolarity,Positive*
G04*
G01*
G75*
%ADD11C,0.2000*%
%ADD14C,0.1500*%
%ADD17R,6.8500X6.8500*%
%ADD18R,0.3000X1.4750*%
%ADD19R,1.4750X0.3000*%
%ADD20R,1.0000X0.9000*%
%ADD21R,0.7500X0.6000*%
%ADD22R,1.6500X0.6500*%
%ADD23R,0.6400X0.6000*%
%ADD24R,1.5250X0.7000*%
%ADD25R,0.6000X0.6400*%
%ADD26R,2.0000X1.5000*%
%ADD27R,2.0000X3.8000*%
%ADD28R,0.6000X0.7500*%
%ADD29R,1.5000X3.6000*%
%ADD30R,0.9500X0.3500*%
%ADD31R,2.3000X3.2300*%
%ADD32R,0.9500X0.8500*%
%ADD33R,1.2300X1.8000*%
%ADD34R,0.9000X0.4500*%
%ADD35R,1.8000X0.4500*%
%ADD36R,1.0000X1.8000*%
%ADD37R,0.9500X0.9000*%
%ADD38R,2.0000X0.3800*%
%ADD39R,1.3000X1.1000*%
%ADD40R,1.4000X1.2000*%
%ADD67C,0.3000*%
%ADD68C,0.6000*%
%ADD69C,1.0000*%
%ADD70C,0.8000*%
%ADD71C,0.5000*%
%ADD72C,0.4000*%
%ADD73C,1.5000*%
%ADD74R,1.5000X1.5000*%
%ADD75C,0.6000*%
%ADD76C,0.5000*%
G36*
X781941Y704400D02*
X778500D01*
Y699400D01*
X777000D01*
Y697900D01*
X771800D01*
Y695910D01*
X768800Y694985D01*
X767245Y696350D01*
Y698050D01*
X767245D01*
Y709050D01*
X747995D01*
Y707119D01*
X739550D01*
X738184Y706847D01*
X737027Y706073D01*
X732477Y701523D01*
X731703Y700366D01*
X731431Y699000D01*
Y692478D01*
X720672Y681719D01*
X715126D01*
X713005Y683840D01*
X713005Y686650D01*
Y695050D01*
X713005Y696350D01*
Y698370D01*
X713725Y699090D01*
X716451Y700185D01*
X718105Y699500D01*
X719895D01*
X721549Y700185D01*
X722815Y701451D01*
X723500Y703105D01*
Y704895D01*
X722815Y706549D01*
X721549Y707815D01*
X719895Y708500D01*
X718105D01*
X716451Y707815D01*
X716005Y707369D01*
X713005Y708444D01*
Y709050D01*
X693755D01*
Y699350D01*
X693755Y698050D01*
Y696540D01*
X691634Y694419D01*
X687250D01*
Y697250D01*
X673750D01*
Y687250D01*
X673750Y684750D01*
X673750Y681750D01*
Y671750D01*
X677441D01*
Y641767D01*
X669059Y633385D01*
X666059Y634627D01*
Y644500D01*
X666059Y644500D01*
X665826Y645671D01*
X665163Y646663D01*
X663559Y648267D01*
Y673000D01*
X665500D01*
Y684500D01*
Y696000D01*
X665500D01*
X665000Y698006D01*
Y699995D01*
X664239Y701832D01*
X662832Y703239D01*
X660995Y704000D01*
X659005D01*
X657168Y703239D01*
X655761Y701832D01*
X655000Y699995D01*
Y698793D01*
X655000Y698005D01*
X655500Y696000D01*
X655500Y696000D01*
Y684500D01*
Y673000D01*
X657441D01*
Y648627D01*
X654441Y647385D01*
X649413Y652413D01*
X648420Y653076D01*
X647250Y653309D01*
X647250Y653309D01*
X640500D01*
Y656000D01*
X638559D01*
Y665484D01*
X639167Y665647D01*
X641333Y666898D01*
X643102Y668667D01*
X644353Y670833D01*
X645000Y673249D01*
Y675751D01*
X644353Y678167D01*
X643102Y680333D01*
X641333Y682102D01*
X640058Y682838D01*
X639873Y683422D01*
Y685578D01*
X640058Y686162D01*
X641333Y686898D01*
X643102Y688667D01*
X644353Y690833D01*
X645000Y693249D01*
Y693500D01*
X635500D01*
Y694500D01*
X634500D01*
Y704000D01*
X634249D01*
X631833Y703353D01*
X629667Y702102D01*
X627898Y700333D01*
X627162Y699058D01*
X626578Y698873D01*
X624422D01*
X623838Y699058D01*
X623102Y700333D01*
X621333Y702102D01*
X619167Y703353D01*
X616751Y704000D01*
X614249D01*
X611833Y703353D01*
X609667Y702102D01*
X607898Y700333D01*
X607162Y699058D01*
X606578Y698873D01*
X604422D01*
X603838Y699058D01*
X603102Y700333D01*
X601333Y702102D01*
X599167Y703353D01*
X596751Y704000D01*
X594249D01*
X591833Y703353D01*
X589667Y702102D01*
X587898Y700333D01*
X587162Y699058D01*
X586578Y698873D01*
X584422D01*
X583838Y699058D01*
X583102Y700333D01*
X581333Y702102D01*
X579167Y703353D01*
X576751Y704000D01*
X574249D01*
X571833Y703353D01*
X569667Y702102D01*
X567898Y700333D01*
X567162Y699058D01*
X566578Y698873D01*
X564422D01*
X563838Y699058D01*
X563102Y700333D01*
X561333Y702102D01*
X559167Y703353D01*
X556751Y704000D01*
X556500D01*
Y694500D01*
X555500D01*
Y693500D01*
X546000D01*
Y693249D01*
X546647Y690833D01*
X547898Y688667D01*
X549565Y687000D01*
X549543Y686531D01*
X548687Y684000D01*
X546000D01*
Y665000D01*
X552441D01*
Y656000D01*
X550500D01*
Y644500D01*
Y640250D01*
X555500D01*
X560500D01*
Y644500D01*
Y656000D01*
X558559D01*
Y665000D01*
X565000D01*
Y667687D01*
X567531Y668542D01*
X568000Y668565D01*
X569667Y666898D01*
X571833Y665647D01*
X571941Y665619D01*
Y640000D01*
X571941Y640000D01*
X572174Y638829D01*
X572837Y637837D01*
X582616Y628059D01*
X581373Y625059D01*
X558267D01*
X553326Y630000D01*
X554000Y631628D01*
Y637250D01*
X550500D01*
Y637068D01*
X547500Y635826D01*
X528059Y655267D01*
Y670955D01*
X530000Y673500D01*
X530000D01*
X530283Y674765D01*
X530326Y674829D01*
X530558Y675997D01*
X530559Y676000D01*
X530501Y676293D01*
X530326Y677171D01*
X530000Y677658D01*
Y685000D01*
Y696500D01*
X520000D01*
Y695694D01*
X517000Y694451D01*
X516288Y695163D01*
X515296Y695826D01*
X514125Y696059D01*
X511500Y697069D01*
Y700500D01*
X494500D01*
Y686500D01*
X494500Y683500D01*
X494500Y682500D01*
Y677500D01*
X503000D01*
X511500D01*
Y682500D01*
X511500Y684500D01*
X511500Y687057D01*
X514500Y688299D01*
X514712Y688087D01*
X515704Y687424D01*
X516875Y687191D01*
X520000D01*
Y673500D01*
X521941D01*
Y654000D01*
X521941Y654000D01*
X522174Y652830D01*
X522837Y651837D01*
X545870Y628804D01*
X544628Y625804D01*
X517000D01*
X515927Y625590D01*
X515017Y624983D01*
X507839Y617804D01*
X386161D01*
X377063Y626902D01*
X377276Y628156D01*
X380492Y629182D01*
X382509Y627166D01*
X382509Y627165D01*
X383501Y626502D01*
X384500Y626304D01*
Y625000D01*
X406500D01*
Y631500D01*
Y638000D01*
Y644500D01*
Y651000D01*
Y657500D01*
Y664000D01*
Y670500D01*
Y677000D01*
Y683500D01*
Y690000D01*
Y697181D01*
X412169D01*
X412615Y696785D01*
X413600Y695041D01*
X413600Y691405D01*
X414361Y689568D01*
X415768Y688161D01*
X417605Y687400D01*
X419594D01*
X421432Y688161D01*
X422839Y689568D01*
X423600Y691405D01*
Y693394D01*
X425851Y695800D01*
X425900D01*
Y701000D01*
Y706200D01*
X413600D01*
Y704319D01*
X406500D01*
Y705000D01*
X384500D01*
Y696500D01*
Y690000D01*
Y683500D01*
Y677000D01*
Y670500D01*
Y663157D01*
X383694Y662860D01*
X381500Y662658D01*
X381163Y663163D01*
X381163Y663163D01*
X341413Y702913D01*
X340421Y703576D01*
X339250Y703809D01*
X339250Y703809D01*
X335500D01*
Y705000D01*
X313500D01*
Y691759D01*
X304365D01*
X303648Y692686D01*
X302767Y694759D01*
X303200Y695805D01*
Y697595D01*
X302515Y699249D01*
X301249Y700515D01*
X299595Y701200D01*
X297805D01*
X296700Y700742D01*
X293700Y700950D01*
Y700950D01*
X280700D01*
Y692450D01*
Y684450D01*
Y676450D01*
Y668450D01*
X293700D01*
Y668450D01*
X296500Y667967D01*
Y667105D01*
X297185Y665451D01*
X296385Y662190D01*
X295754Y661626D01*
X293700Y661950D01*
Y661950D01*
X280700D01*
Y653450D01*
Y647125D01*
X279700Y646252D01*
X278144Y646693D01*
X276700Y648087D01*
Y653450D01*
Y661950D01*
X263700D01*
Y660804D01*
X259154D01*
X257911Y663804D01*
X262892Y668785D01*
X263700Y668450D01*
Y668450D01*
X276700D01*
Y676450D01*
Y684450D01*
Y692450D01*
Y700950D01*
X263700D01*
Y699370D01*
X263302Y699290D01*
X262392Y698682D01*
X227772Y664062D01*
X225000Y665210D01*
Y668495D01*
X223449Y668392D01*
X223239Y668344D01*
X223090Y668288D01*
X222999Y668226D01*
X222969Y668156D01*
Y668525D01*
X213000D01*
Y671525D01*
X222969D01*
Y671895D01*
X222999Y671824D01*
X223090Y671761D01*
X223239Y671706D01*
X223449Y671658D01*
X223720Y671617D01*
X224440Y671558D01*
X225000Y671546D01*
Y672475D01*
Y674845D01*
X223449Y674742D01*
X223239Y674694D01*
X223090Y674639D01*
X222999Y674576D01*
X222969Y674505D01*
Y674875D01*
X213000D01*
Y677875D01*
X222969D01*
Y678244D01*
X222999Y678174D01*
X223090Y678111D01*
X223239Y678056D01*
X223449Y678008D01*
X223720Y677967D01*
X224440Y677908D01*
X225000Y677896D01*
Y678825D01*
Y681195D01*
X223449Y681092D01*
X223239Y681044D01*
X223090Y680988D01*
X222999Y680926D01*
X222969Y680855D01*
Y681225D01*
X213000D01*
Y684225D01*
X222969D01*
Y684594D01*
X222999Y684524D01*
X223090Y684462D01*
X223239Y684406D01*
X223449Y684358D01*
X223720Y684317D01*
X224440Y684258D01*
X225000Y684246D01*
Y686625D01*
X214359D01*
X213591Y687545D01*
X212474Y689625D01*
X212549Y690000D01*
Y717451D01*
X781941Y717451D01*
Y704400D01*
D02*
G37*
G36*
X906941Y671529D02*
X901169Y667200D01*
X898500Y668949D01*
Y690000D01*
X895569D01*
Y693000D01*
X897200D01*
Y701800D01*
Y705300D01*
X886800D01*
Y701800D01*
Y693000D01*
X888431D01*
Y690000D01*
X884500D01*
Y668000D01*
X884500D01*
X885219Y666265D01*
X876840Y657887D01*
X874069Y659035D01*
Y661500D01*
X873797Y662866D01*
X873023Y664023D01*
X872047Y665000D01*
X873289Y668000D01*
X873500D01*
Y690000D01*
X872166D01*
X871200Y692600D01*
X871200D01*
Y701400D01*
Y704900D01*
X860800D01*
Y701400D01*
Y692600D01*
X860800D01*
X859834Y690000D01*
X859500D01*
Y669068D01*
X856623Y667702D01*
X855163Y669163D01*
X854171Y669826D01*
X853000Y670059D01*
X853000Y670059D01*
X831267D01*
X828597Y672728D01*
X829745Y675500D01*
X831500D01*
Y683500D01*
X833000D01*
Y685000D01*
X842000D01*
Y690081D01*
X844592Y692486D01*
X845800Y692174D01*
Y689100D01*
X851000D01*
X856200D01*
Y691400D01*
Y701400D01*
X845800D01*
Y700059D01*
X842000D01*
Y708500D01*
X824000D01*
Y699789D01*
X823000Y699052D01*
X820000Y700567D01*
Y708500D01*
X812500D01*
Y700500D01*
X809500D01*
Y708500D01*
X802000D01*
Y704883D01*
X799200Y704400D01*
Y704400D01*
X795500D01*
Y699400D01*
X792500D01*
Y704400D01*
X788800D01*
X788059Y707093D01*
Y717451D01*
X906941Y717451D01*
Y671529D01*
D02*
G37*
G36*
X745857Y687431D02*
X747995Y685350D01*
Y684209D01*
X746646Y681209D01*
X737150D01*
X737150Y681209D01*
X735980Y680976D01*
X734987Y680313D01*
X734987Y680313D01*
X716005Y661331D01*
X713005Y662573D01*
Y663950D01*
X704880D01*
Y659950D01*
X710382D01*
X711624Y656950D01*
X707733Y653059D01*
X697000D01*
X697000Y653059D01*
X695829Y652826D01*
X694837Y652163D01*
X686330Y643656D01*
X683559Y644804D01*
Y671750D01*
X687250D01*
X687250Y685160D01*
X688850Y686760D01*
X692155D01*
X693755Y685160D01*
X693755Y682350D01*
X693755Y671800D01*
X693755Y669650D01*
Y666950D01*
X713005D01*
Y669650D01*
X713005Y670950D01*
Y672460D01*
X715126Y674581D01*
X722150D01*
X723516Y674853D01*
X724673Y675627D01*
X736478Y687431D01*
X745857D01*
D02*
G37*
G36*
X313500Y651000D02*
Y642847D01*
X310500Y641604D01*
X310441Y641663D01*
X309449Y642326D01*
X308278Y642559D01*
X308278Y642559D01*
X301500D01*
X300329Y642326D01*
X299337Y641663D01*
X299337Y641663D01*
X296700Y639026D01*
X293700Y640268D01*
Y643788D01*
X293838Y646641D01*
X295008Y646874D01*
X296001Y647537D01*
X307155Y658691D01*
X313500D01*
Y651000D01*
D02*
G37*
G36*
X265761Y640000D02*
X265739Y640190D01*
X265677Y640360D01*
X265575Y640510D01*
X265432Y640640D01*
X265250Y640750D01*
X265026Y640840D01*
X264763Y640910D01*
X264459Y640960D01*
X264115Y640990D01*
X263731Y641000D01*
Y643000D01*
X264111Y643009D01*
X264450Y643037D01*
X264750Y643083D01*
X265011Y643147D01*
X265231Y643230D01*
X265410Y643331D01*
X265550Y643451D01*
X265651Y643588D01*
X265711Y643745D01*
X265730Y643920D01*
X265761Y640000D01*
D02*
G37*
G36*
X771811Y685435D02*
X772000Y682683D01*
Y681317D01*
X771800Y678400D01*
X771800D01*
Y668400D01*
Y666100D01*
X777000D01*
X782200D01*
Y669941D01*
X789000D01*
Y657500D01*
X789000D01*
X790500Y655895D01*
Y654105D01*
X790792Y653400D01*
X789565Y650906D01*
X789035Y650400D01*
X783800D01*
Y646900D01*
X794200D01*
Y647728D01*
X794200Y650400D01*
X795894Y650500D01*
X795895Y650500D01*
X797549Y651185D01*
X798815Y652451D01*
X799500Y654105D01*
Y655895D01*
X798898Y657348D01*
X799000Y657500D01*
X799000D01*
Y666432D01*
X802000Y667674D01*
X814837Y654837D01*
X814837Y654837D01*
X815829Y654174D01*
X817000Y653941D01*
X845733D01*
X848148Y651527D01*
X847000Y648755D01*
X832000D01*
Y639380D01*
X829069D01*
X829001Y639725D01*
Y648755D01*
X807000D01*
Y632289D01*
X804000Y631047D01*
X797005Y638041D01*
X795848Y638815D01*
X794482Y639087D01*
X794200D01*
Y643900D01*
X783800D01*
Y640169D01*
X780200D01*
Y643900D01*
X775000D01*
Y645400D01*
X773500D01*
Y650400D01*
X771039D01*
Y655000D01*
X770884Y655780D01*
X770442Y656442D01*
X770442Y656442D01*
X769054Y657830D01*
X767245Y659950D01*
X767245D01*
X767245Y659950D01*
Y670950D01*
X767245D01*
Y672650D01*
X767245D01*
Y683650D01*
X767245D01*
Y684281D01*
X769438Y687272D01*
X771811Y685435D01*
D02*
G37*
G36*
X607162Y669942D02*
X607898Y668667D01*
X609667Y666898D01*
X611833Y665647D01*
X614249Y665000D01*
X616751D01*
X619167Y665647D01*
X619441Y665806D01*
X622441Y664074D01*
Y640354D01*
X619670Y639206D01*
X605713Y653163D01*
X604721Y653826D01*
X603550Y654059D01*
X603550Y654059D01*
X600500D01*
Y656000D01*
X598559D01*
Y665484D01*
X599167Y665647D01*
X601333Y666898D01*
X603102Y668667D01*
X603838Y669942D01*
X604422Y670127D01*
X606578D01*
X607162Y669942D01*
D02*
G37*
G36*
X747995Y659950D02*
X764050D01*
X769000Y655000D01*
X769000D01*
Y642000D01*
X765675Y638675D01*
X765534Y638581D01*
X764270Y637317D01*
X763000Y637765D01*
X763000Y638270D01*
Y642250D01*
X756000D01*
X749000D01*
X749000Y637250D01*
X747834Y637000D01*
X742166D01*
X741000Y637250D01*
Y642250D01*
X734000D01*
Y643750D01*
X732500D01*
Y650250D01*
X728909D01*
X728423Y651423D01*
X737000Y660000D01*
X747995D01*
Y659950D01*
D02*
G37*
G36*
X587162Y669942D02*
X587898Y668667D01*
X589667Y666898D01*
X591833Y665647D01*
X592441Y665484D01*
Y656000D01*
X590500D01*
Y644500D01*
Y633000D01*
X587890Y632059D01*
X587267D01*
X578059Y641267D01*
Y665350D01*
X579167Y665647D01*
X581333Y666898D01*
X583102Y668667D01*
X583838Y669942D01*
X584422Y670127D01*
X586578D01*
X587162Y669942D01*
D02*
G37*
G36*
X359196Y648353D02*
Y629689D01*
X356424Y628541D01*
X340733Y644233D01*
X339823Y644840D01*
X338750Y645054D01*
X335500D01*
Y657500D01*
Y665446D01*
X342103D01*
X359196Y648353D01*
D02*
G37*
G36*
X704844Y644170D02*
X688837Y628163D01*
X688174Y627171D01*
X687941Y626000D01*
X687596Y625774D01*
X684739Y624832D01*
X683332Y626239D01*
X682254Y626685D01*
X681381Y629014D01*
X681326Y630000D01*
X698267Y646941D01*
X703696D01*
X704844Y644170D01*
D02*
G37*
G36*
X263700Y629450D02*
X273577D01*
X275941Y628000D01*
X276174Y626829D01*
X276785Y625915D01*
X276715Y625578D01*
X275482Y622950D01*
X263700D01*
Y622059D01*
X249944D01*
X248796Y624830D01*
X255161Y631196D01*
X263700D01*
Y629450D01*
D02*
G37*
G36*
X852441Y619500D02*
X852441Y619500D01*
X852674Y618330D01*
X853337Y617337D01*
X868837Y601837D01*
X869829Y601174D01*
X871000Y600941D01*
X871000Y600941D01*
X886695D01*
X887451Y600185D01*
X889105Y599500D01*
X890895D01*
X892549Y600185D01*
X893005Y600641D01*
X896005Y599496D01*
Y586000D01*
Y576000D01*
Y566000D01*
Y556000D01*
Y543563D01*
X893653Y542404D01*
X893005Y542268D01*
X892170Y542826D01*
X891000Y543059D01*
X891000Y543059D01*
X880000D01*
X878829Y542826D01*
X877837Y542163D01*
X873337Y537663D01*
X872674Y536671D01*
X872441Y535500D01*
X870113Y533995D01*
X851873D01*
X849500Y536105D01*
Y537895D01*
X850884Y540479D01*
X851344Y540686D01*
X852549Y541185D01*
X853815Y542451D01*
X854500Y544105D01*
Y545895D01*
X853815Y547549D01*
X853059Y548305D01*
Y582213D01*
X852826Y583384D01*
X852163Y584376D01*
X852163Y584376D01*
X829876Y606663D01*
X828884Y607326D01*
X827713Y607559D01*
X827713Y607559D01*
X799995D01*
Y613000D01*
X790620D01*
Y615999D01*
X799995D01*
Y620716D01*
X802995Y621958D01*
X803477Y621477D01*
X804634Y620703D01*
X806000Y620431D01*
X821000D01*
X822366Y620703D01*
X823523Y621477D01*
X828023Y625977D01*
X828797Y627134D01*
X829069Y628500D01*
Y630005D01*
X852441D01*
Y619500D01*
D02*
G37*
G36*
X222990Y620929D02*
X223050Y620782D01*
X223150Y620651D01*
X223290Y620538D01*
X223470Y620442D01*
X223689Y620364D01*
X223950Y620303D01*
X224249Y620260D01*
X224590Y620234D01*
X224970Y620225D01*
Y618225D01*
X224590Y618216D01*
X224249Y618190D01*
X223950Y618147D01*
X223689Y618086D01*
X223470Y618008D01*
X223290Y617912D01*
X223150Y617799D01*
X223050Y617668D01*
X222990Y617521D01*
X222969Y617355D01*
Y621095D01*
X222990Y620929D01*
D02*
G37*
G36*
X265761Y617000D02*
X265739Y617190D01*
X265677Y617360D01*
X265575Y617510D01*
X265432Y617640D01*
X265250Y617750D01*
X265026Y617840D01*
X264763Y617910D01*
X264459Y617960D01*
X264115Y617990D01*
X263731Y618000D01*
Y620000D01*
X264111Y620009D01*
X264450Y620037D01*
X264750Y620083D01*
X265011Y620147D01*
X265231Y620230D01*
X265410Y620331D01*
X265550Y620451D01*
X265651Y620588D01*
X265711Y620745D01*
X265730Y620919D01*
X265761Y617000D01*
D02*
G37*
G36*
X783800Y631600D02*
X793353D01*
X798953Y626000D01*
X797711Y623000D01*
X781245D01*
Y615395D01*
X780622Y613023D01*
X777822Y611682D01*
X775200Y612768D01*
Y614900D01*
X770000D01*
Y616400D01*
X768500D01*
Y621400D01*
X766200D01*
X763200Y621400D01*
X763000Y624317D01*
Y628174D01*
X763743D01*
X765108Y628446D01*
X766266Y629219D01*
X767341Y630294D01*
X769800Y631600D01*
X780200D01*
Y633031D01*
X783800D01*
Y631600D01*
D02*
G37*
G36*
X291689Y612510D02*
X291750Y612340D01*
X291850Y612190D01*
X291989Y612060D01*
X292169Y611950D01*
X292390Y611860D01*
X292650Y611790D01*
X292950Y611740D01*
X293290Y611710D01*
X293669Y611700D01*
Y609700D01*
X293290Y609690D01*
X292950Y609660D01*
X292650Y609610D01*
X292390Y609540D01*
X292169Y609450D01*
X291989Y609340D01*
X291850Y609210D01*
X291750Y609060D01*
X291689Y608890D01*
X291670Y608700D01*
Y612700D01*
X291689Y612510D01*
D02*
G37*
G36*
X887578Y628790D02*
X888130Y627005D01*
X887703Y626366D01*
X887431Y625000D01*
Y622000D01*
X887703Y620634D01*
X888477Y619477D01*
X890977Y616977D01*
X892134Y616203D01*
X893500Y615931D01*
X896005D01*
Y608504D01*
X893005Y607359D01*
X892549Y607815D01*
X890895Y608500D01*
X889105D01*
X887451Y607815D01*
X886695Y607059D01*
X872267D01*
X858559Y620767D01*
Y630005D01*
X886716D01*
X887578Y628790D01*
D02*
G37*
G36*
X222990Y608229D02*
X223050Y608082D01*
X223150Y607951D01*
X223290Y607838D01*
X223470Y607742D01*
X223689Y607664D01*
X223950Y607603D01*
X224249Y607560D01*
X224590Y607534D01*
X224970Y607525D01*
Y605525D01*
X224590Y605516D01*
X224249Y605490D01*
X223950Y605447D01*
X223689Y605386D01*
X223470Y605308D01*
X223290Y605212D01*
X223150Y605099D01*
X223050Y604968D01*
X222990Y604821D01*
X222969Y604655D01*
Y608395D01*
X222990Y608229D01*
D02*
G37*
G36*
X265761Y601000D02*
X265739Y601190D01*
X265677Y601360D01*
X265575Y601510D01*
X265432Y601640D01*
X265250Y601750D01*
X265026Y601840D01*
X264763Y601910D01*
X264459Y601960D01*
X264115Y601990D01*
X263731Y602000D01*
Y604000D01*
X264111Y604009D01*
X264450Y604037D01*
X264750Y604083D01*
X265011Y604147D01*
X265231Y604230D01*
X265410Y604331D01*
X265550Y604450D01*
X265651Y604589D01*
X265711Y604745D01*
X265730Y604920D01*
X265761Y601000D01*
D02*
G37*
G36*
X222990Y595529D02*
X223050Y595382D01*
X223150Y595251D01*
X223290Y595138D01*
X223470Y595042D01*
X223689Y594964D01*
X223950Y594903D01*
X224249Y594860D01*
X224590Y594834D01*
X224970Y594825D01*
Y592825D01*
X224590Y592816D01*
X224249Y592790D01*
X223950Y592747D01*
X223689Y592686D01*
X223470Y592608D01*
X223290Y592512D01*
X223150Y592399D01*
X223050Y592268D01*
X222990Y592121D01*
X222969Y591955D01*
Y595695D01*
X222990Y595529D01*
D02*
G37*
G36*
X280700Y620618D02*
Y614450D01*
Y606450D01*
Y598450D01*
Y590450D01*
X293700D01*
Y590450D01*
X293889Y590493D01*
X297110Y588156D01*
X297170Y587495D01*
X294354Y584679D01*
X293700Y584950D01*
Y584950D01*
X280700D01*
Y576450D01*
Y568450D01*
Y560450D01*
Y552450D01*
X293700D01*
Y553641D01*
X302033D01*
X302099Y553575D01*
X302218Y553402D01*
X302460Y550373D01*
X302228Y549553D01*
X297433Y544759D01*
X293700D01*
Y545950D01*
X280700D01*
Y537450D01*
Y529450D01*
Y521450D01*
Y513450D01*
X293700D01*
Y514641D01*
X301950D01*
X301950Y514641D01*
X303121Y514874D01*
X304113Y515537D01*
X307767Y519191D01*
X313500D01*
Y505759D01*
X293700D01*
Y506950D01*
X280700D01*
Y498450D01*
Y490450D01*
Y482450D01*
Y474450D01*
X293700D01*
Y474450D01*
X296268Y473406D01*
X304942Y464732D01*
X303923Y461509D01*
X302981Y461345D01*
X298463Y465863D01*
X297471Y466526D01*
X296300Y466759D01*
X293700Y467895D01*
Y467950D01*
X280700D01*
Y459450D01*
Y451450D01*
Y443450D01*
Y437898D01*
X278700Y436703D01*
X276700Y437898D01*
Y443450D01*
Y451450D01*
Y459450D01*
Y467950D01*
X264015D01*
X263804Y468161D01*
Y474450D01*
X276700D01*
Y482450D01*
Y490450D01*
Y498450D01*
Y506950D01*
X264015D01*
X246444Y524521D01*
X247687Y527521D01*
X250514D01*
X262317Y515717D01*
X263227Y515110D01*
X263700Y515015D01*
Y513450D01*
X276700D01*
Y521450D01*
Y529450D01*
Y537450D01*
Y545950D01*
X264015D01*
X260299Y549666D01*
X261030Y551431D01*
X263700Y552450D01*
Y552450D01*
X263700Y552450D01*
X276700D01*
Y560450D01*
Y568450D01*
Y576450D01*
Y584950D01*
X263700D01*
Y584184D01*
X240392D01*
X239149Y587184D01*
X243861Y591896D01*
X263700D01*
Y590450D01*
X276700D01*
Y598450D01*
Y606450D01*
Y614450D01*
Y619601D01*
X279700Y621252D01*
X280700Y620618D01*
D02*
G37*
G36*
X222990Y582829D02*
X223050Y582682D01*
X223150Y582551D01*
X223290Y582438D01*
X223470Y582342D01*
X223689Y582264D01*
X223950Y582203D01*
X224249Y582160D01*
X224590Y582134D01*
X224970Y582125D01*
Y580125D01*
X224590Y580116D01*
X224249Y580090D01*
X223950Y580047D01*
X223689Y579986D01*
X223470Y579908D01*
X223290Y579812D01*
X223150Y579699D01*
X223050Y579568D01*
X222990Y579421D01*
X222969Y579255D01*
Y582994D01*
X222990Y582829D01*
D02*
G37*
G36*
X265761Y579125D02*
X265739Y579315D01*
X265677Y579485D01*
X265575Y579635D01*
X265432Y579765D01*
X265249Y579875D01*
X265026Y579965D01*
X264763Y580035D01*
X264459Y580085D01*
X264115Y580115D01*
X263731Y580125D01*
Y582125D01*
X264111Y582133D01*
X264750Y582197D01*
X265011Y582252D01*
X265231Y582324D01*
X265410Y582411D01*
X265550Y582514D01*
X265651Y582633D01*
X265711Y582769D01*
X265730Y582919D01*
X265761Y579125D01*
D02*
G37*
G36*
X926626Y715844D02*
X926704Y714451D01*
X925430Y713177D01*
X925291Y712968D01*
X925113Y712791D01*
X924019Y711153D01*
X923923Y710921D01*
X923783Y710712D01*
X923029Y708892D01*
X922980Y708646D01*
X922884Y708414D01*
X922500Y706482D01*
Y706231D01*
X922451Y705985D01*
Y704015D01*
X922500Y703769D01*
Y703518D01*
X922884Y701586D01*
X922980Y701354D01*
X923029Y701108D01*
X923783Y699288D01*
X923923Y699079D01*
X924019Y698847D01*
X925113Y697209D01*
X925291Y697032D01*
X925430Y696823D01*
X926823Y695430D01*
X927032Y695291D01*
X927209Y695113D01*
X928847Y694019D01*
X929079Y693923D01*
X929288Y693783D01*
X931108Y693029D01*
X931354Y692980D01*
X931586Y692884D01*
X933518Y692500D01*
X933769D01*
X934015Y692451D01*
X935985D01*
X936231Y692500D01*
X936482D01*
X938414Y692884D01*
X938646Y692980D01*
X938892Y693029D01*
X940712Y693783D01*
X940921Y693923D01*
X941153Y694019D01*
X942791Y695113D01*
X942968Y695291D01*
X943177Y695430D01*
X944451Y696704D01*
X945844Y696626D01*
X947451Y695647D01*
Y655118D01*
X944451Y655000D01*
X940250D01*
Y650000D01*
Y645000D01*
X944500D01*
Y645000D01*
X947451Y644882D01*
X947451Y579967D01*
X947261Y579817D01*
X944451Y578875D01*
X940882Y582444D01*
X941500Y584749D01*
Y587251D01*
X940853Y589667D01*
X939602Y591833D01*
X937833Y593602D01*
X936558Y594338D01*
X936373Y594922D01*
Y597078D01*
X936558Y597662D01*
X937833Y598398D01*
X939602Y600167D01*
X940853Y602333D01*
X941500Y604749D01*
Y607251D01*
X940853Y609667D01*
X939602Y611833D01*
X937833Y613602D01*
X936558Y614338D01*
X936373Y614922D01*
Y617078D01*
X936558Y617662D01*
X937833Y618398D01*
X939602Y620167D01*
X940853Y622333D01*
X941500Y624749D01*
Y627251D01*
X940853Y629667D01*
X939602Y631833D01*
X937833Y633602D01*
X935667Y634853D01*
X933251Y635500D01*
X930749D01*
X929819Y635251D01*
X928266Y637940D01*
X929163Y638837D01*
X929826Y639829D01*
X930059Y641000D01*
X930059Y641000D01*
Y645000D01*
X937250D01*
Y650000D01*
Y655000D01*
X921500D01*
Y645000D01*
X923297D01*
X923674Y642000D01*
X913837Y632163D01*
X913174Y631171D01*
X912941Y630000D01*
X912941Y630000D01*
Y623000D01*
X905725D01*
X905380Y623069D01*
X898358D01*
X897115Y626069D01*
X906523Y635477D01*
X907297Y636634D01*
X907569Y638000D01*
Y644800D01*
X910900D01*
Y650000D01*
Y655200D01*
X906354D01*
X906182Y656066D01*
X905409Y657223D01*
X904403Y658229D01*
X904410Y661984D01*
X911835Y667553D01*
X911981Y667716D01*
X912163Y667837D01*
X912376Y668156D01*
X912632Y668442D01*
X912704Y668648D01*
X912826Y668829D01*
X912901Y669206D01*
X913028Y669567D01*
X913016Y669786D01*
X913059Y670000D01*
Y717451D01*
X925647D01*
X926626Y715844D01*
D02*
G37*
G36*
X708317Y632358D02*
X709132Y631944D01*
X710902Y630000D01*
X711000Y629507D01*
Y629005D01*
X711192Y628542D01*
X711290Y628049D01*
X711569Y627632D01*
X711761Y627168D01*
X712116Y626813D01*
X712395Y626395D01*
X712813Y626116D01*
X713168Y625761D01*
X713632Y625569D01*
X714049Y625290D01*
X714542Y625192D01*
X715005Y625000D01*
X715508D01*
X716000Y624902D01*
X716492Y625000D01*
X716995D01*
X717362Y625152D01*
X727000D01*
Y623750D01*
X741000D01*
Y623871D01*
X744000Y625002D01*
X744005Y625000D01*
X744508D01*
X745000Y624902D01*
X745492Y625000D01*
X745995D01*
X746000Y625002D01*
X746446Y624826D01*
X749000Y623750D01*
D01*
X751706Y623039D01*
X752800Y621400D01*
X752800Y620750D01*
Y617900D01*
X758000D01*
Y614900D01*
X752800D01*
Y611400D01*
Y602600D01*
X752902D01*
Y597250D01*
X751000D01*
Y586750D01*
X751000Y584250D01*
X751000Y581250D01*
Y578750D01*
X758000D01*
X765000D01*
Y581250D01*
X765000Y583750D01*
X767523Y584902D01*
X769243D01*
X770500Y584652D01*
X772451Y585040D01*
X774105Y586145D01*
X775210Y587799D01*
X775598Y589750D01*
X775210Y591701D01*
X774105Y593355D01*
X773855Y593605D01*
X773737Y593837D01*
X773618Y597254D01*
X773815Y597451D01*
X774500Y599105D01*
Y600895D01*
X775058Y602255D01*
X776281Y603861D01*
X778000Y603941D01*
X778245Y603990D01*
X780677Y602561D01*
X781245Y601952D01*
Y591000D01*
Y579726D01*
X779500Y577559D01*
X778329Y577326D01*
X777337Y576663D01*
X777337Y576663D01*
X772733Y572059D01*
X765000D01*
Y575750D01*
X758000D01*
X751000D01*
Y572059D01*
X738000D01*
X736830Y571826D01*
X735837Y571163D01*
X729373Y564699D01*
X726942Y565599D01*
X726500Y565935D01*
Y574035D01*
X726569Y574380D01*
Y581022D01*
X740823Y595277D01*
X741597Y596434D01*
X741617Y596538D01*
X742964Y597600D01*
X743200D01*
Y597786D01*
X744105Y598500D01*
X745895D01*
X747549Y599185D01*
X748815Y600451D01*
X749500Y602105D01*
Y603895D01*
X748815Y605549D01*
X747549Y606815D01*
X745895Y607500D01*
X744105D01*
X743200Y608105D01*
Y609900D01*
X732755D01*
X731696Y608533D01*
X729610D01*
X728315Y609900D01*
X716800D01*
Y609085D01*
X713995Y607000D01*
X712005D01*
X711200Y607538D01*
Y609900D01*
X706000D01*
Y611400D01*
X704500D01*
Y616400D01*
X700800D01*
Y616400D01*
X698059Y617025D01*
Y622733D01*
X707784Y632459D01*
X708317Y632358D01*
D02*
G37*
G36*
X417238Y581343D02*
X418392Y578941D01*
X418000Y577995D01*
Y576005D01*
X418019Y575959D01*
X418412Y574093D01*
X417943Y572873D01*
X417118Y571569D01*
X406500D01*
Y572000D01*
X384500D01*
X383826Y573171D01*
X383163Y574163D01*
X383163Y574163D01*
X378385Y578941D01*
X379627Y581941D01*
X416635D01*
X417238Y581343D01*
D02*
G37*
G36*
X348565Y575109D02*
X348480Y572650D01*
X348034Y571398D01*
X347695Y571059D01*
X335500D01*
Y572000D01*
X313500D01*
Y563500D01*
Y557809D01*
X306517D01*
X305463Y558863D01*
X304471Y559526D01*
X303300Y559759D01*
X303300Y559759D01*
X298105D01*
X297182Y561822D01*
X297085Y562759D01*
X316267Y581941D01*
X341733D01*
X348565Y575109D01*
D02*
G37*
G36*
X719500Y574035D02*
Y565005D01*
X725792D01*
X726593Y564388D01*
X728072Y562656D01*
X727941Y562000D01*
X727941Y562000D01*
Y559107D01*
X726551Y556762D01*
X725016Y556500D01*
X724605D01*
X722951Y555815D01*
X721685Y554549D01*
X721000Y552895D01*
Y552284D01*
X718465Y550425D01*
X718228Y550362D01*
X717895Y550500D01*
X716105D01*
X714451Y549815D01*
X713185Y548549D01*
X712500Y546895D01*
Y545105D01*
X713185Y543451D01*
X714451Y542185D01*
X716105Y541500D01*
X717895D01*
X718259Y541651D01*
X719312Y541441D01*
X720967D01*
X722000Y539895D01*
Y538105D01*
X722685Y536451D01*
X723951Y535185D01*
X725605Y534500D01*
X727395D01*
X729049Y535185D01*
X730055Y536191D01*
X733505D01*
Y535999D01*
X742880D01*
Y533069D01*
X742535Y533000D01*
X733505D01*
Y531602D01*
X732029Y530528D01*
X730505Y530040D01*
X729395Y530500D01*
X727605D01*
X725951Y529815D01*
X725695Y529559D01*
X711305D01*
X711049Y529815D01*
X709395Y530500D01*
X707605D01*
X705951Y529815D01*
X704685Y528549D01*
X704000Y526895D01*
Y525105D01*
X704685Y523451D01*
X705951Y522185D01*
X707605Y521500D01*
X709395D01*
X709728Y521638D01*
X709965Y521575D01*
X712500Y519716D01*
Y519105D01*
X713185Y517451D01*
X714451Y516185D01*
X716105Y515500D01*
X717418D01*
X718480Y514840D01*
X720000Y513125D01*
Y512105D01*
X720685Y510451D01*
X720464Y509327D01*
X719602Y507292D01*
X718451Y506815D01*
X717185Y505549D01*
X716500Y503895D01*
Y502105D01*
X717185Y500451D01*
X718451Y499185D01*
X720105Y498500D01*
X721895D01*
X722476Y498741D01*
X725594Y497395D01*
X726282Y495576D01*
X726000Y494895D01*
Y493105D01*
X726685Y491451D01*
X727951Y490185D01*
X729605Y489500D01*
X731395D01*
X733505Y487127D01*
Y481000D01*
Y480999D01*
X742535D01*
X742880Y480931D01*
Y478000D01*
X733505D01*
Y476000D01*
X742880D01*
Y473069D01*
X742535Y473000D01*
X733505D01*
Y471000D01*
Y465999D01*
X742535D01*
X742880Y465931D01*
Y463000D01*
X733505D01*
Y462304D01*
X728000D01*
X726927Y462090D01*
X726017Y461483D01*
X725559Y461024D01*
X722559Y462267D01*
Y478040D01*
X723000Y479105D01*
Y480895D01*
X722315Y482549D01*
X721049Y483815D01*
X719395Y484500D01*
X717605D01*
X715951Y483815D01*
X714685Y482549D01*
X714000Y480895D01*
Y479500D01*
X712605D01*
X710951Y478815D01*
X709685Y477549D01*
X709000Y475895D01*
Y474105D01*
X709685Y472451D01*
X710696Y471440D01*
Y460161D01*
X675517Y424983D01*
X674910Y424073D01*
X674696Y423000D01*
Y406000D01*
X674910Y404927D01*
X675517Y404017D01*
X692017Y387517D01*
X692939Y386430D01*
X693000Y383895D01*
Y383284D01*
X690465Y381425D01*
X690228Y381362D01*
X689895Y381500D01*
X688105D01*
X685590Y382901D01*
X685000Y383785D01*
Y385395D01*
X684315Y387049D01*
X683049Y388315D01*
X681395Y389000D01*
X679605D01*
X677951Y388315D01*
X676685Y387049D01*
X675549Y385815D01*
X673895Y386500D01*
X672105D01*
X670451Y385815D01*
X669185Y384549D01*
X667710Y384256D01*
X662983Y388983D01*
X662073Y389590D01*
X661000Y389804D01*
X660560D01*
X659549Y390815D01*
X657895Y391500D01*
X656105D01*
X654451Y390815D01*
X653185Y389549D01*
X652500Y387895D01*
Y386105D01*
X653185Y384451D01*
X654451Y383185D01*
X656105Y382500D01*
X657895D01*
X659549Y383185D01*
X660199Y383835D01*
X670196Y373839D01*
Y368995D01*
X669500D01*
Y359620D01*
X666569D01*
Y366374D01*
X666500Y366718D01*
Y368995D01*
X665377D01*
X664366Y369671D01*
X663000Y369942D01*
X661634Y369671D01*
X660623Y368995D01*
X659500D01*
Y366718D01*
X659431Y366374D01*
Y359620D01*
Y351502D01*
X659500Y351158D01*
Y350245D01*
X659681D01*
X659703Y350137D01*
X660477Y348979D01*
X664405Y345051D01*
X665563Y344277D01*
X666298Y344131D01*
X667668Y342761D01*
X669505Y342000D01*
X671495D01*
X673332Y342761D01*
X674739Y344168D01*
X675500Y346006D01*
Y347995D01*
X677815Y350245D01*
X688869D01*
X689198Y347245D01*
X686877Y344923D01*
X686103Y343766D01*
X685831Y342400D01*
Y339400D01*
X683800D01*
Y329400D01*
Y327100D01*
X689000D01*
X694633D01*
X696005Y329000D01*
X697995D01*
X699832Y329761D01*
X701239Y331168D01*
X703392Y331103D01*
X704757Y330831D01*
X706800D01*
Y327100D01*
X712000D01*
Y325600D01*
X713500D01*
Y320600D01*
X717200D01*
Y320826D01*
X720180Y321173D01*
X720885Y319470D01*
X722008Y318008D01*
X725665Y314350D01*
X724517Y311578D01*
X676600D01*
X674540Y314578D01*
X674895Y315500D01*
X676549Y316185D01*
X677815Y317451D01*
X678500Y319105D01*
Y320895D01*
X677815Y322549D01*
X676549Y323815D01*
X674895Y324500D01*
X673105D01*
X671451Y323815D01*
X670185Y322549D01*
X669500Y320895D01*
Y319826D01*
X662733Y313059D01*
X618000D01*
X618000Y313059D01*
X616829Y312826D01*
X615837Y312163D01*
X593733Y290059D01*
X517000D01*
X515829Y289826D01*
X514837Y289163D01*
X514837Y289163D01*
X509837Y284163D01*
X509174Y283171D01*
X508941Y282000D01*
X508941Y282000D01*
Y242000D01*
X508941Y242000D01*
X509174Y240830D01*
X509837Y239837D01*
X515887Y233787D01*
X515887Y233787D01*
X516880Y233124D01*
X518050Y232891D01*
X518050Y232891D01*
X522495D01*
Y230450D01*
X541745D01*
Y238052D01*
X542092Y239053D01*
X542920Y240880D01*
X543217Y240940D01*
X543520Y240971D01*
X543605Y241017D01*
X543700Y241036D01*
X543952Y241204D01*
X544220Y241349D01*
X544281Y241424D01*
X544361Y241478D01*
X553850Y250966D01*
X556850Y249723D01*
Y243400D01*
X565000D01*
X573150D01*
Y249961D01*
X573150Y252900D01*
X576125Y252961D01*
X578875D01*
X581850Y252900D01*
X581850Y249961D01*
Y243400D01*
X590000D01*
X598150D01*
Y249961D01*
X598150Y252900D01*
X601125Y252961D01*
X604988D01*
X605000Y252951D01*
Y242500D01*
Y238250D01*
X610000D01*
X615000D01*
Y244671D01*
X616500Y247431D01*
X616532D01*
X619250Y246750D01*
Y244500D01*
X626000D01*
Y243000D01*
X627500D01*
Y239250D01*
X631500D01*
Y236850D01*
X643500D01*
Y255000D01*
Y273150D01*
X639187D01*
X637746Y274306D01*
X637621Y276830D01*
X639933Y279250D01*
X641000D01*
Y285750D01*
X642500D01*
Y287250D01*
X649500D01*
Y289750D01*
X649500Y292250D01*
X649689Y295172D01*
X661750D01*
X661750Y295172D01*
X663311Y295482D01*
X664634Y296366D01*
X671023Y302756D01*
X672890Y302516D01*
X674029Y299413D01*
X673558Y298942D01*
X673116Y298280D01*
X672961Y297500D01*
Y272655D01*
X670750Y270750D01*
X665500D01*
Y267000D01*
X662500D01*
Y270750D01*
X658500D01*
Y273150D01*
X646500D01*
Y255000D01*
Y236850D01*
X658500D01*
Y239250D01*
X662500D01*
Y243000D01*
X665500D01*
Y239250D01*
X670750D01*
Y240582D01*
X670994Y241002D01*
X673000Y242961D01*
X679800D01*
Y241100D01*
X685000D01*
X691230D01*
X692833Y241764D01*
X695500Y240296D01*
Y237250D01*
X702500D01*
Y235750D01*
X704000D01*
Y229250D01*
X708508D01*
X710263Y228527D01*
X711619Y227242D01*
X711631Y227222D01*
X711636Y227200D01*
X711844Y226888D01*
X712046Y226571D01*
X712065Y226557D01*
X712078Y226538D01*
X713296Y225320D01*
X712148Y222549D01*
X234353D01*
X233374Y224156D01*
X233296Y225549D01*
X234570Y226823D01*
X234709Y227032D01*
X234887Y227209D01*
X235981Y228847D01*
X236077Y229079D01*
X236217Y229288D01*
X236971Y231108D01*
X237020Y231354D01*
X237116Y231586D01*
X237500Y233518D01*
Y233769D01*
X237549Y234015D01*
Y235985D01*
X237500Y236231D01*
Y236482D01*
X237116Y238414D01*
X237020Y238646D01*
X236971Y238892D01*
X236217Y240712D01*
X236077Y240921D01*
X235981Y241153D01*
X234887Y242791D01*
X234709Y242968D01*
X234570Y243177D01*
X233177Y244570D01*
X232968Y244709D01*
X232791Y244887D01*
X231153Y245981D01*
X230921Y246077D01*
X230712Y246217D01*
X228892Y246971D01*
X228646Y247020D01*
X228414Y247116D01*
X226482Y247500D01*
X226231D01*
X225985Y247549D01*
X224015D01*
X223769Y247500D01*
X223518D01*
X221586Y247116D01*
X221354Y247020D01*
X221108Y246971D01*
X219288Y246217D01*
X219079Y246077D01*
X218847Y245981D01*
X217209Y244887D01*
X217032Y244709D01*
X216823Y244570D01*
X215549Y243296D01*
X214156Y243374D01*
X212549Y244353D01*
Y250000D01*
X212474Y250375D01*
X213591Y252455D01*
X214359Y253375D01*
X225000D01*
Y255775D01*
X213000D01*
Y258775D01*
X225000D01*
Y259725D01*
Y262125D01*
X213000D01*
Y265125D01*
X225000D01*
Y266916D01*
X237758D01*
X260837Y243837D01*
X260837Y243837D01*
X261829Y243174D01*
X263000Y242941D01*
X263700D01*
Y241450D01*
X276700D01*
Y249450D01*
Y257450D01*
Y265450D01*
Y273950D01*
X263700D01*
X263700Y273950D01*
Y273950D01*
X261562Y275764D01*
X241752Y295573D01*
X242837Y298328D01*
X245419Y298616D01*
X261017Y283017D01*
X261927Y282410D01*
X263000Y282196D01*
X263700D01*
Y280450D01*
X276700D01*
Y288450D01*
Y296450D01*
Y304450D01*
Y312950D01*
X263700D01*
X263700Y312950D01*
Y312950D01*
X261562Y314764D01*
X255352Y320973D01*
X256437Y323728D01*
X259019Y324016D01*
X261317Y321717D01*
X262227Y321110D01*
X263300Y320896D01*
X263700D01*
Y319450D01*
X276700D01*
Y327450D01*
Y335450D01*
Y343450D01*
Y351950D01*
X263700D01*
Y351950D01*
X262764Y351562D01*
X253288Y361038D01*
X252295Y361701D01*
X251125Y361934D01*
X251125Y361934D01*
X225000D01*
Y367675D01*
Y374866D01*
X244808D01*
X259837Y359837D01*
X259837Y359837D01*
X260830Y359174D01*
X261370Y359067D01*
X263700Y357450D01*
X263700Y357450D01*
X263700Y357450D01*
X276700D01*
Y365450D01*
Y373450D01*
Y381450D01*
Y389950D01*
X263700D01*
Y388759D01*
X260567D01*
X243838Y405488D01*
X242845Y406151D01*
X241675Y406384D01*
X241675Y406384D01*
X225000D01*
Y413221D01*
X240788D01*
X255292Y398717D01*
X256202Y398110D01*
X257275Y397896D01*
X263700D01*
Y396450D01*
X276700D01*
Y404450D01*
Y412450D01*
Y420450D01*
Y428941D01*
X280700D01*
Y420450D01*
Y412450D01*
Y404450D01*
Y396450D01*
X293700D01*
Y396450D01*
X296669Y396375D01*
X301526Y391518D01*
Y387042D01*
X298526Y385800D01*
X296463Y387863D01*
X295471Y388526D01*
X294300Y388759D01*
X293700Y389950D01*
X280700D01*
Y381450D01*
Y373450D01*
Y365450D01*
Y357450D01*
X293700D01*
Y358641D01*
X297033D01*
X301837Y353837D01*
X301837Y353837D01*
X301954Y353759D01*
X301045Y350759D01*
X293700D01*
Y351950D01*
X280700D01*
Y343450D01*
Y335450D01*
Y327450D01*
Y319450D01*
X293700D01*
X293700Y319450D01*
X296700Y320082D01*
X298105Y319500D01*
X299895D01*
X301549Y320185D01*
X302815Y321451D01*
X303500Y323105D01*
Y324895D01*
X303191Y325641D01*
X304366Y328070D01*
X304948Y328641D01*
X310766D01*
X313500Y328000D01*
Y319500D01*
Y313809D01*
X300481D01*
X300480Y313809D01*
X299310Y313576D01*
X298318Y312913D01*
X297163Y311759D01*
X293700D01*
Y312950D01*
X280700D01*
Y304450D01*
Y296450D01*
Y288450D01*
Y280450D01*
X293700D01*
X293700Y280450D01*
X296700Y280658D01*
X297805Y280200D01*
X298007D01*
X299249Y277200D01*
X296495Y274445D01*
X293700Y273950D01*
Y273950D01*
X280700D01*
Y265450D01*
Y257450D01*
Y249450D01*
Y241450D01*
X293700D01*
X293700Y241450D01*
X295871Y242874D01*
X296024Y242977D01*
X296863Y243537D01*
X309017Y255691D01*
X313500D01*
Y253750D01*
X335500D01*
Y254500D01*
Y262446D01*
X338589D01*
X358019Y243015D01*
X359008Y239992D01*
X357886Y238530D01*
X357180Y236827D01*
X356940Y235000D01*
X357180Y233173D01*
X357886Y231470D01*
X359008Y230008D01*
X360470Y228885D01*
X362173Y228180D01*
X364000Y227940D01*
X422000D01*
X423827Y228180D01*
X425530Y228885D01*
X426992Y230008D01*
X445924Y248940D01*
X458851D01*
X462584Y245207D01*
X464238Y244102D01*
X464604Y244029D01*
X466080Y241011D01*
X466070Y240763D01*
X465579Y240000D01*
X450750D01*
Y235000D01*
Y230000D01*
X465441D01*
X466500Y230000D01*
X466500Y230000D01*
X468255Y230450D01*
X468255Y230450D01*
X487505D01*
Y240150D01*
X487505Y242300D01*
X487505Y244450D01*
Y254150D01*
X487505D01*
Y255850D01*
X487505D01*
Y265550D01*
X487505Y267700D01*
X487505Y269850D01*
Y272550D01*
X468255D01*
Y269850D01*
X468255Y268550D01*
X466126Y266448D01*
X465350D01*
X463399Y266060D01*
X461745Y264955D01*
X459851Y263060D01*
X443268D01*
X442777Y263648D01*
X441908Y265942D01*
X467465Y291500D01*
X468895D01*
X470549Y292185D01*
X471815Y293451D01*
X472500Y295105D01*
Y296895D01*
X474692Y299441D01*
X585000D01*
X585000Y299441D01*
X586171Y299674D01*
X587163Y300337D01*
X600349Y313523D01*
X601012Y314515D01*
X601245Y315686D01*
Y339202D01*
X604245Y340766D01*
X604678Y340464D01*
X604800Y339400D01*
X604800Y339400D01*
Y329400D01*
Y327100D01*
X610000D01*
Y325600D01*
X611500D01*
Y320600D01*
X615200D01*
X615200Y320600D01*
X618106Y320373D01*
X619005Y320000D01*
X620995D01*
X622000Y320416D01*
X625000Y319122D01*
Y318500D01*
X635000D01*
Y331941D01*
X636171Y332174D01*
X637163Y332837D01*
X639528Y335203D01*
X642300Y334055D01*
Y329400D01*
Y327100D01*
X647500D01*
Y325600D01*
X649000D01*
Y320600D01*
X652700D01*
Y323576D01*
X653087Y324006D01*
X655700Y325334D01*
X656505Y325000D01*
X658495D01*
X660332Y325761D01*
X661739Y327168D01*
X662500Y329005D01*
Y330995D01*
X661739Y332832D01*
X660332Y334239D01*
X658495Y335000D01*
X657363D01*
X655966Y336397D01*
X654808Y337171D01*
X653443Y337443D01*
X652700D01*
Y339400D01*
X651569D01*
Y350245D01*
X656500D01*
Y359620D01*
Y368995D01*
X654500D01*
Y359620D01*
X651569D01*
X651500Y359965D01*
Y368995D01*
X639500D01*
Y359620D01*
Y350245D01*
X639941D01*
Y344267D01*
X636537Y340863D01*
X635000Y341500D01*
Y341500D01*
X625000D01*
Y339991D01*
X623104Y339195D01*
X622000Y339071D01*
X620832Y340239D01*
X618995Y341000D01*
X617272D01*
X616819Y341164D01*
X614500Y343209D01*
Y343995D01*
X613739Y345832D01*
X612332Y347239D01*
X612317Y347245D01*
X612914Y350245D01*
X621501D01*
Y359620D01*
Y368995D01*
X621059D01*
Y384000D01*
X621059Y384000D01*
X620826Y385171D01*
X620163Y386163D01*
X620163Y386163D01*
X567559Y438767D01*
Y508695D01*
X568315Y509451D01*
X569000Y511105D01*
Y512174D01*
X576767Y519941D01*
X658733D01*
X659500Y519174D01*
Y518105D01*
X660185Y516451D01*
X661451Y515185D01*
X663105Y514500D01*
X664895D01*
X666549Y515185D01*
X667815Y516451D01*
X667969Y516823D01*
X671148Y517728D01*
X671333Y517702D01*
X676500Y512535D01*
Y511105D01*
X677185Y509451D01*
X678451Y508185D01*
X680105Y507500D01*
X681895D01*
X683549Y508185D01*
X684815Y509451D01*
X684986Y509865D01*
X686712Y510120D01*
X689441Y507877D01*
Y466305D01*
X688685Y465549D01*
X688000Y463895D01*
Y462105D01*
X688685Y460451D01*
X689951Y459185D01*
X691605Y458500D01*
X693395D01*
X695049Y459185D01*
X696315Y460451D01*
X697000Y462105D01*
Y463895D01*
X696315Y465549D01*
X695559Y466305D01*
Y519000D01*
X695326Y520171D01*
X694663Y521163D01*
X694663Y521163D01*
X678663Y537163D01*
X677671Y537826D01*
X676500Y538059D01*
X676500Y538059D01*
X672297D01*
X671055Y541059D01*
X693983Y563987D01*
X694590Y564897D01*
X694612Y565005D01*
X706500D01*
Y574380D01*
X709431D01*
X709500Y574035D01*
Y565005D01*
X716500D01*
Y574035D01*
X716569Y574380D01*
X719431D01*
X719500Y574035D01*
D02*
G37*
G36*
X609941Y611280D02*
Y583755D01*
X609500D01*
Y574380D01*
Y565005D01*
X616501D01*
Y574380D01*
X619431D01*
X619500Y574035D01*
Y565005D01*
X631501D01*
Y574380D01*
X634500D01*
Y565005D01*
X667485D01*
X668728Y562005D01*
X660527Y553804D01*
X598560D01*
X597549Y554815D01*
X595895Y555500D01*
X594105D01*
X592451Y554815D01*
X591185Y553549D01*
X590686Y552344D01*
X590479Y551884D01*
X587895Y550500D01*
X586105D01*
X584451Y549815D01*
X583185Y548549D01*
X582500Y546895D01*
Y545105D01*
X581631Y543804D01*
X578560D01*
X577906Y544458D01*
X577544Y544952D01*
X577435Y548109D01*
X590163Y560837D01*
X590163Y560837D01*
X590826Y561829D01*
X591059Y563000D01*
Y565005D01*
X591501D01*
Y574380D01*
X594431D01*
X594500Y574035D01*
Y565005D01*
X601501D01*
Y574035D01*
X601569Y574380D01*
X604500D01*
Y565005D01*
X606500D01*
Y574380D01*
Y583755D01*
X601568D01*
Y592000D01*
X601297Y593366D01*
X600523Y594523D01*
X599747Y595300D01*
X598200Y597600D01*
X598200D01*
X598200Y597600D01*
Y600537D01*
X599448Y600785D01*
X600605Y601559D01*
X604520Y605473D01*
X605294Y606631D01*
X605565Y607997D01*
Y610997D01*
X608273Y612572D01*
X609941Y611280D01*
D02*
G37*
G36*
X261317Y570717D02*
X261536Y570571D01*
X261733Y569071D01*
X261678Y568067D01*
X261468Y567284D01*
X261017Y566983D01*
X258914Y564879D01*
X225000D01*
Y572196D01*
X259839D01*
X261317Y570717D01*
D02*
G37*
G36*
X495577Y578941D02*
X495185Y578549D01*
X494500Y576895D01*
Y575105D01*
X492249Y572700D01*
X492100D01*
Y567500D01*
Y562300D01*
X504400D01*
Y563431D01*
X509638D01*
X511825Y561179D01*
X511709Y558614D01*
X510796Y557945D01*
X508931Y557351D01*
X508573Y557590D01*
X507500Y557804D01*
X415161D01*
X411534Y561431D01*
X412776Y564431D01*
X418600D01*
Y562800D01*
X430900D01*
Y568000D01*
X432400D01*
D01*
X430900D01*
Y573200D01*
X430085D01*
X428000Y576006D01*
Y577995D01*
X427608Y578941D01*
X428762Y581343D01*
X429365Y581941D01*
X494342D01*
X495577Y578941D01*
D02*
G37*
G36*
X265761Y555000D02*
X265739Y555190D01*
X265677Y555360D01*
X265575Y555510D01*
X265432Y555640D01*
X265250Y555750D01*
X265026Y555840D01*
X264763Y555910D01*
X264459Y555960D01*
X264115Y555990D01*
X263731Y556000D01*
Y558000D01*
X264111Y558009D01*
X264450Y558037D01*
X264750Y558083D01*
X265011Y558147D01*
X265231Y558230D01*
X265410Y558331D01*
X265550Y558451D01*
X265651Y558588D01*
X265711Y558745D01*
X265730Y558919D01*
X265761Y555000D01*
D02*
G37*
G36*
X249815Y557332D02*
X249978Y557205D01*
X250152Y557093D01*
X250336Y556995D01*
X250531Y556912D01*
X250737Y556845D01*
X250954Y556792D01*
X251181Y556755D01*
X251420Y556732D01*
X251668Y556725D01*
Y554725D01*
X251420Y554717D01*
X251181Y554695D01*
X250954Y554658D01*
X250737Y554605D01*
X250531Y554538D01*
X250336Y554455D01*
X250152Y554357D01*
X249978Y554245D01*
X249815Y554118D01*
X249662Y553975D01*
Y557475D01*
X249815Y557332D01*
D02*
G37*
G36*
X246092Y553975D02*
X245939Y554118D01*
X245776Y554245D01*
X245602Y554357D01*
X245418Y554455D01*
X245223Y554538D01*
X245017Y554605D01*
X244800Y554658D01*
X244573Y554695D01*
X244335Y554717D01*
X244086Y554725D01*
Y556725D01*
X244335Y556732D01*
X244573Y556755D01*
X244800Y556792D01*
X245017Y556845D01*
X245223Y556912D01*
X245418Y556995D01*
X245602Y557093D01*
X245776Y557205D01*
X245939Y557332D01*
X246092Y557475D01*
Y553975D01*
D02*
G37*
G36*
X222990Y557429D02*
X223050Y557281D01*
X223150Y557151D01*
X223290Y557038D01*
X223470Y556942D01*
X223689Y556864D01*
X223950Y556803D01*
X224249Y556760D01*
X224590Y556734D01*
X224970Y556725D01*
Y554725D01*
X224590Y554716D01*
X224249Y554690D01*
X223950Y554647D01*
X223689Y554586D01*
X223470Y554508D01*
X223290Y554412D01*
X223150Y554299D01*
X223050Y554169D01*
X222990Y554021D01*
X222969Y553856D01*
Y557594D01*
X222990Y557429D01*
D02*
G37*
G36*
X532800Y605900D02*
X538000D01*
Y602900D01*
X532755D01*
X530895Y600500D01*
X529105D01*
X527451Y599815D01*
X526185Y598549D01*
X525500Y596895D01*
Y595105D01*
X526185Y593451D01*
X527451Y592185D01*
X529105Y591500D01*
X530895D01*
X532800Y590600D01*
Y590600D01*
X543200D01*
Y590600D01*
X544197Y591013D01*
X548455Y586755D01*
X547212Y583755D01*
X544500D01*
Y575880D01*
X548000D01*
Y574380D01*
X549431D01*
X549500Y574035D01*
Y565005D01*
X555082D01*
X555203Y564397D01*
X555977Y563239D01*
X557734Y561482D01*
X558892Y560708D01*
X560257Y560436D01*
X576868D01*
X578111Y557436D01*
X572733Y552059D01*
X554267D01*
X544194Y562132D01*
X545563Y565005D01*
X546500D01*
Y572880D01*
X544500D01*
Y566068D01*
X541627Y564699D01*
X512130Y594196D01*
X513372Y597196D01*
X514000D01*
X515073Y597410D01*
X515983Y598017D01*
X526161Y608196D01*
X532800D01*
Y605900D01*
D02*
G37*
G36*
X926819Y577051D02*
X926541Y573818D01*
X926167Y573602D01*
X924398Y571833D01*
X923147Y569667D01*
X922500Y567251D01*
Y567000D01*
X932000D01*
Y565000D01*
X922500D01*
Y564749D01*
X923147Y562333D01*
X924398Y560167D01*
X926167Y558398D01*
X927442Y557662D01*
X927627Y557078D01*
Y554922D01*
X927442Y554338D01*
X926167Y553602D01*
X924398Y551833D01*
X923147Y549667D01*
X922583Y547559D01*
X914755D01*
Y556000D01*
Y568605D01*
X915500Y571441D01*
X916671Y571674D01*
X917663Y572337D01*
X922163Y576837D01*
X922559Y577430D01*
X925603Y578056D01*
X926819Y577051D01*
D02*
G37*
G36*
X831941Y574733D02*
Y540305D01*
X831185Y539549D01*
X830500Y537895D01*
Y536105D01*
X828127Y533995D01*
X807000D01*
Y518875D01*
X804895Y516500D01*
X803105D01*
X801451Y515815D01*
X800185Y514549D01*
X799500Y512895D01*
Y512082D01*
X798510Y510490D01*
X796918Y509500D01*
X796105D01*
X794451Y508815D01*
X793185Y507549D01*
X792500Y505895D01*
Y504105D01*
X793185Y502451D01*
X794451Y501185D01*
X796105Y500500D01*
X796918D01*
X798510Y499510D01*
X799500Y497918D01*
Y497105D01*
X800185Y495451D01*
X801451Y494185D01*
X801496Y494166D01*
X801819Y493201D01*
X801891Y490755D01*
X801185Y490049D01*
X800500Y488395D01*
Y486605D01*
X800726Y486059D01*
X800471Y485002D01*
X799539Y483348D01*
X799047Y482869D01*
X798829Y482826D01*
X797837Y482163D01*
X787733Y472059D01*
X781500D01*
Y475000D01*
X770491D01*
X768498Y478000D01*
X768500Y478005D01*
Y478240D01*
X770536Y480277D01*
X771310Y481434D01*
X771482Y482300D01*
X775400D01*
Y487500D01*
Y492700D01*
X769578D01*
X769463Y492845D01*
X768489Y495700D01*
X769323Y496534D01*
X770097Y497692D01*
X770368Y499057D01*
Y499800D01*
X773900D01*
Y505000D01*
Y510200D01*
X769405D01*
Y510800D01*
X769133Y512166D01*
X768359Y513323D01*
X766654Y515028D01*
X767803Y517800D01*
X773900D01*
Y523000D01*
Y528200D01*
X773272D01*
X770500Y529105D01*
Y530895D01*
X769815Y532549D01*
X768549Y533815D01*
X766895Y534500D01*
X765105D01*
X763451Y533815D01*
X762185Y532549D01*
X761908Y531881D01*
X759207Y530978D01*
X758544Y531002D01*
X757523Y532023D01*
X756366Y532797D01*
X755000Y533069D01*
X752255D01*
Y546000D01*
Y558000D01*
X734703D01*
X734326Y561000D01*
X739267Y565941D01*
X759600D01*
Y563500D01*
X764600D01*
Y562000D01*
X766100D01*
Y556755D01*
X768500Y554895D01*
Y553105D01*
X768875Y552200D01*
X767855Y549948D01*
X767193Y549200D01*
X766100D01*
Y544000D01*
Y538800D01*
X778400D01*
Y540931D01*
X790620D01*
X790965Y541000D01*
X799995D01*
Y551441D01*
X805233D01*
X809500Y547174D01*
Y546105D01*
X810185Y544451D01*
X811451Y543185D01*
X813105Y542500D01*
X814895D01*
X816549Y543185D01*
X817815Y544451D01*
X818500Y546105D01*
Y547895D01*
X817815Y549549D01*
X816549Y550815D01*
X814895Y551500D01*
X813826D01*
X811315Y554010D01*
X811549Y555185D01*
X812815Y556451D01*
X813500Y558105D01*
Y559895D01*
X813062Y561782D01*
X814549Y563185D01*
X815815Y564451D01*
X816500Y566105D01*
Y567895D01*
X816249Y568500D01*
X816703Y570606D01*
X817752Y571855D01*
X818549Y572185D01*
X819815Y573451D01*
X820500Y575105D01*
Y576895D01*
X819815Y578549D01*
X818549Y579815D01*
X816895Y580500D01*
X815826D01*
X814663Y581663D01*
X813671Y582326D01*
X812500Y582559D01*
X812500Y582559D01*
X799995D01*
Y586441D01*
X820233D01*
X831941Y574733D01*
D02*
G37*
G36*
X222990Y544729D02*
X223050Y544581D01*
X223150Y544451D01*
X223290Y544338D01*
X223470Y544242D01*
X223689Y544164D01*
X223950Y544103D01*
X224249Y544060D01*
X224590Y544034D01*
X224970Y544025D01*
Y542025D01*
X224590Y542016D01*
X224249Y541990D01*
X223950Y541947D01*
X223689Y541886D01*
X223470Y541808D01*
X223290Y541712D01*
X223150Y541599D01*
X223050Y541469D01*
X222990Y541321D01*
X222969Y541156D01*
Y544894D01*
X222990Y544729D01*
D02*
G37*
G36*
X291689Y543510D02*
X291750Y543340D01*
X291850Y543190D01*
X291989Y543060D01*
X292169Y542950D01*
X292390Y542860D01*
X292650Y542790D01*
X292950Y542740D01*
X293290Y542710D01*
X293669Y542700D01*
Y540700D01*
X293290Y540690D01*
X292950Y540660D01*
X292650Y540610D01*
X292390Y540540D01*
X292169Y540450D01*
X291989Y540340D01*
X291850Y540210D01*
X291750Y540060D01*
X291689Y539890D01*
X291670Y539700D01*
Y543700D01*
X291689Y543510D01*
D02*
G37*
G36*
X485600Y549200D02*
X485600D01*
Y545500D01*
X490600D01*
Y542500D01*
X485600D01*
Y538800D01*
X483013Y537804D01*
X478161D01*
X470782Y545183D01*
X469873Y545791D01*
X468800Y546004D01*
X467792Y545804D01*
X416701D01*
X416500Y546105D01*
Y547895D01*
X415961Y549196D01*
X416554Y550775D01*
X417410Y552196D01*
X485591D01*
X485600Y549200D01*
D02*
G37*
G36*
X265761Y532270D02*
X265746Y532351D01*
X265703Y532425D01*
X265630Y532489D01*
X265527Y532545D01*
X265396Y532592D01*
X265235Y532631D01*
X265045Y532661D01*
X264826Y532683D01*
X264300Y532700D01*
Y534700D01*
X264578Y534704D01*
X265045Y534739D01*
X265235Y534769D01*
X265396Y534808D01*
X265527Y534855D01*
X265630Y534911D01*
X265703Y534975D01*
X265746Y535049D01*
X265761Y535130D01*
Y532270D01*
D02*
G37*
G36*
X299438Y532048D02*
X299270Y532172D01*
X299094Y532283D01*
X298909Y532381D01*
X298715Y532465D01*
X298512Y532537D01*
X298301Y532596D01*
X298080Y532641D01*
X297850Y532674D01*
X297612Y532693D01*
X297365Y532700D01*
X297100Y534700D01*
X297351Y534708D01*
X297588Y534733D01*
X297812Y534774D01*
X298024Y534832D01*
X298222Y534906D01*
X298407Y534996D01*
X298579Y535103D01*
X298738Y535227D01*
X298885Y535367D01*
X299018Y535523D01*
X299438Y532048D01*
D02*
G37*
G36*
X291689Y535510D02*
X291750Y535340D01*
X291850Y535190D01*
X291989Y535060D01*
X292169Y534950D01*
X292390Y534860D01*
X292650Y534790D01*
X292950Y534740D01*
X293290Y534710D01*
X293669Y534700D01*
Y532700D01*
X293290Y532690D01*
X292950Y532660D01*
X292650Y532610D01*
X292390Y532540D01*
X292169Y532450D01*
X291989Y532340D01*
X291850Y532210D01*
X291750Y532060D01*
X291689Y531890D01*
X291670Y531700D01*
Y535700D01*
X291689Y535510D01*
D02*
G37*
G36*
X474976Y533059D02*
X474972Y532881D01*
X474045Y530059D01*
X451267D01*
X448663Y532663D01*
X447671Y533326D01*
X446500Y533559D01*
X446500Y533559D01*
X425805D01*
X424549Y534815D01*
X422895Y535500D01*
X421105D01*
X419451Y534815D01*
X418185Y533549D01*
X417500Y531895D01*
Y530105D01*
X418185Y528451D01*
X419451Y527185D01*
X421105Y526500D01*
X422895D01*
X424549Y527185D01*
X424805Y527441D01*
X445233D01*
X447837Y524837D01*
X448829Y524174D01*
X450000Y523941D01*
X450000Y523941D01*
X459827D01*
X460437Y523054D01*
X460976Y520941D01*
X458589Y518554D01*
X406500D01*
Y524500D01*
Y532446D01*
X408250D01*
X409323Y532660D01*
X410233Y533267D01*
X417161Y540196D01*
X467839D01*
X474976Y533059D01*
D02*
G37*
G36*
X362196Y534839D02*
Y527689D01*
X359425Y526541D01*
X341983Y543983D01*
X341073Y544590D01*
X340000Y544804D01*
X335500D01*
Y550500D01*
Y558446D01*
X338589D01*
X362196Y534839D01*
D02*
G37*
G36*
X947261Y536183D02*
X947451Y536033D01*
Y497549D01*
X934000D01*
X933025Y497355D01*
X932198Y496802D01*
X931645Y495975D01*
X931451Y495000D01*
Y465000D01*
X931645Y464025D01*
X932198Y463198D01*
X933025Y462645D01*
X934000Y462451D01*
X947451D01*
Y388542D01*
X946779Y387873D01*
X944500Y386539D01*
X934200D01*
Y387900D01*
X923800D01*
Y386539D01*
X901829D01*
X900652Y388613D01*
X900509Y389463D01*
X917523Y406477D01*
X918297Y407634D01*
X918569Y409000D01*
Y410500D01*
X921750D01*
Y423500D01*
X908250D01*
Y410500D01*
X908250D01*
X908453Y407500D01*
X887522Y386569D01*
X862314D01*
X861166Y389340D01*
X863913Y392087D01*
X863913Y392087D01*
X864576Y393079D01*
X864809Y394250D01*
Y395000D01*
X871750D01*
Y400000D01*
X873250D01*
Y401500D01*
X879000D01*
Y401776D01*
X880000Y404441D01*
X881171Y404674D01*
X882163Y405337D01*
X885663Y408837D01*
X886326Y409829D01*
X886559Y411000D01*
X886559Y411000D01*
Y428200D01*
X893750D01*
X893750Y428200D01*
X896605Y428000D01*
X898395D01*
X900049Y428685D01*
X901315Y429951D01*
X902000Y431605D01*
Y433395D01*
X901315Y435049D01*
X900049Y436315D01*
X898395Y437000D01*
X898364D01*
X896831Y439220D01*
X897702Y440500D01*
X898395D01*
X900049Y441185D01*
X901315Y442451D01*
X902000Y444105D01*
Y445895D01*
X901315Y447549D01*
X900049Y448815D01*
X898395Y449500D01*
X896605D01*
X894480Y450914D01*
X894498Y454030D01*
X896761Y455168D01*
X898168Y453761D01*
X900005Y453000D01*
X901995D01*
X903832Y453761D01*
X905239Y455168D01*
X905250Y455195D01*
X908250Y454598D01*
Y447250D01*
X913500D01*
Y453500D01*
X915000D01*
Y455000D01*
X921750D01*
Y457250D01*
X921750Y459750D01*
X921750Y462750D01*
Y472750D01*
X918569D01*
Y478000D01*
X921750D01*
Y491000D01*
X908250D01*
Y478000D01*
X911431D01*
Y472750D01*
X908250D01*
Y465106D01*
X905250Y463687D01*
X905076Y463829D01*
Y465993D01*
X904804Y467358D01*
X904031Y468516D01*
X898473Y474073D01*
X898473Y474073D01*
X897316Y474847D01*
X895950Y475119D01*
X893750D01*
Y476800D01*
X873250D01*
Y466300D01*
X873250D01*
Y464100D01*
X873250D01*
Y454400D01*
X873250Y453600D01*
Y451400D01*
X870826Y449209D01*
X866150D01*
X866150Y449209D01*
X864979Y448976D01*
X863987Y448313D01*
X863987Y448313D01*
X861304Y445630D01*
X858304Y446872D01*
Y508275D01*
X861304Y508871D01*
X861685Y507951D01*
X862951Y506685D01*
X864605Y506000D01*
X866395D01*
X868049Y506685D01*
X869315Y507951D01*
X870000Y509605D01*
Y511395D01*
X869648Y512245D01*
X870719Y514556D01*
X871362Y515245D01*
X876931D01*
Y513136D01*
X877203Y511770D01*
X877977Y510613D01*
X878431Y510158D01*
Y504400D01*
X876800D01*
Y494400D01*
Y492100D01*
X882000D01*
Y490600D01*
X883500D01*
Y485600D01*
X887200D01*
Y485600D01*
X889800D01*
Y485600D01*
X893500D01*
Y490600D01*
X895000D01*
Y492100D01*
X900200D01*
Y496689D01*
X900257D01*
X901623Y496960D01*
X902781Y497734D01*
X905023Y499977D01*
X905250Y500316D01*
X908250Y499406D01*
Y494000D01*
X921750D01*
Y507000D01*
X921750D01*
X919500Y509105D01*
Y510895D01*
X918815Y512549D01*
X917549Y513815D01*
X915895Y514500D01*
X914105D01*
X912451Y513815D01*
X911185Y512549D01*
X910500Y510895D01*
Y509105D01*
X908250Y507000D01*
X906069Y508976D01*
Y515572D01*
X907549Y516185D01*
X908815Y517451D01*
X909500Y519105D01*
Y520895D01*
X908815Y522549D01*
X907549Y523815D01*
X905895Y524500D01*
X904105D01*
X902451Y523815D01*
X901185Y522549D01*
X900500Y520895D01*
Y520289D01*
X899977Y519766D01*
X899203Y518608D01*
X898931Y517243D01*
Y510358D01*
X895931Y509115D01*
X889069Y515978D01*
Y524620D01*
X889000Y524965D01*
Y531464D01*
X891794Y533928D01*
X892837Y533837D01*
X893829Y533174D01*
X895000Y532941D01*
X895000Y532941D01*
X922500D01*
Y516500D01*
X941500D01*
Y534174D01*
X944451Y537125D01*
X947261Y536183D01*
D02*
G37*
G36*
X352813Y518222D02*
X352811Y514413D01*
X351895Y513500D01*
X350105D01*
X348451Y512815D01*
X347336Y511700D01*
X341304Y517733D01*
X340394Y518340D01*
X339321Y518554D01*
X335500D01*
Y524500D01*
Y532446D01*
X338589D01*
X352813Y518222D01*
D02*
G37*
G36*
X481100Y508500D02*
X486100D01*
Y507000D01*
X487600D01*
Y501800D01*
X489962D01*
X490500Y500995D01*
Y499006D01*
X488017Y497161D01*
X459357D01*
X458284Y496947D01*
X457374Y496340D01*
X449839Y488804D01*
X424794D01*
X422500Y491105D01*
Y492895D01*
X421815Y494549D01*
X420549Y495815D01*
X418895Y496500D01*
X417668D01*
X416184Y497969D01*
X415489Y499078D01*
X415500Y499105D01*
Y500895D01*
X415481Y500941D01*
X417342Y503941D01*
X466828D01*
X466828Y503941D01*
X467999Y504174D01*
X468991Y504837D01*
X469654Y505500D01*
X470395D01*
X472049Y506185D01*
X473315Y507451D01*
X474000Y509105D01*
Y510895D01*
X474869Y512196D01*
X481100D01*
Y508500D01*
D02*
G37*
G36*
X343142Y502943D02*
X343196Y502867D01*
Y499050D01*
X343410Y497977D01*
X344017Y497068D01*
X351585Y489500D01*
X350342Y486500D01*
X350105D01*
X348451Y485815D01*
X347185Y484549D01*
X346500Y482895D01*
Y481105D01*
X347185Y479451D01*
X348451Y478185D01*
X350105Y477500D01*
X351895D01*
X353549Y478185D01*
X354019Y478655D01*
X365837Y466837D01*
X366829Y466174D01*
X368000Y465941D01*
X368000Y465941D01*
X382695D01*
X383451Y465185D01*
X385105Y464500D01*
X386895D01*
X388549Y465185D01*
X388650Y465286D01*
X391200Y463593D01*
Y460500D01*
X396200D01*
Y459000D01*
X397700D01*
Y453800D01*
X410000D01*
X411431Y451393D01*
Y447319D01*
X406500D01*
Y448000D01*
X384500D01*
Y438745D01*
X381728Y437597D01*
X345163Y474163D01*
X344170Y474826D01*
X343000Y475059D01*
X343000Y475059D01*
X322267D01*
X300685Y496641D01*
X300783Y497578D01*
X301705Y499641D01*
X313500D01*
Y497750D01*
X335500D01*
Y502332D01*
X338105Y504500D01*
X339895D01*
X340196Y504625D01*
X343142Y502943D01*
D02*
G37*
G36*
X222990Y500279D02*
X223050Y500131D01*
X223150Y500001D01*
X223290Y499888D01*
X223470Y499792D01*
X223689Y499714D01*
X223950Y499653D01*
X224249Y499610D01*
X224590Y499584D01*
X224970Y499575D01*
Y497575D01*
X224590Y497566D01*
X224249Y497540D01*
X223950Y497497D01*
X223689Y497436D01*
X223470Y497358D01*
X223290Y497262D01*
X223150Y497149D01*
X223050Y497019D01*
X222990Y496871D01*
X222969Y496706D01*
Y500444D01*
X222990Y500279D01*
D02*
G37*
G36*
Y487579D02*
X223050Y487431D01*
X223150Y487301D01*
X223290Y487188D01*
X223470Y487092D01*
X223689Y487014D01*
X223950Y486953D01*
X224249Y486910D01*
X224590Y486884D01*
X224970Y486875D01*
Y484875D01*
X224590Y484866D01*
X224249Y484840D01*
X223950Y484797D01*
X223689Y484736D01*
X223470Y484658D01*
X223290Y484562D01*
X223150Y484449D01*
X223050Y484319D01*
X222990Y484171D01*
X222969Y484006D01*
Y487744D01*
X222990Y487579D01*
D02*
G37*
G36*
X265761Y477270D02*
X265746Y477351D01*
X265703Y477425D01*
X265630Y477489D01*
X265527Y477545D01*
X265396Y477592D01*
X265235Y477631D01*
X265045Y477661D01*
X264826Y477683D01*
X264300Y477700D01*
Y479700D01*
X264578Y479704D01*
X265045Y479739D01*
X265235Y479769D01*
X265396Y479808D01*
X265527Y479855D01*
X265630Y479911D01*
X265703Y479976D01*
X265746Y480049D01*
X265761Y480131D01*
Y477270D01*
D02*
G37*
G36*
X787895Y462941D02*
X786877Y461923D01*
X786103Y460766D01*
X785831Y459400D01*
Y451200D01*
X782100D01*
Y446000D01*
Y440800D01*
X794400D01*
Y442581D01*
X799569D01*
X801250Y440900D01*
Y438700D01*
X801250Y437900D01*
Y434950D01*
X821750D01*
Y437900D01*
X821750Y438700D01*
Y440900D01*
X821750Y441700D01*
Y451400D01*
X821750D01*
Y452791D01*
X822591Y454083D01*
X826264Y454410D01*
X831941Y448733D01*
Y428900D01*
X829895Y426500D01*
X828105D01*
X826451Y425815D01*
X825440Y424804D01*
X791925D01*
X790852Y424590D01*
X789942Y423983D01*
X784297Y418337D01*
X780852Y418372D01*
X780731Y418500D01*
X774400D01*
Y420000D01*
X772900D01*
Y425200D01*
X769169D01*
Y429650D01*
X768897Y431016D01*
X768123Y432173D01*
X767022Y433275D01*
X766523Y434021D01*
X753521Y447023D01*
X752363Y447797D01*
X752977Y449933D01*
X755755Y451500D01*
X757745D01*
X759582Y452261D01*
X760989Y453668D01*
X761750Y455505D01*
Y457495D01*
X760989Y459332D01*
X759582Y460739D01*
X757745Y461500D01*
X755755D01*
X755255Y461293D01*
X752321Y462958D01*
X752867Y465931D01*
X758500D01*
Y465000D01*
X781500D01*
Y465941D01*
X786652D01*
X787895Y462941D01*
D02*
G37*
G36*
X222999Y462274D02*
X223090Y462211D01*
X223239Y462156D01*
X223449Y462108D01*
X223720Y462067D01*
X224440Y462008D01*
X225970Y461975D01*
Y458975D01*
X225399Y458971D01*
X223449Y458842D01*
X223239Y458794D01*
X223090Y458739D01*
X222999Y458676D01*
X222969Y458605D01*
Y462345D01*
X222999Y462274D01*
D02*
G37*
G36*
X243000Y470000D02*
X243000Y460000D01*
X240000Y457000D01*
X226000D01*
Y473000D01*
X240000D01*
X243000Y470000D01*
D02*
G37*
G36*
X265761Y454269D02*
X265743Y454408D01*
X265691Y454533D01*
X265602Y454642D01*
X265479Y454737D01*
X265321Y454817D01*
X265127Y454883D01*
X264898Y454934D01*
X264634Y454971D01*
X264335Y454993D01*
X264000Y455000D01*
Y457000D01*
X264335Y457007D01*
X264898Y457066D01*
X265127Y457117D01*
X265321Y457183D01*
X265479Y457263D01*
X265602Y457358D01*
X265691Y457467D01*
X265743Y457592D01*
X265761Y457730D01*
Y454269D01*
D02*
G37*
G36*
X253941Y471733D02*
Y463000D01*
X253941Y463000D01*
X254174Y461829D01*
X254837Y460837D01*
X261837Y453837D01*
X261837Y453837D01*
X262336Y453504D01*
X262120Y451266D01*
X261837Y450504D01*
X258461D01*
X252858Y456108D01*
X251948Y456715D01*
X250875Y456929D01*
X246961D01*
X246256Y457707D01*
X245025Y459929D01*
X245039Y460000D01*
X245039Y470000D01*
X244884Y470780D01*
X244442Y471442D01*
X244442Y471442D01*
X241442Y474442D01*
X241442Y474442D01*
X240780Y474884D01*
X240000Y475039D01*
X226000D01*
X225000Y477899D01*
Y482816D01*
X242858D01*
X253941Y471733D01*
D02*
G37*
G36*
X473731Y478696D02*
X471017Y475983D01*
X470410Y475073D01*
X470196Y474000D01*
Y456000D01*
X470410Y454927D01*
X471017Y454017D01*
X471883Y453152D01*
X470819Y449973D01*
X469217Y449749D01*
X446769Y472196D01*
X448012Y475196D01*
X456000D01*
X457073Y475410D01*
X457983Y476017D01*
X463661Y481696D01*
X472488D01*
X473731Y478696D01*
D02*
G37*
G36*
X541931Y450135D02*
X538931Y447598D01*
X538360Y447694D01*
X537495Y449080D01*
Y453000D01*
X528120D01*
Y455931D01*
X528465Y455999D01*
X537495D01*
Y461000D01*
Y463000D01*
X528465D01*
X528120Y463069D01*
Y466000D01*
X537495D01*
Y468000D01*
X528120D01*
Y470999D01*
X537495D01*
Y471000D01*
Y478000D01*
X528120D01*
Y480999D01*
X537495D01*
Y481000D01*
Y491000D01*
Y498000D01*
X528120D01*
Y500931D01*
X528465Y500999D01*
X537495D01*
Y501000D01*
Y510931D01*
X541931D01*
Y450135D01*
D02*
G37*
G36*
X463459Y447575D02*
X462311Y444804D01*
X448161D01*
X425769Y467196D01*
X426098Y469790D01*
X426369Y470196D01*
X440839D01*
X463459Y447575D01*
D02*
G37*
G36*
X222990Y436779D02*
X223050Y436632D01*
X223150Y436501D01*
X223290Y436388D01*
X223470Y436292D01*
X223689Y436214D01*
X223950Y436153D01*
X224249Y436110D01*
X224590Y436084D01*
X224970Y436075D01*
Y434075D01*
X224590Y434066D01*
X224249Y434040D01*
X223950Y433997D01*
X223689Y433936D01*
X223470Y433858D01*
X223290Y433762D01*
X223150Y433649D01*
X223050Y433518D01*
X222990Y433371D01*
X222969Y433205D01*
Y436945D01*
X222990Y436779D01*
D02*
G37*
G36*
X852696Y506373D02*
Y428953D01*
X850911Y427985D01*
X848059Y429708D01*
Y455000D01*
X848059Y455000D01*
X847826Y456171D01*
X847163Y457163D01*
X847163Y457163D01*
X830613Y473713D01*
X829621Y474376D01*
X828450Y474609D01*
X828450Y474609D01*
X823792D01*
X821775Y477609D01*
X821842Y479762D01*
X849696Y507615D01*
X852696Y506373D01*
D02*
G37*
G36*
X841941Y453733D02*
Y423276D01*
X838941Y421879D01*
X838059Y422621D01*
Y450000D01*
X837826Y451171D01*
X837163Y452163D01*
X837163Y452163D01*
X828313Y461013D01*
X827320Y461676D01*
X826150Y461909D01*
X826150Y461909D01*
X823703D01*
X821750Y464100D01*
Y465491D01*
X823703Y468491D01*
X827183D01*
X841941Y453733D01*
D02*
G37*
G36*
X733505Y425999D02*
X742880D01*
Y423069D01*
X742535Y423000D01*
X733505D01*
Y421000D01*
Y412304D01*
X716372D01*
X715694Y413173D01*
X714986Y415160D01*
X719408Y419582D01*
X719605Y419500D01*
X721395D01*
X723049Y420185D01*
X724315Y421451D01*
X725000Y423105D01*
Y424895D01*
X727501Y426696D01*
X733505D01*
Y425999D01*
D02*
G37*
G36*
X873250Y440900D02*
Y438700D01*
X873250D01*
Y428200D01*
X880441D01*
Y422403D01*
X879000Y420000D01*
X874750D01*
Y415000D01*
X871750D01*
Y420000D01*
X864809D01*
Y440483D01*
X867417Y443091D01*
X871297D01*
X873250Y440900D01*
D02*
G37*
G36*
X265761Y414700D02*
X265741Y414890D01*
X265680Y415060D01*
X265578Y415210D01*
X265436Y415340D01*
X265253Y415450D01*
X265030Y415540D01*
X264766Y415610D01*
X264461Y415660D01*
X264116Y415690D01*
X263731Y415700D01*
Y417700D01*
X264116Y417710D01*
X264461Y417740D01*
X264766Y417790D01*
X265030Y417860D01*
X265253Y417950D01*
X265436Y418060D01*
X265578Y418190D01*
X265680Y418340D01*
X265741Y418510D01*
X265761Y418700D01*
Y414700D01*
D02*
G37*
G36*
X477100Y436500D02*
X482100D01*
Y435000D01*
X483600D01*
Y429800D01*
X484794D01*
X486000Y427994D01*
Y426005D01*
X486334Y425200D01*
X485006Y422587D01*
X484576Y422200D01*
X483100D01*
Y417000D01*
X481600D01*
Y415500D01*
X476600D01*
Y411804D01*
X473383D01*
X471704Y413483D01*
X471704Y413483D01*
X448991Y436196D01*
X450234Y439196D01*
X477100D01*
Y436500D01*
D02*
G37*
G36*
X816000Y416500D02*
X821750D01*
Y413500D01*
X816000D01*
Y410559D01*
X812222D01*
X812222Y410559D01*
X811051Y410326D01*
X809315Y411549D01*
X808049Y412815D01*
X806395Y413500D01*
X804605D01*
X802951Y412815D01*
X802249Y412113D01*
X801252Y411914D01*
X800094Y411141D01*
X786522Y397569D01*
X779400D01*
Y398500D01*
X774400D01*
Y400000D01*
X772900D01*
Y405200D01*
X768424D01*
X767994Y405587D01*
X766666Y408200D01*
X767000Y409005D01*
Y409953D01*
X768123Y411077D01*
X768897Y412234D01*
X769169Y413600D01*
Y414800D01*
X773895D01*
X774500Y413895D01*
Y412105D01*
X775185Y410451D01*
X776451Y409185D01*
X778105Y408500D01*
X779895D01*
X781549Y409185D01*
X782815Y410451D01*
X783434Y411946D01*
X784675D01*
X785748Y412160D01*
X786657Y412767D01*
X793086Y419196D01*
X816000D01*
Y416500D01*
D02*
G37*
G36*
X466453Y410804D02*
X465210Y407804D01*
X458577D01*
X427148Y439233D01*
X426239Y439840D01*
X425165Y440054D01*
X418836D01*
X417625Y442757D01*
X417570Y443054D01*
X418297Y444142D01*
X418569Y445507D01*
Y454445D01*
X421569Y455688D01*
X466453Y410804D01*
D02*
G37*
G36*
X451875Y406576D02*
X450727Y403804D01*
X433161D01*
X417233Y419733D01*
X416323Y420340D01*
X415250Y420554D01*
X406500D01*
Y422000D01*
Y434446D01*
X424004D01*
X451875Y406576D01*
D02*
G37*
G36*
X261817Y406717D02*
X262137Y406504D01*
X261620Y403504D01*
X258436D01*
X243933Y418008D01*
X243023Y418615D01*
X241950Y418829D01*
X225000D01*
Y425921D01*
X242614D01*
X261817Y406717D01*
D02*
G37*
G36*
X222990Y405029D02*
X223050Y404882D01*
X223150Y404751D01*
X223290Y404638D01*
X223470Y404542D01*
X223689Y404464D01*
X223950Y404403D01*
X224249Y404360D01*
X224590Y404334D01*
X224970Y404325D01*
Y402325D01*
X224590Y402316D01*
X224249Y402290D01*
X223950Y402247D01*
X223689Y402186D01*
X223470Y402108D01*
X223290Y402012D01*
X223150Y401899D01*
X223050Y401768D01*
X222990Y401621D01*
X222969Y401455D01*
Y405195D01*
X222990Y405029D01*
D02*
G37*
G36*
Y392329D02*
X223050Y392182D01*
X223150Y392051D01*
X223290Y391938D01*
X223470Y391842D01*
X223689Y391764D01*
X223950Y391703D01*
X224249Y391660D01*
X224590Y391634D01*
X224970Y391625D01*
Y389625D01*
X224590Y389616D01*
X224249Y389590D01*
X223950Y389547D01*
X223689Y389486D01*
X223470Y389408D01*
X223290Y389312D01*
X223150Y389199D01*
X223050Y389068D01*
X222990Y388921D01*
X222969Y388755D01*
Y392495D01*
X222990Y392329D01*
D02*
G37*
G36*
X802496Y399207D02*
Y389322D01*
X788733Y375559D01*
X779400D01*
Y378500D01*
X774400D01*
Y381500D01*
X779400D01*
Y385049D01*
X788780D01*
X790105Y384500D01*
X791895D01*
X793549Y385185D01*
X794815Y386451D01*
X795500Y388105D01*
Y389895D01*
X794815Y391549D01*
X794593Y391771D01*
X794477Y395430D01*
X799496Y400449D01*
X802496Y399207D01*
D02*
G37*
G36*
X265761Y383700D02*
X265741Y383890D01*
X265680Y384060D01*
X265578Y384210D01*
X265436Y384340D01*
X265253Y384450D01*
X265030Y384540D01*
X264766Y384610D01*
X264461Y384660D01*
X264116Y384690D01*
X263731Y384700D01*
Y386700D01*
X264116Y386710D01*
X264461Y386740D01*
X264766Y386790D01*
X265030Y386860D01*
X265253Y386950D01*
X265436Y387060D01*
X265578Y387190D01*
X265680Y387340D01*
X265741Y387510D01*
X265761Y387700D01*
Y383700D01*
D02*
G37*
G36*
X561994Y528837D02*
X562337Y526461D01*
X560270Y524000D01*
X559605D01*
X557951Y523315D01*
X556685Y522049D01*
X556000Y520395D01*
Y518605D01*
X556685Y516951D01*
X557951Y515685D01*
X558126Y515613D01*
X559605Y514998D01*
X560000Y512895D01*
Y511105D01*
X560685Y509451D01*
X561441Y508695D01*
Y437500D01*
X561441Y437500D01*
X561674Y436329D01*
X562337Y435337D01*
X610174Y387500D01*
X610153Y386582D01*
X609306Y384242D01*
X606552Y383039D01*
X605549Y383815D01*
X603895Y384500D01*
X602105D01*
X600451Y383815D01*
X599185Y382549D01*
X598500Y380895D01*
Y379105D01*
X599185Y377451D01*
X600451Y376185D01*
X602105Y375500D01*
X603535D01*
X605196Y373839D01*
Y368995D01*
X594500D01*
Y359620D01*
X591569D01*
X591501Y359965D01*
Y368995D01*
X585804D01*
Y375500D01*
X585590Y376573D01*
X584983Y377483D01*
X574482Y387983D01*
X573573Y388590D01*
X572500Y388804D01*
X547738D01*
X546665Y388590D01*
X545755Y387983D01*
X541905Y384132D01*
X541110Y384175D01*
X538843Y385314D01*
X538931Y386618D01*
X539468Y386977D01*
X548023Y395532D01*
X548797Y396690D01*
X549068Y398055D01*
Y433997D01*
X549239Y434168D01*
X550000Y436005D01*
Y437995D01*
X549239Y439832D01*
X549068Y440003D01*
Y514981D01*
Y537843D01*
X551840Y538991D01*
X561994Y528837D01*
D02*
G37*
G36*
X947451Y381549D02*
Y369451D01*
X945000Y367000D01*
X922697Y367000D01*
X922500Y367039D01*
X900961Y367039D01*
X898500Y369500D01*
Y382000D01*
X901000Y384500D01*
X923800D01*
Y384400D01*
Y382100D01*
X934200D01*
Y384400D01*
Y384500D01*
X944500D01*
X947451Y381549D01*
D02*
G37*
G36*
X374587Y396087D02*
X374587Y396087D01*
X375579Y395424D01*
X376750Y395191D01*
X384500D01*
Y394000D01*
Y382059D01*
X381267D01*
X365559Y397767D01*
Y401196D01*
X368330Y402344D01*
X374587Y396087D01*
D02*
G37*
G36*
X222990Y379629D02*
X223050Y379482D01*
X223150Y379351D01*
X223290Y379238D01*
X223470Y379142D01*
X223689Y379064D01*
X223950Y379003D01*
X224249Y378960D01*
X224590Y378934D01*
X224970Y378925D01*
Y376925D01*
X224590Y376916D01*
X224249Y376890D01*
X223950Y376847D01*
X223689Y376786D01*
X223470Y376708D01*
X223290Y376612D01*
X223150Y376499D01*
X223050Y376368D01*
X222990Y376221D01*
X222969Y376055D01*
Y379795D01*
X222990Y379629D01*
D02*
G37*
G36*
X425231Y386196D02*
X409500Y370465D01*
X406500Y371708D01*
Y383068D01*
X408871D01*
X409944Y383281D01*
X410854Y383889D01*
X416161Y389196D01*
X423988D01*
X425231Y386196D01*
D02*
G37*
G36*
X265761Y367700D02*
X265741Y367890D01*
X265680Y368060D01*
X265578Y368210D01*
X265436Y368340D01*
X265253Y368450D01*
X265030Y368540D01*
X264766Y368610D01*
X264461Y368660D01*
X264116Y368690D01*
X263731Y368700D01*
Y370700D01*
X264116Y370710D01*
X264461Y370740D01*
X264766Y370790D01*
X265030Y370860D01*
X265253Y370950D01*
X265436Y371060D01*
X265578Y371190D01*
X265680Y371340D01*
X265741Y371510D01*
X265761Y371700D01*
Y367700D01*
D02*
G37*
G36*
X352727Y368308D02*
X350663Y366163D01*
X349670Y366826D01*
X348500Y367059D01*
X348500Y367059D01*
X338110D01*
X335500Y368000D01*
Y370750D01*
X324500D01*
Y373750D01*
X335500D01*
Y374500D01*
Y382446D01*
X338589D01*
X352727Y368308D01*
D02*
G37*
G36*
X265761Y360000D02*
X265739Y360190D01*
X265677Y360360D01*
X265575Y360510D01*
X265432Y360640D01*
X265250Y360750D01*
X265026Y360840D01*
X264763Y360910D01*
X264459Y360960D01*
X264115Y360990D01*
X263731Y361000D01*
Y363000D01*
X264111Y363009D01*
X264450Y363037D01*
X264750Y363083D01*
X265011Y363147D01*
X265231Y363230D01*
X265410Y363331D01*
X265550Y363451D01*
X265651Y363588D01*
X265711Y363745D01*
X265730Y363919D01*
X265761Y360000D01*
D02*
G37*
G36*
X820088Y379548D02*
X820451Y379185D01*
X822105Y378500D01*
X823895D01*
X825549Y379185D01*
X826600Y378726D01*
X827383Y375266D01*
X823558Y371441D01*
X823116Y370780D01*
X822961Y370000D01*
Y360852D01*
X822000Y358250D01*
X808000D01*
Y357868D01*
X797000D01*
Y358250D01*
X796909D01*
X796738Y361178D01*
X796738Y361179D01*
X797908Y361412D01*
X798901Y362075D01*
X816505Y379679D01*
X820088Y379548D01*
D02*
G37*
G36*
X222990Y360579D02*
X223050Y360432D01*
X223150Y360301D01*
X223290Y360188D01*
X223470Y360092D01*
X223689Y360014D01*
X223950Y359953D01*
X224249Y359910D01*
X224590Y359884D01*
X224970Y359875D01*
Y357875D01*
X224590Y357866D01*
X224249Y357840D01*
X223950Y357797D01*
X223689Y357736D01*
X223470Y357658D01*
X223290Y357562D01*
X223150Y357449D01*
X223050Y357318D01*
X222990Y357171D01*
X222969Y357006D01*
Y360745D01*
X222990Y360579D01*
D02*
G37*
G36*
X518745Y376000D02*
X529786D01*
X530934Y373228D01*
X483509Y325804D01*
X428140D01*
X427067Y325590D01*
X426157Y324983D01*
X424085Y322911D01*
X421755Y324823D01*
X422297Y325634D01*
X422569Y327000D01*
Y337000D01*
X422297Y338366D01*
X421523Y339523D01*
X417523Y343523D01*
X416366Y344297D01*
X415000Y344569D01*
X412400D01*
Y346200D01*
X400100D01*
Y341000D01*
Y335800D01*
X401794D01*
X403000Y333994D01*
Y332005D01*
X403416Y331000D01*
X402320Y328662D01*
X401686Y328000D01*
X384500D01*
X384059Y330817D01*
Y331500D01*
X383826Y332671D01*
X383163Y333663D01*
X383163Y333663D01*
X367953Y348872D01*
X370017Y351017D01*
X370927Y350410D01*
X372000Y350196D01*
X414000D01*
X415073Y350410D01*
X415983Y351017D01*
X436161Y371196D01*
X508000D01*
X509073Y371410D01*
X509983Y372017D01*
X514661Y376696D01*
X518745D01*
Y376000D01*
D02*
G37*
G36*
X265730Y345480D02*
X265711Y345579D01*
X265651Y345667D01*
X265550Y345745D01*
X265410Y345813D01*
X265231Y345870D01*
X265011Y345917D01*
X264750Y345953D01*
X264450Y345979D01*
X263731Y346000D01*
Y348000D01*
X264115Y348010D01*
X264459Y348040D01*
X264762Y348090D01*
X265026Y348160D01*
X265249Y348250D01*
X265432Y348360D01*
X265575Y348490D01*
X265677Y348640D01*
X265739Y348810D01*
X265761Y349000D01*
X265730Y345480D01*
D02*
G37*
G36*
X260045Y345629D02*
X258926Y342629D01*
X225000D01*
Y348625D01*
Y355816D01*
X249858D01*
X260045Y345629D01*
D02*
G37*
G36*
X898000Y367000D02*
Y366000D01*
X899000D01*
X900000Y365000D01*
X922500Y365000D01*
X927500Y360000D01*
Y345000D01*
X922500Y340000D01*
X900000D01*
X899000Y339000D01*
X898000D01*
Y338000D01*
X870000Y310000D01*
X823166D01*
X822000Y310250D01*
X822000Y311270D01*
Y315250D01*
X815000D01*
X808000D01*
X808000Y310250D01*
X806834Y310000D01*
X797200D01*
Y312900D01*
X792000D01*
X786800D01*
Y312735D01*
X786288Y312559D01*
X785530Y312523D01*
X784326Y314326D01*
X780000Y318652D01*
Y333124D01*
X780332Y333261D01*
X781730Y334659D01*
X783000Y334646D01*
Y331750D01*
X797000D01*
Y344750D01*
X798166Y345000D01*
X806834D01*
X808000Y344750D01*
X808000Y343730D01*
Y339750D01*
X815000D01*
X822000D01*
Y343980D01*
X822000Y344750D01*
X822000Y347000D01*
X825000Y350000D01*
Y370000D01*
X834432Y379431D01*
X885569D01*
X898000Y367000D01*
D02*
G37*
G36*
X730330Y361412D02*
X731500Y361179D01*
X734458D01*
X734714Y361005D01*
X736326Y358179D01*
X736180Y357827D01*
X735940Y356000D01*
Y352924D01*
X722008Y338992D01*
X720885Y337530D01*
X720180Y335827D01*
X717200Y336174D01*
Y339400D01*
X717200D01*
X716447Y342400D01*
X720523Y346477D01*
X721297Y347634D01*
X721569Y349000D01*
Y350245D01*
X726500D01*
Y358120D01*
X723000D01*
Y361120D01*
X726808D01*
X728175Y361686D01*
X729500Y361966D01*
X730330Y361412D01*
D02*
G37*
G36*
X347915Y337759D02*
X346673Y334759D01*
X304365D01*
X303476Y336302D01*
X302942Y337759D01*
X303500Y339105D01*
Y340895D01*
X303191Y341641D01*
X304366Y344070D01*
X304948Y344641D01*
X341033D01*
X347915Y337759D01*
D02*
G37*
G36*
X222990Y335179D02*
X223050Y335032D01*
X223150Y334901D01*
X223290Y334788D01*
X223470Y334692D01*
X223689Y334614D01*
X223950Y334553D01*
X224249Y334510D01*
X224590Y334484D01*
X224970Y334475D01*
Y332475D01*
X224590Y332466D01*
X224249Y332440D01*
X223950Y332397D01*
X223689Y332336D01*
X223470Y332258D01*
X223290Y332162D01*
X223150Y332049D01*
X223050Y331918D01*
X222990Y331771D01*
X222969Y331605D01*
Y335345D01*
X222990Y335179D01*
D02*
G37*
G36*
X945000Y364961D02*
X945000Y364961D01*
X946940Y363387D01*
X947451Y362624D01*
Y299675D01*
X944451Y298433D01*
X941442Y301442D01*
X940780Y301884D01*
X940000Y302039D01*
X928166D01*
X927002Y304688D01*
X927000Y304694D01*
Y305250D01*
X913000D01*
Y304694D01*
X912998Y304688D01*
X911833Y302039D01*
X890875D01*
X890784Y302021D01*
X890693Y302031D01*
X890397Y301944D01*
X890094Y301884D01*
X890018Y301833D01*
X889929Y301807D01*
X889689Y301613D01*
X889433Y301442D01*
X889381Y301365D01*
X889310Y301307D01*
X888893Y300809D01*
X888780Y300884D01*
X888000Y301039D01*
X879000D01*
X878220Y300884D01*
X876442Y301442D01*
X875780Y301884D01*
X875000Y302039D01*
X863000D01*
X863000Y302039D01*
X862220Y301884D01*
X861558Y301442D01*
X861558Y301442D01*
X853558Y293442D01*
X853116Y292780D01*
X852961Y292000D01*
Y275155D01*
X850750Y273250D01*
X845500D01*
Y269500D01*
X842500D01*
Y273250D01*
X838500D01*
Y275650D01*
X826500D01*
Y257500D01*
Y239350D01*
X838500D01*
Y241750D01*
X842500D01*
Y245500D01*
X845500D01*
Y241750D01*
X850750D01*
Y244756D01*
X851000Y244961D01*
X855800D01*
Y244100D01*
X861000D01*
Y242600D01*
X862500D01*
Y237600D01*
X866200D01*
Y240996D01*
X868972Y242145D01*
X868991Y242125D01*
X870500Y239750D01*
Y234750D01*
X877500D01*
X884500D01*
Y238961D01*
X893000D01*
Y228789D01*
X892656Y228721D01*
X892309Y228669D01*
X892267Y228643D01*
X892220Y228634D01*
X891928Y228439D01*
X891628Y228258D01*
X891599Y228219D01*
X891558Y228192D01*
X891363Y227900D01*
X891155Y227618D01*
X890655Y226555D01*
X890643Y226508D01*
X890616Y226467D01*
X890548Y226123D01*
X890463Y225783D01*
X890470Y225735D01*
X890461Y225687D01*
Y225000D01*
X890461Y225000D01*
X888754Y222971D01*
X888124Y222549D01*
X756352D01*
X755204Y225320D01*
X755442Y225558D01*
X755884Y226220D01*
X756039Y227000D01*
Y229562D01*
X758000Y231750D01*
X759039Y231750D01*
X763500D01*
Y238250D01*
X765000D01*
Y239750D01*
X772000D01*
Y242250D01*
X772000Y244750D01*
X772000Y247750D01*
Y256882D01*
X774341Y257348D01*
X775368Y258034D01*
X778102Y256641D01*
X778250Y256471D01*
Y245250D01*
X778250D01*
Y244750D01*
X778250D01*
Y232250D01*
X791750D01*
Y234006D01*
X794923D01*
X795168Y233761D01*
X797005Y233000D01*
X798995D01*
X800832Y233761D01*
X802239Y235168D01*
X803000Y237005D01*
Y238995D01*
X804500Y240957D01*
Y245500D01*
X807500D01*
Y241750D01*
X811500D01*
Y239350D01*
X823500D01*
Y257500D01*
Y275650D01*
X811500D01*
Y273250D01*
X799250D01*
X797000Y275061D01*
Y284000D01*
Y288250D01*
X792000D01*
Y289750D01*
X790500D01*
Y295500D01*
X787730D01*
X786289Y297990D01*
X787589Y300600D01*
X790500D01*
Y305600D01*
X792000D01*
Y307100D01*
X797200D01*
Y307961D01*
X806833D01*
X807998Y305312D01*
X808000Y305306D01*
Y304750D01*
X815000D01*
X822000D01*
Y305306D01*
X822002Y305312D01*
X823167Y307961D01*
X870000D01*
X870780Y308116D01*
X871442Y308558D01*
X895228Y332345D01*
X898000Y331196D01*
Y331000D01*
X910000D01*
X922000D01*
Y337961D01*
X922500D01*
X923280Y338116D01*
X923942Y338558D01*
X923942Y338558D01*
X928942Y343558D01*
X928942Y343558D01*
X929384Y344220D01*
X929539Y345000D01*
Y360000D01*
X929384Y360780D01*
X928942Y361442D01*
X928942Y361442D01*
X928195Y362189D01*
X929343Y364961D01*
X945000Y364961D01*
D02*
G37*
G36*
X764037Y344508D02*
X764584Y341776D01*
X764567Y341218D01*
X749674Y326326D01*
X748348Y324341D01*
X747883Y322000D01*
Y316345D01*
X747073Y315703D01*
X745032Y314953D01*
X734060Y325924D01*
Y331076D01*
X737182Y334197D01*
X739732Y333764D01*
X740564Y333336D01*
X741674Y331674D01*
X743659Y330348D01*
X746000Y329882D01*
X748341Y330348D01*
X750326Y331674D01*
X750326Y331674D01*
X763362Y344710D01*
X764037Y344508D01*
D02*
G37*
G36*
X265761Y329700D02*
X265741Y329890D01*
X265680Y330060D01*
X265578Y330210D01*
X265436Y330340D01*
X265253Y330450D01*
X265030Y330540D01*
X264766Y330610D01*
X264461Y330660D01*
X264116Y330690D01*
X263731Y330700D01*
Y332700D01*
X264116Y332710D01*
X264461Y332740D01*
X264766Y332790D01*
X265030Y332860D01*
X265253Y332950D01*
X265436Y333060D01*
X265578Y333190D01*
X265680Y333340D01*
X265741Y333510D01*
X265761Y333700D01*
Y329700D01*
D02*
G37*
G36*
X783000Y344750D02*
Y339188D01*
X781730Y336698D01*
X781349Y336622D01*
X780968Y336550D01*
X780960Y336545D01*
X780950Y336543D01*
X780629Y336328D01*
X780302Y336115D01*
X780296Y336106D01*
X780288Y336101D01*
X779145Y334957D01*
X778558Y334566D01*
X778116Y333904D01*
X777961Y333124D01*
Y323903D01*
X774961Y321926D01*
X774000Y322118D01*
X766689D01*
X765541Y324889D01*
X773326Y332674D01*
X774652Y334659D01*
X775118Y337000D01*
X774652Y339341D01*
X773326Y341326D01*
X771341Y342652D01*
X771734Y345633D01*
X780366D01*
X783000Y344750D01*
D02*
G37*
G36*
X222990Y322479D02*
X223050Y322332D01*
X223150Y322201D01*
X223290Y322088D01*
X223470Y321992D01*
X223689Y321914D01*
X223950Y321853D01*
X224249Y321810D01*
X224590Y321784D01*
X224970Y321775D01*
Y319775D01*
X224590Y319766D01*
X224249Y319740D01*
X223950Y319697D01*
X223689Y319636D01*
X223470Y319558D01*
X223290Y319462D01*
X223150Y319349D01*
X223050Y319219D01*
X222990Y319071D01*
X222969Y318906D01*
Y322645D01*
X222990Y322479D01*
D02*
G37*
G36*
X265761Y306700D02*
X265741Y306890D01*
X265680Y307060D01*
X265578Y307210D01*
X265436Y307340D01*
X265253Y307450D01*
X265030Y307540D01*
X264766Y307610D01*
X264461Y307660D01*
X264116Y307690D01*
X263731Y307700D01*
Y309700D01*
X264116Y309710D01*
X264461Y309740D01*
X264766Y309790D01*
X265030Y309860D01*
X265253Y309950D01*
X265436Y310060D01*
X265578Y310190D01*
X265680Y310340D01*
X265741Y310510D01*
X265761Y310700D01*
Y306700D01*
D02*
G37*
G36*
X222990Y309779D02*
X223050Y309632D01*
X223150Y309501D01*
X223290Y309388D01*
X223470Y309292D01*
X223689Y309214D01*
X223950Y309153D01*
X224249Y309110D01*
X224590Y309084D01*
X224970Y309075D01*
Y307075D01*
X224590Y307066D01*
X224249Y307040D01*
X223950Y306997D01*
X223689Y306936D01*
X223470Y306858D01*
X223290Y306762D01*
X223150Y306649D01*
X223050Y306518D01*
X222990Y306371D01*
X222969Y306206D01*
Y309944D01*
X222990Y309779D01*
D02*
G37*
G36*
X532300Y338092D02*
Y329400D01*
Y327100D01*
X537500D01*
X542700D01*
Y327249D01*
X545105Y329500D01*
X546895D01*
X548549Y330185D01*
X549195Y330831D01*
X551000Y331205D01*
X552805Y330831D01*
X553451Y330185D01*
X555105Y329500D01*
X556895D01*
X559800Y327516D01*
Y327100D01*
X565000D01*
X570200D01*
Y331719D01*
X573200Y332315D01*
X573261Y332168D01*
X574668Y330761D01*
X576505Y330000D01*
X578495D01*
X579300Y330334D01*
X580690Y329901D01*
X581761Y329175D01*
X582300Y328576D01*
Y327100D01*
X587500D01*
Y325600D01*
X589000D01*
Y320600D01*
X592700D01*
X594379Y319643D01*
X594657Y316483D01*
X583733Y305559D01*
X499444D01*
X498296Y308330D01*
X529300Y339335D01*
X532300Y338092D01*
D02*
G37*
G36*
X754000Y309883D02*
X771466D01*
X773883Y307466D01*
Y304491D01*
X773873Y304469D01*
X772000Y302040D01*
X772000Y302039D01*
X749560D01*
Y307500D01*
X749468Y308204D01*
X750658Y309368D01*
X751782Y310158D01*
X752091Y310262D01*
X754000Y309883D01*
D02*
G37*
G36*
X945000Y295000D02*
Y267500D01*
X940000Y262500D01*
X928166Y262500D01*
X927000Y262750D01*
X927000Y263770D01*
Y267750D01*
X920000D01*
X913000D01*
Y263770D01*
X911834Y262500D01*
X910000D01*
X907500Y260000D01*
X890039D01*
Y299000D01*
X890875Y300000D01*
X911834D01*
X913000Y299750D01*
X913000Y298730D01*
Y294750D01*
X927000D01*
X927000Y299750D01*
X928166Y300000D01*
X940000D01*
X945000Y295000D01*
D02*
G37*
G36*
X222990Y297079D02*
X223050Y296931D01*
X223150Y296801D01*
X223290Y296688D01*
X223470Y296592D01*
X223689Y296514D01*
X223950Y296453D01*
X224249Y296410D01*
X224590Y296384D01*
X224970Y296375D01*
Y294375D01*
X224590Y294366D01*
X224249Y294340D01*
X223950Y294297D01*
X223689Y294236D01*
X223470Y294158D01*
X223290Y294062D01*
X223150Y293949D01*
X223050Y293818D01*
X222990Y293671D01*
X222969Y293505D01*
Y297244D01*
X222990Y297079D01*
D02*
G37*
G36*
X265761Y290700D02*
X265741Y290890D01*
X265680Y291060D01*
X265578Y291210D01*
X265436Y291340D01*
X265253Y291450D01*
X265030Y291540D01*
X264766Y291610D01*
X264461Y291660D01*
X264116Y291690D01*
X263731Y291700D01*
Y293700D01*
X264116Y293710D01*
X264461Y293740D01*
X264766Y293790D01*
X265030Y293860D01*
X265253Y293950D01*
X265436Y294060D01*
X265578Y294190D01*
X265680Y294340D01*
X265741Y294510D01*
X265761Y294700D01*
Y290700D01*
D02*
G37*
G36*
X382509Y302166D02*
X382509Y302166D01*
X383501Y301502D01*
X384500Y301304D01*
Y300000D01*
Y287809D01*
X379336D01*
X374059Y293086D01*
Y306696D01*
X376830Y307844D01*
X382509Y302166D01*
D02*
G37*
G36*
X349105Y293500D02*
X350895D01*
X352941Y291100D01*
Y276000D01*
X352941Y276000D01*
X353174Y274830D01*
X353837Y273837D01*
X374523Y253152D01*
X373438Y250397D01*
X370856Y250109D01*
X347233Y273733D01*
X346323Y274340D01*
X345250Y274554D01*
X335500D01*
Y287698D01*
X338500Y288136D01*
X339451Y287185D01*
X341105Y286500D01*
X342895D01*
X344549Y287185D01*
X345815Y288451D01*
X346500Y290105D01*
Y291332D01*
X347969Y292816D01*
X349078Y293511D01*
X349105Y293500D01*
D02*
G37*
G36*
X612500Y277500D02*
Y262512D01*
X611549Y261729D01*
X610895Y262000D01*
X609105D01*
X607451Y261315D01*
X606185Y260049D01*
X605500Y258395D01*
Y256605D01*
X605771Y255951D01*
X604988Y255000D01*
X555000D01*
X542920Y242920D01*
X541745Y243541D01*
X541745Y243770D01*
Y247150D01*
X522495D01*
Y243770D01*
X522495Y243150D01*
X521494Y242500D01*
X520000D01*
X515059Y247441D01*
Y277559D01*
X521441Y283941D01*
X595000D01*
X595000Y283941D01*
X596171Y284174D01*
X597163Y284837D01*
X597326Y285000D01*
X605000D01*
X612500Y277500D01*
D02*
G37*
G36*
X773883Y298118D02*
Y284317D01*
X773270Y283846D01*
X772000Y284464D01*
Y287250D01*
X765000D01*
X758000D01*
Y282500D01*
X750666D01*
X749500Y282750D01*
X749500Y283770D01*
Y287750D01*
X742500D01*
X735500D01*
Y283563D01*
X735000Y282500D01*
X734529Y282029D01*
X730000Y277500D01*
Y262500D01*
X727500Y260000D01*
X708039D01*
Y297000D01*
X707884Y297780D01*
X707842Y297843D01*
X710000Y300000D01*
X772000D01*
X773883Y298118D01*
D02*
G37*
G36*
X222990Y284379D02*
X223050Y284231D01*
X223150Y284101D01*
X223290Y283988D01*
X223470Y283892D01*
X223689Y283814D01*
X223950Y283753D01*
X224249Y283710D01*
X224590Y283684D01*
X224970Y283675D01*
Y281675D01*
X224590Y281666D01*
X224249Y281640D01*
X223950Y281597D01*
X223689Y281536D01*
X223470Y281458D01*
X223290Y281362D01*
X223150Y281249D01*
X223050Y281119D01*
X222990Y280971D01*
X222969Y280805D01*
Y284545D01*
X222990Y284379D01*
D02*
G37*
G36*
X451459Y309424D02*
X416589Y274554D01*
X406500D01*
Y276000D01*
Y288446D01*
X410250D01*
X411323Y288660D01*
X412233Y289267D01*
X435161Y312196D01*
X450311D01*
X451459Y309424D01*
D02*
G37*
G36*
X222999Y278124D02*
X223090Y278062D01*
X223239Y278006D01*
X223449Y277958D01*
X223720Y277917D01*
X224440Y277858D01*
X225970Y277825D01*
Y274825D01*
X225399Y274821D01*
X223449Y274692D01*
X223239Y274644D01*
X223090Y274589D01*
X222999Y274526D01*
X222969Y274456D01*
Y278195D01*
X222999Y278124D01*
D02*
G37*
G36*
X229643Y274144D02*
X229524Y274274D01*
X229383Y274389D01*
X229219Y274492D01*
X229033Y274580D01*
X228824Y274655D01*
X228592Y274716D01*
X228338Y274764D01*
X228061Y274798D01*
X227762Y274818D01*
X227440Y274825D01*
X227819Y277825D01*
X228143Y277830D01*
X228728Y277869D01*
X228988Y277904D01*
X229443Y278003D01*
X229639Y278067D01*
X229813Y278142D01*
X229966Y278226D01*
X230098Y278320D01*
X229643Y274144D01*
D02*
G37*
G36*
X758000Y268750D02*
X758883D01*
Y258250D01*
X758000D01*
Y247750D01*
X758000Y245250D01*
X758000Y239967D01*
X756757Y239203D01*
X755000Y238837D01*
X753061Y240777D01*
X752606Y241457D01*
X752553Y241583D01*
X752514Y241780D01*
X752403Y241947D01*
X752326Y242133D01*
X752184Y242275D01*
X752072Y242442D01*
X751905Y242554D01*
X751763Y242696D01*
X751578Y242772D01*
X751411Y242884D01*
X751214Y242923D01*
X751028Y243000D01*
X750827D01*
X750630Y243039D01*
X741200D01*
Y244900D01*
X736000D01*
Y246400D01*
X734500D01*
Y251400D01*
X730800D01*
X729039Y253671D01*
Y254000D01*
X728884Y254780D01*
X728650Y255131D01*
X728530Y256100D01*
X728849Y258487D01*
X728855Y258500D01*
X728942Y258558D01*
X731442Y261058D01*
X731884Y261720D01*
X732039Y262500D01*
Y274383D01*
X732500Y274691D01*
X735500Y273087D01*
Y269250D01*
X741000D01*
Y275750D01*
X742500D01*
Y277250D01*
X749500D01*
Y277806D01*
X749502Y277812D01*
X750666Y280461D01*
X758000D01*
Y268750D01*
D02*
G37*
G36*
X222990Y271679D02*
X223050Y271532D01*
X223150Y271401D01*
X223290Y271288D01*
X223470Y271192D01*
X223689Y271114D01*
X223950Y271053D01*
X224249Y271010D01*
X224590Y270984D01*
X224970Y270975D01*
Y268975D01*
X224590Y268966D01*
X224249Y268940D01*
X223950Y268897D01*
X223689Y268836D01*
X223470Y268758D01*
X223290Y268662D01*
X223150Y268549D01*
X223050Y268419D01*
X222990Y268271D01*
X222969Y268106D01*
Y271845D01*
X222990Y271679D01*
D02*
G37*
G36*
X265761Y268000D02*
X265739Y268190D01*
X265677Y268360D01*
X265575Y268510D01*
X265432Y268640D01*
X265250Y268750D01*
X265026Y268840D01*
X264763Y268910D01*
X264459Y268960D01*
X264115Y268990D01*
X263731Y269000D01*
Y271000D01*
X264111Y271009D01*
X264450Y271037D01*
X264750Y271083D01*
X265011Y271147D01*
X265231Y271230D01*
X265410Y271331D01*
X265550Y271451D01*
X265651Y271588D01*
X265711Y271745D01*
X265730Y271919D01*
X265761Y268000D01*
D02*
G37*
G36*
X376587Y276087D02*
X377579Y275424D01*
X378750Y275191D01*
X378750Y275191D01*
X384500D01*
Y274000D01*
Y262059D01*
X381267D01*
X364059Y279267D01*
Y284696D01*
X366830Y285844D01*
X376587Y276087D01*
D02*
G37*
G36*
X947451Y262825D02*
Y222549D01*
X941876D01*
X941246Y222971D01*
X939539Y225000D01*
Y236500D01*
X939539Y236500D01*
X939384Y237280D01*
X938942Y237942D01*
X936442Y240442D01*
X935780Y240884D01*
X935000Y241039D01*
X925200D01*
Y242900D01*
X920000D01*
Y245900D01*
X925200D01*
Y249250D01*
X927000D01*
Y254250D01*
X920000D01*
Y257250D01*
X927000D01*
Y257806D01*
X927002Y257812D01*
X927095Y258024D01*
X930000Y260461D01*
X940000Y260461D01*
X940000Y260461D01*
X940780Y260616D01*
X941442Y261058D01*
X941442Y261058D01*
X944451Y264067D01*
X947451Y262825D01*
D02*
G37*
G36*
X876961Y298039D02*
Y260000D01*
X876967Y259967D01*
X875000Y258000D01*
X840000D01*
Y264000D01*
X848000D01*
X849750Y265750D01*
X850750D01*
Y266750D01*
X855000Y271000D01*
Y292000D01*
X863000Y300000D01*
X875000D01*
X876961Y298039D01*
D02*
G37*
G36*
X695000Y300000D02*
X697158Y297843D01*
X697116Y297780D01*
X696961Y297000D01*
Y261961D01*
X692500Y257500D01*
X691500Y256500D01*
X659500D01*
X659000Y257000D01*
Y261000D01*
X668500D01*
X675000Y267500D01*
Y297500D01*
X677500Y300000D01*
X695000D01*
Y300000D01*
D02*
G37*
G36*
X265761Y252269D02*
X265743Y252408D01*
X265691Y252533D01*
X265602Y252642D01*
X265479Y252737D01*
X265321Y252817D01*
X265127Y252883D01*
X264898Y252934D01*
X264634Y252971D01*
X264335Y252993D01*
X264000Y253000D01*
Y255000D01*
X264335Y255007D01*
X264898Y255066D01*
X265127Y255117D01*
X265321Y255183D01*
X265479Y255263D01*
X265602Y255358D01*
X265691Y255467D01*
X265743Y255592D01*
X265761Y255730D01*
Y252269D01*
D02*
G37*
G36*
Y244000D02*
X265739Y244190D01*
X265677Y244360D01*
X265575Y244510D01*
X265432Y244640D01*
X265250Y244750D01*
X265026Y244840D01*
X264763Y244910D01*
X264459Y244960D01*
X264115Y244990D01*
X263731Y245000D01*
Y247000D01*
X264111Y247009D01*
X264450Y247037D01*
X264750Y247083D01*
X265011Y247147D01*
X265231Y247230D01*
X265410Y247331D01*
X265550Y247451D01*
X265651Y247589D01*
X265711Y247745D01*
X265730Y247920D01*
X265761Y244000D01*
D02*
G37*
G36*
X727000Y243000D02*
X695000D01*
X693000Y245000D01*
X673000D01*
X670000Y248000D01*
X659000D01*
Y254000D01*
X727000D01*
Y243000D01*
D02*
G37*
G36*
X906000Y254000D02*
Y241000D01*
X873000D01*
X867000Y247000D01*
X866200D01*
Y247600D01*
X855800D01*
Y247000D01*
X851000D01*
X850750Y247250D01*
Y249250D01*
X848750D01*
X848000Y250000D01*
X840000D01*
Y255961D01*
X875000D01*
X875197Y256000D01*
X904000D01*
X906000Y254000D01*
D02*
G37*
G36*
X750703Y240634D02*
X751477Y239477D01*
X754000Y236953D01*
Y227000D01*
X750000Y223000D01*
X718500Y223000D01*
X713520Y227980D01*
X713548Y229250D01*
X718500D01*
Y235750D01*
X720000D01*
Y237250D01*
X727000D01*
Y240961D01*
X727197Y241000D01*
X730800D01*
Y239100D01*
X741200D01*
Y241000D01*
X750630D01*
X750703Y240634D01*
D02*
G37*
G36*
X937500Y236500D02*
Y225000D01*
X935049Y222549D01*
X894951D01*
X892500Y225000D01*
Y225687D01*
X893000Y226750D01*
X898500D01*
Y233250D01*
X900000D01*
Y234750D01*
X907000D01*
Y239000D01*
X914800D01*
Y237100D01*
X925200D01*
Y239000D01*
X935000D01*
X937500Y236500D01*
D02*
G37*
%LPC*%
G36*
X432400Y706200D02*
X428900D01*
Y702500D01*
X432400D01*
Y706200D01*
D02*
G37*
G36*
X775500Y704400D02*
X771800D01*
Y700900D01*
X775500D01*
Y704400D01*
D02*
G37*
G36*
X432400Y699500D02*
X428900D01*
Y695800D01*
X432400D01*
Y699500D01*
D02*
G37*
G36*
X636751Y704000D02*
X636500D01*
Y695500D01*
X645000D01*
Y695751D01*
X644353Y698167D01*
X643102Y700333D01*
X641333Y702102D01*
X639167Y703353D01*
X636751Y704000D01*
D02*
G37*
G36*
X554500D02*
X554249D01*
X551833Y703353D01*
X549667Y702102D01*
X547898Y700333D01*
X546647Y698167D01*
X546000Y695751D01*
Y695500D01*
X554500D01*
Y704000D01*
D02*
G37*
G36*
X465200Y694400D02*
X461500D01*
Y690900D01*
X465200D01*
Y694400D01*
D02*
G37*
G36*
X458500D02*
X454800D01*
Y690900D01*
X458500D01*
Y694400D01*
D02*
G37*
G36*
X489500Y700500D02*
X472500D01*
Y685500D01*
X472500Y685500D01*
X472093Y682669D01*
X465200D01*
Y687900D01*
X454800D01*
Y687292D01*
X452495Y685000D01*
X450505D01*
X448668Y684239D01*
X447261Y682832D01*
X446500Y680994D01*
Y679005D01*
X447261Y677168D01*
X448668Y675761D01*
X450505Y675000D01*
X452048D01*
X452495Y675000D01*
X454800Y675600D01*
X454800Y675600D01*
X461155D01*
X461500Y675531D01*
X472500D01*
Y668500D01*
X489500D01*
Y683500D01*
X489500D01*
Y685500D01*
X489500D01*
Y700500D01*
D02*
G37*
G36*
X511500Y674500D02*
X504500D01*
Y668500D01*
X511500D01*
Y674500D01*
D02*
G37*
G36*
X501500D02*
X494500D01*
Y668500D01*
X501500D01*
Y674500D01*
D02*
G37*
G36*
X560500Y637250D02*
X557000D01*
Y633000D01*
X560500D01*
Y637250D01*
D02*
G37*
G36*
X897200Y711800D02*
X893500D01*
Y708300D01*
X897200D01*
Y711800D01*
D02*
G37*
G36*
X890500D02*
X886800D01*
Y708300D01*
X890500D01*
Y711800D01*
D02*
G37*
G36*
X871200Y711400D02*
X867500D01*
Y707900D01*
X871200D01*
Y711400D01*
D02*
G37*
G36*
X864500D02*
X860800D01*
Y707900D01*
X864500D01*
Y711400D01*
D02*
G37*
G36*
X856200Y686100D02*
X852500D01*
Y682600D01*
X856200D01*
Y686100D01*
D02*
G37*
G36*
X849500D02*
X845800D01*
Y682600D01*
X849500D01*
Y686100D01*
D02*
G37*
G36*
X842000Y682000D02*
X834500D01*
Y675500D01*
X842000D01*
Y682000D01*
D02*
G37*
G36*
X701880Y663950D02*
X693755D01*
Y659950D01*
X701880D01*
Y663950D01*
D02*
G37*
G36*
X782200Y663100D02*
X778500D01*
Y659600D01*
X782200D01*
Y663100D01*
D02*
G37*
G36*
X775500D02*
X771800D01*
Y659600D01*
X775500D01*
Y663100D01*
D02*
G37*
G36*
X780200Y650400D02*
X776500D01*
Y646900D01*
X780200D01*
Y650400D01*
D02*
G37*
G36*
X763000Y650250D02*
X757500D01*
Y645250D01*
X763000D01*
Y650250D01*
D02*
G37*
G36*
X741000D02*
X735500D01*
Y645250D01*
X741000D01*
Y650250D01*
D02*
G37*
G36*
X754500D02*
X749000D01*
Y645250D01*
X754500D01*
Y650250D01*
D02*
G37*
G36*
X771500Y621400D02*
Y617900D01*
X775200D01*
Y621400D01*
X771500D01*
D02*
G37*
G36*
X917400Y655200D02*
X913900D01*
Y651500D01*
X917400D01*
Y655200D01*
D02*
G37*
G36*
Y648500D02*
X913900D01*
Y644800D01*
X917400D01*
Y648500D01*
D02*
G37*
G36*
X743200Y616400D02*
X739500D01*
Y612900D01*
X743200D01*
Y616400D01*
D02*
G37*
G36*
X736500D02*
X732800D01*
Y612900D01*
X736500D01*
Y616400D01*
D02*
G37*
G36*
X727200D02*
X723500D01*
Y612900D01*
X727200D01*
Y616400D01*
D02*
G37*
G36*
X720500D02*
X716800D01*
Y612900D01*
X720500D01*
Y616400D01*
D02*
G37*
G36*
X711200D02*
X707500D01*
Y612900D01*
X711200D01*
Y616400D01*
D02*
G37*
G36*
X671750Y503250D02*
X637000D01*
Y468500D01*
X671750D01*
Y503250D01*
D02*
G37*
G36*
X634000D02*
X599250D01*
Y468500D01*
X634000D01*
Y503250D01*
D02*
G37*
G36*
X671750Y465500D02*
X637000D01*
Y430750D01*
X671750D01*
Y465500D01*
D02*
G37*
G36*
X634000D02*
X599250D01*
Y430750D01*
X634000D01*
Y465500D01*
D02*
G37*
G36*
X636500Y368995D02*
X634500D01*
Y359620D01*
Y350245D01*
X636500D01*
Y359620D01*
Y368995D01*
D02*
G37*
G36*
X631500D02*
X629500D01*
Y359620D01*
Y350245D01*
X631500D01*
Y359620D01*
Y368995D01*
D02*
G37*
G36*
X626500D02*
X624500D01*
Y359620D01*
Y350245D01*
X626500D01*
Y359620D01*
Y368995D01*
D02*
G37*
G36*
X710500Y324100D02*
X706800D01*
Y320600D01*
X710500D01*
Y324100D01*
D02*
G37*
G36*
X694200D02*
X690500D01*
Y320600D01*
X694200D01*
Y324100D01*
D02*
G37*
G36*
X687500D02*
X683800D01*
Y320600D01*
X687500D01*
Y324100D01*
D02*
G37*
G36*
X646000D02*
X642300D01*
Y320600D01*
X646000D01*
Y324100D01*
D02*
G37*
G36*
X608500D02*
X604800D01*
Y320600D01*
X608500D01*
Y324100D01*
D02*
G37*
G36*
X649500Y284250D02*
X644000D01*
Y279250D01*
X649500D01*
Y284250D01*
D02*
G37*
G36*
X487505Y279550D02*
X479380D01*
Y275550D01*
X487505D01*
Y279550D01*
D02*
G37*
G36*
X476380D02*
X468255D01*
Y275550D01*
X476380D01*
Y279550D01*
D02*
G37*
G36*
X335500Y250750D02*
X326000D01*
Y248000D01*
X335500D01*
Y250750D01*
D02*
G37*
G36*
X323000D02*
X313500D01*
Y248000D01*
X323000D01*
Y250750D01*
D02*
G37*
G36*
X624500Y241500D02*
X619250D01*
Y239250D01*
X624500D01*
Y241500D01*
D02*
G37*
G36*
X447750Y240000D02*
X443500D01*
Y236500D01*
X447750D01*
Y240000D01*
D02*
G37*
G36*
X690200Y238100D02*
X686500D01*
Y234600D01*
X690200D01*
Y238100D01*
D02*
G37*
G36*
X683500D02*
X679800D01*
Y234600D01*
X683500D01*
Y238100D01*
D02*
G37*
G36*
X615000Y235250D02*
X611500D01*
Y231000D01*
X615000D01*
Y235250D01*
D02*
G37*
G36*
X608500D02*
X605000D01*
Y231000D01*
X608500D01*
Y235250D01*
D02*
G37*
G36*
X598150Y240400D02*
X591500D01*
Y230900D01*
X598150D01*
Y240400D01*
D02*
G37*
G36*
X588500D02*
X581850D01*
Y230900D01*
X588500D01*
Y240400D01*
D02*
G37*
G36*
X573150D02*
X566500D01*
Y230900D01*
X573150D01*
Y240400D01*
D02*
G37*
G36*
X563500D02*
X556850D01*
Y230900D01*
X563500D01*
Y240400D01*
D02*
G37*
G36*
X447750Y233500D02*
X443500D01*
Y230000D01*
X447750D01*
Y233500D01*
D02*
G37*
G36*
X701000Y234250D02*
X695500D01*
Y229250D01*
X701000D01*
Y234250D01*
D02*
G37*
G36*
X437400Y573200D02*
X433900D01*
Y569500D01*
X437400D01*
Y573200D01*
D02*
G37*
G36*
X489100Y572700D02*
X485600D01*
Y569000D01*
X489100D01*
Y572700D01*
D02*
G37*
G36*
X437400Y566500D02*
X433900D01*
Y562800D01*
X437400D01*
Y566500D01*
D02*
G37*
G36*
X489100Y566000D02*
X485600D01*
Y562300D01*
X489100D01*
Y566000D01*
D02*
G37*
G36*
X763100Y560500D02*
X759600D01*
Y556800D01*
X763100D01*
Y560500D01*
D02*
G37*
G36*
X763100Y549200D02*
X759600D01*
Y545500D01*
X763100D01*
Y549200D01*
D02*
G37*
G36*
Y542500D02*
X759600D01*
Y538800D01*
X763100D01*
Y542500D01*
D02*
G37*
G36*
X780400Y528200D02*
X776900D01*
Y524500D01*
X780400D01*
Y528200D01*
D02*
G37*
G36*
Y521500D02*
X776900D01*
Y517800D01*
X780400D01*
Y521500D01*
D02*
G37*
G36*
Y510200D02*
X776900D01*
Y506500D01*
X780400D01*
Y510200D01*
D02*
G37*
G36*
Y503500D02*
X776900D01*
Y499800D01*
X780400D01*
Y503500D01*
D02*
G37*
G36*
X781900Y492700D02*
X778400D01*
Y489000D01*
X781900D01*
Y492700D01*
D02*
G37*
G36*
Y486000D02*
X778400D01*
Y482300D01*
X781900D01*
Y486000D01*
D02*
G37*
G36*
X900200Y489100D02*
X896500D01*
Y485600D01*
X900200D01*
Y489100D01*
D02*
G37*
G36*
X880500D02*
X876800D01*
Y485600D01*
X880500D01*
Y489100D01*
D02*
G37*
G36*
X921750Y452000D02*
X916500D01*
Y447250D01*
X921750D01*
Y452000D01*
D02*
G37*
G36*
Y439500D02*
X908250D01*
Y426500D01*
X921750D01*
Y428422D01*
X926129D01*
X928250Y426300D01*
Y425250D01*
X928250Y422250D01*
Y420000D01*
X941750D01*
Y422250D01*
X941750Y424750D01*
X941750Y427750D01*
Y437750D01*
X928250D01*
Y436578D01*
X921750D01*
Y439500D01*
D02*
G37*
G36*
X941750Y417000D02*
X936500D01*
Y412250D01*
X941750D01*
Y417000D01*
D02*
G37*
G36*
X933500D02*
X928250D01*
Y412250D01*
X933500D01*
Y417000D01*
D02*
G37*
G36*
X879000Y398500D02*
X874750D01*
Y395000D01*
X879000D01*
Y398500D01*
D02*
G37*
G36*
X934200Y394400D02*
X930500D01*
Y390900D01*
X934200D01*
Y394400D01*
D02*
G37*
G36*
X927500D02*
X923800D01*
Y390900D01*
X927500D01*
Y394400D01*
D02*
G37*
G36*
X484600Y505500D02*
X481100D01*
Y501800D01*
X484600D01*
Y505500D01*
D02*
G37*
G36*
X335500Y494750D02*
X326000D01*
Y492000D01*
X335500D01*
Y494750D01*
D02*
G37*
G36*
X323000D02*
X313500D01*
Y492000D01*
X323000D01*
Y494750D01*
D02*
G37*
G36*
X394700Y457500D02*
X391200D01*
Y453800D01*
X394700D01*
Y457500D01*
D02*
G37*
G36*
X779100Y451200D02*
X775600D01*
Y447500D01*
X779100D01*
Y451200D01*
D02*
G37*
G36*
Y444500D02*
X775600D01*
Y440800D01*
X779100D01*
Y444500D01*
D02*
G37*
G36*
X821750Y431950D02*
X813000D01*
Y428200D01*
X821750D01*
Y431950D01*
D02*
G37*
G36*
X810000D02*
X801250D01*
Y428200D01*
X810000D01*
Y431950D01*
D02*
G37*
G36*
X779400Y425200D02*
X775900D01*
Y421500D01*
X779400D01*
Y425200D01*
D02*
G37*
G36*
X480600Y433500D02*
X477100D01*
Y429800D01*
X480600D01*
Y433500D01*
D02*
G37*
G36*
X480100Y422200D02*
X476600D01*
Y418500D01*
X480100D01*
Y422200D01*
D02*
G37*
G36*
X779400Y405200D02*
X775900D01*
Y401500D01*
X779400D01*
Y405200D01*
D02*
G37*
G36*
X934200Y379100D02*
X930500D01*
Y375600D01*
X934200D01*
Y379100D01*
D02*
G37*
G36*
X927500D02*
X923800D01*
Y375600D01*
X927500D01*
Y379100D01*
D02*
G37*
G36*
X397100Y346200D02*
X393600D01*
Y342500D01*
X397100D01*
Y346200D01*
D02*
G37*
G36*
Y339500D02*
X393600D01*
Y335800D01*
X397100D01*
Y339500D01*
D02*
G37*
G36*
X860000Y374500D02*
X849500D01*
Y355000D01*
X860000D01*
Y374500D01*
D02*
G37*
G36*
X844500D02*
X834000D01*
Y355000D01*
X844500D01*
Y374500D01*
D02*
G37*
G36*
X922000Y362000D02*
X911500D01*
Y354000D01*
X922000D01*
Y362000D01*
D02*
G37*
G36*
X908500D02*
X898000D01*
Y354000D01*
X908500D01*
Y362000D01*
D02*
G37*
G36*
X922000Y351000D02*
X911500D01*
Y343000D01*
X922000D01*
Y351000D01*
D02*
G37*
G36*
X908500D02*
X898000D01*
Y343000D01*
X908500D01*
Y351000D01*
D02*
G37*
G36*
X822000Y336750D02*
X816500D01*
Y331750D01*
X822000D01*
Y336750D01*
D02*
G37*
G36*
X813500D02*
X808000D01*
Y331750D01*
X813500D01*
Y336750D01*
D02*
G37*
G36*
X860000Y350000D02*
X849500D01*
Y330500D01*
X860000D01*
Y350000D01*
D02*
G37*
G36*
X844500D02*
X834000D01*
Y330500D01*
X844500D01*
Y350000D01*
D02*
G37*
G36*
X822000Y323250D02*
X816500D01*
Y318250D01*
X822000D01*
Y323250D01*
D02*
G37*
G36*
X813500D02*
X808000D01*
Y318250D01*
X813500D01*
Y323250D01*
D02*
G37*
G36*
X797200Y319400D02*
X793500D01*
Y315900D01*
X797200D01*
Y319400D01*
D02*
G37*
G36*
X790500D02*
X786800D01*
Y315900D01*
X790500D01*
Y319400D01*
D02*
G37*
G36*
X922000Y328000D02*
X911500D01*
Y320000D01*
X922000D01*
Y328000D01*
D02*
G37*
G36*
X908500D02*
X898000D01*
Y320000D01*
X908500D01*
Y328000D01*
D02*
G37*
G36*
X927000Y313250D02*
X921500D01*
Y308250D01*
X927000D01*
Y313250D01*
D02*
G37*
G36*
X918500D02*
X913000D01*
Y308250D01*
X918500D01*
Y313250D01*
D02*
G37*
G36*
X797200Y304100D02*
X793500D01*
Y300600D01*
X797200D01*
Y304100D01*
D02*
G37*
G36*
X822000Y301750D02*
X816500D01*
Y296750D01*
X822000D01*
Y301750D01*
D02*
G37*
G36*
X813500D02*
X808000D01*
Y296750D01*
X813500D01*
Y301750D01*
D02*
G37*
G36*
X793500Y295500D02*
Y291250D01*
X797000D01*
Y295500D01*
X793500D01*
D02*
G37*
G36*
X859500Y241100D02*
X855800D01*
Y237600D01*
X859500D01*
Y241100D01*
D02*
G37*
G36*
X772000Y236750D02*
X766500D01*
Y231750D01*
X772000D01*
Y236750D01*
D02*
G37*
G36*
X884500Y231750D02*
X879000D01*
Y226750D01*
X884500D01*
Y231750D01*
D02*
G37*
G36*
X876000D02*
X870500D01*
Y226750D01*
X876000D01*
Y231750D01*
D02*
G37*
G36*
X586000Y324100D02*
X582300D01*
Y320600D01*
X586000D01*
Y324100D01*
D02*
G37*
G36*
X570200D02*
X566500D01*
Y320600D01*
X570200D01*
Y324100D01*
D02*
G37*
G36*
X563500D02*
X559800D01*
Y320600D01*
X563500D01*
Y324100D01*
D02*
G37*
G36*
X542700D02*
X539000D01*
Y320600D01*
X542700D01*
Y324100D01*
D02*
G37*
G36*
X536000D02*
X532300D01*
Y320600D01*
X536000D01*
Y324100D01*
D02*
G37*
G36*
X927000Y291750D02*
X921500D01*
Y286750D01*
X927000D01*
Y291750D01*
D02*
G37*
G36*
X918500D02*
X913000D01*
Y286750D01*
X918500D01*
Y291750D01*
D02*
G37*
G36*
X927000Y275750D02*
X921500D01*
Y270750D01*
X927000D01*
Y275750D01*
D02*
G37*
G36*
X918500D02*
X913000D01*
Y270750D01*
X918500D01*
Y275750D01*
D02*
G37*
G36*
X541745Y279550D02*
X533620D01*
Y275550D01*
X541745D01*
Y279550D01*
D02*
G37*
G36*
X530620D02*
X522495D01*
Y275550D01*
X530620D01*
Y279550D01*
D02*
G37*
G36*
X598150Y279100D02*
X591500D01*
Y269600D01*
X598150D01*
Y279100D01*
D02*
G37*
G36*
X573150D02*
X566500D01*
Y269600D01*
X573150D01*
Y279100D01*
D02*
G37*
G36*
X588500D02*
X581850D01*
Y269600D01*
X588500D01*
Y279100D01*
D02*
G37*
G36*
X563500D02*
X556850D01*
Y269600D01*
X563500D01*
Y279100D01*
D02*
G37*
G36*
X541745Y272550D02*
X533620D01*
Y268550D01*
X541745D01*
Y272550D01*
D02*
G37*
G36*
X530620D02*
X522495D01*
Y268550D01*
X530620D01*
Y272550D01*
D02*
G37*
G36*
X541745Y266850D02*
X533620D01*
Y262850D01*
X541745D01*
Y266850D01*
D02*
G37*
G36*
X530620D02*
X522495D01*
Y262850D01*
X530620D01*
Y266850D01*
D02*
G37*
G36*
X598150Y266600D02*
X591500D01*
Y257100D01*
X598150D01*
Y266600D01*
D02*
G37*
G36*
X588500D02*
X581850D01*
Y257100D01*
X588500D01*
Y266600D01*
D02*
G37*
G36*
X573150D02*
X566500D01*
Y257100D01*
X573150D01*
Y266600D01*
D02*
G37*
G36*
X563500D02*
X556850D01*
Y257100D01*
X563500D01*
Y266600D01*
D02*
G37*
G36*
X541745Y259850D02*
X533620D01*
Y255850D01*
X541745D01*
Y259850D01*
D02*
G37*
G36*
X530620D02*
X522495D01*
Y255850D01*
X530620D01*
Y259850D01*
D02*
G37*
G36*
X541745Y254150D02*
X533620D01*
Y250150D01*
X541745D01*
Y254150D01*
D02*
G37*
G36*
X530620D02*
X522495D01*
Y250150D01*
X530620D01*
Y254150D01*
D02*
G37*
G36*
X749500Y295750D02*
X744000D01*
Y290750D01*
X749500D01*
Y295750D01*
D02*
G37*
G36*
X741000D02*
X735500D01*
Y290750D01*
X741000D01*
Y295750D01*
D02*
G37*
G36*
X772000Y295250D02*
X766500D01*
Y290250D01*
X772000D01*
Y295250D01*
D02*
G37*
G36*
X763500D02*
X758000D01*
Y290250D01*
X763500D01*
Y295250D01*
D02*
G37*
G36*
X749500Y274250D02*
X744000D01*
Y269250D01*
X749500D01*
Y274250D01*
D02*
G37*
G36*
X737500Y251400D02*
Y247900D01*
X741200D01*
Y251400D01*
X737500D01*
D02*
G37*
G36*
X741200Y236100D02*
X737500D01*
Y232600D01*
X741200D01*
Y236100D01*
D02*
G37*
G36*
X734500D02*
X730800D01*
Y232600D01*
X734500D01*
Y236100D01*
D02*
G37*
G36*
X727000Y234250D02*
X721500D01*
Y229250D01*
X727000D01*
Y234250D01*
D02*
G37*
G36*
X925200Y234100D02*
X921500D01*
Y230600D01*
X925200D01*
Y234100D01*
D02*
G37*
G36*
X918500D02*
X914800D01*
Y230600D01*
X918500D01*
Y234100D01*
D02*
G37*
G36*
X907000Y231750D02*
X901500D01*
Y226750D01*
X907000D01*
Y231750D01*
D02*
G37*
%LPD*%
D11*
X361000Y278000D02*
Y319000D01*
X348300Y331700D02*
X361000Y319000D01*
X287200Y331700D02*
X348300D01*
X793500Y289000D02*
X802000D01*
X790000Y268000D02*
Y276250D01*
X792000Y278250D01*
X785000Y263000D02*
X790000Y268000D01*
X785000Y253500D02*
Y263000D01*
Y251500D02*
Y253500D01*
X784500D02*
X806000D01*
X794000Y674750D02*
X799250D01*
X817000Y657000D02*
X847000D01*
X799250Y674750D02*
X817000Y657000D01*
X847000D02*
X855500Y648500D01*
X512000Y282000D02*
X517000Y287000D01*
X595000D02*
X618000Y310000D01*
X517000Y287000D02*
X595000D01*
X618000Y310000D02*
X664000D01*
X512000Y242000D02*
X518050Y235950D01*
X532120D01*
X512000Y242000D02*
Y282000D01*
X883500Y445000D02*
X897500D01*
X866150Y446150D02*
X883500D01*
Y411000D02*
Y433450D01*
X799662Y458850D02*
X811500D01*
X883500Y432500D02*
X897500D01*
X811500Y458850D02*
X826150D01*
X811500Y471550D02*
X828450D01*
X883500Y445000D02*
Y446150D01*
X811050Y472000D02*
X811500Y471550D01*
X800000Y472000D02*
X811050D01*
X833250Y400000D02*
X840000D01*
X845000Y405000D01*
Y455000D01*
X828450Y471550D02*
X845000Y455000D01*
X835000Y416750D02*
Y450000D01*
X826150Y458850D02*
X835000Y450000D01*
X798312Y457500D02*
X799662Y458850D01*
X797500Y457500D02*
X798312D01*
X880000Y407500D02*
X883500Y411000D01*
X863250Y407500D02*
X880000D01*
X861750Y406000D02*
X863250Y407500D01*
X861750Y400000D02*
Y406000D01*
Y441750D02*
X866150Y446150D01*
X861750Y415000D02*
Y441750D01*
X805555Y388055D02*
Y400833D01*
X812222Y407500D02*
X830000D01*
X805555Y400833D02*
X812222Y407500D01*
X753668Y454500D02*
X755668Y456500D01*
X756750D01*
X742880Y454500D02*
X753668D01*
X411000Y500000D02*
Y504000D01*
X414000Y507000D02*
X466828D01*
X411000Y504000D02*
X414000Y507000D01*
X469500Y509672D02*
Y510000D01*
X466828Y507000D02*
X469500Y509672D01*
X797389Y505389D02*
X806389D01*
X797000Y505000D02*
X797389Y505389D01*
X806389D02*
X815500Y514500D01*
X804000Y512000D02*
X804389Y512389D01*
X807389D01*
X810500Y515500D01*
X812500Y579500D02*
X816000Y576000D01*
X790620Y579500D02*
X812500D01*
X719312Y544500D02*
X742880D01*
X717812Y546000D02*
X719312Y544500D01*
X717000Y546000D02*
X717812D01*
X721574Y503574D02*
X723852D01*
X721000Y503000D02*
X721574Y503574D01*
X723852D02*
X729778Y509500D01*
X717000Y520000D02*
X717250Y519750D01*
X742630D01*
X287200Y688700D02*
X323550D01*
X324500Y687750D01*
X629000Y632000D02*
X648000D01*
X652000Y598500D02*
Y628000D01*
X648000Y632000D02*
X652000Y628000D01*
X625500Y635500D02*
X629000Y632000D01*
X613000Y574380D02*
Y613000D01*
X557000Y622000D02*
X604000D01*
X613000Y613000D01*
X756000Y400000D02*
X765600D01*
X755235Y400765D02*
X756000Y400000D01*
X755235Y400765D02*
Y402937D01*
X755000Y403172D02*
Y412755D01*
Y403172D02*
X755235Y402937D01*
X776750Y469000D02*
X789000D01*
X800000Y480000D01*
X817755D01*
X709000Y526500D02*
X728000D01*
X805000Y487500D02*
X817500D01*
X855500Y619500D02*
Y639380D01*
X871000Y604000D02*
X890000D01*
X855500Y619500D02*
X871000Y604000D01*
X825000Y663000D02*
X852000D01*
X860500Y654500D01*
X813243Y674757D02*
X825000Y663000D01*
X830000Y667000D02*
X853000D01*
X822000Y675000D02*
X830000Y667000D01*
X822000Y675000D02*
Y692000D01*
X860500Y639380D02*
Y654500D01*
X813243Y674757D02*
Y681257D01*
X807068Y687432D02*
X813243Y681257D01*
X794000Y690600D02*
X795082Y689518D01*
X799482D01*
X801568Y687432D01*
X807068D01*
X915500Y574500D02*
X920000Y579000D01*
Y615000D01*
X931000Y626000D01*
X916000Y630000D02*
X927000Y641000D01*
X914500Y599500D02*
X916000Y601000D01*
Y630000D01*
X905380Y599500D02*
X914500D01*
X939000Y536000D02*
X943000Y540000D01*
X934000Y585000D02*
X943000Y576000D01*
Y540000D02*
Y576000D01*
X895000Y536000D02*
X939000D01*
X794000Y656812D02*
Y663250D01*
X795000Y655000D02*
Y655812D01*
X794000Y656812D02*
X795000Y655812D01*
X770000Y607000D02*
X778000D01*
X770000D02*
Y607600D01*
Y600000D02*
Y607000D01*
X691000Y595000D02*
Y626000D01*
X736000Y671000D01*
X695000Y595000D02*
Y624000D01*
X736000Y665000D01*
X758000D01*
X736000Y671000D02*
X741000D01*
X664000Y310000D02*
X674000Y320000D01*
X796738Y364238D02*
X820500Y388000D01*
X855500D02*
X861750Y394250D01*
X820500Y388000D02*
X855500D01*
X793238Y368238D02*
X818000Y393000D01*
X845500D02*
X850000Y397500D01*
X818000Y393000D02*
X845500D01*
X395500Y252250D02*
X410250D01*
X460500Y302500D02*
X585000D01*
X410250Y252250D02*
X456000Y298000D01*
X459000Y301000D02*
X460500Y302500D01*
X456000Y298071D02*
X458929Y301000D01*
X456000Y298000D02*
Y298071D01*
X458929Y301000D02*
X459000D01*
X618000Y359620D02*
Y384000D01*
X564500Y437500D02*
Y512000D01*
Y437500D02*
X618000Y384000D01*
X379000Y635000D02*
Y643000D01*
Y635000D02*
X384672Y629328D01*
X395422D02*
X395500Y629250D01*
X384672Y629328D02*
X395422D01*
X379000Y643000D02*
Y661000D01*
X339250Y700750D02*
X379000Y661000D01*
X575500Y523000D02*
X660000D01*
X564500Y512000D02*
X575500Y523000D01*
X660000D02*
X664000Y519000D01*
X564157Y531000D02*
X671000D01*
X687000Y515000D01*
X588000Y563000D02*
Y574380D01*
X553000Y549000D02*
X574000D01*
X588000Y563000D01*
X676500Y535000D02*
X692500Y519000D01*
X566000Y537000D02*
X566672D01*
X568672Y535000D01*
X676500D01*
X532500Y562657D02*
X564157Y531000D01*
X525000Y654000D02*
X557000Y622000D01*
X817500Y487500D02*
X840500Y510500D01*
X817755Y480000D02*
X850500Y512745D01*
X790000Y372500D02*
X805555Y388055D01*
X735500Y372500D02*
X790000D01*
X725000Y383000D02*
X735500Y372500D01*
X713000Y383000D02*
X725000D01*
X703000Y373000D02*
X713000Y383000D01*
X703000Y359620D02*
Y373000D01*
X733762Y368238D02*
X793238D01*
X724000Y378000D02*
X733762Y368238D01*
X715500Y378000D02*
X724000D01*
X708000Y370500D02*
X715500Y378000D01*
X708000Y359620D02*
Y370500D01*
X861750Y394250D02*
Y400000D01*
X731500Y364238D02*
X796738D01*
X722738Y373000D02*
X731500Y364238D01*
X718000Y373000D02*
X722738D01*
X713369Y368369D02*
X718000Y373000D01*
X713369Y359989D02*
Y368369D01*
X713000Y359620D02*
X713369Y359989D01*
X503500Y585000D02*
X527500Y561000D01*
X376000Y585000D02*
X503500D01*
X348574Y612426D02*
X376000Y585000D01*
X314574Y612426D02*
X348574D01*
X507000Y595000D02*
X553000Y549000D01*
X380000Y595000D02*
X507000D01*
X378000Y590000D02*
X505571D01*
X349300Y618700D02*
X378000Y590000D01*
X505571D02*
X532500Y563071D01*
Y562657D02*
Y563071D01*
X499650Y567750D02*
Y574538D01*
X499000Y575188D02*
X499650Y574538D01*
X499000Y575188D02*
Y576000D01*
X499400Y567500D02*
X499650Y567750D01*
X450000Y527000D02*
X484000D01*
X422500Y530500D02*
X446500D01*
X450000Y527000D01*
X855000Y415000D02*
X861750D01*
X850000Y397500D02*
Y410000D01*
X855000Y415000D01*
X832672Y410172D02*
Y414422D01*
X830000Y407500D02*
X832672Y410172D01*
Y414422D02*
X833250Y415000D01*
X775750Y470000D02*
X776750Y469000D01*
X850500Y512745D02*
Y524620D01*
X753255Y414500D02*
X755000Y412755D01*
X742880Y414500D02*
X753255D01*
X792000Y290500D02*
X793500Y289000D01*
X804000Y498000D02*
X804812D01*
X807386Y500574D01*
X807574D02*
X820500Y513500D01*
X807386Y500574D02*
X807574D01*
X812500Y497500D02*
X825500Y510500D01*
Y524620D01*
X635000Y335000D02*
X643000Y343000D01*
Y359620D01*
X630750Y335000D02*
X635000D01*
X630000Y335750D02*
X630750Y335000D01*
X585000Y302500D02*
X598186Y315686D01*
Y359434D01*
X460750Y235000D02*
X461700Y235950D01*
X477880D01*
X840500Y510500D02*
Y524620D01*
X820500Y513500D02*
Y524620D01*
X821500Y589500D02*
X835000Y576000D01*
Y537000D02*
Y576000D01*
X850000Y545000D02*
Y582213D01*
X827713Y604500D02*
X850000Y582213D01*
X840000Y545000D02*
Y578071D01*
X845000Y537000D02*
X845000Y537000D01*
X845000Y537000D02*
Y580142D01*
X825642Y599500D02*
X845000Y580142D01*
X823571Y594500D02*
X840000Y578071D01*
X790620Y599500D02*
X825642D01*
X790620Y589500D02*
X821500D01*
X790620Y594500D02*
X823571D01*
X790620Y604500D02*
X827713D01*
X681500Y421000D02*
X719500Y459000D01*
Y479000D01*
X695000Y394500D02*
X742880D01*
X708000Y398500D02*
X728778D01*
X705500Y401000D02*
X708000Y398500D01*
X705500Y401000D02*
Y410000D01*
X728778Y398500D02*
X729778Y399500D01*
X811329Y567000D02*
X812000D01*
X808829Y564500D02*
X811329Y567000D01*
X790620Y564500D02*
X808829D01*
X808500Y559500D02*
X809000Y559000D01*
X790620Y559500D02*
X808500D01*
X790620Y554500D02*
X806500D01*
X814000Y547000D01*
X790620Y569500D02*
X801688D01*
X803188Y571000D01*
X804000D01*
X731000Y557000D02*
X733500Y554500D01*
X731000Y562000D02*
X738000Y569000D01*
X731000Y557000D02*
Y562000D01*
X733500Y554500D02*
X742880D01*
X738000Y569000D02*
X774000D01*
X779500Y574500D01*
X790620D01*
X810500Y515500D02*
Y524620D01*
X815500Y514500D02*
Y524620D01*
X780500Y609500D02*
X790620D01*
X778000Y607000D02*
X780500Y609500D01*
X697000Y650000D02*
X709000D01*
X737150Y678150D02*
X757620D01*
X709000Y650000D02*
X737150Y678150D01*
X905380Y544500D02*
X929500D01*
X931000Y546000D01*
X891000Y540000D02*
X895000Y536000D01*
X880000Y540000D02*
X891000D01*
X875500Y524620D02*
Y535500D01*
X880000Y540000D01*
X927000Y641000D02*
Y649000D01*
X905380Y574500D02*
X915500D01*
X865500Y639380D02*
Y654500D01*
X855500Y639380D02*
Y648500D01*
X828500Y696000D02*
X833000Y700500D01*
X826000Y696000D02*
X828500D01*
X822000Y692000D02*
X826000Y696000D01*
X853000Y667000D02*
X865500Y654500D01*
X473500Y435000D02*
X479750D01*
X472000Y417000D02*
X479250D01*
X730500Y494000D02*
X730750Y494250D01*
X742630D01*
X742880Y494500D01*
X724500Y513000D02*
X725312D01*
X726812Y514500D01*
X730500Y501000D02*
X731312D01*
X732812Y499500D01*
X726812Y514500D02*
X742880D01*
X729778Y509500D02*
X742880D01*
X732812Y499500D02*
X742880D01*
X525000Y654000D02*
Y679250D01*
X516875Y690250D02*
X524500D01*
X525000Y690750D01*
X514125Y693000D02*
X516875Y690250D01*
X503000Y693000D02*
X514125D01*
X525000Y678500D02*
Y679250D01*
Y678500D02*
X527500Y676000D01*
X422000Y531000D02*
X422500Y530500D01*
X777000Y673400D02*
X777400Y673000D01*
X793000D01*
X836500Y697000D02*
X852000D01*
X833000Y700500D02*
X836500Y697000D01*
X668500Y592500D02*
Y628500D01*
X680500Y640500D01*
Y677000D01*
X673000Y589500D02*
Y626000D01*
X697000Y650000D01*
X698000Y574380D02*
Y592000D01*
X695000Y595000D02*
X698000Y592000D01*
X703380Y703550D02*
X718009D01*
X718459Y704000D01*
X719000D01*
X688000Y574380D02*
Y592000D01*
X691000Y595000D01*
X663000Y612500D02*
Y644500D01*
X660500Y647000D02*
Y678750D01*
Y647000D02*
X663000Y644500D01*
Y612500D02*
X663000Y612500D01*
Y594500D02*
Y612500D01*
X658000Y589500D02*
X663000Y594500D01*
X658000Y574380D02*
Y589500D01*
X565500Y684500D02*
X620500D01*
X625500Y679500D01*
Y635500D02*
Y679500D01*
X603550Y651000D02*
X631500Y623050D01*
X596000Y651000D02*
X603550D01*
X631500Y588500D02*
Y623050D01*
X628000Y574380D02*
Y620000D01*
X619000Y629000D02*
X628000Y620000D01*
X586000Y629000D02*
X619000D01*
X575000Y640000D02*
X586000Y629000D01*
X575000Y640000D02*
Y672000D01*
X648000Y594500D02*
X652000Y598500D01*
X555500Y674500D02*
X565500Y684500D01*
X555500Y650250D02*
Y672500D01*
X555000Y673000D02*
X555500Y672500D01*
X595500Y652500D02*
Y674500D01*
X595000Y652000D02*
X595500Y652500D01*
X631500Y588500D02*
X637500Y582500D01*
X647250Y650250D02*
X658000Y639500D01*
X635500Y650250D02*
X647250D01*
X635500Y652000D02*
Y674500D01*
Y650250D02*
Y652000D01*
X683000Y574380D02*
Y601250D01*
X683000Y601250D01*
X648000Y574380D02*
Y594500D01*
X658000Y597000D02*
Y639500D01*
X653000Y574380D02*
Y592000D01*
X658000Y597000D01*
X663000Y574380D02*
Y587000D01*
X668500Y592500D01*
X668000Y574380D02*
Y584500D01*
X673000Y589500D01*
X637500Y574880D02*
X638000Y574380D01*
X637500Y574880D02*
Y582500D01*
X502500Y527000D02*
X505000Y524500D01*
X496500Y527000D02*
X502500D01*
X505000Y524500D02*
X528120D01*
X496250Y527000D02*
X497578Y525672D01*
X496578Y451672D02*
X504828D01*
X507000Y449500D02*
X528120D01*
X504828Y451672D02*
X507000Y449500D01*
X496250Y452000D02*
X496578Y451672D01*
X509500Y478000D02*
X513000Y474500D01*
X496250Y478000D02*
X509500D01*
X513000Y474500D02*
X528120D01*
X321000Y472000D02*
X343000D01*
X384250Y430750D01*
X298300Y494700D02*
X321000Y472000D01*
X287200Y494700D02*
X298300D01*
X384250Y430750D02*
X395500D01*
X395422Y424328D02*
X395500Y424250D01*
X384672Y424328D02*
X395422D01*
X341800Y467200D02*
X384672Y424328D01*
X317850Y467200D02*
X341800D01*
X341000Y462000D02*
X372000Y431000D01*
Y412000D02*
X379000Y405000D01*
X372000Y412000D02*
Y431000D01*
X379000Y405000D02*
X396000D01*
X295300Y478700D02*
X312000Y462000D01*
X341000D01*
X367000Y408000D02*
X376750Y398250D01*
X395500D01*
X367000Y408000D02*
Y430000D01*
X340000Y457000D02*
X367000Y430000D01*
X303000Y457000D02*
X340000D01*
X296300Y463700D02*
X303000Y457000D01*
X287200Y455700D02*
X296300D01*
X300000Y452000D02*
X338834D01*
X296300Y455700D02*
X300000Y452000D01*
X338834D02*
X362500Y428334D01*
X287200Y463700D02*
X296300D01*
X362500Y396500D02*
Y428334D01*
X380000Y379000D02*
X395000D01*
X362500Y396500D02*
X380000Y379000D01*
X357500Y395000D02*
Y425000D01*
Y395000D02*
X380250Y372250D01*
X395500D01*
X340000Y442500D02*
X357500Y425000D01*
X337938Y443750D02*
X339594Y442094D01*
X324500Y443750D02*
X337938D01*
X725500Y552000D02*
X726312D01*
X728812Y549500D01*
X742880D01*
X692500Y463000D02*
Y519000D01*
X718500Y480000D02*
X719500Y479000D01*
X708500Y526000D02*
X709000Y526500D01*
X728000D02*
X728500Y526000D01*
X742630Y519750D02*
X742880Y519500D01*
X726500Y539000D02*
X726750Y539250D01*
X742630D01*
X742880Y539500D01*
X729778Y399500D02*
X742880D01*
X705500Y410000D02*
X718500Y423000D01*
X718688D01*
X719688Y424000D01*
X720500D01*
X681500Y408000D02*
X695000Y394500D01*
X681500Y408000D02*
Y421000D01*
X598000Y359620D02*
X598186Y359434D01*
X314000Y613000D02*
X314574Y612426D01*
X280700Y641700D02*
X287200D01*
X279000Y640000D02*
X280700Y641700D01*
X279000Y628000D02*
Y640000D01*
Y628000D02*
X281000Y626000D01*
X306000D01*
X309000Y623000D01*
X352000D01*
X380000Y595000D01*
X287200Y618700D02*
X349300D01*
X287200Y269700D02*
X296075D01*
X287200Y245700D02*
X294700D01*
X307750Y258750D01*
X235325Y282675D02*
X264000Y254000D01*
X213000Y282675D02*
X235325D01*
X239025Y269975D02*
X263000Y246000D01*
X213000Y269975D02*
X239025D01*
X263000Y270000D02*
X269900D01*
X237625Y295375D02*
X263000Y270000D01*
X287200Y253700D02*
X296700D01*
X300071Y257000D02*
X303000Y259929D01*
X300000Y257000D02*
X300071D01*
X296700Y253700D02*
X300000Y257000D01*
X264000Y254000D02*
X269900D01*
X270200Y253700D01*
X263000Y246000D02*
X269900D01*
X270200Y245700D01*
X269900Y270000D02*
X270200Y269700D01*
X310250Y278250D02*
X324500D01*
X304000Y272000D02*
X310250Y278250D01*
X304000Y261000D02*
Y272000D01*
X303000Y260000D02*
X304000Y261000D01*
X303000Y259929D02*
Y260000D01*
X213000Y295375D02*
X237625D01*
X307750Y258750D02*
X324500D01*
X311125Y284750D02*
X324500D01*
X296075Y269700D02*
X311125Y284750D01*
X356000Y276000D02*
Y314000D01*
X380000Y252000D02*
X394000D01*
X356000Y276000D02*
X380000Y252000D01*
X346505Y323495D02*
X356000Y314000D01*
X361000Y278000D02*
X380000Y259000D01*
X341505Y323495D02*
X346505D01*
X380000Y259000D02*
X394000D01*
X342300Y347700D02*
X366000Y324000D01*
Y291000D02*
X378750Y278250D01*
X366000Y291000D02*
Y324000D01*
X342000Y356000D02*
X371000Y327000D01*
Y291819D02*
X378069Y284750D01*
X371000Y291819D02*
Y327000D01*
X345000Y360000D02*
X376000Y329000D01*
Y313000D02*
X384672Y304328D01*
X376000Y313000D02*
Y329000D01*
X395422Y304328D02*
X395500Y304250D01*
X384672Y304328D02*
X395422D01*
X348500Y364000D02*
X381000Y331500D01*
Y314000D02*
Y331500D01*
Y314000D02*
X384250Y310750D01*
X395500D01*
X378750Y278250D02*
X395500D01*
X315000Y585000D02*
X343000D01*
X294700Y564700D02*
X315000Y585000D01*
X287200Y564700D02*
X294700D01*
X343000Y585000D02*
X365500Y562500D01*
X313000Y590000D02*
X345000D01*
X295700Y572700D02*
X313000Y590000D01*
X287200Y572700D02*
X295700D01*
X345000Y590000D02*
X369000Y566000D01*
X287200Y580700D02*
X294700D01*
X303000Y589000D01*
X287200Y594700D02*
X346300D01*
X373000Y568000D01*
X287200Y602700D02*
X344300D01*
X377000Y570000D01*
X346000Y607000D02*
X381000Y572000D01*
X306800Y610700D02*
X310500Y607000D01*
X346000D01*
X339250Y323750D02*
X340000Y323000D01*
X324500Y323750D02*
X339250D01*
X341000Y324000D02*
X341505Y323495D01*
X287200Y347700D02*
X342300D01*
X304000Y356000D02*
X342000D01*
X298300Y361700D02*
X304000Y356000D01*
X287200Y361700D02*
X298300D01*
X303000Y370000D02*
X309000Y364000D01*
X303000Y370000D02*
Y377000D01*
X309000Y364000D02*
X348500D01*
X294300Y385700D02*
X303000Y377000D01*
X296350Y369700D02*
X306050Y360000D01*
X345000D01*
X298430Y308700D02*
X300480Y310750D01*
X324500D01*
X287200Y308700D02*
X298430D01*
X378069Y284750D02*
X395500D01*
X310000Y304250D02*
X324500D01*
X298450Y292700D02*
X310000Y304250D01*
X287200Y292700D02*
X298450D01*
X287200Y369700D02*
X296350D01*
X287200Y385700D02*
X294300D01*
X308825Y398250D02*
X324500D01*
X311250Y430750D02*
X324500D01*
X324050Y424700D02*
X324500Y424250D01*
X310250Y378750D02*
X324500D01*
X323988Y405261D02*
X324500Y404750D01*
X312500Y405261D02*
X323988D01*
X301061Y416700D02*
X312500Y405261D01*
X287200Y416700D02*
X301061D01*
X287200Y416700D02*
X287200Y416700D01*
X298350Y486700D02*
X317850Y467200D01*
X287200Y486700D02*
X298350D01*
X304585Y384415D02*
X310250Y378750D01*
X304585Y384415D02*
Y392785D01*
X296670Y400700D02*
X304585Y392785D01*
X287200Y400700D02*
X296670D01*
X287200Y424700D02*
X324050D01*
X294300Y447700D02*
X311250Y430750D01*
X287200Y447700D02*
X294300D01*
X298375Y408700D02*
X308825Y398250D01*
X287200Y408700D02*
X298375D01*
X297426Y432426D02*
X298000Y433000D01*
X264000Y432000D02*
X295328D01*
X295754Y432426D02*
X297426D01*
X295328Y432000D02*
X295754Y432426D01*
X287200Y478700D02*
X295300D01*
X351111Y482111D02*
X354889D01*
X351000Y482000D02*
X351111Y482111D01*
X354889D02*
X368000Y469000D01*
X386000D01*
X248363Y447637D02*
X264000Y432000D01*
X213137Y447637D02*
X248363D01*
X373000Y513000D02*
Y541000D01*
Y513000D02*
X383000Y503000D01*
X369000Y510172D02*
X380000Y499172D01*
X369000Y510172D02*
Y539000D01*
X351000Y557000D02*
Y568000D01*
Y557000D02*
X369000Y539000D01*
X287200Y502700D02*
X324450D01*
X381000Y532000D02*
X384250Y528750D01*
X373000Y553000D02*
X381000Y545000D01*
Y532000D02*
Y545000D01*
X328307Y568000D02*
X351000D01*
X308186Y528750D02*
X324500D01*
X287200Y525700D02*
X305136D01*
X308186Y528750D01*
X377000Y555000D02*
X383750Y548250D01*
X377000Y555000D02*
Y570000D01*
X383000Y503000D02*
X393000D01*
X381000Y557000D02*
Y572000D01*
X382672Y496250D02*
X395500D01*
X380000Y498922D02*
X382672Y496250D01*
X369000Y551000D02*
X377000Y543000D01*
X365500Y548500D02*
X373000Y541000D01*
X380000Y498922D02*
Y499172D01*
X365500Y548500D02*
Y562500D01*
X369000Y551000D02*
Y566000D01*
X305950Y548950D02*
X323800D01*
X298700Y541700D02*
X305950Y548950D01*
X306500Y522250D02*
X324500D01*
X287200Y517700D02*
X301950D01*
X306500Y522250D01*
X373000Y553000D02*
Y568000D01*
X287200Y610700D02*
X306800D01*
X305250Y554750D02*
X324500D01*
X287200Y556700D02*
X303300D01*
X305250Y554750D01*
X324450Y502700D02*
X324500Y502750D01*
X384250Y528750D02*
X395500D01*
X383750Y548250D02*
X395500D01*
X381000Y557000D02*
X383250Y554750D01*
X395500D01*
X377000Y530000D02*
Y543000D01*
Y530000D02*
X384672Y522328D01*
X395422D01*
X395500Y522250D01*
X323800Y548950D02*
X324500Y548250D01*
X287200Y541700D02*
X298700D01*
X324500Y700750D02*
X339250D01*
X295700Y633700D02*
X301500Y639500D01*
X308278D01*
X312028Y635750D01*
X324500D01*
X287200Y633700D02*
X295700D01*
X293838Y649700D02*
X305888Y661750D01*
X324500D01*
X287200Y649700D02*
X293838D01*
X307179Y681250D02*
X324500D01*
X298629Y672700D02*
X307179Y681250D01*
X287200Y672700D02*
X298629D01*
X259300Y385700D02*
X273266D01*
X241675Y403325D02*
X259300Y385700D01*
X213000Y403325D02*
X241675D01*
X263300Y416700D02*
X270200D01*
X213000Y435075D02*
X244925D01*
X263300Y416700D01*
X213000Y447775D02*
X213137Y447637D01*
X300700Y533700D02*
X301000Y534000D01*
X287200Y533700D02*
X300700D01*
X263300Y292700D02*
X270200D01*
X247925Y308075D02*
X263300Y292700D01*
X213000Y308075D02*
X247925D01*
X263300Y308700D02*
X270200D01*
X251225Y320775D02*
X263300Y308700D01*
X213000Y320775D02*
X251225D01*
X259525Y333475D02*
X261300Y331700D01*
X270200D01*
X213000Y333475D02*
X259525D01*
X269500Y347000D02*
X270200Y347700D01*
X263000Y347000D02*
X269500D01*
X251125Y358875D02*
X263000Y347000D01*
X213000Y358875D02*
X251125D01*
X269900Y362000D02*
X270200Y361700D01*
X262000Y362000D02*
X269900D01*
X246075Y377925D02*
X262000Y362000D01*
X213000Y377925D02*
X246075D01*
X263300Y369700D02*
X270200D01*
X242375Y390625D02*
X263300Y369700D01*
X213000Y390625D02*
X242375D01*
X269900Y456000D02*
X270200Y455700D01*
X264000Y456000D02*
X269900D01*
X257000Y463000D02*
X264000Y456000D01*
X257000Y463000D02*
Y473000D01*
X244125Y485875D02*
X257000Y473000D01*
X213000Y485875D02*
X244125D01*
X264300Y478700D02*
X270200D01*
X244425Y498575D02*
X264300Y478700D01*
X213000Y498575D02*
X244425D01*
X213000Y543025D02*
X254975D01*
X264300Y533700D02*
X270200D01*
X254975Y543025D02*
X264300Y533700D01*
X247877Y555725D02*
X261725D01*
X213000D02*
X247877D01*
X269900Y557000D02*
X270200Y556700D01*
X263000Y557000D02*
X269900D01*
X261725Y555725D02*
X263000Y557000D01*
X269775Y581125D02*
X270200Y580700D01*
X213000Y581125D02*
X269775D01*
X269900Y603000D02*
X270200Y602700D01*
X244000Y603000D02*
X269900D01*
X234825Y593825D02*
X244000Y603000D01*
X213000Y593825D02*
X234825D01*
X269900Y619000D02*
X270200Y618700D01*
X246000Y619000D02*
X269900D01*
X233525Y606525D02*
X246000Y619000D01*
X213000Y606525D02*
X233525D01*
X269900Y642000D02*
X270200Y641700D01*
X255000Y642000D02*
X269900D01*
X232225Y619225D02*
X255000Y642000D01*
X213000Y619225D02*
X232225D01*
D14*
X350000Y298000D02*
Y307000D01*
X339750Y317250D02*
X350000Y307000D01*
X324500Y317250D02*
X339750D01*
X357000Y499500D02*
Y518000D01*
X374500Y482000D02*
X454000D01*
X357000Y499500D02*
X374500Y482000D01*
X395500Y509250D02*
X409250D01*
X412000Y512000D02*
X463000D01*
X409250Y509250D02*
X412000Y512000D01*
X463000D02*
X466000Y515000D01*
X699000Y406000D02*
Y410500D01*
X718000Y429500D01*
X695000Y426000D02*
Y426500D01*
X728000Y459500D01*
X687000Y412000D02*
X694843D01*
X717343Y434500D01*
X688000Y359620D02*
Y375053D01*
X689000Y376053D01*
Y377000D01*
X678000Y359620D02*
Y377000D01*
X673000Y382000D02*
X678000Y377000D01*
X661000Y387000D02*
X673000Y375000D01*
X657000Y387000D02*
X661000D01*
X673000Y359620D02*
Y375000D01*
X779000Y413000D02*
X779879D01*
X784675Y414750D02*
X791925Y422000D01*
X781629Y414750D02*
X784675D01*
X779879Y413000D02*
X781629Y414750D01*
X791925Y422000D02*
X829000D01*
X855500Y425500D02*
Y524620D01*
X852000Y422000D02*
X855500Y425500D01*
X537500Y439500D02*
X540000Y442000D01*
X507000Y439500D02*
X537500D01*
X422390Y317250D02*
X428140Y323000D01*
X484671D02*
X536671Y375000D01*
X428140Y323000D02*
X484671D01*
X487500Y319000D02*
X549500Y381000D01*
X410750Y297750D02*
X432000Y319000D01*
X487500D01*
X434000Y315000D02*
X489500D01*
X551500Y377000D01*
X410250Y291250D02*
X434000Y315000D01*
X417750Y271750D02*
X457000Y311000D01*
X491000D02*
X538426Y358426D01*
X457000Y311000D02*
X491000D01*
X417250Y265250D02*
X459000Y307000D01*
X493000D02*
X537611Y351611D01*
X459000Y307000D02*
X493000D01*
X395500Y271750D02*
X417750D01*
X395500Y265250D02*
X417250D01*
X370000Y247000D02*
X412000D01*
X461000Y296000D01*
X415000Y243000D02*
X468000Y296000D01*
X362000Y243000D02*
X415000D01*
X352500Y390500D02*
Y422500D01*
X378000Y365000D02*
X408000D01*
X352500Y390500D02*
X378000Y365000D01*
X324500Y391750D02*
X339250D01*
X374000Y357000D02*
X412000D01*
X339250Y391750D02*
X374000Y357000D01*
X324500Y385250D02*
X339750D01*
X372000Y353000D01*
X414000D01*
X435000Y374000D01*
X433000Y378000D02*
X506000D01*
X412000Y357000D02*
X433000Y378000D01*
X435000Y374000D02*
X508000D01*
X513500Y379500D01*
X506000Y378000D02*
X512500Y384500D01*
X431000Y382000D02*
X504000D01*
X516500Y394500D02*
X528120D01*
X504000Y382000D02*
X516500Y394500D01*
X410000Y361000D02*
X431000Y382000D01*
X376000Y361000D02*
X410000D01*
X347500Y389500D02*
X376000Y361000D01*
X408000Y365000D02*
X429000Y386000D01*
X502950D01*
X516450Y399500D01*
X395500Y411250D02*
X410750D01*
X411000Y411000D01*
X407750Y391750D02*
X413000Y397000D01*
X395500Y391750D02*
X407750D01*
X396121Y385871D02*
X408871D01*
X415000Y392000D02*
X488000D01*
X408871Y385871D02*
X415000Y392000D01*
X413000Y397000D02*
X509000D01*
X395500Y385250D02*
X396121Y385871D01*
X509000Y397000D02*
X516500Y404500D01*
X415250Y417750D02*
X432000Y401000D01*
X508000D02*
X516500Y409500D01*
X432000Y401000D02*
X508000D01*
X425165Y437250D02*
X457416Y405000D01*
X507000D01*
X516500Y414500D01*
X472222Y409000D02*
X506000D01*
X469722Y411500D02*
X472222Y409000D01*
X506000D02*
X516500Y419500D01*
X414000Y555000D02*
X507500D01*
X518000Y544500D01*
X406750Y541750D02*
X412000Y547000D01*
Y547000D01*
X613000Y359620D02*
Y377328D01*
X611000Y379328D02*
X613000Y377328D01*
X611000Y379328D02*
Y380000D01*
X603000D02*
X608000Y375000D01*
Y359620D02*
Y375000D01*
X324500Y642250D02*
X338750D01*
X381000Y600000D02*
X514000D01*
X338750Y642250D02*
X381000Y600000D01*
X362000Y625000D02*
Y649514D01*
X343264Y668250D02*
X362000Y649514D01*
Y625000D02*
X382000Y605000D01*
X367000Y626000D02*
Y656000D01*
X348250Y674750D02*
X367000Y656000D01*
Y626000D02*
X373000Y620000D01*
X336500Y694250D02*
X373000Y657750D01*
Y627000D02*
X385000Y615000D01*
X373000Y627000D02*
Y657750D01*
X560500Y519500D02*
X568000Y527000D01*
X666000D02*
X681000Y512000D01*
X568000Y527000D02*
X666000D01*
X587000Y546000D02*
X664000D01*
X595000Y551000D02*
X661688D01*
X673000Y562312D01*
X664000Y546000D02*
X678250Y560250D01*
X575000Y541000D02*
X667030D01*
X692000Y565970D01*
Y567505D01*
X692500Y568005D02*
Y573880D01*
X692000Y567505D02*
X692500Y568005D01*
Y573880D02*
X693000Y574380D01*
X678250Y560250D02*
Y574130D01*
X673000Y562312D02*
Y574380D01*
X385000Y615000D02*
X509000D01*
X517000Y623000D02*
X547000D01*
X509000Y615000D02*
X517000Y623000D01*
X547000D02*
X567000Y603000D01*
X520000Y619000D02*
X545000D01*
X562000Y602000D01*
X511000Y610000D02*
X520000Y619000D01*
X523000Y615000D02*
X543000D01*
X513000Y605000D02*
X523000Y615000D01*
X543000D02*
X557000Y601000D01*
X514000Y600000D02*
X525000Y611000D01*
X541135D02*
X552000Y600135D01*
X525000Y611000D02*
X541135D01*
X557000Y596000D02*
Y601000D01*
Y596000D02*
X568000Y585000D01*
Y574380D02*
Y585000D01*
X562000Y597000D02*
Y602000D01*
X573000Y574380D02*
Y586000D01*
X562000Y597000D02*
X573000Y586000D01*
Y574380D02*
X573000Y574380D01*
X563000D02*
Y584071D01*
X552000Y595071D02*
X563000Y584071D01*
X552000Y595071D02*
Y600135D01*
X567000Y598000D02*
X578000Y587000D01*
X567000Y598000D02*
Y603000D01*
X382000Y605000D02*
X513000D01*
X383000Y610000D02*
X511000D01*
X578000Y574380D02*
Y587000D01*
X395500Y291250D02*
X410250D01*
X324500D02*
X341750D01*
X342000Y291000D01*
X342750Y297750D02*
X343000Y298000D01*
X324500Y297750D02*
X342750D01*
X537611Y351611D02*
X540611D01*
X541000Y352000D01*
X538426Y358426D02*
X540926D01*
X541500Y359000D01*
X549500Y381000D02*
X561500D01*
X395500Y317250D02*
X422390D01*
X513500Y379500D02*
X528120D01*
X512500Y384500D02*
X528120D01*
X516450Y399500D02*
X528120D01*
X516500Y404500D02*
X528120D01*
X516500Y409500D02*
X528120D01*
X516500Y414500D02*
X528120D01*
X516500Y419500D02*
X528120D01*
X477000Y478000D02*
X484750D01*
X484000Y452000D02*
X485000Y453000D01*
X484000Y452000D02*
X484750D01*
X477000D02*
X484000D01*
X473000Y456000D02*
Y474000D01*
X477000Y478000D01*
X473000Y456000D02*
X477000Y452000D01*
X485000Y453000D02*
Y460000D01*
X415328Y490000D02*
X417328Y492000D01*
X418000D01*
X380929Y490000D02*
X415328D01*
X421000Y468000D02*
X447000Y442000D01*
X504500D01*
X416000Y473000D02*
X442000D01*
X406722Y474500D02*
X469722Y411500D01*
X370550Y474500D02*
X406722D01*
X395500Y417750D02*
X415250D01*
X469000Y446000D02*
X505500D01*
X442000Y473000D02*
X469000Y446000D01*
X395500Y437250D02*
X425165D01*
X469722Y411500D02*
X469722D01*
X373000Y620000D02*
X383000Y610000D01*
X407750Y561250D02*
X414000Y555000D01*
X477000Y535000D02*
X500000D01*
X468800Y543200D02*
X477000Y535000D01*
X416000Y543000D02*
X469000D01*
X459750Y515750D02*
X463500Y519500D01*
X528120D01*
X395500Y515750D02*
X459750D01*
X466000Y515000D02*
X468500D01*
X469000D02*
X511500D01*
X468500D02*
X469000D01*
X527643Y494357D02*
X528000Y494000D01*
X459357Y494357D02*
X527643D01*
X377000Y486000D02*
X451000D01*
X459357Y494357D01*
X461500Y489500D02*
X528120D01*
X454000Y482000D02*
X461500Y489500D01*
X456000Y478000D02*
X462500Y484500D01*
X528120D01*
X372000Y478000D02*
X456000D01*
X677500Y423000D02*
X713500Y459000D01*
X716000Y439500D02*
X742880D01*
X695889Y419389D02*
X716000Y439500D01*
X717343Y434500D02*
X742880D01*
X718000Y429500D02*
X742880D01*
X713500Y459000D02*
Y475000D01*
X694000Y389500D02*
X742880D01*
X504500Y442000D02*
X507000Y439500D01*
X339750Y561250D02*
X365000Y536000D01*
X372000Y498929D02*
Y499000D01*
Y498929D02*
X380929Y490000D01*
X365000Y506000D02*
X372000Y499000D01*
X365000Y506000D02*
Y536000D01*
X324500Y561250D02*
X339750D01*
X347500Y389500D02*
Y412500D01*
X342250Y417750D02*
X347500Y412500D01*
X324500Y417750D02*
X342250D01*
X337750Y437250D02*
X352500Y422500D01*
X324500Y437250D02*
X337750D01*
X346000Y499050D02*
X370550Y474500D01*
X346000Y499050D02*
Y509071D01*
X339321Y515750D02*
X346000Y509071D01*
X324500Y515750D02*
X339321D01*
X680500Y384328D02*
X683000Y381828D01*
Y359620D02*
Y381828D01*
X680500Y384328D02*
Y384500D01*
X507000Y444500D02*
X528120D01*
X505500Y446000D02*
X507000Y444500D01*
X324500Y411250D02*
X340438D01*
X341688Y410000D02*
X342500D01*
X340438Y411250D02*
X341688Y410000D01*
X728000Y459500D02*
X742880D01*
X678000Y574380D02*
X678250Y574130D01*
X518000Y544500D02*
X532439D01*
X505500Y529500D02*
X528120D01*
X500000Y535000D02*
X505500Y529500D01*
X568000Y359620D02*
Y374500D01*
X563000Y359620D02*
Y372500D01*
X561500Y381000D02*
X568000Y374500D01*
X551500Y377000D02*
X558500D01*
X563000Y372500D01*
X727000Y404500D02*
X742880D01*
X698000Y359620D02*
Y382500D01*
X677500Y406000D02*
X694000Y389500D01*
X697500Y383000D02*
X698000Y382500D01*
X711500Y405000D02*
X711503D01*
X716003Y409500D01*
X726500Y404000D02*
X727000Y404500D01*
X716003Y409500D02*
X742880D01*
X677500Y406000D02*
Y423000D01*
X692500Y419000D02*
X692889Y419389D01*
X695889D01*
X511500Y515000D02*
X517000Y509500D01*
X528120D01*
X395500Y297750D02*
X410750D01*
X536671Y375000D02*
X536738D01*
X547738Y386000D01*
X572500D01*
X583000Y375500D01*
Y359620D02*
Y375500D01*
X408250Y535250D02*
X416000Y543000D01*
X395500Y535250D02*
X408250D01*
X395500Y561250D02*
X407750D01*
X339750Y535250D02*
X357000Y518000D01*
X324500Y535250D02*
X339750D01*
X324500Y668250D02*
X343264D01*
X324500Y674750D02*
X348250D01*
X345250Y271750D02*
X370000Y247000D01*
X324500Y271750D02*
X345250D01*
X361000Y502000D02*
X377000Y486000D01*
X361000Y502000D02*
Y521000D01*
X340000Y542000D02*
X361000Y521000D01*
X327000Y542000D02*
X340000D01*
X351000Y499000D02*
Y509000D01*
Y499000D02*
X372000Y478000D01*
X339750Y265250D02*
X362000Y243000D01*
X324500Y265250D02*
X339750D01*
X324500Y694250D02*
X336500D01*
X287200Y261700D02*
X297700D01*
X298000Y262000D01*
X235975Y289025D02*
X263300Y261700D01*
X287200D02*
X287200Y261700D01*
X263300Y261700D02*
X270200D01*
X213000Y289025D02*
X235975D01*
X257300Y447700D02*
X270200D01*
X250875Y454125D02*
X257300Y447700D01*
X213000Y454125D02*
X250875D01*
X395500Y541750D02*
X406750D01*
X324500Y509250D02*
X338750D01*
X339000Y509000D01*
X296888Y657700D02*
X301000Y661812D01*
Y668000D01*
X287200Y657700D02*
X296888D01*
X287200Y680700D02*
X296700D01*
X297000Y681000D01*
X287200Y680700D02*
X287200Y680700D01*
X298700Y339700D02*
X299000Y340000D01*
X287200Y339700D02*
X298700D01*
X298700Y323700D02*
X299000Y324000D01*
X287200Y323700D02*
X298700D01*
X287200Y300700D02*
X298700D01*
X287200Y300700D02*
X287200Y300700D01*
X287200Y284700D02*
X298700D01*
X287200Y284700D02*
X287200Y284700D01*
X287200Y696700D02*
X298700D01*
X287200Y696700D02*
X287200Y696700D01*
X213000Y416025D02*
X241950D01*
X257275Y400700D02*
X270200D01*
X241950Y416025D02*
X257275Y400700D01*
X213000Y428725D02*
X243775D01*
X263800Y408700D02*
X270200D01*
X243775Y428725D02*
X263800Y408700D01*
X246075Y441425D02*
X262800Y424700D01*
X213000Y441425D02*
X246075D01*
X262800Y424700D02*
X270200D01*
X269900Y285000D02*
X270200Y284700D01*
X263000Y285000D02*
X269900D01*
X246275Y301725D02*
X263000Y285000D01*
X213000Y301725D02*
X246275D01*
X263300Y300700D02*
X270200D01*
X249575Y314425D02*
X263300Y300700D01*
X213000Y314425D02*
X249575D01*
X263300Y323700D02*
X270200D01*
X259875Y327125D02*
X263300Y323700D01*
X213000Y327125D02*
X259875D01*
X270075Y339825D02*
X270200Y339700D01*
X213000Y339825D02*
X270075D01*
X264300Y463700D02*
X270200D01*
X261000Y467000D02*
X264300Y463700D01*
X261000Y467000D02*
Y475000D01*
X243775Y492225D02*
X261000Y475000D01*
X213000Y492225D02*
X243775D01*
X245075Y504925D02*
X263300Y486700D01*
X270200D01*
X213000Y504925D02*
X245075D01*
X269900Y495000D02*
X270200Y494700D01*
X264000Y495000D02*
X269900D01*
X241375Y517625D02*
X264000Y495000D01*
X213000Y517625D02*
X241375D01*
X264300Y502700D02*
X270200D01*
X243025Y523975D02*
X264300Y502700D01*
X213000Y523975D02*
X243025D01*
X264300Y517700D02*
X270200D01*
X251675Y530325D02*
X264300Y517700D01*
X213000Y530325D02*
X251675D01*
X213000Y536675D02*
X253325D01*
X264000Y526000D02*
X269900D01*
X253325Y536675D02*
X264000Y526000D01*
X213000Y549375D02*
X256625D01*
X264000Y542000D02*
X269900D01*
X256625Y549375D02*
X264000Y542000D01*
X269900Y526000D02*
X270200Y525700D01*
X269900Y542000D02*
X270200Y541700D01*
X260075Y562075D02*
X263000Y565000D01*
X269900D01*
X213000Y562075D02*
X260075D01*
X269900Y565000D02*
X270200Y564700D01*
X213000Y574775D02*
X213225Y575000D01*
X261000D01*
X263300Y572700D01*
X270200D01*
X213000Y587475D02*
X235475D01*
X242700Y594700D01*
X270200D01*
X269900Y611000D02*
X270200Y610700D01*
X245000Y611000D02*
X269900D01*
X234175Y600175D02*
X245000Y611000D01*
X213000Y600175D02*
X234175D01*
X269900Y634000D02*
X270200Y633700D01*
X254000Y634000D02*
X269900D01*
X232875Y612875D02*
X254000Y634000D01*
X213000Y612875D02*
X232875D01*
X255700Y649700D02*
X270200D01*
X231575Y625575D02*
X255700Y649700D01*
X213000Y625575D02*
X231575D01*
X269900Y658000D02*
X270200Y657700D01*
X256000Y658000D02*
X269900D01*
X229925Y631925D02*
X256000Y658000D01*
X213000Y631925D02*
X229925D01*
X228417Y638275D02*
X262842Y672700D01*
X213000Y638275D02*
X228417D01*
X263771Y680700D02*
X270200D01*
X227625Y644625D02*
X228975Y645975D01*
X229046D01*
X263771Y680700D01*
X213000Y644625D02*
X227625D01*
X262842Y672700D02*
X270200D01*
X213000Y650975D02*
X226975D01*
X264700Y688700D01*
X270200D01*
X264375Y696700D02*
X270200D01*
X225000Y657325D02*
X264375Y696700D01*
X213000Y657325D02*
X225000D01*
D17*
X635500Y467000D02*
D03*
D18*
X723000Y574380D02*
D03*
X718000D02*
D03*
X713000D02*
D03*
X708000D02*
D03*
X703000D02*
D03*
X698000D02*
D03*
X693000D02*
D03*
X683000D02*
D03*
X678000D02*
D03*
X673000D02*
D03*
X653000D02*
D03*
X648000D02*
D03*
X643000D02*
D03*
X688000D02*
D03*
X633000D02*
D03*
X638000D02*
D03*
X623000D02*
D03*
X628000D02*
D03*
X618000D02*
D03*
X613000D02*
D03*
X608000D02*
D03*
X668000D02*
D03*
X663000D02*
D03*
X658000D02*
D03*
X603000D02*
D03*
X598000D02*
D03*
X593000D02*
D03*
X588000D02*
D03*
X583000D02*
D03*
X578000D02*
D03*
X573000D02*
D03*
X568000D02*
D03*
X563000D02*
D03*
X558000D02*
D03*
X553000D02*
D03*
X548000D02*
D03*
X723000Y359620D02*
D03*
X718000D02*
D03*
X713000D02*
D03*
X708000D02*
D03*
X703000D02*
D03*
X698000D02*
D03*
X693000D02*
D03*
X688000D02*
D03*
X683000D02*
D03*
X678000D02*
D03*
X673000D02*
D03*
X668000D02*
D03*
X663000D02*
D03*
X658000D02*
D03*
X653000D02*
D03*
X648000D02*
D03*
X638000D02*
D03*
X643000D02*
D03*
X633000D02*
D03*
X628000D02*
D03*
X623000D02*
D03*
X618000D02*
D03*
X613000D02*
D03*
X608000D02*
D03*
X603000D02*
D03*
X598000D02*
D03*
X593000D02*
D03*
X588000D02*
D03*
X583000D02*
D03*
X578000D02*
D03*
X573000D02*
D03*
X568000D02*
D03*
X563000D02*
D03*
X558000D02*
D03*
X553000D02*
D03*
X548000D02*
D03*
X885500Y524620D02*
D03*
X880500D02*
D03*
X875500D02*
D03*
X870500D02*
D03*
X865500D02*
D03*
X860500D02*
D03*
X855500D02*
D03*
X850500D02*
D03*
X845500D02*
D03*
X840500D02*
D03*
X835500D02*
D03*
X830500D02*
D03*
X825500D02*
D03*
X820500D02*
D03*
X815500D02*
D03*
X810500D02*
D03*
Y639380D02*
D03*
X815500D02*
D03*
X820500D02*
D03*
X825500D02*
D03*
X830500D02*
D03*
X835500D02*
D03*
X840500D02*
D03*
X845500D02*
D03*
X850500D02*
D03*
X855500D02*
D03*
X860500D02*
D03*
X865500D02*
D03*
X870500D02*
D03*
X875500D02*
D03*
X880500D02*
D03*
X885500D02*
D03*
D19*
X528120Y379500D02*
D03*
Y384500D02*
D03*
Y389500D02*
D03*
Y394500D02*
D03*
Y399500D02*
D03*
Y404500D02*
D03*
Y409500D02*
D03*
Y414500D02*
D03*
Y419500D02*
D03*
Y424500D02*
D03*
Y429500D02*
D03*
Y434500D02*
D03*
Y439500D02*
D03*
Y444500D02*
D03*
Y449500D02*
D03*
Y454500D02*
D03*
Y459500D02*
D03*
Y464500D02*
D03*
Y469500D02*
D03*
Y474500D02*
D03*
Y479500D02*
D03*
Y484500D02*
D03*
Y489500D02*
D03*
Y494500D02*
D03*
Y499500D02*
D03*
Y504500D02*
D03*
Y509500D02*
D03*
Y514500D02*
D03*
Y519500D02*
D03*
Y524500D02*
D03*
Y529500D02*
D03*
Y534500D02*
D03*
Y539500D02*
D03*
Y544500D02*
D03*
Y549500D02*
D03*
Y554500D02*
D03*
X742880Y379500D02*
D03*
Y384500D02*
D03*
Y389500D02*
D03*
Y394500D02*
D03*
Y399500D02*
D03*
Y404500D02*
D03*
Y409500D02*
D03*
Y414500D02*
D03*
Y419500D02*
D03*
Y424500D02*
D03*
Y429500D02*
D03*
Y434500D02*
D03*
Y439500D02*
D03*
Y444500D02*
D03*
Y449500D02*
D03*
Y479500D02*
D03*
Y454500D02*
D03*
Y524500D02*
D03*
Y459500D02*
D03*
Y464500D02*
D03*
Y489500D02*
D03*
Y534500D02*
D03*
Y469500D02*
D03*
Y474500D02*
D03*
Y529500D02*
D03*
Y484500D02*
D03*
Y539500D02*
D03*
Y494500D02*
D03*
Y499500D02*
D03*
Y504500D02*
D03*
Y509500D02*
D03*
Y514500D02*
D03*
Y519500D02*
D03*
Y544500D02*
D03*
Y549500D02*
D03*
Y554500D02*
D03*
X790620Y599500D02*
D03*
Y589500D02*
D03*
Y594500D02*
D03*
Y604500D02*
D03*
X905380Y619500D02*
D03*
Y614500D02*
D03*
Y609500D02*
D03*
Y604500D02*
D03*
Y599500D02*
D03*
Y594500D02*
D03*
Y589500D02*
D03*
Y584500D02*
D03*
Y579500D02*
D03*
Y574500D02*
D03*
Y569500D02*
D03*
Y564500D02*
D03*
Y559500D02*
D03*
Y554500D02*
D03*
Y549500D02*
D03*
Y544500D02*
D03*
X790620D02*
D03*
Y549500D02*
D03*
Y554500D02*
D03*
Y559500D02*
D03*
Y564500D02*
D03*
Y569500D02*
D03*
Y574500D02*
D03*
Y579500D02*
D03*
Y584500D02*
D03*
Y609500D02*
D03*
Y614500D02*
D03*
Y619500D02*
D03*
D20*
X756000Y643750D02*
D03*
Y630250D02*
D03*
X877500Y246750D02*
D03*
Y233250D02*
D03*
X900000Y246750D02*
D03*
Y233250D02*
D03*
X720000Y249250D02*
D03*
Y235750D02*
D03*
X702500Y249250D02*
D03*
Y235750D02*
D03*
X642500Y299250D02*
D03*
Y285750D02*
D03*
X790000Y338250D02*
D03*
Y351750D02*
D03*
X765000Y238250D02*
D03*
Y251750D02*
D03*
X758000Y577250D02*
D03*
Y590750D02*
D03*
X734000Y630250D02*
D03*
Y643750D02*
D03*
X765000Y288750D02*
D03*
Y275250D02*
D03*
X742500Y289250D02*
D03*
Y275750D02*
D03*
X815000Y338250D02*
D03*
Y351750D02*
D03*
X920000Y255750D02*
D03*
Y269250D02*
D03*
Y306750D02*
D03*
Y293250D02*
D03*
X815000Y303250D02*
D03*
Y316750D02*
D03*
D21*
X821750Y415000D02*
D03*
X833250D02*
D03*
X873250D02*
D03*
X861750D02*
D03*
X873250Y400000D02*
D03*
X861750D02*
D03*
X821750D02*
D03*
X833250D02*
D03*
X764250Y470000D02*
D03*
X775750D02*
D03*
X460750Y235000D02*
D03*
X449250D02*
D03*
X927250Y650000D02*
D03*
X938750D02*
D03*
X484750Y478000D02*
D03*
X496250D02*
D03*
X484750Y452000D02*
D03*
X496250D02*
D03*
Y527000D02*
D03*
X484750D02*
D03*
D22*
X883500Y471550D02*
D03*
Y458850D02*
D03*
Y446150D02*
D03*
Y433450D02*
D03*
X811500D02*
D03*
Y446150D02*
D03*
Y458850D02*
D03*
Y471550D02*
D03*
D23*
X460000Y689400D02*
D03*
Y680600D02*
D03*
X929000Y389400D02*
D03*
Y380600D02*
D03*
X920000Y244400D02*
D03*
Y235600D02*
D03*
X861000Y242600D02*
D03*
Y251400D02*
D03*
X685000Y239600D02*
D03*
Y248400D02*
D03*
X736000Y246400D02*
D03*
Y237600D02*
D03*
X706000Y611400D02*
D03*
Y602600D02*
D03*
X574000Y611400D02*
D03*
Y602600D02*
D03*
X644000Y611400D02*
D03*
Y602600D02*
D03*
X794000Y690600D02*
D03*
Y699400D02*
D03*
X851000Y696400D02*
D03*
Y687600D02*
D03*
X866000Y697600D02*
D03*
Y706400D02*
D03*
X892000Y698000D02*
D03*
Y706800D02*
D03*
X882000Y499400D02*
D03*
Y490600D02*
D03*
X758000Y607600D02*
D03*
Y616400D02*
D03*
X775000Y636600D02*
D03*
Y645400D02*
D03*
X712000Y334400D02*
D03*
Y325600D02*
D03*
X565000Y334400D02*
D03*
Y325600D02*
D03*
X538000Y595600D02*
D03*
Y604400D02*
D03*
X722000Y602600D02*
D03*
Y611400D02*
D03*
X537500Y334400D02*
D03*
Y325600D02*
D03*
X738000Y602600D02*
D03*
Y611400D02*
D03*
X647500Y334400D02*
D03*
Y325600D02*
D03*
X587500Y334400D02*
D03*
Y325600D02*
D03*
X593000Y602600D02*
D03*
Y611400D02*
D03*
X689000Y334400D02*
D03*
Y325600D02*
D03*
X610000Y334400D02*
D03*
Y325600D02*
D03*
X777000Y690600D02*
D03*
Y699400D02*
D03*
X792000Y314400D02*
D03*
Y305600D02*
D03*
X770000Y607600D02*
D03*
Y616400D02*
D03*
X895000Y499400D02*
D03*
Y490600D02*
D03*
X789000Y636600D02*
D03*
Y645400D02*
D03*
X777000Y673400D02*
D03*
Y664600D02*
D03*
D24*
X477880Y274050D02*
D03*
Y261350D02*
D03*
Y248650D02*
D03*
Y235950D02*
D03*
X532120D02*
D03*
Y248650D02*
D03*
Y261350D02*
D03*
Y274050D02*
D03*
X703380Y703550D02*
D03*
Y690850D02*
D03*
Y678150D02*
D03*
Y665450D02*
D03*
X757620D02*
D03*
Y678150D02*
D03*
Y690850D02*
D03*
Y703550D02*
D03*
D25*
X490600Y544000D02*
D03*
X499400D02*
D03*
X774400Y420000D02*
D03*
X765600D02*
D03*
X775400Y523000D02*
D03*
X766600D02*
D03*
X773400Y562000D02*
D03*
X764600D02*
D03*
X789400Y446000D02*
D03*
X780600D02*
D03*
X765600Y380000D02*
D03*
X774400D02*
D03*
X499400Y567500D02*
D03*
X490600D02*
D03*
X768100Y487500D02*
D03*
X776900D02*
D03*
X490400Y417000D02*
D03*
X481600D02*
D03*
X495400Y468000D02*
D03*
X486600D02*
D03*
X494900Y507000D02*
D03*
X486100D02*
D03*
X766600Y505000D02*
D03*
X775400D02*
D03*
X765600Y400000D02*
D03*
X774400D02*
D03*
X490900Y435000D02*
D03*
X482100D02*
D03*
X773400Y544000D02*
D03*
X764600D02*
D03*
X903600Y650000D02*
D03*
X912400D02*
D03*
X407400Y341000D02*
D03*
X398600D02*
D03*
X405000Y459000D02*
D03*
X396200D02*
D03*
X423600Y568000D02*
D03*
X432400D02*
D03*
X418600Y701000D02*
D03*
X427400D02*
D03*
D26*
X910000Y329500D02*
D03*
Y352500D02*
D03*
Y375500D02*
D03*
D27*
X847000Y352500D02*
D03*
D28*
X792000Y278250D02*
D03*
Y289750D02*
D03*
X610000Y236750D02*
D03*
Y248250D02*
D03*
X794000Y663250D02*
D03*
Y674750D02*
D03*
X630000Y324250D02*
D03*
Y335750D02*
D03*
X620500Y612750D02*
D03*
Y601250D02*
D03*
X660500Y690250D02*
D03*
Y678750D02*
D03*
X635500Y650250D02*
D03*
Y638750D02*
D03*
X595500Y650250D02*
D03*
Y638750D02*
D03*
X555500D02*
D03*
Y650250D02*
D03*
X683000Y612750D02*
D03*
Y601250D02*
D03*
X525000Y690750D02*
D03*
Y679250D02*
D03*
D29*
X897750Y277500D02*
D03*
X867250D02*
D03*
X687250Y280000D02*
D03*
X717750D02*
D03*
D30*
X806000Y269500D02*
D03*
Y261500D02*
D03*
Y253500D02*
D03*
Y245500D02*
D03*
X844000D02*
D03*
Y253500D02*
D03*
Y261500D02*
D03*
Y269500D02*
D03*
X626000Y267000D02*
D03*
Y259000D02*
D03*
Y251000D02*
D03*
Y243000D02*
D03*
X664000D02*
D03*
Y251000D02*
D03*
Y259000D02*
D03*
Y267000D02*
D03*
D31*
X825000Y257500D02*
D03*
X645000Y255000D02*
D03*
D32*
X785000Y251500D02*
D03*
Y238500D02*
D03*
X625000Y299000D02*
D03*
Y286000D02*
D03*
X915000Y466500D02*
D03*
Y453500D02*
D03*
X935000Y431500D02*
D03*
Y418500D02*
D03*
X680500Y678000D02*
D03*
Y691000D02*
D03*
D33*
X565000Y241900D02*
D03*
Y268100D02*
D03*
X590000Y241900D02*
D03*
Y268100D02*
D03*
D34*
X287200Y253700D02*
D03*
Y245700D02*
D03*
Y269700D02*
D03*
Y261700D02*
D03*
X270200D02*
D03*
Y269700D02*
D03*
Y245700D02*
D03*
Y253700D02*
D03*
Y292700D02*
D03*
Y284700D02*
D03*
Y308700D02*
D03*
Y300700D02*
D03*
X287200D02*
D03*
Y308700D02*
D03*
Y284700D02*
D03*
Y292700D02*
D03*
X270200Y331700D02*
D03*
Y323700D02*
D03*
Y347700D02*
D03*
Y339700D02*
D03*
X287200D02*
D03*
Y347700D02*
D03*
Y323700D02*
D03*
Y331700D02*
D03*
X270200Y369700D02*
D03*
Y361700D02*
D03*
Y385700D02*
D03*
Y377700D02*
D03*
X287200D02*
D03*
Y385700D02*
D03*
Y361700D02*
D03*
Y369700D02*
D03*
X270200Y408700D02*
D03*
Y400700D02*
D03*
Y424700D02*
D03*
Y416700D02*
D03*
X287200D02*
D03*
Y424700D02*
D03*
Y400700D02*
D03*
Y408700D02*
D03*
X270200Y447700D02*
D03*
Y439700D02*
D03*
Y463700D02*
D03*
Y455700D02*
D03*
X287200D02*
D03*
Y463700D02*
D03*
Y439700D02*
D03*
Y447700D02*
D03*
X270200Y486700D02*
D03*
Y478700D02*
D03*
Y502700D02*
D03*
Y494700D02*
D03*
X287200D02*
D03*
Y502700D02*
D03*
Y478700D02*
D03*
Y486700D02*
D03*
X270200Y525700D02*
D03*
Y517700D02*
D03*
Y541700D02*
D03*
Y533700D02*
D03*
X287200D02*
D03*
Y541700D02*
D03*
Y517700D02*
D03*
Y525700D02*
D03*
X270200Y564700D02*
D03*
Y556700D02*
D03*
Y580700D02*
D03*
Y572700D02*
D03*
X287200D02*
D03*
Y580700D02*
D03*
Y556700D02*
D03*
Y564700D02*
D03*
X270200Y602700D02*
D03*
Y594700D02*
D03*
Y618700D02*
D03*
Y610700D02*
D03*
X287200D02*
D03*
Y618700D02*
D03*
Y594700D02*
D03*
Y602700D02*
D03*
X270200Y641700D02*
D03*
Y633700D02*
D03*
Y657700D02*
D03*
Y649700D02*
D03*
X287200D02*
D03*
Y657700D02*
D03*
Y633700D02*
D03*
Y641700D02*
D03*
X270200Y680700D02*
D03*
Y672700D02*
D03*
Y696700D02*
D03*
Y688700D02*
D03*
X287200D02*
D03*
Y696700D02*
D03*
Y672700D02*
D03*
Y680700D02*
D03*
D35*
X324500Y443750D02*
D03*
Y437250D02*
D03*
Y430750D02*
D03*
Y424250D02*
D03*
Y417750D02*
D03*
Y411250D02*
D03*
Y404750D02*
D03*
Y398250D02*
D03*
Y391750D02*
D03*
Y385250D02*
D03*
Y378750D02*
D03*
Y372250D02*
D03*
X395500D02*
D03*
Y378750D02*
D03*
Y385250D02*
D03*
Y391750D02*
D03*
Y398250D02*
D03*
Y404750D02*
D03*
Y411250D02*
D03*
Y417750D02*
D03*
Y424250D02*
D03*
Y430750D02*
D03*
Y437250D02*
D03*
Y443750D02*
D03*
Y567750D02*
D03*
Y561250D02*
D03*
Y554750D02*
D03*
Y548250D02*
D03*
Y541750D02*
D03*
Y535250D02*
D03*
Y528750D02*
D03*
Y522250D02*
D03*
Y515750D02*
D03*
Y509250D02*
D03*
Y502750D02*
D03*
Y496250D02*
D03*
X324500D02*
D03*
Y502750D02*
D03*
Y509250D02*
D03*
Y515750D02*
D03*
Y522250D02*
D03*
Y528750D02*
D03*
Y535250D02*
D03*
Y541750D02*
D03*
Y548250D02*
D03*
Y554750D02*
D03*
Y561250D02*
D03*
Y567750D02*
D03*
X395500Y700750D02*
D03*
Y694250D02*
D03*
Y687750D02*
D03*
Y681250D02*
D03*
Y674750D02*
D03*
Y668250D02*
D03*
Y661750D02*
D03*
Y655250D02*
D03*
Y648750D02*
D03*
Y642250D02*
D03*
Y635750D02*
D03*
Y629250D02*
D03*
X324500D02*
D03*
Y635750D02*
D03*
Y642250D02*
D03*
Y648750D02*
D03*
Y655250D02*
D03*
Y661750D02*
D03*
Y668250D02*
D03*
Y674750D02*
D03*
Y681250D02*
D03*
Y687750D02*
D03*
Y694250D02*
D03*
Y700750D02*
D03*
X395500Y323750D02*
D03*
Y317250D02*
D03*
Y310750D02*
D03*
Y304250D02*
D03*
Y297750D02*
D03*
Y291250D02*
D03*
Y284750D02*
D03*
Y278250D02*
D03*
Y271750D02*
D03*
Y265250D02*
D03*
Y258750D02*
D03*
Y252250D02*
D03*
X324500D02*
D03*
Y258750D02*
D03*
Y265250D02*
D03*
Y271750D02*
D03*
Y278250D02*
D03*
Y284750D02*
D03*
Y291250D02*
D03*
Y297750D02*
D03*
Y304250D02*
D03*
Y310750D02*
D03*
Y317250D02*
D03*
Y323750D02*
D03*
D36*
X866500Y679000D02*
D03*
X891500D02*
D03*
D37*
X915000Y484500D02*
D03*
Y500500D02*
D03*
Y433000D02*
D03*
Y417000D02*
D03*
D38*
X213000Y644625D02*
D03*
Y638275D02*
D03*
Y631925D02*
D03*
Y625575D02*
D03*
Y682725D02*
D03*
Y670025D02*
D03*
Y657325D02*
D03*
Y619225D02*
D03*
Y606525D02*
D03*
Y593825D02*
D03*
Y581125D02*
D03*
Y568425D02*
D03*
Y555725D02*
D03*
Y543025D02*
D03*
Y530325D02*
D03*
Y517625D02*
D03*
Y504925D02*
D03*
Y492225D02*
D03*
Y479525D02*
D03*
Y466825D02*
D03*
Y454125D02*
D03*
Y441425D02*
D03*
Y428725D02*
D03*
Y416025D02*
D03*
Y403325D02*
D03*
Y390625D02*
D03*
Y377925D02*
D03*
Y365225D02*
D03*
Y352525D02*
D03*
Y339825D02*
D03*
Y327125D02*
D03*
Y314425D02*
D03*
Y301725D02*
D03*
Y289025D02*
D03*
Y276325D02*
D03*
Y263625D02*
D03*
Y676375D02*
D03*
Y663675D02*
D03*
Y650975D02*
D03*
Y612875D02*
D03*
Y600175D02*
D03*
Y587475D02*
D03*
Y574775D02*
D03*
Y562075D02*
D03*
Y549375D02*
D03*
Y536675D02*
D03*
Y523975D02*
D03*
Y511275D02*
D03*
Y498575D02*
D03*
Y485875D02*
D03*
Y473175D02*
D03*
Y460475D02*
D03*
Y447775D02*
D03*
Y435075D02*
D03*
Y422375D02*
D03*
Y409675D02*
D03*
Y396975D02*
D03*
Y384275D02*
D03*
Y371575D02*
D03*
Y358875D02*
D03*
Y346175D02*
D03*
Y333475D02*
D03*
Y320775D02*
D03*
Y308075D02*
D03*
Y295375D02*
D03*
Y282675D02*
D03*
Y269975D02*
D03*
Y257275D02*
D03*
D39*
X481000Y676000D02*
D03*
Y693000D02*
D03*
X503000Y676000D02*
D03*
Y693000D02*
D03*
D40*
X811000Y700500D02*
D03*
X833000D02*
D03*
Y683500D02*
D03*
X811000D02*
D03*
D67*
X647500Y334400D02*
X648026Y333874D01*
X653443D02*
X657317Y330000D01*
X648026Y333874D02*
X653443D01*
X800888Y305300D02*
X802188Y304000D01*
X803000D01*
X792300Y305300D02*
X800888D01*
X882000Y499400D02*
Y511636D01*
X880500Y513136D02*
X882000Y511636D01*
X880500Y513136D02*
Y524620D01*
X766383Y528117D02*
Y529617D01*
X766000Y530000D02*
X766383Y529617D01*
Y528117D02*
X766800Y527700D01*
X830500Y629143D02*
Y650500D01*
X831000Y651000D01*
X310250Y629250D02*
X341750D01*
X306000Y633500D02*
X310250Y629250D01*
X341750D02*
X342000Y629000D01*
X309000Y372000D02*
X309250Y372250D01*
X324500D01*
X407936Y333064D02*
X408000Y333000D01*
X407936Y340821D02*
X408115Y341000D01*
X415000D01*
X407936Y333064D02*
Y340821D01*
X415000Y341000D02*
X419000Y337000D01*
Y327000D02*
Y337000D01*
X415750Y323750D02*
X419000Y327000D01*
X756000Y630250D02*
X757493Y631743D01*
X763743D01*
X774457Y636057D02*
X775000Y636600D01*
X768057Y636057D02*
X774457D01*
X763743Y631743D02*
X768057Y636057D01*
X794400Y699000D02*
X811000D01*
X822000Y702257D02*
Y711000D01*
X820243Y700500D02*
X822000Y702257D01*
X811000Y700500D02*
X820243D01*
X794000Y699400D02*
X794400Y699000D01*
X742386Y266386D02*
Y275636D01*
X742500Y275750D01*
X742000Y266000D02*
X742386Y266386D01*
X785926Y237574D02*
X797574D01*
X798000Y238000D01*
X795000Y245000D02*
X795257Y245257D01*
X805757D01*
X765114Y238136D02*
X774864D01*
X764507Y238743D02*
X765114Y238136D01*
X774864D02*
X775000Y238000D01*
X831000Y246000D02*
X831500Y245500D01*
X844000D01*
X806000D02*
X817500D01*
X818000Y246000D01*
X815000Y291000D02*
Y303250D01*
X895950Y471550D02*
X901507Y465993D01*
X883500Y471550D02*
X895950D01*
X899338Y458850D02*
X900188Y458000D01*
X883500Y458850D02*
X899338D01*
X900188Y458000D02*
X901000D01*
X901507Y458507D01*
X790550Y446150D02*
X811500D01*
X789900Y445500D02*
X790550Y446150D01*
X901507Y458507D02*
Y465993D01*
X742880Y449500D02*
X756000D01*
X760500Y445000D01*
X764000Y431250D02*
Y431498D01*
X750998Y444500D02*
X764000Y431498D01*
X742880Y444500D02*
X750998D01*
X765600Y419800D02*
Y429650D01*
X764000Y431250D02*
X765600Y429650D01*
Y413600D02*
Y419800D01*
X742880Y464500D02*
X756817D01*
X763426Y462324D02*
X764000Y461750D01*
X732541Y464500D02*
X742880D01*
X758993Y462324D02*
X763426D01*
X756817Y464500D02*
X758993Y462324D01*
X581700Y611426D02*
X583274Y613000D01*
X581614Y611426D02*
X581700D01*
X585769Y612043D02*
X592357D01*
X584812Y613000D02*
X585769Y612043D01*
X583274Y613000D02*
X584812D01*
X592357Y612043D02*
X593000Y611400D01*
X574000D02*
X581588D01*
X581614Y611426D01*
X832500Y269500D02*
X844000D01*
X831000Y268000D02*
X832500Y269500D01*
X805757Y245257D02*
X806000Y245500D01*
X785000Y238500D02*
X785926Y237574D01*
X639000Y374188D02*
Y375000D01*
X638000Y373188D02*
X639000Y374188D01*
X638000Y348143D02*
Y373188D01*
X623000Y368959D02*
X624717Y370676D01*
X623000Y348143D02*
Y368959D01*
X624717Y370676D02*
Y374717D01*
X625000Y375000D01*
X638000Y243000D02*
X640000Y245000D01*
X626000Y243000D02*
X638000D01*
X652000Y264000D02*
X654621Y266621D01*
X663750Y266750D02*
X664000Y267000D01*
X659371Y266750D02*
X663750D01*
X659243Y266621D02*
X659371Y266750D01*
X654621Y266621D02*
X659243D01*
X655000Y243000D02*
X664000D01*
X653000Y245000D02*
X655000Y243000D01*
X644000Y612000D02*
Y617938D01*
X646000Y619938D01*
Y620750D01*
X755000Y489500D02*
X756500Y491000D01*
Y490594D02*
Y491000D01*
X756405Y490500D02*
X756500Y490594D01*
X742880Y489500D02*
X755000D01*
X742880Y484500D02*
X760500D01*
X762872Y486872D02*
X767472D01*
X760500Y484500D02*
X762872Y486872D01*
X767472D02*
X768100Y487500D01*
X706000Y602000D02*
X706300Y602300D01*
X617188Y337000D02*
X618000D01*
X615803Y335615D02*
X617188Y337000D01*
X689400Y334000D02*
X689464Y334064D01*
X689400Y334000D02*
Y342400D01*
X712700Y602300D02*
X713000Y602000D01*
X706300Y602300D02*
X712700D01*
X638757Y603921D02*
X642679D01*
X644000Y602600D01*
X637000Y605679D02*
X638757Y603921D01*
X637000Y605679D02*
Y617000D01*
X643000Y574380D02*
Y601600D01*
X643400Y602000D01*
X593200Y602600D02*
X594682Y604082D01*
X598082D01*
X601997Y607997D01*
Y615997D01*
X602000Y616000D01*
X619574Y614426D02*
X620500Y613500D01*
X619574Y614426D02*
Y620426D01*
X619000Y621000D02*
X619574Y620426D01*
X544257Y596000D02*
X553000Y587257D01*
X538000Y595600D02*
X538400Y596000D01*
X530000D02*
X530541D01*
X538400D02*
X544257D01*
X530541D02*
X530941Y595600D01*
X538000D01*
X773000Y553459D02*
Y554000D01*
X773400Y544500D02*
Y553059D01*
X773000Y553459D02*
X773400Y553059D01*
X764600Y562000D02*
X765426Y561174D01*
Y551614D02*
Y554426D01*
Y555574D02*
Y561174D01*
Y554426D02*
X766000Y555000D01*
X765426Y555574D02*
X766000Y555000D01*
X765064Y551252D02*
X765426Y551614D01*
X742880Y504500D02*
X766100D01*
X766600Y505000D01*
X752136Y524500D02*
X765836Y510800D01*
Y505764D02*
X766600Y505000D01*
X765836Y505764D02*
Y510800D01*
X766800Y504800D02*
X767000Y505000D01*
X742880Y524500D02*
X752136D01*
X766800Y523200D02*
Y527700D01*
X766600Y523000D02*
X766800Y523200D01*
X765064Y544464D02*
Y551252D01*
X789400Y446000D02*
Y459400D01*
X795000Y465000D01*
X723000Y352257D02*
Y359620D01*
Y352257D02*
X726000Y349257D01*
Y349000D02*
Y349257D01*
X823000Y383000D02*
X889000D01*
X915000Y409000D01*
X790617Y388617D02*
X791000Y389000D01*
X768017Y388617D02*
X790617D01*
X805117Y408617D02*
X805500Y409000D01*
X802617Y408617D02*
X805117D01*
X788000Y394000D02*
X802617Y408617D01*
X755500Y384500D02*
X764800Y393800D01*
X778643D01*
X778843Y394000D01*
X788000D01*
X742880Y384500D02*
X755500D01*
X609757Y334228D02*
X611144Y335615D01*
X615803D01*
X489257Y436000D02*
X499500D01*
X491000Y427000D02*
X491426Y426574D01*
X490950Y427050D02*
X491000Y427000D01*
X768013Y482800D02*
Y486332D01*
X767472Y486872D02*
X768013Y486332D01*
X763500Y479000D02*
X764213D01*
X768013Y482800D01*
X774200Y400200D02*
Y407800D01*
Y400200D02*
X774400Y400000D01*
X774000Y408000D02*
X774200Y407800D01*
X765600Y386200D02*
X768017Y388617D01*
X774400Y420000D02*
X779000D01*
X762000Y410000D02*
X765600Y413600D01*
X761000Y444000D02*
X761812D01*
X763312Y445500D01*
X763812D01*
X764312Y446000D01*
X780600D01*
X775442Y504958D02*
X789958D01*
X790000Y505000D01*
X213000Y466825D02*
X232825D01*
X777000Y699400D02*
Y709000D01*
X777000Y709000D02*
X777000Y709000D01*
Y682000D02*
Y690600D01*
X777000Y682000D02*
X777000Y682000D01*
X833000Y683500D02*
X834000Y682500D01*
Y673000D02*
Y682500D01*
X866000Y706400D02*
X874600D01*
X875000Y706000D01*
X892000Y706800D02*
X892100Y706900D01*
X899900D01*
X900000Y707000D01*
X758000Y577250D02*
X771250D01*
X775000Y581000D01*
X905000Y519743D02*
Y520000D01*
X902500Y502500D02*
Y517243D01*
X905000Y519743D01*
X703000Y336157D02*
Y344000D01*
X704757Y334400D02*
X712000D01*
X703000Y336157D02*
X704757Y334400D01*
X556000Y334000D02*
X556541D01*
X556941Y334400D01*
X564500D01*
X565000D01*
X537500D02*
X545059D01*
X545459Y334000D01*
X546000D01*
X564500Y332750D02*
Y334400D01*
Y341000D01*
X754000Y242000D02*
Y249000D01*
X757257Y238743D02*
X764507D01*
X754000Y242000D02*
X757257Y238743D01*
X752688Y424500D02*
X756614Y428426D01*
X732541Y424500D02*
X752688D01*
X757426Y428426D02*
X758000Y429000D01*
X756614Y428426D02*
X757426D01*
X762500Y419800D02*
X764518D01*
X545500Y398055D02*
Y436500D01*
X545000Y437000D02*
X545500Y436500D01*
X545000Y437000D02*
X545500Y437500D01*
Y514981D01*
X536945Y389500D02*
X545500Y398055D01*
X769736Y616664D02*
X770000Y616400D01*
X769736Y616664D02*
Y623452D01*
X769000Y624188D02*
X769736Y623452D01*
X769000Y624188D02*
Y625000D01*
X790620Y614500D02*
X796495D01*
X796599Y614604D01*
X800926D01*
X801500Y615178D01*
X915000Y409000D02*
Y417000D01*
X633000Y562000D02*
Y574380D01*
Y562000D02*
X633000Y562000D01*
X618000Y562000D02*
X618000Y562000D01*
X574143Y602457D02*
X574300Y602300D01*
X580700D02*
X581000Y602000D01*
X574300Y602300D02*
X580700D01*
X583000Y576000D02*
Y589000D01*
X574143Y597857D02*
Y602457D01*
Y597857D02*
X583000Y589000D01*
X553000Y574380D02*
Y587257D01*
X548000Y574380D02*
Y583628D01*
X544886Y586743D02*
X548000Y583628D01*
X544886Y586743D02*
Y586886D01*
X574000Y602600D02*
X574143Y602457D01*
X573800Y611200D02*
X574000Y611400D01*
X567200Y611200D02*
X573800D01*
X567000Y611000D02*
X567200Y611200D01*
X592500Y597500D02*
Y602100D01*
X598000Y574380D02*
Y592000D01*
X592500Y602100D02*
X593000Y602600D01*
X592500Y597500D02*
X598000Y592000D01*
X582500Y565762D02*
Y567126D01*
X580742Y564005D02*
X582500Y565762D01*
X560257Y564005D02*
X580742D01*
X582500Y567126D02*
X583000Y567626D01*
X558500Y565762D02*
X560257Y564005D01*
X583000Y567626D02*
Y574380D01*
X558000Y567626D02*
X558500Y567126D01*
Y565762D02*
Y567126D01*
X552757Y557000D02*
X561000D01*
X548000Y561757D02*
X552757Y557000D01*
X548000Y561757D02*
Y574380D01*
X510000Y462000D02*
X513000D01*
X504000Y468000D02*
X510000Y462000D01*
X515500Y459500D02*
X528120D01*
X513000Y462000D02*
X515500Y459500D01*
X478500Y468000D02*
X485148D01*
X485574Y467574D01*
X415000Y445507D02*
Y458000D01*
X413000Y460000D02*
X415000Y458000D01*
X395500Y443750D02*
X413243D01*
X415000Y445507D01*
X406000Y460000D02*
X413000D01*
X500803Y414803D02*
X501000Y415000D01*
X493615Y415300D02*
X494112Y414803D01*
X500803D01*
X490400Y417200D02*
X491900Y418700D01*
X490400Y417000D02*
Y417200D01*
X491900Y418700D02*
X494685D01*
X496985Y421000D01*
X500500D01*
X490950Y427050D02*
Y434950D01*
X491426Y426574D02*
X499074D01*
X490900Y435000D02*
X490950Y434950D01*
X499074Y426574D02*
X507000Y434500D01*
X500500Y421000D02*
X509000Y429500D01*
X491900Y415300D02*
X493615D01*
X509000Y429500D02*
X528120D01*
X490400Y416800D02*
X491900Y415300D01*
X615000Y285076D02*
X615924Y286000D01*
X625000D01*
X615000Y285000D02*
Y285076D01*
X610000Y248250D02*
Y257500D01*
X616500Y251000D01*
X626000D01*
X930938Y255750D02*
X931688Y255000D01*
X920000Y255750D02*
X930938D01*
X931688Y255000D02*
X932500D01*
X792000Y305600D02*
X792300Y305300D01*
X779062Y338250D02*
X790000D01*
X778312Y337500D02*
X779062Y338250D01*
X777500Y337500D02*
X778312D01*
X795000Y265000D02*
X795383Y265383D01*
Y263799D02*
X797681Y261500D01*
X806000D01*
X795383Y265383D02*
Y267201D01*
Y263799D02*
Y264617D01*
X797681Y269500D02*
X806000D01*
X795000Y265000D02*
X795383Y264617D01*
Y267201D02*
X797681Y269500D01*
X926688Y452500D02*
X927500D01*
X915000Y453500D02*
X925688D01*
X926688Y452500D01*
X865500Y510500D02*
Y524620D01*
X915000Y500500D02*
Y510000D01*
Y467500D02*
Y484500D01*
X900257Y500257D02*
X902500Y502500D01*
X894857Y499543D02*
X895572Y500257D01*
X900257D01*
X895000Y482500D02*
Y490600D01*
X895000Y482500D02*
X895000Y482500D01*
X775000Y636600D02*
X789000D01*
X851000Y677000D02*
Y687600D01*
X735000Y699000D02*
X739550Y703550D01*
X735000Y692000D02*
Y699000D01*
X739550Y703550D02*
X757620D01*
X722150Y678150D02*
X735000Y691000D01*
X757000D01*
X703380Y678150D02*
X722150D01*
X776150Y690850D02*
X777000Y690000D01*
X757620Y690850D02*
X776150D01*
X481000Y568000D02*
X489100D01*
X490000Y567000D02*
Y567100D01*
X489100Y568000D02*
X490000Y567100D01*
X481000Y544000D02*
X492138D01*
X500243Y544736D02*
X506452D01*
X507188Y544000D01*
X499750Y544243D02*
X511507D01*
X499750D02*
X500243Y544736D01*
X507188Y544000D02*
X508000D01*
X511507Y544243D02*
X516250Y539500D01*
X689000Y317000D02*
Y325600D01*
X620000Y276000D02*
X632250D01*
X616750Y272750D02*
X620000Y276000D01*
X616750Y267000D02*
Y272750D01*
Y267000D02*
X616750Y267000D01*
X616750Y261250D02*
Y267000D01*
X616750Y267000D02*
X626000D01*
X616750Y261250D02*
X619000Y259000D01*
X626000D01*
X812500Y400000D02*
X821750D01*
X873250Y415000D02*
Y423438D01*
X872500Y424188D02*
X873250Y423438D01*
X872500Y424188D02*
Y425000D01*
X810000Y415000D02*
X821750D01*
X873250Y400000D02*
X885000D01*
X763750Y469500D02*
X764250Y470000D01*
X742880Y469500D02*
X763750D01*
X742880Y419500D02*
X762500D01*
X752205Y380000D02*
X765600D01*
X751705Y379500D02*
X752205Y380000D01*
X765600D02*
Y386200D01*
X749634Y379500D02*
X751705D01*
X749634Y379500D02*
X749634Y379500D01*
X742880Y379500D02*
X749634D01*
X738300Y604100D02*
X739600Y602800D01*
X738300Y597800D02*
Y602600D01*
X738000Y604100D02*
X738300D01*
X712000Y317000D02*
Y325600D01*
Y343000D02*
X718000Y349000D01*
X712000Y334400D02*
Y343000D01*
X718000Y349000D02*
Y359620D01*
X696936Y334064D02*
X697000Y334000D01*
X689464Y334064D02*
X696936D01*
X693000Y346000D02*
Y359620D01*
X689400Y342400D02*
X693000Y346000D01*
X736000Y246400D02*
Y257000D01*
X760585Y523915D02*
X765685D01*
X766600Y523000D01*
X755000Y529500D02*
X760585Y523915D01*
X742880Y529500D02*
X755000D01*
X640000Y325000D02*
X640300Y325300D01*
X647200D01*
X647500Y325600D01*
Y334400D02*
X648000Y334900D01*
Y359620D01*
X657317Y330000D02*
X657500D01*
X635000Y345000D02*
Y345143D01*
X638000Y348143D01*
X620000Y345143D02*
X623000Y348143D01*
X620000Y345000D02*
Y345143D01*
X587500Y317500D02*
Y325600D01*
X577800Y334700D02*
X586300D01*
X577500Y335000D02*
X577800Y334700D01*
X586300D02*
X588000Y333000D01*
X564505Y325000D02*
X575000D01*
X527800Y325300D02*
X537200D01*
X527500Y325000D02*
X527800Y325300D01*
X537200D02*
X537500Y325600D01*
X539200Y338700D02*
X548000Y347500D01*
X539200Y335900D02*
Y338700D01*
X537900Y334600D02*
X539200Y335900D01*
X548000Y347500D02*
Y359620D01*
X610000Y317500D02*
Y324697D01*
X610303Y325000D01*
X609500Y334485D02*
X609757Y334228D01*
X609500Y334485D02*
Y343000D01*
X500000Y567000D02*
X511500D01*
X518000Y554500D02*
X528120D01*
X515500Y557000D02*
X518000Y554500D01*
X515500Y557000D02*
Y563000D01*
X511500Y567000D02*
X515500Y563000D01*
X440000Y235000D02*
X449250D01*
X882500Y483500D02*
Y490100D01*
X882000Y490600D02*
X882500Y490100D01*
Y483500D02*
X883000Y483000D01*
X885500Y514500D02*
X894857Y505143D01*
Y499543D02*
Y505143D01*
X885500Y514500D02*
Y524620D01*
X780000Y552002D02*
Y560243D01*
X775000Y562000D02*
X778243D01*
X780000Y560243D01*
X782502Y549500D02*
X790620D01*
X780000Y552002D02*
X782502Y549500D01*
X764600Y544000D02*
X765064Y544464D01*
X759098Y497500D02*
X765243D01*
X766800Y499057D02*
Y504800D01*
X765243Y497500D02*
X766800Y499057D01*
X775400Y505000D02*
X775442Y504958D01*
X794482Y635518D02*
X806000Y624000D01*
X789000Y636600D02*
X790082Y635518D01*
X794482D01*
X825500Y628500D02*
Y639380D01*
X821000Y624000D02*
X825500Y628500D01*
X806000Y624000D02*
X821000D01*
X773400Y544500D02*
X790620D01*
X773400Y544000D02*
Y544500D01*
X729583Y602617D02*
X729600Y602600D01*
X938750Y658750D02*
X939000Y659000D01*
X938750Y650000D02*
Y658750D01*
X904000Y638000D02*
Y649000D01*
X891000Y625000D02*
X904000Y638000D01*
X891000Y622000D02*
Y625000D01*
Y622000D02*
X893500Y619500D01*
X905380D01*
X912400Y650000D02*
Y658588D01*
X913000Y659188D01*
Y660000D01*
X893000Y657000D02*
X900585D01*
X902885Y654700D01*
Y650715D02*
Y654700D01*
Y650715D02*
X903600Y650000D01*
X885500Y649500D02*
X893000Y657000D01*
X885500Y639380D02*
Y649500D01*
X738000Y611400D02*
X738536Y611936D01*
X746188Y611000D02*
X747000D01*
X738536Y611936D02*
X745252D01*
X746188Y611000D01*
X722000Y611400D02*
X722264Y611664D01*
Y618452D01*
X723000Y619188D01*
Y620000D01*
X705800Y611400D02*
X706000D01*
X704300Y612900D02*
X705800Y611400D01*
X704300Y612900D02*
Y615888D01*
X702000Y618188D02*
X704300Y615888D01*
X702000Y618188D02*
Y619000D01*
X744800Y602800D02*
X745000Y603000D01*
X739600Y602800D02*
X744800D01*
X738000Y602600D02*
X738300D01*
X723000Y582500D02*
X738300Y597800D01*
X723000Y574380D02*
Y582500D01*
X716000Y588000D02*
X729700Y601700D01*
Y602700D01*
X730000Y603000D01*
X716000Y587515D02*
Y588000D01*
X713000Y584515D02*
X716000Y587515D01*
X713000Y574380D02*
Y584515D01*
X722000Y602600D02*
X729059D01*
X729076Y602617D01*
X729583D01*
X830500Y629143D02*
X833000Y626643D01*
Y626000D02*
Y626643D01*
X896000Y650000D02*
X903600D01*
X895143Y614500D02*
X905380D01*
X892643Y612000D02*
X895143Y614500D01*
X892000Y612000D02*
X892643D01*
X870500Y639380D02*
Y661500D01*
X875500Y639380D02*
Y651500D01*
X891257Y678757D02*
X891500Y679000D01*
X891257Y667257D02*
Y678757D01*
X875500Y651500D02*
X891257Y667257D01*
X866500Y665500D02*
Y679000D01*
Y665500D02*
X870500Y661500D01*
X565750Y638750D02*
X566000Y639000D01*
X555500Y638750D02*
X565750D01*
X708000Y587188D02*
X710000Y589188D01*
Y590000D01*
X708000Y562812D02*
Y587188D01*
X718000Y561000D02*
X718000Y561000D01*
X718000Y561000D02*
Y574380D01*
X707000Y561000D02*
Y561812D01*
X708000Y562812D01*
X529000Y605000D02*
X538000D01*
X618000Y562000D02*
Y574380D01*
X660500Y379000D02*
Y379500D01*
Y379000D02*
X668000Y371500D01*
X513000Y424500D02*
X528120D01*
X507500Y419000D02*
X513000Y424500D01*
X476312Y506000D02*
X477312Y507000D01*
X486607D01*
X475500Y506000D02*
X476312D01*
X508500Y502000D02*
X508541D01*
X510500Y455000D02*
X511000Y454500D01*
X537604D01*
X590500Y587000D02*
X593000Y584500D01*
Y574380D02*
Y584500D01*
X603000Y574380D02*
Y588959D01*
X605993Y591951D01*
Y592493D01*
X608000Y574380D02*
Y589944D01*
X755257Y476757D02*
Y477243D01*
X742880Y474500D02*
X752459D01*
X742880Y479500D02*
X753000D01*
X752459Y474500D02*
X754716Y476757D01*
X753000Y479500D02*
X754493Y478006D01*
X755257Y477243D01*
X754716Y476757D02*
X755257D01*
X730500Y466000D02*
X731041D01*
X732541Y464500D01*
X731479Y533010D02*
X732020D01*
X733510Y534500D01*
X742880D01*
X757944D01*
X759209Y533235D01*
X759750D01*
X511000Y534500D02*
X528120D01*
X539500D01*
X510500Y535000D02*
X511000Y534500D01*
X554500Y370959D02*
Y371500D01*
X551500Y341000D02*
Y341541D01*
X553000Y343041D01*
Y369459D01*
X554500Y370959D01*
X668000Y359620D02*
Y371500D01*
X658000Y346500D02*
Y359620D01*
Y346500D02*
X662500Y342000D01*
X653000Y343312D02*
X654500Y341812D01*
Y341000D02*
Y341812D01*
X653000Y343312D02*
Y359620D01*
X730500Y450000D02*
X731041D01*
X730500Y423000D02*
X731041D01*
Y450000D02*
X731541Y449500D01*
X731041Y423000D02*
X732541Y424500D01*
X731541Y449500D02*
X742880D01*
X575500Y372819D02*
Y373000D01*
Y372819D02*
X578000Y370319D01*
X590500Y374000D02*
X591000Y374500D01*
X593000D01*
Y359620D02*
Y374500D01*
X578000Y350257D02*
X580500Y347757D01*
X578000Y350257D02*
Y370319D01*
X580500Y347000D02*
Y347757D01*
X593000Y564500D02*
Y574380D01*
Y564500D02*
X594500Y563000D01*
X594490Y561500D02*
Y562979D01*
X594500Y562990D01*
Y563000D01*
X605500Y561500D02*
Y562041D01*
X608000Y564541D01*
Y574380D01*
X508541Y502000D02*
X511041Y499500D01*
X513000Y468000D02*
X513383Y467617D01*
X514454D01*
X517571Y464500D01*
X511041Y499500D02*
X528120D01*
X515041Y469500D02*
X528120D01*
X517571Y464500D02*
X528120D01*
X539500D01*
X528120Y479500D02*
X539500D01*
X528120Y499500D02*
X539500D01*
X537604Y454500D02*
X539052Y453052D01*
X539500D01*
X230725Y682725D02*
X233000Y685000D01*
X213000Y682725D02*
X230725D01*
X232625Y676375D02*
X233000Y676000D01*
X213000Y676375D02*
X232625D01*
X227025Y670025D02*
X233000Y676000D01*
X213000Y670025D02*
X227025D01*
X231675Y276325D02*
X232000Y276000D01*
X213000Y276325D02*
X231675D01*
X461500Y679100D02*
X477900D01*
X481000Y676000D01*
X460000Y680600D02*
X461500Y679100D01*
X459836Y680436D02*
X460000Y680600D01*
X451936Y680436D02*
X459836D01*
X451500Y680000D02*
X451936Y680436D01*
X663000Y351502D02*
Y366374D01*
X666928Y347574D02*
X669926D01*
X663000Y351502D02*
X666928Y347574D01*
X892000Y679000D02*
Y698000D01*
X866000Y680000D02*
Y697600D01*
X602875Y638875D02*
X603000Y639000D01*
X595500Y638750D02*
X595625Y638875D01*
X602875D01*
X635500Y638750D02*
X635875Y638375D01*
X642625D01*
X643000Y638000D01*
X706000Y602000D02*
Y602600D01*
Y596000D02*
Y602000D01*
X703000Y579000D02*
Y593000D01*
X706000Y596000D01*
X680650Y690850D02*
X703380D01*
X680500Y621188D02*
Y622000D01*
X681879Y613871D02*
Y619809D01*
Y613871D02*
X683000Y612750D01*
X680500Y621188D02*
X681879Y619809D01*
X620000Y325000D02*
X620750Y324250D01*
X630000D01*
X421250Y568000D02*
X423000Y569750D01*
X495400Y468000D02*
X504000D01*
X494493Y503129D02*
Y509099D01*
X620500Y584998D02*
X622500Y582998D01*
X620500Y584998D02*
Y601250D01*
X622500Y581634D02*
Y582998D01*
Y581634D02*
X623000Y581134D01*
Y574380D02*
Y581134D01*
X669926Y347574D02*
X670500Y347000D01*
X507000Y434500D02*
X528120D01*
X502500Y507000D02*
X504500Y509000D01*
X494900Y507000D02*
X502500D01*
X504500Y509000D02*
X511000D01*
X515500Y504500D01*
X494493Y503129D02*
X494926Y502695D01*
Y500574D02*
Y502695D01*
Y500574D02*
X495500Y500000D01*
X405426Y459626D02*
Y466426D01*
X405000Y459200D02*
X405426Y459626D01*
Y466426D02*
X406000Y467000D01*
X405000Y459000D02*
X406000Y460000D01*
X423000Y569750D02*
Y577000D01*
X418600Y692400D02*
Y701000D01*
X395500Y700750D02*
X418350D01*
X418600Y701000D01*
X516250Y539500D02*
X528120D01*
X573000Y343972D02*
X573125Y343847D01*
X573000Y343972D02*
Y359620D01*
X603000Y349500D02*
X609500Y343000D01*
X558000Y347500D02*
Y359620D01*
Y347500D02*
X564500Y341000D01*
X602500Y361000D02*
X603000Y360500D01*
Y359620D02*
Y360500D01*
Y349500D02*
Y359620D01*
X588000Y333000D02*
Y359620D01*
X515500Y504500D02*
X528120D01*
Y549500D02*
X540000D01*
X528120Y514500D02*
X545019D01*
X540000Y549500D02*
X545500Y544000D01*
X545019Y514500D02*
X545500Y514981D01*
Y544000D01*
X528120Y389500D02*
X536945D01*
X395500Y323750D02*
X415750D01*
X395750Y568000D02*
X421250D01*
X395500Y567750D02*
X395750Y568000D01*
X213000Y460475D02*
X232475D01*
D68*
X760000Y590000D02*
X770250D01*
X770500Y589750D01*
X477719Y248811D02*
X477880Y248650D01*
X466189Y248811D02*
X477719D01*
X461000Y254000D02*
X466189Y248811D01*
X465350Y261350D02*
X477880D01*
X460000Y256000D02*
X465350Y261350D01*
X716250Y630250D02*
X734000D01*
X716000Y630000D02*
X716250Y630250D01*
X758000Y600000D02*
Y607600D01*
Y590750D02*
Y600000D01*
X734000Y643750D02*
X734250Y644000D01*
X744750Y630250D02*
X745000Y630000D01*
X734000Y630250D02*
X744750D01*
D69*
X727000Y334000D02*
X743000Y350000D01*
Y356000D01*
X727000Y323000D02*
Y334000D01*
Y323000D02*
X742500Y307500D01*
Y289250D02*
Y307500D01*
X377000Y235000D02*
X422000D01*
X443000Y256000D02*
X460000D01*
X422000Y235000D02*
X443000Y256000D01*
X460000D02*
X461000D01*
X364000Y235000D02*
X377000D01*
D70*
X746000Y336000D02*
Y336000D01*
X761750Y351750D01*
X754000Y322000D02*
X769000Y337000D01*
X754000Y316000D02*
Y322000D01*
Y316000D02*
X774000D01*
X780000Y310000D01*
X761750Y351750D02*
X762250D01*
X780000Y271000D02*
Y310000D01*
X772000Y263000D02*
X780000Y271000D01*
X790000Y351750D02*
X815000D01*
X762250D02*
X790000D01*
X765000Y263000D02*
Y275250D01*
Y251750D02*
Y263000D01*
X772000D01*
X764750Y252000D02*
X765000Y251750D01*
D71*
X776900Y487500D02*
X792500D01*
X762000Y352000D02*
X762250Y351750D01*
X774400Y380000D02*
X782500D01*
X931000Y524000D02*
X932000Y525000D01*
X481000Y676000D02*
Y693000D01*
D72*
X660300Y690450D02*
X660500Y690250D01*
X660300Y690450D02*
Y698700D01*
X660000Y699000D02*
X660300Y698700D01*
X661750Y299250D02*
X670000Y307500D01*
X740000D01*
X642500Y299250D02*
X661750D01*
X625000Y299000D02*
X641500D01*
X915000Y432500D02*
X934000D01*
X935000Y431500D01*
X934500D02*
X935000D01*
D73*
X932000Y566000D02*
D03*
Y546000D02*
D03*
Y626000D02*
D03*
Y606000D02*
D03*
Y586000D02*
D03*
X555500Y694500D02*
D03*
X575500Y674500D02*
D03*
Y694500D02*
D03*
X595500Y674500D02*
D03*
Y694500D02*
D03*
X615500Y674500D02*
D03*
Y694500D02*
D03*
X635500Y674500D02*
D03*
Y694500D02*
D03*
D74*
X932000Y526000D02*
D03*
X555500Y674500D02*
D03*
D75*
X802000Y289000D02*
D03*
X803000Y304000D02*
D03*
X831000Y651000D02*
D03*
X494000Y633000D02*
D03*
X449000Y632000D02*
D03*
X460000Y702000D02*
D03*
X342000Y629000D02*
D03*
X408000Y333000D02*
D03*
X430000Y338000D02*
D03*
X458000Y367000D02*
D03*
X533000Y311000D02*
D03*
X483000Y288000D02*
D03*
X473000D02*
D03*
X822000Y713000D02*
D03*
X685000Y226000D02*
D03*
X703000D02*
D03*
X742000Y266000D02*
D03*
X798000Y238000D02*
D03*
X795000Y245000D02*
D03*
X775000Y238000D02*
D03*
X831000Y304000D02*
D03*
X815000Y291000D02*
D03*
X928000Y324000D02*
D03*
Y336000D02*
D03*
X896000Y310000D02*
D03*
X908000D02*
D03*
X883000D02*
D03*
X756750Y456500D02*
D03*
X764000Y461750D02*
D03*
X443000Y408000D02*
D03*
X424000Y447000D02*
D03*
X460000Y412000D02*
D03*
X424250Y499000D02*
D03*
X443000Y568000D02*
D03*
X584000Y613000D02*
D03*
X566000Y629000D02*
D03*
X524000Y638000D02*
D03*
X504000Y661000D02*
D03*
X825000Y282000D02*
D03*
X846000D02*
D03*
X837000Y233000D02*
D03*
X852000D02*
D03*
X865000D02*
D03*
X889000D02*
D03*
X832000Y246000D02*
D03*
X818000D02*
D03*
X825000Y257000D02*
D03*
X831000Y268000D02*
D03*
X819000D02*
D03*
X655000Y450000D02*
D03*
X635000D02*
D03*
X615000Y470000D02*
D03*
X635000D02*
D03*
X655000D02*
D03*
Y490000D02*
D03*
X635000D02*
D03*
X615000D02*
D03*
X639000Y375000D02*
D03*
X625000D02*
D03*
X661000Y277000D02*
D03*
X669000Y284000D02*
D03*
X653000D02*
D03*
X664000Y235000D02*
D03*
X652000Y245000D02*
D03*
X639000D02*
D03*
X645000Y255000D02*
D03*
X652000Y265000D02*
D03*
X639000D02*
D03*
X626000Y234000D02*
D03*
X577000Y237000D02*
D03*
Y248000D02*
D03*
Y227000D02*
D03*
X565000D02*
D03*
X590000D02*
D03*
X542500Y657500D02*
D03*
X646000Y620750D02*
D03*
X756405Y490500D02*
D03*
X618000Y336000D02*
D03*
X743000Y356000D02*
D03*
X713000Y602000D02*
D03*
X637000Y617000D02*
D03*
X602000Y616000D02*
D03*
X619000Y621000D02*
D03*
X766000Y555000D02*
D03*
X795000Y465000D02*
D03*
X726000Y349000D02*
D03*
X727000Y334000D02*
D03*
X756000Y400000D02*
D03*
X763500Y479000D02*
D03*
X774000Y408000D02*
D03*
X779000Y420000D02*
D03*
X762000Y410000D02*
D03*
X761000Y444000D02*
D03*
X792500Y487500D02*
D03*
X790000Y505000D02*
D03*
X239000Y469000D02*
D03*
X231000D02*
D03*
X880000Y625000D02*
D03*
X865000D02*
D03*
X777000Y709000D02*
D03*
Y682000D02*
D03*
X834000Y673000D02*
D03*
X875000Y706000D02*
D03*
X900000Y707000D02*
D03*
X660000Y699000D02*
D03*
X775000Y581000D02*
D03*
X745000Y644000D02*
D03*
X751000Y655000D02*
D03*
X739000D02*
D03*
X716000Y630000D02*
D03*
X901000Y458000D02*
D03*
X830000Y340000D02*
D03*
Y365000D02*
D03*
X855000Y320000D02*
D03*
X835000D02*
D03*
X870000Y330000D02*
D03*
X885000Y340000D02*
D03*
X870000Y350000D02*
D03*
X885000Y360000D02*
D03*
X870000Y370000D02*
D03*
X754000Y249000D02*
D03*
X377000Y235000D02*
D03*
X364000D02*
D03*
X758000Y429000D02*
D03*
X545000Y437000D02*
D03*
X769000Y625000D02*
D03*
X801500Y615178D02*
D03*
X633000Y562000D02*
D03*
X618000D02*
D03*
X581000Y602000D02*
D03*
X544886Y586886D02*
D03*
X567000Y611000D02*
D03*
X561000Y557000D02*
D03*
X478500Y468000D02*
D03*
X501000Y415000D02*
D03*
X491000Y427000D02*
D03*
X602500Y262500D02*
D03*
X607500Y270000D02*
D03*
X602500Y277500D02*
D03*
X932500Y255000D02*
D03*
X777500Y337500D02*
D03*
X938000Y381000D02*
D03*
X944000Y376000D02*
D03*
X938000Y371000D02*
D03*
X928000D02*
D03*
X927500Y452500D02*
D03*
X895000Y482500D02*
D03*
X851000Y677000D02*
D03*
X481000Y568000D02*
D03*
Y544000D02*
D03*
X508000D02*
D03*
X429000Y537000D02*
D03*
X451000D02*
D03*
X689000Y317000D02*
D03*
X931000Y235000D02*
D03*
Y226000D02*
D03*
X920000D02*
D03*
X738000Y228000D02*
D03*
X749000D02*
D03*
Y237000D02*
D03*
X941000Y274000D02*
D03*
Y286000D02*
D03*
X932500Y267500D02*
D03*
Y280000D02*
D03*
Y292500D02*
D03*
X812500Y400000D02*
D03*
X872500Y425000D02*
D03*
X810000Y415000D02*
D03*
X782500Y380000D02*
D03*
X885000Y400000D02*
D03*
X712000Y317000D02*
D03*
X697000Y334000D02*
D03*
X736000Y257000D02*
D03*
X640000Y325000D02*
D03*
X657500Y330000D02*
D03*
X635000Y345000D02*
D03*
X620000D02*
D03*
X587500Y317500D02*
D03*
X577500Y335000D02*
D03*
X575000Y325000D02*
D03*
X527500D02*
D03*
X610000Y317500D02*
D03*
X440000Y235000D02*
D03*
X883000Y483000D02*
D03*
X747000Y619000D02*
D03*
X939000Y659000D02*
D03*
X913000Y660000D02*
D03*
X745000Y630000D02*
D03*
X747000Y611000D02*
D03*
X723000Y620000D02*
D03*
X702000Y619000D02*
D03*
X833000Y626000D02*
D03*
X892000Y612000D02*
D03*
X566000Y639000D02*
D03*
X734000Y709000D02*
D03*
X654000D02*
D03*
X594000D02*
D03*
X689000Y666000D02*
D03*
X710000Y590000D02*
D03*
X718000Y561000D02*
D03*
X707000D02*
D03*
X529000Y605000D02*
D03*
X660500Y379500D02*
D03*
X473500Y435000D02*
D03*
X472000Y417000D02*
D03*
X507500Y419000D02*
D03*
X475500Y506000D02*
D03*
X508500Y502000D02*
D03*
X510500Y455000D02*
D03*
X655500Y507000D02*
D03*
X590500Y587000D02*
D03*
X594490Y561500D02*
D03*
X595500Y507000D02*
D03*
Y487000D02*
D03*
X605500Y561500D02*
D03*
X615500Y507000D02*
D03*
X635500D02*
D03*
X605993Y592493D02*
D03*
X675500Y447000D02*
D03*
Y467000D02*
D03*
X705500D02*
D03*
X662500Y342000D02*
D03*
X730000Y570000D02*
D03*
X719000Y668000D02*
D03*
X794000Y710000D02*
D03*
X675500Y487000D02*
D03*
X695500Y547000D02*
D03*
X705500Y517000D02*
D03*
X715500Y497000D02*
D03*
X725500Y487000D02*
D03*
X730000Y475000D02*
D03*
X731479Y533010D02*
D03*
X759750Y533235D02*
D03*
X730500Y423000D02*
D03*
Y450000D02*
D03*
Y466000D02*
D03*
X755257Y476757D02*
D03*
X539500Y534500D02*
D03*
X510500Y535000D02*
D03*
X539500Y479500D02*
D03*
X575500Y487000D02*
D03*
X539500Y499500D02*
D03*
X555500Y497000D02*
D03*
X654500Y341000D02*
D03*
X555500Y447000D02*
D03*
Y467000D02*
D03*
X513000Y468000D02*
D03*
X554500Y371500D02*
D03*
X539500Y464500D02*
D03*
Y453052D02*
D03*
X551500Y341000D02*
D03*
X575500Y373000D02*
D03*
Y457000D02*
D03*
X590500Y374000D02*
D03*
X580500Y347000D02*
D03*
X595500Y447000D02*
D03*
Y467000D02*
D03*
X615500Y447000D02*
D03*
X309000Y252000D02*
D03*
Y372000D02*
D03*
X416000Y523000D02*
D03*
X439000D02*
D03*
X464000Y534000D02*
D03*
X308000Y496000D02*
D03*
X538000Y707000D02*
D03*
X416000Y668000D02*
D03*
Y637000D02*
D03*
X461000Y274000D02*
D03*
X942500Y255000D02*
D03*
X937000Y311000D02*
D03*
X940000Y352500D02*
D03*
X490000Y710000D02*
D03*
X445000D02*
D03*
X410000D02*
D03*
X360000D02*
D03*
X310000D02*
D03*
X260000D02*
D03*
X219000Y695000D02*
D03*
X230000D02*
D03*
X306000Y634000D02*
D03*
X343000Y657000D02*
D03*
X391000Y577000D02*
D03*
X377500Y460000D02*
D03*
X341000Y496000D02*
D03*
X250000Y470000D02*
D03*
X413000Y427000D02*
D03*
X382500Y342500D02*
D03*
X397500Y331500D02*
D03*
X340000Y372000D02*
D03*
X245000Y227000D02*
D03*
X310750Y225750D02*
D03*
X235000Y252500D02*
D03*
Y262500D02*
D03*
X350000Y245000D02*
D03*
X339000Y252000D02*
D03*
X495000Y274000D02*
D03*
X527500Y227500D02*
D03*
X550000Y227000D02*
D03*
Y240000D02*
D03*
X600000Y227000D02*
D03*
X233000Y685000D02*
D03*
Y676000D02*
D03*
X232000Y276000D02*
D03*
X451500Y680000D02*
D03*
X603000Y639000D02*
D03*
X643000Y638000D02*
D03*
X680500Y622000D02*
D03*
X620000Y325000D02*
D03*
X670500Y347000D02*
D03*
X499500Y436000D02*
D03*
X495500Y500000D02*
D03*
X504000Y468000D02*
D03*
X406000Y467000D02*
D03*
X423000Y577000D02*
D03*
X418600Y692400D02*
D03*
X759098Y497500D02*
D03*
X609500Y343000D02*
D03*
X573000Y343972D02*
D03*
X235000Y461112D02*
D03*
D76*
X766000Y530000D02*
D03*
X770500Y589750D02*
D03*
X699000Y406000D02*
D03*
X695000Y426000D02*
D03*
X687000Y412000D02*
D03*
X689000Y377000D02*
D03*
X673000Y382000D02*
D03*
X657000Y387000D02*
D03*
X797000Y505000D02*
D03*
X804000Y512000D02*
D03*
X816000Y576000D02*
D03*
X717000Y546000D02*
D03*
X721000Y503000D02*
D03*
X717000Y520000D02*
D03*
X530000Y596000D02*
D03*
X773000Y554000D02*
D03*
X823000Y383000D02*
D03*
X805500Y409000D02*
D03*
X746000Y336000D02*
D03*
X754000Y316000D02*
D03*
X769000Y337000D02*
D03*
X762000Y352000D02*
D03*
X791000Y389000D02*
D03*
X779000Y413000D02*
D03*
X800000Y472000D02*
D03*
X805000Y487500D02*
D03*
X795000Y655000D02*
D03*
X770000Y600000D02*
D03*
X905000Y520000D02*
D03*
X761000Y655000D02*
D03*
X674000Y320000D02*
D03*
X556000Y334000D02*
D03*
X546000D02*
D03*
X829000Y422000D02*
D03*
X852000D02*
D03*
X540000Y442000D02*
D03*
X461000Y296000D02*
D03*
X411000Y411000D02*
D03*
X488000Y392000D02*
D03*
X412000Y547000D02*
D03*
X611000Y380000D02*
D03*
X603000D02*
D03*
X379000Y643000D02*
D03*
X664000Y519000D02*
D03*
X681000Y512000D02*
D03*
X687000Y515000D02*
D03*
X587000Y546000D02*
D03*
X595000Y551000D02*
D03*
X575000Y541000D02*
D03*
X566000Y537000D02*
D03*
X468000Y296000D02*
D03*
X342000Y291000D02*
D03*
X343000Y298000D02*
D03*
X350000D02*
D03*
X541000Y352000D02*
D03*
X485000Y460000D02*
D03*
X418000Y492000D02*
D03*
X421000Y468000D02*
D03*
X416000Y473000D02*
D03*
X610000Y257500D02*
D03*
X795000Y265000D02*
D03*
X855000Y252500D02*
D03*
X865500Y510500D02*
D03*
X915000Y510000D02*
D03*
X499000Y576000D02*
D03*
X674838Y249839D02*
D03*
X632250Y276000D02*
D03*
X615000Y285750D02*
D03*
X797500Y457500D02*
D03*
X897500Y432500D02*
D03*
Y445000D02*
D03*
X703000Y344000D02*
D03*
X804000Y498000D02*
D03*
X812500Y497500D02*
D03*
X850000Y545000D02*
D03*
X835000Y537000D02*
D03*
X840000Y545000D02*
D03*
X845000Y537000D02*
D03*
X812000Y567000D02*
D03*
X809000Y559000D02*
D03*
X814000Y547000D02*
D03*
X804000Y571000D02*
D03*
X758000Y600000D02*
D03*
X745000Y603000D02*
D03*
X730000D02*
D03*
X896000Y650000D02*
D03*
X890000Y604000D02*
D03*
X724500Y513000D02*
D03*
X730500Y494000D02*
D03*
Y501000D02*
D03*
X719000Y704000D02*
D03*
X741000Y671000D02*
D03*
X680500Y384500D02*
D03*
X564500Y512000D02*
D03*
X469500Y510000D02*
D03*
X380000Y372500D02*
D03*
X340000Y442500D02*
D03*
X342500Y410000D02*
D03*
X692500Y419000D02*
D03*
Y463000D02*
D03*
X697500Y383000D02*
D03*
X711500Y405000D02*
D03*
X713500Y475000D02*
D03*
X720500Y424000D02*
D03*
X726500Y404000D02*
D03*
X725500Y552000D02*
D03*
X708500Y526000D02*
D03*
X718500Y480000D02*
D03*
X726500Y539000D02*
D03*
X728500Y526000D02*
D03*
X527500Y561000D02*
D03*
X560500Y519500D02*
D03*
X541500Y359000D02*
D03*
X298000Y262000D02*
D03*
X303000Y589000D02*
D03*
X314000Y613000D02*
D03*
X341000Y324000D02*
D03*
X298000Y433000D02*
D03*
X386000Y469000D02*
D03*
X351000Y482000D02*
D03*
X411000Y500000D02*
D03*
X422000Y531000D02*
D03*
X380000Y499000D02*
D03*
X351000Y568000D02*
D03*
Y509000D02*
D03*
X339000D02*
D03*
X301000Y668000D02*
D03*
X297000Y681000D02*
D03*
X298700Y696700D02*
D03*
Y284700D02*
D03*
Y300700D02*
D03*
X299000Y324000D02*
D03*
Y340000D02*
D03*
X247877Y555725D02*
D03*
X301000Y534000D02*
D03*
M02*
