M48
;Layer_Color=9474304
;FILE_FORMAT=4:4
METRIC,LZ
;TYPE=PLATED
T1F00S00C0.2000
T2F00S00C0.3000
T3F00S00C1.0000
%
T01
X00298Y00262
X002987Y002847
Y003007
X00299Y00324
Y0034
X00341Y00324
X00343Y00298
X0035
X00342Y00291
X0038Y003725
X00488Y00392
X005415Y00359
X00541Y00352
X00546Y00334
X00556
X00603Y0038
X00611
X00657Y00387
X00673Y00382
X006805Y003845
X00689Y00377
X006975Y00383
X00703Y00344
X00746Y00336
X00769Y00337
X00762Y00352
X00754Y00316
X00674Y0032
X00674838Y00249839
X0063225Y00276
X00615Y0028575
X0061Y002575
X00468Y00296
X00461
X00791Y00389
X00823Y00383
X00795Y00265
X00855Y002525
X00852Y00422
X00829
X008055Y00409
X007975Y004575
X008Y00472
X00805Y004875
X00804Y00498
X008125Y004975
X00797Y00505
X00804Y00512
X00814Y00547
X00809Y00559
X00812Y00567
X00804Y00571
X00816Y00576
X0084Y00545
X0085
X00845Y00537
X00835
X008655Y005105
X00905Y0052
X00915Y0051
X008975Y00445
Y004325
X0089Y00604
X00896Y0065
X00795Y00655
X00761
X00741Y00671
X00719Y00704
X0073Y00603
X00745
X00758Y006
X0077
X007705Y0058975
X00773Y00554
X00766Y0053
X007285Y00526
X007265Y00539
X007255Y00552
X00717Y00546
Y0052
X007245Y00513
X00721Y00503
X007305Y00501
Y00494
X007185Y0048
X007135Y00475
X006925Y00463
X00695Y00426
X006925Y00419
X00687Y00412
X00699Y00406
X007115Y00405
X007265Y00404
X007205Y00424
X00779Y00413
X007085Y00526
X00687Y00515
X00681Y00512
X00664Y00519
X00595Y00551
X00587Y00546
X00575Y00541
X00566Y00537
X005605Y005195
X005645Y00512
X005275Y00561
X0053Y00596
X00499Y00576
X004695Y0051
X00485Y0046
X00421Y00468
X00416Y00473
X00418Y00492
X00411Y005
X00422Y00531
X00412Y00547
X00411Y00411
X0054Y00442
X00386Y00469
X0038Y00499
X00351Y00509
X00339
X00351Y00482
X0034Y004425
X003425Y0041
X00298Y00433
X00301Y00534
X00303Y00589
X00314Y00613
X00301Y00668
X00297Y00681
X002987Y006967
X00379Y00643
X00351Y00568
X00247877Y00555725
T02
X00245Y00227
X00235Y002525
Y002625
X00232Y00276
X00309Y00252
X0031075Y0022575
X00339Y00252
X0035Y00245
X00364Y00235
X00377
X003825Y003425
X0034Y00372
X00309
X003975Y003315
X00408Y00333
X0043Y00338
X00458Y00367
X00473Y00288
X00483
X00495Y00274
X00461
X0044Y00235
X005275Y002275
X0055Y00227
Y0024
X00565Y00227
X00577
Y00237
Y00248
X0059Y00227
X006
X00626Y00234
X00639Y00245
X00652
X00645Y00255
X00639Y00265
X00652
X00653Y00284
X00661Y00277
X00669Y00284
X00689Y00317
X00712
X00727Y00334
X00726Y00349
X00743Y00356
X007775Y003375
X007825Y0038
X006605Y003795
X00639Y00375
X00625
X0062Y00345
X00618Y00336
X0062Y00325
X0061Y003175
X005875
X00575Y00325
X005775Y00335
X00573Y00343972
X005805Y00347
X005755Y00373
X005905Y00374
X005545Y003715
X005515Y00341
X005275Y00325
X00533Y00311
X006025Y002775
X006075Y0027
X006025Y002625
X006095Y00343
X00635Y00345
X006545Y00341
X006625Y00342
X006705Y00347
X006575Y0033
X0064Y00325
X00697Y00334
X00742Y00266
X00736Y00257
X00754Y00249
X00749Y00237
Y00228
X00738
X00703Y00226
X00685
X00664Y00235
X00775Y00238
X00798
X00795Y00245
X00818Y00246
X00832
X00837Y00233
X00852
X00865
X00889
X0092Y00226
X00931
Y00235
X009325Y00255
X009425
X00941Y00274
Y00286
X009325Y0028
Y002675
Y002925
X00937Y00311
X00928Y00324
Y00336
X0094Y003525
X00938Y00371
Y00381
X00944Y00376
X00928Y00371
X00885Y0036
Y0034
X0087Y0033
Y0035
Y0037
X0083Y00365
Y0034
X00835Y0032
X00855
X00883Y0031
X00896
X00908
X00831Y00304
X00803
X00802Y00289
X00815Y00291
X00825Y00282
X00831Y00268
X00819
X00825Y00257
X00846Y00282
X008125Y004
X0081Y00415
X00795Y00465
X00883Y00483
X00895Y004825
X00901Y00458
X009275Y004525
X008725Y00425
X00885Y004
X00892Y00612
X0088Y00625
X00865
X00833Y00626
X00831Y00651
X00834Y00673
X00851Y00677
X00875Y00706
X009Y00707
X00913Y0066
X00939Y00659
X00822Y00713
X00794Y0071
X008015Y00615178
X00769Y00625
X00747Y00619
Y00611
X00745Y0063
Y00644
X00751Y00655
X00739
X00719Y00668
X00689Y00666
X006805Y00622
X00702Y00619
X00723Y0062
X00716Y0063
X00713Y00602
X0071Y0059
X00707Y00561
X00718
X0073Y0057
X00731479Y0053301
X0075975Y00533235
X00766Y00555
X00775Y00581
X0079Y00505
X007925Y004875
X007635Y00479
X00755257Y00476757
X00756405Y004905
X00759098Y004975
X00764Y0046175
X0075675Y004565
X00761Y00444
X00758Y00429
X00762Y0041
X00774Y00408
X00779Y0042
X00756Y004
X007305Y00423
Y0045
Y00466
X0073Y00475
X007255Y00487
X007155Y00497
X007055Y00517
X006955Y00547
X00633Y00562
X00618
X006055Y005615
X0059449
X005905Y00587
X00605993Y00592493
X00602Y00616
X00584Y00613
X00581Y00602
X00567Y00611
X00566Y00629
Y00639
X00603Y00639
X00619Y00621
X00637Y00617
X00646Y0062075
X00643Y00638
X0066Y00699
X00654Y00709
X00594
X00538Y00707
X0049Y0071
X0046Y00702
X00445Y0071
X0041
X004186Y006924
X00416Y00668
Y00637
X00449Y00632
X00494Y00633
X00524Y00638
X00529Y00605
X00544886Y00586886
X00561Y00557
X005395Y005345
X005105Y00535
X00508Y00544
X00481
Y00568
X00443
X00423Y00577
X00429Y00537
X00451
X00464Y00534
X00439Y00523
X00416
X0042425Y00499
X00406Y00467
X00424Y00447
X00413Y00427
X00443Y00408
X0046Y00412
X00472Y00417
X004735Y00435
X00491Y00427
X004995Y00436
X00501Y00415
X005075Y00419
X005105Y00455
X00513Y00468
X00504
X004785
X004755Y00506
X004955Y005
X005085Y00502
X005395Y004995
X005555Y00497
X005755Y00487
X005955
Y00507
X006155
X00615Y0049
Y0047
X00635
Y0045
X00655
Y0047
Y0049
X006555Y00507
X006355
X00635Y0049
X006755Y00487
Y00467
Y00447
X007055Y00467
X005955
Y00447
X006155
X005755Y00457
X005555Y00447
Y00467
X005395Y004645
Y00453052
X00545Y00437
X005395Y004795
X005425Y006575
X00504Y00661
X004515Y0068
X00734Y00709
X00777
Y00682
X0036Y0071
X0031
X0026
X0023Y00695
X00219
X00233Y00685
Y00676
X00306Y00634
X00342Y00629
X00343Y00657
X00391Y00577
X003775Y0046
X00341Y00496
X00308
X0025Y0047
X00239Y00469
X00231
X00235Y00461112
T03
X00932Y00526
Y00546
Y00566
Y00586
Y00606
Y00626
X006355Y006745
X006155
X005955
X005755
X005555
Y006945
X005755
X005955
X006155
X006355
M30
