M48
;Layer_Color=9474304
;FILE_FORMAT=2:4
INCH,LZ
;TYPE=PLATED
T01F00S00C0.0079
T02F00S00C0.0118
T03F00S00C0.0157
T04F00S00C0.0394
%
T01
X011799Y010303
X01176Y011209
Y011839
X011772Y012756
Y013386
X014724Y012008
X016142Y013091
X015677Y014649
X017992Y015157
X022283Y013673
X022598Y013661
X022677Y013386
X022598Y013071
X02252Y012795
X022992Y012717
X022974Y012344
X023858Y012874
X023878Y013916
X023858Y014252
X02437Y014744
X025197Y014803
X025787Y014843
X02626
X026614Y015118
X02689Y015079
X027126Y014724
X027638
X027677Y013819
X027047Y01378
X026378Y013268
X025512Y013228
X025591Y012874
X025354Y013819
X025098Y01366
X024252Y013543
X024213Y01189
X025
X025984Y012008
X026575
X027165
X027756Y012047
X028051Y012008
X028445Y011909
X029232Y012343
X030118Y012047
X030709
X030906Y011811
X02979Y01166
X029035Y010925
X026378Y011024
X026772Y010138
Y009449
X026974Y008962
X027547Y008945
X027913Y008835
X028248Y00876
X025748Y008917
X028543Y013386
X029823Y013287
X030433Y013268
X030315Y01378
X03Y015197
X029606Y015157
X029331Y015118
X029016
X02874Y015079
X032323Y014882
X032185Y014173
X031594Y01378
X032874
X032992Y014685
X033268Y014646
X033346Y015472
X032913
X03378Y015433
X036417Y015551
X036575Y014843
X036063Y014606
X035433Y014075
X036571Y013547
X036535Y012362
X037283
X037756Y013386
X038091Y013484
X038976Y013386
X039173Y014764
Y015551
X037087Y015118
X041043Y014075
Y011516
Y01063
X031594Y010039
X031496Y011811
X032185Y012992
X032776Y012697
X033366Y013091
X033543Y015709
X033957Y015846
X03378Y016732
X033957Y017421
X033543Y01752
X033071
X032362Y017795
X03252Y018071
X032351Y018336
X032274Y018888
X032323Y019449
X032425Y019705
X032795Y019173
X03309Y01932
X033346Y019055
X03378Y020197
X034016Y020118
X034055Y020413
X034154Y021161
X033858Y021063
X03435Y021358
X032451Y021112
X032736Y021929
X031338Y021103
X031299Y019843
Y019567
Y018465
Y017835
Y016772
X032283Y017008
X03248Y016339
X034134Y01815
X034606Y018189
X03513Y01824
X035433Y017421
X035806Y019016
X036299Y018543
X036575Y018386
X03685Y018425
X036811Y019587
X037158Y019573
X0375Y019587
X037992Y019685
X038268Y019724
X038425Y02
X037677Y020433
X036282Y02063
X038287Y018406
X03878Y018346
X038819Y01752
X038346
X039252Y01748
X039173Y016339
X037047
X037559Y017362
X040118Y018937
X040557Y019798
X040709Y02063
X041142Y018583
X039921Y025472
X039409Y024961
X038228Y024449
X03498Y025
X033976Y025709
X033701Y026299
X032677Y027461
X031988Y027067
X032283Y025
X032087Y024114
X034449Y02377
X034016Y028425
X029724Y027264
X029707Y026479
X02874Y026673
X029331Y025039
X028051Y025
X027657Y025295
X027165Y025
X027067Y025984
X026378Y025886
X026083Y026181
X024591Y025828
X024528Y024685
X025295Y024705
Y024114
X025591Y023819
X02622Y023937
X026397Y023445
X025787Y023228
X025944Y022224
X026378
X027087Y022205
X027362Y022087
X027717Y022244
X027992Y022126
X028976Y022165
X029252
X029843Y022244
X030512
X031102Y02185
X030979Y021604
X031142Y021339
X03122Y020827
X031024Y020591
X031063Y020315
X031102Y020039
X030827Y019016
X03063Y018819
X029803Y018346
X029528Y018504
X029882Y01689
X029803Y016614
X029685Y016339
X029882Y016102
X030551Y016063
X031142Y016024
X03108Y01649
X030906Y016811
X030433Y020827
X029134Y02122
X028898Y020591
X027874Y020551
X027559
X027205Y020315
X024803Y020276
X024606Y020571
X02378Y021161
Y019783
Y018996
Y018406
Y017955
X02379Y01753
X024016Y017402
X022638Y018071
X022244Y018071
X022126Y017244
X022043Y01689
X022244Y016437
X02252Y016654
X020787Y016535
Y017224
X020768Y018189
X020855Y019803
X020748Y020079
X020733Y021284
X020709Y022047
X021752Y022441
X022146Y021181
X022441Y02122
X022539Y019882
X022146
X022736Y018543
X018701Y018701
X017559Y018583
X017323Y018386
X016634Y018012
X016437Y017815
X017323Y016535
X017421Y019783
X016929Y019587
X018307Y019803
X017913Y020984
X017205Y021535
X017167Y02234
X01624Y022736
X01565Y025
X017717Y027756
X019291Y027953
X022835Y026339
X023086Y025842
X023819Y026299
X023386Y024803
X023622Y024114
X023622Y023622
Y023346
Y023071
X024094Y023622
X023307Y022205
X024685Y021969
X025
X025315Y022047
X02752Y023268
X027559Y023917
X030433Y02378
X030453Y023505
X030896Y023277
X030669Y025118
X012402Y024705
X011799Y025264
X011811Y025984
X01176Y026799
Y027429
X01185Y022874
Y021024
X009759Y021879
X009646Y017618
X012992Y018996
X013971Y020073
X014488Y020079
X014222Y02238
X014535Y016874
X014272Y016142
T02
X008169Y008169
Y009646
X008563
X008957
X009252Y009941
Y010335
X009134Y010866
X008957Y008957
X009744Y008169
X011024Y008661
X011713Y008169
X012205Y009154
X012795Y009941
X013386Y009547
X014055Y009882
X015059Y013484
X014075Y014665
X012697Y014567
X01565Y012992
X020079Y011417
X020177Y01063
X020669
X021063Y010138
X019783
X018898Y010236
X018504Y008268
X021654
X02313Y008661
X024114Y008858
Y008268
X025197Y008465
Y008957
X026772Y01063
Y011417
X022441Y012205
X02126
X033071Y011614
Y011024
Y010433
X033661Y010039
Y010827
X034252Y010433
X034843Y010236
Y010827
X035433Y011024
Y011614
Y012205
X034843
X034252
X038583
Y011811
X038976
Y012205
X040925Y012382
X040945Y008268
X039764
X038583
X037402
X03622
X035039
X032283Y009055
X031496
X037402Y013386
X039764Y018898
X04063Y020157
X038976Y020472
X039252Y022323
X039449Y02279
X040551Y022441
X040945Y022874
X039764Y024055
X039291Y024252
X039803Y026063
X039961Y028583
X038386Y028622
X036811
X03622Y02874
X036299Y028346
X03626Y027598
X035118Y026299
X034252Y026378
Y025984
Y026772
Y02874
X03189
X032244Y02622
X03189Y025197
X031496Y025157
X032244Y024528
X03189Y022835
X033346Y021732
X03622Y022441
X037008Y022835
X037795Y022441
X037008Y024094
X036417Y025
X03622Y020079
X031102Y019291
Y018898
X030315Y018504
X029134
Y017717
Y019291
X028346Y020079
X027559
X026772
X025984
Y019291
X025197
X024409Y019685
Y018504
Y017717
X025197Y01811
X025984Y018504
Y017717
X026772
X030709Y019685
X030315Y020472
X029921Y021654
X030315Y025039
X031102Y025591
X027953Y02874
X024803
X022441
X020079
Y026772
X021654Y025984
Y025591
X020866Y023228
X020079Y022441
X019291Y023228
X01811Y022441
X017323Y023228
X016929Y025197
X01811
Y026378
Y027559
Y02874
X016142
X016929Y026378
X01565Y022343
X018898Y017323
X019685Y016535
X015256Y018209
X014075Y01939
X012697Y019488
X009843Y018504
X009252Y01847
Y018154
Y018825
X009173Y026614
Y026969
X009449Y027559
X008661
X008268Y027165
Y02874
X010236
X012205
X014173
X01437Y025
Y024311
X013386
X015197Y023346
X01437Y01565
T03
X013386Y008465
X014173
X024705Y010433
X036024
X03626Y011732
X038054Y010416
T04
X039854Y014839
X040854
Y015839
X039854
Y016839
X040854
Y017839
X039854
X040906Y023559
Y024559
Y025559
Y026559
Y027559
Y028559
X029134Y02815
X028346
Y027362
X029134
X027559
X026772
Y02815
X027559
X025984
Y027362
X024213
X023425
Y02815
X024213
X022638
X02185
Y027362
X022638
X021063
Y02815
M30
