M48
;Layer_Color=9474304
;FILE_FORMAT=4:4
METRIC,LZ
;TYPE=PLATED
T01F00S00C0.2000
T02F00S00C0.3000
T03F00S00C1.0000
%
T01
X00298Y00262
X002987Y002847
Y003007
X00299Y00324
Y0034
X00341Y00324
X00343Y00298
X0035
X00342Y00291
X0038Y003725
X00488Y00392
X005415Y00359
X00541Y00352
X00546Y00334
X00556
X00603Y0038
X00611
X00624Y00384
X00634
X00657Y00387
X00673Y00382
X006805Y003845
X00689Y00377
X006975Y00383
X00703Y00344
X00746Y00336
X00769Y00337
X00762Y00352
X00754Y00316
X00674Y0032
X00673Y00251
X0063225Y00276
X00615Y0028575
X00611Y00258
X00468Y00296
X00461
X0079Y00385
X00807Y00386
X00834Y00385
X00853Y0025225
X00795Y00265
X00828Y0043
X00841Y00454
X0087Y00432
X0086Y00418
X009Y00407
X0088Y004975
X00868Y00534
X009Y0053
X00924Y00575
X00866Y00588
X00864Y00599
X008725Y006
X00887Y00614
X00898Y00645
X00884Y00654
X00851Y00671
X00814Y00692
X00802Y00575
X00794Y00582
X0084Y0058
X00835Y00575
X00845
X0085Y0058
X00821Y00548
X00818Y00542
X00813Y00537
X00816Y00531
X008Y00497
X007305Y00494
X00713Y00489
Y00481
X006925Y00463
X00695Y00448
X00694Y00425
X00691Y00418
X00687Y00412
X00699Y00406
X007115Y00405
X00721Y00404
X007205Y00424
X00731Y0052
X00716Y00544
X00711Y00549
X00687Y00515
X00686Y00508
X005645Y00512
X005605Y005195
X00566Y00537
X00575Y00541
X00587Y00546
X00595Y00551
X005225Y005625
X00499Y00576
X00545Y00595
X00536Y00655
X00597Y0065
X00613Y00644
X00688
X00699Y00655
X0076Y00646
X00761Y00633
X0075Y005925
X0073Y00599
X00787Y00584
X0054Y00442
X00485Y0046
X004695Y0051
X00411Y005
X00418Y00492
X00416Y00473
X00421Y00468
X00422Y00531
X00412Y00547
X00411Y00411
X003425Y0041
X0034Y004425
X00351Y00482
Y00509
X00339
X0038Y00499
X00386Y00469
X00298Y00433
X00301Y00534
X00303Y00589
X00314Y00613
X00301Y00668
X00297Y00681
X002987Y006967
X00379Y00643
X00351Y00568
X00247877Y00555725
T02
X00245Y00227
X00235Y002525
Y002625
X00232Y00276
X00278Y00316
Y00393
X00309Y00372
X0034
X003825Y003425
X00377Y00235
X00364
X00351Y00246
X00339Y00252
X00309
X00311Y00227
X0044Y00235
X00461Y00274
X00473Y00288
X00483
X00495Y00274
X00533Y00311
X005275Y00325
X005515Y00341
X00573Y00343972
X005805Y00347
X00588Y00343
X006095
X0062Y00345
X00618Y00336
X00621Y00324
X0061Y003175
X005875
X00575Y00325
X005755Y00373
X005905Y00374
X00626Y00372
X00638
X00635Y00345
X00656Y00344
X00668
X00657Y00332
X0064Y00325
X00653Y00284
X00661Y00277
X00669Y00284
X00652Y00265
X00639
X00645Y00255
X00639Y00245
X00652
X00664Y00235
X00685Y00226
X00703
X00738Y00228
X00749
Y00237
X00754Y00249
X00736Y00257
X00742Y00266
X00754Y00276
X00775Y00238
X007775Y003375
X007825Y0038
X00743Y00356
X00726Y00349
X00727Y00334
X00697
X00689Y00317
X00712
X00705Y00385
X006605Y003795
X005545Y003715
X00458Y00367
X0043Y00338
X00415Y0032425
X003975Y003315
X005275Y002275
X0055Y00227
Y0024
X00565Y00227
X00577
Y00237
Y00248
X0059Y00227
X006
X00626Y00234
X006025Y002625
X006075Y0027
X006025Y002775
X00802Y00289
X00815
X00825Y00282
X00844
X00831Y00268
X00819
X00825Y00259
X00832Y00246
X00818
X00795Y00245
Y00237
X00837Y00233
X00852
X00862
X00884
X00905
X00922Y00226
X00931
X00943Y00227
X00927Y00235
Y00245
Y00256
X00932Y00266
X0094Y00272
Y00286
X00932Y0028
Y00293
X00937Y00311
X00928Y00324
Y00336
X00938Y00355
Y00371
Y00381
X00944Y00376
X0094Y0039
X009125
X00928Y00371
X00885Y0036
Y0034
X00892Y00324
X009Y00307
X0088
X0087Y0033
Y0035
Y0037
X00879Y00385
X0083Y00365
X008175
X0083Y0034
X00835Y0032
X00855
X00831Y00303
X00803Y00304
X00943Y00256
X00925Y004025
X009375Y004325
X00901Y00431
Y00444
X00902Y00475
X008975Y0049
X0088Y00485
X00885Y00465
X00855Y0044
X00836Y00413
X008Y00419
X00801Y00406
X0082Y00465
X00816Y00498
X00794Y0049
Y00506
X00806Y00526
X0081Y00571
X0087Y00566
X00893Y00579
X00895Y00613
X00882Y0062
X008525Y00605
X00856Y00648
X00865Y00658
X0082Y00655
X00818Y00666
X0081
X00809Y00653
X00816Y00631
X00814Y0068
X0084Y00692
X00839Y00711
X00867Y00712
X00875
X00908Y00711
Y00682
X00911Y0066
X00924Y00616
X00936Y00708
X009025Y0052
X00884Y00534
X00767389Y00531712
X0076Y00534
X00731
X00714Y00526
X00695Y00528
X00681Y00543
X0066Y0056
X00633Y00562
X00618
X006055Y005615
X0059449
X005905Y00587
X00598Y00591
X00606Y00587
X00631Y00599
X0063Y00608
X0066Y00613
X0068Y00614
X007Y006125
X0071Y00604
Y00592
X007Y00588
X00707Y00561
X00718
X007425Y005725
X00773Y00583
X00793Y00573
X00792Y00595
X00761Y00601
X00775Y00631
X00785Y00666
X00789Y0067
X00779Y00678
X00774Y00691
X00773Y00702
X00765Y00695
X007525Y006775
X00752Y00658
X007075Y006525
X00704Y00673
X00675Y006725
Y0066
X00679Y00643
X00664Y00645
X00638Y00643
X00608Y00627
X00593Y00626
X00584Y00613
X00581Y00602
X00567Y00611
X00571Y00627
Y00644
X00585Y00643
X00554Y00626
X00515Y006325
X0049
X00477791Y00639765
X00495Y00655
X00495291Y00674765
X00495Y006975
X0045Y00703
X00437
Y00692
X00429Y00691
X00411Y00701
X00415Y006625
X00416Y00637
X00449Y00632
X0045Y006725
X004625Y0066
X00462791Y00577265
X00481Y00568
Y00544
X00507
X005105Y00535
X005395Y005345
Y004995
X005555Y00497
X005755Y00487
X005955
Y00507
X006155
X00615Y0049
Y0047
X00635
Y0045
X00655
Y0047
Y0049
X006555Y00507
X006355
X00635Y0049
X006755Y00487
Y00467
Y00447
X00699Y00472
X0073Y00475
X007305Y00466
Y0045
X00758Y00447
X00755Y00457
X00758Y00466
X00755257Y00476757
X00761Y00484
X00756405Y004905
X00759098Y004975
X00770911Y00514
X0077Y0047
Y00436
X00771Y00427
X00763Y00431
X00756Y00426
Y004
X00772Y00408
X00727Y00418
X0072Y00499
X005955Y00467
Y00447
X006155
X005755Y00457
X005555Y00447
Y00467
X005395Y004645
Y00453052
X00545Y00437
X004995Y00436
X005Y0042
X005075Y00419
X00491Y00427
X004735Y00435
X00472Y00417
X0046Y00412
X00443Y00408
X00413Y00427
X00424Y00447
X00433Y0046
X00405699Y00467468
X0042425Y00499
X00416Y00523
X00439
X00429Y00537
X00451
X00464Y00534
X004755Y00506
X005025Y005065
X005085Y00502
X00513Y00468
X00504
X005105Y00455
X004785Y00468
X005395Y004795
X00561Y00557
X00544886Y00586886
X005275Y00585
X00535Y005775
X00443Y00568
X00413
X00574Y00713
X00621Y00698
Y00674
X0071Y007
X00362Y00704
X00380398Y0066953
X00343Y00657
X00342Y00629
X00306Y00634
X00308Y00705
X00257Y00698
X00237Y00697
X00238Y00712
X00243Y00678
X00237Y00672
X0023Y00665
X00278Y00588
X00279Y0051
Y00471
X0025Y0047
X00239Y00469
X00231
X00235Y00461112
X00308Y00496
X00341
X003775Y0046
X00391Y00577
T03
X009325Y00525
Y00545
Y00565
Y00585
Y00605
Y00625
Y00645
Y00665
Y00685
X00602Y00676
X00582
Y00696
X00602
X00562
X00542
Y00676
X00562
X00522
Y00696
M30
