G04*
G04 #@! TF.GenerationSoftware,Altium Limited,Altium Designer,24.4.1 (13)*
G04*
G04 Layer_Color=128*
%FSLAX44Y44*%
%MOMM*%
G71*
G04*
G04 #@! TF.SameCoordinates,925E675A-46DA-42A4-AE84-68A0AB10CA93*
G04*
G04*
G04 #@! TF.FilePolarity,Positive*
G04*
G01*
G75*
%ADD16R,0.6000X0.6400*%
%ADD17R,0.9000X1.0000*%
%ADD22R,0.6400X0.6000*%
%ADD23R,1.0000X0.9000*%
D16*
X622600Y464000D02*
D03*
X631400D02*
D03*
X547600Y481000D02*
D03*
X556400D02*
D03*
X555400Y417000D02*
D03*
X546600D02*
D03*
X571600Y448000D02*
D03*
X580400D02*
D03*
X621600Y474000D02*
D03*
X630400D02*
D03*
X623100Y454000D02*
D03*
X631900D02*
D03*
X555400Y437000D02*
D03*
X546600D02*
D03*
Y427000D02*
D03*
X555400D02*
D03*
Y459000D02*
D03*
X546600D02*
D03*
X631400Y427000D02*
D03*
X622600D02*
D03*
X629400Y417000D02*
D03*
X620600D02*
D03*
X547600Y472000D02*
D03*
X556400D02*
D03*
D17*
X543250Y448000D02*
D03*
X556750D02*
D03*
X624250Y505000D02*
D03*
X637750D02*
D03*
Y491000D02*
D03*
X624250D02*
D03*
X637000Y440500D02*
D03*
X623500D02*
D03*
D22*
X611250Y415400D02*
D03*
Y406600D02*
D03*
X577000Y483600D02*
D03*
Y492400D02*
D03*
X567000D02*
D03*
Y483600D02*
D03*
X612000Y482600D02*
D03*
Y491400D02*
D03*
X600000D02*
D03*
Y482600D02*
D03*
X565000Y392600D02*
D03*
Y401400D02*
D03*
X588500Y464100D02*
D03*
Y472900D02*
D03*
Y410100D02*
D03*
Y418900D02*
D03*
Y437900D02*
D03*
Y429100D02*
D03*
D23*
Y486750D02*
D03*
Y500250D02*
D03*
M02*
