G04*
G04 #@! TF.GenerationSoftware,Altium Limited,Altium Designer,24.4.1 (13)*
G04*
G04 Layer_Physical_Order=4*
G04 Layer_Color=16711680*
%FSLAX44Y44*%
%MOMM*%
G71*
G04*
G04 #@! TF.SameCoordinates,925E675A-46DA-42A4-AE84-68A0AB10CA93*
G04*
G04*
G04 #@! TF.FilePolarity,Positive*
G04*
G01*
G75*
%ADD12C,0.2000*%
%ADD16R,0.6000X0.6400*%
%ADD17R,0.9000X1.0000*%
%ADD22R,0.6400X0.6000*%
%ADD23R,1.0000X0.9000*%
%ADD26C,0.4200*%
%ADD67C,1.0000*%
%ADD68C,0.3000*%
%ADD69C,0.1250*%
%ADD70C,0.5000*%
%ADD71C,0.6000*%
%ADD74C,0.4000*%
%ADD75C,1.5000*%
%ADD76R,1.5000X1.5000*%
%ADD77C,0.6000*%
%ADD78C,1.0000*%
%ADD79C,0.8000*%
%ADD80C,0.3500*%
G36*
X781380Y710451D02*
X780761Y709832D01*
X780000Y707995D01*
Y706005D01*
X779034Y704560D01*
X775000D01*
X773173Y704320D01*
X771470Y703615D01*
X770008Y702492D01*
X768885Y701030D01*
X768180Y699327D01*
X767940Y697500D01*
X768180Y695673D01*
X768885Y693970D01*
X770008Y692508D01*
X771470Y691385D01*
X773173Y690680D01*
X775000Y690440D01*
X860575D01*
X878940Y672076D01*
Y529000D01*
X879180Y527173D01*
X879885Y525470D01*
X881008Y524008D01*
X904940Y500075D01*
Y462394D01*
X905180Y460566D01*
X905885Y458863D01*
X907008Y457401D01*
X910940Y453469D01*
Y449617D01*
X908940Y448859D01*
X908322Y449476D01*
X906815Y450100D01*
X905184D01*
X903678Y449476D01*
X902524Y448322D01*
X901900Y446815D01*
Y445185D01*
X902524Y443677D01*
X903678Y442524D01*
X905184Y441900D01*
X906815D01*
X908322Y442524D01*
X908940Y443141D01*
X910940Y442383D01*
Y407924D01*
X894258Y391242D01*
X893989Y390892D01*
X889108Y386011D01*
X888758Y385742D01*
X876848Y373833D01*
X874614Y374427D01*
X874239Y375332D01*
X872832Y376739D01*
X870995Y377500D01*
X869006D01*
X867168Y376739D01*
X865761Y375332D01*
X865000Y373495D01*
Y371505D01*
X865761Y369668D01*
X867168Y368261D01*
X868073Y367886D01*
X868667Y365652D01*
X866848Y363833D01*
X864614Y364427D01*
X864239Y365332D01*
X862832Y366739D01*
X860995Y367500D01*
X859005D01*
X857168Y366739D01*
X855761Y365332D01*
X855000Y363495D01*
Y361505D01*
X855761Y359668D01*
X857168Y358261D01*
X858073Y357886D01*
X858667Y355652D01*
X821988Y318973D01*
X820763Y317804D01*
X820408Y317500D01*
X819749D01*
X817333Y316853D01*
X815167Y315602D01*
X814813Y315248D01*
X811258Y315060D01*
X809457D01*
X807765Y315100D01*
X807299Y315136D01*
X806833Y315602D01*
X804667Y316853D01*
X802251Y317500D01*
X799749D01*
X797333Y316853D01*
X795167Y315602D01*
X793398Y313833D01*
X792147Y311667D01*
X792035Y311248D01*
X789965D01*
X789853Y311667D01*
X788602Y313833D01*
X786833Y315602D01*
X784667Y316853D01*
X782251Y317500D01*
X779749D01*
X777333Y316853D01*
X775167Y315602D01*
X773398Y313833D01*
X772148Y311667D01*
X772035Y311248D01*
X769965D01*
X769853Y311667D01*
X768602Y313833D01*
X766833Y315602D01*
X764667Y316853D01*
X762251Y317500D01*
X762000D01*
Y308000D01*
X761000D01*
Y307000D01*
X751500D01*
Y306749D01*
X752147Y304333D01*
X752883Y303059D01*
X751807Y301059D01*
X710267D01*
X671137Y340189D01*
X671133Y340194D01*
X671102Y340239D01*
X671100Y340242D01*
Y340816D01*
X670476Y342323D01*
X669323Y343476D01*
X667816Y344100D01*
X667242D01*
X667239Y344102D01*
X667217Y344117D01*
X667169Y344156D01*
X663059Y348267D01*
Y360750D01*
X662826Y361921D01*
X662163Y362913D01*
X631564Y393512D01*
Y405704D01*
X631564Y405710D01*
X631574Y405764D01*
X631575Y405767D01*
X631981Y406173D01*
X632605Y407680D01*
Y409311D01*
X632402Y409800D01*
X633611Y411800D01*
X634400D01*
Y415500D01*
X629400D01*
Y418500D01*
X634400D01*
Y421800D01*
X636400D01*
Y425500D01*
X631400D01*
Y428500D01*
X636400D01*
Y432200D01*
X637862Y433500D01*
X643500D01*
Y439000D01*
X637000D01*
Y442000D01*
X643500D01*
Y447500D01*
X638362D01*
X636900Y448800D01*
Y452500D01*
X631900D01*
Y455500D01*
X636900D01*
Y459200D01*
X636400D01*
Y462500D01*
X634434D01*
X634389Y462446D01*
X634370Y462369D01*
Y462500D01*
X631400D01*
Y465500D01*
X634370D01*
Y466171D01*
X634389Y466095D01*
X634445Y466027D01*
X634541Y465967D01*
X634674Y465915D01*
X634845Y465871D01*
X635054Y465835D01*
X635301Y465807D01*
X635909Y465774D01*
X636270Y465770D01*
Y465500D01*
X636400D01*
Y469200D01*
X635400D01*
Y471212D01*
X634094Y471133D01*
X633833Y471089D01*
X633630Y471036D01*
X633485Y470976D01*
X633399Y470907D01*
X633369Y470830D01*
X633090Y470801D01*
X632840Y470710D01*
X632620Y470560D01*
X632429Y470350D01*
X632267Y470080D01*
X632135Y469751D01*
X632032Y469361D01*
X631973Y469000D01*
X632035Y468628D01*
X632140Y468234D01*
X632275Y467901D01*
X632440Y467628D01*
X632635Y467416D01*
X632860Y467263D01*
X633115Y467171D01*
X633400Y467139D01*
X628430Y467169D01*
X628520Y467200D01*
X628600Y467290D01*
X628670Y467439D01*
X628731Y467649D01*
X628783Y467920D01*
X628825Y468250D01*
X628857Y468728D01*
X628841Y468910D01*
X628768Y469361D01*
X628665Y469751D01*
X628533Y470080D01*
X628371Y470350D01*
X628180Y470560D01*
X627960Y470710D01*
X627710Y470801D01*
X627430Y470830D01*
X633369D01*
Y472500D01*
X630400D01*
Y475500D01*
X633369D01*
Y475630D01*
X633384Y475500D01*
X635856D01*
X636537Y476385D01*
X639048D01*
X647154Y468279D01*
Y413921D01*
X645849Y412617D01*
X644529D01*
X644529Y412617D01*
X644445Y412600D01*
X643675D01*
X642168Y411976D01*
X641014Y410822D01*
X640390Y409315D01*
Y407685D01*
X641014Y406177D01*
X642168Y405024D01*
X643675Y404400D01*
X645306D01*
X645450Y404460D01*
X647538D01*
X647538Y404460D01*
X649099Y404770D01*
X650422Y405654D01*
X654116Y409348D01*
X654116Y409348D01*
X655000Y410671D01*
X655310Y412232D01*
Y469968D01*
X655310Y469968D01*
X655000Y471529D01*
X654116Y472852D01*
X644758Y482210D01*
X644250Y484000D01*
X644250Y484000D01*
X644250D01*
X644250Y484000D01*
Y489500D01*
X637750D01*
Y492500D01*
X644250D01*
Y496000D01*
X644250Y498000D01*
X644250Y500000D01*
Y509926D01*
X644259Y509969D01*
X644250Y510013D01*
Y510040D01*
X644256Y510080D01*
X644250Y510103D01*
Y512000D01*
X644059D01*
X643867Y515254D01*
Y541216D01*
X728326Y625674D01*
X729652Y627659D01*
X730117Y630000D01*
Y637984D01*
X730780Y638116D01*
X731442Y638558D01*
X731442Y638558D01*
X736442Y643558D01*
X736884Y644220D01*
X737039Y645000D01*
Y657038D01*
X737100Y657185D01*
Y658816D01*
X737039Y658962D01*
Y673038D01*
X737100Y673185D01*
Y674816D01*
X737039Y674962D01*
Y675000D01*
X736884Y675780D01*
X736442Y676442D01*
X736442Y676442D01*
X731442Y681442D01*
X730780Y681884D01*
X730000Y682039D01*
X714000D01*
X714000Y682039D01*
X713220Y681884D01*
X712558Y681442D01*
X712558Y681442D01*
X708558Y677442D01*
X708116Y676780D01*
X707961Y676000D01*
Y645000D01*
X707961Y645000D01*
X708116Y644220D01*
X708558Y643558D01*
X713558Y638558D01*
X713558Y638558D01*
X714220Y638116D01*
X715000Y637961D01*
X717883D01*
Y632534D01*
X633424Y548076D01*
X632098Y546091D01*
X631632Y543750D01*
Y513634D01*
X631212Y512856D01*
X630124Y512000D01*
X629250Y512000D01*
X617750D01*
Y500074D01*
X617741Y500031D01*
X617750Y499987D01*
Y498172D01*
X617640Y497818D01*
X616785Y496400D01*
X615943Y496400D01*
X613500D01*
Y496280D01*
X613770D01*
X613774Y495917D01*
X613836Y495057D01*
X613873Y494847D01*
X613918Y494675D01*
X613972Y494542D01*
X614033Y494446D01*
X614103Y494389D01*
X614181Y494370D01*
X613500D01*
Y491400D01*
X612000D01*
Y489900D01*
X608858D01*
X608861Y489500D01*
X608829Y489785D01*
X608787Y489900D01*
X606800D01*
Y488566D01*
X605200Y487600D01*
X597284D01*
X597042Y487842D01*
X596839Y487977D01*
Y492200D01*
X596684Y492980D01*
X596242Y493642D01*
X595442Y494442D01*
X594780Y494884D01*
X594000Y495039D01*
X583000D01*
X582220Y494884D01*
X581558Y494442D01*
X581558Y494442D01*
X580758Y493642D01*
X580316Y492980D01*
X580161Y492200D01*
Y488600D01*
X564994D01*
X563039Y489000D01*
X562884Y489780D01*
X562442Y490442D01*
X562442Y490442D01*
X560442Y492442D01*
X560442Y492442D01*
X559780Y492884D01*
X559000Y493039D01*
X555000D01*
X554220Y492884D01*
X553558Y492442D01*
X551957Y490841D01*
X550818Y491981D01*
X549311Y492605D01*
X548690D01*
X548513Y492644D01*
X548344Y492647D01*
X548254Y492654D01*
X548185Y492664D01*
X548134Y492676D01*
X548101Y492686D01*
X548098Y492687D01*
X545776Y495009D01*
X545676Y495250D01*
Y520257D01*
X546323Y520524D01*
X547476Y521678D01*
X548100Y523185D01*
Y524815D01*
X547476Y526322D01*
X546323Y527476D01*
X544815Y528100D01*
X543185D01*
X541678Y527476D01*
X540524Y526322D01*
X539900Y524815D01*
Y523185D01*
X540061Y522796D01*
X540072Y522696D01*
X540075Y522690D01*
X540076Y522683D01*
X540132Y522511D01*
X540161Y522406D01*
X540273Y521855D01*
X540288Y521740D01*
X540324Y521221D01*
Y495000D01*
X540276Y495000D01*
X540323Y494476D01*
X540527Y493454D01*
X540527Y493452D01*
X540608Y493331D01*
X540667Y493034D01*
X541781Y491367D01*
X541815Y491400D01*
X544313Y488902D01*
X544314Y488899D01*
X544324Y488866D01*
X544336Y488815D01*
X544346Y488746D01*
X544353Y488656D01*
X544356Y488487D01*
X544395Y488310D01*
Y487689D01*
X545019Y486182D01*
X546173Y485029D01*
X547680Y484405D01*
X549311D01*
X550961Y482924D01*
Y464200D01*
X550400D01*
Y462284D01*
X550158Y462042D01*
X549716Y461380D01*
X549561Y460600D01*
Y455244D01*
X549558Y455242D01*
X549116Y454580D01*
X548961Y453800D01*
Y442200D01*
X549116Y441420D01*
X549558Y440758D01*
X549561Y440756D01*
Y431800D01*
Y421800D01*
Y414698D01*
X549561Y413000D01*
X547934Y412850D01*
X546428Y412226D01*
X546057Y411855D01*
X544750Y411297D01*
X543443Y411855D01*
X543072Y412226D01*
X541566Y412850D01*
X539935D01*
X538428Y412226D01*
X538222Y412020D01*
X538198Y412009D01*
X538049Y411895D01*
X537948Y411826D01*
X537860Y411772D01*
X537784Y411731D01*
X537721Y411703D01*
X537672Y411685D01*
X537643Y411676D01*
X532109D01*
X518676Y425109D01*
Y498000D01*
X518676Y498000D01*
X518473Y499024D01*
X517892Y499893D01*
X517892Y499893D01*
X509676Y508109D01*
Y554891D01*
X514603Y559818D01*
X514605Y559819D01*
X514639Y559829D01*
X514689Y559840D01*
X514759Y559851D01*
X514849Y559858D01*
X515018Y559861D01*
X515195Y559900D01*
X515816D01*
X517323Y560524D01*
X518476Y561678D01*
X519100Y563184D01*
Y564815D01*
X518654Y565892D01*
X519599Y567589D01*
X521525Y567677D01*
X521678Y567524D01*
X523185Y566900D01*
X524815D01*
X526322Y567524D01*
X527476Y568678D01*
X528100Y570185D01*
Y571815D01*
X527476Y573322D01*
X526322Y574476D01*
X524816Y575100D01*
X524762Y575228D01*
X524405Y576898D01*
X525707Y578400D01*
X525816D01*
X527322Y579024D01*
X528476Y580178D01*
X529100Y581684D01*
Y583316D01*
X529852Y584441D01*
X532209D01*
X532215Y584440D01*
X532269Y584431D01*
X532272Y584430D01*
X532677Y584024D01*
X534184Y583400D01*
X535816D01*
X537322Y584024D01*
X538476Y585177D01*
X539100Y586684D01*
Y588316D01*
X538476Y589822D01*
X537322Y590976D01*
X535816Y591600D01*
X534184D01*
X532677Y590976D01*
X532272Y590570D01*
X532269Y590569D01*
X532242Y590564D01*
X532181Y590559D01*
X522500D01*
X522500Y590559D01*
X521329Y590326D01*
X521100Y590173D01*
X520047Y590511D01*
X519103Y590972D01*
X518982Y591101D01*
X518476Y592322D01*
X517323Y593476D01*
X515816Y594100D01*
X514184D01*
X512678Y593476D01*
X512239Y593037D01*
X512086Y592939D01*
X511965Y592822D01*
X511896Y592764D01*
X511839Y592721D01*
X511795Y592694D01*
X511765Y592678D01*
X511762Y592676D01*
X461109D01*
X439182Y614603D01*
X439181Y614605D01*
X439171Y614639D01*
X439160Y614689D01*
X439149Y614759D01*
X439142Y614849D01*
X439139Y615018D01*
X439100Y615195D01*
Y615816D01*
X438476Y617322D01*
X437322Y618476D01*
X435816Y619100D01*
X434184D01*
X432677Y618476D01*
X431524Y617322D01*
X430900Y615816D01*
Y614184D01*
X431524Y612677D01*
X432677Y611524D01*
X434184Y610900D01*
X434805D01*
X434982Y610861D01*
X435151Y610858D01*
X435241Y610851D01*
X435311Y610840D01*
X435361Y610829D01*
X435395Y610819D01*
X435397Y610818D01*
X448808Y597407D01*
X448043Y595559D01*
X400190D01*
X399772Y595976D01*
X398265Y596600D01*
X396634D01*
X395128Y595976D01*
X393974Y594823D01*
X393350Y593316D01*
Y591684D01*
X393974Y590178D01*
X395128Y589024D01*
X396634Y588400D01*
X398265D01*
X399772Y589024D01*
X400190Y589441D01*
X450733D01*
X457337Y582837D01*
X457337Y582837D01*
X458330Y582174D01*
X459500Y581941D01*
X490011D01*
X491080Y579941D01*
X490824Y579559D01*
X359017D01*
X334059Y604517D01*
Y621260D01*
X334476Y621678D01*
X335100Y623185D01*
Y624815D01*
X334476Y626322D01*
X333322Y627476D01*
X331815Y628100D01*
X330185D01*
X329059Y628852D01*
Y632261D01*
X329476Y632678D01*
X330100Y634184D01*
Y635816D01*
X329476Y637322D01*
X328322Y638476D01*
X326816Y639100D01*
X325185D01*
X323678Y638476D01*
X322524Y637322D01*
X321900Y635816D01*
Y634184D01*
X322524Y632678D01*
X322941Y632261D01*
Y602500D01*
X322941Y602500D01*
X323174Y601329D01*
X323837Y600337D01*
X326985Y597189D01*
X326774Y594572D01*
X326524Y594323D01*
X325900Y592816D01*
Y591185D01*
X326524Y589678D01*
X327678Y588524D01*
X329184Y587900D01*
X329774D01*
X351337Y566337D01*
X352329Y565674D01*
X353500Y565441D01*
X353500Y565441D01*
X498482D01*
X498900Y564815D01*
Y563375D01*
X498527Y562817D01*
X498324Y561793D01*
X498324Y561793D01*
Y505088D01*
X497026Y504550D01*
X496324Y504475D01*
X495322Y505476D01*
X493815Y506100D01*
X493100D01*
Y506815D01*
X492476Y508322D01*
X491323Y509476D01*
X489816Y510100D01*
X488136Y511162D01*
X488100Y511948D01*
Y512816D01*
X487476Y514322D01*
X486322Y515476D01*
X484815Y516100D01*
X483185D01*
X481678Y515476D01*
X481676Y515475D01*
X479676Y516303D01*
Y547891D01*
X481603Y549818D01*
X481605Y549819D01*
X481639Y549829D01*
X481689Y549841D01*
X481759Y549851D01*
X481849Y549858D01*
X482018Y549861D01*
X482195Y549900D01*
X482816D01*
X484323Y550524D01*
X485476Y551678D01*
X486100Y553185D01*
Y554816D01*
X485476Y556323D01*
X484323Y557476D01*
X482816Y558100D01*
X481185D01*
X479678Y557476D01*
X478524Y556323D01*
X477900Y554816D01*
Y554195D01*
X477861Y554017D01*
X477858Y553849D01*
X477851Y553759D01*
X477840Y553689D01*
X477829Y553639D01*
X477819Y553605D01*
X477818Y553603D01*
X475107Y550892D01*
X474527Y550024D01*
X474324Y549000D01*
X474324Y549000D01*
Y524290D01*
X472324Y523461D01*
X461182Y534603D01*
X461181Y534605D01*
X461171Y534639D01*
X461160Y534689D01*
X461149Y534759D01*
X461142Y534849D01*
X461139Y535018D01*
X461100Y535195D01*
Y535816D01*
X460476Y537322D01*
X459322Y538476D01*
X457816Y539100D01*
X456185D01*
X454678Y538476D01*
X453524Y537322D01*
X452900Y535816D01*
Y534184D01*
X453524Y532677D01*
X454678Y531524D01*
X456185Y530900D01*
X456805D01*
X456982Y530861D01*
X457151Y530858D01*
X457241Y530851D01*
X457311Y530840D01*
X457361Y530829D01*
X457394Y530819D01*
X457397Y530818D01*
X460783Y527432D01*
X460294Y525092D01*
X459524Y524322D01*
X458900Y522816D01*
Y521185D01*
X459524Y519678D01*
X460677Y518524D01*
X462184Y517900D01*
X462805D01*
X462982Y517861D01*
X463151Y517858D01*
X463241Y517851D01*
X463311Y517840D01*
X463361Y517829D01*
X463395Y517819D01*
X463397Y517818D01*
X464324Y516891D01*
Y507238D01*
X464322Y507235D01*
X464306Y507205D01*
X464278Y507161D01*
X464236Y507104D01*
X464178Y507035D01*
X464061Y506914D01*
X463963Y506761D01*
X463524Y506323D01*
X462900Y504816D01*
Y503185D01*
X463524Y501678D01*
X464678Y500524D01*
X465550Y500163D01*
X466147Y498405D01*
X466135Y497920D01*
X440361Y472146D01*
X439476Y472323D01*
X438322Y473476D01*
X436815Y474100D01*
X435184D01*
X433677Y473476D01*
X432524Y472322D01*
X431900Y470816D01*
Y469184D01*
X432524Y467678D01*
X432794Y467408D01*
X433014Y464799D01*
X419108Y450892D01*
X418527Y450024D01*
X418324Y449000D01*
X418324Y449000D01*
Y410000D01*
X418324Y410000D01*
X418527Y408976D01*
X419108Y408107D01*
X430156Y397059D01*
X429328Y395059D01*
X389791D01*
X389785Y395060D01*
X389731Y395069D01*
X389728Y395070D01*
X389322Y395476D01*
X387816Y396100D01*
X386184D01*
X384678Y395476D01*
X383524Y394323D01*
X382900Y392816D01*
Y391185D01*
X383190Y390483D01*
X382579Y390230D01*
X381426Y389077D01*
X380802Y387570D01*
Y385939D01*
X380873Y385766D01*
X379579Y385230D01*
X378426Y384077D01*
X377802Y382570D01*
Y380939D01*
X378426Y379432D01*
X379579Y378278D01*
X381086Y377654D01*
X382717D01*
X384224Y378278D01*
X384630Y378684D01*
X384633Y378685D01*
X384660Y378690D01*
X384721Y378695D01*
X408514D01*
X409900Y376815D01*
Y375185D01*
X410524Y373678D01*
X411678Y372524D01*
X413185Y371900D01*
X414816D01*
X416323Y372524D01*
X417476Y373678D01*
X418100Y375185D01*
Y376815D01*
X419486Y378695D01*
X428370D01*
X438541Y368524D01*
X437775Y366676D01*
X421000D01*
X421000Y366676D01*
X419976Y366473D01*
X419108Y365892D01*
X419107Y365892D01*
X386891Y333676D01*
X375109D01*
X373893Y334893D01*
X373024Y335473D01*
X372000Y335676D01*
X372000Y335676D01*
X335238D01*
X335235Y335678D01*
X335205Y335694D01*
X335161Y335722D01*
X335104Y335764D01*
X335035Y335822D01*
X334914Y335939D01*
X334761Y336037D01*
X334322Y336476D01*
X332816Y337100D01*
X331185D01*
X329678Y336476D01*
X328524Y335322D01*
X327900Y333815D01*
Y332184D01*
X328524Y330677D01*
X329678Y329524D01*
X331185Y328900D01*
X332816D01*
X334322Y329524D01*
X334761Y329963D01*
X334914Y330061D01*
X335035Y330178D01*
X335104Y330236D01*
X335161Y330279D01*
X335205Y330306D01*
X335235Y330322D01*
X335238Y330324D01*
X370891D01*
X372107Y329108D01*
X372108Y329108D01*
X372976Y328527D01*
X374000Y328324D01*
X374000Y328324D01*
X382925D01*
X383691Y326476D01*
X376891Y319676D01*
X329238D01*
X329235Y319678D01*
X329205Y319694D01*
X329161Y319722D01*
X329104Y319764D01*
X329035Y319822D01*
X328914Y319939D01*
X328761Y320037D01*
X328322Y320476D01*
X326816Y321100D01*
X325185D01*
X323678Y320476D01*
X322524Y319322D01*
X321900Y317815D01*
Y316185D01*
X322524Y314678D01*
X323678Y313524D01*
X325185Y312900D01*
X326816D01*
X328322Y313524D01*
X328761Y313963D01*
X328914Y314061D01*
X329035Y314178D01*
X329104Y314236D01*
X329161Y314279D01*
X329205Y314306D01*
X329235Y314322D01*
X329238Y314324D01*
X372925D01*
X373691Y312476D01*
X365891Y304676D01*
X334238D01*
X334235Y304678D01*
X334205Y304694D01*
X334161Y304722D01*
X334104Y304764D01*
X334035Y304822D01*
X333914Y304939D01*
X333761Y305037D01*
X333322Y305476D01*
X331815Y306100D01*
X330185D01*
X328677Y305476D01*
X327524Y304322D01*
X326900Y302815D01*
Y301185D01*
X327524Y299678D01*
X328677Y298524D01*
X330185Y297900D01*
X331815D01*
X333322Y298524D01*
X333761Y298963D01*
X333914Y299061D01*
X334035Y299178D01*
X334104Y299236D01*
X334161Y299279D01*
X334205Y299306D01*
X334235Y299322D01*
X334238Y299324D01*
X361925D01*
X362691Y297476D01*
X354891Y289676D01*
X335238D01*
X335235Y289678D01*
X335205Y289694D01*
X335161Y289722D01*
X335104Y289764D01*
X335035Y289822D01*
X334914Y289939D01*
X334761Y290037D01*
X334322Y290476D01*
X332816Y291100D01*
X331185D01*
X329678Y290476D01*
X328524Y289322D01*
X327900Y287816D01*
Y286185D01*
X328524Y284678D01*
X329678Y283524D01*
X331185Y282900D01*
X332816D01*
X334322Y283524D01*
X334761Y283963D01*
X334914Y284061D01*
X335035Y284178D01*
X335104Y284236D01*
X335161Y284279D01*
X335205Y284306D01*
X335235Y284322D01*
X335238Y284324D01*
X350925D01*
X351691Y282476D01*
X344891Y275676D01*
X333238D01*
X333235Y275678D01*
X333205Y275694D01*
X333161Y275722D01*
X333104Y275764D01*
X333036Y275822D01*
X332914Y275939D01*
X332761Y276037D01*
X332322Y276476D01*
X330816Y277100D01*
X329184D01*
X327678Y276476D01*
X326524Y275322D01*
X325900Y273815D01*
Y272184D01*
X326524Y270678D01*
X327678Y269524D01*
X329184Y268900D01*
X330816D01*
X332322Y269524D01*
X332761Y269963D01*
X332914Y270061D01*
X333036Y270178D01*
X333104Y270236D01*
X333161Y270278D01*
X333205Y270306D01*
X333235Y270322D01*
X333238Y270324D01*
X346000D01*
X346000Y270324D01*
X347024Y270527D01*
X347892Y271108D01*
X423052Y346267D01*
X423331Y346199D01*
X424900Y345286D01*
Y344184D01*
X425524Y342677D01*
X426678Y341524D01*
X427574Y341153D01*
Y319372D01*
X427522Y319320D01*
X427421Y319236D01*
X427342Y319141D01*
X426524Y318323D01*
X425900Y316815D01*
Y315184D01*
X426524Y313678D01*
X427678Y312524D01*
X429184Y311900D01*
X430816D01*
X431499Y311444D01*
Y306327D01*
X431471Y306294D01*
X431424Y306246D01*
X431309Y306144D01*
X431191Y305989D01*
X430524Y305322D01*
X429900Y303815D01*
Y302185D01*
X430524Y300678D01*
X431678Y299524D01*
X433185Y298900D01*
X434815D01*
X436322Y299524D01*
X437476Y300678D01*
X438100Y302185D01*
Y303815D01*
X437476Y305322D01*
X437205Y305593D01*
X437167Y305665D01*
X437052Y305805D01*
X436985Y305896D01*
X436934Y305975D01*
X436897Y306042D01*
X436871Y306094D01*
X436856Y306135D01*
X436851Y306149D01*
Y338522D01*
X437976Y339139D01*
X438851Y339452D01*
X440185Y338900D01*
X441816D01*
X443322Y339524D01*
X444476Y340678D01*
X445100Y342184D01*
Y343815D01*
X444476Y345322D01*
X443322Y346476D01*
X441816Y347100D01*
X440547D01*
X440320Y347324D01*
X441138Y349324D01*
X458451D01*
X460343Y347433D01*
X460343Y347433D01*
X460877Y347075D01*
X460900Y346960D01*
Y346184D01*
X461524Y344678D01*
X462678Y343524D01*
X464184Y342900D01*
X465816D01*
X467323Y343524D01*
X468476Y344678D01*
X469100Y346184D01*
X470816Y346900D01*
X472322Y347524D01*
X473476Y348678D01*
X474100Y350185D01*
Y351816D01*
X473476Y353322D01*
X472322Y354476D01*
X470816Y355100D01*
X470696D01*
X470298Y357100D01*
X471323Y357524D01*
X472476Y358677D01*
X473100Y360184D01*
Y361815D01*
X472476Y363322D01*
X471323Y364476D01*
X469816Y365100D01*
X469100Y366816D01*
X468476Y368322D01*
X467323Y369476D01*
X465816Y370100D01*
X465100D01*
Y370816D01*
X464476Y372322D01*
X463476Y373678D01*
X464100Y375185D01*
Y376816D01*
X463476Y378322D01*
X462798Y379000D01*
X463476Y379678D01*
X464100Y381185D01*
Y382816D01*
X463476Y384322D01*
X462322Y385476D01*
X460816Y386100D01*
X459184D01*
X459012Y386029D01*
X458476Y387322D01*
X458037Y387761D01*
X457939Y387914D01*
X457822Y388035D01*
X457764Y388104D01*
X457721Y388161D01*
X457694Y388205D01*
X457678Y388235D01*
X457676Y388238D01*
Y444891D01*
X461476Y448691D01*
X463324Y447925D01*
Y410904D01*
X463324Y410904D01*
X463499Y410025D01*
Y407975D01*
X463324Y407096D01*
X463324Y407096D01*
Y398207D01*
X463324Y398207D01*
X463527Y397183D01*
X463900Y396625D01*
Y395185D01*
X464524Y393677D01*
X465678Y392524D01*
X467184Y391900D01*
X468815D01*
X470322Y392524D01*
X471476Y393677D01*
X472100Y395185D01*
Y396815D01*
X471476Y398322D01*
X470322Y399476D01*
X468815Y400100D01*
X468676D01*
Y406391D01*
X468851Y407271D01*
X468851Y407271D01*
Y410729D01*
X468851Y410729D01*
X468676Y411609D01*
Y449891D01*
X473103Y454318D01*
X473106Y454319D01*
X473139Y454329D01*
X473189Y454340D01*
X473259Y454351D01*
X473349Y454358D01*
X473517Y454361D01*
X473695Y454400D01*
X474315D01*
X475691Y453481D01*
Y450250D01*
X475691Y450250D01*
X475924Y449080D01*
X476587Y448087D01*
X487863Y436811D01*
X487867Y436806D01*
X487898Y436761D01*
X487900Y436758D01*
Y436184D01*
X488524Y434678D01*
X489678Y433524D01*
X491185Y432900D01*
X492816D01*
X494324Y431360D01*
Y428109D01*
X489108Y422892D01*
X488527Y422024D01*
X488324Y421000D01*
X488324Y421000D01*
Y341238D01*
X488322Y341235D01*
X488306Y341205D01*
X488278Y341161D01*
X488236Y341104D01*
X488178Y341035D01*
X488061Y340914D01*
X487963Y340761D01*
X487524Y340322D01*
X486900Y338816D01*
Y337184D01*
X487524Y335678D01*
X488678Y334524D01*
X490185Y333900D01*
X491816D01*
X493322Y334524D01*
X495269Y333933D01*
X495677Y333524D01*
X497184Y332900D01*
X498815D01*
X500322Y333524D01*
X501476Y334678D01*
X502100Y336185D01*
Y336843D01*
X502184Y336900D01*
X503816D01*
X505322Y337524D01*
X506476Y338678D01*
X507100Y340185D01*
Y341815D01*
X506476Y343322D01*
X505322Y344476D01*
X503816Y345100D01*
X503195D01*
X503018Y345139D01*
X502849Y345142D01*
X502759Y345149D01*
X502689Y345160D01*
X502639Y345171D01*
X502606Y345181D01*
X502603Y345182D01*
X501501Y346284D01*
Y415716D01*
X505476Y419691D01*
X507324Y418925D01*
Y418000D01*
X507323Y418000D01*
X507527Y416976D01*
X508107Y416107D01*
X526107Y398107D01*
X526107Y398107D01*
X526976Y397527D01*
X528000Y397324D01*
X547986D01*
X547986Y397323D01*
X549010Y397527D01*
X549879Y398107D01*
X550600Y398828D01*
X552959Y398359D01*
X553034Y398178D01*
X553119Y398092D01*
X553128Y398077D01*
X553253Y397803D01*
X553279Y397730D01*
X553304Y397650D01*
X553320Y397584D01*
X553324Y397566D01*
Y384609D01*
X553149Y383729D01*
X553149Y383729D01*
Y380271D01*
X553149Y380271D01*
X553324Y379391D01*
Y365238D01*
X553322Y365235D01*
X553306Y365205D01*
X553278Y365161D01*
X553236Y365104D01*
X553178Y365036D01*
X553061Y364914D01*
X552963Y364761D01*
X552524Y364323D01*
X551900Y362816D01*
Y361185D01*
X552524Y359678D01*
X553678Y358524D01*
X555185Y357900D01*
X556815D01*
X558322Y358524D01*
X559476Y359678D01*
X560100Y361185D01*
Y362816D01*
X559476Y364323D01*
X559037Y364761D01*
X558939Y364914D01*
X558822Y365036D01*
X558764Y365104D01*
X558722Y365161D01*
X558694Y365205D01*
X558678Y365235D01*
X558676Y365238D01*
Y380095D01*
X558676Y380096D01*
X558501Y380975D01*
Y383024D01*
X558676Y383904D01*
X558676Y383904D01*
Y386065D01*
X559800Y387600D01*
X563500D01*
Y392600D01*
X566500D01*
Y387600D01*
X568291D01*
Y385033D01*
X568291Y385033D01*
X568494Y384009D01*
X569075Y383140D01*
X571824Y380391D01*
Y355609D01*
X562897Y346682D01*
X562895Y346681D01*
X562861Y346671D01*
X562811Y346660D01*
X562741Y346649D01*
X562651Y346642D01*
X562482Y346639D01*
X562305Y346600D01*
X561684D01*
X560177Y345976D01*
X559024Y344822D01*
X558400Y343316D01*
Y341684D01*
X559024Y340178D01*
X559524Y339678D01*
X559839Y337164D01*
X535587Y312913D01*
X534924Y311921D01*
X534691Y310750D01*
X534691Y310750D01*
Y274750D01*
Y264250D01*
X534691Y264250D01*
X534924Y263079D01*
X535587Y262087D01*
X538326Y259349D01*
X538400Y259256D01*
Y259184D01*
X539024Y257677D01*
X540178Y256524D01*
X541684Y255900D01*
X543316D01*
X544823Y256524D01*
X545976Y257677D01*
X546600Y259184D01*
Y260816D01*
X545976Y262322D01*
X544823Y263476D01*
X543316Y264100D01*
X542226D01*
X540809Y265517D01*
Y268780D01*
X542809Y270056D01*
X543185Y269900D01*
X544815D01*
X546323Y270524D01*
X547476Y271677D01*
X548100Y273184D01*
Y274816D01*
X547476Y276322D01*
X547070Y276728D01*
X547069Y276731D01*
X547065Y276758D01*
X547059Y276819D01*
Y302733D01*
X555653Y311327D01*
X556684Y310900D01*
X558316D01*
X559823Y311524D01*
X559943Y311645D01*
X561250Y312498D01*
X562557Y311645D01*
X562677Y311524D01*
X563374Y311236D01*
X563389Y311224D01*
X563416Y311198D01*
X563433Y311187D01*
X563448Y311176D01*
X563459Y311170D01*
X563802Y310872D01*
X607087Y267587D01*
X607087Y267587D01*
X616941Y257733D01*
Y250791D01*
X616940Y250785D01*
X616931Y250731D01*
X616930Y250728D01*
X616524Y250322D01*
X615900Y248815D01*
Y247184D01*
X616524Y245678D01*
X617678Y244524D01*
X619184Y243900D01*
X620816D01*
X622323Y244524D01*
X623476Y245678D01*
X624100Y247184D01*
Y248815D01*
X623476Y250322D01*
X623070Y250728D01*
X623069Y250731D01*
X623064Y250758D01*
X623059Y250819D01*
Y259000D01*
X623059Y259000D01*
X622826Y260170D01*
X622163Y261163D01*
X622163Y261163D01*
X616398Y266928D01*
X616605Y268610D01*
X616961Y269193D01*
X618061Y269366D01*
X619184Y268900D01*
X620816D01*
X621688Y269261D01*
X623570Y268625D01*
X623966Y268339D01*
X624196Y267530D01*
X623900Y266815D01*
Y265184D01*
X624524Y263678D01*
X625677Y262524D01*
X627184Y261900D01*
X628815D01*
X630322Y262524D01*
X631476Y263678D01*
X632100Y265184D01*
Y266815D01*
X631476Y268323D01*
X631070Y268728D01*
X631069Y268731D01*
X631064Y268758D01*
X631059Y268819D01*
Y277000D01*
X631059Y277000D01*
X630826Y278171D01*
X630163Y279163D01*
X630163Y279163D01*
X618556Y290770D01*
X619520Y292359D01*
X619654Y292500D01*
X621595D01*
X623432Y293261D01*
X624839Y294668D01*
X625600Y296505D01*
Y298495D01*
X624839Y300332D01*
X623432Y301739D01*
X621595Y302500D01*
X619605D01*
X617768Y301739D01*
X616361Y300332D01*
X615600Y298495D01*
Y296554D01*
X615459Y296420D01*
X613870Y295456D01*
X595809Y313517D01*
Y322565D01*
X597678Y323524D01*
X599184Y322900D01*
X600816D01*
X602322Y323524D01*
X603476Y324678D01*
X604100Y326185D01*
Y327816D01*
X603476Y329323D01*
X603037Y329761D01*
X602939Y329914D01*
X602822Y330036D01*
X602764Y330104D01*
X602721Y330161D01*
X602694Y330205D01*
X602678Y330235D01*
X602676Y330238D01*
Y342385D01*
X604524Y343150D01*
X604837Y342837D01*
X605830Y342174D01*
X607000Y341941D01*
X607000Y341941D01*
X625148D01*
X625900Y340816D01*
Y339184D01*
X626524Y337678D01*
X627678Y336524D01*
X629184Y335900D01*
X630816D01*
X632323Y336524D01*
X632728Y336930D01*
X632731Y336931D01*
X632758Y336936D01*
X632819Y336941D01*
X638733D01*
X652727Y322948D01*
X652167Y320679D01*
X651677Y320476D01*
X650524Y319322D01*
X649900Y317815D01*
Y316185D01*
X650524Y314678D01*
X651677Y313524D01*
X653184Y312900D01*
X654816D01*
X656322Y313524D01*
X657476Y314678D01*
X657679Y315167D01*
X659948Y315727D01*
X680598Y295076D01*
X680624Y294945D01*
X681287Y293952D01*
X683952Y291287D01*
X683952Y291287D01*
X684945Y290624D01*
X685076Y290598D01*
X711837Y263837D01*
X712830Y263174D01*
X714000Y262941D01*
X714000Y262941D01*
X819000D01*
X819000Y262941D01*
X820171Y263174D01*
X821163Y263837D01*
X834827Y277501D01*
X834851Y277521D01*
X835082Y277664D01*
X835429Y277822D01*
X835891Y277980D01*
X836468Y278125D01*
X837153Y278249D01*
X837922Y278345D01*
X839841Y278456D01*
X840935Y278461D01*
X841125Y278500D01*
X842251D01*
X844667Y279147D01*
X846833Y280398D01*
X848602Y282167D01*
X849853Y284333D01*
X850500Y286749D01*
Y289251D01*
X849853Y291667D01*
X848602Y293833D01*
X846833Y295602D01*
X844667Y296852D01*
X844248Y296965D01*
Y299035D01*
X844667Y299147D01*
X846833Y300398D01*
X848602Y302167D01*
X849853Y304333D01*
X850500Y306749D01*
Y307000D01*
X841000D01*
Y309000D01*
X850500D01*
Y309251D01*
X849853Y311667D01*
X848602Y313833D01*
X846833Y315602D01*
X844667Y316853D01*
X843089Y317275D01*
X842363Y319379D01*
X898474Y375489D01*
X898824Y375757D01*
X904242Y381176D01*
X904511Y381526D01*
X922992Y400008D01*
X924115Y401470D01*
X924820Y403173D01*
X925060Y405000D01*
Y456394D01*
X924820Y458221D01*
X924115Y459924D01*
X923710Y460451D01*
X924696Y462451D01*
X947451D01*
Y317039D01*
X920000D01*
X919220Y316884D01*
X918558Y316442D01*
X918116Y315780D01*
X917961Y315000D01*
Y227549D01*
X328223D01*
X327617Y229549D01*
X329562Y230849D01*
X331651Y232938D01*
X333293Y235395D01*
X334423Y238125D01*
X335000Y241023D01*
Y243977D01*
X334423Y246875D01*
X333293Y249605D01*
X331651Y252062D01*
X329562Y254151D01*
X327105Y255793D01*
X324375Y256924D01*
X321477Y257500D01*
X318523D01*
X315625Y256924D01*
X312895Y255793D01*
X310438Y254151D01*
X308349Y252062D01*
X306707Y249605D01*
X305576Y246875D01*
X305000Y243977D01*
Y241023D01*
X305576Y238125D01*
X306707Y235395D01*
X308349Y232938D01*
X310438Y230849D01*
X312383Y229549D01*
X311777Y227549D01*
X232549D01*
Y250000D01*
X232355Y250975D01*
X231802Y251802D01*
X230975Y252355D01*
X230000Y252549D01*
X202549D01*
Y687451D01*
X230000D01*
X230975Y687645D01*
X231802Y688198D01*
X232355Y689025D01*
X232549Y690000D01*
Y712451D01*
X557552Y712451D01*
X558380Y710451D01*
X558261Y710332D01*
X557500Y708495D01*
Y706505D01*
X558261Y704668D01*
X559668Y703261D01*
X561505Y702500D01*
X563495D01*
X565332Y703261D01*
X566739Y704668D01*
X567500Y706505D01*
Y708495D01*
X566739Y710332D01*
X566620Y710451D01*
X567448Y712451D01*
X672552Y712451D01*
X673380Y710451D01*
X672761Y709832D01*
X672000Y707995D01*
Y706005D01*
X672428Y704971D01*
X670733Y703838D01*
X670332Y704239D01*
X668495Y705000D01*
X666505D01*
X664668Y704239D01*
X663261Y702832D01*
X662500Y700995D01*
Y699005D01*
X663261Y697168D01*
X664668Y695761D01*
X666505Y695000D01*
X668495D01*
X670332Y695761D01*
X671739Y697168D01*
X672500Y699005D01*
Y700995D01*
X672072Y702029D01*
X673767Y703162D01*
X674168Y702761D01*
X676005Y702000D01*
X677995D01*
X679832Y702761D01*
X681239Y704168D01*
X682000Y706005D01*
Y707995D01*
X681239Y709832D01*
X680620Y710451D01*
X681448Y712451D01*
X780552D01*
X781380Y710451D01*
D02*
G37*
G36*
X928202Y710451D02*
X927274Y709831D01*
X927096Y709654D01*
X926888Y709514D01*
X925495Y708121D01*
X925355Y707913D01*
X925178Y707735D01*
X924083Y706097D01*
X923987Y705865D01*
X923848Y705657D01*
X923094Y703837D01*
X923045Y703590D01*
X922949Y703359D01*
X922565Y701426D01*
Y701176D01*
X922516Y700929D01*
Y698959D01*
X922565Y698713D01*
Y698462D01*
X922949Y696530D01*
X923045Y696298D01*
X923094Y696052D01*
X923848Y694232D01*
X923987Y694023D01*
X924083Y693791D01*
X925178Y692153D01*
X925355Y691976D01*
X925495Y691767D01*
X926888Y690374D01*
X927096Y690235D01*
X927274Y690057D01*
X928912Y688963D01*
X929144Y688867D01*
X929352Y688727D01*
X931172Y687974D01*
X931419Y687925D01*
X931650Y687829D01*
X933583Y687444D01*
X933833D01*
X934080Y687395D01*
X936050D01*
X936296Y687444D01*
X936547D01*
X938479Y687829D01*
X938711Y687925D01*
X938957Y687974D01*
X940777Y688727D01*
X940986Y688867D01*
X941218Y688963D01*
X942856Y690057D01*
X943033Y690235D01*
X943242Y690374D01*
X944635Y691767D01*
X944774Y691976D01*
X944952Y692154D01*
X945451Y692901D01*
X947451Y692294D01*
X947451Y497549D01*
X920000D01*
X919060Y498320D01*
Y503000D01*
X918820Y504827D01*
X918114Y506530D01*
X916992Y507993D01*
X893060Y531925D01*
Y675000D01*
X892820Y676827D01*
X892114Y678530D01*
X890993Y679992D01*
X868492Y702492D01*
X867030Y703615D01*
X865327Y704320D01*
X863500Y704560D01*
X790966D01*
X790000Y706005D01*
Y707995D01*
X789239Y709832D01*
X788620Y710451D01*
X789448Y712451D01*
X891777Y712451D01*
X892384Y710451D01*
X890438Y709151D01*
X888349Y707062D01*
X886707Y704605D01*
X885576Y701875D01*
X885000Y698977D01*
Y696023D01*
X885576Y693125D01*
X886707Y690395D01*
X888349Y687938D01*
X890438Y685849D01*
X892895Y684207D01*
X895625Y683076D01*
X898523Y682500D01*
X901477D01*
X904375Y683076D01*
X907105Y684207D01*
X909562Y685849D01*
X911651Y687938D01*
X913293Y690395D01*
X914424Y693125D01*
X915000Y696023D01*
Y698977D01*
X914424Y701875D01*
X913293Y704605D01*
X911651Y707062D01*
X909562Y709151D01*
X907616Y710451D01*
X908223Y712451D01*
X927595D01*
X928202Y710451D01*
D02*
G37*
G36*
X735000Y675000D02*
Y645000D01*
X730000Y640000D01*
X715000D01*
Y640000D01*
X710000Y645000D01*
Y676000D01*
X714000Y680000D01*
X730000D01*
X735000Y675000D01*
D02*
G37*
G36*
X437104Y614748D02*
X437122Y614527D01*
X437154Y614316D01*
X437198Y614116D01*
X437257Y613926D01*
X437328Y613747D01*
X437414Y613578D01*
X437513Y613419D01*
X437625Y613271D01*
X437751Y613133D01*
X436867Y612249D01*
X436729Y612375D01*
X436581Y612487D01*
X436422Y612586D01*
X436253Y612672D01*
X436074Y612743D01*
X435884Y612802D01*
X435684Y612846D01*
X435473Y612878D01*
X435252Y612896D01*
X435021Y612900D01*
X437100Y614979D01*
X437104Y614748D01*
D02*
G37*
G36*
X513500Y588530D02*
X513334Y588690D01*
X513165Y588834D01*
X512994Y588961D01*
X512820Y589071D01*
X512645Y589164D01*
X512467Y589240D01*
X512287Y589299D01*
X512106Y589341D01*
X511922Y589366D01*
X511735Y589375D01*
Y590625D01*
X511922Y590633D01*
X512106Y590659D01*
X512287Y590701D01*
X512467Y590760D01*
X512645Y590836D01*
X512820Y590929D01*
X512994Y591039D01*
X513165Y591166D01*
X513334Y591309D01*
X513500Y591470D01*
Y588530D01*
D02*
G37*
G36*
X533500Y586030D02*
X533401Y586119D01*
X533289Y586199D01*
X533162Y586270D01*
X533022Y586331D01*
X532868Y586382D01*
X532701Y586425D01*
X532519Y586458D01*
X532324Y586481D01*
X532116Y586495D01*
X531893Y586500D01*
Y588500D01*
X532116Y588505D01*
X532519Y588542D01*
X532701Y588575D01*
X532868Y588618D01*
X533022Y588669D01*
X533162Y588730D01*
X533289Y588801D01*
X533401Y588881D01*
X533500Y588970D01*
Y586030D01*
D02*
G37*
G36*
X524237Y580544D02*
X524216Y580542D01*
X524182Y580525D01*
X524134Y580492D01*
X524074Y580445D01*
X523914Y580305D01*
X523436Y579843D01*
X522036Y581272D01*
X522925Y582176D01*
X524237Y580544D01*
D02*
G37*
G36*
X522500Y569530D02*
X522401Y569619D01*
X522289Y569699D01*
X522162Y569770D01*
X522022Y569831D01*
X521868Y569883D01*
X521701Y569925D01*
X521519Y569958D01*
X521325Y569981D01*
X521116Y569995D01*
X520893Y570000D01*
Y572000D01*
X521116Y572005D01*
X521519Y572042D01*
X521701Y572075D01*
X521868Y572118D01*
X522022Y572169D01*
X522162Y572230D01*
X522289Y572301D01*
X522401Y572381D01*
X522500Y572470D01*
Y569530D01*
D02*
G37*
G36*
X502573Y561944D02*
X502482Y561955D01*
X502385Y561950D01*
X502284Y561929D01*
X502178Y561893D01*
X502067Y561842D01*
X501952Y561775D01*
X501832Y561692D01*
X501707Y561594D01*
X501577Y561480D01*
X501442Y561351D01*
X500558Y562235D01*
X500675Y562357D01*
X500775Y562476D01*
X500861Y562591D01*
X500931Y562702D01*
X500985Y562809D01*
X501024Y562913D01*
X501047Y563013D01*
X501055Y563110D01*
X501047Y563202D01*
X501023Y563291D01*
X502573Y561944D01*
D02*
G37*
G36*
X514979Y561900D02*
X514748Y561896D01*
X514527Y561878D01*
X514316Y561847D01*
X514116Y561802D01*
X513926Y561743D01*
X513747Y561671D01*
X513578Y561586D01*
X513419Y561488D01*
X513271Y561375D01*
X513133Y561249D01*
X512249Y562133D01*
X512375Y562271D01*
X512487Y562419D01*
X512586Y562578D01*
X512672Y562747D01*
X512743Y562926D01*
X512802Y563116D01*
X512846Y563316D01*
X512878Y563527D01*
X512896Y563748D01*
X512900Y563979D01*
X514979Y561900D01*
D02*
G37*
G36*
X508979D02*
X508748Y561896D01*
X508527Y561878D01*
X508316Y561847D01*
X508116Y561802D01*
X507926Y561743D01*
X507747Y561671D01*
X507578Y561586D01*
X507419Y561488D01*
X507271Y561375D01*
X507133Y561249D01*
X506250Y562133D01*
X506375Y562271D01*
X506488Y562419D01*
X506586Y562578D01*
X506672Y562747D01*
X506743Y562926D01*
X506802Y563116D01*
X506847Y563316D01*
X506878Y563527D01*
X506896Y563748D01*
X506900Y563979D01*
X508979Y561900D01*
D02*
G37*
G36*
X481979Y551900D02*
X481748Y551896D01*
X481527Y551878D01*
X481316Y551847D01*
X481116Y551802D01*
X480926Y551743D01*
X480747Y551672D01*
X480578Y551586D01*
X480419Y551488D01*
X480271Y551375D01*
X480133Y551250D01*
X479249Y552133D01*
X479375Y552271D01*
X479487Y552419D01*
X479586Y552578D01*
X479672Y552747D01*
X479743Y552926D01*
X479802Y553116D01*
X479846Y553316D01*
X479878Y553527D01*
X479896Y553748D01*
X479900Y553979D01*
X481979Y551900D01*
D02*
G37*
G36*
X459104Y534748D02*
X459122Y534527D01*
X459154Y534316D01*
X459198Y534116D01*
X459257Y533926D01*
X459328Y533747D01*
X459414Y533578D01*
X459512Y533419D01*
X459625Y533271D01*
X459751Y533133D01*
X458867Y532249D01*
X458729Y532375D01*
X458581Y532487D01*
X458422Y532586D01*
X458253Y532672D01*
X458074Y532743D01*
X457884Y532802D01*
X457684Y532846D01*
X457473Y532878D01*
X457252Y532896D01*
X457021Y532900D01*
X459100Y534979D01*
X459104Y534748D01*
D02*
G37*
G36*
X544579Y521981D02*
X544397Y521919D01*
X544235Y521842D01*
X544092Y521749D01*
X543968Y521641D01*
X543863Y521518D01*
X543778Y521379D01*
X543711Y521226D01*
X543663Y521057D01*
X543634Y520873D01*
X543625Y520674D01*
X542375Y520893D01*
X542371Y521167D01*
X542318Y521944D01*
X542285Y522190D01*
X542145Y522884D01*
X542084Y523101D01*
X542016Y523312D01*
X544579Y521981D01*
D02*
G37*
G36*
X465104Y521748D02*
X465122Y521527D01*
X465154Y521316D01*
X465198Y521116D01*
X465257Y520926D01*
X465328Y520747D01*
X465414Y520578D01*
X465513Y520419D01*
X465625Y520271D01*
X465751Y520133D01*
X464867Y519249D01*
X464729Y519375D01*
X464581Y519487D01*
X464422Y519586D01*
X464253Y519672D01*
X464074Y519743D01*
X463884Y519802D01*
X463684Y519846D01*
X463473Y519878D01*
X463252Y519896D01*
X463021Y519900D01*
X465100Y521979D01*
X465104Y521748D01*
D02*
G37*
G36*
X477634Y514078D02*
X477659Y513894D01*
X477701Y513713D01*
X477760Y513533D01*
X477836Y513355D01*
X477929Y513180D01*
X478039Y513006D01*
X478166Y512835D01*
X478310Y512666D01*
X478470Y512500D01*
X475530D01*
X475691Y512666D01*
X475834Y512835D01*
X475961Y513006D01*
X476071Y513180D01*
X476164Y513355D01*
X476240Y513533D01*
X476299Y513713D01*
X476341Y513894D01*
X476367Y514078D01*
X476375Y514265D01*
X477625D01*
X477634Y514078D01*
D02*
G37*
G36*
X641755Y516450D02*
X642130Y510050D01*
X642219Y509969D01*
X633280D01*
X633370Y510050D01*
X633450Y510289D01*
X633520Y510690D01*
X633581Y511250D01*
X633708Y513890D01*
X633750Y517970D01*
X641750D01*
X641755Y516450D01*
D02*
G37*
G36*
X483979Y509900D02*
X483748Y509896D01*
X483527Y509878D01*
X483316Y509846D01*
X483116Y509802D01*
X482926Y509743D01*
X482747Y509672D01*
X482578Y509586D01*
X482419Y509487D01*
X482271Y509375D01*
X482133Y509249D01*
X481250Y510133D01*
X481375Y510271D01*
X481488Y510419D01*
X481586Y510578D01*
X481672Y510747D01*
X481743Y510926D01*
X481802Y511116D01*
X481847Y511316D01*
X481878Y511527D01*
X481896Y511748D01*
X481900Y511979D01*
X483979Y509900D01*
D02*
G37*
G36*
X472633Y510079D02*
X472659Y509894D01*
X472701Y509712D01*
X472760Y509533D01*
X472836Y509355D01*
X472929Y509180D01*
X473039Y509006D01*
X473166Y508835D01*
X473309Y508666D01*
X473470Y508500D01*
X470530D01*
X470690Y508666D01*
X470834Y508835D01*
X470961Y509006D01*
X471071Y509180D01*
X471164Y509355D01*
X471240Y509533D01*
X471299Y509712D01*
X471341Y509894D01*
X471367Y510079D01*
X471375Y510265D01*
X472625D01*
X472633Y510079D01*
D02*
G37*
G36*
X467634Y507079D02*
X467659Y506894D01*
X467701Y506712D01*
X467760Y506533D01*
X467836Y506355D01*
X467929Y506180D01*
X468039Y506006D01*
X468166Y505835D01*
X468310Y505667D01*
X468470Y505500D01*
X465530D01*
X465691Y505667D01*
X465834Y505835D01*
X465961Y506006D01*
X466071Y506180D01*
X466164Y506355D01*
X466240Y506533D01*
X466299Y506712D01*
X466341Y506894D01*
X466367Y507079D01*
X466375Y507265D01*
X467625D01*
X467634Y507079D01*
D02*
G37*
G36*
X487500Y504530D02*
X487334Y504691D01*
X487165Y504834D01*
X486994Y504961D01*
X486820Y505071D01*
X486645Y505164D01*
X486467Y505240D01*
X486287Y505299D01*
X486106Y505341D01*
X485922Y505367D01*
X485735Y505375D01*
Y506625D01*
X485922Y506633D01*
X486106Y506659D01*
X486287Y506701D01*
X486467Y506760D01*
X486645Y506836D01*
X486820Y506929D01*
X486994Y507039D01*
X487165Y507166D01*
X487334Y507309D01*
X487500Y507470D01*
Y504530D01*
D02*
G37*
G36*
X491628Y500410D02*
X491445Y500560D01*
X491262Y500695D01*
X491079Y500813D01*
X490896Y500916D01*
X490713Y501003D01*
X490530Y501074D01*
X490347Y501129D01*
X490164Y501168D01*
X489981Y501192D01*
X489798Y501200D01*
X489689Y502450D01*
X489878Y502459D01*
X490063Y502486D01*
X490243Y502530D01*
X490419Y502592D01*
X490591Y502673D01*
X490758Y502770D01*
X490921Y502886D01*
X491079Y503019D01*
X491233Y503171D01*
X491383Y503340D01*
X491628Y500410D01*
D02*
G37*
G36*
X495628Y496410D02*
X495445Y496560D01*
X495262Y496694D01*
X495079Y496813D01*
X494896Y496916D01*
X494713Y497002D01*
X494530Y497074D01*
X494347Y497129D01*
X494164Y497168D01*
X493981Y497192D01*
X493798Y497200D01*
X493689Y498450D01*
X493878Y498459D01*
X494063Y498486D01*
X494243Y498530D01*
X494419Y498592D01*
X494591Y498672D01*
X494758Y498770D01*
X494921Y498886D01*
X495079Y499020D01*
X495233Y499171D01*
X495383Y499340D01*
X495628Y496410D01*
D02*
G37*
G36*
X627265Y500830D02*
X627330Y500031D01*
X628719D01*
X628440Y499971D01*
X628190Y499790D01*
X627970Y499491D01*
X627779Y499071D01*
X627617Y498531D01*
X627511Y498000D01*
X627617Y497469D01*
X627779Y496930D01*
X627970Y496510D01*
X628190Y496209D01*
X628440Y496030D01*
X628719Y495970D01*
X627314D01*
X627265Y495171D01*
X627250Y494030D01*
X621250D01*
X621235Y495171D01*
X621170Y495970D01*
X619781D01*
X620060Y496030D01*
X620309Y496209D01*
X620530Y496510D01*
X620721Y496930D01*
X620883Y497469D01*
X620989Y498000D01*
X620883Y498531D01*
X620721Y499071D01*
X620530Y499491D01*
X620309Y499790D01*
X620060Y499971D01*
X619781Y500031D01*
X621186D01*
X621235Y500830D01*
X621250Y501969D01*
X627250D01*
X627265Y500830D01*
D02*
G37*
G36*
X499433Y492602D02*
X499321Y492715D01*
X499198Y492817D01*
X499064Y492907D01*
X498920Y492985D01*
X498764Y493050D01*
X498598Y493104D01*
X498421Y493146D01*
X498233Y493176D01*
X498035Y493194D01*
X497825Y493200D01*
Y494450D01*
X498015Y494457D01*
X498194Y494477D01*
X498361Y494510D01*
X498518Y494557D01*
X498663Y494617D01*
X498797Y494691D01*
X498920Y494777D01*
X499032Y494878D01*
X499133Y494991D01*
X499223Y495118D01*
X499433Y492602D01*
D02*
G37*
G36*
X504232Y489866D02*
X503391Y489862D01*
Y491112D01*
X503489Y491113D01*
X503858Y491136D01*
X503884Y491143D01*
X503900Y491152D01*
X503906Y491161D01*
X504232Y489866D01*
D02*
G37*
G36*
X546766Y491130D02*
X546914Y491017D01*
X547073Y490919D01*
X547242Y490833D01*
X547421Y490761D01*
X547611Y490703D01*
X547811Y490658D01*
X548022Y490627D01*
X548243Y490609D01*
X548474Y490605D01*
X546395Y488526D01*
X546391Y488757D01*
X546373Y488978D01*
X546342Y489189D01*
X546297Y489389D01*
X546239Y489579D01*
X546167Y489758D01*
X546081Y489927D01*
X545983Y490086D01*
X545870Y490234D01*
X545745Y490372D01*
X546628Y491255D01*
X546766Y491130D01*
D02*
G37*
G36*
X505185Y486900D02*
X506815D01*
X507499Y486444D01*
Y442665D01*
X505499Y442267D01*
X505476Y442323D01*
X504323Y443476D01*
X502816Y444100D01*
X501185D01*
X501012Y444029D01*
X500476Y445322D01*
X499322Y446476D01*
X497816Y447100D01*
X496185D01*
X494678Y446476D01*
X493524Y445322D01*
X492900Y443815D01*
Y443254D01*
X490900Y442426D01*
X481809Y451517D01*
Y460709D01*
X481810Y460715D01*
X481819Y460769D01*
X481820Y460772D01*
X482226Y461177D01*
X482850Y462684D01*
Y464315D01*
X482226Y465822D01*
X481073Y466976D01*
X480855Y468070D01*
X499934Y487149D01*
X502729D01*
X502729Y487149D01*
X503754Y487352D01*
X503883Y487439D01*
X505185Y486900D01*
D02*
G37*
G36*
X626281Y486021D02*
X625968Y485904D01*
X625691Y485709D01*
X625452Y485438D01*
X625249Y485089D01*
X625084Y484663D01*
X624955Y484160D01*
X624863Y483580D01*
X624807Y482923D01*
X624789Y482189D01*
X620789D01*
X620779Y482919D01*
X620628Y484647D01*
X620537Y485070D01*
X620426Y485416D01*
X620295Y485685D01*
X620144Y485877D01*
X619972Y485992D01*
X619781Y486031D01*
X626631Y486061D01*
X626281Y486021D01*
D02*
G37*
G36*
X623839Y479837D02*
X623950Y478355D01*
X624016Y477993D01*
X624098Y477696D01*
X624193Y477466D01*
X624304Y477301D01*
X624429Y477202D01*
X624570Y477169D01*
X618630D01*
X618859Y477202D01*
X619063Y477301D01*
X619243Y477466D01*
X619399Y477696D01*
X619532Y477993D01*
X619640Y478355D01*
X619724Y478783D01*
X619784Y479277D01*
X619820Y479837D01*
X619832Y480463D01*
X623832D01*
X623839Y479837D01*
D02*
G37*
G36*
X623380Y470861D02*
X623120Y471065D01*
X622807Y471168D01*
X622442Y471170D01*
X622025Y471071D01*
X621557Y470871D01*
X621035Y470569D01*
X620462Y470168D01*
X619837Y469664D01*
X618430Y468356D01*
X616156Y471031D01*
X616843Y471742D01*
X617926Y473021D01*
X618322Y473588D01*
X618621Y474107D01*
X618823Y474578D01*
X618928Y475000D01*
X618936Y475375D01*
X618847Y475702D01*
X618661Y475980D01*
X623380Y470861D01*
D02*
G37*
G36*
X594800Y492200D02*
Y486400D01*
X595600D01*
X597000Y485000D01*
X615000D01*
X616000Y484000D01*
Y473902D01*
X615474Y473281D01*
X612193Y470000D01*
X604000D01*
X601000Y473000D01*
Y475000D01*
X598000Y478000D01*
X577000D01*
X576000Y477000D01*
Y472000D01*
X575000Y471000D01*
X574033Y470033D01*
X574000Y470039D01*
X574000D01*
D01*
X563961D01*
X562813Y471186D01*
X562439Y472090D01*
Y472910D01*
X562884Y473984D01*
X562884Y473984D01*
X563008Y474609D01*
X563039Y474764D01*
Y474764D01*
D01*
Y486000D01*
X581000D01*
X582000Y487000D01*
Y487400D01*
X582200D01*
Y492200D01*
X583000Y493000D01*
X594000D01*
X594800Y492200D01*
D02*
G37*
G36*
X561000Y489000D02*
Y474764D01*
X560400Y473316D01*
Y471684D01*
X561000Y470236D01*
Y470000D01*
X563000Y468000D01*
X574000D01*
X575000Y467000D01*
Y463000D01*
X574000Y462000D01*
X560400D01*
Y464200D01*
X553000D01*
Y489000D01*
X555000Y491000D01*
X559000D01*
X561000Y489000D01*
D02*
G37*
G36*
X480131Y461901D02*
X480051Y461789D01*
X479980Y461662D01*
X479919Y461522D01*
X479868Y461368D01*
X479825Y461201D01*
X479792Y461019D01*
X479769Y460825D01*
X479755Y460616D01*
X479750Y460393D01*
X477750D01*
X477745Y460616D01*
X477708Y461019D01*
X477675Y461201D01*
X477632Y461368D01*
X477581Y461522D01*
X477520Y461662D01*
X477449Y461789D01*
X477369Y461901D01*
X477280Y462000D01*
X480220D01*
X480131Y461901D01*
D02*
G37*
G36*
X634092Y460801D02*
X633844Y460710D01*
X633625Y460560D01*
X633435Y460350D01*
X633274Y460080D01*
X633143Y459751D01*
X633041Y459361D01*
X632982Y459002D01*
X633044Y458628D01*
X633149Y458234D01*
X633284Y457901D01*
X633449Y457628D01*
X633644Y457415D01*
X633869Y457263D01*
X634124Y457171D01*
X634409Y457139D01*
X628931Y457169D01*
X629116Y457200D01*
X629283Y457290D01*
X629430Y457439D01*
X629557Y457649D01*
X629665Y457920D01*
X629753Y458250D01*
X629821Y458639D01*
X629850Y458908D01*
X629850Y458910D01*
X629776Y459361D01*
X629673Y459751D01*
X629540Y460080D01*
X629377Y460350D01*
X629185Y460560D01*
X628963Y460710D01*
X628711Y460801D01*
X628430Y460830D01*
X634370D01*
X634092Y460801D01*
D02*
G37*
G36*
X473479Y456400D02*
X473248Y456396D01*
X473027Y456378D01*
X472816Y456347D01*
X472616Y456302D01*
X472426Y456243D01*
X472247Y456172D01*
X472078Y456086D01*
X471919Y455988D01*
X471771Y455875D01*
X471633Y455750D01*
X470750Y456633D01*
X470875Y456771D01*
X470988Y456919D01*
X471086Y457078D01*
X471171Y457247D01*
X471243Y457426D01*
X471302Y457616D01*
X471347Y457816D01*
X471378Y458027D01*
X471396Y458248D01*
X471400Y458479D01*
X473479Y456400D01*
D02*
G37*
G36*
X498309Y441334D02*
X498166Y441165D01*
X498039Y440994D01*
X497929Y440820D01*
X497836Y440645D01*
X497760Y440467D01*
X497701Y440288D01*
X497659Y440106D01*
X497633Y439921D01*
X497625Y439735D01*
X496375D01*
X496367Y439921D01*
X496341Y440106D01*
X496299Y440288D01*
X496240Y440467D01*
X496164Y440645D01*
X496071Y440820D01*
X495961Y440994D01*
X495834Y441165D01*
X495691Y441334D01*
X495530Y441500D01*
X498470D01*
X498309Y441334D01*
D02*
G37*
G36*
X490671Y439750D02*
X490983Y439491D01*
X491134Y439386D01*
X491283Y439298D01*
X491428Y439225D01*
X491570Y439170D01*
X491710Y439130D01*
X491846Y439107D01*
X491979Y439100D01*
X489900Y437021D01*
X489893Y437154D01*
X489870Y437290D01*
X489831Y437430D01*
X489775Y437572D01*
X489702Y437717D01*
X489614Y437866D01*
X489509Y438017D01*
X489388Y438172D01*
X489250Y438329D01*
X489096Y438490D01*
X490510Y439904D01*
X490671Y439750D01*
D02*
G37*
G36*
X503340Y438383D02*
X503171Y438233D01*
X503019Y438079D01*
X502886Y437921D01*
X502770Y437758D01*
X502673Y437591D01*
X502592Y437419D01*
X502530Y437243D01*
X502486Y437063D01*
X502459Y436878D01*
X502450Y436689D01*
X501200Y436798D01*
X501192Y436981D01*
X501168Y437164D01*
X501129Y437347D01*
X501074Y437530D01*
X501003Y437713D01*
X500916Y437896D01*
X500813Y438079D01*
X500695Y438262D01*
X500560Y438445D01*
X500410Y438628D01*
X503340Y438383D01*
D02*
G37*
G36*
X598961Y474155D02*
Y473000D01*
X599116Y472220D01*
X599558Y471558D01*
X602558Y468558D01*
X602558Y468558D01*
X603220Y468116D01*
X604000Y467961D01*
X607409D01*
X607496Y467904D01*
X608468Y465963D01*
X608177Y464500D01*
X608468Y463037D01*
X609013Y462220D01*
X609029Y462182D01*
X609209Y461319D01*
X608933Y459817D01*
X607558Y458442D01*
X607116Y457780D01*
X606961Y457000D01*
Y431633D01*
X606375Y431133D01*
X604961Y430367D01*
X604600Y430439D01*
X604090D01*
X603016Y430884D01*
X603016Y430884D01*
X602236Y431039D01*
X598764D01*
X597984Y430884D01*
X597984Y430884D01*
X596910Y430439D01*
X596090D01*
X595333Y430753D01*
X594753Y431333D01*
X594439Y432090D01*
Y432900D01*
X594284Y433680D01*
X593842Y434342D01*
X593180Y434784D01*
X592400Y434939D01*
X584600D01*
X583820Y434784D01*
X583158Y434342D01*
X582716Y433680D01*
X582561Y432900D01*
Y432090D01*
X582247Y431333D01*
X581667Y430753D01*
X580910Y430439D01*
X580090D01*
X579557Y430660D01*
X579557Y430660D01*
X578776Y430815D01*
X577996Y430660D01*
X577334Y430218D01*
X575558Y428442D01*
X574822Y427976D01*
X573316Y428600D01*
X571684D01*
X570177Y427976D01*
X568629Y429255D01*
X568442Y429442D01*
X567780Y429884D01*
X567000Y430039D01*
X562845D01*
X562039Y430845D01*
Y434155D01*
X562845Y434961D01*
X574000D01*
X574000Y434961D01*
X574780Y435116D01*
X575442Y435558D01*
X575442Y435558D01*
X576442Y436558D01*
X576884Y437220D01*
X577039Y438000D01*
Y443000D01*
X576884Y443780D01*
X576600Y444205D01*
Y451716D01*
X577442Y452558D01*
X577884Y453220D01*
X578039Y454000D01*
Y459000D01*
X578039Y459000D01*
X577884Y459780D01*
X577442Y460442D01*
X576442Y461558D01*
X576884Y462220D01*
X577039Y463000D01*
Y467000D01*
X577039Y467000D01*
X576884Y467780D01*
X576442Y468442D01*
X577082Y470199D01*
X577442Y470558D01*
X577884Y471220D01*
X578039Y472000D01*
Y475961D01*
X597155D01*
X598961Y474155D01*
D02*
G37*
G36*
X507309Y434333D02*
X507166Y434165D01*
X507039Y433994D01*
X506929Y433820D01*
X506836Y433645D01*
X506760Y433467D01*
X506701Y433288D01*
X506659Y433106D01*
X506633Y432921D01*
X506625Y432735D01*
X505375D01*
X505367Y432921D01*
X505341Y433106D01*
X505299Y433288D01*
X505240Y433467D01*
X505164Y433645D01*
X505071Y433820D01*
X504961Y433994D01*
X504834Y434165D01*
X504691Y434333D01*
X504530Y434500D01*
X507470D01*
X507309Y434333D01*
D02*
G37*
G36*
X592400Y431684D02*
X593024Y430177D01*
X594178Y429024D01*
X595684Y428400D01*
X597315D01*
X598764Y429000D01*
X602236D01*
X603684Y428400D01*
X604600D01*
X606961Y426039D01*
Y425000D01*
X607116Y424220D01*
X607558Y423558D01*
X607558Y423558D01*
X612158Y418958D01*
X612820Y418516D01*
X613600Y418361D01*
X614411D01*
Y417550D01*
X614566Y416770D01*
X615008Y416108D01*
X615600Y415516D01*
Y412069D01*
X614707D01*
X613342Y411797D01*
X613150Y411669D01*
X612950D01*
X612605Y411600D01*
X607198D01*
X606822Y411976D01*
X605316Y412600D01*
X604400D01*
X602000Y415000D01*
X601057D01*
X600600Y415685D01*
Y417315D01*
X599976Y418823D01*
X598822Y419976D01*
X597315Y420600D01*
X595684D01*
X594178Y419976D01*
X593024Y418823D01*
X592400Y417315D01*
Y415685D01*
X592009Y415100D01*
X587995D01*
X587843Y415130D01*
X587237Y415737D01*
X586079Y416510D01*
X585402Y416645D01*
X584507Y417539D01*
X583976Y418823D01*
X582822Y419976D01*
X581316Y420600D01*
X579684D01*
X578178Y419976D01*
X577000Y420594D01*
Y427000D01*
X578776Y428776D01*
X579684Y428400D01*
X581316D01*
X582822Y429024D01*
X583976Y430177D01*
X584600Y431684D01*
Y432900D01*
X592400D01*
Y431684D01*
D02*
G37*
G36*
X430553Y423334D02*
X430754Y423158D01*
X430845Y423090D01*
X430928Y423035D01*
X431005Y422994D01*
X431075Y422965D01*
X431138Y422950D01*
X431194Y422948D01*
X431243Y422959D01*
X430041Y421757D01*
X430052Y421806D01*
X430050Y421862D01*
X430035Y421925D01*
X430006Y421995D01*
X429965Y422072D01*
X429910Y422155D01*
X429842Y422246D01*
X429666Y422447D01*
X429558Y422558D01*
X430442Y423442D01*
X430553Y423334D01*
D02*
G37*
G36*
X632915Y423829D02*
X632660Y423737D01*
X632435Y423584D01*
X632240Y423372D01*
X632075Y423099D01*
X631940Y422765D01*
X631835Y422372D01*
X631760Y421918D01*
X631758Y421902D01*
X631807Y421250D01*
X631867Y420919D01*
X631941Y420649D01*
X632028Y420439D01*
X632128Y420289D01*
X632242Y420200D01*
X632369Y420169D01*
X627200Y420139D01*
X627485Y420171D01*
X627740Y420263D01*
X627965Y420415D01*
X628160Y420628D01*
X628325Y420901D01*
X628460Y421234D01*
X628565Y421628D01*
X628640Y422081D01*
X628650Y422193D01*
X628568Y423560D01*
X628527Y423711D01*
X628482Y423801D01*
X628430Y423830D01*
X633200Y423861D01*
X632915Y423829D01*
D02*
G37*
G36*
X626000Y449000D02*
X629000Y446000D01*
X629000D01*
Y435000D01*
X626000Y432000D01*
Y422200D01*
X624400D01*
Y414000D01*
X620000D01*
X616450Y417550D01*
Y420400D01*
X613600D01*
X609000Y425000D01*
X609000D01*
Y457000D01*
X612405Y460405D01*
X613320D01*
X614827Y461029D01*
X615981Y462182D01*
X616540Y463533D01*
X620007Y467000D01*
X626000D01*
Y449000D01*
D02*
G37*
G36*
X574604Y416248D02*
X574622Y416027D01*
X574654Y415816D01*
X574698Y415616D01*
X574757Y415426D01*
X574828Y415247D01*
X574914Y415078D01*
X575013Y414919D01*
X575125Y414771D01*
X575251Y414633D01*
X574367Y413750D01*
X574229Y413875D01*
X574081Y413988D01*
X573922Y414086D01*
X573753Y414172D01*
X573574Y414243D01*
X573384Y414302D01*
X573184Y414347D01*
X572973Y414378D01*
X572752Y414396D01*
X572521Y414400D01*
X574600Y416479D01*
X574604Y416248D01*
D02*
G37*
G36*
X558958Y460558D02*
X559620Y460116D01*
X560400Y459961D01*
X574000D01*
X574000Y459961D01*
X574780Y460116D01*
X574842Y460158D01*
X576000Y459000D01*
Y454000D01*
X573000Y451000D01*
Y445000D01*
X575000Y443000D01*
Y438000D01*
X574000Y437000D01*
X562000D01*
X560000Y435000D01*
Y430000D01*
X562000Y428000D01*
X567000D01*
X567973Y427027D01*
Y425741D01*
X561626Y419394D01*
X560742Y418070D01*
X560660Y417660D01*
X560000Y417000D01*
Y413000D01*
X551600D01*
Y421800D01*
Y431800D01*
Y442200D01*
X551000D01*
Y453800D01*
X551600D01*
Y460600D01*
X552000Y461000D01*
X558663D01*
X558958Y460558D01*
D02*
G37*
G36*
X433271Y411625D02*
X433419Y411512D01*
X433578Y411414D01*
X433747Y411328D01*
X433926Y411257D01*
X434116Y411198D01*
X434316Y411153D01*
X434527Y411122D01*
X434748Y411104D01*
X434979Y411100D01*
X432900Y409021D01*
X432896Y409252D01*
X432878Y409473D01*
X432846Y409684D01*
X432802Y409884D01*
X432743Y410074D01*
X432672Y410253D01*
X432586Y410422D01*
X432487Y410581D01*
X432375Y410729D01*
X432249Y410867D01*
X433133Y411750D01*
X433271Y411625D01*
D02*
G37*
G36*
X539086Y407469D02*
X538944Y407641D01*
X538796Y407795D01*
X538643Y407931D01*
X538485Y408049D01*
X538322Y408148D01*
X538153Y408230D01*
X537979Y408293D01*
X537799Y408339D01*
X537614Y408366D01*
X537424Y408375D01*
X537581Y409625D01*
X537762Y409633D01*
X537944Y409655D01*
X538128Y409694D01*
X538312Y409747D01*
X538497Y409816D01*
X538683Y409900D01*
X538870Y409999D01*
X539057Y410113D01*
X539246Y410243D01*
X539436Y410388D01*
X539086Y407469D01*
D02*
G37*
G36*
X581603Y406988D02*
X581398Y406922D01*
X581012Y406770D01*
X580830Y406683D01*
X580490Y406489D01*
X580332Y406382D01*
X580181Y406268D01*
X580038Y406147D01*
X579903Y406019D01*
X578808Y406692D01*
X578922Y406819D01*
X579017Y406951D01*
X579092Y407088D01*
X579147Y407230D01*
X579182Y407377D01*
X579198Y407529D01*
X579193Y407687D01*
X579169Y407850D01*
X579126Y408018D01*
X579062Y408191D01*
X581603Y406988D01*
D02*
G37*
G36*
X548729Y406650D02*
X548498Y406646D01*
X548277Y406628D01*
X548066Y406596D01*
X547866Y406552D01*
X547676Y406493D01*
X547497Y406422D01*
X547328Y406336D01*
X547169Y406237D01*
X547021Y406125D01*
X546883Y405999D01*
X545999Y406883D01*
X546125Y407021D01*
X546237Y407169D01*
X546336Y407328D01*
X546422Y407497D01*
X546493Y407676D01*
X546552Y407866D01*
X546596Y408066D01*
X546628Y408277D01*
X546646Y408498D01*
X546650Y408729D01*
X548729Y406650D01*
D02*
G37*
G36*
X556601Y406536D02*
X556369Y406531D01*
X556148Y406514D01*
X555938Y406482D01*
X555738Y406437D01*
X555548Y406379D01*
X555368Y406307D01*
X555200Y406222D01*
X555041Y406123D01*
X554893Y406011D01*
X554755Y405885D01*
X553871Y406769D01*
X553997Y406907D01*
X554109Y407055D01*
X554208Y407213D01*
X554293Y407382D01*
X554365Y407562D01*
X554424Y407752D01*
X554468Y407952D01*
X554500Y408162D01*
X554518Y408383D01*
X554522Y408615D01*
X556601Y406536D01*
D02*
G37*
G36*
X597631Y407151D02*
X597551Y407039D01*
X597480Y406912D01*
X597419Y406772D01*
X597368Y406618D01*
X597325Y406451D01*
X597292Y406269D01*
X597269Y406074D01*
X597255Y405866D01*
X597250Y405643D01*
X595250D01*
X595245Y405866D01*
X595208Y406269D01*
X595175Y406451D01*
X595132Y406618D01*
X595081Y406772D01*
X595020Y406912D01*
X594949Y407039D01*
X594869Y407151D01*
X594780Y407250D01*
X597720D01*
X597631Y407151D01*
D02*
G37*
G36*
X604479Y406400D02*
X604346Y406393D01*
X604210Y406370D01*
X604070Y406330D01*
X603928Y406275D01*
X603783Y406202D01*
X603634Y406114D01*
X603483Y406009D01*
X603329Y405888D01*
X603171Y405750D01*
X603010Y405596D01*
X601596Y407010D01*
X601750Y407171D01*
X602009Y407483D01*
X602114Y407634D01*
X602202Y407783D01*
X602275Y407928D01*
X602331Y408070D01*
X602370Y408210D01*
X602393Y408346D01*
X602400Y408479D01*
X604479Y406400D01*
D02*
G37*
G36*
X629885Y406897D02*
X629806Y406784D01*
X629735Y406657D01*
X629674Y406517D01*
X629622Y406363D01*
X629580Y406196D01*
X629547Y406015D01*
X629524Y405820D01*
X629510Y405611D01*
X629505Y405388D01*
X627505D01*
X627500Y405611D01*
X627463Y406015D01*
X627430Y406196D01*
X627387Y406363D01*
X627336Y406517D01*
X627275Y406657D01*
X627204Y406784D01*
X627124Y406897D01*
X627035Y406996D01*
X629975D01*
X629885Y406897D01*
D02*
G37*
G36*
X567012Y407609D02*
X567105Y406329D01*
X567187Y405810D01*
X567292Y405369D01*
X567421Y405009D01*
X567573Y404729D01*
X567748Y404529D01*
X567947Y404409D01*
X568170Y404370D01*
X561830D01*
X562053Y404409D01*
X562252Y404529D01*
X562427Y404729D01*
X562579Y405009D01*
X562708Y405369D01*
X562813Y405810D01*
X562895Y406329D01*
X562953Y406930D01*
X563000Y408369D01*
X567000D01*
X567012Y407609D01*
D02*
G37*
G36*
X605631Y399151D02*
X605551Y399039D01*
X605480Y398912D01*
X605419Y398772D01*
X605368Y398618D01*
X605325Y398451D01*
X605292Y398269D01*
X605269Y398074D01*
X605255Y397866D01*
X605250Y397643D01*
X603250D01*
X603245Y397866D01*
X603208Y398269D01*
X603175Y398451D01*
X603133Y398618D01*
X603081Y398772D01*
X603020Y398912D01*
X602949Y399039D01*
X602869Y399151D01*
X602780Y399250D01*
X605720D01*
X605631Y399151D01*
D02*
G37*
G36*
X557572Y398688D02*
X557392Y398573D01*
X557231Y398449D01*
X557089Y398316D01*
X556966Y398175D01*
X556862Y398025D01*
X556777Y397866D01*
X556710Y397698D01*
X556663Y397522D01*
X556634Y397337D01*
X556625Y397143D01*
X555375Y397473D01*
X555368Y397647D01*
X555349Y397826D01*
X555316Y398008D01*
X555270Y398195D01*
X555211Y398386D01*
X555139Y398581D01*
X554956Y398983D01*
X554844Y399190D01*
X554720Y399402D01*
X557572Y398688D01*
D02*
G37*
G36*
X466577Y398520D02*
X466832Y398308D01*
X466952Y398225D01*
X467067Y398158D01*
X467178Y398107D01*
X467284Y398071D01*
X467385Y398050D01*
X467482Y398045D01*
X467573Y398056D01*
X466023Y396709D01*
X466047Y396798D01*
X466055Y396890D01*
X466047Y396987D01*
X466024Y397087D01*
X465985Y397191D01*
X465931Y397298D01*
X465861Y397409D01*
X465775Y397524D01*
X465675Y397643D01*
X465558Y397765D01*
X466442Y398649D01*
X466577Y398520D01*
D02*
G37*
G36*
X439271Y398625D02*
X439419Y398512D01*
X439578Y398414D01*
X439747Y398328D01*
X439926Y398257D01*
X440116Y398198D01*
X440316Y398153D01*
X440527Y398122D01*
X440748Y398104D01*
X440979Y398100D01*
X438900Y396021D01*
X438896Y396252D01*
X438878Y396473D01*
X438847Y396684D01*
X438802Y396884D01*
X438743Y397074D01*
X438672Y397253D01*
X438586Y397422D01*
X438488Y397581D01*
X438375Y397729D01*
X438250Y397867D01*
X439133Y398750D01*
X439271Y398625D01*
D02*
G37*
G36*
X388599Y393381D02*
X388711Y393301D01*
X388838Y393230D01*
X388978Y393169D01*
X389132Y393117D01*
X389299Y393075D01*
X389481Y393042D01*
X389675Y393019D01*
X389884Y393005D01*
X390107Y393000D01*
Y391000D01*
X389884Y390995D01*
X389481Y390958D01*
X389299Y390925D01*
X389132Y390882D01*
X388978Y390831D01*
X388838Y390770D01*
X388711Y390699D01*
X388599Y390619D01*
X388500Y390530D01*
Y393470D01*
X388599Y393381D01*
D02*
G37*
G36*
X493360Y493157D02*
X493344Y493129D01*
X448283Y448068D01*
X447702Y447199D01*
X447499Y446175D01*
X447499Y446175D01*
Y390444D01*
X447300Y390268D01*
X446091Y389330D01*
X445499Y389286D01*
X443146Y391639D01*
X443322Y392524D01*
X444476Y393677D01*
X445100Y395185D01*
Y396815D01*
X444476Y398322D01*
X443322Y399476D01*
X441816Y400100D01*
X441195D01*
X441017Y400139D01*
X440849Y400142D01*
X440759Y400149D01*
X440689Y400160D01*
X440639Y400171D01*
X440606Y400181D01*
X440603Y400182D01*
X436980Y403805D01*
X437323Y405524D01*
X438476Y406678D01*
X439100Y408185D01*
Y409815D01*
X438476Y411322D01*
X437322Y412476D01*
X435816Y413100D01*
X435195D01*
X435018Y413139D01*
X434849Y413142D01*
X434759Y413149D01*
X434689Y413159D01*
X434639Y413171D01*
X434605Y413181D01*
X434603Y413182D01*
X432865Y414920D01*
X432853Y415405D01*
X433451Y417163D01*
X434322Y417524D01*
X435476Y418677D01*
X436100Y420185D01*
Y421815D01*
X435476Y423322D01*
X434322Y424476D01*
X432816Y425100D01*
X432676D01*
Y440891D01*
X486934Y495149D01*
X492535D01*
X493360Y493157D01*
D02*
G37*
G36*
X455634Y388078D02*
X455659Y387894D01*
X455701Y387713D01*
X455760Y387533D01*
X455836Y387355D01*
X455929Y387180D01*
X456039Y387006D01*
X456166Y386835D01*
X456310Y386666D01*
X456470Y386500D01*
X453530D01*
X453691Y386666D01*
X453834Y386835D01*
X453961Y387006D01*
X454071Y387180D01*
X454164Y387355D01*
X454240Y387533D01*
X454299Y387713D01*
X454341Y387894D01*
X454367Y388078D01*
X454375Y388265D01*
X455625D01*
X455634Y388078D01*
D02*
G37*
G36*
X386500Y388135D02*
X386613Y388055D01*
X386740Y387984D01*
X386880Y387923D01*
X387033Y387872D01*
X387201Y387829D01*
X387382Y387796D01*
X387577Y387773D01*
X387786Y387759D01*
X388008Y387754D01*
Y385754D01*
X387786Y385749D01*
X387382Y385712D01*
X387201Y385679D01*
X387033Y385637D01*
X386880Y385585D01*
X386740Y385524D01*
X386613Y385453D01*
X386500Y385373D01*
X386401Y385284D01*
Y388224D01*
X386500Y388135D01*
D02*
G37*
G36*
X444271Y387625D02*
X444419Y387513D01*
X444578Y387414D01*
X444747Y387328D01*
X444926Y387257D01*
X445116Y387198D01*
X445316Y387154D01*
X445527Y387122D01*
X445748Y387104D01*
X445979Y387100D01*
X443900Y385021D01*
X443896Y385252D01*
X443878Y385473D01*
X443847Y385684D01*
X443802Y385884D01*
X443743Y386074D01*
X443672Y386253D01*
X443586Y386422D01*
X443488Y386581D01*
X443375Y386729D01*
X443250Y386867D01*
X444133Y387751D01*
X444271Y387625D01*
D02*
G37*
G36*
X450808Y384078D02*
X450834Y383894D01*
X450876Y383713D01*
X450935Y383533D01*
X451011Y383355D01*
X451104Y383180D01*
X451214Y383006D01*
X451341Y382835D01*
X451484Y382666D01*
X451645Y382500D01*
X448705D01*
X448866Y382666D01*
X449009Y382835D01*
X449136Y383006D01*
X449246Y383180D01*
X449339Y383355D01*
X449415Y383533D01*
X449474Y383713D01*
X449516Y383894D01*
X449542Y384078D01*
X449550Y384265D01*
X450800D01*
X450808Y384078D01*
D02*
G37*
G36*
X383500Y383135D02*
X383613Y383055D01*
X383740Y382984D01*
X383880Y382923D01*
X384033Y382872D01*
X384201Y382829D01*
X384382Y382796D01*
X384577Y382773D01*
X384786Y382759D01*
X385008Y382754D01*
Y380754D01*
X384786Y380749D01*
X384382Y380712D01*
X384201Y380679D01*
X384033Y380637D01*
X383880Y380585D01*
X383740Y380524D01*
X383613Y380453D01*
X383500Y380373D01*
X383401Y380284D01*
Y383224D01*
X383500Y383135D01*
D02*
G37*
G36*
X590000Y407131D02*
X591500D01*
X591215Y407100D01*
X590960Y407010D01*
X590735Y406861D01*
X590540Y406651D01*
X590375Y406381D01*
X590240Y406050D01*
X590135Y405661D01*
X590060Y405210D01*
X590050Y405100D01*
X593191D01*
Y387517D01*
X584524Y378850D01*
X582676Y379615D01*
Y386000D01*
X582677Y386000D01*
X582473Y387024D01*
X582812Y388952D01*
X583148Y389340D01*
X583976Y390168D01*
X584600Y391675D01*
Y393306D01*
X583976Y394813D01*
X583600Y395188D01*
X583044Y396489D01*
X583600Y397802D01*
X583971Y398173D01*
X584595Y399680D01*
Y401311D01*
X583971Y402818D01*
X583689Y403100D01*
X584517Y405100D01*
X586950D01*
X586940Y405210D01*
X586865Y405661D01*
X586760Y406050D01*
X586625Y406381D01*
X586460Y406651D01*
X586265Y406861D01*
X586040Y407010D01*
X585785Y407100D01*
X585500Y407131D01*
X587000D01*
Y410100D01*
X590000D01*
Y407131D01*
D02*
G37*
G36*
X595979Y376900D02*
X595748Y376896D01*
X595527Y376878D01*
X595316Y376847D01*
X595116Y376802D01*
X594926Y376743D01*
X594747Y376672D01*
X594578Y376586D01*
X594419Y376488D01*
X594271Y376375D01*
X594133Y376250D01*
X593250Y377133D01*
X593375Y377271D01*
X593488Y377419D01*
X593586Y377578D01*
X593672Y377747D01*
X593743Y377926D01*
X593802Y378116D01*
X593847Y378316D01*
X593878Y378527D01*
X593896Y378748D01*
X593900Y378979D01*
X595979Y376900D01*
D02*
G37*
G36*
X459979Y373900D02*
X459846Y373893D01*
X459710Y373870D01*
X459570Y373830D01*
X459428Y373775D01*
X459283Y373702D01*
X459134Y373614D01*
X458983Y373509D01*
X458829Y373388D01*
X458671Y373250D01*
X458510Y373096D01*
X457096Y374510D01*
X457250Y374671D01*
X457509Y374983D01*
X457614Y375134D01*
X457702Y375283D01*
X457775Y375428D01*
X457831Y375570D01*
X457870Y375710D01*
X457893Y375846D01*
X457900Y375979D01*
X459979Y373900D01*
D02*
G37*
G36*
X615671Y374750D02*
X615983Y374491D01*
X616134Y374386D01*
X616283Y374298D01*
X616428Y374225D01*
X616570Y374170D01*
X616710Y374130D01*
X616846Y374107D01*
X616979Y374100D01*
X614900Y372021D01*
X614893Y372154D01*
X614870Y372290D01*
X614831Y372430D01*
X614775Y372572D01*
X614702Y372717D01*
X614614Y372866D01*
X614509Y373017D01*
X614388Y373172D01*
X614250Y373329D01*
X614096Y373490D01*
X615510Y374904D01*
X615671Y374750D01*
D02*
G37*
G36*
X464291Y364023D02*
X464202Y364047D01*
X464110Y364055D01*
X464013Y364047D01*
X463913Y364024D01*
X463809Y363985D01*
X463702Y363931D01*
X463591Y363861D01*
X463476Y363775D01*
X463357Y363675D01*
X463235Y363558D01*
X462351Y364442D01*
X462480Y364577D01*
X462692Y364832D01*
X462775Y364952D01*
X462842Y365067D01*
X462893Y365178D01*
X462929Y365284D01*
X462950Y365385D01*
X462955Y365482D01*
X462944Y365573D01*
X464291Y364023D01*
D02*
G37*
G36*
X601693Y366791D02*
X601809Y366723D01*
X601939Y366663D01*
X602082Y366611D01*
X602239Y366567D01*
X602409Y366531D01*
X602592Y366503D01*
X602998Y366471D01*
X603221Y366467D01*
X603459Y364467D01*
X603236Y364462D01*
X602836Y364420D01*
X602657Y364383D01*
X602493Y364336D01*
X602344Y364278D01*
X602210Y364210D01*
X602090Y364132D01*
X601984Y364043D01*
X601894Y363943D01*
X601590Y366867D01*
X601693Y366791D01*
D02*
G37*
G36*
X556633Y365079D02*
X556659Y364894D01*
X556701Y364712D01*
X556760Y364533D01*
X556836Y364355D01*
X556929Y364180D01*
X557039Y364006D01*
X557166Y363835D01*
X557309Y363666D01*
X557470Y363500D01*
X554530D01*
X554691Y363666D01*
X554834Y363835D01*
X554961Y364006D01*
X555071Y364180D01*
X555164Y364355D01*
X555240Y364533D01*
X555299Y364712D01*
X555341Y364894D01*
X555367Y365079D01*
X555375Y365265D01*
X556625D01*
X556633Y365079D01*
D02*
G37*
G36*
X615929Y355745D02*
X615692Y353611D01*
X615524Y353322D01*
X614524Y352323D01*
X613900Y350816D01*
Y349184D01*
X613148Y348059D01*
X608267D01*
X595964Y360362D01*
X596031Y360842D01*
X597323Y361477D01*
X598168Y361674D01*
X599435Y361150D01*
X601065D01*
X602573Y361774D01*
X603207Y362408D01*
X609266D01*
X615929Y355745D01*
D02*
G37*
G36*
X467500Y359530D02*
X467334Y359691D01*
X467165Y359834D01*
X466994Y359961D01*
X466820Y360071D01*
X466645Y360164D01*
X466467Y360240D01*
X466287Y360299D01*
X466106Y360341D01*
X465922Y360367D01*
X465735Y360375D01*
Y361625D01*
X465922Y361633D01*
X466106Y361659D01*
X466287Y361701D01*
X466467Y361760D01*
X466645Y361836D01*
X466820Y361929D01*
X466994Y362039D01*
X467165Y362166D01*
X467334Y362309D01*
X467500Y362470D01*
Y359530D01*
D02*
G37*
G36*
X593107Y360846D02*
X593130Y360710D01*
X593170Y360570D01*
X593225Y360428D01*
X593298Y360283D01*
X593386Y360134D01*
X593491Y359983D01*
X593612Y359828D01*
X593750Y359671D01*
X593904Y359510D01*
X592490Y358096D01*
X592329Y358250D01*
X592017Y358509D01*
X591866Y358614D01*
X591717Y358702D01*
X591572Y358775D01*
X591430Y358830D01*
X591290Y358870D01*
X591154Y358893D01*
X591021Y358900D01*
X593100Y360979D01*
X593107Y360846D01*
D02*
G37*
G36*
X633250Y357280D02*
X633151Y357369D01*
X633039Y357449D01*
X632912Y357520D01*
X632772Y357581D01*
X632618Y357632D01*
X632451Y357675D01*
X632269Y357708D01*
X632075Y357731D01*
X631866Y357745D01*
X631643Y357750D01*
Y359750D01*
X631866Y359755D01*
X632269Y359792D01*
X632451Y359825D01*
X632618Y359868D01*
X632772Y359919D01*
X632912Y359980D01*
X633039Y360051D01*
X633151Y360131D01*
X633250Y360220D01*
Y357280D01*
D02*
G37*
G36*
X463357Y358326D02*
X463476Y358224D01*
X463591Y358139D01*
X463702Y358069D01*
X463809Y358015D01*
X463913Y357976D01*
X464013Y357953D01*
X464110Y357945D01*
X464202Y357953D01*
X464291Y357977D01*
X462944Y356427D01*
X462955Y356518D01*
X462950Y356615D01*
X462929Y356716D01*
X462893Y356822D01*
X462842Y356932D01*
X462775Y357048D01*
X462692Y357168D01*
X462594Y357293D01*
X462480Y357423D01*
X462351Y357558D01*
X463235Y358442D01*
X463357Y358326D01*
D02*
G37*
G36*
X468513Y353375D02*
X468734Y353188D01*
X468836Y353117D01*
X468932Y353059D01*
X469022Y353017D01*
X469106Y352988D01*
X469185Y352974D01*
X469258Y352974D01*
X469325Y352989D01*
X468012Y351675D01*
X468026Y351742D01*
X468026Y351815D01*
X468012Y351894D01*
X467984Y351978D01*
X467941Y352068D01*
X467883Y352164D01*
X467812Y352266D01*
X467725Y352373D01*
X467510Y352606D01*
X468394Y353490D01*
X468513Y353375D01*
D02*
G37*
G36*
X624608Y409800D02*
X624405Y409311D01*
Y407680D01*
X625029Y406173D01*
X625435Y405767D01*
X625436Y405764D01*
X625440Y405737D01*
X625446Y405676D01*
Y392245D01*
X625446Y392245D01*
X625679Y391075D01*
X626342Y390082D01*
X656941Y359483D01*
Y349998D01*
X655094Y349232D01*
X648163Y356163D01*
X647171Y356826D01*
X646000Y357059D01*
X646000Y357059D01*
X639435D01*
X638850Y357934D01*
Y359566D01*
X638226Y361073D01*
X637072Y362226D01*
X635565Y362850D01*
X633934D01*
X632427Y362226D01*
X632022Y361820D01*
X632019Y361819D01*
X631992Y361814D01*
X631931Y361809D01*
X624767D01*
X619112Y367464D01*
X619323Y368524D01*
X620476Y369678D01*
X621100Y371184D01*
Y372816D01*
X620476Y374322D01*
X619323Y375476D01*
X617816Y376100D01*
X617242D01*
X617239Y376102D01*
X617217Y376117D01*
X617169Y376156D01*
X607309Y386017D01*
Y397959D01*
X607309Y397965D01*
X607319Y398019D01*
X607320Y398022D01*
X607726Y398428D01*
X608350Y399935D01*
Y401566D01*
X608373Y401600D01*
X609750D01*
Y403560D01*
X609636Y403601D01*
X609370Y403630D01*
X609750D01*
Y406600D01*
X611250D01*
Y408100D01*
X616450D01*
Y410231D01*
X617042Y410627D01*
X617484Y411288D01*
X617586Y411800D01*
X623398D01*
X624608Y409800D01*
D02*
G37*
G36*
X619599Y351381D02*
X619711Y351301D01*
X619838Y351230D01*
X619978Y351169D01*
X620132Y351118D01*
X620299Y351075D01*
X620481Y351042D01*
X620676Y351019D01*
X620884Y351005D01*
X621107Y351000D01*
Y349000D01*
X620884Y348995D01*
X620481Y348958D01*
X620299Y348925D01*
X620132Y348882D01*
X619978Y348831D01*
X619838Y348770D01*
X619711Y348699D01*
X619599Y348619D01*
X619500Y348530D01*
Y351470D01*
X619599Y351381D01*
D02*
G37*
G36*
X463280Y349614D02*
X463433Y349494D01*
X463592Y349389D01*
X463756Y349300D01*
X463926Y349227D01*
X464102Y349169D01*
X464284Y349127D01*
X464472Y349101D01*
X464665Y349090D01*
X464865Y349096D01*
X462904Y347136D01*
X462910Y347335D01*
X462899Y347528D01*
X462873Y347716D01*
X462831Y347898D01*
X462773Y348074D01*
X462700Y348244D01*
X462611Y348408D01*
X462506Y348567D01*
X462386Y348720D01*
X462249Y348867D01*
X463133Y349751D01*
X463280Y349614D01*
D02*
G37*
G36*
X565251Y344367D02*
X565125Y344229D01*
X565013Y344081D01*
X564914Y343922D01*
X564828Y343753D01*
X564757Y343574D01*
X564698Y343384D01*
X564654Y343184D01*
X564622Y342973D01*
X564604Y342752D01*
X564600Y342521D01*
X562521Y344600D01*
X562752Y344604D01*
X562973Y344622D01*
X563184Y344654D01*
X563384Y344698D01*
X563574Y344757D01*
X563753Y344828D01*
X563922Y344914D01*
X564081Y345013D01*
X564229Y345125D01*
X564367Y345251D01*
X565251Y344367D01*
D02*
G37*
G36*
X431006Y344349D02*
X430954Y343999D01*
X430915Y343557D01*
X430877Y342399D01*
X430875Y342052D01*
X429625Y341735D01*
X429616Y341937D01*
X429588Y342121D01*
X429543Y342286D01*
X429479Y342433D01*
X429397Y342560D01*
X429296Y342669D01*
X429177Y342760D01*
X429040Y342832D01*
X428885Y342885D01*
X428712Y342920D01*
X431037Y344490D01*
X431006Y344349D01*
D02*
G37*
G36*
X435763Y343043D02*
X435580Y342962D01*
X435416Y342868D01*
X435272Y342760D01*
X435147Y342640D01*
X435041Y342507D01*
X434954Y342361D01*
X434887Y342203D01*
X434838Y342031D01*
X434810Y341847D01*
X434800Y341650D01*
X433550Y342221D01*
X433545Y342383D01*
X433530Y342553D01*
X433471Y342916D01*
X433427Y343110D01*
X433310Y343521D01*
X433152Y343964D01*
X433059Y344198D01*
X435763Y343043D01*
D02*
G37*
G36*
X501271Y343625D02*
X501419Y343512D01*
X501578Y343414D01*
X501747Y343328D01*
X501926Y343257D01*
X502116Y343198D01*
X502316Y343153D01*
X502527Y343122D01*
X502748Y343104D01*
X502979Y343100D01*
X500900Y341021D01*
X500896Y341252D01*
X500878Y341473D01*
X500846Y341684D01*
X500802Y341884D01*
X500743Y342074D01*
X500672Y342253D01*
X500586Y342422D01*
X500488Y342581D01*
X500375Y342729D01*
X500249Y342867D01*
X501133Y343750D01*
X501271Y343625D01*
D02*
G37*
G36*
X665671Y342750D02*
X665983Y342491D01*
X666134Y342386D01*
X666283Y342298D01*
X666428Y342225D01*
X666570Y342169D01*
X666710Y342130D01*
X666846Y342107D01*
X666979Y342100D01*
X664900Y340021D01*
X664893Y340154D01*
X664870Y340290D01*
X664830Y340430D01*
X664775Y340572D01*
X664702Y340717D01*
X664614Y340866D01*
X664509Y341017D01*
X664388Y341171D01*
X664250Y341329D01*
X664096Y341490D01*
X665510Y342904D01*
X665671Y342750D01*
D02*
G37*
G36*
X491633Y341078D02*
X491659Y340894D01*
X491701Y340713D01*
X491760Y340533D01*
X491836Y340355D01*
X491929Y340180D01*
X492039Y340006D01*
X492166Y339835D01*
X492309Y339666D01*
X492470Y339500D01*
X489530D01*
X489691Y339666D01*
X489834Y339835D01*
X489961Y340006D01*
X490071Y340180D01*
X490164Y340355D01*
X490240Y340533D01*
X490299Y340713D01*
X490341Y340894D01*
X490367Y341078D01*
X490375Y341265D01*
X491625D01*
X491633Y341078D01*
D02*
G37*
G36*
X631599Y341381D02*
X631711Y341301D01*
X631838Y341230D01*
X631978Y341169D01*
X632132Y341118D01*
X632299Y341075D01*
X632481Y341042D01*
X632676Y341019D01*
X632884Y341005D01*
X633107Y341000D01*
Y339000D01*
X632884Y338995D01*
X632481Y338958D01*
X632299Y338925D01*
X632132Y338882D01*
X631978Y338831D01*
X631838Y338770D01*
X631711Y338699D01*
X631599Y338619D01*
X631500Y338530D01*
Y341470D01*
X631599Y341381D01*
D02*
G37*
G36*
X496409Y339693D02*
X496555Y339581D01*
X496713Y339480D01*
X496881Y339390D01*
X497061Y339313D01*
X497252Y339246D01*
X497454Y339191D01*
X497667Y339148D01*
X497891Y339116D01*
X498126Y339096D01*
X495907Y337168D01*
X495918Y337394D01*
X495913Y337611D01*
X495893Y337818D01*
X495858Y338016D01*
X495807Y338204D01*
X495742Y338382D01*
X495661Y338550D01*
X495564Y338709D01*
X495452Y338859D01*
X495325Y338998D01*
X496273Y339818D01*
X496409Y339693D01*
D02*
G37*
G36*
X669107Y339846D02*
X669130Y339710D01*
X669169Y339570D01*
X669225Y339428D01*
X669298Y339283D01*
X669386Y339134D01*
X669491Y338983D01*
X669612Y338829D01*
X669750Y338671D01*
X669904Y338510D01*
X668490Y337096D01*
X668329Y337250D01*
X668017Y337509D01*
X667866Y337614D01*
X667717Y337702D01*
X667572Y337775D01*
X667430Y337831D01*
X667290Y337870D01*
X667154Y337893D01*
X667021Y337900D01*
X669100Y339979D01*
X669107Y339846D01*
D02*
G37*
G36*
X333666Y334309D02*
X333835Y334166D01*
X334006Y334039D01*
X334180Y333929D01*
X334355Y333836D01*
X334533Y333760D01*
X334712Y333701D01*
X334894Y333659D01*
X335079Y333633D01*
X335265Y333625D01*
Y332375D01*
X335079Y332366D01*
X334894Y332341D01*
X334712Y332299D01*
X334533Y332240D01*
X334355Y332164D01*
X334180Y332071D01*
X334006Y331961D01*
X333835Y331834D01*
X333666Y331690D01*
X333500Y331530D01*
Y334470D01*
X333666Y334309D01*
D02*
G37*
G36*
X600633Y330079D02*
X600659Y329894D01*
X600701Y329712D01*
X600760Y329533D01*
X600836Y329355D01*
X600929Y329180D01*
X601039Y329006D01*
X601166Y328835D01*
X601309Y328666D01*
X601470Y328500D01*
X598530D01*
X598690Y328666D01*
X598834Y328835D01*
X598961Y329006D01*
X599071Y329180D01*
X599164Y329355D01*
X599240Y329533D01*
X599299Y329712D01*
X599341Y329894D01*
X599366Y330079D01*
X599375Y330265D01*
X600625D01*
X600633Y330079D01*
D02*
G37*
G36*
X430875Y319169D02*
X430883Y318988D01*
X430905Y318806D01*
X430944Y318622D01*
X430997Y318438D01*
X431066Y318253D01*
X431150Y318067D01*
X431249Y317880D01*
X431363Y317693D01*
X431493Y317504D01*
X431638Y317314D01*
X428719Y317664D01*
X428891Y317806D01*
X429045Y317954D01*
X429181Y318107D01*
X429299Y318265D01*
X429398Y318428D01*
X429480Y318597D01*
X429543Y318771D01*
X429589Y318951D01*
X429616Y319136D01*
X429625Y319326D01*
X430875Y319169D01*
D02*
G37*
G36*
X327667Y318309D02*
X327835Y318166D01*
X328006Y318039D01*
X328180Y317929D01*
X328355Y317836D01*
X328533Y317760D01*
X328713Y317701D01*
X328894Y317659D01*
X329078Y317633D01*
X329265Y317625D01*
Y316375D01*
X329078Y316367D01*
X328894Y316341D01*
X328713Y316299D01*
X328533Y316240D01*
X328355Y316164D01*
X328180Y316071D01*
X328006Y315961D01*
X327835Y315834D01*
X327667Y315691D01*
X327500Y315530D01*
Y318470D01*
X327667Y318309D01*
D02*
G37*
G36*
X815644Y302750D02*
X815553Y302798D01*
X815376Y302840D01*
X815115Y302878D01*
X814338Y302938D01*
X811765Y302997D01*
X811081Y302999D01*
X806356Y302750D01*
Y313250D01*
X806448Y313202D01*
X806624Y313160D01*
X806885Y313123D01*
X807662Y313062D01*
X810235Y313002D01*
X810919Y313001D01*
X815644Y313250D01*
Y302750D01*
D02*
G37*
G36*
X566936Y314150D02*
X566923Y314022D01*
X566930Y313890D01*
X566959Y313754D01*
X567008Y313613D01*
X567078Y313469D01*
X567169Y313319D01*
X567282Y313166D01*
X567415Y313008D01*
X567569Y312846D01*
X565549Y312037D01*
X565385Y312199D01*
X564700Y312794D01*
X564589Y312870D01*
X564488Y312933D01*
X564396Y312981D01*
X564313Y313016D01*
X566970Y314273D01*
X566936Y314150D01*
D02*
G37*
G36*
X831670Y311599D02*
X828500Y308075D01*
X821075Y315500D01*
X821173Y315531D01*
X821328Y315625D01*
X821539Y315784D01*
X822131Y316291D01*
X823993Y318067D01*
X824599Y318670D01*
X831670Y311599D01*
D02*
G37*
G36*
X434800Y306202D02*
X434808Y306019D01*
X434832Y305836D01*
X434871Y305653D01*
X434926Y305470D01*
X434997Y305287D01*
X435084Y305104D01*
X435187Y304921D01*
X435305Y304738D01*
X435440Y304555D01*
X435590Y304372D01*
X432660Y304617D01*
X432829Y304767D01*
X432980Y304921D01*
X433114Y305079D01*
X433230Y305242D01*
X433327Y305409D01*
X433408Y305581D01*
X433470Y305757D01*
X433514Y305937D01*
X433541Y306122D01*
X433550Y306311D01*
X434800Y306202D01*
D02*
G37*
G36*
X332666Y303309D02*
X332835Y303166D01*
X333006Y303039D01*
X333180Y302929D01*
X333355Y302836D01*
X333533Y302760D01*
X333713Y302701D01*
X333894Y302659D01*
X334078Y302633D01*
X334265Y302625D01*
Y301375D01*
X334078Y301367D01*
X333894Y301341D01*
X333713Y301299D01*
X333533Y301240D01*
X333355Y301164D01*
X333180Y301071D01*
X333006Y300961D01*
X332835Y300834D01*
X332666Y300691D01*
X332500Y300530D01*
Y303470D01*
X332666Y303309D01*
D02*
G37*
G36*
X593271Y302625D02*
X593419Y302512D01*
X593578Y302414D01*
X593747Y302328D01*
X593926Y302257D01*
X594116Y302198D01*
X594316Y302153D01*
X594526Y302122D01*
X594748Y302104D01*
X594979Y302100D01*
X592900Y300021D01*
X592896Y300252D01*
X592878Y300473D01*
X592846Y300684D01*
X592802Y300884D01*
X592743Y301074D01*
X592672Y301253D01*
X592586Y301422D01*
X592487Y301581D01*
X592375Y301729D01*
X592249Y301867D01*
X593133Y302750D01*
X593271Y302625D01*
D02*
G37*
G36*
X690107Y297846D02*
X690130Y297710D01*
X690170Y297570D01*
X690225Y297428D01*
X690298Y297283D01*
X690386Y297134D01*
X690491Y296983D01*
X690612Y296828D01*
X690750Y296671D01*
X690904Y296510D01*
X689490Y295096D01*
X689329Y295250D01*
X689017Y295509D01*
X688866Y295614D01*
X688717Y295702D01*
X688572Y295775D01*
X688430Y295830D01*
X688290Y295870D01*
X688154Y295893D01*
X688021Y295900D01*
X690100Y297979D01*
X690107Y297846D01*
D02*
G37*
G36*
X773653Y296822D02*
X774121Y296534D01*
X774674Y296281D01*
X775312Y296063D01*
X776036Y295881D01*
X776844Y295734D01*
X777737Y295623D01*
X779777Y295505D01*
X780925Y295500D01*
X773500Y288075D01*
X773495Y289223D01*
X773377Y291263D01*
X773266Y292156D01*
X773119Y292964D01*
X772937Y293687D01*
X772719Y294326D01*
X772466Y294879D01*
X772178Y295347D01*
X771855Y295731D01*
X773269Y297145D01*
X773653Y296822D01*
D02*
G37*
G36*
X753561Y286000D02*
X753541Y286190D01*
X753480Y286360D01*
X753378Y286510D01*
X753236Y286640D01*
X753053Y286750D01*
X752830Y286840D01*
X752566Y286910D01*
X752262Y286960D01*
X751916Y286990D01*
X751531Y287000D01*
Y289000D01*
X751916Y289010D01*
X752262Y289040D01*
X752566Y289090D01*
X752830Y289160D01*
X753053Y289250D01*
X753236Y289360D01*
X753378Y289490D01*
X753480Y289640D01*
X753541Y289810D01*
X753561Y290000D01*
Y286000D01*
D02*
G37*
G36*
X333666Y288309D02*
X333835Y288166D01*
X334006Y288039D01*
X334180Y287929D01*
X334355Y287836D01*
X334533Y287760D01*
X334712Y287701D01*
X334894Y287659D01*
X335079Y287633D01*
X335265Y287625D01*
Y286375D01*
X335079Y286367D01*
X334894Y286341D01*
X334712Y286299D01*
X334533Y286240D01*
X334355Y286164D01*
X334180Y286071D01*
X334006Y285961D01*
X333835Y285834D01*
X333666Y285691D01*
X333500Y285530D01*
Y288470D01*
X333666Y288309D01*
D02*
G37*
G36*
X840925Y280500D02*
X839777Y280495D01*
X837737Y280377D01*
X836844Y280266D01*
X836036Y280119D01*
X835312Y279937D01*
X834674Y279719D01*
X834121Y279466D01*
X833653Y279178D01*
X833269Y278855D01*
X831855Y280269D01*
X832178Y280653D01*
X832466Y281121D01*
X832719Y281674D01*
X832937Y282313D01*
X833119Y283036D01*
X833266Y283844D01*
X833377Y284737D01*
X833495Y286777D01*
X833500Y287925D01*
X840925Y280500D01*
D02*
G37*
G36*
X820925D02*
X819777Y280495D01*
X817737Y280377D01*
X816844Y280266D01*
X816036Y280119D01*
X815312Y279937D01*
X814674Y279719D01*
X814121Y279466D01*
X813653Y279178D01*
X813269Y278855D01*
X811855Y280269D01*
X812178Y280653D01*
X812466Y281121D01*
X812719Y281674D01*
X812937Y282313D01*
X813119Y283036D01*
X813266Y283844D01*
X813377Y284737D01*
X813495Y286777D01*
X813500Y287925D01*
X820925Y280500D01*
D02*
G37*
G36*
X800925D02*
X799777Y280495D01*
X797737Y280377D01*
X796844Y280266D01*
X796036Y280119D01*
X795312Y279937D01*
X794674Y279719D01*
X794121Y279466D01*
X793653Y279178D01*
X793269Y278855D01*
X791855Y280269D01*
X792178Y280653D01*
X792466Y281121D01*
X792719Y281674D01*
X792937Y282313D01*
X793119Y283036D01*
X793266Y283844D01*
X793377Y284737D01*
X793495Y286777D01*
X793500Y287925D01*
X800925Y280500D01*
D02*
G37*
G36*
X545005Y276884D02*
X545042Y276481D01*
X545075Y276299D01*
X545117Y276132D01*
X545169Y275978D01*
X545230Y275838D01*
X545301Y275711D01*
X545381Y275599D01*
X545470Y275500D01*
X542530D01*
X542619Y275599D01*
X542699Y275711D01*
X542770Y275838D01*
X542831Y275978D01*
X542882Y276132D01*
X542925Y276299D01*
X542958Y276481D01*
X542981Y276675D01*
X542995Y276884D01*
X543000Y277107D01*
X545000D01*
X545005Y276884D01*
D02*
G37*
G36*
X618500Y271530D02*
X618401Y271619D01*
X618289Y271699D01*
X618162Y271770D01*
X618022Y271831D01*
X617868Y271882D01*
X617701Y271925D01*
X617519Y271958D01*
X617324Y271981D01*
X617116Y271995D01*
X616893Y272000D01*
Y274000D01*
X617116Y274005D01*
X617519Y274042D01*
X617701Y274075D01*
X617868Y274118D01*
X618022Y274169D01*
X618162Y274230D01*
X618289Y274301D01*
X618401Y274381D01*
X618500Y274470D01*
Y271530D01*
D02*
G37*
G36*
X331666Y274309D02*
X331835Y274166D01*
X332006Y274039D01*
X332180Y273929D01*
X332355Y273836D01*
X332533Y273760D01*
X332713Y273701D01*
X332894Y273659D01*
X333078Y273633D01*
X333265Y273625D01*
Y272375D01*
X333078Y272367D01*
X332894Y272341D01*
X332713Y272299D01*
X332533Y272240D01*
X332355Y272164D01*
X332180Y272071D01*
X332006Y271961D01*
X331835Y271834D01*
X331666Y271691D01*
X331500Y271530D01*
Y274470D01*
X331666Y274309D01*
D02*
G37*
G36*
X629005Y268884D02*
X629042Y268481D01*
X629075Y268299D01*
X629118Y268132D01*
X629169Y267978D01*
X629230Y267838D01*
X629301Y267711D01*
X629381Y267599D01*
X629470Y267500D01*
X626530D01*
X626619Y267599D01*
X626699Y267711D01*
X626770Y267838D01*
X626831Y267978D01*
X626883Y268132D01*
X626925Y268299D01*
X626958Y268481D01*
X626981Y268675D01*
X626995Y268884D01*
X627000Y269107D01*
X629000D01*
X629005Y268884D01*
D02*
G37*
G36*
X540815Y262607D02*
X540973Y262473D01*
X541128Y262357D01*
X541279Y262259D01*
X541428Y262180D01*
X541574Y262120D01*
X541717Y262079D01*
X541856Y262056D01*
X541992Y262052D01*
X542126Y262066D01*
X540427Y259667D01*
X540401Y259787D01*
X540360Y259911D01*
X540305Y260040D01*
X540236Y260173D01*
X540152Y260311D01*
X540054Y260453D01*
X539814Y260752D01*
X539673Y260908D01*
X539517Y261069D01*
X540653Y262761D01*
X540815Y262607D01*
D02*
G37*
G36*
X621005Y250884D02*
X621042Y250481D01*
X621075Y250299D01*
X621118Y250132D01*
X621169Y249978D01*
X621230Y249838D01*
X621301Y249711D01*
X621381Y249599D01*
X621470Y249500D01*
X618530D01*
X618619Y249599D01*
X618699Y249711D01*
X618770Y249838D01*
X618831Y249978D01*
X618882Y250132D01*
X618925Y250299D01*
X618958Y250481D01*
X618981Y250676D01*
X618995Y250884D01*
X619000Y251107D01*
X621000D01*
X621005Y250884D01*
D02*
G37*
G36*
X945000Y310000D02*
Y290000D01*
X925000D01*
Y310000D01*
X945000D01*
D02*
G37*
%LPC*%
G36*
X358495Y710000D02*
X356505D01*
X354668Y709239D01*
X353261Y707832D01*
X352500Y705995D01*
Y704005D01*
X353261Y702168D01*
X354668Y700761D01*
X356505Y700000D01*
X358495D01*
X360332Y700761D01*
X361739Y702168D01*
X362500Y704005D01*
Y705995D01*
X361739Y707832D01*
X360332Y709239D01*
X358495Y710000D01*
D02*
G37*
G36*
X338495D02*
X336505D01*
X334668Y709239D01*
X333261Y707832D01*
X332500Y705995D01*
Y704005D01*
X333261Y702168D01*
X334668Y700761D01*
X336505Y700000D01*
X338495D01*
X340332Y700761D01*
X341739Y702168D01*
X342500Y704005D01*
Y705995D01*
X341739Y707832D01*
X340332Y709239D01*
X338495Y710000D01*
D02*
G37*
G36*
X688495Y705000D02*
X686505D01*
X684668Y704239D01*
X683261Y702832D01*
X682500Y700995D01*
Y699005D01*
X683261Y697168D01*
X684668Y695761D01*
X686505Y695000D01*
X688495D01*
X690332Y695761D01*
X691739Y697168D01*
X692500Y699005D01*
Y700995D01*
X691739Y702832D01*
X690332Y704239D01*
X688495Y705000D01*
D02*
G37*
G36*
X573495D02*
X571505D01*
X569668Y704239D01*
X568261Y702832D01*
X567500Y700995D01*
Y699005D01*
X568261Y697168D01*
X569668Y695761D01*
X571505Y695000D01*
X573495D01*
X575332Y695761D01*
X576739Y697168D01*
X577500Y699005D01*
Y700995D01*
X576739Y702832D01*
X575332Y704239D01*
X573495Y705000D01*
D02*
G37*
G36*
X553495D02*
X551506D01*
X549668Y704239D01*
X548261Y702832D01*
X547500Y700995D01*
Y699005D01*
X548261Y697168D01*
X549668Y695761D01*
X551506Y695000D01*
X553495D01*
X555332Y695761D01*
X556739Y697168D01*
X557500Y699005D01*
Y700995D01*
X556739Y702832D01*
X555332Y704239D01*
X553495Y705000D01*
D02*
G37*
G36*
X348495Y702500D02*
X346505D01*
X344668Y701739D01*
X343261Y700332D01*
X342500Y698495D01*
Y696505D01*
X343261Y694668D01*
X344668Y693261D01*
X346505Y692500D01*
X348495D01*
X350332Y693261D01*
X351739Y694668D01*
X352500Y696505D01*
Y698495D01*
X351739Y700332D01*
X350332Y701739D01*
X348495Y702500D01*
D02*
G37*
G36*
X358495Y695000D02*
X356505D01*
X354668Y694239D01*
X353261Y692832D01*
X352500Y690995D01*
Y689005D01*
X353261Y687168D01*
X354668Y685761D01*
X356505Y685000D01*
X358495D01*
X360332Y685761D01*
X361739Y687168D01*
X362500Y689005D01*
Y690995D01*
X361739Y692832D01*
X360332Y694239D01*
X358495Y695000D01*
D02*
G37*
G36*
X338495D02*
X336505D01*
X334668Y694239D01*
X333261Y692832D01*
X332500Y690995D01*
Y689005D01*
X333261Y687168D01*
X334668Y685761D01*
X336505Y685000D01*
X338495D01*
X340332Y685761D01*
X341739Y687168D01*
X342500Y689005D01*
Y690995D01*
X341739Y692832D01*
X340332Y694239D01*
X338495Y695000D01*
D02*
G37*
G36*
X523495Y710000D02*
X521505D01*
X519668Y709239D01*
X518261Y707832D01*
X517500Y705995D01*
Y704005D01*
X518261Y702168D01*
X519179Y701250D01*
X518261Y700332D01*
X517500Y698495D01*
Y696505D01*
X518261Y694668D01*
X519179Y693750D01*
X518261Y692832D01*
X517500Y690995D01*
Y689005D01*
X518261Y687168D01*
X519668Y685761D01*
X521505Y685000D01*
X523495D01*
X525332Y685761D01*
X525652Y686081D01*
X527911Y685512D01*
X528261Y684668D01*
X529668Y683261D01*
X531505Y682500D01*
X533495D01*
X535332Y683261D01*
X536739Y684668D01*
X537500Y686505D01*
Y688495D01*
X536739Y690332D01*
X535821Y691250D01*
X536739Y692168D01*
X537500Y694005D01*
Y695995D01*
X536739Y697832D01*
X535821Y698750D01*
X536739Y699668D01*
X537500Y701505D01*
Y703495D01*
X536739Y705332D01*
X535332Y706739D01*
X533495Y707500D01*
X531505D01*
X529668Y706739D01*
X529348Y706419D01*
X527089Y706988D01*
X526739Y707832D01*
X525332Y709239D01*
X523495Y710000D01*
D02*
G37*
G36*
X840816Y678100D02*
X839184D01*
X837678Y677476D01*
X836524Y676322D01*
X835900Y674816D01*
Y673185D01*
X836524Y671677D01*
X837678Y670524D01*
X839184Y669900D01*
X840816D01*
X842322Y670524D01*
X843476Y671677D01*
X844100Y673185D01*
Y674816D01*
X843476Y676322D01*
X842322Y677476D01*
X840816Y678100D01*
D02*
G37*
G36*
X822816D02*
X821184D01*
X819678Y677476D01*
X818524Y676322D01*
X817900Y674816D01*
Y673185D01*
X818524Y671677D01*
X819678Y670524D01*
X821184Y669900D01*
X822816D01*
X824323Y670524D01*
X825476Y671677D01*
X826100Y673185D01*
Y674816D01*
X825476Y676322D01*
X824323Y677476D01*
X822816Y678100D01*
D02*
G37*
G36*
X437816Y672100D02*
X436185D01*
X434678Y671476D01*
X433524Y670322D01*
X432900Y668816D01*
Y667185D01*
X433524Y665678D01*
X434678Y664524D01*
X436185Y663900D01*
X437816D01*
X439323Y664524D01*
X440476Y665678D01*
X441100Y667185D01*
Y668816D01*
X440476Y670322D01*
X439323Y671476D01*
X437816Y672100D01*
D02*
G37*
G36*
X831815D02*
X830184D01*
X828678Y671476D01*
X827524Y670322D01*
X826900Y668816D01*
Y667185D01*
X827524Y665678D01*
X827895Y665307D01*
X828454Y664000D01*
X827895Y662693D01*
X827524Y662322D01*
X827167Y661460D01*
X825391Y660860D01*
X824924Y660874D01*
X824822Y660976D01*
X823316Y661600D01*
X821684D01*
X820178Y660976D01*
X819024Y659822D01*
X818400Y658316D01*
Y656684D01*
X819024Y655178D01*
X820178Y654024D01*
X821684Y653400D01*
X823316D01*
X824822Y654024D01*
X825052Y654254D01*
X825287Y654198D01*
X826900Y653273D01*
Y652184D01*
X827449Y650860D01*
X827524Y650677D01*
X827525Y650677D01*
X828654Y649500D01*
X827525Y648323D01*
X827524Y648323D01*
X827449Y648140D01*
X826900Y646815D01*
Y645184D01*
X827524Y643678D01*
X828678Y642524D01*
X830184Y641900D01*
X831815D01*
X833322Y642524D01*
X834476Y643678D01*
X835100Y645184D01*
Y646815D01*
X834551Y648140D01*
X834476Y648323D01*
X834475Y648323D01*
X833346Y649500D01*
X834475Y650677D01*
X834476Y650677D01*
X834551Y650860D01*
X835100Y652184D01*
Y653788D01*
X835184Y653867D01*
X836825Y654876D01*
X837678Y654024D01*
X839184Y653400D01*
X840816D01*
X842322Y654024D01*
X843476Y655178D01*
X844100Y656684D01*
Y658316D01*
X843476Y659822D01*
X842322Y660976D01*
X840816Y661600D01*
X839184D01*
X837678Y660976D01*
X837100Y660398D01*
X835976Y660633D01*
X835018Y661014D01*
X834476Y662322D01*
X834105Y662693D01*
X833547Y664000D01*
X834105Y665307D01*
X834476Y665678D01*
X835100Y667185D01*
Y668816D01*
X834476Y670322D01*
X833322Y671476D01*
X831815Y672100D01*
D02*
G37*
G36*
X321815Y673100D02*
X320184D01*
X318678Y672476D01*
X317524Y671322D01*
X316900Y669816D01*
Y668185D01*
X317524Y666678D01*
X318678Y665524D01*
X320184Y664900D01*
X320758D01*
X320761Y664898D01*
X320783Y664883D01*
X320830Y664844D01*
X330768Y654906D01*
X330002Y653059D01*
X325267D01*
X320137Y658189D01*
X320133Y658194D01*
X320102Y658239D01*
X320100Y658242D01*
Y658816D01*
X319476Y660322D01*
X318323Y661476D01*
X316815Y662100D01*
X315184D01*
X313678Y661476D01*
X312524Y660322D01*
X311900Y658816D01*
Y657185D01*
X312524Y655678D01*
X313678Y654524D01*
X315184Y653900D01*
X315758D01*
X315761Y653898D01*
X315783Y653883D01*
X315830Y653844D01*
X319768Y649906D01*
X319002Y648059D01*
X314999D01*
X314476Y649323D01*
X313322Y650476D01*
X311815Y651100D01*
X310184D01*
X308678Y650476D01*
X307524Y649323D01*
X306900Y647815D01*
Y646184D01*
X307524Y644678D01*
X308678Y643524D01*
X310184Y642900D01*
X310774D01*
X310837Y642837D01*
X311829Y642174D01*
X313000Y641941D01*
X351733D01*
X367004Y626670D01*
X367036Y626634D01*
X367156Y626483D01*
X367163Y626473D01*
X367176Y626448D01*
X367187Y626433D01*
X367198Y626416D01*
X367224Y626388D01*
X367236Y626374D01*
X367524Y625677D01*
X368677Y624524D01*
X370185Y623900D01*
X371815D01*
X373322Y624524D01*
X374476Y625677D01*
X375100Y627184D01*
X376816Y627900D01*
X378322Y628524D01*
X379476Y629678D01*
X380100Y631185D01*
Y632052D01*
X380136Y632838D01*
X381816Y633900D01*
X383322Y634524D01*
X384476Y635677D01*
X385100Y637184D01*
Y638815D01*
X384476Y640322D01*
X383322Y641476D01*
X381815Y642100D01*
X380185D01*
X379507Y641819D01*
X364163Y657163D01*
X363171Y657826D01*
X362000Y658059D01*
X362000Y658059D01*
X336267D01*
X325137Y669189D01*
X325133Y669194D01*
X325102Y669239D01*
X325100Y669242D01*
Y669816D01*
X324476Y671322D01*
X323322Y672476D01*
X321815Y673100D01*
D02*
G37*
G36*
X545816Y655100D02*
X544184D01*
X542678Y654476D01*
X541524Y653322D01*
X540900Y651815D01*
Y650184D01*
X541524Y648678D01*
X542678Y647524D01*
X544184Y646900D01*
X545816D01*
X547098Y647431D01*
X572522D01*
X575993Y643960D01*
X576524Y642678D01*
X577678Y641524D01*
X579184Y640900D01*
X580816D01*
X582323Y641524D01*
X583476Y642678D01*
X584100Y644184D01*
Y645816D01*
X583476Y647322D01*
X582323Y648476D01*
X581040Y649007D01*
X576523Y653523D01*
X575366Y654297D01*
X574000Y654569D01*
X547098D01*
X545816Y655100D01*
D02*
G37*
G36*
X766815Y654100D02*
X765184D01*
X763678Y653476D01*
X762524Y652322D01*
X761900Y650816D01*
Y649184D01*
X762524Y647678D01*
X763678Y646524D01*
X764960Y645993D01*
X769477Y641477D01*
X770634Y640703D01*
X772000Y640431D01*
X799902D01*
X801184Y639900D01*
X802815D01*
X804322Y640524D01*
X805476Y641678D01*
X806100Y643185D01*
Y644816D01*
X805476Y646322D01*
X804322Y647476D01*
X802815Y648100D01*
X801184D01*
X799902Y647569D01*
X773478D01*
X770007Y651040D01*
X769476Y652322D01*
X768322Y653476D01*
X766815Y654100D01*
D02*
G37*
G36*
X661815Y655100D02*
X660184D01*
X658678Y654476D01*
X657524Y653322D01*
X656900Y651815D01*
Y650184D01*
X657524Y648678D01*
X658678Y647524D01*
X660184Y646900D01*
X661815D01*
X663098Y647431D01*
X685697D01*
X690900Y642229D01*
Y641684D01*
X691524Y640178D01*
X692678Y639024D01*
X694184Y638400D01*
X695816D01*
X697322Y639024D01*
X698476Y640178D01*
X699100Y641684D01*
Y643316D01*
X698476Y644822D01*
X697322Y645976D01*
X697069Y646081D01*
X696923Y646299D01*
X689699Y653523D01*
X688541Y654297D01*
X687175Y654569D01*
X663098D01*
X661815Y655100D01*
D02*
G37*
G36*
X440816Y558100D02*
X439184D01*
X437678Y557476D01*
X436524Y556323D01*
X435900Y554816D01*
Y553185D01*
X436524Y551678D01*
X437678Y550524D01*
X439184Y549900D01*
X440816D01*
X442323Y550524D01*
X443476Y551678D01*
X444100Y553185D01*
Y554816D01*
X443476Y556323D01*
X442323Y557476D01*
X440816Y558100D01*
D02*
G37*
G36*
X603000Y682539D02*
X602220Y682384D01*
X601558Y681942D01*
X601558Y681942D01*
X597558Y677942D01*
X597116Y677280D01*
X596961Y676500D01*
Y645500D01*
X596961Y645500D01*
X597116Y644720D01*
X597558Y644058D01*
X602558Y639058D01*
X602558Y639058D01*
X603220Y638616D01*
X603940Y638473D01*
Y574925D01*
X568540Y539525D01*
X567827Y539820D01*
X566000Y540060D01*
X564173Y539820D01*
X562470Y539114D01*
X561008Y537992D01*
X559885Y536530D01*
X559180Y534827D01*
X558940Y533000D01*
X559006Y532500D01*
X558940Y532000D01*
X559180Y530173D01*
X559885Y528470D01*
X561008Y527008D01*
X562470Y525886D01*
X563596Y525419D01*
X566008Y523008D01*
X567470Y521886D01*
X569173Y521180D01*
X571000Y520940D01*
X572827Y521180D01*
X574530Y521886D01*
X575992Y523008D01*
X577114Y524470D01*
X577820Y526173D01*
X578060Y528000D01*
X577935Y528950D01*
X615992Y567008D01*
X617114Y568470D01*
X617820Y570173D01*
X618060Y572000D01*
Y638461D01*
X619000D01*
X619780Y638616D01*
X620442Y639058D01*
X620442Y639058D01*
X625442Y644058D01*
X625884Y644720D01*
X626039Y645500D01*
Y675500D01*
X625884Y676280D01*
X625442Y676942D01*
X625442Y676942D01*
X620442Y681942D01*
X619780Y682384D01*
X619000Y682539D01*
X603000D01*
X603000Y682539D01*
D02*
G37*
G36*
X773316Y509100D02*
X771684D01*
X770178Y508476D01*
X769024Y507323D01*
X768400Y505816D01*
Y504184D01*
X769024Y502678D01*
X770178Y501524D01*
X771684Y500900D01*
X773316D01*
X774822Y501524D01*
X775976Y502678D01*
X776600Y504184D01*
Y505816D01*
X775976Y507323D01*
X774822Y508476D01*
X773316Y509100D01*
D02*
G37*
G36*
X879816Y504100D02*
X878185D01*
X876677Y503476D01*
X875524Y502322D01*
X874900Y500816D01*
Y499184D01*
X875524Y497677D01*
X876677Y496524D01*
X878185Y495900D01*
X879816D01*
X881322Y496524D01*
X882476Y497677D01*
X883100Y499184D01*
Y500816D01*
X882476Y502322D01*
X881322Y503476D01*
X879816Y504100D01*
D02*
G37*
G36*
X610500Y496400D02*
X606800D01*
Y494030D01*
X608350Y494133D01*
X608560Y494181D01*
X608711Y494236D01*
X608801Y494299D01*
X608830Y494370D01*
X608840Y492900D01*
X610500D01*
Y494370D01*
X610360D01*
X610438Y494389D01*
X610500Y494440D01*
Y496400D01*
D02*
G37*
G36*
X376816Y495100D02*
X375185D01*
X373678Y494476D01*
X372524Y493322D01*
X371988Y492029D01*
X371815Y492100D01*
X370185D01*
X368677Y491476D01*
X367524Y490322D01*
X366900Y488815D01*
Y487184D01*
X367524Y485677D01*
X367930Y485272D01*
X367931Y485269D01*
X367935Y485242D01*
X367941Y485181D01*
Y465791D01*
X367940Y465785D01*
X367931Y465731D01*
X367930Y465728D01*
X367524Y465322D01*
X366900Y463815D01*
Y462184D01*
X367524Y460677D01*
X368677Y459524D01*
X370185Y458900D01*
X371900Y458184D01*
X372524Y456678D01*
X373678Y455524D01*
X375185Y454900D01*
X376816D01*
X378322Y455524D01*
X379476Y456678D01*
X380100Y458184D01*
X381816Y458900D01*
X383322Y459524D01*
X384476Y460677D01*
X385100Y462184D01*
Y463815D01*
X384476Y465322D01*
X384070Y465728D01*
X384069Y465731D01*
X384064Y465758D01*
X384059Y465819D01*
Y485209D01*
X384059Y485215D01*
X384069Y485269D01*
X384070Y485272D01*
X384476Y485677D01*
X385100Y487184D01*
Y488815D01*
X384476Y490322D01*
X383322Y491476D01*
X381815Y492100D01*
X380185D01*
X380012Y492029D01*
X379476Y493322D01*
X378322Y494476D01*
X376816Y495100D01*
D02*
G37*
G36*
X889816Y494100D02*
X888185D01*
X886678Y493476D01*
X885524Y492323D01*
X884900Y490816D01*
Y489184D01*
X885524Y487678D01*
X886678Y486524D01*
X888185Y485900D01*
X889816D01*
X891322Y486524D01*
X892476Y487678D01*
X893100Y489184D01*
Y490816D01*
X892476Y492323D01*
X891322Y493476D01*
X889816Y494100D01*
D02*
G37*
G36*
X332816Y557100D02*
X331185D01*
X329678Y556476D01*
X328524Y555322D01*
X327900Y553816D01*
Y552184D01*
X328524Y550678D01*
X329678Y549524D01*
X331185Y548900D01*
X331774D01*
X399837Y480837D01*
X399837Y480837D01*
X400830Y480174D01*
X402000Y479941D01*
X402000Y479941D01*
X414260D01*
X414678Y479524D01*
X416185Y478900D01*
X417816D01*
X419323Y479524D01*
X420476Y480678D01*
X421100Y482184D01*
Y483815D01*
X420476Y485322D01*
X419323Y486476D01*
X417816Y487100D01*
X416185D01*
X414678Y486476D01*
X414260Y486059D01*
X403267D01*
X336100Y553226D01*
Y553816D01*
X335476Y555322D01*
X334322Y556476D01*
X332816Y557100D01*
D02*
G37*
G36*
X330816Y479100D02*
X329184D01*
X327678Y478476D01*
X327272Y478070D01*
X327269Y478069D01*
X327242Y478064D01*
X327181Y478059D01*
X272250D01*
X272250Y478059D01*
X271079Y477826D01*
X270087Y477163D01*
X259311Y466387D01*
X259306Y466383D01*
X259261Y466352D01*
X259258Y466350D01*
X258684D01*
X257178Y465726D01*
X256024Y464572D01*
X255400Y463065D01*
Y461435D01*
X256024Y459928D01*
X257178Y458774D01*
X258684Y458150D01*
X260315D01*
X261822Y458774D01*
X262976Y459928D01*
X263600Y461435D01*
Y462008D01*
X263602Y462011D01*
X263617Y462033D01*
X263656Y462080D01*
X273517Y471941D01*
X327209D01*
X327215Y471940D01*
X327269Y471931D01*
X327272Y471930D01*
X327678Y471524D01*
X329184Y470900D01*
X330816D01*
X332322Y471524D01*
X333476Y472677D01*
X334100Y474184D01*
Y475816D01*
X333476Y477322D01*
X332322Y478476D01*
X330816Y479100D01*
D02*
G37*
G36*
X879977Y485382D02*
X878346D01*
X876839Y484758D01*
X875686Y483605D01*
X875061Y482098D01*
Y480467D01*
X875686Y478960D01*
X876839Y477807D01*
X878346Y477182D01*
X879977D01*
X881484Y477807D01*
X882637Y478960D01*
X883261Y480467D01*
Y482098D01*
X882637Y483605D01*
X881484Y484758D01*
X879977Y485382D01*
D02*
G37*
G36*
X233995Y483000D02*
X232005D01*
X230168Y482239D01*
X228761Y480832D01*
X228000Y478995D01*
Y477005D01*
X228761Y475168D01*
X229122Y474807D01*
X229993Y473500D01*
X229122Y472193D01*
X228761Y471832D01*
X228000Y469995D01*
Y468005D01*
X228761Y466168D01*
X229929Y465000D01*
X228761Y463832D01*
X228000Y461995D01*
Y460005D01*
X228761Y458168D01*
X230168Y456761D01*
X232005Y456000D01*
X233995D01*
X235832Y456761D01*
X237239Y458168D01*
X238000Y460005D01*
Y460328D01*
X239006Y461000D01*
X240995D01*
X242832Y461761D01*
X244239Y463168D01*
X245000Y465005D01*
Y466995D01*
X244239Y468832D01*
X243071Y470000D01*
X244239Y471168D01*
X245000Y473005D01*
Y474995D01*
X244239Y476832D01*
X242832Y478239D01*
X240995Y479000D01*
X239006D01*
X237420Y480394D01*
X237239Y480832D01*
X235832Y482239D01*
X233995Y483000D01*
D02*
G37*
G36*
X826000Y448059D02*
X826000Y448059D01*
X773000D01*
X773000Y448059D01*
X771829Y447826D01*
X770837Y447163D01*
X770837Y447163D01*
X757837Y434163D01*
X757174Y433171D01*
X756941Y432000D01*
X756941Y432000D01*
Y419791D01*
X756941Y419785D01*
X756931Y419731D01*
X756930Y419728D01*
X756524Y419323D01*
X755900Y417816D01*
Y416185D01*
X756524Y414678D01*
X757678Y413524D01*
X759184Y412900D01*
X760816D01*
X762322Y413524D01*
X763476Y414678D01*
X764100Y416185D01*
Y417816D01*
X763476Y419323D01*
X763070Y419728D01*
X763069Y419731D01*
X763064Y419758D01*
X763059Y419819D01*
Y430733D01*
X774267Y441941D01*
X824001D01*
X824524Y440678D01*
X825677Y439524D01*
X827185Y438900D01*
X828816D01*
X830322Y439524D01*
X831476Y440678D01*
X832100Y442184D01*
Y443815D01*
X831476Y445322D01*
X830322Y446476D01*
X828816Y447100D01*
X828226D01*
X828163Y447163D01*
X827170Y447826D01*
X826000Y448059D01*
D02*
G37*
G36*
X708816Y486150D02*
X707185D01*
X705678Y485526D01*
X704524Y484372D01*
X703900Y482865D01*
Y481234D01*
X704524Y479728D01*
X705678Y478574D01*
X707185Y477950D01*
X707758D01*
X707761Y477948D01*
X707783Y477933D01*
X707831Y477894D01*
X723887Y461837D01*
X724879Y461174D01*
X726050Y460941D01*
X861733D01*
X885863Y436811D01*
X885867Y436806D01*
X885898Y436761D01*
X885900Y436758D01*
Y436184D01*
X886524Y434678D01*
X887678Y433524D01*
X889184Y432900D01*
X890816D01*
X892322Y433524D01*
X893476Y434678D01*
X894100Y436184D01*
Y437816D01*
X893476Y439322D01*
X892322Y440476D01*
X890816Y441100D01*
X890242D01*
X890239Y441102D01*
X890217Y441117D01*
X890170Y441156D01*
X865163Y466163D01*
X864171Y466826D01*
X863000Y467059D01*
X863000Y467059D01*
X727317D01*
X712137Y482239D01*
X712133Y482244D01*
X712102Y482289D01*
X712100Y482292D01*
Y482865D01*
X711476Y484372D01*
X710322Y485526D01*
X708816Y486150D01*
D02*
G37*
G36*
X745816Y427100D02*
X744184D01*
X742678Y426476D01*
X741524Y425322D01*
X740900Y423815D01*
Y422184D01*
X741524Y420677D01*
X742678Y419524D01*
X744184Y418900D01*
X745816D01*
X747322Y419524D01*
X748476Y420677D01*
X749100Y422184D01*
Y423815D01*
X748476Y425322D01*
X747322Y426476D01*
X745816Y427100D01*
D02*
G37*
G36*
X850816Y404100D02*
X849184D01*
X847678Y403476D01*
X847557Y403355D01*
X846250Y402501D01*
X844943Y403355D01*
X844822Y403476D01*
X843316Y404100D01*
X841684D01*
X840178Y403476D01*
X840057Y403355D01*
X838750Y402501D01*
X837443Y403355D01*
X837322Y403476D01*
X835816Y404100D01*
X834184D01*
X832678Y403476D01*
X831524Y402322D01*
X830900Y400816D01*
Y400029D01*
X830877Y399996D01*
X829079Y398800D01*
X829052Y398795D01*
X828316Y399100D01*
X826684D01*
X825178Y398476D01*
X824024Y397322D01*
X823400Y395816D01*
Y394184D01*
X824024Y392677D01*
X825178Y391524D01*
X826684Y390900D01*
X828316D01*
X829822Y391524D01*
X830976Y392677D01*
X831600Y394184D01*
Y394971D01*
X831623Y395004D01*
X833421Y396200D01*
X833448Y396205D01*
X834184Y395900D01*
X835816D01*
X837322Y396524D01*
X837443Y396645D01*
X838750Y397498D01*
X840057Y396645D01*
X840178Y396524D01*
X841684Y395900D01*
X843316D01*
X844822Y396524D01*
X844943Y396645D01*
X846250Y397498D01*
X847557Y396645D01*
X847678Y396524D01*
X849184Y395900D01*
X850816D01*
X852322Y396524D01*
X853476Y397677D01*
X854100Y399184D01*
Y400816D01*
X853476Y402322D01*
X852322Y403476D01*
X850816Y404100D01*
D02*
G37*
G36*
X787815Y436100D02*
X786184D01*
X784678Y435476D01*
X783524Y434322D01*
X782900Y432816D01*
Y432242D01*
X782898Y432239D01*
X782883Y432217D01*
X782844Y432169D01*
X769837Y419163D01*
X769174Y418171D01*
X768941Y417000D01*
X768941Y417000D01*
Y397791D01*
X768941Y397785D01*
X768931Y397731D01*
X768930Y397728D01*
X768524Y397322D01*
X767900Y395816D01*
Y394184D01*
X768524Y392677D01*
X769678Y391524D01*
X771184Y390900D01*
X772815D01*
X774323Y391524D01*
X775476Y392677D01*
X776100Y394184D01*
Y395816D01*
X775476Y397322D01*
X775070Y397728D01*
X775069Y397731D01*
X775064Y397758D01*
X775059Y397819D01*
Y415733D01*
X787189Y427863D01*
X787194Y427867D01*
X787239Y427898D01*
X787242Y427900D01*
X787815D01*
X789322Y428524D01*
X790476Y429678D01*
X791100Y431185D01*
Y432816D01*
X790476Y434322D01*
X789322Y435476D01*
X787815Y436100D01*
D02*
G37*
G36*
X703995Y371000D02*
X702005D01*
X700168Y370239D01*
X698761Y368832D01*
X698000Y366995D01*
Y365005D01*
X698761Y363168D01*
X700168Y361761D01*
X702005Y361000D01*
X703995D01*
X705832Y361761D01*
X707239Y363168D01*
X708000Y365005D01*
Y366995D01*
X707239Y368832D01*
X705832Y370239D01*
X703995Y371000D01*
D02*
G37*
G36*
X630816Y321600D02*
X629184D01*
X627678Y320976D01*
X626524Y319822D01*
X625900Y318316D01*
Y316684D01*
X626524Y315178D01*
X627678Y314024D01*
X629184Y313400D01*
X630816D01*
X632323Y314024D01*
X633476Y315178D01*
X634100Y316684D01*
Y318316D01*
X633476Y319822D01*
X632323Y320976D01*
X630816Y321600D01*
D02*
G37*
G36*
X606816Y321100D02*
X605185D01*
X603678Y320476D01*
X602524Y319322D01*
X601900Y317816D01*
Y316185D01*
X602524Y314678D01*
X603678Y313524D01*
X605185Y312900D01*
X606816D01*
X608322Y313524D01*
X609476Y314678D01*
X610100Y316185D01*
Y317816D01*
X609476Y319322D01*
X608322Y320476D01*
X606816Y321100D01*
D02*
G37*
G36*
X642816Y321100D02*
X641184D01*
X639678Y320476D01*
X638524Y319322D01*
X637900Y317815D01*
Y316185D01*
X638524Y314678D01*
X639678Y313524D01*
X641184Y312900D01*
X642816D01*
X644323Y313524D01*
X645476Y314678D01*
X646100Y316185D01*
Y317815D01*
X645476Y319322D01*
X644323Y320476D01*
X642816Y321100D01*
D02*
G37*
G36*
X618816D02*
X617184D01*
X615678Y320476D01*
X614524Y319322D01*
X613900Y317815D01*
Y316185D01*
X614524Y314678D01*
X615678Y313524D01*
X617184Y312900D01*
X618816D01*
X620322Y313524D01*
X621476Y314678D01*
X622100Y316185D01*
Y317815D01*
X621476Y319322D01*
X620322Y320476D01*
X618816Y321100D01*
D02*
G37*
G36*
X760000Y317500D02*
X759749D01*
X757333Y316853D01*
X755167Y315602D01*
X753398Y313833D01*
X752147Y311667D01*
X751500Y309251D01*
Y309000D01*
X760000D01*
Y317500D01*
D02*
G37*
G36*
X515816Y289100D02*
X514184D01*
X512677Y288476D01*
X511524Y287323D01*
X510900Y285816D01*
Y284184D01*
X511524Y282678D01*
X512677Y281524D01*
X514184Y280900D01*
X515816D01*
X517322Y281524D01*
X518476Y282678D01*
X519100Y284184D01*
Y285816D01*
X518476Y287323D01*
X517322Y288476D01*
X515816Y289100D01*
D02*
G37*
G36*
X647495Y290000D02*
X645505D01*
X643668Y289239D01*
X642261Y287832D01*
X641500Y285995D01*
Y284005D01*
X642261Y282168D01*
X643668Y280761D01*
X645505Y280000D01*
X647495D01*
X649332Y280761D01*
X650739Y282168D01*
X651500Y284005D01*
Y285995D01*
X650739Y287832D01*
X649332Y289239D01*
X647495Y290000D01*
D02*
G37*
G36*
X515816Y264100D02*
X514184D01*
X512678Y263476D01*
X511524Y262322D01*
X510900Y260816D01*
Y259184D01*
X511524Y257677D01*
X512678Y256524D01*
X514184Y255900D01*
X515816D01*
X517323Y256524D01*
X518476Y257677D01*
X519100Y259184D01*
Y260816D01*
X518476Y262322D01*
X517323Y263476D01*
X515816Y264100D01*
D02*
G37*
G36*
X647495Y265000D02*
X645505D01*
X643668Y264239D01*
X642261Y262832D01*
X641500Y260995D01*
Y259005D01*
X642261Y257168D01*
X643668Y255761D01*
X645505Y255000D01*
X647495D01*
X649332Y255761D01*
X650739Y257168D01*
X651500Y259005D01*
Y260995D01*
X650739Y262832D01*
X649332Y264239D01*
X647495Y265000D01*
D02*
G37*
G36*
X515816Y251600D02*
X514184D01*
X512677Y250976D01*
X511524Y249822D01*
X510900Y248316D01*
Y246684D01*
X511524Y245177D01*
X512677Y244024D01*
X514184Y243400D01*
X515816D01*
X517322Y244024D01*
X518476Y245177D01*
X519100Y246684D01*
Y248316D01*
X518476Y249822D01*
X517322Y250976D01*
X515816Y251600D01*
D02*
G37*
G36*
X715995Y249000D02*
X714005D01*
X712168Y248239D01*
X710761Y246832D01*
X710000Y244995D01*
Y243005D01*
X710761Y241168D01*
X712168Y239761D01*
X714005Y239000D01*
X715995D01*
X717832Y239761D01*
X719239Y241168D01*
X720000Y243005D01*
Y244995D01*
X719239Y246832D01*
X717832Y248239D01*
X715995Y249000D01*
D02*
G37*
G36*
X891477Y265000D02*
X888523D01*
X885625Y264424D01*
X882895Y263293D01*
X880438Y261651D01*
X878349Y259562D01*
X876707Y257105D01*
X875576Y254375D01*
X875000Y251477D01*
Y248523D01*
X875576Y245625D01*
X876707Y242895D01*
X878349Y240438D01*
X880438Y238349D01*
X882895Y236707D01*
X885625Y235576D01*
X888523Y235000D01*
X891477D01*
X894375Y235576D01*
X897105Y236707D01*
X899562Y238349D01*
X901651Y240438D01*
X903293Y242895D01*
X904424Y245625D01*
X905000Y248523D01*
Y251477D01*
X904424Y254375D01*
X903293Y257105D01*
X901651Y259562D01*
X899562Y261651D01*
X897105Y263293D01*
X894375Y264424D01*
X891477Y265000D01*
D02*
G37*
G36*
X647495Y240000D02*
X645505D01*
X643668Y239239D01*
X642261Y237832D01*
X641500Y235995D01*
Y234006D01*
X642261Y232168D01*
X643668Y230761D01*
X645505Y230000D01*
X647495D01*
X649332Y230761D01*
X650739Y232168D01*
X651500Y234006D01*
Y235995D01*
X650739Y237832D01*
X649332Y239239D01*
X647495Y240000D01*
D02*
G37*
%LPD*%
G36*
X323107Y668846D02*
X323130Y668710D01*
X323170Y668570D01*
X323225Y668428D01*
X323298Y668283D01*
X323386Y668134D01*
X323491Y667983D01*
X323612Y667829D01*
X323750Y667671D01*
X323904Y667510D01*
X322490Y666096D01*
X322329Y666250D01*
X322017Y666509D01*
X321866Y666614D01*
X321717Y666702D01*
X321572Y666775D01*
X321430Y666831D01*
X321290Y666870D01*
X321154Y666893D01*
X321021Y666900D01*
X323100Y668979D01*
X323107Y668846D01*
D02*
G37*
G36*
X318107Y657846D02*
X318130Y657710D01*
X318169Y657570D01*
X318225Y657428D01*
X318298Y657283D01*
X318386Y657134D01*
X318491Y656983D01*
X318612Y656829D01*
X318750Y656671D01*
X318904Y656510D01*
X317490Y655096D01*
X317329Y655250D01*
X317017Y655509D01*
X316866Y655614D01*
X316717Y655702D01*
X316572Y655775D01*
X316430Y655831D01*
X316290Y655870D01*
X316154Y655893D01*
X316021Y655900D01*
X318100Y657979D01*
X318107Y657846D01*
D02*
G37*
G36*
X378526Y639896D02*
X378826Y639650D01*
X378962Y639563D01*
X379088Y639500D01*
X379204Y639460D01*
X379310Y639444D01*
X379407Y639452D01*
X379493Y639483D01*
X379570Y639538D01*
X379271Y636808D01*
X377304Y638282D01*
X378360Y640054D01*
X378526Y639896D01*
D02*
G37*
G36*
X374671Y634750D02*
X374983Y634491D01*
X375134Y634386D01*
X375283Y634298D01*
X375428Y634225D01*
X375570Y634170D01*
X375710Y634130D01*
X375846Y634107D01*
X375979Y634100D01*
X373900Y632021D01*
X373893Y632154D01*
X373870Y632290D01*
X373830Y632430D01*
X373775Y632572D01*
X373702Y632717D01*
X373614Y632866D01*
X373509Y633017D01*
X373388Y633172D01*
X373250Y633329D01*
X373096Y633490D01*
X374510Y634904D01*
X374671Y634750D01*
D02*
G37*
G36*
X369008Y630415D02*
X369166Y630282D01*
X369319Y630169D01*
X369469Y630078D01*
X369613Y630008D01*
X369754Y629959D01*
X369890Y629930D01*
X370022Y629923D01*
X370150Y629936D01*
X370273Y629970D01*
X369016Y627313D01*
X368981Y627396D01*
X368933Y627488D01*
X368870Y627589D01*
X368794Y627700D01*
X368598Y627947D01*
X368346Y628230D01*
X368037Y628549D01*
X368846Y630569D01*
X369008Y630415D01*
D02*
G37*
G36*
X624000Y675500D02*
Y645500D01*
X619000Y640500D01*
X604000D01*
Y640500D01*
X599000Y645500D01*
Y676500D01*
X603000Y680500D01*
X619000D01*
X624000Y675500D01*
D02*
G37*
G36*
X377381Y489401D02*
X377301Y489289D01*
X377230Y489162D01*
X377169Y489022D01*
X377118Y488868D01*
X377075Y488701D01*
X377042Y488519D01*
X377019Y488325D01*
X377005Y488116D01*
X377000Y487893D01*
X375000D01*
X374995Y488116D01*
X374958Y488519D01*
X374925Y488701D01*
X374883Y488868D01*
X374831Y489022D01*
X374770Y489162D01*
X374699Y489289D01*
X374619Y489401D01*
X374530Y489500D01*
X377470D01*
X377381Y489401D01*
D02*
G37*
G36*
X382381Y486401D02*
X382301Y486289D01*
X382230Y486162D01*
X382169Y486022D01*
X382118Y485868D01*
X382075Y485701D01*
X382042Y485519D01*
X382019Y485325D01*
X382005Y485116D01*
X382000Y484893D01*
X380000D01*
X379995Y485116D01*
X379958Y485519D01*
X379925Y485701D01*
X379883Y485868D01*
X379831Y486022D01*
X379770Y486162D01*
X379699Y486289D01*
X379619Y486401D01*
X379530Y486500D01*
X382470D01*
X382381Y486401D01*
D02*
G37*
G36*
X372381D02*
X372301Y486289D01*
X372230Y486162D01*
X372169Y486022D01*
X372118Y485868D01*
X372075Y485701D01*
X372042Y485519D01*
X372019Y485325D01*
X372005Y485116D01*
X372000Y484893D01*
X370000D01*
X369995Y485116D01*
X369958Y485519D01*
X369925Y485701D01*
X369883Y485868D01*
X369831Y486022D01*
X369770Y486162D01*
X369699Y486289D01*
X369619Y486401D01*
X369530Y486500D01*
X372470D01*
X372381Y486401D01*
D02*
G37*
G36*
X382005Y465884D02*
X382042Y465481D01*
X382075Y465299D01*
X382118Y465132D01*
X382169Y464978D01*
X382230Y464838D01*
X382301Y464711D01*
X382381Y464599D01*
X382470Y464500D01*
X379530D01*
X379619Y464599D01*
X379699Y464711D01*
X379770Y464838D01*
X379831Y464978D01*
X379883Y465132D01*
X379925Y465299D01*
X379958Y465481D01*
X379981Y465676D01*
X379995Y465884D01*
X380000Y466107D01*
X382000D01*
X382005Y465884D01*
D02*
G37*
G36*
X372005D02*
X372042Y465481D01*
X372075Y465299D01*
X372118Y465132D01*
X372169Y464978D01*
X372230Y464838D01*
X372301Y464711D01*
X372381Y464599D01*
X372470Y464500D01*
X369530D01*
X369619Y464599D01*
X369699Y464711D01*
X369770Y464838D01*
X369831Y464978D01*
X369883Y465132D01*
X369925Y465299D01*
X369958Y465481D01*
X369981Y465676D01*
X369995Y465884D01*
X370000Y466107D01*
X372000D01*
X372005Y465884D01*
D02*
G37*
G36*
X377005Y461884D02*
X377042Y461481D01*
X377075Y461299D01*
X377118Y461132D01*
X377169Y460978D01*
X377230Y460838D01*
X377301Y460711D01*
X377381Y460599D01*
X377470Y460500D01*
X374530D01*
X374619Y460599D01*
X374699Y460711D01*
X374770Y460838D01*
X374831Y460978D01*
X374883Y461132D01*
X374925Y461299D01*
X374958Y461481D01*
X374981Y461675D01*
X374995Y461884D01*
X375000Y462107D01*
X377000D01*
X377005Y461884D01*
D02*
G37*
G36*
X328500Y473530D02*
X328401Y473619D01*
X328289Y473699D01*
X328162Y473770D01*
X328022Y473831D01*
X327868Y473882D01*
X327701Y473925D01*
X327519Y473958D01*
X327324Y473981D01*
X327116Y473995D01*
X326893Y474000D01*
Y476000D01*
X327116Y476005D01*
X327519Y476042D01*
X327701Y476075D01*
X327868Y476118D01*
X328022Y476169D01*
X328162Y476230D01*
X328289Y476301D01*
X328401Y476381D01*
X328500Y476470D01*
Y473530D01*
D02*
G37*
G36*
X262404Y463740D02*
X262250Y463579D01*
X261991Y463267D01*
X261886Y463116D01*
X261798Y462967D01*
X261725Y462822D01*
X261670Y462680D01*
X261630Y462540D01*
X261607Y462404D01*
X261600Y462271D01*
X259521Y464350D01*
X259654Y464357D01*
X259790Y464380D01*
X259930Y464420D01*
X260072Y464475D01*
X260217Y464548D01*
X260366Y464636D01*
X260517Y464741D01*
X260672Y464862D01*
X260829Y465000D01*
X260990Y465154D01*
X262404Y463740D01*
D02*
G37*
G36*
X761005Y419884D02*
X761042Y419481D01*
X761075Y419299D01*
X761117Y419132D01*
X761169Y418978D01*
X761230Y418838D01*
X761301Y418711D01*
X761381Y418599D01*
X761470Y418500D01*
X758530D01*
X758619Y418599D01*
X758699Y418711D01*
X758770Y418838D01*
X758831Y418978D01*
X758883Y419132D01*
X758925Y419299D01*
X758958Y419481D01*
X758981Y419675D01*
X758995Y419884D01*
X759000Y420107D01*
X761000D01*
X761005Y419884D01*
D02*
G37*
G36*
X710107Y481896D02*
X710130Y481760D01*
X710170Y481620D01*
X710225Y481478D01*
X710298Y481333D01*
X710386Y481184D01*
X710491Y481033D01*
X710612Y480878D01*
X710750Y480721D01*
X710904Y480560D01*
X709490Y479146D01*
X709329Y479300D01*
X709017Y479559D01*
X708866Y479664D01*
X708717Y479752D01*
X708572Y479825D01*
X708430Y479880D01*
X708290Y479920D01*
X708154Y479943D01*
X708021Y479950D01*
X710100Y482029D01*
X710107Y481896D01*
D02*
G37*
G36*
X888671Y439750D02*
X888983Y439491D01*
X889134Y439386D01*
X889283Y439298D01*
X889428Y439225D01*
X889570Y439170D01*
X889710Y439130D01*
X889846Y439107D01*
X889979Y439100D01*
X887900Y437021D01*
X887893Y437154D01*
X887870Y437290D01*
X887831Y437430D01*
X887775Y437572D01*
X887702Y437717D01*
X887614Y437866D01*
X887509Y438017D01*
X887388Y438172D01*
X887250Y438329D01*
X887096Y438490D01*
X888510Y439904D01*
X888671Y439750D01*
D02*
G37*
G36*
X786979Y429900D02*
X786846Y429893D01*
X786710Y429870D01*
X786570Y429831D01*
X786428Y429775D01*
X786283Y429702D01*
X786134Y429614D01*
X785983Y429509D01*
X785828Y429388D01*
X785671Y429250D01*
X785510Y429096D01*
X784096Y430510D01*
X784250Y430671D01*
X784509Y430983D01*
X784614Y431134D01*
X784702Y431283D01*
X784775Y431428D01*
X784830Y431570D01*
X784870Y431710D01*
X784893Y431846D01*
X784900Y431979D01*
X786979Y429900D01*
D02*
G37*
G36*
X773005Y397884D02*
X773042Y397481D01*
X773075Y397299D01*
X773118Y397132D01*
X773169Y396978D01*
X773230Y396838D01*
X773301Y396711D01*
X773381Y396599D01*
X773470Y396500D01*
X770530D01*
X770619Y396599D01*
X770699Y396711D01*
X770770Y396838D01*
X770831Y396978D01*
X770882Y397132D01*
X770925Y397299D01*
X770958Y397481D01*
X770981Y397676D01*
X770995Y397884D01*
X771000Y398107D01*
X773000D01*
X773005Y397884D01*
D02*
G37*
%LPC*%
G36*
X926251Y659500D02*
X923749D01*
X921333Y658853D01*
X919167Y657602D01*
X917398Y655833D01*
X916147Y653667D01*
X915500Y651251D01*
Y648749D01*
X916147Y646333D01*
X917398Y644167D01*
X919167Y642398D01*
X921333Y641148D01*
X921752Y641035D01*
Y638965D01*
X921333Y638853D01*
X919167Y637602D01*
X917398Y635833D01*
X916147Y633667D01*
X915500Y631251D01*
Y628749D01*
X916147Y626333D01*
X917398Y624167D01*
X919167Y622398D01*
X921333Y621147D01*
X921752Y621035D01*
Y618965D01*
X921333Y618853D01*
X919167Y617602D01*
X917398Y615833D01*
X916147Y613667D01*
X915500Y611251D01*
Y608749D01*
X916147Y606333D01*
X917398Y604167D01*
X919167Y602398D01*
X921333Y601147D01*
X921752Y601035D01*
Y598965D01*
X921333Y598853D01*
X919167Y597602D01*
X917398Y595833D01*
X916147Y593667D01*
X915500Y591251D01*
Y588749D01*
X916147Y586333D01*
X917398Y584167D01*
X919167Y582398D01*
X921333Y581147D01*
X921752Y581035D01*
Y578965D01*
X921333Y578853D01*
X919167Y577602D01*
X917398Y575833D01*
X916147Y573667D01*
X915500Y571251D01*
Y571000D01*
X925000D01*
X934500D01*
Y571251D01*
X933853Y573667D01*
X932602Y575833D01*
X930833Y577602D01*
X928667Y578853D01*
X928248Y578965D01*
Y581035D01*
X928667Y581147D01*
X930833Y582398D01*
X932602Y584167D01*
X933853Y586333D01*
X934500Y588749D01*
Y591251D01*
X933853Y593667D01*
X932602Y595833D01*
X930833Y597602D01*
X928667Y598853D01*
X928248Y598965D01*
Y601035D01*
X928667Y601147D01*
X930833Y602398D01*
X932602Y604167D01*
X933853Y606333D01*
X934500Y608749D01*
Y611251D01*
X933853Y613667D01*
X932602Y615833D01*
X930833Y617602D01*
X928667Y618853D01*
X928248Y618965D01*
Y621035D01*
X928667Y621147D01*
X930833Y622398D01*
X932602Y624167D01*
X933853Y626333D01*
X934500Y628749D01*
Y631251D01*
X933853Y633667D01*
X932602Y635833D01*
X930833Y637602D01*
X928667Y638853D01*
X928248Y638965D01*
Y641035D01*
X928667Y641148D01*
X930833Y642398D01*
X932602Y644167D01*
X933853Y646333D01*
X934500Y648749D01*
Y651251D01*
X933853Y653667D01*
X932602Y655833D01*
X930833Y657602D01*
X928667Y658853D01*
X926251Y659500D01*
D02*
G37*
G36*
X934500Y569000D02*
X925000D01*
X915500D01*
Y568749D01*
X916147Y566333D01*
X917398Y564167D01*
X919167Y562398D01*
X921333Y561147D01*
X921752Y561035D01*
Y558965D01*
X921333Y558853D01*
X919167Y557602D01*
X917398Y555833D01*
X916147Y553667D01*
X915500Y551251D01*
Y548749D01*
X916147Y546333D01*
X917398Y544167D01*
X919167Y542398D01*
X920723Y541500D01*
X920187Y539500D01*
X915500D01*
Y520500D01*
X934500D01*
Y539500D01*
X929813D01*
X929277Y541500D01*
X930833Y542398D01*
X932602Y544167D01*
X933853Y546333D01*
X934500Y548749D01*
Y551251D01*
X933853Y553667D01*
X932602Y555833D01*
X930833Y557602D01*
X928667Y558853D01*
X928248Y558965D01*
Y561035D01*
X928667Y561147D01*
X930833Y562398D01*
X932602Y564167D01*
X933853Y566333D01*
X934500Y568749D01*
Y569000D01*
D02*
G37*
G36*
X591670Y469109D02*
X591626Y469100D01*
X583300D01*
Y459100D01*
X591626D01*
X591670Y459091D01*
X591713Y459100D01*
X593700D01*
Y459801D01*
X595139Y459912D01*
X596500D01*
X598256Y460261D01*
X599744Y461256D01*
X600739Y462744D01*
X601088Y464500D01*
X600739Y466256D01*
X599744Y467744D01*
X598256Y468739D01*
X596500Y469088D01*
X593700D01*
Y469100D01*
X591713D01*
X591670Y469109D01*
D02*
G37*
%LPD*%
G36*
X591718Y467056D02*
X591863Y467044D01*
X592877Y467017D01*
X596500Y467000D01*
Y462000D01*
X595582Y461991D01*
X592877Y461783D01*
X592442Y461687D01*
X592104Y461574D01*
X591863Y461443D01*
X591718Y461296D01*
X591670Y461130D01*
Y467070D01*
X591718Y467056D01*
D02*
G37*
%LPC*%
G36*
X616450Y405100D02*
X612750D01*
Y403630D01*
X614420D01*
X614296Y403601D01*
X614186Y403515D01*
X614089Y403369D01*
X614004Y403166D01*
X613933Y402905D01*
X613874Y402586D01*
X613829Y402209D01*
X613795Y401600D01*
X616450D01*
Y405100D01*
D02*
G37*
G36*
X941573Y306648D02*
Y304166D01*
X941565Y304266D01*
X941548Y304349D01*
X941523Y304432D01*
X941490Y304499D01*
X941457Y304557D01*
X941432Y304599D01*
X941415Y304624D01*
X941407Y304632D01*
X941332Y304690D01*
X941257Y304740D01*
X941182Y304774D01*
X941107Y304790D01*
X941032Y304807D01*
X940982Y304815D01*
X940948D01*
X940932D01*
X938832D01*
Y305998D01*
X938824Y306107D01*
X938799Y306207D01*
X938766Y306282D01*
X938724Y306348D01*
X938691Y306407D01*
X938657Y306440D01*
X938632Y306465D01*
X938624Y306473D01*
X938549Y306532D01*
X938466Y306573D01*
X938391Y306607D01*
X938324Y306623D01*
X938266Y306640D01*
X938224Y306648D01*
X941573D01*
X938183D01*
X938099Y306640D01*
X938016Y306615D01*
X937941Y306582D01*
X937874Y306548D01*
X937824Y306507D01*
X937783Y306473D01*
X937758Y306448D01*
X937749Y306440D01*
X937683Y306365D01*
X937633Y306290D01*
X937591Y306215D01*
X937566Y306148D01*
X937549Y306082D01*
X937541Y306040D01*
Y304815D01*
X935433D01*
X935325Y304807D01*
X935233Y304782D01*
X935150Y304749D01*
X935083Y304707D01*
X935033Y304666D01*
X935000Y304632D01*
X934975Y304607D01*
X934967Y304599D01*
X934908Y304524D01*
X934867Y304440D01*
X934833Y304374D01*
X934817Y304307D01*
X934800Y304249D01*
X934792Y304207D01*
Y304166D01*
X934800Y304066D01*
X934825Y303974D01*
X934858Y303899D01*
X934900Y303832D01*
X934942Y303774D01*
X934975Y303732D01*
X935000Y303707D01*
X935008Y303699D01*
X935092Y303641D01*
X935167Y303591D01*
X935242Y303557D01*
X935300Y303541D01*
X935358Y303524D01*
X935400Y303516D01*
X935425D01*
X935433D01*
X937541D01*
Y301266D01*
X929193Y302974D01*
X929043Y302991D01*
X928951Y302983D01*
X928860Y302958D01*
X928785Y302924D01*
X928718Y302891D01*
X928668Y302849D01*
X928635Y302816D01*
X928610Y302791D01*
X928602Y302783D01*
X928543Y302708D01*
X928502Y302624D01*
X928468Y302541D01*
X928452Y302474D01*
X928435Y302408D01*
X928427Y302358D01*
Y304690D01*
Y302358D01*
Y299867D01*
Y302308D01*
X928543Y301950D01*
X928602Y301883D01*
X928677Y301824D01*
X928743Y301783D01*
X928818Y301749D01*
X928876Y301724D01*
X928926Y301708D01*
X928960Y301700D01*
X928977D01*
X938074Y299875D01*
X938191Y299867D01*
X938291Y299875D01*
X938382Y299892D01*
X938466Y299925D01*
X938532Y299958D01*
X938582Y299992D01*
X938624Y300025D01*
X938649Y300042D01*
X938657Y300050D01*
X938716Y300125D01*
X938757Y300200D01*
X938791Y300275D01*
X938807Y300350D01*
X938824Y300417D01*
X938832Y300466D01*
Y303516D01*
X940932D01*
X941048Y303524D01*
X941157Y303549D01*
X941240Y303591D01*
X941315Y303632D01*
X941373Y303666D01*
X941415Y303707D01*
X941440Y303732D01*
X941448Y303741D01*
X941490Y303841D01*
X941523Y303932D01*
X941540Y304007D01*
X941557Y304066D01*
X941565Y304107D01*
X941573Y304141D01*
Y300466D01*
Y306648D01*
D02*
G37*
G36*
Y298292D02*
X940923D01*
X940840Y298284D01*
X940757Y298259D01*
X940682Y298225D01*
X940615Y298192D01*
X940565Y298151D01*
X940524Y298117D01*
X940499Y298092D01*
X940490Y298084D01*
X940424Y298009D01*
X940374Y297934D01*
X940332Y297859D01*
X940307Y297792D01*
X940290Y297726D01*
X940282Y297684D01*
Y294651D01*
X929068D01*
X928960Y294643D01*
X928868Y294618D01*
X928785Y294585D01*
X928718Y294543D01*
X928668Y294501D01*
X928635Y294468D01*
X928610Y294443D01*
X928602Y294435D01*
X928543Y294360D01*
X928502Y294276D01*
X928468Y294210D01*
X928452Y294143D01*
X928435Y294085D01*
X928427Y294043D01*
Y294002D01*
X928435Y293902D01*
X928460Y293810D01*
X928493Y293735D01*
X928535Y293668D01*
X928577Y293610D01*
X928610Y293568D01*
X928635Y293543D01*
X928643Y293535D01*
X928727Y293477D01*
X928801Y293427D01*
X928876Y293393D01*
X928935Y293377D01*
X928993Y293360D01*
X929035Y293352D01*
X928427D01*
X940932D01*
X941048Y293360D01*
X941140Y293377D01*
X941232Y293410D01*
X941298Y293452D01*
X941365Y293502D01*
X941415Y293552D01*
X941457Y293610D01*
X941490Y293677D01*
X941540Y293793D01*
X941565Y293893D01*
Y293935D01*
X941573Y293968D01*
Y297642D01*
X941565Y297751D01*
X941540Y297850D01*
X941507Y297925D01*
X941465Y297992D01*
X941432Y298050D01*
X941398Y298084D01*
X941373Y298109D01*
X941365Y298117D01*
X941290Y298176D01*
X941207Y298217D01*
X941132Y298250D01*
X941065Y298267D01*
X941007Y298284D01*
X940965Y298292D01*
X941573D01*
D02*
G37*
%LPD*%
D12*
X772000Y395000D02*
Y417000D01*
X787000Y432000D01*
Y432000D01*
X332000Y553000D02*
X402000Y483000D01*
X417000D01*
X459500Y585000D02*
X520000D01*
X452000Y592500D02*
X459500Y585000D01*
X397450Y592500D02*
X452000D01*
X326000Y602500D02*
X356000Y572500D01*
X496500D01*
X499550Y575550D01*
X499500Y568500D02*
X502000Y571000D01*
X330106Y591894D02*
X353500Y568500D01*
X499500D01*
X331000Y603250D02*
X357750Y576500D01*
X493500D01*
X497550Y580550D01*
X331000Y603250D02*
Y624000D01*
X326000Y602500D02*
Y635000D01*
X660000Y347000D02*
Y360750D01*
X628505Y392245D02*
Y408495D01*
Y392245D02*
X660000Y360750D01*
X584000Y356000D02*
X592750Y347250D01*
Y312250D02*
Y347250D01*
Y312250D02*
X628000Y277000D01*
X618000Y350000D02*
X644000D01*
X622000Y354000D02*
X646000D01*
X623500Y358750D02*
X634750D01*
X599500Y382750D02*
X623500Y358750D01*
X646000Y354000D02*
X712000Y288000D01*
X644000Y350000D02*
X718000Y276000D01*
X642000Y345000D02*
X686900Y300100D01*
X607000Y345000D02*
X642000D01*
X478750Y450250D02*
Y463500D01*
Y450250D02*
X492000Y437000D01*
X588500Y500250D02*
X592000Y496750D01*
X596260D02*
X596505Y496505D01*
X592000Y496750D02*
X596260D01*
X592000Y503750D02*
X593296D01*
X593672Y504126D01*
X596126D02*
X596505Y504505D01*
X588500Y500250D02*
X592000Y503750D01*
X593672Y504126D02*
X596126D01*
X353000Y645000D02*
X370000Y628000D01*
X313000Y645000D02*
X353000D01*
X324000Y650000D02*
X358000D01*
X316000Y658000D02*
X324000Y650000D01*
X358000D02*
X376000Y632000D01*
X362000Y655000D02*
X379000Y638000D01*
X335000Y655000D02*
X362000D01*
X321000Y669000D02*
X335000Y655000D01*
X726050Y464000D02*
X863000D01*
X890000Y437000D01*
X708000Y482050D02*
X726050Y464000D01*
X760000Y417000D02*
Y432000D01*
X773000Y445000D01*
X826000D01*
X828000Y443000D01*
X667000Y340000D02*
X709000Y298000D01*
X666138Y340862D02*
X667000Y340000D01*
X660000Y347000D02*
X666138Y340862D01*
X686900Y299695D02*
Y300100D01*
Y299695D02*
X688000Y298595D01*
X686115Y293450D02*
X686550D01*
X683450Y296115D02*
X686115Y293450D01*
X686550D02*
X714000Y266000D01*
X683450Y296115D02*
Y296550D01*
X688000Y298000D02*
X715000Y271000D01*
X640000Y340000D02*
X683450Y296550D01*
X715000Y271000D02*
X804000D01*
X688000Y298000D02*
Y298595D01*
X630000Y340000D02*
X640000D01*
X599500Y403500D02*
X604500Y408500D01*
X599500Y382750D02*
Y403500D01*
X596250Y386250D02*
Y408750D01*
X584000Y374000D02*
X596250Y386250D01*
X584000Y371066D02*
Y374000D01*
X583950Y371016D02*
X584000Y371066D01*
X497550Y580550D02*
X520146D01*
X499550Y575550D02*
X502731D01*
X520146Y580550D02*
X522728D01*
X520000Y585000D02*
X522500Y587500D01*
X522728Y580550D02*
X524678Y582500D01*
X525000D01*
X516284Y575497D02*
X517941D01*
X509250Y575531D02*
X509250Y575531D01*
X516250D01*
X516284Y575497D01*
X502000Y571000D02*
X524000D01*
X509231Y575550D02*
X509250Y575531D01*
X502769Y575550D02*
X509231D01*
X502750Y575531D02*
X502769Y575550D01*
X502731D02*
X502750Y575531D01*
X517941Y575497D02*
X518023Y575579D01*
X519579D02*
X520000Y576000D01*
X518023Y575579D02*
X519579D01*
X604250Y384750D02*
X617000Y372000D01*
X604250Y384750D02*
Y400750D01*
X610533Y365467D02*
X622000Y354000D01*
X600467Y365467D02*
X610533D01*
X714000Y266000D02*
X819000D01*
X841000Y288000D01*
X804000Y271000D02*
X821000Y288000D01*
X789000Y276000D02*
X801000Y288000D01*
X718000Y276000D02*
X789000D01*
X709000Y298000D02*
X771000D01*
X712000Y288000D02*
X761000D01*
X771000Y298000D02*
X781000Y288000D01*
X522500Y587500D02*
X535000D01*
X555000Y315000D02*
X557500D01*
X565000Y314000D02*
X609250Y269750D01*
X565000Y314000D02*
Y315000D01*
X628000Y266000D02*
Y277000D01*
X542000Y260000D02*
X542500D01*
X537750Y264250D02*
X542000Y260000D01*
X537750Y264250D02*
Y274750D01*
X583950Y358080D02*
Y371016D01*
Y358080D02*
X584000Y358030D01*
Y356000D02*
Y358030D01*
X590750Y296750D02*
X614500Y273000D01*
X620000D01*
X562500Y325000D02*
Y327500D01*
Y325000D02*
X575000Y312500D01*
X537750Y274750D02*
Y310750D01*
X577000Y350000D01*
X591000Y361000D02*
X607000Y345000D01*
X609250Y269750D02*
X620000Y259000D01*
X575000Y312500D02*
X590750Y296750D01*
X620000Y248000D02*
Y259000D01*
X544000Y274000D02*
Y304000D01*
X555000Y315000D01*
X455450Y377450D02*
Y377885D01*
X448000Y376000D02*
X454000D01*
X458550Y380550D02*
X460000Y382000D01*
X458115Y380550D02*
X458550D01*
X454000Y376000D02*
X455450Y377450D01*
Y377885D02*
X458115Y380550D01*
X456000Y372000D02*
X460000Y376000D01*
X461000Y370000D02*
Y370000D01*
X459000Y368000D02*
X461000Y370000D01*
X443391Y368000D02*
X459000D01*
X429695Y381695D02*
X443391Y368000D01*
X429695Y381695D02*
X429754Y381754D01*
X381902D02*
X429754D01*
X446000Y372000D02*
X456000D01*
X431246Y386754D02*
X446000Y372000D01*
X384902Y386754D02*
X431246D01*
X432000Y392000D02*
X448000Y376000D01*
X387000Y392000D02*
X432000D01*
X381000Y463000D02*
Y488000D01*
X376000Y459000D02*
Y491000D01*
X371000Y463000D02*
Y488000D01*
X379000Y638000D02*
X381000D01*
X370000Y628000D02*
X371000D01*
X311000Y647000D02*
X313000Y645000D01*
X921482Y610000D02*
X925000D01*
X259500Y462250D02*
X272250Y475000D01*
X330000D01*
X612500Y440500D02*
Y448500D01*
X612505Y448505D01*
X600250Y365250D02*
X600467Y365467D01*
X572500Y407905D02*
Y408500D01*
X563905Y440500D02*
X564500D01*
D16*
X622600Y464000D02*
D03*
X631400D02*
D03*
X547600Y481000D02*
D03*
X556400D02*
D03*
X555400Y417000D02*
D03*
X546600D02*
D03*
X571600Y448000D02*
D03*
X580400D02*
D03*
X621600Y474000D02*
D03*
X630400D02*
D03*
X623100Y454000D02*
D03*
X631900D02*
D03*
X555400Y437000D02*
D03*
X546600D02*
D03*
Y427000D02*
D03*
X555400D02*
D03*
Y459000D02*
D03*
X546600D02*
D03*
X631400Y427000D02*
D03*
X622600D02*
D03*
X629400Y417000D02*
D03*
X620600D02*
D03*
X547600Y472000D02*
D03*
X556400D02*
D03*
D17*
X543250Y448000D02*
D03*
X556750D02*
D03*
X624250Y505000D02*
D03*
X637750D02*
D03*
Y491000D02*
D03*
X624250D02*
D03*
X637000Y440500D02*
D03*
X623500D02*
D03*
D22*
X611250Y415400D02*
D03*
Y406600D02*
D03*
X577000Y483600D02*
D03*
Y492400D02*
D03*
X567000D02*
D03*
Y483600D02*
D03*
X612000Y482600D02*
D03*
Y491400D02*
D03*
X600000D02*
D03*
Y482600D02*
D03*
X565000Y392600D02*
D03*
Y401400D02*
D03*
X588500Y464100D02*
D03*
Y472900D02*
D03*
Y410100D02*
D03*
Y418900D02*
D03*
Y437900D02*
D03*
Y429100D02*
D03*
D23*
Y486750D02*
D03*
Y500250D02*
D03*
D26*
X903000Y474000D02*
D03*
X827500Y370000D02*
D03*
X879000Y500000D02*
D03*
X879161Y481282D02*
D03*
X889000Y490000D02*
D03*
X855000Y457500D02*
D03*
X772500Y505000D02*
D03*
X745000Y423000D02*
D03*
X827500Y395000D02*
D03*
X835000Y400000D02*
D03*
X842500D02*
D03*
X850000D02*
D03*
X777500Y480000D02*
D03*
X780000Y505000D02*
D03*
X746000Y429000D02*
D03*
X771000Y427000D02*
D03*
X772000Y395000D02*
D03*
X787000Y432000D02*
D03*
X822500Y420000D02*
D03*
X820000Y395000D02*
D03*
X807500Y370000D02*
D03*
X644490Y408500D02*
D03*
X644505Y416505D02*
D03*
X741000Y449250D02*
D03*
X648750Y381750D02*
D03*
X599720Y315261D02*
D03*
X587750Y315500D02*
D03*
X634750Y358750D02*
D03*
X472000Y450250D02*
D03*
X473500Y458500D02*
D03*
X478750Y463500D02*
D03*
X523000Y452250D02*
D03*
X502000D02*
D03*
X486000Y466000D02*
D03*
X504000Y368000D02*
D03*
X462000Y409000D02*
D03*
X480000Y408000D02*
D03*
X490000Y429000D02*
D03*
X492000Y437000D02*
D03*
X515000Y564000D02*
D03*
X509000D02*
D03*
X467000Y504000D02*
D03*
X472000Y507000D02*
D03*
X468000Y396000D02*
D03*
X450000Y453000D02*
D03*
X506000Y436000D02*
D03*
X502000Y440000D02*
D03*
X497000Y443000D02*
D03*
X417000Y483000D02*
D03*
X506000Y491000D02*
D03*
X501000Y494000D02*
D03*
X497000Y498000D02*
D03*
X493000Y502000D02*
D03*
X489000Y506000D02*
D03*
X484000Y512000D02*
D03*
X518000Y509000D02*
D03*
X548495Y488505D02*
D03*
X544000Y524000D02*
D03*
X596505Y496505D02*
D03*
Y504505D02*
D03*
X611000Y531000D02*
D03*
X620500Y448510D02*
D03*
X523000Y515000D02*
D03*
X531000D02*
D03*
X636500Y464500D02*
D03*
X662212Y282963D02*
D03*
X712212Y342963D02*
D03*
X719712Y357963D02*
D03*
X785180Y389460D02*
D03*
X902212Y542963D02*
D03*
X864712Y525463D02*
D03*
X827212Y532963D02*
D03*
X727212Y565463D02*
D03*
X687212Y495463D02*
D03*
X432500Y370000D02*
D03*
X906000Y446000D02*
D03*
X890000Y437000D02*
D03*
X644505Y456505D02*
D03*
X688000Y298000D02*
D03*
X620500Y408500D02*
D03*
X612500Y400500D02*
D03*
X636500Y416500D02*
D03*
X596000Y379000D02*
D03*
X564510Y408500D02*
D03*
X572500Y496510D02*
D03*
X654000Y545000D02*
D03*
X503000Y564000D02*
D03*
X362750Y581750D02*
D03*
X440000Y554000D02*
D03*
X275000Y378000D02*
D03*
X274500Y450500D02*
D03*
X477000Y511000D02*
D03*
X436000Y470000D02*
D03*
X445000Y408000D02*
D03*
X776500Y559500D02*
D03*
X829000Y458000D02*
D03*
X741000Y358000D02*
D03*
X777000Y439000D02*
D03*
X814000Y477000D02*
D03*
X781000Y522000D02*
D03*
X772000Y530000D02*
D03*
X740000Y524000D02*
D03*
X683000Y571000D02*
D03*
X705000Y531000D02*
D03*
X732000Y486000D02*
D03*
X660000Y440000D02*
D03*
X695000Y417000D02*
D03*
X729000Y404000D02*
D03*
X678000Y375000D02*
D03*
X667000Y340000D02*
D03*
X642000Y359000D02*
D03*
X556500Y488510D02*
D03*
X540495Y440495D02*
D03*
X883000Y475000D02*
D03*
X708000Y482050D02*
D03*
X828000Y443000D02*
D03*
X760000Y417000D02*
D03*
X491000Y338000D02*
D03*
X498000Y337000D02*
D03*
X503000Y341000D02*
D03*
X628505Y408495D02*
D03*
X569250Y380500D02*
D03*
X617000Y381000D02*
D03*
X883000Y463000D02*
D03*
X842500Y362500D02*
D03*
X718500Y428000D02*
D03*
X559000Y539750D02*
D03*
X629909Y365873D02*
D03*
X654000Y359000D02*
D03*
X604500Y496500D02*
D03*
Y504500D02*
D03*
X612500D02*
D03*
X515000Y590000D02*
D03*
X535000Y587500D02*
D03*
X525000Y582500D02*
D03*
X397450Y592500D02*
D03*
X557500Y315000D02*
D03*
X565000D02*
D03*
X595000Y300000D02*
D03*
X542500Y260000D02*
D03*
X628000Y266000D02*
D03*
X591000Y361000D02*
D03*
X520000Y576000D02*
D03*
X524000Y571000D02*
D03*
X435000Y615000D02*
D03*
X540000Y488000D02*
D03*
X460000Y382000D02*
D03*
Y376000D02*
D03*
X461000Y370000D02*
D03*
X465000Y347000D02*
D03*
X470000Y351000D02*
D03*
X465000Y366000D02*
D03*
X469000Y361000D02*
D03*
X465000Y356000D02*
D03*
X384902Y386754D02*
D03*
X381902Y381754D02*
D03*
X387000Y392000D02*
D03*
X381000Y463000D02*
D03*
X376000Y459000D02*
D03*
X371000Y463000D02*
D03*
X381000Y488000D02*
D03*
X376000Y491000D02*
D03*
X371000Y488000D02*
D03*
X435000Y345000D02*
D03*
X429000D02*
D03*
X457000Y535000D02*
D03*
X463000Y522000D02*
D03*
X482000Y554000D02*
D03*
X376000Y632000D02*
D03*
X381000Y638000D02*
D03*
X371000Y628000D02*
D03*
X326000Y317000D02*
D03*
X332000Y333000D02*
D03*
X331000Y302000D02*
D03*
X332000Y287000D02*
D03*
X330000Y273000D02*
D03*
X855000Y470000D02*
D03*
X556622Y408636D02*
D03*
X548750Y408750D02*
D03*
X540750D02*
D03*
X560250Y380500D02*
D03*
X556000Y362000D02*
D03*
X564500Y472500D02*
D03*
X556510Y400500D02*
D03*
X332000Y553000D02*
D03*
X330000Y592000D02*
D03*
X321000Y669000D02*
D03*
X316000Y658000D02*
D03*
X311000Y647000D02*
D03*
X326000Y635000D02*
D03*
X331000Y624000D02*
D03*
X441000Y396000D02*
D03*
X435000Y409000D02*
D03*
X432000Y421000D02*
D03*
X455000Y385000D02*
D03*
X450175Y381000D02*
D03*
X434000Y303000D02*
D03*
X430000Y316000D02*
D03*
X446000Y385000D02*
D03*
X573000Y534000D02*
D03*
X571000Y528000D02*
D03*
X566000Y533000D02*
D03*
X644500Y424510D02*
D03*
X636500Y448490D02*
D03*
X636510Y432500D02*
D03*
X695000Y642500D02*
D03*
X604500Y408500D02*
D03*
X596250Y408750D02*
D03*
X612505Y464505D02*
D03*
X644495Y448505D02*
D03*
X654000Y509000D02*
D03*
Y490000D02*
D03*
X330000Y475000D02*
D03*
X648000Y515000D02*
D03*
X449000Y328000D02*
D03*
X259500Y462250D02*
D03*
X604250Y400750D02*
D03*
X656000Y388000D02*
D03*
X654000Y317000D02*
D03*
X642000D02*
D03*
X630000Y317500D02*
D03*
X515000Y247500D02*
D03*
X515000Y260000D02*
D03*
X515000Y285000D02*
D03*
X540505Y424505D02*
D03*
Y416505D02*
D03*
X540500Y456500D02*
D03*
X636495Y472505D02*
D03*
X600000Y327000D02*
D03*
X588000Y343000D02*
D03*
X636505Y480495D02*
D03*
X588500Y456250D02*
D03*
Y448500D02*
D03*
X604250D02*
D03*
X596500D02*
D03*
X602000Y676000D02*
D03*
X620000D02*
D03*
X715000Y674000D02*
D03*
X733000D02*
D03*
X840000D02*
D03*
X822000D02*
D03*
X831000Y668000D02*
D03*
Y660000D02*
D03*
Y653000D02*
D03*
Y646000D02*
D03*
X840000Y657500D02*
D03*
X822500D02*
D03*
X724000Y670000D02*
D03*
Y662000D02*
D03*
X715000Y657500D02*
D03*
X733000Y658000D02*
D03*
X724000Y652000D02*
D03*
Y645000D02*
D03*
X602000Y659000D02*
D03*
X620000D02*
D03*
X611000Y647000D02*
D03*
Y654000D02*
D03*
Y662000D02*
D03*
Y670000D02*
D03*
X588505Y400495D02*
D03*
X580495Y400495D02*
D03*
X580500Y392490D02*
D03*
X644505Y440505D02*
D03*
X612500Y496510D02*
D03*
X636500Y456490D02*
D03*
X540500Y464500D02*
D03*
Y472500D02*
D03*
X556500Y496500D02*
D03*
X588495Y424495D02*
D03*
X612505Y448505D02*
D03*
X620495Y432505D02*
D03*
X604500Y480490D02*
D03*
X572495Y480495D02*
D03*
X588505Y480505D02*
D03*
X606000Y359750D02*
D03*
X600250Y365250D02*
D03*
X562500Y327500D02*
D03*
Y342500D02*
D03*
X581000Y409000D02*
D03*
X587450Y332000D02*
D03*
X630000Y340000D02*
D03*
X618000Y350000D02*
D03*
X437000Y668000D02*
D03*
X414000Y376000D02*
D03*
X441000Y343000D02*
D03*
X617000Y372000D02*
D03*
X618000Y317000D02*
D03*
X606000Y317000D02*
D03*
X620000Y248000D02*
D03*
Y273000D02*
D03*
X544000Y274000D02*
D03*
X540505Y480495D02*
D03*
X802000Y644000D02*
D03*
X766000Y650000D02*
D03*
X661000Y651000D02*
D03*
X580000Y645000D02*
D03*
X545000Y651000D02*
D03*
X591000Y238000D02*
D03*
X571000D02*
D03*
X564500Y440500D02*
D03*
X596500D02*
D03*
X580500Y456500D02*
D03*
X596500D02*
D03*
X580500Y432500D02*
D03*
X596500D02*
D03*
X572500Y440500D02*
D03*
X604500D02*
D03*
X572500Y456500D02*
D03*
X604500D02*
D03*
X580500Y464500D02*
D03*
X596500D02*
D03*
X572500Y432500D02*
D03*
X604500D02*
D03*
X572500Y464500D02*
D03*
X604500D02*
D03*
X580500Y424500D02*
D03*
X596500D02*
D03*
X612500Y440500D02*
D03*
X564500Y456500D02*
D03*
X612500D02*
D03*
X580500Y472500D02*
D03*
X596500D02*
D03*
X572500Y424500D02*
D03*
X604500D02*
D03*
X564500Y432500D02*
D03*
X612500D02*
D03*
X564500Y464500D02*
D03*
X572500Y472500D02*
D03*
X604500D02*
D03*
X580500Y416500D02*
D03*
X596500D02*
D03*
X564500Y424500D02*
D03*
X612500D02*
D03*
Y472500D02*
D03*
X572500Y416500D02*
D03*
Y408500D02*
D03*
D67*
X900000Y697500D02*
D03*
X890000Y250000D02*
D03*
X320000Y242500D02*
D03*
D68*
X637000Y432000D02*
Y440500D01*
X636000Y441500D02*
Y449000D01*
X620500Y443500D02*
X620649Y443351D01*
Y443649D02*
X620995Y443995D01*
X620500Y443500D02*
X620649Y443649D01*
Y448361D01*
Y443351D02*
Y443649D01*
Y443351D02*
X623500Y440500D01*
X620500Y448510D02*
X620649Y448361D01*
X631400Y464000D02*
X631670Y464270D01*
X636270D02*
X636500Y464500D01*
X631670Y464270D02*
X636270D01*
X630400Y474000D02*
X631665Y472734D01*
X630400Y465600D02*
X631000Y465000D01*
X630400Y465600D02*
Y473800D01*
X631400Y464000D02*
X631409Y463991D01*
Y454491D02*
Y463991D01*
Y454491D02*
X631900Y454000D01*
X620995Y443995D02*
Y448505D01*
X621015D01*
X631000Y450000D02*
Y453100D01*
X631900Y454000D01*
X631000Y450000D02*
X633000Y448000D01*
X635000D01*
X644495Y448505D02*
X644725Y448734D01*
Y449583D01*
X645000Y449858D02*
Y455685D01*
X644725Y449583D02*
X645000Y449858D01*
X644505Y456180D02*
X645000Y455685D01*
X644505Y456180D02*
Y456505D01*
X630200Y418000D02*
Y425800D01*
X631400Y427000D01*
X632757Y433000D02*
X636000D01*
X631000Y431243D02*
X632757Y433000D01*
X631000Y427400D02*
Y431243D01*
Y427400D02*
X631400Y427000D01*
X636000Y441500D02*
X637000Y440500D01*
X614307Y408100D02*
X614707Y408500D01*
X612950Y408100D02*
X614307D01*
X611450Y406600D02*
X612950Y408100D01*
X614707Y408500D02*
X620500D01*
X611250Y406600D02*
X612270Y405580D01*
Y400730D02*
Y405580D01*
Y400730D02*
X612500Y400500D01*
X567300Y492500D02*
X568700Y493900D01*
X567200Y492400D02*
X567300Y492500D01*
X577500D01*
X567100D02*
X567300D01*
X572270Y496280D02*
X572500Y496510D01*
X570880Y496280D02*
X572270D01*
X568700Y493900D02*
Y494100D01*
X567000Y492400D02*
X567200D01*
X568700Y494100D02*
X570880Y496280D01*
X605000Y492500D02*
X612270D01*
X601100D02*
X605000D01*
Y495151D01*
X604500Y496500D02*
X604730Y496270D01*
Y495422D02*
Y496270D01*
Y495422D02*
X605000Y495151D01*
X612270Y492500D02*
Y496280D01*
Y491670D02*
Y492500D01*
X612500D01*
X600000Y491400D02*
X601100Y492500D01*
X567000Y492400D02*
X567100Y492500D01*
X694400Y643425D02*
Y643775D01*
X695000Y642500D02*
Y642825D01*
X687175Y651000D02*
X694400Y643775D01*
Y643425D02*
X695000Y642825D01*
X661000Y651000D02*
X687175D01*
X636266Y472734D02*
X636495Y472505D01*
X631665Y472734D02*
X636266D01*
X587650Y411600D02*
X589250Y410000D01*
X586327Y411600D02*
X587650D01*
X584713Y413213D02*
X586327Y411600D01*
X580500Y416500D02*
X583787Y413213D01*
X584713D01*
X588500Y400500D02*
Y410100D01*
Y400500D02*
X588505Y400495D01*
X612270Y496280D02*
X612500Y496510D01*
X612000Y491400D02*
X612270Y491670D01*
X628900Y475500D02*
X630400Y474000D01*
Y473800D02*
Y474000D01*
Y473800D02*
X631900Y472300D01*
X622230Y453130D02*
X623100Y454000D01*
X621739Y452639D02*
X622230Y453130D01*
X621015Y448505D02*
X622230Y449720D01*
Y453130D01*
X621739Y450230D02*
Y452639D01*
X621510Y450000D02*
X621739Y450230D01*
X620500Y437500D02*
X623500Y440500D01*
X620500Y432510D02*
Y437500D01*
X620495Y432505D02*
X620500Y432510D01*
X611800Y482600D02*
X612000D01*
X605534Y479781D02*
X608981D01*
X604825Y480490D02*
X605534Y479781D01*
X604500Y480490D02*
X604825D01*
X608981Y479781D02*
X611800Y482600D01*
X570075Y480725D02*
X572266D01*
X572495Y480495D01*
X567000Y483600D02*
X567200D01*
X570075Y480725D01*
X573220Y482230D02*
X575630D01*
X577000Y483600D01*
X572990Y482000D02*
X573220Y482230D01*
X588500Y486750D02*
X588505Y486745D01*
Y480505D02*
Y486745D01*
X772000Y644000D02*
X802000D01*
X766000Y650000D02*
X772000Y644000D01*
X545000Y651000D02*
X574000D01*
X580000Y645000D01*
D69*
X543000Y495000D02*
G03*
X543707Y493293I2414J0D01*
G01*
X466000Y451000D02*
X473500Y458500D01*
X466175Y407271D02*
Y410729D01*
X466000Y407096D02*
X466175Y407271D01*
X466000Y410904D02*
X466175Y410729D01*
X468000Y396000D02*
Y396207D01*
X466000Y410904D02*
Y451000D01*
Y398207D02*
X468000Y396207D01*
X466000Y398207D02*
Y407096D01*
X455000Y446000D02*
X498825Y489825D01*
X450175Y446175D02*
X497825Y493825D01*
X498825Y489825D02*
X502729D01*
X455000Y385000D02*
Y446000D01*
X502729Y489825D02*
X503391Y490487D01*
X459560Y352000D02*
X462235Y349325D01*
X425000Y352000D02*
X459560D01*
X346000Y273000D02*
X425000Y352000D01*
X356000Y287000D02*
X424000Y355000D01*
X460096D02*
X463271Y351825D01*
X424000Y355000D02*
X460096D01*
X464793Y356000D02*
X465000D01*
X462793Y358000D02*
X464793Y356000D01*
X423000Y358000D02*
X462793D01*
X367000Y302000D02*
X423000Y358000D01*
X422000Y361000D02*
X469000D01*
X378000Y317000D02*
X422000Y361000D01*
X464793Y366000D02*
X465000D01*
X462793Y364000D02*
X464793Y366000D01*
X388000Y331000D02*
X421000Y364000D01*
X462793D01*
X497000Y427000D02*
Y443000D01*
X491000Y338000D02*
Y421000D01*
X497000Y427000D01*
X502000Y426000D02*
Y434096D01*
X501825Y434271D02*
X502000Y434096D01*
X501825Y439825D02*
X502000Y440000D01*
X495000Y340207D02*
Y419000D01*
X502000Y426000D01*
X501825Y434271D02*
Y439825D01*
X506000Y424000D02*
Y436000D01*
X498825Y416825D02*
X506000Y424000D01*
X498825Y345175D02*
Y416825D01*
Y345175D02*
X503000Y341000D01*
X495000Y340207D02*
X498000Y337207D01*
Y337000D02*
Y337207D01*
X516000Y424000D02*
X531000Y409000D01*
X516000Y424000D02*
Y498000D01*
X507000Y507000D02*
X516000Y498000D01*
X504000Y505000D02*
X513000Y496000D01*
Y421000D02*
Y496000D01*
Y421000D02*
X530000Y404000D01*
X510000Y492904D02*
Y494000D01*
Y434096D02*
X510175Y434271D01*
Y492729D01*
X510000Y418000D02*
Y434096D01*
Y492904D02*
X510175Y492729D01*
X501000Y503000D02*
X510000Y494000D01*
Y418000D02*
X528000Y400000D01*
X507000Y507000D02*
Y556000D01*
X515000Y564000D01*
X504000Y505000D02*
Y559000D01*
X509000Y564000D01*
X501000Y561793D02*
X503000Y563793D01*
X501000Y503000D02*
Y561793D01*
X503000Y563793D02*
Y564000D01*
X463000Y522000D02*
X467000Y518000D01*
Y504000D02*
Y518000D01*
X457000Y535000D02*
X472000Y520000D01*
Y507000D02*
Y520000D01*
X421000Y410000D02*
Y449000D01*
X484000Y512000D01*
X477000Y549000D02*
X482000Y554000D01*
X477000Y511000D02*
Y549000D01*
X450175Y381000D02*
Y446175D01*
X500825Y493825D02*
X501000Y494000D01*
X497825Y493825D02*
X500825D01*
X530000Y404000D02*
X544000D01*
X531000Y409000D02*
X541000D01*
X543000Y495000D02*
Y522202D01*
Y494476D02*
Y495000D01*
X503391Y490487D02*
X505487D01*
X506000Y491000D01*
X430000Y442000D02*
X485825Y497825D01*
X496825D01*
X497000Y498000D01*
X427000Y444000D02*
X484825Y501825D01*
X492825D01*
X493000Y502000D01*
X484000Y506000D02*
X489000D01*
X424000Y446000D02*
X484000Y506000D01*
X543707Y493293D02*
X548495Y488505D01*
X543000Y522202D02*
X544000Y523202D01*
Y524000D01*
X586825Y359271D02*
Y362729D01*
Y369825D01*
X596000Y379000D01*
X424000Y413000D02*
Y446000D01*
X427000Y417000D02*
Y444000D01*
X430000Y423000D02*
Y442000D01*
X435000Y615000D02*
X460000Y590000D01*
X515000D01*
X595000Y300000D02*
X595000D01*
X580000Y315000D02*
X595000Y300000D01*
X562730Y342730D02*
X574500Y354500D01*
X570967Y385033D02*
X574500Y381500D01*
Y354500D02*
Y381500D01*
X580000Y315000D02*
Y386000D01*
X577000Y350000D02*
Y384000D01*
X573768Y387232D02*
X577000Y384000D01*
X570967Y385033D02*
Y404503D01*
X572500Y406036D01*
Y408500D01*
X573768Y387232D02*
Y403732D01*
X573750Y403750D02*
X573768Y403732D01*
X581000Y408000D02*
Y409000D01*
X576268Y389732D02*
X580000Y386000D01*
X576268Y389732D02*
Y402732D01*
X579250Y405714D01*
Y406250D02*
X581000Y408000D01*
X579250Y405714D02*
Y406250D01*
X581000Y407900D02*
Y408000D01*
X586825Y359271D02*
X600000Y346096D01*
Y327000D02*
Y346096D01*
X462235Y349325D02*
X462675D01*
X465000Y347000D01*
X466729Y351825D02*
X467952Y353048D01*
X463271Y351825D02*
X466729D01*
X467952Y353048D02*
X470000Y351000D01*
X434825Y345175D02*
X435000Y345000D01*
X434175Y345175D02*
X434825D01*
X430250Y316250D02*
Y343750D01*
X429000Y345000D02*
X430250Y343750D01*
X374000Y331000D02*
X388000D01*
X372000Y333000D02*
X374000Y331000D01*
X332000Y333000D02*
X372000D01*
X326000Y317000D02*
X378000D01*
X331000Y302000D02*
X367000D01*
X330000Y273000D02*
X346000D01*
X332000Y287000D02*
X356000D01*
X528000Y400000D02*
X547986D01*
X544000Y404000D02*
X548000Y408000D01*
X547986Y400000D02*
X556622Y408636D01*
X556000Y361500D02*
Y380096D01*
X555825Y380271D02*
Y383729D01*
Y380271D02*
X556000Y380096D01*
Y399990D02*
X556510Y400500D01*
X556000Y383904D02*
Y399990D01*
X555825Y383729D02*
X556000Y383904D01*
X424000Y413000D02*
X441000Y396000D01*
X427000Y417000D02*
X435000Y409000D01*
X430000Y423000D02*
X432000Y421000D01*
X421000Y410000D02*
X446000Y385000D01*
X434000Y303000D02*
X434175Y303175D01*
Y345175D01*
X430000Y316000D02*
X430250Y316250D01*
X573750Y403750D02*
X576750Y406750D01*
Y412250D01*
X572500Y416500D02*
X576750Y412250D01*
D70*
X589000Y464000D02*
Y464300D01*
X588495Y429095D02*
X588500Y429100D01*
X588495Y424495D02*
Y429095D01*
X589000Y464300D02*
X589200Y464500D01*
X596500D01*
D71*
X624250Y491464D02*
Y504536D01*
X624482Y504768D01*
X624250Y491464D02*
X624482Y491232D01*
D74*
X644529Y408538D02*
X647538D01*
X651232Y412232D02*
Y469968D01*
X644490Y408500D02*
X644529Y408538D01*
X647538D02*
X651232Y412232D01*
X556462Y481062D02*
Y488471D01*
X556400Y481000D02*
X556462Y481062D01*
Y488471D02*
X556500Y488510D01*
X564510Y408500D02*
Y416510D01*
X572500Y424500D01*
X565000Y401400D02*
Y408500D01*
X621832Y480463D02*
Y481232D01*
Y474232D02*
Y480463D01*
X636537D02*
X640737D01*
X622789Y489525D02*
X624250Y490986D01*
X640737Y480463D02*
X651232Y469968D01*
X621832Y480463D02*
X636473D01*
X622789Y482189D02*
Y489525D01*
X621832Y481232D02*
X622789Y482189D01*
D75*
X925000Y590000D02*
D03*
Y610000D02*
D03*
Y630000D02*
D03*
Y550000D02*
D03*
Y570000D02*
D03*
Y650000D02*
D03*
X761000Y308000D02*
D03*
X781000Y288000D02*
D03*
Y308000D02*
D03*
X801000Y288000D02*
D03*
Y308000D02*
D03*
X821000Y288000D02*
D03*
Y308000D02*
D03*
X841000Y288000D02*
D03*
Y308000D02*
D03*
D76*
X925000Y530000D02*
D03*
X761000Y288000D02*
D03*
D77*
X677000Y707000D02*
D03*
X785000D02*
D03*
X427500Y232500D02*
D03*
X430750Y583250D02*
D03*
X300000Y247500D02*
D03*
X250000Y250000D02*
D03*
X237500D02*
D03*
X242500Y257500D02*
D03*
X252500Y690000D02*
D03*
X245000Y682500D02*
D03*
X230000Y667500D02*
D03*
X337500Y705000D02*
D03*
X357500D02*
D03*
X347500Y697500D02*
D03*
X240000Y474000D02*
D03*
X233000Y478000D02*
D03*
Y469000D02*
D03*
X240000Y466000D02*
D03*
X233000Y461000D02*
D03*
X703000Y366000D02*
D03*
X659000Y421000D02*
D03*
X860000Y362500D02*
D03*
X870000Y372500D02*
D03*
X620600Y297500D02*
D03*
X542500Y247500D02*
D03*
X715000Y244000D02*
D03*
X868000Y633000D02*
D03*
X697500Y262500D02*
D03*
X871000Y342000D02*
D03*
X905000Y325000D02*
D03*
X880000Y300000D02*
D03*
Y399000D02*
D03*
X802500Y327500D02*
D03*
X697500Y672500D02*
D03*
X582500Y670000D02*
D03*
X592500Y692500D02*
D03*
X462000Y256000D02*
D03*
X501000Y294000D02*
D03*
X527000Y319000D02*
D03*
X565000Y363000D02*
D03*
X622500Y574250D02*
D03*
X736000Y312000D02*
D03*
X648600Y298500D02*
D03*
X552500Y239000D02*
D03*
X565000Y294000D02*
D03*
X449000Y344000D02*
D03*
X460000Y335000D02*
D03*
X523000Y382000D02*
D03*
X519000Y390000D02*
D03*
X375000Y652500D02*
D03*
X387500Y602500D02*
D03*
X340000Y675000D02*
D03*
Y662500D02*
D03*
X237500Y675000D02*
D03*
X400000D02*
D03*
X472500Y677500D02*
D03*
X502500D02*
D03*
X487500Y665000D02*
D03*
X525000Y677500D02*
D03*
X542500Y680000D02*
D03*
X520000Y662500D02*
D03*
X532500Y645000D02*
D03*
Y617500D02*
D03*
X510000Y647500D02*
D03*
X487500D02*
D03*
X450000Y650000D02*
D03*
X472000Y652000D02*
D03*
X507500Y602500D02*
D03*
X552500Y625000D02*
D03*
Y600000D02*
D03*
X592500Y597500D02*
D03*
X765000Y680000D02*
D03*
X755000D02*
D03*
X745000D02*
D03*
X757500Y632500D02*
D03*
X705000Y595000D02*
D03*
X667500Y625000D02*
D03*
Y600000D02*
D03*
X632500D02*
D03*
X647500Y615000D02*
D03*
Y630000D02*
D03*
Y645000D02*
D03*
X630000Y660000D02*
D03*
X657500Y680000D02*
D03*
X645000D02*
D03*
X632500D02*
D03*
X698000Y709000D02*
D03*
X757000Y708000D02*
D03*
X810000Y709000D02*
D03*
X802500Y667500D02*
D03*
X900000Y670000D02*
D03*
X862500Y650000D02*
D03*
Y665000D02*
D03*
X852500Y677500D02*
D03*
X812500Y595000D02*
D03*
X775000Y625000D02*
D03*
Y600000D02*
D03*
X747500D02*
D03*
X742500Y657500D02*
D03*
X755000Y645000D02*
D03*
X855000Y600000D02*
D03*
X862000Y707000D02*
D03*
X918000D02*
D03*
X940000Y652500D02*
D03*
X942000Y609000D02*
D03*
X868000Y615000D02*
D03*
X842500Y565000D02*
D03*
X896000Y499000D02*
D03*
X940000Y506000D02*
D03*
X842500Y410000D02*
D03*
X890000Y390000D02*
D03*
Y445000D02*
D03*
X858000Y443000D02*
D03*
X940000Y452000D02*
D03*
Y399000D02*
D03*
X942500Y325000D02*
D03*
X910000Y275000D02*
D03*
Y231000D02*
D03*
X879000D02*
D03*
X807500Y232500D02*
D03*
X738000Y231000D02*
D03*
X656000D02*
D03*
X575000D02*
D03*
X500000D02*
D03*
X347500Y232500D02*
D03*
X292500D02*
D03*
X359000Y255000D02*
D03*
X345000Y263000D02*
D03*
X374000Y264000D02*
D03*
X402000Y300000D02*
D03*
X347000Y363000D02*
D03*
X382500Y337500D02*
D03*
X362500Y375000D02*
D03*
X340000Y385000D02*
D03*
X392500Y402500D02*
D03*
X388000Y425000D02*
D03*
X392500Y460000D02*
D03*
X342500Y467500D02*
D03*
Y487500D02*
D03*
X359000Y481000D02*
D03*
X390000Y535000D02*
D03*
X344000Y567000D02*
D03*
X390000Y562000D02*
D03*
X457500Y560000D02*
D03*
X687500Y700000D02*
D03*
X667500D02*
D03*
X532500Y702500D02*
D03*
Y687500D02*
D03*
Y695000D02*
D03*
X522500Y690000D02*
D03*
Y697500D02*
D03*
Y705000D02*
D03*
X562500Y707500D02*
D03*
X572500Y700000D02*
D03*
X552500D02*
D03*
X795000Y697500D02*
D03*
X775000D02*
D03*
X646500Y285000D02*
D03*
Y235000D02*
D03*
Y260000D02*
D03*
X357500Y690000D02*
D03*
X337500D02*
D03*
X654000Y709000D02*
D03*
X594000D02*
D03*
X541000Y708000D02*
D03*
X445000D02*
D03*
X390000Y709000D02*
D03*
X302000Y708000D02*
D03*
X260000Y706000D02*
D03*
X237500Y690000D02*
D03*
X257500Y477500D02*
D03*
X245000Y232500D02*
D03*
X232500Y262500D02*
D03*
X230000Y682500D02*
D03*
X232000Y276000D02*
D03*
D78*
X912000Y462394D02*
Y503000D01*
X918000Y405000D02*
Y456394D01*
X912000Y462394D02*
X918000Y456394D01*
X886000Y529000D02*
X912000Y503000D01*
X886000Y529000D02*
Y675000D01*
X899250Y386250D02*
X918000Y405000D01*
X821000Y308000D02*
X893750Y380750D01*
X893831D01*
X899250Y386169D02*
Y386250D01*
X893831Y380750D02*
X899250Y386169D01*
X795000Y697500D02*
X863500D01*
X775000D02*
X795000D01*
X863500D02*
X886000Y675000D01*
X801000Y308000D02*
X821000D01*
X567000Y532000D02*
X571000D01*
X566000D02*
X567000D01*
X571000Y528000D01*
X566000Y533000D02*
X567000Y532000D01*
X571000D02*
X573000Y534000D01*
X611000Y572000D01*
Y647000D01*
Y654000D01*
D79*
X724000Y645000D02*
Y652000D01*
X637750Y543750D02*
X724000Y630000D01*
Y645000D01*
X637750Y505000D02*
Y543750D01*
X724000Y662000D02*
Y670000D01*
Y652000D02*
Y662000D01*
D80*
X612100Y464500D02*
X620150Y472550D01*
X612000Y464500D02*
X612100D01*
X621600Y473800D02*
Y474000D01*
X620350Y472550D02*
X621600Y473800D01*
X620150Y472550D02*
X620350D01*
M02*
