%TF.GenerationSoftware,KiCad,Pcbnew,7.0.10*%
%TF.CreationDate,2024-03-26T21:26:04+03:00*%
%TF.ProjectId,com_1300,636f6d5f-3133-4303-902e-6b696361645f,rev?*%
%TF.SameCoordinates,Original*%
%TF.FileFunction,Copper,L3,Inr*%
%TF.FilePolarity,Positive*%
%FSLAX46Y46*%
G04 Gerber Fmt 4.6, Leading zero omitted, Abs format (unit mm)*
G04 Created by KiCad (PCBNEW 7.0.10) date 2024-03-26 21:26:04*
%MOMM*%
%LPD*%
G01*
G04 APERTURE LIST*
%TA.AperFunction,ComponentPad*%
%ADD10R,1.350000X1.350000*%
%TD*%
%TA.AperFunction,ComponentPad*%
%ADD11O,1.350000X1.350000*%
%TD*%
%TA.AperFunction,ViaPad*%
%ADD12C,0.450000*%
%TD*%
%TA.AperFunction,ViaPad*%
%ADD13C,0.500000*%
%TD*%
%TA.AperFunction,ViaPad*%
%ADD14C,0.600000*%
%TD*%
%TA.AperFunction,Conductor*%
%ADD15C,0.125000*%
%TD*%
%TA.AperFunction,Conductor*%
%ADD16C,0.250000*%
%TD*%
G04 APERTURE END LIST*
D10*
%TO.N,FPGA_CLK1*%
%TO.C,J1*%
X59000000Y-25000000D03*
D11*
%TO.N,USER_IO_0*%
X59000000Y-23000000D03*
%TO.N,USER_IO_1*%
X57000000Y-25000000D03*
%TO.N,USER_IO_2*%
X57000000Y-23000000D03*
%TO.N,USER_IO_3*%
X55000000Y-25000000D03*
%TO.N,USER_IO_4*%
X55000000Y-23000000D03*
%TO.N,USER_IO_5*%
X53000000Y-25000000D03*
%TO.N,USER_IO_6*%
X53000000Y-23000000D03*
%TO.N,USER_IO_7*%
X51000000Y-25000000D03*
%TO.N,GND*%
X51000000Y-23000000D03*
%TO.N,USER_IO_8*%
X49000000Y-25000000D03*
%TO.N,USER_IO_9*%
X49000000Y-23000000D03*
%TO.N,USER_IO_10*%
X47000000Y-25000000D03*
%TO.N,USER_IO_11*%
X47000000Y-23000000D03*
%TO.N,USER_IO_12*%
X45000000Y-25000000D03*
%TO.N,USER_IO_13*%
X45000000Y-23000000D03*
%TO.N,USER_IO_14*%
X43000000Y-25000000D03*
%TO.N,USER_IO_15*%
X43000000Y-23000000D03*
%TO.N,USER_IO_16*%
X41000000Y-25000000D03*
%TO.N,GND*%
X41000000Y-23000000D03*
%TO.N,USER_IO_17*%
X39000000Y-25000000D03*
%TO.N,USER_IO_18*%
X39000000Y-23000000D03*
%TO.N,USER_IO_19*%
X37000000Y-25000000D03*
%TO.N,USER_IO_20*%
X37000000Y-23000000D03*
%TO.N,USER_IO_21*%
X35000000Y-25000000D03*
%TO.N,USER_IO_22*%
X35000000Y-23000000D03*
%TO.N,USER_IO_23*%
X33000000Y-25000000D03*
%TO.N,USER_IO_24*%
X33000000Y-23000000D03*
%TO.N,USER_IO_25*%
X31000000Y-25000000D03*
%TO.N,GND*%
X31000000Y-23000000D03*
%TO.N,USER_IO_26*%
X29000000Y-25000000D03*
%TO.N,USER_IO_27*%
X29000000Y-23000000D03*
%TO.N,USER_IO_28*%
X27000000Y-25000000D03*
%TO.N,USER_IO_29*%
X27000000Y-23000000D03*
%TO.N,SERIAL_IO_2*%
X25000000Y-25000000D03*
%TO.N,SERIAL_IO_1*%
X25000000Y-23000000D03*
%TO.N,USER_IO_30*%
X23000000Y-25000000D03*
%TO.N,USER_IO_31*%
X23000000Y-23000000D03*
%TO.N,BOOT_SECTOR*%
X21000000Y-25000000D03*
%TO.N,GND*%
X21000000Y-23000000D03*
%TD*%
D10*
%TO.N,FPGA_CLK1*%
%TO.C,J1*%
X59000000Y-25000000D03*
D11*
%TO.N,USER_IO_0*%
X59000000Y-23000000D03*
%TO.N,USER_IO_1*%
X57000000Y-25000000D03*
%TO.N,USER_IO_2*%
X57000000Y-23000000D03*
%TO.N,USER_IO_3*%
X55000000Y-25000000D03*
%TO.N,USER_IO_4*%
X55000000Y-23000000D03*
%TO.N,USER_IO_5*%
X53000000Y-25000000D03*
%TO.N,USER_IO_6*%
X53000000Y-23000000D03*
%TO.N,USER_IO_7*%
X51000000Y-25000000D03*
%TO.N,GND*%
X51000000Y-23000000D03*
%TO.N,USER_IO_8*%
X49000000Y-25000000D03*
%TO.N,USER_IO_9*%
X49000000Y-23000000D03*
%TO.N,USER_IO_10*%
X47000000Y-25000000D03*
%TO.N,USER_IO_11*%
X47000000Y-23000000D03*
%TO.N,USER_IO_12*%
X45000000Y-25000000D03*
%TO.N,USER_IO_13*%
X45000000Y-23000000D03*
%TO.N,USER_IO_14*%
X43000000Y-25000000D03*
%TO.N,USER_IO_15*%
X43000000Y-23000000D03*
%TO.N,USER_IO_16*%
X41000000Y-25000000D03*
%TO.N,GND*%
X41000000Y-23000000D03*
%TO.N,USER_IO_17*%
X39000000Y-25000000D03*
%TO.N,USER_IO_18*%
X39000000Y-23000000D03*
%TO.N,USER_IO_19*%
X37000000Y-25000000D03*
%TO.N,USER_IO_20*%
X37000000Y-23000000D03*
%TO.N,USER_IO_21*%
X35000000Y-25000000D03*
%TO.N,USER_IO_22*%
X35000000Y-23000000D03*
%TO.N,USER_IO_23*%
X33000000Y-25000000D03*
%TO.N,USER_IO_24*%
X33000000Y-23000000D03*
%TO.N,USER_IO_25*%
X31000000Y-25000000D03*
%TO.N,GND*%
X31000000Y-23000000D03*
%TO.N,USER_IO_26*%
X29000000Y-25000000D03*
%TO.N,USER_IO_27*%
X29000000Y-23000000D03*
%TO.N,USER_IO_28*%
X27000000Y-25000000D03*
%TO.N,USER_IO_29*%
X27000000Y-23000000D03*
%TO.N,SERIAL_IO_2*%
X25000000Y-25000000D03*
%TO.N,SERIAL_IO_1*%
X25000000Y-23000000D03*
%TO.N,USER_IO_30*%
X23000000Y-25000000D03*
%TO.N,USER_IO_31*%
X23000000Y-23000000D03*
%TO.N,BOOT_SECTOR*%
X21000000Y-25000000D03*
%TO.N,GND*%
X21000000Y-23000000D03*
%TD*%
D12*
%TO.N,+3V3*%
X30500000Y-38500000D03*
X45600000Y-27500000D03*
X23500000Y-38500000D03*
X63950000Y-18990000D03*
X62950000Y-16450000D03*
X30500000Y-36500000D03*
X44590000Y-44570000D03*
X26500000Y-41500000D03*
X28500000Y-34500000D03*
X24500000Y-38500000D03*
X23500000Y-36500000D03*
X30500000Y-39500000D03*
X24500000Y-36500000D03*
D13*
X64150000Y-56250000D03*
D12*
X31660000Y-52230000D03*
D13*
X62150000Y-64750000D03*
D12*
X50400000Y-27530000D03*
X26500000Y-34500000D03*
X21129309Y-51025000D03*
X29500000Y-40500000D03*
D13*
X24152623Y-64604483D03*
D12*
X28385651Y-48075000D03*
X62950000Y-18990000D03*
X48000000Y-41150000D03*
X28500000Y-41500000D03*
D13*
X44749500Y-56750000D03*
D12*
X28500000Y-33500000D03*
D13*
X63120000Y-40680000D03*
D12*
X39750000Y-28575000D03*
X24500000Y-35500000D03*
D13*
X40812039Y-40688000D03*
D12*
X29500000Y-34500000D03*
D13*
X64300000Y-28560000D03*
X21612000Y-59400000D03*
D12*
X28500000Y-40500000D03*
D13*
X62750000Y-63750000D03*
D12*
X30110000Y-63149500D03*
X63950000Y-16450000D03*
X24500000Y-39500000D03*
D13*
X62750000Y-64750000D03*
D12*
X51860000Y-41160000D03*
X31500000Y-38500000D03*
X31500000Y-36500000D03*
X26500000Y-40500000D03*
X26500000Y-33500000D03*
X30500000Y-35500000D03*
D13*
X61750000Y-63750000D03*
D12*
X25500000Y-34500000D03*
D13*
X57350000Y-49900000D03*
D12*
X25500000Y-40500000D03*
%TO.N,GND*%
X34500000Y-38500000D03*
D13*
X64100000Y-51250000D03*
D12*
X25500000Y-39500000D03*
X26504600Y-44495400D03*
X30500000Y-34500000D03*
D13*
X59370000Y-78520000D03*
X63200000Y-42850000D03*
X47450000Y-69125000D03*
D12*
X50540000Y-41160000D03*
X25500000Y-38500000D03*
X46125806Y-46389530D03*
X62950000Y-24070000D03*
X52000000Y-29600000D03*
X32770000Y-52620000D03*
D13*
X18730000Y-78550000D03*
D14*
X56220000Y-66610000D03*
D12*
X45600000Y-41200000D03*
X62950000Y-21530000D03*
X33500000Y-31500000D03*
D14*
X55220000Y-66610000D03*
D12*
X30500000Y-40500000D03*
X24500000Y-40500000D03*
X31150000Y-65967320D03*
X29500000Y-35500000D03*
X63950000Y-24070000D03*
X21963310Y-53023029D03*
X29500000Y-36500000D03*
D13*
X62400000Y-49350000D03*
D12*
X28500000Y-35500000D03*
X26500000Y-35500000D03*
X15475000Y-40025000D03*
X24500000Y-34500000D03*
X28500000Y-39500000D03*
D13*
X64150000Y-61250000D03*
X22500000Y-71900000D03*
D12*
X21500000Y-37500000D03*
X21876239Y-64390543D03*
X25500000Y-35500000D03*
X63950000Y-21530000D03*
X29500000Y-39500000D03*
D13*
X39550500Y-40679989D03*
D12*
X28500000Y-30500000D03*
X26500000Y-38500000D03*
X25500000Y-36500000D03*
X52025000Y-27643000D03*
X26500000Y-39500000D03*
D13*
X61270000Y-78550000D03*
X31000000Y-21900000D03*
X41000000Y-22050000D03*
D12*
X34500000Y-44500000D03*
X26500000Y-36500000D03*
D13*
X40870000Y-27930000D03*
X63800000Y-39450000D03*
X33100993Y-69925071D03*
D12*
X29500000Y-38500000D03*
X34500000Y-30500000D03*
X28500000Y-38500000D03*
X28500000Y-36500000D03*
X48000000Y-27560000D03*
D13*
X63800000Y-27450000D03*
D12*
X20500000Y-29500000D03*
D13*
%TO.N,VCC*%
X39050000Y-69800000D03*
X40650000Y-78550000D03*
D14*
X64424500Y-69110000D03*
D13*
%TO.N,uC_CNTRL1*%
X25212961Y-61137039D03*
X42300000Y-55850000D03*
D12*
X36500000Y-28520000D03*
%TO.N,+2V5*%
X22500000Y-43500000D03*
X35925000Y-65966820D03*
X35700000Y-38500000D03*
D13*
%TO.N,uC_CNTRL4*%
X56605000Y-43475000D03*
X26691509Y-49266509D03*
X20500000Y-27050000D03*
%TO.N,INOUT_PC_CARD_44*%
X37200000Y-71150000D03*
D12*
X15490000Y-41460000D03*
%TO.N,+1V2*%
X22500000Y-32500000D03*
X32500000Y-32500000D03*
X32500000Y-42500000D03*
X26949336Y-65967320D03*
X22500000Y-42500000D03*
D13*
X21222684Y-64557335D03*
X18050000Y-66550000D03*
%TO.N,FPGA_CLK1*%
X18912000Y-21684941D03*
D12*
X27356862Y-49106862D03*
X23500000Y-32500000D03*
D13*
%TO.N,SDRAM_CNTRL8*%
X42750000Y-37701469D03*
X40900000Y-39331469D03*
D12*
%TO.N,FPGA_TEST_EDGE4*%
X25839332Y-27437917D03*
X50535000Y-46515000D03*
X24500000Y-31500000D03*
%TO.N,FPGA_TEST_EDGE5*%
X59706896Y-41446859D03*
X25500000Y-30500000D03*
X28300000Y-21675000D03*
%TO.N,FPGA_TEST_EDGE6*%
X51805638Y-45705638D03*
X25500000Y-33500000D03*
D13*
%TO.N,uC_PROG1*%
X22369855Y-58099855D03*
X42300000Y-54650000D03*
%TO.N,uC_PROG2*%
X27850000Y-64288961D03*
X47450000Y-59175500D03*
D12*
%TO.N,uC_PROG4*%
X40014282Y-50137170D03*
D13*
X30990000Y-51974500D03*
D12*
%TO.N,Net-(R11-Pad2)*%
X28500000Y-42500000D03*
X28000353Y-49000353D03*
D13*
%TO.N,Net-(J2-Pad67)*%
X19393049Y-78246951D03*
%TO.N,Net-(J2-Pad43)*%
X50470000Y-78280000D03*
%TO.N,Net-(J2-Pad57)*%
X32637000Y-78252600D03*
D12*
%TO.N,BOOT0*%
X24619526Y-50641751D03*
%TO.N,INOUT_PC_CARD_51*%
X20509600Y-43490400D03*
D13*
X21800000Y-71150000D03*
D12*
%TO.N,INOUT_PC_CARD_26*%
X18640979Y-46788000D03*
D13*
X21000000Y-71150000D03*
%TO.N,INOUT_PC_CARD_52*%
X20200000Y-71150000D03*
X15425000Y-46850000D03*
D12*
%TO.N,INOUT_PC_CARD_27*%
X17948271Y-47188000D03*
D13*
X19400000Y-71150000D03*
%TO.N,INOUT_PC_CARD_53*%
X18600000Y-71150000D03*
D12*
X17975000Y-44000000D03*
D13*
%TO.N,INOUT_PC_CARD_28*%
X17800000Y-71150000D03*
X16918767Y-48218767D03*
D12*
%TO.N,INOUT_PC_CARD_54*%
X16200000Y-39125000D03*
D13*
X17000000Y-71150000D03*
%TO.N,INOUT_PC_CARD_29*%
X16275000Y-71150000D03*
X15563000Y-47800000D03*
%TO.N,PC_CARD_27*%
X21612489Y-76883911D03*
X23034541Y-78314011D03*
%TO.N,PC_CARD_52*%
X23793000Y-77998600D03*
X21395433Y-75772033D03*
%TO.N,PC_CARD_26*%
X21332934Y-74820533D03*
X23754500Y-77200025D03*
%TO.N,PC_CARD_51*%
X22266945Y-74785211D03*
X25044741Y-77484905D03*
%TO.N,INOUT_PC_CARD_47*%
X28800000Y-71150000D03*
D12*
X22500000Y-41500000D03*
D13*
X16612000Y-46975000D03*
%TO.N,INOUT_PC_CARD_22*%
X28000000Y-71150000D03*
D12*
X24500000Y-43500000D03*
%TO.N,INOUT_PC_CARD_48*%
X15500000Y-42400000D03*
D13*
X27200000Y-71150000D03*
D12*
%TO.N,INOUT_PC_CARD_23*%
X23450000Y-48335936D03*
D13*
X26400000Y-71150000D03*
%TO.N,INOUT_PC_CARD_49*%
X25600000Y-71150000D03*
D12*
X15450000Y-43650000D03*
%TO.N,INOUT_PC_CARD_24*%
X23500000Y-43500000D03*
D13*
X24800000Y-71150000D03*
D12*
X22006862Y-49056862D03*
%TO.N,INOUT_PC_CARD_50*%
X21500000Y-42500000D03*
D13*
X24000000Y-71150000D03*
X21074011Y-48537000D03*
D12*
%TO.N,INOUT_PC_CARD_25*%
X23504600Y-46395400D03*
D13*
X23200000Y-71150000D03*
%TO.N,PC_CARD_49*%
X27632000Y-78554200D03*
X26962488Y-76214110D03*
%TO.N,PC_CARD_23*%
X26743289Y-75080511D03*
X28261650Y-78249500D03*
%TO.N,PC_CARD_48*%
X27406600Y-74671200D03*
X28879800Y-77338200D03*
D12*
%TO.N,INOUT_PC_CARD_17*%
X30500000Y-44500000D03*
D13*
X35800000Y-71150000D03*
D12*
%TO.N,INOUT_PC_CARD_45*%
X16825000Y-41513000D03*
D13*
X35000000Y-71150000D03*
D12*
%TO.N,INOUT_PC_CARD_18*%
X29500000Y-41500000D03*
D13*
X21154320Y-53409389D03*
X34200000Y-71150000D03*
%TO.N,INOUT_PC_CARD_46*%
X33400000Y-71150000D03*
D12*
X17923271Y-44775000D03*
X21500000Y-41500000D03*
%TO.N,INOUT_PC_CARD_19*%
X29500000Y-42500000D03*
D13*
X32600000Y-71150000D03*
D12*
%TO.N,INOUT_PC_CARD_20*%
X25500000Y-41500000D03*
X23724949Y-50138000D03*
D13*
X31800000Y-71150000D03*
D12*
%TO.N,INOUT_PC_CARD_RESET*%
X18446707Y-36932954D03*
D13*
X31000000Y-71150000D03*
D12*
%TO.N,INOUT_PC_CARD_21*%
X25500000Y-42500000D03*
D13*
X30200000Y-71149989D03*
%TO.N,PC_CARD_19*%
X32749599Y-74850500D03*
X33336496Y-78249500D03*
D12*
%TO.N,INOUT_PC_CARD_14*%
X38550000Y-47888000D03*
D13*
X42800000Y-71150000D03*
D12*
%TO.N,INOUT_PC_CARD_41*%
X21500000Y-40500000D03*
D13*
X41274086Y-70225914D03*
D12*
%TO.N,INOUT_PC_CARD_55*%
X17868138Y-36406862D03*
X33360000Y-56520000D03*
D13*
X41200000Y-71150000D03*
%TO.N,INOUT_PC_CARD_42*%
X40400000Y-71150000D03*
D12*
X22500000Y-40500000D03*
D13*
%TO.N,INOUT_PC_CARD_15*%
X39600000Y-71150000D03*
D12*
X26500000Y-47250000D03*
X26500000Y-42500000D03*
%TO.N,INOUT_PC_CARD_43*%
X36600000Y-65800000D03*
X23500000Y-40500000D03*
D13*
X38800000Y-71150000D03*
D12*
%TO.N,INOUT_PC_CARD_16*%
X30500000Y-43500000D03*
X38575000Y-44500000D03*
D13*
X38000000Y-71150000D03*
%TO.N,PC_CARD_43*%
X37777500Y-78514300D03*
D12*
X42300000Y-66750000D03*
D13*
X38418286Y-74580811D03*
%TO.N,PC_CARD_15*%
X38424945Y-78249500D03*
X39099971Y-75400000D03*
D12*
%TO.N,PC_CARD_42*%
X43100000Y-66750000D03*
X40400000Y-74800000D03*
%TO.N,PC_CARD_55*%
X41226100Y-74723900D03*
X43900000Y-66750000D03*
D13*
%TO.N,PC_CARD_41*%
X42316400Y-74747400D03*
D12*
X44700000Y-66750000D03*
D13*
X42857500Y-78539700D03*
D12*
%TO.N,PC_CARD_14*%
X45500000Y-66744502D03*
D13*
X43493965Y-78249500D03*
X43129200Y-74747400D03*
D12*
%TO.N,INOUT_PC_CARD_10*%
X38650000Y-49050000D03*
X49800000Y-71150000D03*
X49568138Y-65093138D03*
D13*
%TO.N,INOUT_PC_CARD_37*%
X49000000Y-71150000D03*
D12*
X21500000Y-39500000D03*
%TO.N,INOUT_PC_CARD_11*%
X39925000Y-47113000D03*
D13*
X48200000Y-71150000D03*
%TO.N,INOUT_PC_CARD_38*%
X47400000Y-71150000D03*
D12*
X22500000Y-39500000D03*
X16823531Y-39513000D03*
D13*
%TO.N,INOUT_PC_CARD_12*%
X46600000Y-71150000D03*
D12*
X39200000Y-47513000D03*
D13*
%TO.N,INOUT_PC_CARD_39*%
X46675000Y-69713480D03*
D12*
X23500000Y-39500000D03*
%TO.N,INOUT_PC_CARD_13*%
X31500000Y-43500000D03*
D13*
X46325000Y-69025000D03*
D12*
%TO.N,INOUT_PC_CARD_40*%
X16823542Y-40500000D03*
D13*
X43924500Y-71200000D03*
%TO.N,PC_CARD_11*%
X48209200Y-74798200D03*
X47294800Y-76220600D03*
%TO.N,PC_CARD_37*%
X48996600Y-74366400D03*
X47929800Y-78557400D03*
%TO.N,PC_CARD_10*%
X48557893Y-78249500D03*
X49250433Y-75509233D03*
D12*
%TO.N,INOUT_PC_CARD_33*%
X56800000Y-71150000D03*
%TO.N,INOUT_PC_CARD_6*%
X56000000Y-71150000D03*
X43475000Y-45025000D03*
%TO.N,INOUT_PC_CARD_34*%
X15900000Y-37100000D03*
X21500000Y-38500000D03*
X55200000Y-71150000D03*
%TO.N,INOUT_PC_CARD_7*%
X54400000Y-71150000D03*
X41175000Y-45525000D03*
%TO.N,INOUT_PC_CARD_35*%
X53600000Y-71150000D03*
X16574989Y-37350000D03*
X22500000Y-38500000D03*
%TO.N,INOUT_PC_CARD_8*%
X31500000Y-42500000D03*
X52800000Y-71150000D03*
%TO.N,INOUT_PC_CARD_9*%
X32500000Y-43500000D03*
X52000000Y-71150000D03*
X40500000Y-46525000D03*
%TO.N,INOUT_PC_CARD_36*%
X51200000Y-71150000D03*
D13*
%TO.N,PC_CARD_35*%
X53594000Y-74315600D03*
X52374800Y-75687200D03*
%TO.N,PC_CARD_7*%
X54025800Y-74950600D03*
X52374800Y-76601600D03*
%TO.N,PC_CARD_34*%
X54762400Y-75026800D03*
X53017500Y-78532000D03*
%TO.N,PC_CARD_6*%
X54267100Y-76385700D03*
X53657418Y-78249500D03*
D12*
%TO.N,INOUT_PC_CARD_1*%
X63800000Y-71150000D03*
X32500000Y-39500000D03*
X42375000Y-42975000D03*
%TO.N,INOUT_PC_CARD_2*%
X61628022Y-41800908D03*
X63000000Y-71150000D03*
X33500000Y-37500000D03*
%TO.N,INOUT_PC_CARD_30*%
X25500000Y-43500000D03*
X62200000Y-71150000D03*
X40925000Y-44000000D03*
%TO.N,INOUT_PC_CARD_3*%
X32500000Y-38500000D03*
X61075000Y-42350000D03*
X61400000Y-71150000D03*
%TO.N,INOUT_PC_CARD_31*%
X23500000Y-42500000D03*
X60600000Y-71150000D03*
%TO.N,INOUT_PC_CARD_4*%
X47130638Y-45994362D03*
X59800000Y-71150000D03*
X37700000Y-38000000D03*
%TO.N,INOUT_PC_CARD_32*%
X15805404Y-38469127D03*
X59000000Y-71150000D03*
%TO.N,INOUT_PC_CARD_5*%
X37675000Y-38825000D03*
X60613000Y-42875000D03*
X58200000Y-71150000D03*
D13*
%TO.N,PC_CARD_32*%
X58260000Y-74760000D03*
X57560000Y-75460000D03*
%TO.N,PC_CARD_4*%
X57558100Y-76279367D03*
X59041233Y-74791233D03*
%TO.N,PC_CARD_31*%
X59797466Y-74847466D03*
X57556795Y-77093121D03*
%TO.N,PC_CARD_3*%
X60628700Y-74828700D03*
X57571191Y-77891191D03*
%TO.N,PC_CARD_30*%
X61469933Y-74799933D03*
X58100000Y-78500000D03*
%TO.N,OSC_OUT*%
X21612000Y-55950000D03*
X21154320Y-63861181D03*
D12*
%TO.N,BOOT_SECTOR*%
X24550000Y-58399500D03*
%TO.N,SERIAL_TX*%
X26796444Y-57171444D03*
%TO.N,SERIAL_RX*%
X27950000Y-57250000D03*
D13*
%TO.N,FPGA_CNTRL3*%
X31034017Y-52673517D03*
D12*
X31700000Y-48550000D03*
X33500000Y-44500000D03*
D13*
%TO.N,TIM3_CH3*%
X28100000Y-60700000D03*
X37800000Y-60675000D03*
%TO.N,TIM3_CH4*%
X33250000Y-62600000D03*
X27611264Y-61261264D03*
%TO.N,FPGA_CNTRL1*%
X21799500Y-60175000D03*
D12*
X16675000Y-36350000D03*
D13*
%TO.N,uC_A19*%
X32739207Y-57050793D03*
X41753948Y-57568691D03*
D12*
%TO.N,FPGA_CNTRL2*%
X22000000Y-46270000D03*
X23350000Y-62200000D03*
D13*
%TO.N,CAN2_TX*%
X41261933Y-56996997D03*
X24757115Y-53070356D03*
%TO.N,NRST*%
X27924780Y-56035500D03*
X52760000Y-49310000D03*
%TO.N,uC_A16*%
X42415650Y-50700989D03*
X26725461Y-49975461D03*
%TO.N,uC_A15*%
X44700000Y-51250000D03*
X30050000Y-56850000D03*
%TO.N,uC_A14*%
X42300000Y-51850000D03*
X24060000Y-54175500D03*
%TO.N,uC_A13*%
X44700000Y-52250000D03*
X24580000Y-54675500D03*
%TO.N,uC_A12*%
X42300000Y-52650000D03*
X26625000Y-54700989D03*
%TO.N,uC_A11*%
X44700000Y-53250000D03*
X28234994Y-53050000D03*
%TO.N,uC_A10*%
X27495000Y-53171242D03*
X42300000Y-53850000D03*
%TO.N,uC_A9*%
X44750000Y-54100000D03*
X28500000Y-61350000D03*
%TO.N,uC_A18*%
X23350000Y-53534000D03*
X44925500Y-55824500D03*
%TO.N,uC_A8*%
X29955377Y-57582849D03*
X42400000Y-59257320D03*
%TO.N,uC_A1*%
X59900000Y-62324500D03*
X60106300Y-48256300D03*
D12*
%TO.N,uC_CNTRL3*%
X15725000Y-35775000D03*
D13*
X34600000Y-64605500D03*
D12*
X21977750Y-53700500D03*
X25800000Y-28725000D03*
%TO.N,uC_CNTRL2*%
X38925000Y-64263000D03*
X36468138Y-44706862D03*
D13*
X33527250Y-64284500D03*
D12*
X22487000Y-26375000D03*
D13*
X24850000Y-64550000D03*
%TO.N,uC_AD0*%
X22764500Y-56588000D03*
D12*
X30500000Y-41500000D03*
D13*
X62050000Y-44950000D03*
X52393272Y-61593272D03*
X61375000Y-59625000D03*
%TO.N,uC_AD1*%
X23675000Y-56750000D03*
D12*
X30500000Y-42500000D03*
D13*
X52381233Y-60881233D03*
X64150000Y-45450000D03*
X61500000Y-58800000D03*
D12*
%TO.N,uC_AD2*%
X52531862Y-46356862D03*
X27675000Y-49750000D03*
X30825000Y-49925000D03*
D13*
X60881300Y-48293766D03*
X61376120Y-57686193D03*
D12*
X29500000Y-43500000D03*
D13*
%TO.N,uC_AD3*%
X55325008Y-58975008D03*
X60978150Y-49009383D03*
D12*
X37475000Y-49526967D03*
D13*
X61350000Y-56850000D03*
X25275500Y-62050000D03*
%TO.N,uC_AD4*%
X61550000Y-55550000D03*
X58600000Y-44800000D03*
X55300461Y-58074539D03*
X26373789Y-60873789D03*
%TO.N,uC_AD5*%
X29950000Y-59450000D03*
D12*
X56420000Y-45260000D03*
D13*
X58525500Y-54754500D03*
%TO.N,uC_AD6*%
X56300000Y-47350000D03*
X64154500Y-53750000D03*
D12*
X24500000Y-42500000D03*
D13*
X32526150Y-58824500D03*
%TO.N,uC_AD7*%
X59825500Y-53460000D03*
X32531442Y-58125018D03*
X56300000Y-48049503D03*
D12*
X24500000Y-41500000D03*
D13*
%TO.N,uC_A0*%
X62200000Y-44150000D03*
X64154500Y-52257411D03*
D12*
%TO.N,uC_A17*%
X31500000Y-63149500D03*
X28583480Y-55890353D03*
D13*
%TO.N,USER_IO_21*%
X28300000Y-28500000D03*
D12*
%TO.N,USER_IO_22*%
X31000000Y-29313000D03*
%TO.N,USER_IO_27*%
X31280638Y-27569362D03*
%TO.N,USER_IO_25*%
X32513000Y-27425000D03*
D13*
%TO.N,USER_IO_2*%
X53100000Y-20000000D03*
%TO.N,Net-(R22-Pad2)*%
X21300000Y-28200000D03*
D12*
%TO.N,FPGA_TEST_EDGE1*%
X58397500Y-41272500D03*
%TO.N,USER_IO_4*%
X21500000Y-31500000D03*
%TO.N,SERIAL_IO_2*%
X23500000Y-31500000D03*
%TO.N,USER_IO_23*%
X29500000Y-31500000D03*
%TO.N,USER_IO_30*%
X31500000Y-31500000D03*
D13*
%TO.N,SDRAM_A1*%
X41734788Y-29769290D03*
X62404678Y-36647149D03*
%TO.N,SDRAM_A0*%
X62248000Y-35860000D03*
X41230000Y-30281290D03*
%TO.N,USER_IO_6*%
X22300000Y-21100000D03*
X19275000Y-21087000D03*
D12*
%TO.N,USER_IO_8*%
X21500000Y-32500000D03*
D13*
X46488000Y-20200000D03*
D12*
%TO.N,FPGA_TEST_EDGE3*%
X59079362Y-41279362D03*
X24500000Y-32500000D03*
X25900000Y-26063000D03*
%TO.N,USER_IO_31*%
X30500000Y-32490000D03*
%TO.N,USER_IO_24*%
X31500000Y-32500000D03*
%TO.N,SDRAM_A2*%
X33500000Y-32500000D03*
D13*
X39582961Y-30462961D03*
X63150000Y-36620000D03*
%TO.N,SDRAM_A3*%
X41725724Y-30793290D03*
X61600000Y-38900000D03*
%TO.N,SDRAM_A4*%
X45540000Y-31500000D03*
X61400000Y-29700000D03*
%TO.N,USER_IO_9*%
X18600000Y-16376000D03*
%TO.N,USER_IO_10*%
X19100000Y-16888000D03*
D12*
%TO.N,USER_IO_7*%
X21500000Y-33500000D03*
D13*
X50225000Y-20300000D03*
%TO.N,USER_IO_12*%
X43400000Y-20176000D03*
D12*
X22500000Y-33500000D03*
%TO.N,FPGA_TEST_EDGE2*%
X24500000Y-33500000D03*
X22000000Y-26925000D03*
X49795514Y-46532396D03*
%TO.N,SDRAM_A5*%
X32500000Y-33500000D03*
D13*
X61038904Y-27492075D03*
D12*
%TO.N,SDRAM_A6*%
X33500000Y-33500000D03*
D13*
X52262961Y-32712961D03*
X43460875Y-32882000D03*
%TO.N,SDRAM_A7*%
X43963480Y-32360000D03*
X52819355Y-32156567D03*
%TO.N,SDRAM_A8*%
X53987039Y-30962000D03*
X42120000Y-33464389D03*
%TO.N,USER_IO_13*%
X44400000Y-16000000D03*
D12*
%TO.N,USER_IO_14*%
X21500000Y-34500000D03*
D13*
X43500000Y-18200000D03*
D12*
%TO.N,USER_IO_11*%
X22500000Y-34500000D03*
D13*
X46400000Y-19088000D03*
D12*
%TO.N,USER_IO_16*%
X23500000Y-34500000D03*
%TO.N,SDRAM_A9*%
X31500000Y-34500000D03*
D13*
X57340000Y-30402000D03*
%TO.N,SDRAM_A10*%
X51500000Y-33460000D03*
X42950000Y-33460000D03*
D12*
X32500000Y-34500000D03*
%TO.N,SDRAM_A11*%
X33500000Y-34500000D03*
D13*
X54793330Y-30127775D03*
X40280000Y-34488400D03*
%TO.N,SDRAM_A12*%
X56000000Y-29700000D03*
X41350000Y-34488400D03*
%TO.N,USER_IO_17*%
X38300000Y-18088000D03*
D12*
X21500000Y-35500000D03*
%TO.N,USER_IO_18*%
X22500000Y-35500000D03*
D13*
X37100000Y-18088000D03*
D12*
%TO.N,USER_IO_15*%
X23500000Y-35500000D03*
%TO.N,SDRAM_DQ0*%
X31500000Y-35500000D03*
D13*
X43102039Y-30582039D03*
D12*
%TO.N,SDRAM_DQ1*%
X32500000Y-35500000D03*
D13*
X44000000Y-29700000D03*
%TO.N,SDRAM_DQ2*%
X44800000Y-29700000D03*
D12*
X33500000Y-35500000D03*
%TO.N,USER_IO_19*%
X21500000Y-36500000D03*
D13*
X17112000Y-18412000D03*
D12*
%TO.N,USER_IO_20*%
X22500000Y-36500000D03*
D13*
X16237000Y-19300000D03*
%TO.N,SDRAM_DQ4*%
X47200000Y-29750000D03*
D12*
X32500000Y-36500000D03*
%TO.N,SDRAM_DQ5*%
X33500000Y-36500000D03*
D13*
X48800000Y-29700000D03*
D12*
%TO.N,SDRAM_CNTRL3*%
X31500000Y-39500000D03*
D13*
X54400000Y-38900000D03*
D12*
%TO.N,SDRAM_CNTRL1*%
X33500000Y-39500000D03*
D13*
%TO.N,SDRAM_DQ8*%
X38214105Y-39467580D03*
X51200000Y-39050000D03*
D12*
%TO.N,SDRAM_CNTRL2*%
X31500000Y-40500000D03*
D13*
X55200000Y-38900000D03*
D12*
%TO.N,SDRAM_CNTRL7*%
X32500000Y-40500000D03*
D13*
X56000000Y-38900000D03*
%TO.N,SDRAM_CNTRL6*%
X57610461Y-41335461D03*
D12*
X32500000Y-41500000D03*
D13*
%TO.N,SDRAM_DQ15*%
X39000000Y-41488000D03*
D12*
X33500000Y-41500000D03*
%TO.N,SDRAM_CNTRL10*%
X33500000Y-42500000D03*
X42375000Y-41475000D03*
D13*
X46000000Y-37338000D03*
%TO.N,SDRAM_DQ13*%
X43187961Y-41437961D03*
X44630000Y-41200000D03*
D12*
%TO.N,SDRAM_DQ12*%
X33500000Y-43500000D03*
D13*
X46437961Y-41387961D03*
%TO.N,SDRAM_DQ9*%
X43350000Y-42750000D03*
X49250000Y-42512000D03*
%TO.N,SDRAM_CNTRL4*%
X53600000Y-38900000D03*
D12*
X33500000Y-40500000D03*
D13*
%TO.N,CAN2_RX*%
X41330000Y-59831820D03*
X23924500Y-53049500D03*
%TO.N,USART3_TX*%
X29950000Y-49931460D03*
X40860000Y-56424500D03*
%TO.N,Net-(J4-Pad16)*%
X37200000Y-52700000D03*
%TD*%
D15*
%TO.N,GND*%
X50000000Y-24000000D02*
X51000000Y-23000000D01*
X48865000Y-27560000D02*
X50000000Y-26425000D01*
X50000000Y-26425000D02*
X50000000Y-24000000D01*
X48000000Y-27560000D02*
X48865000Y-27560000D01*
%TO.N,+1V2*%
X20834120Y-46933760D02*
X20834120Y-44165880D01*
X23012500Y-33012500D02*
X31987500Y-33012500D01*
X22500000Y-32500000D02*
X23012500Y-33012500D01*
X17721640Y-66221640D02*
X17721640Y-50046240D01*
X23012500Y-41987500D02*
X22500000Y-42500000D01*
X20834120Y-44165880D02*
X22500000Y-42500000D01*
X18050000Y-66550000D02*
X17721640Y-66221640D01*
X31987500Y-33012500D02*
X32500000Y-32500000D01*
X23012500Y-33012500D02*
X23012500Y-41987500D01*
X17721640Y-50046240D02*
X20834120Y-46933760D01*
%TO.N,FPGA_CLK1*%
X18912000Y-21684941D02*
X18912000Y-24662000D01*
X23000400Y-32000400D02*
X23500000Y-32500000D01*
X23000400Y-28750400D02*
X23000400Y-32000400D01*
X18912000Y-24662000D02*
X23000400Y-28750400D01*
%TO.N,FPGA_TEST_EDGE4*%
X25839332Y-27437917D02*
X24500000Y-28777249D01*
X24500000Y-28777249D02*
X24500000Y-31500000D01*
%TO.N,FPGA_TEST_EDGE5*%
X28000000Y-21975000D02*
X28000000Y-28000000D01*
X28300000Y-21675000D02*
X28000000Y-21975000D01*
X28000000Y-28000000D02*
X25500000Y-30500000D01*
D16*
%TO.N,uC_PROG4*%
X39953601Y-50076489D02*
X32888011Y-50076489D01*
X40014282Y-50137170D02*
X39953601Y-50076489D01*
X32888011Y-50076489D02*
X30990000Y-51974500D01*
D15*
%TO.N,Net-(R11-Pad2)*%
X27898651Y-48898651D02*
X27898651Y-43101349D01*
X27898651Y-43101349D02*
X28500000Y-42500000D01*
X28000353Y-49000353D02*
X27898651Y-48898651D01*
%TO.N,INOUT_PC_CARD_51*%
X21800000Y-71137518D02*
X17397120Y-66734638D01*
X17397120Y-49911820D02*
X20509600Y-46799340D01*
X20509600Y-46799340D02*
X20509600Y-43490400D01*
X17397120Y-66734638D02*
X17397120Y-49911820D01*
D16*
X21800000Y-71150000D02*
X21800000Y-71137518D01*
D15*
%TO.N,INOUT_PC_CARD_26*%
X18640979Y-48138529D02*
X17072600Y-49706908D01*
X17072600Y-67210118D02*
X21000000Y-71137518D01*
X18640979Y-46788000D02*
X18640979Y-48138529D01*
X17072600Y-49706908D02*
X17072600Y-67210118D01*
D16*
X21000000Y-71150000D02*
X21000000Y-71137518D01*
%TO.N,INOUT_PC_CARD_52*%
X20200000Y-71150000D02*
X20200000Y-71137518D01*
D15*
%TO.N,INOUT_PC_CARD_27*%
X17760790Y-47375481D02*
X17760790Y-48559778D01*
X17760790Y-48559778D02*
X16748080Y-49572488D01*
D16*
X19400000Y-71150000D02*
X19400000Y-71137518D01*
D15*
X16748080Y-49572488D02*
X16748080Y-68485598D01*
X16748080Y-68485598D02*
X19400000Y-71137518D01*
X17948271Y-47188000D02*
X17760790Y-47375481D01*
%TO.N,INOUT_PC_CARD_53*%
X17436271Y-48425357D02*
X16423561Y-49438067D01*
X16423560Y-68961078D02*
X18600000Y-71137518D01*
X16423561Y-49438067D02*
X16423560Y-68961078D01*
D16*
X18600000Y-71150000D02*
X18600000Y-71137518D01*
D15*
X17436271Y-44538729D02*
X17436271Y-48425357D01*
X17975000Y-44000000D02*
X17436271Y-44538729D01*
%TO.N,INOUT_PC_CARD_28*%
X16099040Y-49038494D02*
X16099040Y-69436558D01*
X16099040Y-69436558D02*
X17800000Y-71137518D01*
D16*
X17800000Y-71150000D02*
X17800000Y-71137518D01*
D15*
X16918767Y-48218767D02*
X16099040Y-49038494D01*
%TO.N,INOUT_PC_CARD_54*%
X15774520Y-48375480D02*
X15774520Y-69912038D01*
X16100000Y-48050000D02*
X15774520Y-48375480D01*
X16100000Y-39225000D02*
X16100000Y-48050000D01*
X16200000Y-39125000D02*
X16100000Y-39225000D01*
D16*
X17000000Y-71150000D02*
X17000000Y-71137518D01*
D15*
X15774520Y-69912038D02*
X17000000Y-71137518D01*
%TO.N,INOUT_PC_CARD_29*%
X15450000Y-47913000D02*
X15563000Y-47800000D01*
X16275000Y-71150000D02*
X15450000Y-70325000D01*
X15450000Y-70325000D02*
X15450000Y-47913000D01*
%TO.N,INOUT_PC_CARD_47*%
X16612000Y-42988000D02*
X17599600Y-42000400D01*
X17599600Y-42000400D02*
X21999600Y-42000400D01*
X16612000Y-46975000D02*
X16612000Y-42988000D01*
X21999600Y-42000400D02*
X22500000Y-41500000D01*
D16*
X28800000Y-71150000D02*
X28800000Y-71137518D01*
D15*
%TO.N,INOUT_PC_CARD_22*%
X24500000Y-48151110D02*
X24500000Y-43500000D01*
X28000000Y-71150000D02*
X27125480Y-70275480D01*
X27125480Y-70275480D02*
X25175480Y-70275480D01*
X20330332Y-49869668D02*
X22781442Y-49869668D01*
X28000000Y-71150000D02*
X28000000Y-71137518D01*
X25175480Y-70275480D02*
X19344240Y-64444240D01*
X19344240Y-50855760D02*
X20330332Y-49869668D01*
X19344240Y-64444240D02*
X19344240Y-50855760D01*
X22781442Y-49869668D02*
X24500000Y-48151110D01*
D16*
%TO.N,INOUT_PC_CARD_48*%
X27200000Y-71150000D02*
X27200000Y-71137518D01*
D15*
%TO.N,INOUT_PC_CARD_23*%
X19019720Y-50623160D02*
X19019720Y-64719720D01*
X20097721Y-49545159D02*
X19019720Y-50623160D01*
X23450000Y-48335936D02*
X23439064Y-48335936D01*
X24900000Y-70600000D02*
X25850000Y-70600000D01*
X23439064Y-48335936D02*
X22229841Y-49545159D01*
D16*
X26400000Y-71150000D02*
X26400000Y-71137518D01*
D15*
X25850000Y-70600000D02*
X26400000Y-71150000D01*
X22229841Y-49545159D02*
X20097721Y-49545159D01*
X19019720Y-64719720D02*
X24900000Y-70600000D01*
D16*
%TO.N,INOUT_PC_CARD_49*%
X25600000Y-71150000D02*
X25600000Y-71137518D01*
D15*
%TO.N,INOUT_PC_CARD_24*%
X18695200Y-50488740D02*
X18695200Y-65045200D01*
X18695200Y-65045200D02*
X24787518Y-71137518D01*
X20127078Y-49056862D02*
X18695200Y-50488740D01*
X22006862Y-49056862D02*
X20127078Y-49056862D01*
D16*
X24800000Y-71150000D02*
X24800000Y-71137518D01*
D15*
X24787518Y-71137518D02*
X24800000Y-71137518D01*
%TO.N,INOUT_PC_CARD_50*%
X21074011Y-48537000D02*
X20188000Y-48537000D01*
D16*
X24000000Y-71150000D02*
X24000000Y-71137518D01*
D15*
X18370680Y-50354320D02*
X18370680Y-65508198D01*
X18370680Y-65508198D02*
X24000000Y-71137518D01*
X20188000Y-48537000D02*
X18370680Y-50354320D01*
%TO.N,INOUT_PC_CARD_25*%
X23025000Y-48025000D02*
X23504600Y-47545400D01*
X23200000Y-71150000D02*
X23200000Y-70800000D01*
X20225000Y-48025000D02*
X23025000Y-48025000D01*
D16*
X23200000Y-71150000D02*
X23200000Y-71137518D01*
D15*
X23200000Y-70800000D02*
X18046160Y-65646160D01*
X18046160Y-65646160D02*
X18046160Y-50203840D01*
X18046160Y-50203840D02*
X20225000Y-48025000D01*
X23504600Y-47545400D02*
X23504600Y-46395400D01*
X23200000Y-71137518D02*
X23037518Y-71137518D01*
%TO.N,INOUT_PC_CARD_17*%
X23120000Y-65120000D02*
X23120000Y-63840380D01*
X23120000Y-63840380D02*
X21100000Y-61820380D01*
X22512500Y-54097500D02*
X22512500Y-52787500D01*
X21100000Y-55510000D02*
X22512500Y-54097500D01*
X33250960Y-68550960D02*
X26550960Y-68550960D01*
X22512500Y-52787500D02*
X23525000Y-51775000D01*
X35800000Y-71100000D02*
X33250960Y-68550960D01*
X30500000Y-48175000D02*
X30500000Y-44500000D01*
X23525000Y-51775000D02*
X26900000Y-51775000D01*
X35800000Y-71150000D02*
X35800000Y-71100000D01*
X26900000Y-51775000D02*
X30500000Y-48175000D01*
X26550960Y-68550960D02*
X23120000Y-65120000D01*
X21100000Y-61820380D02*
X21100000Y-55510000D01*
%TO.N,INOUT_PC_CARD_18*%
X32775480Y-68875480D02*
X34200000Y-70300000D01*
X22720000Y-65270000D02*
X26325480Y-68875480D01*
X20700000Y-53863709D02*
X20700000Y-61880000D01*
X22720000Y-63900000D02*
X22720000Y-65270000D01*
X26325480Y-68875480D02*
X32775480Y-68875480D01*
X20700000Y-61880000D02*
X22720000Y-63900000D01*
X21154320Y-53409389D02*
X20700000Y-53863709D01*
X34200000Y-70300000D02*
X34200000Y-71150000D01*
%TO.N,INOUT_PC_CARD_19*%
X26190381Y-69200000D02*
X22360000Y-65369619D01*
X30650000Y-69200000D02*
X26190381Y-69200000D01*
X20317800Y-61987800D02*
X20317800Y-53507200D01*
X22374520Y-51450480D02*
X26697890Y-51450480D01*
X22363739Y-64033739D02*
X20317800Y-61987800D01*
X22360000Y-64596212D02*
X22363739Y-64592473D01*
X20317800Y-53507200D02*
X22374520Y-51450480D01*
X29987011Y-48161359D02*
X29987011Y-42987011D01*
X32600000Y-71150000D02*
X30650000Y-69200000D01*
X26697890Y-51450480D02*
X29987011Y-48161359D01*
X29987011Y-42987011D02*
X29500000Y-42500000D01*
X22363739Y-64592473D02*
X22363739Y-64033739D01*
X22360000Y-65369619D02*
X22360000Y-64596212D01*
%TO.N,INOUT_PC_CARD_20*%
X19993280Y-64094990D02*
X25448290Y-69550000D01*
X19993281Y-53372779D02*
X19993280Y-64094990D01*
X30200000Y-69550000D02*
X31800000Y-71150000D01*
X23724949Y-50138000D02*
X23344242Y-50518707D01*
X25448290Y-69550000D02*
X30200000Y-69550000D01*
X23344242Y-50518707D02*
X22847353Y-50518707D01*
X22847353Y-50518707D02*
X19993281Y-53372779D01*
D16*
%TO.N,INOUT_PC_CARD_RESET*%
X31000000Y-71150000D02*
X30900000Y-71050000D01*
D15*
%TO.N,INOUT_PC_CARD_21*%
X19668760Y-51081240D02*
X20555812Y-50194188D01*
X25000400Y-42999600D02*
X25500000Y-42500000D01*
X19668760Y-64268760D02*
X19668760Y-51081240D01*
X20555812Y-50194188D02*
X22915863Y-50194187D01*
X25300000Y-69900000D02*
X19668760Y-64268760D01*
X29200000Y-69900000D02*
X25300000Y-69900000D01*
X30200000Y-71149989D02*
X30200000Y-70900000D01*
X30200000Y-70900000D02*
X29200000Y-69900000D01*
X22915863Y-50194187D02*
X25000400Y-48109650D01*
X25000400Y-48109650D02*
X25000400Y-42999600D01*
%TO.N,INOUT_PC_CARD_14*%
X46941060Y-70375000D02*
X43300000Y-70375000D01*
X38662000Y-48000000D02*
X44125000Y-48000000D01*
X44125000Y-48000000D02*
X54025480Y-57900480D01*
X54025480Y-57900480D02*
X54025480Y-63290580D01*
X43300000Y-70375000D02*
X42800000Y-70875000D01*
X38550000Y-47888000D02*
X38662000Y-48000000D01*
X42800000Y-70875000D02*
X42800000Y-71150000D01*
X54025480Y-63290580D02*
X46941060Y-70375000D01*
%TO.N,INOUT_PC_CARD_41*%
X21500000Y-40500000D02*
X21490400Y-40490400D01*
%TO.N,INOUT_PC_CARD_15*%
X26000400Y-42999600D02*
X26500000Y-42500000D01*
X26000400Y-46750400D02*
X26000400Y-42999600D01*
X26500000Y-47250000D02*
X26000400Y-46750400D01*
%TO.N,INOUT_PC_CARD_43*%
X38500000Y-70850000D02*
X38500000Y-67675000D01*
X36625000Y-65800000D02*
X36600000Y-65800000D01*
X38800000Y-71150000D02*
X38500000Y-70850000D01*
X38500000Y-67675000D02*
X36625000Y-65800000D01*
%TO.N,INOUT_PC_CARD_16*%
X38000000Y-71150000D02*
X38100000Y-71050000D01*
%TO.N,INOUT_PC_CARD_10*%
X52905283Y-61805355D02*
X49617500Y-65093138D01*
X38991991Y-48708009D02*
X43758009Y-48708009D01*
X52905283Y-57855283D02*
X52905283Y-61805355D01*
X43758009Y-48708009D02*
X52905283Y-57855283D01*
X49617500Y-65093138D02*
X49568138Y-65093138D01*
X38650000Y-49050000D02*
X38991991Y-48708009D01*
%TO.N,INOUT_PC_CARD_11*%
X39925000Y-47113000D02*
X39938000Y-47100000D01*
X39938000Y-47100000D02*
X44450000Y-47100000D01*
X54750000Y-64600000D02*
X48200000Y-71150000D01*
X44450000Y-47100000D02*
X54750000Y-57400000D01*
X54750000Y-57400000D02*
X54750000Y-64600000D01*
%TO.N,INOUT_PC_CARD_38*%
X16823531Y-39513000D02*
X17297542Y-39987011D01*
X22012989Y-39987011D02*
X22500000Y-39500000D01*
X17297542Y-39987011D02*
X22012989Y-39987011D01*
%TO.N,INOUT_PC_CARD_12*%
X39287000Y-47600000D02*
X44275000Y-47600000D01*
X39200000Y-47513000D02*
X39287000Y-47600000D01*
X44275000Y-47600000D02*
X54350000Y-57675000D01*
X54350000Y-63425000D02*
X46625000Y-71150000D01*
X54350000Y-57675000D02*
X54350000Y-63425000D01*
X46625000Y-71150000D02*
X46600000Y-71150000D01*
%TO.N,INOUT_PC_CARD_13*%
X31500000Y-47050000D02*
X32833489Y-48383489D01*
X53675000Y-61675000D02*
X46325000Y-69025000D01*
X53675000Y-58100000D02*
X53675000Y-61675000D01*
X31500000Y-43500000D02*
X31500000Y-47050000D01*
X32833489Y-48383489D02*
X43958489Y-48383489D01*
X43958489Y-48383489D02*
X53675000Y-58100000D01*
%TO.N,INOUT_PC_CARD_6*%
X43507011Y-45057011D02*
X45482011Y-45057011D01*
X43475000Y-45025000D02*
X43507011Y-45057011D01*
X57650000Y-57225000D02*
X57650000Y-69500000D01*
X57650000Y-69500000D02*
X56000000Y-71150000D01*
X45482011Y-45057011D02*
X57650000Y-57225000D01*
%TO.N,INOUT_PC_CARD_34*%
X16137011Y-36862989D02*
X16812989Y-36862989D01*
X16812989Y-36862989D02*
X18450000Y-38500000D01*
X18450000Y-38500000D02*
X21500000Y-38500000D01*
X15900000Y-37100000D02*
X16137011Y-36862989D01*
%TO.N,INOUT_PC_CARD_7*%
X57325480Y-63709715D02*
X54400000Y-66635195D01*
X44550000Y-45525000D02*
X57325480Y-58300480D01*
X41175000Y-45525000D02*
X44550000Y-45525000D01*
X54400000Y-66635195D02*
X54400000Y-71150000D01*
X57325480Y-58300480D02*
X57325480Y-63709715D01*
%TO.N,INOUT_PC_CARD_35*%
X16574989Y-37350000D02*
X16574989Y-38274989D01*
X21987011Y-39012989D02*
X22500000Y-38500000D01*
X16574989Y-38274989D02*
X17312989Y-39012989D01*
X17312989Y-39012989D02*
X21987011Y-39012989D01*
%TO.N,INOUT_PC_CARD_8*%
X32000400Y-43000400D02*
X31500000Y-42500000D01*
X52800000Y-71150000D02*
X54075480Y-69874520D01*
X56810000Y-58285000D02*
X44550000Y-46025000D01*
X35450400Y-43000400D02*
X32000400Y-43000400D01*
X44550000Y-46025000D02*
X38475000Y-46025000D01*
X54075481Y-66500774D02*
X56810000Y-63766255D01*
X54075480Y-69874520D02*
X54075481Y-66500774D01*
X56810000Y-63766255D02*
X56810000Y-58285000D01*
X38475000Y-46025000D02*
X35450400Y-43000400D01*
%TO.N,INOUT_PC_CARD_9*%
X52000000Y-68117315D02*
X52000000Y-71150000D01*
X56485480Y-63631835D02*
X52000000Y-68117315D01*
X56485480Y-58535480D02*
X56485480Y-63631835D01*
X40500000Y-46525000D02*
X44475000Y-46525000D01*
X33075000Y-46525000D02*
X32500000Y-45950000D01*
X40500000Y-46525000D02*
X33075000Y-46525000D01*
X44475000Y-46525000D02*
X56485480Y-58535480D01*
X32500000Y-45950000D02*
X32500000Y-43500000D01*
%TO.N,INOUT_PC_CARD_1*%
X36654600Y-40000400D02*
X33000400Y-40000400D01*
X63800000Y-62774094D02*
X63800000Y-71150000D01*
X46025000Y-43475000D02*
X60388469Y-57838469D01*
X42875000Y-43475000D02*
X46025000Y-43475000D01*
X33000400Y-40000400D02*
X32500000Y-39500000D01*
X60388469Y-57838469D02*
X60388469Y-59362563D01*
X60388469Y-59362563D02*
X63800000Y-62774094D01*
X42375000Y-42975000D02*
X42875000Y-43475000D01*
%TO.N,INOUT_PC_CARD_30*%
X62200000Y-65586531D02*
X62200000Y-71150000D01*
X61803496Y-65586530D02*
X62200000Y-65586531D01*
X45825000Y-44000000D02*
X59063469Y-57238469D01*
X59063469Y-57238469D02*
X59063469Y-62846503D01*
X59063469Y-62846503D02*
X61803496Y-65586530D01*
X40925500Y-44000000D02*
X45825000Y-44000000D01*
%TO.N,INOUT_PC_CARD_4*%
X47144362Y-45994362D02*
X58414429Y-57264429D01*
X59200000Y-70550000D02*
X59800000Y-71150000D01*
X58414429Y-63115343D02*
X59200000Y-63900914D01*
X58414429Y-57264429D02*
X58414429Y-63115343D01*
X59200000Y-63900914D02*
X59200000Y-70550000D01*
X47130638Y-45994362D02*
X47144362Y-45994362D01*
%TO.N,FPGA_CNTRL3*%
X30475000Y-51500000D02*
X30475000Y-52184285D01*
X31700000Y-50275000D02*
X30475000Y-51500000D01*
X30475000Y-52184285D02*
X30964232Y-52673517D01*
X31700000Y-48550000D02*
X31700000Y-50275000D01*
X30964232Y-52673517D02*
X31034017Y-52673517D01*
D16*
%TO.N,TIM3_CH4*%
X28600000Y-62600000D02*
X27611264Y-61611264D01*
X27611264Y-61611264D02*
X27611264Y-61261264D01*
X33250000Y-62600000D02*
X28600000Y-62600000D01*
%TO.N,CAN2_TX*%
X41097971Y-56999011D02*
X41099985Y-56996997D01*
X27376540Y-53986540D02*
X37609558Y-53986540D01*
X24757115Y-53070356D02*
X26460356Y-53070356D01*
X26460356Y-53070356D02*
X27376540Y-53986540D01*
X41099985Y-56996997D02*
X41261933Y-56996997D01*
X40622029Y-56999011D02*
X41097971Y-56999011D01*
X37609558Y-53986540D02*
X40622029Y-56999011D01*
D15*
%TO.N,uC_AD0*%
X22890000Y-57314785D02*
X22764500Y-57189285D01*
X22890000Y-59340000D02*
X22890000Y-57314785D01*
X29860000Y-61600000D02*
X28440000Y-60180000D01*
X60775489Y-59025489D02*
X60775489Y-50024526D01*
X61375000Y-59625000D02*
X60775489Y-59025489D01*
D16*
X61900000Y-45100000D02*
X62050000Y-44950000D01*
D15*
X52393272Y-61593272D02*
X52386544Y-61600000D01*
D16*
X61900000Y-48900015D02*
X61900000Y-45100000D01*
D15*
X22764500Y-57189285D02*
X22764500Y-56588000D01*
X28440000Y-60180000D02*
X23730000Y-60180000D01*
X23730000Y-60180000D02*
X22890000Y-59340000D01*
D16*
X60775489Y-50024526D02*
X61900000Y-48900015D01*
D15*
X52386544Y-61600000D02*
X29860000Y-61600000D01*
%TO.N,uC_AD1*%
X23675000Y-56750000D02*
X23675000Y-55465000D01*
X28630000Y-59720000D02*
X30185480Y-61275480D01*
X51986986Y-61275480D02*
X52381233Y-60881233D01*
X23675000Y-56750000D02*
X23670000Y-56755000D01*
X22837500Y-53746285D02*
X22837500Y-53062500D01*
X31000400Y-43000400D02*
X30500000Y-42500000D01*
X31000400Y-48133540D02*
X31000400Y-43000400D01*
X27023940Y-52110000D02*
X31000400Y-48133540D01*
X22837500Y-53062500D02*
X23790000Y-52110000D01*
X30185480Y-61275480D02*
X51986986Y-61275480D01*
X24895000Y-59720000D02*
X28630000Y-59720000D01*
X22840000Y-53748785D02*
X22837500Y-53746285D01*
X22840000Y-54630000D02*
X22840000Y-53748785D01*
X23790000Y-52110000D02*
X27023940Y-52110000D01*
X23670000Y-58495000D02*
X24895000Y-59720000D01*
X23670000Y-56755000D02*
X23670000Y-58495000D01*
X23675000Y-55465000D02*
X22840000Y-54630000D01*
%TO.N,uC_AD2*%
X60881300Y-48293766D02*
X60406755Y-48768311D01*
X54943311Y-48768311D02*
X52531862Y-46356862D01*
X60406755Y-48768311D02*
X54943311Y-48768311D01*
X27939430Y-49750000D02*
X29500000Y-48189430D01*
X29500000Y-48189430D02*
X29500000Y-43500000D01*
X27675000Y-49750000D02*
X27939430Y-49750000D01*
%TO.N,uC_AD6*%
X25100000Y-41900000D02*
X25200011Y-42000011D01*
X25200011Y-42000011D02*
X40974011Y-42000011D01*
X24500000Y-42500000D02*
X25100000Y-41900000D01*
X55875000Y-43150000D02*
X55875000Y-46925000D01*
X55875000Y-46925000D02*
X56300000Y-47350000D01*
X40974033Y-41999989D02*
X54724989Y-41999989D01*
X40974011Y-42000011D02*
X40974033Y-41999989D01*
X54724989Y-41999989D02*
X55875000Y-43150000D01*
D16*
%TO.N,uC_A0*%
X62600000Y-44150000D02*
X62974511Y-44524511D01*
X63700000Y-52250000D02*
X64147089Y-52250000D01*
X62974511Y-44524511D02*
X62974511Y-51524511D01*
X62200000Y-44150000D02*
X62600000Y-44150000D01*
X62974511Y-51524511D02*
X63700000Y-52250000D01*
X64147089Y-52250000D02*
X64154500Y-52257411D01*
D15*
%TO.N,USER_IO_4*%
X42614595Y-20575000D02*
X19025000Y-20575000D01*
X55000000Y-23000000D02*
X53200500Y-21200500D01*
X18400000Y-28400000D02*
X21500000Y-31500000D01*
X53200500Y-21200500D02*
X43240095Y-21200500D01*
X19025000Y-20575000D02*
X18400000Y-21200000D01*
X18400000Y-21200000D02*
X18400000Y-28400000D01*
X43240095Y-21200500D02*
X42614595Y-20575000D01*
%TO.N,SERIAL_IO_2*%
X23500000Y-31500000D02*
X23500000Y-27540380D01*
X24862500Y-26177880D02*
X24862500Y-25137500D01*
X23500000Y-27540380D02*
X24862500Y-26177880D01*
X24862500Y-25137500D02*
X25000000Y-25000000D01*
%TO.N,USER_IO_23*%
X30700000Y-31500000D02*
X33000000Y-29200000D01*
X29500000Y-31500000D02*
X30700000Y-31500000D01*
X33000000Y-29200000D02*
X33000000Y-25000000D01*
%TO.N,USER_IO_8*%
X18050000Y-21007720D02*
X18050000Y-32125000D01*
X43187226Y-20688011D02*
X42749215Y-20250000D01*
X46488000Y-20200000D02*
X45999989Y-20688011D01*
X45999989Y-20688011D02*
X43187226Y-20688011D01*
X18050000Y-32125000D02*
X18425000Y-32500000D01*
X18425000Y-32500000D02*
X21500000Y-32500000D01*
X18807720Y-20250000D02*
X18050000Y-21007720D01*
X42749215Y-20250000D02*
X18807720Y-20250000D01*
%TO.N,FPGA_TEST_EDGE3*%
X25637000Y-26063000D02*
X24000400Y-27699600D01*
X25900000Y-26063000D02*
X25637000Y-26063000D01*
X24000400Y-32000400D02*
X24500000Y-32500000D01*
X24000400Y-27699600D02*
X24000400Y-32000400D01*
%TO.N,USER_IO_24*%
X34000000Y-24000000D02*
X34000000Y-30000000D01*
X34000000Y-30000000D02*
X31500000Y-32500000D01*
X33000000Y-23000000D02*
X34000000Y-24000000D01*
%TO.N,SDRAM_A2*%
X39582961Y-30462961D02*
X37545522Y-32500400D01*
X37545522Y-32500400D02*
X33500400Y-32500400D01*
X33500400Y-32500400D02*
X33500000Y-32500000D01*
%TO.N,USER_IO_7*%
X17400961Y-32393841D02*
X18507120Y-33500000D01*
X18507120Y-33500000D02*
X21500000Y-33500000D01*
X17400961Y-20737519D02*
X17400961Y-32393841D01*
X18538480Y-19600000D02*
X17400961Y-20737519D01*
X50225000Y-20300000D02*
X49525000Y-19600000D01*
X21500000Y-33500000D02*
X21490400Y-33490400D01*
X49525000Y-19600000D02*
X18538480Y-19600000D01*
%TO.N,USER_IO_12*%
X43149000Y-19925000D02*
X18673100Y-19925000D01*
X43400000Y-20176000D02*
X43149000Y-19925000D01*
X17725480Y-20872620D02*
X17725480Y-32259420D01*
X22000000Y-33000000D02*
X22500000Y-33500000D01*
X18673100Y-19925000D02*
X17725480Y-20872620D01*
X17725480Y-32259420D02*
X18466060Y-33000000D01*
X18466060Y-33000000D02*
X22000000Y-33000000D01*
%TO.N,SDRAM_A5*%
X32999600Y-33000400D02*
X32500000Y-33500000D01*
X61038904Y-27761096D02*
X60670000Y-28130000D01*
X60670000Y-28130000D02*
X42650000Y-28130000D01*
X61038904Y-27492075D02*
X61038904Y-27761096D01*
X37779600Y-33000400D02*
X32999600Y-33000400D01*
X42650000Y-28130000D02*
X37779600Y-33000400D01*
%TO.N,SDRAM_A6*%
X38630000Y-32880000D02*
X38010000Y-33500000D01*
X43460875Y-32882000D02*
X43458875Y-32880000D01*
X43458875Y-32880000D02*
X38630000Y-32880000D01*
X38010000Y-33500000D02*
X33500000Y-33500000D01*
%TO.N,USER_IO_14*%
X21500000Y-34500000D02*
X18589240Y-34500000D01*
X16751922Y-20467318D02*
X18619240Y-18600000D01*
X16751922Y-32662682D02*
X16751922Y-20467318D01*
X18589240Y-34500000D02*
X16751922Y-32662682D01*
X43100000Y-18600000D02*
X43500000Y-18200000D01*
X18619240Y-18600000D02*
X43100000Y-18600000D01*
%TO.N,USER_IO_11*%
X17076442Y-20602418D02*
X17076442Y-32528262D01*
X18548580Y-34000400D02*
X21990400Y-34000400D01*
X46388000Y-19100000D02*
X18578860Y-19100000D01*
X18578860Y-19100000D02*
X17076442Y-20602418D01*
X46400000Y-19088000D02*
X46388000Y-19100000D01*
X17076442Y-32528262D02*
X18548580Y-34000400D01*
X21990400Y-34000400D02*
X22490000Y-34500000D01*
%TO.N,SDRAM_A10*%
X42890000Y-33460000D02*
X42373600Y-33976400D01*
X42373600Y-33976400D02*
X40067906Y-33976400D01*
X33000000Y-34000000D02*
X32500000Y-34500000D01*
X42950000Y-33460000D02*
X42890000Y-33460000D01*
X40044306Y-34000000D02*
X33000000Y-34000000D01*
X40067906Y-33976400D02*
X40044306Y-34000000D01*
%TO.N,SDRAM_A11*%
X40268400Y-34500000D02*
X33500000Y-34500000D01*
X40280000Y-34488400D02*
X40268400Y-34500000D01*
%TO.N,USER_IO_17*%
X18800000Y-17500000D02*
X16102882Y-20197118D01*
X16102882Y-32952882D02*
X18650000Y-35500000D01*
X18650000Y-35500000D02*
X21500000Y-35500000D01*
X16102882Y-20197118D02*
X16102882Y-32952882D01*
X38300000Y-18000000D02*
X37800000Y-17500000D01*
X38300000Y-18088000D02*
X38300000Y-18000000D01*
X37800000Y-17500000D02*
X18800000Y-17500000D01*
%TO.N,USER_IO_18*%
X37100000Y-18088000D02*
X18671620Y-18088000D01*
X21987011Y-34987011D02*
X22500000Y-35500000D01*
X18612011Y-34987011D02*
X21987011Y-34987011D01*
X16427402Y-32802402D02*
X18612011Y-34987011D01*
X16427402Y-20332218D02*
X16427402Y-32802402D01*
X18671620Y-18088000D02*
X16427402Y-20332218D01*
%TO.N,SDRAM_DQ1*%
X44475480Y-30175480D02*
X44475480Y-33524520D01*
X32999600Y-35000400D02*
X32500000Y-35500000D01*
X42999600Y-35000400D02*
X32999600Y-35000400D01*
X44000000Y-29700000D02*
X44475480Y-30175480D01*
X44475480Y-33524520D02*
X42999600Y-35000400D01*
%TO.N,SDRAM_DQ2*%
X44800000Y-29700000D02*
X44800000Y-33780000D01*
X43080000Y-35500000D02*
X33500000Y-35500000D01*
X44800000Y-33780000D02*
X43080000Y-35500000D01*
%TO.N,USER_IO_19*%
X18632989Y-36482989D02*
X15453843Y-33303843D01*
X21500000Y-36500000D02*
X21482989Y-36482989D01*
X21482989Y-36482989D02*
X18632989Y-36482989D01*
X15453843Y-33303843D02*
X15453843Y-19246157D01*
X15453843Y-19246157D02*
X16288000Y-18412000D01*
X16288000Y-18412000D02*
X17112000Y-18412000D01*
%TO.N,USER_IO_20*%
X15778363Y-19758637D02*
X15778363Y-33103363D01*
X18675000Y-36000000D02*
X22000000Y-36000000D01*
X22000000Y-36000000D02*
X22500000Y-36500000D01*
X15778363Y-33103363D02*
X18675000Y-36000000D01*
X16237000Y-19300000D02*
X15778363Y-19758637D01*
%TO.N,SDRAM_DQ4*%
X47200000Y-31971060D02*
X43170660Y-36000400D01*
X47200000Y-29750000D02*
X47200000Y-31971060D01*
X32999600Y-36000400D02*
X32500000Y-36500000D01*
X43170660Y-36000400D02*
X32999600Y-36000400D01*
%TO.N,SDRAM_DQ5*%
X43130000Y-36500000D02*
X33500000Y-36500000D01*
X48800000Y-29700000D02*
X48800000Y-30830000D01*
X48800000Y-30830000D02*
X43130000Y-36500000D01*
%TO.N,SDRAM_CNTRL1*%
X33500000Y-39500000D02*
X33504600Y-39495400D01*
X33504600Y-39495400D02*
X36320400Y-39495400D01*
%TO.N,SDRAM_CNTRL7*%
X32500000Y-40500000D02*
X33000400Y-41000400D01*
%TO.N,SDRAM_DQ15*%
X39000000Y-41488000D02*
X33512000Y-41488000D01*
X39000000Y-41488000D02*
X38992600Y-41495400D01*
X33512000Y-41488000D02*
X33500000Y-41500000D01*
%TO.N,SDRAM_CNTRL10*%
X42375000Y-41475000D02*
X46000000Y-37850000D01*
X46000000Y-37850000D02*
X46000000Y-37338000D01*
%TO.N,SDRAM_CNTRL4*%
X41750480Y-36824520D02*
X38075000Y-40500000D01*
X33500000Y-40500000D02*
X33504600Y-40495400D01*
X51524520Y-36824520D02*
X41750480Y-36824520D01*
X38075000Y-40500000D02*
X33500000Y-40500000D01*
X53600000Y-38900000D02*
X51524520Y-36824520D01*
D16*
%TO.N,CAN2_RX*%
X24934293Y-54060000D02*
X26814283Y-54060000D01*
X26814283Y-54060000D02*
X27274283Y-54520000D01*
X23924500Y-53049500D02*
X23924500Y-53050207D01*
X23924500Y-53050207D02*
X24934293Y-54060000D01*
X36018180Y-54520000D02*
X41330000Y-59831820D01*
X27274283Y-54520000D02*
X36018180Y-54520000D01*
%TO.N,USART3_TX*%
X29950000Y-49931460D02*
X30087980Y-50069440D01*
X30087980Y-52667980D02*
X30957020Y-53537020D01*
X37972520Y-53537020D02*
X40860000Y-56424500D01*
X30957020Y-53537020D02*
X37972520Y-53537020D01*
X30087980Y-50069440D02*
X30087980Y-52667980D01*
%TD*%
%TA.AperFunction,Conductor*%
%TO.N,+3V3*%
G36*
X22754616Y-60015126D02*
G01*
X22772380Y-60029896D01*
X23293933Y-60551449D01*
X23304800Y-60563839D01*
X23322759Y-60587243D01*
X23349426Y-60607705D01*
X23349432Y-60607710D01*
X23349433Y-60607710D01*
X23352704Y-60610220D01*
X23352705Y-60610221D01*
X23442036Y-60678767D01*
X23453460Y-60683499D01*
X23453462Y-60683500D01*
X23506265Y-60705371D01*
X23580939Y-60736303D01*
X23692575Y-60751000D01*
X23692577Y-60751000D01*
X23730000Y-60755927D01*
X23759237Y-60752078D01*
X23775683Y-60751000D01*
X24366867Y-60751000D01*
X24434988Y-60771002D01*
X24481481Y-60824658D01*
X24491585Y-60894932D01*
X24485796Y-60918613D01*
X24483975Y-60923820D01*
X24468798Y-60967190D01*
X24449662Y-61137039D01*
X24468798Y-61306887D01*
X24525251Y-61468221D01*
X24532883Y-61480367D01*
X24593129Y-61576247D01*
X24612435Y-61644567D01*
X24593133Y-61710314D01*
X24587791Y-61718816D01*
X24531337Y-61880151D01*
X24512201Y-62050000D01*
X24531337Y-62219848D01*
X24587790Y-62381182D01*
X24678731Y-62525912D01*
X24799587Y-62646768D01*
X24799589Y-62646769D01*
X24799591Y-62646771D01*
X24944317Y-62737709D01*
X25105650Y-62794162D01*
X25105649Y-62794162D01*
X25122848Y-62796099D01*
X25275500Y-62813299D01*
X25445350Y-62794162D01*
X25606683Y-62737709D01*
X25751409Y-62646771D01*
X25872271Y-62525909D01*
X25963209Y-62381183D01*
X26019662Y-62219850D01*
X26038799Y-62050000D01*
X26019662Y-61880150D01*
X25975815Y-61754845D01*
X25972196Y-61683945D01*
X26007485Y-61622339D01*
X26070478Y-61589592D01*
X26136359Y-61594303D01*
X26203939Y-61617951D01*
X26203938Y-61617951D01*
X26221137Y-61619888D01*
X26373789Y-61637088D01*
X26543639Y-61617951D01*
X26704972Y-61561498D01*
X26741952Y-61538261D01*
X26810272Y-61518955D01*
X26878186Y-61539649D01*
X26919384Y-61586710D01*
X26919790Y-61586456D01*
X26921387Y-61588997D01*
X26922514Y-61590285D01*
X26923557Y-61592451D01*
X26961488Y-61652818D01*
X26977021Y-61703685D01*
X26979349Y-61703317D01*
X26980589Y-61711147D01*
X26986242Y-61730604D01*
X26990250Y-61749961D01*
X26992788Y-61770056D01*
X26992790Y-61770064D01*
X27009064Y-61811167D01*
X27012908Y-61822393D01*
X27025246Y-61864857D01*
X27035558Y-61882295D01*
X27044252Y-61900043D01*
X27051708Y-61918873D01*
X27051714Y-61918884D01*
X27077696Y-61954645D01*
X27084213Y-61964565D01*
X27106722Y-62002626D01*
X27106723Y-62002627D01*
X27106725Y-62002630D01*
X27121043Y-62016948D01*
X27133881Y-62031978D01*
X27145790Y-62048368D01*
X27145794Y-62048373D01*
X27179862Y-62076556D01*
X27188642Y-62084546D01*
X28092752Y-62988656D01*
X28102722Y-63001100D01*
X28102950Y-63000913D01*
X28108001Y-63007019D01*
X28157649Y-63053641D01*
X28160494Y-63056399D01*
X28180223Y-63076129D01*
X28180224Y-63076130D01*
X28180228Y-63076133D01*
X28180230Y-63076135D01*
X28183435Y-63078621D01*
X28192442Y-63086314D01*
X28224679Y-63116586D01*
X28242428Y-63126343D01*
X28258953Y-63137198D01*
X28274959Y-63149614D01*
X28315542Y-63167175D01*
X28326193Y-63172393D01*
X28364940Y-63193695D01*
X28364948Y-63193697D01*
X28384558Y-63198732D01*
X28403267Y-63205137D01*
X28421855Y-63213181D01*
X28465530Y-63220098D01*
X28477141Y-63222502D01*
X28519970Y-63233500D01*
X28540224Y-63233500D01*
X28559934Y-63235051D01*
X28562141Y-63235400D01*
X28579943Y-63238220D01*
X28623961Y-63234058D01*
X28635819Y-63233500D01*
X30662883Y-63233500D01*
X30731004Y-63253502D01*
X30777497Y-63307158D01*
X30781812Y-63317885D01*
X30834958Y-63469767D01*
X30834959Y-63469769D01*
X30922897Y-63609723D01*
X31039776Y-63726602D01*
X31135424Y-63786701D01*
X31179733Y-63814542D01*
X31335748Y-63869134D01*
X31500000Y-63887641D01*
X31664252Y-63869134D01*
X31820267Y-63814542D01*
X31960223Y-63726602D01*
X32077102Y-63609723D01*
X32165042Y-63469767D01*
X32218188Y-63317885D01*
X32259566Y-63260193D01*
X32325567Y-63234031D01*
X32337117Y-63233500D01*
X32796244Y-63233500D01*
X32863279Y-63252812D01*
X32918817Y-63287709D01*
X33080150Y-63344162D01*
X33080149Y-63344162D01*
X33127604Y-63349508D01*
X33165382Y-63353765D01*
X33230835Y-63381268D01*
X33271028Y-63439792D01*
X33273201Y-63510755D01*
X33236663Y-63571628D01*
X33201859Y-63592521D01*
X33202438Y-63593723D01*
X33196068Y-63596790D01*
X33051337Y-63687731D01*
X32930481Y-63808587D01*
X32839540Y-63953317D01*
X32783087Y-64114651D01*
X32763951Y-64284500D01*
X32783087Y-64454348D01*
X32839540Y-64615682D01*
X32930481Y-64760412D01*
X33051337Y-64881268D01*
X33051339Y-64881269D01*
X33051341Y-64881271D01*
X33196067Y-64972209D01*
X33357400Y-65028662D01*
X33357399Y-65028662D01*
X33371299Y-65030228D01*
X33527250Y-65047799D01*
X33697100Y-65028662D01*
X33826040Y-64983544D01*
X33896944Y-64979924D01*
X33958549Y-65015214D01*
X33974341Y-65035436D01*
X34003227Y-65081406D01*
X34003232Y-65081413D01*
X34124087Y-65202268D01*
X34124089Y-65202269D01*
X34124091Y-65202271D01*
X34268817Y-65293209D01*
X34430150Y-65349662D01*
X34430149Y-65349662D01*
X34447348Y-65351599D01*
X34600000Y-65368799D01*
X34769850Y-65349662D01*
X34931183Y-65293209D01*
X35075909Y-65202271D01*
X35196771Y-65081409D01*
X35287709Y-64936683D01*
X35344162Y-64775350D01*
X35363299Y-64605500D01*
X35344162Y-64435650D01*
X35287709Y-64274317D01*
X35280598Y-64263000D01*
X38186859Y-64263000D01*
X38205366Y-64427252D01*
X38216409Y-64458811D01*
X38259958Y-64583267D01*
X38259959Y-64583269D01*
X38347897Y-64723223D01*
X38464776Y-64840102D01*
X38583081Y-64914437D01*
X38604733Y-64928042D01*
X38760748Y-64982634D01*
X38925000Y-65001141D01*
X39089252Y-64982634D01*
X39245267Y-64928042D01*
X39385223Y-64840102D01*
X39502102Y-64723223D01*
X39590042Y-64583267D01*
X39644634Y-64427252D01*
X39663141Y-64263000D01*
X39644634Y-64098748D01*
X39590042Y-63942733D01*
X39567248Y-63906456D01*
X39502102Y-63802776D01*
X39385223Y-63685897D01*
X39245269Y-63597959D01*
X39245267Y-63597958D01*
X39115115Y-63552416D01*
X39089252Y-63543366D01*
X38925000Y-63524859D01*
X38760748Y-63543366D01*
X38760745Y-63543366D01*
X38760745Y-63543367D01*
X38604732Y-63597958D01*
X38604730Y-63597959D01*
X38464776Y-63685897D01*
X38347897Y-63802776D01*
X38259959Y-63942730D01*
X38259958Y-63942732D01*
X38251992Y-63965499D01*
X38205366Y-64098748D01*
X38186859Y-64263000D01*
X35280598Y-64263000D01*
X35196771Y-64129591D01*
X35196769Y-64129589D01*
X35196768Y-64129587D01*
X35075912Y-64008731D01*
X34931182Y-63917790D01*
X34793501Y-63869614D01*
X34769850Y-63861338D01*
X34769848Y-63861337D01*
X34769850Y-63861337D01*
X34600000Y-63842201D01*
X34430151Y-63861337D01*
X34301209Y-63906456D01*
X34230304Y-63910075D01*
X34168699Y-63874786D01*
X34152907Y-63854563D01*
X34124021Y-63808591D01*
X34124020Y-63808590D01*
X34124017Y-63808586D01*
X34003162Y-63687731D01*
X33998193Y-63684609D01*
X33865533Y-63601252D01*
X33858432Y-63596790D01*
X33758520Y-63561830D01*
X33697100Y-63540338D01*
X33697098Y-63540337D01*
X33697100Y-63540337D01*
X33611866Y-63530734D01*
X33546413Y-63503230D01*
X33506220Y-63444706D01*
X33504048Y-63373743D01*
X33540587Y-63312870D01*
X33575392Y-63291983D01*
X33574812Y-63290777D01*
X33581175Y-63287711D01*
X33581183Y-63287709D01*
X33725909Y-63196771D01*
X33846771Y-63075909D01*
X33937709Y-62931183D01*
X33994162Y-62769850D01*
X34013299Y-62600000D01*
X33994162Y-62430150D01*
X33962131Y-62338613D01*
X33958512Y-62267711D01*
X33993801Y-62206106D01*
X34056794Y-62173359D01*
X34081061Y-62171000D01*
X51427932Y-62171000D01*
X51496053Y-62191002D01*
X51542546Y-62244658D01*
X51552650Y-62314932D01*
X51523156Y-62379512D01*
X51517041Y-62386080D01*
X50060920Y-63842201D01*
X49576759Y-64326362D01*
X49514447Y-64360387D01*
X49501774Y-64362474D01*
X49469601Y-64366099D01*
X49403886Y-64373504D01*
X49403883Y-64373504D01*
X49403882Y-64373505D01*
X49247870Y-64428096D01*
X49247868Y-64428097D01*
X49107914Y-64516035D01*
X48991035Y-64632914D01*
X48903097Y-64772868D01*
X48903096Y-64772870D01*
X48882653Y-64831294D01*
X48848504Y-64928886D01*
X48829997Y-65093138D01*
X48848504Y-65257390D01*
X48903096Y-65413405D01*
X48918217Y-65437470D01*
X48936839Y-65467108D01*
X48956143Y-65535430D01*
X48935446Y-65603342D01*
X48919245Y-65623237D01*
X46306344Y-68236138D01*
X46244032Y-68270164D01*
X46231358Y-68272251D01*
X46205536Y-68275160D01*
X46155150Y-68280838D01*
X46155147Y-68280838D01*
X46155146Y-68280839D01*
X45993817Y-68337290D01*
X45849087Y-68428231D01*
X45728231Y-68549087D01*
X45637290Y-68693817D01*
X45580837Y-68855151D01*
X45561701Y-69025000D01*
X45580837Y-69194848D01*
X45637290Y-69356182D01*
X45728231Y-69500912D01*
X45816224Y-69588905D01*
X45850250Y-69651217D01*
X45845185Y-69722032D01*
X45802638Y-69778868D01*
X45736118Y-69803679D01*
X45727129Y-69804000D01*
X43345682Y-69804000D01*
X43329235Y-69802922D01*
X43300000Y-69799073D01*
X43262577Y-69804000D01*
X43262575Y-69804000D01*
X43249588Y-69805709D01*
X43150939Y-69818696D01*
X43150938Y-69818697D01*
X43090335Y-69843800D01*
X43012035Y-69876232D01*
X42922706Y-69944778D01*
X42922705Y-69944779D01*
X42892759Y-69967756D01*
X42874800Y-69991160D01*
X42863935Y-70003547D01*
X42428546Y-70438936D01*
X42416160Y-70449800D01*
X42392758Y-70467758D01*
X42357114Y-70514209D01*
X42357113Y-70514210D01*
X42341399Y-70534688D01*
X42328598Y-70547735D01*
X42329091Y-70548228D01*
X42203232Y-70674086D01*
X42203231Y-70674087D01*
X42108526Y-70824809D01*
X42106788Y-70823717D01*
X42065947Y-70868955D01*
X41997433Y-70887565D01*
X41929734Y-70866179D01*
X41893036Y-70823828D01*
X41891475Y-70824810D01*
X41884649Y-70813947D01*
X41865342Y-70745627D01*
X41884648Y-70679874D01*
X41961795Y-70557097D01*
X42018248Y-70395764D01*
X42037385Y-70225914D01*
X42018248Y-70056064D01*
X41961795Y-69894731D01*
X41870857Y-69750005D01*
X41870855Y-69750003D01*
X41870854Y-69750001D01*
X41749998Y-69629145D01*
X41738262Y-69621771D01*
X41693887Y-69593888D01*
X41605268Y-69538204D01*
X41498683Y-69500909D01*
X41443936Y-69481752D01*
X41443934Y-69481751D01*
X41443936Y-69481751D01*
X41274086Y-69462615D01*
X41104237Y-69481751D01*
X40942903Y-69538204D01*
X40798173Y-69629145D01*
X40677317Y-69750001D01*
X40586376Y-69894731D01*
X40529923Y-70056065D01*
X40510787Y-70225913D01*
X40513180Y-70247151D01*
X40500930Y-70317083D01*
X40452818Y-70369291D01*
X40402079Y-70386466D01*
X40230151Y-70405837D01*
X40068817Y-70462290D01*
X40068811Y-70462293D01*
X40067025Y-70463416D01*
X40065708Y-70463787D01*
X40062442Y-70465361D01*
X40062166Y-70464788D01*
X39998702Y-70482715D01*
X39937810Y-70464835D01*
X39937558Y-70465361D01*
X39934369Y-70463825D01*
X39932975Y-70463416D01*
X39931188Y-70462293D01*
X39931182Y-70462290D01*
X39769845Y-70405836D01*
X39763930Y-70404486D01*
X39701970Y-70369824D01*
X39668585Y-70307166D01*
X39674376Y-70236406D01*
X39685283Y-70214617D01*
X39737709Y-70131183D01*
X39794162Y-69969850D01*
X39813299Y-69800000D01*
X39794162Y-69630150D01*
X39737709Y-69468817D01*
X39646771Y-69324091D01*
X39646769Y-69324089D01*
X39646768Y-69324087D01*
X39525912Y-69203231D01*
X39381182Y-69112290D01*
X39281270Y-69077330D01*
X39219850Y-69055838D01*
X39219848Y-69055837D01*
X39219850Y-69055837D01*
X39182891Y-69051673D01*
X39117438Y-69024168D01*
X39077246Y-68965644D01*
X39071000Y-68926465D01*
X39071000Y-67720681D01*
X39072078Y-67704234D01*
X39075927Y-67674999D01*
X39068495Y-67618548D01*
X39056303Y-67525940D01*
X39040646Y-67488141D01*
X39000337Y-67390829D01*
X38999049Y-67387405D01*
X38998767Y-67387037D01*
X38998767Y-67387036D01*
X38930221Y-67297705D01*
X38930220Y-67297704D01*
X38927710Y-67294432D01*
X38927705Y-67294426D01*
X38907242Y-67267758D01*
X38883844Y-67249804D01*
X38871452Y-67238936D01*
X38382516Y-66750000D01*
X41561859Y-66750000D01*
X41580366Y-66914252D01*
X41580367Y-66914254D01*
X41634958Y-67070267D01*
X41634959Y-67070269D01*
X41722897Y-67210223D01*
X41839776Y-67327102D01*
X41941220Y-67390843D01*
X41979733Y-67415042D01*
X42135748Y-67469634D01*
X42300000Y-67488141D01*
X42464252Y-67469634D01*
X42620267Y-67415042D01*
X42632962Y-67407064D01*
X42701283Y-67387758D01*
X42767037Y-67407064D01*
X42779733Y-67415042D01*
X42935748Y-67469634D01*
X43100000Y-67488141D01*
X43264252Y-67469634D01*
X43420267Y-67415042D01*
X43432962Y-67407064D01*
X43501283Y-67387758D01*
X43567037Y-67407064D01*
X43579733Y-67415042D01*
X43735748Y-67469634D01*
X43900000Y-67488141D01*
X44064252Y-67469634D01*
X44220267Y-67415042D01*
X44232962Y-67407064D01*
X44301283Y-67387758D01*
X44367037Y-67407064D01*
X44379733Y-67415042D01*
X44535748Y-67469634D01*
X44700000Y-67488141D01*
X44864252Y-67469634D01*
X45020267Y-67415042D01*
X45037336Y-67404316D01*
X45105655Y-67385009D01*
X45171409Y-67404313D01*
X45179733Y-67409544D01*
X45335748Y-67464136D01*
X45500000Y-67482643D01*
X45664252Y-67464136D01*
X45820267Y-67409544D01*
X45960223Y-67321604D01*
X46077102Y-67204725D01*
X46165042Y-67064769D01*
X46219634Y-66908754D01*
X46238141Y-66744502D01*
X46219634Y-66580250D01*
X46165042Y-66424235D01*
X46080557Y-66289777D01*
X46077102Y-66284278D01*
X45960223Y-66167399D01*
X45820269Y-66079461D01*
X45820267Y-66079460D01*
X45820264Y-66079459D01*
X45664252Y-66024868D01*
X45500000Y-66006361D01*
X45335748Y-66024868D01*
X45335745Y-66024868D01*
X45335745Y-66024869D01*
X45179733Y-66079459D01*
X45179727Y-66079462D01*
X45162657Y-66090188D01*
X45094336Y-66109492D01*
X45028591Y-66090188D01*
X45020266Y-66084957D01*
X44913535Y-66047611D01*
X44864252Y-66030366D01*
X44700000Y-66011859D01*
X44535748Y-66030366D01*
X44535745Y-66030366D01*
X44535745Y-66030367D01*
X44379733Y-66084957D01*
X44367032Y-66092938D01*
X44298710Y-66112241D01*
X44232968Y-66092938D01*
X44224707Y-66087747D01*
X44220267Y-66084958D01*
X44220266Y-66084957D01*
X44113535Y-66047611D01*
X44064252Y-66030366D01*
X43900000Y-66011859D01*
X43735748Y-66030366D01*
X43735745Y-66030366D01*
X43735745Y-66030367D01*
X43579733Y-66084957D01*
X43567032Y-66092938D01*
X43498710Y-66112241D01*
X43432968Y-66092938D01*
X43424707Y-66087747D01*
X43420267Y-66084958D01*
X43420266Y-66084957D01*
X43313535Y-66047611D01*
X43264252Y-66030366D01*
X43100000Y-66011859D01*
X42935748Y-66030366D01*
X42935745Y-66030366D01*
X42935745Y-66030367D01*
X42779733Y-66084957D01*
X42767032Y-66092938D01*
X42698710Y-66112241D01*
X42632968Y-66092938D01*
X42624707Y-66087747D01*
X42620267Y-66084958D01*
X42620266Y-66084957D01*
X42513535Y-66047611D01*
X42464252Y-66030366D01*
X42300000Y-66011859D01*
X42135748Y-66030366D01*
X42135745Y-66030366D01*
X42135745Y-66030367D01*
X41979732Y-66084958D01*
X41979730Y-66084959D01*
X41839776Y-66172897D01*
X41722897Y-66289776D01*
X41634959Y-66429730D01*
X41634958Y-66429732D01*
X41591100Y-66555072D01*
X41580366Y-66585748D01*
X41561859Y-66750000D01*
X38382516Y-66750000D01*
X37357333Y-65724817D01*
X37323307Y-65662505D01*
X37321222Y-65649842D01*
X37319634Y-65635748D01*
X37265042Y-65479733D01*
X37238487Y-65437471D01*
X37177102Y-65339776D01*
X37060223Y-65222897D01*
X36920269Y-65134959D01*
X36920267Y-65134958D01*
X36800752Y-65093138D01*
X36764252Y-65080366D01*
X36600000Y-65061859D01*
X36435748Y-65080366D01*
X36435745Y-65080366D01*
X36435745Y-65080367D01*
X36279734Y-65134957D01*
X36136649Y-65224863D01*
X36068327Y-65244168D01*
X36055506Y-65243383D01*
X35925000Y-65228679D01*
X35760748Y-65247186D01*
X35760745Y-65247186D01*
X35760745Y-65247187D01*
X35604732Y-65301778D01*
X35604730Y-65301779D01*
X35464776Y-65389717D01*
X35347897Y-65506596D01*
X35259959Y-65646550D01*
X35259958Y-65646552D01*
X35232572Y-65724817D01*
X35205366Y-65802568D01*
X35186859Y-65966820D01*
X35205366Y-66131072D01*
X35235254Y-66216487D01*
X35259958Y-66287087D01*
X35259959Y-66287089D01*
X35347897Y-66427043D01*
X35464776Y-66543922D01*
X35569940Y-66610000D01*
X35604733Y-66631862D01*
X35760748Y-66686454D01*
X35925000Y-66704961D01*
X36089252Y-66686454D01*
X36245267Y-66631862D01*
X36385223Y-66543922D01*
X36385226Y-66543918D01*
X36388348Y-66541957D01*
X36456669Y-66522651D01*
X36469491Y-66523436D01*
X36474496Y-66523999D01*
X36506178Y-66527569D01*
X36571630Y-66555072D01*
X36581166Y-66563682D01*
X37892095Y-67874611D01*
X37926121Y-67936923D01*
X37929000Y-67963706D01*
X37929000Y-70282794D01*
X37908998Y-70350915D01*
X37855342Y-70397408D01*
X37831051Y-70405632D01*
X37830152Y-70405837D01*
X37668817Y-70462290D01*
X37668811Y-70462293D01*
X37667025Y-70463416D01*
X37665708Y-70463787D01*
X37662442Y-70465361D01*
X37662166Y-70464788D01*
X37598702Y-70482715D01*
X37537810Y-70464835D01*
X37537558Y-70465361D01*
X37534369Y-70463825D01*
X37532975Y-70463416D01*
X37531188Y-70462293D01*
X37531182Y-70462290D01*
X37426335Y-70425603D01*
X37369850Y-70405838D01*
X37369848Y-70405837D01*
X37369850Y-70405837D01*
X37200000Y-70386701D01*
X37030151Y-70405837D01*
X36868817Y-70462290D01*
X36724087Y-70553231D01*
X36603232Y-70674086D01*
X36598819Y-70679621D01*
X36596406Y-70677696D01*
X36553447Y-70715654D01*
X36483274Y-70726436D01*
X36418411Y-70697568D01*
X36402173Y-70678829D01*
X36401181Y-70679621D01*
X36396767Y-70674086D01*
X36275912Y-70553231D01*
X36131182Y-70462290D01*
X35969852Y-70405838D01*
X35969846Y-70405837D01*
X35949985Y-70403599D01*
X35884533Y-70376093D01*
X35875002Y-70367487D01*
X34786929Y-69279414D01*
X33687022Y-68179506D01*
X33676153Y-68167113D01*
X33658201Y-68143717D01*
X33623794Y-68117316D01*
X33623793Y-68117315D01*
X33538924Y-68052192D01*
X33538923Y-68052191D01*
X33538921Y-68052190D01*
X33457556Y-68018489D01*
X33400021Y-67994657D01*
X33288385Y-67979960D01*
X33288383Y-67979960D01*
X33250960Y-67975033D01*
X33221723Y-67978882D01*
X33205277Y-67979960D01*
X26839666Y-67979960D01*
X26771545Y-67959958D01*
X26750571Y-67943055D01*
X24774836Y-65967320D01*
X26211195Y-65967320D01*
X26229702Y-66131572D01*
X26259415Y-66216487D01*
X26284294Y-66287587D01*
X26284295Y-66287589D01*
X26372233Y-66427543D01*
X26489112Y-66544422D01*
X26546128Y-66580247D01*
X26629069Y-66632362D01*
X26785084Y-66686954D01*
X26949336Y-66705461D01*
X27113588Y-66686954D01*
X27269603Y-66632362D01*
X27409559Y-66544422D01*
X27526438Y-66427543D01*
X27614378Y-66287587D01*
X27668970Y-66131572D01*
X27687477Y-65967320D01*
X30411859Y-65967320D01*
X30430366Y-66131572D01*
X30460079Y-66216487D01*
X30484958Y-66287587D01*
X30484959Y-66287589D01*
X30572897Y-66427543D01*
X30689776Y-66544422D01*
X30746792Y-66580247D01*
X30829733Y-66632362D01*
X30985748Y-66686954D01*
X31150000Y-66705461D01*
X31314252Y-66686954D01*
X31470267Y-66632362D01*
X31610223Y-66544422D01*
X31727102Y-66427543D01*
X31815042Y-66287587D01*
X31869634Y-66131572D01*
X31888141Y-65967320D01*
X31869634Y-65803068D01*
X31815042Y-65647053D01*
X31777014Y-65586531D01*
X31727102Y-65507096D01*
X31610223Y-65390217D01*
X31470269Y-65302279D01*
X31470267Y-65302278D01*
X31444349Y-65293209D01*
X31314252Y-65247686D01*
X31150000Y-65229179D01*
X30985748Y-65247686D01*
X30985745Y-65247686D01*
X30985745Y-65247687D01*
X30829732Y-65302278D01*
X30829730Y-65302279D01*
X30689776Y-65390217D01*
X30572897Y-65507096D01*
X30484959Y-65647050D01*
X30484958Y-65647052D01*
X30457747Y-65724817D01*
X30430366Y-65803068D01*
X30411859Y-65967320D01*
X27687477Y-65967320D01*
X27668970Y-65803068D01*
X27614378Y-65647053D01*
X27576350Y-65586531D01*
X27526438Y-65507096D01*
X27409559Y-65390217D01*
X27269605Y-65302279D01*
X27269603Y-65302278D01*
X27243685Y-65293209D01*
X27113588Y-65247686D01*
X26949336Y-65229179D01*
X26785084Y-65247686D01*
X26785081Y-65247686D01*
X26785081Y-65247687D01*
X26629068Y-65302278D01*
X26629066Y-65302279D01*
X26489112Y-65390217D01*
X26372233Y-65507096D01*
X26284295Y-65647050D01*
X26284294Y-65647052D01*
X26257083Y-65724817D01*
X26229702Y-65803068D01*
X26211195Y-65967320D01*
X24774836Y-65967320D01*
X23727905Y-64920389D01*
X23693879Y-64858077D01*
X23691000Y-64831294D01*
X23691000Y-64550000D01*
X24086701Y-64550000D01*
X24105837Y-64719848D01*
X24162290Y-64881182D01*
X24226036Y-64982632D01*
X24247569Y-65016902D01*
X24253231Y-65025912D01*
X24374087Y-65146768D01*
X24374089Y-65146769D01*
X24374091Y-65146771D01*
X24518817Y-65237709D01*
X24680150Y-65294162D01*
X24680149Y-65294162D01*
X24697348Y-65296099D01*
X24850000Y-65313299D01*
X25019850Y-65294162D01*
X25181183Y-65237709D01*
X25325909Y-65146771D01*
X25446771Y-65025909D01*
X25537709Y-64881183D01*
X25594162Y-64719850D01*
X25613299Y-64550000D01*
X25594162Y-64380150D01*
X25562254Y-64288961D01*
X27086701Y-64288961D01*
X27105837Y-64458809D01*
X27162290Y-64620143D01*
X27253231Y-64764873D01*
X27374087Y-64885729D01*
X27374089Y-64885730D01*
X27374091Y-64885732D01*
X27518817Y-64976670D01*
X27680150Y-65033123D01*
X27680149Y-65033123D01*
X27697348Y-65035060D01*
X27850000Y-65052260D01*
X28019850Y-65033123D01*
X28181183Y-64976670D01*
X28325909Y-64885732D01*
X28446771Y-64764870D01*
X28537709Y-64620144D01*
X28594162Y-64458811D01*
X28613299Y-64288961D01*
X28594162Y-64119111D01*
X28537709Y-63957778D01*
X28446771Y-63813052D01*
X28446769Y-63813050D01*
X28446768Y-63813048D01*
X28325912Y-63692192D01*
X28318812Y-63687731D01*
X28291719Y-63670707D01*
X28181182Y-63601251D01*
X28081270Y-63566291D01*
X28019850Y-63544799D01*
X28019848Y-63544798D01*
X28019850Y-63544798D01*
X27850000Y-63525662D01*
X27680151Y-63544798D01*
X27518817Y-63601251D01*
X27374087Y-63692192D01*
X27253231Y-63813048D01*
X27162290Y-63957778D01*
X27105837Y-64119112D01*
X27086701Y-64288961D01*
X25562254Y-64288961D01*
X25537709Y-64218817D01*
X25446771Y-64074091D01*
X25446769Y-64074089D01*
X25446768Y-64074087D01*
X25325912Y-63953231D01*
X25324126Y-63952109D01*
X25257230Y-63910075D01*
X25181182Y-63862290D01*
X25081270Y-63827330D01*
X25019850Y-63805838D01*
X25019848Y-63805837D01*
X25019850Y-63805837D01*
X24850000Y-63786701D01*
X24680151Y-63805837D01*
X24518817Y-63862290D01*
X24374087Y-63953231D01*
X24253231Y-64074087D01*
X24162290Y-64218817D01*
X24105837Y-64380151D01*
X24086701Y-64550000D01*
X23691000Y-64550000D01*
X23691000Y-63886061D01*
X23692078Y-63869614D01*
X23695927Y-63840379D01*
X23691000Y-63802955D01*
X23676303Y-63691319D01*
X23629589Y-63578543D01*
X23618767Y-63552416D01*
X23550221Y-63463085D01*
X23550220Y-63463084D01*
X23547710Y-63459812D01*
X23547705Y-63459806D01*
X23527242Y-63433138D01*
X23503844Y-63415184D01*
X23491452Y-63404316D01*
X23238663Y-63151527D01*
X23204637Y-63089215D01*
X23209702Y-63018400D01*
X23252249Y-62961564D01*
X23318769Y-62936753D01*
X23341860Y-62937223D01*
X23350000Y-62938141D01*
X23514252Y-62919634D01*
X23670267Y-62865042D01*
X23810223Y-62777102D01*
X23927102Y-62660223D01*
X24015042Y-62520267D01*
X24069634Y-62364252D01*
X24088141Y-62200000D01*
X24069634Y-62035748D01*
X24015042Y-61879733D01*
X23971959Y-61811167D01*
X23927102Y-61739776D01*
X23810223Y-61622897D01*
X23670269Y-61534959D01*
X23670267Y-61534958D01*
X23624533Y-61518955D01*
X23514252Y-61480366D01*
X23350000Y-61461859D01*
X23185748Y-61480366D01*
X23185745Y-61480366D01*
X23185745Y-61480367D01*
X23029732Y-61534958D01*
X23029730Y-61534959D01*
X22889776Y-61622897D01*
X22772897Y-61739776D01*
X22684959Y-61879730D01*
X22684958Y-61879732D01*
X22641956Y-62002626D01*
X22630366Y-62035748D01*
X22625342Y-62080340D01*
X22611859Y-62200003D01*
X22611859Y-62200006D01*
X22612775Y-62208139D01*
X22600523Y-62278070D01*
X22552408Y-62330276D01*
X22483706Y-62348182D01*
X22416230Y-62326102D01*
X22398472Y-62311336D01*
X21707905Y-61620769D01*
X21673879Y-61558457D01*
X21671000Y-61531674D01*
X21671000Y-61064299D01*
X21691002Y-60996178D01*
X21744658Y-60949685D01*
X21792490Y-60939280D01*
X21792469Y-60939091D01*
X21794315Y-60938882D01*
X21797000Y-60938299D01*
X21799499Y-60938299D01*
X21799499Y-60938298D01*
X21799500Y-60938299D01*
X21969350Y-60919162D01*
X22130683Y-60862709D01*
X22275409Y-60771771D01*
X22396271Y-60650909D01*
X22487209Y-60506183D01*
X22543662Y-60344850D01*
X22562799Y-60175000D01*
X22558077Y-60133096D01*
X22570326Y-60063168D01*
X22618438Y-60010959D01*
X22687139Y-59993050D01*
X22754616Y-60015126D01*
G37*
%TD.AperFunction*%
%TA.AperFunction,Conductor*%
G36*
X59842981Y-59572563D02*
G01*
X59876878Y-59619570D01*
X59877767Y-59621716D01*
X59889701Y-59650527D01*
X59957049Y-59738296D01*
X59957052Y-59738299D01*
X59957058Y-59738307D01*
X59981227Y-59769805D01*
X59984437Y-59772268D01*
X60004628Y-59787762D01*
X60017019Y-59798629D01*
X63192095Y-62973705D01*
X63226121Y-63036017D01*
X63229000Y-63062800D01*
X63229000Y-70296667D01*
X63208998Y-70364788D01*
X63155342Y-70411281D01*
X63088893Y-70421875D01*
X63000000Y-70411859D01*
X62911107Y-70421875D01*
X62841176Y-70409626D01*
X62788967Y-70361513D01*
X62771000Y-70296667D01*
X62771000Y-65632213D01*
X62772078Y-65615766D01*
X62775927Y-65586532D01*
X62768857Y-65532833D01*
X62756303Y-65437470D01*
X62721550Y-65353569D01*
X62698768Y-65298569D01*
X62698763Y-65298562D01*
X62607245Y-65179292D01*
X62607224Y-65179271D01*
X62606663Y-65178845D01*
X62487970Y-65087768D01*
X62487967Y-65087766D01*
X62487964Y-65087764D01*
X62385206Y-65045200D01*
X62361635Y-65035436D01*
X62349063Y-65030228D01*
X62247842Y-65016902D01*
X62247829Y-65016899D01*
X62200002Y-65010604D01*
X62199998Y-65010604D01*
X62170766Y-65014452D01*
X62154322Y-65015530D01*
X62092202Y-65015530D01*
X62024081Y-64995528D01*
X62003107Y-64978625D01*
X60223463Y-63198981D01*
X60189437Y-63136669D01*
X60194502Y-63065854D01*
X60237049Y-63009018D01*
X60245522Y-63003199D01*
X60375909Y-62921271D01*
X60496771Y-62800409D01*
X60587709Y-62655683D01*
X60644162Y-62494350D01*
X60663299Y-62324500D01*
X60644162Y-62154650D01*
X60587709Y-61993317D01*
X60496771Y-61848591D01*
X60496769Y-61848589D01*
X60496768Y-61848587D01*
X60375912Y-61727731D01*
X60373012Y-61725909D01*
X60256690Y-61652818D01*
X60231182Y-61636790D01*
X60109762Y-61594304D01*
X60069850Y-61580338D01*
X60069848Y-61580337D01*
X60069850Y-61580337D01*
X59916695Y-61563082D01*
X59900000Y-61561201D01*
X59899999Y-61561201D01*
X59774576Y-61575332D01*
X59704644Y-61563082D01*
X59652436Y-61514969D01*
X59634469Y-61450124D01*
X59634469Y-59667787D01*
X59654471Y-59599666D01*
X59708127Y-59553173D01*
X59778401Y-59543069D01*
X59842981Y-59572563D01*
G37*
%TD.AperFunction*%
%TA.AperFunction,Conductor*%
G36*
X61880651Y-49919434D02*
G01*
X61917799Y-49943308D01*
X61918557Y-49942358D01*
X61924087Y-49946768D01*
X61924089Y-49946769D01*
X61924091Y-49946771D01*
X62068817Y-50037709D01*
X62230150Y-50094162D01*
X62230157Y-50094162D01*
X62237056Y-50095738D01*
X62236712Y-50097241D01*
X62294557Y-50121537D01*
X62334758Y-50180054D01*
X62341011Y-50219253D01*
X62341011Y-51440657D01*
X62339262Y-51456499D01*
X62339555Y-51456527D01*
X62338809Y-51464418D01*
X62340949Y-51532495D01*
X62341011Y-51536454D01*
X62341011Y-51564362D01*
X62341012Y-51564380D01*
X62341518Y-51568388D01*
X62342448Y-51580207D01*
X62343837Y-51624399D01*
X62343838Y-51624404D01*
X62349488Y-51643850D01*
X62353497Y-51663208D01*
X62356036Y-51683304D01*
X62356037Y-51683311D01*
X62372311Y-51724414D01*
X62376155Y-51735640D01*
X62388493Y-51778104D01*
X62398805Y-51795542D01*
X62407499Y-51813290D01*
X62414955Y-51832120D01*
X62414961Y-51832131D01*
X62440943Y-51867892D01*
X62447460Y-51877812D01*
X62469969Y-51915873D01*
X62469970Y-51915874D01*
X62469972Y-51915877D01*
X62484290Y-51930195D01*
X62497128Y-51945225D01*
X62509037Y-51961615D01*
X62509041Y-51961620D01*
X62543109Y-51989803D01*
X62551889Y-51997793D01*
X63192753Y-52638657D01*
X63202720Y-52651097D01*
X63202947Y-52650910D01*
X63207999Y-52657017D01*
X63208000Y-52657018D01*
X63253770Y-52699999D01*
X63257666Y-52703657D01*
X63260510Y-52706414D01*
X63280226Y-52726131D01*
X63283423Y-52728611D01*
X63292444Y-52736316D01*
X63324679Y-52766586D01*
X63324680Y-52766586D01*
X63324682Y-52766588D01*
X63342429Y-52776344D01*
X63358959Y-52787202D01*
X63374959Y-52799613D01*
X63415536Y-52817172D01*
X63426187Y-52822390D01*
X63464940Y-52843695D01*
X63484562Y-52848733D01*
X63503263Y-52855135D01*
X63521855Y-52863181D01*
X63565522Y-52870096D01*
X63577125Y-52872498D01*
X63619970Y-52883500D01*
X63640231Y-52883500D01*
X63659938Y-52885051D01*
X63675414Y-52887501D01*
X63679943Y-52888219D01*
X63679943Y-52888218D01*
X63684118Y-52888880D01*
X63748272Y-52919290D01*
X63785801Y-52979557D01*
X63784789Y-53050546D01*
X63745558Y-53109720D01*
X63731449Y-53120015D01*
X63678589Y-53153229D01*
X63557731Y-53274087D01*
X63466790Y-53418817D01*
X63410337Y-53580151D01*
X63391201Y-53750000D01*
X63410337Y-53919848D01*
X63466790Y-54081182D01*
X63557731Y-54225912D01*
X63678587Y-54346768D01*
X63678589Y-54346769D01*
X63678591Y-54346771D01*
X63823317Y-54437709D01*
X63984650Y-54494162D01*
X63984649Y-54494162D01*
X64001848Y-54496099D01*
X64154500Y-54513299D01*
X64324350Y-54494162D01*
X64485683Y-54437709D01*
X64630409Y-54346771D01*
X64652663Y-54324517D01*
X64684905Y-54292276D01*
X64747217Y-54258250D01*
X64818032Y-54263315D01*
X64874868Y-54305862D01*
X64899679Y-54372382D01*
X64900000Y-54381371D01*
X64900000Y-60623129D01*
X64879998Y-60691250D01*
X64826342Y-60737743D01*
X64756068Y-60747847D01*
X64691488Y-60718353D01*
X64684905Y-60712224D01*
X64625912Y-60653231D01*
X64622221Y-60650912D01*
X64590249Y-60630822D01*
X64481182Y-60562290D01*
X64374532Y-60524972D01*
X64319850Y-60505838D01*
X64319848Y-60505837D01*
X64319850Y-60505837D01*
X64150000Y-60486701D01*
X63980151Y-60505837D01*
X63818817Y-60562290D01*
X63674087Y-60653231D01*
X63553231Y-60774087D01*
X63462290Y-60918817D01*
X63405837Y-61080151D01*
X63385909Y-61257031D01*
X63384418Y-61256863D01*
X63366699Y-61317210D01*
X63313043Y-61363703D01*
X63242769Y-61373807D01*
X63178189Y-61344313D01*
X63171606Y-61338184D01*
X62028375Y-60194953D01*
X61994349Y-60132641D01*
X61999414Y-60061826D01*
X62010780Y-60038826D01*
X62062709Y-59956183D01*
X62119162Y-59794850D01*
X62138299Y-59625000D01*
X62119162Y-59455150D01*
X62090907Y-59374404D01*
X62087288Y-59303504D01*
X62103147Y-59265760D01*
X62187709Y-59131183D01*
X62244162Y-58969850D01*
X62263299Y-58800000D01*
X62244162Y-58630150D01*
X62187709Y-58468817D01*
X62096771Y-58324091D01*
X62096769Y-58324089D01*
X62096768Y-58324087D01*
X62029237Y-58256556D01*
X61995211Y-58194244D01*
X62000276Y-58123429D01*
X62011646Y-58100424D01*
X62024963Y-58079230D01*
X62063829Y-58017376D01*
X62120282Y-57856043D01*
X62139419Y-57686193D01*
X62120282Y-57516343D01*
X62063829Y-57355010D01*
X62038278Y-57314347D01*
X62018973Y-57246027D01*
X62035956Y-57188195D01*
X62034638Y-57187560D01*
X62037709Y-57181182D01*
X62037736Y-57181106D01*
X62094162Y-57019850D01*
X62113299Y-56850000D01*
X62094162Y-56680150D01*
X62037709Y-56518817D01*
X61946771Y-56374091D01*
X61946769Y-56374089D01*
X61946768Y-56374087D01*
X61942358Y-56368557D01*
X61944168Y-56367113D01*
X61915403Y-56314436D01*
X61920468Y-56243621D01*
X61963015Y-56186785D01*
X61971488Y-56180966D01*
X62025909Y-56146771D01*
X62146771Y-56025909D01*
X62237709Y-55881183D01*
X62294162Y-55719850D01*
X62313299Y-55550000D01*
X62294162Y-55380150D01*
X62237709Y-55218817D01*
X62146771Y-55074091D01*
X62146769Y-55074089D01*
X62146768Y-55074087D01*
X62025912Y-54953231D01*
X62006225Y-54940861D01*
X61979949Y-54924350D01*
X61881182Y-54862290D01*
X61776118Y-54825527D01*
X61719850Y-54805838D01*
X61719848Y-54805837D01*
X61719850Y-54805837D01*
X61558946Y-54787709D01*
X61550000Y-54786701D01*
X61549999Y-54786701D01*
X61486595Y-54793844D01*
X61416663Y-54781594D01*
X61364455Y-54733480D01*
X61346489Y-54668636D01*
X61346489Y-50401620D01*
X61366491Y-50333499D01*
X61383394Y-50312525D01*
X61747524Y-49948395D01*
X61809836Y-49914369D01*
X61880651Y-49919434D01*
G37*
%TD.AperFunction*%
%TA.AperFunction,Conductor*%
G36*
X43537424Y-49299011D02*
G01*
X43558398Y-49315914D01*
X44549974Y-50307490D01*
X44584000Y-50369802D01*
X44578935Y-50440617D01*
X44536388Y-50497453D01*
X44502495Y-50515514D01*
X44368816Y-50562291D01*
X44224087Y-50653231D01*
X44103231Y-50774087D01*
X44012290Y-50918817D01*
X43955837Y-51080151D01*
X43936701Y-51250000D01*
X43955837Y-51419848D01*
X44012291Y-51581183D01*
X44012292Y-51581185D01*
X44076244Y-51682964D01*
X44095550Y-51751285D01*
X44076244Y-51817036D01*
X44012292Y-51918814D01*
X44012291Y-51918816D01*
X43955837Y-52080151D01*
X43936701Y-52250000D01*
X43955837Y-52419848D01*
X44012291Y-52581183D01*
X44012292Y-52581185D01*
X44076244Y-52682964D01*
X44095550Y-52751285D01*
X44076244Y-52817036D01*
X44012292Y-52918814D01*
X44012291Y-52918816D01*
X43955837Y-53080151D01*
X43936701Y-53250000D01*
X43955837Y-53419848D01*
X44012290Y-53581182D01*
X44016725Y-53588240D01*
X44044849Y-53632999D01*
X44054701Y-53648677D01*
X44074007Y-53716998D01*
X44063553Y-53761761D01*
X44064628Y-53762138D01*
X44005837Y-53930151D01*
X43986701Y-54100000D01*
X44005837Y-54269848D01*
X44062290Y-54431182D01*
X44153231Y-54575912D01*
X44274087Y-54696768D01*
X44274089Y-54696769D01*
X44274091Y-54696771D01*
X44418817Y-54787709D01*
X44580150Y-54844162D01*
X44674887Y-54854836D01*
X44740338Y-54882337D01*
X44780532Y-54940861D01*
X44782705Y-55011824D01*
X44746168Y-55072697D01*
X44702395Y-55098972D01*
X44594316Y-55136791D01*
X44449587Y-55227731D01*
X44328731Y-55348587D01*
X44237790Y-55493317D01*
X44181337Y-55654651D01*
X44162201Y-55824500D01*
X44181337Y-55994348D01*
X44237790Y-56155682D01*
X44328731Y-56300412D01*
X44449587Y-56421268D01*
X44449589Y-56421269D01*
X44449591Y-56421271D01*
X44594317Y-56512209D01*
X44755650Y-56568662D01*
X44755649Y-56568662D01*
X44772848Y-56570599D01*
X44925500Y-56587799D01*
X45095350Y-56568662D01*
X45256683Y-56512209D01*
X45401409Y-56421271D01*
X45522271Y-56300409D01*
X45613209Y-56155683D01*
X45669662Y-55994350D01*
X45688799Y-55824500D01*
X45669662Y-55654650D01*
X45613209Y-55493317D01*
X45522271Y-55348591D01*
X45522269Y-55348589D01*
X45522268Y-55348587D01*
X45401412Y-55227731D01*
X45256682Y-55136790D01*
X45148603Y-55098972D01*
X45095350Y-55080338D01*
X45095348Y-55080337D01*
X45095350Y-55080337D01*
X45000613Y-55069664D01*
X44935160Y-55042161D01*
X44894967Y-54983637D01*
X44892794Y-54912674D01*
X44929332Y-54851801D01*
X44973104Y-54825527D01*
X45081183Y-54787709D01*
X45225909Y-54696771D01*
X45346771Y-54575909D01*
X45437709Y-54431183D01*
X45494162Y-54269850D01*
X45513299Y-54100000D01*
X45494162Y-53930150D01*
X45437709Y-53768817D01*
X45403759Y-53714786D01*
X45395298Y-53701320D01*
X45375992Y-53632999D01*
X45386452Y-53588240D01*
X45385372Y-53587862D01*
X45409532Y-53518817D01*
X45444162Y-53419850D01*
X45463299Y-53250000D01*
X45444162Y-53080150D01*
X45387709Y-52918817D01*
X45323754Y-52817034D01*
X45304449Y-52748716D01*
X45323755Y-52682964D01*
X45387709Y-52581183D01*
X45444162Y-52419850D01*
X45463299Y-52250000D01*
X45444162Y-52080150D01*
X45387709Y-51918817D01*
X45323754Y-51817034D01*
X45304449Y-51748716D01*
X45323755Y-51682964D01*
X45387709Y-51581183D01*
X45434485Y-51447502D01*
X45475863Y-51389812D01*
X45541863Y-51363650D01*
X45611531Y-51377323D01*
X45642509Y-51400024D01*
X52297378Y-58054893D01*
X52331404Y-58117205D01*
X52334283Y-58143988D01*
X52334283Y-60010623D01*
X52314281Y-60078744D01*
X52260625Y-60125237D01*
X52222394Y-60135830D01*
X52211386Y-60137070D01*
X52211380Y-60137071D01*
X52050050Y-60193523D01*
X51905320Y-60284464D01*
X51784464Y-60405320D01*
X51693523Y-60550050D01*
X51669014Y-60620095D01*
X51627636Y-60677787D01*
X51561635Y-60703949D01*
X51550085Y-60704480D01*
X41804190Y-60704480D01*
X41736069Y-60684478D01*
X41689576Y-60630822D01*
X41679472Y-60560548D01*
X41708966Y-60495968D01*
X41737154Y-60471793D01*
X41741789Y-60468880D01*
X41805909Y-60428591D01*
X41926771Y-60307729D01*
X42017709Y-60163003D01*
X42049621Y-60071802D01*
X42090999Y-60014111D01*
X42156999Y-59987949D01*
X42210165Y-59994489D01*
X42230150Y-60001482D01*
X42230149Y-60001482D01*
X42247348Y-60003419D01*
X42400000Y-60020619D01*
X42569850Y-60001482D01*
X42731183Y-59945029D01*
X42875909Y-59854091D01*
X42996771Y-59733229D01*
X43087709Y-59588503D01*
X43144162Y-59427170D01*
X43163299Y-59257320D01*
X43154080Y-59175500D01*
X46686701Y-59175500D01*
X46705837Y-59345348D01*
X46762290Y-59506682D01*
X46853231Y-59651412D01*
X46974087Y-59772268D01*
X46974089Y-59772269D01*
X46974091Y-59772271D01*
X47118817Y-59863209D01*
X47280150Y-59919662D01*
X47280149Y-59919662D01*
X47297348Y-59921599D01*
X47450000Y-59938799D01*
X47619850Y-59919662D01*
X47781183Y-59863209D01*
X47925909Y-59772271D01*
X48046771Y-59651409D01*
X48137709Y-59506683D01*
X48194162Y-59345350D01*
X48213299Y-59175500D01*
X48194162Y-59005650D01*
X48137709Y-58844317D01*
X48046771Y-58699591D01*
X48046769Y-58699589D01*
X48046768Y-58699587D01*
X47925912Y-58578731D01*
X47781182Y-58487790D01*
X47646619Y-58440705D01*
X47619850Y-58431338D01*
X47619848Y-58431337D01*
X47619850Y-58431337D01*
X47450000Y-58412201D01*
X47280151Y-58431337D01*
X47118817Y-58487790D01*
X46974087Y-58578731D01*
X46853231Y-58699587D01*
X46762290Y-58844317D01*
X46705837Y-59005651D01*
X46686701Y-59175500D01*
X43154080Y-59175500D01*
X43144162Y-59087470D01*
X43087709Y-58926137D01*
X42996771Y-58781411D01*
X42996769Y-58781409D01*
X42996768Y-58781407D01*
X42875912Y-58660551D01*
X42731182Y-58569610D01*
X42631270Y-58534650D01*
X42569850Y-58513158D01*
X42569848Y-58513157D01*
X42569850Y-58513157D01*
X42400000Y-58494021D01*
X42230151Y-58513157D01*
X42068817Y-58569610D01*
X41924087Y-58660551D01*
X41803231Y-58781407D01*
X41712291Y-58926136D01*
X41680378Y-59017337D01*
X41638999Y-59075029D01*
X41572998Y-59101191D01*
X41519833Y-59094650D01*
X41499137Y-59087408D01*
X41451658Y-59057574D01*
X40133770Y-57739686D01*
X40099744Y-57677374D01*
X40104809Y-57606559D01*
X40147356Y-57549723D01*
X40213876Y-57524912D01*
X40283250Y-57540003D01*
X40291077Y-57545128D01*
X40296986Y-57548623D01*
X40296987Y-57548623D01*
X40296988Y-57548624D01*
X40337565Y-57566183D01*
X40348216Y-57571401D01*
X40386969Y-57592706D01*
X40406591Y-57597744D01*
X40425292Y-57604146D01*
X40443884Y-57612192D01*
X40487551Y-57619107D01*
X40499154Y-57621509D01*
X40541999Y-57632511D01*
X40562260Y-57632511D01*
X40581968Y-57634061D01*
X40601972Y-57637230D01*
X40645983Y-57633069D01*
X40657840Y-57632511D01*
X40811382Y-57632511D01*
X40878418Y-57651824D01*
X40930745Y-57684703D01*
X40930750Y-57684706D01*
X40942073Y-57688668D01*
X40999764Y-57730045D01*
X41019387Y-57765981D01*
X41066239Y-57899873D01*
X41066239Y-57899874D01*
X41140073Y-58017380D01*
X41157179Y-58044603D01*
X41278035Y-58165459D01*
X41278037Y-58165460D01*
X41278039Y-58165462D01*
X41422765Y-58256400D01*
X41584098Y-58312853D01*
X41584097Y-58312853D01*
X41601296Y-58314790D01*
X41753948Y-58331990D01*
X41923798Y-58312853D01*
X42085131Y-58256400D01*
X42229857Y-58165462D01*
X42350719Y-58044600D01*
X42441657Y-57899874D01*
X42498110Y-57738541D01*
X42517247Y-57568691D01*
X42498110Y-57398841D01*
X42441657Y-57237508D01*
X42350719Y-57092782D01*
X42350717Y-57092780D01*
X42350716Y-57092778D01*
X42229860Y-56971922D01*
X42085130Y-56880981D01*
X42073806Y-56877019D01*
X42016115Y-56835640D01*
X41996493Y-56799706D01*
X41982023Y-56758354D01*
X41978403Y-56687450D01*
X42013692Y-56625844D01*
X42076685Y-56593097D01*
X42123068Y-56593808D01*
X42123118Y-56593370D01*
X42127626Y-56593877D01*
X42128998Y-56593899D01*
X42130146Y-56594160D01*
X42130150Y-56594162D01*
X42300000Y-56613299D01*
X42469850Y-56594162D01*
X42631183Y-56537709D01*
X42775909Y-56446771D01*
X42896771Y-56325909D01*
X42987709Y-56181183D01*
X43044162Y-56019850D01*
X43063299Y-55850000D01*
X43044162Y-55680150D01*
X42987709Y-55518817D01*
X42896771Y-55374091D01*
X42896769Y-55374089D01*
X42896768Y-55374087D01*
X42861776Y-55339095D01*
X42827750Y-55276783D01*
X42832815Y-55205968D01*
X42861776Y-55160905D01*
X42896767Y-55125913D01*
X42896768Y-55125912D01*
X42896771Y-55125909D01*
X42987709Y-54981183D01*
X43044162Y-54819850D01*
X43063299Y-54650000D01*
X43044162Y-54480150D01*
X42987709Y-54318817D01*
X42986592Y-54317040D01*
X42986222Y-54315728D01*
X42984637Y-54312437D01*
X42985213Y-54312159D01*
X42967283Y-54248721D01*
X42985166Y-54187817D01*
X42984637Y-54187563D01*
X42986185Y-54184347D01*
X42986593Y-54182959D01*
X42987709Y-54181183D01*
X43044162Y-54019850D01*
X43063299Y-53850000D01*
X43044162Y-53680150D01*
X42987709Y-53518817D01*
X42896771Y-53374091D01*
X42896769Y-53374089D01*
X42896768Y-53374087D01*
X42861776Y-53339095D01*
X42827750Y-53276783D01*
X42832815Y-53205968D01*
X42861776Y-53160905D01*
X42896767Y-53125913D01*
X42896768Y-53125912D01*
X42896771Y-53125909D01*
X42987709Y-52981183D01*
X43044162Y-52819850D01*
X43063299Y-52650000D01*
X43044162Y-52480150D01*
X42987709Y-52318817D01*
X42986592Y-52317040D01*
X42986222Y-52315728D01*
X42984637Y-52312437D01*
X42985213Y-52312159D01*
X42967283Y-52248721D01*
X42985166Y-52187817D01*
X42984637Y-52187563D01*
X42986185Y-52184347D01*
X42986593Y-52182959D01*
X42987709Y-52181183D01*
X43044162Y-52019850D01*
X43063299Y-51850000D01*
X43044162Y-51680150D01*
X42987709Y-51518817D01*
X42953528Y-51464418D01*
X42918765Y-51409093D01*
X42899459Y-51340772D01*
X42920154Y-51272859D01*
X42936352Y-51252966D01*
X43012421Y-51176898D01*
X43103359Y-51032172D01*
X43159812Y-50870839D01*
X43178949Y-50700989D01*
X43159812Y-50531139D01*
X43103359Y-50369806D01*
X43012421Y-50225080D01*
X43012419Y-50225078D01*
X43012418Y-50225076D01*
X42891562Y-50104220D01*
X42746832Y-50013279D01*
X42631485Y-49972918D01*
X42585500Y-49956827D01*
X42585498Y-49956826D01*
X42585500Y-49956826D01*
X42415650Y-49937690D01*
X42245801Y-49956826D01*
X42084467Y-50013279D01*
X41939737Y-50104220D01*
X41818881Y-50225076D01*
X41727940Y-50369806D01*
X41671487Y-50531140D01*
X41652351Y-50700989D01*
X41671487Y-50870837D01*
X41727941Y-51032172D01*
X41727942Y-51032174D01*
X41796884Y-51141895D01*
X41816190Y-51210216D01*
X41795495Y-51278129D01*
X41779293Y-51298026D01*
X41703230Y-51374089D01*
X41612290Y-51518817D01*
X41555837Y-51680151D01*
X41536701Y-51850000D01*
X41555837Y-52019848D01*
X41612290Y-52181182D01*
X41612293Y-52181188D01*
X41613416Y-52182975D01*
X41613787Y-52184291D01*
X41615361Y-52187558D01*
X41614788Y-52187833D01*
X41632715Y-52251298D01*
X41614835Y-52312189D01*
X41615361Y-52312442D01*
X41613825Y-52315630D01*
X41613416Y-52317025D01*
X41612293Y-52318811D01*
X41612290Y-52318817D01*
X41555837Y-52480151D01*
X41536701Y-52650000D01*
X41555837Y-52819848D01*
X41612290Y-52981182D01*
X41674477Y-53080151D01*
X41690147Y-53105090D01*
X41703231Y-53125912D01*
X41738224Y-53160905D01*
X41772250Y-53223217D01*
X41767185Y-53294032D01*
X41738224Y-53339095D01*
X41703232Y-53374086D01*
X41703231Y-53374087D01*
X41612290Y-53518817D01*
X41555837Y-53680151D01*
X41536701Y-53850000D01*
X41555837Y-54019848D01*
X41612290Y-54181182D01*
X41612293Y-54181188D01*
X41613416Y-54182975D01*
X41613787Y-54184291D01*
X41615361Y-54187558D01*
X41614788Y-54187833D01*
X41632715Y-54251298D01*
X41614835Y-54312189D01*
X41615361Y-54312442D01*
X41613825Y-54315630D01*
X41613416Y-54317025D01*
X41612293Y-54318811D01*
X41612290Y-54318817D01*
X41555837Y-54480151D01*
X41536701Y-54650000D01*
X41555837Y-54819848D01*
X41612290Y-54981182D01*
X41703231Y-55125912D01*
X41738224Y-55160905D01*
X41772250Y-55223217D01*
X41767185Y-55294032D01*
X41738224Y-55339095D01*
X41703232Y-55374086D01*
X41703231Y-55374087D01*
X41612290Y-55518817D01*
X41555837Y-55680151D01*
X41547917Y-55750446D01*
X41520413Y-55815899D01*
X41461889Y-55856092D01*
X41390926Y-55858263D01*
X41342660Y-55830615D01*
X41341443Y-55832142D01*
X41335912Y-55827731D01*
X41191183Y-55736791D01*
X41029139Y-55680089D01*
X40981660Y-55650255D01*
X38479764Y-53148359D01*
X38469799Y-53135921D01*
X38469572Y-53136110D01*
X38464521Y-53130004D01*
X38464520Y-53130002D01*
X38460161Y-53125909D01*
X38414869Y-53083377D01*
X38412025Y-53080620D01*
X38392297Y-53060891D01*
X38392291Y-53060886D01*
X38389087Y-53058400D01*
X38380076Y-53050703D01*
X38347845Y-53020437D01*
X38347839Y-53020433D01*
X38330083Y-53010671D01*
X38313567Y-52999822D01*
X38297561Y-52987406D01*
X38256984Y-52969847D01*
X38246327Y-52964625D01*
X38207583Y-52943326D01*
X38207580Y-52943325D01*
X38187956Y-52938286D01*
X38169256Y-52931884D01*
X38150665Y-52923839D01*
X38150663Y-52923838D01*
X38150661Y-52923838D01*
X38106994Y-52916921D01*
X38095373Y-52914515D01*
X38049664Y-52902779D01*
X37988658Y-52866464D01*
X37956969Y-52802932D01*
X37955791Y-52766635D01*
X37963299Y-52700000D01*
X37944162Y-52530150D01*
X37887709Y-52368817D01*
X37796771Y-52224091D01*
X37796769Y-52224089D01*
X37796768Y-52224087D01*
X37675912Y-52103231D01*
X37531182Y-52012290D01*
X37431270Y-51977330D01*
X37369850Y-51955838D01*
X37369848Y-51955837D01*
X37369850Y-51955837D01*
X37200000Y-51936701D01*
X37030151Y-51955837D01*
X36868817Y-52012290D01*
X36724087Y-52103231D01*
X36603231Y-52224087D01*
X36512290Y-52368817D01*
X36455837Y-52530151D01*
X36438620Y-52682964D01*
X36436701Y-52700000D01*
X36442479Y-52751285D01*
X36443846Y-52763413D01*
X36431596Y-52833345D01*
X36383484Y-52885553D01*
X36318638Y-52903520D01*
X33617189Y-52903520D01*
X33549068Y-52883518D01*
X33502575Y-52829862D01*
X33491981Y-52763416D01*
X33508141Y-52620000D01*
X33489634Y-52455748D01*
X33435042Y-52299733D01*
X33414654Y-52267286D01*
X33347102Y-52159776D01*
X33230223Y-52042897D01*
X33090269Y-51954959D01*
X33090267Y-51954958D01*
X33008161Y-51926228D01*
X32934252Y-51900366D01*
X32770000Y-51881859D01*
X32605748Y-51900366D01*
X32605745Y-51900366D01*
X32605745Y-51900367D01*
X32449732Y-51954958D01*
X32449730Y-51954959D01*
X32309776Y-52042897D01*
X32192897Y-52159776D01*
X32104959Y-52299730D01*
X32104958Y-52299732D01*
X32051247Y-52453231D01*
X32050366Y-52455748D01*
X32044967Y-52503667D01*
X32036780Y-52576322D01*
X32009275Y-52641775D01*
X31950751Y-52681967D01*
X31879788Y-52684138D01*
X31818916Y-52647599D01*
X31787461Y-52583951D01*
X31786365Y-52576322D01*
X31778179Y-52503667D01*
X31721726Y-52342334D01*
X31717498Y-52335606D01*
X31698193Y-52267286D01*
X31705257Y-52226955D01*
X31718417Y-52189347D01*
X31734162Y-52144350D01*
X31734162Y-52144349D01*
X31734411Y-52143638D01*
X31764243Y-52096159D01*
X33113512Y-50746893D01*
X33175824Y-50712868D01*
X33202607Y-50709989D01*
X39510942Y-50709989D01*
X39577978Y-50729302D01*
X39694011Y-50802210D01*
X39694012Y-50802210D01*
X39694015Y-50802212D01*
X39850030Y-50856804D01*
X40014282Y-50875311D01*
X40178534Y-50856804D01*
X40334549Y-50802212D01*
X40474505Y-50714272D01*
X40591384Y-50597393D01*
X40679324Y-50457437D01*
X40733916Y-50301422D01*
X40752423Y-50137170D01*
X40733916Y-49972918D01*
X40679324Y-49816903D01*
X40621339Y-49724620D01*
X40591384Y-49676946D01*
X40474505Y-49560067D01*
X40397522Y-49511696D01*
X40350484Y-49458518D01*
X40339664Y-49388350D01*
X40368497Y-49323472D01*
X40427828Y-49284481D01*
X40464558Y-49279009D01*
X43469303Y-49279009D01*
X43537424Y-49299011D01*
G37*
%TD.AperFunction*%
%TA.AperFunction,Conductor*%
G36*
X21879512Y-58682647D02*
G01*
X21886095Y-58688776D01*
X21893942Y-58696623D01*
X21893944Y-58696624D01*
X21893946Y-58696626D01*
X22038672Y-58787564D01*
X22200005Y-58844017D01*
X22202051Y-58844247D01*
X22207103Y-58844817D01*
X22272557Y-58872318D01*
X22312752Y-58930840D01*
X22319000Y-58970025D01*
X22319000Y-59294317D01*
X22317922Y-59310763D01*
X22314073Y-59339998D01*
X22314073Y-59340002D01*
X22316767Y-59360467D01*
X22305827Y-59430615D01*
X22258699Y-59483714D01*
X22190345Y-59502903D01*
X22138355Y-59487678D01*
X22137063Y-59490363D01*
X22130683Y-59487291D01*
X21969350Y-59430838D01*
X21969348Y-59430837D01*
X21969350Y-59430837D01*
X21816698Y-59413638D01*
X21799500Y-59411701D01*
X21799499Y-59411701D01*
X21797000Y-59411701D01*
X21795444Y-59411244D01*
X21792469Y-59410909D01*
X21792527Y-59410387D01*
X21728879Y-59391699D01*
X21682386Y-59338043D01*
X21671000Y-59285701D01*
X21671000Y-58777871D01*
X21691002Y-58709750D01*
X21744658Y-58663257D01*
X21814932Y-58653153D01*
X21879512Y-58682647D01*
G37*
%TD.AperFunction*%
%TA.AperFunction,Conductor*%
G36*
X51461009Y-46355373D02*
G01*
X51485367Y-46370678D01*
X51485368Y-46370678D01*
X51485371Y-46370680D01*
X51641386Y-46425272D01*
X51641385Y-46425272D01*
X51705653Y-46432513D01*
X51771106Y-46460016D01*
X51810475Y-46516106D01*
X51866820Y-46677129D01*
X51866821Y-46677131D01*
X51954759Y-46817085D01*
X52071638Y-46933964D01*
X52137302Y-46975223D01*
X52211595Y-47021904D01*
X52367610Y-47076496D01*
X52409865Y-47081257D01*
X52475319Y-47108760D01*
X52484854Y-47117370D01*
X54507244Y-49139760D01*
X54518111Y-49152150D01*
X54536069Y-49175553D01*
X54566015Y-49198531D01*
X54566017Y-49198533D01*
X54655348Y-49267079D01*
X54655349Y-49267079D01*
X54655350Y-49267080D01*
X54719715Y-49293740D01*
X54719716Y-49293741D01*
X54750589Y-49306528D01*
X54794250Y-49324614D01*
X54905886Y-49339311D01*
X54905888Y-49339311D01*
X54943311Y-49344238D01*
X54972548Y-49340389D01*
X54988994Y-49339311D01*
X60220015Y-49339311D01*
X60288136Y-49359313D01*
X60326700Y-49398272D01*
X60342365Y-49423202D01*
X60361672Y-49491522D01*
X60340978Y-49559435D01*
X60324776Y-49579333D01*
X60299356Y-49604752D01*
X60299351Y-49604759D01*
X60225874Y-49699486D01*
X60225871Y-49699491D01*
X60162307Y-49846381D01*
X60137269Y-50004469D01*
X60152331Y-50163816D01*
X60197040Y-50287999D01*
X60204489Y-50330680D01*
X60204489Y-52611438D01*
X60184487Y-52679559D01*
X60130831Y-52726052D01*
X60060557Y-52736156D01*
X60036876Y-52730368D01*
X59995347Y-52715837D01*
X59825500Y-52696701D01*
X59655651Y-52715837D01*
X59494317Y-52772290D01*
X59349587Y-52863231D01*
X59228731Y-52984087D01*
X59137790Y-53128817D01*
X59081337Y-53290151D01*
X59062201Y-53460000D01*
X59081337Y-53629848D01*
X59137790Y-53791182D01*
X59228731Y-53935912D01*
X59349587Y-54056768D01*
X59349589Y-54056769D01*
X59349591Y-54056771D01*
X59494317Y-54147709D01*
X59655650Y-54204162D01*
X59655649Y-54204162D01*
X59672848Y-54206099D01*
X59825500Y-54223299D01*
X59995350Y-54204162D01*
X60036874Y-54189631D01*
X60107778Y-54186012D01*
X60169383Y-54221301D01*
X60202130Y-54284295D01*
X60204489Y-54308561D01*
X60204489Y-56542783D01*
X60184487Y-56610904D01*
X60130831Y-56657397D01*
X60060557Y-56667501D01*
X59995977Y-56638007D01*
X59989394Y-56631878D01*
X58933425Y-55575909D01*
X58899399Y-55513597D01*
X58904464Y-55442782D01*
X58947011Y-55385946D01*
X58955465Y-55380139D01*
X59001409Y-55351271D01*
X59122271Y-55230409D01*
X59213209Y-55085683D01*
X59269662Y-54924350D01*
X59288799Y-54754500D01*
X59269662Y-54584650D01*
X59213209Y-54423317D01*
X59122271Y-54278591D01*
X59122269Y-54278589D01*
X59122268Y-54278587D01*
X59001412Y-54157731D01*
X58856682Y-54066790D01*
X58756770Y-54031830D01*
X58695350Y-54010338D01*
X58695348Y-54010337D01*
X58695350Y-54010337D01*
X58525500Y-53991201D01*
X58355651Y-54010337D01*
X58194317Y-54066790D01*
X58049587Y-54157731D01*
X57928729Y-54278589D01*
X57899871Y-54324517D01*
X57846692Y-54371554D01*
X57776525Y-54382373D01*
X57711647Y-54353539D01*
X57704090Y-54346574D01*
X53339193Y-49981677D01*
X53305167Y-49919365D01*
X53310232Y-49848550D01*
X53339195Y-49803485D01*
X53356768Y-49785912D01*
X53356771Y-49785909D01*
X53447709Y-49641183D01*
X53504162Y-49479850D01*
X53523299Y-49310000D01*
X53504162Y-49140150D01*
X53447709Y-48978817D01*
X53356771Y-48834091D01*
X53356769Y-48834089D01*
X53356768Y-48834087D01*
X53235912Y-48713231D01*
X53091182Y-48622290D01*
X52966890Y-48578799D01*
X52929850Y-48565838D01*
X52929848Y-48565837D01*
X52929850Y-48565837D01*
X52760000Y-48546701D01*
X52590151Y-48565837D01*
X52428817Y-48622290D01*
X52284087Y-48713231D01*
X52266510Y-48730808D01*
X52204198Y-48764832D01*
X52133382Y-48759766D01*
X52088322Y-48730806D01*
X50761706Y-47404190D01*
X50727680Y-47341878D01*
X50732745Y-47271063D01*
X50775292Y-47214227D01*
X50809181Y-47196168D01*
X50855267Y-47180042D01*
X50995223Y-47092102D01*
X51112102Y-46975223D01*
X51200042Y-46835267D01*
X51254634Y-46679252D01*
X51273141Y-46515000D01*
X51268765Y-46476166D01*
X51281014Y-46406236D01*
X51329126Y-46354028D01*
X51397827Y-46336119D01*
X51461009Y-46355373D01*
G37*
%TD.AperFunction*%
%TA.AperFunction,Conductor*%
G36*
X21557287Y-50785189D02*
G01*
X21603780Y-50838845D01*
X21613884Y-50909119D01*
X21584390Y-50973699D01*
X21578261Y-50980282D01*
X20454855Y-52103688D01*
X20392543Y-52137714D01*
X20321728Y-52132649D01*
X20264892Y-52090102D01*
X20240081Y-52023582D01*
X20239760Y-52014593D01*
X20239760Y-51369945D01*
X20259762Y-51301824D01*
X20276665Y-51280850D01*
X20755423Y-50802092D01*
X20817735Y-50768066D01*
X20844518Y-50765187D01*
X21489166Y-50765187D01*
X21557287Y-50785189D01*
G37*
%TD.AperFunction*%
%TA.AperFunction,Conductor*%
G36*
X28708037Y-43234829D02*
G01*
X28760245Y-43282941D01*
X28778153Y-43351642D01*
X28777420Y-43361892D01*
X28761859Y-43500000D01*
X28780366Y-43664252D01*
X28820996Y-43780366D01*
X28834958Y-43820267D01*
X28834959Y-43820269D01*
X28909687Y-43939198D01*
X28929000Y-44006234D01*
X28929000Y-47900724D01*
X28908998Y-47968845D01*
X28892095Y-47989819D01*
X28684746Y-48197168D01*
X28622434Y-48231194D01*
X28551619Y-48226129D01*
X28494783Y-48183582D01*
X28469972Y-48117062D01*
X28469651Y-48108073D01*
X28469651Y-43390055D01*
X28489653Y-43321934D01*
X28506551Y-43300964D01*
X28547008Y-43260506D01*
X28609318Y-43226482D01*
X28621979Y-43224396D01*
X28638108Y-43222579D01*
X28708037Y-43234829D01*
G37*
%TD.AperFunction*%
%TA.AperFunction,Conductor*%
G36*
X44037441Y-15120002D02*
G01*
X44083934Y-15173658D01*
X44094038Y-15243932D01*
X44064544Y-15308512D01*
X44036357Y-15332687D01*
X43924087Y-15403231D01*
X43803231Y-15524087D01*
X43712290Y-15668817D01*
X43655837Y-15830151D01*
X43636701Y-16000000D01*
X43655837Y-16169848D01*
X43712290Y-16331182D01*
X43803231Y-16475912D01*
X43924087Y-16596768D01*
X43924089Y-16596769D01*
X43924091Y-16596771D01*
X44068817Y-16687709D01*
X44230150Y-16744162D01*
X44230149Y-16744162D01*
X44247348Y-16746099D01*
X44400000Y-16763299D01*
X44569850Y-16744162D01*
X44731183Y-16687709D01*
X44875909Y-16596771D01*
X44996771Y-16475909D01*
X45087709Y-16331183D01*
X45144162Y-16169850D01*
X45163299Y-16000000D01*
X45144162Y-15830150D01*
X45087709Y-15668817D01*
X44996771Y-15524091D01*
X44996769Y-15524089D01*
X44996768Y-15524087D01*
X44875912Y-15403231D01*
X44763643Y-15332687D01*
X44716606Y-15279508D01*
X44705786Y-15209340D01*
X44734619Y-15144462D01*
X44793951Y-15105472D01*
X44830680Y-15100000D01*
X64774000Y-15100000D01*
X64842121Y-15120002D01*
X64888614Y-15173658D01*
X64900000Y-15226000D01*
X64900000Y-21282514D01*
X64879998Y-21350635D01*
X64826342Y-21397128D01*
X64756068Y-21407232D01*
X64691488Y-21377738D01*
X64655071Y-21324129D01*
X64629112Y-21249944D01*
X64615042Y-21209733D01*
X64598185Y-21182905D01*
X64527102Y-21069776D01*
X64410223Y-20952897D01*
X64270269Y-20864959D01*
X64270267Y-20864958D01*
X64167636Y-20829046D01*
X64114252Y-20810366D01*
X63950000Y-20791859D01*
X63785748Y-20810366D01*
X63785745Y-20810366D01*
X63785745Y-20810367D01*
X63629732Y-20864958D01*
X63629729Y-20864959D01*
X63517036Y-20935769D01*
X63448714Y-20955075D01*
X63382964Y-20935769D01*
X63270270Y-20864959D01*
X63270267Y-20864958D01*
X63167636Y-20829046D01*
X63114252Y-20810366D01*
X62950000Y-20791859D01*
X62785748Y-20810366D01*
X62785745Y-20810366D01*
X62785745Y-20810367D01*
X62629732Y-20864958D01*
X62629730Y-20864959D01*
X62489776Y-20952897D01*
X62372897Y-21069776D01*
X62284959Y-21209730D01*
X62284958Y-21209732D01*
X62239714Y-21339034D01*
X62230366Y-21365748D01*
X62211859Y-21530000D01*
X62230366Y-21694252D01*
X62273142Y-21816500D01*
X62284958Y-21850267D01*
X62284959Y-21850269D01*
X62372897Y-21990223D01*
X62489776Y-22107102D01*
X62608081Y-22181437D01*
X62629733Y-22195042D01*
X62785748Y-22249634D01*
X62950000Y-22268141D01*
X63114252Y-22249634D01*
X63270267Y-22195042D01*
X63382964Y-22124230D01*
X63451285Y-22104924D01*
X63517036Y-22124230D01*
X63629733Y-22195042D01*
X63785748Y-22249634D01*
X63950000Y-22268141D01*
X64114252Y-22249634D01*
X64270267Y-22195042D01*
X64410223Y-22107102D01*
X64527102Y-21990223D01*
X64615042Y-21850267D01*
X64655071Y-21735869D01*
X64696449Y-21678178D01*
X64762449Y-21652016D01*
X64832117Y-21665689D01*
X64883333Y-21714856D01*
X64900000Y-21777485D01*
X64900000Y-23822514D01*
X64879998Y-23890635D01*
X64826342Y-23937128D01*
X64756068Y-23947232D01*
X64691488Y-23917738D01*
X64655071Y-23864129D01*
X64632888Y-23800734D01*
X64615042Y-23749733D01*
X64545880Y-23639662D01*
X64527102Y-23609776D01*
X64410223Y-23492897D01*
X64270269Y-23404959D01*
X64270267Y-23404958D01*
X64114252Y-23350366D01*
X63950000Y-23331859D01*
X63785748Y-23350366D01*
X63785745Y-23350366D01*
X63785745Y-23350367D01*
X63629732Y-23404958D01*
X63629729Y-23404959D01*
X63517036Y-23475769D01*
X63448714Y-23495075D01*
X63382964Y-23475769D01*
X63270270Y-23404959D01*
X63270267Y-23404958D01*
X63114252Y-23350366D01*
X62950000Y-23331859D01*
X62785748Y-23350366D01*
X62785745Y-23350366D01*
X62785745Y-23350367D01*
X62629732Y-23404958D01*
X62629730Y-23404959D01*
X62489776Y-23492897D01*
X62372897Y-23609776D01*
X62284959Y-23749730D01*
X62284958Y-23749732D01*
X62284958Y-23749733D01*
X62230366Y-23905748D01*
X62211859Y-24070000D01*
X62230366Y-24234252D01*
X62274485Y-24360337D01*
X62284958Y-24390267D01*
X62284959Y-24390269D01*
X62372897Y-24530223D01*
X62489776Y-24647102D01*
X62608081Y-24721437D01*
X62629733Y-24735042D01*
X62785748Y-24789634D01*
X62950000Y-24808141D01*
X63114252Y-24789634D01*
X63270267Y-24735042D01*
X63382964Y-24664230D01*
X63451285Y-24644924D01*
X63517036Y-24664230D01*
X63629733Y-24735042D01*
X63785748Y-24789634D01*
X63950000Y-24808141D01*
X64114252Y-24789634D01*
X64270267Y-24735042D01*
X64410223Y-24647102D01*
X64527102Y-24530223D01*
X64615042Y-24390267D01*
X64655071Y-24275869D01*
X64696449Y-24218178D01*
X64762449Y-24192016D01*
X64832117Y-24205689D01*
X64883333Y-24254856D01*
X64900000Y-24317485D01*
X64900000Y-44823129D01*
X64879998Y-44891250D01*
X64826342Y-44937743D01*
X64756068Y-44947847D01*
X64691488Y-44918353D01*
X64684905Y-44912224D01*
X64625912Y-44853231D01*
X64481182Y-44762290D01*
X64381270Y-44727330D01*
X64319850Y-44705838D01*
X64319848Y-44705837D01*
X64319850Y-44705837D01*
X64150000Y-44686701D01*
X63980151Y-44705837D01*
X63818816Y-44762291D01*
X63818813Y-44762292D01*
X63801047Y-44773456D01*
X63732726Y-44792762D01*
X63664813Y-44772067D01*
X63618869Y-44717939D01*
X63608011Y-44666769D01*
X63608011Y-44608365D01*
X63609760Y-44592523D01*
X63609467Y-44592496D01*
X63610211Y-44584610D01*
X63610213Y-44584603D01*
X63608073Y-44516511D01*
X63608011Y-44512553D01*
X63608011Y-44484661D01*
X63608011Y-44484655D01*
X63607504Y-44480646D01*
X63606573Y-44468817D01*
X63605185Y-44424622D01*
X63599531Y-44405163D01*
X63595523Y-44385808D01*
X63592985Y-44365714D01*
X63576706Y-44324598D01*
X63572867Y-44313383D01*
X63560530Y-44270918D01*
X63550214Y-44253475D01*
X63541516Y-44235720D01*
X63534063Y-44216894D01*
X63508074Y-44181123D01*
X63501563Y-44171211D01*
X63479053Y-44133149D01*
X63464725Y-44118821D01*
X63451895Y-44103800D01*
X63439983Y-44087404D01*
X63439980Y-44087402D01*
X63439980Y-44087401D01*
X63405907Y-44059213D01*
X63397129Y-44051224D01*
X63168596Y-43822691D01*
X63134570Y-43760379D01*
X63139635Y-43689564D01*
X63182182Y-43632728D01*
X63243582Y-43608388D01*
X63369850Y-43594162D01*
X63531183Y-43537709D01*
X63675909Y-43446771D01*
X63796771Y-43325909D01*
X63887709Y-43181183D01*
X63944162Y-43019850D01*
X63963299Y-42850000D01*
X63944162Y-42680150D01*
X63887709Y-42518817D01*
X63796771Y-42374091D01*
X63796769Y-42374089D01*
X63796768Y-42374087D01*
X63675912Y-42253231D01*
X63531182Y-42162290D01*
X63413686Y-42121177D01*
X63369850Y-42105838D01*
X63369848Y-42105837D01*
X63369850Y-42105837D01*
X63200000Y-42086701D01*
X63030151Y-42105837D01*
X62868817Y-42162290D01*
X62724087Y-42253231D01*
X62603231Y-42374087D01*
X62512290Y-42518817D01*
X62455837Y-42680151D01*
X62436701Y-42850000D01*
X62455837Y-43019848D01*
X62512290Y-43181182D01*
X62521142Y-43195269D01*
X62540754Y-43226482D01*
X62541801Y-43228147D01*
X62561107Y-43296468D01*
X62540412Y-43364382D01*
X62486285Y-43410325D01*
X62415912Y-43419712D01*
X62393504Y-43414115D01*
X62369850Y-43405838D01*
X62369846Y-43405837D01*
X62369845Y-43405837D01*
X62200000Y-43386701D01*
X62030151Y-43405837D01*
X61868817Y-43462290D01*
X61724087Y-43553231D01*
X61603231Y-43674087D01*
X61512290Y-43818817D01*
X61455837Y-43980151D01*
X61436701Y-44150000D01*
X61455837Y-44319848D01*
X61469554Y-44359048D01*
X61473174Y-44429952D01*
X61455153Y-44466944D01*
X61456993Y-44468100D01*
X61362292Y-44618814D01*
X61362291Y-44618816D01*
X61312087Y-44762292D01*
X61305838Y-44780150D01*
X61295588Y-44871116D01*
X61293011Y-44893989D01*
X61288802Y-44915025D01*
X61286818Y-44921853D01*
X61279901Y-44965524D01*
X61277495Y-44977144D01*
X61266500Y-45019969D01*
X61266500Y-45040223D01*
X61264949Y-45059933D01*
X61261780Y-45079942D01*
X61265941Y-45123961D01*
X61266500Y-45135819D01*
X61266500Y-47447378D01*
X61246498Y-47515499D01*
X61192842Y-47561992D01*
X61122568Y-47572096D01*
X61098885Y-47566307D01*
X61051147Y-47549603D01*
X61051150Y-47549603D01*
X60881300Y-47530467D01*
X60711455Y-47549603D01*
X60711453Y-47549603D01*
X60711450Y-47549604D01*
X60573343Y-47597930D01*
X60502438Y-47601548D01*
X60464692Y-47585687D01*
X60437485Y-47568592D01*
X60437483Y-47568591D01*
X60383221Y-47549604D01*
X60276150Y-47512138D01*
X60276148Y-47512137D01*
X60276150Y-47512137D01*
X60106300Y-47493001D01*
X59936451Y-47512137D01*
X59775117Y-47568590D01*
X59630387Y-47659531D01*
X59509531Y-47780387D01*
X59418590Y-47925117D01*
X59362138Y-48086447D01*
X59360564Y-48093348D01*
X59359066Y-48093006D01*
X59334752Y-48150871D01*
X59276228Y-48191064D01*
X59237047Y-48197311D01*
X57187639Y-48197311D01*
X57119518Y-48177309D01*
X57073025Y-48123653D01*
X57062431Y-48057203D01*
X57063299Y-48049503D01*
X57044162Y-47879653D01*
X56995772Y-47741365D01*
X56992153Y-47670462D01*
X56995768Y-47658150D01*
X57044162Y-47519850D01*
X57063299Y-47350000D01*
X57044162Y-47180150D01*
X56987709Y-47018817D01*
X56896771Y-46874091D01*
X56896769Y-46874089D01*
X56896768Y-46874087D01*
X56775912Y-46753231D01*
X56739298Y-46730225D01*
X56631183Y-46662291D01*
X56593883Y-46649239D01*
X56530384Y-46627019D01*
X56472692Y-46585640D01*
X56446530Y-46519639D01*
X56446000Y-46508090D01*
X56446000Y-46107812D01*
X56466002Y-46039691D01*
X56519658Y-45993198D01*
X56557893Y-45982604D01*
X56566183Y-45981669D01*
X56584252Y-45979634D01*
X56740267Y-45925042D01*
X56880223Y-45837102D01*
X56997102Y-45720223D01*
X57085042Y-45580267D01*
X57139634Y-45424252D01*
X57158141Y-45260000D01*
X57139634Y-45095748D01*
X57085042Y-44939733D01*
X57039609Y-44867427D01*
X56997243Y-44800000D01*
X57836701Y-44800000D01*
X57855837Y-44969848D01*
X57912290Y-45131182D01*
X58003231Y-45275912D01*
X58124087Y-45396768D01*
X58124089Y-45396769D01*
X58124091Y-45396771D01*
X58268817Y-45487709D01*
X58430150Y-45544162D01*
X58430149Y-45544162D01*
X58447348Y-45546099D01*
X58600000Y-45563299D01*
X58769850Y-45544162D01*
X58931183Y-45487709D01*
X59075909Y-45396771D01*
X59196771Y-45275909D01*
X59287709Y-45131183D01*
X59344162Y-44969850D01*
X59363299Y-44800000D01*
X59344162Y-44630150D01*
X59287709Y-44468817D01*
X59196771Y-44324091D01*
X59196769Y-44324089D01*
X59196768Y-44324087D01*
X59075912Y-44203231D01*
X58931182Y-44112290D01*
X58830619Y-44077102D01*
X58769850Y-44055838D01*
X58769848Y-44055837D01*
X58769850Y-44055837D01*
X58600000Y-44036701D01*
X58430151Y-44055837D01*
X58268817Y-44112290D01*
X58124087Y-44203231D01*
X58003231Y-44324087D01*
X57912290Y-44468817D01*
X57855837Y-44630151D01*
X57836701Y-44800000D01*
X56997243Y-44800000D01*
X56997102Y-44799776D01*
X56880223Y-44682897D01*
X56740269Y-44594959D01*
X56740267Y-44594958D01*
X56584257Y-44540367D01*
X56584243Y-44540364D01*
X56557890Y-44537395D01*
X56492438Y-44509891D01*
X56452246Y-44451366D01*
X56446000Y-44412188D01*
X56446000Y-44361378D01*
X56466002Y-44293257D01*
X56519658Y-44246764D01*
X56586106Y-44236170D01*
X56605000Y-44238299D01*
X56774850Y-44219162D01*
X56936183Y-44162709D01*
X57080909Y-44071771D01*
X57201771Y-43950909D01*
X57292709Y-43806183D01*
X57349162Y-43644850D01*
X57368299Y-43475000D01*
X57349162Y-43305150D01*
X57292709Y-43143817D01*
X57201771Y-42999091D01*
X57201769Y-42999089D01*
X57201768Y-42999087D01*
X57080912Y-42878231D01*
X56936182Y-42787290D01*
X56808915Y-42742758D01*
X56774850Y-42730838D01*
X56774848Y-42730837D01*
X56774850Y-42730837D01*
X56605000Y-42711701D01*
X56435149Y-42730837D01*
X56383746Y-42748824D01*
X56312841Y-42752442D01*
X56265427Y-42729855D01*
X56258842Y-42724802D01*
X56246452Y-42713936D01*
X55161051Y-41628535D01*
X55150182Y-41616142D01*
X55132231Y-41592747D01*
X55102283Y-41569767D01*
X55102283Y-41569766D01*
X55012954Y-41501221D01*
X55012951Y-41501220D01*
X54930036Y-41466876D01*
X54874050Y-41443686D01*
X54762414Y-41428989D01*
X54762412Y-41428989D01*
X54724989Y-41424062D01*
X54695752Y-41427911D01*
X54679306Y-41428989D01*
X51388827Y-41428989D01*
X51320706Y-41408987D01*
X51274213Y-41355331D01*
X51271045Y-41335461D01*
X56847162Y-41335461D01*
X56866298Y-41505309D01*
X56922751Y-41666643D01*
X57013692Y-41811373D01*
X57134548Y-41932229D01*
X57134550Y-41932230D01*
X57134552Y-41932232D01*
X57279278Y-42023170D01*
X57440611Y-42079623D01*
X57440610Y-42079623D01*
X57457809Y-42081560D01*
X57610461Y-42098760D01*
X57780311Y-42079623D01*
X57941644Y-42023170D01*
X58026296Y-41969978D01*
X58094616Y-41950673D01*
X58134946Y-41957736D01*
X58233248Y-41992134D01*
X58397500Y-42010641D01*
X58561752Y-41992134D01*
X58687011Y-41948304D01*
X58757915Y-41944684D01*
X58770238Y-41948303D01*
X58915110Y-41998996D01*
X59079362Y-42017503D01*
X59168707Y-42007435D01*
X59238635Y-42019684D01*
X59249848Y-42025956D01*
X59386629Y-42111901D01*
X59542644Y-42166493D01*
X59706896Y-42185000D01*
X59871148Y-42166493D01*
X59985442Y-42126499D01*
X60056342Y-42122880D01*
X60117948Y-42158169D01*
X60150695Y-42221162D01*
X60144187Y-42291860D01*
X60116150Y-42334524D01*
X60035897Y-42414777D01*
X59947959Y-42554730D01*
X59947958Y-42554732D01*
X59905854Y-42675060D01*
X59893366Y-42710748D01*
X59874859Y-42875000D01*
X59893366Y-43039252D01*
X59937382Y-43165042D01*
X59947958Y-43195267D01*
X59947959Y-43195269D01*
X60035897Y-43335223D01*
X60152776Y-43452102D01*
X60229006Y-43500000D01*
X60292733Y-43540042D01*
X60448748Y-43594634D01*
X60613000Y-43613141D01*
X60777252Y-43594634D01*
X60933267Y-43540042D01*
X61073223Y-43452102D01*
X61190102Y-43335223D01*
X61278042Y-43195267D01*
X61313508Y-43093911D01*
X61354886Y-43036219D01*
X61390821Y-43016597D01*
X61395267Y-43015042D01*
X61535223Y-42927102D01*
X61652102Y-42810223D01*
X61740042Y-42670267D01*
X61772415Y-42577748D01*
X61813791Y-42520060D01*
X61849722Y-42500439D01*
X61948289Y-42465950D01*
X62088245Y-42378010D01*
X62205124Y-42261131D01*
X62293064Y-42121175D01*
X62347656Y-41965160D01*
X62366163Y-41800908D01*
X62347656Y-41636656D01*
X62293064Y-41480641D01*
X62260609Y-41428989D01*
X62205124Y-41340684D01*
X62088245Y-41223805D01*
X61948291Y-41135867D01*
X61948289Y-41135866D01*
X61921785Y-41126592D01*
X61792274Y-41081274D01*
X61628022Y-41062767D01*
X61463770Y-41081274D01*
X61463767Y-41081274D01*
X61463767Y-41081275D01*
X61307754Y-41135866D01*
X61307752Y-41135867D01*
X61167798Y-41223805D01*
X61050919Y-41340684D01*
X60962981Y-41480638D01*
X60930606Y-41573157D01*
X60889226Y-41630848D01*
X60853294Y-41650469D01*
X60754728Y-41684959D01*
X60608786Y-41776662D01*
X60607680Y-41774903D01*
X60551322Y-41797896D01*
X60481522Y-41784918D01*
X60429819Y-41736263D01*
X60412628Y-41667379D01*
X60419592Y-41630937D01*
X60426530Y-41611111D01*
X60445037Y-41446859D01*
X60426530Y-41282607D01*
X60371938Y-41126592D01*
X60311340Y-41030150D01*
X60283998Y-40986635D01*
X60167119Y-40869756D01*
X60027165Y-40781818D01*
X60027163Y-40781817D01*
X59951570Y-40755366D01*
X59871148Y-40727225D01*
X59706896Y-40708718D01*
X59706894Y-40708718D01*
X59617550Y-40718784D01*
X59547618Y-40706534D01*
X59536408Y-40700263D01*
X59399632Y-40614321D01*
X59399629Y-40614320D01*
X59380021Y-40607459D01*
X59243614Y-40559728D01*
X59079362Y-40541221D01*
X58915109Y-40559728D01*
X58789850Y-40603558D01*
X58718946Y-40607176D01*
X58706621Y-40603558D01*
X58698988Y-40600887D01*
X58561752Y-40552866D01*
X58397500Y-40534359D01*
X58233248Y-40552866D01*
X58233245Y-40552866D01*
X58233245Y-40552867D01*
X58077233Y-40607457D01*
X58077230Y-40607459D01*
X58038919Y-40631531D01*
X57970598Y-40650836D01*
X57930270Y-40643772D01*
X57908873Y-40636285D01*
X57780311Y-40591299D01*
X57780309Y-40591298D01*
X57780311Y-40591298D01*
X57610461Y-40572162D01*
X57440612Y-40591298D01*
X57279278Y-40647751D01*
X57134548Y-40738692D01*
X57013692Y-40859548D01*
X56922751Y-41004278D01*
X56866298Y-41165612D01*
X56847162Y-41335461D01*
X51271045Y-41335461D01*
X51263619Y-41288881D01*
X51278141Y-41160000D01*
X51259634Y-40995748D01*
X51205042Y-40839733D01*
X51174542Y-40791192D01*
X51117102Y-40699776D01*
X51000223Y-40582897D01*
X50860269Y-40494959D01*
X50860267Y-40494958D01*
X50748468Y-40455838D01*
X50704252Y-40440366D01*
X50540000Y-40421859D01*
X50375748Y-40440366D01*
X50375745Y-40440366D01*
X50375745Y-40440367D01*
X50219732Y-40494958D01*
X50219730Y-40494959D01*
X50079776Y-40582897D01*
X49962897Y-40699776D01*
X49874959Y-40839730D01*
X49874958Y-40839732D01*
X49845857Y-40922898D01*
X49820366Y-40995748D01*
X49801859Y-41160000D01*
X49815952Y-41285079D01*
X49816381Y-41288881D01*
X49804132Y-41358813D01*
X49756019Y-41411021D01*
X49691173Y-41428989D01*
X47318484Y-41428989D01*
X47250363Y-41408987D01*
X47203870Y-41355331D01*
X47193276Y-41317096D01*
X47182765Y-41223806D01*
X47182123Y-41218111D01*
X47125670Y-41056778D01*
X47034732Y-40912052D01*
X47034730Y-40912050D01*
X47034729Y-40912048D01*
X46913873Y-40791192D01*
X46769143Y-40700251D01*
X46666262Y-40664252D01*
X46607811Y-40643799D01*
X46607809Y-40643798D01*
X46607811Y-40643798D01*
X46437961Y-40624662D01*
X46268113Y-40643798D01*
X46204319Y-40666120D01*
X46133415Y-40669738D01*
X46073611Y-40636285D01*
X46060223Y-40622897D01*
X45920269Y-40534959D01*
X45920267Y-40534958D01*
X45849338Y-40510139D01*
X45764252Y-40480366D01*
X45600000Y-40461859D01*
X45435748Y-40480366D01*
X45435745Y-40480366D01*
X45435745Y-40480367D01*
X45279732Y-40534958D01*
X45279731Y-40534958D01*
X45205529Y-40581582D01*
X45137207Y-40600887D01*
X45071458Y-40581581D01*
X44961185Y-40512292D01*
X44961183Y-40512291D01*
X44926057Y-40500000D01*
X44799850Y-40455838D01*
X44799848Y-40455837D01*
X44799850Y-40455837D01*
X44647198Y-40438638D01*
X44630000Y-40436701D01*
X44629999Y-40436701D01*
X44526678Y-40448342D01*
X44456746Y-40436092D01*
X44404538Y-40387979D01*
X44386630Y-40319278D01*
X44408707Y-40251801D01*
X44423472Y-40234043D01*
X45607514Y-39050000D01*
X50436701Y-39050000D01*
X50455837Y-39219848D01*
X50512290Y-39381182D01*
X50603231Y-39525912D01*
X50724087Y-39646768D01*
X50724089Y-39646769D01*
X50724091Y-39646771D01*
X50868817Y-39737709D01*
X51030150Y-39794162D01*
X51030149Y-39794162D01*
X51047348Y-39796099D01*
X51200000Y-39813299D01*
X51369850Y-39794162D01*
X51531183Y-39737709D01*
X51675909Y-39646771D01*
X51796771Y-39525909D01*
X51887709Y-39381183D01*
X51944162Y-39219850D01*
X51963299Y-39050000D01*
X51944162Y-38880150D01*
X51887709Y-38718817D01*
X51796771Y-38574091D01*
X51796769Y-38574089D01*
X51796768Y-38574087D01*
X51675912Y-38453231D01*
X51531182Y-38362290D01*
X51426246Y-38325572D01*
X51369850Y-38305838D01*
X51369848Y-38305837D01*
X51369850Y-38305837D01*
X51200000Y-38286701D01*
X51030151Y-38305837D01*
X50868817Y-38362290D01*
X50724087Y-38453231D01*
X50603231Y-38574087D01*
X50512290Y-38718817D01*
X50455837Y-38880151D01*
X50436701Y-39050000D01*
X45607514Y-39050000D01*
X46371458Y-38286056D01*
X46383841Y-38275196D01*
X46407242Y-38257242D01*
X46421899Y-38238141D01*
X46430706Y-38226664D01*
X46430709Y-38226659D01*
X46498768Y-38137964D01*
X46532470Y-38056596D01*
X46556303Y-37999061D01*
X46571000Y-37887425D01*
X46571000Y-37887422D01*
X46572924Y-37872809D01*
X46594916Y-37821100D01*
X46593006Y-37819900D01*
X46596769Y-37813910D01*
X46596771Y-37813909D01*
X46687709Y-37669183D01*
X46744162Y-37507850D01*
X46744210Y-37507421D01*
X46744319Y-37507161D01*
X46745739Y-37500944D01*
X46746827Y-37501192D01*
X46771709Y-37441967D01*
X46830230Y-37401769D01*
X46869419Y-37395520D01*
X51235814Y-37395520D01*
X51303935Y-37415522D01*
X51324909Y-37432425D01*
X52811138Y-38918653D01*
X52845163Y-38980965D01*
X52847251Y-38993639D01*
X52847588Y-38996630D01*
X52855838Y-39069850D01*
X52855838Y-39069852D01*
X52855839Y-39069853D01*
X52912290Y-39231182D01*
X53003231Y-39375912D01*
X53124087Y-39496768D01*
X53124089Y-39496769D01*
X53124091Y-39496771D01*
X53268817Y-39587709D01*
X53430150Y-39644162D01*
X53430149Y-39644162D01*
X53447348Y-39646099D01*
X53600000Y-39663299D01*
X53769850Y-39644162D01*
X53931183Y-39587709D01*
X53932959Y-39586592D01*
X53934271Y-39586222D01*
X53937563Y-39584637D01*
X53937840Y-39585213D01*
X54001279Y-39567283D01*
X54062182Y-39585166D01*
X54062437Y-39584637D01*
X54065652Y-39586185D01*
X54067040Y-39586592D01*
X54068817Y-39587709D01*
X54230150Y-39644162D01*
X54230149Y-39644162D01*
X54247348Y-39646099D01*
X54400000Y-39663299D01*
X54569850Y-39644162D01*
X54731183Y-39587709D01*
X54732959Y-39586592D01*
X54734271Y-39586222D01*
X54737563Y-39584637D01*
X54737840Y-39585213D01*
X54801279Y-39567283D01*
X54862182Y-39585166D01*
X54862437Y-39584637D01*
X54865652Y-39586185D01*
X54867040Y-39586592D01*
X54868817Y-39587709D01*
X55030150Y-39644162D01*
X55030149Y-39644162D01*
X55047348Y-39646099D01*
X55200000Y-39663299D01*
X55369850Y-39644162D01*
X55531183Y-39587709D01*
X55532959Y-39586592D01*
X55534271Y-39586222D01*
X55537563Y-39584637D01*
X55537840Y-39585213D01*
X55601279Y-39567283D01*
X55662182Y-39585166D01*
X55662437Y-39584637D01*
X55665652Y-39586185D01*
X55667040Y-39586592D01*
X55668817Y-39587709D01*
X55830150Y-39644162D01*
X55830149Y-39644162D01*
X55847348Y-39646099D01*
X56000000Y-39663299D01*
X56169850Y-39644162D01*
X56331183Y-39587709D01*
X56475909Y-39496771D01*
X56596771Y-39375909D01*
X56687709Y-39231183D01*
X56744162Y-39069850D01*
X56763299Y-38900000D01*
X60836701Y-38900000D01*
X60855837Y-39069848D01*
X60912290Y-39231182D01*
X61003231Y-39375912D01*
X61124087Y-39496768D01*
X61124089Y-39496769D01*
X61124091Y-39496771D01*
X61268817Y-39587709D01*
X61430150Y-39644162D01*
X61430149Y-39644162D01*
X61447348Y-39646099D01*
X61600000Y-39663299D01*
X61769850Y-39644162D01*
X61931183Y-39587709D01*
X62075909Y-39496771D01*
X62122680Y-39450000D01*
X63036701Y-39450000D01*
X63055837Y-39619848D01*
X63112290Y-39781182D01*
X63203231Y-39925912D01*
X63324087Y-40046768D01*
X63324089Y-40046769D01*
X63324091Y-40046771D01*
X63468817Y-40137709D01*
X63630150Y-40194162D01*
X63630149Y-40194162D01*
X63647348Y-40196099D01*
X63800000Y-40213299D01*
X63969850Y-40194162D01*
X64131183Y-40137709D01*
X64275909Y-40046771D01*
X64396771Y-39925909D01*
X64487709Y-39781183D01*
X64544162Y-39619850D01*
X64563299Y-39450000D01*
X64544162Y-39280150D01*
X64487709Y-39118817D01*
X64396771Y-38974091D01*
X64396769Y-38974089D01*
X64396768Y-38974087D01*
X64275912Y-38853231D01*
X64131182Y-38762290D01*
X64031270Y-38727330D01*
X63969850Y-38705838D01*
X63969848Y-38705837D01*
X63969850Y-38705837D01*
X63800000Y-38686701D01*
X63630151Y-38705837D01*
X63468817Y-38762290D01*
X63324087Y-38853231D01*
X63203231Y-38974087D01*
X63112290Y-39118817D01*
X63055837Y-39280151D01*
X63036701Y-39450000D01*
X62122680Y-39450000D01*
X62196771Y-39375909D01*
X62287709Y-39231183D01*
X62344162Y-39069850D01*
X62363299Y-38900000D01*
X62344162Y-38730150D01*
X62287709Y-38568817D01*
X62196771Y-38424091D01*
X62196769Y-38424089D01*
X62196768Y-38424087D01*
X62075912Y-38303231D01*
X61931182Y-38212290D01*
X61793901Y-38164254D01*
X61769850Y-38155838D01*
X61769848Y-38155837D01*
X61769850Y-38155837D01*
X61600000Y-38136701D01*
X61430151Y-38155837D01*
X61268817Y-38212290D01*
X61124087Y-38303231D01*
X61003231Y-38424087D01*
X60912290Y-38568817D01*
X60855837Y-38730151D01*
X60836701Y-38900000D01*
X56763299Y-38900000D01*
X56744162Y-38730150D01*
X56687709Y-38568817D01*
X56596771Y-38424091D01*
X56596769Y-38424089D01*
X56596768Y-38424087D01*
X56475912Y-38303231D01*
X56331182Y-38212290D01*
X56193901Y-38164254D01*
X56169850Y-38155838D01*
X56169848Y-38155837D01*
X56169850Y-38155837D01*
X56000000Y-38136701D01*
X55830151Y-38155837D01*
X55668817Y-38212290D01*
X55668811Y-38212293D01*
X55667025Y-38213416D01*
X55665708Y-38213787D01*
X55662442Y-38215361D01*
X55662166Y-38214788D01*
X55598702Y-38232715D01*
X55537810Y-38214835D01*
X55537558Y-38215361D01*
X55534369Y-38213825D01*
X55532975Y-38213416D01*
X55531188Y-38212293D01*
X55531182Y-38212290D01*
X55393901Y-38164254D01*
X55369850Y-38155838D01*
X55369848Y-38155837D01*
X55369850Y-38155837D01*
X55200000Y-38136701D01*
X55030151Y-38155837D01*
X54868817Y-38212290D01*
X54868811Y-38212293D01*
X54867025Y-38213416D01*
X54865708Y-38213787D01*
X54862442Y-38215361D01*
X54862166Y-38214788D01*
X54798702Y-38232715D01*
X54737810Y-38214835D01*
X54737558Y-38215361D01*
X54734369Y-38213825D01*
X54732975Y-38213416D01*
X54731188Y-38212293D01*
X54731182Y-38212290D01*
X54593901Y-38164254D01*
X54569850Y-38155838D01*
X54569848Y-38155837D01*
X54569850Y-38155837D01*
X54400000Y-38136701D01*
X54230151Y-38155837D01*
X54068817Y-38212290D01*
X54068811Y-38212293D01*
X54067025Y-38213416D01*
X54065708Y-38213787D01*
X54062442Y-38215361D01*
X54062166Y-38214788D01*
X53998702Y-38232715D01*
X53937810Y-38214835D01*
X53937558Y-38215361D01*
X53934369Y-38213825D01*
X53932975Y-38213416D01*
X53931188Y-38212293D01*
X53931182Y-38212290D01*
X53769853Y-38155839D01*
X53769852Y-38155838D01*
X53769850Y-38155838D01*
X53702450Y-38148243D01*
X53693639Y-38147251D01*
X53628186Y-38119746D01*
X53618653Y-38111138D01*
X52793611Y-37286096D01*
X51960582Y-36453066D01*
X51949713Y-36440673D01*
X51931761Y-36417277D01*
X51916788Y-36405788D01*
X51901814Y-36394298D01*
X51812484Y-36325752D01*
X51812483Y-36325751D01*
X51812481Y-36325750D01*
X51722218Y-36288363D01*
X51673581Y-36268217D01*
X51561945Y-36253520D01*
X51561943Y-36253520D01*
X51524520Y-36248593D01*
X51495283Y-36252442D01*
X51478837Y-36253520D01*
X44488186Y-36253520D01*
X44420065Y-36233518D01*
X44373572Y-36179862D01*
X44363468Y-36109588D01*
X44392962Y-36045008D01*
X44399091Y-36038425D01*
X44577516Y-35860000D01*
X61484701Y-35860000D01*
X61503837Y-36029848D01*
X61560290Y-36191182D01*
X61580080Y-36222677D01*
X61651229Y-36335909D01*
X61651230Y-36335910D01*
X61654994Y-36341900D01*
X61652944Y-36343187D01*
X61675486Y-36398419D01*
X61669071Y-36452847D01*
X61660515Y-36477298D01*
X61641379Y-36647149D01*
X61660515Y-36816997D01*
X61716968Y-36978331D01*
X61807909Y-37123061D01*
X61928765Y-37243917D01*
X61928767Y-37243918D01*
X61928769Y-37243920D01*
X62073495Y-37334858D01*
X62234828Y-37391311D01*
X62234827Y-37391311D01*
X62251390Y-37393177D01*
X62404678Y-37410448D01*
X62574528Y-37391311D01*
X62735861Y-37334858D01*
X62741906Y-37331059D01*
X62810224Y-37311752D01*
X62850558Y-37318815D01*
X62980150Y-37364162D01*
X62980149Y-37364162D01*
X62997348Y-37366099D01*
X63150000Y-37383299D01*
X63319850Y-37364162D01*
X63481183Y-37307709D01*
X63625909Y-37216771D01*
X63746771Y-37095909D01*
X63837709Y-36951183D01*
X63894162Y-36789850D01*
X63913299Y-36620000D01*
X63894162Y-36450150D01*
X63837709Y-36288817D01*
X63746771Y-36144091D01*
X63746769Y-36144089D01*
X63746768Y-36144087D01*
X63625912Y-36023231D01*
X63481182Y-35932290D01*
X63352292Y-35887190D01*
X63319850Y-35875838D01*
X63319848Y-35875837D01*
X63319850Y-35875837D01*
X63162124Y-35858067D01*
X63150000Y-35856701D01*
X63149999Y-35856701D01*
X63137871Y-35858067D01*
X63067940Y-35845813D01*
X63015735Y-35797697D01*
X62998563Y-35746964D01*
X62992162Y-35690151D01*
X62983100Y-35664254D01*
X62935709Y-35528817D01*
X62844771Y-35384091D01*
X62844769Y-35384089D01*
X62844768Y-35384087D01*
X62723912Y-35263231D01*
X62702137Y-35249549D01*
X62662537Y-35224666D01*
X62579182Y-35172290D01*
X62468571Y-35133586D01*
X62417850Y-35115838D01*
X62417848Y-35115837D01*
X62417850Y-35115837D01*
X62248000Y-35096701D01*
X62078151Y-35115837D01*
X61916817Y-35172290D01*
X61772087Y-35263231D01*
X61651231Y-35384087D01*
X61560290Y-35528817D01*
X61503837Y-35690151D01*
X61484701Y-35860000D01*
X44577516Y-35860000D01*
X45577721Y-34859795D01*
X49171458Y-31266056D01*
X49183841Y-31255196D01*
X49207242Y-31237242D01*
X49230052Y-31207514D01*
X49241089Y-31193132D01*
X49241090Y-31193129D01*
X49241094Y-31193125D01*
X49298768Y-31117964D01*
X49337087Y-31025452D01*
X49356303Y-30979061D01*
X49371000Y-30867425D01*
X49371000Y-30867422D01*
X49375927Y-30830000D01*
X49373595Y-30812290D01*
X49372078Y-30800763D01*
X49371000Y-30784317D01*
X49371000Y-30252314D01*
X49391002Y-30184193D01*
X49395548Y-30177853D01*
X49396767Y-30175912D01*
X49396771Y-30175909D01*
X49487709Y-30031183D01*
X49544162Y-29869850D01*
X49563299Y-29700000D01*
X49544162Y-29530150D01*
X49487709Y-29368817D01*
X49396771Y-29224091D01*
X49396769Y-29224089D01*
X49396768Y-29224087D01*
X49275912Y-29103231D01*
X49244768Y-29083662D01*
X49210757Y-29062291D01*
X49131182Y-29012290D01*
X49027209Y-28975909D01*
X48969850Y-28955838D01*
X48969848Y-28955837D01*
X48969850Y-28955837D01*
X48937634Y-28952208D01*
X48872181Y-28924705D01*
X48831988Y-28866181D01*
X48829815Y-28795218D01*
X48866353Y-28734345D01*
X48930001Y-28702890D01*
X48951741Y-28701000D01*
X51614719Y-28701000D01*
X51682840Y-28721002D01*
X51729333Y-28774658D01*
X51739437Y-28844932D01*
X51709943Y-28909512D01*
X51681755Y-28933687D01*
X51539776Y-29022897D01*
X51422897Y-29139776D01*
X51334959Y-29279730D01*
X51334958Y-29279732D01*
X51296359Y-29390042D01*
X51280366Y-29435748D01*
X51261859Y-29600000D01*
X51280366Y-29764252D01*
X51307711Y-29842399D01*
X51334958Y-29920267D01*
X51334959Y-29920269D01*
X51422897Y-30060223D01*
X51539776Y-30177102D01*
X51627387Y-30232151D01*
X51679733Y-30265042D01*
X51835748Y-30319634D01*
X52000000Y-30338141D01*
X52164252Y-30319634D01*
X52320267Y-30265042D01*
X52460223Y-30177102D01*
X52577102Y-30060223D01*
X52665042Y-29920267D01*
X52719634Y-29764252D01*
X52738141Y-29600000D01*
X52719634Y-29435748D01*
X52665042Y-29279733D01*
X52630080Y-29224091D01*
X52577102Y-29139776D01*
X52460223Y-29022897D01*
X52318245Y-28933687D01*
X52271207Y-28880509D01*
X52260387Y-28810341D01*
X52289220Y-28745463D01*
X52348551Y-28706472D01*
X52385281Y-28701000D01*
X55848259Y-28701000D01*
X55916380Y-28721002D01*
X55962873Y-28774658D01*
X55972977Y-28844932D01*
X55943483Y-28909512D01*
X55883757Y-28947896D01*
X55862366Y-28952208D01*
X55830151Y-28955837D01*
X55668817Y-29012290D01*
X55524087Y-29103231D01*
X55403231Y-29224087D01*
X55312290Y-29368818D01*
X55310191Y-29374817D01*
X55268811Y-29432508D01*
X55202809Y-29458668D01*
X55133142Y-29444992D01*
X55124690Y-29440151D01*
X55124513Y-29440066D01*
X55124510Y-29440065D01*
X54963180Y-29383613D01*
X54963178Y-29383612D01*
X54963180Y-29383612D01*
X54793330Y-29364476D01*
X54623481Y-29383612D01*
X54462147Y-29440065D01*
X54317417Y-29531006D01*
X54196561Y-29651862D01*
X54105620Y-29796592D01*
X54049167Y-29957926D01*
X54033740Y-30094855D01*
X54006237Y-30160308D01*
X53947713Y-30200501D01*
X53922640Y-30205956D01*
X53817190Y-30217837D01*
X53655856Y-30274290D01*
X53511126Y-30365231D01*
X53390270Y-30486087D01*
X53299329Y-30630817D01*
X53242876Y-30792151D01*
X53223740Y-30962000D01*
X53242876Y-31131848D01*
X53301667Y-31299862D01*
X53300447Y-31300288D01*
X53310780Y-31363075D01*
X53282604Y-31428241D01*
X53223670Y-31467829D01*
X53152688Y-31469271D01*
X53144109Y-31466608D01*
X52989202Y-31412404D01*
X52989205Y-31412404D01*
X52819355Y-31393268D01*
X52649506Y-31412404D01*
X52488172Y-31468857D01*
X52343442Y-31559798D01*
X52222586Y-31680654D01*
X52131646Y-31825383D01*
X52099877Y-31916171D01*
X52058497Y-31973862D01*
X52022565Y-31993483D01*
X51931777Y-32025252D01*
X51787048Y-32116192D01*
X51666192Y-32237048D01*
X51575251Y-32381778D01*
X51518800Y-32543107D01*
X51518799Y-32543111D01*
X51513237Y-32592467D01*
X51512763Y-32596682D01*
X51485258Y-32662134D01*
X51426734Y-32702326D01*
X51401663Y-32707780D01*
X51330151Y-32715837D01*
X51168817Y-32772290D01*
X51024087Y-32863231D01*
X50903231Y-32984087D01*
X50812290Y-33128817D01*
X50755837Y-33290151D01*
X50736701Y-33460000D01*
X50755837Y-33629848D01*
X50812290Y-33791182D01*
X50812291Y-33791183D01*
X50896421Y-33925075D01*
X50903231Y-33935912D01*
X51024087Y-34056768D01*
X51024089Y-34056769D01*
X51024091Y-34056771D01*
X51168817Y-34147709D01*
X51330150Y-34204162D01*
X51330149Y-34204162D01*
X51347348Y-34206099D01*
X51500000Y-34223299D01*
X51669850Y-34204162D01*
X51831183Y-34147709D01*
X51975909Y-34056771D01*
X52096771Y-33935909D01*
X52187709Y-33791183D01*
X52244162Y-33629850D01*
X52250197Y-33576281D01*
X52277699Y-33510829D01*
X52336223Y-33470635D01*
X52361296Y-33465180D01*
X52432811Y-33457123D01*
X52594144Y-33400670D01*
X52738870Y-33309732D01*
X52859732Y-33188870D01*
X52950670Y-33044144D01*
X52982438Y-32953354D01*
X53023814Y-32895666D01*
X53059746Y-32876045D01*
X53150538Y-32844276D01*
X53295264Y-32753338D01*
X53416126Y-32632476D01*
X53507064Y-32487750D01*
X53563517Y-32326417D01*
X53582654Y-32156567D01*
X53563517Y-31986717D01*
X53507064Y-31825384D01*
X53504727Y-31818705D01*
X53505947Y-31818277D01*
X53495612Y-31755500D01*
X53523783Y-31690332D01*
X53582715Y-31650739D01*
X53653697Y-31649293D01*
X53662277Y-31651955D01*
X53817189Y-31706162D01*
X53987039Y-31725299D01*
X54156889Y-31706162D01*
X54318222Y-31649709D01*
X54462948Y-31558771D01*
X54583810Y-31437909D01*
X54674748Y-31293183D01*
X54731201Y-31131850D01*
X54746629Y-30994915D01*
X54774131Y-30929466D01*
X54832654Y-30889272D01*
X54857719Y-30883819D01*
X54963180Y-30871937D01*
X55124513Y-30815484D01*
X55269239Y-30724546D01*
X55390101Y-30603684D01*
X55481039Y-30458958D01*
X55483136Y-30452963D01*
X55524509Y-30395273D01*
X55590508Y-30369106D01*
X55660176Y-30382775D01*
X55668637Y-30387622D01*
X55668813Y-30387706D01*
X55668817Y-30387709D01*
X55830150Y-30444162D01*
X55830149Y-30444162D01*
X55847348Y-30446099D01*
X56000000Y-30463299D01*
X56169850Y-30444162D01*
X56331183Y-30387709D01*
X56389173Y-30351271D01*
X56457491Y-30331965D01*
X56525404Y-30352659D01*
X56571349Y-30406785D01*
X56581416Y-30443851D01*
X56595837Y-30571848D01*
X56652290Y-30733182D01*
X56707010Y-30820267D01*
X56736641Y-30867425D01*
X56743231Y-30877912D01*
X56864087Y-30998768D01*
X56864089Y-30998769D01*
X56864091Y-30998771D01*
X57008817Y-31089709D01*
X57170150Y-31146162D01*
X57170149Y-31146162D01*
X57181848Y-31147480D01*
X57340000Y-31165299D01*
X57509850Y-31146162D01*
X57671183Y-31089709D01*
X57815909Y-30998771D01*
X57936771Y-30877909D01*
X58027709Y-30733183D01*
X58084162Y-30571850D01*
X58103299Y-30402000D01*
X58097583Y-30351272D01*
X58091443Y-30296771D01*
X58084162Y-30232150D01*
X58027709Y-30070817D01*
X57936771Y-29926091D01*
X57936769Y-29926089D01*
X57936768Y-29926087D01*
X57815912Y-29805231D01*
X57671182Y-29714290D01*
X57630343Y-29700000D01*
X60636701Y-29700000D01*
X60655837Y-29869848D01*
X60712290Y-30031182D01*
X60803231Y-30175912D01*
X60924087Y-30296768D01*
X60924089Y-30296769D01*
X60924091Y-30296771D01*
X61068817Y-30387709D01*
X61230150Y-30444162D01*
X61230149Y-30444162D01*
X61247348Y-30446099D01*
X61400000Y-30463299D01*
X61569850Y-30444162D01*
X61731183Y-30387709D01*
X61875909Y-30296771D01*
X61996771Y-30175909D01*
X62087709Y-30031183D01*
X62144162Y-29869850D01*
X62163299Y-29700000D01*
X62144162Y-29530150D01*
X62087709Y-29368817D01*
X61996771Y-29224091D01*
X61996769Y-29224089D01*
X61996768Y-29224087D01*
X61875912Y-29103231D01*
X61844768Y-29083662D01*
X61810757Y-29062291D01*
X61731182Y-29012290D01*
X61627209Y-28975909D01*
X61569850Y-28955838D01*
X61569848Y-28955837D01*
X61569850Y-28955837D01*
X61400000Y-28936701D01*
X61230151Y-28955837D01*
X61068817Y-29012290D01*
X60924087Y-29103231D01*
X60803231Y-29224087D01*
X60712290Y-29368817D01*
X60655837Y-29530151D01*
X60636701Y-29700000D01*
X57630343Y-29700000D01*
X57571270Y-29679330D01*
X57509850Y-29657838D01*
X57509848Y-29657837D01*
X57509850Y-29657837D01*
X57340000Y-29638701D01*
X57170151Y-29657837D01*
X57008816Y-29714291D01*
X57008814Y-29714292D01*
X56950827Y-29750728D01*
X56882506Y-29770034D01*
X56814593Y-29749339D01*
X56768649Y-29695212D01*
X56758583Y-29658147D01*
X56758548Y-29657838D01*
X56744162Y-29530150D01*
X56687709Y-29368817D01*
X56596771Y-29224091D01*
X56596769Y-29224089D01*
X56596768Y-29224087D01*
X56475912Y-29103231D01*
X56444768Y-29083662D01*
X56410757Y-29062291D01*
X56331182Y-29012290D01*
X56227209Y-28975909D01*
X56169850Y-28955838D01*
X56169848Y-28955837D01*
X56169850Y-28955837D01*
X56137634Y-28952208D01*
X56072181Y-28924705D01*
X56031988Y-28866181D01*
X56029815Y-28795218D01*
X56066353Y-28734345D01*
X56130001Y-28702890D01*
X56151741Y-28701000D01*
X60624318Y-28701000D01*
X60640764Y-28702077D01*
X60670000Y-28705927D01*
X60707423Y-28701000D01*
X60707425Y-28701000D01*
X60819061Y-28686303D01*
X60876592Y-28662471D01*
X60876596Y-28662471D01*
X60876596Y-28662470D01*
X60878943Y-28661498D01*
X60957964Y-28628768D01*
X61047295Y-28560221D01*
X61047295Y-28560220D01*
X61063966Y-28547428D01*
X61063969Y-28547427D01*
X61077239Y-28537245D01*
X61077240Y-28537243D01*
X61077242Y-28537242D01*
X61095204Y-28513831D01*
X61106056Y-28501458D01*
X61410363Y-28197151D01*
X61422737Y-28186299D01*
X61446146Y-28168338D01*
X61474796Y-28131000D01*
X61486225Y-28116104D01*
X61510141Y-28094336D01*
X61509281Y-28093257D01*
X61514805Y-28088850D01*
X61514813Y-28088846D01*
X61635675Y-27967984D01*
X61726613Y-27823258D01*
X61783066Y-27661925D01*
X61802203Y-27492075D01*
X61797462Y-27450000D01*
X63036701Y-27450000D01*
X63055837Y-27619848D01*
X63112290Y-27781182D01*
X63203231Y-27925912D01*
X63324087Y-28046768D01*
X63324089Y-28046769D01*
X63324091Y-28046771D01*
X63468817Y-28137709D01*
X63630150Y-28194162D01*
X63630149Y-28194162D01*
X63647348Y-28196099D01*
X63800000Y-28213299D01*
X63969850Y-28194162D01*
X64131183Y-28137709D01*
X64275909Y-28046771D01*
X64396771Y-27925909D01*
X64487709Y-27781183D01*
X64544162Y-27619850D01*
X64563299Y-27450000D01*
X64544162Y-27280150D01*
X64487709Y-27118817D01*
X64396771Y-26974091D01*
X64396769Y-26974089D01*
X64396768Y-26974087D01*
X64275912Y-26853231D01*
X64131182Y-26762290D01*
X64031113Y-26727275D01*
X63969850Y-26705838D01*
X63969848Y-26705837D01*
X63969850Y-26705837D01*
X63800000Y-26686701D01*
X63630151Y-26705837D01*
X63468817Y-26762290D01*
X63324087Y-26853231D01*
X63203231Y-26974087D01*
X63112290Y-27118817D01*
X63055837Y-27280151D01*
X63036701Y-27450000D01*
X61797462Y-27450000D01*
X61783066Y-27322225D01*
X61768343Y-27280150D01*
X61726613Y-27160892D01*
X61694094Y-27109139D01*
X61635675Y-27016166D01*
X61635673Y-27016164D01*
X61635672Y-27016162D01*
X61514816Y-26895306D01*
X61370086Y-26804365D01*
X61270174Y-26769405D01*
X61208754Y-26747913D01*
X61208752Y-26747912D01*
X61208754Y-26747912D01*
X61038904Y-26728776D01*
X60869055Y-26747912D01*
X60707721Y-26804365D01*
X60562991Y-26895306D01*
X60442135Y-27016162D01*
X60351194Y-27160892D01*
X60309464Y-27280151D01*
X60294742Y-27322225D01*
X60284282Y-27415068D01*
X60280672Y-27447106D01*
X60253169Y-27512560D01*
X60194646Y-27552753D01*
X60155464Y-27559000D01*
X52862117Y-27559000D01*
X52793996Y-27538998D01*
X52747503Y-27485342D01*
X52743188Y-27474615D01*
X52711011Y-27382659D01*
X52690042Y-27322733D01*
X52645859Y-27252416D01*
X52602102Y-27182776D01*
X52485223Y-27065897D01*
X52345269Y-26977959D01*
X52345267Y-26977958D01*
X52307598Y-26964777D01*
X52189252Y-26923366D01*
X52025000Y-26904859D01*
X51860748Y-26923366D01*
X51860745Y-26923366D01*
X51860745Y-26923367D01*
X51704732Y-26977958D01*
X51704730Y-26977959D01*
X51564776Y-27065897D01*
X51447897Y-27182776D01*
X51359959Y-27322730D01*
X51359958Y-27322732D01*
X51306812Y-27474615D01*
X51265434Y-27532307D01*
X51199433Y-27558469D01*
X51187883Y-27559000D01*
X49977707Y-27559000D01*
X49909586Y-27538998D01*
X49863093Y-27485342D01*
X49852989Y-27415068D01*
X49882483Y-27350488D01*
X49888611Y-27343905D01*
X50000923Y-27231591D01*
X50371462Y-26861052D01*
X50383838Y-26850199D01*
X50407242Y-26832242D01*
X50445307Y-26782634D01*
X50498767Y-26712964D01*
X50528947Y-26640103D01*
X50531475Y-26634001D01*
X50549882Y-26589562D01*
X50556303Y-26574061D01*
X50571000Y-26462425D01*
X50571000Y-26462422D01*
X50575927Y-26425000D01*
X50572078Y-26395763D01*
X50571000Y-26379317D01*
X50571000Y-26275542D01*
X50591002Y-26207421D01*
X50644658Y-26160928D01*
X50714932Y-26150824D01*
X50720120Y-26151681D01*
X50890333Y-26183500D01*
X50890336Y-26183500D01*
X51109664Y-26183500D01*
X51109667Y-26183500D01*
X51325268Y-26143197D01*
X51325272Y-26143195D01*
X51325274Y-26143195D01*
X51429002Y-26103010D01*
X51529791Y-26063964D01*
X51716273Y-25948499D01*
X51716275Y-25948496D01*
X51716278Y-25948495D01*
X51878361Y-25800737D01*
X51878361Y-25800736D01*
X51878364Y-25800734D01*
X51899449Y-25772813D01*
X51956463Y-25730505D01*
X52027299Y-25725737D01*
X52089468Y-25760023D01*
X52100551Y-25772813D01*
X52121638Y-25800737D01*
X52283721Y-25948495D01*
X52283724Y-25948497D01*
X52283726Y-25948498D01*
X52283727Y-25948499D01*
X52470209Y-26063964D01*
X52470213Y-26063965D01*
X52470214Y-26063966D01*
X52674725Y-26143195D01*
X52674728Y-26143195D01*
X52674732Y-26143197D01*
X52890333Y-26183500D01*
X52890336Y-26183500D01*
X53109664Y-26183500D01*
X53109667Y-26183500D01*
X53325268Y-26143197D01*
X53325272Y-26143195D01*
X53325274Y-26143195D01*
X53429002Y-26103010D01*
X53529791Y-26063964D01*
X53716273Y-25948499D01*
X53716275Y-25948496D01*
X53716278Y-25948495D01*
X53878361Y-25800737D01*
X53878361Y-25800736D01*
X53878364Y-25800734D01*
X53899449Y-25772813D01*
X53956463Y-25730505D01*
X54027299Y-25725737D01*
X54089468Y-25760023D01*
X54100551Y-25772813D01*
X54121638Y-25800737D01*
X54283721Y-25948495D01*
X54283724Y-25948497D01*
X54283726Y-25948498D01*
X54283727Y-25948499D01*
X54470209Y-26063964D01*
X54470213Y-26063965D01*
X54470214Y-26063966D01*
X54674725Y-26143195D01*
X54674728Y-26143195D01*
X54674732Y-26143197D01*
X54890333Y-26183500D01*
X54890336Y-26183500D01*
X55109664Y-26183500D01*
X55109667Y-26183500D01*
X55325268Y-26143197D01*
X55325272Y-26143195D01*
X55325274Y-26143195D01*
X55429002Y-26103010D01*
X55529791Y-26063964D01*
X55716273Y-25948499D01*
X55716275Y-25948496D01*
X55716278Y-25948495D01*
X55878361Y-25800737D01*
X55878361Y-25800736D01*
X55878364Y-25800734D01*
X55899449Y-25772813D01*
X55956463Y-25730505D01*
X56027299Y-25725737D01*
X56089468Y-25760023D01*
X56100551Y-25772813D01*
X56121638Y-25800737D01*
X56283721Y-25948495D01*
X56283724Y-25948497D01*
X56283726Y-25948498D01*
X56283727Y-25948499D01*
X56470209Y-26063964D01*
X56470213Y-26063965D01*
X56470214Y-26063966D01*
X56674725Y-26143195D01*
X56674728Y-26143195D01*
X56674732Y-26143197D01*
X56890333Y-26183500D01*
X56890336Y-26183500D01*
X57109664Y-26183500D01*
X57109667Y-26183500D01*
X57325268Y-26143197D01*
X57325272Y-26143195D01*
X57325274Y-26143195D01*
X57429002Y-26103010D01*
X57529791Y-26063964D01*
X57716273Y-25948499D01*
X57719655Y-25945415D01*
X57783470Y-25914302D01*
X57853976Y-25922629D01*
X57905412Y-25963018D01*
X57961738Y-26038261D01*
X58078792Y-26125887D01*
X58078794Y-26125888D01*
X58078796Y-26125889D01*
X58125192Y-26143194D01*
X58215795Y-26176988D01*
X58215803Y-26176990D01*
X58276350Y-26183499D01*
X58276355Y-26183499D01*
X58276362Y-26183500D01*
X58276368Y-26183500D01*
X59723632Y-26183500D01*
X59723638Y-26183500D01*
X59723645Y-26183499D01*
X59723649Y-26183499D01*
X59784196Y-26176990D01*
X59784199Y-26176989D01*
X59784201Y-26176989D01*
X59921204Y-26125889D01*
X60038261Y-26038261D01*
X60073228Y-25991551D01*
X60125887Y-25921207D01*
X60125887Y-25921206D01*
X60125889Y-25921204D01*
X60176989Y-25784201D01*
X60178214Y-25772813D01*
X60183499Y-25723649D01*
X60183500Y-25723632D01*
X60183500Y-24276367D01*
X60183499Y-24276350D01*
X60176990Y-24215803D01*
X60176988Y-24215795D01*
X60147924Y-24137875D01*
X60125889Y-24078796D01*
X60125888Y-24078794D01*
X60125887Y-24078792D01*
X60038261Y-23961738D01*
X59959728Y-23902950D01*
X59917181Y-23846115D01*
X59912116Y-23775299D01*
X59934687Y-23726150D01*
X59934999Y-23725737D01*
X60010543Y-23625701D01*
X60108309Y-23429361D01*
X60168332Y-23218399D01*
X60188570Y-23000000D01*
X60168332Y-22781601D01*
X60108309Y-22570639D01*
X60010543Y-22374299D01*
X59878364Y-22199266D01*
X59878362Y-22199263D01*
X59716278Y-22051504D01*
X59716275Y-22051502D01*
X59529794Y-21936038D01*
X59529791Y-21936036D01*
X59529789Y-21936035D01*
X59529785Y-21936033D01*
X59325274Y-21856804D01*
X59262973Y-21845158D01*
X59109667Y-21816500D01*
X58890333Y-21816500D01*
X58751247Y-21842499D01*
X58674725Y-21856804D01*
X58470214Y-21936033D01*
X58470205Y-21936038D01*
X58283725Y-22051501D01*
X58121634Y-22199267D01*
X58100549Y-22227189D01*
X58043535Y-22269496D01*
X57972699Y-22274263D01*
X57910530Y-22239976D01*
X57899451Y-22227189D01*
X57878365Y-22199267D01*
X57716274Y-22051501D01*
X57529794Y-21936038D01*
X57529791Y-21936036D01*
X57529789Y-21936035D01*
X57529785Y-21936033D01*
X57325274Y-21856804D01*
X57262973Y-21845158D01*
X57109667Y-21816500D01*
X56890333Y-21816500D01*
X56751247Y-21842499D01*
X56674725Y-21856804D01*
X56470214Y-21936033D01*
X56470205Y-21936038D01*
X56283725Y-22051501D01*
X56121634Y-22199267D01*
X56100549Y-22227189D01*
X56043535Y-22269496D01*
X55972699Y-22274263D01*
X55910530Y-22239976D01*
X55899451Y-22227189D01*
X55878365Y-22199267D01*
X55716274Y-22051501D01*
X55529794Y-21936038D01*
X55529791Y-21936036D01*
X55529789Y-21936035D01*
X55529785Y-21936033D01*
X55325274Y-21856804D01*
X55262973Y-21845158D01*
X55109667Y-21816500D01*
X54890333Y-21816500D01*
X54813563Y-21830850D01*
X54731242Y-21846239D01*
X54660606Y-21839094D01*
X54618995Y-21811479D01*
X53636562Y-20829046D01*
X53625693Y-20816653D01*
X53607742Y-20793258D01*
X53605919Y-20791859D01*
X53592537Y-20781591D01*
X53550671Y-20724256D01*
X53546447Y-20653385D01*
X53580144Y-20592535D01*
X53696771Y-20475909D01*
X53787709Y-20331183D01*
X53844162Y-20169850D01*
X53863299Y-20000000D01*
X53844162Y-19830150D01*
X53787709Y-19668817D01*
X53696771Y-19524091D01*
X53696769Y-19524089D01*
X53696768Y-19524087D01*
X53575912Y-19403231D01*
X53431182Y-19312290D01*
X53331270Y-19277330D01*
X53269850Y-19255838D01*
X53269848Y-19255837D01*
X53269850Y-19255837D01*
X53100000Y-19236701D01*
X52930151Y-19255837D01*
X52768817Y-19312290D01*
X52624087Y-19403231D01*
X52503231Y-19524087D01*
X52412290Y-19668817D01*
X52355837Y-19830151D01*
X52336701Y-20000000D01*
X52355837Y-20169848D01*
X52412290Y-20331182D01*
X52412291Y-20331183D01*
X52478444Y-20436465D01*
X52497750Y-20504784D01*
X52477055Y-20572698D01*
X52422928Y-20618641D01*
X52371757Y-20629500D01*
X51090722Y-20629500D01*
X51022601Y-20609498D01*
X50976108Y-20555842D01*
X50966004Y-20485568D01*
X50967882Y-20475458D01*
X50969162Y-20469849D01*
X50988299Y-20300000D01*
X50969162Y-20130150D01*
X50912709Y-19968817D01*
X50821771Y-19824091D01*
X50821769Y-19824089D01*
X50821768Y-19824087D01*
X50700912Y-19703231D01*
X50556182Y-19612290D01*
X50394853Y-19555839D01*
X50394852Y-19555838D01*
X50394850Y-19555838D01*
X50330962Y-19548639D01*
X50318640Y-19547251D01*
X50253187Y-19519746D01*
X50243654Y-19511138D01*
X49961062Y-19228546D01*
X49950193Y-19216153D01*
X49932241Y-19192757D01*
X49902295Y-19169779D01*
X49902294Y-19169778D01*
X49812964Y-19101232D01*
X49812963Y-19101231D01*
X49812961Y-19101230D01*
X49731596Y-19067529D01*
X49674061Y-19043697D01*
X49562425Y-19029000D01*
X49562423Y-19029000D01*
X49525000Y-19024073D01*
X49495763Y-19027922D01*
X49479317Y-19029000D01*
X47269253Y-19029000D01*
X47201132Y-19008998D01*
X47154639Y-18955342D01*
X47146216Y-18924946D01*
X47145738Y-18925056D01*
X47144162Y-18918157D01*
X47144162Y-18918150D01*
X47087709Y-18756817D01*
X46996771Y-18612091D01*
X46996769Y-18612089D01*
X46996768Y-18612087D01*
X46875912Y-18491231D01*
X46731182Y-18400290D01*
X46631270Y-18365330D01*
X46569850Y-18343838D01*
X46569848Y-18343837D01*
X46569850Y-18343837D01*
X46400000Y-18324701D01*
X46230151Y-18343837D01*
X46068817Y-18400290D01*
X45924087Y-18491231D01*
X45924086Y-18491232D01*
X45923224Y-18492095D01*
X45922529Y-18492474D01*
X45918557Y-18495642D01*
X45918002Y-18494946D01*
X45860912Y-18526121D01*
X45834129Y-18529000D01*
X44365836Y-18529000D01*
X44297715Y-18508998D01*
X44251222Y-18455342D01*
X44241118Y-18385068D01*
X44242996Y-18374957D01*
X44244159Y-18369857D01*
X44244162Y-18369850D01*
X44263299Y-18200000D01*
X44244162Y-18030150D01*
X44187709Y-17868817D01*
X44096771Y-17724091D01*
X44096769Y-17724089D01*
X44096768Y-17724087D01*
X43975912Y-17603231D01*
X43831182Y-17512290D01*
X43731270Y-17477330D01*
X43669850Y-17455838D01*
X43669848Y-17455837D01*
X43669850Y-17455837D01*
X43500000Y-17436701D01*
X43330151Y-17455837D01*
X43168817Y-17512290D01*
X43024087Y-17603231D01*
X42903231Y-17724087D01*
X42812290Y-17868817D01*
X42785768Y-17944615D01*
X42744390Y-18002307D01*
X42678389Y-18028469D01*
X42666839Y-18029000D01*
X39169253Y-18029000D01*
X39101132Y-18008998D01*
X39054639Y-17955342D01*
X39046216Y-17924946D01*
X39045738Y-17925056D01*
X39044162Y-17918157D01*
X39044162Y-17918150D01*
X38987709Y-17756817D01*
X38896771Y-17612091D01*
X38896769Y-17612089D01*
X38896768Y-17612087D01*
X38775912Y-17491231D01*
X38631182Y-17400290D01*
X38468542Y-17343380D01*
X38421062Y-17313546D01*
X38236062Y-17128546D01*
X38225193Y-17116153D01*
X38207241Y-17092757D01*
X38177295Y-17069779D01*
X38177294Y-17069778D01*
X38087964Y-17001232D01*
X38087963Y-17001231D01*
X38087961Y-17001230D01*
X38006596Y-16967529D01*
X37949061Y-16943697D01*
X37837425Y-16929000D01*
X37837423Y-16929000D01*
X37800000Y-16924073D01*
X37770763Y-16927922D01*
X37754317Y-16929000D01*
X19980520Y-16929000D01*
X19912399Y-16908998D01*
X19865906Y-16855342D01*
X19855312Y-16817107D01*
X19844162Y-16718151D01*
X19801689Y-16596771D01*
X19787709Y-16556817D01*
X19696771Y-16412091D01*
X19696769Y-16412089D01*
X19696768Y-16412087D01*
X19575912Y-16291231D01*
X19431180Y-16200289D01*
X19386954Y-16184813D01*
X19329263Y-16143434D01*
X19309643Y-16107500D01*
X19287709Y-16044817D01*
X19196768Y-15900087D01*
X19075912Y-15779231D01*
X18931182Y-15688290D01*
X18831270Y-15653330D01*
X18769850Y-15631838D01*
X18769848Y-15631837D01*
X18769850Y-15631837D01*
X18600000Y-15612701D01*
X18430151Y-15631837D01*
X18268817Y-15688290D01*
X18124087Y-15779231D01*
X18003231Y-15900087D01*
X17912290Y-16044817D01*
X17855837Y-16206151D01*
X17836701Y-16376000D01*
X17855837Y-16545848D01*
X17912290Y-16707182D01*
X18003231Y-16851912D01*
X18124086Y-16972767D01*
X18124090Y-16972770D01*
X18124091Y-16972771D01*
X18169383Y-17001230D01*
X18233268Y-17041372D01*
X18280306Y-17094551D01*
X18291126Y-17164718D01*
X18262293Y-17229596D01*
X18255328Y-17237154D01*
X17713830Y-17778653D01*
X17651517Y-17812678D01*
X17580702Y-17807614D01*
X17557698Y-17796245D01*
X17443185Y-17724292D01*
X17443183Y-17724291D01*
X17442600Y-17724087D01*
X17281850Y-17667838D01*
X17281848Y-17667837D01*
X17281850Y-17667837D01*
X17112000Y-17648701D01*
X16942151Y-17667837D01*
X16780817Y-17724290D01*
X16694301Y-17778653D01*
X16636091Y-17815229D01*
X16636089Y-17815230D01*
X16630100Y-17818994D01*
X16629021Y-17817277D01*
X16572514Y-17840345D01*
X16559686Y-17841000D01*
X16333682Y-17841000D01*
X16317235Y-17839922D01*
X16288000Y-17836073D01*
X16250577Y-17841000D01*
X16250575Y-17841000D01*
X16237588Y-17842709D01*
X16138939Y-17855696D01*
X16138938Y-17855697D01*
X16086799Y-17877294D01*
X16000034Y-17913232D01*
X15910705Y-17981778D01*
X15880760Y-18004755D01*
X15862800Y-18028160D01*
X15851936Y-18040547D01*
X15315093Y-18577389D01*
X15252783Y-18611413D01*
X15181968Y-18606349D01*
X15125132Y-18563802D01*
X15100321Y-18497282D01*
X15100000Y-18488293D01*
X15100000Y-15226000D01*
X15120002Y-15157879D01*
X15173658Y-15111386D01*
X15226000Y-15100000D01*
X43969320Y-15100000D01*
X44037441Y-15120002D01*
G37*
%TD.AperFunction*%
%TA.AperFunction,Conductor*%
G36*
X30224898Y-33603502D02*
G01*
X30271391Y-33657158D01*
X30281495Y-33727432D01*
X30252001Y-33792012D01*
X30198395Y-33828427D01*
X30181321Y-33834402D01*
X30179727Y-33834960D01*
X30039776Y-33922897D01*
X29922897Y-34039776D01*
X29834959Y-34179730D01*
X29834958Y-34179732D01*
X29814520Y-34238141D01*
X29780366Y-34335748D01*
X29769814Y-34429400D01*
X29761859Y-34500000D01*
X29777420Y-34638104D01*
X29765171Y-34708036D01*
X29717058Y-34760244D01*
X29648357Y-34778153D01*
X29638109Y-34777420D01*
X29500000Y-34761859D01*
X29335748Y-34780366D01*
X29335745Y-34780366D01*
X29335745Y-34780367D01*
X29179732Y-34834958D01*
X29179729Y-34834959D01*
X29067036Y-34905769D01*
X28998714Y-34925075D01*
X28932964Y-34905769D01*
X28820270Y-34834959D01*
X28820267Y-34834958D01*
X28664252Y-34780366D01*
X28500000Y-34761859D01*
X28335748Y-34780366D01*
X28335745Y-34780366D01*
X28335745Y-34780367D01*
X28179732Y-34834958D01*
X28179730Y-34834959D01*
X28039776Y-34922897D01*
X27922897Y-35039776D01*
X27834959Y-35179730D01*
X27834958Y-35179732D01*
X27814520Y-35238141D01*
X27780366Y-35335748D01*
X27761859Y-35500000D01*
X27780366Y-35664252D01*
X27806645Y-35739354D01*
X27834958Y-35820267D01*
X27834959Y-35820270D01*
X27905769Y-35932964D01*
X27925075Y-36001286D01*
X27905769Y-36067036D01*
X27834959Y-36179729D01*
X27834958Y-36179732D01*
X27798844Y-36282940D01*
X27780366Y-36335748D01*
X27761859Y-36500000D01*
X27780366Y-36664252D01*
X27780367Y-36664254D01*
X27834958Y-36820267D01*
X27834959Y-36820269D01*
X27922897Y-36960223D01*
X28039776Y-37077102D01*
X28112920Y-37123061D01*
X28179733Y-37165042D01*
X28335748Y-37219634D01*
X28500000Y-37238141D01*
X28664252Y-37219634D01*
X28820267Y-37165042D01*
X28932964Y-37094230D01*
X29001285Y-37074924D01*
X29067036Y-37094230D01*
X29179733Y-37165042D01*
X29335748Y-37219634D01*
X29500000Y-37238141D01*
X29664252Y-37219634D01*
X29820267Y-37165042D01*
X29960223Y-37077102D01*
X30077102Y-36960223D01*
X30165042Y-36820267D01*
X30219634Y-36664252D01*
X30238141Y-36500000D01*
X30219634Y-36335748D01*
X30165042Y-36179733D01*
X30094230Y-36067036D01*
X30074924Y-35998715D01*
X30094230Y-35932964D01*
X30117415Y-35896065D01*
X30165042Y-35820267D01*
X30219634Y-35664252D01*
X30238141Y-35500000D01*
X30222579Y-35361891D01*
X30234828Y-35291963D01*
X30282940Y-35239755D01*
X30351641Y-35221846D01*
X30361868Y-35222577D01*
X30500000Y-35238141D01*
X30638108Y-35222579D01*
X30708036Y-35234828D01*
X30760244Y-35282940D01*
X30778153Y-35351641D01*
X30777420Y-35361892D01*
X30761859Y-35500000D01*
X30780366Y-35664252D01*
X30806645Y-35739354D01*
X30834958Y-35820267D01*
X30834959Y-35820269D01*
X30922897Y-35960223D01*
X31039776Y-36077102D01*
X31068686Y-36095267D01*
X31179733Y-36165042D01*
X31335748Y-36219634D01*
X31500000Y-36238141D01*
X31638108Y-36222579D01*
X31708036Y-36234828D01*
X31760244Y-36282940D01*
X31778153Y-36351641D01*
X31777420Y-36361895D01*
X31767806Y-36447224D01*
X31761859Y-36500000D01*
X31780366Y-36664252D01*
X31780367Y-36664254D01*
X31834958Y-36820267D01*
X31834959Y-36820269D01*
X31922897Y-36960223D01*
X32039776Y-37077102D01*
X32112920Y-37123061D01*
X32179733Y-37165042D01*
X32335748Y-37219634D01*
X32500000Y-37238141D01*
X32638108Y-37222579D01*
X32708036Y-37234828D01*
X32760244Y-37282940D01*
X32778153Y-37351641D01*
X32777420Y-37361892D01*
X32761859Y-37500000D01*
X32775886Y-37624495D01*
X32777420Y-37638104D01*
X32765171Y-37708036D01*
X32717058Y-37760244D01*
X32648357Y-37778153D01*
X32638109Y-37777420D01*
X32500000Y-37761859D01*
X32335748Y-37780366D01*
X32335745Y-37780366D01*
X32335745Y-37780367D01*
X32179732Y-37834958D01*
X32179730Y-37834959D01*
X32039776Y-37922897D01*
X31922897Y-38039776D01*
X31834959Y-38179730D01*
X31834958Y-38179732D01*
X31791745Y-38303229D01*
X31780366Y-38335748D01*
X31761859Y-38500000D01*
X31776887Y-38633379D01*
X31777420Y-38638104D01*
X31765171Y-38708036D01*
X31717058Y-38760244D01*
X31648357Y-38778153D01*
X31638109Y-38777420D01*
X31500000Y-38761859D01*
X31335748Y-38780366D01*
X31335745Y-38780366D01*
X31335745Y-38780367D01*
X31179732Y-38834958D01*
X31179730Y-38834959D01*
X31039776Y-38922897D01*
X30922897Y-39039776D01*
X30834959Y-39179730D01*
X30834958Y-39179732D01*
X30799820Y-39280151D01*
X30780366Y-39335748D01*
X30761859Y-39500000D01*
X30773648Y-39604632D01*
X30777420Y-39638104D01*
X30765171Y-39708036D01*
X30717058Y-39760244D01*
X30648357Y-39778153D01*
X30638109Y-39777420D01*
X30500000Y-39761859D01*
X30499999Y-39761859D01*
X30448968Y-39767609D01*
X30361894Y-39777419D01*
X30291963Y-39765171D01*
X30239755Y-39717058D01*
X30221846Y-39648357D01*
X30222576Y-39638133D01*
X30238141Y-39500000D01*
X30219634Y-39335748D01*
X30165042Y-39179733D01*
X30094230Y-39067036D01*
X30074924Y-38998715D01*
X30094230Y-38932964D01*
X30113989Y-38901518D01*
X30165042Y-38820267D01*
X30219634Y-38664252D01*
X30238141Y-38500000D01*
X30219634Y-38335748D01*
X30165042Y-38179733D01*
X30087693Y-38056632D01*
X30077102Y-38039776D01*
X29960223Y-37922897D01*
X29820269Y-37834959D01*
X29820267Y-37834958D01*
X29780663Y-37821100D01*
X29664252Y-37780366D01*
X29500000Y-37761859D01*
X29335748Y-37780366D01*
X29335745Y-37780366D01*
X29335745Y-37780367D01*
X29179732Y-37834958D01*
X29179729Y-37834959D01*
X29067036Y-37905769D01*
X28998714Y-37925075D01*
X28932964Y-37905769D01*
X28820270Y-37834959D01*
X28820267Y-37834958D01*
X28780663Y-37821100D01*
X28664252Y-37780366D01*
X28500000Y-37761859D01*
X28335748Y-37780366D01*
X28335745Y-37780366D01*
X28335745Y-37780367D01*
X28179732Y-37834958D01*
X28179730Y-37834959D01*
X28039776Y-37922897D01*
X27922897Y-38039776D01*
X27834959Y-38179730D01*
X27834958Y-38179732D01*
X27791745Y-38303229D01*
X27780366Y-38335748D01*
X27761859Y-38500000D01*
X27780366Y-38664252D01*
X27794917Y-38705837D01*
X27834958Y-38820267D01*
X27834959Y-38820270D01*
X27905769Y-38932964D01*
X27925075Y-39001286D01*
X27905769Y-39067036D01*
X27834959Y-39179729D01*
X27834958Y-39179732D01*
X27799820Y-39280151D01*
X27780366Y-39335748D01*
X27761859Y-39500000D01*
X27780366Y-39664252D01*
X27827433Y-39798763D01*
X27834958Y-39820267D01*
X27834959Y-39820269D01*
X27922897Y-39960223D01*
X28039776Y-40077102D01*
X28067892Y-40094768D01*
X28179733Y-40165042D01*
X28335748Y-40219634D01*
X28500000Y-40238141D01*
X28664252Y-40219634D01*
X28820267Y-40165042D01*
X28932964Y-40094230D01*
X29001285Y-40074924D01*
X29067036Y-40094230D01*
X29179733Y-40165042D01*
X29335748Y-40219634D01*
X29500000Y-40238141D01*
X29638108Y-40222579D01*
X29708036Y-40234828D01*
X29760244Y-40282940D01*
X29778153Y-40351641D01*
X29777420Y-40361895D01*
X29766157Y-40461859D01*
X29761859Y-40500000D01*
X29776506Y-40629997D01*
X29777420Y-40638104D01*
X29765171Y-40708036D01*
X29717058Y-40760244D01*
X29648357Y-40778153D01*
X29638109Y-40777420D01*
X29500000Y-40761859D01*
X29335748Y-40780366D01*
X29335745Y-40780366D01*
X29335745Y-40780367D01*
X29179732Y-40834958D01*
X29179730Y-40834959D01*
X29039776Y-40922897D01*
X28922897Y-41039776D01*
X28834959Y-41179730D01*
X28834958Y-41179732D01*
X28778029Y-41342427D01*
X28775559Y-41341562D01*
X28746776Y-41393014D01*
X28684119Y-41426399D01*
X28658598Y-41429011D01*
X26341402Y-41429011D01*
X26273281Y-41409009D01*
X26226788Y-41355353D01*
X26222365Y-41342288D01*
X26221971Y-41342427D01*
X26219634Y-41335748D01*
X26165042Y-41179733D01*
X26150066Y-41155898D01*
X26077102Y-41039776D01*
X25960223Y-40922897D01*
X25820269Y-40834959D01*
X25820267Y-40834958D01*
X25778288Y-40820269D01*
X25664252Y-40780366D01*
X25500000Y-40761859D01*
X25499999Y-40761859D01*
X25426223Y-40770171D01*
X25361894Y-40777419D01*
X25291963Y-40765171D01*
X25239755Y-40717058D01*
X25221846Y-40648357D01*
X25222576Y-40638133D01*
X25238141Y-40500000D01*
X25222579Y-40361891D01*
X25234828Y-40291963D01*
X25282940Y-40239755D01*
X25351641Y-40221846D01*
X25361868Y-40222577D01*
X25500000Y-40238141D01*
X25664252Y-40219634D01*
X25820267Y-40165042D01*
X25932964Y-40094230D01*
X26001285Y-40074924D01*
X26067036Y-40094230D01*
X26179733Y-40165042D01*
X26335748Y-40219634D01*
X26500000Y-40238141D01*
X26664252Y-40219634D01*
X26820267Y-40165042D01*
X26960223Y-40077102D01*
X27077102Y-39960223D01*
X27165042Y-39820267D01*
X27219634Y-39664252D01*
X27238141Y-39500000D01*
X27219634Y-39335748D01*
X27165042Y-39179733D01*
X27094230Y-39067036D01*
X27074924Y-38998715D01*
X27094230Y-38932964D01*
X27113989Y-38901518D01*
X27165042Y-38820267D01*
X27219634Y-38664252D01*
X27238141Y-38500000D01*
X27219634Y-38335748D01*
X27165042Y-38179733D01*
X27087693Y-38056632D01*
X27077102Y-38039776D01*
X26960223Y-37922897D01*
X26820269Y-37834959D01*
X26820267Y-37834958D01*
X26780663Y-37821100D01*
X26664252Y-37780366D01*
X26500000Y-37761859D01*
X26335748Y-37780366D01*
X26335745Y-37780366D01*
X26335745Y-37780367D01*
X26179732Y-37834958D01*
X26179729Y-37834959D01*
X26067036Y-37905769D01*
X25998714Y-37925075D01*
X25932964Y-37905769D01*
X25820270Y-37834959D01*
X25820267Y-37834958D01*
X25780663Y-37821100D01*
X25664252Y-37780366D01*
X25500000Y-37761859D01*
X25335748Y-37780366D01*
X25335745Y-37780366D01*
X25335745Y-37780367D01*
X25179732Y-37834958D01*
X25179730Y-37834959D01*
X25039776Y-37922897D01*
X24922897Y-38039776D01*
X24834959Y-38179730D01*
X24834958Y-38179732D01*
X24791745Y-38303229D01*
X24780366Y-38335748D01*
X24761859Y-38500000D01*
X24780366Y-38664252D01*
X24794917Y-38705837D01*
X24834958Y-38820267D01*
X24834959Y-38820270D01*
X24905769Y-38932964D01*
X24925075Y-39001286D01*
X24905769Y-39067036D01*
X24834959Y-39179729D01*
X24834958Y-39179732D01*
X24799820Y-39280151D01*
X24780366Y-39335748D01*
X24761859Y-39500000D01*
X24773648Y-39604632D01*
X24777420Y-39638104D01*
X24765171Y-39708036D01*
X24717058Y-39760244D01*
X24648357Y-39778153D01*
X24638109Y-39777420D01*
X24500000Y-39761859D01*
X24499999Y-39761859D01*
X24448968Y-39767609D01*
X24361894Y-39777419D01*
X24291963Y-39765171D01*
X24239755Y-39717058D01*
X24221846Y-39648357D01*
X24222576Y-39638133D01*
X24238141Y-39500000D01*
X24219634Y-39335748D01*
X24165042Y-39179733D01*
X24130651Y-39125000D01*
X24077102Y-39039776D01*
X23960223Y-38922897D01*
X23820269Y-38834959D01*
X23820267Y-38834958D01*
X23667885Y-38781637D01*
X23610193Y-38740259D01*
X23584031Y-38674258D01*
X23583500Y-38662708D01*
X23583500Y-36337291D01*
X23603502Y-36269170D01*
X23657158Y-36222677D01*
X23667870Y-36218367D01*
X23820267Y-36165042D01*
X23960223Y-36077102D01*
X24077102Y-35960223D01*
X24165042Y-35820267D01*
X24219634Y-35664252D01*
X24238141Y-35500000D01*
X24222579Y-35361891D01*
X24234828Y-35291963D01*
X24282940Y-35239755D01*
X24351641Y-35221846D01*
X24361868Y-35222577D01*
X24500000Y-35238141D01*
X24638108Y-35222579D01*
X24708036Y-35234828D01*
X24760244Y-35282940D01*
X24778153Y-35351641D01*
X24777420Y-35361892D01*
X24761859Y-35500000D01*
X24780366Y-35664252D01*
X24806645Y-35739354D01*
X24834958Y-35820267D01*
X24834959Y-35820270D01*
X24905769Y-35932964D01*
X24925075Y-36001286D01*
X24905769Y-36067036D01*
X24834959Y-36179729D01*
X24834958Y-36179732D01*
X24798844Y-36282940D01*
X24780366Y-36335748D01*
X24761859Y-36500000D01*
X24780366Y-36664252D01*
X24780367Y-36664254D01*
X24834958Y-36820267D01*
X24834959Y-36820269D01*
X24922897Y-36960223D01*
X25039776Y-37077102D01*
X25112920Y-37123061D01*
X25179733Y-37165042D01*
X25335748Y-37219634D01*
X25500000Y-37238141D01*
X25664252Y-37219634D01*
X25820267Y-37165042D01*
X25932964Y-37094230D01*
X26001285Y-37074924D01*
X26067036Y-37094230D01*
X26179733Y-37165042D01*
X26335748Y-37219634D01*
X26500000Y-37238141D01*
X26664252Y-37219634D01*
X26820267Y-37165042D01*
X26960223Y-37077102D01*
X27077102Y-36960223D01*
X27165042Y-36820267D01*
X27219634Y-36664252D01*
X27238141Y-36500000D01*
X27219634Y-36335748D01*
X27165042Y-36179733D01*
X27094230Y-36067036D01*
X27074924Y-35998715D01*
X27094230Y-35932964D01*
X27117415Y-35896065D01*
X27165042Y-35820267D01*
X27219634Y-35664252D01*
X27238141Y-35500000D01*
X27219634Y-35335748D01*
X27165042Y-35179733D01*
X27130415Y-35124624D01*
X27077102Y-35039776D01*
X26960223Y-34922897D01*
X26820269Y-34834959D01*
X26820267Y-34834958D01*
X26664252Y-34780366D01*
X26500000Y-34761859D01*
X26335748Y-34780366D01*
X26335745Y-34780366D01*
X26335745Y-34780367D01*
X26179732Y-34834958D01*
X26179729Y-34834959D01*
X26067036Y-34905769D01*
X25998714Y-34925075D01*
X25932964Y-34905769D01*
X25820270Y-34834959D01*
X25820267Y-34834958D01*
X25664252Y-34780366D01*
X25500000Y-34761859D01*
X25499999Y-34761859D01*
X25426223Y-34770171D01*
X25361894Y-34777419D01*
X25291963Y-34765171D01*
X25239755Y-34717058D01*
X25221846Y-34648357D01*
X25222576Y-34638133D01*
X25238141Y-34500000D01*
X25222579Y-34361891D01*
X25234828Y-34291963D01*
X25282940Y-34239755D01*
X25351641Y-34221846D01*
X25361868Y-34222577D01*
X25500000Y-34238141D01*
X25664252Y-34219634D01*
X25820267Y-34165042D01*
X25960223Y-34077102D01*
X26077102Y-33960223D01*
X26165042Y-33820267D01*
X26218363Y-33667885D01*
X26259741Y-33610193D01*
X26325742Y-33584031D01*
X26337292Y-33583500D01*
X30156777Y-33583500D01*
X30224898Y-33603502D01*
G37*
%TD.AperFunction*%
%TA.AperFunction,Conductor*%
G36*
X45198702Y-37415522D02*
G01*
X45245195Y-37469178D01*
X45254011Y-37501001D01*
X45254261Y-37500944D01*
X45255505Y-37506395D01*
X45255790Y-37507422D01*
X45255837Y-37507847D01*
X45301957Y-37639651D01*
X45305575Y-37710555D01*
X45272122Y-37770360D01*
X42327991Y-40714491D01*
X42265679Y-40748517D01*
X42253007Y-40750603D01*
X42210756Y-40755364D01*
X42210742Y-40755367D01*
X42054732Y-40809958D01*
X42054730Y-40809959D01*
X41914776Y-40897897D01*
X41797897Y-41014776D01*
X41709959Y-41154730D01*
X41709958Y-41154732D01*
X41655366Y-41310745D01*
X41655365Y-41310751D01*
X41654650Y-41317101D01*
X41627145Y-41382553D01*
X41568620Y-41422744D01*
X41529443Y-41428989D01*
X41019715Y-41428989D01*
X41003268Y-41427911D01*
X40994753Y-41426790D01*
X40974033Y-41424062D01*
X40953313Y-41426790D01*
X40944631Y-41427933D01*
X40928184Y-41429011D01*
X40178349Y-41429011D01*
X40110228Y-41409009D01*
X40063735Y-41355353D01*
X40053631Y-41285079D01*
X40083125Y-41220499D01*
X40089254Y-41213916D01*
X40147267Y-41155902D01*
X40147268Y-41155901D01*
X40147271Y-41155898D01*
X40238209Y-41011172D01*
X40294662Y-40849839D01*
X40313799Y-40679989D01*
X40294662Y-40510139D01*
X40238209Y-40348806D01*
X40147271Y-40204080D01*
X40147269Y-40204078D01*
X40147268Y-40204076D01*
X40026412Y-40083220D01*
X40016675Y-40077102D01*
X39953371Y-40037325D01*
X39881682Y-39992279D01*
X39720345Y-39935825D01*
X39719787Y-39935698D01*
X39719463Y-39935516D01*
X39713671Y-39933490D01*
X39714026Y-39932474D01*
X39657830Y-39901029D01*
X39624452Y-39838368D01*
X39630249Y-39767609D01*
X39658746Y-39723768D01*
X39943597Y-39438917D01*
X40005907Y-39404893D01*
X40076722Y-39409958D01*
X40133558Y-39452505D01*
X40153125Y-39494771D01*
X40153501Y-39494640D01*
X40154853Y-39498504D01*
X40155528Y-39499962D01*
X40155837Y-39501317D01*
X40212290Y-39662651D01*
X40274329Y-39761385D01*
X40286769Y-39781183D01*
X40303231Y-39807381D01*
X40424087Y-39928237D01*
X40424089Y-39928238D01*
X40424091Y-39928240D01*
X40568817Y-40019178D01*
X40730150Y-40075631D01*
X40730149Y-40075631D01*
X40743206Y-40077102D01*
X40900000Y-40094768D01*
X41069850Y-40075631D01*
X41231183Y-40019178D01*
X41375909Y-39928240D01*
X41496771Y-39807378D01*
X41587709Y-39662652D01*
X41644162Y-39501319D01*
X41663299Y-39331469D01*
X41644162Y-39161619D01*
X41587709Y-39000286D01*
X41496771Y-38855560D01*
X41496769Y-38855558D01*
X41496768Y-38855556D01*
X41375912Y-38734700D01*
X41368672Y-38730151D01*
X41279720Y-38674258D01*
X41231182Y-38643759D01*
X41069848Y-38587306D01*
X41068493Y-38586997D01*
X41067707Y-38586557D01*
X41063171Y-38584970D01*
X41063449Y-38584174D01*
X41006535Y-38552330D01*
X40973155Y-38489670D01*
X40978950Y-38418910D01*
X41007445Y-38375069D01*
X41771610Y-37610905D01*
X41833918Y-37576883D01*
X41904734Y-37581948D01*
X41961569Y-37624495D01*
X41986380Y-37691015D01*
X41986701Y-37700004D01*
X41986701Y-37701467D01*
X41986701Y-37701469D01*
X41989147Y-37723178D01*
X42005837Y-37871317D01*
X42062290Y-38032651D01*
X42153231Y-38177381D01*
X42274087Y-38298237D01*
X42274089Y-38298238D01*
X42274091Y-38298240D01*
X42418817Y-38389178D01*
X42580150Y-38445631D01*
X42580149Y-38445631D01*
X42597348Y-38447568D01*
X42750000Y-38464768D01*
X42919850Y-38445631D01*
X43081183Y-38389178D01*
X43225909Y-38298240D01*
X43346771Y-38177378D01*
X43437709Y-38032652D01*
X43494162Y-37871319D01*
X43513299Y-37701469D01*
X43497385Y-37560223D01*
X43494614Y-37535627D01*
X43506864Y-37465695D01*
X43554977Y-37413487D01*
X43619822Y-37395520D01*
X45130581Y-37395520D01*
X45198702Y-37415522D01*
G37*
%TD.AperFunction*%
%TA.AperFunction,Conductor*%
G36*
X48089468Y-25760023D02*
G01*
X48100551Y-25772813D01*
X48121638Y-25800737D01*
X48283721Y-25948495D01*
X48283724Y-25948497D01*
X48283726Y-25948498D01*
X48283727Y-25948499D01*
X48470209Y-26063964D01*
X48470213Y-26063965D01*
X48470214Y-26063966D01*
X48674725Y-26143195D01*
X48674728Y-26143195D01*
X48674732Y-26143197D01*
X48890333Y-26183500D01*
X48890336Y-26183500D01*
X49109672Y-26183500D01*
X49115467Y-26182963D01*
X49115601Y-26184416D01*
X49179199Y-26190837D01*
X49234768Y-26235026D01*
X49257625Y-26302242D01*
X49240513Y-26371146D01*
X49220833Y-26396651D01*
X48665387Y-26952096D01*
X48603077Y-26986120D01*
X48576294Y-26989000D01*
X48506234Y-26989000D01*
X48439198Y-26969687D01*
X48320269Y-26894959D01*
X48320267Y-26894958D01*
X48277948Y-26880150D01*
X48164252Y-26840366D01*
X48000000Y-26821859D01*
X47835748Y-26840366D01*
X47835745Y-26840366D01*
X47835745Y-26840367D01*
X47679732Y-26894958D01*
X47679730Y-26894959D01*
X47539776Y-26982897D01*
X47422897Y-27099776D01*
X47334959Y-27239730D01*
X47334958Y-27239732D01*
X47280366Y-27395745D01*
X47280366Y-27395748D01*
X47274578Y-27447109D01*
X47247076Y-27512560D01*
X47188553Y-27552753D01*
X47149372Y-27559000D01*
X42695682Y-27559000D01*
X42679235Y-27557922D01*
X42650000Y-27554073D01*
X42612577Y-27559000D01*
X42612575Y-27559000D01*
X42599588Y-27560709D01*
X42500939Y-27573696D01*
X42500938Y-27573697D01*
X42445243Y-27596767D01*
X42362039Y-27631230D01*
X42286179Y-27689440D01*
X42286178Y-27689439D01*
X42242760Y-27722755D01*
X42224800Y-27746160D01*
X42213935Y-27758547D01*
X41835960Y-28136522D01*
X41773649Y-28170547D01*
X41702834Y-28165483D01*
X41645998Y-28122936D01*
X41621187Y-28056416D01*
X41621658Y-28033320D01*
X41625673Y-27997683D01*
X41633299Y-27930000D01*
X41614162Y-27760150D01*
X41557709Y-27598817D01*
X41466771Y-27454091D01*
X41466769Y-27454089D01*
X41466768Y-27454087D01*
X41345912Y-27333231D01*
X41201182Y-27242290D01*
X41101270Y-27207330D01*
X41039850Y-27185838D01*
X41039848Y-27185837D01*
X41039850Y-27185837D01*
X40870000Y-27166701D01*
X40700151Y-27185837D01*
X40538817Y-27242290D01*
X40394087Y-27333231D01*
X40273231Y-27454087D01*
X40182290Y-27598817D01*
X40125837Y-27760151D01*
X40106701Y-27930000D01*
X40125837Y-28099848D01*
X40182290Y-28261182D01*
X40273231Y-28405912D01*
X40394087Y-28526768D01*
X40394089Y-28526769D01*
X40394091Y-28526771D01*
X40538817Y-28617709D01*
X40700150Y-28674162D01*
X40700149Y-28674162D01*
X40715655Y-28675909D01*
X40870000Y-28693299D01*
X40973322Y-28681657D01*
X41043251Y-28693906D01*
X41095459Y-28742019D01*
X41113368Y-28810720D01*
X41091291Y-28878196D01*
X41076523Y-28895960D01*
X40159046Y-29813438D01*
X40096733Y-29847463D01*
X40025918Y-29842399D01*
X40002915Y-29831031D01*
X39925972Y-29782684D01*
X39914143Y-29775251D01*
X39811945Y-29739491D01*
X39752811Y-29718799D01*
X39752809Y-29718798D01*
X39752811Y-29718798D01*
X39582961Y-29699662D01*
X39413112Y-29718798D01*
X39251778Y-29775251D01*
X39107048Y-29866192D01*
X38986192Y-29987048D01*
X38895251Y-30131778D01*
X38840067Y-30289486D01*
X38838799Y-30293111D01*
X38835811Y-30319632D01*
X38830212Y-30369319D01*
X38802707Y-30434772D01*
X38794099Y-30444305D01*
X37345909Y-31892496D01*
X37283599Y-31926520D01*
X37256816Y-31929400D01*
X34304435Y-31929400D01*
X34236314Y-31909398D01*
X34189821Y-31855742D01*
X34179717Y-31785468D01*
X34185506Y-31761785D01*
X34195038Y-31734544D01*
X34219634Y-31664252D01*
X34238141Y-31500000D01*
X34222579Y-31361891D01*
X34234828Y-31291963D01*
X34282940Y-31239755D01*
X34351641Y-31221846D01*
X34361868Y-31222577D01*
X34500000Y-31238141D01*
X34664252Y-31219634D01*
X34820267Y-31165042D01*
X34960223Y-31077102D01*
X35077102Y-30960223D01*
X35165042Y-30820267D01*
X35219634Y-30664252D01*
X35238141Y-30500000D01*
X35219634Y-30335748D01*
X35165042Y-30179733D01*
X35120333Y-30108579D01*
X35077102Y-30039776D01*
X34960223Y-29922897D01*
X34820269Y-29834959D01*
X34820267Y-29834958D01*
X34657574Y-29778029D01*
X34658438Y-29775558D01*
X34606986Y-29746767D01*
X34573609Y-29684106D01*
X34571000Y-29658600D01*
X34571000Y-28520000D01*
X35761859Y-28520000D01*
X35780366Y-28684252D01*
X35813998Y-28780366D01*
X35834958Y-28840267D01*
X35834959Y-28840269D01*
X35922897Y-28980223D01*
X36039776Y-29097102D01*
X36121971Y-29148748D01*
X36179733Y-29185042D01*
X36335748Y-29239634D01*
X36500000Y-29258141D01*
X36664252Y-29239634D01*
X36820267Y-29185042D01*
X36960223Y-29097102D01*
X37077102Y-28980223D01*
X37165042Y-28840267D01*
X37219634Y-28684252D01*
X37238141Y-28520000D01*
X37219634Y-28355748D01*
X37165042Y-28199733D01*
X37121856Y-28131002D01*
X37077102Y-28059776D01*
X36960223Y-27942897D01*
X36820269Y-27854959D01*
X36820267Y-27854958D01*
X36664252Y-27800366D01*
X36500000Y-27781859D01*
X36335748Y-27800366D01*
X36335745Y-27800366D01*
X36335745Y-27800367D01*
X36179732Y-27854958D01*
X36179730Y-27854959D01*
X36039776Y-27942897D01*
X35922897Y-28059776D01*
X35834959Y-28199730D01*
X35834958Y-28199732D01*
X35797248Y-28307502D01*
X35780366Y-28355748D01*
X35761859Y-28520000D01*
X34571000Y-28520000D01*
X34571000Y-26275542D01*
X34591002Y-26207421D01*
X34644658Y-26160928D01*
X34714932Y-26150824D01*
X34720120Y-26151681D01*
X34890333Y-26183500D01*
X34890336Y-26183500D01*
X35109664Y-26183500D01*
X35109667Y-26183500D01*
X35325268Y-26143197D01*
X35325272Y-26143195D01*
X35325274Y-26143195D01*
X35429002Y-26103010D01*
X35529791Y-26063964D01*
X35716273Y-25948499D01*
X35716275Y-25948496D01*
X35716278Y-25948495D01*
X35878361Y-25800737D01*
X35878361Y-25800736D01*
X35878364Y-25800734D01*
X35899449Y-25772813D01*
X35956463Y-25730505D01*
X36027299Y-25725737D01*
X36089468Y-25760023D01*
X36100551Y-25772813D01*
X36121638Y-25800737D01*
X36283721Y-25948495D01*
X36283724Y-25948497D01*
X36283726Y-25948498D01*
X36283727Y-25948499D01*
X36470209Y-26063964D01*
X36470213Y-26063965D01*
X36470214Y-26063966D01*
X36674725Y-26143195D01*
X36674728Y-26143195D01*
X36674732Y-26143197D01*
X36890333Y-26183500D01*
X36890336Y-26183500D01*
X37109664Y-26183500D01*
X37109667Y-26183500D01*
X37325268Y-26143197D01*
X37325272Y-26143195D01*
X37325274Y-26143195D01*
X37429002Y-26103010D01*
X37529791Y-26063964D01*
X37716273Y-25948499D01*
X37716275Y-25948496D01*
X37716278Y-25948495D01*
X37878361Y-25800737D01*
X37878361Y-25800736D01*
X37878364Y-25800734D01*
X37899449Y-25772813D01*
X37956463Y-25730505D01*
X38027299Y-25725737D01*
X38089468Y-25760023D01*
X38100551Y-25772813D01*
X38121638Y-25800737D01*
X38283721Y-25948495D01*
X38283724Y-25948497D01*
X38283726Y-25948498D01*
X38283727Y-25948499D01*
X38470209Y-26063964D01*
X38470213Y-26063965D01*
X38470214Y-26063966D01*
X38674725Y-26143195D01*
X38674728Y-26143195D01*
X38674732Y-26143197D01*
X38890333Y-26183500D01*
X38890336Y-26183500D01*
X39109664Y-26183500D01*
X39109667Y-26183500D01*
X39325268Y-26143197D01*
X39325272Y-26143195D01*
X39325274Y-26143195D01*
X39429002Y-26103010D01*
X39529791Y-26063964D01*
X39716273Y-25948499D01*
X39716275Y-25948496D01*
X39716278Y-25948495D01*
X39878361Y-25800737D01*
X39878361Y-25800736D01*
X39878364Y-25800734D01*
X39899449Y-25772813D01*
X39956463Y-25730505D01*
X40027299Y-25725737D01*
X40089468Y-25760023D01*
X40100551Y-25772813D01*
X40121638Y-25800737D01*
X40283721Y-25948495D01*
X40283724Y-25948497D01*
X40283726Y-25948498D01*
X40283727Y-25948499D01*
X40470209Y-26063964D01*
X40470213Y-26063965D01*
X40470214Y-26063966D01*
X40674725Y-26143195D01*
X40674728Y-26143195D01*
X40674732Y-26143197D01*
X40890333Y-26183500D01*
X40890336Y-26183500D01*
X41109664Y-26183500D01*
X41109667Y-26183500D01*
X41325268Y-26143197D01*
X41325272Y-26143195D01*
X41325274Y-26143195D01*
X41429002Y-26103010D01*
X41529791Y-26063964D01*
X41716273Y-25948499D01*
X41716275Y-25948496D01*
X41716278Y-25948495D01*
X41878361Y-25800737D01*
X41878361Y-25800736D01*
X41878364Y-25800734D01*
X41899449Y-25772813D01*
X41956463Y-25730505D01*
X42027299Y-25725737D01*
X42089468Y-25760023D01*
X42100551Y-25772813D01*
X42121638Y-25800737D01*
X42283721Y-25948495D01*
X42283724Y-25948497D01*
X42283726Y-25948498D01*
X42283727Y-25948499D01*
X42470209Y-26063964D01*
X42470213Y-26063965D01*
X42470214Y-26063966D01*
X42674725Y-26143195D01*
X42674728Y-26143195D01*
X42674732Y-26143197D01*
X42890333Y-26183500D01*
X42890336Y-26183500D01*
X43109664Y-26183500D01*
X43109667Y-26183500D01*
X43325268Y-26143197D01*
X43325272Y-26143195D01*
X43325274Y-26143195D01*
X43429002Y-26103010D01*
X43529791Y-26063964D01*
X43716273Y-25948499D01*
X43716275Y-25948496D01*
X43716278Y-25948495D01*
X43878361Y-25800737D01*
X43878361Y-25800736D01*
X43878364Y-25800734D01*
X43899449Y-25772813D01*
X43956463Y-25730505D01*
X44027299Y-25725737D01*
X44089468Y-25760023D01*
X44100551Y-25772813D01*
X44121638Y-25800737D01*
X44283721Y-25948495D01*
X44283724Y-25948497D01*
X44283726Y-25948498D01*
X44283727Y-25948499D01*
X44470209Y-26063964D01*
X44470213Y-26063965D01*
X44470214Y-26063966D01*
X44674725Y-26143195D01*
X44674728Y-26143195D01*
X44674732Y-26143197D01*
X44890333Y-26183500D01*
X44890336Y-26183500D01*
X45109664Y-26183500D01*
X45109667Y-26183500D01*
X45325268Y-26143197D01*
X45325272Y-26143195D01*
X45325274Y-26143195D01*
X45429002Y-26103010D01*
X45529791Y-26063964D01*
X45716273Y-25948499D01*
X45716275Y-25948496D01*
X45716278Y-25948495D01*
X45878361Y-25800737D01*
X45878361Y-25800736D01*
X45878364Y-25800734D01*
X45899449Y-25772813D01*
X45956463Y-25730505D01*
X46027299Y-25725737D01*
X46089468Y-25760023D01*
X46100551Y-25772813D01*
X46121638Y-25800737D01*
X46283721Y-25948495D01*
X46283724Y-25948497D01*
X46283726Y-25948498D01*
X46283727Y-25948499D01*
X46470209Y-26063964D01*
X46470213Y-26063965D01*
X46470214Y-26063966D01*
X46674725Y-26143195D01*
X46674728Y-26143195D01*
X46674732Y-26143197D01*
X46890333Y-26183500D01*
X46890336Y-26183500D01*
X47109664Y-26183500D01*
X47109667Y-26183500D01*
X47325268Y-26143197D01*
X47325272Y-26143195D01*
X47325274Y-26143195D01*
X47429002Y-26103010D01*
X47529791Y-26063964D01*
X47716273Y-25948499D01*
X47716275Y-25948496D01*
X47716278Y-25948495D01*
X47878361Y-25800737D01*
X47878361Y-25800736D01*
X47878364Y-25800734D01*
X47899449Y-25772813D01*
X47956463Y-25730505D01*
X48027299Y-25725737D01*
X48089468Y-25760023D01*
G37*
%TD.AperFunction*%
%TD*%
M02*
