%TF.GenerationSoftware,KiCad,Pcbnew,7.0.10*%
%TF.CreationDate,2024-03-26T21:26:04+03:00*%
%TF.ProjectId,com_1300,636f6d5f-3133-4303-902e-6b696361645f,rev?*%
%TF.SameCoordinates,Original*%
%TF.FileFunction,Soldermask,Bot*%
%TF.FilePolarity,Negative*%
%FSLAX46Y46*%
G04 Gerber Fmt 4.6, Leading zero omitted, Abs format (unit mm)*
G04 Created by KiCad (PCBNEW 7.0.10) date 2024-03-26 21:26:04*
%MOMM*%
%LPD*%
G01*
G04 APERTURE LIST*
G04 Aperture macros list*
%AMRoundRect*
0 Rectangle with rounded corners*
0 $1 Rounding radius*
0 $2 $3 $4 $5 $6 $7 $8 $9 X,Y pos of 4 corners*
0 Add a 4 corners polygon primitive as box body*
4,1,4,$2,$3,$4,$5,$6,$7,$8,$9,$2,$3,0*
0 Add four circle primitives for the rounded corners*
1,1,$1+$1,$2,$3*
1,1,$1+$1,$4,$5*
1,1,$1+$1,$6,$7*
1,1,$1+$1,$8,$9*
0 Add four rect primitives between the rounded corners*
20,1,$1+$1,$2,$3,$4,$5,0*
20,1,$1+$1,$4,$5,$6,$7,0*
20,1,$1+$1,$6,$7,$8,$9,0*
20,1,$1+$1,$8,$9,$2,$3,0*%
G04 Aperture macros list end*
%ADD10R,1.350000X1.350000*%
%ADD11O,1.350000X1.350000*%
%ADD12RoundRect,0.100000X0.130000X0.100000X-0.130000X0.100000X-0.130000X-0.100000X0.130000X-0.100000X0*%
%ADD13RoundRect,0.135000X-0.185000X0.135000X-0.185000X-0.135000X0.185000X-0.135000X0.185000X0.135000X0*%
%ADD14RoundRect,0.100000X-0.100000X0.130000X-0.100000X-0.130000X0.100000X-0.130000X0.100000X0.130000X0*%
%ADD15RoundRect,0.140000X0.140000X0.170000X-0.140000X0.170000X-0.140000X-0.170000X0.140000X-0.170000X0*%
%ADD16RoundRect,0.140000X-0.140000X-0.170000X0.140000X-0.170000X0.140000X0.170000X-0.140000X0.170000X0*%
%ADD17RoundRect,0.100000X0.100000X-0.130000X0.100000X0.130000X-0.100000X0.130000X-0.100000X-0.130000X0*%
%ADD18RoundRect,0.135000X0.185000X-0.135000X0.185000X0.135000X-0.185000X0.135000X-0.185000X-0.135000X0*%
%ADD19RoundRect,0.135000X-0.135000X-0.185000X0.135000X-0.185000X0.135000X0.185000X-0.135000X0.185000X0*%
G04 APERTURE END LIST*
D10*
%TO.C,J1*%
X59000000Y-25000000D03*
D11*
X59000000Y-23000000D03*
X57000000Y-25000000D03*
X57000000Y-23000000D03*
X55000000Y-25000000D03*
X55000000Y-23000000D03*
X53000000Y-25000000D03*
X53000000Y-23000000D03*
X51000000Y-25000000D03*
X51000000Y-23000000D03*
X49000000Y-25000000D03*
X49000000Y-23000000D03*
X47000000Y-25000000D03*
X47000000Y-23000000D03*
X45000000Y-25000000D03*
X45000000Y-23000000D03*
X43000000Y-25000000D03*
X43000000Y-23000000D03*
X41000000Y-25000000D03*
X41000000Y-23000000D03*
X39000000Y-25000000D03*
X39000000Y-23000000D03*
X37000000Y-25000000D03*
X37000000Y-23000000D03*
X35000000Y-25000000D03*
X35000000Y-23000000D03*
X33000000Y-25000000D03*
X33000000Y-23000000D03*
X31000000Y-25000000D03*
X31000000Y-23000000D03*
X29000000Y-25000000D03*
X29000000Y-23000000D03*
X27000000Y-25000000D03*
X27000000Y-23000000D03*
X25000000Y-25000000D03*
X25000000Y-23000000D03*
X23000000Y-25000000D03*
X23000000Y-23000000D03*
X21000000Y-25000000D03*
X21000000Y-23000000D03*
%TD*%
D10*
%TO.C,J1*%
X59000000Y-25000000D03*
D11*
X59000000Y-23000000D03*
X57000000Y-25000000D03*
X57000000Y-23000000D03*
X55000000Y-25000000D03*
X55000000Y-23000000D03*
X53000000Y-25000000D03*
X53000000Y-23000000D03*
X51000000Y-25000000D03*
X51000000Y-23000000D03*
X49000000Y-25000000D03*
X49000000Y-23000000D03*
X47000000Y-25000000D03*
X47000000Y-23000000D03*
X45000000Y-25000000D03*
X45000000Y-23000000D03*
X43000000Y-25000000D03*
X43000000Y-23000000D03*
X41000000Y-25000000D03*
X41000000Y-23000000D03*
X39000000Y-25000000D03*
X39000000Y-23000000D03*
X37000000Y-25000000D03*
X37000000Y-23000000D03*
X35000000Y-25000000D03*
X35000000Y-23000000D03*
X33000000Y-25000000D03*
X33000000Y-23000000D03*
X31000000Y-25000000D03*
X31000000Y-23000000D03*
X29000000Y-25000000D03*
X29000000Y-23000000D03*
X27000000Y-25000000D03*
X27000000Y-23000000D03*
X25000000Y-25000000D03*
X25000000Y-23000000D03*
X23000000Y-25000000D03*
X23000000Y-23000000D03*
X21000000Y-25000000D03*
X21000000Y-23000000D03*
%TD*%
D12*
%TO.C,C64*%
X27820000Y-35000000D03*
X27180000Y-35000000D03*
%TD*%
%TO.C,C72*%
X27820000Y-34300000D03*
X27180000Y-34300000D03*
%TD*%
D13*
%TO.C,R11*%
X29000000Y-47840000D03*
X29000000Y-48860000D03*
%TD*%
D14*
%TO.C,C67*%
X31850000Y-33180000D03*
X31850000Y-33820000D03*
%TD*%
D15*
%TO.C,C24*%
X17300000Y-26050000D03*
X16340000Y-26050000D03*
%TD*%
D16*
%TO.C,C27*%
X16340000Y-24000000D03*
X17300000Y-24000000D03*
%TD*%
D17*
%TO.C,C69*%
X31850000Y-41820000D03*
X31850000Y-41180000D03*
%TD*%
D12*
%TO.C,C74*%
X27820000Y-33600000D03*
X27180000Y-33600000D03*
%TD*%
D14*
%TO.C,C43*%
X28550000Y-37180000D03*
X28550000Y-37820000D03*
%TD*%
%TO.C,C48*%
X32050000Y-37180000D03*
X32050000Y-37820000D03*
%TD*%
D12*
%TO.C,C63*%
X27820000Y-35700000D03*
X27180000Y-35700000D03*
%TD*%
%TO.C,C50*%
X27820000Y-39300000D03*
X27180000Y-39300000D03*
%TD*%
D14*
%TO.C,C47*%
X31350000Y-37180000D03*
X31350000Y-37820000D03*
%TD*%
%TO.C,C36*%
X23600000Y-37180000D03*
X23600000Y-37820000D03*
%TD*%
D16*
%TO.C,C12*%
X16340000Y-27050000D03*
X17300000Y-27050000D03*
%TD*%
D14*
%TO.C,C46*%
X30650000Y-37180000D03*
X30650000Y-37820000D03*
%TD*%
D13*
%TO.C,R16*%
X50477500Y-78990000D03*
X50477500Y-80010000D03*
%TD*%
D17*
%TO.C,C60*%
X23850000Y-41820000D03*
X23850000Y-41180000D03*
%TD*%
D12*
%TO.C,C52*%
X27820000Y-40700000D03*
X27180000Y-40700000D03*
%TD*%
D14*
%TO.C,C41*%
X26400000Y-37180000D03*
X26400000Y-37820000D03*
%TD*%
%TO.C,C35*%
X22900000Y-37180000D03*
X22900000Y-37820000D03*
%TD*%
%TO.C,C57*%
X23150000Y-33180000D03*
X23150000Y-33820000D03*
%TD*%
D12*
%TO.C,C59*%
X27820000Y-36400000D03*
X27180000Y-36400000D03*
%TD*%
%TO.C,C56*%
X27820000Y-41400000D03*
X27180000Y-41400000D03*
%TD*%
D17*
%TO.C,R15*%
X19997500Y-80000000D03*
X19997500Y-79360000D03*
%TD*%
D14*
%TO.C,C75*%
X27850000Y-37180000D03*
X27850000Y-37820000D03*
%TD*%
%TO.C,C44*%
X29250000Y-37180000D03*
X29250000Y-37820000D03*
%TD*%
D18*
%TO.C,R22*%
X16380000Y-29050000D03*
X16380000Y-28030000D03*
%TD*%
D12*
%TO.C,C51*%
X27820000Y-40000000D03*
X27180000Y-40000000D03*
%TD*%
D17*
%TO.C,C11*%
X63580000Y-53320000D03*
X63580000Y-52680000D03*
%TD*%
D14*
%TO.C,C39*%
X25000000Y-37180000D03*
X25000000Y-37820000D03*
%TD*%
%TO.C,C68*%
X31150000Y-33180000D03*
X31150000Y-33820000D03*
%TD*%
D16*
%TO.C,C8*%
X16340000Y-25050000D03*
X17300000Y-25050000D03*
%TD*%
D19*
%TO.C,R3*%
X34490000Y-51400000D03*
X35510000Y-51400000D03*
%TD*%
D14*
%TO.C,C45*%
X29950000Y-37180000D03*
X29950000Y-37820000D03*
%TD*%
%TO.C,C40*%
X25700000Y-37180000D03*
X25700000Y-37820000D03*
%TD*%
%TO.C,C37*%
X24300000Y-37180000D03*
X24300000Y-37820000D03*
%TD*%
D17*
%TO.C,C70*%
X31150000Y-41820000D03*
X31150000Y-41180000D03*
%TD*%
D18*
%TO.C,R17*%
X32697500Y-80010000D03*
X32697500Y-78990000D03*
%TD*%
D17*
%TO.C,C58*%
X23150000Y-41820000D03*
X23150000Y-41180000D03*
%TD*%
D14*
%TO.C,C55*%
X23850000Y-33180000D03*
X23850000Y-33820000D03*
%TD*%
D12*
%TO.C,C49*%
X27820000Y-38600000D03*
X27180000Y-38600000D03*
%TD*%
D14*
%TO.C,C42*%
X27150000Y-37180000D03*
X27150000Y-37820000D03*
%TD*%
M02*
