%TF.GenerationSoftware,KiCad,Pcbnew,7.0.10*%
%TF.CreationDate,2024-03-26T21:26:04+03:00*%
%TF.ProjectId,com_1300,636f6d5f-3133-4303-902e-6b696361645f,rev?*%
%TF.SameCoordinates,Original*%
%TF.FileFunction,Legend,Top*%
%TF.FilePolarity,Positive*%
%FSLAX46Y46*%
G04 Gerber Fmt 4.6, Leading zero omitted, Abs format (unit mm)*
G04 Created by KiCad (PCBNEW 7.0.10) date 2024-03-26 21:26:04*
%MOMM*%
%LPD*%
G01*
G04 APERTURE LIST*
%ADD10C,0.120000*%
%ADD11C,0.150000*%
%ADD12C,0.100000*%
G04 APERTURE END LIST*
D10*
%TO.C,U17*%
X40700000Y-29000000D02*
X41100000Y-29000000D01*
X40700000Y-39600000D02*
X40700000Y-29000000D01*
X63300000Y-39600000D02*
X63300000Y-29000000D01*
X41100000Y-40800000D02*
X41100000Y-39600000D01*
X62900000Y-29000000D02*
X63300000Y-29000000D01*
X41100000Y-39600000D02*
X40700000Y-39600000D01*
X62900000Y-39600000D02*
X63300000Y-39600000D01*
%TO.C,C17*%
X20235000Y-69500000D02*
X20235000Y-65590000D01*
X18365000Y-65590000D02*
X18365000Y-69500000D01*
X20235000Y-65590000D02*
X18365000Y-65590000D01*
%TO.C,U6*%
X35300000Y-69770000D02*
X38300000Y-69770000D01*
X34300000Y-66530000D02*
X36300000Y-66530000D01*
D11*
%TO.C,J2*%
X62335000Y-84800000D02*
X63835000Y-84800000D01*
X62335000Y-86800000D02*
X62335000Y-80800000D01*
X63835000Y-80800000D02*
X16165000Y-80800000D01*
D10*
X62735000Y-84800000D02*
X62735000Y-80800000D01*
D12*
X17665000Y-86450000D02*
X62335000Y-86450000D01*
D11*
X16165000Y-84800000D02*
X17665000Y-84800000D01*
X63835000Y-84800000D02*
X63835000Y-80800000D01*
D10*
X17265000Y-84800000D02*
X17265000Y-80800000D01*
D11*
X16165000Y-80800000D02*
X16165000Y-84800000D01*
X17665000Y-86800000D02*
X62335000Y-86800000D01*
X17665000Y-80800000D02*
X17665000Y-86800000D01*
D10*
%TO.C,R9*%
X38153641Y-51980000D02*
X37846359Y-51980000D01*
X38153641Y-51220000D02*
X37846359Y-51220000D01*
%TO.C,C82*%
X29222164Y-64340000D02*
X29437836Y-64340000D01*
X29222164Y-65060000D02*
X29437836Y-65060000D01*
%TO.C,C76*%
X32440000Y-53727836D02*
X32440000Y-53512164D01*
X33160000Y-53727836D02*
X33160000Y-53512164D01*
%TO.C,C1*%
X52115000Y-69360000D02*
X52115000Y-65450000D01*
X52115000Y-65450000D02*
X50245000Y-65450000D01*
X50245000Y-65450000D02*
X50245000Y-69360000D01*
%TO.C,R7*%
X32586359Y-66205000D02*
X32893641Y-66205000D01*
X32586359Y-65445000D02*
X32893641Y-65445000D01*
%TO.C,C4*%
X61575000Y-70070000D02*
X63445000Y-70070000D01*
X61575000Y-66160000D02*
X61575000Y-70070000D01*
X63445000Y-70070000D02*
X63445000Y-66160000D01*
%TO.C,RN2*%
X22700000Y-73900000D02*
X22700000Y-71700000D01*
X29300000Y-73900000D02*
X29300000Y-71700000D01*
D11*
%TO.C,U4*%
X57955000Y-49850000D02*
X57955000Y-49750000D01*
X57955000Y-43025000D02*
X57955000Y-43050000D01*
X62605000Y-43025000D02*
X62605000Y-43050000D01*
X62605000Y-43025000D02*
X57955000Y-43025000D01*
X63680000Y-49850000D02*
X57955000Y-49850000D01*
D10*
%TO.C,C13*%
X15740000Y-40392164D02*
X15740000Y-40607836D01*
X16460000Y-40392164D02*
X16460000Y-40607836D01*
%TO.C,C14*%
X27950000Y-65982164D02*
X27950000Y-66197836D01*
X28670000Y-65982164D02*
X28670000Y-66197836D01*
%TO.C,U1*%
X58560000Y-63200000D02*
X54800000Y-63200000D01*
X54800000Y-63200000D02*
X54800000Y-64460000D01*
X54800000Y-70020000D02*
X54800000Y-68760000D01*
X60810000Y-70020000D02*
X54800000Y-70020000D01*
%TO.C,R21*%
X37020000Y-45046359D02*
X37020000Y-45353641D01*
X37780000Y-45046359D02*
X37780000Y-45353641D01*
%TO.C,C34*%
X54027836Y-26660000D02*
X53812164Y-26660000D01*
X54027836Y-27380000D02*
X53812164Y-27380000D01*
%TO.C,TP1*%
X34500000Y-49500000D02*
G75*
G03*
X33100000Y-49500000I-700000J0D01*
G01*
X33100000Y-49500000D02*
G75*
G03*
X34500000Y-49500000I700000J0D01*
G01*
%TO.C,RN3*%
X29700000Y-73900000D02*
X29700000Y-71700000D01*
X36300000Y-73900000D02*
X36300000Y-71700000D01*
%TO.C,R14*%
X30426359Y-47920000D02*
X30733641Y-47920000D01*
X30426359Y-48680000D02*
X30733641Y-48680000D01*
%TO.C,U7*%
X23000000Y-69920000D02*
X26000000Y-69920000D01*
X24500000Y-66700000D02*
X26000000Y-66700000D01*
%TO.C,R6*%
X17980000Y-57636359D02*
X17980000Y-57943641D01*
X17220000Y-57636359D02*
X17220000Y-57943641D01*
%TO.C,R2*%
X22403641Y-66380000D02*
X22096359Y-66380000D01*
X22403641Y-65620000D02*
X22096359Y-65620000D01*
%TO.C,J1*%
X43360000Y-23862917D02*
X43360000Y-24137083D01*
X26000000Y-15320000D02*
X26000000Y-21790000D01*
X44640000Y-23862917D02*
X44640000Y-24137083D01*
X25360000Y-23862917D02*
X25360000Y-24137083D01*
X22640000Y-23862917D02*
X22640000Y-24137083D01*
X59597646Y-15320000D02*
X59597646Y-21790000D01*
X59141174Y-15320000D02*
X59141174Y-21790000D01*
X19940000Y-15320000D02*
X19940000Y-21790000D01*
X53360000Y-21790000D02*
X53360000Y-22137083D01*
X24640000Y-21790000D02*
X24640000Y-22137083D01*
X60060000Y-15320000D02*
X60060000Y-21790000D01*
X51360000Y-21790000D02*
X51360000Y-22137083D01*
X49360000Y-21790000D02*
X49360000Y-22137083D01*
X48640000Y-23862917D02*
X48640000Y-24137083D01*
X26640000Y-21790000D02*
X26640000Y-22137083D01*
X40640000Y-21790000D02*
X40640000Y-22137083D01*
X59825882Y-15320000D02*
X59825882Y-21790000D01*
X59483528Y-15320000D02*
X59483528Y-21790000D01*
X29360000Y-23862917D02*
X29360000Y-24137083D01*
X28640000Y-23862917D02*
X28640000Y-24137083D01*
X50000000Y-15320000D02*
X50000000Y-21790000D01*
X21360000Y-23862917D02*
X21360000Y-24137083D01*
X36640000Y-23862917D02*
X36640000Y-24137083D01*
X38000000Y-15320000D02*
X38000000Y-21790000D01*
X22640000Y-21790000D02*
X22640000Y-22137083D01*
X21360000Y-21790000D02*
X21360000Y-22137083D01*
X28000000Y-15320000D02*
X28000000Y-21790000D01*
X20640000Y-23862917D02*
X20640000Y-24137083D01*
X47360000Y-21790000D02*
X47360000Y-22137083D01*
X59711764Y-15320000D02*
X59711764Y-21790000D01*
X58640000Y-21790000D02*
X58640000Y-22137083D01*
X22000000Y-15320000D02*
X22000000Y-21790000D01*
X42640000Y-23862917D02*
X42640000Y-24137083D01*
X32640000Y-23862917D02*
X32640000Y-24137083D01*
X33360000Y-23862917D02*
X33360000Y-24137083D01*
X57360000Y-21790000D02*
X57360000Y-22137083D01*
X42000000Y-15320000D02*
X42000000Y-21790000D01*
X48640000Y-21790000D02*
X48640000Y-22137083D01*
X31360000Y-21790000D02*
X31360000Y-22137083D01*
X23360000Y-21790000D02*
X23360000Y-22137083D01*
X34640000Y-23862917D02*
X34640000Y-24137083D01*
X60060000Y-25000000D02*
X60060000Y-25935000D01*
X35360000Y-23862917D02*
X35360000Y-24137083D01*
X39360000Y-23862917D02*
X39360000Y-24137083D01*
X41360000Y-21790000D02*
X41360000Y-22137083D01*
X56640000Y-23862917D02*
X56640000Y-24137083D01*
X57360000Y-23862917D02*
X57360000Y-24137083D01*
X55360000Y-21790000D02*
X55360000Y-22137083D01*
X58228230Y-15320000D02*
X58228230Y-21790000D01*
X51360000Y-23862917D02*
X51360000Y-24137083D01*
X27360000Y-23862917D02*
X27360000Y-24137083D01*
X33360000Y-21790000D02*
X33360000Y-22137083D01*
X50640000Y-23862917D02*
X50640000Y-24137083D01*
X29360000Y-21790000D02*
X29360000Y-22137083D01*
X44000000Y-15320000D02*
X44000000Y-21790000D01*
X45360000Y-21790000D02*
X45360000Y-22137083D01*
X38640000Y-21790000D02*
X38640000Y-22137083D01*
X39360000Y-21790000D02*
X39360000Y-22137083D01*
X47360000Y-23862917D02*
X47360000Y-24137083D01*
X42640000Y-21790000D02*
X42640000Y-22137083D01*
X24000000Y-15320000D02*
X24000000Y-21790000D01*
X31360000Y-23862917D02*
X31360000Y-24137083D01*
X38640000Y-23862917D02*
X38640000Y-24137083D01*
X54000000Y-15320000D02*
X54000000Y-21790000D01*
X52000000Y-15320000D02*
X52000000Y-21790000D01*
X36000000Y-15320000D02*
X36000000Y-21790000D01*
X60060000Y-25935000D02*
X59000000Y-25935000D01*
X53360000Y-23862917D02*
X53360000Y-24137083D01*
X43360000Y-21790000D02*
X43360000Y-22137083D01*
X48000000Y-15320000D02*
X48000000Y-21790000D01*
X40000000Y-15320000D02*
X40000000Y-21790000D01*
X59360000Y-21790000D02*
X59360000Y-22137083D01*
X23360000Y-23862917D02*
X23360000Y-24137083D01*
X54640000Y-21790000D02*
X54640000Y-22137083D01*
X30000000Y-15320000D02*
X30000000Y-21790000D01*
X28640000Y-21790000D02*
X28640000Y-22137083D01*
X59255292Y-15320000D02*
X59255292Y-21790000D01*
X25360000Y-21790000D02*
X25360000Y-22137083D01*
X46640000Y-21790000D02*
X46640000Y-22137083D01*
X35360000Y-21790000D02*
X35360000Y-22137083D01*
X52640000Y-23862917D02*
X52640000Y-24137083D01*
X60060000Y-21790000D02*
X19940000Y-21790000D01*
X37360000Y-23862917D02*
X37360000Y-24137083D01*
X59940000Y-15320000D02*
X59940000Y-21790000D01*
X40640000Y-23862917D02*
X40640000Y-24137083D01*
X60060000Y-15320000D02*
X19940000Y-15320000D01*
X56640000Y-21790000D02*
X56640000Y-22137083D01*
X58798820Y-15320000D02*
X58798820Y-21790000D01*
X58000000Y-15320000D02*
X58000000Y-21790000D01*
X30640000Y-23862917D02*
X30640000Y-24137083D01*
X32640000Y-21790000D02*
X32640000Y-22137083D01*
X27360000Y-21790000D02*
X27360000Y-22137083D01*
X49360000Y-23862917D02*
X49360000Y-24137083D01*
X58570584Y-15320000D02*
X58570584Y-21790000D01*
X44640000Y-21790000D02*
X44640000Y-22137083D01*
X59369410Y-15320000D02*
X59369410Y-21790000D01*
X20640000Y-21790000D02*
X20640000Y-22137083D01*
X24640000Y-23862917D02*
X24640000Y-24137083D01*
X59360000Y-23862917D02*
X59360000Y-24065000D01*
X52640000Y-21790000D02*
X52640000Y-22137083D01*
X56000000Y-15320000D02*
X56000000Y-21790000D01*
X46000000Y-15320000D02*
X46000000Y-21790000D01*
X50640000Y-21790000D02*
X50640000Y-22137083D01*
X30640000Y-21790000D02*
X30640000Y-22137083D01*
X58456466Y-15320000D02*
X58456466Y-21790000D01*
X58640000Y-23862917D02*
X58640000Y-24065000D01*
X54640000Y-23862917D02*
X54640000Y-24137083D01*
X34640000Y-21790000D02*
X34640000Y-22137083D01*
X36640000Y-21790000D02*
X36640000Y-22137083D01*
X58342348Y-15320000D02*
X58342348Y-21790000D01*
X58114112Y-15320000D02*
X58114112Y-21790000D01*
X26640000Y-23862917D02*
X26640000Y-24137083D01*
X59027056Y-15320000D02*
X59027056Y-21790000D01*
X41360000Y-23862917D02*
X41360000Y-24137083D01*
X45360000Y-23862917D02*
X45360000Y-24137083D01*
X46640000Y-23862917D02*
X46640000Y-24137083D01*
X34000000Y-15320000D02*
X34000000Y-21790000D01*
X58912938Y-15320000D02*
X58912938Y-21790000D01*
X58684702Y-15320000D02*
X58684702Y-21790000D01*
X37360000Y-21790000D02*
X37360000Y-22137083D01*
X55360000Y-23862917D02*
X55360000Y-24137083D01*
X32000000Y-15320000D02*
X32000000Y-21790000D01*
%TO.C,RN5*%
X50300000Y-73900000D02*
X50300000Y-71700000D01*
X43700000Y-73900000D02*
X43700000Y-71700000D01*
%TO.C,C10*%
X37692164Y-66235000D02*
X37907836Y-66235000D01*
X37692164Y-65515000D02*
X37907836Y-65515000D01*
%TO.C,RN7*%
X57700000Y-73900000D02*
X57700000Y-71700000D01*
X64300000Y-73900000D02*
X64300000Y-71700000D01*
%TO.C,RN8*%
X40200000Y-67800000D02*
X40200000Y-65600000D01*
X46800000Y-67800000D02*
X46800000Y-65600000D01*
%TO.C,C16*%
X29015000Y-66160000D02*
X29015000Y-70070000D01*
X29015000Y-70070000D02*
X30885000Y-70070000D01*
X30885000Y-70070000D02*
X30885000Y-66160000D01*
%TO.C,J4*%
X39265000Y-52360000D02*
X35735000Y-52360000D01*
X39265000Y-52425000D02*
X39265000Y-52360000D01*
X40590000Y-62575000D02*
X39265000Y-62575000D01*
X35735000Y-52425000D02*
X35735000Y-52360000D01*
X35735000Y-62640000D02*
X35735000Y-62575000D01*
X39265000Y-62640000D02*
X39265000Y-62575000D01*
X39265000Y-62640000D02*
X35735000Y-62640000D01*
%TO.C,C83*%
X17092164Y-49370000D02*
X17307836Y-49370000D01*
X17092164Y-50090000D02*
X17307836Y-50090000D01*
%TO.C,J3*%
X44760000Y-47330000D02*
X44760000Y-44670000D01*
X44820000Y-44670000D02*
X44820000Y-43210000D01*
X55040000Y-47330000D02*
X55040000Y-44670000D01*
X54980000Y-47330000D02*
X55040000Y-47330000D01*
X44760000Y-47330000D02*
X44820000Y-47330000D01*
X54980000Y-44670000D02*
X55040000Y-44670000D01*
X44760000Y-44670000D02*
X44820000Y-44670000D01*
%TO.C,C26*%
X19040000Y-50042164D02*
X19040000Y-50257836D01*
X19760000Y-50042164D02*
X19760000Y-50257836D01*
%TO.C,R8*%
X27953641Y-67930000D02*
X27646359Y-67930000D01*
X27953641Y-67170000D02*
X27646359Y-67170000D01*
%TO.C,RN1*%
X15700000Y-73900000D02*
X15700000Y-71700000D01*
X22300000Y-73900000D02*
X22300000Y-71700000D01*
%TO.C,C5*%
X17107836Y-65160000D02*
X16892164Y-65160000D01*
X17107836Y-64440000D02*
X16892164Y-64440000D01*
%TO.C,RN4*%
X36700000Y-73900000D02*
X36700000Y-71700000D01*
X43300000Y-73900000D02*
X43300000Y-71700000D01*
%TO.C,U3*%
X53200000Y-62660000D02*
X62400000Y-62660000D01*
X53200000Y-50340000D02*
X42725000Y-50340000D01*
X53200000Y-50340000D02*
X62400000Y-50340000D01*
X53200000Y-62660000D02*
X44000000Y-62660000D01*
%TO.C,RN6*%
X50700000Y-73900000D02*
X50700000Y-71700000D01*
X57300000Y-73900000D02*
X57300000Y-71700000D01*
%TO.C,U5*%
X18890000Y-46110000D02*
X18890000Y-29890000D01*
X19890000Y-28890000D02*
X36110000Y-28890000D01*
X36110000Y-28890000D02*
X36110000Y-46110000D01*
X36110000Y-46110000D02*
X18890000Y-46110000D01*
%TO.C,J1*%
X45360000Y-21790000D02*
X45360000Y-22137083D01*
X53360000Y-23862917D02*
X53360000Y-24137083D01*
X42000000Y-15320000D02*
X42000000Y-21790000D01*
X34640000Y-21790000D02*
X34640000Y-22137083D01*
X23360000Y-21790000D02*
X23360000Y-22137083D01*
X42640000Y-23862917D02*
X42640000Y-24137083D01*
X35360000Y-23862917D02*
X35360000Y-24137083D01*
X58456466Y-15320000D02*
X58456466Y-21790000D01*
X46640000Y-21790000D02*
X46640000Y-22137083D01*
X33360000Y-23862917D02*
X33360000Y-24137083D01*
X23360000Y-23862917D02*
X23360000Y-24137083D01*
X29360000Y-21790000D02*
X29360000Y-22137083D01*
X58570584Y-15320000D02*
X58570584Y-21790000D01*
X40640000Y-23862917D02*
X40640000Y-24137083D01*
X32640000Y-21790000D02*
X32640000Y-22137083D01*
X38000000Y-15320000D02*
X38000000Y-21790000D01*
X36000000Y-15320000D02*
X36000000Y-21790000D01*
X19940000Y-15320000D02*
X19940000Y-21790000D01*
X44640000Y-23862917D02*
X44640000Y-24137083D01*
X59141174Y-15320000D02*
X59141174Y-21790000D01*
X58342348Y-15320000D02*
X58342348Y-21790000D01*
X59360000Y-23862917D02*
X59360000Y-24065000D01*
X41360000Y-23862917D02*
X41360000Y-24137083D01*
X36640000Y-21790000D02*
X36640000Y-22137083D01*
X51360000Y-23862917D02*
X51360000Y-24137083D01*
X22640000Y-21790000D02*
X22640000Y-22137083D01*
X24640000Y-23862917D02*
X24640000Y-24137083D01*
X60060000Y-15320000D02*
X19940000Y-15320000D01*
X50640000Y-21790000D02*
X50640000Y-22137083D01*
X21360000Y-23862917D02*
X21360000Y-24137083D01*
X55360000Y-21790000D02*
X55360000Y-22137083D01*
X48000000Y-15320000D02*
X48000000Y-21790000D01*
X26640000Y-21790000D02*
X26640000Y-22137083D01*
X38640000Y-21790000D02*
X38640000Y-22137083D01*
X27360000Y-21790000D02*
X27360000Y-22137083D01*
X54640000Y-23862917D02*
X54640000Y-24137083D01*
X48640000Y-21790000D02*
X48640000Y-22137083D01*
X46640000Y-23862917D02*
X46640000Y-24137083D01*
X25360000Y-21790000D02*
X25360000Y-22137083D01*
X31360000Y-21790000D02*
X31360000Y-22137083D01*
X50000000Y-15320000D02*
X50000000Y-21790000D01*
X49360000Y-23862917D02*
X49360000Y-24137083D01*
X52640000Y-21790000D02*
X52640000Y-22137083D01*
X59360000Y-21790000D02*
X59360000Y-22137083D01*
X42640000Y-21790000D02*
X42640000Y-22137083D01*
X21360000Y-21790000D02*
X21360000Y-22137083D01*
X56640000Y-23862917D02*
X56640000Y-24137083D01*
X52640000Y-23862917D02*
X52640000Y-24137083D01*
X59711764Y-15320000D02*
X59711764Y-21790000D01*
X28000000Y-15320000D02*
X28000000Y-21790000D01*
X39360000Y-21790000D02*
X39360000Y-22137083D01*
X60060000Y-21790000D02*
X19940000Y-21790000D01*
X58228230Y-15320000D02*
X58228230Y-21790000D01*
X22000000Y-15320000D02*
X22000000Y-21790000D01*
X50640000Y-23862917D02*
X50640000Y-24137083D01*
X33360000Y-21790000D02*
X33360000Y-22137083D01*
X58640000Y-21790000D02*
X58640000Y-22137083D01*
X36640000Y-23862917D02*
X36640000Y-24137083D01*
X60060000Y-25000000D02*
X60060000Y-25935000D01*
X39360000Y-23862917D02*
X39360000Y-24137083D01*
X44000000Y-15320000D02*
X44000000Y-21790000D01*
X27360000Y-23862917D02*
X27360000Y-24137083D01*
X32000000Y-15320000D02*
X32000000Y-21790000D01*
X59940000Y-15320000D02*
X59940000Y-21790000D01*
X58912938Y-15320000D02*
X58912938Y-21790000D01*
X40640000Y-21790000D02*
X40640000Y-22137083D01*
X24640000Y-21790000D02*
X24640000Y-22137083D01*
X37360000Y-23862917D02*
X37360000Y-24137083D01*
X52000000Y-15320000D02*
X52000000Y-21790000D01*
X20640000Y-23862917D02*
X20640000Y-24137083D01*
X44640000Y-21790000D02*
X44640000Y-22137083D01*
X59825882Y-15320000D02*
X59825882Y-21790000D01*
X58798820Y-15320000D02*
X58798820Y-21790000D01*
X30640000Y-21790000D02*
X30640000Y-22137083D01*
X28640000Y-23862917D02*
X28640000Y-24137083D01*
X57360000Y-23862917D02*
X57360000Y-24137083D01*
X46000000Y-15320000D02*
X46000000Y-21790000D01*
X59027056Y-15320000D02*
X59027056Y-21790000D01*
X56000000Y-15320000D02*
X56000000Y-21790000D01*
X47360000Y-21790000D02*
X47360000Y-22137083D01*
X54640000Y-21790000D02*
X54640000Y-22137083D01*
X38640000Y-23862917D02*
X38640000Y-24137083D01*
X30640000Y-23862917D02*
X30640000Y-24137083D01*
X43360000Y-21790000D02*
X43360000Y-22137083D01*
X54000000Y-15320000D02*
X54000000Y-21790000D01*
X58000000Y-15320000D02*
X58000000Y-21790000D01*
X59597646Y-15320000D02*
X59597646Y-21790000D01*
X59483528Y-15320000D02*
X59483528Y-21790000D01*
X55360000Y-23862917D02*
X55360000Y-24137083D01*
X32640000Y-23862917D02*
X32640000Y-24137083D01*
X24000000Y-15320000D02*
X24000000Y-21790000D01*
X41360000Y-21790000D02*
X41360000Y-22137083D01*
X59369410Y-15320000D02*
X59369410Y-21790000D01*
X56640000Y-21790000D02*
X56640000Y-22137083D01*
X25360000Y-23862917D02*
X25360000Y-24137083D01*
X35360000Y-21790000D02*
X35360000Y-22137083D01*
X49360000Y-21790000D02*
X49360000Y-22137083D01*
X53360000Y-21790000D02*
X53360000Y-22137083D01*
X37360000Y-21790000D02*
X37360000Y-22137083D01*
X58684702Y-15320000D02*
X58684702Y-21790000D01*
X51360000Y-21790000D02*
X51360000Y-22137083D01*
X47360000Y-23862917D02*
X47360000Y-24137083D01*
X48640000Y-23862917D02*
X48640000Y-24137083D01*
X30000000Y-15320000D02*
X30000000Y-21790000D01*
X60060000Y-15320000D02*
X60060000Y-21790000D01*
X57360000Y-21790000D02*
X57360000Y-22137083D01*
X58640000Y-23862917D02*
X58640000Y-24065000D01*
X59255292Y-15320000D02*
X59255292Y-21790000D01*
X34000000Y-15320000D02*
X34000000Y-21790000D01*
X60060000Y-25935000D02*
X59000000Y-25935000D01*
X26000000Y-15320000D02*
X26000000Y-21790000D01*
X45360000Y-23862917D02*
X45360000Y-24137083D01*
X20640000Y-21790000D02*
X20640000Y-22137083D01*
X31360000Y-23862917D02*
X31360000Y-24137083D01*
X26640000Y-23862917D02*
X26640000Y-24137083D01*
X43360000Y-23862917D02*
X43360000Y-24137083D01*
X58114112Y-15320000D02*
X58114112Y-21790000D01*
X34640000Y-23862917D02*
X34640000Y-24137083D01*
X28640000Y-21790000D02*
X28640000Y-22137083D01*
X40000000Y-15320000D02*
X40000000Y-21790000D01*
X29360000Y-23862917D02*
X29360000Y-24137083D01*
X22640000Y-23862917D02*
X22640000Y-24137083D01*
%TO.C,TP2*%
X32900000Y-49500000D02*
G75*
G03*
X31500000Y-49500000I-700000J0D01*
G01*
X31500000Y-49500000D02*
G75*
G03*
X32900000Y-49500000I700000J0D01*
G01*
%TO.C,R13*%
X27953641Y-68220000D02*
X27646359Y-68220000D01*
X27953641Y-68980000D02*
X27646359Y-68980000D01*
%TO.C,U2*%
X21440000Y-52390000D02*
X20490000Y-52390000D01*
X30710000Y-62610000D02*
X30710000Y-61660000D01*
X20490000Y-53340000D02*
X19150000Y-53340000D01*
X29760000Y-62610000D02*
X30710000Y-62610000D01*
X20490000Y-52390000D02*
X20490000Y-53340000D01*
X21440000Y-62610000D02*
X20490000Y-62610000D01*
X29760000Y-52390000D02*
X30710000Y-52390000D01*
X30710000Y-52390000D02*
X30710000Y-53340000D01*
X20490000Y-62610000D02*
X20490000Y-61660000D01*
%TO.C,Y1*%
X18650000Y-60200000D02*
X15350000Y-60200000D01*
X15350000Y-60200000D02*
X15350000Y-64200000D01*
%TO.C,C2*%
X49935000Y-69360000D02*
X49935000Y-65450000D01*
X49935000Y-65450000D02*
X48065000Y-65450000D01*
X48065000Y-65450000D02*
X48065000Y-69360000D01*
%TO.C,R1*%
X19953641Y-64210000D02*
X19646359Y-64210000D01*
X19953641Y-63450000D02*
X19646359Y-63450000D01*
%TO.C,R23*%
X39630000Y-66778641D02*
X39630000Y-66471359D01*
X38870000Y-66778641D02*
X38870000Y-66471359D01*
%TO.C,C9*%
X24907836Y-27250000D02*
X24692164Y-27250000D01*
X24907836Y-26530000D02*
X24692164Y-26530000D01*
%TO.C,L1*%
X21910000Y-68709622D02*
X21910000Y-67910378D01*
X20790000Y-68709622D02*
X20790000Y-67910378D01*
%TO.C,R4*%
X18653641Y-49080000D02*
X18346359Y-49080000D01*
X18653641Y-48320000D02*
X18346359Y-48320000D01*
%TO.C,R5*%
X34586359Y-65445000D02*
X34893641Y-65445000D01*
X34586359Y-66205000D02*
X34893641Y-66205000D01*
%TO.C,C3*%
X16392164Y-59240000D02*
X16607836Y-59240000D01*
X16392164Y-59960000D02*
X16607836Y-59960000D01*
%TO.C,R12*%
X25843641Y-66380000D02*
X25536359Y-66380000D01*
X25843641Y-65620000D02*
X25536359Y-65620000D01*
%TO.C,Y2*%
X18600000Y-53680000D02*
X18600000Y-50380000D01*
X15800000Y-53680000D02*
X18600000Y-53680000D01*
%TO.C,C15*%
X17985000Y-65590000D02*
X16115000Y-65590000D01*
X17985000Y-69500000D02*
X17985000Y-65590000D01*
X16115000Y-65590000D02*
X16115000Y-69500000D01*
%TO.C,C22*%
X38880000Y-68483164D02*
X38880000Y-68698836D01*
X39600000Y-68483164D02*
X39600000Y-68698836D01*
%TO.C,C21*%
X17307836Y-53970000D02*
X17092164Y-53970000D01*
X17307836Y-54690000D02*
X17092164Y-54690000D01*
%TD*%
M02*
