%TF.GenerationSoftware,KiCad,Pcbnew,7.0.10*%
%TF.CreationDate,2024-03-26T21:26:04+03:00*%
%TF.ProjectId,com_1300,636f6d5f-3133-4303-902e-6b696361645f,rev?*%
%TF.SameCoordinates,Original*%
%TF.FileFunction,Legend,Bot*%
%TF.FilePolarity,Positive*%
%FSLAX46Y46*%
G04 Gerber Fmt 4.6, Leading zero omitted, Abs format (unit mm)*
G04 Created by KiCad (PCBNEW 7.0.10) date 2024-03-26 21:26:04*
%MOMM*%
%LPD*%
G01*
G04 APERTURE LIST*
%ADD10C,0.150000*%
%ADD11C,0.120000*%
G04 APERTURE END LIST*
D10*
X33446189Y-79791847D02*
X33446189Y-78791847D01*
X33446189Y-79744228D02*
X33541427Y-79791847D01*
X33541427Y-79791847D02*
X33731903Y-79791847D01*
X33731903Y-79791847D02*
X33827141Y-79744228D01*
X33827141Y-79744228D02*
X33874760Y-79696609D01*
X33874760Y-79696609D02*
X33922379Y-79601371D01*
X33922379Y-79601371D02*
X33922379Y-79315657D01*
X33922379Y-79315657D02*
X33874760Y-79220419D01*
X33874760Y-79220419D02*
X33827141Y-79172800D01*
X33827141Y-79172800D02*
X33731903Y-79125180D01*
X33731903Y-79125180D02*
X33541427Y-79125180D01*
X33541427Y-79125180D02*
X33446189Y-79172800D01*
X34350951Y-79125180D02*
X34350951Y-79791847D01*
X34350951Y-79601371D02*
X34398570Y-79696609D01*
X34398570Y-79696609D02*
X34446189Y-79744228D01*
X34446189Y-79744228D02*
X34541427Y-79791847D01*
X34541427Y-79791847D02*
X34636665Y-79791847D01*
X35112856Y-79125180D02*
X35017618Y-79172800D01*
X35017618Y-79172800D02*
X34969999Y-79220419D01*
X34969999Y-79220419D02*
X34922380Y-79315657D01*
X34922380Y-79315657D02*
X34922380Y-79601371D01*
X34922380Y-79601371D02*
X34969999Y-79696609D01*
X34969999Y-79696609D02*
X35017618Y-79744228D01*
X35017618Y-79744228D02*
X35112856Y-79791847D01*
X35112856Y-79791847D02*
X35255713Y-79791847D01*
X35255713Y-79791847D02*
X35350951Y-79744228D01*
X35350951Y-79744228D02*
X35398570Y-79696609D01*
X35398570Y-79696609D02*
X35446189Y-79601371D01*
X35446189Y-79601371D02*
X35446189Y-79315657D01*
X35446189Y-79315657D02*
X35398570Y-79220419D01*
X35398570Y-79220419D02*
X35350951Y-79172800D01*
X35350951Y-79172800D02*
X35255713Y-79125180D01*
X35255713Y-79125180D02*
X35112856Y-79125180D01*
X36303332Y-79125180D02*
X36303332Y-80125180D01*
X36303332Y-79172800D02*
X36208094Y-79125180D01*
X36208094Y-79125180D02*
X36017618Y-79125180D01*
X36017618Y-79125180D02*
X35922380Y-79172800D01*
X35922380Y-79172800D02*
X35874761Y-79220419D01*
X35874761Y-79220419D02*
X35827142Y-79315657D01*
X35827142Y-79315657D02*
X35827142Y-79601371D01*
X35827142Y-79601371D02*
X35874761Y-79696609D01*
X35874761Y-79696609D02*
X35922380Y-79744228D01*
X35922380Y-79744228D02*
X36017618Y-79791847D01*
X36017618Y-79791847D02*
X36208094Y-79791847D01*
X36208094Y-79791847D02*
X36303332Y-79744228D01*
X36779523Y-79220419D02*
X36827142Y-79172800D01*
X36827142Y-79172800D02*
X36779523Y-79125180D01*
X36779523Y-79125180D02*
X36731904Y-79172800D01*
X36731904Y-79172800D02*
X36779523Y-79220419D01*
X36779523Y-79220419D02*
X36779523Y-79125180D01*
X38017618Y-79125180D02*
X38017618Y-80125180D01*
X38017618Y-79744228D02*
X38112856Y-79791847D01*
X38112856Y-79791847D02*
X38303332Y-79791847D01*
X38303332Y-79791847D02*
X38398570Y-79744228D01*
X38398570Y-79744228D02*
X38446189Y-79696609D01*
X38446189Y-79696609D02*
X38493808Y-79601371D01*
X38493808Y-79601371D02*
X38493808Y-79315657D01*
X38493808Y-79315657D02*
X38446189Y-79220419D01*
X38446189Y-79220419D02*
X38398570Y-79172800D01*
X38398570Y-79172800D02*
X38303332Y-79125180D01*
X38303332Y-79125180D02*
X38112856Y-79125180D01*
X38112856Y-79125180D02*
X38017618Y-79172800D01*
X38827142Y-79791847D02*
X39065237Y-79125180D01*
X39303332Y-79791847D02*
X39065237Y-79125180D01*
X39065237Y-79125180D02*
X38969999Y-78887085D01*
X38969999Y-78887085D02*
X38922380Y-78839466D01*
X38922380Y-78839466D02*
X38827142Y-78791847D01*
X40874761Y-79172800D02*
X40779523Y-79125180D01*
X40779523Y-79125180D02*
X40589047Y-79125180D01*
X40589047Y-79125180D02*
X40493809Y-79172800D01*
X40493809Y-79172800D02*
X40446190Y-79220419D01*
X40446190Y-79220419D02*
X40398571Y-79315657D01*
X40398571Y-79315657D02*
X40398571Y-79601371D01*
X40398571Y-79601371D02*
X40446190Y-79696609D01*
X40446190Y-79696609D02*
X40493809Y-79744228D01*
X40493809Y-79744228D02*
X40589047Y-79791847D01*
X40589047Y-79791847D02*
X40779523Y-79791847D01*
X40779523Y-79791847D02*
X40874761Y-79744228D01*
X41446190Y-79125180D02*
X41350952Y-79172800D01*
X41350952Y-79172800D02*
X41303333Y-79220419D01*
X41303333Y-79220419D02*
X41255714Y-79315657D01*
X41255714Y-79315657D02*
X41255714Y-79601371D01*
X41255714Y-79601371D02*
X41303333Y-79696609D01*
X41303333Y-79696609D02*
X41350952Y-79744228D01*
X41350952Y-79744228D02*
X41446190Y-79791847D01*
X41446190Y-79791847D02*
X41589047Y-79791847D01*
X41589047Y-79791847D02*
X41684285Y-79744228D01*
X41684285Y-79744228D02*
X41731904Y-79696609D01*
X41731904Y-79696609D02*
X41779523Y-79601371D01*
X41779523Y-79601371D02*
X41779523Y-79315657D01*
X41779523Y-79315657D02*
X41731904Y-79220419D01*
X41731904Y-79220419D02*
X41684285Y-79172800D01*
X41684285Y-79172800D02*
X41589047Y-79125180D01*
X41589047Y-79125180D02*
X41446190Y-79125180D01*
X42350952Y-79125180D02*
X42255714Y-79172800D01*
X42255714Y-79172800D02*
X42208095Y-79220419D01*
X42208095Y-79220419D02*
X42160476Y-79315657D01*
X42160476Y-79315657D02*
X42160476Y-79601371D01*
X42160476Y-79601371D02*
X42208095Y-79696609D01*
X42208095Y-79696609D02*
X42255714Y-79744228D01*
X42255714Y-79744228D02*
X42350952Y-79791847D01*
X42350952Y-79791847D02*
X42493809Y-79791847D01*
X42493809Y-79791847D02*
X42589047Y-79744228D01*
X42589047Y-79744228D02*
X42636666Y-79696609D01*
X42636666Y-79696609D02*
X42684285Y-79601371D01*
X42684285Y-79601371D02*
X42684285Y-79315657D01*
X42684285Y-79315657D02*
X42636666Y-79220419D01*
X42636666Y-79220419D02*
X42589047Y-79172800D01*
X42589047Y-79172800D02*
X42493809Y-79125180D01*
X42493809Y-79125180D02*
X42350952Y-79125180D01*
X43255714Y-79125180D02*
X43160476Y-79172800D01*
X43160476Y-79172800D02*
X43112857Y-79268038D01*
X43112857Y-79268038D02*
X43112857Y-80125180D01*
X44827143Y-79125180D02*
X44827143Y-80125180D01*
X44827143Y-79172800D02*
X44731905Y-79125180D01*
X44731905Y-79125180D02*
X44541429Y-79125180D01*
X44541429Y-79125180D02*
X44446191Y-79172800D01*
X44446191Y-79172800D02*
X44398572Y-79220419D01*
X44398572Y-79220419D02*
X44350953Y-79315657D01*
X44350953Y-79315657D02*
X44350953Y-79601371D01*
X44350953Y-79601371D02*
X44398572Y-79696609D01*
X44398572Y-79696609D02*
X44446191Y-79744228D01*
X44446191Y-79744228D02*
X44541429Y-79791847D01*
X44541429Y-79791847D02*
X44731905Y-79791847D01*
X44731905Y-79791847D02*
X44827143Y-79744228D01*
X45731905Y-79125180D02*
X45731905Y-79648990D01*
X45731905Y-79648990D02*
X45684286Y-79744228D01*
X45684286Y-79744228D02*
X45589048Y-79791847D01*
X45589048Y-79791847D02*
X45398572Y-79791847D01*
X45398572Y-79791847D02*
X45303334Y-79744228D01*
X45731905Y-79172800D02*
X45636667Y-79125180D01*
X45636667Y-79125180D02*
X45398572Y-79125180D01*
X45398572Y-79125180D02*
X45303334Y-79172800D01*
X45303334Y-79172800D02*
X45255715Y-79268038D01*
X45255715Y-79268038D02*
X45255715Y-79363276D01*
X45255715Y-79363276D02*
X45303334Y-79458514D01*
X45303334Y-79458514D02*
X45398572Y-79506133D01*
X45398572Y-79506133D02*
X45636667Y-79506133D01*
X45636667Y-79506133D02*
X45731905Y-79553752D01*
X46112858Y-79791847D02*
X46350953Y-79125180D01*
X46589048Y-79791847D02*
X46350953Y-79125180D01*
X46350953Y-79125180D02*
X46255715Y-78887085D01*
X46255715Y-78887085D02*
X46208096Y-78839466D01*
X46208096Y-78839466D02*
X46112858Y-78791847D01*
D11*
%TO.C,R11*%
X29380000Y-48196359D02*
X29380000Y-48503641D01*
X28620000Y-48196359D02*
X28620000Y-48503641D01*
%TO.C,C24*%
X16927836Y-25690000D02*
X16712164Y-25690000D01*
X16927836Y-26410000D02*
X16712164Y-26410000D01*
%TO.C,C27*%
X16712164Y-24360000D02*
X16927836Y-24360000D01*
X16712164Y-23640000D02*
X16927836Y-23640000D01*
%TO.C,C12*%
X16712164Y-27410000D02*
X16927836Y-27410000D01*
X16712164Y-26690000D02*
X16927836Y-26690000D01*
%TO.C,R16*%
X50097500Y-79346359D02*
X50097500Y-79653641D01*
X50857500Y-79346359D02*
X50857500Y-79653641D01*
%TO.C,R22*%
X16000000Y-28693641D02*
X16000000Y-28386359D01*
X16760000Y-28693641D02*
X16760000Y-28386359D01*
%TO.C,C8*%
X16712164Y-25410000D02*
X16927836Y-25410000D01*
X16712164Y-24690000D02*
X16927836Y-24690000D01*
%TO.C,R3*%
X34846359Y-51020000D02*
X35153641Y-51020000D01*
X34846359Y-51780000D02*
X35153641Y-51780000D01*
%TO.C,R17*%
X33077500Y-79653641D02*
X33077500Y-79346359D01*
X32317500Y-79653641D02*
X32317500Y-79346359D01*
%TD*%
M02*
