G04*
G04 #@! TF.GenerationSoftware,Altium Limited,Altium Designer,24.4.1 (13)*
G04*
G04 Layer_Physical_Order=2*
G04 Layer_Color=36540*
%FSLAX44Y44*%
%MOMM*%
G71*
G04*
G04 #@! TF.SameCoordinates,5027E0DA-7AC5-4DA1-8C9F-505C02323C3A*
G04*
G04*
G04 #@! TF.FilePolarity,Positive*
G04*
G01*
G75*
%ADD79C,1.5000*%
%ADD80R,1.5000X1.5000*%
%ADD81C,0.5000*%
%ADD82C,0.6000*%
G36*
X947451Y671050D02*
X946181Y670023D01*
X946000Y670059D01*
X943000D01*
X941830Y669826D01*
X941775Y669789D01*
X940538Y670078D01*
X940102Y670833D01*
X938333Y672602D01*
X936167Y673853D01*
X934338Y674343D01*
Y675657D01*
X936167Y676147D01*
X938333Y677398D01*
X940102Y679167D01*
X941352Y681333D01*
X942000Y683749D01*
Y686251D01*
X941352Y688667D01*
X940102Y690833D01*
X938333Y692602D01*
X936167Y693853D01*
X933751Y694500D01*
X931249D01*
X928833Y693853D01*
X926667Y692602D01*
X924898Y690833D01*
X923647Y688667D01*
X923000Y686251D01*
Y683749D01*
X923647Y681333D01*
X924898Y679167D01*
X926667Y677398D01*
X928833Y676147D01*
X930662Y675657D01*
Y674343D01*
X928833Y673853D01*
X926667Y672602D01*
X924898Y670833D01*
X923927Y669151D01*
X922531Y669123D01*
X922521Y669127D01*
X922163Y669663D01*
X921171Y670326D01*
X920000Y670559D01*
X906500D01*
X905330Y670326D01*
X904337Y669663D01*
X904337Y669663D01*
X897837Y663163D01*
X897837Y663163D01*
X897837Y663163D01*
X880337Y645663D01*
X879674Y644670D01*
X879441Y643500D01*
X879441Y643500D01*
Y635000D01*
Y630000D01*
X879674Y628829D01*
X880337Y627837D01*
X881329Y627174D01*
X882500Y626941D01*
X883671Y627174D01*
X884663Y627837D01*
X885326Y628829D01*
X885559Y630000D01*
Y642233D01*
X902163Y658837D01*
X902163Y658837D01*
X902163Y658837D01*
X907767Y664441D01*
X920000D01*
X921171Y664674D01*
X921730Y665048D01*
X923000Y664478D01*
Y663749D01*
X923647Y661333D01*
X924898Y659167D01*
X926667Y657398D01*
X928833Y656147D01*
X930662Y655657D01*
Y654343D01*
X928833Y653853D01*
X926667Y652602D01*
X924898Y650833D01*
X923647Y648667D01*
X923000Y646251D01*
Y643749D01*
X923647Y641333D01*
X924898Y639167D01*
X926667Y637398D01*
X928833Y636147D01*
X930662Y635657D01*
Y634343D01*
X928833Y633853D01*
X926667Y632602D01*
X924898Y630833D01*
X923647Y628667D01*
X923000Y626251D01*
Y623749D01*
X923647Y621333D01*
X924898Y619167D01*
X926667Y617398D01*
X928833Y616147D01*
X930662Y615657D01*
Y614343D01*
X928833Y613853D01*
X926667Y612602D01*
X924898Y610833D01*
X923647Y608667D01*
X923000Y606251D01*
Y603749D01*
X923647Y601333D01*
X924898Y599167D01*
X926667Y597398D01*
X928833Y596147D01*
X930662Y595657D01*
Y594343D01*
X928833Y593853D01*
X926667Y592602D01*
X924898Y590833D01*
X923647Y588667D01*
X923000Y586251D01*
Y583749D01*
X923647Y581333D01*
X924550Y579770D01*
X923840Y578500D01*
X923304D01*
X922017Y577967D01*
X921033Y576983D01*
X920500Y575696D01*
Y574304D01*
X921033Y573017D01*
X922017Y572033D01*
X923304Y571500D01*
X923840D01*
X924550Y570230D01*
X923647Y568667D01*
X923000Y566251D01*
Y566000D01*
X932500D01*
X942000D01*
Y566251D01*
X941352Y568667D01*
X940102Y570833D01*
X938333Y572602D01*
X936167Y573853D01*
X934338Y574343D01*
Y575657D01*
X936167Y576147D01*
X938333Y577398D01*
X940102Y579167D01*
X941352Y581333D01*
X942000Y583749D01*
Y586251D01*
X941352Y588667D01*
X940102Y590833D01*
X938333Y592602D01*
X936167Y593853D01*
X934338Y594343D01*
Y595657D01*
X936167Y596147D01*
X938333Y597398D01*
X940102Y599167D01*
X941352Y601333D01*
X942000Y603749D01*
Y606251D01*
X941352Y608667D01*
X940102Y610833D01*
X938333Y612602D01*
X936167Y613853D01*
X934338Y614343D01*
Y615657D01*
X936167Y616147D01*
X938333Y617398D01*
X940102Y619167D01*
X941352Y621333D01*
X942000Y623749D01*
Y626251D01*
X941352Y628667D01*
X940102Y630833D01*
X938333Y632602D01*
X936167Y633853D01*
X934338Y634343D01*
Y635657D01*
X936167Y636147D01*
X938333Y637398D01*
X940102Y639167D01*
X941352Y641333D01*
X942000Y643749D01*
Y646251D01*
X941352Y648667D01*
X940102Y650833D01*
X938333Y652602D01*
X936167Y653853D01*
X934338Y654343D01*
Y655657D01*
X936167Y656147D01*
X938333Y657398D01*
X940102Y659167D01*
X941352Y661333D01*
X942000Y663749D01*
X942383Y664064D01*
X943000Y663941D01*
X946000D01*
X946181Y663977D01*
X947451Y662950D01*
X947451Y497549D01*
X920000D01*
X919025Y497355D01*
X918198Y496802D01*
X917645Y495975D01*
X917451Y495000D01*
Y465000D01*
X917645Y464025D01*
X918198Y463198D01*
X919025Y462645D01*
X920000Y462451D01*
X947451D01*
Y380002D01*
X946266Y379391D01*
X944796Y380000D01*
X943204D01*
X943181Y379991D01*
X942000Y380876D01*
Y381796D01*
X941391Y383266D01*
X940266Y384391D01*
X938796Y385000D01*
X937204D01*
X935734Y384391D01*
X934609Y383266D01*
X934000Y381796D01*
Y380204D01*
X934609Y378734D01*
X935734Y377609D01*
X937204Y377000D01*
X938796D01*
X939040Y376077D01*
X937922Y375000D01*
X937204D01*
X935734Y374391D01*
X934609Y373266D01*
X934000Y371796D01*
Y370204D01*
X934609Y368734D01*
X935734Y367609D01*
X937204Y367000D01*
X938796D01*
X940266Y367609D01*
X941391Y368734D01*
X942000Y370204D01*
Y371124D01*
X943181Y372010D01*
X943204Y372000D01*
X944796D01*
X946266Y372609D01*
X947451Y371998D01*
Y222549D01*
X935002D01*
X934391Y223734D01*
X935000Y225204D01*
Y226796D01*
X934391Y228266D01*
X933266Y229391D01*
X931796Y230000D01*
X930204D01*
X928734Y229391D01*
X927609Y228266D01*
X927173Y227214D01*
X925827D01*
X925391Y228266D01*
X924266Y229391D01*
X922796Y230000D01*
X921204D01*
X919734Y229391D01*
X918609Y228266D01*
X918000Y226796D01*
Y225204D01*
X918609Y223734D01*
X917998Y222549D01*
X232549D01*
Y250000D01*
X232355Y250975D01*
X231802Y251802D01*
X230975Y252355D01*
X230000Y252549D01*
X205000D01*
Y687451D01*
X230000D01*
X230975Y687645D01*
X231802Y688198D01*
X232355Y689025D01*
X232549Y690000D01*
Y717451D01*
X856858Y717451D01*
X857941Y716181D01*
Y664767D01*
X855837Y662663D01*
X855174Y661671D01*
X854941Y660500D01*
X854941Y660500D01*
Y654000D01*
X855174Y652830D01*
X855837Y651837D01*
X856830Y651174D01*
X858000Y650941D01*
X859171Y651174D01*
X860163Y651837D01*
X860826Y652830D01*
X861059Y654000D01*
Y659233D01*
X863163Y661337D01*
X863163Y661337D01*
X863826Y662329D01*
X864059Y663500D01*
X864059Y663500D01*
Y717000D01*
X864429Y717451D01*
X947451D01*
Y671050D01*
D02*
G37*
%LPC*%
G36*
X773796Y706000D02*
X772204D01*
X770734Y705391D01*
X769609Y704266D01*
X769000Y702796D01*
Y701204D01*
X769609Y699734D01*
X770734Y698609D01*
X772204Y698000D01*
X773796D01*
X775266Y698609D01*
X776391Y699734D01*
X777000Y701204D01*
Y702796D01*
X776391Y704266D01*
X775266Y705391D01*
X773796Y706000D01*
D02*
G37*
G36*
X523251Y705500D02*
X523000D01*
Y697000D01*
X531500D01*
Y697251D01*
X530853Y699667D01*
X529602Y701833D01*
X527833Y703602D01*
X525667Y704853D01*
X523251Y705500D01*
D02*
G37*
G36*
X521000D02*
X520749D01*
X518333Y704853D01*
X516167Y703602D01*
X514398Y701833D01*
X513147Y699667D01*
X512500Y697251D01*
Y697000D01*
X521000D01*
Y705500D01*
D02*
G37*
G36*
X411796Y705000D02*
X410204D01*
X408734Y704391D01*
X407609Y703266D01*
X407000Y701796D01*
Y700204D01*
X407609Y698734D01*
X408734Y697609D01*
X410204Y697000D01*
X411796D01*
X413266Y697609D01*
X414391Y698734D01*
X415000Y700204D01*
Y701796D01*
X414391Y703266D01*
X413266Y704391D01*
X411796Y705000D01*
D02*
G37*
G36*
X299396Y700200D02*
X298004D01*
X296717Y699667D01*
X295733Y698683D01*
X295200Y697396D01*
Y696004D01*
X295733Y694717D01*
X296717Y693733D01*
X298004Y693200D01*
X299396D01*
X300683Y693733D01*
X301667Y694717D01*
X302200Y696004D01*
Y697396D01*
X301667Y698683D01*
X300683Y699667D01*
X299396Y700200D01*
D02*
G37*
G36*
X582987Y703500D02*
X581013D01*
X579105Y702989D01*
X577395Y702001D01*
X575998Y700605D01*
X575011Y698895D01*
X574500Y696987D01*
Y695013D01*
X575011Y693105D01*
X575998Y691395D01*
X577395Y689998D01*
X579105Y689011D01*
X581013Y688500D01*
X582987D01*
X584895Y689011D01*
X586605Y689998D01*
X588002Y691395D01*
X588989Y693105D01*
X589500Y695013D01*
Y696987D01*
X588989Y698895D01*
X588002Y700605D01*
X586605Y702001D01*
X584895Y702989D01*
X582987Y703500D01*
D02*
G37*
G36*
X562987D02*
X561013D01*
X559105Y702989D01*
X557395Y702001D01*
X555998Y700605D01*
X555011Y698895D01*
X554500Y696987D01*
Y695013D01*
X555011Y693105D01*
X555998Y691395D01*
X557395Y689998D01*
X559105Y689011D01*
X561013Y688500D01*
X562987D01*
X564895Y689011D01*
X566605Y689998D01*
X568002Y691395D01*
X568989Y693105D01*
X569500Y695013D01*
Y696987D01*
X568989Y698895D01*
X568002Y700605D01*
X566605Y702001D01*
X564895Y702989D01*
X562987Y703500D01*
D02*
G37*
G36*
X542987D02*
X541013D01*
X539105Y702989D01*
X537395Y702001D01*
X535998Y700605D01*
X535011Y698895D01*
X534500Y696987D01*
Y695013D01*
X535011Y693105D01*
X535998Y691395D01*
X537395Y689998D01*
X539105Y689011D01*
X541013Y688500D01*
X542987D01*
X544895Y689011D01*
X546605Y689998D01*
X548002Y691395D01*
X548989Y693105D01*
X549500Y695013D01*
Y696987D01*
X548989Y698895D01*
X548002Y700605D01*
X546605Y702001D01*
X544895Y702989D01*
X542987Y703500D01*
D02*
G37*
G36*
X814696Y695500D02*
X813304D01*
X812017Y694967D01*
X811033Y693983D01*
X810500Y692696D01*
Y691304D01*
X811033Y690017D01*
X812017Y689033D01*
X813304Y688500D01*
X814696D01*
X815983Y689033D01*
X816967Y690017D01*
X817500Y691304D01*
Y692696D01*
X816967Y693983D01*
X815983Y694967D01*
X814696Y695500D01*
D02*
G37*
G36*
X437796Y696000D02*
X436204D01*
X434734Y695391D01*
X433609Y694266D01*
X433000Y692796D01*
Y691204D01*
X433609Y689734D01*
X434734Y688609D01*
X436204Y688000D01*
X437796D01*
X439266Y688609D01*
X440391Y689734D01*
X441000Y691204D01*
Y692796D01*
X440391Y694266D01*
X439266Y695391D01*
X437796Y696000D01*
D02*
G37*
G36*
X774796Y695000D02*
X773204D01*
X771734Y694391D01*
X770609Y693266D01*
X770000Y691796D01*
Y690204D01*
X770609Y688734D01*
X771734Y687609D01*
X773204Y687000D01*
X774796D01*
X776266Y687609D01*
X777391Y688734D01*
X778000Y690204D01*
Y691796D01*
X777391Y693266D01*
X776266Y694391D01*
X774796Y695000D01*
D02*
G37*
G36*
X603251Y705500D02*
X600749D01*
X598333Y704853D01*
X596167Y703602D01*
X594398Y701833D01*
X593147Y699667D01*
X592500Y697251D01*
Y694749D01*
X593147Y692333D01*
X594398Y690167D01*
X596167Y688398D01*
X598333Y687147D01*
X600749Y686500D01*
X603251D01*
X605667Y687147D01*
X607833Y688398D01*
X609602Y690167D01*
X610853Y692333D01*
X611500Y694749D01*
Y697251D01*
X610853Y699667D01*
X609602Y701833D01*
X607833Y703602D01*
X605667Y704853D01*
X603251Y705500D01*
D02*
G37*
G36*
X531500Y695000D02*
X523000D01*
Y686500D01*
X523251D01*
X525667Y687147D01*
X527833Y688398D01*
X529602Y690167D01*
X530853Y692333D01*
X531500Y694749D01*
Y695000D01*
D02*
G37*
G36*
X521000D02*
X512500D01*
Y694749D01*
X513147Y692333D01*
X514398Y690167D01*
X516167Y688398D01*
X518333Y687147D01*
X520749Y686500D01*
X521000D01*
Y695000D01*
D02*
G37*
G36*
X297696Y684500D02*
X296304D01*
X295017Y683967D01*
X294033Y682983D01*
X293500Y681696D01*
Y680304D01*
X294033Y679017D01*
X295017Y678033D01*
X296304Y677500D01*
X297696D01*
X298983Y678033D01*
X299967Y679017D01*
X300500Y680304D01*
Y681696D01*
X299967Y682983D01*
X298983Y683967D01*
X297696Y684500D01*
D02*
G37*
G36*
X814796Y684000D02*
X813204D01*
X811734Y683391D01*
X810609Y682266D01*
X810000Y680796D01*
Y679204D01*
X810609Y677734D01*
X811734Y676609D01*
X813204Y676000D01*
X814796D01*
X816266Y676609D01*
X817391Y677734D01*
X818000Y679204D01*
Y680796D01*
X817391Y682266D01*
X816266Y683391D01*
X814796Y684000D01*
D02*
G37*
G36*
X753296Y681500D02*
X751704D01*
X750234Y680891D01*
X749109Y679766D01*
X748500Y678296D01*
Y676704D01*
X749109Y675234D01*
X750234Y674109D01*
X751704Y673500D01*
X753296D01*
X754766Y674109D01*
X755891Y675234D01*
X756500Y676704D01*
Y678296D01*
X755891Y679766D01*
X754766Y680891D01*
X753296Y681500D01*
D02*
G37*
G36*
X675796Y676500D02*
X674204D01*
X672734Y675891D01*
X671609Y674766D01*
X671000Y673296D01*
Y671704D01*
X671609Y670234D01*
X672734Y669109D01*
X674204Y668500D01*
X675796D01*
X677266Y669109D01*
X678391Y670234D01*
X679000Y671704D01*
Y673296D01*
X678391Y674766D01*
X677266Y675891D01*
X675796Y676500D01*
D02*
G37*
G36*
X602987Y683500D02*
X601013D01*
X599105Y682989D01*
X597395Y682001D01*
X595998Y680605D01*
X595011Y678895D01*
X594500Y676987D01*
Y675013D01*
X595011Y673105D01*
X595998Y671395D01*
X597395Y669998D01*
X599105Y669011D01*
X601013Y668500D01*
X602987D01*
X604895Y669011D01*
X606605Y669998D01*
X608002Y671395D01*
X608989Y673105D01*
X609500Y675013D01*
Y676987D01*
X608989Y678895D01*
X608002Y680605D01*
X606605Y682001D01*
X604895Y682989D01*
X602987Y683500D01*
D02*
G37*
G36*
X582987D02*
X581013D01*
X579105Y682989D01*
X577395Y682001D01*
X575998Y680605D01*
X575011Y678895D01*
X574500Y676987D01*
Y675013D01*
X575011Y673105D01*
X575998Y671395D01*
X577395Y669998D01*
X579105Y669011D01*
X581013Y668500D01*
X582987D01*
X584895Y669011D01*
X586605Y669998D01*
X588002Y671395D01*
X588989Y673105D01*
X589500Y675013D01*
Y676987D01*
X588989Y678895D01*
X588002Y680605D01*
X586605Y682001D01*
X584895Y682989D01*
X582987Y683500D01*
D02*
G37*
G36*
X562987D02*
X561013D01*
X559105Y682989D01*
X557395Y682001D01*
X555998Y680605D01*
X555011Y678895D01*
X554500Y676987D01*
Y675013D01*
X555011Y673105D01*
X555998Y671395D01*
X557395Y669998D01*
X559105Y669011D01*
X561013Y668500D01*
X562987D01*
X564895Y669011D01*
X566605Y669998D01*
X568002Y671395D01*
X568989Y673105D01*
X569500Y675013D01*
Y676987D01*
X568989Y678895D01*
X568002Y680605D01*
X566605Y682001D01*
X564895Y682989D01*
X562987Y683500D01*
D02*
G37*
G36*
X542987D02*
X541013D01*
X539105Y682989D01*
X537395Y682001D01*
X535998Y680605D01*
X535011Y678895D01*
X534500Y676987D01*
Y675013D01*
X535011Y673105D01*
X535998Y671395D01*
X537395Y669998D01*
X539105Y669011D01*
X541013Y668500D01*
X542987D01*
X544895Y669011D01*
X546605Y669998D01*
X548002Y671395D01*
X548989Y673105D01*
X549500Y675013D01*
Y676987D01*
X548989Y678895D01*
X548002Y680605D01*
X546605Y682001D01*
X544895Y682989D01*
X542987Y683500D01*
D02*
G37*
G36*
X522987D02*
X521013D01*
X519105Y682989D01*
X517395Y682001D01*
X515998Y680605D01*
X515011Y678895D01*
X514500Y676987D01*
Y675013D01*
X515011Y673105D01*
X515998Y671395D01*
X517395Y669998D01*
X519105Y669011D01*
X521013Y668500D01*
X522987D01*
X524895Y669011D01*
X526605Y669998D01*
X528002Y671395D01*
X528989Y673105D01*
X529500Y675013D01*
Y676987D01*
X528989Y678895D01*
X528002Y680605D01*
X526605Y682001D01*
X524895Y682989D01*
X522987Y683500D01*
D02*
G37*
G36*
X818796Y670000D02*
X817204D01*
X815734Y669391D01*
X814720Y668377D01*
X814000Y668317D01*
X813280Y668377D01*
X812266Y669391D01*
X810796Y670000D01*
X809204D01*
X807734Y669391D01*
X806609Y668266D01*
X806000Y666796D01*
Y665204D01*
X806609Y663734D01*
X807734Y662609D01*
X809204Y662000D01*
X810796D01*
X812266Y662609D01*
X813280Y663623D01*
X814000Y663683D01*
X814720Y663623D01*
X815734Y662609D01*
X817204Y662000D01*
X818796D01*
X820266Y662609D01*
X821391Y663734D01*
X822000Y665204D01*
Y666796D01*
X821391Y668266D01*
X820266Y669391D01*
X818796Y670000D01*
D02*
G37*
G36*
X851696Y674500D02*
X850304D01*
X849017Y673967D01*
X848033Y672983D01*
X847500Y671696D01*
Y670304D01*
X848033Y669017D01*
X849017Y668033D01*
X850304Y667500D01*
X851696D01*
X852983Y668033D01*
X853967Y669017D01*
X854500Y670304D01*
Y671696D01*
X853967Y672983D01*
X852983Y673967D01*
X851696Y674500D01*
D02*
G37*
G36*
X301696Y671500D02*
X300304D01*
X299017Y670967D01*
X298033Y669983D01*
X297500Y668696D01*
Y667304D01*
X298033Y666017D01*
X299017Y665033D01*
X300304Y664500D01*
X301696D01*
X302983Y665033D01*
X303967Y666017D01*
X304500Y667304D01*
Y668696D01*
X303967Y669983D01*
X302983Y670967D01*
X301696Y671500D01*
D02*
G37*
G36*
X675796Y664000D02*
X674204D01*
X672734Y663391D01*
X671609Y662266D01*
X671000Y660796D01*
Y659204D01*
X671609Y657734D01*
X672734Y656609D01*
X674204Y656000D01*
X675796D01*
X677266Y656609D01*
X678391Y657734D01*
X679000Y659204D01*
Y660796D01*
X678391Y662266D01*
X677266Y663391D01*
X675796Y664000D01*
D02*
G37*
G36*
X699696Y658500D02*
X698304D01*
X697017Y657967D01*
X696033Y656983D01*
X695500Y655696D01*
Y654304D01*
X696033Y653017D01*
X697017Y652033D01*
X698304Y651500D01*
X699696D01*
X700983Y652033D01*
X701967Y653017D01*
X702500Y654304D01*
Y655696D01*
X701967Y656983D01*
X700983Y657967D01*
X699696Y658500D01*
D02*
G37*
G36*
X536696D02*
X535304D01*
X534017Y657967D01*
X533033Y656983D01*
X532500Y655696D01*
Y654304D01*
X533033Y653017D01*
X534017Y652033D01*
X535304Y651500D01*
X536696D01*
X537983Y652033D01*
X538967Y653017D01*
X539500Y654304D01*
Y655696D01*
X538967Y656983D01*
X537983Y657967D01*
X536696Y658500D01*
D02*
G37*
G36*
X708296Y656500D02*
X706704D01*
X705234Y655891D01*
X704109Y654766D01*
X703500Y653296D01*
Y651704D01*
X704109Y650234D01*
X705234Y649109D01*
X706704Y648500D01*
X708296D01*
X709766Y649109D01*
X710891Y650234D01*
X711500Y651704D01*
Y653296D01*
X710891Y654766D01*
X709766Y655891D01*
X708296Y656500D01*
D02*
G37*
G36*
X597696Y653500D02*
X596304D01*
X595017Y652967D01*
X594033Y651983D01*
X593500Y650696D01*
Y649304D01*
X594033Y648017D01*
X595017Y647033D01*
X596304Y646500D01*
X597696D01*
X598983Y647033D01*
X599967Y648017D01*
X600500Y649304D01*
Y650696D01*
X599967Y651983D01*
X598983Y652967D01*
X597696Y653500D01*
D02*
G37*
G36*
X760696Y649500D02*
X759304D01*
X758017Y648967D01*
X757033Y647983D01*
X756500Y646696D01*
Y645304D01*
X757033Y644017D01*
X758017Y643033D01*
X759304Y642500D01*
X760696D01*
X761983Y643033D01*
X762967Y644017D01*
X763500Y645304D01*
Y646696D01*
X762967Y647983D01*
X761983Y648967D01*
X760696Y649500D01*
D02*
G37*
G36*
X898696Y648500D02*
X897304D01*
X896017Y647967D01*
X895033Y646983D01*
X894500Y645696D01*
Y644304D01*
X895033Y643017D01*
X896017Y642033D01*
X897304Y641500D01*
X898696D01*
X899983Y642033D01*
X900967Y643017D01*
X901500Y644304D01*
Y645696D01*
X900967Y646983D01*
X899983Y647967D01*
X898696Y648500D01*
D02*
G37*
G36*
X688696Y647500D02*
X687304D01*
X686017Y646967D01*
X685033Y645983D01*
X684500Y644696D01*
Y643304D01*
X685033Y642017D01*
X686017Y641033D01*
X687304Y640500D01*
X688696D01*
X689983Y641033D01*
X690967Y642017D01*
X691500Y643304D01*
Y644696D01*
X690967Y645983D01*
X689983Y646967D01*
X688696Y647500D01*
D02*
G37*
G36*
X613696D02*
X612304D01*
X611017Y646967D01*
X610033Y645983D01*
X609500Y644696D01*
Y643304D01*
X610033Y642017D01*
X611017Y641033D01*
X612304Y640500D01*
X613696D01*
X614983Y641033D01*
X615967Y642017D01*
X616500Y643304D01*
Y644696D01*
X615967Y645983D01*
X614983Y646967D01*
X613696Y647500D01*
D02*
G37*
G36*
X571796Y648000D02*
X570204D01*
X568734Y647391D01*
X567609Y646266D01*
X567000Y644796D01*
Y643204D01*
X567609Y641734D01*
X568734Y640609D01*
X570204Y640000D01*
X571796D01*
X573266Y640609D01*
X574391Y641734D01*
X575000Y643204D01*
Y644796D01*
X574391Y646266D01*
X573266Y647391D01*
X571796Y648000D01*
D02*
G37*
G36*
X379696Y646500D02*
X378304D01*
X377017Y645967D01*
X376033Y644983D01*
X375500Y643696D01*
Y642304D01*
X376033Y641017D01*
X377017Y640033D01*
X378304Y639500D01*
X379696D01*
X380983Y640033D01*
X381967Y641017D01*
X382500Y642304D01*
Y643696D01*
X381967Y644983D01*
X380983Y645967D01*
X379696Y646500D01*
D02*
G37*
G36*
X761696Y636500D02*
X760304D01*
X759017Y635967D01*
X758033Y634983D01*
X757500Y633696D01*
Y632304D01*
X758033Y631017D01*
X759017Y630033D01*
X760304Y629500D01*
X761696D01*
X762983Y630033D01*
X763967Y631017D01*
X764500Y632304D01*
Y633696D01*
X763967Y634983D01*
X762983Y635967D01*
X761696Y636500D01*
D02*
G37*
G36*
X887696Y617500D02*
X886304D01*
X885017Y616967D01*
X884033Y615983D01*
X883500Y614696D01*
Y613304D01*
X884033Y612017D01*
X885017Y611033D01*
X886304Y610500D01*
X887696D01*
X888983Y611033D01*
X889967Y612017D01*
X890500Y613304D01*
Y614696D01*
X889967Y615983D01*
X888983Y616967D01*
X887696Y617500D01*
D02*
G37*
G36*
X680796Y618000D02*
X679204D01*
X677734Y617391D01*
X676609Y616266D01*
X676000Y614796D01*
Y613204D01*
X676609Y611734D01*
X677734Y610609D01*
X679204Y610000D01*
X680796D01*
X682266Y610609D01*
X683391Y611734D01*
X684000Y613204D01*
Y614796D01*
X683391Y616266D01*
X682266Y617391D01*
X680796Y618000D01*
D02*
G37*
G36*
X314696Y616500D02*
X313304D01*
X312017Y615967D01*
X311033Y614983D01*
X310500Y613696D01*
Y612304D01*
X311033Y611017D01*
X312017Y610033D01*
X313304Y609500D01*
X314696D01*
X315983Y610033D01*
X316967Y611017D01*
X317500Y612304D01*
Y613696D01*
X316967Y614983D01*
X315983Y615967D01*
X314696Y616500D01*
D02*
G37*
G36*
X660796Y617000D02*
X659204D01*
X657734Y616391D01*
X656609Y615266D01*
X656000Y613796D01*
Y612204D01*
X656609Y610734D01*
X657734Y609609D01*
X659204Y609000D01*
X660796D01*
X662266Y609609D01*
X663391Y610734D01*
X664000Y612204D01*
Y613796D01*
X663391Y615266D01*
X662266Y616391D01*
X660796Y617000D01*
D02*
G37*
G36*
X581796Y606000D02*
X580204D01*
X578734Y605391D01*
X577609Y604266D01*
X577000Y602796D01*
Y601204D01*
X577609Y599734D01*
X578734Y598609D01*
X580204Y598000D01*
X581796D01*
X583266Y598609D01*
X584391Y599734D01*
X585000Y601204D01*
Y602796D01*
X584391Y604266D01*
X583266Y605391D01*
X581796Y606000D01*
D02*
G37*
G36*
X761796Y605000D02*
X760204D01*
X758734Y604391D01*
X757609Y603266D01*
X757000Y601796D01*
Y600204D01*
X757609Y598734D01*
X758734Y597609D01*
X760204Y597000D01*
X761796D01*
X763266Y597609D01*
X764391Y598734D01*
X765000Y600204D01*
Y601796D01*
X764391Y603266D01*
X763266Y604391D01*
X761796Y605000D01*
D02*
G37*
G36*
X873196Y603500D02*
X871804D01*
X870517Y602967D01*
X869533Y601983D01*
X869000Y600696D01*
Y599304D01*
X869533Y598017D01*
X870517Y597033D01*
X871804Y596500D01*
X873196D01*
X874483Y597033D01*
X875467Y598017D01*
X876000Y599304D01*
Y600696D01*
X875467Y601983D01*
X874483Y602967D01*
X873196Y603500D01*
D02*
G37*
G36*
X864696Y602500D02*
X863304D01*
X862017Y601967D01*
X861033Y600983D01*
X860500Y599696D01*
Y598304D01*
X861033Y597017D01*
X862017Y596033D01*
X863304Y595500D01*
X864696D01*
X865983Y596033D01*
X866967Y597017D01*
X867500Y598304D01*
Y599696D01*
X866967Y600983D01*
X865983Y601967D01*
X864696Y602500D01*
D02*
G37*
G36*
X730696D02*
X729304D01*
X728017Y601967D01*
X727033Y600983D01*
X726500Y599696D01*
Y598304D01*
X727033Y597017D01*
X728017Y596033D01*
X729304Y595500D01*
X730696D01*
X731983Y596033D01*
X732967Y597017D01*
X733500Y598304D01*
Y599696D01*
X732967Y600983D01*
X731983Y601967D01*
X730696Y602500D01*
D02*
G37*
G36*
X631796Y603000D02*
X630204D01*
X628734Y602391D01*
X627609Y601266D01*
X627000Y599796D01*
Y598204D01*
X627609Y596734D01*
X628734Y595609D01*
X630204Y595000D01*
X631796D01*
X633266Y595609D01*
X634391Y596734D01*
X635000Y598204D01*
Y599796D01*
X634391Y601266D01*
X633266Y602391D01*
X631796Y603000D01*
D02*
G37*
G36*
X545696Y598500D02*
X544304D01*
X543017Y597967D01*
X542033Y596983D01*
X541500Y595696D01*
Y594304D01*
X542033Y593017D01*
X543017Y592033D01*
X544304Y591500D01*
X545696D01*
X546983Y592033D01*
X547967Y593017D01*
X548500Y594304D01*
Y595696D01*
X547967Y596983D01*
X546983Y597967D01*
X545696Y598500D01*
D02*
G37*
G36*
X750696Y596000D02*
X749304D01*
X748017Y595467D01*
X747033Y594483D01*
X746500Y593196D01*
Y591804D01*
X747033Y590517D01*
X748017Y589533D01*
X749304Y589000D01*
X750696D01*
X751983Y589533D01*
X752967Y590517D01*
X753500Y591804D01*
Y593196D01*
X752967Y594483D01*
X751983Y595467D01*
X750696Y596000D01*
D02*
G37*
G36*
X598796Y595000D02*
X597204D01*
X595734Y594391D01*
X594609Y593266D01*
X594000Y591796D01*
Y590204D01*
X594609Y588734D01*
X595734Y587609D01*
X597204Y587000D01*
X598796D01*
X600266Y587609D01*
X601391Y588734D01*
X602000Y590204D01*
Y591796D01*
X601391Y593266D01*
X600266Y594391D01*
X598796Y595000D01*
D02*
G37*
G36*
X303696Y592500D02*
X302304D01*
X301017Y591967D01*
X300033Y590983D01*
X299500Y589696D01*
Y588304D01*
X300033Y587017D01*
X301017Y586033D01*
X302304Y585500D01*
X303696D01*
X304983Y586033D01*
X305967Y587017D01*
X306500Y588304D01*
Y589696D01*
X305967Y590983D01*
X304983Y591967D01*
X303696Y592500D01*
D02*
G37*
G36*
X866696Y591500D02*
X865304D01*
X864017Y590967D01*
X863033Y589983D01*
X862500Y588696D01*
Y587304D01*
X863033Y586017D01*
X864017Y585033D01*
X865304Y584500D01*
X866696D01*
X867983Y585033D01*
X868967Y586017D01*
X869500Y587304D01*
Y588696D01*
X868967Y589983D01*
X867983Y590967D01*
X866696Y591500D01*
D02*
G37*
G36*
X700796Y592000D02*
X699204D01*
X697734Y591391D01*
X696609Y590266D01*
X696000Y588796D01*
Y587204D01*
X696609Y585734D01*
X697734Y584609D01*
X699204Y584000D01*
X700796D01*
X702266Y584609D01*
X703391Y585734D01*
X704000Y587204D01*
Y588796D01*
X703391Y590266D01*
X702266Y591391D01*
X700796Y592000D01*
D02*
G37*
G36*
X787696Y587500D02*
X786304D01*
X785017Y586967D01*
X784033Y585983D01*
X783500Y584696D01*
Y583304D01*
X784033Y582017D01*
X785017Y581033D01*
X786304Y580500D01*
X787696D01*
X788983Y581033D01*
X789237Y581287D01*
X789573Y581292D01*
X790661Y580915D01*
X791033Y580017D01*
X792017Y579033D01*
X793304Y578500D01*
X794696D01*
X795983Y579033D01*
X796967Y580017D01*
X797500Y581304D01*
Y582696D01*
X796967Y583983D01*
X795983Y584967D01*
X794696Y585500D01*
X793304D01*
X792017Y584967D01*
X791763Y584713D01*
X791427Y584708D01*
X790339Y585085D01*
X789967Y585983D01*
X788983Y586967D01*
X787696Y587500D01*
D02*
G37*
G36*
X850696Y583500D02*
X849304D01*
X848017Y582967D01*
X847033Y581983D01*
X846500Y580696D01*
Y579542D01*
X846046Y578954D01*
X845458Y578500D01*
X844542D01*
X843954Y578954D01*
X843500Y579542D01*
Y580696D01*
X842967Y581983D01*
X841983Y582967D01*
X840696Y583500D01*
X839304D01*
X838017Y582967D01*
X837033Y581983D01*
X836500Y580696D01*
Y579542D01*
X836046Y578954D01*
X835458Y578500D01*
X834304D01*
X833017Y577967D01*
X832033Y576983D01*
X831500Y575696D01*
Y574304D01*
X832033Y573017D01*
X833017Y572033D01*
X834304Y571500D01*
X835696D01*
X836983Y572033D01*
X837967Y573017D01*
X838500Y574304D01*
Y575458D01*
X838954Y576046D01*
X839542Y576500D01*
X840458D01*
X841046Y576046D01*
X841500Y575458D01*
Y574304D01*
X842033Y573017D01*
X843017Y572033D01*
X844304Y571500D01*
X845696D01*
X846983Y572033D01*
X847967Y573017D01*
X848500Y574304D01*
Y575458D01*
X848954Y576046D01*
X849542Y576500D01*
X850696D01*
X851983Y577033D01*
X852967Y578017D01*
X853500Y579304D01*
Y580696D01*
X852967Y581983D01*
X851983Y582967D01*
X850696Y583500D01*
D02*
G37*
G36*
X499696Y579500D02*
X498304D01*
X497017Y578967D01*
X496033Y577983D01*
X495500Y576696D01*
Y575304D01*
X496033Y574017D01*
X497017Y573033D01*
X498304Y572500D01*
X499696D01*
X500983Y573033D01*
X501967Y574017D01*
X502500Y575304D01*
Y576696D01*
X501967Y577983D01*
X500983Y578967D01*
X499696Y579500D01*
D02*
G37*
G36*
X802696Y578500D02*
X801304D01*
X800017Y577967D01*
X799033Y576983D01*
X798500Y575696D01*
Y574304D01*
X799033Y573017D01*
X800017Y572033D01*
X801304Y571500D01*
X802696D01*
X803983Y572033D01*
X804967Y573017D01*
X805500Y574304D01*
Y575696D01*
X804967Y576983D01*
X803983Y577967D01*
X802696Y578500D01*
D02*
G37*
G36*
X351696Y571500D02*
X350304D01*
X349017Y570967D01*
X348033Y569983D01*
X347500Y568696D01*
Y567304D01*
X348033Y566017D01*
X349017Y565033D01*
X350304Y564500D01*
X351696D01*
X352983Y565033D01*
X353967Y566017D01*
X354500Y567304D01*
Y568696D01*
X353967Y569983D01*
X352983Y570967D01*
X351696Y571500D01*
D02*
G37*
G36*
X413796Y572000D02*
X412204D01*
X410734Y571391D01*
X409609Y570266D01*
X409000Y568796D01*
Y567204D01*
X409609Y565734D01*
X410734Y564609D01*
X412204Y564000D01*
X413796D01*
X415266Y564609D01*
X416391Y565734D01*
X417000Y567204D01*
Y568796D01*
X416391Y570266D01*
X415266Y571391D01*
X413796Y572000D01*
D02*
G37*
G36*
X523196Y566000D02*
X521804D01*
X520517Y565467D01*
X519533Y564483D01*
X519000Y563196D01*
Y561804D01*
X519533Y560517D01*
X520517Y559533D01*
X521804Y559000D01*
X523196D01*
X524483Y559533D01*
X525467Y560517D01*
X526000Y561804D01*
Y563196D01*
X525467Y564483D01*
X524483Y565467D01*
X523196Y566000D01*
D02*
G37*
G36*
X248573Y559225D02*
X247181D01*
X245894Y558692D01*
X244910Y557708D01*
X244377Y556421D01*
Y555029D01*
X244910Y553742D01*
X245894Y552758D01*
X247181Y552225D01*
X248573D01*
X249860Y552758D01*
X250844Y553742D01*
X251377Y555029D01*
Y556421D01*
X250844Y557708D01*
X249860Y558692D01*
X248573Y559225D01*
D02*
G37*
G36*
X595696Y554500D02*
X594304D01*
X593017Y553967D01*
X592033Y552983D01*
X591500Y551696D01*
Y550304D01*
X592033Y549017D01*
X593017Y548033D01*
X594304Y547500D01*
X595696D01*
X596983Y548033D01*
X597967Y549017D01*
X598500Y550304D01*
Y551696D01*
X597967Y552983D01*
X596983Y553967D01*
X595696Y554500D01*
D02*
G37*
G36*
X412696Y550500D02*
X411304D01*
X410017Y549967D01*
X409033Y548983D01*
X408500Y547696D01*
Y546304D01*
X409033Y545017D01*
X410017Y544033D01*
X411304Y543500D01*
X412696D01*
X413983Y544033D01*
X414967Y545017D01*
X415500Y546304D01*
Y547696D01*
X414967Y548983D01*
X413983Y549967D01*
X412696Y550500D01*
D02*
G37*
G36*
X587696Y549500D02*
X586304D01*
X585017Y548967D01*
X584033Y547983D01*
X583500Y546696D01*
Y545304D01*
X584033Y544017D01*
X585017Y543033D01*
X586304Y542500D01*
X587696D01*
X588983Y543033D01*
X589967Y544017D01*
X590500Y545304D01*
Y546696D01*
X589967Y547983D01*
X588983Y548967D01*
X587696Y549500D01*
D02*
G37*
G36*
X711696Y552500D02*
X710304D01*
X709017Y551967D01*
X708033Y550983D01*
X707500Y549696D01*
Y548304D01*
X708033Y547017D01*
X709017Y546033D01*
X710304Y545500D01*
X711458D01*
X712046Y545046D01*
X712500Y544458D01*
Y543304D01*
X713033Y542017D01*
X714017Y541033D01*
X715304Y540500D01*
X716696D01*
X717983Y541033D01*
X718967Y542017D01*
X719500Y543304D01*
Y544696D01*
X718967Y545983D01*
X717983Y546967D01*
X716696Y547500D01*
X715542D01*
X714954Y547954D01*
X714500Y548542D01*
Y549696D01*
X713967Y550983D01*
X712983Y551967D01*
X711696Y552500D01*
D02*
G37*
G36*
X507796Y548000D02*
X506204D01*
X504734Y547391D01*
X503609Y546266D01*
X503000Y544796D01*
Y543204D01*
X503609Y541734D01*
X504734Y540609D01*
X506204Y540000D01*
X507796D01*
X509266Y540609D01*
X510391Y541734D01*
X511000Y543204D01*
Y544796D01*
X510391Y546266D01*
X509266Y547391D01*
X507796Y548000D01*
D02*
G37*
G36*
X575696Y544500D02*
X574304D01*
X573017Y543967D01*
X572033Y542983D01*
X571500Y541696D01*
Y540304D01*
X572033Y539017D01*
X573017Y538033D01*
X574304Y537500D01*
X575696D01*
X576983Y538033D01*
X577967Y539017D01*
X578500Y540304D01*
Y541696D01*
X577967Y542983D01*
X576983Y543967D01*
X575696Y544500D01*
D02*
G37*
G36*
X566696Y540500D02*
X565304D01*
X564017Y539967D01*
X563033Y538983D01*
X562500Y537696D01*
Y536304D01*
X563033Y535017D01*
X564017Y534033D01*
X565304Y533500D01*
X566696D01*
X567983Y534033D01*
X568967Y535017D01*
X569500Y536304D01*
Y537696D01*
X568967Y538983D01*
X567983Y539967D01*
X566696Y540500D01*
D02*
G37*
G36*
X868696Y537500D02*
X867304D01*
X866017Y536967D01*
X865033Y535983D01*
X864500Y534696D01*
Y533304D01*
X865033Y532017D01*
X866017Y531033D01*
X867304Y530500D01*
X868696D01*
X869983Y531033D01*
X870967Y532017D01*
X871500Y533304D01*
Y534696D01*
X870967Y535983D01*
X869983Y536967D01*
X868696Y537500D01*
D02*
G37*
G36*
X301696D02*
X300304D01*
X299017Y536967D01*
X298033Y535983D01*
X297500Y534696D01*
Y533304D01*
X298033Y532017D01*
X299017Y531033D01*
X300304Y530500D01*
X301696D01*
X302983Y531033D01*
X303967Y532017D01*
X304500Y533304D01*
Y534696D01*
X303967Y535983D01*
X302983Y536967D01*
X301696Y537500D01*
D02*
G37*
G36*
X768184Y535712D02*
X766593D01*
X765123Y535103D01*
X763997Y533978D01*
X763389Y532508D01*
Y530916D01*
X763997Y529446D01*
X765123Y528321D01*
X766593Y527712D01*
X768184D01*
X769654Y528321D01*
X770780Y529446D01*
X771389Y530916D01*
Y532508D01*
X770780Y533978D01*
X769654Y535103D01*
X768184Y535712D01*
D02*
G37*
G36*
X821696Y551500D02*
X820304D01*
X819017Y550967D01*
X818033Y549983D01*
X817500Y548696D01*
Y547304D01*
X817721Y546770D01*
X817328Y545575D01*
X817025Y545384D01*
X816017Y544967D01*
X815033Y543983D01*
X814500Y542696D01*
Y541542D01*
X814046Y540954D01*
X813458Y540500D01*
X812304D01*
X811017Y539967D01*
X810033Y538983D01*
X809500Y537696D01*
Y536304D01*
X810033Y535017D01*
X811017Y534033D01*
X812025Y533615D01*
X812328Y533425D01*
X812721Y532230D01*
X812500Y531696D01*
Y530304D01*
X813033Y529017D01*
X814017Y528033D01*
X815304Y527500D01*
X816696D01*
X817983Y528033D01*
X818967Y529017D01*
X819500Y530304D01*
Y531696D01*
X818967Y532983D01*
X817983Y533967D01*
X816975Y534384D01*
X816672Y534575D01*
X816279Y535770D01*
X816500Y536304D01*
Y537458D01*
X816954Y538046D01*
X817542Y538500D01*
X818696D01*
X819983Y539033D01*
X820967Y540017D01*
X821500Y541304D01*
Y542696D01*
X821279Y543230D01*
X821672Y544425D01*
X821975Y544616D01*
X822983Y545033D01*
X823967Y546017D01*
X824500Y547304D01*
Y548696D01*
X823967Y549983D01*
X822983Y550967D01*
X821696Y551500D01*
D02*
G37*
G36*
X422696Y534500D02*
X421304D01*
X420017Y533967D01*
X419033Y532983D01*
X418500Y531696D01*
Y530304D01*
X419033Y529017D01*
X420017Y528033D01*
X421304Y527500D01*
X422696D01*
X423983Y528033D01*
X424967Y529017D01*
X425500Y530304D01*
Y531696D01*
X424967Y532983D01*
X423983Y533967D01*
X422696Y534500D01*
D02*
G37*
G36*
X900696Y533500D02*
X899304D01*
X898017Y532967D01*
X897033Y531983D01*
X896500Y530696D01*
Y529304D01*
X897033Y528017D01*
X898017Y527033D01*
X899304Y526500D01*
X900696D01*
X901983Y527033D01*
X902967Y528017D01*
X903500Y529304D01*
Y530696D01*
X902967Y531983D01*
X901983Y532967D01*
X900696Y533500D01*
D02*
G37*
G36*
X731696Y523500D02*
X730304D01*
X729017Y522967D01*
X728033Y521983D01*
X727500Y520696D01*
Y519304D01*
X728033Y518017D01*
X729017Y517033D01*
X730304Y516500D01*
X731696D01*
X732983Y517033D01*
X733967Y518017D01*
X734500Y519304D01*
Y520696D01*
X733967Y521983D01*
X732983Y522967D01*
X731696Y523500D01*
D02*
G37*
G36*
X561196Y523000D02*
X559804D01*
X558517Y522467D01*
X557533Y521483D01*
X557000Y520196D01*
Y518804D01*
X557533Y517517D01*
X558517Y516533D01*
X559804Y516000D01*
X561196D01*
X562483Y516533D01*
X563467Y517517D01*
X564000Y518804D01*
Y520196D01*
X563467Y521483D01*
X562483Y522467D01*
X561196Y523000D01*
D02*
G37*
G36*
X942000Y564000D02*
X932500D01*
X923000D01*
Y563749D01*
X923647Y561333D01*
X924898Y559167D01*
X926667Y557398D01*
X928833Y556147D01*
X930662Y555657D01*
Y554343D01*
X928833Y553853D01*
X926667Y552602D01*
X924898Y550833D01*
X923647Y548667D01*
X923000Y546251D01*
Y543749D01*
X923647Y541333D01*
X924898Y539167D01*
X926667Y537398D01*
X928833Y536147D01*
X930242Y535770D01*
X930075Y534500D01*
X923000D01*
Y515500D01*
X942000D01*
Y534500D01*
X934925D01*
X934758Y535770D01*
X936167Y536147D01*
X938333Y537398D01*
X940102Y539167D01*
X941352Y541333D01*
X942000Y543749D01*
Y546251D01*
X941352Y548667D01*
X940102Y550833D01*
X938333Y552602D01*
X936167Y553853D01*
X934338Y554343D01*
Y555657D01*
X936167Y556147D01*
X938333Y557398D01*
X940102Y559167D01*
X941352Y561333D01*
X942000Y563749D01*
Y564000D01*
D02*
G37*
G36*
X565196Y515500D02*
X563804D01*
X562517Y514967D01*
X561533Y513983D01*
X561000Y512696D01*
Y511304D01*
X561533Y510017D01*
X562517Y509033D01*
X563804Y508500D01*
X565196D01*
X566483Y509033D01*
X567467Y510017D01*
X568000Y511304D01*
Y512696D01*
X567467Y513983D01*
X566483Y514967D01*
X565196Y515500D01*
D02*
G37*
G36*
X470196Y513500D02*
X468804D01*
X467517Y512967D01*
X466533Y511983D01*
X466000Y510696D01*
Y509304D01*
X466533Y508017D01*
X467517Y507033D01*
X468804Y506500D01*
X470196D01*
X471483Y507033D01*
X472467Y508017D01*
X473000Y509304D01*
Y510696D01*
X472467Y511983D01*
X471483Y512967D01*
X470196Y513500D01*
D02*
G37*
G36*
X351696Y512500D02*
X350304D01*
X349017Y511967D01*
X348033Y510983D01*
X347500Y509696D01*
Y508304D01*
X348033Y507017D01*
X349017Y506033D01*
X350304Y505500D01*
X351696D01*
X352983Y506033D01*
X353967Y507017D01*
X354500Y508304D01*
Y509696D01*
X353967Y510983D01*
X352983Y511967D01*
X351696Y512500D01*
D02*
G37*
G36*
X339696D02*
X338304D01*
X337017Y511967D01*
X336033Y510983D01*
X335500Y509696D01*
Y508304D01*
X336033Y507017D01*
X337017Y506033D01*
X338304Y505500D01*
X339696D01*
X340983Y506033D01*
X341967Y507017D01*
X342500Y508304D01*
Y509696D01*
X341967Y510983D01*
X340983Y511967D01*
X339696Y512500D01*
D02*
G37*
G36*
X687696Y518500D02*
X686304D01*
X685017Y517967D01*
X684033Y516983D01*
X683500Y515696D01*
Y514304D01*
X684033Y513017D01*
X684506Y512544D01*
X684271Y511072D01*
X684017Y510967D01*
X683033Y509983D01*
X682500Y508696D01*
Y507304D01*
X683033Y506017D01*
X684017Y505033D01*
X685304Y504500D01*
X686696D01*
X687983Y505033D01*
X688967Y506017D01*
X689500Y507304D01*
Y508696D01*
X688967Y509983D01*
X688494Y510456D01*
X688729Y511928D01*
X688983Y512033D01*
X689967Y513017D01*
X690500Y514304D01*
Y515696D01*
X689967Y516983D01*
X688983Y517967D01*
X687696Y518500D01*
D02*
G37*
G36*
X503296Y510500D02*
X501704D01*
X500234Y509891D01*
X499109Y508766D01*
X498500Y507296D01*
Y505704D01*
X499109Y504234D01*
X500234Y503109D01*
X501704Y502500D01*
X503296D01*
X504766Y503109D01*
X505891Y504234D01*
X506500Y505704D01*
Y507296D01*
X505891Y508766D01*
X504766Y509891D01*
X503296Y510500D01*
D02*
G37*
G36*
X411696Y503500D02*
X410304D01*
X409017Y502967D01*
X408033Y501983D01*
X407500Y500696D01*
Y499304D01*
X408033Y498017D01*
X409017Y497033D01*
X410304Y496500D01*
X411696D01*
X412983Y497033D01*
X413967Y498017D01*
X414500Y499304D01*
Y500696D01*
X413967Y501983D01*
X412983Y502967D01*
X411696Y503500D01*
D02*
G37*
G36*
X380696Y502500D02*
X379304D01*
X378017Y501967D01*
X377033Y500983D01*
X376500Y499696D01*
Y498304D01*
X377033Y497017D01*
X378017Y496033D01*
X379304Y495500D01*
X380696D01*
X381983Y496033D01*
X382967Y497017D01*
X383500Y498304D01*
Y499696D01*
X382967Y500983D01*
X381983Y501967D01*
X380696Y502500D01*
D02*
G37*
G36*
X880696Y501000D02*
X879304D01*
X878017Y500467D01*
X877033Y499483D01*
X876500Y498196D01*
Y496804D01*
X877033Y495517D01*
X878017Y494533D01*
X879304Y494000D01*
X880696D01*
X881983Y494533D01*
X882967Y495517D01*
X883500Y496804D01*
Y498196D01*
X882967Y499483D01*
X881983Y500467D01*
X880696Y501000D01*
D02*
G37*
G36*
X759894Y501500D02*
X758302D01*
X756832Y500891D01*
X755707Y499766D01*
X755098Y498296D01*
Y496704D01*
X755707Y495234D01*
X756832Y494109D01*
X758302Y493500D01*
X759894D01*
X761364Y494109D01*
X762489Y495234D01*
X763098Y496704D01*
Y498296D01*
X762489Y499766D01*
X761364Y500891D01*
X759894Y501500D01*
D02*
G37*
G36*
X800696Y500500D02*
X799304D01*
X798017Y499967D01*
X797033Y498983D01*
X796500Y497696D01*
Y496304D01*
X797033Y495017D01*
X798017Y494033D01*
X799304Y493500D01*
X800696D01*
X801983Y494033D01*
X802967Y495017D01*
X803500Y496304D01*
Y497696D01*
X802967Y498983D01*
X801983Y499967D01*
X800696Y500500D01*
D02*
G37*
G36*
X731196Y497500D02*
X729804D01*
X728517Y496967D01*
X727533Y495983D01*
X727000Y494696D01*
Y493304D01*
X727533Y492017D01*
X728517Y491033D01*
X729804Y490500D01*
X731196D01*
X732483Y491033D01*
X733467Y492017D01*
X734000Y493304D01*
Y494696D01*
X733467Y495983D01*
X732483Y496967D01*
X731196Y497500D01*
D02*
G37*
G36*
X418696Y495500D02*
X417304D01*
X416017Y494967D01*
X415033Y493983D01*
X414500Y492696D01*
Y491304D01*
X415033Y490017D01*
X416017Y489033D01*
X417304Y488500D01*
X418696D01*
X419983Y489033D01*
X420967Y490017D01*
X421500Y491304D01*
Y492696D01*
X420967Y493983D01*
X419983Y494967D01*
X418696Y495500D01*
D02*
G37*
G36*
X898296Y494000D02*
X896704D01*
X895234Y493391D01*
X894109Y492266D01*
X893500Y490796D01*
Y489204D01*
X894109Y487734D01*
X895234Y486609D01*
X896704Y486000D01*
X898296D01*
X899766Y486609D01*
X900891Y487734D01*
X901500Y489204D01*
Y490796D01*
X900891Y492266D01*
X899766Y493391D01*
X898296Y494000D01*
D02*
G37*
G36*
X761796Y488000D02*
X760204D01*
X758734Y487391D01*
X757609Y486266D01*
X757000Y484796D01*
Y483204D01*
X757609Y481734D01*
X758734Y480609D01*
X760204Y480000D01*
X761796D01*
X763266Y480609D01*
X764391Y481734D01*
X765000Y483204D01*
Y484796D01*
X764391Y486266D01*
X763266Y487391D01*
X761796Y488000D01*
D02*
G37*
G36*
X351696Y485500D02*
X350304D01*
X349017Y484967D01*
X348033Y483983D01*
X347500Y482696D01*
Y481304D01*
X348033Y480017D01*
X349017Y479033D01*
X350304Y478500D01*
X351696D01*
X352983Y479033D01*
X353967Y480017D01*
X354500Y481304D01*
Y482696D01*
X353967Y483983D01*
X352983Y484967D01*
X351696Y485500D01*
D02*
G37*
G36*
X713696Y492500D02*
X712304D01*
X711017Y491967D01*
X710033Y490983D01*
X709500Y489696D01*
Y488304D01*
X710033Y487017D01*
X711017Y486033D01*
X711885Y485673D01*
Y484327D01*
X711017Y483967D01*
X710033Y482983D01*
X709500Y481696D01*
Y480304D01*
X710033Y479017D01*
X711017Y478033D01*
X712304Y477500D01*
X713696D01*
X714983Y478033D01*
X715967Y479017D01*
X716500Y480304D01*
Y481696D01*
X715967Y482983D01*
X714983Y483967D01*
X714115Y484327D01*
Y485673D01*
X714983Y486033D01*
X715967Y487017D01*
X716500Y488304D01*
Y489696D01*
X715967Y490983D01*
X714983Y491967D01*
X713696Y492500D01*
D02*
G37*
G36*
X239796Y473000D02*
X238204D01*
X236734Y472391D01*
X235720Y471377D01*
X235000Y471317D01*
X234280Y471377D01*
X233266Y472391D01*
X231796Y473000D01*
X230204D01*
X228734Y472391D01*
X227609Y471266D01*
X227000Y469796D01*
Y468204D01*
X227609Y466734D01*
X228734Y465609D01*
X230204Y465000D01*
X231435D01*
X232037Y463920D01*
X232057Y463827D01*
X231609Y463378D01*
X231000Y461908D01*
Y460317D01*
X231609Y458847D01*
X232734Y457721D01*
X234204Y457112D01*
X235796D01*
X237266Y457721D01*
X238391Y458847D01*
X239000Y460317D01*
Y461908D01*
X238391Y463378D01*
X237943Y463827D01*
X237964Y463920D01*
X238565Y465000D01*
X239796D01*
X241266Y465609D01*
X242391Y466734D01*
X243000Y468204D01*
Y469796D01*
X242391Y471266D01*
X241266Y472391D01*
X239796Y473000D01*
D02*
G37*
G36*
X386696Y472500D02*
X385304D01*
X384017Y471967D01*
X383033Y470983D01*
X382500Y469696D01*
Y468304D01*
X383033Y467017D01*
X384017Y466033D01*
X385304Y465500D01*
X386696D01*
X387983Y466033D01*
X388967Y467017D01*
X389500Y468304D01*
Y469696D01*
X388967Y470983D01*
X387983Y471967D01*
X386696Y472500D01*
D02*
G37*
G36*
X416696Y476500D02*
X415304D01*
X414017Y475967D01*
X413033Y474983D01*
X412500Y473696D01*
Y472304D01*
X413033Y471017D01*
X414017Y470033D01*
X415304Y469500D01*
X416458D01*
X417046Y469046D01*
X417500Y468458D01*
Y467304D01*
X418033Y466017D01*
X419017Y465033D01*
X420304Y464500D01*
X421696D01*
X422983Y465033D01*
X423967Y466017D01*
X424500Y467304D01*
Y468696D01*
X423967Y469983D01*
X422983Y470967D01*
X421696Y471500D01*
X420542D01*
X419954Y471954D01*
X419500Y472542D01*
Y473696D01*
X418967Y474983D01*
X417983Y475967D01*
X416696Y476500D01*
D02*
G37*
G36*
X504796Y472000D02*
X503204D01*
X501734Y471391D01*
X500609Y470266D01*
X500000Y468796D01*
Y467204D01*
X500609Y465734D01*
X501734Y464609D01*
X503204Y464000D01*
X504796D01*
X506266Y464609D01*
X507391Y465734D01*
X508000Y467204D01*
Y468796D01*
X507391Y470266D01*
X506266Y471391D01*
X504796Y472000D01*
D02*
G37*
G36*
X406495Y471468D02*
X404903D01*
X403433Y470859D01*
X402308Y469734D01*
X401699Y468264D01*
Y466672D01*
X402308Y465202D01*
X403433Y464077D01*
X404903Y463468D01*
X406495D01*
X407965Y464077D01*
X409090Y465202D01*
X409699Y466672D01*
Y468264D01*
X409090Y469734D01*
X407965Y470859D01*
X406495Y471468D01*
D02*
G37*
G36*
X693196Y466500D02*
X691804D01*
X690517Y465967D01*
X689533Y464983D01*
X689000Y463696D01*
Y462304D01*
X689533Y461017D01*
X690517Y460033D01*
X691804Y459500D01*
X693196D01*
X694483Y460033D01*
X695467Y461017D01*
X696000Y462304D01*
Y463696D01*
X695467Y464983D01*
X694483Y465967D01*
X693196Y466500D01*
D02*
G37*
G36*
X485696Y463500D02*
X484304D01*
X483017Y462967D01*
X482033Y461983D01*
X481500Y460696D01*
Y459304D01*
X482033Y458017D01*
X483017Y457033D01*
X484304Y456500D01*
X485696D01*
X486983Y457033D01*
X487967Y458017D01*
X488500Y459304D01*
Y460696D01*
X487967Y461983D01*
X486983Y462967D01*
X485696Y463500D01*
D02*
G37*
G36*
X755796Y461000D02*
X754204D01*
X752734Y460391D01*
X751609Y459266D01*
X751000Y457796D01*
Y456204D01*
X751609Y454734D01*
X752734Y453609D01*
X754204Y453000D01*
X755796D01*
X757266Y453609D01*
X758391Y454734D01*
X759000Y456204D01*
Y457796D01*
X758391Y459266D01*
X757266Y460391D01*
X755796Y461000D01*
D02*
G37*
G36*
X841696Y457500D02*
X840304D01*
X839017Y456967D01*
X838033Y455983D01*
X837500Y454696D01*
Y453304D01*
X838033Y452017D01*
X839017Y451033D01*
X840304Y450500D01*
X841696D01*
X842983Y451033D01*
X843967Y452017D01*
X844500Y453304D01*
Y454696D01*
X843967Y455983D01*
X842983Y456967D01*
X841696Y457500D01*
D02*
G37*
G36*
X695696Y451500D02*
X694304D01*
X693017Y450967D01*
X692033Y449983D01*
X691500Y448696D01*
Y447304D01*
X692033Y446017D01*
X693017Y445033D01*
X694304Y444500D01*
X695696D01*
X696983Y445033D01*
X697967Y446017D01*
X698500Y447304D01*
Y448696D01*
X697967Y449983D01*
X696983Y450967D01*
X695696Y451500D01*
D02*
G37*
G36*
X901796Y448000D02*
X900204D01*
X898734Y447391D01*
X897609Y446266D01*
X897000Y444796D01*
Y443204D01*
X897609Y441734D01*
X898734Y440609D01*
X900204Y440000D01*
X901796D01*
X903266Y440609D01*
X904391Y441734D01*
X905000Y443204D01*
Y444796D01*
X904391Y446266D01*
X903266Y447391D01*
X901796Y448000D01*
D02*
G37*
G36*
X340696Y446000D02*
X339304D01*
X338017Y445467D01*
X337033Y444483D01*
X336500Y443196D01*
Y441804D01*
X337033Y440517D01*
X338017Y439533D01*
X339304Y439000D01*
X340696D01*
X341983Y439533D01*
X342967Y440517D01*
X343500Y441804D01*
Y443196D01*
X342967Y444483D01*
X341983Y445467D01*
X340696Y446000D01*
D02*
G37*
G36*
X540696Y445500D02*
X539304D01*
X538017Y444967D01*
X537033Y443983D01*
X536500Y442696D01*
Y441304D01*
X537033Y440017D01*
X538017Y439033D01*
X539304Y438500D01*
X539917D01*
X540854Y437891D01*
X541000Y437327D01*
Y436204D01*
X541609Y434734D01*
X542734Y433609D01*
X544204Y433000D01*
X545796D01*
X547266Y433609D01*
X548391Y434734D01*
X549000Y436204D01*
Y437796D01*
X548391Y439266D01*
X547266Y440391D01*
X545796Y441000D01*
X544673D01*
X544109Y441146D01*
X543500Y442083D01*
Y442696D01*
X542967Y443983D01*
X541983Y444967D01*
X540696Y445500D01*
D02*
G37*
G36*
X500296Y440000D02*
X498704D01*
X497234Y439391D01*
X496109Y438266D01*
X495500Y436796D01*
Y435204D01*
X496109Y433734D01*
X497234Y432609D01*
X498704Y432000D01*
X500296D01*
X501766Y432609D01*
X502891Y433734D01*
X503500Y435204D01*
Y436796D01*
X502891Y438266D01*
X501766Y439391D01*
X500296Y440000D01*
D02*
G37*
G36*
X298696Y436500D02*
X297304D01*
X296017Y435967D01*
X295033Y434983D01*
X294500Y433696D01*
Y432304D01*
X295033Y431017D01*
X296017Y430033D01*
X297304Y429500D01*
X298696D01*
X299983Y430033D01*
X300967Y431017D01*
X301500Y432304D01*
Y433696D01*
X300967Y434983D01*
X299983Y435967D01*
X298696Y436500D01*
D02*
G37*
G36*
X870696Y435500D02*
X869304D01*
X868017Y434967D01*
X867033Y433983D01*
X866500Y432696D01*
Y431304D01*
X867033Y430017D01*
X868017Y429033D01*
X869304Y428500D01*
X870696D01*
X871983Y429033D01*
X872967Y430017D01*
X873500Y431304D01*
Y432696D01*
X872967Y433983D01*
X871983Y434967D01*
X870696Y435500D01*
D02*
G37*
G36*
X901796Y435000D02*
X900204D01*
X898734Y434391D01*
X897609Y433266D01*
X897000Y431796D01*
Y430204D01*
X897609Y428734D01*
X898734Y427609D01*
X900204Y427000D01*
X901796D01*
X903266Y427609D01*
X904391Y428734D01*
X905000Y430204D01*
Y431796D01*
X904391Y433266D01*
X903266Y434391D01*
X901796Y435000D01*
D02*
G37*
G36*
X763796D02*
X762204D01*
X760734Y434391D01*
X759609Y433266D01*
X759000Y431796D01*
Y430204D01*
X759609Y428734D01*
X760734Y427609D01*
X762204Y427000D01*
X763796D01*
X765266Y427609D01*
X766391Y428734D01*
X767000Y430204D01*
Y431796D01*
X766391Y433266D01*
X765266Y434391D01*
X763796Y435000D01*
D02*
G37*
G36*
X828696Y433500D02*
X827304D01*
X826017Y432967D01*
X825033Y431983D01*
X824500Y430696D01*
Y429304D01*
X825033Y428017D01*
X826017Y427033D01*
X827304Y426500D01*
X828696D01*
X829983Y427033D01*
X830967Y428017D01*
X831500Y429304D01*
Y430696D01*
X830967Y431983D01*
X829983Y432967D01*
X828696Y433500D01*
D02*
G37*
G36*
X491796Y431000D02*
X490204D01*
X488734Y430391D01*
X487609Y429266D01*
X487000Y427796D01*
Y426204D01*
X487609Y424734D01*
X488734Y423609D01*
X490204Y423000D01*
X491796D01*
X493266Y423609D01*
X494391Y424734D01*
X495000Y426204D01*
Y427796D01*
X494391Y429266D01*
X493266Y430391D01*
X491796Y431000D01*
D02*
G37*
G36*
X721196Y427500D02*
X719804D01*
X718517Y426967D01*
X717533Y425983D01*
X717000Y424696D01*
Y423304D01*
X717533Y422017D01*
X718517Y421033D01*
X719804Y420500D01*
X721196D01*
X722483Y421033D01*
X723467Y422017D01*
X724000Y423304D01*
Y424696D01*
X723467Y425983D01*
X722483Y426967D01*
X721196Y427500D01*
D02*
G37*
G36*
X500796Y424000D02*
X499204D01*
X497734Y423391D01*
X496609Y422266D01*
X496000Y420796D01*
Y419204D01*
X496609Y417734D01*
X497734Y416609D01*
X499204Y416000D01*
X500796D01*
X502266Y416609D01*
X503391Y417734D01*
X504000Y419204D01*
Y420796D01*
X503391Y422266D01*
X502266Y423391D01*
X500796Y424000D01*
D02*
G37*
G36*
X800796Y423000D02*
X799204D01*
X797734Y422391D01*
X796609Y421266D01*
X796000Y419796D01*
Y418204D01*
X796609Y416734D01*
X797734Y415609D01*
X799204Y415000D01*
X800796D01*
X802266Y415609D01*
X803391Y416734D01*
X804000Y418204D01*
Y419796D01*
X803391Y421266D01*
X802266Y422391D01*
X800796Y423000D01*
D02*
G37*
G36*
X860696Y421500D02*
X859304D01*
X858017Y420967D01*
X857033Y419983D01*
X856500Y418696D01*
Y417304D01*
X857033Y416017D01*
X858017Y415033D01*
X859304Y414500D01*
X860696D01*
X861983Y415033D01*
X862967Y416017D01*
X863500Y417304D01*
Y418696D01*
X862967Y419983D01*
X861983Y420967D01*
X860696Y421500D01*
D02*
G37*
G36*
X694696Y428500D02*
X693304D01*
X692017Y427967D01*
X691033Y426983D01*
X690500Y425696D01*
Y424304D01*
X691033Y423017D01*
X691280Y422770D01*
X690754Y421500D01*
X690304D01*
X689017Y420967D01*
X688033Y419983D01*
X687500Y418696D01*
Y417304D01*
X687726Y416758D01*
X686891Y415500D01*
X686304D01*
X685017Y414967D01*
X684033Y413983D01*
X683500Y412696D01*
Y411304D01*
X684033Y410017D01*
X685017Y409033D01*
X686304Y408500D01*
X687696D01*
X688983Y409033D01*
X689967Y410017D01*
X690500Y411304D01*
Y412696D01*
X690274Y413242D01*
X691109Y414500D01*
X691696D01*
X692983Y415033D01*
X693967Y416017D01*
X694500Y417304D01*
Y418696D01*
X693967Y419983D01*
X693720Y420230D01*
X694246Y421500D01*
X694696D01*
X695983Y422033D01*
X696967Y423017D01*
X697500Y424304D01*
Y425696D01*
X696967Y426983D01*
X695983Y427967D01*
X694696Y428500D01*
D02*
G37*
G36*
X411696Y414500D02*
X410304D01*
X409017Y413967D01*
X408033Y412983D01*
X407500Y411696D01*
Y410304D01*
X408033Y409017D01*
X409017Y408033D01*
X410304Y407500D01*
X411696D01*
X412983Y408033D01*
X413967Y409017D01*
X414500Y410304D01*
Y411696D01*
X413967Y412983D01*
X412983Y413967D01*
X411696Y414500D01*
D02*
G37*
G36*
X343196Y413500D02*
X341804D01*
X340517Y412967D01*
X339533Y411983D01*
X339000Y410696D01*
Y409304D01*
X339533Y408017D01*
X340517Y407033D01*
X341804Y406500D01*
X343196D01*
X344483Y407033D01*
X345467Y408017D01*
X346000Y409304D01*
Y410696D01*
X345467Y411983D01*
X344483Y412967D01*
X343196Y413500D01*
D02*
G37*
G36*
X900696Y410500D02*
X899304D01*
X898017Y409967D01*
X897033Y408983D01*
X896500Y407696D01*
Y406304D01*
X897033Y405017D01*
X898017Y404033D01*
X899304Y403500D01*
X900696D01*
X901983Y404033D01*
X902967Y405017D01*
X903500Y406304D01*
Y407696D01*
X902967Y408983D01*
X901983Y409967D01*
X900696Y410500D01*
D02*
G37*
G36*
X699696Y409500D02*
X698304D01*
X697017Y408967D01*
X696033Y407983D01*
X695500Y406696D01*
Y405304D01*
X696033Y404017D01*
X697017Y403033D01*
X698304Y402500D01*
X699696D01*
X700983Y403033D01*
X701967Y404017D01*
X702500Y405304D01*
Y406696D01*
X701967Y407983D01*
X700983Y408967D01*
X699696Y409500D01*
D02*
G37*
G36*
X712196Y408500D02*
X710804D01*
X709517Y407967D01*
X708533Y406983D01*
X708000Y405696D01*
Y404304D01*
X708533Y403017D01*
X709517Y402033D01*
X710804Y401500D01*
X712196D01*
X713483Y402033D01*
X714467Y403017D01*
X715000Y404304D01*
Y405696D01*
X714467Y406983D01*
X713483Y407967D01*
X712196Y408500D01*
D02*
G37*
G36*
X721696Y407500D02*
X720304D01*
X719017Y406967D01*
X718033Y405983D01*
X717500Y404696D01*
Y403304D01*
X718033Y402017D01*
X719017Y401033D01*
X720304Y400500D01*
X721696D01*
X722983Y401033D01*
X723967Y402017D01*
X724500Y403304D01*
Y404696D01*
X723967Y405983D01*
X722983Y406967D01*
X721696Y407500D01*
D02*
G37*
G36*
X756796Y404000D02*
X755204D01*
X753734Y403391D01*
X752609Y402266D01*
X752000Y400796D01*
Y399204D01*
X752609Y397734D01*
X753734Y396609D01*
X755204Y396000D01*
X756796D01*
X758266Y396609D01*
X759391Y397734D01*
X760000Y399204D01*
Y400796D01*
X759391Y402266D01*
X758266Y403391D01*
X756796Y404000D01*
D02*
G37*
G36*
X488696Y395500D02*
X487304D01*
X486017Y394967D01*
X485033Y393983D01*
X484500Y392696D01*
Y391304D01*
X485033Y390017D01*
X486017Y389033D01*
X487304Y388500D01*
X488696D01*
X489983Y389033D01*
X490967Y390017D01*
X491500Y391304D01*
Y392696D01*
X490967Y393983D01*
X489983Y394967D01*
X488696Y395500D01*
D02*
G37*
G36*
X681196Y388000D02*
X679804D01*
X678517Y387467D01*
X677533Y386483D01*
X677000Y385196D01*
Y384609D01*
X676842Y384514D01*
X675730Y384220D01*
X674983Y384967D01*
X673696Y385500D01*
X672304D01*
X671017Y384967D01*
X670033Y383983D01*
X669500Y382696D01*
Y381304D01*
X670033Y380017D01*
X671017Y379033D01*
X672304Y378500D01*
X673696D01*
X674983Y379033D01*
X675967Y380017D01*
X676500Y381304D01*
Y381891D01*
X676658Y381987D01*
X677770Y382280D01*
X678517Y381533D01*
X679804Y381000D01*
X681196D01*
X682483Y381533D01*
X683467Y382517D01*
X684000Y383804D01*
Y385196D01*
X683467Y386483D01*
X682483Y387467D01*
X681196Y388000D01*
D02*
G37*
G36*
X657696Y390500D02*
X656304D01*
X655017Y389967D01*
X654033Y388983D01*
X653500Y387696D01*
Y386304D01*
X654033Y385017D01*
X655017Y384033D01*
X656304Y383500D01*
X657696D01*
X658983Y384033D01*
X659967Y385017D01*
X660500Y386304D01*
Y387696D01*
X659967Y388983D01*
X658983Y389967D01*
X657696Y390500D01*
D02*
G37*
G36*
X807696Y389500D02*
X806304D01*
X805017Y388967D01*
X804033Y387983D01*
X803500Y386696D01*
Y385304D01*
X804033Y384017D01*
X805017Y383033D01*
X806304Y382500D01*
X807696D01*
X808983Y383033D01*
X809967Y384017D01*
X810500Y385304D01*
Y386696D01*
X809967Y387983D01*
X808983Y388967D01*
X807696Y389500D01*
D02*
G37*
G36*
X834696Y388500D02*
X833304D01*
X832017Y387967D01*
X831033Y386983D01*
X830500Y385696D01*
Y384304D01*
X831033Y383017D01*
X832017Y382033D01*
X833304Y381500D01*
X834696D01*
X835983Y382033D01*
X836967Y383017D01*
X837500Y384304D01*
Y385696D01*
X836967Y386983D01*
X835983Y387967D01*
X834696Y388500D01*
D02*
G37*
G36*
X790696D02*
X789304D01*
X788017Y387967D01*
X787033Y386983D01*
X786500Y385696D01*
Y384304D01*
X787033Y383017D01*
X788017Y382033D01*
X789304Y381500D01*
X790696D01*
X791983Y382033D01*
X792967Y383017D01*
X793500Y384304D01*
Y385696D01*
X792967Y386983D01*
X791983Y387967D01*
X790696Y388500D01*
D02*
G37*
G36*
X611696Y383500D02*
X610304D01*
X609017Y382967D01*
X608033Y381983D01*
X607673Y381115D01*
X606327D01*
X605967Y381983D01*
X604983Y382967D01*
X603696Y383500D01*
X602304D01*
X601017Y382967D01*
X600033Y381983D01*
X599500Y380696D01*
Y379304D01*
X600033Y378017D01*
X601017Y377033D01*
X602304Y376500D01*
X603696D01*
X604983Y377033D01*
X605967Y378017D01*
X606327Y378885D01*
X607673D01*
X608033Y378017D01*
X609017Y377033D01*
X610304Y376500D01*
X611696D01*
X612983Y377033D01*
X613967Y378017D01*
X614500Y379304D01*
Y380696D01*
X613967Y381983D01*
X612983Y382967D01*
X611696Y383500D01*
D02*
G37*
G36*
X698196Y386500D02*
X696804D01*
X695517Y385967D01*
X694533Y384983D01*
X694000Y383696D01*
Y382304D01*
X694533Y381017D01*
X695517Y380033D01*
X696804Y379500D01*
X698196D01*
X699483Y380033D01*
X700467Y381017D01*
X701000Y382304D01*
Y383696D01*
X700467Y384983D01*
X699483Y385967D01*
X698196Y386500D01*
D02*
G37*
G36*
X689696Y380500D02*
X688304D01*
X687017Y379967D01*
X686033Y378983D01*
X685500Y377696D01*
Y376304D01*
X686033Y375017D01*
X687017Y374033D01*
X688304Y373500D01*
X689696D01*
X690983Y374033D01*
X691967Y375017D01*
X692500Y376304D01*
Y377696D01*
X691967Y378983D01*
X690983Y379967D01*
X689696Y380500D01*
D02*
G37*
G36*
X380696Y376000D02*
X379304D01*
X378017Y375467D01*
X377033Y374483D01*
X376500Y373196D01*
Y371804D01*
X377033Y370517D01*
X378017Y369533D01*
X379304Y369000D01*
X380696D01*
X381983Y369533D01*
X382967Y370517D01*
X383500Y371804D01*
Y373196D01*
X382967Y374483D01*
X381983Y375467D01*
X380696Y376000D01*
D02*
G37*
G36*
X928796Y375000D02*
X927204D01*
X925734Y374391D01*
X924609Y373266D01*
X924000Y371796D01*
Y370204D01*
X924609Y368734D01*
X925734Y367609D01*
X927204Y367000D01*
X928796D01*
X930266Y367609D01*
X931391Y368734D01*
X932000Y370204D01*
Y371796D01*
X931391Y373266D01*
X930266Y374391D01*
X928796Y375000D01*
D02*
G37*
G36*
X870796Y374000D02*
X869204D01*
X867734Y373391D01*
X866609Y372266D01*
X866000Y370796D01*
Y369204D01*
X866609Y367734D01*
X867734Y366609D01*
X869204Y366000D01*
X870796D01*
X872266Y366609D01*
X873391Y367734D01*
X874000Y369204D01*
Y370796D01*
X873391Y372266D01*
X872266Y373391D01*
X870796Y374000D01*
D02*
G37*
G36*
X830796Y369000D02*
X829204D01*
X827734Y368391D01*
X826609Y367266D01*
X826000Y365796D01*
Y364204D01*
X826609Y362734D01*
X827734Y361609D01*
X829204Y361000D01*
X830796D01*
X832266Y361609D01*
X833391Y362734D01*
X834000Y364204D01*
Y365796D01*
X833391Y367266D01*
X832266Y368391D01*
X830796Y369000D01*
D02*
G37*
G36*
X885796Y364000D02*
X884204D01*
X882734Y363391D01*
X881609Y362266D01*
X881000Y360796D01*
Y359204D01*
X881609Y357734D01*
X882734Y356609D01*
X884204Y356000D01*
X885796D01*
X887266Y356609D01*
X888391Y357734D01*
X889000Y359204D01*
Y360796D01*
X888391Y362266D01*
X887266Y363391D01*
X885796Y364000D01*
D02*
G37*
G36*
X743796Y360000D02*
X742204D01*
X740734Y359391D01*
X739609Y358266D01*
X739000Y356796D01*
Y355204D01*
X739609Y353734D01*
X740734Y352609D01*
X742204Y352000D01*
X743796D01*
X745266Y352609D01*
X746391Y353734D01*
X747000Y355204D01*
Y356796D01*
X746391Y358266D01*
X745266Y359391D01*
X743796Y360000D01*
D02*
G37*
G36*
X762696Y355500D02*
X761304D01*
X760017Y354967D01*
X759033Y353983D01*
X758500Y352696D01*
Y351304D01*
X759033Y350017D01*
X760017Y349033D01*
X761304Y348500D01*
X762696D01*
X763983Y349033D01*
X764967Y350017D01*
X765500Y351304D01*
Y352696D01*
X764967Y353983D01*
X763983Y354967D01*
X762696Y355500D01*
D02*
G37*
G36*
X542196Y362500D02*
X540804D01*
X539517Y361967D01*
X538533Y360983D01*
X538000Y359696D01*
Y358304D01*
X538533Y357017D01*
X539152Y356398D01*
X539021Y354976D01*
X539017Y354967D01*
X538033Y353983D01*
X537500Y352696D01*
Y351304D01*
X538033Y350017D01*
X539017Y349033D01*
X540304Y348500D01*
X541696D01*
X542983Y349033D01*
X543967Y350017D01*
X544500Y351304D01*
Y352696D01*
X543967Y353983D01*
X543348Y354602D01*
X543479Y356024D01*
X543483Y356033D01*
X544467Y357017D01*
X545000Y358304D01*
Y359696D01*
X544467Y360983D01*
X543483Y361967D01*
X542196Y362500D01*
D02*
G37*
G36*
X870796Y354000D02*
X869204D01*
X867734Y353391D01*
X866609Y352266D01*
X866000Y350796D01*
Y349204D01*
X866609Y347734D01*
X867734Y346609D01*
X869204Y346000D01*
X870796D01*
X872266Y346609D01*
X873391Y347734D01*
X874000Y349204D01*
Y350796D01*
X873391Y352266D01*
X872266Y353391D01*
X870796Y354000D01*
D02*
G37*
G36*
X703696Y347500D02*
X702304D01*
X701017Y346967D01*
X700033Y345983D01*
X699500Y344696D01*
Y343304D01*
X700033Y342017D01*
X701017Y341033D01*
X702304Y340500D01*
X703696D01*
X704983Y341033D01*
X705967Y342017D01*
X706500Y343304D01*
Y344696D01*
X705967Y345983D01*
X704983Y346967D01*
X703696Y347500D01*
D02*
G37*
G36*
X573796Y347972D02*
X572204D01*
X570734Y347363D01*
X569609Y346237D01*
X569000Y344767D01*
Y343176D01*
X569609Y341706D01*
X570734Y340580D01*
X572204Y339972D01*
X573796D01*
X575266Y340580D01*
X576391Y341706D01*
X577000Y343176D01*
Y344767D01*
X576391Y346237D01*
X575266Y347363D01*
X573796Y347972D01*
D02*
G37*
G36*
X610296Y347000D02*
X608704D01*
X607234Y346391D01*
X606109Y345266D01*
X605500Y343796D01*
Y342204D01*
X606109Y340734D01*
X607234Y339609D01*
X608704Y339000D01*
X610296D01*
X611766Y339609D01*
X612891Y340734D01*
X613500Y342204D01*
Y343796D01*
X612891Y345266D01*
X611766Y346391D01*
X610296Y347000D01*
D02*
G37*
G36*
X588796D02*
X587204D01*
X585734Y346391D01*
X584609Y345266D01*
X584000Y343796D01*
Y342204D01*
X584609Y340734D01*
X585734Y339609D01*
X587204Y339000D01*
X588796D01*
X590266Y339609D01*
X591391Y340734D01*
X592000Y342204D01*
Y343796D01*
X591391Y345266D01*
X590266Y346391D01*
X588796Y347000D01*
D02*
G37*
G36*
X299696Y343500D02*
X298304D01*
X297017Y342967D01*
X296033Y341983D01*
X295500Y340696D01*
Y339304D01*
X296033Y338017D01*
X297017Y337033D01*
X298304Y336500D01*
X299696D01*
X300983Y337033D01*
X301967Y338017D01*
X302500Y339304D01*
Y340696D01*
X301967Y341983D01*
X300983Y342967D01*
X299696Y343500D01*
D02*
G37*
G36*
X885796Y344000D02*
X884204D01*
X882734Y343391D01*
X881609Y342266D01*
X881000Y340796D01*
Y339204D01*
X881609Y337734D01*
X882734Y336609D01*
X884204Y336000D01*
X885796D01*
X887266Y336609D01*
X888391Y337734D01*
X889000Y339204D01*
Y340796D01*
X888391Y342266D01*
X887266Y343391D01*
X885796Y344000D01*
D02*
G37*
G36*
X830796D02*
X829204D01*
X827734Y343391D01*
X826609Y342266D01*
X826000Y340796D01*
Y339204D01*
X826609Y337734D01*
X827734Y336609D01*
X829204Y336000D01*
X830796D01*
X832266Y336609D01*
X833391Y337734D01*
X834000Y339204D01*
Y340796D01*
X833391Y342266D01*
X832266Y343391D01*
X830796Y344000D01*
D02*
G37*
G36*
X769696Y340500D02*
X768304D01*
X767017Y339967D01*
X766033Y338983D01*
X765500Y337696D01*
Y336304D01*
X766033Y335017D01*
X767017Y334033D01*
X768304Y333500D01*
X769696D01*
X770983Y334033D01*
X771967Y335017D01*
X772500Y336304D01*
Y337696D01*
X771967Y338983D01*
X770983Y339967D01*
X769696Y340500D01*
D02*
G37*
G36*
X746696Y339500D02*
X745304D01*
X744017Y338967D01*
X743033Y337983D01*
X742500Y336696D01*
Y335304D01*
X743033Y334017D01*
X744017Y333033D01*
X745304Y332500D01*
X746696D01*
X747983Y333033D01*
X748967Y334017D01*
X749500Y335304D01*
Y336696D01*
X748967Y337983D01*
X747983Y338967D01*
X746696Y339500D01*
D02*
G37*
G36*
X618796Y340000D02*
X617204D01*
X615734Y339391D01*
X614609Y338266D01*
X614000Y336796D01*
Y335204D01*
X614609Y333734D01*
X615734Y332609D01*
X617204Y332000D01*
X618796D01*
X620266Y332609D01*
X621391Y333734D01*
X622000Y335204D01*
Y336796D01*
X621391Y338266D01*
X620266Y339391D01*
X618796Y340000D01*
D02*
G37*
G36*
X556696Y337500D02*
X555304D01*
X554017Y336967D01*
X553033Y335983D01*
X552500Y334696D01*
Y333304D01*
X553033Y332017D01*
X554017Y331033D01*
X555304Y330500D01*
X556696D01*
X557983Y331033D01*
X558967Y332017D01*
X559500Y333304D01*
Y334696D01*
X558967Y335983D01*
X557983Y336967D01*
X556696Y337500D01*
D02*
G37*
G36*
X546696D02*
X545304D01*
X544017Y336967D01*
X543033Y335983D01*
X542500Y334696D01*
Y333304D01*
X543033Y332017D01*
X544017Y331033D01*
X545304Y330500D01*
X546696D01*
X547983Y331033D01*
X548967Y332017D01*
X549500Y333304D01*
Y334696D01*
X548967Y335983D01*
X547983Y336967D01*
X546696Y337500D01*
D02*
G37*
G36*
X727796Y338000D02*
X726204D01*
X724734Y337391D01*
X723609Y336266D01*
X723000Y334796D01*
Y333204D01*
X723609Y331734D01*
X724734Y330609D01*
X726204Y330000D01*
X727796D01*
X729266Y330609D01*
X730391Y331734D01*
X731000Y333204D01*
Y334796D01*
X730391Y336266D01*
X729266Y337391D01*
X727796Y338000D01*
D02*
G37*
G36*
X697796D02*
X696204D01*
X694734Y337391D01*
X693609Y336266D01*
X693000Y334796D01*
Y333204D01*
X693609Y331734D01*
X694734Y330609D01*
X696204Y330000D01*
X697796D01*
X699266Y330609D01*
X700391Y331734D01*
X701000Y333204D01*
Y334796D01*
X700391Y336266D01*
X699266Y337391D01*
X697796Y338000D01*
D02*
G37*
G36*
X657796Y336000D02*
X656204D01*
X654734Y335391D01*
X653609Y334266D01*
X653000Y332796D01*
Y331204D01*
X653609Y329734D01*
X654734Y328609D01*
X656204Y328000D01*
X657796D01*
X659266Y328609D01*
X660391Y329734D01*
X661000Y331204D01*
Y332796D01*
X660391Y334266D01*
X659266Y335391D01*
X657796Y336000D01*
D02*
G37*
G36*
X870796Y334000D02*
X869204D01*
X867734Y333391D01*
X866609Y332266D01*
X866000Y330796D01*
Y329204D01*
X866609Y327734D01*
X867734Y326609D01*
X869204Y326000D01*
X870796D01*
X872266Y326609D01*
X873391Y327734D01*
X874000Y329204D01*
Y330796D01*
X873391Y332266D01*
X872266Y333391D01*
X870796Y334000D01*
D02*
G37*
G36*
X341696Y327500D02*
X340304D01*
X339017Y326967D01*
X338033Y325983D01*
X337500Y324696D01*
Y323304D01*
X338033Y322017D01*
X339017Y321033D01*
X340304Y320500D01*
X341696D01*
X342983Y321033D01*
X343967Y322017D01*
X344500Y323304D01*
Y324696D01*
X343967Y325983D01*
X342983Y326967D01*
X341696Y327500D01*
D02*
G37*
G36*
X299696D02*
X298304D01*
X297017Y326967D01*
X296033Y325983D01*
X295500Y324696D01*
Y323304D01*
X296033Y322017D01*
X297017Y321033D01*
X298304Y320500D01*
X299696D01*
X300983Y321033D01*
X301967Y322017D01*
X302500Y323304D01*
Y324696D01*
X301967Y325983D01*
X300983Y326967D01*
X299696Y327500D01*
D02*
G37*
G36*
X415796Y328250D02*
X414204D01*
X412734Y327641D01*
X411609Y326516D01*
X411000Y325046D01*
Y323454D01*
X411609Y321984D01*
X412734Y320859D01*
X414204Y320250D01*
X415796D01*
X417266Y320859D01*
X418391Y321984D01*
X419000Y323454D01*
Y325046D01*
X418391Y326516D01*
X417266Y327641D01*
X415796Y328250D01*
D02*
G37*
G36*
X621796Y328000D02*
X620204D01*
X618734Y327391D01*
X617609Y326266D01*
X617000Y324796D01*
Y323204D01*
X617609Y321734D01*
X618734Y320609D01*
X620204Y320000D01*
X621796D01*
X623266Y320609D01*
X624391Y321734D01*
X625000Y323204D01*
Y324796D01*
X624391Y326266D01*
X623266Y327391D01*
X621796Y328000D01*
D02*
G37*
G36*
X674696Y323500D02*
X673304D01*
X672017Y322967D01*
X671033Y321983D01*
X670500Y320696D01*
Y319304D01*
X671033Y318017D01*
X672017Y317033D01*
X673304Y316500D01*
X674696D01*
X675983Y317033D01*
X676967Y318017D01*
X677500Y319304D01*
Y320696D01*
X676967Y321983D01*
X675983Y322967D01*
X674696Y323500D01*
D02*
G37*
G36*
X855796Y324000D02*
X854204D01*
X852734Y323391D01*
X851609Y322266D01*
X851000Y320796D01*
Y319204D01*
X851609Y317734D01*
X852734Y316609D01*
X854204Y316000D01*
X855796D01*
X857266Y316609D01*
X858391Y317734D01*
X859000Y319204D01*
Y320796D01*
X858391Y322266D01*
X857266Y323391D01*
X855796Y324000D01*
D02*
G37*
G36*
X835796D02*
X834204D01*
X832734Y323391D01*
X831609Y322266D01*
X831000Y320796D01*
Y319204D01*
X831609Y317734D01*
X832734Y316609D01*
X834204Y316000D01*
X835796D01*
X837266Y316609D01*
X838391Y317734D01*
X839000Y319204D01*
Y320796D01*
X838391Y322266D01*
X837266Y323391D01*
X835796Y324000D01*
D02*
G37*
G36*
X754696Y319500D02*
X753304D01*
X752017Y318967D01*
X751033Y317983D01*
X750500Y316696D01*
Y315304D01*
X751033Y314017D01*
X752017Y313033D01*
X753304Y312500D01*
X754696D01*
X755983Y313033D01*
X756967Y314017D01*
X757500Y315304D01*
Y316696D01*
X756967Y317983D01*
X755983Y318967D01*
X754696Y319500D01*
D02*
G37*
G36*
X350696Y301500D02*
X349304D01*
X348017Y300967D01*
X347251Y300201D01*
X346500Y300073D01*
X345749Y300201D01*
X344983Y300967D01*
X343696Y301500D01*
X342304D01*
X341017Y300967D01*
X340033Y299983D01*
X339500Y298696D01*
Y297304D01*
X340033Y296017D01*
X340506Y295544D01*
X340271Y294072D01*
X340017Y293967D01*
X339033Y292983D01*
X338500Y291696D01*
Y290304D01*
X339033Y289017D01*
X340017Y288033D01*
X341304Y287500D01*
X342696D01*
X343983Y288033D01*
X344967Y289017D01*
X345500Y290304D01*
Y291696D01*
X344967Y292983D01*
X344494Y293456D01*
X344729Y294928D01*
X344983Y295033D01*
X345749Y295799D01*
X346500Y295927D01*
X347251Y295799D01*
X348017Y295033D01*
X349304Y294500D01*
X350696D01*
X351983Y295033D01*
X352967Y296017D01*
X353500Y297304D01*
Y298696D01*
X352967Y299983D01*
X351983Y300967D01*
X350696Y301500D01*
D02*
G37*
G36*
X468696Y299500D02*
X467304D01*
X466017Y298967D01*
X465251Y298201D01*
X464500Y298073D01*
X463749Y298201D01*
X462983Y298967D01*
X461696Y299500D01*
X460304D01*
X459017Y298967D01*
X458033Y297983D01*
X457500Y296696D01*
Y295304D01*
X458033Y294017D01*
X459017Y293033D01*
X460304Y292500D01*
X461696D01*
X462983Y293033D01*
X463749Y293799D01*
X464500Y293927D01*
X465251Y293799D01*
X466017Y293033D01*
X467304Y292500D01*
X468696D01*
X469983Y293033D01*
X470967Y294017D01*
X471500Y295304D01*
Y296696D01*
X470967Y297983D01*
X469983Y298967D01*
X468696Y299500D01*
D02*
G37*
G36*
X299396Y304200D02*
X298004D01*
X296717Y303667D01*
X295733Y302683D01*
X295200Y301396D01*
Y300004D01*
X295733Y298717D01*
X296717Y297733D01*
X298004Y297200D01*
X299396D01*
X300683Y297733D01*
X301667Y298717D01*
X302200Y300004D01*
Y301396D01*
X301667Y302683D01*
X300683Y303667D01*
X299396Y304200D01*
D02*
G37*
G36*
X932796Y297000D02*
X931204D01*
X929734Y296391D01*
X928609Y295266D01*
X928000Y293796D01*
Y292204D01*
X928609Y290734D01*
X929734Y289609D01*
X931204Y289000D01*
X932796D01*
X934266Y289609D01*
X935391Y290734D01*
X936000Y292204D01*
Y293796D01*
X935391Y295266D01*
X934266Y296391D01*
X932796Y297000D01*
D02*
G37*
G36*
X615696Y289250D02*
X614304D01*
X613017Y288717D01*
X612033Y287733D01*
X611500Y286446D01*
Y285054D01*
X612033Y283767D01*
X613017Y282783D01*
X614304Y282250D01*
X615696D01*
X616983Y282783D01*
X617967Y283767D01*
X618500Y285054D01*
Y286446D01*
X617967Y287733D01*
X616983Y288717D01*
X615696Y289250D01*
D02*
G37*
G36*
X940796Y290000D02*
X939204D01*
X937734Y289391D01*
X936609Y288266D01*
X936000Y286796D01*
Y285204D01*
X936609Y283734D01*
X937734Y282609D01*
X939204Y282000D01*
X940796D01*
X942266Y282609D01*
X943391Y283734D01*
X944000Y285204D01*
Y286796D01*
X943391Y288266D01*
X942266Y289391D01*
X940796Y290000D01*
D02*
G37*
G36*
X299396Y288200D02*
X298004D01*
X296717Y287667D01*
X295733Y286683D01*
X295200Y285396D01*
Y284004D01*
X295733Y282717D01*
X296717Y281733D01*
X298004Y281200D01*
X299396D01*
X300683Y281733D01*
X301667Y282717D01*
X302200Y284004D01*
Y285396D01*
X301667Y286683D01*
X300683Y287667D01*
X299396Y288200D01*
D02*
G37*
G36*
X932796Y284000D02*
X931204D01*
X929734Y283391D01*
X928609Y282266D01*
X928000Y280796D01*
Y279204D01*
X928609Y277734D01*
X929734Y276609D01*
X931204Y276000D01*
X932796D01*
X934266Y276609D01*
X935391Y277734D01*
X936000Y279204D01*
Y280796D01*
X935391Y282266D01*
X934266Y283391D01*
X932796Y284000D01*
D02*
G37*
G36*
X632946Y279500D02*
X631554D01*
X630267Y278967D01*
X629283Y277983D01*
X628750Y276696D01*
Y275304D01*
X629283Y274017D01*
X630267Y273033D01*
X631554Y272500D01*
X632946D01*
X634233Y273033D01*
X635217Y274017D01*
X635750Y275304D01*
Y276696D01*
X635217Y277983D01*
X634233Y278967D01*
X632946Y279500D01*
D02*
G37*
G36*
X940796Y276000D02*
X939204D01*
X937734Y275391D01*
X936609Y274266D01*
X936000Y272796D01*
Y271204D01*
X936609Y269734D01*
X937734Y268609D01*
X939204Y268000D01*
X940796D01*
X942266Y268609D01*
X943391Y269734D01*
X944000Y271204D01*
Y272796D01*
X943391Y274266D01*
X942266Y275391D01*
X940796Y276000D01*
D02*
G37*
G36*
X603296Y281500D02*
X601704D01*
X600234Y280891D01*
X599109Y279766D01*
X598500Y278296D01*
Y276704D01*
X599109Y275234D01*
X600234Y274109D01*
X601704Y273500D01*
X603296D01*
X603725Y273678D01*
X604444Y272601D01*
X604109Y272266D01*
X603500Y270796D01*
Y269204D01*
X604109Y267734D01*
X604444Y267399D01*
X603725Y266322D01*
X603296Y266500D01*
X601704D01*
X600234Y265891D01*
X599109Y264766D01*
X598500Y263296D01*
Y261704D01*
X599109Y260234D01*
X600234Y259109D01*
X601704Y258500D01*
X603296D01*
X604766Y259109D01*
X605891Y260234D01*
X606500Y261704D01*
Y263296D01*
X605891Y264766D01*
X605556Y265101D01*
X606275Y266178D01*
X606704Y266000D01*
X608296D01*
X609766Y266609D01*
X610891Y267734D01*
X611500Y269204D01*
Y270796D01*
X610891Y272266D01*
X609766Y273391D01*
X608296Y274000D01*
X606704D01*
X606275Y273822D01*
X605556Y274899D01*
X605891Y275234D01*
X606500Y276704D01*
Y278296D01*
X605891Y279766D01*
X604766Y280891D01*
X603296Y281500D01*
D02*
G37*
G36*
X932796Y270000D02*
X931204D01*
X929734Y269391D01*
X928609Y268266D01*
X928000Y266796D01*
Y265204D01*
X928609Y263734D01*
X929734Y262609D01*
X931204Y262000D01*
X932796D01*
X934266Y262609D01*
X935391Y263734D01*
X936000Y265204D01*
Y266796D01*
X935391Y268266D01*
X934266Y269391D01*
X932796Y270000D01*
D02*
G37*
G36*
X795696Y268500D02*
X794304D01*
X793017Y267967D01*
X792033Y266983D01*
X791500Y265696D01*
Y264304D01*
X792033Y263017D01*
X793017Y262033D01*
X794304Y261500D01*
X795696D01*
X796983Y262033D01*
X797967Y263017D01*
X798500Y264304D01*
Y265696D01*
X797967Y266983D01*
X796983Y267967D01*
X795696Y268500D01*
D02*
G37*
G36*
X298696Y265500D02*
X297304D01*
X296017Y264967D01*
X295033Y263983D01*
X294500Y262696D01*
Y261304D01*
X295033Y260017D01*
X296017Y259033D01*
X297304Y258500D01*
X298696D01*
X299983Y259033D01*
X300967Y260017D01*
X301500Y261304D01*
Y262696D01*
X300967Y263983D01*
X299983Y264967D01*
X298696Y265500D01*
D02*
G37*
G36*
X611696Y261500D02*
X610304D01*
X609017Y260967D01*
X608033Y259983D01*
X607500Y258696D01*
Y257304D01*
X608033Y256017D01*
X609017Y255033D01*
X610304Y254500D01*
X611696D01*
X612983Y255033D01*
X613967Y256017D01*
X614500Y257304D01*
Y258696D01*
X613967Y259983D01*
X612983Y260967D01*
X611696Y261500D01*
D02*
G37*
G36*
X853696Y255750D02*
X852304D01*
X851017Y255217D01*
X850033Y254233D01*
X849500Y252946D01*
Y251554D01*
X850033Y250267D01*
X851017Y249283D01*
X852304Y248750D01*
X853696D01*
X854983Y249283D01*
X855967Y250267D01*
X856500Y251554D01*
Y252946D01*
X855967Y254233D01*
X854983Y255217D01*
X853696Y255750D01*
D02*
G37*
G36*
X673696Y254500D02*
X672304D01*
X671017Y253967D01*
X670033Y252983D01*
X669500Y251696D01*
Y250304D01*
X670033Y249017D01*
X671017Y248033D01*
X672304Y247500D01*
X673696D01*
X674983Y248033D01*
X675967Y249017D01*
X676500Y250304D01*
Y251696D01*
X675967Y252983D01*
X674983Y253967D01*
X673696Y254500D01*
D02*
G37*
G36*
X795796Y241000D02*
X794204D01*
X792734Y240391D01*
X791609Y239266D01*
X791000Y237796D01*
Y236204D01*
X791609Y234734D01*
X792734Y233609D01*
X794204Y233000D01*
X795796D01*
X797266Y233609D01*
X798391Y234734D01*
X799000Y236204D01*
Y237796D01*
X798391Y239266D01*
X797266Y240391D01*
X795796Y241000D01*
D02*
G37*
G36*
X927796Y239000D02*
X926204D01*
X924734Y238391D01*
X923609Y237266D01*
X923000Y235796D01*
Y234204D01*
X923609Y232734D01*
X924734Y231609D01*
X926204Y231000D01*
X927796D01*
X929266Y231609D01*
X930391Y232734D01*
X931000Y234204D01*
Y235796D01*
X930391Y237266D01*
X929266Y238391D01*
X927796Y239000D01*
D02*
G37*
G36*
X377796D02*
X376204D01*
X374734Y238391D01*
X373609Y237266D01*
X373000Y235796D01*
Y234204D01*
X373609Y232734D01*
X374734Y231609D01*
X376204Y231000D01*
X377796D01*
X379266Y231609D01*
X380391Y232734D01*
X381000Y234204D01*
Y235796D01*
X380391Y237266D01*
X379266Y238391D01*
X377796Y239000D01*
D02*
G37*
G36*
X364796D02*
X363204D01*
X361734Y238391D01*
X360609Y237266D01*
X360000Y235796D01*
Y234204D01*
X360609Y232734D01*
X361734Y231609D01*
X363204Y231000D01*
X364796D01*
X366266Y231609D01*
X367391Y232734D01*
X368000Y234204D01*
Y235796D01*
X367391Y237266D01*
X366266Y238391D01*
X364796Y239000D01*
D02*
G37*
G36*
X905796Y237000D02*
X904204D01*
X902734Y236391D01*
X901609Y235266D01*
X901000Y233796D01*
Y232204D01*
X901609Y230734D01*
X902734Y229609D01*
X904204Y229000D01*
X905796D01*
X907266Y229609D01*
X908391Y230734D01*
X909000Y232204D01*
Y233796D01*
X908391Y235266D01*
X907266Y236391D01*
X905796Y237000D01*
D02*
G37*
G36*
X749796Y241000D02*
X748204D01*
X746734Y240391D01*
X745609Y239266D01*
X745000Y237796D01*
Y236204D01*
X745609Y234734D01*
X746734Y233609D01*
X747786Y233173D01*
Y231827D01*
X746734Y231391D01*
X745609Y230266D01*
X745000Y228796D01*
Y227204D01*
X745609Y225734D01*
X746734Y224609D01*
X748204Y224000D01*
X749796D01*
X751266Y224609D01*
X752391Y225734D01*
X753000Y227204D01*
Y228796D01*
X752391Y230266D01*
X751266Y231391D01*
X750214Y231827D01*
Y233173D01*
X751266Y233609D01*
X752391Y234734D01*
X753000Y236204D01*
Y237796D01*
X752391Y239266D01*
X751266Y240391D01*
X749796Y241000D01*
D02*
G37*
G36*
X738796Y232000D02*
X737204D01*
X735734Y231391D01*
X734609Y230266D01*
X734000Y228796D01*
Y227204D01*
X734609Y225734D01*
X735734Y224609D01*
X737204Y224000D01*
X738796D01*
X740266Y224609D01*
X741391Y225734D01*
X742000Y227204D01*
Y228796D01*
X741391Y230266D01*
X740266Y231391D01*
X738796Y232000D01*
D02*
G37*
%LPD*%
D79*
X932500Y585000D02*
D03*
Y605000D02*
D03*
Y625000D02*
D03*
Y545000D02*
D03*
Y565000D02*
D03*
Y645000D02*
D03*
Y665000D02*
D03*
Y685000D02*
D03*
X602000Y696000D02*
D03*
X522000D02*
D03*
D80*
X932500Y525000D02*
D03*
D81*
X634000Y384000D02*
D03*
X624000D02*
D03*
X884000Y654000D02*
D03*
D82*
X911000Y660000D02*
D03*
X793000Y573000D02*
D03*
X810000Y571000D02*
D03*
X852500Y605000D02*
D03*
X840000Y692000D02*
D03*
X278000Y316000D02*
D03*
Y393000D02*
D03*
X279000Y471000D02*
D03*
Y510000D02*
D03*
X278000Y588000D02*
D03*
X754000Y276000D02*
D03*
X815000Y289000D02*
D03*
X820000Y655000D02*
D03*
X895000Y613000D02*
D03*
X865000Y658000D02*
D03*
X928000Y336000D02*
D03*
X943000Y227000D02*
D03*
X927000Y256000D02*
D03*
Y245000D02*
D03*
X936000Y708000D02*
D03*
X867000Y712000D02*
D03*
X908000Y682000D02*
D03*
X773000Y583000D02*
D03*
X875000Y712000D02*
D03*
X621000Y698000D02*
D03*
X856000Y648000D02*
D03*
X884000Y534000D02*
D03*
X908000Y711000D02*
D03*
X882000Y620000D02*
D03*
X902000Y475000D02*
D03*
X794000Y490000D02*
D03*
Y506000D02*
D03*
X816000Y498000D02*
D03*
X806000Y526000D02*
D03*
X727000Y418000D02*
D03*
X626000Y372000D02*
D03*
X638000D02*
D03*
X801000Y406000D02*
D03*
X836000Y413000D02*
D03*
X855000Y440000D02*
D03*
X893000Y579000D02*
D03*
X870000Y566000D02*
D03*
X792000Y595000D02*
D03*
X638000Y643000D02*
D03*
X679000D02*
D03*
X704000Y673000D02*
D03*
X752000Y658000D02*
D03*
X809000Y653000D02*
D03*
X785000Y666000D02*
D03*
X816000Y631000D02*
D03*
X775000D02*
D03*
X664000Y645000D02*
D03*
X765000Y695000D02*
D03*
X710000Y700000D02*
D03*
X587500Y317500D02*
D03*
X760000Y534000D02*
D03*
X731000D02*
D03*
X902500Y520000D02*
D03*
X880000Y485000D02*
D03*
X772000Y408000D02*
D03*
X770000Y436000D02*
D03*
X771000Y427000D02*
D03*
X756000Y426000D02*
D03*
X770911Y514000D02*
D03*
X742500Y572500D02*
D03*
X758000Y466000D02*
D03*
Y447000D02*
D03*
X710000Y604000D02*
D03*
X924000Y616000D02*
D03*
X770000Y470000D02*
D03*
X820000Y465000D02*
D03*
X885000D02*
D03*
X630000Y608000D02*
D03*
X608000Y627000D02*
D03*
X433000Y460000D02*
D03*
X660000Y560000D02*
D03*
X705000Y385000D02*
D03*
X656000Y344000D02*
D03*
X668000D02*
D03*
X237000Y697000D02*
D03*
X243000Y678000D02*
D03*
X237000Y672000D02*
D03*
X230000Y665000D02*
D03*
X937500Y432500D02*
D03*
X710000Y592000D02*
D03*
X621000Y674000D02*
D03*
X789000Y670000D02*
D03*
X779000Y678000D02*
D03*
X585000Y643000D02*
D03*
X606000Y587000D02*
D03*
X700000Y612500D02*
D03*
X593000Y626000D02*
D03*
X462791Y577265D02*
D03*
X477791Y639765D02*
D03*
X554000Y626000D02*
D03*
X495291Y674765D02*
D03*
X544886Y586886D02*
D03*
X527500Y585000D02*
D03*
X535000Y577500D02*
D03*
X450000Y703000D02*
D03*
X495000Y697500D02*
D03*
X450000Y672500D02*
D03*
X238000Y712000D02*
D03*
X912500Y390000D02*
D03*
X380398Y669530D02*
D03*
X429000Y691000D02*
D03*
X817500Y365000D02*
D03*
X940000Y390000D02*
D03*
X925000Y402500D02*
D03*
X825000Y259000D02*
D03*
X879000Y385000D02*
D03*
X802000Y289000D02*
D03*
X803000Y304000D02*
D03*
X490000Y632500D02*
D03*
X449000Y632000D02*
D03*
X342000Y629000D02*
D03*
X430000Y338000D02*
D03*
X458000Y367000D02*
D03*
X533000Y311000D02*
D03*
X483000Y288000D02*
D03*
X473000D02*
D03*
X685000Y226000D02*
D03*
X703000D02*
D03*
X742000Y266000D02*
D03*
X795000Y245000D02*
D03*
X775000Y238000D02*
D03*
X831000Y303000D02*
D03*
X928000Y324000D02*
D03*
X892000D02*
D03*
X900000Y307000D02*
D03*
X880000D02*
D03*
X443000Y408000D02*
D03*
X424000Y447000D02*
D03*
X460000Y412000D02*
D03*
X424250Y499000D02*
D03*
X443000Y568000D02*
D03*
X584000Y613000D02*
D03*
X571000Y627000D02*
D03*
X495000Y655000D02*
D03*
X462500Y660000D02*
D03*
X825000Y282000D02*
D03*
X844000D02*
D03*
X837000Y233000D02*
D03*
X852000D02*
D03*
X862000D02*
D03*
X884000D02*
D03*
X832000Y246000D02*
D03*
X818000D02*
D03*
X831000Y268000D02*
D03*
X819000D02*
D03*
X655000Y450000D02*
D03*
X635000D02*
D03*
X615000Y470000D02*
D03*
X635000D02*
D03*
X655000D02*
D03*
Y490000D02*
D03*
X635000D02*
D03*
X615000D02*
D03*
X661000Y277000D02*
D03*
X669000Y284000D02*
D03*
X653000D02*
D03*
X664000Y235000D02*
D03*
X652000Y245000D02*
D03*
X639000D02*
D03*
X645000Y255000D02*
D03*
X652000Y265000D02*
D03*
X639000D02*
D03*
X626000Y234000D02*
D03*
X577000Y237000D02*
D03*
Y248000D02*
D03*
Y227000D02*
D03*
X565000D02*
D03*
X590000D02*
D03*
X515000Y632500D02*
D03*
X756405Y490500D02*
D03*
X726000Y349000D02*
D03*
X754000Y249000D02*
D03*
X633000Y562000D02*
D03*
X618000D02*
D03*
X567000Y611000D02*
D03*
X561000Y557000D02*
D03*
X478500Y468000D02*
D03*
X777500Y337500D02*
D03*
X481000Y568000D02*
D03*
Y544000D02*
D03*
X429000Y537000D02*
D03*
X451000D02*
D03*
X689000Y317000D02*
D03*
X782500Y380000D02*
D03*
X712000Y317000D02*
D03*
X736000Y257000D02*
D03*
X640000Y325000D02*
D03*
X635000Y345000D02*
D03*
X620000D02*
D03*
X575000Y325000D02*
D03*
X527500D02*
D03*
X610000Y317500D02*
D03*
X440000Y235000D02*
D03*
X574000Y713000D02*
D03*
X718000Y561000D02*
D03*
X707000D02*
D03*
X660500Y379500D02*
D03*
X473500Y435000D02*
D03*
X472000Y417000D02*
D03*
X507500Y419000D02*
D03*
X475500Y506000D02*
D03*
X508500Y502000D02*
D03*
X510500Y455000D02*
D03*
X655500Y507000D02*
D03*
X590500Y587000D02*
D03*
X594490Y561500D02*
D03*
X595500Y507000D02*
D03*
Y487000D02*
D03*
X605500Y561500D02*
D03*
X615500Y507000D02*
D03*
X635500D02*
D03*
X675500Y447000D02*
D03*
Y467000D02*
D03*
X699000Y472000D02*
D03*
X839000Y711000D02*
D03*
X675500Y487000D02*
D03*
X681000Y543000D02*
D03*
X695000Y528000D02*
D03*
X714000Y526000D02*
D03*
X720000Y499000D02*
D03*
X730000Y475000D02*
D03*
X730500Y450000D02*
D03*
Y466000D02*
D03*
X755257Y476757D02*
D03*
X539500Y534500D02*
D03*
X510500Y535000D02*
D03*
X539500Y479500D02*
D03*
X575500Y487000D02*
D03*
X539500Y499500D02*
D03*
X555500Y497000D02*
D03*
Y447000D02*
D03*
Y467000D02*
D03*
X513000Y468000D02*
D03*
X554500Y371500D02*
D03*
X539500Y464500D02*
D03*
Y453052D02*
D03*
X551500Y341000D02*
D03*
X575500Y373000D02*
D03*
Y457000D02*
D03*
X590500Y374000D02*
D03*
X580500Y347000D02*
D03*
X595500Y447000D02*
D03*
Y467000D02*
D03*
X615500Y447000D02*
D03*
X309000Y252000D02*
D03*
Y372000D02*
D03*
X416000Y523000D02*
D03*
X439000D02*
D03*
X464000Y534000D02*
D03*
X308000Y496000D02*
D03*
X415000Y662500D02*
D03*
X416000Y637000D02*
D03*
X461000Y274000D02*
D03*
X943000Y256000D02*
D03*
X937000Y311000D02*
D03*
X938000Y355000D02*
D03*
X437000Y703000D02*
D03*
X362000Y704000D02*
D03*
X308000Y705000D02*
D03*
X257000Y698000D02*
D03*
X306000Y634000D02*
D03*
X343000Y657000D02*
D03*
X391000Y577000D02*
D03*
X377500Y460000D02*
D03*
X341000Y496000D02*
D03*
X250000Y470000D02*
D03*
X413000Y427000D02*
D03*
X382500Y342500D02*
D03*
X397500Y331500D02*
D03*
X340000Y372000D02*
D03*
X245000Y227000D02*
D03*
X311000D02*
D03*
X235000Y252500D02*
D03*
Y262500D02*
D03*
X351000Y246000D02*
D03*
X339000Y252000D02*
D03*
X495000Y274000D02*
D03*
X527500Y227500D02*
D03*
X550000Y227000D02*
D03*
Y240000D02*
D03*
X600000Y227000D02*
D03*
X232000Y276000D02*
D03*
M02*
