M48
;Layer_Color=9474304
;FILE_FORMAT=4:4
METRIC,LZ
;TYPE=PLATED
T01F00S00C0.2000
T02F00S00C0.2100
T03F00S00C0.3000
T04F00S00C1.0000
%
T01
X0066Y00271
X00825Y00412
X00839Y00404
X00845Y005
X00794Y00524
X00764Y00516
X00756Y00503
X00779Y00501
X00755Y00449
X00738Y0045
X00735Y0041
X006365Y004165
T02
X00293Y00271
Y00287
Y00302
X00326Y00317
X00328Y00333
X00441Y00343
X00449Y00328
X00431Y00369
X00414Y00376
X0056Y0038275
X005805Y0039249
X0059625Y0037925
X0060025Y0036525
X00606Y0035975
X00589Y00364
X00588Y00343
X0058745Y00332
X00587848Y0031738
X00585Y003125
X005675Y003175
X00555Y00315
X005625Y003275
Y003425
X006Y00327
X00606Y00317
X00618Y00317
X0063Y003175
X00642Y00317
X00654
X00667Y0034
Y00357
X00642Y00359
X0063525Y0036
X0063Y0034
X00618Y0035
X00617Y00372
X00618Y00381
X00656Y00389
X00711Y00368
X00708Y00363
X00705Y00358
X00702Y00353
X00699Y00348
X00696Y00343
X00692Y00338
X00764
X00768Y00343
X00772Y00348
X00776Y00353
X0078Y00358
X00785Y00363
X0079Y00368
X00744Y00379
X00627Y00278
X0062Y00284
Y00259
X00591Y00249
X00571
X00542Y00271
X00544Y00285
X00515
Y0027
Y003
X00832Y00346
X00865Y00423
X00853Y00443
X00851Y00454
X00848Y00479
X00815Y0047
Y00455
Y0044
X008
Y00455
Y0047
X00893
X00877Y00517
X00878Y00525
X00869Y00526
X00855Y005375
X0086Y005425
X00833Y00552
X0082Y005525
Y00545
X00831Y00646
Y00653
Y0066
Y00668
X00822Y00674
X008225Y006575
X0084
Y00674
X00802Y00644
X00928Y00504
X00785Y0047
Y00455
Y0044
X00749Y00453
X00731Y00433
X00747Y00411
X00723Y0049
X00654
Y00501
Y00509
X00648Y00515
X00636505Y00480495
X00636495Y00472505
X006365Y004645
X006365Y0045649
Y0044849
X00644495Y00448505
X00644505Y00440505
X006445Y0042451
X0063651Y004325
X00620495Y00432505
X006125Y004325
X006045
X005965
Y004405
X005965Y004485
X0060425
X006045Y004405
X006125
X00612505Y00448505
X00620495Y00448505
X006125Y004565
X006045
X005965
Y004645
X006045
Y004725
Y0048049
X005965Y004725
X005805
Y004645
Y004565
X005725
Y004645
X005645
Y004565
Y004405
X005725
Y004325
X005805
Y004245
X00588495Y00424495
X005965Y004245
Y004165
X0059625Y0040875
X006045Y004085
X0060425Y0040075
X006125Y004005
X006205Y0040851
X006365Y004085
X006285Y0040049
X00588505Y00400495
X00580495Y00400495
X00581Y00409
X005805Y004165
X005725
Y004245
X005645
Y004325
X00540495Y00432505
X00540505Y00424505
Y00416505
X005405Y004085
X00556505Y00400505
X005725Y004085
X006045Y004245
X006125
X00612505Y00464505
X006125Y004725
Y0049651
X00588505Y00480505
X00572495Y00480495
X005725Y004725
X005645
X005405
Y004645
Y004565
X005205Y004525
X00495Y00461
X005135Y0048925
X005325Y004805
X00540505Y00480495
X005565Y004965
X00568Y00525
X00573Y0053
X00577Y00534
X00571Y00541
X00574992Y00545924
X00579Y0055052
X00583Y00555
X00587Y00559
X00589Y00574
X00582Y00573
X00575Y00569
X00569Y00566
X00559Y00565
X00593Y00578
X006
X00653Y0058
X0071
X00688Y00531
X00657Y00451
X005885Y004485
Y0045625
X00582Y00517
X0058Y00645
X00611Y00647
Y00654
Y00662
Y0067
X00602Y00676
Y00659
X0062
Y00676
X00661Y00651
X00695Y006425
X00724Y00645
Y00652
Y00662
Y0067
X00715Y00674
Y006575
X00733Y00658
Y00674
X00766Y0065
X00545Y00651
X00437Y00668
X0044Y00568
Y00468
X0033Y00475
X002595Y0046225
X002925Y005525
X00328Y00589
Y00621
X00294Y00637
Y00654
Y0067
Y00685
T03
X00245Y00227
X00235Y002525
Y002625
X00232Y00276
X002925Y002275
X003475
X00345Y00263
X00359Y00255
X00374Y00264
X003825Y003375
X003625Y00375
X00347Y00363
X0034Y00385
X00425Y0038
X0046Y003825
X004725Y003725
X0045Y003475
X0046Y00335
X00462Y00256
X004275Y002275
X005
X00501Y00294
X00525Y00316
X00565Y00305
X00596
X006175
X00628Y00306
X006475Y003
X00646Y00285
Y00271
Y00258
X006475Y002275
X00575
X005525Y0025
X005375Y0026
X00559Y00354
X005175Y0038
Y0039
X0063925Y00369
X00657Y00363
X007075Y00325
X007325Y003025
X006775Y002875
X006975Y002625
X00715Y00244
X007375Y002275
X00728Y00388
X00402Y003
X008025Y003275
X0082Y003675
X008225Y003825
X008425Y00395
X00871Y00389
X0089Y0039
X0088Y003475
X00855Y0036
X00905Y00325
X009425
Y002775
Y002275
X0088
X008075
X0088Y003
X0089Y00439
X00868Y0044
X00852Y00463
X00875Y00486
X00881Y00497
Y00508
X00908Y00491
X0091Y004475
X0094Y00452
Y00399
Y00506
X00942Y00609
X0094Y006525
X009Y0067
X008625Y00665
Y0065
X00868Y00621
X00855Y006
X008125Y00595
X0081Y00545
X008425Y00565
X0088Y0057
X008525Y006775
X008625Y007125
X0081Y0071
X00795Y006975
X008025Y006675
X009175Y007125
X00785Y007075
X00775Y006975
X00765Y0068
X00755
X00745
X007425Y006575
X00755Y00645
X007575Y006325
X00775Y00625
Y006
X007475
X00705Y00595
X006675Y006
Y00625
X006475Y0063
Y00645
Y00615
X006325Y006
X006225Y0057425
X005925Y005975
X005525Y006
Y00625
X005325Y006175
Y00645
X0051Y006475
X004875
Y00665
X004725Y006775
X005025
X00525
X005225Y0069
Y006975
Y00705
X005325Y007025
Y00695
Y006875
X005425Y0068
X005525Y007
X005625Y007075
X005725Y007
X005925Y006925
X00594Y00713
X005825Y0067
X0063Y0066
X006325Y0068
X00645
X006575
X006675Y007
X006775Y007075
X006875Y007
X006975Y007125
Y006725
X00654Y00713
X007575Y007125
X0079Y00563
X00752Y00524
X00742Y00505
X00734Y00498
X00725Y0048
X00733Y00469
X00755Y00474
X00735Y00538
X0068025Y0046
X0067975Y0042525
X00695Y00421
X00706Y0040875
X00725Y00411
X00499Y0045375
X0046025Y004705
X00435Y004775
X004425Y0045
X0047Y005425
X004575Y0056
X0049Y005225
X00529Y00518
X00522Y0051
X0053Y00567
X005075Y006025
X0052Y006625
X00538Y00713
X0049Y007125
X00445
X0045Y0065
X00465Y006475
X004Y00675
X00375Y006525
X0034Y006625
X003375Y00695
X0035
X0034Y007125
X00295
X0026Y0071
X00245Y00685
X00233
Y00676
X0023Y00695
X00219
X00315Y0068
X0039Y007125
X003875Y006025
X00385Y005625
X00375Y00535
X003775Y0049
X003425Y004875
Y004675
X003925Y0046
X00375Y00425
X003925Y004025
X003475Y0057
X00245Y004775
X0024Y004675
X002325Y0047
Y004625
T04
X00761Y00288
Y00308
X00781
Y00288
X00801
Y00308
X00821
X00841
Y00288
X00821
X00925Y0053
Y0055
Y0057
Y0059
Y0061
Y0063
Y0065
M30
