G04*
G04 #@! TF.GenerationSoftware,Altium Limited,Altium Designer,21.6.4 (81)*
G04*
G04 Layer_Color=8388736*
%FSLAX44Y44*%
%MOMM*%
G71*
G04*
G04 #@! TF.SameCoordinates,6F4435E8-1246-4E1E-919F-4622FBB0EAFB*
G04*
G04*
G04 #@! TF.FilePolarity,Negative*
G04*
G01*
G75*
%ADD41R,6.9700X6.9700*%
%ADD42R,0.4000X1.5750*%
%ADD43R,1.5750X0.4000*%
%ADD44R,1.1200X1.0200*%
%ADD45R,0.8700X0.7200*%
%ADD46R,1.7700X0.7700*%
%ADD47R,0.7600X0.7200*%
%ADD48R,1.6450X0.8200*%
%ADD49R,0.7200X0.7600*%
%ADD50R,2.1200X1.6200*%
%ADD51R,2.1200X3.9200*%
%ADD52R,0.7200X0.8700*%
%ADD53R,1.6200X3.7200*%
%ADD54R,1.0700X0.4700*%
%ADD55R,2.4200X3.3500*%
%ADD56R,1.0700X0.9700*%
%ADD57R,1.3500X1.9200*%
%ADD58R,1.0200X0.5700*%
%ADD59R,1.9200X0.5700*%
%ADD60R,1.1200X1.9200*%
%ADD61R,1.0700X1.0200*%
%ADD62R,2.1200X0.5000*%
%ADD63R,1.4200X1.2200*%
%ADD64R,1.5200X1.3200*%
%ADD65C,1.6200*%
%ADD66R,1.6200X1.6200*%
D41*
X635500Y467000D02*
D03*
D42*
X723000Y574380D02*
D03*
X718000D02*
D03*
X713000D02*
D03*
X708000D02*
D03*
X703000D02*
D03*
X698000D02*
D03*
X693000D02*
D03*
X683000D02*
D03*
X678000D02*
D03*
X673000D02*
D03*
X653000D02*
D03*
X648000D02*
D03*
X643000D02*
D03*
X688000D02*
D03*
X633000D02*
D03*
X638000D02*
D03*
X623000D02*
D03*
X628000D02*
D03*
X618000D02*
D03*
X613000D02*
D03*
X608000D02*
D03*
X668000D02*
D03*
X663000D02*
D03*
X658000D02*
D03*
X603000D02*
D03*
X598000D02*
D03*
X593000D02*
D03*
X588000D02*
D03*
X583000D02*
D03*
X578000D02*
D03*
X573000D02*
D03*
X568000D02*
D03*
X563000D02*
D03*
X558000D02*
D03*
X553000D02*
D03*
X548000D02*
D03*
X723000Y359620D02*
D03*
X718000D02*
D03*
X713000D02*
D03*
X708000D02*
D03*
X703000D02*
D03*
X698000D02*
D03*
X693000D02*
D03*
X688000D02*
D03*
X683000D02*
D03*
X678000D02*
D03*
X673000D02*
D03*
X668000D02*
D03*
X663000D02*
D03*
X658000D02*
D03*
X653000D02*
D03*
X648000D02*
D03*
X638000D02*
D03*
X643000D02*
D03*
X633000D02*
D03*
X628000D02*
D03*
X623000D02*
D03*
X618000D02*
D03*
X613000D02*
D03*
X608000D02*
D03*
X603000D02*
D03*
X598000D02*
D03*
X593000D02*
D03*
X588000D02*
D03*
X583000D02*
D03*
X578000D02*
D03*
X573000D02*
D03*
X568000D02*
D03*
X563000D02*
D03*
X558000D02*
D03*
X553000D02*
D03*
X548000D02*
D03*
X885500Y524620D02*
D03*
X880500D02*
D03*
X875500D02*
D03*
X870500D02*
D03*
X865500D02*
D03*
X860500D02*
D03*
X855500D02*
D03*
X850500D02*
D03*
X845500D02*
D03*
X840500D02*
D03*
X835500D02*
D03*
X830500D02*
D03*
X825500D02*
D03*
X820500D02*
D03*
X815500D02*
D03*
X810500D02*
D03*
Y639380D02*
D03*
X815500D02*
D03*
X820500D02*
D03*
X825500D02*
D03*
X830500D02*
D03*
X835500D02*
D03*
X840500D02*
D03*
X845500D02*
D03*
X850500D02*
D03*
X855500D02*
D03*
X860500D02*
D03*
X865500D02*
D03*
X870500D02*
D03*
X875500D02*
D03*
X880500D02*
D03*
X885500D02*
D03*
D43*
X528120Y379500D02*
D03*
Y384500D02*
D03*
Y389500D02*
D03*
Y394500D02*
D03*
Y399500D02*
D03*
Y404500D02*
D03*
Y409500D02*
D03*
Y414500D02*
D03*
Y419500D02*
D03*
Y424500D02*
D03*
Y429500D02*
D03*
Y434500D02*
D03*
Y439500D02*
D03*
Y444500D02*
D03*
Y449500D02*
D03*
Y454500D02*
D03*
Y459500D02*
D03*
Y464500D02*
D03*
Y469500D02*
D03*
Y474500D02*
D03*
Y479500D02*
D03*
Y484500D02*
D03*
Y489500D02*
D03*
Y494500D02*
D03*
Y499500D02*
D03*
Y504500D02*
D03*
Y509500D02*
D03*
Y514500D02*
D03*
Y519500D02*
D03*
Y524500D02*
D03*
Y529500D02*
D03*
Y534500D02*
D03*
Y539500D02*
D03*
Y544500D02*
D03*
Y549500D02*
D03*
Y554500D02*
D03*
X742880Y379500D02*
D03*
Y384500D02*
D03*
Y389500D02*
D03*
Y394500D02*
D03*
Y399500D02*
D03*
Y404500D02*
D03*
Y409500D02*
D03*
Y414500D02*
D03*
Y419500D02*
D03*
Y424500D02*
D03*
Y429500D02*
D03*
Y434500D02*
D03*
Y439500D02*
D03*
Y444500D02*
D03*
Y449500D02*
D03*
Y479500D02*
D03*
Y454500D02*
D03*
Y524500D02*
D03*
Y459500D02*
D03*
Y464500D02*
D03*
Y489500D02*
D03*
Y534500D02*
D03*
Y469500D02*
D03*
Y474500D02*
D03*
Y529500D02*
D03*
Y484500D02*
D03*
Y539500D02*
D03*
Y494500D02*
D03*
Y499500D02*
D03*
Y504500D02*
D03*
Y509500D02*
D03*
Y514500D02*
D03*
Y519500D02*
D03*
Y544500D02*
D03*
Y549500D02*
D03*
Y554500D02*
D03*
X790620Y599500D02*
D03*
Y589500D02*
D03*
Y594500D02*
D03*
Y604500D02*
D03*
X905380Y619500D02*
D03*
Y614500D02*
D03*
Y609500D02*
D03*
Y604500D02*
D03*
Y599500D02*
D03*
Y594500D02*
D03*
Y589500D02*
D03*
Y584500D02*
D03*
Y579500D02*
D03*
Y574500D02*
D03*
Y569500D02*
D03*
Y564500D02*
D03*
Y559500D02*
D03*
Y554500D02*
D03*
Y549500D02*
D03*
Y544500D02*
D03*
X790620D02*
D03*
Y549500D02*
D03*
Y554500D02*
D03*
Y559500D02*
D03*
Y564500D02*
D03*
Y569500D02*
D03*
Y574500D02*
D03*
Y579500D02*
D03*
Y584500D02*
D03*
Y609500D02*
D03*
Y614500D02*
D03*
Y619500D02*
D03*
D44*
X756000Y643750D02*
D03*
Y630250D02*
D03*
X877500Y246750D02*
D03*
Y233250D02*
D03*
X900000Y246750D02*
D03*
Y233250D02*
D03*
X720000Y249250D02*
D03*
Y235750D02*
D03*
X702500Y249250D02*
D03*
Y235750D02*
D03*
X642500Y299250D02*
D03*
Y285750D02*
D03*
X790000Y338250D02*
D03*
Y351750D02*
D03*
X765000Y238250D02*
D03*
Y251750D02*
D03*
X758000Y577250D02*
D03*
Y590750D02*
D03*
X734000Y630250D02*
D03*
Y643750D02*
D03*
X765000Y288750D02*
D03*
Y275250D02*
D03*
X742500Y289250D02*
D03*
Y275750D02*
D03*
X815000Y338250D02*
D03*
Y351750D02*
D03*
X920000Y255750D02*
D03*
Y269250D02*
D03*
Y306750D02*
D03*
Y293250D02*
D03*
X815000Y303250D02*
D03*
Y316750D02*
D03*
D45*
X821750Y415000D02*
D03*
X833250D02*
D03*
X873250D02*
D03*
X861750D02*
D03*
X873250Y400000D02*
D03*
X861750D02*
D03*
X821750D02*
D03*
X833250D02*
D03*
X764250Y470000D02*
D03*
X775750D02*
D03*
X460750Y235000D02*
D03*
X449250D02*
D03*
X927250Y650000D02*
D03*
X938750D02*
D03*
X484750Y478000D02*
D03*
X496250D02*
D03*
X484750Y452000D02*
D03*
X496250D02*
D03*
Y527000D02*
D03*
X484750D02*
D03*
D46*
X883500Y471550D02*
D03*
Y458850D02*
D03*
Y446150D02*
D03*
Y433450D02*
D03*
X811500D02*
D03*
Y446150D02*
D03*
Y458850D02*
D03*
Y471550D02*
D03*
D47*
X460000Y689400D02*
D03*
Y680600D02*
D03*
X929000Y389400D02*
D03*
Y380600D02*
D03*
X920000Y244400D02*
D03*
Y235600D02*
D03*
X861000Y242600D02*
D03*
Y251400D02*
D03*
X685000Y239600D02*
D03*
Y248400D02*
D03*
X736000Y246400D02*
D03*
Y237600D02*
D03*
X706000Y611400D02*
D03*
Y602600D02*
D03*
X574000Y611400D02*
D03*
Y602600D02*
D03*
X644000Y611400D02*
D03*
Y602600D02*
D03*
X794000Y690600D02*
D03*
Y699400D02*
D03*
X851000Y696400D02*
D03*
Y687600D02*
D03*
X866000Y697600D02*
D03*
Y706400D02*
D03*
X892000Y698000D02*
D03*
Y706800D02*
D03*
X882000Y499400D02*
D03*
Y490600D02*
D03*
X758000Y607600D02*
D03*
Y616400D02*
D03*
X775000Y636600D02*
D03*
Y645400D02*
D03*
X712000Y334400D02*
D03*
Y325600D02*
D03*
X565000Y334400D02*
D03*
Y325600D02*
D03*
X538000Y595600D02*
D03*
Y604400D02*
D03*
X722000Y602600D02*
D03*
Y611400D02*
D03*
X537500Y334400D02*
D03*
Y325600D02*
D03*
X738000Y602600D02*
D03*
Y611400D02*
D03*
X647500Y334400D02*
D03*
Y325600D02*
D03*
X587500Y334400D02*
D03*
Y325600D02*
D03*
X593000Y602600D02*
D03*
Y611400D02*
D03*
X689000Y334400D02*
D03*
Y325600D02*
D03*
X610000Y334400D02*
D03*
Y325600D02*
D03*
X777000Y690600D02*
D03*
Y699400D02*
D03*
X792000Y314400D02*
D03*
Y305600D02*
D03*
X770000Y607600D02*
D03*
Y616400D02*
D03*
X895000Y499400D02*
D03*
Y490600D02*
D03*
X789000Y636600D02*
D03*
Y645400D02*
D03*
X777000Y673400D02*
D03*
Y664600D02*
D03*
D48*
X477880Y274050D02*
D03*
Y261350D02*
D03*
Y248650D02*
D03*
Y235950D02*
D03*
X532120D02*
D03*
Y248650D02*
D03*
Y261350D02*
D03*
Y274050D02*
D03*
X703380Y703550D02*
D03*
Y690850D02*
D03*
Y678150D02*
D03*
Y665450D02*
D03*
X757620D02*
D03*
Y678150D02*
D03*
Y690850D02*
D03*
Y703550D02*
D03*
D49*
X490600Y544000D02*
D03*
X499400D02*
D03*
X774400Y420000D02*
D03*
X765600D02*
D03*
X775400Y523000D02*
D03*
X766600D02*
D03*
X773400Y562000D02*
D03*
X764600D02*
D03*
X789400Y446000D02*
D03*
X780600D02*
D03*
X765600Y380000D02*
D03*
X774400D02*
D03*
X499400Y567500D02*
D03*
X490600D02*
D03*
X768100Y487500D02*
D03*
X776900D02*
D03*
X490400Y417000D02*
D03*
X481600D02*
D03*
X495400Y468000D02*
D03*
X486600D02*
D03*
X494900Y507000D02*
D03*
X486100D02*
D03*
X766600Y505000D02*
D03*
X775400D02*
D03*
X765600Y400000D02*
D03*
X774400D02*
D03*
X490900Y435000D02*
D03*
X482100D02*
D03*
X773400Y544000D02*
D03*
X764600D02*
D03*
X903600Y650000D02*
D03*
X912400D02*
D03*
X407400Y341000D02*
D03*
X398600D02*
D03*
X405000Y459000D02*
D03*
X396200D02*
D03*
X423600Y568000D02*
D03*
X432400D02*
D03*
X418600Y701000D02*
D03*
X427400D02*
D03*
D50*
X910000Y329500D02*
D03*
Y352500D02*
D03*
Y375500D02*
D03*
D51*
X847000Y352500D02*
D03*
D52*
X792000Y278250D02*
D03*
Y289750D02*
D03*
X610000Y236750D02*
D03*
Y248250D02*
D03*
X794000Y663250D02*
D03*
Y674750D02*
D03*
X630000Y324250D02*
D03*
Y335750D02*
D03*
X620500Y612750D02*
D03*
Y601250D02*
D03*
X660500Y690250D02*
D03*
Y678750D02*
D03*
X635500Y650250D02*
D03*
Y638750D02*
D03*
X595500Y650250D02*
D03*
Y638750D02*
D03*
X555500D02*
D03*
Y650250D02*
D03*
X683000Y612750D02*
D03*
Y601250D02*
D03*
X525000Y690750D02*
D03*
Y679250D02*
D03*
D53*
X897750Y277500D02*
D03*
X867250D02*
D03*
X687250Y280000D02*
D03*
X717750D02*
D03*
D54*
X806000Y269500D02*
D03*
Y261500D02*
D03*
Y253500D02*
D03*
Y245500D02*
D03*
X844000D02*
D03*
Y253500D02*
D03*
Y261500D02*
D03*
Y269500D02*
D03*
X626000Y267000D02*
D03*
Y259000D02*
D03*
Y251000D02*
D03*
Y243000D02*
D03*
X664000D02*
D03*
Y251000D02*
D03*
Y259000D02*
D03*
Y267000D02*
D03*
D55*
X825000Y257500D02*
D03*
X645000Y255000D02*
D03*
D56*
X785000Y251500D02*
D03*
Y238500D02*
D03*
X625000Y299000D02*
D03*
Y286000D02*
D03*
X915000Y466500D02*
D03*
Y453500D02*
D03*
X935000Y431500D02*
D03*
Y418500D02*
D03*
X680500Y678000D02*
D03*
Y691000D02*
D03*
D57*
X565000Y241900D02*
D03*
Y268100D02*
D03*
X590000Y241900D02*
D03*
Y268100D02*
D03*
D58*
X287200Y253700D02*
D03*
Y245700D02*
D03*
Y269700D02*
D03*
Y261700D02*
D03*
X270200D02*
D03*
Y269700D02*
D03*
Y245700D02*
D03*
Y253700D02*
D03*
Y292700D02*
D03*
Y284700D02*
D03*
Y308700D02*
D03*
Y300700D02*
D03*
X287200D02*
D03*
Y308700D02*
D03*
Y284700D02*
D03*
Y292700D02*
D03*
X270200Y331700D02*
D03*
Y323700D02*
D03*
Y347700D02*
D03*
Y339700D02*
D03*
X287200D02*
D03*
Y347700D02*
D03*
Y323700D02*
D03*
Y331700D02*
D03*
X270200Y369700D02*
D03*
Y361700D02*
D03*
Y385700D02*
D03*
Y377700D02*
D03*
X287200D02*
D03*
Y385700D02*
D03*
Y361700D02*
D03*
Y369700D02*
D03*
X270200Y408700D02*
D03*
Y400700D02*
D03*
Y424700D02*
D03*
Y416700D02*
D03*
X287200D02*
D03*
Y424700D02*
D03*
Y400700D02*
D03*
Y408700D02*
D03*
X270200Y447700D02*
D03*
Y439700D02*
D03*
Y463700D02*
D03*
Y455700D02*
D03*
X287200D02*
D03*
Y463700D02*
D03*
Y439700D02*
D03*
Y447700D02*
D03*
X270200Y486700D02*
D03*
Y478700D02*
D03*
Y502700D02*
D03*
Y494700D02*
D03*
X287200D02*
D03*
Y502700D02*
D03*
Y478700D02*
D03*
Y486700D02*
D03*
X270200Y525700D02*
D03*
Y517700D02*
D03*
Y541700D02*
D03*
Y533700D02*
D03*
X287200D02*
D03*
Y541700D02*
D03*
Y517700D02*
D03*
Y525700D02*
D03*
X270200Y564700D02*
D03*
Y556700D02*
D03*
Y580700D02*
D03*
Y572700D02*
D03*
X287200D02*
D03*
Y580700D02*
D03*
Y556700D02*
D03*
Y564700D02*
D03*
X270200Y602700D02*
D03*
Y594700D02*
D03*
Y618700D02*
D03*
Y610700D02*
D03*
X287200D02*
D03*
Y618700D02*
D03*
Y594700D02*
D03*
Y602700D02*
D03*
X270200Y641700D02*
D03*
Y633700D02*
D03*
Y657700D02*
D03*
Y649700D02*
D03*
X287200D02*
D03*
Y657700D02*
D03*
Y633700D02*
D03*
Y641700D02*
D03*
X270200Y680700D02*
D03*
Y672700D02*
D03*
Y696700D02*
D03*
Y688700D02*
D03*
X287200D02*
D03*
Y696700D02*
D03*
Y672700D02*
D03*
Y680700D02*
D03*
D59*
X324500Y443750D02*
D03*
Y437250D02*
D03*
Y430750D02*
D03*
Y424250D02*
D03*
Y417750D02*
D03*
Y411250D02*
D03*
Y404750D02*
D03*
Y398250D02*
D03*
Y391750D02*
D03*
Y385250D02*
D03*
Y378750D02*
D03*
Y372250D02*
D03*
X395500D02*
D03*
Y378750D02*
D03*
Y385250D02*
D03*
Y391750D02*
D03*
Y398250D02*
D03*
Y404750D02*
D03*
Y411250D02*
D03*
Y417750D02*
D03*
Y424250D02*
D03*
Y430750D02*
D03*
Y437250D02*
D03*
Y443750D02*
D03*
Y567750D02*
D03*
Y561250D02*
D03*
Y554750D02*
D03*
Y548250D02*
D03*
Y541750D02*
D03*
Y535250D02*
D03*
Y528750D02*
D03*
Y522250D02*
D03*
Y515750D02*
D03*
Y509250D02*
D03*
Y502750D02*
D03*
Y496250D02*
D03*
X324500D02*
D03*
Y502750D02*
D03*
Y509250D02*
D03*
Y515750D02*
D03*
Y522250D02*
D03*
Y528750D02*
D03*
Y535250D02*
D03*
Y541750D02*
D03*
Y548250D02*
D03*
Y554750D02*
D03*
Y561250D02*
D03*
Y567750D02*
D03*
X395500Y700750D02*
D03*
Y694250D02*
D03*
Y687750D02*
D03*
Y681250D02*
D03*
Y674750D02*
D03*
Y668250D02*
D03*
Y661750D02*
D03*
Y655250D02*
D03*
Y648750D02*
D03*
Y642250D02*
D03*
Y635750D02*
D03*
Y629250D02*
D03*
X324500D02*
D03*
Y635750D02*
D03*
Y642250D02*
D03*
Y648750D02*
D03*
Y655250D02*
D03*
Y661750D02*
D03*
Y668250D02*
D03*
Y674750D02*
D03*
Y681250D02*
D03*
Y687750D02*
D03*
Y694250D02*
D03*
Y700750D02*
D03*
X395500Y323750D02*
D03*
Y317250D02*
D03*
Y310750D02*
D03*
Y304250D02*
D03*
Y297750D02*
D03*
Y291250D02*
D03*
Y284750D02*
D03*
Y278250D02*
D03*
Y271750D02*
D03*
Y265250D02*
D03*
Y258750D02*
D03*
Y252250D02*
D03*
X324500D02*
D03*
Y258750D02*
D03*
Y265250D02*
D03*
Y271750D02*
D03*
Y278250D02*
D03*
Y284750D02*
D03*
Y291250D02*
D03*
Y297750D02*
D03*
Y304250D02*
D03*
Y310750D02*
D03*
Y317250D02*
D03*
Y323750D02*
D03*
D60*
X866500Y679000D02*
D03*
X891500D02*
D03*
D61*
X915000Y484500D02*
D03*
Y500500D02*
D03*
Y433000D02*
D03*
Y417000D02*
D03*
D62*
X213000Y644625D02*
D03*
Y638275D02*
D03*
Y631925D02*
D03*
Y625575D02*
D03*
Y682725D02*
D03*
Y670025D02*
D03*
Y657325D02*
D03*
Y619225D02*
D03*
Y606525D02*
D03*
Y593825D02*
D03*
Y581125D02*
D03*
Y568425D02*
D03*
Y555725D02*
D03*
Y543025D02*
D03*
Y530325D02*
D03*
Y517625D02*
D03*
Y504925D02*
D03*
Y492225D02*
D03*
Y479525D02*
D03*
Y466825D02*
D03*
Y454125D02*
D03*
Y441425D02*
D03*
Y428725D02*
D03*
Y416025D02*
D03*
Y403325D02*
D03*
Y390625D02*
D03*
Y377925D02*
D03*
Y365225D02*
D03*
Y352525D02*
D03*
Y339825D02*
D03*
Y327125D02*
D03*
Y314425D02*
D03*
Y301725D02*
D03*
Y289025D02*
D03*
Y276325D02*
D03*
Y263625D02*
D03*
Y676375D02*
D03*
Y663675D02*
D03*
Y650975D02*
D03*
Y612875D02*
D03*
Y600175D02*
D03*
Y587475D02*
D03*
Y574775D02*
D03*
Y562075D02*
D03*
Y549375D02*
D03*
Y536675D02*
D03*
Y523975D02*
D03*
Y511275D02*
D03*
Y498575D02*
D03*
Y485875D02*
D03*
Y473175D02*
D03*
Y460475D02*
D03*
Y447775D02*
D03*
Y435075D02*
D03*
Y422375D02*
D03*
Y409675D02*
D03*
Y396975D02*
D03*
Y384275D02*
D03*
Y371575D02*
D03*
Y358875D02*
D03*
Y346175D02*
D03*
Y333475D02*
D03*
Y320775D02*
D03*
Y308075D02*
D03*
Y295375D02*
D03*
Y282675D02*
D03*
Y269975D02*
D03*
Y257275D02*
D03*
D63*
X481000Y676000D02*
D03*
Y693000D02*
D03*
X503000Y676000D02*
D03*
Y693000D02*
D03*
D64*
X811000Y700500D02*
D03*
X833000D02*
D03*
Y683500D02*
D03*
X811000D02*
D03*
D65*
X932000Y566000D02*
D03*
Y546000D02*
D03*
Y626000D02*
D03*
Y606000D02*
D03*
Y586000D02*
D03*
X555500Y694500D02*
D03*
X575500Y674500D02*
D03*
Y694500D02*
D03*
X595500Y674500D02*
D03*
Y694500D02*
D03*
X615500Y674500D02*
D03*
Y694500D02*
D03*
X635500Y674500D02*
D03*
Y694500D02*
D03*
D66*
X932000Y526000D02*
D03*
X555500Y674500D02*
D03*
M02*
