G04*
G04 #@! TF.GenerationSoftware,Altium Limited,Altium Designer,21.6.4 (81)*
G04*
G04 Layer_Physical_Order=2*
G04 Layer_Color=36540*
%FSLAX44Y44*%
%MOMM*%
G71*
G04*
G04 #@! TF.SameCoordinates,6F4435E8-1246-4E1E-919F-4622FBB0EAFB*
G04*
G04*
G04 #@! TF.FilePolarity,Positive*
G04*
G01*
G75*
%ADD73C,1.5000*%
%ADD75C,0.6000*%
G36*
X929260Y716316D02*
X929234Y716181D01*
X929079Y716077D01*
X928847Y715981D01*
X927209Y714887D01*
X927032Y714709D01*
X926823Y714570D01*
X925430Y713177D01*
X925291Y712968D01*
X925113Y712791D01*
X924019Y711153D01*
X923923Y710921D01*
X923783Y710712D01*
X923029Y708892D01*
X922980Y708646D01*
X922884Y708414D01*
X922500Y706482D01*
Y706231D01*
X922451Y705985D01*
Y704015D01*
X922500Y703769D01*
Y703518D01*
X922884Y701586D01*
X922980Y701354D01*
X923029Y701108D01*
X923783Y699288D01*
X923923Y699079D01*
X924019Y698847D01*
X925113Y697209D01*
X925291Y697032D01*
X925430Y696823D01*
X926823Y695430D01*
X927032Y695291D01*
X927209Y695113D01*
X928847Y694019D01*
X929079Y693923D01*
X929288Y693783D01*
X931108Y693029D01*
X931354Y692980D01*
X931586Y692884D01*
X933518Y692500D01*
X933769D01*
X934015Y692451D01*
X935985D01*
X936231Y692500D01*
X936482D01*
X938414Y692884D01*
X938646Y692980D01*
X938892Y693029D01*
X940712Y693783D01*
X940921Y693923D01*
X941153Y694019D01*
X942791Y695113D01*
X942968Y695291D01*
X943177Y695430D01*
X944570Y696823D01*
X944709Y697032D01*
X944887Y697209D01*
X945981Y698847D01*
X946077Y699079D01*
X946181Y699234D01*
X946317Y699260D01*
X947451Y698949D01*
X947451Y497549D01*
X934000D01*
X933025Y497355D01*
X932198Y496802D01*
X931645Y495975D01*
X931451Y495000D01*
Y465000D01*
X931645Y464025D01*
X932198Y463198D01*
X933025Y462645D01*
X934000Y462451D01*
X947451D01*
Y380002D01*
X946266Y379391D01*
X944796Y380000D01*
X943204D01*
X943181Y379991D01*
X942000Y380876D01*
Y381796D01*
X941391Y383266D01*
X940266Y384391D01*
X938796Y385000D01*
X937204D01*
X935734Y384391D01*
X934609Y383266D01*
X934000Y381796D01*
Y380204D01*
X934609Y378734D01*
X935734Y377609D01*
X937204Y377000D01*
X938796D01*
X939040Y376077D01*
X937922Y375000D01*
X937204D01*
X935734Y374391D01*
X934609Y373266D01*
X934000Y371796D01*
Y370204D01*
X934609Y368734D01*
X935734Y367609D01*
X937204Y367000D01*
X938796D01*
X940266Y367609D01*
X941391Y368734D01*
X942000Y370204D01*
Y371124D01*
X943181Y372010D01*
X943204Y372000D01*
X944796D01*
X946266Y372609D01*
X947451Y371998D01*
Y222549D01*
X935002D01*
X934391Y223734D01*
X935000Y225204D01*
Y226796D01*
X934391Y228266D01*
X933266Y229391D01*
X932214Y229827D01*
Y231173D01*
X933266Y231609D01*
X934391Y232734D01*
X935000Y234204D01*
Y235796D01*
X934391Y237266D01*
X933266Y238391D01*
X931796Y239000D01*
X930204D01*
X928734Y238391D01*
X927609Y237266D01*
X927000Y235796D01*
Y234204D01*
X927609Y232734D01*
X928734Y231609D01*
X929786Y231173D01*
Y229827D01*
X928734Y229391D01*
X927609Y228266D01*
X927000Y226796D01*
Y225204D01*
X927609Y223734D01*
X926998Y222549D01*
X924002D01*
X923391Y223734D01*
X924000Y225204D01*
Y226796D01*
X923391Y228266D01*
X922266Y229391D01*
X920796Y230000D01*
X919204D01*
X917734Y229391D01*
X916609Y228266D01*
X916000Y226796D01*
Y225204D01*
X916609Y223734D01*
X915998Y222549D01*
X231051D01*
X230739Y223684D01*
X230766Y223819D01*
X230921Y223923D01*
X231153Y224019D01*
X232791Y225113D01*
X232968Y225291D01*
X233177Y225430D01*
X234570Y226823D01*
X234709Y227032D01*
X234887Y227209D01*
X235981Y228847D01*
X236077Y229079D01*
X236217Y229288D01*
X236971Y231108D01*
X237020Y231354D01*
X237116Y231586D01*
X237500Y233518D01*
Y233769D01*
X237549Y234015D01*
Y235985D01*
X237500Y236231D01*
Y236482D01*
X237116Y238414D01*
X237020Y238646D01*
X236971Y238892D01*
X236217Y240712D01*
X236077Y240921D01*
X235981Y241153D01*
X234887Y242791D01*
X234709Y242968D01*
X234570Y243177D01*
X233177Y244570D01*
X232968Y244709D01*
X232791Y244887D01*
X231153Y245981D01*
X230921Y246077D01*
X230712Y246217D01*
X228892Y246971D01*
X228646Y247020D01*
X228414Y247116D01*
X226482Y247500D01*
X226231D01*
X225985Y247549D01*
X224015D01*
X223769Y247500D01*
X223518D01*
X221586Y247116D01*
X221354Y247020D01*
X221108Y246971D01*
X219288Y246217D01*
X219079Y246077D01*
X218847Y245981D01*
X217209Y244887D01*
X217032Y244709D01*
X216823Y244570D01*
X215430Y243177D01*
X215291Y242968D01*
X215113Y242791D01*
X214019Y241153D01*
X213923Y240921D01*
X213819Y240766D01*
X213683Y240740D01*
X212549Y241051D01*
Y250000D01*
X212355Y250975D01*
X211802Y251802D01*
X210975Y252355D01*
X210000Y252549D01*
X205000D01*
Y687451D01*
X210000D01*
X210975Y687645D01*
X211802Y688198D01*
X212355Y689025D01*
X212549Y690000D01*
Y717451D01*
X781941Y717451D01*
Y685000D01*
X781941Y685000D01*
X782174Y683829D01*
X782837Y682837D01*
X808837Y656837D01*
X809829Y656174D01*
X811000Y655941D01*
X844733D01*
X852837Y647837D01*
X853829Y647174D01*
X855000Y646941D01*
X856171Y647174D01*
X857163Y647837D01*
X857826Y648829D01*
X858059Y650000D01*
X857826Y651171D01*
X857163Y652163D01*
X848163Y661163D01*
X848163Y661163D01*
X847171Y661826D01*
X846000Y662059D01*
X846000Y662059D01*
X812267D01*
X788059Y686267D01*
Y717451D01*
X906941Y717451D01*
Y685000D01*
Y679767D01*
X887837Y660663D01*
X887174Y659670D01*
X886941Y658500D01*
X886941Y658500D01*
Y650000D01*
X887174Y648829D01*
X887837Y647837D01*
X888829Y647174D01*
X890000Y646941D01*
X891171Y647174D01*
X891826Y647612D01*
X892366Y647794D01*
X893499Y647551D01*
X894017Y647033D01*
X895304Y646500D01*
X896696D01*
X897983Y647033D01*
X898967Y648017D01*
X899500Y649304D01*
Y650696D01*
X898967Y651983D01*
X897983Y652967D01*
X896696Y653500D01*
X895304D01*
X894329Y653096D01*
X893059Y653668D01*
Y657233D01*
X912163Y676337D01*
X912163Y676337D01*
X912826Y677329D01*
X913059Y678500D01*
X913059Y678500D01*
Y685000D01*
Y717451D01*
X928949D01*
X929260Y716316D01*
D02*
G37*
%LPC*%
G36*
X719696Y707500D02*
X718304D01*
X717017Y706967D01*
X716033Y705983D01*
X715500Y704696D01*
Y703304D01*
X716033Y702017D01*
X717017Y701033D01*
X718304Y700500D01*
X719696D01*
X720983Y701033D01*
X721967Y702017D01*
X722500Y703304D01*
Y704696D01*
X721967Y705983D01*
X720983Y706967D01*
X719696Y707500D01*
D02*
G37*
G36*
X636751Y704000D02*
X636500D01*
Y695500D01*
X645000D01*
Y695751D01*
X644353Y698167D01*
X643102Y700333D01*
X641333Y702102D01*
X639167Y703353D01*
X636751Y704000D01*
D02*
G37*
G36*
X634500D02*
X634249D01*
X631833Y703353D01*
X629667Y702102D01*
X627898Y700333D01*
X626647Y698167D01*
X626000Y695751D01*
Y695500D01*
X634500D01*
Y704000D01*
D02*
G37*
G36*
X556751D02*
X556500D01*
Y695500D01*
X565000D01*
Y695751D01*
X564353Y698167D01*
X563102Y700333D01*
X561333Y702102D01*
X559167Y703353D01*
X556751Y704000D01*
D02*
G37*
G36*
X554500D02*
X554249D01*
X551833Y703353D01*
X549667Y702102D01*
X547898Y700333D01*
X546647Y698167D01*
X546000Y695751D01*
Y695500D01*
X554500D01*
Y704000D01*
D02*
G37*
G36*
X660796Y703000D02*
X659204D01*
X657734Y702391D01*
X656609Y701266D01*
X656000Y699796D01*
Y698204D01*
X656609Y696734D01*
X657734Y695609D01*
X659204Y695000D01*
X660796D01*
X662266Y695609D01*
X663391Y696734D01*
X664000Y698204D01*
Y699796D01*
X663391Y701266D01*
X662266Y702391D01*
X660796Y703000D01*
D02*
G37*
G36*
X299396Y700200D02*
X298004D01*
X296717Y699667D01*
X295733Y698683D01*
X295200Y697396D01*
Y696004D01*
X295733Y694717D01*
X296717Y693733D01*
X298004Y693200D01*
X299396D01*
X300683Y693733D01*
X301667Y694717D01*
X302200Y696004D01*
Y697396D01*
X301667Y698683D01*
X300683Y699667D01*
X299396Y700200D01*
D02*
G37*
G36*
X419396Y696400D02*
X417804D01*
X416334Y695791D01*
X415209Y694666D01*
X414600Y693196D01*
Y691604D01*
X415209Y690134D01*
X416334Y689009D01*
X417804Y688400D01*
X419396D01*
X420866Y689009D01*
X421991Y690134D01*
X422600Y691604D01*
Y693196D01*
X421991Y694666D01*
X420866Y695791D01*
X419396Y696400D01*
D02*
G37*
G36*
X616487Y702000D02*
X614513D01*
X612605Y701489D01*
X610895Y700501D01*
X609498Y699105D01*
X608511Y697395D01*
X608000Y695487D01*
Y693513D01*
X608511Y691605D01*
X609498Y689895D01*
X610895Y688499D01*
X612605Y687511D01*
X614513Y687000D01*
X616487D01*
X618395Y687511D01*
X620105Y688499D01*
X621502Y689895D01*
X622489Y691605D01*
X623000Y693513D01*
Y695487D01*
X622489Y697395D01*
X621502Y699105D01*
X620105Y700501D01*
X618395Y701489D01*
X616487Y702000D01*
D02*
G37*
G36*
X596487D02*
X594513D01*
X592605Y701489D01*
X590895Y700501D01*
X589498Y699105D01*
X588511Y697395D01*
X588000Y695487D01*
Y693513D01*
X588511Y691605D01*
X589498Y689895D01*
X590895Y688499D01*
X592605Y687511D01*
X594513Y687000D01*
X596487D01*
X598395Y687511D01*
X600105Y688499D01*
X601502Y689895D01*
X602489Y691605D01*
X603000Y693513D01*
Y695487D01*
X602489Y697395D01*
X601502Y699105D01*
X600105Y700501D01*
X598395Y701489D01*
X596487Y702000D01*
D02*
G37*
G36*
X576487D02*
X574513D01*
X572605Y701489D01*
X570895Y700501D01*
X569498Y699105D01*
X568511Y697395D01*
X568000Y695487D01*
Y693513D01*
X568511Y691605D01*
X569498Y689895D01*
X570895Y688499D01*
X572605Y687511D01*
X574513Y687000D01*
X576487D01*
X578395Y687511D01*
X580105Y688499D01*
X581502Y689895D01*
X582489Y691605D01*
X583000Y693513D01*
Y695487D01*
X582489Y697395D01*
X581502Y699105D01*
X580105Y700501D01*
X578395Y701489D01*
X576487Y702000D01*
D02*
G37*
G36*
X645000Y693500D02*
X636500D01*
Y685000D01*
X636751D01*
X639167Y685647D01*
X641333Y686898D01*
X643102Y688667D01*
X644353Y690833D01*
X645000Y693249D01*
Y693500D01*
D02*
G37*
G36*
X634500D02*
X626000D01*
Y693249D01*
X626647Y690833D01*
X627898Y688667D01*
X629667Y686898D01*
X631833Y685647D01*
X634249Y685000D01*
X634500D01*
Y693500D01*
D02*
G37*
G36*
X565000D02*
X556500D01*
Y685000D01*
X556751D01*
X559167Y685647D01*
X561333Y686898D01*
X563102Y688667D01*
X564353Y690833D01*
X565000Y693249D01*
Y693500D01*
D02*
G37*
G36*
X554500D02*
X546000D01*
Y693249D01*
X546647Y690833D01*
X547898Y688667D01*
X549667Y686898D01*
X551833Y685647D01*
X554249Y685000D01*
X554500D01*
Y693500D01*
D02*
G37*
G36*
X777796Y686000D02*
X776204D01*
X774734Y685391D01*
X773609Y684266D01*
X773000Y682796D01*
Y681204D01*
X773609Y679734D01*
X774734Y678609D01*
X776204Y678000D01*
X777796D01*
X779266Y678609D01*
X780391Y679734D01*
X781000Y681204D01*
Y682796D01*
X780391Y684266D01*
X779266Y685391D01*
X777796Y686000D01*
D02*
G37*
G36*
X297696Y684500D02*
X296304D01*
X295017Y683967D01*
X294033Y682983D01*
X293500Y681696D01*
Y680304D01*
X294033Y679017D01*
X295017Y678033D01*
X296304Y677500D01*
X297696D01*
X298983Y678033D01*
X299967Y679017D01*
X300500Y680304D01*
Y681696D01*
X299967Y682983D01*
X298983Y683967D01*
X297696Y684500D01*
D02*
G37*
G36*
X452296Y684000D02*
X450704D01*
X449234Y683391D01*
X448109Y682266D01*
X447500Y680796D01*
Y679204D01*
X448109Y677734D01*
X449234Y676609D01*
X450704Y676000D01*
X452296D01*
X453766Y676609D01*
X454891Y677734D01*
X455500Y679204D01*
Y680796D01*
X454891Y682266D01*
X453766Y683391D01*
X452296Y684000D01*
D02*
G37*
G36*
X741696Y674500D02*
X740304D01*
X739017Y673967D01*
X738033Y672983D01*
X737500Y671696D01*
Y670304D01*
X738033Y669017D01*
X739017Y668033D01*
X740304Y667500D01*
X741696D01*
X742983Y668033D01*
X743967Y669017D01*
X744500Y670304D01*
Y671696D01*
X743967Y672983D01*
X742983Y673967D01*
X741696Y674500D01*
D02*
G37*
G36*
X636487Y682000D02*
X634513D01*
X632605Y681489D01*
X630895Y680501D01*
X629498Y679105D01*
X628511Y677395D01*
X628000Y675487D01*
Y673513D01*
X628511Y671605D01*
X629498Y669895D01*
X630895Y668499D01*
X632605Y667511D01*
X634513Y667000D01*
X636487D01*
X638395Y667511D01*
X640105Y668499D01*
X641501Y669895D01*
X642489Y671605D01*
X643000Y673513D01*
Y675487D01*
X642489Y677395D01*
X641501Y679105D01*
X640105Y680501D01*
X638395Y681489D01*
X636487Y682000D01*
D02*
G37*
G36*
X616487D02*
X614513D01*
X612605Y681489D01*
X610895Y680501D01*
X609498Y679105D01*
X608511Y677395D01*
X608000Y675487D01*
Y673513D01*
X608511Y671605D01*
X609498Y669895D01*
X610895Y668499D01*
X612605Y667511D01*
X614513Y667000D01*
X616487D01*
X618395Y667511D01*
X620105Y668499D01*
X621502Y669895D01*
X622489Y671605D01*
X623000Y673513D01*
Y675487D01*
X622489Y677395D01*
X621502Y679105D01*
X620105Y680501D01*
X618395Y681489D01*
X616487Y682000D01*
D02*
G37*
G36*
X596487D02*
X594513D01*
X592605Y681489D01*
X590895Y680501D01*
X589498Y679105D01*
X588511Y677395D01*
X588000Y675487D01*
Y673513D01*
X588511Y671605D01*
X589498Y669895D01*
X590895Y668499D01*
X592605Y667511D01*
X594513Y667000D01*
X596487D01*
X598395Y667511D01*
X600105Y668499D01*
X601502Y669895D01*
X602489Y671605D01*
X603000Y673513D01*
Y675487D01*
X602489Y677395D01*
X601502Y679105D01*
X600105Y680501D01*
X598395Y681489D01*
X596487Y682000D01*
D02*
G37*
G36*
X576487D02*
X574513D01*
X572605Y681489D01*
X570895Y680501D01*
X569498Y679105D01*
X568511Y677395D01*
X568000Y675487D01*
Y673513D01*
X568511Y671605D01*
X569498Y669895D01*
X570895Y668499D01*
X572605Y667511D01*
X574513Y667000D01*
X576487D01*
X578395Y667511D01*
X580105Y668499D01*
X581502Y669895D01*
X582489Y671605D01*
X583000Y673513D01*
Y675487D01*
X582489Y677395D01*
X581502Y679105D01*
X580105Y680501D01*
X578395Y681489D01*
X576487Y682000D01*
D02*
G37*
G36*
X556487D02*
X554513D01*
X552605Y681489D01*
X550895Y680501D01*
X549498Y679105D01*
X548511Y677395D01*
X548000Y675487D01*
Y673513D01*
X548511Y671605D01*
X549498Y669895D01*
X550895Y668499D01*
X552605Y667511D01*
X554513Y667000D01*
X556487D01*
X558395Y667511D01*
X560105Y668499D01*
X561502Y669895D01*
X562489Y671605D01*
X563000Y673513D01*
Y675487D01*
X562489Y677395D01*
X561502Y679105D01*
X560105Y680501D01*
X558395Y681489D01*
X556487Y682000D01*
D02*
G37*
G36*
X301696Y671500D02*
X300304D01*
X299017Y670967D01*
X298033Y669983D01*
X297500Y668696D01*
Y667304D01*
X298033Y666017D01*
X299017Y665033D01*
X300304Y664500D01*
X301696D01*
X302983Y665033D01*
X303967Y666017D01*
X304500Y667304D01*
Y668696D01*
X303967Y669983D01*
X302983Y670967D01*
X301696Y671500D01*
D02*
G37*
G36*
X795696Y658500D02*
X794304D01*
X793017Y657967D01*
X792033Y656983D01*
X791500Y655696D01*
Y654304D01*
X792033Y653017D01*
X793017Y652033D01*
X794304Y651500D01*
X795696D01*
X796983Y652033D01*
X797967Y653017D01*
X798500Y654304D01*
Y655696D01*
X797967Y656983D01*
X796983Y657967D01*
X795696Y658500D01*
D02*
G37*
G36*
X761696D02*
X760304D01*
X759017Y657967D01*
X758033Y656983D01*
X757500Y655696D01*
Y654304D01*
X758033Y653017D01*
X759017Y652033D01*
X760304Y651500D01*
X761696D01*
X762983Y652033D01*
X763967Y653017D01*
X764500Y654304D01*
Y655696D01*
X763967Y656983D01*
X762983Y657967D01*
X761696Y658500D01*
D02*
G37*
G36*
X751796Y659000D02*
X750204D01*
X748734Y658391D01*
X747609Y657266D01*
X747000Y655796D01*
Y654204D01*
X747609Y652734D01*
X748734Y651609D01*
X750204Y651000D01*
X751796D01*
X753266Y651609D01*
X754391Y652734D01*
X755000Y654204D01*
Y655796D01*
X754391Y657266D01*
X753266Y658391D01*
X751796Y659000D01*
D02*
G37*
G36*
X739796D02*
X738204D01*
X736734Y658391D01*
X735609Y657266D01*
X735000Y655796D01*
Y654204D01*
X735609Y652734D01*
X736734Y651609D01*
X738204Y651000D01*
X739796D01*
X741266Y651609D01*
X742391Y652734D01*
X743000Y654204D01*
Y655796D01*
X742391Y657266D01*
X741266Y658391D01*
X739796Y659000D01*
D02*
G37*
G36*
X745796Y648000D02*
X744204D01*
X742734Y647391D01*
X741609Y646266D01*
X741000Y644796D01*
Y643204D01*
X741609Y641734D01*
X742734Y640609D01*
X744204Y640000D01*
X745796D01*
X747266Y640609D01*
X748391Y641734D01*
X749000Y643204D01*
Y644796D01*
X748391Y646266D01*
X747266Y647391D01*
X745796Y648000D01*
D02*
G37*
G36*
X379696Y646500D02*
X378304D01*
X377017Y645967D01*
X376033Y644983D01*
X375500Y643696D01*
Y642304D01*
X376033Y641017D01*
X377017Y640033D01*
X378304Y639500D01*
X379696D01*
X380983Y640033D01*
X381967Y641017D01*
X382500Y642304D01*
Y643696D01*
X381967Y644983D01*
X380983Y645967D01*
X379696Y646500D01*
D02*
G37*
G36*
X603796Y643000D02*
X602204D01*
X600734Y642391D01*
X599609Y641266D01*
X599000Y639796D01*
Y638204D01*
X599609Y636734D01*
X600734Y635609D01*
X602204Y635000D01*
X603796D01*
X605266Y635609D01*
X606391Y636734D01*
X607000Y638204D01*
Y639796D01*
X606391Y641266D01*
X605266Y642391D01*
X603796Y643000D01*
D02*
G37*
G36*
X643796Y642000D02*
X642204D01*
X640734Y641391D01*
X639609Y640266D01*
X639000Y638796D01*
Y637204D01*
X639609Y635734D01*
X640734Y634609D01*
X642204Y634000D01*
X643796D01*
X645266Y634609D01*
X646391Y635734D01*
X647000Y637204D01*
Y638796D01*
X646391Y640266D01*
X645266Y641391D01*
X643796Y642000D01*
D02*
G37*
G36*
X745796Y634000D02*
X744204D01*
X742734Y633391D01*
X741609Y632266D01*
X741000Y630796D01*
Y629204D01*
X741609Y627734D01*
X742734Y626609D01*
X744204Y626000D01*
X745796D01*
X747266Y626609D01*
X748391Y627734D01*
X749000Y629204D01*
Y630796D01*
X748391Y632266D01*
X747266Y633391D01*
X745796Y634000D01*
D02*
G37*
G36*
X716796D02*
X715204D01*
X713734Y633391D01*
X712609Y632266D01*
X712000Y630796D01*
Y629204D01*
X712609Y627734D01*
X713734Y626609D01*
X715204Y626000D01*
X716796D01*
X718266Y626609D01*
X719391Y627734D01*
X720000Y629204D01*
Y630796D01*
X719391Y632266D01*
X718266Y633391D01*
X716796Y634000D01*
D02*
G37*
G36*
X932987Y633500D02*
X931013D01*
X929105Y632989D01*
X927395Y632001D01*
X925999Y630605D01*
X925011Y628895D01*
X924500Y626987D01*
Y625013D01*
X925011Y623105D01*
X925999Y621395D01*
X927395Y619999D01*
X929105Y619011D01*
X931013Y618500D01*
X932987D01*
X934895Y619011D01*
X936605Y619999D01*
X938001Y621395D01*
X938989Y623105D01*
X939500Y625013D01*
Y626987D01*
X938989Y628895D01*
X938001Y630605D01*
X936605Y632001D01*
X934895Y632989D01*
X932987Y633500D01*
D02*
G37*
G36*
X681296Y626000D02*
X679704D01*
X678234Y625391D01*
X677109Y624266D01*
X676500Y622796D01*
Y621204D01*
X677109Y619734D01*
X678234Y618609D01*
X679704Y618000D01*
X681296D01*
X682766Y618609D01*
X683891Y619734D01*
X684500Y621204D01*
Y622796D01*
X683891Y624266D01*
X682766Y625391D01*
X681296Y626000D01*
D02*
G37*
G36*
X637796Y621000D02*
X636204D01*
X634734Y620391D01*
X633609Y619266D01*
X633000Y617796D01*
Y616204D01*
X633609Y614734D01*
X634734Y613609D01*
X636204Y613000D01*
X637796D01*
X639266Y613609D01*
X640391Y614734D01*
X641000Y616204D01*
Y617796D01*
X640391Y619266D01*
X639266Y620391D01*
X637796Y621000D01*
D02*
G37*
G36*
X602796Y620000D02*
X601204D01*
X599734Y619391D01*
X598609Y618266D01*
X598000Y616796D01*
Y615204D01*
X598609Y613734D01*
X599734Y612609D01*
X601204Y612000D01*
X602796D01*
X604266Y612609D01*
X605391Y613734D01*
X606000Y615204D01*
Y616796D01*
X605391Y618266D01*
X604266Y619391D01*
X602796Y620000D01*
D02*
G37*
G36*
X314696Y616500D02*
X313304D01*
X312017Y615967D01*
X311033Y614983D01*
X310500Y613696D01*
Y612304D01*
X311033Y611017D01*
X312017Y610033D01*
X313304Y609500D01*
X314696D01*
X315983Y610033D01*
X316967Y611017D01*
X317500Y612304D01*
Y613696D01*
X316967Y614983D01*
X315983Y615967D01*
X314696Y616500D01*
D02*
G37*
G36*
X890696Y607500D02*
X889304D01*
X888017Y606967D01*
X887033Y605983D01*
X886500Y604696D01*
Y603304D01*
X887033Y602017D01*
X888017Y601033D01*
X889304Y600500D01*
X890696D01*
X891983Y601033D01*
X892967Y602017D01*
X893500Y603304D01*
Y604696D01*
X892967Y605983D01*
X891983Y606967D01*
X890696Y607500D01*
D02*
G37*
G36*
X745696Y606500D02*
X744304D01*
X743017Y605967D01*
X742033Y604983D01*
X741500Y603696D01*
Y602304D01*
X742033Y601017D01*
X743017Y600033D01*
X744304Y599500D01*
X745696D01*
X746983Y600033D01*
X747967Y601017D01*
X748500Y602304D01*
Y603696D01*
X747967Y604983D01*
X746983Y605967D01*
X745696Y606500D01*
D02*
G37*
G36*
X730696D02*
X729304D01*
X728017Y605967D01*
X727033Y604983D01*
X726500Y603696D01*
Y602304D01*
X727033Y601017D01*
X728017Y600033D01*
X729304Y599500D01*
X730696D01*
X731983Y600033D01*
X732967Y601017D01*
X733500Y602304D01*
Y603696D01*
X732967Y604983D01*
X731983Y605967D01*
X730696Y606500D01*
D02*
G37*
G36*
X932987Y613500D02*
X931013D01*
X929105Y612989D01*
X927395Y612001D01*
X925999Y610605D01*
X925011Y608895D01*
X924500Y606987D01*
Y605013D01*
X925011Y603105D01*
X925999Y601395D01*
X927395Y599999D01*
X929105Y599011D01*
X931013Y598500D01*
X932987D01*
X934895Y599011D01*
X936605Y599999D01*
X938001Y601395D01*
X938989Y603105D01*
X939500Y605013D01*
Y606987D01*
X938989Y608895D01*
X938001Y610605D01*
X936605Y612001D01*
X934895Y612989D01*
X932987Y613500D01*
D02*
G37*
G36*
X713796Y606000D02*
X712204D01*
X710734Y605391D01*
X709609Y604266D01*
X709000Y602796D01*
Y601204D01*
X709609Y599734D01*
X710734Y598609D01*
X712204Y598000D01*
X713796D01*
X715266Y598609D01*
X716391Y599734D01*
X717000Y601204D01*
Y602796D01*
X716391Y604266D01*
X715266Y605391D01*
X713796Y606000D01*
D02*
G37*
G36*
X581796D02*
X580204D01*
X578734Y605391D01*
X577609Y604266D01*
X577000Y602796D01*
Y601204D01*
X577609Y599734D01*
X578734Y598609D01*
X580204Y598000D01*
X581796D01*
X583266Y598609D01*
X584391Y599734D01*
X585000Y601204D01*
Y602796D01*
X584391Y604266D01*
X583266Y605391D01*
X581796Y606000D01*
D02*
G37*
G36*
X770696Y603500D02*
X769304D01*
X768017Y602967D01*
X767033Y601983D01*
X766500Y600696D01*
Y599304D01*
X767033Y598017D01*
X768017Y597033D01*
X769304Y596500D01*
X770696D01*
X771983Y597033D01*
X772967Y598017D01*
X773500Y599304D01*
Y600696D01*
X772967Y601983D01*
X771983Y602967D01*
X770696Y603500D01*
D02*
G37*
G36*
X758696D02*
X757304D01*
X756017Y602967D01*
X755033Y601983D01*
X754500Y600696D01*
Y599304D01*
X755033Y598017D01*
X756017Y597033D01*
X757304Y596500D01*
X758696D01*
X759983Y597033D01*
X760967Y598017D01*
X761500Y599304D01*
Y600696D01*
X760967Y601983D01*
X759983Y602967D01*
X758696Y603500D01*
D02*
G37*
G36*
X530696Y599500D02*
X529304D01*
X528017Y598967D01*
X527033Y597983D01*
X526500Y596696D01*
Y595304D01*
X527033Y594017D01*
X528017Y593033D01*
X529304Y592500D01*
X530696D01*
X531983Y593033D01*
X532967Y594017D01*
X533500Y595304D01*
Y596696D01*
X532967Y597983D01*
X531983Y598967D01*
X530696Y599500D01*
D02*
G37*
G36*
X771196Y593250D02*
X769804D01*
X768517Y592717D01*
X767533Y591733D01*
X767000Y590446D01*
Y589054D01*
X767533Y587767D01*
X768517Y586783D01*
X769804Y586250D01*
X771196D01*
X772483Y586783D01*
X773467Y587767D01*
X774000Y589054D01*
Y590446D01*
X773467Y591733D01*
X772483Y592717D01*
X771196Y593250D01*
D02*
G37*
G36*
X303696Y592500D02*
X302304D01*
X301017Y591967D01*
X300033Y590983D01*
X299500Y589696D01*
Y588304D01*
X300033Y587017D01*
X301017Y586033D01*
X302304Y585500D01*
X303696D01*
X304983Y586033D01*
X305967Y587017D01*
X306500Y588304D01*
Y589696D01*
X305967Y590983D01*
X304983Y591967D01*
X303696Y592500D01*
D02*
G37*
G36*
X932987Y593500D02*
X931013D01*
X929105Y592989D01*
X927395Y592001D01*
X925999Y590605D01*
X925011Y588895D01*
X924500Y586987D01*
Y585013D01*
X925011Y583105D01*
X925999Y581395D01*
X927395Y579999D01*
X929105Y579011D01*
X931013Y578500D01*
X932987D01*
X934895Y579011D01*
X936605Y579999D01*
X938001Y581395D01*
X938989Y583105D01*
X939500Y585013D01*
Y586987D01*
X938989Y588895D01*
X938001Y590605D01*
X936605Y592001D01*
X934895Y592989D01*
X932987Y593500D01*
D02*
G37*
G36*
X423796Y581000D02*
X422204D01*
X420734Y580391D01*
X419609Y579266D01*
X419000Y577796D01*
Y576204D01*
X419609Y574734D01*
X420734Y573609D01*
X422204Y573000D01*
X423796D01*
X425266Y573609D01*
X426391Y574734D01*
X427000Y576204D01*
Y577796D01*
X426391Y579266D01*
X425266Y580391D01*
X423796Y581000D01*
D02*
G37*
G36*
X816696Y579500D02*
X815304D01*
X814017Y578967D01*
X813033Y577983D01*
X812500Y576696D01*
Y575304D01*
X813033Y574017D01*
X814017Y573033D01*
X815304Y572500D01*
X816696D01*
X817983Y573033D01*
X818967Y574017D01*
X819500Y575304D01*
Y576696D01*
X818967Y577983D01*
X817983Y578967D01*
X816696Y579500D01*
D02*
G37*
G36*
X499696D02*
X498304D01*
X497017Y578967D01*
X496033Y577983D01*
X495500Y576696D01*
Y575304D01*
X496033Y574017D01*
X497017Y573033D01*
X498304Y572500D01*
X499696D01*
X500983Y573033D01*
X501967Y574017D01*
X502500Y575304D01*
Y576696D01*
X501967Y577983D01*
X500983Y578967D01*
X499696Y579500D01*
D02*
G37*
G36*
X804696Y574500D02*
X803304D01*
X802017Y573967D01*
X801033Y572983D01*
X800500Y571696D01*
Y570304D01*
X801033Y569017D01*
X802017Y568033D01*
X803304Y567500D01*
X804696D01*
X805983Y568033D01*
X806967Y569017D01*
X807500Y570304D01*
Y571696D01*
X806967Y572983D01*
X805983Y573967D01*
X804696Y574500D01*
D02*
G37*
G36*
X933251Y575500D02*
X933000D01*
Y567000D01*
X941500D01*
Y567251D01*
X940853Y569667D01*
X939602Y571833D01*
X937833Y573602D01*
X935667Y574852D01*
X933251Y575500D01*
D02*
G37*
G36*
X931000D02*
X930749D01*
X928333Y574852D01*
X926167Y573602D01*
X924398Y571833D01*
X923147Y569667D01*
X922500Y567251D01*
Y567000D01*
X931000D01*
Y575500D01*
D02*
G37*
G36*
X932000Y566000D02*
D01*
D01*
D01*
D02*
G37*
G36*
X351696Y571500D02*
X350304D01*
X349017Y570967D01*
X348033Y569983D01*
X347500Y568696D01*
Y567304D01*
X348033Y566017D01*
X349017Y565033D01*
X350304Y564500D01*
X351696D01*
X352983Y565033D01*
X353967Y566017D01*
X354500Y567304D01*
Y568696D01*
X353967Y569983D01*
X352983Y570967D01*
X351696Y571500D01*
D02*
G37*
G36*
X812696Y570500D02*
X811304D01*
X810017Y569967D01*
X809033Y568983D01*
X808500Y567696D01*
Y566304D01*
X809033Y565017D01*
X810017Y564033D01*
X811304Y563500D01*
X812696D01*
X813983Y564033D01*
X814967Y565017D01*
X815500Y566304D01*
Y567696D01*
X814967Y568983D01*
X813983Y569967D01*
X812696Y570500D01*
D02*
G37*
G36*
X528196Y564500D02*
X526804D01*
X525517Y563967D01*
X524533Y562983D01*
X524000Y561696D01*
Y560304D01*
X524533Y559017D01*
X525517Y558033D01*
X526804Y557500D01*
X528196D01*
X529483Y558033D01*
X530467Y559017D01*
X531000Y560304D01*
Y561696D01*
X530467Y562983D01*
X529483Y563967D01*
X528196Y564500D01*
D02*
G37*
G36*
X941500Y565000D02*
X933000D01*
Y556500D01*
X933251D01*
X935667Y557147D01*
X937833Y558398D01*
X939602Y560167D01*
X940853Y562333D01*
X941500Y564749D01*
Y565000D01*
D02*
G37*
G36*
X931000D02*
X922500D01*
Y564749D01*
X923147Y562333D01*
X924398Y560167D01*
X926167Y558398D01*
X928333Y557147D01*
X930749Y556500D01*
X931000D01*
Y565000D01*
D02*
G37*
G36*
X809696Y562500D02*
X808304D01*
X807017Y561967D01*
X806033Y560983D01*
X805500Y559696D01*
Y558304D01*
X806033Y557017D01*
X807017Y556033D01*
X808304Y555500D01*
X809696D01*
X810983Y556033D01*
X811967Y557017D01*
X812500Y558304D01*
Y559696D01*
X811967Y560983D01*
X810983Y561967D01*
X809696Y562500D01*
D02*
G37*
G36*
X248573Y559225D02*
X247181D01*
X245894Y558692D01*
X244910Y557708D01*
X244377Y556421D01*
Y555029D01*
X244910Y553742D01*
X245894Y552758D01*
X247181Y552225D01*
X248573D01*
X249860Y552758D01*
X250844Y553742D01*
X251377Y555029D01*
Y556421D01*
X250844Y557708D01*
X249860Y558692D01*
X248573Y559225D01*
D02*
G37*
G36*
X773696Y557500D02*
X772304D01*
X771017Y556967D01*
X770033Y555983D01*
X769500Y554696D01*
Y553304D01*
X770033Y552017D01*
X771017Y551033D01*
X772304Y550500D01*
X773696D01*
X774983Y551033D01*
X775967Y552017D01*
X776500Y553304D01*
Y554696D01*
X775967Y555983D01*
X774983Y556967D01*
X773696Y557500D01*
D02*
G37*
G36*
X726196Y555500D02*
X724804D01*
X723517Y554967D01*
X722533Y553983D01*
X722000Y552696D01*
Y551304D01*
X722533Y550017D01*
X723517Y549033D01*
X724804Y548500D01*
X726196D01*
X727483Y549033D01*
X728467Y550017D01*
X729000Y551304D01*
Y552696D01*
X728467Y553983D01*
X727483Y554967D01*
X726196Y555500D01*
D02*
G37*
G36*
X595696Y554500D02*
X594304D01*
X593017Y553967D01*
X592033Y552983D01*
X591500Y551696D01*
Y550304D01*
X592033Y549017D01*
X593017Y548033D01*
X594304Y547500D01*
X595696D01*
X596983Y548033D01*
X597967Y549017D01*
X598500Y550304D01*
Y551696D01*
X597967Y552983D01*
X596983Y553967D01*
X595696Y554500D01*
D02*
G37*
G36*
X814696Y550500D02*
X813304D01*
X812017Y549967D01*
X811033Y548983D01*
X810500Y547696D01*
Y546304D01*
X811033Y545017D01*
X812017Y544033D01*
X813304Y543500D01*
X814696D01*
X815983Y544033D01*
X816967Y545017D01*
X817500Y546304D01*
Y547696D01*
X816967Y548983D01*
X815983Y549967D01*
X814696Y550500D01*
D02*
G37*
G36*
X412696D02*
X411304D01*
X410017Y549967D01*
X409033Y548983D01*
X408500Y547696D01*
Y546304D01*
X409033Y545017D01*
X410017Y544033D01*
X411304Y543500D01*
X412696D01*
X413983Y544033D01*
X414967Y545017D01*
X415500Y546304D01*
Y547696D01*
X414967Y548983D01*
X413983Y549967D01*
X412696Y550500D01*
D02*
G37*
G36*
X717696Y549500D02*
X716304D01*
X715017Y548967D01*
X714033Y547983D01*
X713500Y546696D01*
Y545304D01*
X714033Y544017D01*
X715017Y543033D01*
X716304Y542500D01*
X717696D01*
X718983Y543033D01*
X719967Y544017D01*
X720500Y545304D01*
Y546696D01*
X719967Y547983D01*
X718983Y548967D01*
X717696Y549500D01*
D02*
G37*
G36*
X587696D02*
X586304D01*
X585017Y548967D01*
X584033Y547983D01*
X583500Y546696D01*
Y545304D01*
X584033Y544017D01*
X585017Y543033D01*
X586304Y542500D01*
X587696D01*
X588983Y543033D01*
X589967Y544017D01*
X590500Y545304D01*
Y546696D01*
X589967Y547983D01*
X588983Y548967D01*
X587696Y549500D01*
D02*
G37*
G36*
X850696Y548500D02*
X849304D01*
X848017Y547967D01*
X847033Y546983D01*
X846500Y545696D01*
Y544304D01*
X847033Y543017D01*
X848017Y542033D01*
X849304Y541500D01*
X850696D01*
X851983Y542033D01*
X852967Y543017D01*
X853500Y544304D01*
Y545696D01*
X852967Y546983D01*
X851983Y547967D01*
X850696Y548500D01*
D02*
G37*
G36*
X840696D02*
X839304D01*
X838017Y547967D01*
X837033Y546983D01*
X836500Y545696D01*
Y544304D01*
X837033Y543017D01*
X838017Y542033D01*
X839304Y541500D01*
X840696D01*
X841983Y542033D01*
X842967Y543017D01*
X843500Y544304D01*
Y545696D01*
X842967Y546983D01*
X841983Y547967D01*
X840696Y548500D01*
D02*
G37*
G36*
X508796Y548000D02*
X507204D01*
X505734Y547391D01*
X504609Y546266D01*
X504000Y544796D01*
Y543204D01*
X504609Y541734D01*
X505734Y540609D01*
X507204Y540000D01*
X508796D01*
X510266Y540609D01*
X511391Y541734D01*
X512000Y543204D01*
Y544796D01*
X511391Y546266D01*
X510266Y547391D01*
X508796Y548000D01*
D02*
G37*
G36*
X932987Y553500D02*
X931013D01*
X929105Y552989D01*
X927395Y552001D01*
X925999Y550605D01*
X925011Y548895D01*
X924500Y546987D01*
Y545013D01*
X925011Y543105D01*
X925999Y541395D01*
X927395Y539999D01*
X929105Y539011D01*
X931013Y538500D01*
X932987D01*
X934895Y539011D01*
X936605Y539999D01*
X938001Y541395D01*
X938989Y543105D01*
X939500Y545013D01*
Y546987D01*
X938989Y548895D01*
X938001Y550605D01*
X936605Y552001D01*
X934895Y552989D01*
X932987Y553500D01*
D02*
G37*
G36*
X575696Y544500D02*
X574304D01*
X573017Y543967D01*
X572033Y542983D01*
X571500Y541696D01*
Y540304D01*
X572033Y539017D01*
X573017Y538033D01*
X574304Y537500D01*
X575696D01*
X576983Y538033D01*
X577967Y539017D01*
X578500Y540304D01*
Y541696D01*
X577967Y542983D01*
X576983Y543967D01*
X575696Y544500D01*
D02*
G37*
G36*
X727196Y542500D02*
X725804D01*
X724517Y541967D01*
X723533Y540983D01*
X723000Y539696D01*
Y538304D01*
X723533Y537017D01*
X724517Y536033D01*
X725804Y535500D01*
X727196D01*
X728483Y536033D01*
X729467Y537017D01*
X730000Y538304D01*
Y539696D01*
X729467Y540983D01*
X728483Y541967D01*
X727196Y542500D01*
D02*
G37*
G36*
X845696Y540500D02*
X844304D01*
X843017Y539967D01*
X842033Y538983D01*
X841500Y537696D01*
Y536304D01*
X842033Y535017D01*
X843017Y534033D01*
X844304Y533500D01*
X845696D01*
X846983Y534033D01*
X847967Y535017D01*
X848500Y536304D01*
Y537696D01*
X847967Y538983D01*
X846983Y539967D01*
X845696Y540500D01*
D02*
G37*
G36*
X835696D02*
X834304D01*
X833017Y539967D01*
X832033Y538983D01*
X831500Y537696D01*
Y536304D01*
X832033Y535017D01*
X833017Y534033D01*
X834304Y533500D01*
X835696D01*
X836983Y534033D01*
X837967Y535017D01*
X838500Y536304D01*
Y537696D01*
X837967Y538983D01*
X836983Y539967D01*
X835696Y540500D01*
D02*
G37*
G36*
X566696D02*
X565304D01*
X564017Y539967D01*
X563033Y538983D01*
X562500Y537696D01*
Y536304D01*
X563033Y535017D01*
X564017Y534033D01*
X565304Y533500D01*
X566696D01*
X567983Y534033D01*
X568967Y535017D01*
X569500Y536304D01*
Y537696D01*
X568967Y538983D01*
X567983Y539967D01*
X566696Y540500D01*
D02*
G37*
G36*
X301696Y537500D02*
X300304D01*
X299017Y536967D01*
X298033Y535983D01*
X297500Y534696D01*
Y533304D01*
X298033Y532017D01*
X299017Y531033D01*
X300304Y530500D01*
X301696D01*
X302983Y531033D01*
X303967Y532017D01*
X304500Y533304D01*
Y534696D01*
X303967Y535983D01*
X302983Y536967D01*
X301696Y537500D01*
D02*
G37*
G36*
X422696Y534500D02*
X421304D01*
X420017Y533967D01*
X419033Y532983D01*
X418500Y531696D01*
Y530304D01*
X419033Y529017D01*
X420017Y528033D01*
X421304Y527500D01*
X422696D01*
X423983Y528033D01*
X424967Y529017D01*
X425500Y530304D01*
Y531696D01*
X424967Y532983D01*
X423983Y533967D01*
X422696Y534500D01*
D02*
G37*
G36*
X766696Y533500D02*
X765304D01*
X764017Y532967D01*
X763033Y531983D01*
X762500Y530696D01*
Y529304D01*
X763033Y528017D01*
X764017Y527033D01*
X765304Y526500D01*
X766696D01*
X767983Y527033D01*
X768967Y528017D01*
X769500Y529304D01*
Y530696D01*
X768967Y531983D01*
X767983Y532967D01*
X766696Y533500D01*
D02*
G37*
G36*
X729196Y529500D02*
X727804D01*
X726517Y528967D01*
X725533Y527983D01*
X725000Y526696D01*
Y525304D01*
X725533Y524017D01*
X726517Y523033D01*
X727804Y522500D01*
X729196D01*
X730483Y523033D01*
X731467Y524017D01*
X732000Y525304D01*
Y526696D01*
X731467Y527983D01*
X730483Y528967D01*
X729196Y529500D01*
D02*
G37*
G36*
X709196D02*
X707804D01*
X706517Y528967D01*
X705533Y527983D01*
X705000Y526696D01*
Y525304D01*
X705533Y524017D01*
X706517Y523033D01*
X707804Y522500D01*
X709196D01*
X710483Y523033D01*
X711467Y524017D01*
X712000Y525304D01*
Y526696D01*
X711467Y527983D01*
X710483Y528967D01*
X709196Y529500D01*
D02*
G37*
G36*
X932987Y533500D02*
X931013D01*
X929105Y532989D01*
X927395Y532001D01*
X925999Y530605D01*
X925011Y528895D01*
X924500Y526987D01*
Y525013D01*
X925011Y523105D01*
X925999Y521395D01*
X927395Y519999D01*
X929105Y519011D01*
X931013Y518500D01*
X932987D01*
X934895Y519011D01*
X936605Y519999D01*
X938001Y521395D01*
X938989Y523105D01*
X939500Y525013D01*
Y526987D01*
X938989Y528895D01*
X938001Y530605D01*
X936605Y532001D01*
X934895Y532989D01*
X932987Y533500D01*
D02*
G37*
G36*
X905696Y523500D02*
X904304D01*
X903017Y522967D01*
X902033Y521983D01*
X901500Y520696D01*
Y519304D01*
X902033Y518017D01*
X903017Y517033D01*
X904304Y516500D01*
X905696D01*
X906983Y517033D01*
X907967Y518017D01*
X908500Y519304D01*
Y520696D01*
X907967Y521983D01*
X906983Y522967D01*
X905696Y523500D01*
D02*
G37*
G36*
X717696D02*
X716304D01*
X715017Y522967D01*
X714033Y521983D01*
X713500Y520696D01*
Y519304D01*
X714033Y518017D01*
X715017Y517033D01*
X716304Y516500D01*
X717696D01*
X718983Y517033D01*
X719967Y518017D01*
X720500Y519304D01*
Y520696D01*
X719967Y521983D01*
X718983Y522967D01*
X717696Y523500D01*
D02*
G37*
G36*
X561196Y523000D02*
X559804D01*
X558517Y522467D01*
X557533Y521483D01*
X557000Y520196D01*
Y518804D01*
X557533Y517517D01*
X558517Y516533D01*
X559804Y516000D01*
X561196D01*
X562483Y516533D01*
X563467Y517517D01*
X564000Y518804D01*
Y520196D01*
X563467Y521483D01*
X562483Y522467D01*
X561196Y523000D01*
D02*
G37*
G36*
X664696Y522500D02*
X663304D01*
X662017Y521967D01*
X661033Y520983D01*
X660500Y519696D01*
Y518304D01*
X661033Y517017D01*
X662017Y516033D01*
X663304Y515500D01*
X664696D01*
X665983Y516033D01*
X666967Y517017D01*
X667500Y518304D01*
Y519696D01*
X666967Y520983D01*
X665983Y521967D01*
X664696Y522500D01*
D02*
G37*
G36*
X687696Y518500D02*
X686304D01*
X685017Y517967D01*
X684033Y516983D01*
X683615Y515975D01*
X683425Y515672D01*
X682230Y515279D01*
X681696Y515500D01*
X680304D01*
X679017Y514967D01*
X678033Y513983D01*
X677500Y512696D01*
Y511304D01*
X678033Y510017D01*
X679017Y509033D01*
X680304Y508500D01*
X681696D01*
X682983Y509033D01*
X683967Y510017D01*
X684385Y511025D01*
X684575Y511329D01*
X685770Y511721D01*
X686304Y511500D01*
X687696D01*
X688983Y512033D01*
X689967Y513017D01*
X690500Y514304D01*
Y515696D01*
X689967Y516983D01*
X688983Y517967D01*
X687696Y518500D01*
D02*
G37*
G36*
X725196Y516500D02*
X723804D01*
X722517Y515967D01*
X721533Y514983D01*
X721000Y513696D01*
Y512304D01*
X721533Y511017D01*
X722517Y510033D01*
X723804Y509500D01*
X725196D01*
X726483Y510033D01*
X727467Y511017D01*
X728000Y512304D01*
Y513696D01*
X727467Y514983D01*
X726483Y515967D01*
X725196Y516500D01*
D02*
G37*
G36*
X565196Y515500D02*
X563804D01*
X562517Y514967D01*
X561533Y513983D01*
X561000Y512696D01*
Y511304D01*
X561533Y510017D01*
X562517Y509033D01*
X563804Y508500D01*
X565196D01*
X566483Y509033D01*
X567467Y510017D01*
X568000Y511304D01*
Y512696D01*
X567467Y513983D01*
X566483Y514967D01*
X565196Y515500D01*
D02*
G37*
G36*
X804696Y515500D02*
X803304D01*
X802017Y514967D01*
X801033Y513983D01*
X800500Y512696D01*
Y511304D01*
X801033Y510017D01*
X802017Y509033D01*
X803304Y508500D01*
X804696D01*
X805983Y509033D01*
X806967Y510017D01*
X807500Y511304D01*
Y512696D01*
X806967Y513983D01*
X805983Y514967D01*
X804696Y515500D01*
D02*
G37*
G36*
X866196Y514000D02*
X864804D01*
X863517Y513467D01*
X862533Y512483D01*
X862000Y511196D01*
Y509804D01*
X862533Y508517D01*
X863517Y507533D01*
X864804Y507000D01*
X866196D01*
X867483Y507533D01*
X868467Y508517D01*
X869000Y509804D01*
Y511196D01*
X868467Y512483D01*
X867483Y513467D01*
X866196Y514000D01*
D02*
G37*
G36*
X915696Y513500D02*
X914304D01*
X913017Y512967D01*
X912033Y511983D01*
X911500Y510696D01*
Y509304D01*
X912033Y508017D01*
X913017Y507033D01*
X914304Y506500D01*
X915696D01*
X916983Y507033D01*
X917967Y508017D01*
X918500Y509304D01*
Y510696D01*
X917967Y511983D01*
X916983Y512967D01*
X915696Y513500D01*
D02*
G37*
G36*
X470196D02*
X468804D01*
X467517Y512967D01*
X466533Y511983D01*
X466000Y510696D01*
Y509304D01*
X466533Y508017D01*
X467517Y507033D01*
X468804Y506500D01*
X470196D01*
X471483Y507033D01*
X472467Y508017D01*
X473000Y509304D01*
Y510696D01*
X472467Y511983D01*
X471483Y512967D01*
X470196Y513500D01*
D02*
G37*
G36*
X351696Y512500D02*
X350304D01*
X349017Y511967D01*
X348033Y510983D01*
X347500Y509696D01*
Y508304D01*
X348033Y507017D01*
X349017Y506033D01*
X350304Y505500D01*
X351696D01*
X352983Y506033D01*
X353967Y507017D01*
X354500Y508304D01*
Y509696D01*
X353967Y510983D01*
X352983Y511967D01*
X351696Y512500D01*
D02*
G37*
G36*
X339696D02*
X338304D01*
X337017Y511967D01*
X336033Y510983D01*
X335500Y509696D01*
Y508304D01*
X336033Y507017D01*
X337017Y506033D01*
X338304Y505500D01*
X339696D01*
X340983Y506033D01*
X341967Y507017D01*
X342500Y508304D01*
Y509696D01*
X341967Y510983D01*
X340983Y511967D01*
X339696Y512500D01*
D02*
G37*
G36*
X797696Y508500D02*
X796304D01*
X795017Y507967D01*
X794033Y506983D01*
X793500Y505696D01*
Y504304D01*
X794033Y503017D01*
X795017Y502033D01*
X796304Y501500D01*
X797696D01*
X798983Y502033D01*
X799967Y503017D01*
X800500Y504304D01*
Y505696D01*
X799967Y506983D01*
X798983Y507967D01*
X797696Y508500D01*
D02*
G37*
G36*
X721696Y506500D02*
X720304D01*
X719017Y505967D01*
X718033Y504983D01*
X717500Y503696D01*
Y502304D01*
X718033Y501017D01*
X719017Y500033D01*
X720304Y499500D01*
X721696D01*
X722983Y500033D01*
X723967Y501017D01*
X724500Y502304D01*
Y503696D01*
X723967Y504983D01*
X722983Y505967D01*
X721696Y506500D01*
D02*
G37*
G36*
X411696Y503500D02*
X410304D01*
X409017Y502967D01*
X408033Y501983D01*
X407500Y500696D01*
Y499304D01*
X408033Y498017D01*
X409017Y497033D01*
X410304Y496500D01*
X411696D01*
X412983Y497033D01*
X413967Y498017D01*
X414500Y499304D01*
Y500696D01*
X413967Y501983D01*
X412983Y502967D01*
X411696Y503500D01*
D02*
G37*
G36*
X496296Y504000D02*
X494704D01*
X493234Y503391D01*
X492109Y502266D01*
X491500Y500796D01*
Y499204D01*
X492109Y497734D01*
X493234Y496609D01*
X494704Y496000D01*
X496296D01*
X497766Y496609D01*
X498891Y497734D01*
X499500Y499204D01*
Y500796D01*
X498891Y502266D01*
X497766Y503391D01*
X496296Y504000D01*
D02*
G37*
G36*
X380696Y502500D02*
X379304D01*
X378017Y501967D01*
X377033Y500983D01*
X376500Y499696D01*
Y498304D01*
X377033Y497017D01*
X378017Y496033D01*
X379304Y495500D01*
X380696D01*
X381983Y496033D01*
X382967Y497017D01*
X383500Y498304D01*
Y499696D01*
X382967Y500983D01*
X381983Y501967D01*
X380696Y502500D01*
D02*
G37*
G36*
X804696Y501500D02*
X803304D01*
X802017Y500967D01*
X801033Y499983D01*
X800500Y498696D01*
Y497304D01*
X801033Y496017D01*
X802017Y495033D01*
X803304Y494500D01*
X804696D01*
X805983Y495033D01*
X806967Y496017D01*
X807500Y497304D01*
Y498696D01*
X806967Y499983D01*
X805983Y500967D01*
X804696Y501500D01*
D02*
G37*
G36*
X813196Y501000D02*
X811804D01*
X810517Y500467D01*
X809533Y499483D01*
X809000Y498196D01*
Y496804D01*
X809533Y495517D01*
X810517Y494533D01*
X811804Y494000D01*
X813196D01*
X814483Y494533D01*
X815467Y495517D01*
X816000Y496804D01*
Y498196D01*
X815467Y499483D01*
X814483Y500467D01*
X813196Y501000D01*
D02*
G37*
G36*
X759894Y501500D02*
X758302D01*
X756832Y500891D01*
X755707Y499766D01*
X755098Y498296D01*
Y496704D01*
X755707Y495234D01*
X756832Y494109D01*
X758302Y493500D01*
X759894D01*
X761364Y494109D01*
X762489Y495234D01*
X763098Y496704D01*
Y498296D01*
X762489Y499766D01*
X761364Y500891D01*
X759894Y501500D01*
D02*
G37*
G36*
X731196Y504500D02*
X729804D01*
X728517Y503967D01*
X727533Y502983D01*
X727000Y501696D01*
Y500304D01*
X727533Y499017D01*
X728299Y498251D01*
X728427Y497500D01*
X728299Y496749D01*
X727533Y495983D01*
X727000Y494696D01*
Y493304D01*
X727533Y492017D01*
X728517Y491033D01*
X729804Y490500D01*
X731196D01*
X732483Y491033D01*
X733467Y492017D01*
X734000Y493304D01*
Y494696D01*
X733467Y495983D01*
X732701Y496749D01*
X732573Y497500D01*
X732701Y498251D01*
X733467Y499017D01*
X734000Y500304D01*
Y501696D01*
X733467Y502983D01*
X732483Y503967D01*
X731196Y504500D01*
D02*
G37*
G36*
X418696Y495500D02*
X417304D01*
X416017Y494967D01*
X415033Y493983D01*
X414500Y492696D01*
Y491304D01*
X415033Y490017D01*
X416017Y489033D01*
X417304Y488500D01*
X418696D01*
X419983Y489033D01*
X420967Y490017D01*
X421500Y491304D01*
Y492696D01*
X420967Y493983D01*
X419983Y494967D01*
X418696Y495500D01*
D02*
G37*
G36*
X805696Y491000D02*
X804304D01*
X803017Y490467D01*
X802033Y489483D01*
X801500Y488196D01*
Y486804D01*
X802033Y485517D01*
X803017Y484533D01*
X804304Y484000D01*
X805696D01*
X806983Y484533D01*
X807967Y485517D01*
X808500Y486804D01*
Y488196D01*
X807967Y489483D01*
X806983Y490467D01*
X805696Y491000D01*
D02*
G37*
G36*
X351696Y485500D02*
X350304D01*
X349017Y484967D01*
X348033Y483983D01*
X347500Y482696D01*
Y481304D01*
X348033Y480017D01*
X349017Y479033D01*
X350304Y478500D01*
X351696D01*
X352983Y479033D01*
X353967Y480017D01*
X354500Y481304D01*
Y482696D01*
X353967Y483983D01*
X352983Y484967D01*
X351696Y485500D01*
D02*
G37*
G36*
X764296Y483000D02*
X762704D01*
X761234Y482391D01*
X760109Y481266D01*
X759500Y479796D01*
Y478204D01*
X760109Y476734D01*
X761234Y475609D01*
X762704Y475000D01*
X764296D01*
X765766Y475609D01*
X766891Y476734D01*
X767500Y478204D01*
Y479796D01*
X766891Y481266D01*
X765766Y482391D01*
X764296Y483000D01*
D02*
G37*
G36*
X719196Y483500D02*
X717804D01*
X716517Y482967D01*
X715533Y481983D01*
X715000Y480696D01*
Y479542D01*
X714546Y478954D01*
X713958Y478500D01*
X712804D01*
X711517Y477967D01*
X710533Y476983D01*
X710000Y475696D01*
Y474304D01*
X710533Y473017D01*
X711517Y472033D01*
X712804Y471500D01*
X714196D01*
X715483Y472033D01*
X716467Y473017D01*
X717000Y474304D01*
Y475458D01*
X717454Y476046D01*
X718042Y476500D01*
X719196D01*
X720483Y477033D01*
X721467Y478017D01*
X722000Y479304D01*
Y480696D01*
X721467Y481983D01*
X720483Y482967D01*
X719196Y483500D01*
D02*
G37*
G36*
X239796Y473000D02*
X238204D01*
X236734Y472391D01*
X235720Y471377D01*
X235000Y471317D01*
X234280Y471377D01*
X233266Y472391D01*
X231796Y473000D01*
X230204D01*
X228734Y472391D01*
X227609Y471266D01*
X227000Y469796D01*
Y468204D01*
X227609Y466734D01*
X228734Y465609D01*
X230204Y465000D01*
X231435D01*
X232037Y463920D01*
X232057Y463827D01*
X231609Y463378D01*
X231000Y461908D01*
Y460317D01*
X231609Y458847D01*
X232734Y457721D01*
X234204Y457112D01*
X235796D01*
X237266Y457721D01*
X238391Y458847D01*
X239000Y460317D01*
Y461908D01*
X238391Y463378D01*
X237943Y463827D01*
X237964Y463920D01*
X238565Y465000D01*
X239796D01*
X241266Y465609D01*
X242391Y466734D01*
X243000Y468204D01*
Y469796D01*
X242391Y471266D01*
X241266Y472391D01*
X239796Y473000D01*
D02*
G37*
G36*
X800696Y475500D02*
X799304D01*
X798017Y474967D01*
X797033Y473983D01*
X796500Y472696D01*
Y471304D01*
X797033Y470017D01*
X797298Y469752D01*
X796578Y468676D01*
X795796Y469000D01*
X794204D01*
X792734Y468391D01*
X791609Y467266D01*
X791000Y465796D01*
Y464204D01*
X791609Y462734D01*
X792734Y461609D01*
X794204Y461000D01*
X794254D01*
X794780Y459730D01*
X794533Y459483D01*
X794000Y458196D01*
Y456804D01*
X794533Y455517D01*
X795517Y454533D01*
X796804Y454000D01*
X798196D01*
X799483Y454533D01*
X800467Y455517D01*
X801000Y456804D01*
Y458196D01*
X800467Y459483D01*
X799483Y460467D01*
X798378Y460925D01*
X798057Y461656D01*
X797927Y462270D01*
X798391Y462734D01*
X799000Y464204D01*
Y465796D01*
X798391Y467266D01*
X797985Y467672D01*
X798705Y468748D01*
X799304Y468500D01*
X800696D01*
X801983Y469033D01*
X802967Y470017D01*
X803500Y471304D01*
Y472696D01*
X802967Y473983D01*
X801983Y474967D01*
X800696Y475500D01*
D02*
G37*
G36*
X386696Y472500D02*
X385304D01*
X384017Y471967D01*
X383033Y470983D01*
X382500Y469696D01*
Y468304D01*
X383033Y467017D01*
X384017Y466033D01*
X385304Y465500D01*
X386696D01*
X387983Y466033D01*
X388967Y467017D01*
X389500Y468304D01*
Y469696D01*
X388967Y470983D01*
X387983Y471967D01*
X386696Y472500D01*
D02*
G37*
G36*
X416696Y476500D02*
X415304D01*
X414017Y475967D01*
X413033Y474983D01*
X412500Y473696D01*
Y472304D01*
X413033Y471017D01*
X414017Y470033D01*
X415304Y469500D01*
X416458D01*
X417046Y469046D01*
X417500Y468458D01*
Y467304D01*
X418033Y466017D01*
X419017Y465033D01*
X420304Y464500D01*
X421696D01*
X422983Y465033D01*
X423967Y466017D01*
X424500Y467304D01*
Y468696D01*
X423967Y469983D01*
X422983Y470967D01*
X421696Y471500D01*
X420542D01*
X419954Y471954D01*
X419500Y472542D01*
Y473696D01*
X418967Y474983D01*
X417983Y475967D01*
X416696Y476500D01*
D02*
G37*
G36*
X504796Y472000D02*
X503204D01*
X501734Y471391D01*
X500609Y470266D01*
X500000Y468796D01*
Y467204D01*
X500609Y465734D01*
X501734Y464609D01*
X503204Y464000D01*
X504796D01*
X506266Y464609D01*
X507391Y465734D01*
X508000Y467204D01*
Y468796D01*
X507391Y470266D01*
X506266Y471391D01*
X504796Y472000D01*
D02*
G37*
G36*
X406796Y471000D02*
X405204D01*
X403734Y470391D01*
X402609Y469266D01*
X402000Y467796D01*
Y466204D01*
X402609Y464734D01*
X403734Y463609D01*
X405204Y463000D01*
X406796D01*
X408266Y463609D01*
X409391Y464734D01*
X410000Y466204D01*
Y467796D01*
X409391Y469266D01*
X408266Y470391D01*
X406796Y471000D01*
D02*
G37*
G36*
X693196Y466500D02*
X691804D01*
X690517Y465967D01*
X689533Y464983D01*
X689000Y463696D01*
Y462304D01*
X689533Y461017D01*
X690517Y460033D01*
X691804Y459500D01*
X693196D01*
X694483Y460033D01*
X695467Y461017D01*
X696000Y462304D01*
Y463696D01*
X695467Y464983D01*
X694483Y465967D01*
X693196Y466500D01*
D02*
G37*
G36*
X485696Y463500D02*
X484304D01*
X483017Y462967D01*
X482033Y461983D01*
X481500Y460696D01*
Y459304D01*
X482033Y458017D01*
X483017Y457033D01*
X484304Y456500D01*
X485696D01*
X486983Y457033D01*
X487967Y458017D01*
X488500Y459304D01*
Y460696D01*
X487967Y461983D01*
X486983Y462967D01*
X485696Y463500D01*
D02*
G37*
G36*
X901796Y462000D02*
X900204D01*
X898734Y461391D01*
X897609Y460266D01*
X897000Y458796D01*
Y457204D01*
X897609Y455734D01*
X898734Y454609D01*
X900204Y454000D01*
X901796D01*
X903266Y454609D01*
X904391Y455734D01*
X905000Y457204D01*
Y458796D01*
X904391Y460266D01*
X903266Y461391D01*
X901796Y462000D01*
D02*
G37*
G36*
X757745Y461500D02*
X755755D01*
X753918Y460739D01*
X752511Y459332D01*
X751750Y457495D01*
Y455505D01*
X752511Y453668D01*
X753918Y452261D01*
X755755Y451500D01*
X757745D01*
X759582Y452261D01*
X760989Y453668D01*
X761750Y455505D01*
Y457495D01*
X760989Y459332D01*
X759582Y460739D01*
X757745Y461500D01*
D02*
G37*
G36*
X898196Y448500D02*
X896804D01*
X895517Y447967D01*
X894533Y446983D01*
X894000Y445696D01*
Y444304D01*
X894533Y443017D01*
X895517Y442033D01*
X896804Y441500D01*
X898196D01*
X899483Y442033D01*
X900467Y443017D01*
X901000Y444304D01*
Y445696D01*
X900467Y446983D01*
X899483Y447967D01*
X898196Y448500D01*
D02*
G37*
G36*
X340696Y446000D02*
X339304D01*
X338017Y445467D01*
X337033Y444483D01*
X336500Y443196D01*
Y441804D01*
X337033Y440517D01*
X338017Y439533D01*
X339304Y439000D01*
X340696D01*
X341983Y439533D01*
X342967Y440517D01*
X343500Y441804D01*
Y443196D01*
X342967Y444483D01*
X341983Y445467D01*
X340696Y446000D01*
D02*
G37*
G36*
X540696Y445500D02*
X539304D01*
X538017Y444967D01*
X537033Y443983D01*
X536500Y442696D01*
Y441304D01*
X537033Y440017D01*
X538017Y439033D01*
X539304Y438500D01*
X539917D01*
X540854Y437891D01*
X541000Y437327D01*
Y436204D01*
X541609Y434734D01*
X542734Y433609D01*
X544204Y433000D01*
X545796D01*
X547266Y433609D01*
X548391Y434734D01*
X549000Y436204D01*
Y437796D01*
X548391Y439266D01*
X547266Y440391D01*
X545796Y441000D01*
X544673D01*
X544109Y441146D01*
X543500Y442083D01*
Y442696D01*
X542967Y443983D01*
X541983Y444967D01*
X540696Y445500D01*
D02*
G37*
G36*
X500296Y440000D02*
X498704D01*
X497234Y439391D01*
X496109Y438266D01*
X495500Y436796D01*
Y435204D01*
X496109Y433734D01*
X497234Y432609D01*
X498704Y432000D01*
X500296D01*
X501766Y432609D01*
X502891Y433734D01*
X503500Y435204D01*
Y436796D01*
X502891Y438266D01*
X501766Y439391D01*
X500296Y440000D01*
D02*
G37*
G36*
X298696Y436500D02*
X297304D01*
X296017Y435967D01*
X295033Y434983D01*
X294500Y433696D01*
Y432304D01*
X295033Y431017D01*
X296017Y430033D01*
X297304Y429500D01*
X298696D01*
X299983Y430033D01*
X300967Y431017D01*
X301500Y432304D01*
Y433696D01*
X300967Y434983D01*
X299983Y435967D01*
X298696Y436500D01*
D02*
G37*
G36*
X898196Y436000D02*
X896804D01*
X895517Y435467D01*
X894533Y434483D01*
X894000Y433196D01*
Y431804D01*
X894533Y430517D01*
X895517Y429533D01*
X896804Y429000D01*
X898196D01*
X899483Y429533D01*
X900467Y430517D01*
X901000Y431804D01*
Y433196D01*
X900467Y434483D01*
X899483Y435467D01*
X898196Y436000D01*
D02*
G37*
G36*
X491796Y431000D02*
X490204D01*
X488734Y430391D01*
X487609Y429266D01*
X487000Y427796D01*
Y426204D01*
X487609Y424734D01*
X488734Y423609D01*
X490204Y423000D01*
X491796D01*
X493266Y423609D01*
X494391Y424734D01*
X495000Y426204D01*
Y427796D01*
X494391Y429266D01*
X493266Y430391D01*
X491796Y431000D01*
D02*
G37*
G36*
X721196Y427500D02*
X719804D01*
X718517Y426967D01*
X717533Y425983D01*
X717000Y424696D01*
Y423304D01*
X717533Y422017D01*
X718517Y421033D01*
X719804Y420500D01*
X721196D01*
X722483Y421033D01*
X723467Y422017D01*
X724000Y423304D01*
Y424696D01*
X723467Y425983D01*
X722483Y426967D01*
X721196Y427500D01*
D02*
G37*
G36*
X852696Y425500D02*
X851304D01*
X850017Y424967D01*
X849033Y423983D01*
X848500Y422696D01*
Y421304D01*
X849033Y420017D01*
X850017Y419033D01*
X851304Y418500D01*
X852696D01*
X853983Y419033D01*
X854967Y420017D01*
X855500Y421304D01*
Y422696D01*
X854967Y423983D01*
X853983Y424967D01*
X852696Y425500D01*
D02*
G37*
G36*
X829696D02*
X828304D01*
X827017Y424967D01*
X826033Y423983D01*
X825500Y422696D01*
Y421304D01*
X826033Y420017D01*
X827017Y419033D01*
X828304Y418500D01*
X829696D01*
X830983Y419033D01*
X831967Y420017D01*
X832500Y421304D01*
Y422696D01*
X831967Y423983D01*
X830983Y424967D01*
X829696Y425500D01*
D02*
G37*
G36*
X695696Y429500D02*
X694304D01*
X693017Y428967D01*
X692033Y427983D01*
X691500Y426696D01*
Y425304D01*
X692033Y424017D01*
X692280Y423770D01*
X691804Y422500D01*
X690517Y421967D01*
X689533Y420983D01*
X689000Y419696D01*
Y418304D01*
X689533Y417017D01*
X690517Y416033D01*
X691804Y415500D01*
X693196D01*
X694483Y416033D01*
X695467Y417017D01*
X696000Y418304D01*
Y419696D01*
X695467Y420983D01*
X695220Y421230D01*
X695696Y422500D01*
X696983Y423033D01*
X697967Y424017D01*
X698500Y425304D01*
Y426696D01*
X697967Y427983D01*
X696983Y428967D01*
X695696Y429500D01*
D02*
G37*
G36*
X501796Y419000D02*
X500204D01*
X498734Y418391D01*
X497609Y417266D01*
X497000Y415796D01*
Y414204D01*
X497609Y412734D01*
X498734Y411609D01*
X500204Y411000D01*
X501796D01*
X503266Y411609D01*
X504391Y412734D01*
X505000Y414204D01*
Y415796D01*
X504391Y417266D01*
X503266Y418391D01*
X501796Y419000D01*
D02*
G37*
G36*
X779696Y416500D02*
X778304D01*
X777017Y415967D01*
X776033Y414983D01*
X775500Y413696D01*
Y412304D01*
X776033Y411017D01*
X777017Y410033D01*
X778304Y409500D01*
X779696D01*
X780983Y410033D01*
X781967Y411017D01*
X782500Y412304D01*
Y413696D01*
X781967Y414983D01*
X780983Y415967D01*
X779696Y416500D01*
D02*
G37*
G36*
X687696Y415500D02*
X686304D01*
X685017Y414967D01*
X684033Y413983D01*
X683500Y412696D01*
Y411304D01*
X684033Y410017D01*
X685017Y409033D01*
X686304Y408500D01*
X687696D01*
X688983Y409033D01*
X689967Y410017D01*
X690500Y411304D01*
Y412696D01*
X689967Y413983D01*
X688983Y414967D01*
X687696Y415500D01*
D02*
G37*
G36*
X411696Y414500D02*
X410304D01*
X409017Y413967D01*
X408033Y412983D01*
X407500Y411696D01*
Y410304D01*
X408033Y409017D01*
X409017Y408033D01*
X410304Y407500D01*
X411696D01*
X412983Y408033D01*
X413967Y409017D01*
X414500Y410304D01*
Y411696D01*
X413967Y412983D01*
X412983Y413967D01*
X411696Y414500D01*
D02*
G37*
G36*
X343196Y413500D02*
X341804D01*
X340517Y412967D01*
X339533Y411983D01*
X339000Y410696D01*
Y409304D01*
X339533Y408017D01*
X340517Y407033D01*
X341804Y406500D01*
X343196D01*
X344483Y407033D01*
X345467Y408017D01*
X346000Y409304D01*
Y410696D01*
X345467Y411983D01*
X344483Y412967D01*
X343196Y413500D01*
D02*
G37*
G36*
X762796Y414000D02*
X761204D01*
X759734Y413391D01*
X758609Y412266D01*
X758000Y410796D01*
Y409204D01*
X758609Y407734D01*
X759734Y406609D01*
X761204Y406000D01*
X762796D01*
X764266Y406609D01*
X765391Y407734D01*
X766000Y409204D01*
Y410796D01*
X765391Y412266D01*
X764266Y413391D01*
X762796Y414000D01*
D02*
G37*
G36*
X806196Y412500D02*
X804804D01*
X803517Y411967D01*
X802533Y410983D01*
X802000Y409696D01*
Y408304D01*
X802533Y407017D01*
X803517Y406033D01*
X804804Y405500D01*
X806196D01*
X807483Y406033D01*
X808467Y407017D01*
X809000Y408304D01*
Y409696D01*
X808467Y410983D01*
X807483Y411967D01*
X806196Y412500D01*
D02*
G37*
G36*
X699696Y409500D02*
X698304D01*
X697017Y408967D01*
X696033Y407983D01*
X695500Y406696D01*
Y405304D01*
X696033Y404017D01*
X697017Y403033D01*
X698304Y402500D01*
X699696D01*
X700983Y403033D01*
X701967Y404017D01*
X702500Y405304D01*
Y406696D01*
X701967Y407983D01*
X700983Y408967D01*
X699696Y409500D01*
D02*
G37*
G36*
X712196Y408500D02*
X710804D01*
X709517Y407967D01*
X708533Y406983D01*
X708000Y405696D01*
Y404304D01*
X708533Y403017D01*
X709517Y402033D01*
X710804Y401500D01*
X712196D01*
X713483Y402033D01*
X714467Y403017D01*
X715000Y404304D01*
Y405696D01*
X714467Y406983D01*
X713483Y407967D01*
X712196Y408500D01*
D02*
G37*
G36*
X727196Y407500D02*
X725804D01*
X724517Y406967D01*
X723533Y405983D01*
X723000Y404696D01*
Y403304D01*
X723533Y402017D01*
X724517Y401033D01*
X725804Y400500D01*
X727196D01*
X728483Y401033D01*
X729467Y402017D01*
X730000Y403304D01*
Y404696D01*
X729467Y405983D01*
X728483Y406967D01*
X727196Y407500D01*
D02*
G37*
G36*
X756796Y404000D02*
X755204D01*
X753734Y403391D01*
X752609Y402266D01*
X752000Y400796D01*
Y399204D01*
X752609Y397734D01*
X753734Y396609D01*
X755204Y396000D01*
X756796D01*
X758266Y396609D01*
X759391Y397734D01*
X760000Y399204D01*
Y400796D01*
X759391Y402266D01*
X758266Y403391D01*
X756796Y404000D01*
D02*
G37*
G36*
X488696Y395500D02*
X487304D01*
X486017Y394967D01*
X485033Y393983D01*
X484500Y392696D01*
Y391304D01*
X485033Y390017D01*
X486017Y389033D01*
X487304Y388500D01*
X488696D01*
X489983Y389033D01*
X490967Y390017D01*
X491500Y391304D01*
Y392696D01*
X490967Y393983D01*
X489983Y394967D01*
X488696Y395500D01*
D02*
G37*
G36*
X791696Y392500D02*
X790304D01*
X789017Y391967D01*
X788033Y390983D01*
X787500Y389696D01*
Y388304D01*
X788033Y387017D01*
X789017Y386033D01*
X790304Y385500D01*
X791696D01*
X792983Y386033D01*
X793967Y387017D01*
X794500Y388304D01*
Y389696D01*
X793967Y390983D01*
X792983Y391967D01*
X791696Y392500D01*
D02*
G37*
G36*
X681196Y388000D02*
X679804D01*
X678517Y387467D01*
X677533Y386483D01*
X677000Y385196D01*
Y384609D01*
X676842Y384514D01*
X675730Y384220D01*
X674983Y384967D01*
X673696Y385500D01*
X672304D01*
X671017Y384967D01*
X670033Y383983D01*
X669500Y382696D01*
Y381304D01*
X670033Y380017D01*
X671017Y379033D01*
X672304Y378500D01*
X673696D01*
X674983Y379033D01*
X675967Y380017D01*
X676500Y381304D01*
Y381891D01*
X676658Y381987D01*
X677770Y382280D01*
X678517Y381533D01*
X679804Y381000D01*
X681196D01*
X682483Y381533D01*
X683467Y382517D01*
X684000Y383804D01*
Y385196D01*
X683467Y386483D01*
X682483Y387467D01*
X681196Y388000D01*
D02*
G37*
G36*
X657696Y390500D02*
X656304D01*
X655017Y389967D01*
X654033Y388983D01*
X653500Y387696D01*
Y386304D01*
X654033Y385017D01*
X655017Y384033D01*
X656304Y383500D01*
X657696D01*
X658983Y384033D01*
X659967Y385017D01*
X660500Y386304D01*
Y387696D01*
X659967Y388983D01*
X658983Y389967D01*
X657696Y390500D01*
D02*
G37*
G36*
X611696Y383500D02*
X610304D01*
X609017Y382967D01*
X608033Y381983D01*
X607673Y381115D01*
X606327D01*
X605967Y381983D01*
X604983Y382967D01*
X603696Y383500D01*
X602304D01*
X601017Y382967D01*
X600033Y381983D01*
X599500Y380696D01*
Y379304D01*
X600033Y378017D01*
X601017Y377033D01*
X602304Y376500D01*
X603696D01*
X604983Y377033D01*
X605967Y378017D01*
X606327Y378885D01*
X607673D01*
X608033Y378017D01*
X609017Y377033D01*
X610304Y376500D01*
X611696D01*
X612983Y377033D01*
X613967Y378017D01*
X614500Y379304D01*
Y380696D01*
X613967Y381983D01*
X612983Y382967D01*
X611696Y383500D01*
D02*
G37*
G36*
X823696Y386500D02*
X822304D01*
X821017Y385967D01*
X820033Y384983D01*
X819500Y383696D01*
Y382304D01*
X820033Y381017D01*
X821017Y380033D01*
X822304Y379500D01*
X823696D01*
X824983Y380033D01*
X825967Y381017D01*
X826500Y382304D01*
Y383696D01*
X825967Y384983D01*
X824983Y385967D01*
X823696Y386500D01*
D02*
G37*
G36*
X698196D02*
X696804D01*
X695517Y385967D01*
X694533Y384983D01*
X694000Y383696D01*
Y382304D01*
X694533Y381017D01*
X695517Y380033D01*
X696804Y379500D01*
X698196D01*
X699483Y380033D01*
X700467Y381017D01*
X701000Y382304D01*
Y383696D01*
X700467Y384983D01*
X699483Y385967D01*
X698196Y386500D01*
D02*
G37*
G36*
X689696Y380500D02*
X688304D01*
X687017Y379967D01*
X686033Y378983D01*
X685500Y377696D01*
Y376304D01*
X686033Y375017D01*
X687017Y374033D01*
X688304Y373500D01*
X689696D01*
X690983Y374033D01*
X691967Y375017D01*
X692500Y376304D01*
Y377696D01*
X691967Y378983D01*
X690983Y379967D01*
X689696Y380500D01*
D02*
G37*
G36*
X380696Y376000D02*
X379304D01*
X378017Y375467D01*
X377033Y374483D01*
X376500Y373196D01*
Y371804D01*
X377033Y370517D01*
X378017Y369533D01*
X379304Y369000D01*
X380696D01*
X381983Y369533D01*
X382967Y370517D01*
X383500Y371804D01*
Y373196D01*
X382967Y374483D01*
X381983Y375467D01*
X380696Y376000D01*
D02*
G37*
G36*
X928796Y375000D02*
X927204D01*
X925734Y374391D01*
X924609Y373266D01*
X924000Y371796D01*
Y370204D01*
X924609Y368734D01*
X925734Y367609D01*
X927204Y367000D01*
X928796D01*
X930266Y367609D01*
X931391Y368734D01*
X932000Y370204D01*
Y371796D01*
X931391Y373266D01*
X930266Y374391D01*
X928796Y375000D01*
D02*
G37*
G36*
X870796Y374000D02*
X869204D01*
X867734Y373391D01*
X866609Y372266D01*
X866000Y370796D01*
Y369204D01*
X866609Y367734D01*
X867734Y366609D01*
X869204Y366000D01*
X870796D01*
X872266Y366609D01*
X873391Y367734D01*
X874000Y369204D01*
Y370796D01*
X873391Y372266D01*
X872266Y373391D01*
X870796Y374000D01*
D02*
G37*
G36*
X830796Y369000D02*
X829204D01*
X827734Y368391D01*
X826609Y367266D01*
X826000Y365796D01*
Y364204D01*
X826609Y362734D01*
X827734Y361609D01*
X829204Y361000D01*
X830796D01*
X832266Y361609D01*
X833391Y362734D01*
X834000Y364204D01*
Y365796D01*
X833391Y367266D01*
X832266Y368391D01*
X830796Y369000D01*
D02*
G37*
G36*
X885796Y364000D02*
X884204D01*
X882734Y363391D01*
X881609Y362266D01*
X881000Y360796D01*
Y359204D01*
X881609Y357734D01*
X882734Y356609D01*
X884204Y356000D01*
X885796D01*
X887266Y356609D01*
X888391Y357734D01*
X889000Y359204D01*
Y360796D01*
X888391Y362266D01*
X887266Y363391D01*
X885796Y364000D01*
D02*
G37*
G36*
X743796Y360000D02*
X742204D01*
X740734Y359391D01*
X739609Y358266D01*
X739000Y356796D01*
Y355204D01*
X739609Y353734D01*
X740734Y352609D01*
X742204Y352000D01*
X743796D01*
X745266Y352609D01*
X746391Y353734D01*
X747000Y355204D01*
Y356796D01*
X746391Y358266D01*
X745266Y359391D01*
X743796Y360000D01*
D02*
G37*
G36*
X762696Y355500D02*
X761304D01*
X760017Y354967D01*
X759033Y353983D01*
X758500Y352696D01*
Y351304D01*
X759033Y350017D01*
X760017Y349033D01*
X761304Y348500D01*
X762696D01*
X763983Y349033D01*
X764967Y350017D01*
X765500Y351304D01*
Y352696D01*
X764967Y353983D01*
X763983Y354967D01*
X762696Y355500D01*
D02*
G37*
G36*
X542196Y362500D02*
X540804D01*
X539517Y361967D01*
X538533Y360983D01*
X538000Y359696D01*
Y358304D01*
X538533Y357017D01*
X539152Y356398D01*
X539021Y354976D01*
X539017Y354967D01*
X538033Y353983D01*
X537500Y352696D01*
Y351304D01*
X538033Y350017D01*
X539017Y349033D01*
X540304Y348500D01*
X541696D01*
X542983Y349033D01*
X543967Y350017D01*
X544500Y351304D01*
Y352696D01*
X543967Y353983D01*
X543348Y354602D01*
X543479Y356024D01*
X543483Y356033D01*
X544467Y357017D01*
X545000Y358304D01*
Y359696D01*
X544467Y360983D01*
X543483Y361967D01*
X542196Y362500D01*
D02*
G37*
G36*
X870796Y354000D02*
X869204D01*
X867734Y353391D01*
X866609Y352266D01*
X866000Y350796D01*
Y349204D01*
X866609Y347734D01*
X867734Y346609D01*
X869204Y346000D01*
X870796D01*
X872266Y346609D01*
X873391Y347734D01*
X874000Y349204D01*
Y350796D01*
X873391Y352266D01*
X872266Y353391D01*
X870796Y354000D01*
D02*
G37*
G36*
X671296Y351000D02*
X669704D01*
X668234Y350391D01*
X667109Y349266D01*
X666500Y347796D01*
Y346204D01*
X667109Y344734D01*
X668234Y343609D01*
X669704Y343000D01*
X671296D01*
X672766Y343609D01*
X673891Y344734D01*
X674500Y346204D01*
Y347796D01*
X673891Y349266D01*
X672766Y350391D01*
X671296Y351000D01*
D02*
G37*
G36*
X703696Y347500D02*
X702304D01*
X701017Y346967D01*
X700033Y345983D01*
X699500Y344696D01*
Y343304D01*
X700033Y342017D01*
X701017Y341033D01*
X702304Y340500D01*
X703696D01*
X704983Y341033D01*
X705967Y342017D01*
X706500Y343304D01*
Y344696D01*
X705967Y345983D01*
X704983Y346967D01*
X703696Y347500D01*
D02*
G37*
G36*
X573796Y347972D02*
X572204D01*
X570734Y347363D01*
X569609Y346237D01*
X569000Y344767D01*
Y343176D01*
X569609Y341706D01*
X570734Y340580D01*
X572204Y339972D01*
X573796D01*
X575266Y340580D01*
X576391Y341706D01*
X577000Y343176D01*
Y344767D01*
X576391Y346237D01*
X575266Y347363D01*
X573796Y347972D01*
D02*
G37*
G36*
X610296Y347000D02*
X608704D01*
X607234Y346391D01*
X606109Y345266D01*
X605500Y343796D01*
Y342204D01*
X606109Y340734D01*
X607234Y339609D01*
X608704Y339000D01*
X610296D01*
X611766Y339609D01*
X612891Y340734D01*
X613500Y342204D01*
Y343796D01*
X612891Y345266D01*
X611766Y346391D01*
X610296Y347000D01*
D02*
G37*
G36*
X299696Y343500D02*
X298304D01*
X297017Y342967D01*
X296033Y341983D01*
X295500Y340696D01*
Y339304D01*
X296033Y338017D01*
X297017Y337033D01*
X298304Y336500D01*
X299696D01*
X300983Y337033D01*
X301967Y338017D01*
X302500Y339304D01*
Y340696D01*
X301967Y341983D01*
X300983Y342967D01*
X299696Y343500D01*
D02*
G37*
G36*
X885796Y344000D02*
X884204D01*
X882734Y343391D01*
X881609Y342266D01*
X881000Y340796D01*
Y339204D01*
X881609Y337734D01*
X882734Y336609D01*
X884204Y336000D01*
X885796D01*
X887266Y336609D01*
X888391Y337734D01*
X889000Y339204D01*
Y340796D01*
X888391Y342266D01*
X887266Y343391D01*
X885796Y344000D01*
D02*
G37*
G36*
X830796D02*
X829204D01*
X827734Y343391D01*
X826609Y342266D01*
X826000Y340796D01*
Y339204D01*
X826609Y337734D01*
X827734Y336609D01*
X829204Y336000D01*
X830796D01*
X832266Y336609D01*
X833391Y337734D01*
X834000Y339204D01*
Y340796D01*
X833391Y342266D01*
X832266Y343391D01*
X830796Y344000D01*
D02*
G37*
G36*
X769696Y340500D02*
X768304D01*
X767017Y339967D01*
X766033Y338983D01*
X765500Y337696D01*
Y336304D01*
X766033Y335017D01*
X767017Y334033D01*
X768304Y333500D01*
X769696D01*
X770983Y334033D01*
X771967Y335017D01*
X772500Y336304D01*
Y337696D01*
X771967Y338983D01*
X770983Y339967D01*
X769696Y340500D01*
D02*
G37*
G36*
X746696Y339500D02*
X745304D01*
X744017Y338967D01*
X743033Y337983D01*
X742500Y336696D01*
Y335304D01*
X743033Y334017D01*
X744017Y333033D01*
X745304Y332500D01*
X746696D01*
X747983Y333033D01*
X748967Y334017D01*
X749500Y335304D01*
Y336696D01*
X748967Y337983D01*
X747983Y338967D01*
X746696Y339500D01*
D02*
G37*
G36*
X618796Y340000D02*
X617204D01*
X615734Y339391D01*
X614609Y338266D01*
X614000Y336796D01*
Y335204D01*
X614609Y333734D01*
X615734Y332609D01*
X617204Y332000D01*
X618796D01*
X620266Y332609D01*
X621391Y333734D01*
X622000Y335204D01*
Y336796D01*
X621391Y338266D01*
X620266Y339391D01*
X618796Y340000D01*
D02*
G37*
G36*
X578296Y339000D02*
X576704D01*
X575234Y338391D01*
X574109Y337266D01*
X573500Y335796D01*
Y334204D01*
X574109Y332734D01*
X575234Y331609D01*
X576704Y331000D01*
X578296D01*
X579766Y331609D01*
X580891Y332734D01*
X581500Y334204D01*
Y335796D01*
X580891Y337266D01*
X579766Y338391D01*
X578296Y339000D01*
D02*
G37*
G36*
X556696Y337500D02*
X555304D01*
X554017Y336967D01*
X553033Y335983D01*
X552500Y334696D01*
Y333304D01*
X553033Y332017D01*
X554017Y331033D01*
X555304Y330500D01*
X556696D01*
X557983Y331033D01*
X558967Y332017D01*
X559500Y333304D01*
Y334696D01*
X558967Y335983D01*
X557983Y336967D01*
X556696Y337500D01*
D02*
G37*
G36*
X546696D02*
X545304D01*
X544017Y336967D01*
X543033Y335983D01*
X542500Y334696D01*
Y333304D01*
X543033Y332017D01*
X544017Y331033D01*
X545304Y330500D01*
X546696D01*
X547983Y331033D01*
X548967Y332017D01*
X549500Y333304D01*
Y334696D01*
X548967Y335983D01*
X547983Y336967D01*
X546696Y337500D01*
D02*
G37*
G36*
X727796Y338000D02*
X726204D01*
X724734Y337391D01*
X723609Y336266D01*
X723000Y334796D01*
Y333204D01*
X723609Y331734D01*
X724734Y330609D01*
X726204Y330000D01*
X727796D01*
X729266Y330609D01*
X730391Y331734D01*
X731000Y333204D01*
Y334796D01*
X730391Y336266D01*
X729266Y337391D01*
X727796Y338000D01*
D02*
G37*
G36*
X697796D02*
X696204D01*
X694734Y337391D01*
X693609Y336266D01*
X693000Y334796D01*
Y333204D01*
X693609Y331734D01*
X694734Y330609D01*
X696204Y330000D01*
X697796D01*
X699266Y330609D01*
X700391Y331734D01*
X701000Y333204D01*
Y334796D01*
X700391Y336266D01*
X699266Y337391D01*
X697796Y338000D01*
D02*
G37*
G36*
X408796Y337000D02*
X407204D01*
X405734Y336391D01*
X404609Y335266D01*
X404000Y333796D01*
Y332204D01*
X404609Y330734D01*
X405734Y329609D01*
X407204Y329000D01*
X408796D01*
X410266Y329609D01*
X411391Y330734D01*
X412000Y332204D01*
Y333796D01*
X411391Y335266D01*
X410266Y336391D01*
X408796Y337000D01*
D02*
G37*
G36*
X870796Y334000D02*
X869204D01*
X867734Y333391D01*
X866609Y332266D01*
X866000Y330796D01*
Y329204D01*
X866609Y327734D01*
X867734Y326609D01*
X869204Y326000D01*
X870796D01*
X872266Y326609D01*
X873391Y327734D01*
X874000Y329204D01*
Y330796D01*
X873391Y332266D01*
X872266Y333391D01*
X870796Y334000D01*
D02*
G37*
G36*
X658296D02*
X656704D01*
X655234Y333391D01*
X654109Y332266D01*
X653500Y330796D01*
Y329204D01*
X654109Y327734D01*
X655234Y326609D01*
X656704Y326000D01*
X658296D01*
X659766Y326609D01*
X660891Y327734D01*
X661500Y329204D01*
Y330796D01*
X660891Y332266D01*
X659766Y333391D01*
X658296Y334000D01*
D02*
G37*
G36*
X620796Y329000D02*
X619204D01*
X617734Y328391D01*
X616609Y327266D01*
X616000Y325796D01*
Y324204D01*
X616609Y322734D01*
X617734Y321609D01*
X619204Y321000D01*
X620796D01*
X622266Y321609D01*
X623391Y322734D01*
X624000Y324204D01*
Y325796D01*
X623391Y327266D01*
X622266Y328391D01*
X620796Y329000D01*
D02*
G37*
G36*
X341696Y327500D02*
X340304D01*
X339017Y326967D01*
X338033Y325983D01*
X337500Y324696D01*
Y323304D01*
X338033Y322017D01*
X339017Y321033D01*
X340304Y320500D01*
X341696D01*
X342983Y321033D01*
X343967Y322017D01*
X344500Y323304D01*
Y324696D01*
X343967Y325983D01*
X342983Y326967D01*
X341696Y327500D01*
D02*
G37*
G36*
X299696D02*
X298304D01*
X297017Y326967D01*
X296033Y325983D01*
X295500Y324696D01*
Y323304D01*
X296033Y322017D01*
X297017Y321033D01*
X298304Y320500D01*
X299696D01*
X300983Y321033D01*
X301967Y322017D01*
X302500Y323304D01*
Y324696D01*
X301967Y325983D01*
X300983Y326967D01*
X299696Y327500D01*
D02*
G37*
G36*
X674696Y323500D02*
X673304D01*
X672017Y322967D01*
X671033Y321983D01*
X670500Y320696D01*
Y319304D01*
X671033Y318017D01*
X672017Y317033D01*
X673304Y316500D01*
X674696D01*
X675983Y317033D01*
X676967Y318017D01*
X677500Y319304D01*
Y320696D01*
X676967Y321983D01*
X675983Y322967D01*
X674696Y323500D01*
D02*
G37*
G36*
X855796Y324000D02*
X854204D01*
X852734Y323391D01*
X851609Y322266D01*
X851000Y320796D01*
Y319204D01*
X851609Y317734D01*
X852734Y316609D01*
X854204Y316000D01*
X855796D01*
X857266Y316609D01*
X858391Y317734D01*
X859000Y319204D01*
Y320796D01*
X858391Y322266D01*
X857266Y323391D01*
X855796Y324000D01*
D02*
G37*
G36*
X835796D02*
X834204D01*
X832734Y323391D01*
X831609Y322266D01*
X831000Y320796D01*
Y319204D01*
X831609Y317734D01*
X832734Y316609D01*
X834204Y316000D01*
X835796D01*
X837266Y316609D01*
X838391Y317734D01*
X839000Y319204D01*
Y320796D01*
X838391Y322266D01*
X837266Y323391D01*
X835796Y324000D01*
D02*
G37*
G36*
X754696Y319500D02*
X753304D01*
X752017Y318967D01*
X751033Y317983D01*
X750500Y316696D01*
Y315304D01*
X751033Y314017D01*
X752017Y313033D01*
X753304Y312500D01*
X754696D01*
X755983Y313033D01*
X756967Y314017D01*
X757500Y315304D01*
Y316696D01*
X756967Y317983D01*
X755983Y318967D01*
X754696Y319500D01*
D02*
G37*
G36*
X350696Y301500D02*
X349304D01*
X348017Y300967D01*
X347251Y300201D01*
X346500Y300073D01*
X345749Y300201D01*
X344983Y300967D01*
X343696Y301500D01*
X342304D01*
X341017Y300967D01*
X340033Y299983D01*
X339500Y298696D01*
Y297304D01*
X340033Y296017D01*
X340506Y295544D01*
X340271Y294072D01*
X340017Y293967D01*
X339033Y292983D01*
X338500Y291696D01*
Y290304D01*
X339033Y289017D01*
X340017Y288033D01*
X341304Y287500D01*
X342696D01*
X343983Y288033D01*
X344967Y289017D01*
X345500Y290304D01*
Y291696D01*
X344967Y292983D01*
X344494Y293456D01*
X344729Y294928D01*
X344983Y295033D01*
X345749Y295799D01*
X346500Y295927D01*
X347251Y295799D01*
X348017Y295033D01*
X349304Y294500D01*
X350696D01*
X351983Y295033D01*
X352967Y296017D01*
X353500Y297304D01*
Y298696D01*
X352967Y299983D01*
X351983Y300967D01*
X350696Y301500D01*
D02*
G37*
G36*
X468696Y299500D02*
X467304D01*
X466017Y298967D01*
X465251Y298201D01*
X464500Y298073D01*
X463749Y298201D01*
X462983Y298967D01*
X461696Y299500D01*
X460304D01*
X459017Y298967D01*
X458033Y297983D01*
X457500Y296696D01*
Y295304D01*
X458033Y294017D01*
X459017Y293033D01*
X460304Y292500D01*
X461696D01*
X462983Y293033D01*
X463749Y293799D01*
X464500Y293927D01*
X465251Y293799D01*
X466017Y293033D01*
X467304Y292500D01*
X468696D01*
X469983Y293033D01*
X470967Y294017D01*
X471500Y295304D01*
Y296696D01*
X470967Y297983D01*
X469983Y298967D01*
X468696Y299500D01*
D02*
G37*
G36*
X299396Y304200D02*
X298004D01*
X296717Y303667D01*
X295733Y302683D01*
X295200Y301396D01*
Y300004D01*
X295733Y298717D01*
X296717Y297733D01*
X298004Y297200D01*
X299396D01*
X300683Y297733D01*
X301667Y298717D01*
X302200Y300004D01*
Y301396D01*
X301667Y302683D01*
X300683Y303667D01*
X299396Y304200D01*
D02*
G37*
G36*
X933296Y296500D02*
X931704D01*
X930234Y295891D01*
X929109Y294766D01*
X928500Y293296D01*
Y291704D01*
X929109Y290234D01*
X930234Y289109D01*
X931704Y288500D01*
X933296D01*
X934766Y289109D01*
X935891Y290234D01*
X936500Y291704D01*
Y293296D01*
X935891Y294766D01*
X934766Y295891D01*
X933296Y296500D01*
D02*
G37*
G36*
X615696Y289250D02*
X614304D01*
X613017Y288717D01*
X612033Y287733D01*
X611500Y286446D01*
Y285054D01*
X612033Y283767D01*
X613017Y282783D01*
X614304Y282250D01*
X615696D01*
X616983Y282783D01*
X617967Y283767D01*
X618500Y285054D01*
Y286446D01*
X617967Y287733D01*
X616983Y288717D01*
X615696Y289250D01*
D02*
G37*
G36*
X941796Y290000D02*
X940204D01*
X938734Y289391D01*
X937609Y288266D01*
X937000Y286796D01*
Y285204D01*
X937609Y283734D01*
X938734Y282609D01*
X940204Y282000D01*
X941796D01*
X943266Y282609D01*
X944391Y283734D01*
X945000Y285204D01*
Y286796D01*
X944391Y288266D01*
X943266Y289391D01*
X941796Y290000D01*
D02*
G37*
G36*
X299396Y288200D02*
X298004D01*
X296717Y287667D01*
X295733Y286683D01*
X295200Y285396D01*
Y284004D01*
X295733Y282717D01*
X296717Y281733D01*
X298004Y281200D01*
X299396D01*
X300683Y281733D01*
X301667Y282717D01*
X302200Y284004D01*
Y285396D01*
X301667Y286683D01*
X300683Y287667D01*
X299396Y288200D01*
D02*
G37*
G36*
X933296Y284000D02*
X931704D01*
X930234Y283391D01*
X929109Y282266D01*
X928500Y280796D01*
Y279204D01*
X929109Y277734D01*
X930234Y276609D01*
X931704Y276000D01*
X933296D01*
X934766Y276609D01*
X935891Y277734D01*
X936500Y279204D01*
Y280796D01*
X935891Y282266D01*
X934766Y283391D01*
X933296Y284000D01*
D02*
G37*
G36*
X632946Y279500D02*
X631554D01*
X630267Y278967D01*
X629283Y277983D01*
X628750Y276696D01*
Y275304D01*
X629283Y274017D01*
X630267Y273033D01*
X631554Y272500D01*
X632946D01*
X634233Y273033D01*
X635217Y274017D01*
X635750Y275304D01*
Y276696D01*
X635217Y277983D01*
X634233Y278967D01*
X632946Y279500D01*
D02*
G37*
G36*
X941796Y278000D02*
X940204D01*
X938734Y277391D01*
X937609Y276266D01*
X937000Y274796D01*
Y273204D01*
X937609Y271734D01*
X938734Y270609D01*
X940204Y270000D01*
X941796D01*
X943266Y270609D01*
X944391Y271734D01*
X945000Y273204D01*
Y274796D01*
X944391Y276266D01*
X943266Y277391D01*
X941796Y278000D01*
D02*
G37*
G36*
X603296Y281500D02*
X601704D01*
X600234Y280891D01*
X599109Y279766D01*
X598500Y278296D01*
Y276704D01*
X599109Y275234D01*
X600234Y274109D01*
X601704Y273500D01*
X603296D01*
X603725Y273678D01*
X604444Y272601D01*
X604109Y272266D01*
X603500Y270796D01*
Y269204D01*
X604109Y267734D01*
X604444Y267399D01*
X603725Y266322D01*
X603296Y266500D01*
X601704D01*
X600234Y265891D01*
X599109Y264766D01*
X598500Y263296D01*
Y261704D01*
X599109Y260234D01*
X600234Y259109D01*
X601704Y258500D01*
X603296D01*
X604766Y259109D01*
X605891Y260234D01*
X606500Y261704D01*
Y263296D01*
X605891Y264766D01*
X605556Y265101D01*
X606275Y266178D01*
X606704Y266000D01*
X608296D01*
X609766Y266609D01*
X610891Y267734D01*
X611500Y269204D01*
Y270796D01*
X610891Y272266D01*
X609766Y273391D01*
X608296Y274000D01*
X606704D01*
X606275Y273822D01*
X605556Y274899D01*
X605891Y275234D01*
X606500Y276704D01*
Y278296D01*
X605891Y279766D01*
X604766Y280891D01*
X603296Y281500D01*
D02*
G37*
G36*
X933296Y271500D02*
X931704D01*
X930234Y270891D01*
X929109Y269766D01*
X928500Y268296D01*
Y266704D01*
X929109Y265234D01*
X930234Y264109D01*
X931704Y263500D01*
X933296D01*
X934766Y264109D01*
X935891Y265234D01*
X936500Y266704D01*
Y268296D01*
X935891Y269766D01*
X934766Y270891D01*
X933296Y271500D01*
D02*
G37*
G36*
X795696Y268500D02*
X794304D01*
X793017Y267967D01*
X792033Y266983D01*
X791500Y265696D01*
Y264304D01*
X792033Y263017D01*
X793017Y262033D01*
X794304Y261500D01*
X795696D01*
X796983Y262033D01*
X797967Y263017D01*
X798500Y264304D01*
Y265696D01*
X797967Y266983D01*
X796983Y267967D01*
X795696Y268500D01*
D02*
G37*
G36*
X298696Y265500D02*
X297304D01*
X296017Y264967D01*
X295033Y263983D01*
X294500Y262696D01*
Y261304D01*
X295033Y260017D01*
X296017Y259033D01*
X297304Y258500D01*
X298696D01*
X299983Y259033D01*
X300967Y260017D01*
X301500Y261304D01*
Y262696D01*
X300967Y263983D01*
X299983Y264967D01*
X298696Y265500D01*
D02*
G37*
G36*
X610696Y261000D02*
X609304D01*
X608017Y260467D01*
X607033Y259483D01*
X606500Y258196D01*
Y256804D01*
X607033Y255517D01*
X608017Y254533D01*
X609304Y254000D01*
X610696D01*
X611983Y254533D01*
X612967Y255517D01*
X613500Y256804D01*
Y258196D01*
X612967Y259483D01*
X611983Y260467D01*
X610696Y261000D01*
D02*
G37*
G36*
X855696Y256000D02*
X854304D01*
X853017Y255467D01*
X852033Y254483D01*
X851500Y253196D01*
Y251804D01*
X852033Y250517D01*
X853017Y249533D01*
X854304Y249000D01*
X855696D01*
X856983Y249533D01*
X857967Y250517D01*
X858500Y251804D01*
Y253196D01*
X857967Y254483D01*
X856983Y255467D01*
X855696Y256000D01*
D02*
G37*
G36*
X675535Y253339D02*
X674142D01*
X672856Y252806D01*
X671871Y251821D01*
X671339Y250535D01*
Y249142D01*
X671871Y247856D01*
X672856Y246871D01*
X674142Y246339D01*
X675535D01*
X676821Y246871D01*
X677806Y247856D01*
X678338Y249142D01*
Y250535D01*
X677806Y251821D01*
X676821Y252806D01*
X675535Y253339D01*
D02*
G37*
G36*
X798796Y242000D02*
X797204D01*
X795734Y241391D01*
X794609Y240266D01*
X794000Y238796D01*
Y237204D01*
X794609Y235734D01*
X795734Y234609D01*
X797204Y234000D01*
X798796D01*
X800266Y234609D01*
X801391Y235734D01*
X802000Y237204D01*
Y238796D01*
X801391Y240266D01*
X800266Y241391D01*
X798796Y242000D01*
D02*
G37*
G36*
X377796Y239000D02*
X376204D01*
X374734Y238391D01*
X373609Y237266D01*
X373000Y235796D01*
Y234204D01*
X373609Y232734D01*
X374734Y231609D01*
X376204Y231000D01*
X377796D01*
X379266Y231609D01*
X380391Y232734D01*
X381000Y234204D01*
Y235796D01*
X380391Y237266D01*
X379266Y238391D01*
X377796Y239000D01*
D02*
G37*
G36*
X364796D02*
X363204D01*
X361734Y238391D01*
X360609Y237266D01*
X360000Y235796D01*
Y234204D01*
X360609Y232734D01*
X361734Y231609D01*
X363204Y231000D01*
X364796D01*
X366266Y231609D01*
X367391Y232734D01*
X368000Y234204D01*
Y235796D01*
X367391Y237266D01*
X366266Y238391D01*
X364796Y239000D01*
D02*
G37*
G36*
X749796Y241000D02*
X748204D01*
X746734Y240391D01*
X745609Y239266D01*
X745000Y237796D01*
Y236204D01*
X745609Y234734D01*
X746734Y233609D01*
X747786Y233173D01*
Y231827D01*
X746734Y231391D01*
X745609Y230266D01*
X745000Y228796D01*
Y227204D01*
X745609Y225734D01*
X746734Y224609D01*
X748204Y224000D01*
X749796D01*
X751266Y224609D01*
X752391Y225734D01*
X753000Y227204D01*
Y228796D01*
X752391Y230266D01*
X751266Y231391D01*
X750214Y231827D01*
Y233173D01*
X751266Y233609D01*
X752391Y234734D01*
X753000Y236204D01*
Y237796D01*
X752391Y239266D01*
X751266Y240391D01*
X749796Y241000D01*
D02*
G37*
G36*
X738796Y232000D02*
X737204D01*
X735734Y231391D01*
X734609Y230266D01*
X734000Y228796D01*
Y227204D01*
X734609Y225734D01*
X735734Y224609D01*
X737204Y224000D01*
X738796D01*
X740266Y224609D01*
X741391Y225734D01*
X742000Y227204D01*
Y228796D01*
X741391Y230266D01*
X740266Y231391D01*
X738796Y232000D01*
D02*
G37*
%LPD*%
D73*
X932000Y566000D02*
D03*
X555500Y694500D02*
D03*
X635500D02*
D03*
D75*
X802000Y289000D02*
D03*
X803000Y304000D02*
D03*
X831000Y651000D02*
D03*
X494000Y633000D02*
D03*
X449000Y632000D02*
D03*
X460000Y702000D02*
D03*
X342000Y629000D02*
D03*
X430000Y338000D02*
D03*
X458000Y367000D02*
D03*
X533000Y311000D02*
D03*
X483000Y288000D02*
D03*
X473000D02*
D03*
X822000Y713000D02*
D03*
X685000Y226000D02*
D03*
X703000D02*
D03*
X742000Y266000D02*
D03*
X795000Y245000D02*
D03*
X775000Y238000D02*
D03*
X831000Y304000D02*
D03*
X815000Y291000D02*
D03*
X928000Y324000D02*
D03*
Y336000D02*
D03*
X896000Y310000D02*
D03*
X908000D02*
D03*
X883000D02*
D03*
X756750Y456500D02*
D03*
X764000Y461750D02*
D03*
X443000Y408000D02*
D03*
X424000Y447000D02*
D03*
X460000Y412000D02*
D03*
X424250Y499000D02*
D03*
X443000Y568000D02*
D03*
X584000Y613000D02*
D03*
X566000Y629000D02*
D03*
X524000Y638000D02*
D03*
X504000Y661000D02*
D03*
X825000Y282000D02*
D03*
X846000D02*
D03*
X837000Y233000D02*
D03*
X852000D02*
D03*
X865000D02*
D03*
X889000D02*
D03*
X832000Y246000D02*
D03*
X818000D02*
D03*
X825000Y257000D02*
D03*
X831000Y268000D02*
D03*
X819000D02*
D03*
X655000Y450000D02*
D03*
X635000D02*
D03*
X615000Y470000D02*
D03*
X635000D02*
D03*
X655000D02*
D03*
Y490000D02*
D03*
X635000D02*
D03*
X615000D02*
D03*
X639000Y375000D02*
D03*
X625000D02*
D03*
X661000Y277000D02*
D03*
X669000Y284000D02*
D03*
X653000D02*
D03*
X664000Y235000D02*
D03*
X652000Y245000D02*
D03*
X639000D02*
D03*
X645000Y255000D02*
D03*
X652000Y265000D02*
D03*
X639000D02*
D03*
X626000Y234000D02*
D03*
X577000Y237000D02*
D03*
Y248000D02*
D03*
Y227000D02*
D03*
X565000D02*
D03*
X590000D02*
D03*
X542500Y657500D02*
D03*
X646000Y620750D02*
D03*
X756405Y490500D02*
D03*
X619000Y621000D02*
D03*
X766000Y555000D02*
D03*
X726000Y349000D02*
D03*
X774000Y408000D02*
D03*
X779000Y420000D02*
D03*
X761000Y444000D02*
D03*
X792500Y487500D02*
D03*
X790000Y505000D02*
D03*
X880000Y625000D02*
D03*
X865000D02*
D03*
X777000Y709000D02*
D03*
X834000Y673000D02*
D03*
X875000Y706000D02*
D03*
X900000Y707000D02*
D03*
X775000Y581000D02*
D03*
X754000Y249000D02*
D03*
X758000Y429000D02*
D03*
X769000Y625000D02*
D03*
X801500Y615178D02*
D03*
X633000Y562000D02*
D03*
X618000D02*
D03*
X544886Y586886D02*
D03*
X567000Y611000D02*
D03*
X561000Y557000D02*
D03*
X478500Y468000D02*
D03*
X932500Y255000D02*
D03*
X777500Y337500D02*
D03*
X927500Y452500D02*
D03*
X895000Y482500D02*
D03*
X851000Y677000D02*
D03*
X481000Y568000D02*
D03*
Y544000D02*
D03*
X429000Y537000D02*
D03*
X451000D02*
D03*
X689000Y317000D02*
D03*
X812500Y400000D02*
D03*
X872500Y425000D02*
D03*
X810000Y415000D02*
D03*
X782500Y380000D02*
D03*
X885000Y400000D02*
D03*
X712000Y317000D02*
D03*
X736000Y257000D02*
D03*
X640000Y325000D02*
D03*
X635000Y345000D02*
D03*
X620000D02*
D03*
X587500Y317500D02*
D03*
X575000Y325000D02*
D03*
X527500D02*
D03*
X610000Y317500D02*
D03*
X440000Y235000D02*
D03*
X883000Y483000D02*
D03*
X747000Y619000D02*
D03*
X939000Y659000D02*
D03*
X913000Y660000D02*
D03*
X747000Y611000D02*
D03*
X723000Y620000D02*
D03*
X702000Y619000D02*
D03*
X833000Y626000D02*
D03*
X892000Y612000D02*
D03*
X566000Y639000D02*
D03*
X734000Y709000D02*
D03*
X654000D02*
D03*
X594000D02*
D03*
X689000Y666000D02*
D03*
X710000Y590000D02*
D03*
X718000Y561000D02*
D03*
X707000D02*
D03*
X529000Y605000D02*
D03*
X660500Y379500D02*
D03*
X473500Y435000D02*
D03*
X472000Y417000D02*
D03*
X507500Y419000D02*
D03*
X475500Y506000D02*
D03*
X508500Y502000D02*
D03*
X510500Y455000D02*
D03*
X655500Y507000D02*
D03*
X590500Y587000D02*
D03*
X594490Y561500D02*
D03*
X595500Y507000D02*
D03*
Y487000D02*
D03*
X605500Y561500D02*
D03*
X615500Y507000D02*
D03*
X635500D02*
D03*
X605993Y592493D02*
D03*
X675500Y447000D02*
D03*
Y467000D02*
D03*
X705500D02*
D03*
X662500Y342000D02*
D03*
X730000Y570000D02*
D03*
X719000Y668000D02*
D03*
X794000Y710000D02*
D03*
X675500Y487000D02*
D03*
X695500Y547000D02*
D03*
X705500Y517000D02*
D03*
X715500Y497000D02*
D03*
X725500Y487000D02*
D03*
X730000Y475000D02*
D03*
X731479Y533010D02*
D03*
X759750Y533235D02*
D03*
X730500Y423000D02*
D03*
Y450000D02*
D03*
Y466000D02*
D03*
X755257Y476757D02*
D03*
X539500Y534500D02*
D03*
X510500Y535000D02*
D03*
X539500Y479500D02*
D03*
X575500Y487000D02*
D03*
X539500Y499500D02*
D03*
X555500Y497000D02*
D03*
X654500Y341000D02*
D03*
X555500Y447000D02*
D03*
Y467000D02*
D03*
X513000Y468000D02*
D03*
X554500Y371500D02*
D03*
X539500Y464500D02*
D03*
Y453052D02*
D03*
X551500Y341000D02*
D03*
X575500Y373000D02*
D03*
Y457000D02*
D03*
X590500Y374000D02*
D03*
X580500Y347000D02*
D03*
X595500Y447000D02*
D03*
Y467000D02*
D03*
X615500Y447000D02*
D03*
X309000Y252000D02*
D03*
Y372000D02*
D03*
X416000Y523000D02*
D03*
X439000D02*
D03*
X464000Y534000D02*
D03*
X308000Y496000D02*
D03*
X538000Y707000D02*
D03*
X416000Y668000D02*
D03*
Y637000D02*
D03*
X461000Y274000D02*
D03*
X942500Y255000D02*
D03*
X937000Y311000D02*
D03*
X940000Y352500D02*
D03*
X490000Y710000D02*
D03*
X445000D02*
D03*
X410000D02*
D03*
X360000D02*
D03*
X310000D02*
D03*
X260000D02*
D03*
X219000Y695000D02*
D03*
X230000D02*
D03*
X306000Y634000D02*
D03*
X343000Y657000D02*
D03*
X391000Y577000D02*
D03*
X377500Y460000D02*
D03*
X341000Y496000D02*
D03*
X250000Y470000D02*
D03*
X413000Y427000D02*
D03*
X382500Y342500D02*
D03*
X397500Y331500D02*
D03*
X340000Y372000D02*
D03*
X245000Y227000D02*
D03*
X310750Y225750D02*
D03*
X235000Y252500D02*
D03*
Y262500D02*
D03*
X350000Y245000D02*
D03*
X339000Y252000D02*
D03*
X495000Y274000D02*
D03*
X527500Y227500D02*
D03*
X550000Y227000D02*
D03*
Y240000D02*
D03*
X600000Y227000D02*
D03*
X233000Y685000D02*
D03*
Y676000D02*
D03*
X232000Y276000D02*
D03*
M02*
