M48
;Layer_Color=9474304
;FILE_FORMAT=4:4
METRIC,LZ
;TYPE=PLATED
T01F00S00C0.2100
T02F00S00C0.3000
T03F00S00C1.0000
%
T01
X0033Y00273
X00332Y00287
X00331Y00302
X00326Y00317
X00332Y00333
X00381902Y00381754
X00384902Y00386754
X00387Y00392
X00275Y00378
X00414Y00376
X004325Y0037
X00435Y00345
X00429
X00441Y00343
X00449Y00328
X0043Y00316
X00434Y00303
X00465Y00347
X0047Y00351
X00465Y00356
X00469Y00361
X00465Y00366
X00461Y0037
X0046Y00376
Y00382
X00455Y00385
X00450175Y00381
X00446Y00385
X00441Y00396
X00468
X00504Y00368
X00503Y00341
X00498Y00337
X00491Y00338
X005625Y003425
Y003275
X00565Y00315
X005575
X0058775Y003155
X0059972Y00315261
X00606Y00317
X00618Y00317
X0063Y003175
X00642Y00317
X00654
X00667Y0034
X00654Y00359
X00642
X0063475Y0035875
X00629909Y00365873
X00617Y00372
Y00381
X00596Y00379
X0060025Y0036525
X00606Y0035975
X00591Y00361
X00588Y00343
X0058745Y00332
X006Y00327
X00595Y003
X0062Y00273
X00628Y00266
X0062Y00248
X00591Y00238
X00571
X005425Y0026
X00544Y00274
X00515Y00285
X00515Y0026
X00515Y002475
X00556Y00362
X0056025Y003805
X0056925
X005805Y0039249
X0064875Y0038175
X00656Y00388
X00678Y00375
X00719712Y00357963
X00741Y00358
X00712212Y00342963
X00688Y00298
X00662212Y00282963
X0063Y0034
X00618Y0035
X00772Y00395
X0078518Y0038946
X0082Y00395
X008275
Y0037
X008075
X008425Y003625
Y004
X00835
X0085
X008225Y0042
X00828Y00443
X00829Y00458
X00855Y004575
Y0047
X00883Y00475
X00879161Y00481282
X00889Y0049
X00879Y005
X00864712Y00525463
X00827212Y00532963
X00814Y00477
X00883Y00463
X00903Y00474
X00906Y00446
X0089Y00437
X00902212Y00542963
X00831Y00646
Y00653
Y0066
Y00668
X00822Y00674
X008225Y006575
X0084
Y00674
X00802Y00644
X00766Y0065
X00733Y00658
X00724Y00662
Y0067
X00715Y00674
Y006575
X00724Y00652
Y00645
X00695Y006425
X00661Y00651
X0062Y00659
X00611Y00662
Y00654
Y00647
X00602Y00659
Y00676
X00611Y0067
X0062Y00676
X0058Y00645
X00545Y00651
X00535Y005875
X00525Y005825
X0052Y00576
X00524Y00571
X00515Y00564
X00509
X00503
X00482Y00554
X0044
X00457Y00535
X00463Y00522
X00467Y00504
X00472Y00507
X00477Y00511
X00484Y00512
X00489Y00506
X00493Y00502
X00497Y00498
X00501Y00494
X00506Y00491
X00522Y005
X00518Y00509
X00523Y00515
X00531
X00544Y00524
X00559Y0053975
X00566Y00533
X00573Y00534
X00571Y00528
X005725Y0049651
X005565Y004965
X005565Y0048851
X00548495Y00488505
X0054Y00488
X00540505Y00480495
X005405Y004725
Y004645
Y004565
X00540495Y00440495
X00540505Y00424505
Y00416505
X0054075Y0040875
X0054875
X00556622Y00408636
X0056451Y004085
X005725
Y004165
Y004245
Y004325
X005805
Y004245
X00588495Y00424495
X005965Y004245
Y004165
X0059625Y0040875
X006045Y004085
X0060425Y0040075
X006125Y004005
X006205Y004085
X00628505Y00408495
X0064449Y004085
X00644505Y00416505
X006365Y004165
X006445Y0042451
X0063651Y004325
X006365Y0044849
Y0045649
X006365Y004645
X00636495Y00472505
X00636505Y00480495
X00654Y0049
X00669Y00489
X00687212Y00495463
X00708Y0048205
X00732Y00486
X00741Y0044925
X00746Y00429
X00745Y00423
X0076Y00417
X00771Y00427
X00777Y00439
X00787Y00432
X007775Y0048
X0078Y00505
X007725
X00781Y00522
X00772Y0053
X007765Y005595
X00727212Y00565463
X00683Y00571
X00654Y00545
X00648Y00515
X00654Y00509
X006125Y005045
Y0049651
X006045Y004965
X00596505Y00496505
Y00504505
X006045Y005045
Y0048049
Y004725
Y004645
Y004565
X005965
X005965Y004485
X0060425
X006045Y004405
X005965
Y004325
X006045
Y004245
X006125
Y004325
X00620495Y00432505
X006125Y004405
X00612505Y00448505
X006125Y004565
X00612505Y00464505
X006125Y004725
X005965
Y004645
X005805
Y004565
X005725
Y004645
X005645
Y004725
X005725
X00572495Y00480495
X005805Y004725
X00588505Y00480505
X005885Y0045625
Y004485
X005725Y004405
X005645
Y004325
Y004245
X005805Y004165
X00581Y00409
X00580495Y00400495
X00588505Y00400495
X0055651Y004005
X005645Y004565
X00523Y0045225
X00502
Y0044
X00506Y00436
X00492Y00437
X0049Y00429
X00497Y00443
X00472Y0045025
X004735Y004585
X0047875Y004635
X00486Y00466
X0045Y00453
X00436Y0047
X00417Y00483
X00432Y00421
X00435Y00409
X00445Y00408
X00462Y00409
X0048Y00408
X006205Y0044851
X00644495Y00448505
X00644505Y00456505
Y00440505
X0066Y0044
X0069Y0045
X00695Y00417
X007185Y00428
X00729Y00404
X0074Y00524
X00705Y00531
X00611
X00629Y00561
X00515Y0059
X00435Y00615
X00437Y00668
X0039745Y005925
X00733Y00674
X00381Y00638
X00376Y00632
X00371Y00628
X00331Y00624
X00326Y00635
X00311Y00647
X00316Y00658
X00321Y00669
X0033Y00592
X00332Y00553
X0036275Y0058175
X00371Y00488
X00376Y00491
X00381Y00488
Y00463
X00376Y00459
X00371Y00463
X0033Y00475
X002745Y004505
X002595Y0046225
T02
X00245Y002325
X0025Y0025
X002375
X002425Y002575
X002325Y002625
X00232Y00276
X003Y002475
X002925Y002325
X003475
X00345Y00263
X00359Y00255
X00374Y00264
X003825Y003375
X003625Y00375
X00347Y00363
X0034Y00385
X00402Y003
X00449Y00344
X0046Y00335
X00462Y00256
X004275Y002325
X005Y00231
X005425Y002475
X005525Y00239
X00575Y00231
X00565Y00294
X006206Y002975
X006486Y002985
X006465Y00285
Y0026
Y00235
X00656Y00231
X00715Y00244
X006975Y002625
X00738Y00231
X00736Y00312
X00703Y00366
X00565Y00363
X00523Y00382
X00519Y0039
X00527Y00319
X00501Y00294
X008025Y003275
X00871Y00342
X0087Y003725
X0086Y003625
X0089Y0039
X00905Y00325
X009425
X0091Y00275
Y00231
X00879
X0088Y003
X008075Y002325
X008425Y0041
X0088Y00399
X0089Y00445
X00858Y00443
X0094Y00452
Y00399
Y00506
X00896Y00499
X008425Y00565
X00855Y006
X00868Y00615
Y00633
X008625Y0065
Y00665
X008525Y006775
X00862Y00707
X0081Y00709
X00795Y006975
X008025Y006675
X008125Y00595
X00942Y00609
X0094Y006525
X009Y0067
X00918Y00707
X00785
X00775Y006975
X00765Y0068
X00755
X00745
X007425Y006575
X00755Y00645
X007575Y006325
X00775Y00625
Y006
X007475
X00705Y00595
X006675Y006
Y00625
X006475Y0063
Y00645
Y00615
X006325Y006
X006225Y0057425
X005925Y005975
X005525Y006
Y00625
X005325Y006175
Y00645
X0051Y006475
X004875
Y00665
X004725Y006775
X00472Y00652
X0045Y0065
X00445Y00708
X004Y00675
X005025Y006775
X00525
X005225Y0069
Y006975
Y00705
X005325Y007025
Y00695
Y006875
X005425Y0068
X00541Y00708
X005525Y007
X005625Y007075
X005725Y007
X005925Y006925
X00594Y00709
X005825Y0067
X0063Y0066
X006325Y0068
X00645
X006575
X006675Y007
X00677Y00707
X006875Y007
X00698Y00709
X006975Y006725
X00654Y00709
X00757Y00708
X0052Y006625
X005075Y006025
X004575Y0056
X0043075Y0058325
X00659Y00421
X00388Y00425
X003925Y004025
Y0046
X00359Y00481
X003425Y004875
Y004675
X002575Y004775
X0024Y00474
Y00466
X00233Y00469
Y00461
Y00478
X0023Y006675
X002375Y00675
X00245Y006825
X002375Y0069
X002525
X0026Y00706
X00302Y00708
X003375Y00705
Y0069
X003475Y006975
X003575Y00705
Y0069
X0034Y00675
Y006625
X00375Y006525
X003875Y006025
X0039Y00562
Y00535
X00344Y00567
X0039Y00709
X0023Y006825
T03
X00761Y00288
Y00308
X00781
Y00288
X00801
Y00308
X00821
X00841
Y00288
X00821
X00925Y0053
Y0055
Y0057
Y0059
Y0061
Y0063
Y0065
M30
