G04*
G04 #@! TF.GenerationSoftware,Altium Limited,Altium Designer,24.2.2 (26)*
G04*
G04 Layer_Color=8421504*
%FSLAX44Y44*%
%MOMM*%
G71*
G04*
G04 #@! TF.SameCoordinates,00A82A7E-E9F6-4F9A-BCAE-F82A0DBAF845*
G04*
G04*
G04 #@! TF.FilePolarity,Positive*
G04*
G01*
G75*
%ADD18R,0.9000X1.0000*%
%ADD19R,0.9500X0.8500*%
%ADD20R,0.5100X0.9000*%
%ADD21R,3.5000X2.6000*%
%ADD22R,1.0000X0.9000*%
%ADD23R,0.8500X0.9500*%
%ADD24R,1.1500X1.3500*%
%ADD25R,0.6500X1.6500*%
%ADD26R,1.8000X1.3000*%
%ADD27R,1.5000X4.0000*%
%ADD28R,1.3000X1.4000*%
%ADD29R,1.4000X1.3000*%
%ADD30R,1.2300X1.8000*%
%ADD31R,1.5250X0.7000*%
%ADD32R,1.3000X1.1000*%
%ADD33R,1.8000X0.4500*%
%ADD34R,0.9000X0.4500*%
%ADD35R,2.0000X0.3800*%
%ADD36R,0.3000X1.4750*%
%ADD37R,1.4750X0.3000*%
%ADD38R,4.0000X1.5000*%
%ADD39R,1.5000X2.0000*%
%ADD40R,3.8000X2.0000*%
%ADD41R,0.9000X0.9500*%
%ADD42R,6.8500X6.8500*%
%ADD43R,1.2000X1.4000*%
%ADD44R,1.9000X1.3000*%
%ADD45R,1.3000X1.8000*%
D18*
X838250Y415000D02*
D03*
X851750D02*
D03*
Y435000D02*
D03*
X838250D02*
D03*
X833250Y517000D02*
D03*
X846750D02*
D03*
X833250Y536000D02*
D03*
X846750D02*
D03*
X870750Y360000D02*
D03*
X884250D02*
D03*
X833250Y382500D02*
D03*
X846750D02*
D03*
X1041750Y346500D02*
D03*
X1028250D02*
D03*
X655750Y237500D02*
D03*
X669250D02*
D03*
Y257500D02*
D03*
X655750D02*
D03*
X709250Y215000D02*
D03*
X695750D02*
D03*
X1041750Y280000D02*
D03*
X1028250D02*
D03*
X551750Y462000D02*
D03*
X538250D02*
D03*
X551750Y420000D02*
D03*
X538250D02*
D03*
X551750Y560000D02*
D03*
X538250D02*
D03*
X551750Y542500D02*
D03*
X538250D02*
D03*
Y510000D02*
D03*
X551750D02*
D03*
X411750Y587500D02*
D03*
X398250D02*
D03*
X411750Y462500D02*
D03*
X398250D02*
D03*
X409750Y341000D02*
D03*
X396250D02*
D03*
X840750Y592500D02*
D03*
X854250D02*
D03*
X865250Y503000D02*
D03*
X878750D02*
D03*
X846750Y668000D02*
D03*
X833250D02*
D03*
X475750Y695000D02*
D03*
X489250D02*
D03*
X986750Y375000D02*
D03*
X973250D02*
D03*
X538250Y437500D02*
D03*
X551750D02*
D03*
X850750Y475000D02*
D03*
X837250D02*
D03*
X840750Y575000D02*
D03*
X854250D02*
D03*
X865250Y470000D02*
D03*
X878750D02*
D03*
X846750Y634000D02*
D03*
X833250D02*
D03*
D19*
X747500Y283326D02*
D03*
Y296326D02*
D03*
X765000Y296326D02*
D03*
Y283326D02*
D03*
X690000Y326500D02*
D03*
Y313500D02*
D03*
X705000Y313500D02*
D03*
Y326500D02*
D03*
X720000Y313500D02*
D03*
Y326500D02*
D03*
X735000Y313500D02*
D03*
Y326500D02*
D03*
X750000Y326500D02*
D03*
Y313500D02*
D03*
X765000Y313500D02*
D03*
Y326500D02*
D03*
X770000Y698500D02*
D03*
Y711500D02*
D03*
X747000Y626500D02*
D03*
Y613500D02*
D03*
X690000Y626500D02*
D03*
Y613500D02*
D03*
X700000Y658500D02*
D03*
Y671500D02*
D03*
X680000Y658500D02*
D03*
Y671500D02*
D03*
X535000Y656000D02*
D03*
Y669000D02*
D03*
X1045000Y509500D02*
D03*
Y522500D02*
D03*
X615000Y656000D02*
D03*
Y669000D02*
D03*
X595000Y656000D02*
D03*
Y669000D02*
D03*
X495000Y218500D02*
D03*
Y231500D02*
D03*
X1040000Y558500D02*
D03*
Y571500D02*
D03*
D20*
X729050Y294000D02*
D03*
X716350D02*
D03*
X703650D02*
D03*
X690950D02*
D03*
Y241000D02*
D03*
X703650D02*
D03*
X716350D02*
D03*
X729050D02*
D03*
X996550Y331500D02*
D03*
X983850D02*
D03*
X971150D02*
D03*
X958450D02*
D03*
Y278500D02*
D03*
X971150D02*
D03*
X983850D02*
D03*
X996550D02*
D03*
D21*
X710000Y267500D02*
D03*
X977500Y305000D02*
D03*
D22*
X782500Y291750D02*
D03*
Y278250D02*
D03*
X780000Y326750D02*
D03*
Y313250D02*
D03*
X795000D02*
D03*
Y326750D02*
D03*
X820000Y278250D02*
D03*
Y291750D02*
D03*
X800000D02*
D03*
Y278250D02*
D03*
X872500Y336750D02*
D03*
Y323250D02*
D03*
X897500Y336750D02*
D03*
Y323250D02*
D03*
X675000Y326750D02*
D03*
Y313250D02*
D03*
X660000Y326750D02*
D03*
Y313250D02*
D03*
X635000Y326750D02*
D03*
Y313250D02*
D03*
X615000Y326750D02*
D03*
Y313250D02*
D03*
X595000Y326750D02*
D03*
Y313250D02*
D03*
X937500Y314250D02*
D03*
Y300750D02*
D03*
Y281750D02*
D03*
Y268250D02*
D03*
X915000Y235750D02*
D03*
Y249250D02*
D03*
X962000Y236250D02*
D03*
Y249750D02*
D03*
X865000Y711750D02*
D03*
Y698250D02*
D03*
X787000Y613250D02*
D03*
Y626750D02*
D03*
X805000Y613250D02*
D03*
Y626750D02*
D03*
X712500Y613250D02*
D03*
Y626750D02*
D03*
X655000Y613250D02*
D03*
Y626750D02*
D03*
X610000Y613250D02*
D03*
Y626750D02*
D03*
X437500Y704250D02*
D03*
Y690750D02*
D03*
X897000Y634750D02*
D03*
Y621250D02*
D03*
X1045000Y481250D02*
D03*
Y494750D02*
D03*
X1012000Y635750D02*
D03*
Y622250D02*
D03*
X632500Y626750D02*
D03*
Y613250D02*
D03*
X1028000Y494750D02*
D03*
Y481250D02*
D03*
X914000Y634750D02*
D03*
Y621250D02*
D03*
X770000Y626750D02*
D03*
Y613250D02*
D03*
X879000Y634750D02*
D03*
Y621250D02*
D03*
D23*
X986500Y455000D02*
D03*
X973500D02*
D03*
X850500Y459000D02*
D03*
X837500D02*
D03*
X957500Y458000D02*
D03*
X944500D02*
D03*
X1041500Y302000D02*
D03*
X1028500D02*
D03*
X1041500Y325000D02*
D03*
X1028500D02*
D03*
X494500Y532000D02*
D03*
X507500D02*
D03*
X516500Y462500D02*
D03*
X503500D02*
D03*
X538500Y478000D02*
D03*
X551500D02*
D03*
X489000Y635000D02*
D03*
X476000D02*
D03*
X878500Y486000D02*
D03*
X865500D02*
D03*
X833500Y650000D02*
D03*
X846500D02*
D03*
X973500Y435000D02*
D03*
X986500D02*
D03*
X986500Y415000D02*
D03*
X973500D02*
D03*
X986500Y395000D02*
D03*
X973500D02*
D03*
D24*
X888750Y422500D02*
D03*
X871250D02*
D03*
X888750Y382500D02*
D03*
X871250D02*
D03*
D25*
X915950Y428500D02*
D03*
X928650D02*
D03*
X941350D02*
D03*
X954050D02*
D03*
Y356500D02*
D03*
X941350D02*
D03*
X928650D02*
D03*
X915950D02*
D03*
D26*
X847500Y349500D02*
D03*
Y320500D02*
D03*
X817500D02*
D03*
Y349500D02*
D03*
D27*
X984500Y240000D02*
D03*
X1020500D02*
D03*
D28*
X654500Y215000D02*
D03*
X670500D02*
D03*
X892000Y656000D02*
D03*
X908000D02*
D03*
X908000Y720000D02*
D03*
X892000D02*
D03*
D29*
X937500Y234500D02*
D03*
Y250500D02*
D03*
X935000Y699000D02*
D03*
Y715000D02*
D03*
X1015000Y699000D02*
D03*
Y715000D02*
D03*
D30*
X627500Y221900D02*
D03*
Y248100D02*
D03*
X600000Y221900D02*
D03*
Y248100D02*
D03*
D31*
X791880Y724050D02*
D03*
Y711350D02*
D03*
Y698650D02*
D03*
Y685950D02*
D03*
X846120D02*
D03*
Y698650D02*
D03*
Y711350D02*
D03*
Y724050D02*
D03*
X574120Y257550D02*
D03*
Y244850D02*
D03*
Y232150D02*
D03*
Y219450D02*
D03*
X519880D02*
D03*
Y232150D02*
D03*
Y244850D02*
D03*
Y257550D02*
D03*
D32*
X493500Y673500D02*
D03*
Y656500D02*
D03*
X471500Y673500D02*
D03*
Y656500D02*
D03*
D33*
X341200Y705750D02*
D03*
Y699250D02*
D03*
Y692750D02*
D03*
Y686250D02*
D03*
Y679750D02*
D03*
Y673250D02*
D03*
Y666750D02*
D03*
Y660250D02*
D03*
Y653750D02*
D03*
Y647250D02*
D03*
Y640750D02*
D03*
Y634250D02*
D03*
X412200D02*
D03*
Y640750D02*
D03*
Y647250D02*
D03*
Y653750D02*
D03*
Y660250D02*
D03*
Y666750D02*
D03*
Y673250D02*
D03*
Y679750D02*
D03*
Y686250D02*
D03*
Y692750D02*
D03*
Y699250D02*
D03*
Y705750D02*
D03*
Y568450D02*
D03*
Y561950D02*
D03*
Y555450D02*
D03*
Y548950D02*
D03*
Y542450D02*
D03*
Y535950D02*
D03*
Y529450D02*
D03*
Y522950D02*
D03*
Y516450D02*
D03*
Y509950D02*
D03*
Y503450D02*
D03*
Y496950D02*
D03*
X341200D02*
D03*
Y503450D02*
D03*
Y509950D02*
D03*
Y516450D02*
D03*
Y522950D02*
D03*
Y529450D02*
D03*
Y535950D02*
D03*
Y542450D02*
D03*
Y548950D02*
D03*
Y555450D02*
D03*
Y561950D02*
D03*
Y568450D02*
D03*
X412200Y443450D02*
D03*
Y436950D02*
D03*
Y430450D02*
D03*
Y423950D02*
D03*
Y417450D02*
D03*
Y410950D02*
D03*
Y404450D02*
D03*
Y397950D02*
D03*
Y391450D02*
D03*
Y384950D02*
D03*
Y378450D02*
D03*
Y371950D02*
D03*
X341200D02*
D03*
Y378450D02*
D03*
Y384950D02*
D03*
Y391450D02*
D03*
Y397950D02*
D03*
Y404450D02*
D03*
Y410950D02*
D03*
Y417450D02*
D03*
Y423950D02*
D03*
Y430450D02*
D03*
Y436950D02*
D03*
Y443450D02*
D03*
X412200Y323450D02*
D03*
Y316950D02*
D03*
Y310450D02*
D03*
Y303950D02*
D03*
Y297450D02*
D03*
Y290950D02*
D03*
Y284450D02*
D03*
Y277950D02*
D03*
Y271450D02*
D03*
Y264950D02*
D03*
Y258450D02*
D03*
Y251950D02*
D03*
X341200D02*
D03*
Y258450D02*
D03*
Y264950D02*
D03*
Y271450D02*
D03*
Y277950D02*
D03*
Y284450D02*
D03*
Y290950D02*
D03*
Y297450D02*
D03*
Y303950D02*
D03*
Y310450D02*
D03*
Y316950D02*
D03*
Y323450D02*
D03*
D34*
X287200Y253700D02*
D03*
Y245700D02*
D03*
Y269700D02*
D03*
Y261700D02*
D03*
X270200D02*
D03*
Y269700D02*
D03*
Y245700D02*
D03*
Y253700D02*
D03*
X287200Y369700D02*
D03*
Y361700D02*
D03*
Y385700D02*
D03*
Y377700D02*
D03*
X270200D02*
D03*
Y385700D02*
D03*
Y361700D02*
D03*
Y369700D02*
D03*
X287200Y331700D02*
D03*
Y323700D02*
D03*
Y347700D02*
D03*
Y339700D02*
D03*
X270200D02*
D03*
Y347700D02*
D03*
Y323700D02*
D03*
Y331700D02*
D03*
X287200Y408700D02*
D03*
Y400700D02*
D03*
Y424700D02*
D03*
Y416700D02*
D03*
X270200D02*
D03*
Y424700D02*
D03*
Y400700D02*
D03*
Y408700D02*
D03*
X287200Y447700D02*
D03*
Y439700D02*
D03*
Y463700D02*
D03*
Y455700D02*
D03*
X270200D02*
D03*
Y463700D02*
D03*
Y439700D02*
D03*
Y447700D02*
D03*
X287200Y486700D02*
D03*
Y478700D02*
D03*
Y502700D02*
D03*
Y494700D02*
D03*
X270200D02*
D03*
Y502700D02*
D03*
Y478700D02*
D03*
Y486700D02*
D03*
X287200Y525700D02*
D03*
Y517700D02*
D03*
Y541700D02*
D03*
Y533700D02*
D03*
X270200D02*
D03*
Y541700D02*
D03*
Y517700D02*
D03*
Y525700D02*
D03*
X287200Y564700D02*
D03*
Y556700D02*
D03*
Y580700D02*
D03*
Y572700D02*
D03*
X270200D02*
D03*
Y580700D02*
D03*
Y556700D02*
D03*
Y564700D02*
D03*
X287200Y602700D02*
D03*
Y594700D02*
D03*
Y618700D02*
D03*
Y610700D02*
D03*
X270200D02*
D03*
Y618700D02*
D03*
Y594700D02*
D03*
Y602700D02*
D03*
X287200Y641700D02*
D03*
Y633700D02*
D03*
Y657700D02*
D03*
Y649700D02*
D03*
X270200D02*
D03*
Y657700D02*
D03*
Y633700D02*
D03*
Y641700D02*
D03*
X287200Y680700D02*
D03*
Y672700D02*
D03*
Y696700D02*
D03*
Y688700D02*
D03*
X270200D02*
D03*
Y696700D02*
D03*
Y672700D02*
D03*
Y680700D02*
D03*
X287200Y292700D02*
D03*
Y284700D02*
D03*
Y308700D02*
D03*
Y300700D02*
D03*
X270200D02*
D03*
Y308700D02*
D03*
Y284700D02*
D03*
Y292700D02*
D03*
D35*
X213000Y257275D02*
D03*
Y269975D02*
D03*
Y282675D02*
D03*
Y295375D02*
D03*
Y308075D02*
D03*
Y320775D02*
D03*
Y333475D02*
D03*
Y346175D02*
D03*
Y358875D02*
D03*
Y371575D02*
D03*
Y384275D02*
D03*
Y396975D02*
D03*
Y409675D02*
D03*
Y422375D02*
D03*
Y435075D02*
D03*
Y447775D02*
D03*
Y460475D02*
D03*
Y473175D02*
D03*
Y485875D02*
D03*
Y498575D02*
D03*
Y511275D02*
D03*
Y523975D02*
D03*
Y536675D02*
D03*
Y549375D02*
D03*
Y562075D02*
D03*
Y574775D02*
D03*
Y587475D02*
D03*
Y600175D02*
D03*
Y612875D02*
D03*
Y650975D02*
D03*
Y663675D02*
D03*
Y676375D02*
D03*
Y263625D02*
D03*
Y276325D02*
D03*
Y289025D02*
D03*
Y301725D02*
D03*
Y314425D02*
D03*
Y327125D02*
D03*
Y339825D02*
D03*
Y352525D02*
D03*
Y365225D02*
D03*
Y377925D02*
D03*
Y390625D02*
D03*
Y403325D02*
D03*
Y416025D02*
D03*
Y428725D02*
D03*
Y441425D02*
D03*
Y454125D02*
D03*
Y466825D02*
D03*
Y479525D02*
D03*
Y492225D02*
D03*
Y504925D02*
D03*
Y517625D02*
D03*
Y530325D02*
D03*
Y543025D02*
D03*
Y555725D02*
D03*
Y568425D02*
D03*
Y581125D02*
D03*
Y593825D02*
D03*
Y606525D02*
D03*
Y619225D02*
D03*
Y657325D02*
D03*
Y670025D02*
D03*
Y682725D02*
D03*
Y625575D02*
D03*
Y631925D02*
D03*
Y638275D02*
D03*
Y644625D02*
D03*
D36*
X922500Y597380D02*
D03*
X937500D02*
D03*
X992500D02*
D03*
X987500D02*
D03*
X982500D02*
D03*
X977500D02*
D03*
X972500D02*
D03*
X967500D02*
D03*
X962500D02*
D03*
X957500D02*
D03*
X942500D02*
D03*
X932500D02*
D03*
X927500D02*
D03*
X917500D02*
D03*
Y482620D02*
D03*
X922500D02*
D03*
X927500D02*
D03*
X932500D02*
D03*
X937500D02*
D03*
X942500D02*
D03*
X947500D02*
D03*
X952500D02*
D03*
X957500D02*
D03*
X962500D02*
D03*
X967500D02*
D03*
X972500D02*
D03*
X977500D02*
D03*
X982500D02*
D03*
X987500D02*
D03*
X992500D02*
D03*
X947500Y597380D02*
D03*
X952500D02*
D03*
X747500Y577380D02*
D03*
X627500D02*
D03*
X787500D02*
D03*
X782500D02*
D03*
X777500D02*
D03*
X772500D02*
D03*
X767500D02*
D03*
X762500D02*
D03*
X757500D02*
D03*
X752500D02*
D03*
X742500D02*
D03*
X737500D02*
D03*
X732500D02*
D03*
X727500D02*
D03*
X722500D02*
D03*
X717500D02*
D03*
X712500D02*
D03*
X707500D02*
D03*
X702500D02*
D03*
X697500D02*
D03*
X692500D02*
D03*
X687500D02*
D03*
X682500D02*
D03*
X677500D02*
D03*
X672500D02*
D03*
X667500D02*
D03*
X662500D02*
D03*
X657500D02*
D03*
X652500D02*
D03*
X647500D02*
D03*
X642500D02*
D03*
X637500D02*
D03*
X632500D02*
D03*
X622500D02*
D03*
X617500D02*
D03*
X612500D02*
D03*
Y362620D02*
D03*
X617500D02*
D03*
X622500D02*
D03*
X627500D02*
D03*
X632500D02*
D03*
X637500D02*
D03*
X642500D02*
D03*
X647500D02*
D03*
X652500D02*
D03*
X657500D02*
D03*
X662500D02*
D03*
X667500D02*
D03*
X672500D02*
D03*
X677500D02*
D03*
X682500D02*
D03*
X687500D02*
D03*
X692500D02*
D03*
X697500D02*
D03*
X702500D02*
D03*
X707500D02*
D03*
X712500D02*
D03*
X717500D02*
D03*
X722500D02*
D03*
X727500D02*
D03*
X732500D02*
D03*
X737500D02*
D03*
X742500D02*
D03*
X747500D02*
D03*
X752500D02*
D03*
X757500D02*
D03*
X762500D02*
D03*
X767500D02*
D03*
X772500D02*
D03*
X777500D02*
D03*
X782500D02*
D03*
X787500D02*
D03*
D37*
X897620Y572500D02*
D03*
X1012380D02*
D03*
X897620Y577500D02*
D03*
Y567500D02*
D03*
Y562500D02*
D03*
Y557500D02*
D03*
Y552500D02*
D03*
Y547500D02*
D03*
Y542500D02*
D03*
Y537500D02*
D03*
Y532500D02*
D03*
Y527500D02*
D03*
Y522500D02*
D03*
Y517500D02*
D03*
Y512500D02*
D03*
Y507500D02*
D03*
Y502500D02*
D03*
X1012380D02*
D03*
Y507500D02*
D03*
Y512500D02*
D03*
Y517500D02*
D03*
Y522500D02*
D03*
Y527500D02*
D03*
Y532500D02*
D03*
Y537500D02*
D03*
Y542500D02*
D03*
Y547500D02*
D03*
Y552500D02*
D03*
Y557500D02*
D03*
Y562500D02*
D03*
Y567500D02*
D03*
Y577500D02*
D03*
X592620Y527500D02*
D03*
Y477500D02*
D03*
X807380Y472500D02*
D03*
X592620Y532500D02*
D03*
Y547500D02*
D03*
Y557500D02*
D03*
Y552500D02*
D03*
Y542500D02*
D03*
Y537500D02*
D03*
Y522500D02*
D03*
Y517500D02*
D03*
Y512500D02*
D03*
Y507500D02*
D03*
Y502500D02*
D03*
Y497500D02*
D03*
Y492500D02*
D03*
Y487500D02*
D03*
Y482500D02*
D03*
Y472500D02*
D03*
Y467500D02*
D03*
Y462500D02*
D03*
Y457500D02*
D03*
Y452500D02*
D03*
Y447500D02*
D03*
Y442500D02*
D03*
Y437500D02*
D03*
Y432500D02*
D03*
Y427500D02*
D03*
Y422500D02*
D03*
Y417500D02*
D03*
Y412500D02*
D03*
Y407500D02*
D03*
Y402500D02*
D03*
Y397500D02*
D03*
Y392500D02*
D03*
Y387500D02*
D03*
Y382500D02*
D03*
X807380D02*
D03*
Y387500D02*
D03*
Y392500D02*
D03*
Y397500D02*
D03*
Y402500D02*
D03*
Y407500D02*
D03*
Y412500D02*
D03*
Y417500D02*
D03*
Y422500D02*
D03*
Y427500D02*
D03*
Y432500D02*
D03*
Y437500D02*
D03*
Y442500D02*
D03*
Y447500D02*
D03*
Y452500D02*
D03*
Y457500D02*
D03*
Y462500D02*
D03*
Y467500D02*
D03*
Y477500D02*
D03*
Y482500D02*
D03*
Y487500D02*
D03*
Y492500D02*
D03*
Y497500D02*
D03*
Y502500D02*
D03*
Y507500D02*
D03*
Y512500D02*
D03*
Y517500D02*
D03*
Y522500D02*
D03*
Y527500D02*
D03*
Y532500D02*
D03*
Y537500D02*
D03*
Y542500D02*
D03*
Y547500D02*
D03*
Y552500D02*
D03*
Y557500D02*
D03*
D38*
X767500Y253000D02*
D03*
Y217000D02*
D03*
D39*
X844500Y228500D02*
D03*
X867500D02*
D03*
X890500D02*
D03*
D40*
X867500Y291500D02*
D03*
D41*
X888000Y442500D02*
D03*
X872000D02*
D03*
X888000Y402500D02*
D03*
X872000D02*
D03*
D42*
X700000Y470000D02*
D03*
D43*
X891500Y679000D02*
D03*
Y701000D02*
D03*
X908500D02*
D03*
Y679000D02*
D03*
D44*
X959000Y662500D02*
D03*
Y717500D02*
D03*
X991000D02*
D03*
Y662500D02*
D03*
D45*
X833000Y612500D02*
D03*
X862000D02*
D03*
M02*
