G04*
G04 #@! TF.GenerationSoftware,Altium Limited,Altium Designer,24.2.2 (26)*
G04*
G04 Layer_Physical_Order=2*
G04 Layer_Color=36540*
%FSLAX44Y44*%
%MOMM*%
G71*
G04*
G04 #@! TF.SameCoordinates,00A82A7E-E9F6-4F9A-BCAE-F82A0DBAF845*
G04*
G04*
G04 #@! TF.FilePolarity,Positive*
G04*
G01*
G75*
%ADD12C,0.2000*%
%ADD48C,1.5000*%
%ADD80C,0.5000*%
%ADD85R,1.5000X1.5000*%
%ADD86R,1.5000X1.5000*%
%ADD87C,0.5000*%
%ADD88C,0.6000*%
%ADD89C,0.8000*%
G36*
X1050000Y205000D02*
X205000D01*
Y735000D01*
X874068D01*
Y651873D01*
X874068Y651873D01*
X874301Y650703D01*
X874964Y649710D01*
X882837Y641837D01*
X882837Y641837D01*
X883829Y641174D01*
X885000Y640941D01*
X924733D01*
X959837Y605837D01*
X960829Y605174D01*
X962000Y604941D01*
X963170Y605174D01*
X964163Y605837D01*
X964826Y606829D01*
X965059Y608000D01*
X964826Y609171D01*
X964163Y610163D01*
X928163Y646163D01*
X927170Y646826D01*
X926000Y647059D01*
X926000Y647059D01*
X886267D01*
X880185Y653140D01*
Y735000D01*
X1034088D01*
X1034428Y733730D01*
X1033167Y733002D01*
X1031398Y731233D01*
X1030147Y729067D01*
X1029500Y726651D01*
Y724149D01*
X1030147Y721733D01*
X1031398Y719567D01*
X1033167Y717798D01*
X1035333Y716547D01*
X1037749Y715900D01*
X1040251D01*
X1042667Y716547D01*
X1044833Y717798D01*
X1046602Y719567D01*
X1047853Y721733D01*
X1048500Y724149D01*
Y726651D01*
X1047853Y729067D01*
X1046602Y731233D01*
X1044833Y733002D01*
X1043572Y733730D01*
X1043912Y735000D01*
X1050000D01*
Y205000D01*
D02*
G37*
%LPC*%
G36*
X864895Y726500D02*
X863105D01*
X861451Y725815D01*
X860185Y724549D01*
X859500Y722895D01*
Y721105D01*
X860185Y719451D01*
X861451Y718185D01*
X863105Y717500D01*
X864895D01*
X866549Y718185D01*
X867815Y719451D01*
X868500Y721105D01*
Y722895D01*
X867815Y724549D01*
X866549Y725815D01*
X864895Y726500D01*
D02*
G37*
G36*
X739000Y724500D02*
X738749D01*
X736333Y723853D01*
X734167Y722602D01*
X732398Y720833D01*
X731147Y718667D01*
X730657Y716838D01*
X729343D01*
X728853Y718667D01*
X727602Y720833D01*
X725833Y722602D01*
X723667Y723853D01*
X721251Y724500D01*
X718749D01*
X716333Y723853D01*
X714167Y722602D01*
X712398Y720833D01*
X711147Y718667D01*
X710657Y716838D01*
X709343D01*
X708853Y718667D01*
X707602Y720833D01*
X705833Y722602D01*
X703667Y723853D01*
X701251Y724500D01*
X698749D01*
X696333Y723853D01*
X694167Y722602D01*
X692398Y720833D01*
X691147Y718667D01*
X690657Y716838D01*
X689343D01*
X688853Y718667D01*
X687602Y720833D01*
X685833Y722602D01*
X683667Y723853D01*
X681251Y724500D01*
X678749D01*
X676333Y723853D01*
X674167Y722602D01*
X672398Y720833D01*
X671148Y718667D01*
X670657Y716838D01*
X669343D01*
X668853Y718667D01*
X667602Y720833D01*
X665833Y722602D01*
X663667Y723853D01*
X661251Y724500D01*
X661000D01*
Y715000D01*
X660000D01*
Y714000D01*
X650500D01*
Y713749D01*
X651147Y711333D01*
X652398Y709167D01*
X654167Y707398D01*
X656333Y706148D01*
X657742Y705770D01*
X657575Y704500D01*
X650500D01*
Y685500D01*
X669500D01*
Y692575D01*
X670770Y692742D01*
X671148Y691333D01*
X672398Y689167D01*
X674167Y687398D01*
X676333Y686147D01*
X678749Y685500D01*
X681251D01*
X683667Y686147D01*
X685833Y687398D01*
X687602Y689167D01*
X688853Y691333D01*
X689343Y693162D01*
X690657D01*
X691147Y691333D01*
X692398Y689167D01*
X694167Y687398D01*
X696333Y686147D01*
X698749Y685500D01*
X701251D01*
X703667Y686147D01*
X705833Y687398D01*
X707602Y689167D01*
X708853Y691333D01*
X709343Y693162D01*
X710657D01*
X711147Y691333D01*
X712398Y689167D01*
X714167Y687398D01*
X716333Y686147D01*
X718749Y685500D01*
X721251D01*
X723667Y686147D01*
X725833Y687398D01*
X727602Y689167D01*
X728853Y691333D01*
X729343Y693162D01*
X730657D01*
X731147Y691333D01*
X732398Y689167D01*
X734167Y687398D01*
X736333Y686147D01*
X738749Y685500D01*
X741251D01*
X743667Y686147D01*
X745833Y687398D01*
X747602Y689167D01*
X748853Y691333D01*
X749230Y692742D01*
X750500Y692575D01*
Y691605D01*
X751185Y689951D01*
X752451Y688685D01*
X754105Y688000D01*
X755895D01*
X757549Y688685D01*
X758815Y689951D01*
X759500Y691605D01*
Y693395D01*
X758815Y695049D01*
X757549Y696315D01*
X755895Y697000D01*
X754105D01*
X752451Y696315D01*
X751185Y695049D01*
X750770Y694047D01*
X749500Y694299D01*
Y696251D01*
X748853Y698667D01*
X747602Y700833D01*
X745833Y702602D01*
X743667Y703853D01*
X741838Y704343D01*
Y705657D01*
X743667Y706148D01*
X745833Y707398D01*
X747602Y709167D01*
X748853Y711333D01*
X749500Y713749D01*
Y714000D01*
X740000D01*
Y715000D01*
X739000D01*
Y724500D01*
D02*
G37*
G36*
X614000D02*
X613749D01*
X611333Y723853D01*
X609167Y722602D01*
X607398Y720833D01*
X606147Y718667D01*
X605657Y716838D01*
X604343D01*
X603853Y718667D01*
X602602Y720833D01*
X600833Y722602D01*
X598667Y723853D01*
X596251Y724500D01*
X593749D01*
X591333Y723853D01*
X589167Y722602D01*
X587398Y720833D01*
X586147Y718667D01*
X585657Y716838D01*
X584343D01*
X583853Y718667D01*
X582602Y720833D01*
X580833Y722602D01*
X578667Y723853D01*
X576251Y724500D01*
X573749D01*
X571333Y723853D01*
X569167Y722602D01*
X567398Y720833D01*
X566147Y718667D01*
X565657Y716838D01*
X564343D01*
X563853Y718667D01*
X562602Y720833D01*
X560833Y722602D01*
X558667Y723853D01*
X556251Y724500D01*
X553749D01*
X551333Y723853D01*
X549167Y722602D01*
X547398Y720833D01*
X546147Y718667D01*
X545657Y716838D01*
X544343D01*
X543853Y718667D01*
X542602Y720833D01*
X540833Y722602D01*
X538667Y723853D01*
X536251Y724500D01*
X536000D01*
Y715000D01*
X535000D01*
Y714000D01*
X525500D01*
Y713749D01*
X526147Y711333D01*
X527398Y709167D01*
X529167Y707398D01*
X531333Y706148D01*
X532742Y705770D01*
X532575Y704500D01*
X525500D01*
Y685500D01*
X544500D01*
Y692575D01*
X545770Y692742D01*
X546147Y691333D01*
X547398Y689167D01*
X549167Y687398D01*
X551333Y686147D01*
X553749Y685500D01*
X556251D01*
X558667Y686147D01*
X560833Y687398D01*
X562602Y689167D01*
X563853Y691333D01*
X564343Y693162D01*
X565657D01*
X566147Y691333D01*
X567398Y689167D01*
X569167Y687398D01*
X571333Y686147D01*
X573749Y685500D01*
X576251D01*
X578667Y686147D01*
X580833Y687398D01*
X582602Y689167D01*
X583853Y691333D01*
X584343Y693162D01*
X585657D01*
X586147Y691333D01*
X587398Y689167D01*
X589167Y687398D01*
X591333Y686147D01*
X593749Y685500D01*
X596251D01*
X598667Y686147D01*
X600833Y687398D01*
X602602Y689167D01*
X603853Y691333D01*
X604343Y693162D01*
X605657D01*
X606147Y691333D01*
X607398Y689167D01*
X609167Y687398D01*
X611333Y686147D01*
X613749Y685500D01*
X616251D01*
X618667Y686147D01*
X620833Y687398D01*
X622602Y689167D01*
X623853Y691333D01*
X624500Y693749D01*
Y696251D01*
X623853Y698667D01*
X622602Y700833D01*
X620833Y702602D01*
X618667Y703853D01*
X616838Y704343D01*
Y705657D01*
X618667Y706148D01*
X620833Y707398D01*
X622602Y709167D01*
X623853Y711333D01*
X624500Y713749D01*
Y714000D01*
X615000D01*
Y715000D01*
X614000D01*
Y724500D01*
D02*
G37*
G36*
X741251D02*
X741000D01*
Y716000D01*
X749500D01*
Y716251D01*
X748853Y718667D01*
X747602Y720833D01*
X745833Y722602D01*
X743667Y723853D01*
X741251Y724500D01*
D02*
G37*
G36*
X659000D02*
X658749D01*
X656333Y723853D01*
X654167Y722602D01*
X652398Y720833D01*
X651147Y718667D01*
X650500Y716251D01*
Y716000D01*
X659000D01*
Y724500D01*
D02*
G37*
G36*
X616251D02*
X616000D01*
Y716000D01*
X624500D01*
Y716251D01*
X623853Y718667D01*
X622602Y720833D01*
X620833Y722602D01*
X618667Y723853D01*
X616251Y724500D01*
D02*
G37*
G36*
X534000D02*
X533749D01*
X531333Y723853D01*
X529167Y722602D01*
X527398Y720833D01*
X526147Y718667D01*
X525500Y716251D01*
Y716000D01*
X534000D01*
Y724500D01*
D02*
G37*
G36*
X490895Y714500D02*
X489105D01*
X487451Y713815D01*
X486185Y712549D01*
X485500Y710895D01*
Y709105D01*
X486185Y707451D01*
X487451Y706185D01*
X489105Y705500D01*
X490895D01*
X492549Y706185D01*
X493815Y707451D01*
X494500Y709105D01*
Y710895D01*
X493815Y712549D01*
X492549Y713815D01*
X490895Y714500D01*
D02*
G37*
G36*
X450895Y709500D02*
X449105D01*
X447451Y708815D01*
X446185Y707549D01*
X445500Y705895D01*
Y704105D01*
X446185Y702451D01*
X447451Y701185D01*
X449105Y700500D01*
X450895D01*
X452549Y701185D01*
X453815Y702451D01*
X454500Y704105D01*
Y705895D01*
X453815Y707549D01*
X452549Y708815D01*
X450895Y709500D01*
D02*
G37*
G36*
X1040251Y709500D02*
X1037749D01*
X1035333Y708853D01*
X1033167Y707602D01*
X1031398Y705833D01*
X1030147Y703667D01*
X1029500Y701251D01*
Y699638D01*
X1029442Y699532D01*
X1028255Y698689D01*
X1027734Y698793D01*
X1026564Y698560D01*
X1025571Y697897D01*
X1024908Y696905D01*
X1024676Y695734D01*
Y694001D01*
X1014837Y684163D01*
X1014174Y683170D01*
X1013941Y682000D01*
X1013941Y682000D01*
Y660267D01*
X984837Y631163D01*
X984174Y630171D01*
X983941Y629000D01*
X983941Y629000D01*
Y608000D01*
X984174Y606829D01*
X984837Y605837D01*
X985829Y605174D01*
X987000Y604941D01*
X988170Y605174D01*
X989163Y605837D01*
X989826Y606829D01*
X990059Y608000D01*
Y627733D01*
X1019163Y656837D01*
X1019163Y656837D01*
X1019826Y657829D01*
X1020059Y659000D01*
Y680733D01*
X1029897Y690571D01*
X1029897Y690571D01*
X1030560Y691564D01*
X1030793Y692734D01*
X1030793Y692734D01*
Y692976D01*
X1032063Y693502D01*
X1033167Y692398D01*
X1035333Y691147D01*
X1037749Y690500D01*
X1040251D01*
X1042667Y691147D01*
X1044833Y692398D01*
X1046602Y694167D01*
X1047853Y696333D01*
X1048500Y698749D01*
Y701251D01*
X1047853Y703667D01*
X1046602Y705833D01*
X1044833Y707602D01*
X1042667Y708853D01*
X1040251Y709500D01*
D02*
G37*
G36*
X830895Y702000D02*
X829105D01*
X827451Y701315D01*
X826185Y700049D01*
X825500Y698395D01*
Y696605D01*
X826185Y694951D01*
X827451Y693685D01*
X829105Y693000D01*
X830895D01*
X832549Y693685D01*
X833815Y694951D01*
X834500Y696605D01*
Y698395D01*
X833815Y700049D01*
X832549Y701315D01*
X830895Y702000D01*
D02*
G37*
G36*
X299595Y701200D02*
X297805D01*
X296151Y700515D01*
X294885Y699249D01*
X294200Y697595D01*
Y695805D01*
X294885Y694151D01*
X296151Y692885D01*
X297805Y692200D01*
X299595D01*
X301249Y692885D01*
X302515Y694151D01*
X303200Y695805D01*
Y697595D01*
X302515Y699249D01*
X301249Y700515D01*
X299595Y701200D01*
D02*
G37*
G36*
X813395Y692000D02*
X811605D01*
X809951Y691315D01*
X808685Y690049D01*
X808000Y688395D01*
Y686605D01*
X808685Y684951D01*
X809951Y683685D01*
X811605Y683000D01*
X813395D01*
X815049Y683685D01*
X816315Y684951D01*
X817000Y686605D01*
Y688395D01*
X816315Y690049D01*
X815049Y691315D01*
X813395Y692000D01*
D02*
G37*
G36*
X299595Y685200D02*
X297805D01*
X296151Y684515D01*
X294885Y683249D01*
X294200Y681595D01*
Y679805D01*
X294885Y678151D01*
X296151Y676885D01*
X297805Y676200D01*
X299595D01*
X301249Y676885D01*
X302515Y678151D01*
X303200Y679805D01*
Y681595D01*
X302515Y683249D01*
X301249Y684515D01*
X299595Y685200D01*
D02*
G37*
G36*
X730895Y682000D02*
X729105D01*
X727451Y681315D01*
X726185Y680049D01*
X725500Y678395D01*
Y676605D01*
X726185Y674951D01*
X727451Y673685D01*
X729105Y673000D01*
X730895D01*
X732549Y673685D01*
X733815Y674951D01*
X734500Y676605D01*
Y678395D01*
X733815Y680049D01*
X732549Y681315D01*
X730895Y682000D01*
D02*
G37*
G36*
X755453Y677058D02*
X753663D01*
X752009Y676373D01*
X750743Y675107D01*
X750058Y673454D01*
Y671663D01*
X750743Y670009D01*
X752009Y668744D01*
X753663Y668058D01*
X755453D01*
X757107Y668744D01*
X758373Y670009D01*
X759058Y671663D01*
Y673454D01*
X758373Y675107D01*
X757107Y676373D01*
X755453Y677058D01*
D02*
G37*
G36*
X1040251Y684100D02*
X1037749D01*
X1035333Y683453D01*
X1033167Y682202D01*
X1031398Y680433D01*
X1030147Y678267D01*
X1029500Y675851D01*
Y673349D01*
X1030147Y670933D01*
X1031398Y668767D01*
X1033167Y666998D01*
X1035333Y665747D01*
X1037749Y665100D01*
X1040251D01*
X1042667Y665747D01*
X1044833Y666998D01*
X1046602Y668767D01*
X1047853Y670933D01*
X1048500Y673349D01*
Y675851D01*
X1047853Y678267D01*
X1046602Y680433D01*
X1044833Y682202D01*
X1042667Y683453D01*
X1040251Y684100D01*
D02*
G37*
G36*
X580895Y673500D02*
X579105D01*
X577451Y672815D01*
X576185Y671549D01*
X575500Y669895D01*
Y668105D01*
X576185Y666451D01*
X577451Y665185D01*
X579105Y664500D01*
X580895D01*
X582549Y665185D01*
X583815Y666451D01*
X584500Y668105D01*
Y669895D01*
X583815Y671549D01*
X582549Y672815D01*
X580895Y673500D01*
D02*
G37*
G36*
X605895Y672500D02*
X604105D01*
X602451Y671815D01*
X601185Y670549D01*
X600500Y668895D01*
Y667105D01*
X601185Y665451D01*
X602451Y664185D01*
X604105Y663500D01*
X605895D01*
X607549Y664185D01*
X608815Y665451D01*
X609500Y667105D01*
Y668895D01*
X608815Y670549D01*
X607549Y671815D01*
X605895Y672500D01*
D02*
G37*
G36*
X663395Y669500D02*
X661605D01*
X659951Y668815D01*
X658685Y667549D01*
X658000Y665895D01*
Y664105D01*
X658685Y662451D01*
X659951Y661185D01*
X661605Y660500D01*
X663395D01*
X665049Y661185D01*
X666315Y662451D01*
X667000Y664105D01*
Y665895D01*
X666315Y667549D01*
X665049Y668815D01*
X663395Y669500D01*
D02*
G37*
G36*
X300895Y664500D02*
X299105D01*
X297451Y663815D01*
X296185Y662549D01*
X295500Y660895D01*
Y659105D01*
X296185Y657451D01*
X297451Y656185D01*
X299105Y655500D01*
X300895D01*
X302549Y656185D01*
X303815Y657451D01*
X304500Y659105D01*
Y660895D01*
X303815Y662549D01*
X302549Y663815D01*
X300895Y664500D01*
D02*
G37*
G36*
X688395Y664500D02*
X686605D01*
X684951Y663815D01*
X683685Y662549D01*
X683000Y660895D01*
Y659105D01*
X683685Y657451D01*
X684951Y656185D01*
X686605Y655500D01*
X688395D01*
X690049Y656185D01*
X691315Y657451D01*
X692000Y659105D01*
Y660895D01*
X691315Y662549D01*
X690049Y663815D01*
X688395Y664500D01*
D02*
G37*
G36*
X670895Y662000D02*
X669105D01*
X667451Y661315D01*
X666185Y660049D01*
X665500Y658395D01*
Y656605D01*
X666185Y654951D01*
X667451Y653685D01*
X669105Y653000D01*
X670895D01*
X672549Y653685D01*
X673815Y654951D01*
X674500Y656605D01*
Y658395D01*
X673815Y660049D01*
X672549Y661315D01*
X670895Y662000D01*
D02*
G37*
G36*
X587284Y660889D02*
X585494D01*
X583840Y660204D01*
X582574Y658938D01*
X581889Y657284D01*
Y655494D01*
X582574Y653840D01*
X583840Y652574D01*
X585494Y651889D01*
X587284D01*
X588938Y652574D01*
X590204Y653840D01*
X590889Y655494D01*
Y657284D01*
X590204Y658938D01*
X588938Y660204D01*
X587284Y660889D01*
D02*
G37*
G36*
X625498Y660539D02*
X623708D01*
X622054Y659854D01*
X620788Y658588D01*
X620103Y656934D01*
Y655144D01*
X620788Y653490D01*
X622054Y652224D01*
X623708Y651539D01*
X625498D01*
X627152Y652224D01*
X628418Y653490D01*
X629103Y655144D01*
Y656934D01*
X628418Y658588D01*
X627152Y659854D01*
X625498Y660539D01*
D02*
G37*
G36*
X1040251Y658700D02*
X1040000D01*
Y650200D01*
X1048500D01*
Y650451D01*
X1047853Y652867D01*
X1046602Y655033D01*
X1044833Y656802D01*
X1042667Y658053D01*
X1040251Y658700D01*
D02*
G37*
G36*
X1038000D02*
X1037749D01*
X1035333Y658053D01*
X1033167Y656802D01*
X1031398Y655033D01*
X1030147Y652867D01*
X1029500Y650451D01*
Y650200D01*
X1038000D01*
Y658700D01*
D02*
G37*
G36*
X863895Y657500D02*
X862105D01*
X860451Y656815D01*
X859185Y655549D01*
X858500Y653895D01*
Y652105D01*
X859185Y650451D01*
X860451Y649185D01*
X862105Y648500D01*
X863895D01*
X865549Y649185D01*
X866815Y650451D01*
X867500Y652105D01*
Y653895D01*
X866815Y655549D01*
X865549Y656815D01*
X863895Y657500D01*
D02*
G37*
G36*
X1048500Y648200D02*
X1040000D01*
Y639700D01*
X1040251D01*
X1042667Y640347D01*
X1044833Y641598D01*
X1046602Y643367D01*
X1047853Y645533D01*
X1048500Y647949D01*
Y648200D01*
D02*
G37*
G36*
X1038000D02*
X1029500D01*
Y647949D01*
X1030147Y645533D01*
X1031398Y643367D01*
X1033167Y641598D01*
X1035333Y640347D01*
X1037749Y639700D01*
X1038000D01*
Y648200D01*
D02*
G37*
G36*
X703395Y647000D02*
X701605D01*
X699951Y646315D01*
X698685Y645049D01*
X698000Y643395D01*
Y641605D01*
X698685Y639951D01*
X699951Y638685D01*
X701605Y638000D01*
X703395D01*
X705049Y638685D01*
X706315Y639951D01*
X707000Y641605D01*
Y643395D01*
X706315Y645049D01*
X705049Y646315D01*
X703395Y647000D01*
D02*
G37*
G36*
X300595Y646200D02*
X298805D01*
X297151Y645515D01*
X295885Y644249D01*
X295200Y642595D01*
Y640805D01*
X295885Y639151D01*
X297151Y637885D01*
X298805Y637200D01*
X300595D01*
X302249Y637885D01*
X303515Y639151D01*
X304200Y640805D01*
Y642595D01*
X303515Y644249D01*
X302249Y645515D01*
X300595Y646200D01*
D02*
G37*
G36*
X779895Y642500D02*
X778105D01*
X776451Y641815D01*
X775185Y640549D01*
X774500Y638895D01*
Y637105D01*
X775185Y635451D01*
X776451Y634185D01*
X778105Y633500D01*
X779895D01*
X781549Y634185D01*
X782815Y635451D01*
X783500Y637105D01*
Y638895D01*
X782815Y640549D01*
X781549Y641815D01*
X779895Y642500D01*
D02*
G37*
G36*
X745895Y640500D02*
X744105D01*
X742451Y639815D01*
X741185Y638549D01*
X740500Y636895D01*
Y635105D01*
X741185Y633451D01*
X742451Y632185D01*
X744105Y631500D01*
X745895D01*
X747549Y632185D01*
X748815Y633451D01*
X749500Y635105D01*
Y636895D01*
X748815Y638549D01*
X747549Y639815D01*
X745895Y640500D01*
D02*
G37*
G36*
X820895Y639500D02*
X819105D01*
X817451Y638815D01*
X816185Y637549D01*
X815500Y635895D01*
Y634105D01*
X816185Y632451D01*
X817451Y631185D01*
X819105Y630500D01*
X820895D01*
X822549Y631185D01*
X823815Y632451D01*
X824500Y634105D01*
Y635895D01*
X823815Y637549D01*
X822549Y638815D01*
X820895Y639500D01*
D02*
G37*
G36*
X398395D02*
X396605D01*
X394951Y638815D01*
X393685Y637549D01*
X393000Y635895D01*
Y634105D01*
X393685Y632451D01*
X394951Y631185D01*
X396605Y630500D01*
X398395D01*
X400049Y631185D01*
X401315Y632451D01*
X402000Y634105D01*
Y635895D01*
X401315Y637549D01*
X400049Y638815D01*
X398395Y639500D01*
D02*
G37*
G36*
X315895Y632000D02*
X314105D01*
X312451Y631315D01*
X311185Y630049D01*
X310500Y628395D01*
Y626605D01*
X311185Y624951D01*
X312451Y623685D01*
X314105Y623000D01*
X315895D01*
X317549Y623685D01*
X318815Y624951D01*
X319500Y626605D01*
Y628395D01*
X318815Y630049D01*
X317549Y631315D01*
X315895Y632000D01*
D02*
G37*
G36*
X1040251Y633300D02*
X1037749D01*
X1035333Y632653D01*
X1033167Y631402D01*
X1031398Y629633D01*
X1030147Y627467D01*
X1029500Y625051D01*
Y622549D01*
X1030147Y620133D01*
X1031398Y617967D01*
X1033167Y616198D01*
X1035333Y614947D01*
X1037749Y614300D01*
X1040251D01*
X1042667Y614947D01*
X1044833Y616198D01*
X1046602Y617967D01*
X1047853Y620133D01*
X1048500Y622549D01*
Y625051D01*
X1047853Y627467D01*
X1046602Y629633D01*
X1044833Y631402D01*
X1042667Y632653D01*
X1040251Y633300D01*
D02*
G37*
G36*
X998995Y621000D02*
X997005D01*
X995168Y620239D01*
X993761Y618832D01*
X993000Y616995D01*
Y615005D01*
X993761Y613168D01*
X995168Y611761D01*
X997005Y611000D01*
X998995D01*
X1000832Y611761D01*
X1002239Y613168D01*
X1003000Y615005D01*
Y616995D01*
X1002239Y618832D01*
X1000832Y620239D01*
X998995Y621000D01*
D02*
G37*
G36*
X815895Y617000D02*
X814105D01*
X812451Y616315D01*
X811185Y615049D01*
X810500Y613395D01*
Y611605D01*
X811185Y609951D01*
X812451Y608685D01*
X814105Y608000D01*
X815895D01*
X817549Y608685D01*
X818815Y609951D01*
X819500Y611605D01*
Y613395D01*
X818815Y615049D01*
X817549Y616315D01*
X815895Y617000D01*
D02*
G37*
G36*
X643395D02*
X641605D01*
X639951Y616315D01*
X638685Y615049D01*
X638000Y613395D01*
Y611605D01*
X638685Y609951D01*
X639951Y608685D01*
X641605Y608000D01*
X643395D01*
X645049Y608685D01*
X646315Y609951D01*
X647000Y611605D01*
Y613395D01*
X646315Y615049D01*
X645049Y616315D01*
X643395Y617000D01*
D02*
G37*
G36*
X600895D02*
X599105D01*
X597451Y616315D01*
X596185Y615049D01*
X595500Y613395D01*
Y611605D01*
X596185Y609951D01*
X597451Y608685D01*
X599105Y608000D01*
X600895D01*
X602549Y608685D01*
X603815Y609951D01*
X604500Y611605D01*
Y613395D01*
X603815Y615049D01*
X602549Y616315D01*
X600895Y617000D01*
D02*
G37*
G36*
X1010995Y616000D02*
X1009005D01*
X1007168Y615239D01*
X1005761Y613832D01*
X1005000Y611995D01*
Y610005D01*
X1005761Y608168D01*
X1007168Y606761D01*
X1009005Y606000D01*
X1010995D01*
X1012832Y606761D01*
X1014239Y608168D01*
X1015000Y610005D01*
Y611995D01*
X1014239Y613832D01*
X1012832Y615239D01*
X1010995Y616000D01*
D02*
G37*
G36*
X700895Y612000D02*
X699105D01*
X697451Y611315D01*
X696185Y610049D01*
X695500Y608395D01*
Y606605D01*
X696185Y604951D01*
X697451Y603685D01*
X699105Y603000D01*
X700895D01*
X702549Y603685D01*
X703815Y604951D01*
X704500Y606605D01*
Y608395D01*
X703815Y610049D01*
X702549Y611315D01*
X700895Y612000D01*
D02*
G37*
G36*
X650895Y609500D02*
X649105D01*
X647451Y608815D01*
X646185Y607549D01*
X645500Y605895D01*
Y604105D01*
X646185Y602451D01*
X647451Y601185D01*
X649105Y600500D01*
X650895D01*
X652549Y601185D01*
X653815Y602451D01*
X654500Y604105D01*
Y605895D01*
X653815Y607549D01*
X652549Y608815D01*
X650895Y609500D01*
D02*
G37*
G36*
X773895Y608500D02*
X772105D01*
X770451Y607815D01*
X769185Y606549D01*
X768500Y604895D01*
Y603105D01*
X769185Y601451D01*
X770451Y600185D01*
X772105Y599500D01*
X773895D01*
X775549Y600185D01*
X776815Y601451D01*
X777500Y603105D01*
Y604895D01*
X776815Y606549D01*
X775549Y607815D01*
X773895Y608500D01*
D02*
G37*
G36*
X875895Y608250D02*
X874105D01*
X872451Y607565D01*
X871185Y606299D01*
X870500Y604645D01*
Y602855D01*
X871185Y601201D01*
X872451Y599935D01*
X874105Y599250D01*
X875895D01*
X877549Y599935D01*
X878815Y601201D01*
X879500Y602855D01*
Y604645D01*
X878815Y606299D01*
X877549Y607565D01*
X875895Y608250D01*
D02*
G37*
G36*
X1048500Y607900D02*
X1029500D01*
Y588900D01*
X1048500D01*
Y607900D01*
D02*
G37*
G36*
X600895Y604500D02*
X599105D01*
X597451Y603815D01*
X596185Y602549D01*
X595500Y600895D01*
Y599105D01*
X596185Y597451D01*
X597136Y596500D01*
X596185Y595549D01*
X595500Y593895D01*
Y592105D01*
X596185Y590451D01*
X597136Y589500D01*
X596185Y588549D01*
X595500Y586895D01*
Y585105D01*
X596185Y583451D01*
X597451Y582185D01*
X599105Y581500D01*
X600895D01*
X602549Y582185D01*
X603815Y583451D01*
X604500Y585105D01*
Y586895D01*
X603815Y588549D01*
X602864Y589500D01*
X603815Y590451D01*
X604500Y592105D01*
Y593895D01*
X603815Y595549D01*
X602864Y596500D01*
X603815Y597451D01*
X604500Y599105D01*
Y600895D01*
X603815Y602549D01*
X602549Y603815D01*
X600895Y604500D01*
D02*
G37*
G36*
X301895Y585500D02*
X300105D01*
X298451Y584815D01*
X297185Y583549D01*
X296500Y581895D01*
Y580105D01*
X297185Y578451D01*
X298451Y577185D01*
X300105Y576500D01*
X301895D01*
X303549Y577185D01*
X304815Y578451D01*
X305500Y580105D01*
Y581895D01*
X304815Y583549D01*
X303549Y584815D01*
X301895Y585500D01*
D02*
G37*
G36*
X1003005Y583868D02*
X1001016D01*
X999178Y583107D01*
X997772Y581701D01*
X997010Y579863D01*
Y577874D01*
X997772Y576036D01*
X999178Y574630D01*
X1001016Y573868D01*
X1003005D01*
X1004843Y574630D01*
X1006249Y576036D01*
X1007010Y577874D01*
Y579863D01*
X1006249Y581701D01*
X1004843Y583107D01*
X1003005Y583868D01*
D02*
G37*
G36*
X413395Y582000D02*
X411605D01*
X409951Y581315D01*
X408685Y580049D01*
X408000Y578395D01*
Y576605D01*
X408685Y574951D01*
X409951Y573685D01*
X411605Y573000D01*
X413395D01*
X415049Y573685D01*
X416315Y574951D01*
X417000Y576605D01*
Y578395D01*
X416315Y580049D01*
X415049Y581315D01*
X413395Y582000D01*
D02*
G37*
G36*
X743895Y567500D02*
X742105D01*
X740451Y566815D01*
X739500Y565864D01*
X738549Y566815D01*
X736895Y567500D01*
X735105D01*
X733451Y566815D01*
X732185Y565549D01*
X731500Y563895D01*
Y562105D01*
X732185Y560451D01*
X733451Y559185D01*
X735105Y558500D01*
X736895D01*
X738549Y559185D01*
X739500Y560136D01*
X740451Y559185D01*
X742105Y558500D01*
X743895D01*
X745549Y559185D01*
X746815Y560451D01*
X747500Y562105D01*
Y563895D01*
X746815Y565549D01*
X745549Y566815D01*
X743895Y567500D01*
D02*
G37*
G36*
X553395Y574500D02*
X551605D01*
X549951Y573815D01*
X548685Y572549D01*
X548000Y570895D01*
Y569105D01*
X548685Y567451D01*
X549951Y566185D01*
X551605Y565500D01*
X553395D01*
X555049Y566185D01*
X556315Y567451D01*
X557000Y569105D01*
Y570895D01*
X556315Y572549D01*
X555049Y573815D01*
X553395Y574500D01*
D02*
G37*
G36*
X362145Y572950D02*
X360355D01*
X358701Y572265D01*
X357435Y570999D01*
X356750Y569345D01*
Y567555D01*
X357435Y565901D01*
X358701Y564635D01*
X360355Y563950D01*
X362145D01*
X363799Y564635D01*
X365065Y565901D01*
X365750Y567555D01*
Y569345D01*
X365065Y570999D01*
X363799Y572265D01*
X362145Y572950D01*
D02*
G37*
G36*
X436933Y571928D02*
X435143D01*
X433489Y571243D01*
X432223Y569977D01*
X431538Y568323D01*
Y566533D01*
X432223Y564879D01*
X433489Y563613D01*
X435143Y562928D01*
X436933D01*
X438587Y563613D01*
X439853Y564879D01*
X440538Y566533D01*
Y568323D01*
X439853Y569977D01*
X438587Y571243D01*
X436933Y571928D01*
D02*
G37*
G36*
X643895Y564500D02*
X642105D01*
X640451Y563815D01*
X639185Y562549D01*
X639017Y562143D01*
X637549Y561815D01*
X635895Y562500D01*
X634105D01*
X632451Y561815D01*
X631830Y561194D01*
X631000Y560667D01*
X630170Y561194D01*
X629549Y561815D01*
X627895Y562500D01*
X626105D01*
X624451Y561815D01*
X623185Y560549D01*
X622500Y558895D01*
Y557105D01*
X623185Y555451D01*
X624451Y554185D01*
X626105Y553500D01*
X627895D01*
X629549Y554185D01*
X630170Y554806D01*
X631000Y555333D01*
X631830Y554806D01*
X632451Y554185D01*
X634105Y553500D01*
X635895D01*
X637549Y554185D01*
X638815Y555451D01*
X638983Y555857D01*
X640451Y556185D01*
X642105Y555500D01*
X643895D01*
X645549Y556185D01*
X646815Y557451D01*
X647500Y559105D01*
Y560895D01*
X646815Y562549D01*
X645549Y563815D01*
X643895Y564500D01*
D02*
G37*
G36*
X758895Y569500D02*
X757105D01*
X755451Y568815D01*
X754185Y567549D01*
X753500Y565895D01*
Y564105D01*
X754185Y562451D01*
X755451Y561185D01*
X757105Y560500D01*
X758895D01*
X760549Y561185D01*
X761815Y562451D01*
X762500Y564105D01*
Y565895D01*
X761815Y567549D01*
X760549Y568815D01*
X758895Y569500D01*
D02*
G37*
G36*
X688895Y568500D02*
X687105D01*
X685451Y567815D01*
X684185Y566549D01*
X683500Y564895D01*
Y563105D01*
X684185Y561451D01*
X685451Y560185D01*
X687105Y559500D01*
X688895D01*
X690549Y560185D01*
X691815Y561451D01*
X692500Y563105D01*
Y564895D01*
X691815Y566549D01*
X690549Y567815D01*
X688895Y568500D01*
D02*
G37*
G36*
X592895D02*
X591105D01*
X589451Y567815D01*
X588185Y566549D01*
X587500Y564895D01*
Y563105D01*
X588185Y561451D01*
X589451Y560185D01*
X591105Y559500D01*
X592895D01*
X594549Y560185D01*
X595815Y561451D01*
X596500Y563105D01*
Y564895D01*
X595815Y566549D01*
X594549Y567815D01*
X592895Y568500D01*
D02*
G37*
G36*
X704895Y569500D02*
X703105D01*
X701451Y568815D01*
X700185Y567549D01*
X699500Y565895D01*
Y564105D01*
X700185Y562451D01*
X701451Y561185D01*
X703105Y560500D01*
X704895D01*
X706445Y561142D01*
X706500Y561105D01*
X707185Y559451D01*
X708451Y558185D01*
X710105Y557500D01*
X711895D01*
X713549Y558185D01*
X714815Y559451D01*
X715500Y561105D01*
Y562895D01*
X714815Y564549D01*
X713549Y565815D01*
X711895Y566500D01*
X710105D01*
X708555Y565858D01*
X708500Y565895D01*
X707815Y567549D01*
X706549Y568815D01*
X704895Y569500D01*
D02*
G37*
G36*
X832395Y561506D02*
X830605D01*
X828951Y560820D01*
X827685Y559555D01*
X827000Y557901D01*
Y556110D01*
X827685Y554456D01*
X828951Y553191D01*
X830605Y552505D01*
X832395D01*
X834049Y553191D01*
X835315Y554456D01*
X836000Y556110D01*
Y557901D01*
X835315Y559555D01*
X834049Y560820D01*
X832395Y561506D01*
D02*
G37*
G36*
X248772Y560225D02*
X246982D01*
X245328Y559540D01*
X244062Y558274D01*
X243377Y556620D01*
Y554830D01*
X244062Y553176D01*
X245328Y551910D01*
X246982Y551225D01*
X248772D01*
X250426Y551910D01*
X251692Y553176D01*
X252377Y554830D01*
Y556620D01*
X251692Y558274D01*
X250426Y559540D01*
X248772Y560225D01*
D02*
G37*
G36*
X437895Y551500D02*
X436105D01*
X434451Y550815D01*
X433185Y549549D01*
X432500Y547895D01*
Y546105D01*
X433185Y544451D01*
X434451Y543185D01*
X436105Y542500D01*
X437895D01*
X439549Y543185D01*
X440815Y544451D01*
X441500Y546105D01*
Y547895D01*
X440815Y549549D01*
X439549Y550815D01*
X437895Y551500D01*
D02*
G37*
G36*
X873395Y547000D02*
X871605D01*
X869951Y546315D01*
X868685Y545049D01*
X868000Y543395D01*
Y542000D01*
X866605D01*
X864951Y541315D01*
X863685Y540049D01*
X863517Y539643D01*
X862549Y538815D01*
X861998Y539043D01*
X860895Y539500D01*
X859105D01*
X857451Y538815D01*
X856185Y537549D01*
X855500Y535895D01*
Y534105D01*
X856185Y532451D01*
X857451Y531185D01*
X859105Y530500D01*
X860895D01*
X862549Y531185D01*
X863815Y532451D01*
X863983Y532857D01*
X864951Y533685D01*
X865502Y533457D01*
X866605Y533000D01*
X868395D01*
X870049Y533685D01*
X871315Y534951D01*
X872000Y536605D01*
Y538000D01*
X873395D01*
X875049Y538685D01*
X876315Y539951D01*
X877000Y541605D01*
Y543395D01*
X876315Y545049D01*
X875049Y546315D01*
X873395Y547000D01*
D02*
G37*
G36*
X790895Y559500D02*
X789105D01*
X787451Y558815D01*
X786185Y557549D01*
X785500Y555895D01*
Y554105D01*
X785876Y553198D01*
X784321Y552554D01*
X783055Y551288D01*
X782370Y549634D01*
Y547844D01*
X783055Y546190D01*
X784321Y544924D01*
X785725Y544342D01*
X786573Y543343D01*
X786643Y543239D01*
X786500Y542895D01*
Y541105D01*
X787185Y539451D01*
X788451Y538185D01*
X790105Y537500D01*
X791895D01*
X793549Y538185D01*
X794815Y539451D01*
X795500Y541105D01*
Y542895D01*
X794815Y544549D01*
X793549Y545815D01*
X792145Y546397D01*
X791296Y547397D01*
X791227Y547500D01*
X791369Y547844D01*
Y549634D01*
X790994Y550541D01*
X792549Y551185D01*
X793815Y552451D01*
X794500Y554105D01*
Y555895D01*
X793815Y557549D01*
X792549Y558815D01*
X790895Y559500D01*
D02*
G37*
G36*
X740895Y543500D02*
X739105D01*
X737451Y542815D01*
X736185Y541549D01*
X735500Y539895D01*
Y538105D01*
X736185Y536451D01*
X737451Y535185D01*
X739105Y534500D01*
X740895D01*
X742549Y535185D01*
X743815Y536451D01*
X744500Y538105D01*
Y539895D01*
X743815Y541549D01*
X742549Y542815D01*
X740895Y543500D01*
D02*
G37*
G36*
X563395Y542500D02*
X561605D01*
X559951Y541815D01*
X558685Y540549D01*
X558000Y538895D01*
Y537105D01*
X558685Y535451D01*
X559951Y534185D01*
X561605Y533500D01*
X563395D01*
X565049Y534185D01*
X566315Y535451D01*
X567000Y537105D01*
Y538895D01*
X566315Y540549D01*
X565049Y541815D01*
X563395Y542500D01*
D02*
G37*
G36*
X301895Y538500D02*
X300105D01*
X298451Y537815D01*
X297185Y536549D01*
X296500Y534895D01*
Y533105D01*
X297185Y531451D01*
X298451Y530185D01*
X300105Y529500D01*
X301895D01*
X303549Y530185D01*
X304815Y531451D01*
X305500Y533105D01*
Y534895D01*
X304815Y536549D01*
X303549Y537815D01*
X301895Y538500D01*
D02*
G37*
G36*
X455895Y537500D02*
X454105D01*
X452451Y536815D01*
X451185Y535549D01*
X450500Y533895D01*
Y532105D01*
X451185Y530451D01*
X452451Y529185D01*
X454105Y528500D01*
X455895D01*
X457549Y529185D01*
X458815Y530451D01*
X459500Y532105D01*
Y533895D01*
X458815Y535549D01*
X457549Y536815D01*
X455895Y537500D01*
D02*
G37*
G36*
X708895Y526500D02*
X707105D01*
X705451Y525815D01*
X704830Y525194D01*
X704000Y524667D01*
X703170Y525194D01*
X702549Y525815D01*
X700895Y526500D01*
X699105D01*
X697451Y525815D01*
X696185Y524549D01*
X695500Y522895D01*
Y521105D01*
X696185Y519451D01*
X697451Y518185D01*
X699105Y517500D01*
X700895D01*
X702549Y518185D01*
X703170Y518806D01*
X704000Y519333D01*
X704830Y518806D01*
X705451Y518185D01*
X707105Y517500D01*
X708895D01*
X710549Y518185D01*
X711815Y519451D01*
X712500Y521105D01*
Y522895D01*
X711815Y524549D01*
X710549Y525815D01*
X708895Y526500D01*
D02*
G37*
G36*
X773895Y533500D02*
X772105D01*
X770451Y532815D01*
X769185Y531549D01*
X768500Y529895D01*
Y528105D01*
X769185Y526451D01*
X770451Y525185D01*
X772105Y524500D01*
X773895D01*
X775549Y525185D01*
X776815Y526451D01*
X777500Y528105D01*
Y529895D01*
X776815Y531549D01*
X775549Y532815D01*
X773895Y533500D01*
D02*
G37*
G36*
X922460Y528500D02*
X920669D01*
X919016Y527815D01*
X917750Y526549D01*
X917065Y524895D01*
Y523105D01*
X917750Y521451D01*
X919016Y520185D01*
X920669Y519500D01*
X922460D01*
X924114Y520185D01*
X925379Y521451D01*
X926065Y523105D01*
Y524895D01*
X925379Y526549D01*
X924114Y527815D01*
X922460Y528500D01*
D02*
G37*
G36*
X734895Y527500D02*
X733105D01*
X731451Y526815D01*
X730185Y525549D01*
X729500Y523895D01*
Y522105D01*
X730185Y520451D01*
X731451Y519185D01*
X733105Y518500D01*
X734895D01*
X736549Y519185D01*
X737815Y520451D01*
X738500Y522105D01*
Y523895D01*
X737815Y525549D01*
X736549Y526815D01*
X734895Y527500D01*
D02*
G37*
G36*
X957895Y523500D02*
X956105D01*
X954451Y522815D01*
X953185Y521549D01*
X952500Y519895D01*
Y518105D01*
X953185Y516451D01*
X954451Y515185D01*
X956105Y514500D01*
X957895D01*
X959549Y515185D01*
X960815Y516451D01*
X961500Y518105D01*
Y519895D01*
X960815Y521549D01*
X959549Y522815D01*
X957895Y523500D01*
D02*
G37*
G36*
X865895Y523000D02*
X864105D01*
X862451Y522315D01*
X861185Y521049D01*
X860500Y519395D01*
Y517605D01*
X861185Y515951D01*
X862451Y514685D01*
X864105Y514000D01*
X865895D01*
X867549Y514685D01*
X868815Y515951D01*
X869500Y517605D01*
Y519395D01*
X868815Y521049D01*
X867549Y522315D01*
X865895Y523000D01*
D02*
G37*
G36*
X666895Y612500D02*
X665105D01*
X663451Y611815D01*
X662185Y610549D01*
X661500Y608895D01*
Y607105D01*
X662185Y605451D01*
X663451Y604185D01*
X665105Y603500D01*
X666174D01*
X675941Y593733D01*
Y528000D01*
X675941Y528000D01*
X676174Y526829D01*
X676837Y525837D01*
X686500Y516174D01*
Y515105D01*
X687185Y513451D01*
X688451Y512185D01*
X690105Y511500D01*
X691895D01*
X693549Y512185D01*
X694815Y513451D01*
X695500Y515105D01*
Y516895D01*
X694815Y518549D01*
X693549Y519815D01*
X691895Y520500D01*
X690826D01*
X682059Y529267D01*
Y595000D01*
X681826Y596171D01*
X681163Y597163D01*
X670500Y607826D01*
Y608895D01*
X669815Y610549D01*
X668549Y611815D01*
X666895Y612500D01*
D02*
G37*
G36*
X625895Y527000D02*
X624105D01*
X622451Y526315D01*
X621185Y525049D01*
X620500Y523395D01*
Y521605D01*
X621185Y519951D01*
X622451Y518685D01*
X624105Y518000D01*
X624997D01*
X625846Y516730D01*
X625500Y515895D01*
Y514105D01*
X626185Y512451D01*
X627451Y511185D01*
X629105Y510500D01*
X630895D01*
X632549Y511185D01*
X633815Y512451D01*
X634500Y514105D01*
Y515895D01*
X633815Y517549D01*
X632549Y518815D01*
X630895Y519500D01*
X630003D01*
X629154Y520770D01*
X629500Y521605D01*
Y523395D01*
X628815Y525049D01*
X627549Y526315D01*
X625895Y527000D01*
D02*
G37*
G36*
X1032995Y517000D02*
X1031005D01*
X1029168Y516239D01*
X1027761Y514832D01*
X1027000Y512995D01*
Y511005D01*
X1027761Y509168D01*
X1029168Y507761D01*
X1031005Y507000D01*
X1032995D01*
X1034832Y507761D01*
X1036239Y509168D01*
X1037000Y511005D01*
Y512995D01*
X1036239Y514832D01*
X1034832Y516239D01*
X1032995Y517000D01*
D02*
G37*
G36*
X368895Y514500D02*
X367105D01*
X365451Y513815D01*
X364185Y512549D01*
X363500Y510895D01*
Y509105D01*
X364185Y507451D01*
X365451Y506185D01*
X367105Y505500D01*
X368895D01*
X370549Y506185D01*
X371815Y507451D01*
X372500Y509105D01*
Y510895D01*
X371815Y512549D01*
X370549Y513815D01*
X368895Y514500D01*
D02*
G37*
G36*
X355756Y514361D02*
X353966D01*
X352312Y513676D01*
X351046Y512410D01*
X350361Y510756D01*
Y508966D01*
X351046Y507312D01*
X352312Y506046D01*
X353966Y505361D01*
X355756D01*
X357410Y506046D01*
X358676Y507312D01*
X359361Y508966D01*
Y510756D01*
X358676Y512410D01*
X357410Y513676D01*
X355756Y514361D01*
D02*
G37*
G36*
X976895Y512500D02*
X975105D01*
X973451Y511815D01*
X972185Y510549D01*
X971500Y508895D01*
Y507105D01*
X971741Y506523D01*
X970836Y505389D01*
X969451Y504815D01*
X968185Y503549D01*
X967551Y503813D01*
X967549Y503815D01*
X965895Y504500D01*
X964105D01*
X962451Y503815D01*
X961185Y502549D01*
X960500Y500895D01*
Y499105D01*
X961185Y497451D01*
X962451Y496185D01*
X964105Y495500D01*
X965895D01*
X967549Y496185D01*
X968815Y497451D01*
X969449Y497187D01*
X969451Y497185D01*
X971105Y496500D01*
X972895D01*
X974549Y497185D01*
X975815Y498451D01*
X976500Y500105D01*
Y501895D01*
X976259Y502477D01*
X977164Y503611D01*
X978549Y504185D01*
X979815Y505451D01*
X980500Y507105D01*
Y508895D01*
X979815Y510549D01*
X978549Y511815D01*
X976895Y512500D01*
D02*
G37*
G36*
X563395Y509500D02*
X561605D01*
X559951Y508815D01*
X558685Y507549D01*
X558000Y505895D01*
Y504105D01*
X558685Y502451D01*
X559951Y501185D01*
X561605Y500500D01*
X563395D01*
X565049Y501185D01*
X566315Y502451D01*
X567000Y504105D01*
Y505895D01*
X566315Y507549D01*
X565049Y508815D01*
X563395Y509500D01*
D02*
G37*
G36*
X953395Y502000D02*
X951605D01*
X949951Y501315D01*
X948818Y500182D01*
X948483Y500048D01*
X947307Y500042D01*
X946373Y500976D01*
X944719Y501662D01*
X942928D01*
X941274Y500976D01*
X940236Y499938D01*
X938847Y499972D01*
X938815Y500049D01*
X937549Y501315D01*
X935895Y502000D01*
X934105D01*
X932451Y501315D01*
X931185Y500049D01*
X930500Y498395D01*
Y496605D01*
X931185Y494951D01*
X932451Y493685D01*
X934105Y493000D01*
X935895D01*
X937549Y493685D01*
X938588Y494724D01*
X939977Y494690D01*
X940009Y494613D01*
X941274Y493347D01*
X942928Y492662D01*
X944719D01*
X946373Y493347D01*
X947506Y494480D01*
X947841Y494614D01*
X949016Y494620D01*
X949951Y493685D01*
X951605Y493000D01*
X953395D01*
X955049Y493685D01*
X956315Y494951D01*
X957000Y496605D01*
Y498395D01*
X956315Y500049D01*
X955049Y501315D01*
X953395Y502000D01*
D02*
G37*
G36*
X530614Y507500D02*
X528824D01*
X527170Y506815D01*
X525904Y505549D01*
X525219Y503895D01*
Y502105D01*
X525904Y500451D01*
X527170Y499185D01*
X528824Y498500D01*
X530614D01*
X532268Y499185D01*
X533534Y500451D01*
X534219Y502105D01*
Y503895D01*
X533534Y505549D01*
X532268Y506815D01*
X530614Y507500D01*
D02*
G37*
G36*
X465895D02*
X464105D01*
X462451Y506815D01*
X461185Y505549D01*
X460500Y503895D01*
Y502105D01*
X461185Y500451D01*
X462451Y499185D01*
X464105Y498500D01*
X465895D01*
X467549Y499185D01*
X468815Y500451D01*
X469500Y502105D01*
Y503895D01*
X468815Y505549D01*
X467549Y506815D01*
X465895Y507500D01*
D02*
G37*
G36*
X443395Y507000D02*
X441605D01*
X439951Y506315D01*
X438685Y505049D01*
X438000Y503395D01*
Y501605D01*
X438685Y499951D01*
X439951Y498685D01*
X441605Y498000D01*
X443395D01*
X445049Y498685D01*
X446315Y499951D01*
X447000Y501605D01*
Y503395D01*
X446315Y505049D01*
X445049Y506315D01*
X443395Y507000D01*
D02*
G37*
G36*
X824493Y505000D02*
X822703D01*
X821049Y504315D01*
X819783Y503049D01*
X819098Y501395D01*
Y499605D01*
X819783Y497951D01*
X821049Y496685D01*
X822703Y496000D01*
X824493D01*
X826147Y496685D01*
X827413Y497951D01*
X828098Y499605D01*
Y501395D01*
X827413Y503049D01*
X826147Y504315D01*
X824493Y505000D01*
D02*
G37*
G36*
X430895Y502000D02*
X429105D01*
X427451Y501315D01*
X426185Y500049D01*
X425500Y498395D01*
Y496605D01*
X426185Y494951D01*
X427451Y493685D01*
X429105Y493000D01*
X430895D01*
X432549Y493685D01*
X433815Y494951D01*
X434500Y496605D01*
Y498395D01*
X433815Y500049D01*
X432549Y501315D01*
X430895Y502000D01*
D02*
G37*
G36*
X793895Y533500D02*
X792105D01*
X790451Y532815D01*
X789185Y531549D01*
X788500Y529895D01*
Y528105D01*
X788096Y527500D01*
X787105D01*
X785451Y526815D01*
X784185Y525549D01*
X783500Y523895D01*
Y522105D01*
X784185Y520451D01*
X785451Y519185D01*
X785512Y518876D01*
X785185Y518549D01*
X784500Y516895D01*
Y515105D01*
X785185Y513451D01*
X786451Y512185D01*
X786187Y511551D01*
X786185Y511549D01*
X785500Y509895D01*
Y508105D01*
X786185Y506451D01*
X787451Y505185D01*
X789105Y504500D01*
X790500D01*
Y503105D01*
X791185Y501451D01*
X792136Y500500D01*
X791185Y499549D01*
X790500Y497895D01*
Y496105D01*
X791185Y494451D01*
X792451Y493185D01*
X794105Y492500D01*
X795895D01*
X797549Y493185D01*
X798815Y494451D01*
X799500Y496105D01*
Y497895D01*
X798815Y499549D01*
X797864Y500500D01*
X798815Y501451D01*
X799500Y503105D01*
Y504895D01*
X798815Y506549D01*
X797549Y507815D01*
X795895Y508500D01*
X794500D01*
Y509895D01*
X793815Y511549D01*
X792549Y512815D01*
X792813Y513449D01*
X792815Y513451D01*
X793500Y515105D01*
Y516895D01*
X792815Y518549D01*
X791549Y519815D01*
X791488Y520124D01*
X791815Y520451D01*
X792500Y522105D01*
Y523895D01*
X792904Y524500D01*
X793895D01*
X795549Y525185D01*
X796815Y526451D01*
X797500Y528105D01*
Y529895D01*
X796815Y531549D01*
X795549Y532815D01*
X793895Y533500D01*
D02*
G37*
G36*
X841390Y495227D02*
X839600D01*
X837946Y494542D01*
X836680Y493276D01*
X836093Y491860D01*
X835964Y491610D01*
X834725Y491156D01*
X833895Y491500D01*
X832105D01*
X830451Y490815D01*
X829185Y489549D01*
X828500Y487895D01*
Y486105D01*
X829185Y484451D01*
X830451Y483185D01*
X832105Y482500D01*
X833895D01*
X835549Y483185D01*
X836815Y484451D01*
X837402Y485867D01*
X837531Y486116D01*
X838770Y486571D01*
X839600Y486227D01*
X841390D01*
X843044Y486912D01*
X844310Y488178D01*
X844995Y489832D01*
Y491622D01*
X844310Y493276D01*
X843044Y494542D01*
X841390Y495227D01*
D02*
G37*
G36*
X910377Y487500D02*
X908587D01*
X906933Y486815D01*
X905667Y485549D01*
X904982Y483895D01*
Y482105D01*
X905667Y480451D01*
X906933Y479185D01*
X908587Y478500D01*
X910377D01*
X912031Y479185D01*
X913297Y480451D01*
X913982Y482105D01*
Y483895D01*
X913297Y485549D01*
X912031Y486815D01*
X910377Y487500D01*
D02*
G37*
G36*
X330895Y487000D02*
X329105D01*
X327451Y486315D01*
X326185Y485049D01*
X325500Y483395D01*
Y481605D01*
X326185Y479951D01*
X327451Y478685D01*
X329105Y478000D01*
X330895D01*
X332549Y478685D01*
X333815Y479951D01*
X334500Y481605D01*
Y483395D01*
X333815Y485049D01*
X332549Y486315D01*
X330895Y487000D01*
D02*
G37*
G36*
X1019895Y485500D02*
X1018105D01*
X1016451Y484815D01*
X1015185Y483549D01*
X1014500Y481895D01*
Y480105D01*
X1015185Y478451D01*
X1016451Y477185D01*
X1018105Y476500D01*
X1019895D01*
X1021549Y477185D01*
X1022815Y478451D01*
X1023500Y480105D01*
Y481895D01*
X1022815Y483549D01*
X1021549Y484815D01*
X1019895Y485500D01*
D02*
G37*
G36*
X783895Y487500D02*
X782105D01*
X780451Y486815D01*
X779185Y485549D01*
X778500Y483895D01*
Y482500D01*
X777105D01*
X775451Y481815D01*
X774185Y480549D01*
X773500Y478895D01*
Y477105D01*
X774185Y475451D01*
X775451Y474185D01*
X777105Y473500D01*
X778895D01*
X780549Y474185D01*
X781815Y475451D01*
X782500Y477105D01*
Y478500D01*
X783895D01*
X785549Y479185D01*
X786815Y480451D01*
X787500Y482105D01*
Y483895D01*
X786815Y485549D01*
X785549Y486815D01*
X783895Y487500D01*
D02*
G37*
G36*
X475895Y479500D02*
X474105D01*
X472451Y478815D01*
X471185Y477549D01*
X470500Y475895D01*
Y474105D01*
X471185Y472451D01*
X472451Y471185D01*
X474105Y470500D01*
X475895D01*
X477549Y471185D01*
X478815Y472451D01*
X479500Y474105D01*
Y475895D01*
X478815Y477549D01*
X477549Y478815D01*
X475895Y479500D01*
D02*
G37*
G36*
X922895Y475500D02*
X921105D01*
X919451Y474815D01*
X918185Y473549D01*
X917500Y471895D01*
Y470105D01*
X918185Y468451D01*
X919451Y467185D01*
X921105Y466500D01*
X922895D01*
X923477Y466741D01*
X924611Y465836D01*
X925185Y464451D01*
X926451Y463185D01*
X928105Y462500D01*
X929895D01*
X931549Y463185D01*
X932815Y464451D01*
X933449Y464187D01*
X933451Y464185D01*
X935105Y463500D01*
X936895D01*
X938549Y464185D01*
X939815Y465451D01*
X940500Y467105D01*
Y468895D01*
X939815Y470549D01*
X938549Y471815D01*
X936895Y472500D01*
X935105D01*
X933451Y471815D01*
X932185Y470549D01*
X931551Y470813D01*
X931549Y470815D01*
X929895Y471500D01*
X928105D01*
X927523Y471259D01*
X926389Y472164D01*
X925815Y473549D01*
X924549Y474815D01*
X922895Y475500D01*
D02*
G37*
G36*
X446895Y476500D02*
X445105D01*
X443451Y475815D01*
X442185Y474549D01*
X441500Y472895D01*
Y471904D01*
X440895Y471500D01*
X439105D01*
X437451Y470815D01*
X436185Y469549D01*
X435500Y467895D01*
Y466105D01*
X436185Y464451D01*
X437451Y463185D01*
X439105Y462500D01*
X440895D01*
X442549Y463185D01*
X443815Y464451D01*
X444500Y466105D01*
Y467096D01*
X445105Y467500D01*
X446895D01*
X448549Y468185D01*
X449815Y469451D01*
X450500Y471105D01*
Y472895D01*
X449815Y474549D01*
X448549Y475815D01*
X446895Y476500D01*
D02*
G37*
G36*
X985895Y470500D02*
X984105D01*
X982451Y469815D01*
X981185Y468549D01*
X980500Y466895D01*
Y465105D01*
X981185Y463451D01*
X982451Y462185D01*
X984105Y461500D01*
X985895D01*
X987549Y462185D01*
X988815Y463451D01*
X989500Y465105D01*
Y466895D01*
X988815Y468549D01*
X987549Y469815D01*
X985895Y470500D01*
D02*
G37*
G36*
X750895Y474500D02*
X749105D01*
X747451Y473815D01*
X746185Y472549D01*
X745500Y470895D01*
Y469105D01*
X746185Y467451D01*
X747451Y466185D01*
X749105Y465500D01*
X750895D01*
X751521Y465759D01*
X752500Y465105D01*
X753185Y463451D01*
X754451Y462185D01*
X756105Y461500D01*
X757895D01*
X759549Y462185D01*
X760815Y463451D01*
X761500Y465105D01*
Y466895D01*
X760815Y468549D01*
X759549Y469815D01*
X757895Y470500D01*
X756105D01*
X755479Y470241D01*
X754500Y470895D01*
X753815Y472549D01*
X752549Y473815D01*
X750895Y474500D01*
D02*
G37*
G36*
X879895Y466500D02*
X878105D01*
X876451Y465815D01*
X875185Y464549D01*
X874500Y462895D01*
Y461105D01*
X875185Y459451D01*
X876451Y458185D01*
X878105Y457500D01*
X879895D01*
X881549Y458185D01*
X882815Y459451D01*
X883500Y461105D01*
Y462895D01*
X882815Y464549D01*
X881549Y465815D01*
X879895Y466500D01*
D02*
G37*
G36*
X235995Y483143D02*
X234006D01*
X232168Y482382D01*
X230761Y480976D01*
X230000Y479138D01*
Y477149D01*
X230761Y475311D01*
X231599Y474473D01*
X232032Y473643D01*
X231599Y472814D01*
X230761Y471976D01*
X230000Y470138D01*
Y468149D01*
X230761Y466311D01*
X231944Y465128D01*
X230761Y463945D01*
X230000Y462107D01*
Y460118D01*
X230761Y458280D01*
X232168Y456874D01*
X234006Y456112D01*
X235995D01*
X237832Y456874D01*
X239239Y458280D01*
X240000Y460118D01*
Y462107D01*
X239239Y463945D01*
X238056Y465128D01*
X239239Y466311D01*
X240000Y468149D01*
Y470138D01*
X239239Y471976D01*
X238401Y472814D01*
X237968Y473643D01*
X238401Y474473D01*
X239239Y475311D01*
X240000Y477149D01*
Y479138D01*
X239239Y480976D01*
X237832Y482382D01*
X235995Y483143D01*
D02*
G37*
G36*
X826895Y463500D02*
X825105D01*
X823451Y462815D01*
X822185Y461549D01*
X821500Y459895D01*
Y458105D01*
X822185Y456451D01*
X823451Y455185D01*
X825105Y454500D01*
X826895D01*
X828549Y455185D01*
X829815Y456451D01*
X830500Y458105D01*
Y459895D01*
X829815Y461549D01*
X828549Y462815D01*
X826895Y463500D01*
D02*
G37*
G36*
X565895D02*
X564105D01*
X562451Y462815D01*
X561185Y461549D01*
X560500Y459895D01*
Y458105D01*
X561185Y456451D01*
X562451Y455185D01*
X564105Y454500D01*
X565895D01*
X567549Y455185D01*
X568815Y456451D01*
X569500Y458105D01*
Y459895D01*
X568815Y461549D01*
X567549Y462815D01*
X565895Y463500D01*
D02*
G37*
G36*
X423395Y462000D02*
X421605D01*
X419951Y461315D01*
X418685Y460049D01*
X418000Y458395D01*
Y457000D01*
X416605D01*
X414951Y456315D01*
X413685Y455049D01*
X413000Y453395D01*
Y451605D01*
X413685Y449951D01*
X414951Y448685D01*
X416605Y448000D01*
X418395D01*
X420049Y448685D01*
X421315Y449951D01*
X422000Y451605D01*
Y453000D01*
X423395D01*
X425049Y453685D01*
X426315Y454951D01*
X427000Y456605D01*
Y458395D01*
X426315Y460049D01*
X425049Y461315D01*
X423395Y462000D01*
D02*
G37*
G36*
X1038951Y462600D02*
X1036449D01*
X1034033Y461953D01*
X1031867Y460702D01*
X1030098Y458933D01*
X1028847Y456767D01*
X1028200Y454351D01*
Y451849D01*
X1028847Y449433D01*
X1030098Y447267D01*
X1031867Y445498D01*
X1034033Y444247D01*
X1036449Y443600D01*
X1038951D01*
X1041367Y444247D01*
X1043533Y445498D01*
X1045302Y447267D01*
X1046553Y449433D01*
X1047200Y451849D01*
Y454351D01*
X1046553Y456767D01*
X1045302Y458933D01*
X1043533Y460702D01*
X1041367Y461953D01*
X1038951Y462600D01*
D02*
G37*
G36*
X1013551D02*
X1011049D01*
X1008633Y461953D01*
X1006467Y460702D01*
X1004698Y458933D01*
X1003447Y456767D01*
X1002800Y454351D01*
Y451849D01*
X1003447Y449433D01*
X1004698Y447267D01*
X1006467Y445498D01*
X1008633Y444247D01*
X1011049Y443600D01*
X1013551D01*
X1015967Y444247D01*
X1018133Y445498D01*
X1019902Y447267D01*
X1021153Y449433D01*
X1021800Y451849D01*
Y454351D01*
X1021153Y456767D01*
X1019902Y458933D01*
X1018133Y460702D01*
X1015967Y461953D01*
X1013551Y462600D01*
D02*
G37*
G36*
X245895Y452000D02*
X244105D01*
X242451Y451315D01*
X241185Y450049D01*
X240500Y448395D01*
Y446605D01*
X241185Y444951D01*
X242451Y443685D01*
X244105Y443000D01*
X245895D01*
X247549Y443685D01*
X248815Y444951D01*
X249500Y446605D01*
Y448395D01*
X248815Y450049D01*
X247549Y451315D01*
X245895Y452000D01*
D02*
G37*
G36*
X986895Y449500D02*
X985105D01*
X983451Y448815D01*
X982185Y447549D01*
X981500Y445895D01*
Y444105D01*
X982185Y442451D01*
X983451Y441185D01*
X985105Y440500D01*
X986895D01*
X988549Y441185D01*
X989815Y442451D01*
X990500Y444105D01*
Y445895D01*
X989815Y447549D01*
X988549Y448815D01*
X986895Y449500D01*
D02*
G37*
G36*
X840895D02*
X839105D01*
X837451Y448815D01*
X836185Y447549D01*
X835500Y445895D01*
Y444105D01*
X836185Y442451D01*
X837451Y441185D01*
X839105Y440500D01*
X840895D01*
X842549Y441185D01*
X843815Y442451D01*
X844500Y444105D01*
Y445895D01*
X843815Y447549D01*
X842549Y448815D01*
X840895Y449500D01*
D02*
G37*
G36*
X997895Y448500D02*
X996105D01*
X994451Y447815D01*
X993185Y446549D01*
X992500Y444895D01*
Y443105D01*
X993185Y441451D01*
X994451Y440185D01*
X996105Y439500D01*
X997895D01*
X999549Y440185D01*
X1000815Y441451D01*
X1001500Y443105D01*
Y444895D01*
X1000815Y446549D01*
X999549Y447815D01*
X997895Y448500D01*
D02*
G37*
G36*
X900895Y447000D02*
X899105D01*
X897451Y446315D01*
X896185Y445049D01*
X895500Y443395D01*
Y441605D01*
X896185Y439951D01*
X897451Y438685D01*
X899105Y438000D01*
X900895D01*
X902549Y438685D01*
X903815Y439951D01*
X904500Y441605D01*
Y443395D01*
X903815Y445049D01*
X902549Y446315D01*
X900895Y447000D01*
D02*
G37*
G36*
X863395D02*
X861605D01*
X859951Y446315D01*
X858685Y445049D01*
X858000Y443395D01*
Y441605D01*
X858685Y439951D01*
X859951Y438685D01*
X861605Y438000D01*
X863395D01*
X865049Y438685D01*
X866315Y439951D01*
X867000Y441605D01*
Y443395D01*
X866315Y445049D01*
X865049Y446315D01*
X863395Y447000D01*
D02*
G37*
G36*
X605161Y449762D02*
X603371D01*
X601717Y449077D01*
X600451Y447811D01*
X599766Y446157D01*
Y444367D01*
X600451Y442713D01*
X601717Y441447D01*
X603371Y440762D01*
X605161D01*
X605572Y440932D01*
X606185Y439451D01*
X607451Y438185D01*
X609105Y437500D01*
X610895D01*
X612549Y438185D01*
X613815Y439451D01*
X614500Y441105D01*
Y442895D01*
X613815Y444549D01*
X612549Y445815D01*
X610895Y446500D01*
X609105D01*
X608694Y446330D01*
X608081Y447811D01*
X606815Y449077D01*
X605161Y449762D01*
D02*
G37*
G36*
X954895Y445500D02*
X953105D01*
X951451Y444815D01*
X950185Y443549D01*
X949500Y441895D01*
Y440105D01*
X950185Y438451D01*
X951451Y437185D01*
X953105Y436500D01*
X954895D01*
X956549Y437185D01*
X957815Y438451D01*
X958500Y440105D01*
Y441895D01*
X957815Y443549D01*
X956549Y444815D01*
X954895Y445500D01*
D02*
G37*
G36*
X562895Y442500D02*
X561105D01*
X559451Y441815D01*
X558185Y440549D01*
X557500Y438895D01*
Y437105D01*
X558185Y435451D01*
X558906Y434730D01*
X558921Y434541D01*
X558534Y433306D01*
X557350Y432815D01*
X556084Y431549D01*
X555398Y429895D01*
Y428105D01*
X556084Y426451D01*
X557350Y425185D01*
X559003Y424500D01*
X560794D01*
X562448Y425185D01*
X563713Y426451D01*
X564398Y428105D01*
Y429895D01*
X563713Y431549D01*
X562992Y432270D01*
X562977Y432459D01*
X563364Y433694D01*
X564549Y434185D01*
X565815Y435451D01*
X566500Y437105D01*
Y438895D01*
X565815Y440549D01*
X564549Y441815D01*
X562895Y442500D01*
D02*
G37*
G36*
X370072Y433101D02*
X368282D01*
X366628Y432416D01*
X365362Y431151D01*
X364677Y429497D01*
Y427706D01*
X365362Y426052D01*
X366628Y424787D01*
X368282Y424101D01*
X370072D01*
X371726Y424787D01*
X372992Y426052D01*
X373677Y427706D01*
Y429497D01*
X372992Y431151D01*
X371726Y432416D01*
X370072Y433101D01*
D02*
G37*
G36*
X893197Y467796D02*
X891407D01*
X889753Y467111D01*
X888487Y465845D01*
X887802Y464191D01*
Y462401D01*
X888487Y460747D01*
X889243Y459991D01*
Y458467D01*
X866651Y435875D01*
X835745D01*
X834574Y435642D01*
X833582Y434979D01*
X833582Y434979D01*
X820508Y421905D01*
X792737D01*
X791981Y422661D01*
X790327Y423346D01*
X789506D01*
X789154Y423909D01*
X788883Y424616D01*
X789500Y426105D01*
Y427895D01*
X788815Y429549D01*
X787549Y430815D01*
X785895Y431500D01*
X784105D01*
X782451Y430815D01*
X781185Y429549D01*
X780500Y427895D01*
Y426105D01*
X781185Y424451D01*
X782451Y423185D01*
X784105Y422500D01*
X784926D01*
X785278Y421937D01*
X785549Y421230D01*
X784932Y419741D01*
Y417951D01*
X785617Y416297D01*
X786883Y415031D01*
X788537Y414346D01*
X790327D01*
X791981Y415031D01*
X792737Y415787D01*
X820500D01*
Y414105D01*
X821185Y412451D01*
X822451Y411185D01*
X824105Y410500D01*
X825895D01*
X827549Y411185D01*
X828815Y412451D01*
X829500Y414105D01*
Y415895D01*
X828815Y417549D01*
X827549Y418815D01*
X827304Y420049D01*
X837012Y429757D01*
X867918D01*
X867918Y429757D01*
X869089Y429990D01*
X870081Y430653D01*
X894465Y455037D01*
X895128Y456030D01*
X895361Y457200D01*
X895361Y457200D01*
Y459991D01*
X896117Y460747D01*
X896802Y462401D01*
Y464191D01*
X896117Y465845D01*
X894851Y467111D01*
X893197Y467796D01*
D02*
G37*
G36*
X1038951Y437200D02*
X1036449D01*
X1034033Y436553D01*
X1031867Y435302D01*
X1030098Y433533D01*
X1028847Y431367D01*
X1028200Y428951D01*
Y426449D01*
X1028847Y424033D01*
X1030098Y421867D01*
X1031867Y420098D01*
X1034033Y418847D01*
X1036449Y418200D01*
X1038951D01*
X1041367Y418847D01*
X1043533Y420098D01*
X1045302Y421867D01*
X1046553Y424033D01*
X1047200Y426449D01*
Y428951D01*
X1046553Y431367D01*
X1045302Y433533D01*
X1043533Y435302D01*
X1041367Y436553D01*
X1038951Y437200D01*
D02*
G37*
G36*
X1013551D02*
X1011049D01*
X1008633Y436553D01*
X1006467Y435302D01*
X1004698Y433533D01*
X1003447Y431367D01*
X1002800Y428951D01*
Y426449D01*
X1003447Y424033D01*
X1004698Y421867D01*
X1006467Y420098D01*
X1008633Y418847D01*
X1011049Y418200D01*
X1013551D01*
X1015967Y418847D01*
X1018133Y420098D01*
X1019902Y421867D01*
X1021153Y424033D01*
X1021800Y426449D01*
Y428951D01*
X1021153Y431367D01*
X1019902Y433533D01*
X1018133Y435302D01*
X1015967Y436553D01*
X1013551Y437200D01*
D02*
G37*
G36*
X440895Y424500D02*
X439105D01*
X437451Y423815D01*
X436185Y422549D01*
X435500Y420895D01*
Y419105D01*
X436185Y417451D01*
X437451Y416185D01*
X439105Y415500D01*
X440895D01*
X442549Y416185D01*
X443815Y417451D01*
X444500Y419105D01*
Y420895D01*
X443815Y422549D01*
X442549Y423815D01*
X440895Y424500D01*
D02*
G37*
G36*
X565895Y422000D02*
X564105D01*
X562451Y421315D01*
X561185Y420049D01*
X560500Y418395D01*
Y416605D01*
X561185Y414951D01*
X562451Y413685D01*
X564105Y413000D01*
X565895D01*
X567549Y413685D01*
X568815Y414951D01*
X569500Y416605D01*
Y418395D01*
X568815Y420049D01*
X567549Y421315D01*
X565895Y422000D01*
D02*
G37*
G36*
X941895Y419500D02*
X940105D01*
X938451Y418815D01*
X937185Y417549D01*
X936500Y415895D01*
Y414105D01*
X937185Y412451D01*
X938451Y411185D01*
X940105Y410500D01*
X941895D01*
X943549Y411185D01*
X944815Y412451D01*
X945500Y414105D01*
Y415895D01*
X944815Y417549D01*
X943549Y418815D01*
X941895Y419500D01*
D02*
G37*
G36*
X363395Y414500D02*
X361605D01*
X359951Y413815D01*
X358685Y412549D01*
X358000Y410895D01*
Y409105D01*
X358685Y407451D01*
X359951Y406185D01*
X361605Y405500D01*
X363395D01*
X365049Y406185D01*
X366315Y407451D01*
X367000Y409105D01*
Y410895D01*
X366315Y412549D01*
X365049Y413815D01*
X363395Y414500D01*
D02*
G37*
G36*
X759895Y433500D02*
X758105D01*
X756451Y432815D01*
X755185Y431549D01*
X754500Y429895D01*
Y428105D01*
X755185Y426451D01*
X755113Y426089D01*
X754451Y425815D01*
X753185Y424549D01*
X752500Y422895D01*
Y421105D01*
X752679Y420673D01*
X751983Y419035D01*
X751451Y418815D01*
X750185Y417549D01*
X749500Y415895D01*
Y414105D01*
X750185Y412451D01*
X751451Y411185D01*
X753105Y410500D01*
X754096D01*
X754500Y409895D01*
Y408105D01*
X755185Y406451D01*
X756451Y405185D01*
X758105Y404500D01*
X759895D01*
X761549Y405185D01*
X762815Y406451D01*
X763500Y408105D01*
Y409895D01*
X762815Y411549D01*
X761549Y412815D01*
X759895Y413500D01*
X758904D01*
X758500Y414105D01*
Y415895D01*
X758321Y416327D01*
X759017Y417965D01*
X759549Y418185D01*
X760815Y419451D01*
X761500Y421105D01*
Y422895D01*
X761151Y423737D01*
X761549Y425185D01*
X762815Y426451D01*
X763500Y428105D01*
Y429895D01*
X762815Y431549D01*
X761549Y432815D01*
X759895Y433500D01*
D02*
G37*
G36*
X776895Y412500D02*
X775105D01*
X773451Y411815D01*
X772185Y410549D01*
X771500Y408895D01*
Y407105D01*
X772185Y405451D01*
X773451Y404185D01*
X775105Y403500D01*
X776895D01*
X778549Y404185D01*
X779815Y405451D01*
X780500Y407105D01*
Y408895D01*
X779815Y410549D01*
X778549Y411815D01*
X776895Y412500D01*
D02*
G37*
G36*
X791895Y411500D02*
X790105D01*
X788451Y410815D01*
X787185Y409549D01*
X786500Y407895D01*
Y406105D01*
X787185Y404451D01*
X788451Y403185D01*
X790105Y402500D01*
X791895D01*
X793549Y403185D01*
X794815Y404451D01*
X795500Y406105D01*
Y407895D01*
X794815Y409549D01*
X793549Y410815D01*
X791895Y411500D01*
D02*
G37*
G36*
X863395Y407000D02*
X861605D01*
X859951Y406315D01*
X858685Y405049D01*
X858000Y403395D01*
Y401605D01*
X858685Y399951D01*
X859951Y398685D01*
X861605Y398000D01*
X863395D01*
X865049Y398685D01*
X866315Y399951D01*
X867000Y401605D01*
Y403395D01*
X866315Y405049D01*
X865049Y406315D01*
X863395Y407000D01*
D02*
G37*
G36*
X1038951Y411800D02*
X1036449D01*
X1034033Y411152D01*
X1031867Y409902D01*
X1030098Y408133D01*
X1028847Y405967D01*
X1028200Y403551D01*
Y401049D01*
X1028847Y398633D01*
X1030098Y396467D01*
X1031867Y394698D01*
X1034033Y393447D01*
X1036449Y392800D01*
X1038951D01*
X1041367Y393447D01*
X1043533Y394698D01*
X1045302Y396467D01*
X1046553Y398633D01*
X1047200Y401049D01*
Y403551D01*
X1046553Y405967D01*
X1045302Y408133D01*
X1043533Y409902D01*
X1041367Y411152D01*
X1038951Y411800D01*
D02*
G37*
G36*
X1013551D02*
X1011049D01*
X1008633Y411152D01*
X1006467Y409902D01*
X1004698Y408133D01*
X1003447Y405967D01*
X1002800Y403551D01*
Y401049D01*
X1003447Y398633D01*
X1004698Y396467D01*
X1006467Y394698D01*
X1008633Y393447D01*
X1011049Y392800D01*
X1013551D01*
X1015967Y393447D01*
X1018133Y394698D01*
X1019902Y396467D01*
X1021153Y398633D01*
X1021800Y401049D01*
Y403551D01*
X1021153Y405967D01*
X1019902Y408133D01*
X1018133Y409902D01*
X1015967Y411152D01*
X1013551Y411800D01*
D02*
G37*
G36*
X925895Y399500D02*
X924105D01*
X922451Y398815D01*
X921185Y397549D01*
X920500Y395895D01*
Y394105D01*
X921185Y392451D01*
X922451Y391185D01*
X924105Y390500D01*
X925895D01*
X927549Y391185D01*
X928815Y392451D01*
X929500Y394105D01*
Y395895D01*
X928815Y397549D01*
X927549Y398815D01*
X925895Y399500D01*
D02*
G37*
G36*
X762895Y390500D02*
X761105D01*
X759451Y389815D01*
X758185Y388549D01*
X757500Y386895D01*
Y386800D01*
X756230Y386547D01*
X755815Y387549D01*
X754549Y388815D01*
X752895Y389500D01*
X751105D01*
X749451Y388815D01*
X748185Y387549D01*
X747876Y387488D01*
X747549Y387815D01*
X745895Y388500D01*
X744105D01*
X742451Y387815D01*
X741830Y387194D01*
X741000Y386667D01*
X740170Y387194D01*
X739549Y387815D01*
X737895Y388500D01*
X736105D01*
X734451Y387815D01*
X733185Y386549D01*
X732551Y386813D01*
X732549Y386815D01*
X730895Y387500D01*
X729105D01*
X727451Y386815D01*
X726185Y385549D01*
X725500Y383895D01*
Y382105D01*
X726185Y380451D01*
X727451Y379185D01*
X729105Y378500D01*
X730895D01*
X732549Y379185D01*
X733815Y380451D01*
X734449Y380187D01*
X734451Y380185D01*
X736105Y379500D01*
X737895D01*
X739549Y380185D01*
X740170Y380806D01*
X741000Y381333D01*
X741830Y380806D01*
X742451Y380185D01*
X744105Y379500D01*
X745895D01*
X747549Y380185D01*
X748815Y381451D01*
X749124Y381512D01*
X749451Y381185D01*
X751105Y380500D01*
X752895D01*
X754549Y381185D01*
X755815Y382451D01*
X756500Y384105D01*
Y384201D01*
X757770Y384453D01*
X758185Y383451D01*
X759451Y382185D01*
X761105Y381500D01*
X762895D01*
X764549Y382185D01*
X765815Y383451D01*
X766500Y385105D01*
Y386895D01*
X765815Y388549D01*
X764549Y389815D01*
X762895Y390500D01*
D02*
G37*
G36*
X836000Y397588D02*
X835557Y397500D01*
X835105D01*
X834688Y397327D01*
X834244Y397239D01*
X833868Y396988D01*
X833451Y396815D01*
X833131Y396495D01*
X832756Y396244D01*
X824756Y388244D01*
X823761Y386756D01*
X823412Y385000D01*
Y383015D01*
X822356Y382309D01*
X821895Y382500D01*
X820105D01*
X818451Y381815D01*
X817185Y380549D01*
X816500Y378895D01*
Y377105D01*
X817185Y375451D01*
X818451Y374185D01*
X820105Y373500D01*
X821895D01*
X822356Y373691D01*
X823412Y372985D01*
Y342401D01*
X815600Y334588D01*
X808901D01*
X782244Y361244D01*
X780756Y362239D01*
X779000Y362588D01*
X766000D01*
X764244Y362239D01*
X762756Y361244D01*
X754256Y352744D01*
X753261Y351256D01*
X752912Y349500D01*
Y337500D01*
X753000Y337057D01*
Y336605D01*
X753173Y336187D01*
X753261Y335744D01*
X753512Y335368D01*
X753685Y334951D01*
X754005Y334632D01*
X754256Y334256D01*
X754632Y334005D01*
X754951Y333685D01*
X755368Y333512D01*
X755744Y333261D01*
X756187Y333173D01*
X756605Y333000D01*
X757057D01*
X757500Y332912D01*
X757943Y333000D01*
X758395D01*
X758813Y333173D01*
X759256Y333261D01*
X759632Y333512D01*
X760049Y333685D01*
X760369Y334005D01*
X760744Y334256D01*
X760995Y334632D01*
X761315Y334951D01*
X761488Y335368D01*
X761739Y335744D01*
X761827Y336187D01*
X762000Y336605D01*
Y337057D01*
X762088Y337500D01*
Y347599D01*
X764179Y349690D01*
X764782Y349629D01*
X765500Y349215D01*
Y349105D01*
X765673Y348688D01*
X765761Y348244D01*
X766012Y347868D01*
X766185Y347451D01*
X766505Y347132D01*
X766756Y346756D01*
X767756Y345756D01*
X769244Y344761D01*
X771000Y344412D01*
X775099D01*
X799756Y319756D01*
X801244Y318761D01*
X803000Y318412D01*
X822000D01*
X823756Y318761D01*
X825244Y319756D01*
X838244Y332756D01*
X839239Y334244D01*
X839588Y336000D01*
Y350000D01*
X839500Y350443D01*
Y350895D01*
X839327Y351313D01*
X839239Y351756D01*
X838988Y352132D01*
X838815Y352549D01*
X838495Y352869D01*
X838244Y353244D01*
X837869Y353495D01*
X837549Y353815D01*
X837132Y353988D01*
X836756Y354239D01*
X836313Y354327D01*
X835895Y354500D01*
X835443D01*
X835000Y354588D01*
X834557Y354500D01*
X834105D01*
X833858Y354398D01*
X833362Y354589D01*
X832702Y355120D01*
X832588Y355305D01*
Y370988D01*
X833858Y371240D01*
X834185Y370451D01*
X835451Y369185D01*
X837105Y368500D01*
X838895D01*
X840549Y369185D01*
X840551Y369187D01*
X841185Y369451D01*
X842451Y368185D01*
X844105Y367500D01*
X845895D01*
X847549Y368185D01*
X848815Y369451D01*
X849500Y371105D01*
Y372895D01*
X848815Y374549D01*
X847549Y375815D01*
X845895Y376500D01*
X844105D01*
X842451Y375815D01*
X842449Y375813D01*
X841815Y375549D01*
X840549Y376815D01*
X838895Y377500D01*
X837105D01*
X835451Y376815D01*
X834185Y375549D01*
X833858Y374760D01*
X832588Y375012D01*
Y383100D01*
X839244Y389756D01*
X839495Y390131D01*
X839815Y390451D01*
X839988Y390868D01*
X840239Y391244D01*
X840327Y391688D01*
X840500Y392105D01*
Y392557D01*
X840588Y393000D01*
X840500Y393443D01*
Y393895D01*
X840327Y394313D01*
X840239Y394756D01*
X839988Y395132D01*
X839815Y395549D01*
X839495Y395869D01*
X839244Y396244D01*
X838869Y396495D01*
X838549Y396815D01*
X838132Y396988D01*
X837756Y397239D01*
X837312Y397327D01*
X836895Y397500D01*
X836443D01*
X836000Y397588D01*
D02*
G37*
G36*
X457895Y389500D02*
X456105D01*
X454451Y388815D01*
X453185Y387549D01*
X452500Y385895D01*
Y384105D01*
X453185Y382451D01*
X454451Y381185D01*
X456105Y380500D01*
X457895D01*
X459549Y381185D01*
X460815Y382451D01*
X461500Y384105D01*
Y385895D01*
X460815Y387549D01*
X459549Y388815D01*
X457895Y389500D01*
D02*
G37*
G36*
X942895Y388500D02*
X941105D01*
X939451Y387815D01*
X938185Y386549D01*
X937500Y384895D01*
Y383105D01*
X938185Y381451D01*
X939451Y380185D01*
X941105Y379500D01*
X942895D01*
X944549Y380185D01*
X945815Y381451D01*
X946500Y383105D01*
Y384895D01*
X945815Y386549D01*
X944549Y387815D01*
X942895Y388500D01*
D02*
G37*
G36*
X676895D02*
X675105D01*
X673451Y387815D01*
X672185Y386549D01*
X671500Y384895D01*
Y383105D01*
X672185Y381451D01*
X673451Y380185D01*
X675105Y379500D01*
X676895D01*
X678549Y380185D01*
X678551Y380187D01*
X679185Y380451D01*
X680451Y379185D01*
X682105Y378500D01*
X683895D01*
X685549Y379185D01*
X686815Y380451D01*
X687500Y382105D01*
Y383895D01*
X686815Y385549D01*
X685549Y386815D01*
X683895Y387500D01*
X682105D01*
X680451Y386815D01*
X680449Y386813D01*
X679815Y386549D01*
X678549Y387815D01*
X676895Y388500D01*
D02*
G37*
G36*
X1038951Y386400D02*
X1038700D01*
Y377900D01*
X1047200D01*
Y378151D01*
X1046553Y380567D01*
X1045302Y382733D01*
X1043533Y384502D01*
X1041367Y385752D01*
X1038951Y386400D01*
D02*
G37*
G36*
X1036700D02*
X1036449D01*
X1034033Y385752D01*
X1031867Y384502D01*
X1030098Y382733D01*
X1028847Y380567D01*
X1028200Y378151D01*
Y377900D01*
X1036700D01*
Y386400D01*
D02*
G37*
G36*
X929895Y381500D02*
X928105D01*
X926451Y380815D01*
X925185Y379549D01*
X924500Y377895D01*
Y376105D01*
X925185Y374451D01*
X926451Y373185D01*
X928105Y372500D01*
X929895D01*
X931549Y373185D01*
X932815Y374451D01*
X933500Y376105D01*
Y377895D01*
X932815Y379549D01*
X931549Y380815D01*
X929895Y381500D01*
D02*
G37*
G36*
X667895D02*
X666105D01*
X664451Y380815D01*
X663185Y379549D01*
X662500Y377895D01*
Y376105D01*
X663185Y374451D01*
X664451Y373185D01*
X666105Y372500D01*
X667895D01*
X669549Y373185D01*
X670815Y374451D01*
X671500Y376105D01*
Y377895D01*
X670815Y379549D01*
X669549Y380815D01*
X667895Y381500D01*
D02*
G37*
G36*
X399084Y376589D02*
X397294D01*
X395640Y375904D01*
X394374Y374638D01*
X393689Y372984D01*
Y371194D01*
X394374Y369540D01*
X395640Y368274D01*
X397294Y367589D01*
X399084D01*
X400738Y368274D01*
X402004Y369540D01*
X402689Y371194D01*
Y372984D01*
X402004Y374638D01*
X400738Y375904D01*
X399084Y376589D01*
D02*
G37*
G36*
X1047200Y375900D02*
X1038700D01*
Y367400D01*
X1038951D01*
X1041367Y368047D01*
X1043533Y369298D01*
X1045302Y371067D01*
X1046553Y373233D01*
X1047200Y375649D01*
Y375900D01*
D02*
G37*
G36*
X1036700D02*
X1028200D01*
Y375649D01*
X1028847Y373233D01*
X1030098Y371067D01*
X1031867Y369298D01*
X1034033Y368047D01*
X1036449Y367400D01*
X1036700D01*
Y375900D01*
D02*
G37*
G36*
X1021800Y386400D02*
X1002800D01*
Y367400D01*
X1021800D01*
Y386400D01*
D02*
G37*
G36*
X916895Y375500D02*
X915105D01*
X913451Y374815D01*
X912185Y373549D01*
X911500Y371895D01*
Y370105D01*
X912185Y368451D01*
X913451Y367185D01*
X915105Y366500D01*
X916895D01*
X918549Y367185D01*
X919815Y368451D01*
X920500Y370105D01*
Y371895D01*
X919815Y373549D01*
X918549Y374815D01*
X916895Y375500D01*
D02*
G37*
G36*
X900895Y362000D02*
X899105D01*
X897451Y361315D01*
X896185Y360049D01*
X895500Y358395D01*
Y356605D01*
X896185Y354951D01*
X897451Y353685D01*
X899105Y353000D01*
X900895D01*
X902549Y353685D01*
X903815Y354951D01*
X904500Y356605D01*
Y358395D01*
X903815Y360049D01*
X902549Y361315D01*
X900895Y362000D01*
D02*
G37*
G36*
X606895Y366500D02*
X605105D01*
X603451Y365815D01*
X602185Y364549D01*
X601500Y362895D01*
Y361105D01*
X602185Y359451D01*
X603326Y358311D01*
X603452Y358101D01*
X603475Y356800D01*
X602685Y356011D01*
X602000Y354357D01*
Y352567D01*
X602685Y350913D01*
X603951Y349647D01*
X605605Y348962D01*
X607395D01*
X609049Y349647D01*
X610315Y350913D01*
X611000Y352567D01*
Y354357D01*
X610315Y356011D01*
X609174Y357151D01*
X609048Y357361D01*
X609025Y358661D01*
X609815Y359451D01*
X610500Y361105D01*
Y362895D01*
X609815Y364549D01*
X608549Y365815D01*
X606895Y366500D01*
D02*
G37*
G36*
X638395Y351472D02*
X636605D01*
X634951Y350787D01*
X633685Y349521D01*
X633000Y347867D01*
Y346077D01*
X633685Y344422D01*
X634951Y343157D01*
X636605Y342472D01*
X638395D01*
X640049Y343157D01*
X641315Y344422D01*
X642000Y346077D01*
Y347867D01*
X641315Y349521D01*
X640049Y350787D01*
X638395Y351472D01*
D02*
G37*
G36*
X929808Y348587D02*
X928017D01*
X926364Y347902D01*
X925098Y346637D01*
X924413Y344983D01*
Y343192D01*
X925098Y341539D01*
X926364Y340273D01*
X928017Y339588D01*
X929808D01*
X931461Y340273D01*
X932727Y341539D01*
X933412Y343192D01*
Y344983D01*
X932727Y346637D01*
X931461Y347902D01*
X929808Y348587D01*
D02*
G37*
G36*
X968395Y347000D02*
X966605D01*
X964951Y346315D01*
X963685Y345049D01*
X963000Y343395D01*
Y341605D01*
X963685Y339951D01*
X964951Y338685D01*
X966605Y338000D01*
X968395D01*
X970049Y338685D01*
X971315Y339951D01*
X972000Y341605D01*
Y343395D01*
X971315Y345049D01*
X970049Y346315D01*
X968395Y347000D01*
D02*
G37*
G36*
X990895Y344500D02*
X989105D01*
X987451Y343815D01*
X986185Y342549D01*
X985500Y340895D01*
Y339105D01*
X986185Y337451D01*
X987451Y336185D01*
X989105Y335500D01*
X990895D01*
X992549Y336185D01*
X993815Y337451D01*
X994500Y339105D01*
Y340895D01*
X993815Y342549D01*
X992549Y343815D01*
X990895Y344500D01*
D02*
G37*
G36*
X299895D02*
X298105D01*
X296451Y343815D01*
X295185Y342549D01*
X294500Y340895D01*
Y339105D01*
X295185Y337451D01*
X296451Y336185D01*
X298105Y335500D01*
X299895D01*
X301549Y336185D01*
X302815Y337451D01*
X303500Y339105D01*
Y340895D01*
X302815Y342549D01*
X301549Y343815D01*
X299895Y344500D01*
D02*
G37*
G36*
X773895Y341500D02*
X772105D01*
X770451Y340815D01*
X769185Y339549D01*
X768500Y337895D01*
Y336105D01*
X769185Y334451D01*
X770451Y333185D01*
X772105Y332500D01*
X773895D01*
X775549Y333185D01*
X776815Y334451D01*
X777500Y336105D01*
Y337895D01*
X776815Y339549D01*
X775549Y340815D01*
X773895Y341500D01*
D02*
G37*
G36*
X670895D02*
X669105D01*
X667451Y340815D01*
X666185Y339549D01*
X665500Y337895D01*
Y336105D01*
X666185Y334451D01*
X667451Y333185D01*
X669105Y332500D01*
X670895D01*
X672549Y333185D01*
X673815Y334451D01*
X674500Y336105D01*
Y337895D01*
X673815Y339549D01*
X672549Y340815D01*
X670895Y341500D01*
D02*
G37*
G36*
X410895Y337000D02*
X409105D01*
X407451Y336315D01*
X406185Y335049D01*
X405500Y333395D01*
Y331605D01*
X406185Y329951D01*
X407451Y328685D01*
X409105Y328000D01*
X410895D01*
X412549Y328685D01*
X413815Y329951D01*
X414500Y331605D01*
Y333395D01*
X413815Y335049D01*
X412549Y336315D01*
X410895Y337000D01*
D02*
G37*
G36*
X648895Y340500D02*
X647105D01*
X645451Y339815D01*
X644185Y338549D01*
X643500Y336895D01*
Y335105D01*
X644185Y333451D01*
X645451Y332185D01*
X646572Y331721D01*
X646947Y330381D01*
X646936Y330300D01*
X646185Y329549D01*
X645500Y327895D01*
Y326105D01*
X646185Y324451D01*
X647451Y323185D01*
X649105Y322500D01*
X650895D01*
X652549Y323185D01*
X653815Y324451D01*
X654500Y326105D01*
Y327895D01*
X653815Y329549D01*
X652549Y330815D01*
X651428Y331279D01*
X651053Y332619D01*
X651064Y332700D01*
X651815Y333451D01*
X652500Y335105D01*
Y336895D01*
X651815Y338549D01*
X650549Y339815D01*
X648895Y340500D01*
D02*
G37*
G36*
X606895Y331500D02*
X605105D01*
X603451Y330815D01*
X602185Y329549D01*
X601500Y327895D01*
Y326105D01*
X602185Y324451D01*
X603451Y323185D01*
X605105Y322500D01*
X606895D01*
X608549Y323185D01*
X609815Y324451D01*
X610500Y326105D01*
Y327895D01*
X609815Y329549D01*
X608549Y330815D01*
X606895Y331500D01*
D02*
G37*
G36*
X566895Y351785D02*
X565105D01*
X563451Y351100D01*
X562185Y349834D01*
X561500Y348181D01*
Y346390D01*
X562185Y344736D01*
X563451Y343470D01*
X565105Y342785D01*
X566895D01*
X568549Y343470D01*
X569028Y343949D01*
X570149Y344435D01*
X570687Y343949D01*
X571451Y343185D01*
X571493Y343167D01*
X572185Y342549D01*
X571500Y340895D01*
Y339105D01*
X572185Y337451D01*
X571857Y335983D01*
X571451Y335815D01*
X570185Y334549D01*
X569500Y332895D01*
Y331105D01*
X570185Y329451D01*
X569493Y328833D01*
X569451Y328815D01*
X568185Y327549D01*
X567500Y325895D01*
Y324105D01*
X568185Y322451D01*
X569451Y321185D01*
X571105Y320500D01*
X572895D01*
X574549Y321185D01*
X575815Y322451D01*
X576500Y324105D01*
Y325895D01*
X575815Y327549D01*
X576507Y328167D01*
X576549Y328185D01*
X577815Y329451D01*
X578500Y331105D01*
Y332895D01*
X577815Y334549D01*
X578143Y336017D01*
X578549Y336185D01*
X579815Y337451D01*
X580500Y339105D01*
Y340895D01*
X579815Y342549D01*
X578549Y343815D01*
X578507Y343833D01*
X577815Y344451D01*
X578500Y346105D01*
Y347895D01*
X577815Y349549D01*
X576549Y350815D01*
X574895Y351500D01*
X573105D01*
X571451Y350815D01*
X570972Y350336D01*
X569851Y349850D01*
X569313Y350336D01*
X568549Y351100D01*
X566895Y351785D01*
D02*
G37*
G36*
X299895Y328500D02*
X298105D01*
X296451Y327815D01*
X295185Y326549D01*
X294500Y324895D01*
Y323105D01*
X295185Y321451D01*
X296451Y320185D01*
X298105Y319500D01*
X299895D01*
X301549Y320185D01*
X302815Y321451D01*
X303500Y323105D01*
Y324895D01*
X302815Y326549D01*
X301549Y327815D01*
X299895Y328500D01*
D02*
G37*
G36*
X584895Y327500D02*
X583105D01*
X581451Y326815D01*
X580185Y325549D01*
X579500Y323895D01*
Y322105D01*
X580185Y320451D01*
X581451Y319185D01*
X583105Y318500D01*
X584895D01*
X586549Y319185D01*
X587815Y320451D01*
X588500Y322105D01*
Y323895D01*
X587815Y325549D01*
X586549Y326815D01*
X584895Y327500D01*
D02*
G37*
G36*
X1040495Y319500D02*
X1038505D01*
X1036668Y318739D01*
X1035261Y317332D01*
X1034500Y315495D01*
Y313505D01*
X1035261Y311668D01*
X1036668Y310261D01*
X1038505Y309500D01*
X1040495D01*
X1042332Y310261D01*
X1043739Y311668D01*
X1044500Y313505D01*
Y315495D01*
X1043739Y317332D01*
X1042332Y318739D01*
X1040495Y319500D01*
D02*
G37*
G36*
X743395Y318000D02*
X741605D01*
X739951Y317315D01*
X738685Y316049D01*
X738000Y314395D01*
Y312605D01*
X738685Y310951D01*
X739951Y309685D01*
X741605Y309000D01*
X743395D01*
X745049Y309685D01*
X746315Y310951D01*
X747000Y312605D01*
Y314395D01*
X746315Y316049D01*
X745049Y317315D01*
X743395Y318000D01*
D02*
G37*
G36*
X900995Y315000D02*
X899005D01*
X897168Y314239D01*
X895761Y312832D01*
X895000Y310995D01*
Y309005D01*
X895761Y307168D01*
X897168Y305761D01*
X899005Y305000D01*
X900995D01*
X902832Y305761D01*
X904239Y307168D01*
X905000Y309005D01*
Y310995D01*
X904239Y312832D01*
X902832Y314239D01*
X900995Y315000D01*
D02*
G37*
G36*
X885995D02*
X884005D01*
X882168Y314239D01*
X880761Y312832D01*
X880000Y310995D01*
Y309005D01*
X880761Y307168D01*
X882168Y305761D01*
X884005Y305000D01*
X885995D01*
X887832Y305761D01*
X889239Y307168D01*
X890000Y309005D01*
Y310995D01*
X889239Y312832D01*
X887832Y314239D01*
X885995Y315000D01*
D02*
G37*
G36*
X870995D02*
X869006D01*
X867168Y314239D01*
X865761Y312832D01*
X865000Y310995D01*
Y309005D01*
X865761Y307168D01*
X867168Y305761D01*
X869006Y305000D01*
X870995D01*
X872832Y305761D01*
X874239Y307168D01*
X875000Y309005D01*
Y310995D01*
X874239Y312832D01*
X872832Y314239D01*
X870995Y315000D01*
D02*
G37*
G36*
X690895Y309500D02*
X689105D01*
X687451Y308815D01*
X686185Y307549D01*
X685500Y305895D01*
Y304105D01*
X686185Y302451D01*
X687451Y301185D01*
X689105Y300500D01*
X690895D01*
X692549Y301185D01*
X693815Y302451D01*
X694500Y304105D01*
Y305895D01*
X693815Y307549D01*
X692549Y308815D01*
X690895Y309500D01*
D02*
G37*
G36*
X374895D02*
X373105D01*
X371451Y308815D01*
X370185Y307549D01*
X369500Y305895D01*
Y304105D01*
X370185Y302451D01*
X371451Y301185D01*
X373105Y300500D01*
X374895D01*
X376549Y301185D01*
X377815Y302451D01*
X378500Y304105D01*
Y305895D01*
X377815Y307549D01*
X376549Y308815D01*
X374895Y309500D01*
D02*
G37*
G36*
X713395D02*
X711605D01*
X709951Y308815D01*
X708685Y307549D01*
X708000Y305895D01*
Y304105D01*
X708685Y302451D01*
X709951Y301185D01*
X711605Y300500D01*
X713395D01*
X715049Y301185D01*
X716315Y302451D01*
X716827Y303687D01*
X718000Y303395D01*
X718000Y302601D01*
Y301605D01*
X718685Y299951D01*
X719951Y298685D01*
X721605Y298000D01*
X723395D01*
X725049Y298685D01*
X726315Y299951D01*
X727000Y301605D01*
Y303395D01*
X726315Y305049D01*
X725049Y306315D01*
X723395Y307000D01*
X721605D01*
X719951Y306315D01*
X718685Y305049D01*
X718173Y303813D01*
X717000Y304105D01*
X717000Y304899D01*
Y305895D01*
X716315Y307549D01*
X715049Y308815D01*
X713395Y309500D01*
D02*
G37*
G36*
X299595Y305200D02*
X297805D01*
X296151Y304515D01*
X294885Y303249D01*
X294200Y301595D01*
Y299805D01*
X294885Y298151D01*
X296151Y296885D01*
X297805Y296200D01*
X299595D01*
X301249Y296885D01*
X302515Y298151D01*
X303200Y299805D01*
Y301595D01*
X302515Y303249D01*
X301249Y304515D01*
X299595Y305200D01*
D02*
G37*
G36*
X922194Y304000D02*
X919807D01*
X917601Y303086D01*
X915913Y301399D01*
X915000Y299193D01*
Y296807D01*
X915913Y294601D01*
X917601Y292913D01*
X919807Y292000D01*
X922194D01*
X924399Y292913D01*
X926087Y294601D01*
X927000Y296807D01*
Y299193D01*
X926087Y301399D01*
X924399Y303086D01*
X922194Y304000D01*
D02*
G37*
G36*
X757561Y300664D02*
X755771D01*
X754117Y299979D01*
X752851Y298713D01*
X752166Y297059D01*
Y295269D01*
X752851Y293615D01*
X754117Y292349D01*
X755771Y291664D01*
X757561D01*
X759215Y292349D01*
X760481Y293615D01*
X761166Y295269D01*
Y297059D01*
X760481Y298713D01*
X759215Y299979D01*
X757561Y300664D01*
D02*
G37*
G36*
X900995Y300000D02*
X899005D01*
X897168Y299239D01*
X895761Y297832D01*
X895000Y295995D01*
Y294005D01*
X895761Y292168D01*
X897168Y290761D01*
X899005Y290000D01*
X900995D01*
X902832Y290761D01*
X904239Y292168D01*
X905000Y294005D01*
Y295995D01*
X904239Y297832D01*
X902832Y299239D01*
X900995Y300000D01*
D02*
G37*
G36*
X840995D02*
X839005D01*
X837168Y299239D01*
X835761Y297832D01*
X835000Y295995D01*
Y294005D01*
X835761Y292168D01*
X837168Y290761D01*
X839005Y290000D01*
X840995D01*
X842832Y290761D01*
X844239Y292168D01*
X845000Y294005D01*
Y295995D01*
X844239Y297832D01*
X842832Y299239D01*
X840995Y300000D01*
D02*
G37*
G36*
X299595Y289200D02*
X297805D01*
X296151Y288515D01*
X294885Y287249D01*
X294200Y285595D01*
Y283805D01*
X294885Y282151D01*
X296151Y280885D01*
X297805Y280200D01*
X299595D01*
X301249Y280885D01*
X302515Y282151D01*
X303200Y283805D01*
Y285595D01*
X302515Y287249D01*
X301249Y288515D01*
X299595Y289200D01*
D02*
G37*
G36*
X670895Y284500D02*
X669105D01*
X667451Y283815D01*
X666185Y282549D01*
X665500Y280895D01*
Y279105D01*
X666185Y277451D01*
X667451Y276185D01*
X669105Y275500D01*
X670895D01*
X672549Y276185D01*
X673815Y277451D01*
X674500Y279105D01*
Y280895D01*
X673815Y282549D01*
X672549Y283815D01*
X670895Y284500D01*
D02*
G37*
G36*
X900995Y285000D02*
X899005D01*
X897168Y284239D01*
X895761Y282832D01*
X895000Y280995D01*
Y279005D01*
X895761Y277168D01*
X897168Y275761D01*
X899005Y275000D01*
X900995D01*
X902832Y275761D01*
X904239Y277168D01*
X905000Y279005D01*
Y280995D01*
X904239Y282832D01*
X902832Y284239D01*
X900995Y285000D01*
D02*
G37*
G36*
X840995D02*
X839005D01*
X837168Y284239D01*
X835761Y282832D01*
X835000Y280995D01*
Y279005D01*
X835761Y277168D01*
X837168Y275761D01*
X839005Y275000D01*
X840995D01*
X842832Y275761D01*
X844239Y277168D01*
X845000Y279005D01*
Y280995D01*
X844239Y282832D01*
X842832Y284239D01*
X840995Y285000D01*
D02*
G37*
G36*
X885995Y280000D02*
X884005D01*
X882168Y279239D01*
X880761Y277832D01*
X880000Y275995D01*
Y274005D01*
X880761Y272168D01*
X882168Y270761D01*
X884005Y270000D01*
X885995D01*
X887832Y270761D01*
X889239Y272168D01*
X890000Y274005D01*
Y275995D01*
X889239Y277832D01*
X887832Y279239D01*
X885995Y280000D01*
D02*
G37*
G36*
X855995D02*
X854005D01*
X852168Y279239D01*
X850761Y277832D01*
X850000Y275995D01*
Y274005D01*
X850761Y272168D01*
X852168Y270761D01*
X854005Y270000D01*
X855995D01*
X857832Y270761D01*
X859239Y272168D01*
X860000Y274005D01*
Y275995D01*
X859239Y277832D01*
X857832Y279239D01*
X855995Y280000D01*
D02*
G37*
G36*
X870995Y270000D02*
X869006D01*
X867168Y269239D01*
X865761Y267832D01*
X865000Y265995D01*
Y264005D01*
X865761Y262168D01*
X867168Y260761D01*
X869006Y260000D01*
X870995D01*
X872832Y260761D01*
X874239Y262168D01*
X875000Y264005D01*
Y265995D01*
X874239Y267832D01*
X872832Y269239D01*
X870995Y270000D01*
D02*
G37*
G36*
X840995D02*
X839005D01*
X837168Y269239D01*
X835761Y267832D01*
X835000Y265995D01*
Y264005D01*
X835761Y262168D01*
X837168Y260761D01*
X839005Y260000D01*
X840995D01*
X842832Y260761D01*
X844239Y262168D01*
X845000Y264005D01*
Y265995D01*
X844239Y267832D01*
X842832Y269239D01*
X840995Y270000D01*
D02*
G37*
G36*
X916193Y271000D02*
X913807D01*
X911601Y270087D01*
X909913Y268399D01*
X909000Y266194D01*
Y263806D01*
X909913Y261601D01*
X911601Y259914D01*
X913807Y259000D01*
X916193D01*
X918399Y259914D01*
X920087Y261601D01*
X921000Y263806D01*
Y266194D01*
X920087Y268399D01*
X918399Y270087D01*
X916193Y271000D01*
D02*
G37*
G36*
X628694D02*
X626306D01*
X624101Y270087D01*
X622413Y268399D01*
X621500Y266194D01*
Y263806D01*
X622413Y261601D01*
X624101Y259914D01*
X626306Y259000D01*
X628694D01*
X630899Y259914D01*
X632587Y261601D01*
X633500Y263806D01*
Y266194D01*
X632587Y268399D01*
X630899Y270087D01*
X628694Y271000D01*
D02*
G37*
G36*
X967768Y270575D02*
X965381D01*
X963176Y269662D01*
X961488Y267974D01*
X960575Y265769D01*
Y263382D01*
X961488Y261176D01*
X963176Y259489D01*
X965381Y258575D01*
X967768D01*
X969974Y259489D01*
X971662Y261176D01*
X972575Y263382D01*
Y265769D01*
X971662Y267974D01*
X969974Y269662D01*
X967768Y270575D01*
D02*
G37*
G36*
X300595Y266200D02*
X298805D01*
X297151Y265515D01*
X295885Y264249D01*
X295200Y262595D01*
Y260805D01*
X295885Y259151D01*
X297151Y257885D01*
X298805Y257200D01*
X300595D01*
X302249Y257885D01*
X303515Y259151D01*
X304200Y260805D01*
Y262595D01*
X303515Y264249D01*
X302249Y265515D01*
X300595Y266200D01*
D02*
G37*
G36*
X885995Y265000D02*
X884005D01*
X882168Y264239D01*
X880761Y262832D01*
X880000Y260995D01*
Y259005D01*
X880761Y257168D01*
X882168Y255761D01*
X884005Y255000D01*
X885995D01*
X887832Y255761D01*
X889239Y257168D01*
X890000Y259005D01*
Y260995D01*
X889239Y262832D01*
X887832Y264239D01*
X885995Y265000D01*
D02*
G37*
G36*
X803395Y259500D02*
X801605D01*
X799951Y258815D01*
X798685Y257549D01*
X798000Y255895D01*
Y254105D01*
X798685Y252451D01*
X799951Y251185D01*
X801605Y250500D01*
X803395D01*
X805049Y251185D01*
X806315Y252451D01*
X807000Y254105D01*
Y255895D01*
X806315Y257549D01*
X805049Y258815D01*
X803395Y259500D01*
D02*
G37*
G36*
X855995Y260000D02*
X854005D01*
X852168Y259239D01*
X850761Y257832D01*
X850000Y255995D01*
Y254005D01*
X850761Y252168D01*
X852168Y250761D01*
X854005Y250000D01*
X855995D01*
X857832Y250761D01*
X859239Y252168D01*
X860000Y254005D01*
Y255995D01*
X859239Y257832D01*
X857832Y259239D01*
X855995Y260000D01*
D02*
G37*
G36*
X700595Y231700D02*
X698805D01*
X697151Y231015D01*
X695885Y229749D01*
X695200Y228095D01*
Y226305D01*
X695885Y224651D01*
X697151Y223385D01*
X698805Y222700D01*
X700595D01*
X702249Y223385D01*
X703515Y224651D01*
X704200Y226305D01*
Y228095D01*
X703515Y229749D01*
X702249Y231015D01*
X700595Y231700D01*
D02*
G37*
G36*
X361194Y221000D02*
X358806D01*
X356601Y220087D01*
X354913Y218399D01*
X354000Y216194D01*
Y213806D01*
X354913Y211601D01*
X356601Y209913D01*
X358806Y209000D01*
X361194D01*
X363399Y209913D01*
X365087Y211601D01*
X366000Y213806D01*
Y216194D01*
X365087Y218399D01*
X363399Y220087D01*
X361194Y221000D01*
D02*
G37*
G36*
X341194D02*
X338806D01*
X336601Y220087D01*
X334913Y218399D01*
X334000Y216194D01*
Y213806D01*
X334913Y211601D01*
X336601Y209913D01*
X338806Y209000D01*
X341194D01*
X343399Y209913D01*
X345087Y211601D01*
X346000Y213806D01*
Y216194D01*
X345087Y218399D01*
X343399Y220087D01*
X341194Y221000D01*
D02*
G37*
%LPD*%
G36*
X668507Y607766D02*
X668532Y607561D01*
X668575Y607359D01*
X668637Y607159D01*
X668717Y606963D01*
X668814Y606769D01*
X668931Y606579D01*
X669065Y606392D01*
X669217Y606208D01*
X669388Y606026D01*
X667974Y604612D01*
X667793Y604783D01*
X667608Y604935D01*
X667421Y605069D01*
X667231Y605186D01*
X667037Y605283D01*
X666841Y605363D01*
X666641Y605425D01*
X666439Y605468D01*
X666234Y605493D01*
X666025Y605500D01*
X668500Y607975D01*
X668507Y607766D01*
D02*
G37*
G36*
X689208Y519217D02*
X689392Y519065D01*
X689579Y518931D01*
X689769Y518815D01*
X689963Y518717D01*
X690159Y518637D01*
X690359Y518575D01*
X690561Y518532D01*
X690767Y518507D01*
X690975Y518500D01*
X688500Y516025D01*
X688493Y516233D01*
X688468Y516439D01*
X688425Y516642D01*
X688363Y516841D01*
X688283Y517037D01*
X688186Y517231D01*
X688069Y517421D01*
X687935Y517608D01*
X687783Y517793D01*
X687612Y517974D01*
X689026Y519388D01*
X689208Y519217D01*
D02*
G37*
G36*
X893910Y461358D02*
X893782Y461195D01*
X893670Y461021D01*
X893572Y460837D01*
X893490Y460642D01*
X893422Y460436D01*
X893370Y460219D01*
X893332Y459992D01*
X893309Y459753D01*
X893302Y459505D01*
X891302D01*
X891294Y459753D01*
X891272Y459992D01*
X891235Y460219D01*
X891182Y460436D01*
X891115Y460642D01*
X891032Y460837D01*
X890935Y461021D01*
X890822Y461195D01*
X890695Y461358D01*
X890552Y461511D01*
X894052D01*
X893910Y461358D01*
D02*
G37*
G36*
X791370Y420453D02*
X791533Y420326D01*
X791707Y420214D01*
X791891Y420116D01*
X792086Y420033D01*
X792292Y419966D01*
X792509Y419913D01*
X792736Y419876D01*
X792974Y419854D01*
X793223Y419846D01*
Y417846D01*
X792974Y417839D01*
X792736Y417816D01*
X792509Y417779D01*
X792292Y417726D01*
X792086Y417659D01*
X791891Y417576D01*
X791707Y417478D01*
X791533Y417366D01*
X791370Y417239D01*
X791217Y417096D01*
Y420596D01*
X791370Y420453D01*
D02*
G37*
D12*
X892048Y463042D02*
X892302Y462788D01*
Y457200D02*
Y462788D01*
X867918Y432816D02*
X892302Y457200D01*
X821775Y418846D02*
X835745Y432816D01*
X789432Y418846D02*
X821775D01*
X835745Y432816D02*
X867918D01*
X666000Y608000D02*
X679000Y595000D01*
Y528000D02*
Y595000D01*
Y528000D02*
X691000Y516000D01*
D48*
X1012300Y402300D02*
D03*
X1037700Y376900D02*
D03*
Y427700D02*
D03*
X1012300D02*
D03*
X1037700Y402300D02*
D03*
X1012300Y453100D02*
D03*
X1037700D02*
D03*
X740000Y715000D02*
D03*
Y695000D02*
D03*
X720000Y715000D02*
D03*
Y695000D02*
D03*
X700000Y715000D02*
D03*
Y695000D02*
D03*
X680000Y715000D02*
D03*
Y695000D02*
D03*
X660000Y715000D02*
D03*
X1039000Y649200D02*
D03*
Y623800D02*
D03*
Y725400D02*
D03*
Y700000D02*
D03*
Y674600D02*
D03*
X615000Y715000D02*
D03*
Y695000D02*
D03*
X595000Y715000D02*
D03*
Y695000D02*
D03*
X575000Y715000D02*
D03*
Y695000D02*
D03*
X555000Y715000D02*
D03*
Y695000D02*
D03*
X535000Y715000D02*
D03*
D80*
X828000Y340500D02*
Y385000D01*
X836000Y393000D01*
X817500Y330000D02*
X828000Y340500D01*
X835000Y336000D02*
Y350000D01*
X822000Y323000D02*
X835000Y336000D01*
X803000Y323000D02*
X822000D01*
X770000Y350000D02*
X771000Y349000D01*
X777000D01*
X803000Y323000D01*
X807000Y330000D02*
X817500D01*
X779000Y358000D02*
X807000Y330000D01*
X766000Y358000D02*
X779000D01*
X757500Y349500D02*
X766000Y358000D01*
X757500Y337500D02*
Y349500D01*
D85*
X1012300Y376900D02*
D03*
D86*
X660000Y695000D02*
D03*
X1039000Y598400D02*
D03*
X535000Y695000D02*
D03*
D87*
X840000Y445000D02*
D03*
X852000D02*
D03*
X892302Y463296D02*
D03*
X789432Y418846D02*
D03*
X604266Y445262D02*
D03*
X756666Y296164D02*
D03*
X475000Y475000D02*
D03*
X1014000Y647000D02*
D03*
X831500Y557006D02*
D03*
X858000Y425000D02*
D03*
X888500Y635000D02*
D03*
X864000Y722000D02*
D03*
X971000Y621000D02*
D03*
X863000Y653000D02*
D03*
X605000Y668000D02*
D03*
X704000Y565000D02*
D03*
X615000Y302000D02*
D03*
X635000D02*
D03*
X1001000Y634000D02*
D03*
X862500Y442500D02*
D03*
X875000Y603750D02*
D03*
X592000Y564000D02*
D03*
X586389Y656389D02*
D03*
X490000Y710000D02*
D03*
X623000Y627000D02*
D03*
X450000Y705000D02*
D03*
X840495Y490727D02*
D03*
X823598Y500500D02*
D03*
X833000Y487000D02*
D03*
X745000Y636000D02*
D03*
X856000Y668000D02*
D03*
X717500Y222500D02*
D03*
X825000Y415000D02*
D03*
X1019000Y481000D02*
D03*
X770000Y350000D02*
D03*
X820000Y635000D02*
D03*
X559898Y429000D02*
D03*
X852000Y399000D02*
D03*
X610000Y442000D02*
D03*
X773000Y337000D02*
D03*
X584000Y323000D02*
D03*
X606000Y362000D02*
D03*
X606500Y353462D02*
D03*
X790000Y555000D02*
D03*
X786870Y548739D02*
D03*
X791000Y542000D02*
D03*
X795000Y504000D02*
D03*
Y497000D02*
D03*
X824250Y536235D02*
D03*
X858000Y513000D02*
D03*
X936000Y468000D02*
D03*
X929000Y467000D02*
D03*
X922000Y471000D02*
D03*
X909482Y483000D02*
D03*
X879000Y462000D02*
D03*
X819757Y479757D02*
D03*
X821722Y465722D02*
D03*
X821000Y494000D02*
D03*
X865000Y518500D02*
D03*
X722500Y302500D02*
D03*
X712500Y305000D02*
D03*
X699700Y227200D02*
D03*
X708981Y224414D02*
D03*
X802500Y255000D02*
D03*
X737500Y277500D02*
D03*
X785000Y300000D02*
D03*
X800000D02*
D03*
X417500Y452500D02*
D03*
X990000Y340000D02*
D03*
X1042500Y270000D02*
D03*
Y292500D02*
D03*
Y357500D02*
D03*
X967500Y342500D02*
D03*
X773500Y597018D02*
D03*
X784757Y591243D02*
D03*
X690000Y635000D02*
D03*
X712500D02*
D03*
X687500Y660000D02*
D03*
X642500Y612500D02*
D03*
Y627500D02*
D03*
X650000Y605000D02*
D03*
X700000Y607500D02*
D03*
X670000Y657500D02*
D03*
X702500Y642500D02*
D03*
X730000Y677500D02*
D03*
X830000Y697500D02*
D03*
X755000Y692500D02*
D03*
X754558Y672558D02*
D03*
X812500Y687500D02*
D03*
X412500Y577500D02*
D03*
X410000Y332500D02*
D03*
X398189Y372089D02*
D03*
X600000Y600000D02*
D03*
Y593000D02*
D03*
Y586000D02*
D03*
X298700Y696700D02*
D03*
Y680700D02*
D03*
X300000Y660000D02*
D03*
X758000Y565000D02*
D03*
X736000Y563000D02*
D03*
X743000D02*
D03*
X699000Y591000D02*
D03*
X695000Y561000D02*
D03*
X711000Y562000D02*
D03*
X688000Y564000D02*
D03*
X580000Y669000D02*
D03*
X594000Y630000D02*
D03*
X627000Y558000D02*
D03*
X635000D02*
D03*
X643000Y560000D02*
D03*
X606000Y327000D02*
D03*
X640000Y376000D02*
D03*
X619000Y374500D02*
D03*
X644000Y351000D02*
D03*
X650000Y327000D02*
D03*
X703000Y351000D02*
D03*
X687000Y350000D02*
D03*
X705000Y306000D02*
D03*
X742500Y313500D02*
D03*
X765000Y306000D02*
D03*
X780000D02*
D03*
X702000Y374000D02*
D03*
X689000D02*
D03*
X637500Y346972D02*
D03*
X374000Y305000D02*
D03*
X299700Y261700D02*
D03*
X298700Y284700D02*
D03*
Y300700D02*
D03*
X299000Y324000D02*
D03*
Y340000D02*
D03*
X725000D02*
D03*
X670000Y337000D02*
D03*
X616000Y344000D02*
D03*
X330000Y482500D02*
D03*
X299700Y641700D02*
D03*
X528000Y420000D02*
D03*
Y437500D02*
D03*
X572000Y423000D02*
D03*
X247877Y555725D02*
D03*
X301000Y581000D02*
D03*
Y534000D02*
D03*
X562500Y538000D02*
D03*
X570000Y539000D02*
D03*
X604000Y537500D02*
D03*
X572500Y505000D02*
D03*
X604000Y502500D02*
D03*
Y482500D02*
D03*
X245000Y447500D02*
D03*
X793000Y529000D02*
D03*
X354861Y509861D02*
D03*
X368000Y510000D02*
D03*
X562500Y505000D02*
D03*
X440000Y420000D02*
D03*
X527500Y462000D02*
D03*
X575000Y459000D02*
D03*
X577500Y471000D02*
D03*
X604000Y467500D02*
D03*
Y456052D02*
D03*
X362500Y410000D02*
D03*
X369177Y428601D02*
D03*
X442500Y502500D02*
D03*
X430000Y497500D02*
D03*
X361250Y568450D02*
D03*
X397500Y635000D02*
D03*
X315000Y627500D02*
D03*
X552500Y570000D02*
D03*
X565000Y417500D02*
D03*
X773000Y604000D02*
D03*
X847500Y332500D02*
D03*
X832500Y322500D02*
D03*
X835000Y350000D02*
D03*
X817500Y330000D02*
D03*
X802500Y350000D02*
D03*
X817500Y360000D02*
D03*
X822000Y452000D02*
D03*
X820000Y432000D02*
D03*
X847000Y393000D02*
D03*
X867000Y461000D02*
D03*
X847000Y484000D02*
D03*
X864000Y511000D02*
D03*
X676000Y384000D02*
D03*
X683000Y383000D02*
D03*
X574000Y347000D02*
D03*
X576000Y340000D02*
D03*
X574000Y332000D02*
D03*
X572000Y325000D02*
D03*
X566000Y347285D02*
D03*
X612000Y600000D02*
D03*
X655000Y590000D02*
D03*
X658989Y564500D02*
D03*
X437000Y547000D02*
D03*
X457000Y385000D02*
D03*
X754000Y415000D02*
D03*
X700000Y522000D02*
D03*
X422500Y457500D02*
D03*
X789000Y516000D02*
D03*
X565000Y459000D02*
D03*
X778000Y478000D02*
D03*
X783000Y483000D02*
D03*
X791000Y407000D02*
D03*
X667000Y377000D02*
D03*
X655000D02*
D03*
X529719Y503000D02*
D03*
X762000Y386000D02*
D03*
X752000Y385000D02*
D03*
X745000Y384000D02*
D03*
X737000D02*
D03*
X730000Y383000D02*
D03*
X690000Y305000D02*
D03*
X624603Y656039D02*
D03*
X785000Y427000D02*
D03*
X900000Y442500D02*
D03*
X942000Y384000D02*
D03*
X440000Y467000D02*
D03*
X826000Y459000D02*
D03*
X670000Y280000D02*
D03*
X465000Y503000D02*
D03*
X788000Y523000D02*
D03*
X691000Y516000D02*
D03*
X666000Y608000D02*
D03*
X862500Y402500D02*
D03*
X790000Y509000D02*
D03*
X872500Y542500D02*
D03*
X867500Y537500D02*
D03*
X921565Y524000D02*
D03*
X757000Y466000D02*
D03*
Y422000D02*
D03*
X773000Y529000D02*
D03*
X446000Y472000D02*
D03*
X526000Y560000D02*
D03*
X935000Y497500D02*
D03*
X740000Y539000D02*
D03*
X860000Y535000D02*
D03*
X436038Y567428D02*
D03*
X943824Y497162D02*
D03*
X795000Y453000D02*
D03*
X952500Y497500D02*
D03*
X562000Y438000D02*
D03*
X900000Y357500D02*
D03*
X759000Y409000D02*
D03*
Y429000D02*
D03*
X795000Y469000D02*
D03*
X455000Y533000D02*
D03*
X526611Y540611D02*
D03*
X795000Y426000D02*
D03*
X527000Y510000D02*
D03*
X776000Y408000D02*
D03*
X648000Y336000D02*
D03*
X779000Y638000D02*
D03*
X858000Y392000D02*
D03*
X625000Y522500D02*
D03*
X995000Y415000D02*
D03*
X708000Y522000D02*
D03*
X972500Y467500D02*
D03*
X630000Y515000D02*
D03*
X734000Y523000D02*
D03*
X995000Y375000D02*
D03*
X795979Y536010D02*
D03*
X995000Y395000D02*
D03*
X974000Y445000D02*
D03*
X925000Y395000D02*
D03*
X821000Y378000D02*
D03*
X836000Y393000D02*
D03*
X750000Y470000D02*
D03*
X653990Y226490D02*
D03*
X685139Y227639D02*
D03*
X680000Y240000D02*
D03*
Y257500D02*
D03*
X675000Y305000D02*
D03*
X660000D02*
D03*
X583550Y313550D02*
D03*
X775000Y565000D02*
D03*
X670493Y595493D02*
D03*
X670000Y564500D02*
D03*
X662500Y665000D02*
D03*
X757500Y337500D02*
D03*
X815000Y612500D02*
D03*
X600000D02*
D03*
X997000Y444000D02*
D03*
X957000Y519000D02*
D03*
X959000Y340000D02*
D03*
X928000Y314000D02*
D03*
X947000D02*
D03*
X928913Y344087D02*
D03*
X929000Y377000D02*
D03*
X916000Y371000D02*
D03*
X954000Y441000D02*
D03*
X941000Y415000D02*
D03*
X985000Y466000D02*
D03*
X986000Y445000D02*
D03*
X838000Y373000D02*
D03*
X845000Y372000D02*
D03*
X1034000Y524000D02*
D03*
X1030143Y502857D02*
D03*
X1045000Y472000D02*
D03*
X972000Y501000D02*
D03*
X965000Y500000D02*
D03*
X976000Y508000D02*
D03*
D88*
X235000Y478143D02*
D03*
X892000Y668000D02*
D03*
X921000Y701000D02*
D03*
X975000Y727000D02*
D03*
X1011000Y662000D02*
D03*
X847000Y552000D02*
D03*
X997000Y567000D02*
D03*
X800000Y639000D02*
D03*
X980000Y300000D02*
D03*
Y310000D02*
D03*
X990000Y300000D02*
D03*
Y310000D02*
D03*
X950000Y340000D02*
D03*
X1010000Y480000D02*
D03*
X990000Y520000D02*
D03*
X1030000Y570000D02*
D03*
X925000Y635000D02*
D03*
X920000Y510000D02*
D03*
X960000Y570000D02*
D03*
X940000Y580000D02*
D03*
X920000Y570000D02*
D03*
X819000Y623000D02*
D03*
Y666000D02*
D03*
X810000Y640000D02*
D03*
X790000Y650000D02*
D03*
X770000Y636000D02*
D03*
X550000Y650000D02*
D03*
Y660000D02*
D03*
X510000Y680000D02*
D03*
X460000Y700000D02*
D03*
Y670000D02*
D03*
X430000D02*
D03*
X460000Y640000D02*
D03*
X430000D02*
D03*
X530000Y590000D02*
D03*
X510000Y570000D02*
D03*
X490000Y590000D02*
D03*
X460000Y570000D02*
D03*
X440000Y590000D02*
D03*
X770000Y470000D02*
D03*
X790000Y490000D02*
D03*
Y480000D02*
D03*
X780000Y500000D02*
D03*
X770000Y520000D02*
D03*
X760000Y550000D02*
D03*
X810000Y580000D02*
D03*
X640000Y460000D02*
D03*
Y490000D02*
D03*
X620000Y450000D02*
D03*
Y470000D02*
D03*
Y500000D02*
D03*
X740000Y450000D02*
D03*
Y470000D02*
D03*
Y490000D02*
D03*
X720000Y510000D02*
D03*
X700000D02*
D03*
X680000D02*
D03*
X660000D02*
D03*
Y490000D02*
D03*
Y470000D02*
D03*
Y450000D02*
D03*
X680000D02*
D03*
X480000Y440000D02*
D03*
X500000Y420000D02*
D03*
X570000Y310000D02*
D03*
X540000D02*
D03*
X510000Y290000D02*
D03*
X480000Y260000D02*
D03*
X470000Y210000D02*
D03*
X550000D02*
D03*
X680000Y290000D02*
D03*
Y270000D02*
D03*
X800000Y230000D02*
D03*
X820000D02*
D03*
X890000Y210000D02*
D03*
X920000D02*
D03*
X950000D02*
D03*
X1010000D02*
D03*
X980000D02*
D03*
X1040000D02*
D03*
X922000Y720000D02*
D03*
X920000Y730000D02*
D03*
X870000D02*
D03*
Y670000D02*
D03*
Y660000D02*
D03*
Y680000D02*
D03*
X810000Y730000D02*
D03*
X710000D02*
D03*
X630000D02*
D03*
X570000D02*
D03*
X510000D02*
D03*
X460000D02*
D03*
X410000D02*
D03*
X360000D02*
D03*
X310000D02*
D03*
X260000D02*
D03*
X210000D02*
D03*
X240000Y700000D02*
D03*
X220000D02*
D03*
X210000Y690000D02*
D03*
X340000Y617500D02*
D03*
X365000D02*
D03*
Y635000D02*
D03*
X386000Y593000D02*
D03*
X397500Y567500D02*
D03*
X387500Y462500D02*
D03*
X322500Y495000D02*
D03*
X357500Y492500D02*
D03*
X250000Y470000D02*
D03*
X365000Y397500D02*
D03*
X382500Y342500D02*
D03*
X397500Y330000D02*
D03*
X322500Y370000D02*
D03*
X357500Y372500D02*
D03*
X297500Y207500D02*
D03*
X247500D02*
D03*
X227500Y227500D02*
D03*
X207500Y207500D02*
D03*
X280000Y220000D02*
D03*
X310000Y232500D02*
D03*
X207500Y245000D02*
D03*
X217500D02*
D03*
X227500D02*
D03*
X235000Y252500D02*
D03*
Y262500D02*
D03*
X340000Y242500D02*
D03*
X357000Y251000D02*
D03*
X325000Y252500D02*
D03*
X535000Y257500D02*
D03*
X525000Y270000D02*
D03*
X512500D02*
D03*
X502500Y257500D02*
D03*
X587500Y220000D02*
D03*
X612500Y210000D02*
D03*
Y225000D02*
D03*
X640000Y215000D02*
D03*
Y227500D02*
D03*
X885000Y260000D02*
D03*
X900000Y280000D02*
D03*
X855000Y255000D02*
D03*
X870000Y265000D02*
D03*
X885000Y275000D02*
D03*
X855000D02*
D03*
X840000Y265000D02*
D03*
Y280000D02*
D03*
Y295000D02*
D03*
X900000D02*
D03*
Y310000D02*
D03*
X885000D02*
D03*
X870000D02*
D03*
X1039500Y314500D02*
D03*
X235000Y461112D02*
D03*
Y469143D02*
D03*
X998000Y616000D02*
D03*
X1002010Y578868D02*
D03*
X1032000Y512000D02*
D03*
X1010000Y611000D02*
D03*
X940000Y612000D02*
D03*
X1040000Y581000D02*
D03*
X1015000Y726000D02*
D03*
X935000Y727000D02*
D03*
X233000Y685000D02*
D03*
Y676000D02*
D03*
X232000Y276000D02*
D03*
D89*
X966575Y264575D02*
D03*
X921000Y298000D02*
D03*
X915000Y265000D02*
D03*
X627500D02*
D03*
X340000Y215000D02*
D03*
X360000D02*
D03*
M02*
