*
%FSLAX26Y26*%
%MOIN*%
%ADD10C,0.007874*%
%ADD11C,0.011811*%
%ADD12C,0.043307*%
%ADD13C,0.080709*%
%ADD14C,0.031496*%
%IPPOS*%
%LNdrl*%
%LPD*%
G75*
G54D10*
X511811Y425197D03*
X519685Y480315D03*
X515748Y539370D03*
X496063Y598425D03*
X519685Y661417D03*
X716150Y853362D03*
X727961Y873047D03*
X736220Y893701D03*
X295276Y838583D03*
X842520Y830709D03*
X915354Y807087D03*
X925197Y708661D03*
X901575D03*
X948819Y700787D03*
X980315Y641732D03*
X905512Y594488D03*
X921260Y543307D03*
X1043307Y716535D03*
X1062992Y732283D03*
X1043307Y751969D03*
X1059055Y771654D03*
X1043307Y791339D03*
X1027559Y807087D03*
X1023622Y830709D03*
Y854331D03*
X1003937Y866142D03*
X984941Y850394D03*
X968504Y866142D03*
X948819Y909449D03*
X1055118D03*
X1196850Y799213D03*
X1192913Y692913D03*
X1173228Y677165D03*
X1145669Y681102D03*
X1427165Y698819D03*
Y639764D03*
X1437008Y590551D03*
X1407480D03*
X1526575Y592520D03*
X1573701Y591579D03*
X1598425Y598425D03*
X1645669D03*
X1692913Y600394D03*
X1740157Y598425D03*
X1787402D03*
X1838583Y688976D03*
X1787402Y763780D03*
X1740157D03*
X1711614Y762795D03*
X1692555Y790839D03*
X1641732Y814961D03*
Y850394D03*
X1559055Y842520D03*
X1575787Y788386D03*
X1598425Y766732D03*
X1539370Y771654D03*
X1527559Y700787D03*
X1525394Y657480D03*
X1574803Y637795D03*
X1555118Y531496D03*
X1653543Y425197D03*
X1685039Y397638D03*
X1653543Y326772D03*
X1539370Y287402D03*
X1460630D03*
X1348425Y374016D03*
X1354331Y429134D03*
X1240157Y472441D03*
Y374016D03*
Y324803D03*
X1401575Y775591D03*
X1418307Y848425D03*
X1453740D03*
X1498031Y895630D03*
X1766732Y853346D03*
X1795276Y877953D03*
X1881890Y826772D03*
X2046110Y759697D03*
X2129921Y759843D03*
X2016583Y700642D03*
X1921260Y523622D03*
X1819732Y464421D03*
X1692913Y688976D03*
X1645669Y728346D03*
X2251969Y905512D03*
X2303858Y883701D03*
X2440945Y905512D03*
X2470472D03*
Y807087D03*
X2391732D03*
X2529528Y777559D03*
Y925197D03*
X2500000D03*
X2559055D03*
X2450787Y1003937D03*
X2472441Y1094488D03*
X2476378Y1153543D03*
X2578740Y1151575D03*
Y1200787D03*
X2688976Y1220472D03*
X2673862Y1245205D03*
X2712598Y1279528D03*
X2673228Y1318898D03*
X2616976Y1419146D03*
X2469339Y1448673D03*
X2417323Y1228346D03*
X2688976Y1173228D03*
X2767717Y1216535D03*
X2779528Y1106299D03*
X2716535Y1070866D03*
X2764614Y1488043D03*
X2484252Y1893701D03*
Y1921260D03*
Y1948819D03*
Y1980315D03*
X2448819Y2003937D03*
X2450787Y1938976D03*
X2519685D03*
Y2003937D03*
X2370079Y1885827D03*
X2228346Y1909449D03*
X2098425Y1940945D03*
X2062992Y1956693D03*
Y1988189D03*
X2027559Y2003937D03*
Y1938976D03*
X2062992Y1917323D03*
Y1889764D03*
X1948819Y1879921D03*
X1814961Y1913386D03*
X1653543Y1944882D03*
X1618110Y1956693D03*
Y1925197D03*
Y1897638D03*
X1582677Y1944882D03*
Y2011811D03*
X1618110Y1988189D03*
X1653543Y2011811D03*
X1496063Y1889764D03*
X1358268Y1913386D03*
X1318898Y1663386D03*
X1279528Y1643701D03*
X1259843Y1618110D03*
X1275591Y1598425D03*
X1240157Y1570866D03*
X1216535D03*
X1192913D03*
X1110236Y1531496D03*
X944882D03*
X1011811Y1456693D03*
X1035433Y1405512D03*
X1051181Y1334646D03*
X1070866Y1346457D03*
X1090551Y1362205D03*
X1118110Y1366142D03*
X1137795Y1342520D03*
X1153543Y1326772D03*
X1169291Y1311024D03*
X1185039Y1295276D03*
X1204724Y1283465D03*
X1267717Y1318898D03*
X1251969Y1354331D03*
X1271654Y1377953D03*
X1303150D03*
X1354331Y1413386D03*
X1413386Y1475394D03*
X1440945Y1448819D03*
X1468504Y1452756D03*
X1460630Y1429134D03*
X1466535Y1305157D03*
X1403543Y1305118D03*
Y1273661D03*
X1372028Y1273642D03*
X1338583Y1271654D03*
X1340571Y1242106D03*
X1340551Y1210630D03*
Y1179134D03*
Y1147638D03*
X1340531Y1084626D03*
X1340571Y1021673D03*
Y990177D03*
X1341535Y959646D03*
X1373031D03*
X1404024Y959197D03*
X1435079Y958661D03*
X1466535D03*
Y990157D03*
Y1021654D03*
Y1053150D03*
X1498031D03*
Y1021654D03*
X1529508Y1021634D03*
X1561024Y1021654D03*
Y990157D03*
X1560039Y959646D03*
X1592520Y958661D03*
X1591535Y928150D03*
X1624016Y927165D03*
X1655512Y958661D03*
X1687028Y958642D03*
X1749961Y958661D03*
X1750020Y990177D03*
X1718504Y990157D03*
X1750000Y1021693D03*
X1718543Y1053150D03*
X1718504Y1116102D03*
Y1147598D03*
Y1179134D03*
X1718484Y1210650D03*
X1718524Y1242106D03*
X1787402Y1279528D03*
X1846457Y1275591D03*
X1918157Y1301035D03*
X2000000Y1248228D03*
X2094488Y1263780D03*
X2129921Y1119094D03*
X2149606Y1039370D03*
X2145669Y1015748D03*
X2204724Y992126D03*
X2248031Y1031496D03*
X2271654Y1078740D03*
X2311024Y1051181D03*
X2273622Y1240157D03*
X2283465Y1338583D03*
X2253937D03*
X2287402Y1405512D03*
X2251969Y1437008D03*
X2269685Y1553150D03*
X2075638Y1576626D03*
X1901575Y1598425D03*
X1787402Y1496063D03*
X1763780Y1377953D03*
X1787402Y1354331D03*
X1624016Y1336614D03*
Y1305157D03*
X1592520Y1305118D03*
X1561043Y1305138D03*
Y1336634D03*
X1592520Y1336614D03*
Y1242087D03*
Y1210630D03*
Y1179134D03*
Y1147638D03*
X1561024D03*
Y1116142D03*
X1591535D03*
X1592520Y1084646D03*
X1561024D03*
Y1053150D03*
X1592520D03*
Y1021654D03*
X1624016D03*
Y1053150D03*
X1655492Y1053169D03*
X1624016Y1084646D03*
X1624035Y1116161D03*
X1624016Y1147638D03*
X1624035Y1179154D03*
X1624016Y1210630D03*
X1561024D03*
Y1179134D03*
X1498031D03*
Y1147638D03*
X1466535D03*
Y1179134D03*
X1435039D03*
Y1210630D03*
X1466535D03*
X1466516Y1242106D03*
X1498031Y1210630D03*
X1529547Y1242146D03*
X1529528Y1146654D03*
Y1116142D03*
X1466535Y1084646D03*
X1435039D03*
Y1053150D03*
Y1021654D03*
X1498031Y990157D03*
X1500000Y960630D03*
X1498012Y927146D03*
X1529547D03*
X1403583Y927165D03*
X1435039Y1147638D03*
X1271654Y1130906D03*
X1188976D03*
Y1082677D03*
X1204724Y1066929D03*
X1149606Y1070866D03*
X1141732Y1039370D03*
X1169291Y1094488D03*
X1070866Y1123031D03*
X1076772Y1155512D03*
X1097441Y1175197D03*
X1125984Y1185039D03*
X984252Y1133858D03*
X929134Y1200787D03*
X854331Y1251969D03*
X913386Y1007874D03*
X925197Y960630D03*
X964567Y956693D03*
X1031496Y960630D03*
X1102362Y956693D03*
X1655512Y1116181D03*
X1749980Y1116161D03*
X1750020Y1147657D03*
Y1084665D03*
X1811024Y1082677D03*
X1929134Y1122047D03*
X1948819Y992126D03*
X2041339Y1035433D03*
X2082677Y940945D03*
X2125984Y1413386D03*
X1988189Y1440945D03*
X1618110D03*
X1688976Y1559055D03*
X1240157Y1673228D03*
X925197Y1771654D03*
X933071Y1980315D03*
X777362Y1683071D03*
X2098425Y2003937D03*
X712598Y1862205D03*
X692913Y1838583D03*
X673228Y1822835D03*
X515748Y1807087D03*
X496063Y1850394D03*
X437008Y1897638D03*
X456693Y1940945D03*
X476378Y1984252D03*
X511811Y1681102D03*
X519685Y1527559D03*
X640748Y1640748D03*
X673228Y1271654D03*
X692913Y1283465D03*
X712598Y1271654D03*
Y1173228D03*
X692913Y1157480D03*
X673228Y1173228D03*
X511811Y1220472D03*
X293307Y1124016D03*
X234252Y1170276D03*
G54D11*
X177165Y265748D03*
X196850Y334646D03*
X147638D03*
X167323Y364173D03*
X127953Y383858D03*
X125984Y437008D03*
X393701Y324803D03*
X364173Y265748D03*
X580709D03*
X570866Y385827D03*
X625984Y354331D03*
X685039Y389764D03*
X718504Y679134D03*
X639764Y826772D03*
X578740Y779528D03*
X551181Y866142D03*
X795276Y531496D03*
X980315Y704724D03*
X1023622Y669291D03*
X1031496Y358268D03*
X895669Y265748D03*
X1181102Y259843D03*
X1348425Y324803D03*
X1387795Y291339D03*
X1476378Y259843D03*
X1437008Y507874D03*
X1655906Y521654D03*
X1766142Y525591D03*
X1757874Y472441D03*
Y374016D03*
Y275591D03*
X1795276Y259843D03*
X2027559Y311024D03*
X1958661Y383858D03*
X2118110Y259843D03*
X2110236Y578740D03*
X1980315Y791339D03*
X1437008Y779528D03*
X1271654Y854331D03*
X1255906Y885827D03*
X1287402Y606299D03*
X1185039Y507874D03*
X2372047Y639764D03*
X2641732Y696850D03*
X2637795Y816929D03*
X2598425Y777559D03*
X2716535Y885827D03*
X2775591Y629921D03*
X2923228D03*
X2795276Y433071D03*
Y259843D03*
X2673228D03*
X2677165Y531496D03*
X2391732Y265748D03*
X2529528Y964567D03*
X2677165Y921260D03*
X2716535Y1102362D03*
X2590551Y1094488D03*
X2913386Y1129921D03*
Y921260D03*
Y1342520D03*
X2740157Y1314961D03*
X2529528Y1574803D03*
X2578740Y1712598D03*
X2629921Y1771654D03*
Y1842520D03*
X2608268Y1909449D03*
Y1968504D03*
X2568898Y2017717D03*
X2606299Y2133858D03*
X2401575Y2141732D03*
X2342520Y2096457D03*
X2372047Y1978346D03*
X2411417Y1692913D03*
X2921260Y1748031D03*
X2913386Y1919291D03*
X2755906Y1988189D03*
X2826772Y2133858D03*
X2303150D03*
X2263780Y2096457D03*
X2224409Y2027559D03*
X2185039D03*
X2145669D03*
X2135827Y1938976D03*
X2185039Y1889764D03*
X2194882Y1840551D03*
X2263780Y1811024D03*
Y1712598D03*
X2155512D03*
X1988189Y1692913D03*
X1840551Y1712598D03*
Y1811024D03*
X1761811Y1830709D03*
Y1889764D03*
Y1771654D03*
X1702756Y1712598D03*
X1663386Y1611220D03*
X1545276Y1702756D03*
X1387795Y1712598D03*
Y1811024D03*
X1309055Y1781496D03*
Y1889764D03*
X1220472Y1899606D03*
X1131890D03*
Y1968504D03*
X1072835Y2017717D03*
X1070866Y1917323D03*
X984252Y1909449D03*
X964567Y2137795D03*
X787402Y2007874D03*
X1190945Y2017717D03*
X1279528D03*
X1269685Y2066929D03*
Y2096457D03*
Y2125984D03*
X1309055Y2116142D03*
Y2086614D03*
Y2057087D03*
X1348425Y2027559D03*
X1342520Y2137795D03*
X1387795Y2106299D03*
X1427165Y2135827D03*
X1466535Y2106299D03*
X1545276Y2076772D03*
X1551181Y2141732D03*
X1505906Y1988189D03*
X1692913Y1948819D03*
X1702756Y2027559D03*
X1751969D03*
X1801181D03*
X1840551Y2106299D03*
X1877953Y2133858D03*
X1919291Y2106299D03*
X1960630Y2141732D03*
X1958661Y1998031D03*
X1787402Y2141732D03*
X2192913Y2137795D03*
X1259843Y1958661D03*
X1210630Y1722441D03*
X1013780Y1555118D03*
X908465Y1646654D03*
X1807087Y1007874D03*
X740157Y1023622D03*
X757874Y935039D03*
Y1161417D03*
X625984Y1244094D03*
X561024Y1269685D03*
Y1190945D03*
X226378Y1230315D03*
X157480Y1216535D03*
Y1185039D03*
X129921Y1196850D03*
Y1165354D03*
Y1232283D03*
X118110Y1978346D03*
X147638Y2007874D03*
X177165Y2037402D03*
X147638Y2066929D03*
X206693D03*
X236220Y2129921D03*
X401575Y2137795D03*
X541339Y2125984D03*
Y2066929D03*
X580709Y2096457D03*
X620079Y2125984D03*
Y2066929D03*
X551181Y2007874D03*
Y1958661D03*
X688976Y1919291D03*
X738189Y1722441D03*
X748031Y1562992D03*
Y1456693D03*
X566929Y1582677D03*
X748031Y2141732D03*
X118110Y2037402D03*
G54D12*
X2208661Y484252D03*
Y562992D03*
X2287402D03*
Y484252D03*
X2366142D03*
Y562992D03*
X2444882D03*
X2523622D03*
Y484252D03*
X2444882D03*
X2854331Y1437008D03*
Y1515748D03*
Y1594488D03*
Y1673228D03*
Y1751969D03*
Y1830709D03*
Y1909449D03*
G54D13*
X2892059Y2104787D03*
G54D14*
X102953Y319488D03*
X2849803Y1196260D03*
Y1284055D03*
X102953Y2082087D03*
G54D10*
X511811Y2354331D03*
X519685Y2409449D03*
X515748Y2468504D03*
X496063Y2527559D03*
X519685Y2590551D03*
X716150Y2782496D03*
X727961Y2802181D03*
X736220Y2822835D03*
X295276Y2767717D03*
X842520Y2759843D03*
X915354Y2736220D03*
X925197Y2637795D03*
X901575D03*
X948819Y2629921D03*
X980315Y2570866D03*
X905512Y2523622D03*
X921260Y2472441D03*
X1043307Y2645669D03*
X1062992Y2661417D03*
X1043307Y2681102D03*
X1059055Y2700787D03*
X1043307Y2720472D03*
X1027559Y2736220D03*
X1023622Y2759843D03*
Y2783465D03*
X1003937Y2795276D03*
X984941Y2779528D03*
X968504Y2795276D03*
X948819Y2838583D03*
X1055118D03*
X1196850Y2728346D03*
X1192913Y2622047D03*
X1173228Y2606299D03*
X1145669Y2610236D03*
X1427165Y2627953D03*
Y2568898D03*
X1437008Y2519685D03*
X1407480D03*
X1526575Y2521654D03*
X1573701Y2520713D03*
X1598425Y2527559D03*
X1645669D03*
X1692913Y2529528D03*
X1740157Y2527559D03*
X1787402D03*
X1838583Y2618110D03*
X1787402Y2692913D03*
X1740157D03*
X1711614Y2691929D03*
X1692555Y2719972D03*
X1641732Y2744094D03*
Y2779528D03*
X1559055Y2771654D03*
X1575787Y2717520D03*
X1598425Y2695866D03*
X1539370Y2700787D03*
X1527559Y2629921D03*
X1525394Y2586614D03*
X1574803Y2566929D03*
X1555118Y2460630D03*
X1653543Y2354331D03*
X1685039Y2326772D03*
X1653543Y2255906D03*
X1539370Y2216535D03*
X1460630D03*
X1348425Y2303150D03*
X1354331Y2358268D03*
X1240157Y2401575D03*
Y2303150D03*
Y2253937D03*
X1401575Y2704724D03*
X1418307Y2777559D03*
X1453740D03*
X1498031Y2824764D03*
X1766732Y2782480D03*
X1795276Y2807087D03*
X1881890Y2755906D03*
X2046110Y2688831D03*
X2129921Y2688976D03*
X2016583Y2629776D03*
X1921260Y2452756D03*
X1819732Y2393555D03*
X1692913Y2618110D03*
X1645669Y2657480D03*
X2251969Y2834646D03*
X2303858Y2812835D03*
X2440945Y2834646D03*
X2470472D03*
Y2736220D03*
X2391732D03*
X2529528Y2706693D03*
Y2854331D03*
X2500000D03*
X2559055D03*
X2450787Y2933071D03*
X2472441Y3023622D03*
X2476378Y3082677D03*
X2578740Y3080709D03*
Y3129921D03*
X2688976Y3149606D03*
X2673862Y3174339D03*
X2712598Y3208661D03*
X2673228Y3248031D03*
X2616976Y3348280D03*
X2469339Y3377807D03*
X2417323Y3157480D03*
X2688976Y3102362D03*
X2767717Y3145669D03*
X2779528Y3035433D03*
X2716535Y3000000D03*
X2764614Y3417177D03*
X2484252Y3822835D03*
Y3850394D03*
Y3877953D03*
Y3909449D03*
X2448819Y3933071D03*
X2450787Y3868110D03*
X2519685D03*
Y3933071D03*
X2370079Y3814961D03*
X2228346Y3838583D03*
X2098425Y3870079D03*
X2062992Y3885827D03*
Y3917323D03*
X2027559Y3933071D03*
Y3868110D03*
X2062992Y3846457D03*
Y3818898D03*
X1948819Y3809055D03*
X1814961Y3842520D03*
X1653543Y3874016D03*
X1618110Y3885827D03*
Y3854331D03*
Y3826772D03*
X1582677Y3874016D03*
Y3940945D03*
X1618110Y3917323D03*
X1653543Y3940945D03*
X1496063Y3818898D03*
X1358268Y3842520D03*
X1318898Y3592520D03*
X1279528Y3572835D03*
X1259843Y3547244D03*
X1275591Y3527559D03*
X1240157Y3500000D03*
X1216535D03*
X1192913D03*
X1110236Y3460630D03*
X944882D03*
X1011811Y3385827D03*
X1035433Y3334646D03*
X1051181Y3263780D03*
X1070866Y3275591D03*
X1090551Y3291339D03*
X1118110Y3295276D03*
X1137795Y3271654D03*
X1153543Y3255906D03*
X1169291Y3240157D03*
X1185039Y3224409D03*
X1204724Y3212598D03*
X1267717Y3248031D03*
X1251969Y3283465D03*
X1271654Y3307087D03*
X1303150D03*
X1354331Y3342520D03*
X1413386Y3404528D03*
X1440945Y3377953D03*
X1468504Y3381890D03*
X1460630Y3358268D03*
X1466535Y3234291D03*
X1403543Y3234252D03*
Y3202795D03*
X1372028Y3202776D03*
X1338583Y3200787D03*
X1340571Y3171240D03*
X1340551Y3139764D03*
Y3108268D03*
Y3076772D03*
X1340531Y3013760D03*
X1340571Y2950807D03*
Y2919311D03*
X1341535Y2888780D03*
X1373031D03*
X1404024Y2888331D03*
X1435079Y2887795D03*
X1466535D03*
Y2919291D03*
Y2950787D03*
Y2982283D03*
X1498031D03*
Y2950787D03*
X1529508Y2950768D03*
X1561024Y2950787D03*
Y2919291D03*
X1560039Y2888780D03*
X1592520Y2887795D03*
X1591535Y2857283D03*
X1624016Y2856299D03*
X1655512Y2887795D03*
X1687028Y2887776D03*
X1749961Y2887795D03*
X1750020Y2919311D03*
X1718504Y2919291D03*
X1750000Y2950827D03*
X1718543Y2982283D03*
X1718504Y3045236D03*
Y3076732D03*
Y3108268D03*
X1718484Y3139783D03*
X1718524Y3171240D03*
X1787402Y3208661D03*
X1846457Y3204724D03*
X1918157Y3230169D03*
X2000000Y3177362D03*
X2094488Y3192913D03*
X2129921Y3048228D03*
X2149606Y2968504D03*
X2145669Y2944882D03*
X2204724Y2921260D03*
X2248031Y2960630D03*
X2271654Y3007874D03*
X2311024Y2980315D03*
X2273622Y3169291D03*
X2283465Y3267717D03*
X2253937D03*
X2287402Y3334646D03*
X2251969Y3366142D03*
X2269685Y3482283D03*
X2075638Y3505760D03*
X1901575Y3527559D03*
X1787402Y3425197D03*
X1763780Y3307087D03*
X1787402Y3283465D03*
X1624016Y3265748D03*
Y3234291D03*
X1592520Y3234252D03*
X1561043Y3234272D03*
Y3265768D03*
X1592520Y3265748D03*
Y3171220D03*
Y3139764D03*
Y3108268D03*
Y3076772D03*
X1561024D03*
Y3045276D03*
X1591535D03*
X1592520Y3013780D03*
X1561024D03*
Y2982283D03*
X1592520D03*
Y2950787D03*
X1624016D03*
Y2982283D03*
X1655492Y2982303D03*
X1624016Y3013780D03*
X1624035Y3045295D03*
X1624016Y3076772D03*
X1624035Y3108287D03*
X1624016Y3139764D03*
X1561024D03*
Y3108268D03*
X1498031D03*
Y3076772D03*
X1466535D03*
Y3108268D03*
X1435039D03*
Y3139764D03*
X1466535D03*
X1466516Y3171240D03*
X1498031Y3139764D03*
X1529547Y3171280D03*
X1529528Y3075787D03*
Y3045276D03*
X1466535Y3013780D03*
X1435039D03*
Y2982283D03*
Y2950787D03*
X1498031Y2919291D03*
X1500000Y2889764D03*
X1498012Y2856280D03*
X1529547D03*
X1403583Y2856299D03*
X1435039Y3076772D03*
X1271654Y3060039D03*
X1188976D03*
Y3011811D03*
X1204724Y2996063D03*
X1149606Y3000000D03*
X1141732Y2968504D03*
X1169291Y3023622D03*
X1070866Y3052165D03*
X1076772Y3084646D03*
X1097441Y3104331D03*
X1125984Y3114173D03*
X984252Y3062992D03*
X929134Y3129921D03*
X854331Y3181102D03*
X913386Y2937008D03*
X925197Y2889764D03*
X964567Y2885827D03*
X1031496Y2889764D03*
X1102362Y2885827D03*
X1655512Y3045315D03*
X1749980Y3045295D03*
X1750020Y3076791D03*
Y3013799D03*
X1811024Y3011811D03*
X1929134Y3051181D03*
X1948819Y2921260D03*
X2041339Y2964567D03*
X2082677Y2870079D03*
X2125984Y3342520D03*
X1988189Y3370079D03*
X1618110D03*
X1688976Y3488189D03*
X1240157Y3602362D03*
X925197Y3700787D03*
X933071Y3909449D03*
X777362Y3612205D03*
X2098425Y3933071D03*
X712598Y3791339D03*
X692913Y3767717D03*
X673228Y3751969D03*
X515748Y3736220D03*
X496063Y3779528D03*
X437008Y3826772D03*
X456693Y3870079D03*
X476378Y3913386D03*
X511811Y3610236D03*
X519685Y3456693D03*
X640748Y3569882D03*
X673228Y3200787D03*
X692913Y3212598D03*
X712598Y3200787D03*
Y3102362D03*
X692913Y3086614D03*
X673228Y3102362D03*
X511811Y3149606D03*
X293307Y3053150D03*
X234252Y3099409D03*
G54D11*
X177165Y2194882D03*
X196850Y2263780D03*
X147638D03*
X167323Y2293307D03*
X127953Y2312992D03*
X125984Y2366142D03*
X393701Y2253937D03*
X364173Y2194882D03*
X580709D03*
X570866Y2314961D03*
X625984Y2283465D03*
X685039Y2318898D03*
X718504Y2608268D03*
X639764Y2755906D03*
X578740Y2708661D03*
X551181Y2795276D03*
X795276Y2460630D03*
X980315Y2633858D03*
X1023622Y2598425D03*
X1031496Y2287402D03*
X895669Y2194882D03*
X1181102Y2188976D03*
X1348425Y2253937D03*
X1387795Y2220472D03*
X1476378Y2188976D03*
X1437008Y2437008D03*
X1655906Y2450787D03*
X1766142Y2454724D03*
X1757874Y2401575D03*
Y2303150D03*
Y2204724D03*
X1795276Y2188976D03*
X2027559Y2240157D03*
X1958661Y2312992D03*
X2118110Y2188976D03*
X2110236Y2507874D03*
X1980315Y2720472D03*
X1437008Y2708661D03*
X1271654Y2783465D03*
X1255906Y2814961D03*
X1287402Y2535433D03*
X1185039Y2437008D03*
X2372047Y2568898D03*
X2641732Y2625984D03*
X2637795Y2746063D03*
X2598425Y2706693D03*
X2716535Y2814961D03*
X2775591Y2559055D03*
X2923228D03*
X2795276Y2362205D03*
Y2188976D03*
X2673228D03*
X2677165Y2460630D03*
X2391732Y2194882D03*
X2529528Y2893701D03*
X2677165Y2850394D03*
X2716535Y3031496D03*
X2590551Y3023622D03*
X2913386Y3059055D03*
Y2850394D03*
Y3271654D03*
X2740157Y3244094D03*
X2529528Y3503937D03*
X2578740Y3641732D03*
X2629921Y3700787D03*
Y3771654D03*
X2608268Y3838583D03*
Y3897638D03*
X2568898Y3946850D03*
X2606299Y4062992D03*
X2401575Y4070866D03*
X2342520Y4025591D03*
X2372047Y3907480D03*
X2411417Y3622047D03*
X2921260Y3677165D03*
X2913386Y3848425D03*
X2755906Y3917323D03*
X2826772Y4062992D03*
X2303150D03*
X2263780Y4025591D03*
X2224409Y3956693D03*
X2185039D03*
X2145669D03*
X2135827Y3868110D03*
X2185039Y3818898D03*
X2194882Y3769685D03*
X2263780Y3740157D03*
Y3641732D03*
X2155512D03*
X1988189Y3622047D03*
X1840551Y3641732D03*
Y3740157D03*
X1761811Y3759843D03*
Y3818898D03*
Y3700787D03*
X1702756Y3641732D03*
X1663386Y3540354D03*
X1545276Y3631890D03*
X1387795Y3641732D03*
Y3740157D03*
X1309055Y3710630D03*
Y3818898D03*
X1220472Y3828740D03*
X1131890D03*
Y3897638D03*
X1072835Y3946850D03*
X1070866Y3846457D03*
X984252Y3838583D03*
X964567Y4066929D03*
X787402Y3937008D03*
X1190945Y3946850D03*
X1279528D03*
X1269685Y3996063D03*
Y4025591D03*
Y4055118D03*
X1309055Y4045276D03*
Y4015748D03*
Y3986220D03*
X1348425Y3956693D03*
X1342520Y4066929D03*
X1387795Y4035433D03*
X1427165Y4064961D03*
X1466535Y4035433D03*
X1545276Y4005906D03*
X1551181Y4070866D03*
X1505906Y3917323D03*
X1692913Y3877953D03*
X1702756Y3956693D03*
X1751969D03*
X1801181D03*
X1840551Y4035433D03*
X1877953Y4062992D03*
X1919291Y4035433D03*
X1960630Y4070866D03*
X1958661Y3927165D03*
X1787402Y4070866D03*
X2192913Y4066929D03*
X1259843Y3887795D03*
X1210630Y3651575D03*
X1013780Y3484252D03*
X908465Y3575787D03*
X1807087Y2937008D03*
X740157Y2952756D03*
X757874Y2864173D03*
Y3090551D03*
X625984Y3173228D03*
X561024Y3198819D03*
Y3120079D03*
X226378Y3159449D03*
X157480Y3145669D03*
Y3114173D03*
X129921Y3125984D03*
Y3094488D03*
Y3161417D03*
X118110Y3907480D03*
X147638Y3937008D03*
X177165Y3966535D03*
X147638Y3996063D03*
X206693D03*
X236220Y4059055D03*
X401575Y4066929D03*
X541339Y4055118D03*
Y3996063D03*
X580709Y4025591D03*
X620079Y4055118D03*
Y3996063D03*
X551181Y3937008D03*
Y3887795D03*
X688976Y3848425D03*
X738189Y3651575D03*
X748031Y3492126D03*
Y3385827D03*
X566929Y3511811D03*
X748031Y4070866D03*
X118110Y3966535D03*
G54D12*
X2208661Y2413386D03*
Y2492126D03*
X2287402D03*
Y2413386D03*
X2366142D03*
Y2492126D03*
X2444882D03*
X2523622D03*
Y2413386D03*
X2444882D03*
X2854331Y3366142D03*
Y3444882D03*
Y3523622D03*
Y3602362D03*
Y3681102D03*
Y3759843D03*
Y3838583D03*
G54D13*
X2892059Y4033921D03*
G54D14*
X102953Y2248622D03*
X2849803Y3125394D03*
Y3213189D03*
X102953Y4011220D03*
G54D13*
X393701Y4212598D03*
X2755906D03*
X196850Y118110D03*
X2755906D03*
M02*
