*
%FSLAX26Y26*%
%MOIN*%
%ADD10R,0.023622X0.023622*%
%ADD11R,0.035433X0.035433*%
%ADD12C,0.005906*%
%ADD13C,0.039370*%
%IPPOS*%
%LNgbp*%
%LPD*%
G75*
G54D10*
X1663780Y1176378D02*
Y1177953D01*
X1698425Y1176378D02*
Y1177953D01*
X1368504Y1243307D02*
Y1244882D01*
X1403150Y1243307D02*
Y1244882D01*
X1399213Y991339D02*
Y992913D01*
X1364567Y991339D02*
Y992913D01*
X1462992Y1113386D02*
Y1114961D01*
X1497638Y1113386D02*
Y1114961D01*
X1659843Y1215748D02*
Y1217323D01*
X1694488Y1215748D02*
Y1217323D01*
X1665748Y1137008D02*
Y1138583D01*
X1700394Y1137008D02*
Y1138583D01*
X1399213Y1070079D02*
Y1071654D01*
X1364567Y1070079D02*
Y1071654D01*
Y1030709D02*
Y1032283D01*
X1399213Y1030709D02*
Y1032283D01*
Y1156693D02*
Y1158268D01*
X1364567Y1156693D02*
Y1158268D01*
X1698425Y1030709D02*
Y1032283D01*
X1663780Y1030709D02*
Y1032283D01*
X1690551Y991339D02*
Y992913D01*
X1655906Y991339D02*
Y992913D01*
X1368504Y1207874D02*
Y1209449D01*
X1403150Y1207874D02*
Y1209449D01*
G54D11*
X1351378Y1112205D02*
Y1116142D01*
X1404528Y1112205D02*
Y1116142D01*
X1670276Y1336614D02*
Y1340551D01*
X1723425Y1336614D02*
Y1340551D01*
Y1281496D02*
Y1285433D01*
X1670276Y1281496D02*
Y1285433D01*
X1720472Y1082677D02*
Y1086614D01*
X1667323Y1082677D02*
Y1086614D01*
X1527559Y1266732D02*
X1531496D01*
X1527559Y1319882D02*
X1531496D01*
G54D10*
X1618307Y985827D02*
X1619882D01*
X1618307Y951181D02*
X1619882D01*
X1483465Y1254331D02*
X1485039D01*
X1483465Y1288976D02*
X1485039D01*
X1444094D02*
X1445669D01*
X1444094Y1254331D02*
X1445669D01*
X1621260Y1250394D02*
X1622835D01*
X1621260Y1285039D02*
X1622835D01*
X1574016D02*
X1575591D01*
X1574016Y1250394D02*
X1575591D01*
X1436220Y896063D02*
X1437795D01*
X1436220Y930709D02*
X1437795D01*
X1528740Y1177559D02*
X1530315D01*
X1528740Y1212205D02*
X1530315D01*
X1528740Y964961D02*
X1530315D01*
X1528740Y999606D02*
X1530315D01*
X1528740Y1074409D02*
X1530315D01*
X1528740Y1039764D02*
X1530315D01*
X1663780Y3105512D02*
Y3107087D01*
X1698425Y3105512D02*
Y3107087D01*
X1368504Y3172441D02*
Y3174016D01*
X1403150Y3172441D02*
Y3174016D01*
X1399213Y2920472D02*
Y2922047D01*
X1364567Y2920472D02*
Y2922047D01*
X1462992Y3042520D02*
Y3044094D01*
X1497638Y3042520D02*
Y3044094D01*
X1659843Y3144882D02*
Y3146457D01*
X1694488Y3144882D02*
Y3146457D01*
X1665748Y3066142D02*
Y3067717D01*
X1700394Y3066142D02*
Y3067717D01*
X1399213Y2999213D02*
Y3000787D01*
X1364567Y2999213D02*
Y3000787D01*
Y2959843D02*
Y2961417D01*
X1399213Y2959843D02*
Y2961417D01*
Y3085827D02*
Y3087402D01*
X1364567Y3085827D02*
Y3087402D01*
X1698425Y2959843D02*
Y2961417D01*
X1663780Y2959843D02*
Y2961417D01*
X1690551Y2920472D02*
Y2922047D01*
X1655906Y2920472D02*
Y2922047D01*
X1368504Y3137008D02*
Y3138583D01*
X1403150Y3137008D02*
Y3138583D01*
G54D11*
X1351378Y3041339D02*
Y3045276D01*
X1404528Y3041339D02*
Y3045276D01*
X1670276Y3265748D02*
Y3269685D01*
X1723425Y3265748D02*
Y3269685D01*
Y3210630D02*
Y3214567D01*
X1670276Y3210630D02*
Y3214567D01*
X1720472Y3011811D02*
Y3015748D01*
X1667323Y3011811D02*
Y3015748D01*
X1527559Y3195866D02*
X1531496D01*
X1527559Y3249016D02*
X1531496D01*
G54D10*
X1618307Y2914961D02*
X1619882D01*
X1618307Y2880315D02*
X1619882D01*
X1483465Y3183465D02*
X1485039D01*
X1483465Y3218110D02*
X1485039D01*
X1444094D02*
X1445669D01*
X1444094Y3183465D02*
X1445669D01*
X1621260Y3179528D02*
X1622835D01*
X1621260Y3214173D02*
X1622835D01*
X1574016D02*
X1575591D01*
X1574016Y3179528D02*
X1575591D01*
X1436220Y2825197D02*
X1437795D01*
X1436220Y2859843D02*
X1437795D01*
X1528740Y3106693D02*
X1530315D01*
X1528740Y3141339D02*
X1530315D01*
X1528740Y2894094D02*
X1530315D01*
X1528740Y2928740D02*
X1530315D01*
X1528740Y3003543D02*
X1530315D01*
X1528740Y2968898D02*
X1530315D01*
G54D12*
X0Y334646D02*
Y2066929D01*
X118110D01*
Y2165354D01*
X2952756D01*
Y1299213D01*
X2834646D01*
Y1181102D01*
X2952756D01*
Y236220D01*
X118110D01*
Y334646D01*
X0D01*
Y2263780D02*
Y3996063D01*
X118110D01*
Y4094488D01*
X2952756D01*
Y3228346D01*
X2834646D01*
Y3110236D01*
X2952756D01*
Y2165354D01*
X118110D01*
Y2263780D01*
X0D01*
X118110Y4094488D02*
Y4125984D01*
X0D01*
Y4291339D01*
X39370Y4330709D02*
X2913386D01*
X2952756Y4291339D02*
Y4094488D01*
X118110Y236220D02*
Y204724D01*
X0D01*
Y39370D01*
X39370Y0D02*
X2913386D01*
X2952756Y39370D02*
Y236220D01*
X0Y4291339D02*
X492Y4297546D01*
X1957Y4303598D01*
X4358Y4309344D01*
X7635Y4314639D01*
X11706Y4319351D01*
X16469Y4323363D01*
X21804Y4326573D01*
X27580Y4328902D01*
X33650Y4330291D01*
X39370Y4330709D01*
X2913386D02*
X2919593Y4330216D01*
X2925646Y4328751D01*
X2931391Y4326350D01*
X2936686Y4323073D01*
X2941398Y4319003D01*
X2945410Y4314240D01*
X2948620Y4308904D01*
X2950949Y4303129D01*
X2952338Y4297059D01*
X2952756Y4291339D01*
X0Y39370D02*
X492Y33163D01*
X1957Y27110D01*
X4358Y21365D01*
X7635Y16070D01*
X11706Y11358D01*
X16469Y7346D01*
X21804Y4136D01*
X27580Y1807D01*
X33650Y418D01*
X39370Y0D01*
X2913386D02*
X2919593Y492D01*
X2925646Y1957D01*
X2931391Y4358D01*
X2936686Y7635D01*
X2941398Y11706D01*
X2945410Y16469D01*
X2948620Y21804D01*
X2950949Y27580D01*
X2952338Y33650D01*
X2952756Y39370D01*
G54D13*
X590551Y4173228D03*
X2559055D03*
X393701Y157480D03*
X2559055D03*
M02*
