*
%FSLAX26Y26*%
%MOIN*%
%ADD10R,0.027559X0.027559*%
%ADD11R,0.039370X0.039370*%
%ADD12C,0.043307*%
%ADD13C,0.062992*%
%ADD14R,0.062992X0.062992*%
%ADD15C,0.118110*%
%ADD16C,0.001200*%
%ADD17C,0.092520*%
%ADD18C,0.039370*%
%ADD19C,0.005906*%
%ADD20C,0.002087*%
%ADD21C,0.090551*%
%ADD22C,0.078740*%
%IPPOS*%
%LNgbs*%
%LPD*%
G75*
G54D10*
X1663780Y1176378D02*
Y1177953D01*
X1698425Y1176378D02*
Y1177953D01*
X1368504Y1243307D02*
Y1244882D01*
X1403150Y1243307D02*
Y1244882D01*
X1399213Y991339D02*
Y992913D01*
X1364567Y991339D02*
Y992913D01*
X1462992Y1113386D02*
Y1114961D01*
X1497638Y1113386D02*
Y1114961D01*
X1659843Y1215748D02*
Y1217323D01*
X1694488Y1215748D02*
Y1217323D01*
X1665748Y1137008D02*
Y1138583D01*
X1700394Y1137008D02*
Y1138583D01*
X1399213Y1070079D02*
Y1071654D01*
X1364567Y1070079D02*
Y1071654D01*
Y1030709D02*
Y1032283D01*
X1399213Y1030709D02*
Y1032283D01*
Y1156693D02*
Y1158268D01*
X1364567Y1156693D02*
Y1158268D01*
X1698425Y1030709D02*
Y1032283D01*
X1663780Y1030709D02*
Y1032283D01*
X1690551Y991339D02*
Y992913D01*
X1655906Y991339D02*
Y992913D01*
X1368504Y1207874D02*
Y1209449D01*
X1403150Y1207874D02*
Y1209449D01*
G54D11*
X1351378Y1112205D02*
Y1116142D01*
X1404528Y1112205D02*
Y1116142D01*
X1670276Y1336614D02*
Y1340551D01*
X1723425Y1336614D02*
Y1340551D01*
Y1281496D02*
Y1285433D01*
X1670276Y1281496D02*
Y1285433D01*
X1720472Y1082677D02*
Y1086614D01*
X1667323Y1082677D02*
Y1086614D01*
X1527559Y1266732D02*
X1531496D01*
X1527559Y1319882D02*
X1531496D01*
G54D10*
X1618307Y985827D02*
X1619882D01*
X1618307Y951181D02*
X1619882D01*
X1483465Y1254331D02*
X1485039D01*
X1483465Y1288976D02*
X1485039D01*
X1444094D02*
X1445669D01*
X1444094Y1254331D02*
X1445669D01*
X1621260Y1250394D02*
X1622835D01*
X1621260Y1285039D02*
X1622835D01*
X1574016D02*
X1575591D01*
X1574016Y1250394D02*
X1575591D01*
X1436220Y896063D02*
X1437795D01*
X1436220Y930709D02*
X1437795D01*
X1528740Y1177559D02*
X1530315D01*
X1528740Y1212205D02*
X1530315D01*
X1528740Y964961D02*
X1530315D01*
X1528740Y999606D02*
X1530315D01*
X1528740Y1074409D02*
X1530315D01*
X1528740Y1039764D02*
X1530315D01*
G54D12*
X2755906Y2096457D03*
X2716535Y334646D03*
X472441Y305118D03*
G54D13*
X2854331Y1673228D03*
Y1751969D03*
Y1830709D03*
Y1515748D03*
Y1594488D03*
Y1909449D03*
X2208661Y562992D03*
X2287402Y484252D03*
Y562992D03*
X2366142Y484252D03*
Y562992D03*
X2444882Y484252D03*
Y562992D03*
X2523622Y484252D03*
Y562992D03*
G54D14*
X2854331Y1437008D03*
X2208661Y484252D03*
G54D15*
X2755906Y2096457D03*
X2716535Y334646D03*
X472441Y305118D03*
%LPC*%
G75*
X472441Y305118D02*
G54D16*
X1514753Y985470D02*
X1516220Y985206D01*
X1514753Y985470D02*
X1516220Y985206D01*
X1514753Y985470D02*
X1516220Y985206D01*
X1514753Y985470D02*
X1516220Y985206D01*
%LPD*%
G75*
X1516220Y985206D02*
G54D17*
X2892059Y2104787D03*
G54D18*
X102953Y319488D03*
X2849803Y1196260D03*
Y1284055D03*
X102953Y2082087D03*
G54D19*
X0Y334646D02*
Y2066929D01*
X118110D01*
Y2165354D01*
X2952756D01*
Y1299213D01*
X2834646D01*
Y1181102D01*
X2952756D01*
Y236220D01*
X118110D01*
Y334646D01*
X0D01*
%LPC*%
G75*
X0Y334646D02*
G54D20*
X1710767Y1121712D02*
X1716745Y1124023D01*
X1714005Y1045248D02*
X1710494Y1047836D01*
X1700316Y1062318D02*
X1741974D01*
X1699708Y1106813D02*
X1741696D01*
G36*
X1330619Y1093646D02*
Y1093996D01*
X1332669D01*
G03X1333169Y1093496I500J0D01*
G01X1369587D01*
G03X1370087Y1093996I0J500D01*
G01X1372136D01*
Y1093646D01*
G02X1369936Y1091446I-2200J0D01*
G01X1332819D01*
G02X1330619Y1093646I0J2200D01*
G37*
G36*
Y1093996D02*
G01Y1134700D01*
G02X1332819Y1136900I2200J0D01*
G01X1369936D01*
G02X1372136Y1134700I0J-2200D01*
G01Y1093996D01*
X1370087D01*
Y1134350D01*
G03X1369587Y1134850I-500J0D01*
G01X1333169D01*
G03X1332669Y1134350I0J-500D01*
G01Y1093996D01*
X1330619D01*
G37*
G36*
X1331619Y1094996D02*
X1331669D01*
G02X1331669Y1092996I0J-1000D01*
G01X1331619D01*
G02X1331619Y1094996I0J1000D01*
G37*
G36*
X1371087D02*
G01X1371136D01*
G02X1371136Y1092996I0J-1000D01*
G01X1371087D01*
G02X1371087Y1094996I0J1000D01*
G37*
G36*
X1349714Y978686D02*
G01Y1005566D01*
G02X1351914Y1007766I2200J0D01*
G01X1377220D01*
G02X1379396Y1005051I15J-2218D01*
G03X1377720Y1005719I-1527J-1394D01*
G01X1352269Y1005717D01*
G03X1351764Y1005217I-6J-500D01*
G01Y979035D01*
G03X1352267Y978535I500J0D01*
G01X1377644Y978535D01*
G03X1379397Y979198I224J2056D01*
G02X1377220Y976486I-2162J-495D01*
G01X1351914D01*
G02X1349714Y978686I0J2200D01*
G37*
G36*
Y1018056D02*
G01Y1044937D01*
G02X1351914Y1047137I2200J0D01*
G01X1377220D01*
G02X1379396Y1044421I15J-2218D01*
G03X1377720Y1045089I-1527J-1394D01*
G01X1352267Y1045087D01*
G03X1351764Y1044587I-3J-500D01*
G01Y1018406D01*
G03X1352267Y1017906I500J0D01*
G01X1377662Y1017905D01*
G03X1379397Y1018569I207J2058D01*
G02X1377220Y1015856I-2162J-496D01*
G01X1351914D01*
G02X1349714Y1018056I0J2200D01*
G37*
G36*
Y1057426D02*
G01Y1084307D01*
G02X1351914Y1086507I2200J0D01*
G01X1377220D01*
G02X1379397Y1083793I15J-2218D01*
G03X1377700Y1084461I-1527J-1393D01*
G01X1352264Y1084457D01*
G03X1351764Y1083957I0J-500D01*
G01Y1057776D01*
G03X1352267Y1057276I500J0D01*
G01X1377665Y1057275D01*
G03X1379397Y1057940I203J2058D01*
G02X1377220Y1055226I-2162J-496D01*
G01X1351914D01*
G02X1349714Y1057426I0J2200D01*
G37*
G36*
Y1144040D02*
G01Y1170921D01*
G02X1351914Y1173121I2200J0D01*
G01X1377220D01*
G02X1379420Y1170921I0J-2200D01*
G01Y1164851D01*
G03X1378001Y1165533I-1539J-1384D01*
G02X1377370Y1166213I69J697D01*
G01Y1170571D01*
G03X1376870Y1171071I-500J0D01*
G01X1352267D01*
G03X1351764Y1170571I-3J-500D01*
G01Y1144390D01*
G03X1352267Y1143890I500J0D01*
G01X1377645Y1143889D01*
G03X1379397Y1144553I223J2056D01*
G02X1377220Y1141840I-2162J-495D01*
G01X1351914D01*
G02X1349714Y1144040I0J2200D01*
G37*
G36*
X1353651Y1195221D02*
G01Y1195571D01*
X1355701D01*
G03X1356204Y1195071I503J3D01*
G01X1380804D01*
G03X1381307Y1195571I0J503D01*
G01X1383357D01*
Y1195221D01*
G02X1381157Y1193021I-2200J0D01*
G01X1355851D01*
G02X1353651Y1195221I0J2200D01*
G37*
G36*
Y1195571D02*
G01Y1222102D01*
G02X1355851Y1224302I2200J0D01*
G01X1381157D01*
G02X1383357Y1222102I0J-2200D01*
G01Y1195571D01*
X1381307D01*
Y1221752D01*
G03X1380807Y1222252I-500J0D01*
G01X1356204D01*
G03X1355701Y1221752I0J-503D01*
G01Y1195571D01*
X1353651D01*
G37*
G36*
X1354651Y1196571D02*
X1354701D01*
G02X1354701Y1194571I0J-1000D01*
G01X1354651D01*
G02X1354651Y1196571I0J1000D01*
G37*
G36*
X1382307D02*
G01X1382357D01*
G02X1382357Y1194571I0J-1000D01*
G01X1382307D01*
G02X1382307Y1196571I0J1000D01*
G37*
G36*
X1353651Y1230654D02*
G01Y1257535D01*
G02X1355851Y1259735I2200J0D01*
G01X1377635D01*
G03X1376953Y1258316I1384J-1539D01*
G02X1376269Y1257685I-697J69D01*
G01X1356204D01*
G03X1355701Y1257185I-3J-500D01*
G01Y1231004D01*
G03X1356204Y1230504I500J0D01*
G01X1380804D01*
G03X1381307Y1231004I3J500D01*
G01Y1253365D01*
G02X1381943Y1254046I700J-17D01*
G03X1383357Y1254728I-125J2066D01*
G01Y1230654D01*
G02X1381157Y1228454I-2200J0D01*
G01X1355851D01*
G02X1353651Y1230654I0J2200D01*
G37*
G36*
X1383769Y1093646D02*
G01Y1093996D01*
X1385819D01*
G03X1386319Y1093496I500J0D01*
G01X1422736D01*
G03X1423236Y1093996I0J500D01*
G01X1425286D01*
Y1093646D01*
G02X1423086Y1091446I-2200J0D01*
G01X1385969D01*
G02X1383769Y1093646I0J2200D01*
G37*
G36*
Y1093996D02*
G01Y1134700D01*
G02X1385969Y1136900I2200J0D01*
G01X1423086D01*
G02X1425286Y1134700I0J-2200D01*
G01Y1093996D01*
X1423236D01*
Y1134350D01*
G03X1422736Y1134850I-500J0D01*
G01X1386319D01*
G03X1385819Y1134350I0J-500D01*
G01Y1093996D01*
X1383769D01*
G37*
G36*
X1384769Y1094996D02*
X1384819D01*
G02X1384819Y1092996I0J-1000D01*
G01X1384769D01*
G02X1384769Y1094996I0J1000D01*
G37*
G36*
X1424236D02*
G01X1424286D01*
G02X1424286Y1092996I0J-1000D01*
G01X1424236D01*
G02X1424236Y1094996I0J1000D01*
G37*
G36*
X1384360Y978686D02*
G01Y979035D01*
X1386409D01*
G03X1386912Y978535I503J3D01*
G01X1411513D01*
G03X1412016Y979035I0J503D01*
G01X1414066D01*
Y978686D01*
G02X1411866Y976486I-2200J0D01*
G01X1386560D01*
G02X1384360Y978686I0J2200D01*
G37*
G36*
Y979035D02*
G01Y1005566D01*
G02X1386560Y1007766I2200J0D01*
G01X1411866D01*
G02X1414066Y1005566I0J-2200D01*
G01Y979035D01*
X1412016D01*
Y1005217D01*
G03X1411516Y1005717I-500J0D01*
G01X1386912D01*
G03X1386409Y1005217I0J-503D01*
G01Y979035D01*
X1384360D01*
G37*
G36*
X1385360Y980035D02*
X1385409D01*
G02X1385409Y978035I0J-1000D01*
G01X1385360D01*
G02X1385360Y980035I0J1000D01*
G37*
G36*
X1413016D02*
G01X1413066D01*
G02X1413066Y978035I0J-1000D01*
G01X1413016D01*
G02X1413016Y980035I0J1000D01*
G37*
G36*
X1384360Y1018056D02*
G01Y1018406D01*
X1386409D01*
G03X1386912Y1017906I503J3D01*
G01X1411513D01*
G03X1412016Y1018406I0J503D01*
G01X1414066D01*
Y1018056D01*
G02X1411866Y1015856I-2200J0D01*
G01X1386560D01*
G02X1384360Y1018056I0J2200D01*
G37*
G36*
Y1018406D02*
G01Y1044937D01*
G02X1386560Y1047137I2200J0D01*
G01X1411866D01*
G02X1414066Y1044937I0J-2200D01*
G01Y1018406D01*
X1412016D01*
Y1044587D01*
G03X1411516Y1045087I-500J0D01*
G01X1386912D01*
G03X1386409Y1044587I0J-503D01*
G01Y1018406D01*
X1384360D01*
G37*
G36*
X1385360Y1019406D02*
X1385409D01*
G02X1385409Y1017406I0J-1000D01*
G01X1385360D01*
G02X1385360Y1019406I0J1000D01*
G37*
G36*
X1413016D02*
G01X1413066D01*
G02X1413066Y1017406I0J-1000D01*
G01X1413016D01*
G02X1413016Y1019406I0J1000D01*
G37*
G36*
X1384360Y1057426D02*
G01Y1057776D01*
X1386409D01*
G03X1386912Y1057276I503J3D01*
G01X1411513D01*
G03X1412016Y1057776I0J503D01*
G01X1414066D01*
Y1057426D01*
G02X1411866Y1055226I-2200J0D01*
G01X1386560D01*
G02X1384360Y1057426I0J2200D01*
G37*
G36*
Y1057776D02*
G01Y1084307D01*
G02X1386560Y1086507I2200J0D01*
G01X1411866D01*
G02X1414066Y1084307I0J-2200D01*
G01Y1057776D01*
X1412016D01*
Y1083957D01*
G03X1411516Y1084457I-500J0D01*
G01X1386912D01*
G03X1386409Y1083957I0J-503D01*
G01Y1057776D01*
X1384360D01*
G37*
G36*
X1385360Y1058776D02*
X1385409D01*
G02X1385409Y1056776I0J-1000D01*
G01X1385360D01*
G02X1385360Y1058776I0J1000D01*
G37*
G36*
X1413016D02*
G01X1413066D01*
G02X1413066Y1056776I0J-1000D01*
G01X1413016D01*
G02X1413016Y1058776I0J1000D01*
G37*
G36*
X1384360Y1144040D02*
G01Y1167991D01*
G03X1385776Y1167309I1539J1384D01*
G02X1386409Y1166630I-67J-697D01*
G01Y1144390D01*
G03X1386912Y1143890I500J0D01*
G01X1411513D01*
G03X1412016Y1144390I3J500D01*
G01Y1166277D01*
G02X1412651Y1166957I700J-17D01*
G03X1414066Y1167639I-125J2066D01*
G01Y1144040D01*
G02X1411866Y1141840I-2200J0D01*
G01X1386560D01*
G02X1384360Y1144040I0J2200D01*
G37*
G36*
X1388297Y1195221D02*
G01Y1195571D01*
X1390346D01*
G03X1390849Y1195071I503J3D01*
G01X1415450D01*
G03X1415953Y1195571I0J503D01*
G01X1418003D01*
Y1195221D01*
G02X1415803Y1193021I-2200J0D01*
G01X1390497D01*
G02X1388297Y1195221I0J2200D01*
G37*
G36*
Y1195571D02*
G01Y1222102D01*
G02X1390497Y1224302I2200J0D01*
G01X1415803D01*
G02X1418003Y1222102I0J-2200D01*
G01Y1195571D01*
X1415953D01*
Y1221752D01*
G03X1415453Y1222252I-500J0D01*
G01X1390849D01*
G03X1390346Y1221752I0J-503D01*
G01Y1195571D01*
X1388297D01*
G37*
G36*
X1389297Y1196571D02*
X1389346D01*
G02X1389346Y1194571I0J-1000D01*
G01X1389297D01*
G02X1389297Y1196571I0J1000D01*
G37*
G36*
X1416953D02*
G01X1417003D01*
G02X1417003Y1194571I0J-1000D01*
G01X1416953D01*
G02X1416953Y1196571I0J1000D01*
G37*
G36*
X1388297Y1230654D02*
G01Y1231004D01*
X1390346D01*
G03X1390849Y1230504I503J3D01*
G01X1415450D01*
G03X1415953Y1231004I0J503D01*
G01X1418003D01*
Y1230654D01*
G02X1415803Y1228454I-2200J0D01*
G01X1390497D01*
G02X1388297Y1230654I0J2200D01*
G37*
G36*
Y1231004D02*
G01Y1257535D01*
G02X1390497Y1259735I2200J0D01*
G01X1415803D01*
G02X1418003Y1257535I0J-2200D01*
G01Y1231004D01*
X1415953D01*
Y1257185D01*
G03X1415453Y1257685I-500J0D01*
G01X1390849D01*
G03X1390346Y1257185I0J-503D01*
G01Y1231004D01*
X1388297D01*
G37*
G36*
X1389297Y1232004D02*
X1389346D01*
G02X1389346Y1230004I0J-1000D01*
G01X1389297D01*
G02X1389297Y1232004I0J1000D01*
G37*
G36*
X1416953D02*
G01X1417003D01*
G02X1417003Y1230004I0J-1000D01*
G01X1416953D01*
G02X1416953Y1232004I0J1000D01*
G37*
G36*
X1424461Y945562D02*
G01X1449416D01*
X1449167Y945239D01*
G03X1448746Y944142I1631J-1257D01*
G02X1448066Y943512I-696J69D01*
G01X1425823D01*
G02X1425143Y944151I17J700D01*
G03X1424714Y945238I-2042J-177D01*
G01X1424461Y945562D01*
G37*
G36*
X1428261Y881210D02*
X1428514Y881533D01*
G03X1428943Y882629I-1614J1264D01*
G02X1429623Y883260I697J-69D01*
G01X1444381D01*
G02X1445062Y882624I-17J-700D01*
G03X1445490Y881533I2043J173D01*
G01X1445743Y881210D01*
X1428261D01*
G37*
G36*
X1429241Y1241678D02*
Y1266984D01*
G02X1429606Y1268197I2200J0D01*
G01X1429628Y1268224D01*
X1429654Y1268247D01*
X1429684Y1268265D01*
X1429716Y1268278D01*
X1429750Y1268285D01*
X1429785Y1268286D01*
X1429820Y1268281D01*
X1429853Y1268270D01*
X1429883Y1268253D01*
X1429911Y1268232D01*
X1429934Y1268206D01*
X1429952Y1268176D01*
X1429965Y1268143D01*
X1429972Y1268109D01*
X1429973Y1268074D01*
X1429968Y1268040D01*
G03X1430942Y1265822I2001J-443D01*
G02X1431291Y1265233I-351J-606D01*
G01Y1242028D01*
G03X1431791Y1241528I500J0D01*
G01X1457972D01*
G03X1458472Y1242028I0J500D01*
G01Y1265257D01*
G02X1458809Y1265843I700J-12D01*
G03X1459723Y1268139I-1063J1753D01*
G01X1459717Y1268173D01*
X1459717Y1268208D01*
X1459723Y1268242D01*
X1459735Y1268275D01*
X1459752Y1268306D01*
X1459774Y1268332D01*
X1459801Y1268355D01*
X1459831Y1268373D01*
X1459863Y1268385D01*
X1459898Y1268391D01*
X1459933Y1268391D01*
X1459967Y1268385D01*
X1460000Y1268374D01*
X1460030Y1268356D01*
X1460057Y1268334D01*
X1460078Y1268310D01*
G02X1460522Y1266984I-1756J-1326D01*
G01Y1241678D01*
G02X1458322Y1239478I-2200J0D01*
G01X1431441D01*
G02X1429241Y1241678I0J2200D01*
G37*
G36*
Y1276323D02*
G01Y1276673D01*
X1431291D01*
G03X1431791Y1276173I500J0D01*
G01X1457972D01*
G03X1458472Y1276673I0J500D01*
G01X1460522D01*
Y1276323D01*
G02X1458322Y1274123I-2200J0D01*
G01X1431441D01*
G02X1429241Y1276323I0J2200D01*
G37*
G36*
Y1276673D02*
G01Y1301629D01*
G02X1431441Y1303829I2200J0D01*
G01X1458322D01*
G02X1460522Y1301629I0J-2200D01*
G01Y1276673D01*
X1458472D01*
Y1301277D01*
G03X1457972Y1301780I-500J3D01*
G01X1431791D01*
G03X1431291Y1301280I0J-500D01*
G01Y1276673D01*
X1429241D01*
G37*
G36*
X1430241Y1277673D02*
X1430291D01*
G02X1430291Y1275673I0J-1000D01*
G01X1430241D01*
G02X1430241Y1277673I0J1000D01*
G37*
G36*
X1459472D02*
G01X1459522D01*
G02X1459522Y1275673I0J-1000D01*
G01X1459472D01*
G02X1459472Y1277673I0J1000D01*
G37*
G36*
X1448139Y1100733D02*
G01Y1127614D01*
G02X1450339Y1129814I2200J0D01*
G01X1474897D01*
X1474931Y1129811D01*
X1474965Y1129802D01*
X1474997Y1129787D01*
X1475025Y1129767D01*
X1475050Y1129742D01*
X1475070Y1129714D01*
X1475085Y1129682D01*
X1475094Y1129648D01*
X1475097Y1129614D01*
X1475094Y1129579D01*
X1475085Y1129545D01*
X1475070Y1129514D01*
X1475050Y1129485D01*
X1475025Y1129460D01*
X1475016Y1129453D01*
G03X1474801Y1129264I1242J-1631D01*
G01X1473505Y1127969D01*
G02X1473027Y1127764I-495J495D01*
G01X1450692D01*
G03X1450189Y1127264I-3J-500D01*
G01Y1101083D01*
G03X1450692Y1100583I500J0D01*
G01X1473025D01*
G02X1473502Y1100379I-17J-700D01*
G01X1475390Y1098533D01*
X1450339D01*
G02X1448139Y1100733I0J2200D01*
G37*
G36*
X1468612Y1241678D02*
G01Y1266984D01*
G02X1469060Y1268315I2200J0D01*
G01X1469083Y1268340D01*
X1469111Y1268362D01*
X1469142Y1268378D01*
X1469175Y1268389D01*
X1469209Y1268394D01*
X1469244Y1268392D01*
X1469278Y1268385D01*
X1469311Y1268372D01*
X1469340Y1268353D01*
X1469366Y1268330D01*
X1469387Y1268302D01*
X1469403Y1268271D01*
X1469414Y1268238D01*
X1469419Y1268203D01*
X1469418Y1268169D01*
X1469412Y1268139D01*
G03X1470325Y1265844I1977J-543D01*
G02X1470661Y1265257I-363J-598D01*
G01Y1242028D01*
G03X1471161Y1241528I500J0D01*
G01X1497343D01*
G03X1497843Y1242028I0J500D01*
G01Y1265259D01*
G02X1498176Y1265844I700J-12D01*
G03X1499088Y1268146I-1063J1753D01*
G01X1499081Y1268180D01*
X1499081Y1268215D01*
X1499087Y1268249D01*
X1499098Y1268282D01*
X1499116Y1268313D01*
X1499138Y1268339D01*
X1499164Y1268362D01*
X1499194Y1268380D01*
X1499227Y1268392D01*
X1499261Y1268399D01*
X1499296Y1268399D01*
X1499330Y1268393D01*
X1499363Y1268381D01*
X1499394Y1268364D01*
X1499421Y1268342D01*
X1499441Y1268319D01*
G02X1499892Y1266984I-1749J-1335D01*
G01Y1241678D01*
G02X1497692Y1239478I-2200J0D01*
G01X1470812D01*
G02X1468612Y1241678I0J2200D01*
G37*
G36*
Y1276323D02*
G01Y1301629D01*
G02X1470812Y1303829I2200J0D01*
G01X1497692D01*
G02X1499892Y1301629I0J-2200D01*
G01Y1288816D01*
G03X1498473Y1289498I-1539J-1384D01*
G02X1497843Y1290182I69J697D01*
G01Y1301277D01*
G03X1497343Y1301780I-500J3D01*
G01X1471161D01*
G03X1470661Y1301280I0J-500D01*
G01Y1276673D01*
G03X1471161Y1276173I500J0D01*
G01X1498169Y1276173D01*
G03X1499869Y1276839I173J2061D01*
G02X1497692Y1274123I-2162J-498D01*
G01X1470812D01*
G02X1468612Y1276323I0J2200D01*
G37*
G36*
X1482785Y1100733D02*
G01Y1101083D01*
X1484835D01*
G03X1485338Y1100583I503J3D01*
G01X1509938D01*
G03X1510441Y1101083I0J503D01*
G01X1512491D01*
Y1100733D01*
G02X1510291Y1098533I-2200J0D01*
G01X1484985D01*
G02X1482785Y1100733I0J2200D01*
G37*
G36*
Y1101083D02*
G01Y1127614D01*
G02X1484985Y1129814I2200J0D01*
G01X1510291D01*
G02X1512491Y1127614I0J-2200D01*
G01Y1101083D01*
X1510441D01*
Y1127264D01*
G03X1509941Y1127764I-500J0D01*
G01X1485338D01*
G03X1484835Y1127264I0J-503D01*
G01Y1101083D01*
X1482785D01*
G37*
G36*
X1483785Y1102083D02*
X1483835D01*
G02X1483835Y1100083I0J-1000D01*
G01X1483785D01*
G02X1483785Y1102083I0J1000D01*
G37*
G36*
X1511441D02*
G01X1511491D01*
G02X1511491Y1100083I0J-1000D01*
G01X1511441D01*
G02X1511441Y1102083I0J1000D01*
G37*
G36*
X1506801Y1248174D02*
G01Y1248524D01*
X1508850D01*
G03X1509350Y1248024I500J0D01*
G01X1549705D01*
G03X1550205Y1248524I0J500D01*
G01X1552255D01*
Y1248174D01*
G02X1550055Y1245974I-2200J0D01*
G01X1509001D01*
G02X1506801Y1248174I0J2200D01*
G37*
G36*
Y1248524D02*
G01Y1285291D01*
G02X1509001Y1287491I2200J0D01*
G01X1550055D01*
G02X1552255Y1285291I0J-2200D01*
G01Y1248524D01*
X1550205D01*
Y1284941D01*
G03X1549705Y1285441I-500J0D01*
G01X1509350D01*
G03X1508850Y1284941I0J-500D01*
G01Y1248524D01*
X1506801D01*
G37*
G36*
X1507801Y1249524D02*
X1507850D01*
G02X1507850Y1247524I0J-1000D01*
G01X1507801D01*
G02X1507801Y1249524I0J1000D01*
G37*
G36*
X1551205D02*
G01X1551255D01*
G02X1551255Y1247524I0J-1000D01*
G01X1551205D01*
G02X1551205Y1249524I0J1000D01*
G37*
G36*
X1506801Y1301323D02*
G01Y1301673D01*
X1508850D01*
G03X1509350Y1301173I500J0D01*
G01X1549705D01*
G03X1550205Y1301673I0J500D01*
G01X1552255D01*
Y1301323D01*
G02X1550055Y1299123I-2200J0D01*
G01X1509001D01*
G02X1506801Y1301323I0J2200D01*
G37*
G36*
Y1301673D02*
G01Y1338440D01*
G02X1509001Y1340640I2200J0D01*
G01X1550055D01*
G02X1552255Y1338440I0J-2200D01*
G01Y1301673D01*
X1550205D01*
Y1338091D01*
G03X1549705Y1338591I-500J0D01*
G01X1509350D01*
G03X1508850Y1338091I0J-500D01*
G01Y1301673D01*
X1506801D01*
G37*
G36*
X1507801Y1302673D02*
X1507850D01*
G02X1507850Y1300673I0J-1000D01*
G01X1507801D01*
G02X1507801Y1302673I0J1000D01*
G37*
G36*
X1551205D02*
G01X1551255D01*
G02X1551255Y1300673I0J-1000D01*
G01X1551205D01*
G02X1551205Y1302673I0J1000D01*
G37*
G36*
X1513887Y1199552D02*
G01Y1224857D01*
G02X1516607Y1227033I2218J15D01*
G03X1515937Y1225470I1397J-1524D01*
G01X1515937Y1199902D01*
G03X1516437Y1199402I500J0D01*
G01X1542618D01*
G03X1543118Y1199902I0J500D01*
G01X1543118Y1225470D01*
G03X1542448Y1227033I-2067J39D01*
G02X1545168Y1224857I502J-2161D01*
G01Y1199552D01*
G02X1542968Y1197352I-2200J0D01*
G01X1516087D01*
G02X1513887Y1199552I0J2200D01*
G37*
G36*
Y964850D02*
G01Y977614D01*
G02X1516087Y979814I2200J0D01*
G01X1525125D01*
G03X1524443Y978394I1384J-1539D01*
G02X1523763Y977764I-697J69D01*
G01X1516437D01*
G03X1515937Y977264I0J-500D01*
G01Y966217D01*
G02X1515303Y965531I-700J12D01*
G03X1514210Y965103I171J-2043D01*
G01X1513887Y964850D01*
G37*
G36*
Y989421D02*
Y1012259D01*
G02X1516087Y1014459I2200J0D01*
G01X1542968D01*
G02X1545168Y1012259I0J-2200D01*
G01Y986953D01*
G02X1542968Y984753I-2200J0D01*
G01X1522310D01*
G03X1522992Y986173I-1384J1539D01*
G02X1523672Y986803I697J-69D01*
G01X1542618D01*
G03X1543118Y987303I0J500D01*
G01Y1011907D01*
G03X1542618Y1012409I-500J3D01*
G01X1516437D01*
G03X1515937Y1011909I0J-500D01*
G01Y990784D01*
G02X1515301Y990103I-700J17D01*
G03X1514210Y989674I174J-2043D01*
G01X1513887Y989421D01*
G37*
G36*
Y1027111D02*
Y1027461D01*
X1515937D01*
G03X1516437Y1026961I500J0D01*
G01X1542618D01*
G03X1543118Y1027461I0J500D01*
G01X1545168D01*
Y1027111D01*
G02X1542968Y1024911I-2200J0D01*
G01X1516087D01*
G02X1513887Y1027111I0J2200D01*
G37*
G36*
Y1027461D02*
G01Y1052417D01*
G02X1516087Y1054617I2200J0D01*
G01X1542968D01*
G02X1545168Y1052417I0J-2200D01*
G01Y1027461D01*
X1543118D01*
Y1052064D01*
G03X1542618Y1052567I-500J3D01*
G01X1516437D01*
G03X1515937Y1052067I0J-500D01*
G01Y1027461D01*
X1513887D01*
G37*
G36*
X1514887Y1028461D02*
X1514937D01*
G02X1514937Y1026461I0J-1000D01*
G01X1514887D01*
G02X1514887Y1028461I0J1000D01*
G37*
G36*
X1544118D02*
G01X1544168D01*
G02X1544168Y1026461I0J-1000D01*
G01X1544118D01*
G02X1544118Y1028461I0J1000D01*
G37*
G36*
X1513887Y1061756D02*
G01Y1087062D01*
G02X1516087Y1089262I2200J0D01*
G01X1542968D01*
G02X1545168Y1087062I0J-2200D01*
G01Y1061757D01*
G02X1542458Y1059579I-2218J-15D01*
G03X1543124Y1061307I-1392J1529D01*
G01X1543118Y1086713D01*
G03X1542618Y1087213I-500J0D01*
G01X1516437D01*
G03X1515937Y1086713I0J-500D01*
G01X1515937Y1061270D01*
G03X1516622Y1059556I2064J-168D01*
G01X1516087D01*
G02X1513887Y1061756I0J2200D01*
G37*
G36*
X1519092Y950108D02*
G01X1519346Y950431D01*
G03X1519775Y951527I-1614J1264D01*
G02X1520455Y952157I697J-69D01*
G01X1538622D01*
G02X1539302Y951522I-17J-700D01*
G03X1539731Y950431I2043J173D01*
G01X1539984Y950108D01*
X1519092D01*
G37*
G36*
X1542444Y1192412D02*
G02X1545168Y1190212I494J-2175D01*
G01Y1164906D01*
G02X1544234Y1163107I-2200J0D01*
G01X1544204Y1163089D01*
X1544172Y1163077D01*
X1544137Y1163070D01*
X1544103Y1163070D01*
X1544068Y1163075D01*
X1544035Y1163087D01*
X1544005Y1163104D01*
X1543978Y1163126D01*
X1543955Y1163152D01*
X1543937Y1163182D01*
X1543925Y1163215D01*
X1543918Y1163249D01*
X1543918Y1163284D01*
X1543923Y1163318D01*
X1543935Y1163351D01*
X1543939Y1163360D01*
G03X1543375Y1165910I-1825J933D01*
G02X1543118Y1166439I443J542D01*
G01X1543120Y1190581D01*
G03X1542697Y1192089I-2038J241D01*
G01X1542444Y1192412D01*
G37*
G36*
X1559163Y1288827D02*
Y1297692D01*
G02X1561363Y1299892I2200J0D01*
G01X1588244D01*
G02X1590444Y1297692I0J-2200D01*
G01Y1272386D01*
G02X1588244Y1270186I-2200J0D01*
G01X1561363D01*
G02X1559183Y1272889I-15J2218D01*
G03X1560965Y1272226I1531J1390D01*
G01X1587890Y1272236D01*
G03X1588394Y1272736I4J500D01*
G01Y1297340D01*
G03X1587894Y1297843I-500J3D01*
G01X1561713D01*
G03X1561213Y1297343I0J-500D01*
G01Y1290194D01*
G02X1560579Y1289509I-700J12D01*
G03X1559486Y1289080I171J-2043D01*
G01X1559163Y1288827D01*
G37*
G36*
Y1237741D02*
Y1263044D01*
G02X1562286Y1265160I2251J41D01*
G03X1561672Y1263843I1442J-1472D01*
G02X1561556Y1263513I-705J63D01*
G03X1561213Y1262697I1684J-1190D01*
G01Y1238091D01*
G03X1561713Y1237591I500J0D01*
G01X1587894D01*
G03X1588394Y1238091I0J500D01*
G01Y1261274D01*
G02X1588750Y1261873I700J-12D01*
G03X1589759Y1264043I-1005J1787D01*
G01X1589756Y1264078D01*
X1589758Y1264113D01*
X1589767Y1264147D01*
X1589781Y1264178D01*
X1589800Y1264207D01*
X1589825Y1264232D01*
X1589853Y1264253D01*
X1589884Y1264268D01*
X1589918Y1264277D01*
X1589953Y1264281D01*
X1589988Y1264278D01*
X1590021Y1264270D01*
X1590053Y1264255D01*
X1590082Y1264236D01*
X1590107Y1264212D01*
X1590127Y1264183D01*
X1590128Y1264182D01*
G02X1590444Y1263047I-1884J-1136D01*
G01Y1237741D01*
G02X1588244Y1235541I-2200J0D01*
G01X1561363D01*
G02X1559163Y1237741I0J2200D01*
G37*
G36*
X1603454Y973174D02*
G01Y998480D01*
G02X1605654Y1000680I2200J0D01*
G01X1627125D01*
G03X1626443Y999260I1384J-1539D01*
G02X1625763Y998630I-697J69D01*
G01X1606004D01*
G03X1605504Y998130I0J-500D01*
G01Y973524D01*
G03X1606004Y973024I500J0D01*
G01X1632185D01*
G03X1632685Y973524I0J500D01*
G01Y991899D01*
G02X1633319Y992584I700J-12D01*
G03X1634735Y993266I-123J2066D01*
G01Y973174D01*
G02X1632535Y970974I-2200J0D01*
G01X1605654D01*
G02X1603454Y973174I0J2200D01*
G37*
G36*
X1606407Y1276233D02*
G01Y1297692D01*
G02X1608936Y1299911I2221J19D01*
G03X1608457Y1297231I1344J-1623D01*
G01Y1277600D01*
G02X1607823Y1276915I-700J12D01*
G03X1606730Y1276486I171J-2043D01*
G01X1606407Y1276233D01*
G37*
G36*
Y1237741D02*
Y1263047D01*
G02X1606721Y1264180I2200J0D01*
G01X1606742Y1264208D01*
X1606767Y1264233D01*
X1606796Y1264252D01*
X1606827Y1264266D01*
X1606861Y1264275D01*
X1606896Y1264277D01*
X1606931Y1264273D01*
X1606964Y1264264D01*
X1606996Y1264249D01*
X1607024Y1264228D01*
X1607048Y1264203D01*
X1607068Y1264174D01*
X1607082Y1264142D01*
X1607090Y1264108D01*
X1607093Y1264074D01*
X1607089Y1264039D01*
X1607089Y1264038D01*
G03X1608106Y1261868I2015J-378D01*
G02X1608457Y1261274I-349J-606D01*
G01Y1238091D01*
G03X1608957Y1237591I500J0D01*
G01X1635138D01*
G03X1635638Y1238091I0J500D01*
G01Y1259523D01*
G02X1636276Y1260208I700J-12D01*
G03X1637688Y1260890I-127J2066D01*
G01Y1237741D01*
G02X1635488Y1235541I-2200J0D01*
G01X1608607D01*
G02X1606407Y1237741I0J2200D01*
G37*
G36*
X1610345Y936328D02*
G03X1611028Y937747I-1384J1539D01*
G02X1611707Y938378I697J-69D01*
G01X1631206D01*
G02X1631688Y938170I-17J-700D01*
G03X1634254Y937883I1460J1439D01*
G01X1634285Y937900D01*
X1634318Y937910D01*
X1634353Y937915D01*
X1634388Y937913D01*
X1634422Y937906D01*
X1634454Y937893D01*
X1634484Y937874D01*
X1634509Y937850D01*
X1634531Y937823D01*
X1634547Y937792D01*
X1634557Y937759D01*
X1634562Y937724D01*
X1634561Y937689D01*
X1634553Y937655D01*
X1634542Y937628D01*
G02X1632535Y936328I-2007J900D01*
G01X1610345D01*
G37*
G36*
X1613316Y1299892D02*
X1633047D01*
X1631621Y1298067D01*
G02X1631124Y1297843I-514J475D01*
G01X1614678D01*
G02X1613998Y1298477I17J700D01*
G03X1613569Y1299569I-2043J-172D01*
G01X1613316Y1299892D01*
G37*
G36*
X1627236Y966034D02*
X1632535D01*
G02X1634735Y963834I0J-2200D01*
G01Y942411D01*
G03X1633318Y943093I-1539J-1384D01*
G02X1632685Y943778I67J697D01*
G01Y963481D01*
G03X1632185Y963984I-500J3D01*
G01X1628598D01*
G02X1627918Y964620I17J700D01*
G03X1627489Y965711I-2043J-173D01*
G01X1627236Y966034D01*
G37*
G36*
X1641053Y988061D02*
Y1005566D01*
G02X1643253Y1007766I2200J0D01*
G01X1668558D01*
G02X1670758Y1005566I0J-2200D01*
G01Y978686D01*
G02X1668170Y976478I-2220J-17D01*
G03X1668708Y978965I-1351J1594D01*
G01X1668709Y1005217D01*
G03X1668209Y1005717I-500J0D01*
G01X1643605D01*
G03X1643102Y1005217I-3J-500D01*
G01Y989419D01*
G02X1642467Y988743I-700J20D01*
G03X1641376Y988314I173J-2043D01*
G01X1641053Y988061D01*
G37*
G36*
X1644990Y1203095D02*
Y1218231D01*
G03X1646400Y1217549I1539J1384D01*
G02X1647039Y1216869I-60J-697D01*
G01Y1203445D01*
G03X1647542Y1202945I500J0D01*
G01X1659181D01*
G02X1659866Y1202309I-12J-700D01*
G03X1660548Y1200895I2066J125D01*
G01X1647190D01*
G02X1644990Y1203095I0J2200D01*
G37*
G36*
X1646564Y1064119D02*
G01Y1064469D01*
X1648614D01*
G03X1649114Y1063969I500J0D01*
G01X1685531D01*
G03X1686031Y1064469I0J500D01*
G01X1688081D01*
Y1064119D01*
G02X1685881Y1061919I-2200J0D01*
G01X1648764D01*
G02X1646564Y1064119I0J2200D01*
G37*
G36*
Y1064469D02*
G01Y1105173D01*
G02X1648764Y1107373I2200J0D01*
G01X1685881D01*
G02X1688081Y1105173I0J-2200D01*
G01Y1064469D01*
X1686031D01*
Y1104823D01*
G03X1685531Y1105323I-500J0D01*
G01X1649114D01*
G03X1648614Y1104823I0J-500D01*
G01Y1064469D01*
X1646564D01*
G37*
G36*
X1647564Y1065469D02*
X1647614D01*
G02X1647614Y1063469I0J-1000D01*
G01X1647564D01*
G02X1647564Y1065469I0J1000D01*
G37*
G36*
X1687031D02*
G01X1687081D01*
G02X1687081Y1063469I0J-1000D01*
G01X1687031D01*
G02X1687031Y1065469I0J1000D01*
G37*
G36*
X1648619Y1232176D02*
G01X1672495D01*
G02X1674384Y1231105I0J-2200D01*
G01X1674399Y1231073D01*
X1674409Y1231040D01*
X1674413Y1231005D01*
X1674411Y1230970D01*
X1674402Y1230937D01*
X1674388Y1230905D01*
X1674369Y1230876D01*
X1674345Y1230850D01*
X1674317Y1230830D01*
X1674285Y1230814D01*
X1674252Y1230805D01*
X1674217Y1230801D01*
X1674182Y1230803D01*
X1674149Y1230811D01*
X1674117Y1230825D01*
X1674115Y1230827D01*
G03X1671549Y1230371I-1006J-1786D01*
G02X1671028Y1230126I-532J454D01*
G01X1649986D01*
G02X1649301Y1230762I13J700D01*
G03X1648872Y1231853I-2043J-173D01*
G01X1648619Y1232176D01*
G37*
G36*
X1648927Y1018056D02*
Y1018406D01*
X1650976D01*
G03X1651479Y1017906I503J3D01*
G01X1676080D01*
G03X1676583Y1018406I0J503D01*
G01X1678632D01*
Y1018056D01*
G02X1676432Y1015856I-2200J0D01*
G01X1651127D01*
G02X1648927Y1018056I0J2200D01*
G37*
G36*
Y1018406D02*
G01Y1044937D01*
G02X1651127Y1047137I2200J0D01*
G01X1676432D01*
G02X1678632Y1044937I0J-2200D01*
G01Y1018406D01*
X1676583D01*
Y1044587D01*
G03X1676083Y1045087I-500J0D01*
G01X1651479D01*
G03X1650976Y1044587I0J-503D01*
G01Y1018406D01*
X1648927D01*
G37*
G36*
X1649927Y1019406D02*
X1649976D01*
G02X1649976Y1017406I0J-1000D01*
G01X1649927D01*
G02X1649927Y1019406I0J1000D01*
G37*
G36*
X1677583D02*
G01X1677632D01*
G02X1677632Y1017406I0J-1000D01*
G01X1677583D01*
G02X1677583Y1019406I0J1000D01*
G37*
G36*
X1648927Y1163725D02*
G01Y1189081D01*
G03X1650350Y1188398I1539J1384D01*
G02X1650976Y1187723I-74J-696D01*
G01Y1164075D01*
G03X1651479Y1163575I500J0D01*
G01X1676080D01*
G03X1676583Y1164075I3J500D01*
G01Y1190256D01*
G03X1676083Y1190756I-500J0D01*
G01X1674385D01*
G02X1673755Y1191403I94J722D01*
G03X1673074Y1192806I-2065J-136D01*
G01X1676432D01*
G02X1678632Y1190606I0J-2200D01*
G01Y1163725D01*
G02X1676432Y1161525I-2200J0D01*
G01X1651127D01*
G02X1648927Y1163725I0J2200D01*
G37*
G36*
X1650895Y1124355D02*
G01Y1151236D01*
G02X1653095Y1153436I2200J0D01*
G01X1678401D01*
G02X1680582Y1150743I15J-2218D01*
G03X1678744Y1151402I-1535J-1388D01*
G01X1653445Y1151386D01*
G03X1652945Y1150886I0J-500D01*
G01Y1124705D01*
G03X1653448Y1124205I500J0D01*
G01X1678612Y1124201D01*
G03X1680584Y1124842I431J2029D01*
G02X1678401Y1122155I-2168J-469D01*
G01X1653095D01*
G02X1650895Y1124355I0J2200D01*
G37*
G36*
X1652567Y1260738D02*
G01X1652820Y1261061D01*
G03X1653248Y1262148I-1615J1263D01*
G02X1653925Y1262787I697J-60D01*
G01X1676444D01*
G02X1677124Y1262152I-17J-700D01*
G03X1677553Y1261061I2043J173D01*
G01X1677806Y1260738D01*
X1652567D01*
G37*
G36*
X1652925Y1306192D02*
X1687593D01*
X1687353Y1305871D01*
G03X1686942Y1304775I1660J-1246D01*
G02X1686262Y1304142I-697J66D01*
G01X1654287D01*
G02X1653607Y1304779I17J700D01*
G03X1653178Y1305868I-2042J-175D01*
G01X1652925Y1306192D01*
G37*
G36*
X1653070Y1315856D02*
X1653305Y1316175D01*
G03X1653709Y1317277I-1679J1240D01*
G02X1654389Y1317906I696J-72D01*
G01X1686286D01*
G02X1686967Y1317268I-17J-700D01*
G03X1687395Y1316179I2043J175D01*
G01X1687648Y1315856D01*
X1653070D01*
G37*
G36*
X1683273Y1007766D02*
X1703204D01*
G02X1705302Y1006229I0J-2200D01*
G01X1705309Y1006195D01*
X1705311Y1006161D01*
X1705306Y1006126D01*
X1705296Y1006093D01*
X1705280Y1006062D01*
X1705259Y1006034D01*
X1705233Y1006011D01*
X1705204Y1005992D01*
X1705171Y1005978D01*
X1705137Y1005971D01*
X1705102Y1005969D01*
X1705068Y1005974D01*
X1705035Y1005984D01*
X1705004Y1006000D01*
X1704993Y1006008D01*
G03X1702483Y1005885I-1176J-1679D01*
G02X1702039Y1005717I-456J531D01*
G01X1684639D01*
G02X1683955Y1006352I12J700D01*
G03X1683526Y1007443I-2043J-173D01*
G01X1683273Y1007766D01*
G37*
G36*
X1683520Y1190470D02*
G02X1685772Y1192806I2226J108D01*
G01X1704785D01*
G03X1704102Y1191387I1384J-1539D01*
G02X1703418Y1190756I-697J69D01*
G01X1686632D01*
G02X1686267Y1190867I13J700D01*
G03X1683923Y1190777I-1107J-1725D01*
G01X1683520Y1190470D01*
G37*
G36*
X1683572Y1018492D02*
G03X1685906Y1017906I1582J1362D01*
G01X1703014Y1017906D01*
G02X1703699Y1017270I-12J-700D01*
G03X1704381Y1015856I2066J125D01*
G01X1685772D01*
G02X1683572Y1018492I-18J2221D01*
G37*
G36*
X1684270Y1200895D02*
G03X1684952Y1202312I-1384J1539D01*
G02X1685638Y1202945I697J-67D01*
G01X1703484D01*
G02X1703916Y1202786I-13J-700D01*
G03X1706789Y1202945I1354J1566D01*
G03X1707291Y1203445I3J500D01*
G01Y1223944D01*
G02X1707927Y1224624I700J-17D01*
G03X1709341Y1225306I-125J2066D01*
G01Y1203095D01*
G02X1707141Y1200895I-2200J0D01*
G01X1684270D01*
G37*
G36*
X1688268Y1153068D02*
X1688240Y1153090D01*
X1688217Y1153116D01*
X1688199Y1153145D01*
X1688186Y1153178D01*
X1688179Y1153212D01*
X1688177Y1153247D01*
X1688182Y1153281D01*
X1688193Y1153314D01*
X1688210Y1153345D01*
X1688231Y1153372D01*
X1688257Y1153396D01*
X1688287Y1153414D01*
X1688319Y1153427D01*
X1688353Y1153434D01*
X1688377Y1153436D01*
X1713047D01*
G02X1715247Y1151236I0J-2200D01*
G01Y1129009D01*
G03X1713827Y1129691I-1539J-1384D01*
G02X1713197Y1130371I69J697D01*
G01Y1150886D01*
G03X1712697Y1151386I-500J0D01*
G01X1709869D01*
G02X1709589Y1151451I17J700D01*
G03X1707847Y1151448I-868J-1857D01*
G02X1707571Y1151386I-289J638D01*
G01X1689770D01*
G02X1689106Y1151902I12J700D01*
G03X1688268Y1153068I-1978J-538D01*
G37*
G36*
X1688254Y1161525D02*
G01X1688507Y1161848D01*
G03X1688937Y1162944I-1614J1264D01*
G02X1689621Y1163575I697J-69D01*
G01X1707594D01*
G02X1708278Y1162940I-13J-700D01*
G03X1708707Y1161848I2043J172D01*
G01X1708960Y1161525D01*
X1688254D01*
G37*
G36*
X1688530Y1047137D02*
X1706592D01*
X1704748Y1045292D01*
G02X1704264Y1045087I-496J494D01*
G01X1689898D01*
G02X1689212Y1045721I12J700D01*
G03X1688783Y1046813I-2043J-171D01*
G01X1688530Y1047137D01*
G37*
G36*
X1688530Y1122155D02*
X1688784Y1122478D01*
G03X1689212Y1123565I-1614J1264D01*
G02X1689898Y1124205I697J-60D01*
G01X1705221D01*
G02X1705705Y1123999I-12J-700D01*
G01X1707210Y1122511D01*
X1707236Y1122487D01*
X1707256Y1122459D01*
X1707272Y1122427D01*
X1707281Y1122394D01*
X1707285Y1122359D01*
X1707283Y1122324D01*
X1707275Y1122291D01*
X1707261Y1122259D01*
X1707241Y1122230D01*
X1707217Y1122204D01*
X1707189Y1122184D01*
X1707158Y1122168D01*
X1707124Y1122159D01*
X1707089Y1122155D01*
X1707082D01*
X1688530D01*
G37*
G36*
X1701159Y1062052D02*
X1701127Y1062066D01*
X1701098Y1062086D01*
X1701073Y1062110D01*
X1701053Y1062138D01*
X1701038Y1062169D01*
X1701028Y1062203D01*
X1701024Y1062238D01*
X1701027Y1062272D01*
X1701035Y1062306D01*
X1701049Y1062338D01*
X1701069Y1062367D01*
X1701093Y1062392D01*
X1701121Y1062413D01*
X1701152Y1062428D01*
X1701186Y1062438D01*
X1701220Y1062441D01*
X1701231Y1062441D01*
G03X1701829Y1062509I70J2049D01*
G02X1703768Y1062759I1939J-7391D01*
G01X1710860D01*
G03X1712559Y1063662I-0J2050D01*
G02X1713121Y1063969I579J-394D01*
G01X1727824D01*
G02X1728504Y1063333I-17J-700D01*
G03X1729186Y1061919I2066J125D01*
G01X1701914D01*
G02X1701159Y1062052I0J2200D01*
G37*
G36*
X1702134Y1106984D02*
G01X1702102Y1106999D01*
X1702074Y1107019D01*
X1702049Y1107044D01*
X1702029Y1107072D01*
X1702014Y1107104D01*
X1702005Y1107137D01*
X1702002Y1107172D01*
X1702005Y1107207D01*
X1702014Y1107240D01*
X1702028Y1107272D01*
X1702048Y1107301D01*
X1702073Y1107325D01*
X1702101Y1107346D01*
X1702133Y1107360D01*
X1702167Y1107369D01*
X1702201Y1107373D01*
X1702206D01*
X1725249D01*
G03X1724567Y1105953I1384J-1539D01*
G02X1723887Y1105323I-697J69D01*
G01X1709184D01*
G02X1708623Y1105628I17J700D01*
G03X1706923Y1106532I-1700J-1146D01*
G01X1704724D01*
G02X1702134Y1106984I-0J7641D01*
G37*
G36*
X1702652Y1358756D02*
G02X1704867Y1361310I2196J333D01*
G01X1741984D01*
G02X1744184Y1358639I20J-2225D01*
G03X1741980Y1359260I-1573J-1365D01*
G01X1705207Y1359260D01*
G03X1702992Y1359025I-922J-1865D01*
G01X1702652Y1358756D01*
G37*
G36*
X1703354Y984746D02*
Y999563D01*
G02X1703990Y1000244I700J-17D01*
G03X1705081Y1000672I-173J2043D01*
G01X1705404Y1000926D01*
Y983384D01*
X1705081Y983637D01*
G03X1703985Y984066I-1264J-1614D01*
G02X1703354Y984746I69J697D01*
G37*
G36*
X1709852Y1122574D02*
G02X1710062Y1122703I464J-525D01*
G01X1714395Y1124369D01*
G03X1714923Y1124668I-736J1913D01*
G01X1715247Y1124922D01*
G02X1713047Y1122155I-2172J-531D01*
G01X1709905D01*
X1709868Y1122157D01*
X1709832Y1122166D01*
X1709798Y1122181D01*
X1709767Y1122201D01*
X1709740Y1122227D01*
X1709718Y1122257D01*
X1709702Y1122290D01*
X1709691Y1122326D01*
X1709687Y1122362D01*
X1709690Y1122399D01*
X1709699Y1122435D01*
X1709713Y1122469D01*
X1709734Y1122500D01*
X1709760Y1122527D01*
X1709789Y1122549D01*
X1709823Y1122565D01*
X1709852Y1122574D01*
G37*
G36*
X1709997Y1047137D02*
X1711078D01*
G02X1713278Y1044937I0J-2200D01*
G01Y1044293D01*
X1710807Y1046199D01*
G02X1710389Y1046696I7747J6936D01*
G03X1710301Y1046801I-1609J-1270D01*
G01X1709997Y1047137D01*
G37*
G36*
X1711228Y1024121D02*
Y1038876D01*
G02X1711864Y1039556I700J-17D01*
G03X1712955Y1039985I-173J2043D01*
G01X1713278Y1040238D01*
Y1022759D01*
X1712955Y1023012D01*
G03X1711859Y1023441I-1264J-1614D01*
G02X1711228Y1024121I69J697D01*
G37*
G36*
Y1169732D02*
G01Y1186278D01*
G02X1711458Y1186780I700J-17D01*
G02X1712955Y1187937I7084J-7616D01*
G01X1713278Y1188190D01*
Y1168370D01*
G03X1711859Y1169052I-1539J-1384D01*
G02X1711228Y1169732I69J697D01*
G37*
G36*
X1739181Y1077239D02*
G01Y1092066D01*
G02X1739817Y1092746I700J-17D01*
G03X1740908Y1093175I-173J2043D01*
G01X1741231Y1093428D01*
Y1075877D01*
X1740908Y1076131D01*
G03X1739812Y1076560I-1264J-1614D01*
G02X1739181Y1077239I69J697D01*
G37*
G36*
X1742134Y1276045D02*
G01Y1290875D01*
G02X1742770Y1291556I700J-17D01*
G03X1743860Y1291984I-173J2043D01*
G01X1744184Y1292238D01*
Y1274683D01*
X1743860Y1274936D01*
G03X1742764Y1275365I-1264J-1614D01*
G02X1742134Y1276045I69J697D01*
G37*
%LPD*%
G75*
X1742134Y1276045D02*
G54D10*
X1663780Y3105512D02*
G01Y3107087D01*
X1698425Y3105512D02*
Y3107087D01*
X1368504Y3172441D02*
Y3174016D01*
X1403150Y3172441D02*
Y3174016D01*
X1399213Y2920472D02*
Y2922047D01*
X1364567Y2920472D02*
Y2922047D01*
X1462992Y3042520D02*
Y3044094D01*
X1497638Y3042520D02*
Y3044094D01*
X1659843Y3144882D02*
Y3146457D01*
X1694488Y3144882D02*
Y3146457D01*
X1665748Y3066142D02*
Y3067717D01*
X1700394Y3066142D02*
Y3067717D01*
X1399213Y2999213D02*
Y3000787D01*
X1364567Y2999213D02*
Y3000787D01*
Y2959843D02*
Y2961417D01*
X1399213Y2959843D02*
Y2961417D01*
Y3085827D02*
Y3087402D01*
X1364567Y3085827D02*
Y3087402D01*
X1698425Y2959843D02*
Y2961417D01*
X1663780Y2959843D02*
Y2961417D01*
X1690551Y2920472D02*
Y2922047D01*
X1655906Y2920472D02*
Y2922047D01*
X1368504Y3137008D02*
Y3138583D01*
X1403150Y3137008D02*
Y3138583D01*
G54D11*
X1351378Y3041339D02*
Y3045276D01*
X1404528Y3041339D02*
Y3045276D01*
X1670276Y3265748D02*
Y3269685D01*
X1723425Y3265748D02*
Y3269685D01*
Y3210630D02*
Y3214567D01*
X1670276Y3210630D02*
Y3214567D01*
X1720472Y3011811D02*
Y3015748D01*
X1667323Y3011811D02*
Y3015748D01*
X1527559Y3195866D02*
X1531496D01*
X1527559Y3249016D02*
X1531496D01*
G54D10*
X1618307Y2914961D02*
X1619882D01*
X1618307Y2880315D02*
X1619882D01*
X1483465Y3183465D02*
X1485039D01*
X1483465Y3218110D02*
X1485039D01*
X1444094D02*
X1445669D01*
X1444094Y3183465D02*
X1445669D01*
X1621260Y3179528D02*
X1622835D01*
X1621260Y3214173D02*
X1622835D01*
X1574016D02*
X1575591D01*
X1574016Y3179528D02*
X1575591D01*
X1436220Y2825197D02*
X1437795D01*
X1436220Y2859843D02*
X1437795D01*
X1528740Y3106693D02*
X1530315D01*
X1528740Y3141339D02*
X1530315D01*
X1528740Y2894094D02*
X1530315D01*
X1528740Y2928740D02*
X1530315D01*
X1528740Y3003543D02*
X1530315D01*
X1528740Y2968898D02*
X1530315D01*
G54D12*
X2755906Y4025591D03*
X2716535Y2263780D03*
X472441Y2234252D03*
G54D13*
X2854331Y3602362D03*
Y3681102D03*
Y3759843D03*
Y3444882D03*
Y3523622D03*
Y3838583D03*
X2208661Y2492126D03*
X2287402Y2413386D03*
Y2492126D03*
X2366142Y2413386D03*
Y2492126D03*
X2444882Y2413386D03*
Y2492126D03*
X2523622Y2413386D03*
Y2492126D03*
G54D14*
X2854331Y3366142D03*
X2208661Y2413386D03*
G54D15*
X2755906Y4025591D03*
X2716535Y2263780D03*
X472441Y2234252D03*
%LPC*%
G75*
X472441Y2234252D02*
G54D16*
X1514753Y2914604D02*
X1516220Y2914340D01*
X1514753Y2914604D02*
X1516220Y2914340D01*
X1514753Y2914604D02*
X1516220Y2914340D01*
X1514753Y2914604D02*
X1516220Y2914340D01*
%LPD*%
G75*
X1516220Y2914340D02*
G54D17*
X2892059Y4033921D03*
G54D18*
X102953Y2248622D03*
X2849803Y3125394D03*
Y3213189D03*
X102953Y4011220D03*
G54D19*
X0Y2263780D02*
Y3996063D01*
X118110D01*
Y4094488D01*
X2952756D01*
Y3228346D01*
X2834646D01*
Y3110236D01*
X2952756D01*
Y2165354D01*
X118110D01*
Y2263780D01*
X0D01*
%LPC*%
G75*
X0Y2263780D02*
G54D20*
X1710767Y3050846D02*
X1716745Y3053157D01*
X1714005Y2974382D02*
X1710494Y2976970D01*
X1700316Y2991452D02*
X1741974D01*
X1699708Y3035947D02*
X1741696D01*
G36*
X1330619Y3022780D02*
Y3023130D01*
X1332669D01*
G03X1333169Y3022630I500J0D01*
G01X1369587D01*
G03X1370087Y3023130I0J500D01*
G01X1372136D01*
Y3022780D01*
G02X1369936Y3020580I-2200J0D01*
G01X1332819D01*
G02X1330619Y3022780I0J2200D01*
G37*
G36*
Y3023130D02*
G01Y3063834D01*
G02X1332819Y3066034I2200J0D01*
G01X1369936D01*
G02X1372136Y3063834I0J-2200D01*
G01Y3023130D01*
X1370087D01*
Y3063484D01*
G03X1369587Y3063984I-500J0D01*
G01X1333169D01*
G03X1332669Y3063484I0J-500D01*
G01Y3023130D01*
X1330619D01*
G37*
G36*
X1331619Y3024130D02*
X1331669D01*
G02X1331669Y3022130I0J-1000D01*
G01X1331619D01*
G02X1331619Y3024130I0J1000D01*
G37*
G36*
X1371087D02*
G01X1371136D01*
G02X1371136Y3022130I0J-1000D01*
G01X1371087D01*
G02X1371087Y3024130I0J1000D01*
G37*
G36*
X1349714Y2907819D02*
G01Y2934700D01*
G02X1351914Y2936900I2200J0D01*
G01X1377220D01*
G02X1379396Y2934185I15J-2218D01*
G03X1377720Y2934853I-1527J-1394D01*
G01X1352269Y2934850D01*
G03X1351764Y2934350I-6J-500D01*
G01Y2908169D01*
G03X1352267Y2907669I500J0D01*
G01X1377644Y2907669D01*
G03X1379397Y2908332I224J2056D01*
G02X1377220Y2905619I-2162J-495D01*
G01X1351914D01*
G02X1349714Y2907819I0J2200D01*
G37*
G36*
Y2947189D02*
G01Y2974070D01*
G02X1351914Y2976270I2200J0D01*
G01X1377220D01*
G02X1379396Y2973555I15J-2218D01*
G03X1377720Y2974223I-1527J-1394D01*
G01X1352267Y2974220D01*
G03X1351764Y2973720I-3J-500D01*
G01Y2947539D01*
G03X1352267Y2947039I500J0D01*
G01X1377662Y2947039D01*
G03X1379397Y2947703I207J2058D01*
G02X1377220Y2944989I-2162J-496D01*
G01X1351914D01*
G02X1349714Y2947189I0J2200D01*
G37*
G36*
Y2986560D02*
G01Y3013440D01*
G02X1351914Y3015640I2200J0D01*
G01X1377220D01*
G02X1379397Y3012927I15J-2218D01*
G03X1377700Y3013594I-1527J-1393D01*
G01X1352264Y3013591D01*
G03X1351764Y3013091I0J-500D01*
G01Y2986909D01*
G03X1352267Y2986409I500J0D01*
G01X1377665Y2986409D01*
G03X1379397Y2987074I203J2058D01*
G02X1377220Y2984360I-2162J-496D01*
G01X1351914D01*
G02X1349714Y2986560I0J2200D01*
G37*
G36*
Y3073174D02*
G01Y3100055D01*
G02X1351914Y3102255I2200J0D01*
G01X1377220D01*
G02X1379420Y3100055I0J-2200D01*
G01Y3093984D01*
G03X1378001Y3094667I-1539J-1384D01*
G02X1377370Y3095347I69J697D01*
G01Y3099705D01*
G03X1376870Y3100205I-500J0D01*
G01X1352267D01*
G03X1351764Y3099705I-3J-500D01*
G01Y3073524D01*
G03X1352267Y3073024I500J0D01*
G01X1377645Y3073023D01*
G03X1379397Y3073687I223J2056D01*
G02X1377220Y3070974I-2162J-495D01*
G01X1351914D01*
G02X1349714Y3073174I0J2200D01*
G37*
G36*
X1353651Y3124355D02*
G01Y3124705D01*
X1355701D01*
G03X1356204Y3124205I503J3D01*
G01X1380804D01*
G03X1381307Y3124705I0J503D01*
G01X1383357D01*
Y3124355D01*
G02X1381157Y3122155I-2200J0D01*
G01X1355851D01*
G02X1353651Y3124355I0J2200D01*
G37*
G36*
Y3124705D02*
G01Y3151236D01*
G02X1355851Y3153436I2200J0D01*
G01X1381157D01*
G02X1383357Y3151236I0J-2200D01*
G01Y3124705D01*
X1381307D01*
Y3150886D01*
G03X1380807Y3151386I-500J0D01*
G01X1356204D01*
G03X1355701Y3150886I0J-503D01*
G01Y3124705D01*
X1353651D01*
G37*
G36*
X1354651Y3125705D02*
X1354701D01*
G02X1354701Y3123705I0J-1000D01*
G01X1354651D01*
G02X1354651Y3125705I0J1000D01*
G37*
G36*
X1382307D02*
G01X1382357D01*
G02X1382357Y3123705I0J-1000D01*
G01X1382307D01*
G02X1382307Y3125705I0J1000D01*
G37*
G36*
X1353651Y3159788D02*
G01Y3186669D01*
G02X1355851Y3188869I2200J0D01*
G01X1377635D01*
G03X1376953Y3187450I1384J-1539D01*
G02X1376269Y3186819I-697J69D01*
G01X1356204D01*
G03X1355701Y3186319I-3J-500D01*
G01Y3160138D01*
G03X1356204Y3159638I500J0D01*
G01X1380804D01*
G03X1381307Y3160138I3J500D01*
G01Y3182499D01*
G02X1381943Y3183180I700J-17D01*
G03X1383357Y3183861I-125J2066D01*
G01Y3159788D01*
G02X1381157Y3157588I-2200J0D01*
G01X1355851D01*
G02X1353651Y3159788I0J2200D01*
G37*
G36*
X1383769Y3022780D02*
G01Y3023130D01*
X1385819D01*
G03X1386319Y3022630I500J0D01*
G01X1422736D01*
G03X1423236Y3023130I0J500D01*
G01X1425286D01*
Y3022780D01*
G02X1423086Y3020580I-2200J0D01*
G01X1385969D01*
G02X1383769Y3022780I0J2200D01*
G37*
G36*
Y3023130D02*
G01Y3063834D01*
G02X1385969Y3066034I2200J0D01*
G01X1423086D01*
G02X1425286Y3063834I0J-2200D01*
G01Y3023130D01*
X1423236D01*
Y3063484D01*
G03X1422736Y3063984I-500J0D01*
G01X1386319D01*
G03X1385819Y3063484I0J-500D01*
G01Y3023130D01*
X1383769D01*
G37*
G36*
X1384769Y3024130D02*
X1384819D01*
G02X1384819Y3022130I0J-1000D01*
G01X1384769D01*
G02X1384769Y3024130I0J1000D01*
G37*
G36*
X1424236D02*
G01X1424286D01*
G02X1424286Y3022130I0J-1000D01*
G01X1424236D01*
G02X1424236Y3024130I0J1000D01*
G37*
G36*
X1384360Y2907819D02*
G01Y2908169D01*
X1386409D01*
G03X1386912Y2907669I503J3D01*
G01X1411513D01*
G03X1412016Y2908169I0J503D01*
G01X1414066D01*
Y2907819D01*
G02X1411866Y2905619I-2200J0D01*
G01X1386560D01*
G02X1384360Y2907819I0J2200D01*
G37*
G36*
Y2908169D02*
G01Y2934700D01*
G02X1386560Y2936900I2200J0D01*
G01X1411866D01*
G02X1414066Y2934700I0J-2200D01*
G01Y2908169D01*
X1412016D01*
Y2934350D01*
G03X1411516Y2934850I-500J0D01*
G01X1386912D01*
G03X1386409Y2934350I0J-503D01*
G01Y2908169D01*
X1384360D01*
G37*
G36*
X1385360Y2909169D02*
X1385409D01*
G02X1385409Y2907169I0J-1000D01*
G01X1385360D01*
G02X1385360Y2909169I0J1000D01*
G37*
G36*
X1413016D02*
G01X1413066D01*
G02X1413066Y2907169I0J-1000D01*
G01X1413016D01*
G02X1413016Y2909169I0J1000D01*
G37*
G36*
X1384360Y2947189D02*
G01Y2947539D01*
X1386409D01*
G03X1386912Y2947039I503J3D01*
G01X1411513D01*
G03X1412016Y2947539I0J503D01*
G01X1414066D01*
Y2947189D01*
G02X1411866Y2944989I-2200J0D01*
G01X1386560D01*
G02X1384360Y2947189I0J2200D01*
G37*
G36*
Y2947539D02*
G01Y2974070D01*
G02X1386560Y2976270I2200J0D01*
G01X1411866D01*
G02X1414066Y2974070I0J-2200D01*
G01Y2947539D01*
X1412016D01*
Y2973720D01*
G03X1411516Y2974220I-500J0D01*
G01X1386912D01*
G03X1386409Y2973720I0J-503D01*
G01Y2947539D01*
X1384360D01*
G37*
G36*
X1385360Y2948539D02*
X1385409D01*
G02X1385409Y2946539I0J-1000D01*
G01X1385360D01*
G02X1385360Y2948539I0J1000D01*
G37*
G36*
X1413016D02*
G01X1413066D01*
G02X1413066Y2946539I0J-1000D01*
G01X1413016D01*
G02X1413016Y2948539I0J1000D01*
G37*
G36*
X1384360Y2986560D02*
G01Y2986909D01*
X1386409D01*
G03X1386912Y2986409I503J3D01*
G01X1411513D01*
G03X1412016Y2986909I0J503D01*
G01X1414066D01*
Y2986560D01*
G02X1411866Y2984360I-2200J0D01*
G01X1386560D01*
G02X1384360Y2986560I0J2200D01*
G37*
G36*
Y2986909D02*
G01Y3013440D01*
G02X1386560Y3015640I2200J0D01*
G01X1411866D01*
G02X1414066Y3013440I0J-2200D01*
G01Y2986909D01*
X1412016D01*
Y3013091D01*
G03X1411516Y3013591I-500J0D01*
G01X1386912D01*
G03X1386409Y3013091I0J-503D01*
G01Y2986909D01*
X1384360D01*
G37*
G36*
X1385360Y2987909D02*
X1385409D01*
G02X1385409Y2985909I0J-1000D01*
G01X1385360D01*
G02X1385360Y2987909I0J1000D01*
G37*
G36*
X1413016D02*
G01X1413066D01*
G02X1413066Y2985909I0J-1000D01*
G01X1413016D01*
G02X1413016Y2987909I0J1000D01*
G37*
G36*
X1384360Y3073174D02*
G01Y3097125D01*
G03X1385776Y3096443I1539J1384D01*
G02X1386409Y3095763I-67J-697D01*
G01Y3073524D01*
G03X1386912Y3073024I500J0D01*
G01X1411513D01*
G03X1412016Y3073524I3J500D01*
G01Y3095411D01*
G02X1412651Y3096091I700J-17D01*
G03X1414066Y3096773I-125J2066D01*
G01Y3073174D01*
G02X1411866Y3070974I-2200J0D01*
G01X1386560D01*
G02X1384360Y3073174I0J2200D01*
G37*
G36*
X1388297Y3124355D02*
G01Y3124705D01*
X1390346D01*
G03X1390849Y3124205I503J3D01*
G01X1415450D01*
G03X1415953Y3124705I0J503D01*
G01X1418003D01*
Y3124355D01*
G02X1415803Y3122155I-2200J0D01*
G01X1390497D01*
G02X1388297Y3124355I0J2200D01*
G37*
G36*
Y3124705D02*
G01Y3151236D01*
G02X1390497Y3153436I2200J0D01*
G01X1415803D01*
G02X1418003Y3151236I0J-2200D01*
G01Y3124705D01*
X1415953D01*
Y3150886D01*
G03X1415453Y3151386I-500J0D01*
G01X1390849D01*
G03X1390346Y3150886I0J-503D01*
G01Y3124705D01*
X1388297D01*
G37*
G36*
X1389297Y3125705D02*
X1389346D01*
G02X1389346Y3123705I0J-1000D01*
G01X1389297D01*
G02X1389297Y3125705I0J1000D01*
G37*
G36*
X1416953D02*
G01X1417003D01*
G02X1417003Y3123705I0J-1000D01*
G01X1416953D01*
G02X1416953Y3125705I0J1000D01*
G37*
G36*
X1388297Y3159788D02*
G01Y3160138D01*
X1390346D01*
G03X1390849Y3159638I503J3D01*
G01X1415450D01*
G03X1415953Y3160138I0J503D01*
G01X1418003D01*
Y3159788D01*
G02X1415803Y3157588I-2200J0D01*
G01X1390497D01*
G02X1388297Y3159788I0J2200D01*
G37*
G36*
Y3160138D02*
G01Y3186669D01*
G02X1390497Y3188869I2200J0D01*
G01X1415803D01*
G02X1418003Y3186669I0J-2200D01*
G01Y3160138D01*
X1415953D01*
Y3186319D01*
G03X1415453Y3186819I-500J0D01*
G01X1390849D01*
G03X1390346Y3186319I0J-503D01*
G01Y3160138D01*
X1388297D01*
G37*
G36*
X1389297Y3161138D02*
X1389346D01*
G02X1389346Y3159138I0J-1000D01*
G01X1389297D01*
G02X1389297Y3161138I0J1000D01*
G37*
G36*
X1416953D02*
G01X1417003D01*
G02X1417003Y3159138I0J-1000D01*
G01X1416953D01*
G02X1416953Y3161138I0J1000D01*
G37*
G36*
X1424461Y2874695D02*
G01X1449416D01*
X1449167Y2874373D01*
G03X1448746Y2873276I1631J-1257D01*
G02X1448066Y2872646I-696J69D01*
G01X1425823D01*
G02X1425143Y2873285I17J700D01*
G03X1424714Y2874372I-2042J-177D01*
G01X1424461Y2874695D01*
G37*
G36*
X1428261Y2810344D02*
X1428514Y2810667D01*
G03X1428943Y2811763I-1614J1264D01*
G02X1429623Y2812394I697J-69D01*
G01X1444381D01*
G02X1445062Y2811758I-17J-700D01*
G03X1445490Y2810667I2043J173D01*
G01X1445743Y2810344D01*
X1428261D01*
G37*
G36*
X1429241Y3170812D02*
Y3196118D01*
G02X1429606Y3197331I2200J0D01*
G01X1429628Y3197358D01*
X1429654Y3197381D01*
X1429684Y3197399D01*
X1429716Y3197412D01*
X1429750Y3197419D01*
X1429785Y3197420D01*
X1429820Y3197415D01*
X1429853Y3197404D01*
X1429883Y3197387D01*
X1429911Y3197366D01*
X1429934Y3197339D01*
X1429952Y3197310D01*
X1429965Y3197277D01*
X1429972Y3197243D01*
X1429973Y3197208D01*
X1429968Y3197174D01*
G03X1430942Y3194956I2001J-443D01*
G02X1431291Y3194367I-351J-606D01*
G01Y3171161D01*
G03X1431791Y3170661I500J0D01*
G01X1457972D01*
G03X1458472Y3171161I0J500D01*
G01Y3194391D01*
G02X1458809Y3194977I700J-12D01*
G03X1459723Y3197273I-1063J1753D01*
G01X1459717Y3197307D01*
X1459717Y3197342D01*
X1459723Y3197376D01*
X1459735Y3197409D01*
X1459752Y3197439D01*
X1459774Y3197466D01*
X1459801Y3197489D01*
X1459831Y3197506D01*
X1459863Y3197519D01*
X1459898Y3197525D01*
X1459933Y3197525D01*
X1459967Y3197519D01*
X1460000Y3197507D01*
X1460030Y3197490D01*
X1460057Y3197468D01*
X1460078Y3197444D01*
G02X1460522Y3196118I-1756J-1326D01*
G01Y3170812D01*
G02X1458322Y3168612I-2200J0D01*
G01X1431441D01*
G02X1429241Y3170812I0J2200D01*
G37*
G36*
Y3205457D02*
G01Y3205807D01*
X1431291D01*
G03X1431791Y3205307I500J0D01*
G01X1457972D01*
G03X1458472Y3205807I0J500D01*
G01X1460522D01*
Y3205457D01*
G02X1458322Y3203257I-2200J0D01*
G01X1431441D01*
G02X1429241Y3205457I0J2200D01*
G37*
G36*
Y3205807D02*
G01Y3230763D01*
G02X1431441Y3232963I2200J0D01*
G01X1458322D01*
G02X1460522Y3230763I0J-2200D01*
G01Y3205807D01*
X1458472D01*
Y3230411D01*
G03X1457972Y3230913I-500J3D01*
G01X1431791D01*
G03X1431291Y3230413I0J-500D01*
G01Y3205807D01*
X1429241D01*
G37*
G36*
X1430241Y3206807D02*
X1430291D01*
G02X1430291Y3204807I0J-1000D01*
G01X1430241D01*
G02X1430241Y3206807I0J1000D01*
G37*
G36*
X1459472D02*
G01X1459522D01*
G02X1459522Y3204807I0J-1000D01*
G01X1459472D01*
G02X1459472Y3206807I0J1000D01*
G37*
G36*
X1448139Y3029867D02*
G01Y3056748D01*
G02X1450339Y3058948I2200J0D01*
G01X1474897D01*
X1474931Y3058944D01*
X1474965Y3058936D01*
X1474997Y3058921D01*
X1475025Y3058901D01*
X1475050Y3058876D01*
X1475070Y3058848D01*
X1475085Y3058816D01*
X1475094Y3058782D01*
X1475097Y3058748D01*
X1475094Y3058713D01*
X1475085Y3058679D01*
X1475070Y3058648D01*
X1475050Y3058619D01*
X1475025Y3058594D01*
X1475016Y3058587D01*
G03X1474801Y3058398I1242J-1631D01*
G01X1473505Y3057103D01*
G02X1473027Y3056898I-495J495D01*
G01X1450692D01*
G03X1450189Y3056398I-3J-500D01*
G01Y3030217D01*
G03X1450692Y3029717I500J0D01*
G01X1473025D01*
G02X1473502Y3029512I-17J-700D01*
G01X1475390Y3027667D01*
X1450339D01*
G02X1448139Y3029867I0J2200D01*
G37*
G36*
X1468612Y3170812D02*
G01Y3196118D01*
G02X1469060Y3197449I2200J0D01*
G01X1469083Y3197474D01*
X1469111Y3197496D01*
X1469142Y3197512D01*
X1469175Y3197523D01*
X1469209Y3197527D01*
X1469244Y3197526D01*
X1469278Y3197519D01*
X1469311Y3197505D01*
X1469340Y3197487D01*
X1469366Y3197463D01*
X1469387Y3197436D01*
X1469403Y3197405D01*
X1469414Y3197372D01*
X1469419Y3197337D01*
X1469418Y3197302D01*
X1469412Y3197273D01*
G03X1470325Y3194978I1977J-543D01*
G02X1470661Y3194391I-363J-598D01*
G01Y3171161D01*
G03X1471161Y3170661I500J0D01*
G01X1497343D01*
G03X1497843Y3171161I0J500D01*
G01Y3194393D01*
G02X1498176Y3194977I700J-12D01*
G03X1499088Y3197280I-1063J1753D01*
G01X1499081Y3197314D01*
X1499081Y3197349D01*
X1499087Y3197383D01*
X1499098Y3197416D01*
X1499116Y3197446D01*
X1499138Y3197473D01*
X1499164Y3197496D01*
X1499194Y3197514D01*
X1499227Y3197526D01*
X1499261Y3197532D01*
X1499296Y3197533D01*
X1499330Y3197527D01*
X1499363Y3197515D01*
X1499394Y3197498D01*
X1499421Y3197476D01*
X1499441Y3197453D01*
G02X1499892Y3196118I-1749J-1335D01*
G01Y3170812D01*
G02X1497692Y3168612I-2200J0D01*
G01X1470812D01*
G02X1468612Y3170812I0J2200D01*
G37*
G36*
Y3205457D02*
G01Y3230763D01*
G02X1470812Y3232963I2200J0D01*
G01X1497692D01*
G02X1499892Y3230763I0J-2200D01*
G01Y3217949D01*
G03X1498473Y3218632I-1539J-1384D01*
G02X1497843Y3219316I69J697D01*
G01Y3230411D01*
G03X1497343Y3230913I-500J3D01*
G01X1471161D01*
G03X1470661Y3230413I0J-500D01*
G01Y3205807D01*
G03X1471161Y3205307I500J0D01*
G01X1498169Y3205307D01*
G03X1499869Y3205973I173J2061D01*
G02X1497692Y3203257I-2162J-498D01*
G01X1470812D01*
G02X1468612Y3205457I0J2200D01*
G37*
G36*
X1482785Y3029867D02*
G01Y3030217D01*
X1484835D01*
G03X1485338Y3029717I503J3D01*
G01X1509938D01*
G03X1510441Y3030217I0J503D01*
G01X1512491D01*
Y3029867D01*
G02X1510291Y3027667I-2200J0D01*
G01X1484985D01*
G02X1482785Y3029867I0J2200D01*
G37*
G36*
Y3030217D02*
G01Y3056748D01*
G02X1484985Y3058948I2200J0D01*
G01X1510291D01*
G02X1512491Y3056748I0J-2200D01*
G01Y3030217D01*
X1510441D01*
Y3056398D01*
G03X1509941Y3056898I-500J0D01*
G01X1485338D01*
G03X1484835Y3056398I0J-503D01*
G01Y3030217D01*
X1482785D01*
G37*
G36*
X1483785Y3031217D02*
X1483835D01*
G02X1483835Y3029217I0J-1000D01*
G01X1483785D01*
G02X1483785Y3031217I0J1000D01*
G37*
G36*
X1511441D02*
G01X1511491D01*
G02X1511491Y3029217I0J-1000D01*
G01X1511441D01*
G02X1511441Y3031217I0J1000D01*
G37*
G36*
X1506801Y3177308D02*
G01Y3177657D01*
X1508850D01*
G03X1509350Y3177157I500J0D01*
G01X1549705D01*
G03X1550205Y3177657I0J500D01*
G01X1552255D01*
Y3177308D01*
G02X1550055Y3175108I-2200J0D01*
G01X1509001D01*
G02X1506801Y3177308I0J2200D01*
G37*
G36*
Y3177657D02*
G01Y3214425D01*
G02X1509001Y3216625I2200J0D01*
G01X1550055D01*
G02X1552255Y3214425I0J-2200D01*
G01Y3177657D01*
X1550205D01*
Y3214075D01*
G03X1549705Y3214575I-500J0D01*
G01X1509350D01*
G03X1508850Y3214075I0J-500D01*
G01Y3177657D01*
X1506801D01*
G37*
G36*
X1507801Y3178657D02*
X1507850D01*
G02X1507850Y3176657I0J-1000D01*
G01X1507801D01*
G02X1507801Y3178657I0J1000D01*
G37*
G36*
X1551205D02*
G01X1551255D01*
G02X1551255Y3176657I0J-1000D01*
G01X1551205D01*
G02X1551205Y3178657I0J1000D01*
G37*
G36*
X1506801Y3230457D02*
G01Y3230807D01*
X1508850D01*
G03X1509350Y3230307I500J0D01*
G01X1549705D01*
G03X1550205Y3230807I0J500D01*
G01X1552255D01*
Y3230457D01*
G02X1550055Y3228257I-2200J0D01*
G01X1509001D01*
G02X1506801Y3230457I0J2200D01*
G37*
G36*
Y3230807D02*
G01Y3267574D01*
G02X1509001Y3269774I2200J0D01*
G01X1550055D01*
G02X1552255Y3267574I0J-2200D01*
G01Y3230807D01*
X1550205D01*
Y3267224D01*
G03X1549705Y3267724I-500J0D01*
G01X1509350D01*
G03X1508850Y3267224I0J-500D01*
G01Y3230807D01*
X1506801D01*
G37*
G36*
X1507801Y3231807D02*
X1507850D01*
G02X1507850Y3229807I0J-1000D01*
G01X1507801D01*
G02X1507801Y3231807I0J1000D01*
G37*
G36*
X1551205D02*
G01X1551255D01*
G02X1551255Y3229807I0J-1000D01*
G01X1551205D01*
G02X1551205Y3231807I0J1000D01*
G37*
G36*
X1513887Y3128686D02*
G01Y3153991D01*
G02X1516607Y3156167I2218J15D01*
G03X1515937Y3154604I1397J-1524D01*
G01X1515937Y3129035D01*
G03X1516437Y3128535I500J0D01*
G01X1542618D01*
G03X1543118Y3129035I0J500D01*
G01X1543118Y3154604D01*
G03X1542448Y3156167I-2067J39D01*
G02X1545168Y3153991I502J-2161D01*
G01Y3128686D01*
G02X1542968Y3126486I-2200J0D01*
G01X1516087D01*
G02X1513887Y3128686I0J2200D01*
G37*
G36*
Y2893983D02*
G01Y2906747D01*
G02X1516087Y2908947I2200J0D01*
G01X1525125D01*
G03X1524443Y2907528I1384J-1539D01*
G02X1523763Y2906898I-697J69D01*
G01X1516437D01*
G03X1515937Y2906398I0J-500D01*
G01Y2895351D01*
G02X1515303Y2894665I-700J12D01*
G03X1514210Y2894237I171J-2043D01*
G01X1513887Y2893983D01*
G37*
G36*
Y2918555D02*
Y2941393D01*
G02X1516087Y2943593I2200J0D01*
G01X1542968D01*
G02X1545168Y2941393I0J-2200D01*
G01Y2916087D01*
G02X1542968Y2913887I-2200J0D01*
G01X1522310D01*
G03X1522992Y2915306I-1384J1539D01*
G02X1523672Y2915937I697J-69D01*
G01X1542618D01*
G03X1543118Y2916437I0J500D01*
G01Y2941040D01*
G03X1542618Y2941543I-500J3D01*
G01X1516437D01*
G03X1515937Y2941043I0J-500D01*
G01Y2919917D01*
G02X1515301Y2919237I-700J17D01*
G03X1514210Y2918808I174J-2043D01*
G01X1513887Y2918555D01*
G37*
G36*
Y2956245D02*
Y2956594D01*
X1515937D01*
G03X1516437Y2956094I500J0D01*
G01X1542618D01*
G03X1543118Y2956594I0J500D01*
G01X1545168D01*
Y2956245D01*
G02X1542968Y2954045I-2200J0D01*
G01X1516087D01*
G02X1513887Y2956245I0J2200D01*
G37*
G36*
Y2956594D02*
G01Y2981551D01*
G02X1516087Y2983751I2200J0D01*
G01X1542968D01*
G02X1545168Y2981551I0J-2200D01*
G01Y2956594D01*
X1543118D01*
Y2981198D01*
G03X1542618Y2981701I-500J3D01*
G01X1516437D01*
G03X1515937Y2981201I0J-500D01*
G01Y2956594D01*
X1513887D01*
G37*
G36*
X1514887Y2957594D02*
X1514937D01*
G02X1514937Y2955594I0J-1000D01*
G01X1514887D01*
G02X1514887Y2957594I0J1000D01*
G37*
G36*
X1544118D02*
G01X1544168D01*
G02X1544168Y2955594I0J-1000D01*
G01X1544118D01*
G02X1544118Y2957594I0J1000D01*
G37*
G36*
X1513887Y2990890D02*
G01Y3016196D01*
G02X1516087Y3018396I2200J0D01*
G01X1542968D01*
G02X1545168Y3016196I0J-2200D01*
G01Y2990891D01*
G02X1542458Y2988713I-2218J-15D01*
G03X1543124Y2990441I-1392J1529D01*
G01X1543118Y3015846D01*
G03X1542618Y3016346I-500J0D01*
G01X1516437D01*
G03X1515937Y3015846I0J-500D01*
G01X1515937Y2990404D01*
G03X1516622Y2988690I2064J-168D01*
G01X1516087D01*
G02X1513887Y2990890I0J2200D01*
G37*
G36*
X1519092Y2879242D02*
G01X1519346Y2879565D01*
G03X1519775Y2880661I-1614J1264D01*
G02X1520455Y2881291I697J-69D01*
G01X1538622D01*
G02X1539302Y2880656I-17J-700D01*
G03X1539731Y2879565I2043J173D01*
G01X1539984Y2879242D01*
X1519092D01*
G37*
G36*
X1542444Y3121546D02*
G02X1545168Y3119346I494J-2175D01*
G01Y3094040D01*
G02X1544234Y3092241I-2200J0D01*
G01X1544204Y3092223D01*
X1544172Y3092211D01*
X1544137Y3092204D01*
X1544103Y3092204D01*
X1544068Y3092209D01*
X1544035Y3092221D01*
X1544005Y3092238D01*
X1543978Y3092260D01*
X1543955Y3092286D01*
X1543937Y3092316D01*
X1543925Y3092349D01*
X1543918Y3092383D01*
X1543918Y3092418D01*
X1543923Y3092452D01*
X1543935Y3092485D01*
X1543939Y3092494D01*
G03X1543375Y3095044I-1825J933D01*
G02X1543118Y3095573I443J542D01*
G01X1543120Y3119715D01*
G03X1542697Y3121222I-2038J241D01*
G01X1542444Y3121546D01*
G37*
G36*
X1559163Y3217961D02*
Y3226826D01*
G02X1561363Y3229026I2200J0D01*
G01X1588244D01*
G02X1590444Y3226826I0J-2200D01*
G01Y3201520D01*
G02X1588244Y3199320I-2200J0D01*
G01X1561363D01*
G02X1559183Y3202023I-15J2218D01*
G03X1560965Y3201360I1531J1390D01*
G01X1587890Y3201370D01*
G03X1588394Y3201870I4J500D01*
G01Y3226474D01*
G03X1587894Y3226976I-500J3D01*
G01X1561713D01*
G03X1561213Y3226476I0J-500D01*
G01Y3219328D01*
G02X1560579Y3218643I-700J12D01*
G03X1559486Y3218214I171J-2043D01*
G01X1559163Y3217961D01*
G37*
G36*
Y3166875D02*
Y3192177D01*
G02X1562286Y3194294I2251J41D01*
G03X1561672Y3192976I1442J-1472D01*
G02X1561556Y3192647I-705J63D01*
G03X1561213Y3191831I1684J-1190D01*
G01Y3167224D01*
G03X1561713Y3166724I500J0D01*
G01X1587894D01*
G03X1588394Y3167224I0J500D01*
G01Y3190408D01*
G02X1588750Y3191007I700J-12D01*
G03X1589759Y3193177I-1005J1787D01*
G01X1589756Y3193212D01*
X1589758Y3193247D01*
X1589767Y3193280D01*
X1589781Y3193312D01*
X1589800Y3193341D01*
X1589825Y3193366D01*
X1589853Y3193386D01*
X1589884Y3193402D01*
X1589918Y3193411D01*
X1589953Y3193415D01*
X1589988Y3193412D01*
X1590021Y3193404D01*
X1590053Y3193389D01*
X1590082Y3193370D01*
X1590107Y3193345D01*
X1590127Y3193317D01*
X1590128Y3193316D01*
G02X1590444Y3192181I-1884J-1136D01*
G01Y3166875D01*
G02X1588244Y3164675I-2200J0D01*
G01X1561363D01*
G02X1559163Y3166875I0J2200D01*
G37*
G36*
X1603454Y2902308D02*
G01Y2927614D01*
G02X1605654Y2929814I2200J0D01*
G01X1627125D01*
G03X1626443Y2928394I1384J-1539D01*
G02X1625763Y2927764I-697J69D01*
G01X1606004D01*
G03X1605504Y2927264I0J-500D01*
G01Y2902657D01*
G03X1606004Y2902157I500J0D01*
G01X1632185D01*
G03X1632685Y2902657I0J500D01*
G01Y2921032D01*
G02X1633319Y2921718I700J-12D01*
G03X1634735Y2922400I-123J2066D01*
G01Y2902308D01*
G02X1632535Y2900108I-2200J0D01*
G01X1605654D01*
G02X1603454Y2902308I0J2200D01*
G37*
G36*
X1606407Y3205367D02*
G01Y3226826D01*
G02X1608936Y3229045I2221J19D01*
G03X1608457Y3226365I1344J-1623D01*
G01Y3206734D01*
G02X1607823Y3206049I-700J12D01*
G03X1606730Y3205620I171J-2043D01*
G01X1606407Y3205367D01*
G37*
G36*
Y3166875D02*
Y3192181D01*
G02X1606721Y3193314I2200J0D01*
G01X1606742Y3193342D01*
X1606767Y3193366D01*
X1606796Y3193386D01*
X1606827Y3193400D01*
X1606861Y3193409D01*
X1606896Y3193411D01*
X1606931Y3193407D01*
X1606964Y3193398D01*
X1606996Y3193382D01*
X1607024Y3193362D01*
X1607048Y3193337D01*
X1607068Y3193308D01*
X1607082Y3193276D01*
X1607090Y3193242D01*
X1607093Y3193207D01*
X1607089Y3193173D01*
X1607089Y3193171D01*
G03X1608106Y3191002I2015J-378D01*
G02X1608457Y3190407I-349J-606D01*
G01Y3167224D01*
G03X1608957Y3166724I500J0D01*
G01X1635138D01*
G03X1635638Y3167224I0J500D01*
G01Y3188657D01*
G02X1636276Y3189342I700J-12D01*
G03X1637688Y3190024I-127J2066D01*
G01Y3166875D01*
G02X1635488Y3164675I-2200J0D01*
G01X1608607D01*
G02X1606407Y3166875I0J2200D01*
G37*
G36*
X1610345Y2865462D02*
G03X1611028Y2866881I-1384J1539D01*
G02X1611707Y2867512I697J-69D01*
G01X1631206D01*
G02X1631688Y2867304I-17J-700D01*
G03X1634254Y2867017I1460J1439D01*
G01X1634285Y2867033D01*
X1634318Y2867044D01*
X1634353Y2867049D01*
X1634388Y2867047D01*
X1634422Y2867040D01*
X1634454Y2867026D01*
X1634484Y2867008D01*
X1634509Y2866984D01*
X1634531Y2866957D01*
X1634547Y2866926D01*
X1634557Y2866893D01*
X1634562Y2866858D01*
X1634561Y2866823D01*
X1634553Y2866789D01*
X1634542Y2866762D01*
G02X1632535Y2865462I-2007J900D01*
G01X1610345D01*
G37*
G36*
X1613316Y3229026D02*
X1633047D01*
X1631621Y3227201D01*
G02X1631124Y3226976I-514J475D01*
G01X1614678D01*
G02X1613998Y3227611I17J700D01*
G03X1613569Y3228703I-2043J-172D01*
G01X1613316Y3229026D01*
G37*
G36*
X1627236Y2895168D02*
X1632535D01*
G02X1634735Y2892968I0J-2200D01*
G01Y2871545D01*
G03X1633318Y2872227I-1539J-1384D01*
G02X1632685Y2872912I67J697D01*
G01Y2892615D01*
G03X1632185Y2893118I-500J3D01*
G01X1628598D01*
G02X1627918Y2893754I17J700D01*
G03X1627489Y2894845I-2043J-173D01*
G01X1627236Y2895168D01*
G37*
G36*
X1641053Y2917195D02*
Y2934700D01*
G02X1643253Y2936900I2200J0D01*
G01X1668558D01*
G02X1670758Y2934700I0J-2200D01*
G01Y2907819D01*
G02X1668170Y2905612I-2220J-17D01*
G03X1668708Y2908099I-1351J1594D01*
G01X1668709Y2934350D01*
G03X1668209Y2934850I-500J0D01*
G01X1643605D01*
G03X1643102Y2934350I-3J-500D01*
G01Y2918553D01*
G02X1642467Y2917876I-700J20D01*
G03X1641376Y2917448I173J-2043D01*
G01X1641053Y2917195D01*
G37*
G36*
X1644990Y3132229D02*
Y3147365D01*
G03X1646400Y3146683I1539J1384D01*
G02X1647039Y3146003I-60J-697D01*
G01Y3132579D01*
G03X1647542Y3132079I500J0D01*
G01X1659181D01*
G02X1659866Y3131443I-12J-700D01*
G03X1660548Y3130029I2066J125D01*
G01X1647190D01*
G02X1644990Y3132229I0J2200D01*
G37*
G36*
X1646564Y2993253D02*
G01Y2993602D01*
X1648614D01*
G03X1649114Y2993102I500J0D01*
G01X1685531D01*
G03X1686031Y2993602I0J500D01*
G01X1688081D01*
Y2993253D01*
G02X1685881Y2991053I-2200J0D01*
G01X1648764D01*
G02X1646564Y2993253I0J2200D01*
G37*
G36*
Y2993602D02*
G01Y3034306D01*
G02X1648764Y3036506I2200J0D01*
G01X1685881D01*
G02X1688081Y3034306I0J-2200D01*
G01Y2993602D01*
X1686031D01*
Y3033957D01*
G03X1685531Y3034457I-500J0D01*
G01X1649114D01*
G03X1648614Y3033957I0J-500D01*
G01Y2993602D01*
X1646564D01*
G37*
G36*
X1647564Y2994602D02*
X1647614D01*
G02X1647614Y2992602I0J-1000D01*
G01X1647564D01*
G02X1647564Y2994602I0J1000D01*
G37*
G36*
X1687031D02*
G01X1687081D01*
G02X1687081Y2992602I0J-1000D01*
G01X1687031D01*
G02X1687031Y2994602I0J1000D01*
G37*
G36*
X1648619Y3161310D02*
G01X1672495D01*
G02X1674384Y3160238I0J-2200D01*
G01X1674399Y3160207D01*
X1674409Y3160174D01*
X1674413Y3160139D01*
X1674411Y3160104D01*
X1674402Y3160070D01*
X1674388Y3160038D01*
X1674369Y3160009D01*
X1674345Y3159984D01*
X1674317Y3159964D01*
X1674285Y3159948D01*
X1674252Y3159938D01*
X1674217Y3159935D01*
X1674182Y3159937D01*
X1674149Y3159945D01*
X1674117Y3159959D01*
X1674115Y3159960D01*
G03X1671549Y3159505I-1006J-1786D01*
G02X1671028Y3159260I-532J454D01*
G01X1649986D01*
G02X1649301Y3159896I13J700D01*
G03X1648872Y3160986I-2043J-173D01*
G01X1648619Y3161310D01*
G37*
G36*
X1648927Y2947189D02*
Y2947539D01*
X1650976D01*
G03X1651479Y2947039I503J3D01*
G01X1676080D01*
G03X1676583Y2947539I0J503D01*
G01X1678632D01*
Y2947189D01*
G02X1676432Y2944989I-2200J0D01*
G01X1651127D01*
G02X1648927Y2947189I0J2200D01*
G37*
G36*
Y2947539D02*
G01Y2974070D01*
G02X1651127Y2976270I2200J0D01*
G01X1676432D01*
G02X1678632Y2974070I0J-2200D01*
G01Y2947539D01*
X1676583D01*
Y2973720D01*
G03X1676083Y2974220I-500J0D01*
G01X1651479D01*
G03X1650976Y2973720I0J-503D01*
G01Y2947539D01*
X1648927D01*
G37*
G36*
X1649927Y2948539D02*
X1649976D01*
G02X1649976Y2946539I0J-1000D01*
G01X1649927D01*
G02X1649927Y2948539I0J1000D01*
G37*
G36*
X1677583D02*
G01X1677632D01*
G02X1677632Y2946539I0J-1000D01*
G01X1677583D01*
G02X1677583Y2948539I0J1000D01*
G37*
G36*
X1648927Y3092859D02*
G01Y3118215D01*
G03X1650350Y3117532I1539J1384D01*
G02X1650976Y3116856I-74J-696D01*
G01Y3093209D01*
G03X1651479Y3092709I500J0D01*
G01X1676080D01*
G03X1676583Y3093209I3J500D01*
G01Y3119390D01*
G03X1676083Y3119890I-500J0D01*
G01X1674385D01*
G02X1673755Y3120537I94J722D01*
G03X1673074Y3121940I-2065J-136D01*
G01X1676432D01*
G02X1678632Y3119740I0J-2200D01*
G01Y3092859D01*
G02X1676432Y3090659I-2200J0D01*
G01X1651127D01*
G02X1648927Y3092859I0J2200D01*
G37*
G36*
X1650895Y3053489D02*
G01Y3080370D01*
G02X1653095Y3082570I2200J0D01*
G01X1678401D01*
G02X1680582Y3079877I15J-2218D01*
G03X1678744Y3080535I-1535J-1388D01*
G01X1653445Y3080520D01*
G03X1652945Y3080020I0J-500D01*
G01Y3053839D01*
G03X1653448Y3053339I500J0D01*
G01X1678612Y3053335D01*
G03X1680584Y3053975I431J2029D01*
G02X1678401Y3051289I-2168J-469D01*
G01X1653095D01*
G02X1650895Y3053489I0J2200D01*
G37*
G36*
X1652567Y3189871D02*
G01X1652820Y3190195D01*
G03X1653248Y3191282I-1615J1263D01*
G02X1653925Y3191921I697J-60D01*
G01X1676444D01*
G02X1677124Y3191286I-17J-700D01*
G03X1677553Y3190195I2043J173D01*
G01X1677806Y3189871D01*
X1652567D01*
G37*
G36*
X1652925Y3235325D02*
X1687593D01*
X1687353Y3235005D01*
G03X1686942Y3233909I1660J-1246D01*
G02X1686262Y3233276I-697J66D01*
G01X1654287D01*
G02X1653607Y3233913I17J700D01*
G03X1653178Y3235002I-2042J-175D01*
G01X1652925Y3235325D01*
G37*
G36*
X1653070Y3244990D02*
X1653305Y3245308D01*
G03X1653709Y3246411I-1679J1240D01*
G02X1654389Y3247039I696J-72D01*
G01X1686286D01*
G02X1686967Y3246402I-17J-700D01*
G03X1687395Y3245313I2043J175D01*
G01X1687648Y3244990D01*
X1653070D01*
G37*
G36*
X1683273Y2936900D02*
X1703204D01*
G02X1705302Y2935363I0J-2200D01*
G01X1705309Y2935329D01*
X1705311Y2935294D01*
X1705306Y2935260D01*
X1705296Y2935227D01*
X1705280Y2935196D01*
X1705259Y2935168D01*
X1705233Y2935144D01*
X1705204Y2935126D01*
X1705171Y2935112D01*
X1705137Y2935105D01*
X1705102Y2935103D01*
X1705068Y2935108D01*
X1705035Y2935118D01*
X1705004Y2935134D01*
X1704993Y2935142D01*
G03X1702483Y2935019I-1176J-1679D01*
G02X1702039Y2934850I-456J531D01*
G01X1684639D01*
G02X1683955Y2935486I12J700D01*
G03X1683526Y2936577I-2043J-173D01*
G01X1683273Y2936900D01*
G37*
G36*
X1683520Y3119604D02*
G02X1685772Y3121940I2226J108D01*
G01X1704785D01*
G03X1704102Y3120520I1384J-1539D01*
G02X1703418Y3119890I-697J69D01*
G01X1686632D01*
G02X1686267Y3120000I13J700D01*
G03X1683923Y3119911I-1107J-1725D01*
G01X1683520Y3119604D01*
G37*
G36*
X1683572Y2947625D02*
G03X1685906Y2947039I1582J1362D01*
G01X1703014Y2947039D01*
G02X1703699Y2946404I-12J-700D01*
G03X1704381Y2944989I2066J125D01*
G01X1685772D01*
G02X1683572Y2947625I-18J2221D01*
G37*
G36*
X1684270Y3130029D02*
G03X1684952Y3131446I-1384J1539D01*
G02X1685638Y3132079I697J-67D01*
G01X1703484D01*
G02X1703916Y3131919I-13J-700D01*
G03X1706789Y3132079I1354J1566D01*
G03X1707291Y3132579I3J500D01*
G01Y3153078D01*
G02X1707927Y3153758I700J-17D01*
G03X1709341Y3154440I-125J2066D01*
G01Y3132229D01*
G02X1707141Y3130029I-2200J0D01*
G01X1684270D01*
G37*
G36*
X1688268Y3082202D02*
X1688240Y3082224D01*
X1688217Y3082250D01*
X1688199Y3082279D01*
X1688186Y3082312D01*
X1688179Y3082346D01*
X1688177Y3082380D01*
X1688182Y3082415D01*
X1688193Y3082448D01*
X1688210Y3082479D01*
X1688231Y3082506D01*
X1688257Y3082530D01*
X1688287Y3082548D01*
X1688319Y3082561D01*
X1688353Y3082568D01*
X1688377Y3082570D01*
X1713047D01*
G02X1715247Y3080370I0J-2200D01*
G01Y3058143D01*
G03X1713827Y3058825I-1539J-1384D01*
G02X1713197Y3059505I69J697D01*
G01Y3080020D01*
G03X1712697Y3080520I-500J0D01*
G01X1709869D01*
G02X1709589Y3080585I17J700D01*
G03X1707847Y3080582I-868J-1857D01*
G02X1707571Y3080520I-289J638D01*
G01X1689770D01*
G02X1689106Y3081036I12J700D01*
G03X1688268Y3082202I-1978J-538D01*
G37*
G36*
X1688254Y3090659D02*
G01X1688507Y3090982D01*
G03X1688937Y3092078I-1614J1264D01*
G02X1689621Y3092709I697J-69D01*
G01X1707594D01*
G02X1708278Y3092074I-13J-700D01*
G03X1708707Y3090982I2043J172D01*
G01X1708960Y3090659D01*
X1688254D01*
G37*
G36*
X1688530Y2976270D02*
X1706592D01*
X1704748Y2974426D01*
G02X1704264Y2974220I-496J494D01*
G01X1689898D01*
G02X1689212Y2974855I12J700D01*
G03X1688783Y2975947I-2043J-171D01*
G01X1688530Y2976270D01*
G37*
G36*
X1688530Y3051289D02*
X1688784Y3051612D01*
G03X1689212Y3052699I-1614J1264D01*
G02X1689898Y3053339I697J-60D01*
G01X1705221D01*
G02X1705705Y3053133I-12J-700D01*
G01X1707210Y3051645D01*
X1707236Y3051621D01*
X1707256Y3051592D01*
X1707272Y3051561D01*
X1707281Y3051528D01*
X1707285Y3051493D01*
X1707283Y3051458D01*
X1707275Y3051424D01*
X1707261Y3051393D01*
X1707241Y3051363D01*
X1707217Y3051338D01*
X1707189Y3051318D01*
X1707158Y3051302D01*
X1707124Y3051293D01*
X1707089Y3051289D01*
X1707082D01*
X1688530D01*
G37*
G36*
X1701159Y2991186D02*
X1701127Y2991200D01*
X1701098Y2991220D01*
X1701073Y2991244D01*
X1701053Y2991272D01*
X1701038Y2991303D01*
X1701028Y2991337D01*
X1701024Y2991372D01*
X1701027Y2991406D01*
X1701035Y2991440D01*
X1701049Y2991472D01*
X1701069Y2991501D01*
X1701093Y2991526D01*
X1701121Y2991547D01*
X1701152Y2991562D01*
X1701186Y2991572D01*
X1701220Y2991575D01*
X1701231Y2991575D01*
G03X1701829Y2991643I70J2049D01*
G02X1703768Y2991893I1939J-7391D01*
G01X1710860D01*
G03X1712559Y2992796I-0J2050D01*
G02X1713121Y2993102I579J-394D01*
G01X1727824D01*
G02X1728504Y2992467I-17J-700D01*
G03X1729186Y2991053I2066J125D01*
G01X1701914D01*
G02X1701159Y2991186I0J2200D01*
G37*
G36*
X1702134Y3036118D02*
G01X1702102Y3036133D01*
X1702074Y3036153D01*
X1702049Y3036177D01*
X1702029Y3036206D01*
X1702014Y3036238D01*
X1702005Y3036271D01*
X1702002Y3036306D01*
X1702005Y3036341D01*
X1702014Y3036374D01*
X1702028Y3036406D01*
X1702048Y3036435D01*
X1702073Y3036459D01*
X1702101Y3036479D01*
X1702133Y3036494D01*
X1702167Y3036503D01*
X1702201Y3036506D01*
X1702206D01*
X1725249D01*
G03X1724567Y3035087I1384J-1539D01*
G02X1723887Y3034457I-697J69D01*
G01X1709184D01*
G02X1708623Y3034761I17J700D01*
G03X1706923Y3035666I-1700J-1146D01*
G01X1704724D01*
G02X1702134Y3036118I-0J7641D01*
G37*
G36*
X1702652Y3287890D02*
G02X1704867Y3290444I2196J333D01*
G01X1741984D01*
G02X1744184Y3287773I20J-2225D01*
G03X1741980Y3288394I-1573J-1365D01*
G01X1705207Y3288394D01*
G03X1702992Y3288159I-922J-1865D01*
G01X1702652Y3287890D01*
G37*
G36*
X1703354Y2913879D02*
Y2928697D01*
G02X1703990Y2929378I700J-17D01*
G03X1705081Y2929806I-173J2043D01*
G01X1705404Y2930059D01*
Y2912517D01*
X1705081Y2912771D01*
G03X1703985Y2913200I-1264J-1614D01*
G02X1703354Y2913879I69J697D01*
G37*
G36*
X1709852Y3051708D02*
G02X1710062Y3051837I464J-525D01*
G01X1714395Y3053503D01*
G03X1714923Y3053802I-736J1913D01*
G01X1715247Y3054055D01*
G02X1713047Y3051289I-2172J-531D01*
G01X1709905D01*
X1709868Y3051291D01*
X1709832Y3051300D01*
X1709798Y3051315D01*
X1709767Y3051335D01*
X1709740Y3051361D01*
X1709718Y3051391D01*
X1709702Y3051424D01*
X1709691Y3051459D01*
X1709687Y3051496D01*
X1709690Y3051533D01*
X1709699Y3051569D01*
X1709713Y3051603D01*
X1709734Y3051634D01*
X1709760Y3051661D01*
X1709789Y3051683D01*
X1709823Y3051699D01*
X1709852Y3051708D01*
G37*
G36*
X1709997Y2976270D02*
X1711078D01*
G02X1713278Y2974070I0J-2200D01*
G01Y2973427D01*
X1710807Y2975333D01*
G02X1710389Y2975830I7747J6936D01*
G03X1710301Y2975935I-1609J-1270D01*
G01X1709997Y2976270D01*
G37*
G36*
X1711228Y2953255D02*
Y2968010D01*
G02X1711864Y2968690I700J-17D01*
G03X1712955Y2969118I-173J2043D01*
G01X1713278Y2969372D01*
Y2951893D01*
X1712955Y2952146D01*
G03X1711859Y2952575I-1264J-1614D01*
G02X1711228Y2953255I69J697D01*
G37*
G36*
Y3098866D02*
G01Y3115411D01*
G02X1711458Y3115914I700J-17D01*
G02X1712955Y3117071I7084J-7616D01*
G01X1713278Y3117324D01*
Y3097504D01*
G03X1711859Y3098186I-1539J-1384D01*
G02X1711228Y3098866I69J697D01*
G37*
G36*
X1739181Y3006373D02*
G01Y3021200D01*
G02X1739817Y3021880I700J-17D01*
G03X1740908Y3022309I-173J2043D01*
G01X1741231Y3022562D01*
Y3005011D01*
X1740908Y3005264D01*
G03X1739812Y3005694I-1264J-1614D01*
G02X1739181Y3006373I69J697D01*
G37*
G36*
X1742134Y3205179D02*
G01Y3220009D01*
G02X1742770Y3220690I700J-17D01*
G03X1743860Y3221118I-173J2043D01*
G01X1744184Y3221371D01*
Y3203817D01*
X1743860Y3204070D01*
G03X1742764Y3204499I-1264J-1614D01*
G02X1742134Y3205179I69J697D01*
G37*
%LPD*%
G75*
X1742134Y3205179D02*
G54D19*
X118110Y4094488D02*
G01Y4125984D01*
X0D01*
Y4291339D01*
X39370Y4330709D02*
X2913386D01*
X2952756Y4291339D02*
Y4094488D01*
X118110Y236220D02*
Y204724D01*
X0D01*
Y39370D01*
X39370Y0D02*
X2913386D01*
X2952756Y39370D02*
Y236220D01*
X0Y4291339D02*
X492Y4297546D01*
X1957Y4303598D01*
X4358Y4309344D01*
X7635Y4314639D01*
X11706Y4319351D01*
X16469Y4323363D01*
X21804Y4326573D01*
X27580Y4328902D01*
X33650Y4330291D01*
X39370Y4330709D01*
X2913386D02*
X2919593Y4330216D01*
X2925646Y4328751D01*
X2931391Y4326350D01*
X2936686Y4323073D01*
X2941398Y4319003D01*
X2945410Y4314240D01*
X2948620Y4308904D01*
X2950949Y4303129D01*
X2952338Y4297059D01*
X2952756Y4291339D01*
X0Y39370D02*
X492Y33163D01*
X1957Y27110D01*
X4358Y21365D01*
X7635Y16070D01*
X11706Y11358D01*
X16469Y7346D01*
X21804Y4136D01*
X27580Y1807D01*
X33650Y418D01*
X39370Y0D01*
X2913386D02*
X2919593Y492D01*
X2925646Y1957D01*
X2931391Y4358D01*
X2936686Y7635D01*
X2941398Y11706D01*
X2945410Y16469D01*
X2948620Y21804D01*
X2950949Y27580D01*
X2952338Y33650D01*
X2952756Y39370D01*
G54D21*
X393701Y4212598D03*
X2755906D03*
X196850Y118110D03*
X2755906D03*
G54D22*
X590551Y4173228D03*
X2559055D03*
X393701Y157480D03*
X2559055D03*
M02*
