*
%FSLAX26Y26*%
%MOIN*%
%ADD10R,0.019685X0.019685*%
%ADD11R,0.023622X0.023622*%
%ADD12R,0.035433X0.035433*%
%ADD13R,0.017717X0.017717*%
%ADD14R,0.011811X0.011811*%
%ADD15C,0.016535*%
%ADD16R,0.031496X0.031496*%
%ADD17R,0.135827X0.135827*%
%ADD18R,0.049213X0.049213*%
%ADD19R,0.015748X0.015748*%
%ADD20R,0.051181X0.051181*%
%ADD21R,0.014961X0.014961*%
%ADD22R,0.043307X0.043307*%
%ADD23C,0.005906*%
%ADD24C,0.039370*%
%IPPOS*%
%LNgtp*%
%LPD*%
G75*
G54D10*
X1259843Y421260D02*
Y425197D01*
X1299213Y421260D02*
Y425197D01*
X1259843Y519685D02*
Y523622D01*
X1299213Y519685D02*
Y523622D01*
X1722441Y421260D02*
Y425197D01*
X1683071Y421260D02*
Y425197D01*
X1722441Y322835D02*
Y326772D01*
X1683071Y322835D02*
Y326772D01*
X1850394Y942913D02*
Y946850D01*
X1889764Y942913D02*
Y946850D01*
X1850394Y1033465D02*
Y1037402D01*
X1889764Y1033465D02*
Y1037402D01*
X1992126Y1033465D02*
Y1037402D01*
X1952756Y1033465D02*
Y1037402D01*
X1722441Y470472D02*
Y474409D01*
X1683071Y470472D02*
Y474409D01*
X1299213Y322835D02*
Y326772D01*
X1259843Y322835D02*
Y326772D01*
X1683071Y273622D02*
Y277559D01*
X1722441Y273622D02*
Y277559D01*
X1299213Y372047D02*
Y375984D01*
X1259843Y372047D02*
Y375984D01*
X2736220Y1131890D02*
Y1135827D01*
X2775591Y1131890D02*
Y1135827D01*
X1683071Y372047D02*
Y375984D01*
X1722441Y372047D02*
Y375984D01*
X1299213Y470472D02*
Y474409D01*
X1259843Y470472D02*
Y474409D01*
X2411417Y1907480D02*
Y1911417D01*
X2450787Y1907480D02*
Y1911417D01*
X1988189Y1907480D02*
Y1911417D01*
X2027559Y1907480D02*
Y1911417D01*
X1545276Y1907480D02*
Y1911417D01*
X1584646Y1907480D02*
Y1911417D01*
G54D11*
X1978740Y751181D02*
Y752756D01*
X2013386Y751181D02*
Y752756D01*
X1722441Y520866D02*
Y522441D01*
X1687795Y520866D02*
Y522441D01*
X1547638Y1977559D02*
Y1979134D01*
X1582283Y1977559D02*
Y1979134D01*
X844882Y802362D02*
Y803937D01*
X879528Y802362D02*
Y803937D01*
X1655906Y1908661D02*
Y1910236D01*
X1690551Y1908661D02*
Y1910236D01*
Y1977559D02*
Y1979134D01*
X1655906Y1977559D02*
Y1979134D01*
X2655118Y1170472D02*
Y1172047D01*
X2620472Y1170472D02*
Y1172047D01*
X2773228Y1184252D02*
Y1185827D01*
X2738583Y1184252D02*
Y1185827D01*
X981890Y1164567D02*
Y1166142D01*
X947244Y1164567D02*
Y1166142D01*
X981890Y672441D02*
Y674016D01*
X947244Y672441D02*
Y674016D01*
X2025197Y1967717D02*
Y1969291D01*
X1990551Y1967717D02*
Y1969291D01*
X2133465Y1967717D02*
Y1969291D01*
X2098819Y1967717D02*
Y1969291D01*
X2133465Y1908661D02*
Y1910236D01*
X2098819Y1908661D02*
Y1910236D01*
X2620472Y1219685D02*
Y1221260D01*
X2655118Y1219685D02*
Y1221260D01*
X2522047Y1967717D02*
Y1969291D01*
X2556693Y1967717D02*
Y1969291D01*
X2522047Y1908661D02*
Y1910236D01*
X2556693Y1908661D02*
Y1910236D01*
X2448425Y1967717D02*
Y1969291D01*
X2413780Y1967717D02*
Y1969291D01*
X2107874Y1034646D02*
Y1036220D01*
X2073228Y1034646D02*
Y1036220D01*
X947244Y1558268D02*
Y1559843D01*
X981890Y1558268D02*
Y1559843D01*
X935433Y1951969D02*
Y1953543D01*
X970079Y1951969D02*
Y1953543D01*
G54D12*
X2674213Y1277559D02*
Y1281496D01*
X2621063Y1277559D02*
Y1281496D01*
X2575787Y1769685D02*
Y1773622D01*
X2522638Y1769685D02*
Y1773622D01*
X1709646Y1848425D02*
Y1852362D01*
X1656496Y1848425D02*
Y1852362D01*
X2575787Y1838583D02*
Y1842520D01*
X2522638Y1838583D02*
Y1842520D01*
X2099409Y1769685D02*
Y1773622D01*
X2152559Y1769685D02*
Y1773622D01*
X2099409Y1838583D02*
Y1842520D01*
X2152559Y1838583D02*
Y1842520D01*
X1709646Y1769685D02*
Y1773622D01*
X1656496Y1769685D02*
Y1773622D01*
G54D13*
X606280Y1164370D02*
X646634D01*
X606280Y1138780D02*
X646634D01*
X606280Y1113189D02*
X646634D01*
X606280Y1087598D02*
X646634D01*
X606280Y1062008D02*
X646634D01*
X606280Y1036417D02*
X646634D01*
X606280Y1010827D02*
X646634D01*
X606280Y985236D02*
X646634D01*
X606280Y959646D02*
X646634D01*
X606280Y934055D02*
X646634D01*
X606280Y908465D02*
X646634D01*
X606280Y882874D02*
X646634D01*
X837618D02*
X877972D01*
X837618Y908465D02*
X877972D01*
X837618Y934055D02*
X877972D01*
X837618Y959646D02*
X877972D01*
X837618Y985236D02*
X877972D01*
X837618Y1010827D02*
X877972D01*
X837618Y1036417D02*
X877972D01*
X837618Y1062008D02*
X877972D01*
X837618Y1087598D02*
X877972D01*
X837618Y1113189D02*
X877972D01*
X837618Y1138780D02*
X877972D01*
X837618Y1164370D02*
X877972D01*
X606280Y672244D02*
X646634D01*
X606280Y646654D02*
X646634D01*
X606280Y621063D02*
X646634D01*
X606280Y595472D02*
X646634D01*
X606280Y569882D02*
X646634D01*
X606280Y544291D02*
X646634D01*
X606280Y518701D02*
X646634D01*
X606280Y493110D02*
X646634D01*
X606280Y467520D02*
X646634D01*
X606280Y441929D02*
X646634D01*
X606280Y416339D02*
X646634D01*
X606280Y390748D02*
X646634D01*
X837618D02*
X877972D01*
X837618Y416339D02*
X877972D01*
X837618Y441929D02*
X877972D01*
X837618Y467520D02*
X877972D01*
X837618Y493110D02*
X877972D01*
X837618Y518701D02*
X877972D01*
X837618Y544291D02*
X877972D01*
X837618Y569882D02*
X877972D01*
X837618Y595472D02*
X877972D01*
X837618Y621063D02*
X877972D01*
X837618Y646654D02*
X877972D01*
X837618Y672244D02*
X877972D01*
X606280Y1951772D02*
X646634D01*
X606280Y1926181D02*
X646634D01*
X606280Y1900591D02*
X646634D01*
X606280Y1875000D02*
X646634D01*
X606280Y1849409D02*
X646634D01*
X606280Y1823819D02*
X646634D01*
X606280Y1798228D02*
X646634D01*
X606280Y1772638D02*
X646634D01*
X606280Y1747047D02*
X646634D01*
X606280Y1721457D02*
X646634D01*
X606280Y1695866D02*
X646634D01*
X606280Y1670276D02*
X646634D01*
X837618D02*
X877972D01*
X837618Y1695866D02*
X877972D01*
X837618Y1721457D02*
X877972D01*
X837618Y1747047D02*
X877972D01*
X837618Y1772638D02*
X877972D01*
X837618Y1798228D02*
X877972D01*
X837618Y1823819D02*
X877972D01*
X837618Y1849409D02*
X877972D01*
X837618Y1875000D02*
X877972D01*
X837618Y1900591D02*
X877972D01*
X837618Y1926181D02*
X877972D01*
X837618Y1951772D02*
X877972D01*
X606280Y1558071D02*
X646634D01*
X606280Y1532480D02*
X646634D01*
X606280Y1506890D02*
X646634D01*
X606280Y1481299D02*
X646634D01*
X606280Y1455709D02*
X646634D01*
X606280Y1430118D02*
X646634D01*
X606280Y1404528D02*
X646634D01*
X606280Y1378937D02*
X646634D01*
X606280Y1353346D02*
X646634D01*
X606280Y1327756D02*
X646634D01*
X606280Y1302165D02*
X646634D01*
X606280Y1276575D02*
X646634D01*
X837618D02*
X877972D01*
X837618Y1302165D02*
X877972D01*
X837618Y1327756D02*
X877972D01*
X837618Y1353346D02*
X877972D01*
X837618Y1378937D02*
X877972D01*
X837618Y1404528D02*
X877972D01*
X837618Y1430118D02*
X877972D01*
X837618Y1455709D02*
X877972D01*
X837618Y1481299D02*
X877972D01*
X837618Y1506890D02*
X877972D01*
X837618Y1532480D02*
X877972D01*
X837618Y1558071D02*
X877972D01*
G54D14*
X2470472Y932067D02*
Y978327D01*
X2450787Y932067D02*
Y978327D01*
X2431102Y932067D02*
Y978327D01*
X2411417Y932067D02*
Y978327D01*
X2391732Y932067D02*
Y978327D01*
X2372047Y932067D02*
Y978327D01*
X2352362Y932067D02*
Y978327D01*
X2332677Y932067D02*
Y978327D01*
X2312992Y932067D02*
Y978327D01*
X2293307Y932067D02*
Y978327D01*
X2273622Y932067D02*
Y978327D01*
X2253937Y932067D02*
Y978327D01*
Y1265768D02*
Y1312028D01*
X2273622Y1265768D02*
Y1312028D01*
X2293307Y1265768D02*
Y1312028D01*
X2312992Y1265768D02*
Y1312028D01*
X2332677Y1265768D02*
Y1312028D01*
X2352362Y1265768D02*
Y1312028D01*
X2372047Y1265768D02*
Y1312028D01*
X2391732Y1265768D02*
Y1312028D01*
X2411417Y1265768D02*
Y1312028D01*
X2431102Y1265768D02*
Y1312028D01*
X2450787Y1265768D02*
Y1312028D01*
X2470472Y1265768D02*
Y1312028D01*
X2172224Y1013780D02*
X2218484D01*
X2172224Y1033465D02*
X2218484D01*
X2172224Y1053150D02*
X2218484D01*
X2172224Y1072835D02*
X2218484D01*
X2172224Y1092520D02*
X2218484D01*
X2172224Y1112205D02*
X2218484D01*
X2172224Y1131890D02*
X2218484D01*
X2172224Y1151575D02*
X2218484D01*
X2172224Y1171260D02*
X2218484D01*
X2172224Y1190945D02*
X2218484D01*
X2172224Y1210630D02*
X2218484D01*
X2172224Y1230315D02*
X2218484D01*
X2505925D02*
X2552185D01*
X2505925Y1210630D02*
X2552185D01*
X2505925Y1190945D02*
X2552185D01*
X2505925Y1171260D02*
X2552185D01*
X2505925Y1151575D02*
X2552185D01*
X2505925Y1131890D02*
X2552185D01*
X2505925Y1112205D02*
X2552185D01*
X2505925Y1092520D02*
X2552185D01*
X2505925Y1072835D02*
X2552185D01*
X2505925Y1053150D02*
X2552185D01*
X2505925Y1033465D02*
X2552185D01*
X2505925Y1013780D02*
X2552185D01*
G54D10*
X2389764Y875984D02*
X2393701D01*
X2389764Y836614D02*
X2393701D01*
X1946850Y1948819D02*
X1950787D01*
X1946850Y1909449D02*
X1950787D01*
X2370079Y1948819D02*
X2374016D01*
X2370079Y1909449D02*
X2374016D01*
X1738189Y657480D02*
X1742126D01*
X1738189Y618110D02*
X1742126D01*
X1643701D02*
X1647638D01*
X1643701Y657480D02*
X1647638D01*
X1690945Y618110D02*
X1694882D01*
X1690945Y657480D02*
X1694882D01*
X1596457D02*
X1600394D01*
X1596457Y618110D02*
X1600394D01*
X1549213Y657480D02*
X1553150D01*
X1549213Y618110D02*
X1553150D01*
X1501969Y657480D02*
X1505906D01*
X1501969Y618110D02*
X1505906D01*
X1549213Y700787D02*
X1553150D01*
X1549213Y740157D02*
X1553150D01*
X1501969D02*
X1505906D01*
X1501969Y700787D02*
X1505906D01*
X1596457Y740157D02*
X1600394D01*
X1596457Y700787D02*
X1600394D01*
X1738189Y740157D02*
X1742126D01*
X1738189Y700787D02*
X1742126D01*
X1785433Y740157D02*
X1789370D01*
X1785433Y700787D02*
X1789370D01*
X1785433Y657480D02*
X1789370D01*
X1785433Y618110D02*
X1789370D01*
X1836614D02*
X1840551D01*
X1836614Y657480D02*
X1840551D01*
X1494094Y1909449D02*
X1498031D01*
X1494094Y1948819D02*
X1498031D01*
G54D15*
X1545276Y1352362D03*
X1576772D03*
X1608268D03*
X1639764D03*
X1671260D03*
X1702756D03*
X1734252D03*
X1545276Y1320866D03*
X1576772D03*
X1608268D03*
X1639764D03*
X1671260D03*
X1545276Y1289370D03*
X1608268D03*
X1671260D03*
X1545276Y1257874D03*
X1608268D03*
X1513780Y1226378D03*
X1671260D03*
X1293307Y1352362D03*
X1324803D03*
X1356299D03*
X1387795D03*
X1419291D03*
X1450787D03*
X1482283D03*
X1513780D03*
X1765748D03*
X1293307Y1320866D03*
X1324803D03*
X1356299D03*
X1387795D03*
X1419291D03*
X1450787D03*
X1482283D03*
X1513780D03*
X1702756D03*
X1734252D03*
X1765748D03*
X1293307Y1289370D03*
X1324803D03*
X1356299D03*
X1387795D03*
X1419291D03*
X1450787D03*
X1482283D03*
X1513780D03*
X1576772D03*
X1639764D03*
X1702756D03*
X1734252D03*
X1765748D03*
X1293307Y1257874D03*
X1324803D03*
X1356299D03*
X1387795D03*
X1419291D03*
X1450787D03*
X1482283D03*
X1513780D03*
X1576772D03*
X1639764D03*
X1671260D03*
X1702756D03*
X1734252D03*
X1765748D03*
X1293307Y1226378D03*
X1324803D03*
X1356299D03*
X1387795D03*
X1419291D03*
X1450787D03*
X1482283D03*
X1545276D03*
X1576772D03*
X1608268D03*
X1639764D03*
X1702756D03*
X1734252D03*
X1765748D03*
X1293307Y1194882D03*
X1324803D03*
X1356299D03*
X1387795D03*
X1419291D03*
X1450787D03*
X1482283D03*
X1513780D03*
X1545276D03*
X1576772D03*
X1608268D03*
X1639764D03*
X1671260D03*
X1702756D03*
X1734252D03*
X1765748D03*
X1293307Y1163386D03*
X1324803D03*
X1356299D03*
X1387795D03*
X1419291D03*
X1450787D03*
X1482283D03*
X1513780D03*
X1545276D03*
X1576772D03*
X1608268D03*
X1639764D03*
X1671260D03*
X1702756D03*
X1734252D03*
X1765748D03*
X1293307Y1131890D03*
X1324803D03*
X1356299D03*
X1387795D03*
X1419291D03*
X1450787D03*
X1482283D03*
X1513780D03*
X1545276D03*
X1576772D03*
X1608268D03*
X1639764D03*
X1671260D03*
X1702756D03*
X1734252D03*
X1765748D03*
X1293307Y1100394D03*
X1324803D03*
X1356299D03*
X1387795D03*
X1419291D03*
X1450787D03*
X1482283D03*
X1513780D03*
X1545276D03*
X1576772D03*
X1608268D03*
X1639764D03*
X1671260D03*
X1702756D03*
X1734252D03*
X1765748D03*
X1293307Y1068898D03*
X1324803D03*
X1356299D03*
X1387795D03*
X1419291D03*
X1450787D03*
X1482283D03*
X1513780D03*
X1545276D03*
X1576772D03*
X1608268D03*
X1639764D03*
X1671260D03*
X1702756D03*
X1734252D03*
X1765748D03*
X1293307Y1037402D03*
X1324803D03*
X1356299D03*
X1387795D03*
X1419291D03*
X1450787D03*
X1482283D03*
X1513780D03*
X1545276D03*
X1576772D03*
X1608268D03*
X1639764D03*
X1671260D03*
X1702756D03*
X1734252D03*
X1765748D03*
X1293307Y1005906D03*
X1324803D03*
X1356299D03*
X1387795D03*
X1419291D03*
X1450787D03*
X1482283D03*
X1513780D03*
X1545276D03*
X1576772D03*
X1608268D03*
X1639764D03*
X1671260D03*
X1702756D03*
X1734252D03*
X1765748D03*
X1293307Y974409D03*
X1324803D03*
X1356299D03*
X1387795D03*
X1419291D03*
X1450787D03*
X1482283D03*
X1513780D03*
X1545276D03*
X1576772D03*
X1608268D03*
X1639764D03*
X1671260D03*
X1702756D03*
X1734252D03*
X1765748D03*
X1293307Y942913D03*
X1324803D03*
X1356299D03*
X1387795D03*
X1419291D03*
X1450787D03*
X1482283D03*
X1513780D03*
X1545276D03*
X1576772D03*
X1608268D03*
X1639764D03*
X1671260D03*
X1702756D03*
X1734252D03*
X1765748D03*
X1293307Y911417D03*
X1324803D03*
X1356299D03*
X1387795D03*
X1419291D03*
X1450787D03*
X1482283D03*
X1513780D03*
X1545276D03*
X1576772D03*
X1608268D03*
X1639764D03*
X1671260D03*
X1702756D03*
X1734252D03*
X1765748D03*
X1293307Y879921D03*
X1324803D03*
X1356299D03*
X1387795D03*
X1419291D03*
X1450787D03*
X1482283D03*
X1513780D03*
X1545276D03*
X1576772D03*
X1608268D03*
X1639764D03*
X1671260D03*
X1702756D03*
X1734252D03*
X1765748D03*
G54D11*
X1350394Y1861220D02*
Y1882874D01*
X1425197Y1861220D02*
Y1882874D01*
Y1758858D02*
Y1780512D01*
X1387795Y1758858D02*
Y1780512D01*
X1350394Y1758858D02*
Y1780512D01*
X1803150Y1861220D02*
Y1882874D01*
X1877953Y1861220D02*
Y1882874D01*
Y1758858D02*
Y1780512D01*
X1840551Y1758858D02*
Y1780512D01*
X1803150Y1758858D02*
Y1780512D01*
X2226378Y1861220D02*
Y1882874D01*
X2301181Y1861220D02*
Y1882874D01*
Y1758858D02*
Y1780512D01*
X2263780Y1758858D02*
Y1780512D01*
X2226378Y1758858D02*
Y1780512D01*
G54D16*
X2456693Y1753937D02*
Y1828740D01*
X2366142Y1753937D02*
Y1828740D01*
X1942913Y1753937D02*
Y1828740D01*
X2033465Y1753937D02*
Y1828740D01*
X1490157Y1753937D02*
Y1828740D01*
X1580709Y1753937D02*
Y1828740D01*
G54D13*
X1379921Y476575D02*
X1403543D01*
X1379921Y426575D02*
X1403543D01*
X1379921Y376575D02*
X1403543D01*
X1379921Y326575D02*
X1403543D01*
X1604331D02*
X1627953D01*
X1604331Y376575D02*
X1627953D01*
X1604331Y426575D02*
X1627953D01*
X1604331Y476575D02*
X1627953D01*
G54D17*
X1503937Y383858D02*
Y419291D01*
G54D18*
X680118Y2088583D02*
Y2104331D01*
X815945Y2088583D02*
Y2104331D01*
G54D19*
X690945Y803150D02*
X714567D01*
X690945Y777559D02*
X714567D01*
X690945Y751969D02*
X714567D01*
X769685D02*
X793307D01*
X769685Y803150D02*
X793307D01*
G54D13*
X323819Y352362D02*
X341535D01*
X323819Y383858D02*
X341535D01*
X323819Y446850D02*
X341535D01*
X323819Y415354D02*
X341535D01*
X323819Y509843D02*
X341535D01*
X323819Y572835D02*
X341535D01*
X323819Y541339D02*
X341535D01*
X323819Y478346D02*
X341535D01*
X256890D02*
X274606D01*
X256890Y541339D02*
X274606D01*
X256890Y572835D02*
X274606D01*
X256890Y509843D02*
X274606D01*
X256890Y415354D02*
X274606D01*
X256890Y446850D02*
X274606D01*
X256890Y383858D02*
X274606D01*
X256890Y352362D02*
X274606D01*
X457677Y598425D02*
X475394D01*
X457677Y629921D02*
X475394D01*
X457677Y692913D02*
X475394D01*
X457677Y661417D02*
X475394D01*
X457677Y755906D02*
X475394D01*
X457677Y818898D02*
X475394D01*
X457677Y787402D02*
X475394D01*
X457677Y724409D02*
X475394D01*
X390748D02*
X408465D01*
X390748Y787402D02*
X408465D01*
X390748Y818898D02*
X408465D01*
X390748Y755906D02*
X408465D01*
X390748Y661417D02*
X408465D01*
X390748Y692913D02*
X408465D01*
X390748Y629921D02*
X408465D01*
X390748Y598425D02*
X408465D01*
X319882Y854331D02*
X337598D01*
X319882Y885827D02*
X337598D01*
X319882Y948819D02*
X337598D01*
X319882Y917323D02*
X337598D01*
X319882Y1011811D02*
X337598D01*
X319882Y1074803D02*
X337598D01*
X319882Y1043307D02*
X337598D01*
X319882Y980315D02*
X337598D01*
X252953D02*
X270669D01*
X252953Y1043307D02*
X270669D01*
X252953Y1074803D02*
X270669D01*
X252953Y1011811D02*
X270669D01*
X252953Y917323D02*
X270669D01*
X252953Y948819D02*
X270669D01*
X252953Y885827D02*
X270669D01*
X252953Y854331D02*
X270669D01*
X457677Y1100394D02*
X475394D01*
X457677Y1131890D02*
X475394D01*
X457677Y1194882D02*
X475394D01*
X457677Y1163386D02*
X475394D01*
X457677Y1257874D02*
X475394D01*
X457677Y1320866D02*
X475394D01*
X457677Y1289370D02*
X475394D01*
X457677Y1226378D02*
X475394D01*
X390748D02*
X408465D01*
X390748Y1289370D02*
X408465D01*
X390748Y1320866D02*
X408465D01*
X390748Y1257874D02*
X408465D01*
X390748Y1163386D02*
X408465D01*
X390748Y1194882D02*
X408465D01*
X390748Y1131890D02*
X408465D01*
X390748Y1100394D02*
X408465D01*
X319882Y1336614D02*
X337598D01*
X319882Y1368110D02*
X337598D01*
X319882Y1431102D02*
X337598D01*
X319882Y1399606D02*
X337598D01*
X319882Y1494094D02*
X337598D01*
X319882Y1557087D02*
X337598D01*
X319882Y1525591D02*
X337598D01*
X319882Y1462598D02*
X337598D01*
X252953D02*
X270669D01*
X252953Y1525591D02*
X270669D01*
X252953Y1557087D02*
X270669D01*
X252953Y1494094D02*
X270669D01*
X252953Y1399606D02*
X270669D01*
X252953Y1431102D02*
X270669D01*
X252953Y1368110D02*
X270669D01*
X252953Y1336614D02*
X270669D01*
X457677Y1572835D02*
X475394D01*
X457677Y1604331D02*
X475394D01*
X457677Y1667323D02*
X475394D01*
X457677Y1635827D02*
X475394D01*
X457677Y1730315D02*
X475394D01*
X457677Y1793307D02*
X475394D01*
X457677Y1761811D02*
X475394D01*
X457677Y1698819D02*
X475394D01*
X390748D02*
X408465D01*
X390748Y1761811D02*
X408465D01*
X390748Y1793307D02*
X408465D01*
X390748Y1730315D02*
X408465D01*
X390748Y1635827D02*
X408465D01*
X390748Y1667323D02*
X408465D01*
X390748Y1604331D02*
X408465D01*
X390748Y1572835D02*
X408465D01*
X319882Y1828740D02*
X337598D01*
X319882Y1860236D02*
X337598D01*
X319882Y1923228D02*
X337598D01*
X319882Y1891732D02*
X337598D01*
X319882Y1986220D02*
X337598D01*
X319882Y2049213D02*
X337598D01*
X319882Y2017717D02*
X337598D01*
X319882Y1954724D02*
X337598D01*
X252953D02*
X270669D01*
X252953Y2017717D02*
X270669D01*
X252953Y2049213D02*
X270669D01*
X252953Y1986220D02*
X270669D01*
X252953Y1891732D02*
X270669D01*
X252953Y1923228D02*
X270669D01*
X252953Y1860236D02*
X270669D01*
X252953Y1828740D02*
X270669D01*
G54D12*
X1877953Y2103346D02*
X1881890D01*
X1877953Y2050197D02*
X1881890D01*
X2301181Y2047244D02*
X2305118D01*
X2301181Y2100394D02*
X2305118D01*
X2527559Y819882D02*
X2531496D01*
X2527559Y873031D02*
X2531496D01*
X2596457Y819882D02*
X2600394D01*
X2596457Y873031D02*
X2600394D01*
X1425197Y2050197D02*
X1429134D01*
X1425197Y2103346D02*
X1429134D01*
G54D20*
X1179134Y2088583D02*
X1198819D01*
X1179134Y1974409D02*
X1198819D01*
X1061024Y2088583D02*
X1080709D01*
X1061024Y1974409D02*
X1080709D01*
X2187008Y1948819D02*
Y1968504D01*
X2301181Y1948819D02*
Y1968504D01*
X1763780Y1948819D02*
Y1968504D01*
X1877953Y1948819D02*
Y1968504D01*
X1311024Y1948819D02*
Y1968504D01*
X1425197Y1948819D02*
Y1968504D01*
G54D16*
X2677165Y811024D02*
Y814961D01*
Y877953D02*
Y881890D01*
Y1007874D02*
Y1011811D01*
Y1074803D02*
Y1078740D01*
G54D11*
X2469685Y873622D02*
X2471260D01*
X2469685Y838976D02*
X2471260D01*
X2253150Y1370472D02*
X2254724D01*
X2253150Y1405118D02*
X2254724D01*
X2607480Y1016142D02*
X2609055D01*
X2607480Y1050787D02*
X2609055D01*
G54D12*
X2754921Y814961D02*
X2756890D01*
X2754921Y877953D02*
X2756890D01*
X2754921Y1011811D02*
X2756890D01*
X2754921Y1074803D02*
X2756890D01*
G54D21*
X19291Y1888287D02*
X83071D01*
X19291Y1863287D02*
X83071D01*
X19291Y1838287D02*
X83071D01*
X19291Y1813287D02*
X83071D01*
X19291Y2038287D02*
X83071D01*
X19291Y1988287D02*
X83071D01*
X19291Y1938287D02*
X83071D01*
X19291Y1788287D02*
X83071D01*
X19291Y1738287D02*
X83071D01*
X19291Y1688287D02*
X83071D01*
X19291Y1638287D02*
X83071D01*
X19291Y1588287D02*
X83071D01*
X19291Y1538287D02*
X83071D01*
X19291Y1488287D02*
X83071D01*
X19291Y1438287D02*
X83071D01*
X19291Y1388287D02*
X83071D01*
X19291Y1338287D02*
X83071D01*
X19291Y1288287D02*
X83071D01*
X19291Y1238287D02*
X83071D01*
X19291Y1188287D02*
X83071D01*
X19291Y1138287D02*
X83071D01*
X19291Y1088287D02*
X83071D01*
X19291Y1038287D02*
X83071D01*
X19291Y988287D02*
X83071D01*
X19291Y938287D02*
X83071D01*
X19291Y888287D02*
X83071D01*
X19291Y838287D02*
X83071D01*
X19291Y788287D02*
X83071D01*
X19291Y738287D02*
X83071D01*
X19291Y688287D02*
X83071D01*
X19291Y638287D02*
X83071D01*
X19291Y588287D02*
X83071D01*
X19291Y538287D02*
X83071D01*
X19291Y488287D02*
X83071D01*
X19291Y438287D02*
X83071D01*
X19291Y388287D02*
X83071D01*
X19291Y2013287D02*
X83071D01*
X19291Y1963287D02*
X83071D01*
X19291Y1913287D02*
X83071D01*
X19291Y1763287D02*
X83071D01*
X19291Y1713287D02*
X83071D01*
X19291Y1663287D02*
X83071D01*
X19291Y1613287D02*
X83071D01*
X19291Y1563287D02*
X83071D01*
X19291Y1513287D02*
X83071D01*
X19291Y1463287D02*
X83071D01*
X19291Y1413287D02*
X83071D01*
X19291Y1363287D02*
X83071D01*
X19291Y1313287D02*
X83071D01*
X19291Y1263287D02*
X83071D01*
X19291Y1213287D02*
X83071D01*
X19291Y1163287D02*
X83071D01*
X19291Y1113287D02*
X83071D01*
X19291Y1063287D02*
X83071D01*
X19291Y1013287D02*
X83071D01*
X19291Y963287D02*
X83071D01*
X19291Y913287D02*
X83071D01*
X19291Y863287D02*
X83071D01*
X19291Y813287D02*
X83071D01*
X19291Y763287D02*
X83071D01*
X19291Y713287D02*
X83071D01*
X19291Y663287D02*
X83071D01*
X19291Y613287D02*
X83071D01*
X19291Y563287D02*
X83071D01*
X19291Y513287D02*
X83071D01*
X19291Y463287D02*
X83071D01*
X19291Y413287D02*
X83071D01*
X19291Y363287D02*
X83071D01*
G54D22*
X2031496Y848425D02*
Y856299D01*
X1964567Y848425D02*
Y856299D01*
X2031496Y935039D02*
Y942913D01*
X1964567Y935039D02*
Y942913D01*
G54D10*
X1259843Y2350394D02*
Y2354331D01*
X1299213Y2350394D02*
Y2354331D01*
X1259843Y2448819D02*
Y2452756D01*
X1299213Y2448819D02*
Y2452756D01*
X1722441Y2350394D02*
Y2354331D01*
X1683071Y2350394D02*
Y2354331D01*
X1722441Y2251969D02*
Y2255906D01*
X1683071Y2251969D02*
Y2255906D01*
X1850394Y2872047D02*
Y2875984D01*
X1889764Y2872047D02*
Y2875984D01*
X1850394Y2962598D02*
Y2966535D01*
X1889764Y2962598D02*
Y2966535D01*
X1992126Y2962598D02*
Y2966535D01*
X1952756Y2962598D02*
Y2966535D01*
X1722441Y2399606D02*
Y2403543D01*
X1683071Y2399606D02*
Y2403543D01*
X1299213Y2251969D02*
Y2255906D01*
X1259843Y2251969D02*
Y2255906D01*
X1683071Y2202756D02*
Y2206693D01*
X1722441Y2202756D02*
Y2206693D01*
X1299213Y2301181D02*
Y2305118D01*
X1259843Y2301181D02*
Y2305118D01*
X2736220Y3061024D02*
Y3064961D01*
X2775591Y3061024D02*
Y3064961D01*
X1683071Y2301181D02*
Y2305118D01*
X1722441Y2301181D02*
Y2305118D01*
X1299213Y2399606D02*
Y2403543D01*
X1259843Y2399606D02*
Y2403543D01*
X2411417Y3836614D02*
Y3840551D01*
X2450787Y3836614D02*
Y3840551D01*
X1988189Y3836614D02*
Y3840551D01*
X2027559Y3836614D02*
Y3840551D01*
X1545276Y3836614D02*
Y3840551D01*
X1584646Y3836614D02*
Y3840551D01*
G54D11*
X1978740Y2680315D02*
Y2681890D01*
X2013386Y2680315D02*
Y2681890D01*
X1722441Y2450000D02*
Y2451575D01*
X1687795Y2450000D02*
Y2451575D01*
X1547638Y3906693D02*
Y3908268D01*
X1582283Y3906693D02*
Y3908268D01*
X844882Y2731496D02*
Y2733071D01*
X879528Y2731496D02*
Y2733071D01*
X1655906Y3837795D02*
Y3839370D01*
X1690551Y3837795D02*
Y3839370D01*
Y3906693D02*
Y3908268D01*
X1655906Y3906693D02*
Y3908268D01*
X2655118Y3099606D02*
Y3101181D01*
X2620472Y3099606D02*
Y3101181D01*
X2773228Y3113386D02*
Y3114961D01*
X2738583Y3113386D02*
Y3114961D01*
X981890Y3093701D02*
Y3095276D01*
X947244Y3093701D02*
Y3095276D01*
X981890Y2601575D02*
Y2603150D01*
X947244Y2601575D02*
Y2603150D01*
X2025197Y3896850D02*
Y3898425D01*
X1990551Y3896850D02*
Y3898425D01*
X2133465Y3896850D02*
Y3898425D01*
X2098819Y3896850D02*
Y3898425D01*
X2133465Y3837795D02*
Y3839370D01*
X2098819Y3837795D02*
Y3839370D01*
X2620472Y3148819D02*
Y3150394D01*
X2655118Y3148819D02*
Y3150394D01*
X2522047Y3896850D02*
Y3898425D01*
X2556693Y3896850D02*
Y3898425D01*
X2522047Y3837795D02*
Y3839370D01*
X2556693Y3837795D02*
Y3839370D01*
X2448425Y3896850D02*
Y3898425D01*
X2413780Y3896850D02*
Y3898425D01*
X2107874Y2963780D02*
Y2965354D01*
X2073228Y2963780D02*
Y2965354D01*
X947244Y3487402D02*
Y3488976D01*
X981890Y3487402D02*
Y3488976D01*
X935433Y3881102D02*
Y3882677D01*
X970079Y3881102D02*
Y3882677D01*
G54D12*
X2674213Y3206693D02*
Y3210630D01*
X2621063Y3206693D02*
Y3210630D01*
X2575787Y3698819D02*
Y3702756D01*
X2522638Y3698819D02*
Y3702756D01*
X1709646Y3777559D02*
Y3781496D01*
X1656496Y3777559D02*
Y3781496D01*
X2575787Y3767717D02*
Y3771654D01*
X2522638Y3767717D02*
Y3771654D01*
X2099409Y3698819D02*
Y3702756D01*
X2152559Y3698819D02*
Y3702756D01*
X2099409Y3767717D02*
Y3771654D01*
X2152559Y3767717D02*
Y3771654D01*
X1709646Y3698819D02*
Y3702756D01*
X1656496Y3698819D02*
Y3702756D01*
G54D13*
X606280Y3093504D02*
X646634D01*
X606280Y3067913D02*
X646634D01*
X606280Y3042323D02*
X646634D01*
X606280Y3016732D02*
X646634D01*
X606280Y2991142D02*
X646634D01*
X606280Y2965551D02*
X646634D01*
X606280Y2939961D02*
X646634D01*
X606280Y2914370D02*
X646634D01*
X606280Y2888780D02*
X646634D01*
X606280Y2863189D02*
X646634D01*
X606280Y2837598D02*
X646634D01*
X606280Y2812008D02*
X646634D01*
X837618D02*
X877972D01*
X837618Y2837598D02*
X877972D01*
X837618Y2863189D02*
X877972D01*
X837618Y2888780D02*
X877972D01*
X837618Y2914370D02*
X877972D01*
X837618Y2939961D02*
X877972D01*
X837618Y2965551D02*
X877972D01*
X837618Y2991142D02*
X877972D01*
X837618Y3016732D02*
X877972D01*
X837618Y3042323D02*
X877972D01*
X837618Y3067913D02*
X877972D01*
X837618Y3093504D02*
X877972D01*
X606280Y2601378D02*
X646634D01*
X606280Y2575787D02*
X646634D01*
X606280Y2550197D02*
X646634D01*
X606280Y2524606D02*
X646634D01*
X606280Y2499016D02*
X646634D01*
X606280Y2473425D02*
X646634D01*
X606280Y2447835D02*
X646634D01*
X606280Y2422244D02*
X646634D01*
X606280Y2396654D02*
X646634D01*
X606280Y2371063D02*
X646634D01*
X606280Y2345472D02*
X646634D01*
X606280Y2319882D02*
X646634D01*
X837618D02*
X877972D01*
X837618Y2345472D02*
X877972D01*
X837618Y2371063D02*
X877972D01*
X837618Y2396654D02*
X877972D01*
X837618Y2422244D02*
X877972D01*
X837618Y2447835D02*
X877972D01*
X837618Y2473425D02*
X877972D01*
X837618Y2499016D02*
X877972D01*
X837618Y2524606D02*
X877972D01*
X837618Y2550197D02*
X877972D01*
X837618Y2575787D02*
X877972D01*
X837618Y2601378D02*
X877972D01*
X606280Y3880906D02*
X646634D01*
X606280Y3855315D02*
X646634D01*
X606280Y3829724D02*
X646634D01*
X606280Y3804134D02*
X646634D01*
X606280Y3778543D02*
X646634D01*
X606280Y3752953D02*
X646634D01*
X606280Y3727362D02*
X646634D01*
X606280Y3701772D02*
X646634D01*
X606280Y3676181D02*
X646634D01*
X606280Y3650591D02*
X646634D01*
X606280Y3625000D02*
X646634D01*
X606280Y3599409D02*
X646634D01*
X837618D02*
X877972D01*
X837618Y3625000D02*
X877972D01*
X837618Y3650591D02*
X877972D01*
X837618Y3676181D02*
X877972D01*
X837618Y3701772D02*
X877972D01*
X837618Y3727362D02*
X877972D01*
X837618Y3752953D02*
X877972D01*
X837618Y3778543D02*
X877972D01*
X837618Y3804134D02*
X877972D01*
X837618Y3829724D02*
X877972D01*
X837618Y3855315D02*
X877972D01*
X837618Y3880906D02*
X877972D01*
X606280Y3487205D02*
X646634D01*
X606280Y3461614D02*
X646634D01*
X606280Y3436024D02*
X646634D01*
X606280Y3410433D02*
X646634D01*
X606280Y3384843D02*
X646634D01*
X606280Y3359252D02*
X646634D01*
X606280Y3333661D02*
X646634D01*
X606280Y3308071D02*
X646634D01*
X606280Y3282480D02*
X646634D01*
X606280Y3256890D02*
X646634D01*
X606280Y3231299D02*
X646634D01*
X606280Y3205709D02*
X646634D01*
X837618D02*
X877972D01*
X837618Y3231299D02*
X877972D01*
X837618Y3256890D02*
X877972D01*
X837618Y3282480D02*
X877972D01*
X837618Y3308071D02*
X877972D01*
X837618Y3333661D02*
X877972D01*
X837618Y3359252D02*
X877972D01*
X837618Y3384843D02*
X877972D01*
X837618Y3410433D02*
X877972D01*
X837618Y3436024D02*
X877972D01*
X837618Y3461614D02*
X877972D01*
X837618Y3487205D02*
X877972D01*
G54D14*
X2470472Y2861201D02*
Y2907461D01*
X2450787Y2861201D02*
Y2907461D01*
X2431102Y2861201D02*
Y2907461D01*
X2411417Y2861201D02*
Y2907461D01*
X2391732Y2861201D02*
Y2907461D01*
X2372047Y2861201D02*
Y2907461D01*
X2352362Y2861201D02*
Y2907461D01*
X2332677Y2861201D02*
Y2907461D01*
X2312992Y2861201D02*
Y2907461D01*
X2293307Y2861201D02*
Y2907461D01*
X2273622Y2861201D02*
Y2907461D01*
X2253937Y2861201D02*
Y2907461D01*
Y3194902D02*
Y3241161D01*
X2273622Y3194902D02*
Y3241161D01*
X2293307Y3194902D02*
Y3241161D01*
X2312992Y3194902D02*
Y3241161D01*
X2332677Y3194902D02*
Y3241161D01*
X2352362Y3194902D02*
Y3241161D01*
X2372047Y3194902D02*
Y3241161D01*
X2391732Y3194902D02*
Y3241161D01*
X2411417Y3194902D02*
Y3241161D01*
X2431102Y3194902D02*
Y3241161D01*
X2450787Y3194902D02*
Y3241161D01*
X2470472Y3194902D02*
Y3241161D01*
X2172224Y2942913D02*
X2218484D01*
X2172224Y2962598D02*
X2218484D01*
X2172224Y2982283D02*
X2218484D01*
X2172224Y3001969D02*
X2218484D01*
X2172224Y3021654D02*
X2218484D01*
X2172224Y3041339D02*
X2218484D01*
X2172224Y3061024D02*
X2218484D01*
X2172224Y3080709D02*
X2218484D01*
X2172224Y3100394D02*
X2218484D01*
X2172224Y3120079D02*
X2218484D01*
X2172224Y3139764D02*
X2218484D01*
X2172224Y3159449D02*
X2218484D01*
X2505925D02*
X2552185D01*
X2505925Y3139764D02*
X2552185D01*
X2505925Y3120079D02*
X2552185D01*
X2505925Y3100394D02*
X2552185D01*
X2505925Y3080709D02*
X2552185D01*
X2505925Y3061024D02*
X2552185D01*
X2505925Y3041339D02*
X2552185D01*
X2505925Y3021654D02*
X2552185D01*
X2505925Y3001969D02*
X2552185D01*
X2505925Y2982283D02*
X2552185D01*
X2505925Y2962598D02*
X2552185D01*
X2505925Y2942913D02*
X2552185D01*
G54D10*
X2389764Y2805118D02*
X2393701D01*
X2389764Y2765748D02*
X2393701D01*
X1946850Y3877953D02*
X1950787D01*
X1946850Y3838583D02*
X1950787D01*
X2370079Y3877953D02*
X2374016D01*
X2370079Y3838583D02*
X2374016D01*
X1738189Y2586614D02*
X1742126D01*
X1738189Y2547244D02*
X1742126D01*
X1643701D02*
X1647638D01*
X1643701Y2586614D02*
X1647638D01*
X1690945Y2547244D02*
X1694882D01*
X1690945Y2586614D02*
X1694882D01*
X1596457D02*
X1600394D01*
X1596457Y2547244D02*
X1600394D01*
X1549213Y2586614D02*
X1553150D01*
X1549213Y2547244D02*
X1553150D01*
X1501969Y2586614D02*
X1505906D01*
X1501969Y2547244D02*
X1505906D01*
X1549213Y2629921D02*
X1553150D01*
X1549213Y2669291D02*
X1553150D01*
X1501969D02*
X1505906D01*
X1501969Y2629921D02*
X1505906D01*
X1596457Y2669291D02*
X1600394D01*
X1596457Y2629921D02*
X1600394D01*
X1738189Y2669291D02*
X1742126D01*
X1738189Y2629921D02*
X1742126D01*
X1785433Y2669291D02*
X1789370D01*
X1785433Y2629921D02*
X1789370D01*
X1785433Y2586614D02*
X1789370D01*
X1785433Y2547244D02*
X1789370D01*
X1836614D02*
X1840551D01*
X1836614Y2586614D02*
X1840551D01*
X1494094Y3838583D02*
X1498031D01*
X1494094Y3877953D02*
X1498031D01*
G54D15*
X1545276Y3281496D03*
X1576772D03*
X1608268D03*
X1639764D03*
X1671260D03*
X1702756D03*
X1734252D03*
X1545276Y3250000D03*
X1576772D03*
X1608268D03*
X1639764D03*
X1671260D03*
X1545276Y3218504D03*
X1608268D03*
X1671260D03*
X1545276Y3187008D03*
X1608268D03*
X1513780Y3155512D03*
X1671260D03*
X1293307Y3281496D03*
X1324803D03*
X1356299D03*
X1387795D03*
X1419291D03*
X1450787D03*
X1482283D03*
X1513780D03*
X1765748D03*
X1293307Y3250000D03*
X1324803D03*
X1356299D03*
X1387795D03*
X1419291D03*
X1450787D03*
X1482283D03*
X1513780D03*
X1702756D03*
X1734252D03*
X1765748D03*
X1293307Y3218504D03*
X1324803D03*
X1356299D03*
X1387795D03*
X1419291D03*
X1450787D03*
X1482283D03*
X1513780D03*
X1576772D03*
X1639764D03*
X1702756D03*
X1734252D03*
X1765748D03*
X1293307Y3187008D03*
X1324803D03*
X1356299D03*
X1387795D03*
X1419291D03*
X1450787D03*
X1482283D03*
X1513780D03*
X1576772D03*
X1639764D03*
X1671260D03*
X1702756D03*
X1734252D03*
X1765748D03*
X1293307Y3155512D03*
X1324803D03*
X1356299D03*
X1387795D03*
X1419291D03*
X1450787D03*
X1482283D03*
X1545276D03*
X1576772D03*
X1608268D03*
X1639764D03*
X1702756D03*
X1734252D03*
X1765748D03*
X1293307Y3124016D03*
X1324803D03*
X1356299D03*
X1387795D03*
X1419291D03*
X1450787D03*
X1482283D03*
X1513780D03*
X1545276D03*
X1576772D03*
X1608268D03*
X1639764D03*
X1671260D03*
X1702756D03*
X1734252D03*
X1765748D03*
X1293307Y3092520D03*
X1324803D03*
X1356299D03*
X1387795D03*
X1419291D03*
X1450787D03*
X1482283D03*
X1513780D03*
X1545276D03*
X1576772D03*
X1608268D03*
X1639764D03*
X1671260D03*
X1702756D03*
X1734252D03*
X1765748D03*
X1293307Y3061024D03*
X1324803D03*
X1356299D03*
X1387795D03*
X1419291D03*
X1450787D03*
X1482283D03*
X1513780D03*
X1545276D03*
X1576772D03*
X1608268D03*
X1639764D03*
X1671260D03*
X1702756D03*
X1734252D03*
X1765748D03*
X1293307Y3029528D03*
X1324803D03*
X1356299D03*
X1387795D03*
X1419291D03*
X1450787D03*
X1482283D03*
X1513780D03*
X1545276D03*
X1576772D03*
X1608268D03*
X1639764D03*
X1671260D03*
X1702756D03*
X1734252D03*
X1765748D03*
X1293307Y2998031D03*
X1324803D03*
X1356299D03*
X1387795D03*
X1419291D03*
X1450787D03*
X1482283D03*
X1513780D03*
X1545276D03*
X1576772D03*
X1608268D03*
X1639764D03*
X1671260D03*
X1702756D03*
X1734252D03*
X1765748D03*
X1293307Y2966535D03*
X1324803D03*
X1356299D03*
X1387795D03*
X1419291D03*
X1450787D03*
X1482283D03*
X1513780D03*
X1545276D03*
X1576772D03*
X1608268D03*
X1639764D03*
X1671260D03*
X1702756D03*
X1734252D03*
X1765748D03*
X1293307Y2935039D03*
X1324803D03*
X1356299D03*
X1387795D03*
X1419291D03*
X1450787D03*
X1482283D03*
X1513780D03*
X1545276D03*
X1576772D03*
X1608268D03*
X1639764D03*
X1671260D03*
X1702756D03*
X1734252D03*
X1765748D03*
X1293307Y2903543D03*
X1324803D03*
X1356299D03*
X1387795D03*
X1419291D03*
X1450787D03*
X1482283D03*
X1513780D03*
X1545276D03*
X1576772D03*
X1608268D03*
X1639764D03*
X1671260D03*
X1702756D03*
X1734252D03*
X1765748D03*
X1293307Y2872047D03*
X1324803D03*
X1356299D03*
X1387795D03*
X1419291D03*
X1450787D03*
X1482283D03*
X1513780D03*
X1545276D03*
X1576772D03*
X1608268D03*
X1639764D03*
X1671260D03*
X1702756D03*
X1734252D03*
X1765748D03*
X1293307Y2840551D03*
X1324803D03*
X1356299D03*
X1387795D03*
X1419291D03*
X1450787D03*
X1482283D03*
X1513780D03*
X1545276D03*
X1576772D03*
X1608268D03*
X1639764D03*
X1671260D03*
X1702756D03*
X1734252D03*
X1765748D03*
X1293307Y2809055D03*
X1324803D03*
X1356299D03*
X1387795D03*
X1419291D03*
X1450787D03*
X1482283D03*
X1513780D03*
X1545276D03*
X1576772D03*
X1608268D03*
X1639764D03*
X1671260D03*
X1702756D03*
X1734252D03*
X1765748D03*
G54D11*
X1350394Y3790354D02*
Y3812008D01*
X1425197Y3790354D02*
Y3812008D01*
Y3687992D02*
Y3709646D01*
X1387795Y3687992D02*
Y3709646D01*
X1350394Y3687992D02*
Y3709646D01*
X1803150Y3790354D02*
Y3812008D01*
X1877953Y3790354D02*
Y3812008D01*
Y3687992D02*
Y3709646D01*
X1840551Y3687992D02*
Y3709646D01*
X1803150Y3687992D02*
Y3709646D01*
X2226378Y3790354D02*
Y3812008D01*
X2301181Y3790354D02*
Y3812008D01*
Y3687992D02*
Y3709646D01*
X2263780Y3687992D02*
Y3709646D01*
X2226378Y3687992D02*
Y3709646D01*
G54D16*
X2456693Y3683071D02*
Y3757874D01*
X2366142Y3683071D02*
Y3757874D01*
X1942913Y3683071D02*
Y3757874D01*
X2033465Y3683071D02*
Y3757874D01*
X1490157Y3683071D02*
Y3757874D01*
X1580709Y3683071D02*
Y3757874D01*
G54D13*
X1379921Y2405709D02*
X1403543D01*
X1379921Y2355709D02*
X1403543D01*
X1379921Y2305709D02*
X1403543D01*
X1379921Y2255709D02*
X1403543D01*
X1604331D02*
X1627953D01*
X1604331Y2305709D02*
X1627953D01*
X1604331Y2355709D02*
X1627953D01*
X1604331Y2405709D02*
X1627953D01*
G54D17*
X1503937Y2312992D02*
Y2348425D01*
G54D18*
X680118Y4017717D02*
Y4033465D01*
X815945Y4017717D02*
Y4033465D01*
G54D19*
X690945Y2732283D02*
X714567D01*
X690945Y2706693D02*
X714567D01*
X690945Y2681102D02*
X714567D01*
X769685D02*
X793307D01*
X769685Y2732283D02*
X793307D01*
G54D13*
X323819Y2281496D02*
X341535D01*
X323819Y2312992D02*
X341535D01*
X323819Y2375984D02*
X341535D01*
X323819Y2344488D02*
X341535D01*
X323819Y2438976D02*
X341535D01*
X323819Y2501969D02*
X341535D01*
X323819Y2470472D02*
X341535D01*
X323819Y2407480D02*
X341535D01*
X256890D02*
X274606D01*
X256890Y2470472D02*
X274606D01*
X256890Y2501969D02*
X274606D01*
X256890Y2438976D02*
X274606D01*
X256890Y2344488D02*
X274606D01*
X256890Y2375984D02*
X274606D01*
X256890Y2312992D02*
X274606D01*
X256890Y2281496D02*
X274606D01*
X457677Y2527559D02*
X475394D01*
X457677Y2559055D02*
X475394D01*
X457677Y2622047D02*
X475394D01*
X457677Y2590551D02*
X475394D01*
X457677Y2685039D02*
X475394D01*
X457677Y2748031D02*
X475394D01*
X457677Y2716535D02*
X475394D01*
X457677Y2653543D02*
X475394D01*
X390748D02*
X408465D01*
X390748Y2716535D02*
X408465D01*
X390748Y2748031D02*
X408465D01*
X390748Y2685039D02*
X408465D01*
X390748Y2590551D02*
X408465D01*
X390748Y2622047D02*
X408465D01*
X390748Y2559055D02*
X408465D01*
X390748Y2527559D02*
X408465D01*
X319882Y2783465D02*
X337598D01*
X319882Y2814961D02*
X337598D01*
X319882Y2877953D02*
X337598D01*
X319882Y2846457D02*
X337598D01*
X319882Y2940945D02*
X337598D01*
X319882Y3003937D02*
X337598D01*
X319882Y2972441D02*
X337598D01*
X319882Y2909449D02*
X337598D01*
X252953D02*
X270669D01*
X252953Y2972441D02*
X270669D01*
X252953Y3003937D02*
X270669D01*
X252953Y2940945D02*
X270669D01*
X252953Y2846457D02*
X270669D01*
X252953Y2877953D02*
X270669D01*
X252953Y2814961D02*
X270669D01*
X252953Y2783465D02*
X270669D01*
X457677Y3029528D02*
X475394D01*
X457677Y3061024D02*
X475394D01*
X457677Y3124016D02*
X475394D01*
X457677Y3092520D02*
X475394D01*
X457677Y3187008D02*
X475394D01*
X457677Y3250000D02*
X475394D01*
X457677Y3218504D02*
X475394D01*
X457677Y3155512D02*
X475394D01*
X390748D02*
X408465D01*
X390748Y3218504D02*
X408465D01*
X390748Y3250000D02*
X408465D01*
X390748Y3187008D02*
X408465D01*
X390748Y3092520D02*
X408465D01*
X390748Y3124016D02*
X408465D01*
X390748Y3061024D02*
X408465D01*
X390748Y3029528D02*
X408465D01*
X319882Y3265748D02*
X337598D01*
X319882Y3297244D02*
X337598D01*
X319882Y3360236D02*
X337598D01*
X319882Y3328740D02*
X337598D01*
X319882Y3423228D02*
X337598D01*
X319882Y3486220D02*
X337598D01*
X319882Y3454724D02*
X337598D01*
X319882Y3391732D02*
X337598D01*
X252953D02*
X270669D01*
X252953Y3454724D02*
X270669D01*
X252953Y3486220D02*
X270669D01*
X252953Y3423228D02*
X270669D01*
X252953Y3328740D02*
X270669D01*
X252953Y3360236D02*
X270669D01*
X252953Y3297244D02*
X270669D01*
X252953Y3265748D02*
X270669D01*
X457677Y3501969D02*
X475394D01*
X457677Y3533465D02*
X475394D01*
X457677Y3596457D02*
X475394D01*
X457677Y3564961D02*
X475394D01*
X457677Y3659449D02*
X475394D01*
X457677Y3722441D02*
X475394D01*
X457677Y3690945D02*
X475394D01*
X457677Y3627953D02*
X475394D01*
X390748D02*
X408465D01*
X390748Y3690945D02*
X408465D01*
X390748Y3722441D02*
X408465D01*
X390748Y3659449D02*
X408465D01*
X390748Y3564961D02*
X408465D01*
X390748Y3596457D02*
X408465D01*
X390748Y3533465D02*
X408465D01*
X390748Y3501969D02*
X408465D01*
X319882Y3757874D02*
X337598D01*
X319882Y3789370D02*
X337598D01*
X319882Y3852362D02*
X337598D01*
X319882Y3820866D02*
X337598D01*
X319882Y3915354D02*
X337598D01*
X319882Y3978346D02*
X337598D01*
X319882Y3946850D02*
X337598D01*
X319882Y3883858D02*
X337598D01*
X252953D02*
X270669D01*
X252953Y3946850D02*
X270669D01*
X252953Y3978346D02*
X270669D01*
X252953Y3915354D02*
X270669D01*
X252953Y3820866D02*
X270669D01*
X252953Y3852362D02*
X270669D01*
X252953Y3789370D02*
X270669D01*
X252953Y3757874D02*
X270669D01*
G54D12*
X1877953Y4032480D02*
X1881890D01*
X1877953Y3979331D02*
X1881890D01*
X2301181Y3976378D02*
X2305118D01*
X2301181Y4029528D02*
X2305118D01*
X2527559Y2749016D02*
X2531496D01*
X2527559Y2802165D02*
X2531496D01*
X2596457Y2749016D02*
X2600394D01*
X2596457Y2802165D02*
X2600394D01*
X1425197Y3979331D02*
X1429134D01*
X1425197Y4032480D02*
X1429134D01*
G54D20*
X1179134Y4017717D02*
X1198819D01*
X1179134Y3903543D02*
X1198819D01*
X1061024Y4017717D02*
X1080709D01*
X1061024Y3903543D02*
X1080709D01*
X2187008Y3877953D02*
Y3897638D01*
X2301181Y3877953D02*
Y3897638D01*
X1763780Y3877953D02*
Y3897638D01*
X1877953Y3877953D02*
Y3897638D01*
X1311024Y3877953D02*
Y3897638D01*
X1425197Y3877953D02*
Y3897638D01*
G54D16*
X2677165Y2740157D02*
Y2744094D01*
Y2807087D02*
Y2811024D01*
Y2937008D02*
Y2940945D01*
Y3003937D02*
Y3007874D01*
G54D11*
X2469685Y2802756D02*
X2471260D01*
X2469685Y2768110D02*
X2471260D01*
X2253150Y3299606D02*
X2254724D01*
X2253150Y3334252D02*
X2254724D01*
X2607480Y2945276D02*
X2609055D01*
X2607480Y2979921D02*
X2609055D01*
G54D12*
X2754921Y2744094D02*
X2756890D01*
X2754921Y2807087D02*
X2756890D01*
X2754921Y2940945D02*
X2756890D01*
X2754921Y3003937D02*
X2756890D01*
G54D21*
X19291Y3817421D02*
X83071D01*
X19291Y3792421D02*
X83071D01*
X19291Y3767421D02*
X83071D01*
X19291Y3742421D02*
X83071D01*
X19291Y3967421D02*
X83071D01*
X19291Y3917421D02*
X83071D01*
X19291Y3867421D02*
X83071D01*
X19291Y3717421D02*
X83071D01*
X19291Y3667421D02*
X83071D01*
X19291Y3617421D02*
X83071D01*
X19291Y3567421D02*
X83071D01*
X19291Y3517421D02*
X83071D01*
X19291Y3467421D02*
X83071D01*
X19291Y3417421D02*
X83071D01*
X19291Y3367421D02*
X83071D01*
X19291Y3317421D02*
X83071D01*
X19291Y3267421D02*
X83071D01*
X19291Y3217421D02*
X83071D01*
X19291Y3167421D02*
X83071D01*
X19291Y3117421D02*
X83071D01*
X19291Y3067421D02*
X83071D01*
X19291Y3017421D02*
X83071D01*
X19291Y2967421D02*
X83071D01*
X19291Y2917421D02*
X83071D01*
X19291Y2867421D02*
X83071D01*
X19291Y2817421D02*
X83071D01*
X19291Y2767421D02*
X83071D01*
X19291Y2717421D02*
X83071D01*
X19291Y2667421D02*
X83071D01*
X19291Y2617421D02*
X83071D01*
X19291Y2567421D02*
X83071D01*
X19291Y2517421D02*
X83071D01*
X19291Y2467421D02*
X83071D01*
X19291Y2417421D02*
X83071D01*
X19291Y2367421D02*
X83071D01*
X19291Y2317421D02*
X83071D01*
X19291Y3942421D02*
X83071D01*
X19291Y3892421D02*
X83071D01*
X19291Y3842421D02*
X83071D01*
X19291Y3692421D02*
X83071D01*
X19291Y3642421D02*
X83071D01*
X19291Y3592421D02*
X83071D01*
X19291Y3542421D02*
X83071D01*
X19291Y3492421D02*
X83071D01*
X19291Y3442421D02*
X83071D01*
X19291Y3392421D02*
X83071D01*
X19291Y3342421D02*
X83071D01*
X19291Y3292421D02*
X83071D01*
X19291Y3242421D02*
X83071D01*
X19291Y3192421D02*
X83071D01*
X19291Y3142421D02*
X83071D01*
X19291Y3092421D02*
X83071D01*
X19291Y3042421D02*
X83071D01*
X19291Y2992421D02*
X83071D01*
X19291Y2942421D02*
X83071D01*
X19291Y2892421D02*
X83071D01*
X19291Y2842421D02*
X83071D01*
X19291Y2792421D02*
X83071D01*
X19291Y2742421D02*
X83071D01*
X19291Y2692421D02*
X83071D01*
X19291Y2642421D02*
X83071D01*
X19291Y2592421D02*
X83071D01*
X19291Y2542421D02*
X83071D01*
X19291Y2492421D02*
X83071D01*
X19291Y2442421D02*
X83071D01*
X19291Y2392421D02*
X83071D01*
X19291Y2342421D02*
X83071D01*
X19291Y2292421D02*
X83071D01*
G54D22*
X2031496Y2777559D02*
Y2785433D01*
X1964567Y2777559D02*
Y2785433D01*
X2031496Y2864173D02*
Y2872047D01*
X1964567Y2864173D02*
Y2872047D01*
G54D23*
X0Y334646D02*
Y2066929D01*
X118110D01*
Y2165354D01*
X2952756D01*
Y1299213D01*
X2834646D01*
Y1181102D01*
X2952756D01*
Y236220D01*
X118110D01*
Y334646D01*
X0D01*
Y2263780D02*
Y3996063D01*
X118110D01*
Y4094488D01*
X2952756D01*
Y3228346D01*
X2834646D01*
Y3110236D01*
X2952756D01*
Y2165354D01*
X118110D01*
Y2263780D01*
X0D01*
X118110Y4094488D02*
Y4125984D01*
X0D01*
Y4291339D01*
X39370Y4330709D02*
X2913386D01*
X2952756Y4291339D02*
Y4094488D01*
X118110Y236220D02*
Y204724D01*
X0D01*
Y39370D01*
X39370Y0D02*
X2913386D01*
X2952756Y39370D02*
Y236220D01*
X0Y4291339D02*
X492Y4297546D01*
X1957Y4303598D01*
X4358Y4309344D01*
X7635Y4314639D01*
X11706Y4319351D01*
X16469Y4323363D01*
X21804Y4326573D01*
X27580Y4328902D01*
X33650Y4330291D01*
X39370Y4330709D01*
X2913386D02*
X2919593Y4330216D01*
X2925646Y4328751D01*
X2931391Y4326350D01*
X2936686Y4323073D01*
X2941398Y4319003D01*
X2945410Y4314240D01*
X2948620Y4308904D01*
X2950949Y4303129D01*
X2952338Y4297059D01*
X2952756Y4291339D01*
X0Y39370D02*
X492Y33163D01*
X1957Y27110D01*
X4358Y21365D01*
X7635Y16070D01*
X11706Y11358D01*
X16469Y7346D01*
X21804Y4136D01*
X27580Y1807D01*
X33650Y418D01*
X39370Y0D01*
X2913386D02*
X2919593Y492D01*
X2925646Y1957D01*
X2931391Y4358D01*
X2936686Y7635D01*
X2941398Y11706D01*
X2945410Y16469D01*
X2948620Y21804D01*
X2950949Y27580D01*
X2952338Y33650D01*
X2952756Y39370D01*
G54D24*
X590551Y4173228D03*
X2559055D03*
X393701Y157480D03*
X2559055D03*
M02*
