M48
;Layer_Color=9474304
;FILE_FORMAT=4:4
METRIC,LZ
;TYPE=PLATED
T01F00S00C0.2100
T02F00S00C1.0000
%
T01
X00245Y00227
X00235Y002525
Y002625
X00232Y00276
X00256Y003155
X00332Y00316
X00338Y00308
X00343Y00299
X00377
Y00306
X00378Y00292
X00379Y00286
X0038Y0028
X00377Y00273
X00376Y00267
X0038Y0024
X00345Y002425
X003475Y002275
X002925
X0031Y00349
X00329Y00359
X00328Y00373
X00339Y00396
X0031Y0039
X00294
X003775Y0038775
X00378Y00332
X00365Y0032775
X00389Y0031225
X00326Y00333
X0040575Y003595
X00443Y00365
X00453Y00369
X0045875Y003795
X00466Y00373
X00476Y00377
X00484
X0049175Y003965
X0052175Y003885
X0052575Y00382
X0056Y00381
X005805Y0037825
X005805Y0039249
X0059625Y0037925
X0060025Y0036525
X00606Y0035975
X00591Y00363
X00588Y00343
X0058745Y00332
X006Y00327
X00594Y00316
X00606
X00618
X0063
X00642
X00654Y00317
X006505Y00301
X00649Y0029
X00653Y00274
X00654Y00254
X00665
X00705Y00255
X00715
X006975Y002625
X006775Y002875
X0067Y003025
X006625Y00345
Y0036
X00655
X00642Y00359
X0063525Y0036
X006245Y0037075
X00617Y00372
X0061675Y0037875
X00618Y0035
X0063Y0034
X00622Y00299
X0062Y00286
Y00279
X00621Y00271
X00619Y00259
X00588Y00252
X00576
X00554
X00543Y00259
X00544Y00272
X005425Y00285
X00557Y00278
X005715Y00285
X00575Y00305
X00588
X00571Y00316
X00559Y00321
X00554Y00304
X0052Y00305
X00514Y00298
X0052Y00285
X0052Y00275
X00515Y00258
X00521Y00253
X00526Y00248
X00531Y00243
X00575Y00226
X0058425Y0027025
X00496Y00283
X00478Y00293
X0046Y00305
X00469Y00324
X0044
X00439Y00314
X00408Y0029725
X00407Y0025925
X004275Y002275
X00458Y0024
X00455Y00266
X00484Y00227
X00501Y00325
X00546Y00338
X00563Y003595
X006565Y0038825
X00711Y00368
X00708Y00363
X00705Y00358
X00702Y00353
X00699Y00348
X00696Y00343
X00692Y00338
X007075Y00325
X00733Y00302
X00764Y00338
X00768Y00343
X00772Y00348
X00776Y00353
X0078Y00358
X00785Y00363
X0079Y00368
X0077075Y003965
X0073325Y00389
X00737Y00226
X00647
X00807
X008125Y0026975
X00858Y00286
X0088Y00315
X0091Y00335
X0093Y00315
X0091Y00295
X0094Y00285
X009425Y002275
X0088
X00858Y00356
X00849Y00355
X00861Y00366
X00866Y0037
X00871Y00389
X0089Y0039
X008425Y00395
X008225Y003825
X0082Y003675
X00832Y00346
X0094Y00345
Y00399
Y00452
X009225Y004525
X0089Y00439
X00893Y0047
X00875Y00486
X00881Y00497
Y00508
X00877Y00517
X00878Y00525
X00869Y00526
X008675Y0055
X0088
X00875Y0058
X00855Y006
X00868Y00621
X008625Y0065
Y00665
X008525Y006775
X0084Y00674
X00831Y00668
Y0066
Y00653
Y00646
X008225Y006575
X00822Y00674
X008025Y006675
X00802Y00644
X0084Y006575
X009Y0067
X0094Y006525
X00942Y00609
X0094Y00506
X00928Y00504
X00845Y005
X00848Y00479
X00852Y00462
X00851Y00454
X00853Y00443
X00865Y00456
Y00423
X00839Y00404
X00825Y00412
X00815Y0044
Y00455
Y0047
X008
Y00455
Y0044
X00794Y00525
X0081Y00545
X0082
Y005525
X00833Y00552
X008425Y00565
X0085Y005375
X00845Y005325
X008125Y00595
X0081Y0071
X00795Y006975
X008625Y007125
X009175
X00785Y007075
X00775Y006975
X00765Y0068
X00755
X00745
X00733Y00674
X00724Y0067
Y00662
Y00652
Y00645
X00715Y006575
Y00674
X006975Y006725
X00695Y006425
X00661Y00651
X006475Y00645
Y0063
Y00615
X006325Y006
X0062125Y0057675
X006145Y00559
X00623502Y00550208
X006245Y005165
X00648Y00515
X00654Y00509
Y0049
X00636505Y00480495
X00636495Y00472505
X006365Y004645
X006365Y0045649
Y0044849
X00644495Y00448505
X00644505Y00440505
X006445Y0042451
X0063651Y004325
X006365Y004165
Y004085
X00628495Y00408495
X006205Y0040851
X006125Y004005
X0060425Y0040075
X006045Y004085
X0059625Y0040875
X005965Y004165
Y004245
Y004325
Y004405
X005965Y004485
X0060425
X006045Y004405
Y004325
Y004245
X006125
Y004325
X00620495Y00432505
X006125Y004405
X00612505Y00448505
X00620495Y00448505
X006125Y004565
X006045
X005965
Y004645
X006045
Y004725
Y0048049
X005965Y004725
X005805
Y004645
Y004565
X005725
Y004645
X005645
Y004565
Y004405
X005725
Y004325
X005805
Y004245
X00588495Y00424495
X005805Y004165
X00581Y00409
X005725Y004085
Y004165
Y004245
X005645
Y004325
X00540495Y00432505
X00540505Y00424505
Y00416505
X005405Y004085
X005485Y004005
X00556505Y00400505
X00580495Y00400495
X00588505Y00400495
X005885Y004485
Y0045625
X00588505Y00480505
X00572495Y00480495
X005725Y004725
X005645
X005565Y004885
Y004965
X005485Y0049649
X00540505Y00480495
X005405Y004725
Y004645
Y004565
X0052025Y0045275
X0052Y004275
X0053249Y004245
X00493Y00421
X00496Y00411
X00488Y0041
X00483Y00406
X00458
X0044975Y003975
X0045075Y004165
X00435Y00405
X0049225Y0043725
X004885Y0045025
X0048575Y00492
X0046175Y0050025
X0045525Y0050875
X0045Y005275
X00448Y0056
X00453Y00565
X00465
Y00556
Y00549
X00476Y00551
X00439Y00554
X00436Y00587
X0044675Y005975
X00452Y00579
X0046675Y005835
X0047Y00646
X00491Y00645
X0051
X0050575Y006295
X00501Y00617
X00505Y00612
X00496Y00622
X00533Y00621
X005525Y00625
X00552Y00604
X00556735Y00585789
X0057275Y005695
X0059875
X00597Y00597
X0059Y005475
X00585Y005425
X0058Y005375
X00595Y00525
X0059Y00515
X006045Y005045
X006125Y004725
X00612505Y00464505
X00657Y00451
X0065775Y004195
X006545Y0041375
X0066525Y00412
X0067225Y004175
X0067075Y004295
X0068475Y004045
X00711Y00416
Y00432
X00703Y0044
Y00455
X0069075Y004775
X0070075Y004945
X0070175Y005195
X0068975Y005095
X00735Y00522
X007445Y00522
X0074275Y005385
X007515
X00772Y00525
X00764Y00516
Y0050775
X00767Y00491
X0074975Y0049325
X007405Y00493
X00738Y0045
X0072875Y004445
X00729Y00433
X00726Y0042
X00735Y00411
X00751Y00408
X00755Y00449
X00785Y00455
Y0044
Y0047
X00779Y00501
X0079Y00563
X00775Y006
Y00625
X007575Y006325
X00755Y00645
X00766Y0065
X007425Y006575
X00733Y00658
X007475Y006
X00705Y00595
X0071Y0058
X00661
X006675Y006
Y00625
X006575Y0068
X00645
X006325
X0062Y00676
X00611Y0067
Y00662
Y00654
Y00647
X00602Y00659
Y00676
X005825Y0067
X0058Y00645
X00545Y00651
X005325Y00645
X0052Y006625
X00525Y006775
X005225Y0069
Y006975
Y00705
X005325Y007025
Y00695
Y006875
X005425Y0068
X005525Y007
X005625Y007075
X005725Y007
X005925Y006925
X00594Y00713
X00538
X0049Y007125
X00445
X00436Y00677
X00454Y00666
X004725Y006775
X004875Y00665
X005025Y006775
X004Y00675
X00411Y00658
X00401Y00634
X00412Y00596
X00407Y00576
Y00525
X0042125Y0050725
X00436Y005
X0046475Y0047375
X00401Y00475
X00404Y00466
X0052375Y00496
X00517Y00511
X005285Y0051575
X00517Y00531
X005645Y005045
X0062Y00659
X0063Y0066
X00654Y00713
X006675Y007
X006775Y007075
X006875Y007
X006975Y007125
X007575
X0039
X00392Y00667
X00378Y00669
X00339Y00677
X003375Y00695
X0035
X0034Y007125
X00295
X00294Y00685
Y0067
Y00654
Y00637
X00323Y00644
X00333Y00596
X00359062Y00595241
X00377Y00605
X00391Y00627
X00396Y0063
X00379Y00561
X00352Y0054675
X00318Y00552
X00306Y00514
X00295Y00513
X0028425Y00471
X00294Y00438
Y00422
Y00406
X0035Y0042775
X00365Y0041775
X003775Y0042775
X0039275Y004155
X00396Y0048
X00391Y00485
X0037825Y00515
X0036625Y00507
X00245Y004775
X0024Y004675
X002325Y0047
Y004625
X00233Y00676
X00245Y00683
X00237Y00696
X00239Y0071
X0026
T02
X00761Y00288
Y00308
X00781
Y00288
X00801
Y00308
X00821
X00841
Y00288
X00821
X00925Y0053
Y0055
Y0057
Y0059
Y0061
Y0063
Y0065
M30
