G04*
G04 #@! TF.GenerationSoftware,Altium Limited,Altium Designer,24.4.1 (13)*
G04*
G04 Layer_Color=16711935*
%FSLAX44Y44*%
%MOMM*%
G71*
G04*
G04 #@! TF.SameCoordinates,15E4D96D-5BE7-4AE5-8AB4-AC3752DCFCC4*
G04*
G04*
G04 #@! TF.FilePolarity,Negative*
G04*
G01*
G75*
%ADD44C,3.0000*%
%ADD45R,1.0200X1.1200*%
%ADD48R,0.7200X0.7600*%
%ADD51R,0.7600X0.7200*%
%ADD57R,1.1200X1.0200*%
%ADD65C,1.6200*%
%ADD66R,1.6200X1.6200*%
D44*
X925000Y700000D02*
D03*
X920000Y240000D02*
D03*
X320000D02*
D03*
D45*
X542250Y446000D02*
D03*
X555750D02*
D03*
X624250Y505000D02*
D03*
X637750D02*
D03*
Y491000D02*
D03*
X624250D02*
D03*
X637000Y440500D02*
D03*
X623500D02*
D03*
D48*
X555400Y417000D02*
D03*
X546600D02*
D03*
X571600Y448000D02*
D03*
X580400D02*
D03*
X621600Y474000D02*
D03*
X630400D02*
D03*
X622600Y454000D02*
D03*
X631400D02*
D03*
X555400Y435000D02*
D03*
X546600D02*
D03*
Y426000D02*
D03*
X555400D02*
D03*
Y457000D02*
D03*
X546600D02*
D03*
X631400Y464000D02*
D03*
X622600D02*
D03*
X631400Y427000D02*
D03*
X622600D02*
D03*
X631400Y417000D02*
D03*
X622600D02*
D03*
X556400Y477000D02*
D03*
X547600D02*
D03*
Y467000D02*
D03*
X556400D02*
D03*
D51*
X563000Y401400D02*
D03*
Y392600D02*
D03*
X614371Y407120D02*
D03*
Y415920D02*
D03*
X577000Y483600D02*
D03*
Y492400D02*
D03*
X567000D02*
D03*
Y483600D02*
D03*
X612000Y482600D02*
D03*
Y491400D02*
D03*
X600000D02*
D03*
Y482600D02*
D03*
X588500Y464100D02*
D03*
Y472900D02*
D03*
Y410100D02*
D03*
Y418900D02*
D03*
Y437900D02*
D03*
Y429100D02*
D03*
D57*
Y486750D02*
D03*
Y500250D02*
D03*
D65*
X865000Y355400D02*
D03*
Y304600D02*
D03*
Y330000D02*
D03*
X940000Y590000D02*
D03*
Y610000D02*
D03*
Y630000D02*
D03*
Y550000D02*
D03*
Y570000D02*
D03*
Y650000D02*
D03*
X761000Y308000D02*
D03*
X781000Y288000D02*
D03*
Y308000D02*
D03*
X801000Y288000D02*
D03*
Y308000D02*
D03*
X821000Y288000D02*
D03*
Y308000D02*
D03*
X841000Y288000D02*
D03*
Y308000D02*
D03*
D66*
X865000Y279200D02*
D03*
X940000Y530000D02*
D03*
X761000Y288000D02*
D03*
M02*
