M48
;Layer_Color=9474304
;FILE_FORMAT=4:4
METRIC,LZ
;TYPE=PLATED
T01F00S00C0.2000
T02F00S00C0.3000
T03F00S00C1.0000
%
T01
X0028Y00241
Y00256
Y00273
Y00291
Y00307
X00278Y00315
X00283Y00331
X00288Y00347
X00293Y00358
X00298Y00369
X00303Y00379
X00394Y00386
X00424Y00281
X00431Y00282
X00439
X00453Y00283
X00458Y00278
X00478Y00289
X0047Y00314
X00516
X00526
X00511Y00331
X005115Y00339
X00573Y0036
X00581
X00594Y00364
X00604
X00627Y00367
X00643Y00362
X006505Y003645
X00659Y00357
X006675Y00363
X00669Y00386
X006815Y00385
X00691Y00384
X00657Y00392
X00673Y00324
X00716Y00316
X00739Y00317
X00732Y00332
X00724Y00296
X00644Y003
X00643Y00231
X0060225Y00256
X00585Y0026575
X00581Y00238
X00765Y00245
X0076Y00365
X00777Y00366
X00804Y00365
X0087Y00387
X00823Y0023225
X0083Y00398
X0084Y00412
X00798Y0041
X00811Y00434
X0085Y004775
X00838Y00514
X0087Y0051
X00894Y00555
X00836Y00568
X0083575Y00579
X008425Y0058
X00857Y00594
X00868Y00625
X00854Y00634
X00821Y00651
X0082Y0056
X00815Y00555
X00805
X0081Y0056
X00772Y00555
X00764Y00562
X00757Y00564
X0072Y005725
X007Y00579
X00731Y00613
X0073Y00626
X00669Y00635
X00658Y00624
X00583
X00567Y0063
X00505Y00628
X00515Y00575
X00492Y00541
X00469Y00556
X00458Y00575
X00452Y0057
X00446Y00565
X00408Y00552
X00411Y0054
X00408Y00533
X00398Y00525
X00429Y00512
X00436
X004395Y0049
X00443Y00458
Y00429
X00398Y00427
X00411Y00459
X0051Y00422
X005345Y00492
X005305Y004995
X00537Y00516
X00545Y0052
X00556Y00525
X00565Y00531
X00681Y00529
X00686Y00524
X00701Y005
X007005Y00474
X00683Y00469
Y00461
X006625Y00443
X00665Y00428
X00664Y00405
X00661Y00398
X006905Y00404
X00656Y00488
X00657Y00495
X0077Y00477
X00786Y00511
X00783Y00517
X00788Y00522
X00791Y00528
X00784Y00672
X00413Y0068
X00397Y00638
X0039Y00634
X00363Y00645
X00362Y00652
X00363Y00661
Y00668
Y00676
X00335Y00677
X00337Y00668
X00338Y00661
X00343Y00655
X00338Y0065
X00334Y00644
X00332Y00637
X00301
X00289Y00634
X00279Y00628
Y0061
X00278Y00579
X0028Y00537
X00278Y00499
Y00436
X00219Y00428
X00391Y00446
X00395Y00466
X0039Y00478
X00357Y00505
X00343Y00504
X00358Y00527
X00302Y00678
X00205Y00665
T02
X00215Y00207
X00209Y00233
X00201Y00243
X00199Y00256
X00302Y00219
X00333Y0022
X00359Y00271
X00362Y00292
X00357Y00309
X0033325Y0031675
X00333Y00341
X00303Y0034
X00359Y00394
X00383Y00303
X0041Y00339
X00476Y00322
X004975Y00305
X00503Y00291
X00518Y00275
X005215Y00321
X00543Y00323972
X005505Y00327
X00558Y00323
X005795
X0059Y00325
X00588Y00316
X00591Y00304
X0058Y002975
X005575
X00545Y00305
X005455Y00353
X005605Y00354
X00596Y00352
X00608
X00605Y00325
X00626Y00324
X00638
X00627Y00312
X0061Y00305
X00623Y00264
X00631Y00257
X00639Y00264
X00622Y00245
X00609
X00615Y00235
X00609Y00225
X00622
X00634Y00215
X00655Y00206
X00673
X00708Y00208
X00719
Y00217
X00724Y00229
X00706Y00237
X00712Y00246
X00724Y00256
X00745Y00218
X00765Y00217
Y00225
X00788Y00226
X00789Y00248
X00785Y00269
X00772
X00773Y00284
X007475Y003175
X007525Y0036
X00742Y00388
X00726Y0038
X00771Y00386
X007875Y00345
X00713Y00336
X00696Y00329
X00697Y00314
X00667
X00659Y00297
X00682
X00675Y00365
X006305Y003595
X005245Y003515
X00498Y00344
X00456Y00266
X00448Y00266
X00434Y00252
X00432Y00241
Y00227
X00411Y00226
X00465Y00254
X004975Y002075
X0052Y00207
Y0022
X00535Y00207
X00547
Y00217
Y00228
X0056Y00207
X0057
X00596Y00214
X005725Y002425
X005775Y0025
X005725Y002575
X00795Y00262
X00814
X00801Y00248
X00795Y00239
X00802Y00226
X00807Y00213
X00822
X00832
X00854
X00875
X00892Y00206
X00901
X00913Y00207
X00897Y00215
Y00225
Y00236
X00902Y00246
X0091Y00252
Y00266
X00902Y0026
Y00273
X00907Y00291
X00898Y00304
Y00316
X00908Y00335
Y00351
Y00361
X00914Y00356
X0091Y0037
X008825
X00895Y003825
X00898Y00351
X00855Y0034
Y0032
X00862Y00304
X0087Y00287
X0085
X0084Y0031
Y0033
Y0035
X00849Y00365
X008Y00345
Y0032
X00805Y003
X00825
X00801Y00283
X00806Y00393
X00913Y00236
X009075Y004125
X00871Y00411
Y00424
X00872Y00455
X008675Y0047
X0085Y00465
X00855Y00445
X00825Y0042
X00854Y00514
X008725Y005
X00863Y00559
X00865Y00593
X00852Y006
X008225Y00585
X00826Y00628
X00835Y00638
X00881Y0064
X00878Y00662
Y00691
X00906Y00688
X00845Y00692
X00837
X00809Y00691
X0081Y00672
X0084Y00546
X00894Y00596
X00786Y00611
X0079Y00635
X00788Y00646
X0078
X00779Y00633
X00784Y0066
X00759Y0065
X00755Y00646
X00749Y00658
X00744Y00671
X00743Y00682
X00735Y00675
X007225Y006575
X00722Y00638
X00745Y00611
X0073Y00583
X00743Y00563
X00763Y00553
X0078Y00551
X00762Y00575
X007125Y005525
X00688Y00541
X00677
X0067Y00568
X0068Y00572
Y00584
X0067Y005925
X0065Y00594
X0063Y00593
X006Y00588
X00601Y00579
X00576Y00567
X00568Y00571
X005605Y00567
X00551Y00582
X00554Y00593
X00537Y00591
X00541Y00607
Y00624
X00555Y00623
X00563Y00606
X00578Y00607
X00608Y00623
X00634Y00625
X00649Y00623
X00645Y0064
Y006525
X00674Y00653
X006775Y006325
X0068Y0068
X00591Y00678
Y00654
X00544Y00693
X00477Y006775
X00478Y00654
X00482Y00625
X00464Y00614
X0045Y00627
X00438
X00419Y00612
X00414Y00605
X00407Y00614
X00417Y00572
Y00551
X00432791Y00557265
X00451Y00548
Y00524
X00477
X004805Y00515
X005095Y005145
Y004795
X005255Y00477
X005455Y00467
X005655
Y00487
X005855
X00585Y0047
Y0045
X00605
Y0043
X00625
Y0045
Y0047
X006255Y00487
X006055
X00605Y0047
X006455Y00467
Y00447
Y00427
X00669Y00452
X007Y00455
X007005Y00446
Y0043
X00728Y00427
X00725Y00437
X00728Y00446
X00725257Y00456757
X00731Y00464
X00726405Y004705
X00729098Y004775
X00740911Y00494
X00737389Y00511712
X0073Y00514
X00701
X00684Y00506
X00665Y00508
X00651Y00523
X0063Y0054
X00603Y00542
X00588
X005755Y005415
X0056449
X00531Y00537
X00514886Y00566886
X004975Y00565
X00505Y005575
X00499Y00609
X00524Y00606
X00446Y00664
X00429Y00657
X00432Y00683
X00421Y00684
X00398Y00677
X00405Y00494
X00433Y00482
X00447Y00485
X004725Y004865
X004785Y00482
X00483Y00448
X00474
X004805Y00435
X004695Y00416
X0047Y004
X00479Y00401
X00461Y00407
X004435Y00415
X00442Y00397
X00402Y00402
X00427Y00457
X004485Y00448
X005095Y004445
Y00433052
X00515Y00417
X005255Y00427
Y00447
X005095Y004595
X005455Y00437
X005655Y00427
Y00447
X005855Y00427
X00697Y00398
X00726Y00406
X00733Y00411
X0074Y00416
X00741Y00407
X0077Y00399
X0079Y00445
X00786Y00478
X00764Y0047
Y00486
X00776Y00506
X0074Y0045
X0069Y00479
X00396Y00497
X00359Y00488
X00358Y00539
X00359Y00572
X00337Y00578
X00332Y00613
X00349Y00635
X00353Y0068
X00389Y00685
X00393Y00646
X00395Y00613
X00377Y00606
X00331Y00525
X00317Y00518
X00331Y00433
X00337Y00409
X00359Y00422
X00388Y00423
X00393Y00405
X0022Y0045
X00209Y00449
X00201
X00205Y00441112
X00199Y00646
X00205Y00653
X00211Y00659
X0021Y00674
Y0069
X00235Y00681
X00293Y0068
T03
X009025Y00505
Y00525
Y00545
Y00565
Y00585
Y00605
Y00625
Y00645
Y00665
X00572Y00656
X00552
Y00676
X00572
X00532
X00512
Y00656
X00532
X00492
Y00676
M30
