G04*
G04 #@! TF.GenerationSoftware,Altium Limited,Altium Designer,24.4.1 (13)*
G04*
G04 Layer_Physical_Order=4*
G04 Layer_Color=16711680*
%FSLAX44Y44*%
%MOMM*%
G71*
G04*
G04 #@! TF.SameCoordinates,56A84C12-20F9-439F-8F54-A8B2ACD22D1B*
G04*
G04*
G04 #@! TF.FilePolarity,Positive*
G04*
G01*
G75*
%ADD12C,0.2000*%
%ADD18R,0.6000X0.6400*%
%ADD21R,0.6400X0.6000*%
%ADD31R,1.0000X0.9000*%
%ADD32C,0.4200*%
%ADD36R,0.9000X1.0000*%
%ADD69C,1.0000*%
%ADD70C,0.3000*%
%ADD71C,0.1250*%
%ADD72C,0.8000*%
%ADD73C,1.0000*%
%ADD74C,0.4000*%
%ADD75C,0.5000*%
%ADD76C,0.6000*%
%ADD77C,1.5000*%
%ADD78R,1.5000X1.5000*%
%ADD79C,0.3500*%
G36*
X924925Y642500D02*
X923777Y642495D01*
X921737Y642377D01*
X920844Y642266D01*
X920036Y642119D01*
X919313Y641937D01*
X918674Y641719D01*
X918121Y641466D01*
X917653Y641178D01*
X917269Y640855D01*
X915855Y642269D01*
X916178Y642653D01*
X916466Y643121D01*
X916719Y643674D01*
X916937Y644313D01*
X917119Y645036D01*
X917266Y645844D01*
X917377Y646737D01*
X917495Y648777D01*
X917500Y649925D01*
X924925Y642500D01*
D02*
G37*
G36*
Y582500D02*
X923777Y582495D01*
X921737Y582377D01*
X920844Y582266D01*
X920036Y582119D01*
X919313Y581937D01*
X918674Y581719D01*
X918121Y581466D01*
X917653Y581178D01*
X917269Y580855D01*
X915855Y582269D01*
X916178Y582653D01*
X916466Y583121D01*
X916719Y583674D01*
X916937Y584313D01*
X917119Y585036D01*
X917266Y585844D01*
X917377Y586737D01*
X917495Y588777D01*
X917500Y589925D01*
X924925Y582500D01*
D02*
G37*
G36*
X928054Y715451D02*
X927209Y714887D01*
X927032Y714709D01*
X926823Y714570D01*
X925430Y713177D01*
X925291Y712968D01*
X925113Y712791D01*
X924019Y711153D01*
X923923Y710921D01*
X923783Y710712D01*
X923029Y708892D01*
X922980Y708646D01*
X922884Y708414D01*
X922500Y706482D01*
Y706231D01*
X922451Y705985D01*
Y704015D01*
X922500Y703769D01*
Y703518D01*
X922884Y701586D01*
X922980Y701354D01*
X923029Y701108D01*
X923783Y699288D01*
X923923Y699079D01*
X924019Y698847D01*
X925113Y697209D01*
X925291Y697032D01*
X925430Y696823D01*
X926823Y695430D01*
X927032Y695291D01*
X927209Y695113D01*
X928847Y694019D01*
X929079Y693923D01*
X929288Y693783D01*
X931108Y693029D01*
X931354Y692980D01*
X931586Y692884D01*
X933518Y692500D01*
X933769D01*
X934015Y692451D01*
X935985D01*
X936231Y692500D01*
X936482D01*
X938414Y692884D01*
X938646Y692980D01*
X938892Y693029D01*
X940712Y693783D01*
X940921Y693923D01*
X941153Y694019D01*
X942791Y695113D01*
X942968Y695291D01*
X943177Y695430D01*
X944570Y696823D01*
X944709Y697032D01*
X944887Y697209D01*
X945451Y698054D01*
X947451Y697447D01*
X947451Y497549D01*
X920703D01*
X919804Y499422D01*
X919799Y499473D01*
X921267Y500941D01*
X925209D01*
X925215Y500941D01*
X925269Y500931D01*
X925272Y500930D01*
X925677Y500524D01*
X927185Y499900D01*
X928816D01*
X930322Y500524D01*
X931476Y501678D01*
X932100Y503185D01*
Y504816D01*
X931476Y506323D01*
X930322Y507476D01*
X928816Y508100D01*
X927185D01*
X925677Y507476D01*
X925272Y507070D01*
X925269Y507069D01*
X925242Y507065D01*
X925181Y507059D01*
X920000D01*
X918829Y506826D01*
X917837Y506163D01*
X909837Y498163D01*
X909174Y497170D01*
X908941Y496000D01*
X908941Y496000D01*
Y471267D01*
X904906Y467232D01*
X903059Y467998D01*
Y525733D01*
X913652Y536326D01*
X915500Y535561D01*
Y520500D01*
X934500D01*
Y539500D01*
X929813D01*
X929277Y541500D01*
X930833Y542398D01*
X932602Y544167D01*
X933853Y546333D01*
X934500Y548749D01*
Y551251D01*
X933853Y553667D01*
X932602Y555833D01*
X930833Y557602D01*
X928667Y558853D01*
X928248Y558965D01*
Y561035D01*
X928667Y561147D01*
X930833Y562398D01*
X932602Y564167D01*
X933853Y566333D01*
X934165Y567500D01*
X925000D01*
X915835D01*
X916147Y566333D01*
X917398Y564167D01*
X919167Y562398D01*
X921333Y561147D01*
X921752Y561035D01*
Y558965D01*
X921333Y558853D01*
X919167Y557602D01*
X917398Y555833D01*
X916147Y553667D01*
X915644Y551790D01*
X915618Y551725D01*
Y551724D01*
X915618Y551722D01*
X915596Y551609D01*
X915500Y551251D01*
Y551105D01*
X915386Y550508D01*
X914920Y548410D01*
X914453Y546752D01*
X914237Y546130D01*
X914027Y545619D01*
X913842Y545247D01*
X913710Y545036D01*
X898059Y529384D01*
X897146Y529528D01*
X896059Y530101D01*
Y556733D01*
X914993Y575667D01*
X916593Y574439D01*
X916147Y573667D01*
X915835Y572500D01*
X925000D01*
X934165D01*
X933853Y573667D01*
X932602Y575833D01*
X930833Y577602D01*
X928667Y578853D01*
X928248Y578965D01*
Y581035D01*
X928667Y581147D01*
X930833Y582398D01*
X932602Y584167D01*
X933853Y586333D01*
X934500Y588749D01*
Y591251D01*
X933853Y593667D01*
X932602Y595833D01*
X930833Y597602D01*
X928667Y598853D01*
X928248Y598965D01*
Y601035D01*
X928667Y601147D01*
X930833Y602398D01*
X932602Y604167D01*
X933853Y606333D01*
X934500Y608749D01*
Y611251D01*
X933853Y613667D01*
X932602Y615833D01*
X930833Y617602D01*
X928667Y618853D01*
X928248Y618965D01*
Y621035D01*
X928667Y621147D01*
X930833Y622398D01*
X932602Y624167D01*
X933853Y626333D01*
X934500Y628749D01*
Y631251D01*
X933853Y633667D01*
X932602Y635833D01*
X930833Y637602D01*
X928667Y638853D01*
X928248Y638965D01*
Y641035D01*
X928667Y641148D01*
X930833Y642398D01*
X932602Y644167D01*
X933853Y646333D01*
X934500Y648749D01*
Y651251D01*
X933853Y653667D01*
X932602Y655833D01*
X930833Y657602D01*
X928667Y658853D01*
X926251Y659500D01*
X923749D01*
X921333Y658853D01*
X919167Y657602D01*
X917398Y655833D01*
X916147Y653667D01*
X915500Y651251D01*
Y650125D01*
X915461Y649935D01*
X915456Y648841D01*
X915345Y646922D01*
X915249Y646153D01*
X915125Y645467D01*
X914979Y644891D01*
X914822Y644429D01*
X914664Y644082D01*
X914521Y643851D01*
X914501Y643827D01*
X885837Y615163D01*
X885174Y614171D01*
X884941Y613000D01*
X884941Y613000D01*
Y557317D01*
X882941Y556358D01*
X881827Y556820D01*
X880000Y557060D01*
X867500D01*
X865673Y556820D01*
X863970Y556115D01*
X862507Y554992D01*
X861385Y553530D01*
X860680Y551827D01*
X860440Y550000D01*
X860680Y548173D01*
X860956Y547507D01*
X860869Y547134D01*
X859683Y545559D01*
X843767D01*
X837137Y552189D01*
X837133Y552194D01*
X837102Y552239D01*
X837100Y552242D01*
Y552816D01*
X836476Y554322D01*
X835322Y555476D01*
X833816Y556100D01*
X832185D01*
X830678Y555476D01*
X829524Y554322D01*
X828900Y552816D01*
Y551184D01*
X829204Y550450D01*
X827509Y549317D01*
X824137Y552689D01*
X824133Y552694D01*
X824102Y552739D01*
X824100Y552742D01*
Y553316D01*
X823476Y554823D01*
X822322Y555976D01*
X820816Y556600D01*
X819184D01*
X817678Y555976D01*
X816524Y554823D01*
X815900Y553316D01*
Y551684D01*
X816524Y550178D01*
X816645Y550057D01*
X817498Y548750D01*
X816645Y547443D01*
X816524Y547323D01*
X815900Y545816D01*
Y544184D01*
X816524Y542678D01*
X817678Y541524D01*
X819184Y540900D01*
X819758D01*
X819761Y540898D01*
X819783Y540883D01*
X819830Y540844D01*
X830337Y530337D01*
X830337Y530337D01*
X831329Y529674D01*
X832500Y529441D01*
X842209D01*
X842215Y529440D01*
X842269Y529431D01*
X842272Y529430D01*
X842678Y529024D01*
X844184Y528400D01*
X845816D01*
X847322Y529024D01*
X848476Y530178D01*
X849100Y531684D01*
X849181Y533320D01*
X850816Y533400D01*
X852322Y534024D01*
X853476Y535177D01*
X854100Y536684D01*
Y538316D01*
X854852Y539441D01*
X859233D01*
X866929Y531745D01*
X866693Y529611D01*
X866524Y529322D01*
X865524Y528322D01*
X864900Y526815D01*
Y525184D01*
X865524Y523677D01*
X866677Y522524D01*
X868184Y521900D01*
X869816D01*
X871322Y522524D01*
X872101Y523302D01*
X873735Y523253D01*
X874375Y523037D01*
X874524Y522677D01*
X874595Y522607D01*
X874677Y520486D01*
X874395Y520193D01*
X873524Y519323D01*
X872900Y517816D01*
Y516185D01*
X873524Y514678D01*
X874678Y513524D01*
X876184Y512900D01*
X877815D01*
X879322Y513524D01*
X880476Y514678D01*
X881100Y516185D01*
Y517816D01*
X880476Y519323D01*
X880405Y519394D01*
X880323Y521514D01*
X880605Y521807D01*
X881476Y522677D01*
X882100Y524184D01*
Y525816D01*
X881476Y527322D01*
X880322Y528476D01*
X878816Y529100D01*
X878242D01*
X878239Y529102D01*
X878217Y529117D01*
X878169Y529156D01*
X866237Y541089D01*
X867171Y542983D01*
X867500Y542940D01*
X880000D01*
X881827Y543180D01*
X882941Y543642D01*
X884941Y542683D01*
Y468267D01*
X859100Y442426D01*
X857100Y443254D01*
Y443815D01*
X856476Y445322D01*
X855322Y446476D01*
X854594Y446778D01*
X854569Y446803D01*
Y451902D01*
X855100Y453185D01*
Y454815D01*
X854476Y456323D01*
X853322Y457476D01*
X851815Y458100D01*
X850184D01*
X848678Y457476D01*
X847524Y456323D01*
X846900Y454815D01*
Y453185D01*
X847431Y451902D01*
Y445325D01*
X847703Y443959D01*
X848477Y442801D01*
X848900Y442378D01*
Y442184D01*
X849524Y440678D01*
X850677Y439524D01*
X852185Y438900D01*
X852746D01*
X853574Y436900D01*
X847837Y431163D01*
X847174Y430171D01*
X846941Y429000D01*
X846941Y429000D01*
Y358585D01*
X846678Y358476D01*
X845524Y357323D01*
X844900Y355816D01*
Y354184D01*
X845524Y352678D01*
X846678Y351524D01*
X848185Y350900D01*
X849816D01*
X851322Y351524D01*
X852476Y352678D01*
X853100Y354184D01*
Y355816D01*
X853047Y355943D01*
X853059Y356000D01*
X853059Y356000D01*
Y367002D01*
X854906Y367768D01*
X856863Y365811D01*
X856867Y365806D01*
X856898Y365761D01*
X856900Y365758D01*
Y365185D01*
X857524Y363678D01*
X858678Y362524D01*
X860184Y361900D01*
X861815D01*
X863323Y362524D01*
X864476Y363678D01*
X865100Y365184D01*
X866816Y365900D01*
X868322Y366524D01*
X869476Y367677D01*
X870100Y369184D01*
Y370816D01*
X869476Y372322D01*
X868322Y373476D01*
X866815Y374100D01*
X866242D01*
X866239Y374102D01*
X866217Y374117D01*
X866169Y374156D01*
X863059Y377267D01*
Y418148D01*
X864184Y418900D01*
X865816D01*
X867322Y419524D01*
X868476Y420677D01*
X869100Y422184D01*
Y422758D01*
X869102Y422761D01*
X869117Y422783D01*
X869156Y422831D01*
X914163Y467837D01*
X914163Y467837D01*
X914826Y468829D01*
X915059Y470000D01*
Y493227D01*
X915451Y493474D01*
X917451Y492369D01*
Y465000D01*
X917645Y464025D01*
X918198Y463198D01*
X919025Y462645D01*
X920000Y462451D01*
X947451D01*
Y222549D01*
X232549D01*
Y250000D01*
X232355Y250975D01*
X231802Y251802D01*
X230975Y252355D01*
X230000Y252549D01*
X202549D01*
Y687451D01*
X230000D01*
X230975Y687645D01*
X231802Y688198D01*
X232355Y689025D01*
X232549Y690000D01*
Y717451D01*
X927447Y717451D01*
X928054Y715451D01*
D02*
G37*
G36*
X822107Y552346D02*
X822130Y552210D01*
X822169Y552070D01*
X822225Y551928D01*
X822298Y551783D01*
X822386Y551634D01*
X822491Y551483D01*
X822612Y551329D01*
X822750Y551171D01*
X822904Y551010D01*
X821490Y549596D01*
X821329Y549750D01*
X821017Y550009D01*
X820866Y550114D01*
X820717Y550202D01*
X820572Y550275D01*
X820430Y550331D01*
X820290Y550370D01*
X820154Y550393D01*
X820021Y550400D01*
X822100Y552479D01*
X822107Y552346D01*
D02*
G37*
G36*
X835107Y551846D02*
X835130Y551710D01*
X835170Y551570D01*
X835225Y551428D01*
X835298Y551283D01*
X835386Y551134D01*
X835491Y550983D01*
X835612Y550829D01*
X835750Y550671D01*
X835904Y550510D01*
X834490Y549096D01*
X834329Y549250D01*
X834017Y549509D01*
X833866Y549614D01*
X833717Y549702D01*
X833572Y549775D01*
X833430Y549831D01*
X833290Y549870D01*
X833154Y549893D01*
X833021Y549900D01*
X835100Y551979D01*
X835107Y551846D01*
D02*
G37*
G36*
X923512Y542649D02*
X922474Y542836D01*
X920604Y543030D01*
X919773Y543037D01*
X919010Y542984D01*
X918316Y542870D01*
X917691Y542697D01*
X917135Y542463D01*
X916648Y542169D01*
X916230Y541816D01*
X915090Y543504D01*
X915359Y543826D01*
X915624Y544250D01*
X915886Y544778D01*
X916144Y545407D01*
X916399Y546140D01*
X916898Y547912D01*
X917383Y550095D01*
X917621Y551340D01*
X923512Y542649D01*
D02*
G37*
G36*
X822107Y544846D02*
X822130Y544710D01*
X822169Y544570D01*
X822225Y544428D01*
X822298Y544283D01*
X822386Y544134D01*
X822491Y543983D01*
X822612Y543829D01*
X822750Y543671D01*
X822904Y543510D01*
X821490Y542096D01*
X821329Y542250D01*
X821017Y542509D01*
X820866Y542614D01*
X820717Y542702D01*
X820572Y542775D01*
X820430Y542831D01*
X820290Y542870D01*
X820154Y542893D01*
X820021Y542900D01*
X822100Y544979D01*
X822107Y544846D01*
D02*
G37*
G36*
X848500Y536030D02*
X848401Y536119D01*
X848289Y536199D01*
X848162Y536270D01*
X848022Y536331D01*
X847868Y536382D01*
X847701Y536425D01*
X847519Y536458D01*
X847325Y536481D01*
X847116Y536495D01*
X846893Y536500D01*
Y538500D01*
X847116Y538505D01*
X847519Y538542D01*
X847701Y538575D01*
X847868Y538618D01*
X848022Y538669D01*
X848162Y538730D01*
X848289Y538801D01*
X848401Y538881D01*
X848500Y538970D01*
Y536030D01*
D02*
G37*
G36*
X843500Y531030D02*
X843401Y531119D01*
X843289Y531199D01*
X843162Y531270D01*
X843022Y531331D01*
X842868Y531382D01*
X842701Y531425D01*
X842519Y531458D01*
X842325Y531481D01*
X842116Y531495D01*
X841893Y531500D01*
Y533500D01*
X842116Y533505D01*
X842519Y533542D01*
X842701Y533575D01*
X842868Y533618D01*
X843022Y533669D01*
X843162Y533730D01*
X843289Y533801D01*
X843401Y533881D01*
X843500Y533970D01*
Y531030D01*
D02*
G37*
G36*
X876671Y527750D02*
X876983Y527491D01*
X877134Y527386D01*
X877283Y527298D01*
X877428Y527225D01*
X877570Y527169D01*
X877710Y527130D01*
X877846Y527107D01*
X877979Y527100D01*
X875900Y525021D01*
X875893Y525154D01*
X875870Y525290D01*
X875831Y525430D01*
X875775Y525572D01*
X875702Y525717D01*
X875614Y525866D01*
X875509Y526017D01*
X875388Y526171D01*
X875250Y526329D01*
X875096Y526490D01*
X876510Y527904D01*
X876671Y527750D01*
D02*
G37*
G36*
X926500Y502530D02*
X926401Y502619D01*
X926289Y502699D01*
X926162Y502770D01*
X926022Y502831D01*
X925868Y502882D01*
X925701Y502925D01*
X925519Y502958D01*
X925324Y502981D01*
X925116Y502995D01*
X924893Y503000D01*
Y505000D01*
X925116Y505005D01*
X925519Y505042D01*
X925701Y505075D01*
X925868Y505117D01*
X926022Y505169D01*
X926162Y505230D01*
X926289Y505301D01*
X926401Y505381D01*
X926500Y505470D01*
Y502530D01*
D02*
G37*
G36*
X894005Y472884D02*
X894042Y472481D01*
X894075Y472299D01*
X894118Y472132D01*
X894169Y471978D01*
X894230Y471838D01*
X894301Y471711D01*
X894381Y471599D01*
X894470Y471500D01*
X891530D01*
X891619Y471599D01*
X891699Y471711D01*
X891770Y471838D01*
X891831Y471978D01*
X891882Y472132D01*
X891925Y472299D01*
X891958Y472481D01*
X891981Y472676D01*
X891995Y472884D01*
X892000Y473107D01*
X894000D01*
X894005Y472884D01*
D02*
G37*
G36*
X894381Y468401D02*
X894301Y468289D01*
X894230Y468162D01*
X894169Y468022D01*
X894118Y467868D01*
X894075Y467701D01*
X894042Y467519D01*
X894019Y467324D01*
X894005Y467116D01*
X894000Y466893D01*
X892000D01*
X891995Y467116D01*
X891958Y467519D01*
X891925Y467701D01*
X891882Y467868D01*
X891831Y468022D01*
X891770Y468162D01*
X891699Y468289D01*
X891619Y468401D01*
X891530Y468500D01*
X894470D01*
X894381Y468401D01*
D02*
G37*
G36*
X867904Y424490D02*
X867750Y424329D01*
X867491Y424017D01*
X867386Y423866D01*
X867298Y423717D01*
X867225Y423572D01*
X867169Y423430D01*
X867130Y423290D01*
X867107Y423154D01*
X867100Y423021D01*
X865021Y425100D01*
X865154Y425107D01*
X865290Y425130D01*
X865430Y425169D01*
X865572Y425225D01*
X865717Y425298D01*
X865866Y425386D01*
X866017Y425491D01*
X866171Y425612D01*
X866329Y425750D01*
X866490Y425904D01*
X867904Y424490D01*
D02*
G37*
G36*
X864671Y372750D02*
X864983Y372491D01*
X865134Y372386D01*
X865283Y372298D01*
X865428Y372225D01*
X865570Y372169D01*
X865710Y372130D01*
X865846Y372107D01*
X865979Y372100D01*
X863900Y370021D01*
X863893Y370154D01*
X863870Y370290D01*
X863830Y370430D01*
X863775Y370572D01*
X863702Y370717D01*
X863614Y370866D01*
X863509Y371017D01*
X863388Y371171D01*
X863250Y371329D01*
X863096Y371490D01*
X864510Y372904D01*
X864671Y372750D01*
D02*
G37*
G36*
X859671Y368750D02*
X859983Y368491D01*
X860134Y368386D01*
X860283Y368298D01*
X860428Y368225D01*
X860570Y368170D01*
X860710Y368130D01*
X860846Y368107D01*
X860979Y368100D01*
X858900Y366021D01*
X858893Y366154D01*
X858870Y366290D01*
X858830Y366430D01*
X858775Y366572D01*
X858702Y366717D01*
X858614Y366866D01*
X858509Y367017D01*
X858388Y367172D01*
X858250Y367329D01*
X858096Y367490D01*
X859510Y368904D01*
X859671Y368750D01*
D02*
G37*
G36*
X851000Y358107D02*
X850984Y355688D01*
X848421Y357019D01*
X848531Y357062D01*
X848630Y357125D01*
X848717Y357209D01*
X848792Y357313D01*
X848855Y357437D01*
X848907Y357581D01*
X848948Y357746D01*
X848977Y357930D01*
X848994Y358135D01*
X849000Y358360D01*
X851000Y358107D01*
D02*
G37*
%LPC*%
G36*
X785816Y711600D02*
X784184D01*
X782678Y710976D01*
X781524Y709822D01*
X780900Y708316D01*
Y706684D01*
X781524Y705178D01*
X782678Y704024D01*
X784184Y703400D01*
X785816D01*
X787322Y704024D01*
X788476Y705178D01*
X789100Y706684D01*
Y708316D01*
X788476Y709822D01*
X787322Y710976D01*
X785816Y711600D01*
D02*
G37*
G36*
X678316D02*
X676684D01*
X675178Y710976D01*
X674024Y709822D01*
X673400Y708316D01*
Y706684D01*
X674024Y705178D01*
X675178Y704024D01*
X676684Y703400D01*
X678316D01*
X679822Y704024D01*
X680976Y705178D01*
X681600Y706684D01*
Y708316D01*
X680976Y709822D01*
X679822Y710976D01*
X678316Y711600D01*
D02*
G37*
G36*
X563316D02*
X561684D01*
X560177Y710976D01*
X559024Y709822D01*
X558400Y708316D01*
Y706684D01*
X559024Y705178D01*
X560177Y704024D01*
X561684Y703400D01*
X563316D01*
X564822Y704024D01*
X565976Y705178D01*
X566600Y706684D01*
Y708316D01*
X565976Y709822D01*
X564822Y710976D01*
X563316Y711600D01*
D02*
G37*
G36*
X688316Y704100D02*
X686684D01*
X685178Y703476D01*
X684024Y702322D01*
X683400Y700816D01*
Y699184D01*
X684024Y697678D01*
X685178Y696524D01*
X686684Y695900D01*
X688316D01*
X689822Y696524D01*
X690976Y697678D01*
X691600Y699184D01*
Y700816D01*
X690976Y702322D01*
X689822Y703476D01*
X688316Y704100D01*
D02*
G37*
G36*
X668316D02*
X666684D01*
X665178Y703476D01*
X664024Y702322D01*
X663400Y700816D01*
Y699184D01*
X664024Y697678D01*
X665178Y696524D01*
X666684Y695900D01*
X668316D01*
X669822Y696524D01*
X670976Y697678D01*
X671600Y699184D01*
Y700816D01*
X670976Y702322D01*
X669822Y703476D01*
X668316Y704100D01*
D02*
G37*
G36*
X573316D02*
X571684D01*
X570177Y703476D01*
X569024Y702322D01*
X568400Y700816D01*
Y699184D01*
X569024Y697678D01*
X570177Y696524D01*
X571684Y695900D01*
X573316D01*
X574822Y696524D01*
X575976Y697678D01*
X576600Y699184D01*
Y700816D01*
X575976Y702322D01*
X574822Y703476D01*
X573316Y704100D01*
D02*
G37*
G36*
X553316D02*
X551684D01*
X550178Y703476D01*
X549024Y702322D01*
X548400Y700816D01*
Y699184D01*
X549024Y697678D01*
X550178Y696524D01*
X551684Y695900D01*
X553316D01*
X554823Y696524D01*
X555976Y697678D01*
X556600Y699184D01*
Y700816D01*
X555976Y702322D01*
X554823Y703476D01*
X553316Y704100D01*
D02*
G37*
G36*
X795816Y701600D02*
X794184D01*
X792678Y700976D01*
X791524Y699822D01*
X790900Y698316D01*
Y696684D01*
X791524Y695178D01*
X792678Y694024D01*
X794184Y693400D01*
X795816D01*
X797322Y694024D01*
X798476Y695178D01*
X799100Y696684D01*
Y698316D01*
X798476Y699822D01*
X797322Y700976D01*
X795816Y701600D01*
D02*
G37*
G36*
X775816D02*
X774184D01*
X772678Y700976D01*
X771524Y699822D01*
X770900Y698316D01*
Y696684D01*
X771524Y695178D01*
X772678Y694024D01*
X774184Y693400D01*
X775816D01*
X777322Y694024D01*
X778476Y695178D01*
X779100Y696684D01*
Y698316D01*
X778476Y699822D01*
X777322Y700976D01*
X775816Y701600D01*
D02*
G37*
G36*
X523316Y709100D02*
X521684D01*
X520177Y708476D01*
X519024Y707322D01*
X518400Y705816D01*
Y704184D01*
X519024Y702678D01*
X519145Y702557D01*
X519999Y701250D01*
X519145Y699943D01*
X519024Y699822D01*
X518400Y698316D01*
Y696684D01*
X519024Y695178D01*
X519145Y695057D01*
X519999Y693750D01*
X519145Y692443D01*
X519024Y692322D01*
X518400Y690816D01*
Y689184D01*
X519024Y687678D01*
X520177Y686524D01*
X521684Y685900D01*
X523316D01*
X524822Y686524D01*
X525737Y687439D01*
X525976Y687678D01*
X525982Y687682D01*
X526276Y687879D01*
X528355Y686972D01*
X528373Y686928D01*
X528400Y686684D01*
X528442Y686583D01*
X529024Y685178D01*
X530178Y684024D01*
X531684Y683400D01*
X533316D01*
X534823Y684024D01*
X535976Y685178D01*
X536600Y686684D01*
Y688316D01*
X535976Y689822D01*
X535855Y689943D01*
X535001Y691250D01*
X535855Y692557D01*
X535976Y692678D01*
X536600Y694184D01*
Y695816D01*
X535976Y697322D01*
X535855Y697443D01*
X535001Y698750D01*
X535855Y700057D01*
X535976Y700178D01*
X536600Y701684D01*
Y703316D01*
X535976Y704822D01*
X534823Y705976D01*
X533316Y706600D01*
X531684D01*
X530178Y705976D01*
X529263Y705061D01*
X529024Y704822D01*
X529018Y704818D01*
X528723Y704621D01*
X526645Y705528D01*
X526627Y705572D01*
X526600Y705816D01*
X526558Y705917D01*
X525976Y707322D01*
X524822Y708476D01*
X523316Y709100D01*
D02*
G37*
G36*
X901477Y712500D02*
X898523D01*
X895625Y711924D01*
X892895Y710793D01*
X890438Y709151D01*
X888349Y707062D01*
X886707Y704605D01*
X885576Y701875D01*
X885000Y698977D01*
Y696023D01*
X885576Y693125D01*
X886707Y690395D01*
X888349Y687938D01*
X890438Y685849D01*
X892895Y684207D01*
X895625Y683076D01*
X898523Y682500D01*
X901477D01*
X904375Y683076D01*
X907105Y684207D01*
X909562Y685849D01*
X911651Y687938D01*
X913293Y690395D01*
X914424Y693125D01*
X915000Y696023D01*
Y698977D01*
X914424Y701875D01*
X913293Y704605D01*
X911651Y707062D01*
X909562Y709151D01*
X907105Y710793D01*
X904375Y711924D01*
X901477Y712500D01*
D02*
G37*
G36*
X350000Y702060D02*
X289000D01*
X287173Y701820D01*
X285470Y701115D01*
X284008Y699993D01*
X222508Y638492D01*
X221385Y637030D01*
X220680Y635327D01*
X220440Y633500D01*
Y475000D01*
X220680Y473173D01*
X221385Y471470D01*
X222508Y470008D01*
X225440Y467076D01*
Y462500D01*
X225680Y460673D01*
X226385Y458970D01*
X227507Y457508D01*
X228970Y456385D01*
X230673Y455680D01*
X232500Y455440D01*
X235000D01*
X236827Y455680D01*
X238530Y456385D01*
X239992Y457508D01*
X244992Y462508D01*
X246115Y463970D01*
X246820Y465673D01*
X247060Y467500D01*
X246820Y469327D01*
X246115Y471030D01*
X244992Y472492D01*
X243530Y473615D01*
X241827Y474320D01*
X240000Y474560D01*
X237924D01*
X234560Y477924D01*
Y630575D01*
X287979Y683994D01*
X288216Y684017D01*
X290222Y683408D01*
X290524Y682678D01*
X291677Y681524D01*
X293185Y680900D01*
X294816D01*
X296322Y681524D01*
X296728Y681930D01*
X296731Y681931D01*
X296758Y681936D01*
X296819Y681941D01*
X299733D01*
X306768Y674906D01*
X306002Y673059D01*
X296791D01*
X296785Y673059D01*
X296731Y673069D01*
X296728Y673070D01*
X296322Y673476D01*
X294816Y674100D01*
X293185D01*
X291677Y673476D01*
X290524Y672322D01*
X289900Y670816D01*
Y669184D01*
X290524Y667678D01*
X291677Y666524D01*
X293185Y665900D01*
X294816D01*
X296322Y666524D01*
X296728Y666930D01*
X296731Y666931D01*
X296758Y666936D01*
X296819Y666941D01*
X308733D01*
X316768Y658906D01*
X316002Y657059D01*
X296791D01*
X296785Y657059D01*
X296731Y657069D01*
X296728Y657070D01*
X296322Y657476D01*
X294816Y658100D01*
X293185D01*
X291677Y657476D01*
X290524Y656322D01*
X289900Y654816D01*
Y653184D01*
X290524Y651677D01*
X291677Y650524D01*
X293185Y649900D01*
X294816D01*
X296322Y650524D01*
X296728Y650930D01*
X296731Y650931D01*
X296758Y650936D01*
X296819Y650941D01*
X318733D01*
X320339Y649335D01*
X320024Y646822D01*
X319524Y646322D01*
X318900Y644816D01*
Y643185D01*
X319524Y641678D01*
X320677Y640524D01*
X322184Y639900D01*
X322758D01*
X322761Y639898D01*
X322783Y639883D01*
X322831Y639844D01*
X340768Y621907D01*
X340002Y620059D01*
X315267D01*
X298137Y637189D01*
X298133Y637194D01*
X298102Y637239D01*
X298100Y637242D01*
Y637816D01*
X297476Y639322D01*
X296322Y640476D01*
X294816Y641100D01*
X293185D01*
X291677Y640476D01*
X290524Y639322D01*
X289900Y637816D01*
Y636185D01*
X290524Y634678D01*
X291677Y633524D01*
X293185Y632900D01*
X293758D01*
X293761Y632898D01*
X293783Y632883D01*
X293831Y632844D01*
X311837Y614837D01*
X312829Y614174D01*
X314000Y613941D01*
X344002D01*
X344768Y612094D01*
X332811Y600137D01*
X332806Y600133D01*
X332761Y600102D01*
X332758Y600100D01*
X332184D01*
X330677Y599476D01*
X329524Y598322D01*
X328900Y596815D01*
Y595185D01*
X329524Y593678D01*
X330677Y592524D01*
X332184Y591900D01*
X333815D01*
X335322Y592524D01*
X336476Y593678D01*
X337100Y595185D01*
Y595758D01*
X337102Y595761D01*
X337117Y595783D01*
X337156Y595830D01*
X350267Y608941D01*
X502209D01*
X502215Y608941D01*
X502269Y608931D01*
X502272Y608930D01*
X502678Y608524D01*
X504184Y607900D01*
X505816D01*
X507323Y608524D01*
X508476Y609678D01*
X509100Y611185D01*
Y612816D01*
X508476Y614322D01*
X507323Y615476D01*
X505816Y616100D01*
X505100Y617816D01*
X504476Y619323D01*
X503322Y620476D01*
X501815Y621100D01*
X500181Y621180D01*
X500100Y622816D01*
X499476Y624322D01*
X498322Y625476D01*
X496815Y626100D01*
X495185D01*
X493677Y625476D01*
X493272Y625070D01*
X493269Y625069D01*
X493242Y625065D01*
X493181Y625059D01*
X399613D01*
X398857Y627059D01*
X399476Y627678D01*
X400100Y629184D01*
X401816Y629900D01*
X403322Y630524D01*
X404476Y631678D01*
X405100Y633185D01*
Y634815D01*
X404476Y636323D01*
X403322Y637476D01*
X401816Y638100D01*
X401242D01*
X401239Y638102D01*
X401217Y638117D01*
X401170Y638156D01*
X400163Y639163D01*
X399171Y639826D01*
X398000Y640059D01*
X398000Y640059D01*
X350267D01*
X304386Y685940D01*
X305215Y687940D01*
X350000D01*
X351827Y688180D01*
X353530Y688885D01*
X354992Y690008D01*
X356115Y691470D01*
X356820Y693173D01*
X357060Y695000D01*
X356820Y696827D01*
X356115Y698530D01*
X354992Y699993D01*
X353530Y701115D01*
X351827Y701820D01*
X350000Y702060D01*
D02*
G37*
G36*
X436816Y681100D02*
X435185D01*
X433678Y680476D01*
X432524Y679322D01*
X431900Y677815D01*
Y676184D01*
X432524Y674678D01*
X433678Y673524D01*
X435185Y672900D01*
X436816D01*
X438322Y673524D01*
X439476Y674678D01*
X440100Y676184D01*
Y677815D01*
X439476Y679322D01*
X438322Y680476D01*
X436816Y681100D01*
D02*
G37*
G36*
X840816Y678100D02*
X839184D01*
X837678Y677476D01*
X836524Y676322D01*
X835900Y674816D01*
Y673185D01*
X836524Y671677D01*
X837678Y670524D01*
X839184Y669900D01*
X840816D01*
X842322Y670524D01*
X843476Y671677D01*
X844100Y673185D01*
Y674816D01*
X843476Y676322D01*
X842322Y677476D01*
X840816Y678100D01*
D02*
G37*
G36*
X822816D02*
X821184D01*
X819678Y677476D01*
X818524Y676322D01*
X817900Y674816D01*
Y673185D01*
X818524Y671677D01*
X819678Y670524D01*
X821184Y669900D01*
X822816D01*
X824323Y670524D01*
X825476Y671677D01*
X826100Y673185D01*
Y674816D01*
X825476Y676322D01*
X824323Y677476D01*
X822816Y678100D01*
D02*
G37*
G36*
X831815Y672100D02*
X830184D01*
X828678Y671476D01*
X827524Y670322D01*
X826900Y668816D01*
Y667185D01*
X827524Y665678D01*
X827895Y665307D01*
X828454Y664000D01*
X827895Y662693D01*
X827524Y662322D01*
X827167Y661460D01*
X825391Y660860D01*
X824924Y660874D01*
X824822Y660976D01*
X823316Y661600D01*
X821684D01*
X820178Y660976D01*
X819024Y659822D01*
X818400Y658316D01*
Y656684D01*
X819024Y655178D01*
X820178Y654024D01*
X821684Y653400D01*
X823316D01*
X824822Y654024D01*
X825052Y654254D01*
X825287Y654198D01*
X826900Y653273D01*
Y652184D01*
X827449Y650860D01*
X827524Y650677D01*
X827525Y650677D01*
X828654Y649500D01*
X827525Y648323D01*
X827524Y648323D01*
X827449Y648140D01*
X826900Y646815D01*
Y645184D01*
X827524Y643678D01*
X828678Y642524D01*
X830184Y641900D01*
X831815D01*
X833322Y642524D01*
X834476Y643678D01*
X835100Y645184D01*
Y646815D01*
X834551Y648140D01*
X834476Y648323D01*
X834475Y648323D01*
X833346Y649500D01*
X834475Y650677D01*
X834476Y650677D01*
X834551Y650860D01*
X835100Y652184D01*
Y653788D01*
X835184Y653867D01*
X836825Y654876D01*
X837678Y654024D01*
X839184Y653400D01*
X840816D01*
X842322Y654024D01*
X843476Y655178D01*
X844100Y656684D01*
Y658316D01*
X843476Y659822D01*
X842322Y660976D01*
X840816Y661600D01*
X839184D01*
X837678Y660976D01*
X837100Y660398D01*
X835976Y660633D01*
X835018Y661014D01*
X834476Y662322D01*
X834105Y662693D01*
X833547Y664000D01*
X834105Y665307D01*
X834476Y665678D01*
X835100Y667185D01*
Y668816D01*
X834476Y670322D01*
X833322Y671476D01*
X831815Y672100D01*
D02*
G37*
G36*
X545816Y655100D02*
X544184D01*
X542678Y654476D01*
X541524Y653322D01*
X540900Y651815D01*
Y650184D01*
X541524Y648678D01*
X542678Y647524D01*
X544184Y646900D01*
X545816D01*
X547098Y647431D01*
X572522D01*
X575993Y643960D01*
X576524Y642678D01*
X577678Y641524D01*
X579184Y640900D01*
X580816D01*
X582323Y641524D01*
X583476Y642678D01*
X584100Y644184D01*
Y645816D01*
X583476Y647322D01*
X582323Y648476D01*
X581040Y649007D01*
X576523Y653523D01*
X575366Y654297D01*
X574000Y654569D01*
X547098D01*
X545816Y655100D01*
D02*
G37*
G36*
X766815Y654100D02*
X765184D01*
X763678Y653476D01*
X762524Y652322D01*
X761900Y650816D01*
Y649184D01*
X762524Y647678D01*
X763678Y646524D01*
X764960Y645993D01*
X769477Y641477D01*
X770634Y640703D01*
X772000Y640431D01*
X799902D01*
X801184Y639900D01*
X802815D01*
X804322Y640524D01*
X805476Y641678D01*
X806100Y643185D01*
Y644816D01*
X805476Y646322D01*
X804322Y647476D01*
X802815Y648100D01*
X801184D01*
X799902Y647569D01*
X773478D01*
X770007Y651040D01*
X769476Y652322D01*
X768322Y653476D01*
X766815Y654100D01*
D02*
G37*
G36*
X661815Y655100D02*
X660184D01*
X658678Y654476D01*
X657524Y653322D01*
X656900Y651815D01*
Y650184D01*
X657524Y648678D01*
X658678Y647524D01*
X660184Y646900D01*
X661815D01*
X663098Y647431D01*
X685697D01*
X690900Y642229D01*
Y641684D01*
X691524Y640178D01*
X692678Y639024D01*
X694184Y638400D01*
X695816D01*
X697322Y639024D01*
X698476Y640178D01*
X699100Y641684D01*
Y643316D01*
X698476Y644822D01*
X697322Y645976D01*
X697069Y646081D01*
X696923Y646299D01*
X689699Y653523D01*
X688541Y654297D01*
X687175Y654569D01*
X663098D01*
X661815Y655100D01*
D02*
G37*
G36*
X436816Y591100D02*
X435185D01*
X433678Y590476D01*
X432524Y589322D01*
X431900Y587816D01*
Y586185D01*
X432524Y584678D01*
X433678Y583524D01*
X435185Y582900D01*
X436816D01*
X438322Y583524D01*
X439476Y584678D01*
X440100Y586185D01*
Y587816D01*
X439476Y589322D01*
X438322Y590476D01*
X436816Y591100D01*
D02*
G37*
G36*
X710816Y584100D02*
X709184D01*
X707678Y583476D01*
X706524Y582323D01*
X705900Y580816D01*
Y579184D01*
X706524Y577678D01*
X707678Y576524D01*
X709184Y575900D01*
X709758D01*
X709761Y575898D01*
X709783Y575883D01*
X709830Y575844D01*
X747363Y538311D01*
X747367Y538306D01*
X747398Y538261D01*
X747400Y538258D01*
Y537684D01*
X748024Y536177D01*
X749177Y535024D01*
X750685Y534400D01*
X752316D01*
X753822Y535024D01*
X754976Y536177D01*
X755600Y537684D01*
Y539315D01*
X754976Y540822D01*
X753822Y541976D01*
X752316Y542600D01*
X751742D01*
X751739Y542602D01*
X751717Y542617D01*
X751669Y542656D01*
X714137Y580189D01*
X714133Y580194D01*
X714102Y580239D01*
X714100Y580242D01*
Y580816D01*
X713476Y582323D01*
X712322Y583476D01*
X710816Y584100D01*
D02*
G37*
G36*
X735816Y526100D02*
X734184D01*
X732678Y525476D01*
X731524Y524323D01*
X730900Y522816D01*
Y521185D01*
X731524Y519678D01*
X732678Y518524D01*
X734184Y517900D01*
X735816D01*
X737322Y518524D01*
X738476Y519678D01*
X739100Y521185D01*
Y522816D01*
X738476Y524323D01*
X737322Y525476D01*
X735816Y526100D01*
D02*
G37*
G36*
X764816Y511850D02*
X763185D01*
X761677Y511226D01*
X760524Y510072D01*
X759900Y508565D01*
Y506934D01*
X760524Y505428D01*
X761677Y504274D01*
X763185Y503650D01*
X764816D01*
X766322Y504274D01*
X767476Y505428D01*
X768100Y506934D01*
Y508565D01*
X767476Y510072D01*
X766322Y511226D01*
X764816Y511850D01*
D02*
G37*
G36*
X595500Y506750D02*
X590000D01*
Y501750D01*
X595500D01*
Y506750D01*
D02*
G37*
G36*
X587000D02*
X581500D01*
Y501750D01*
X587000D01*
Y506750D01*
D02*
G37*
G36*
X845816Y504100D02*
X844184D01*
X842678Y503476D01*
X841524Y502322D01*
X840900Y500816D01*
Y499184D01*
X841524Y497677D01*
X842678Y496524D01*
X844184Y495900D01*
X845816D01*
X847322Y496524D01*
X848476Y497677D01*
X849100Y499184D01*
Y500816D01*
X848476Y502322D01*
X847322Y503476D01*
X845816Y504100D01*
D02*
G37*
G36*
X436816D02*
X435185D01*
X433678Y503476D01*
X432524Y502322D01*
X431900Y500816D01*
Y499184D01*
X432524Y497677D01*
X433678Y496524D01*
X435185Y495900D01*
X436816D01*
X438322Y496524D01*
X439476Y497677D01*
X440100Y499184D01*
Y500816D01*
X439476Y502322D01*
X438322Y503476D01*
X436816Y504100D01*
D02*
G37*
G36*
X524566Y500100D02*
X522934D01*
X521428Y499476D01*
X520274Y498322D01*
X519650Y496815D01*
Y495979D01*
X519638Y495964D01*
X516733Y493059D01*
X489749D01*
X489226Y494323D01*
X488073Y495476D01*
X486566Y496100D01*
X484935D01*
X483428Y495476D01*
X482274Y494323D01*
X481650Y492816D01*
Y491185D01*
X482274Y489678D01*
X483428Y488524D01*
X484935Y487900D01*
X485796D01*
X485859Y487837D01*
X486851Y487174D01*
X488022Y486941D01*
X518000D01*
X518000Y486941D01*
X519170Y487174D01*
X520163Y487837D01*
X524150Y491824D01*
X524193Y491861D01*
X524231Y491889D01*
X524249Y491900D01*
X524566D01*
X526073Y492524D01*
X527226Y493677D01*
X527850Y495185D01*
Y496815D01*
X527226Y498322D01*
X526073Y499476D01*
X524566Y500100D01*
D02*
G37*
G36*
X603000Y682539D02*
X602220Y682384D01*
X601558Y681942D01*
X601558Y681942D01*
X597558Y677942D01*
X597116Y677280D01*
X596961Y676500D01*
Y645500D01*
X596961Y645500D01*
X597116Y644720D01*
X597558Y644058D01*
X602558Y639058D01*
X602558Y639058D01*
X603220Y638616D01*
X603940Y638473D01*
Y570924D01*
X586743Y553727D01*
X586470Y553615D01*
X585008Y552492D01*
X580008Y547492D01*
X580008Y547492D01*
X575008Y542492D01*
X573885Y541030D01*
X573180Y539327D01*
X573023Y538131D01*
X571422Y537377D01*
X570984Y537342D01*
X568413Y539913D01*
X567421Y540576D01*
X566250Y540809D01*
X566250Y540809D01*
X449017D01*
X440987Y548839D01*
X441323Y550524D01*
X441761Y550963D01*
X441914Y551061D01*
X442035Y551178D01*
X442104Y551236D01*
X442161Y551278D01*
X442205Y551306D01*
X442235Y551322D01*
X442238Y551324D01*
X458891D01*
X460818Y549397D01*
X460819Y549394D01*
X460829Y549361D01*
X460840Y549311D01*
X460851Y549241D01*
X460858Y549151D01*
X460861Y548983D01*
X460900Y548805D01*
Y548185D01*
X461524Y546678D01*
X462678Y545524D01*
X464184Y544900D01*
X465816D01*
X467323Y545524D01*
X468476Y546678D01*
X469100Y548185D01*
Y549815D01*
X468476Y551322D01*
X467346Y552500D01*
X468476Y553678D01*
X469100Y555185D01*
Y556815D01*
X468476Y558322D01*
X467323Y559476D01*
Y561524D01*
X468476Y562677D01*
X469100Y564184D01*
Y565816D01*
X468476Y567322D01*
X467323Y568476D01*
X465816Y569100D01*
X464184D01*
X462678Y568476D01*
X462239Y568037D01*
X462086Y567939D01*
X461965Y567822D01*
X461896Y567764D01*
X461839Y567721D01*
X461795Y567694D01*
X461765Y567678D01*
X461762Y567676D01*
X456238D01*
X456235Y567678D01*
X456205Y567694D01*
X456161Y567722D01*
X456104Y567764D01*
X456035Y567822D01*
X455914Y567939D01*
X455761Y568037D01*
X455322Y568476D01*
X453816Y569100D01*
X452184D01*
X450678Y568476D01*
X449524Y567322D01*
X448900Y565816D01*
X448820Y564180D01*
X447184Y564100D01*
X445677Y563476D01*
X444524Y562322D01*
X443900Y560816D01*
Y559184D01*
X442590Y557584D01*
X441322Y557476D01*
X439816Y558100D01*
X438185D01*
X436678Y557476D01*
X435524Y556323D01*
X433839Y555987D01*
X420663Y569163D01*
X419670Y569826D01*
X418500Y570059D01*
X418500Y570059D01*
X305750D01*
X304580Y569826D01*
X303587Y569163D01*
X272337Y537913D01*
X271674Y536921D01*
X271441Y535750D01*
X271441Y535750D01*
Y480750D01*
X271441Y480750D01*
X271674Y479580D01*
X272337Y478587D01*
X280113Y470811D01*
X280117Y470806D01*
X280148Y470761D01*
X280150Y470758D01*
Y470185D01*
X280774Y468677D01*
X281928Y467524D01*
X283435Y466900D01*
X285065D01*
X286572Y467524D01*
X287726Y468677D01*
X288350Y470185D01*
Y471815D01*
X287726Y473322D01*
X286572Y474476D01*
X285065Y475100D01*
X284492D01*
X284489Y475102D01*
X284467Y475117D01*
X284419Y475156D01*
X277559Y482017D01*
Y534483D01*
X307017Y563941D01*
X417233D01*
X445587Y535587D01*
X446579Y534924D01*
X447750Y534691D01*
X447750Y534691D01*
X564983D01*
X573837Y525837D01*
X573837Y525837D01*
X574829Y525174D01*
X576000Y524941D01*
X580287D01*
X581115Y522941D01*
X570983Y512809D01*
X559750D01*
X558579Y512576D01*
X557587Y511913D01*
X557587Y511913D01*
X546342Y500668D01*
X545679Y499675D01*
X545627Y499416D01*
X545024Y498813D01*
X544400Y497306D01*
Y495675D01*
X545024Y494168D01*
X546177Y493014D01*
X547685Y492390D01*
X549315D01*
X550822Y493014D01*
X551976Y494168D01*
X552600Y495675D01*
Y497306D01*
X552316Y497991D01*
X561017Y506691D01*
X572250D01*
X572250Y506691D01*
X573420Y506924D01*
X574413Y507587D01*
X643767Y576941D01*
X658209D01*
X658215Y576940D01*
X658269Y576931D01*
X658272Y576930D01*
X658678Y576524D01*
X658937Y576417D01*
X659406Y574058D01*
X633424Y548076D01*
X632098Y546091D01*
X631632Y543750D01*
Y513634D01*
X631212Y512856D01*
X630124Y512000D01*
X629250Y512000D01*
X617750D01*
Y500074D01*
X617741Y500031D01*
X617750Y499987D01*
Y498172D01*
X617640Y497818D01*
X616785Y496400D01*
X615943Y496400D01*
X613500D01*
Y496280D01*
X613770D01*
X613774Y495917D01*
X613836Y495057D01*
X613873Y494847D01*
X613918Y494675D01*
X613972Y494542D01*
X614033Y494446D01*
X614103Y494389D01*
X614181Y494370D01*
X613500D01*
Y491400D01*
X610500D01*
Y494370D01*
X610360D01*
X610438Y494389D01*
X610500Y494440D01*
Y496400D01*
X606800D01*
Y496400D01*
X605200D01*
Y496400D01*
X601500D01*
Y491400D01*
X598500D01*
Y496400D01*
X595500D01*
Y498750D01*
X588500D01*
X581500D01*
Y497400D01*
X578500D01*
Y492400D01*
X575500D01*
Y497400D01*
X568500D01*
Y492400D01*
X565500D01*
Y497400D01*
X561800D01*
Y492697D01*
X559952Y491932D01*
X559442Y492442D01*
X558780Y492884D01*
X558000Y493039D01*
X555000D01*
X554220Y492884D01*
X553558Y492442D01*
X551558Y490442D01*
X551116Y489780D01*
X550961Y489000D01*
Y482200D01*
X549100D01*
Y477000D01*
X547600D01*
Y475500D01*
X542600D01*
Y471800D01*
Y468500D01*
X547600D01*
Y465500D01*
X542600D01*
Y462200D01*
X541600D01*
Y458500D01*
X546600D01*
Y455500D01*
X541600D01*
Y453000D01*
X535750D01*
Y447500D01*
X542250D01*
Y444500D01*
X535750D01*
Y439000D01*
X541600D01*
Y435500D01*
X546600D01*
Y432500D01*
X541600D01*
Y428800D01*
X541600D01*
Y428200D01*
X541600D01*
Y424500D01*
X546600D01*
Y421500D01*
X541600D01*
Y417800D01*
Y414500D01*
X546600D01*
Y413000D01*
X548100D01*
Y407800D01*
X549680D01*
X549716Y407620D01*
X550158Y406958D01*
X550558Y406558D01*
X551220Y406116D01*
X552000Y405961D01*
X553480D01*
X554024Y405124D01*
X554153Y404664D01*
X554163Y403961D01*
X553029Y402827D01*
X552405Y401320D01*
Y399689D01*
X553029Y398182D01*
X554182Y397029D01*
X555689Y396405D01*
X557320D01*
X557800Y394557D01*
Y394100D01*
X563000D01*
Y392600D01*
X564500D01*
Y387600D01*
X567074D01*
Y364053D01*
X566160Y363491D01*
X565074Y363079D01*
X563815Y363600D01*
X562184D01*
X560677Y362976D01*
X559524Y361822D01*
X558900Y360316D01*
Y358684D01*
X559524Y357178D01*
X560677Y356024D01*
X562184Y355400D01*
X563787D01*
X563869Y355315D01*
X564899Y353684D01*
X551195Y339980D01*
X549476Y340322D01*
X548322Y341476D01*
X546815Y342100D01*
X545185D01*
X543678Y341476D01*
X542524Y340322D01*
X541900Y338816D01*
Y338242D01*
X541898Y338239D01*
X541883Y338217D01*
X541844Y338169D01*
X537837Y334163D01*
X537174Y333171D01*
X536941Y332000D01*
X536941Y332000D01*
Y287500D01*
X536941Y287500D01*
X537174Y286329D01*
X537837Y285337D01*
X538363Y284811D01*
X538367Y284806D01*
X538398Y284761D01*
X538400Y284758D01*
Y284184D01*
X539024Y282677D01*
X540044Y281658D01*
X540190Y281426D01*
X540458Y279243D01*
X537108Y275893D01*
X536527Y275024D01*
X536324Y274000D01*
X536324Y274000D01*
Y268500D01*
X536324Y268500D01*
X536527Y267476D01*
X537108Y266607D01*
X540607Y263107D01*
X541476Y262527D01*
X542500Y262324D01*
X542500Y262324D01*
X592891D01*
X603107Y252108D01*
X603107Y252108D01*
X603976Y251527D01*
X605000Y251324D01*
X605000Y251324D01*
X621000D01*
X621000Y251324D01*
X622024Y251527D01*
X622892Y252108D01*
X628892Y258107D01*
X628893Y258107D01*
X629473Y258976D01*
X629676Y260000D01*
X629676Y260000D01*
Y279000D01*
X629676Y279000D01*
X629473Y280024D01*
X628893Y280893D01*
X628892Y280893D01*
X624182Y285603D01*
X624181Y285606D01*
X624171Y285639D01*
X624160Y285689D01*
X624149Y285759D01*
X624142Y285849D01*
X624139Y286017D01*
X624100Y286195D01*
Y286816D01*
X623476Y288323D01*
X622323Y289476D01*
X620816Y290100D01*
X619184D01*
X617678Y289476D01*
X616524Y288323D01*
X615900Y286816D01*
Y285184D01*
X616366Y284059D01*
X615803Y282713D01*
X615315Y282059D01*
X600267D01*
X585059Y297267D01*
Y326388D01*
X586634Y327900D01*
X588265D01*
X589772Y328524D01*
X590926Y329678D01*
X593222Y329994D01*
X595818Y327397D01*
X595819Y327394D01*
X595829Y327361D01*
X595840Y327311D01*
X595851Y327241D01*
X595858Y327151D01*
X595861Y326982D01*
X595900Y326805D01*
Y326185D01*
X596524Y324678D01*
X597677Y323524D01*
X599184Y322900D01*
X600816D01*
X602322Y323524D01*
X603476Y324678D01*
X604100Y326185D01*
Y327816D01*
X603476Y329323D01*
X602322Y330476D01*
X600816Y331100D01*
X600195D01*
X600018Y331139D01*
X599849Y331142D01*
X599759Y331149D01*
X599689Y331160D01*
X599639Y331171D01*
X599605Y331181D01*
X599603Y331182D01*
X596676Y334109D01*
Y345000D01*
X596676Y345000D01*
X596473Y346024D01*
X595892Y346893D01*
X595892Y346893D01*
X588676Y354109D01*
Y357169D01*
X590676Y357998D01*
X605837Y342837D01*
X606829Y342174D01*
X608000Y341941D01*
X625148D01*
X625900Y340816D01*
Y339184D01*
X626524Y337678D01*
X627678Y336524D01*
X629184Y335900D01*
X630816D01*
X632323Y336524D01*
X632728Y336930D01*
X632731Y336931D01*
X632758Y336936D01*
X632819Y336941D01*
X638733D01*
X652727Y322948D01*
X652167Y320679D01*
X651677Y320476D01*
X650524Y319322D01*
X649900Y317815D01*
Y316185D01*
X650524Y314678D01*
X651677Y313524D01*
X653184Y312900D01*
X654816D01*
X656322Y313524D01*
X657476Y314678D01*
X657679Y315167D01*
X659948Y315727D01*
X714574Y261100D01*
X714395Y260178D01*
X713874Y258972D01*
X712678Y258476D01*
X711743Y257541D01*
X711524Y257323D01*
X710615Y256008D01*
X709385D01*
X708476Y257323D01*
X708257Y257541D01*
X707322Y258476D01*
X705816Y259100D01*
X704184D01*
X702678Y258476D01*
X701524Y257322D01*
X700900Y255816D01*
Y254184D01*
X701524Y252677D01*
X702678Y251524D01*
X704184Y250900D01*
X705816D01*
X707322Y251524D01*
X708257Y252459D01*
X708476Y252677D01*
X709385Y253992D01*
X710615D01*
X711524Y252677D01*
X711743Y252459D01*
X712678Y251524D01*
X714184Y250900D01*
X715816D01*
X717322Y251524D01*
X718476Y252677D01*
X719016Y253981D01*
X719437Y254377D01*
X720111Y254763D01*
X721100Y255120D01*
X722000Y254941D01*
X811000D01*
X811000Y254941D01*
X812170Y255174D01*
X813163Y255837D01*
X834827Y277501D01*
X834851Y277521D01*
X835082Y277664D01*
X835429Y277822D01*
X835891Y277980D01*
X836468Y278125D01*
X837153Y278249D01*
X837922Y278345D01*
X839841Y278456D01*
X840935Y278461D01*
X841125Y278500D01*
X842251D01*
X844667Y279147D01*
X846833Y280398D01*
X848602Y282167D01*
X849853Y284333D01*
X850500Y286749D01*
Y289251D01*
X849853Y291667D01*
X848602Y293833D01*
X846833Y295602D01*
X844667Y296852D01*
X844248Y296965D01*
Y299035D01*
X844667Y299147D01*
X846833Y300398D01*
X848602Y302167D01*
X849853Y304333D01*
X850165Y305500D01*
X841000D01*
Y308000D01*
X838500D01*
Y317165D01*
X837333Y316853D01*
X835167Y315602D01*
X833398Y313833D01*
X832147Y311667D01*
X832035Y311248D01*
X829965D01*
X829853Y311667D01*
X828602Y313833D01*
X826833Y315602D01*
X824667Y316853D01*
X822251Y317500D01*
X819749D01*
X817333Y316853D01*
X815167Y315602D01*
X813398Y313833D01*
X812147Y311667D01*
X812035Y311248D01*
X809965D01*
X809853Y311667D01*
X808602Y313833D01*
X806833Y315602D01*
X804667Y316853D01*
X802251Y317500D01*
X799749D01*
X797333Y316853D01*
X795167Y315602D01*
X793398Y313833D01*
X792147Y311667D01*
X792035Y311248D01*
X789965D01*
X789853Y311667D01*
X788602Y313833D01*
X786833Y315602D01*
X784667Y316853D01*
X782251Y317500D01*
X779749D01*
X777333Y316853D01*
X775167Y315602D01*
X773398Y313833D01*
X772148Y311667D01*
X772035Y311248D01*
X769965D01*
X769853Y311667D01*
X768602Y313833D01*
X766833Y315602D01*
X764667Y316853D01*
X763500Y317165D01*
Y308000D01*
X761000D01*
Y305500D01*
X751835D01*
X752147Y304333D01*
X753398Y302167D01*
X755167Y300398D01*
X756722Y299500D01*
X756187Y297500D01*
X751500D01*
Y291059D01*
X729267D01*
X665619Y354707D01*
X664822Y356524D01*
X665976Y357677D01*
X666600Y359184D01*
Y360816D01*
X665976Y362322D01*
X664822Y363476D01*
X663316Y364100D01*
X662695D01*
X662517Y364139D01*
X662349Y364142D01*
X662259Y364149D01*
X662189Y364160D01*
X662139Y364171D01*
X662105Y364181D01*
X662103Y364182D01*
X631172Y395113D01*
Y404141D01*
X633040Y405575D01*
X633493Y405528D01*
X633807Y405395D01*
X634178Y405024D01*
X635685Y404400D01*
X637315D01*
X638822Y405024D01*
X639976Y406177D01*
X639997Y406230D01*
X648447Y414680D01*
X650400Y413804D01*
Y412934D01*
X651024Y411427D01*
X652178Y410274D01*
X653684Y409650D01*
X654889D01*
X655601Y409174D01*
X656772Y408941D01*
X662459D01*
X662465Y408941D01*
X662519Y408931D01*
X662522Y408930D01*
X662928Y408524D01*
X664435Y407900D01*
X666066D01*
X667572Y408524D01*
X668726Y409678D01*
X669350Y411184D01*
Y412099D01*
X670792Y413348D01*
X671198Y413498D01*
X671434Y413400D01*
X673065D01*
X674572Y414024D01*
X675726Y415178D01*
X676350Y416684D01*
Y418316D01*
X675726Y419823D01*
X674572Y420976D01*
X673065Y421600D01*
X671434D01*
X669928Y420976D01*
X669522Y420570D01*
X669519Y420569D01*
X669492Y420564D01*
X669431Y420559D01*
X661749D01*
X661226Y421822D01*
X660072Y422976D01*
X658566Y423600D01*
X656935D01*
X655310Y425092D01*
Y469968D01*
X655310Y469968D01*
X655000Y471529D01*
X654116Y472852D01*
X644758Y482210D01*
X644250Y484000D01*
X644250Y484000D01*
X644250D01*
X644250Y484000D01*
Y489500D01*
X637750D01*
Y492500D01*
X644250D01*
Y496000D01*
X644250Y498000D01*
X644250Y500000D01*
Y509926D01*
X644259Y509969D01*
X644250Y510013D01*
Y510040D01*
X644256Y510080D01*
X644250Y510103D01*
Y512000D01*
X644059D01*
X643867Y515254D01*
Y541216D01*
X728326Y625674D01*
X729652Y627659D01*
X730117Y630000D01*
Y637984D01*
X730780Y638116D01*
X731442Y638558D01*
X731442Y638558D01*
X736442Y643558D01*
X736884Y644220D01*
X737039Y645000D01*
Y657038D01*
X737100Y657185D01*
Y658816D01*
X737039Y658962D01*
Y673038D01*
X737100Y673185D01*
Y674816D01*
X737039Y674962D01*
Y675000D01*
X736884Y675780D01*
X736442Y676442D01*
X736442Y676442D01*
X731442Y681442D01*
X730780Y681884D01*
X730000Y682039D01*
X714000D01*
X714000Y682039D01*
X713220Y681884D01*
X712558Y681442D01*
X712558Y681442D01*
X708558Y677442D01*
X708116Y676780D01*
X707961Y676000D01*
Y645000D01*
X707961Y645000D01*
X708116Y644220D01*
X708558Y643558D01*
X713558Y638558D01*
X713558Y638558D01*
X714220Y638116D01*
X715000Y637961D01*
X717883D01*
Y632534D01*
X666942Y581594D01*
X664583Y582063D01*
X664476Y582323D01*
X663322Y583476D01*
X661815Y584100D01*
X660184D01*
X658678Y583476D01*
X658272Y583070D01*
X658269Y583069D01*
X658242Y583064D01*
X658181Y583059D01*
X642500D01*
X641329Y582826D01*
X640337Y582163D01*
X640337Y582163D01*
X619244Y561070D01*
X617976Y561323D01*
X616823Y562476D01*
X617114Y564470D01*
X617820Y566173D01*
X618060Y568000D01*
Y638461D01*
X619000D01*
X619780Y638616D01*
X620442Y639058D01*
X620442Y639058D01*
X625442Y644058D01*
X625884Y644720D01*
X626039Y645500D01*
Y675500D01*
X625884Y676280D01*
X625442Y676942D01*
X625442Y676942D01*
X620442Y681942D01*
X619780Y682384D01*
X619000Y682539D01*
X603000D01*
X603000Y682539D01*
D02*
G37*
G36*
X750566Y497350D02*
X748934D01*
X747428Y496726D01*
X746274Y495572D01*
X745650Y494066D01*
Y492434D01*
X746274Y490928D01*
X747428Y489774D01*
X748934Y489150D01*
X750566D01*
X752073Y489774D01*
X753226Y490928D01*
X753850Y492434D01*
Y494066D01*
X753226Y495572D01*
X752073Y496726D01*
X750566Y497350D01*
D02*
G37*
G36*
X318815Y556100D02*
X317185D01*
X315678Y555476D01*
X314524Y554322D01*
X313900Y552816D01*
Y551184D01*
X314524Y549678D01*
X315678Y548524D01*
X317185Y547900D01*
X318815D01*
X320322Y548524D01*
X320728Y548930D01*
X320731Y548931D01*
X320758Y548936D01*
X320819Y548941D01*
X358733D01*
X417616Y490059D01*
X416787Y488059D01*
X393791D01*
X393785Y488060D01*
X393731Y488069D01*
X393728Y488070D01*
X393322Y488476D01*
X391815Y489100D01*
X390185D01*
X388678Y488476D01*
X387524Y487322D01*
X386900Y485816D01*
Y484184D01*
X387524Y482677D01*
X388678Y481524D01*
X390185Y480900D01*
X391819Y480820D01*
X391900Y479184D01*
X392524Y477678D01*
X393677Y476524D01*
X395185Y475900D01*
X396819Y475820D01*
X396900Y474184D01*
X397524Y472677D01*
X398678Y471524D01*
X400185Y470900D01*
X401816D01*
X403322Y471524D01*
X403728Y471930D01*
X403731Y471931D01*
X403758Y471936D01*
X403819Y471941D01*
X412733D01*
X478863Y405811D01*
X478867Y405806D01*
X478898Y405761D01*
X478900Y405758D01*
Y405185D01*
X479524Y403678D01*
X480678Y402524D01*
X482184Y401900D01*
X483815D01*
X485322Y402524D01*
X486476Y403678D01*
X487100Y405184D01*
X488816Y405900D01*
X490322Y406524D01*
X491476Y407677D01*
X493606Y407595D01*
X493677Y407524D01*
X495185Y406900D01*
X496815D01*
X498322Y407524D01*
X499476Y408677D01*
X500100Y410184D01*
Y411815D01*
X499476Y413322D01*
X498322Y414476D01*
X496815Y415100D01*
X495981D01*
X495623Y415484D01*
X495322Y417524D01*
X496476Y418677D01*
X497100Y420185D01*
Y421815D01*
X496476Y423322D01*
X495322Y424476D01*
X493815Y425100D01*
X492184D01*
X491507Y424819D01*
X362163Y554163D01*
X361171Y554826D01*
X360000Y555059D01*
X360000Y555059D01*
X320791D01*
X320785Y555060D01*
X320731Y555069D01*
X320728Y555070D01*
X320322Y555476D01*
X318815Y556100D01*
D02*
G37*
G36*
X546100Y482200D02*
X542600D01*
Y478500D01*
X546100D01*
Y482200D01*
D02*
G37*
G36*
X703816Y459100D02*
X702184D01*
X700677Y458476D01*
X699524Y457323D01*
X698900Y455816D01*
Y454184D01*
X699524Y452678D01*
X700677Y451524D01*
X702184Y450900D01*
X703816D01*
X705322Y451524D01*
X706476Y452678D01*
X707100Y454184D01*
Y455816D01*
X706476Y457323D01*
X705322Y458476D01*
X703816Y459100D01*
D02*
G37*
G36*
X450816Y531600D02*
X449184D01*
X447677Y530976D01*
X446524Y529823D01*
X445900Y528316D01*
Y526684D01*
X446524Y525178D01*
X446963Y524739D01*
X447061Y524586D01*
X447178Y524465D01*
X447236Y524396D01*
X447279Y524339D01*
X447306Y524295D01*
X447322Y524265D01*
X447324Y524262D01*
Y479500D01*
X447323Y479500D01*
X447527Y478476D01*
X448107Y477607D01*
X488068Y437647D01*
X488069Y437645D01*
X488079Y437611D01*
X488091Y437560D01*
X488101Y437491D01*
X488108Y437401D01*
X488111Y437233D01*
X488150Y437055D01*
Y436435D01*
X488774Y434928D01*
X489927Y433774D01*
X491435Y433150D01*
X493065D01*
X494572Y433774D01*
X495726Y434928D01*
X496350Y436435D01*
Y438065D01*
X495726Y439572D01*
X494572Y440726D01*
X493065Y441350D01*
X492445D01*
X492267Y441389D01*
X492099Y441392D01*
X492009Y441399D01*
X491939Y441410D01*
X491889Y441421D01*
X491855Y441431D01*
X491853Y441432D01*
X489135Y444150D01*
X489199Y444859D01*
X489774Y446340D01*
X490822Y446774D01*
X491976Y447928D01*
X492600Y449435D01*
Y451065D01*
X491976Y452573D01*
X490822Y453726D01*
X489315Y454350D01*
X488742D01*
X488739Y454352D01*
X488717Y454367D01*
X488670Y454406D01*
X468926Y474150D01*
X468889Y474193D01*
X468861Y474231D01*
X468850Y474249D01*
Y474566D01*
X468226Y476073D01*
X467072Y477226D01*
X465565Y477850D01*
X463935D01*
X462427Y477226D01*
X461274Y476073D01*
X460913Y475201D01*
X459155Y474603D01*
X458670Y474615D01*
X452676Y480609D01*
Y524262D01*
X452678Y524265D01*
X452694Y524295D01*
X452722Y524339D01*
X452764Y524396D01*
X452822Y524465D01*
X452939Y524586D01*
X453037Y524739D01*
X453476Y525178D01*
X454100Y526684D01*
Y528316D01*
X453476Y529823D01*
X452322Y530976D01*
X450816Y531600D01*
D02*
G37*
G36*
X520816Y431600D02*
X519184D01*
X517678Y430976D01*
X516524Y429823D01*
X515900Y428316D01*
Y426684D01*
X516524Y425178D01*
X517678Y424024D01*
X519184Y423400D01*
X519805D01*
X519982Y423361D01*
X520151Y423358D01*
X520241Y423351D01*
X520311Y423340D01*
X520361Y423329D01*
X520395Y423319D01*
X520397Y423318D01*
X521107Y422607D01*
X521107Y422607D01*
X521976Y422027D01*
X523000Y421824D01*
X523000Y421824D01*
X529252D01*
X529255Y421822D01*
X529286Y421806D01*
X529329Y421778D01*
X529386Y421736D01*
X529455Y421678D01*
X529576Y421561D01*
X529729Y421463D01*
X530168Y421024D01*
X531675Y420400D01*
X533306D01*
X534813Y421024D01*
X535966Y422178D01*
X536590Y423684D01*
Y425316D01*
X535966Y426822D01*
X534813Y427976D01*
X533306Y428600D01*
X531675D01*
X530168Y427976D01*
X529729Y427537D01*
X529576Y427439D01*
X529455Y427322D01*
X529386Y427264D01*
X529329Y427221D01*
X529286Y427194D01*
X529255Y427178D01*
X529252Y427176D01*
X524162D01*
X524160Y427189D01*
X524149Y427259D01*
X524142Y427349D01*
X524139Y427518D01*
X524100Y427695D01*
Y428316D01*
X523476Y429823D01*
X522323Y430976D01*
X520816Y431600D01*
D02*
G37*
G36*
X726815Y424100D02*
X725184D01*
X723678Y423476D01*
X722524Y422322D01*
X721900Y420816D01*
Y419184D01*
X722524Y417677D01*
X723678Y416524D01*
X725184Y415900D01*
X726815D01*
X728322Y416524D01*
X729476Y417677D01*
X730100Y419184D01*
Y420816D01*
X729476Y422322D01*
X728322Y423476D01*
X726815Y424100D01*
D02*
G37*
G36*
X545100Y411500D02*
X541600D01*
Y407800D01*
X545100D01*
Y411500D01*
D02*
G37*
G36*
X735816Y415100D02*
X734184D01*
X732678Y414476D01*
X731524Y413322D01*
X730900Y411815D01*
Y410184D01*
X731524Y408677D01*
X732678Y407524D01*
X734184Y406900D01*
X735816D01*
X737322Y407524D01*
X738476Y408677D01*
X739100Y410184D01*
Y411815D01*
X738476Y413322D01*
X737322Y414476D01*
X735816Y415100D01*
D02*
G37*
G36*
X435816Y409100D02*
X434184D01*
X432678Y408476D01*
X431524Y407323D01*
X430900Y405816D01*
Y404184D01*
X431524Y402678D01*
X432678Y401524D01*
X434184Y400900D01*
X435816D01*
X437323Y401524D01*
X438476Y402678D01*
X439100Y404184D01*
Y405816D01*
X438476Y407323D01*
X437323Y408476D01*
X435816Y409100D01*
D02*
G37*
G36*
X839816Y408100D02*
X838185D01*
X836677Y407476D01*
X835524Y406323D01*
X834900Y404815D01*
Y403185D01*
X835524Y401678D01*
X836677Y400524D01*
X838185Y399900D01*
X839816D01*
X841322Y400524D01*
X842476Y401678D01*
X843100Y403185D01*
Y404815D01*
X842476Y406323D01*
X841322Y407476D01*
X839816Y408100D01*
D02*
G37*
G36*
X561500Y391100D02*
X557800D01*
Y387600D01*
X561500D01*
Y391100D01*
D02*
G37*
G36*
X790816Y372100D02*
X789184D01*
X787678Y371476D01*
X787272Y371070D01*
X787269Y371069D01*
X787242Y371064D01*
X787181Y371059D01*
X713791D01*
X713785Y371059D01*
X713731Y371069D01*
X713728Y371070D01*
X713322Y371476D01*
X711815Y372100D01*
X710184D01*
X708678Y371476D01*
X707524Y370322D01*
X706900Y368815D01*
Y367184D01*
X706972Y367012D01*
X705678Y366476D01*
X704524Y365322D01*
X703900Y363816D01*
Y362184D01*
X703971Y362012D01*
X702678Y361476D01*
X701524Y360322D01*
X700900Y358815D01*
Y357184D01*
X700972Y357012D01*
X699678Y356476D01*
X698524Y355322D01*
X697900Y353815D01*
Y352184D01*
X697971Y352012D01*
X696677Y351476D01*
X695524Y350322D01*
X694900Y348815D01*
Y347184D01*
X694971Y347012D01*
X693678Y346476D01*
X692524Y345322D01*
X691900Y343815D01*
X691184Y342100D01*
X689678Y341476D01*
X688524Y340322D01*
X687900Y338816D01*
Y337184D01*
X688524Y335678D01*
X689678Y334524D01*
X691184Y333900D01*
X692815D01*
X694322Y334524D01*
X694728Y334930D01*
X694731Y334931D01*
X694758Y334936D01*
X694819Y334941D01*
X761209D01*
X761215Y334940D01*
X761269Y334931D01*
X761272Y334930D01*
X761677Y334524D01*
X763185Y333900D01*
X764816D01*
X766322Y334524D01*
X767476Y335678D01*
X768100Y337184D01*
X768816Y338900D01*
X770322Y339524D01*
X771476Y340678D01*
X772100Y342184D01*
X772816Y343900D01*
X774323Y344524D01*
X775476Y345677D01*
X776100Y347184D01*
X776816Y348900D01*
X778322Y349524D01*
X779476Y350678D01*
X780100Y352184D01*
X780816Y353900D01*
X782322Y354524D01*
X783476Y355677D01*
X784100Y357184D01*
X784181Y358820D01*
X785816Y358900D01*
X787322Y359524D01*
X788476Y360678D01*
X789100Y362184D01*
X789181Y363820D01*
X790816Y363900D01*
X792322Y364524D01*
X793476Y365678D01*
X794100Y367184D01*
Y368815D01*
X793476Y370322D01*
X792322Y371476D01*
X790816Y372100D01*
D02*
G37*
G36*
X751815Y412100D02*
X750184D01*
X748678Y411476D01*
X747524Y410322D01*
X746900Y408815D01*
Y407184D01*
X747524Y405677D01*
X748678Y404524D01*
X750184Y403900D01*
X751815D01*
X753322Y404524D01*
X753728Y404930D01*
X753731Y404931D01*
X753758Y404935D01*
X753819Y404941D01*
X768733D01*
X827863Y345811D01*
X827867Y345806D01*
X827898Y345761D01*
X827900Y345758D01*
Y345185D01*
X828524Y343677D01*
X829678Y342524D01*
X831184Y341900D01*
X832816D01*
X834323Y342524D01*
X835476Y343677D01*
X836100Y345185D01*
Y346815D01*
X835476Y348322D01*
X834323Y349476D01*
X832816Y350100D01*
X832242D01*
X832239Y350102D01*
X832217Y350117D01*
X832169Y350156D01*
X772163Y410163D01*
X771171Y410826D01*
X770000Y411059D01*
X770000Y411059D01*
X753791D01*
X753785Y411059D01*
X753731Y411069D01*
X753728Y411070D01*
X753322Y411476D01*
X751815Y412100D01*
D02*
G37*
G36*
X295816Y517100D02*
X294184D01*
X292677Y516476D01*
X291524Y515322D01*
X290900Y513815D01*
Y512184D01*
X291524Y510677D01*
X292677Y509524D01*
X294184Y508900D01*
X294758D01*
X294761Y508898D01*
X294783Y508883D01*
X294831Y508844D01*
X296941Y506733D01*
Y455267D01*
X274837Y433163D01*
X274174Y432170D01*
X273941Y431000D01*
X273941Y431000D01*
Y320000D01*
X273941Y320000D01*
X274174Y318829D01*
X274837Y317837D01*
X324837Y267837D01*
X324837Y267837D01*
X325830Y267174D01*
X327000Y266941D01*
X371461D01*
X371824Y266579D01*
X371860Y266537D01*
X371889Y266497D01*
X371900Y266479D01*
Y266185D01*
X372524Y264678D01*
X373678Y263524D01*
X375185Y262900D01*
X376816D01*
X378322Y263524D01*
X379476Y264678D01*
X380100Y266185D01*
Y267815D01*
X379476Y269322D01*
X379314Y269484D01*
X379323Y269524D01*
X380476Y270678D01*
X381100Y272184D01*
Y273815D01*
X381029Y273988D01*
X380851Y275583D01*
X382028Y276402D01*
X382323Y276524D01*
X383476Y277677D01*
X384100Y279184D01*
Y280816D01*
X383476Y282322D01*
X382323Y283476D01*
X382314Y283516D01*
X382476Y283678D01*
X383100Y285184D01*
Y286816D01*
X382476Y288323D01*
X381323Y289476D01*
X381314Y289516D01*
X381476Y289678D01*
X382100Y291185D01*
Y292815D01*
X381476Y294322D01*
X380322Y295476D01*
X380794Y297445D01*
X381100Y298185D01*
Y299816D01*
X380476Y301322D01*
X379346Y302500D01*
X380476Y303678D01*
X381100Y305184D01*
Y306815D01*
X380476Y308322D01*
X379323Y309476D01*
X377816Y310100D01*
X376185D01*
X374678Y309476D01*
X373524Y308322D01*
X372900Y306815D01*
Y306242D01*
X372898Y306239D01*
X372883Y306217D01*
X372844Y306169D01*
X363733Y297059D01*
X351498D01*
X350732Y298906D01*
X373767Y321941D01*
X432000D01*
X432000Y321941D01*
X433171Y322174D01*
X434163Y322837D01*
X484189Y372863D01*
X484194Y372867D01*
X484239Y372898D01*
X484242Y372900D01*
X484815D01*
X486322Y373524D01*
X487476Y374678D01*
X488100Y376185D01*
Y377816D01*
X487476Y379323D01*
X486322Y380476D01*
X484815Y381100D01*
X483185D01*
X481678Y380476D01*
X481307Y380105D01*
X480000Y379547D01*
X478693Y380105D01*
X478322Y380476D01*
X476815Y381100D01*
X475184D01*
X473677Y380476D01*
X472524Y379323D01*
X471900Y377816D01*
Y376520D01*
X470346Y375149D01*
X469476Y375322D01*
X468322Y376476D01*
X466816Y377100D01*
X465185D01*
X463678Y376476D01*
X462524Y375322D01*
X461900Y373815D01*
Y373242D01*
X461898Y373239D01*
X461883Y373217D01*
X461844Y373169D01*
X458948Y370274D01*
X456679Y370833D01*
X456476Y371322D01*
X455322Y372476D01*
X453816Y373100D01*
X452184D01*
X450678Y372476D01*
X449524Y371322D01*
X448900Y369815D01*
Y368520D01*
X447346Y367149D01*
X446476Y367323D01*
X445322Y368476D01*
X443815Y369100D01*
X442184D01*
X440678Y368476D01*
X439524Y367323D01*
X438900Y365816D01*
Y365744D01*
X438886Y365723D01*
X438862Y365691D01*
X438837Y365663D01*
X428733Y355559D01*
X338500D01*
X338500Y355559D01*
X337329Y355326D01*
X336337Y354663D01*
X333733Y352059D01*
X312791D01*
X312785Y352060D01*
X312731Y352069D01*
X312728Y352070D01*
X312322Y352476D01*
X311732Y352720D01*
X311116Y354819D01*
X312085Y355941D01*
X326209D01*
X326215Y355941D01*
X326269Y355931D01*
X326272Y355930D01*
X326678Y355524D01*
X328185Y354900D01*
X329815D01*
X331323Y355524D01*
X332476Y356678D01*
X333100Y358185D01*
Y359815D01*
X332476Y361322D01*
X331323Y362476D01*
X329815Y363100D01*
X328185D01*
X326678Y362476D01*
X326272Y362070D01*
X326269Y362069D01*
X326242Y362065D01*
X326181Y362059D01*
X312998D01*
X312232Y363907D01*
X318267Y369941D01*
X325209D01*
X325215Y369940D01*
X325269Y369931D01*
X325272Y369930D01*
X325678Y369524D01*
X327184Y368900D01*
X328815D01*
X330322Y369524D01*
X331476Y370677D01*
X332100Y372184D01*
Y373815D01*
X331476Y375322D01*
X330322Y376476D01*
X328815Y377100D01*
X327184D01*
X325678Y376476D01*
X325272Y376070D01*
X325269Y376069D01*
X325242Y376064D01*
X325181Y376059D01*
X317000D01*
X317000Y376059D01*
X315830Y375826D01*
X314837Y375163D01*
X314837Y375163D01*
X297906Y358232D01*
X296059Y358998D01*
Y386415D01*
X296322Y386524D01*
X297476Y387678D01*
X298100Y389184D01*
Y390816D01*
X297476Y392323D01*
X296322Y393476D01*
X294816Y394100D01*
X293185D01*
X292059Y394852D01*
Y399733D01*
X294189Y401863D01*
X294194Y401867D01*
X294239Y401898D01*
X294242Y401900D01*
X294816D01*
X296322Y402524D01*
X297476Y403678D01*
X298100Y405185D01*
Y406815D01*
X297476Y408322D01*
X296322Y409476D01*
X294816Y410100D01*
X293185D01*
X291677Y409476D01*
X290524Y408322D01*
X290059Y407199D01*
X288059Y407597D01*
Y411733D01*
X294189Y417863D01*
X294194Y417867D01*
X294239Y417898D01*
X294242Y417900D01*
X294816D01*
X296322Y418524D01*
X297476Y419678D01*
X298100Y421185D01*
Y422816D01*
X297476Y424322D01*
X296322Y425476D01*
X294816Y426100D01*
X293185D01*
X291677Y425476D01*
X290524Y424322D01*
X289900Y422816D01*
Y422242D01*
X289898Y422239D01*
X289883Y422217D01*
X289844Y422169D01*
X285907Y418232D01*
X284059Y418998D01*
Y423733D01*
X294189Y433863D01*
X294194Y433867D01*
X294239Y433898D01*
X294242Y433900D01*
X294816D01*
X296322Y434524D01*
X297476Y435677D01*
X298100Y437184D01*
Y438815D01*
X297476Y440322D01*
X296322Y441476D01*
X295126Y441972D01*
X294606Y443178D01*
X294426Y444100D01*
X302163Y451837D01*
X302163Y451837D01*
X302826Y452829D01*
X303059Y454000D01*
Y508000D01*
X302826Y509170D01*
X302163Y510163D01*
X302163Y510163D01*
X299137Y513189D01*
X299133Y513194D01*
X299102Y513239D01*
X299100Y513242D01*
Y513815D01*
X298476Y515322D01*
X297322Y516476D01*
X295816Y517100D01*
D02*
G37*
G36*
X642816Y320100D02*
X641184D01*
X639678Y319476D01*
X638524Y318323D01*
X637900Y316815D01*
Y315184D01*
X638524Y313678D01*
X639678Y312524D01*
X641184Y311900D01*
X642816D01*
X644323Y312524D01*
X645476Y313678D01*
X646100Y315184D01*
Y316815D01*
X645476Y318323D01*
X644323Y319476D01*
X642816Y320100D01*
D02*
G37*
G36*
X630816D02*
X629184D01*
X627678Y319476D01*
X626524Y318323D01*
X625900Y316815D01*
Y315184D01*
X626524Y313678D01*
X627678Y312524D01*
X629184Y311900D01*
X630816D01*
X632323Y312524D01*
X633476Y313678D01*
X634100Y315184D01*
Y316815D01*
X633476Y318323D01*
X632323Y319476D01*
X630816Y320100D01*
D02*
G37*
G36*
X618816D02*
X617184D01*
X615678Y319476D01*
X614524Y318323D01*
X613900Y316815D01*
Y315184D01*
X614524Y313678D01*
X615678Y312524D01*
X617184Y311900D01*
X618816D01*
X620322Y312524D01*
X621476Y313678D01*
X622100Y315184D01*
Y316815D01*
X621476Y318323D01*
X620322Y319476D01*
X618816Y320100D01*
D02*
G37*
G36*
X606816D02*
X605185D01*
X603678Y319476D01*
X602524Y318323D01*
X601900Y316815D01*
Y315184D01*
X602524Y313678D01*
X603678Y312524D01*
X605185Y311900D01*
X606816D01*
X608322Y312524D01*
X609476Y313678D01*
X610100Y315184D01*
Y316815D01*
X609476Y318323D01*
X608322Y319476D01*
X606816Y320100D01*
D02*
G37*
G36*
X843500Y317165D02*
Y310500D01*
X850165D01*
X849853Y311667D01*
X848602Y313833D01*
X846833Y315602D01*
X844667Y316853D01*
X843500Y317165D01*
D02*
G37*
G36*
X758500D02*
X757333Y316853D01*
X755167Y315602D01*
X753398Y313833D01*
X752147Y311667D01*
X751835Y310500D01*
X758500D01*
Y317165D01*
D02*
G37*
G36*
X439816Y318100D02*
X438185D01*
X436678Y317476D01*
X435524Y316322D01*
X434900Y314816D01*
Y313185D01*
X435524Y311678D01*
X436678Y310524D01*
X438185Y309900D01*
X439816D01*
X441323Y310524D01*
X442476Y311678D01*
X443100Y313185D01*
Y314816D01*
X442476Y316322D01*
X441323Y317476D01*
X439816Y318100D01*
D02*
G37*
G36*
X460816Y309100D02*
X459184D01*
X457677Y308476D01*
X456524Y307322D01*
X455900Y305816D01*
Y304184D01*
X456524Y302678D01*
X457677Y301524D01*
X459184Y300900D01*
X460816D01*
X462322Y301524D01*
X463476Y302678D01*
X464100Y304184D01*
Y305816D01*
X463476Y307322D01*
X462322Y308476D01*
X460816Y309100D01*
D02*
G37*
G36*
X622816Y303100D02*
X621185D01*
X619678Y302476D01*
X618524Y301322D01*
X617900Y299816D01*
Y298185D01*
X618524Y296678D01*
X619678Y295524D01*
X621185Y294900D01*
X622816D01*
X624322Y295524D01*
X625476Y296678D01*
X626100Y298185D01*
Y299816D01*
X625476Y301322D01*
X624322Y302476D01*
X622816Y303100D01*
D02*
G37*
G36*
X478816Y297100D02*
X477184D01*
X475678Y296476D01*
X474524Y295322D01*
X473900Y293815D01*
Y292185D01*
X474524Y290678D01*
X475678Y289524D01*
X477184Y288900D01*
X478816D01*
X480322Y289524D01*
X481476Y290678D01*
X482100Y292185D01*
Y293815D01*
X481476Y295322D01*
X480322Y296476D01*
X478816Y297100D01*
D02*
G37*
G36*
X649816Y294100D02*
X648185D01*
X646677Y293476D01*
X645524Y292323D01*
X644900Y290816D01*
Y289184D01*
X645524Y287678D01*
X646677Y286524D01*
X648185Y285900D01*
X649816D01*
X651322Y286524D01*
X652476Y287678D01*
X653100Y289184D01*
Y290816D01*
X652476Y292323D01*
X651322Y293476D01*
X649816Y294100D01*
D02*
G37*
G36*
X520816Y309100D02*
X519184D01*
X517678Y308476D01*
X516524Y307323D01*
X515900Y305816D01*
Y304184D01*
X516085Y303739D01*
X515349Y302789D01*
X514599Y302100D01*
X513184D01*
X511678Y301476D01*
X510524Y300322D01*
X509900Y298815D01*
Y297184D01*
X510524Y295678D01*
X510819Y295383D01*
X510823Y295364D01*
X510830Y295325D01*
X510835Y295266D01*
Y290161D01*
X489733Y269059D01*
X457791D01*
X457785Y269060D01*
X457731Y269069D01*
X457728Y269070D01*
X457323Y269476D01*
X455816Y270100D01*
X454184D01*
X452678Y269476D01*
X451524Y268323D01*
X450900Y266815D01*
Y265184D01*
X451524Y263678D01*
X452678Y262524D01*
X454184Y261900D01*
X455816D01*
X457323Y262524D01*
X457728Y262930D01*
X457731Y262931D01*
X457758Y262936D01*
X457819Y262941D01*
X491000D01*
X491000Y262941D01*
X492170Y263174D01*
X493163Y263837D01*
X513900Y284574D01*
X514822Y284395D01*
X516029Y283874D01*
X516524Y282677D01*
X517459Y281743D01*
X517678Y281524D01*
X518992Y280615D01*
Y279385D01*
X517677Y278476D01*
X517459Y278257D01*
X516524Y277323D01*
X515900Y275816D01*
Y274184D01*
X516524Y272678D01*
X517678Y271524D01*
X519184Y270900D01*
X520816D01*
X522323Y271524D01*
X523476Y272678D01*
X524100Y274184D01*
Y275816D01*
X523476Y277323D01*
X522541Y278257D01*
X522323Y278476D01*
X521008Y279385D01*
Y280615D01*
X522323Y281524D01*
X522541Y281743D01*
X523476Y282677D01*
X524100Y284184D01*
Y285816D01*
X523476Y287322D01*
X522323Y288476D01*
X520816Y289100D01*
X519184D01*
X518953Y289004D01*
X516953Y290340D01*
Y295137D01*
X516953Y295140D01*
X516956Y295158D01*
X517476Y295678D01*
X518100Y297184D01*
Y298815D01*
X517915Y299261D01*
X518651Y300211D01*
X519401Y300900D01*
X520816D01*
X522323Y301524D01*
X523476Y302678D01*
X524100Y304184D01*
Y305816D01*
X523476Y307323D01*
X522323Y308476D01*
X520816Y309100D01*
D02*
G37*
G36*
X653816Y278100D02*
X652184D01*
X650677Y277476D01*
X649524Y276322D01*
X648900Y274816D01*
Y273185D01*
X649524Y271678D01*
X650677Y270524D01*
X652184Y269900D01*
X653816D01*
X655322Y270524D01*
X656476Y271678D01*
X657100Y273185D01*
Y274816D01*
X656476Y276322D01*
X655322Y277476D01*
X653816Y278100D01*
D02*
G37*
G36*
X665816Y258100D02*
X664184D01*
X662678Y257476D01*
X661524Y256322D01*
X660900Y254816D01*
Y253185D01*
X661524Y251678D01*
X662678Y250524D01*
X664184Y249900D01*
X665816D01*
X667322Y250524D01*
X668476Y251678D01*
X669100Y253185D01*
Y254816D01*
X668476Y256322D01*
X667322Y257476D01*
X665816Y258100D01*
D02*
G37*
G36*
X654816D02*
X653184D01*
X651677Y257476D01*
X650524Y256322D01*
X649900Y254816D01*
Y253185D01*
X650524Y251678D01*
X651677Y250524D01*
X653184Y249900D01*
X654816D01*
X656322Y250524D01*
X657476Y251678D01*
X658100Y253185D01*
Y254816D01*
X657476Y256322D01*
X656322Y257476D01*
X654816Y258100D01*
D02*
G37*
G36*
X515816Y262100D02*
X514184D01*
X512677Y261476D01*
X511524Y260322D01*
X510900Y258815D01*
Y257184D01*
X511524Y255678D01*
X512677Y254524D01*
X514184Y253900D01*
X515052D01*
X515838Y253864D01*
X516900Y252184D01*
X517524Y250678D01*
X518678Y249524D01*
X520185Y248900D01*
X521819Y248820D01*
X521900Y247184D01*
X522524Y245678D01*
X523677Y244524D01*
X525184Y243900D01*
X526819Y243820D01*
X526900Y242184D01*
X527524Y240678D01*
X528678Y239524D01*
X530185Y238900D01*
X531815D01*
X533322Y239524D01*
X534476Y240678D01*
X535100Y242185D01*
Y243815D01*
X534476Y245322D01*
X533322Y246476D01*
X531815Y247100D01*
X530181Y247181D01*
X530100Y248816D01*
X529476Y250322D01*
X528322Y251476D01*
X526815Y252100D01*
X525181Y252181D01*
X525100Y253816D01*
X524476Y255322D01*
X523322Y256476D01*
X521815Y257100D01*
X520948D01*
X520162Y257136D01*
X519100Y258816D01*
X518476Y260322D01*
X517322Y261476D01*
X515816Y262100D01*
D02*
G37*
G36*
X891477Y265000D02*
X888523D01*
X885625Y264424D01*
X882895Y263293D01*
X880438Y261651D01*
X878349Y259562D01*
X876707Y257105D01*
X875576Y254375D01*
X875000Y251477D01*
Y248523D01*
X875576Y245625D01*
X876707Y242895D01*
X878349Y240438D01*
X880438Y238349D01*
X882895Y236707D01*
X885625Y235576D01*
X888523Y235000D01*
X891477D01*
X894375Y235576D01*
X897105Y236707D01*
X899562Y238349D01*
X901651Y240438D01*
X903293Y242895D01*
X904424Y245625D01*
X905000Y248523D01*
Y251477D01*
X904424Y254375D01*
X903293Y257105D01*
X901651Y259562D01*
X899562Y261651D01*
X897105Y263293D01*
X894375Y264424D01*
X891477Y265000D01*
D02*
G37*
G36*
X321477Y255000D02*
X318523D01*
X315625Y254424D01*
X312895Y253293D01*
X310438Y251651D01*
X308349Y249562D01*
X306707Y247105D01*
X305576Y244375D01*
X305000Y241477D01*
Y238523D01*
X305576Y235625D01*
X306707Y232895D01*
X308349Y230438D01*
X310438Y228349D01*
X312895Y226707D01*
X315625Y225576D01*
X318523Y225000D01*
X321477D01*
X324375Y225576D01*
X327105Y226707D01*
X329562Y228349D01*
X331651Y230438D01*
X333293Y232895D01*
X334423Y235625D01*
X335000Y238523D01*
Y241477D01*
X334423Y244375D01*
X333293Y247105D01*
X331651Y249562D01*
X329562Y251651D01*
X327105Y253293D01*
X324375Y254424D01*
X321477Y255000D01*
D02*
G37*
%LPD*%
G36*
X295599Y686381D02*
X295711Y686301D01*
X295838Y686230D01*
X295978Y686169D01*
X296132Y686117D01*
X296299Y686075D01*
X296481Y686042D01*
X296675Y686019D01*
X296884Y686005D01*
X297107Y686000D01*
Y684000D01*
X296884Y683995D01*
X296481Y683958D01*
X296299Y683925D01*
X296132Y683883D01*
X295978Y683831D01*
X295838Y683770D01*
X295711Y683699D01*
X295599Y683619D01*
X295500Y683530D01*
Y686470D01*
X295599Y686381D01*
D02*
G37*
G36*
Y671381D02*
X295711Y671301D01*
X295838Y671230D01*
X295978Y671169D01*
X296132Y671117D01*
X296299Y671075D01*
X296481Y671042D01*
X296675Y671019D01*
X296884Y671005D01*
X297107Y671000D01*
Y669000D01*
X296884Y668995D01*
X296481Y668958D01*
X296299Y668925D01*
X296132Y668883D01*
X295978Y668831D01*
X295838Y668770D01*
X295711Y668699D01*
X295599Y668619D01*
X295500Y668530D01*
Y671470D01*
X295599Y671381D01*
D02*
G37*
G36*
Y655381D02*
X295711Y655301D01*
X295838Y655230D01*
X295978Y655169D01*
X296132Y655117D01*
X296299Y655075D01*
X296481Y655042D01*
X296675Y655019D01*
X296884Y655005D01*
X297107Y655000D01*
Y653000D01*
X296884Y652995D01*
X296481Y652958D01*
X296299Y652925D01*
X296132Y652883D01*
X295978Y652831D01*
X295838Y652770D01*
X295711Y652699D01*
X295599Y652619D01*
X295500Y652530D01*
Y655470D01*
X295599Y655381D01*
D02*
G37*
G36*
X325107Y643846D02*
X325130Y643710D01*
X325169Y643570D01*
X325225Y643428D01*
X325298Y643283D01*
X325386Y643134D01*
X325491Y642983D01*
X325612Y642829D01*
X325750Y642671D01*
X325904Y642510D01*
X324490Y641096D01*
X324329Y641250D01*
X324017Y641509D01*
X323866Y641614D01*
X323717Y641702D01*
X323572Y641775D01*
X323430Y641831D01*
X323290Y641870D01*
X323154Y641893D01*
X323021Y641900D01*
X325100Y643979D01*
X325107Y643846D01*
D02*
G37*
G36*
X296107Y636846D02*
X296130Y636710D01*
X296169Y636570D01*
X296225Y636428D01*
X296298Y636283D01*
X296386Y636134D01*
X296491Y635983D01*
X296612Y635829D01*
X296750Y635671D01*
X296904Y635510D01*
X295490Y634096D01*
X295329Y634250D01*
X295017Y634509D01*
X294866Y634614D01*
X294717Y634702D01*
X294572Y634775D01*
X294430Y634831D01*
X294290Y634870D01*
X294154Y634893D01*
X294021Y634900D01*
X296100Y636979D01*
X296107Y636846D01*
D02*
G37*
G36*
X399671Y636750D02*
X399983Y636491D01*
X400134Y636386D01*
X400283Y636298D01*
X400428Y636225D01*
X400570Y636170D01*
X400710Y636130D01*
X400846Y636107D01*
X400979Y636100D01*
X398900Y634021D01*
X398893Y634154D01*
X398870Y634290D01*
X398830Y634430D01*
X398775Y634572D01*
X398702Y634717D01*
X398614Y634866D01*
X398509Y635017D01*
X398388Y635172D01*
X398250Y635329D01*
X398096Y635490D01*
X399510Y636904D01*
X399671Y636750D01*
D02*
G37*
G36*
X394581Y632563D02*
X395185Y632032D01*
X395240Y632000D01*
X395282Y631984D01*
X395311Y631984D01*
X393924Y630317D01*
X393917Y630338D01*
X393892Y630375D01*
X393849Y630429D01*
X393709Y630587D01*
X393044Y631271D01*
X394436Y632707D01*
X394581Y632563D01*
D02*
G37*
G36*
X389500Y625530D02*
X389401Y625619D01*
X389289Y625699D01*
X389162Y625770D01*
X389022Y625831D01*
X388868Y625882D01*
X388701Y625925D01*
X388519Y625958D01*
X388325Y625981D01*
X388116Y625995D01*
X387893Y626000D01*
Y628000D01*
X388116Y628005D01*
X388519Y628042D01*
X388701Y628075D01*
X388868Y628117D01*
X389022Y628169D01*
X389162Y628230D01*
X389289Y628301D01*
X389401Y628381D01*
X389500Y628470D01*
Y625530D01*
D02*
G37*
G36*
X494500Y620530D02*
X494401Y620619D01*
X494289Y620699D01*
X494162Y620770D01*
X494022Y620831D01*
X493868Y620882D01*
X493701Y620925D01*
X493519Y620958D01*
X493325Y620981D01*
X493116Y620995D01*
X492893Y621000D01*
Y623000D01*
X493116Y623005D01*
X493519Y623042D01*
X493701Y623075D01*
X493868Y623117D01*
X494022Y623169D01*
X494162Y623230D01*
X494289Y623301D01*
X494401Y623381D01*
X494500Y623470D01*
Y620530D01*
D02*
G37*
G36*
X499500Y615530D02*
X499401Y615619D01*
X499289Y615699D01*
X499162Y615770D01*
X499022Y615831D01*
X498868Y615882D01*
X498701Y615925D01*
X498519Y615958D01*
X498325Y615981D01*
X498116Y615995D01*
X497893Y616000D01*
Y618000D01*
X498116Y618005D01*
X498519Y618042D01*
X498701Y618075D01*
X498868Y618117D01*
X499022Y618169D01*
X499162Y618230D01*
X499289Y618301D01*
X499401Y618381D01*
X499500Y618470D01*
Y615530D01*
D02*
G37*
G36*
X503500Y610530D02*
X503401Y610619D01*
X503289Y610699D01*
X503162Y610770D01*
X503022Y610831D01*
X502868Y610882D01*
X502701Y610925D01*
X502519Y610958D01*
X502324Y610981D01*
X502116Y610995D01*
X501893Y611000D01*
Y613000D01*
X502116Y613005D01*
X502519Y613042D01*
X502701Y613075D01*
X502868Y613117D01*
X503022Y613169D01*
X503162Y613230D01*
X503289Y613301D01*
X503401Y613381D01*
X503500Y613470D01*
Y610530D01*
D02*
G37*
G36*
X335904Y597490D02*
X335750Y597329D01*
X335491Y597017D01*
X335386Y596866D01*
X335298Y596717D01*
X335225Y596572D01*
X335169Y596430D01*
X335130Y596290D01*
X335107Y596154D01*
X335100Y596021D01*
X333021Y598100D01*
X333154Y598107D01*
X333290Y598130D01*
X333430Y598170D01*
X333572Y598225D01*
X333717Y598298D01*
X333866Y598386D01*
X334017Y598491D01*
X334171Y598612D01*
X334329Y598750D01*
X334490Y598904D01*
X335904Y597490D01*
D02*
G37*
G36*
X712107Y579846D02*
X712130Y579710D01*
X712169Y579570D01*
X712225Y579428D01*
X712298Y579283D01*
X712386Y579134D01*
X712491Y578983D01*
X712612Y578829D01*
X712750Y578671D01*
X712904Y578510D01*
X711490Y577096D01*
X711329Y577250D01*
X711017Y577509D01*
X710866Y577614D01*
X710717Y577702D01*
X710572Y577775D01*
X710430Y577831D01*
X710290Y577870D01*
X710154Y577893D01*
X710021Y577900D01*
X712100Y579979D01*
X712107Y579846D01*
D02*
G37*
G36*
X750171Y541250D02*
X750483Y540991D01*
X750634Y540886D01*
X750783Y540798D01*
X750928Y540725D01*
X751070Y540670D01*
X751210Y540630D01*
X751346Y540607D01*
X751479Y540600D01*
X749400Y538521D01*
X749393Y538654D01*
X749370Y538790D01*
X749331Y538930D01*
X749275Y539072D01*
X749202Y539217D01*
X749114Y539366D01*
X749009Y539517D01*
X748888Y539672D01*
X748750Y539829D01*
X748596Y539990D01*
X750010Y541404D01*
X750171Y541250D01*
D02*
G37*
G36*
X523906Y493906D02*
X523778Y493889D01*
X523646Y493856D01*
X523510Y493809D01*
X523371Y493746D01*
X523228Y493668D01*
X523082Y493574D01*
X522932Y493465D01*
X522622Y493202D01*
X522461Y493047D01*
X520911Y494325D01*
X521064Y494486D01*
X521319Y494799D01*
X521420Y494951D01*
X521504Y495100D01*
X521570Y495246D01*
X521618Y495390D01*
X521650Y495530D01*
X521663Y495668D01*
X521659Y495802D01*
X523906Y493906D01*
D02*
G37*
G36*
X487833Y491662D02*
X487858Y491625D01*
X487901Y491571D01*
X488041Y491413D01*
X488706Y490729D01*
X487314Y489293D01*
X487169Y489437D01*
X486565Y489968D01*
X486510Y490000D01*
X486468Y490016D01*
X486439Y490016D01*
X487826Y491683D01*
X487833Y491662D01*
D02*
G37*
G36*
X624000Y675500D02*
Y645500D01*
X619000Y640500D01*
X604000D01*
Y640500D01*
X599000Y645500D01*
Y676500D01*
X603000Y680500D01*
X619000D01*
X624000Y675500D01*
D02*
G37*
G36*
X735000Y675000D02*
Y645000D01*
X730000Y640000D01*
X715000D01*
Y640000D01*
X710000Y645000D01*
Y676000D01*
X714000Y680000D01*
X730000D01*
X735000Y675000D01*
D02*
G37*
G36*
X659500Y578530D02*
X659401Y578619D01*
X659289Y578699D01*
X659162Y578770D01*
X659022Y578831D01*
X658868Y578882D01*
X658701Y578925D01*
X658519Y578958D01*
X658325Y578981D01*
X658116Y578995D01*
X657893Y579000D01*
Y581000D01*
X658116Y581005D01*
X658519Y581042D01*
X658701Y581075D01*
X658868Y581118D01*
X659022Y581169D01*
X659162Y581230D01*
X659289Y581301D01*
X659401Y581381D01*
X659500Y581470D01*
Y578530D01*
D02*
G37*
G36*
X463500Y563530D02*
X463334Y563690D01*
X463165Y563834D01*
X462994Y563961D01*
X462820Y564071D01*
X462645Y564164D01*
X462467Y564240D01*
X462287Y564299D01*
X462106Y564341D01*
X461922Y564366D01*
X461735Y564375D01*
Y565625D01*
X461922Y565633D01*
X462106Y565659D01*
X462287Y565701D01*
X462467Y565760D01*
X462645Y565836D01*
X462820Y565929D01*
X462994Y566039D01*
X463165Y566166D01*
X463334Y566309D01*
X463500Y566470D01*
Y563530D01*
D02*
G37*
G36*
X454666Y566309D02*
X454835Y566166D01*
X455006Y566039D01*
X455180Y565929D01*
X455355Y565836D01*
X455533Y565760D01*
X455713Y565701D01*
X455894Y565659D01*
X456078Y565633D01*
X456265Y565625D01*
Y564375D01*
X456078Y564366D01*
X455894Y564341D01*
X455713Y564299D01*
X455533Y564240D01*
X455355Y564164D01*
X455180Y564071D01*
X455006Y563961D01*
X454835Y563834D01*
X454666Y563690D01*
X454500Y563530D01*
Y566470D01*
X454666Y566309D01*
D02*
G37*
G36*
X449666Y561309D02*
X449835Y561166D01*
X450006Y561039D01*
X450180Y560929D01*
X450355Y560836D01*
X450533Y560760D01*
X450713Y560701D01*
X450894Y560659D01*
X451078Y560633D01*
X451265Y560625D01*
Y559375D01*
X451078Y559366D01*
X450894Y559341D01*
X450713Y559299D01*
X450533Y559240D01*
X450355Y559164D01*
X450180Y559071D01*
X450006Y558961D01*
X449835Y558834D01*
X449666Y558691D01*
X449500Y558530D01*
Y561470D01*
X449666Y561309D01*
D02*
G37*
G36*
X614058Y556947D02*
X613926Y556965D01*
X613791Y556965D01*
X613652Y556945D01*
X613511Y556906D01*
X613366Y556848D01*
X613217Y556771D01*
X613065Y556675D01*
X612911Y556560D01*
X612752Y556426D01*
X612591Y556272D01*
X611511Y558020D01*
X611668Y558182D01*
X612052Y558634D01*
X612152Y558775D01*
X612238Y558910D01*
X612309Y559040D01*
X612366Y559165D01*
X612410Y559286D01*
X612439Y559400D01*
X614058Y556947D01*
D02*
G37*
G36*
X463271Y558625D02*
X463419Y558512D01*
X463578Y558414D01*
X463747Y558328D01*
X463926Y558257D01*
X464116Y558198D01*
X464316Y558153D01*
X464527Y558122D01*
X464748Y558104D01*
X464979Y558100D01*
X462900Y556021D01*
X462896Y556252D01*
X462878Y556473D01*
X462846Y556684D01*
X462802Y556884D01*
X462743Y557074D01*
X462672Y557253D01*
X462586Y557422D01*
X462487Y557581D01*
X462375Y557729D01*
X462249Y557867D01*
X463133Y558750D01*
X463271Y558625D01*
D02*
G37*
G36*
X440667Y555309D02*
X440835Y555166D01*
X441006Y555039D01*
X441180Y554929D01*
X441355Y554836D01*
X441533Y554760D01*
X441712Y554701D01*
X441894Y554659D01*
X442079Y554633D01*
X442265Y554625D01*
Y553375D01*
X442079Y553367D01*
X441894Y553341D01*
X441712Y553299D01*
X441533Y553240D01*
X441355Y553164D01*
X441180Y553071D01*
X441006Y552961D01*
X440835Y552834D01*
X440667Y552691D01*
X440500Y552530D01*
Y555470D01*
X440667Y555309D01*
D02*
G37*
G36*
X463271Y551625D02*
X463419Y551512D01*
X463578Y551414D01*
X463747Y551328D01*
X463926Y551257D01*
X464116Y551198D01*
X464316Y551153D01*
X464527Y551122D01*
X464748Y551104D01*
X464979Y551100D01*
X462900Y549021D01*
X462896Y549252D01*
X462878Y549473D01*
X462846Y549684D01*
X462802Y549884D01*
X462743Y550074D01*
X462672Y550253D01*
X462586Y550422D01*
X462487Y550581D01*
X462375Y550729D01*
X462249Y550867D01*
X463133Y551750D01*
X463271Y551625D01*
D02*
G37*
G36*
X641755Y516450D02*
X642130Y510050D01*
X642219Y509969D01*
X633280D01*
X633370Y510050D01*
X633450Y510289D01*
X633520Y510690D01*
X633581Y511250D01*
X633708Y513890D01*
X633750Y517970D01*
X641750D01*
X641755Y516450D01*
D02*
G37*
G36*
X550548Y499134D02*
X550390Y498969D01*
X550144Y498668D01*
X550057Y498532D01*
X549994Y498407D01*
X549954Y498291D01*
X549938Y498185D01*
X549945Y498089D01*
X549977Y498003D01*
X550032Y497927D01*
X547303Y498216D01*
X548772Y500187D01*
X550548Y499134D01*
D02*
G37*
G36*
X627265Y500830D02*
X627330Y500031D01*
X628719D01*
X628440Y499971D01*
X628190Y499790D01*
X627970Y499491D01*
X627779Y499071D01*
X627617Y498531D01*
X627511Y498000D01*
X627617Y497469D01*
X627779Y496930D01*
X627970Y496510D01*
X628190Y496209D01*
X628440Y496030D01*
X628719Y495970D01*
X627314D01*
X627265Y495171D01*
X627250Y494030D01*
X621250D01*
X621235Y495171D01*
X621170Y495970D01*
X619781D01*
X620060Y496030D01*
X620309Y496209D01*
X620530Y496510D01*
X620721Y496930D01*
X620883Y497469D01*
X620989Y498000D01*
X620883Y498531D01*
X620721Y499071D01*
X620530Y499491D01*
X620309Y499790D01*
X620060Y499971D01*
X619781Y500031D01*
X621186D01*
X621235Y500830D01*
X621250Y501969D01*
X627250D01*
X627265Y500830D01*
D02*
G37*
G36*
X626281Y486021D02*
X625968Y485904D01*
X625691Y485709D01*
X625452Y485438D01*
X625249Y485089D01*
X625084Y484663D01*
X624955Y484160D01*
X624863Y483580D01*
X624807Y482923D01*
X624789Y482189D01*
X620789D01*
X620779Y482919D01*
X620628Y484647D01*
X620537Y485070D01*
X620426Y485416D01*
X620295Y485685D01*
X620144Y485877D01*
X619972Y485992D01*
X619781Y486031D01*
X626631Y486061D01*
X626281Y486021D01*
D02*
G37*
G36*
X623839Y479837D02*
X623950Y478355D01*
X624016Y477993D01*
X624098Y477696D01*
X624193Y477466D01*
X624304Y477301D01*
X624429Y477202D01*
X624570Y477169D01*
X618630D01*
X618859Y477202D01*
X619063Y477301D01*
X619243Y477466D01*
X619399Y477696D01*
X619532Y477993D01*
X619640Y478355D01*
X619724Y478783D01*
X619784Y479277D01*
X619820Y479837D01*
X619832Y480463D01*
X623832D01*
X623839Y479837D01*
D02*
G37*
G36*
X647154Y468279D02*
Y424921D01*
X638248Y416015D01*
X636400Y416781D01*
Y421800D01*
Y425500D01*
X631400D01*
Y428500D01*
X636400D01*
Y432200D01*
X636772Y432531D01*
X635010D01*
X634995Y433106D01*
X634950Y433621D01*
X634875Y434076D01*
X634770Y434470D01*
X634635Y434803D01*
X634470Y435076D01*
X634275Y435288D01*
X634050Y435440D01*
X633795Y435531D01*
X633510Y435561D01*
X639510D01*
X639225Y435531D01*
X638970Y435440D01*
X638745Y435288D01*
X638550Y435076D01*
X638385Y434803D01*
X638250Y434470D01*
X638145Y434076D01*
X638070Y433621D01*
X638059Y433500D01*
X643500D01*
Y438955D01*
X643390Y438945D01*
X642940Y438870D01*
X642550Y438765D01*
X642219Y438630D01*
X641949Y438465D01*
X641740Y438270D01*
X641590Y438045D01*
X641499Y437790D01*
X641469Y437505D01*
Y439000D01*
X637000D01*
Y442000D01*
X641469D01*
Y443505D01*
X641499Y443220D01*
X641590Y442965D01*
X641740Y442740D01*
X641949Y442545D01*
X642219Y442380D01*
X642550Y442245D01*
X642940Y442140D01*
X643390Y442065D01*
X643500Y442055D01*
Y447500D01*
X638004D01*
X638008Y447311D01*
X638070Y446571D01*
X638125Y446271D01*
X638195Y446017D01*
X638281Y445809D01*
X638382Y445647D01*
X638499Y445531D01*
X638632Y445462D01*
X638781Y445439D01*
X634219D01*
X634368Y445462D01*
X634500Y445531D01*
X634618Y445647D01*
X634719Y445809D01*
X634805Y446017D01*
X634875Y446271D01*
X634930Y446571D01*
X634969Y446918D01*
X634992Y447311D01*
X635000Y447750D01*
X637580D01*
X636400Y448800D01*
Y452500D01*
X631400D01*
Y455500D01*
X636400D01*
Y458800D01*
Y462500D01*
X634434D01*
X634389Y462446D01*
X634370Y462369D01*
Y462500D01*
X631400D01*
Y465500D01*
X634370D01*
Y466171D01*
X634389Y466095D01*
X634445Y466027D01*
X634541Y465967D01*
X634674Y465915D01*
X634845Y465871D01*
X635054Y465835D01*
X635301Y465807D01*
X635909Y465774D01*
X636270Y465770D01*
Y465500D01*
X636400D01*
Y469200D01*
X635400D01*
Y471212D01*
X634094Y471133D01*
X633833Y471089D01*
X633630Y471036D01*
X633485Y470976D01*
X633399Y470907D01*
X633369Y470830D01*
Y472500D01*
X630400D01*
Y475500D01*
X633369D01*
Y475630D01*
X633384Y475500D01*
X635856D01*
X636537Y476385D01*
X639048D01*
X647154Y468279D01*
D02*
G37*
G36*
X282921Y473750D02*
X283233Y473491D01*
X283384Y473386D01*
X283533Y473298D01*
X283678Y473225D01*
X283820Y473170D01*
X283960Y473130D01*
X284096Y473107D01*
X284229Y473100D01*
X282150Y471021D01*
X282143Y471154D01*
X282120Y471290D01*
X282080Y471430D01*
X282025Y471572D01*
X281952Y471717D01*
X281864Y471866D01*
X281759Y472017D01*
X281638Y472172D01*
X281500Y472329D01*
X281346Y472490D01*
X282760Y473904D01*
X282921Y473750D01*
D02*
G37*
G36*
X623380Y470861D02*
X623120Y471065D01*
X622807Y471168D01*
X622442Y471170D01*
X622025Y471071D01*
X621557Y470871D01*
X621035Y470569D01*
X620462Y470168D01*
X619837Y469664D01*
X618430Y468356D01*
X616156Y471031D01*
X616843Y471742D01*
X617926Y473021D01*
X618322Y473588D01*
X618621Y474107D01*
X618823Y474578D01*
X618928Y475000D01*
X618936Y475375D01*
X618847Y475702D01*
X618661Y475980D01*
X623380Y470861D01*
D02*
G37*
G36*
X550290Y473801D02*
X550041Y473711D01*
X549820Y473560D01*
X549629Y473350D01*
X549467Y473080D01*
X549335Y472751D01*
X549232Y472360D01*
X549173Y472000D01*
X549232Y471640D01*
X549335Y471250D01*
X549467Y470919D01*
X549629Y470649D01*
X549820Y470439D01*
X550041Y470289D01*
X550290Y470200D01*
X550569Y470169D01*
X544631D01*
X544910Y470200D01*
X545159Y470289D01*
X545380Y470439D01*
X545571Y470649D01*
X545733Y470919D01*
X545865Y471250D01*
X545968Y471640D01*
X546027Y472000D01*
X545968Y472360D01*
X545865Y472751D01*
X545733Y473080D01*
X545571Y473350D01*
X545380Y473560D01*
X545159Y473711D01*
X544910Y473801D01*
X544631Y473830D01*
X550569D01*
X550290Y473801D01*
D02*
G37*
G36*
X594800Y492200D02*
Y486400D01*
X595600D01*
X597000Y485000D01*
X615000D01*
X616000Y484000D01*
Y473902D01*
X615474Y473281D01*
X612193Y470000D01*
X604000D01*
X601000Y473000D01*
Y475000D01*
X598000Y478000D01*
X577000D01*
X576000Y477000D01*
Y472000D01*
X575000Y471000D01*
X574033Y470033D01*
X574000Y470039D01*
X574000D01*
D01*
X563961D01*
X562813Y471186D01*
X562439Y472090D01*
Y472910D01*
X562884Y473984D01*
X562884Y473984D01*
X563008Y474609D01*
X563039Y474764D01*
Y474764D01*
D01*
Y486000D01*
X581000D01*
X582000Y487000D01*
Y487400D01*
X582200D01*
Y492200D01*
X583000Y493000D01*
X594000D01*
X594800Y492200D01*
D02*
G37*
G36*
X561000Y488000D02*
Y474764D01*
X560400Y473316D01*
Y471684D01*
X561000Y470236D01*
Y470000D01*
X563000Y468000D01*
X574000D01*
X575000Y467000D01*
Y463000D01*
X574000Y462000D01*
X560400D01*
Y462200D01*
X553800D01*
X553000Y463000D01*
Y489000D01*
X555000Y491000D01*
X558000D01*
X561000Y488000D01*
D02*
G37*
G36*
X549715Y463829D02*
X549460Y463737D01*
X549235Y463585D01*
X549040Y463372D01*
X548875Y463099D01*
X548740Y462766D01*
X548635Y462373D01*
X548567Y461964D01*
X548596Y461640D01*
X548671Y461250D01*
X548767Y460919D01*
X548885Y460649D01*
X549024Y460439D01*
X549184Y460289D01*
X549366Y460200D01*
X549570Y460169D01*
X544000Y460139D01*
X544285Y460171D01*
X544540Y460263D01*
X544765Y460415D01*
X544960Y460628D01*
X545125Y460901D01*
X545260Y461234D01*
X545365Y461627D01*
X545440Y462081D01*
X545441Y462094D01*
X545422Y462360D01*
X545361Y462751D01*
X545283Y463080D01*
X545187Y463350D01*
X545074Y463560D01*
X544944Y463711D01*
X544796Y463801D01*
X544631Y463830D01*
X550000Y463861D01*
X549715Y463829D01*
D02*
G37*
G36*
X544138Y453862D02*
X544170Y453861D01*
X547491D01*
X547565Y453842D01*
X547591Y453784D01*
X547569Y453688D01*
X547498Y453554D01*
X547379Y453381D01*
X547212Y453169D01*
X546733Y452631D01*
X546514Y452406D01*
X546579Y451294D01*
X546608Y451152D01*
X546641Y451051D01*
X546678Y450990D01*
X546720Y450970D01*
X542970Y450939D01*
X543070Y450960D01*
X543161Y451023D01*
X543240Y451126D01*
X543309Y451271D01*
X543367Y451456D01*
X543415Y451683D01*
X543452Y451951D01*
X543495Y452609D01*
X543500Y453000D01*
X545000D01*
X544138Y453862D01*
X544090Y453863D01*
X544023Y453869D01*
X543968Y453879D01*
X543926Y453893D01*
X543897Y453911D01*
X543880Y453933D01*
X543876Y453959D01*
X543885Y453989D01*
X543906Y454023D01*
X543939Y454061D01*
X544138Y453862D01*
D02*
G37*
G36*
X546720Y441031D02*
X546678Y441001D01*
X546641Y440910D01*
X546608Y440760D01*
X546579Y440550D01*
X546535Y439950D01*
X546526Y439467D01*
X546560Y439082D01*
X546635Y438628D01*
X546740Y438235D01*
X546875Y437902D01*
X547040Y437629D01*
X547235Y437416D01*
X547460Y437264D01*
X547715Y437171D01*
X548000Y437139D01*
X543630Y437169D01*
X543593Y438031D01*
X543500D01*
X543485Y438605D01*
X543440Y439118D01*
X543365Y439572D01*
X543260Y439965D01*
X543125Y440299D01*
X542960Y440571D01*
X542765Y440784D01*
X542540Y440937D01*
X542285Y441029D01*
X542000Y441061D01*
X546720Y441031D01*
D02*
G37*
G36*
X598961Y474155D02*
Y473000D01*
X599116Y472220D01*
X599558Y471558D01*
X602558Y468558D01*
X602558Y468558D01*
X603220Y468116D01*
X604000Y467961D01*
X607409D01*
X607496Y467904D01*
X608468Y465963D01*
X608177Y464500D01*
X608468Y463037D01*
X609013Y462220D01*
X609029Y462182D01*
X609209Y461319D01*
X608933Y459817D01*
X607558Y458442D01*
X607116Y457780D01*
X606961Y457000D01*
Y431633D01*
X606375Y431133D01*
X604961Y430367D01*
X604600Y430439D01*
X604090D01*
X603016Y430884D01*
X603016Y430884D01*
X602236Y431039D01*
X598764D01*
X597984Y430884D01*
X597984Y430884D01*
X596910Y430439D01*
X596090D01*
X595333Y430753D01*
X594753Y431333D01*
X594439Y432090D01*
Y432900D01*
X594284Y433680D01*
X593842Y434342D01*
X593180Y434784D01*
X592400Y434939D01*
X584600D01*
X583820Y434784D01*
X583158Y434342D01*
X582716Y433680D01*
X582561Y432900D01*
Y432090D01*
X582247Y431333D01*
X581667Y430753D01*
X580910Y430439D01*
X580090D01*
X579557Y430660D01*
X578776Y430815D01*
X577996Y430660D01*
X577334Y430218D01*
X575558Y428442D01*
X574822Y427976D01*
X573316Y428600D01*
X571684D01*
X570177Y427976D01*
X568629Y429255D01*
X568442Y429442D01*
X567780Y429884D01*
X567000Y430039D01*
X562845D01*
X562039Y430845D01*
Y434155D01*
X562845Y434961D01*
X574000D01*
X574000Y434961D01*
X574780Y435116D01*
X575442Y435558D01*
X575442Y435558D01*
X576442Y436558D01*
X576884Y437220D01*
X577039Y438000D01*
Y443000D01*
X576884Y443780D01*
X576600Y444205D01*
Y451716D01*
X577442Y452558D01*
X577884Y453220D01*
X578039Y454000D01*
Y459000D01*
X578039Y459000D01*
X577884Y459780D01*
X577442Y460442D01*
X576442Y461558D01*
X576884Y462220D01*
X577039Y463000D01*
Y467000D01*
X577039Y467000D01*
X576884Y467780D01*
X576442Y468442D01*
X577082Y470199D01*
X577442Y470558D01*
X577884Y471220D01*
X578039Y472000D01*
Y475961D01*
X597155D01*
X598961Y474155D01*
D02*
G37*
G36*
X592400Y431684D02*
X593024Y430177D01*
X594178Y429024D01*
X595684Y428400D01*
X597315D01*
X598764Y429000D01*
X602236D01*
X603684Y428400D01*
X604600D01*
X606961Y426039D01*
Y425000D01*
X607116Y424220D01*
X607558Y423558D01*
X607558Y423558D01*
X611638Y419478D01*
X612300Y419036D01*
X613080Y418881D01*
X614119D01*
X616000Y417000D01*
Y412120D01*
X609171D01*
Y412120D01*
X607901Y412099D01*
X607000Y413000D01*
Y418000D01*
X605000Y420000D01*
X598764D01*
X597315Y420600D01*
X595684D01*
X594178Y419976D01*
X593024Y418823D01*
X592400Y417315D01*
Y415685D01*
X592009Y415100D01*
X587995D01*
X587843Y415130D01*
X587237Y415737D01*
X586079Y416510D01*
X585402Y416645D01*
X584507Y417539D01*
X583976Y418823D01*
X582822Y419976D01*
X581316Y420600D01*
X579684D01*
X578178Y419976D01*
X577000Y420594D01*
Y427000D01*
X577000D01*
X578776Y428776D01*
X579684Y428400D01*
X581316D01*
X582822Y429024D01*
X583976Y430177D01*
X584600Y431684D01*
Y432900D01*
X592400D01*
Y431684D01*
D02*
G37*
G36*
X549290Y430801D02*
X549040Y430710D01*
X548820Y430560D01*
X548629Y430350D01*
X548467Y430080D01*
X548335Y429751D01*
X548232Y429361D01*
X548159Y428910D01*
X548123Y428500D01*
X548159Y428089D01*
X548232Y427640D01*
X548335Y427249D01*
X548467Y426920D01*
X548629Y426650D01*
X548820Y426440D01*
X549040Y426289D01*
X549290Y426199D01*
X549570Y426170D01*
X543630D01*
X543910Y426199D01*
X544160Y426289D01*
X544380Y426440D01*
X544571Y426650D01*
X544733Y426920D01*
X544865Y427249D01*
X544968Y427640D01*
X545041Y428089D01*
X545077Y428500D01*
X545041Y428910D01*
X544968Y429361D01*
X544865Y429751D01*
X544733Y430080D01*
X544571Y430350D01*
X544380Y430560D01*
X544160Y430710D01*
X543910Y430801D01*
X543630Y430830D01*
X549570D01*
X549290Y430801D01*
D02*
G37*
G36*
X634090Y423801D02*
X633840Y423711D01*
X633620Y423560D01*
X633429Y423350D01*
X633267Y423080D01*
X633135Y422751D01*
X633032Y422360D01*
X632973Y422000D01*
X633032Y421640D01*
X633135Y421250D01*
X633267Y420919D01*
X633429Y420649D01*
X633620Y420439D01*
X633840Y420289D01*
X634090Y420200D01*
X634370Y420169D01*
X628430D01*
X628710Y420200D01*
X628960Y420289D01*
X629180Y420439D01*
X629371Y420649D01*
X629533Y420919D01*
X629665Y421250D01*
X629768Y421640D01*
X629827Y422000D01*
X629768Y422360D01*
X629665Y422751D01*
X629533Y423080D01*
X629371Y423350D01*
X629180Y423560D01*
X628960Y423711D01*
X628710Y423801D01*
X628430Y423830D01*
X634370D01*
X634090Y423801D01*
D02*
G37*
G36*
X659833Y419162D02*
X659858Y419125D01*
X659901Y419071D01*
X660041Y418913D01*
X660706Y418229D01*
X659314Y416793D01*
X659168Y416937D01*
X658565Y417468D01*
X658510Y417500D01*
X658468Y417516D01*
X658439Y417516D01*
X659826Y419183D01*
X659833Y419162D01*
D02*
G37*
G36*
X549290Y419800D02*
X549040Y419711D01*
X548820Y419561D01*
X548629Y419351D01*
X548467Y419081D01*
X548335Y418750D01*
X548232Y418360D01*
X548173Y418000D01*
X548232Y417640D01*
X548335Y417249D01*
X548467Y416920D01*
X548629Y416650D01*
X548820Y416440D01*
X549040Y416289D01*
X549290Y416199D01*
X549570Y416170D01*
X543630D01*
X543910Y416199D01*
X544160Y416289D01*
X544380Y416440D01*
X544571Y416650D01*
X544733Y416920D01*
X544865Y417249D01*
X544968Y417640D01*
X545027Y418000D01*
X544968Y418360D01*
X544865Y418750D01*
X544733Y419081D01*
X544571Y419351D01*
X544380Y419561D01*
X544160Y419711D01*
X543910Y419800D01*
X543630Y419831D01*
X549570D01*
X549290Y419800D01*
D02*
G37*
G36*
X670750Y416030D02*
X670651Y416119D01*
X670539Y416199D01*
X670412Y416270D01*
X670272Y416331D01*
X670118Y416382D01*
X669951Y416425D01*
X669769Y416458D01*
X669575Y416481D01*
X669366Y416495D01*
X669143Y416500D01*
Y418500D01*
X669366Y418505D01*
X669769Y418542D01*
X669951Y418575D01*
X670118Y418618D01*
X670272Y418669D01*
X670412Y418730D01*
X670539Y418801D01*
X670651Y418881D01*
X670750Y418970D01*
Y416030D01*
D02*
G37*
G36*
X634389Y418554D02*
X634445Y418486D01*
X634541Y418426D01*
X634674Y418374D01*
X634845Y418330D01*
X635054Y418294D01*
X635301Y418266D01*
X635909Y418234D01*
X636270Y418230D01*
Y415230D01*
X635909Y415226D01*
X635054Y415165D01*
X634845Y415129D01*
X634674Y415085D01*
X634541Y415033D01*
X634445Y414973D01*
X634389Y414905D01*
X634370Y414829D01*
Y418630D01*
X634389Y418554D01*
D02*
G37*
G36*
X626000Y449000D02*
X629000Y446000D01*
X629000D01*
Y435000D01*
X626000Y432000D01*
Y414000D01*
X620000D01*
X619571Y414429D01*
Y420920D01*
X613080D01*
X609000Y425000D01*
X609000D01*
Y457000D01*
X612405Y460405D01*
X613320D01*
X614827Y461029D01*
X615981Y462182D01*
X616540Y463533D01*
X620007Y467000D01*
X626000D01*
Y449000D01*
D02*
G37*
G36*
X574604Y416248D02*
X574622Y416027D01*
X574654Y415816D01*
X574698Y415616D01*
X574757Y415426D01*
X574828Y415247D01*
X574914Y415078D01*
X575013Y414919D01*
X575125Y414771D01*
X575251Y414633D01*
X574367Y413750D01*
X574229Y413875D01*
X574081Y413988D01*
X573922Y414086D01*
X573753Y414172D01*
X573574Y414243D01*
X573384Y414302D01*
X573184Y414347D01*
X572973Y414378D01*
X572752Y414396D01*
X572521Y414400D01*
X574600Y416479D01*
X574604Y416248D01*
D02*
G37*
G36*
X663750Y410530D02*
X663651Y410619D01*
X663539Y410699D01*
X663412Y410770D01*
X663272Y410831D01*
X663118Y410882D01*
X662951Y410925D01*
X662769Y410958D01*
X662574Y410981D01*
X662366Y410995D01*
X662143Y411000D01*
Y413000D01*
X662366Y413005D01*
X662769Y413042D01*
X662951Y413075D01*
X663118Y413117D01*
X663272Y413169D01*
X663412Y413230D01*
X663539Y413301D01*
X663651Y413381D01*
X663750Y413470D01*
Y410530D01*
D02*
G37*
G36*
X553020Y460316D02*
X553800Y460161D01*
X559553D01*
X559620Y460116D01*
X560400Y459961D01*
X574000D01*
X574000Y459961D01*
X574780Y460116D01*
X574842Y460158D01*
X576000Y459000D01*
Y454000D01*
X573000Y451000D01*
Y445000D01*
X575000Y443000D01*
Y438000D01*
X574000Y437000D01*
X562000D01*
X560000Y435000D01*
Y430000D01*
X562000Y428000D01*
X567000D01*
X567973Y427027D01*
Y425741D01*
X563116Y420884D01*
X562232Y419561D01*
X562150Y419151D01*
X560000Y417000D01*
Y409440D01*
X559775Y409103D01*
X559693Y408693D01*
X559000Y408000D01*
X552000D01*
X551600Y408400D01*
Y416126D01*
X551609Y416170D01*
X551600Y416213D01*
Y419787D01*
X551609Y419831D01*
X551600Y419874D01*
Y426126D01*
X551609Y426170D01*
X551600Y426213D01*
Y428200D01*
X551600D01*
Y428800D01*
X551600D01*
Y430787D01*
X551609Y430830D01*
X551600Y430874D01*
Y439200D01*
X551000D01*
Y451800D01*
X551600D01*
Y459781D01*
X552447Y460348D01*
X552533Y460365D01*
X552870Y460416D01*
X553020Y460316D01*
D02*
G37*
G36*
X604479Y406400D02*
X604248Y406396D01*
X604027Y406378D01*
X603816Y406347D01*
X603616Y406302D01*
X603426Y406243D01*
X603247Y406172D01*
X603078Y406086D01*
X602919Y405988D01*
X602771Y405875D01*
X602633Y405750D01*
X601749Y406633D01*
X601875Y406771D01*
X601987Y406919D01*
X602086Y407078D01*
X602172Y407247D01*
X602243Y407426D01*
X602302Y407616D01*
X602346Y407816D01*
X602378Y408027D01*
X602396Y408248D01*
X602400Y408479D01*
X604479Y406400D01*
D02*
G37*
G36*
X572900Y406438D02*
X572663Y406387D01*
X572223Y406262D01*
X572021Y406188D01*
X571831Y406106D01*
X571653Y406016D01*
X571487Y405919D01*
X571333Y405814D01*
X571191Y405702D01*
X571061Y405582D01*
X569987Y406275D01*
X570116Y406418D01*
X570227Y406569D01*
X570320Y406727D01*
X570394Y406894D01*
X570449Y407068D01*
X570486Y407251D01*
X570504Y407441D01*
X570504Y407639D01*
X570485Y407845D01*
X570447Y408059D01*
X572900Y406438D01*
D02*
G37*
G36*
X597814Y407333D02*
X597748Y407216D01*
X597690Y407086D01*
X597640Y406942D01*
X597597Y406786D01*
X597562Y406616D01*
X597535Y406432D01*
X597504Y406026D01*
X597500Y405802D01*
X595500Y405528D01*
X595495Y405751D01*
X595479Y405958D01*
X595452Y406151D01*
X595415Y406329D01*
X595367Y406492D01*
X595309Y406641D01*
X595240Y406774D01*
X595160Y406893D01*
X595070Y406997D01*
X594969Y407086D01*
X597888Y407436D01*
X597814Y407333D01*
D02*
G37*
G36*
X629805Y406829D02*
X629661Y406660D01*
X629534Y406489D01*
X629424Y406315D01*
X629331Y406140D01*
X629255Y405962D01*
X629196Y405783D01*
X629154Y405601D01*
X629129Y405417D01*
X629120Y405230D01*
X627870D01*
X627862Y405417D01*
X627836Y405601D01*
X627794Y405783D01*
X627735Y405962D01*
X627659Y406140D01*
X627566Y406315D01*
X627456Y406489D01*
X627329Y406660D01*
X627186Y406829D01*
X627025Y406996D01*
X629965D01*
X629805Y406829D01*
D02*
G37*
G36*
X565549Y406940D02*
X565643Y405512D01*
X565699Y405163D01*
X565768Y404877D01*
X565850Y404655D01*
X565944Y404496D01*
X566050Y404401D01*
X566170Y404370D01*
X560369Y404339D01*
X560592Y404372D01*
X560792Y404469D01*
X560968Y404630D01*
X561120Y404855D01*
X561249Y405143D01*
X561355Y405495D01*
X561437Y405911D01*
X561496Y406391D01*
X561531Y406935D01*
X561543Y407543D01*
X565543D01*
X565549Y406940D01*
D02*
G37*
G36*
X559861Y399024D02*
X559837Y399095D01*
X559765Y399159D01*
X559644Y399216D01*
X559476Y399264D01*
X559259Y399306D01*
X558994Y399340D01*
X558321Y399385D01*
X557454Y399400D01*
Y403400D01*
X557911Y403404D01*
X559259Y403494D01*
X559476Y403535D01*
X559644Y403584D01*
X559765Y403641D01*
X559837Y403705D01*
X559861Y403776D01*
Y399024D01*
D02*
G37*
G36*
X605559Y399084D02*
X605416Y398915D01*
X605289Y398744D01*
X605179Y398570D01*
X605086Y398395D01*
X605010Y398217D01*
X604951Y398037D01*
X604909Y397856D01*
X604883Y397672D01*
X604875Y397485D01*
X603625D01*
X603616Y397672D01*
X603591Y397856D01*
X603549Y398037D01*
X603490Y398217D01*
X603414Y398395D01*
X603321Y398570D01*
X603211Y398744D01*
X603084Y398915D01*
X602941Y399084D01*
X602780Y399250D01*
X605720D01*
X605559Y399084D01*
D02*
G37*
G36*
X597559Y377584D02*
X597416Y377415D01*
X597289Y377244D01*
X597179Y377070D01*
X597086Y376895D01*
X597010Y376717D01*
X596951Y376538D01*
X596909Y376356D01*
X596883Y376171D01*
X596875Y375985D01*
X595625D01*
X595616Y376171D01*
X595591Y376356D01*
X595549Y376538D01*
X595490Y376717D01*
X595414Y376895D01*
X595321Y377070D01*
X595211Y377244D01*
X595084Y377415D01*
X594940Y377584D01*
X594780Y377750D01*
X597720D01*
X597559Y377584D01*
D02*
G37*
G36*
X590000Y407131D02*
X591500D01*
X591215Y407100D01*
X590960Y407010D01*
X590735Y406861D01*
X590540Y406651D01*
X590375Y406381D01*
X590240Y406050D01*
X590135Y405661D01*
X590060Y405210D01*
X590050Y405100D01*
X593441D01*
Y388017D01*
X580426Y375002D01*
X578426Y375831D01*
Y387550D01*
X579684Y388390D01*
X581315D01*
X582822Y389015D01*
X583976Y390168D01*
X584600Y391675D01*
Y393306D01*
X583976Y394813D01*
X583600Y395188D01*
X583044Y396489D01*
X583600Y397802D01*
X583971Y398173D01*
X584595Y399680D01*
Y401311D01*
X583971Y402818D01*
X583689Y403100D01*
X584517Y405100D01*
X586950D01*
X586940Y405210D01*
X586865Y405661D01*
X586760Y406050D01*
X586625Y406381D01*
X586460Y406651D01*
X586265Y406861D01*
X586040Y407010D01*
X585785Y407100D01*
X585500Y407131D01*
X587000D01*
Y410100D01*
X590000D01*
Y407131D01*
D02*
G37*
G36*
X615271Y374625D02*
X615419Y374512D01*
X615578Y374414D01*
X615747Y374328D01*
X615926Y374257D01*
X616116Y374198D01*
X616316Y374154D01*
X616527Y374122D01*
X616748Y374104D01*
X616979Y374100D01*
X614900Y372021D01*
X614896Y372252D01*
X614878Y372473D01*
X614846Y372684D01*
X614802Y372884D01*
X614743Y373074D01*
X614672Y373253D01*
X614586Y373422D01*
X614487Y373581D01*
X614375Y373729D01*
X614249Y373867D01*
X615133Y374751D01*
X615271Y374625D01*
D02*
G37*
G36*
X624598Y409800D02*
X624395Y409311D01*
Y407680D01*
X625019Y406173D01*
X625458Y405734D01*
X625556Y405581D01*
X625673Y405460D01*
X625732Y405391D01*
X625774Y405334D01*
X625801Y405291D01*
X625817Y405260D01*
X625819Y405257D01*
Y394005D01*
X625819Y394005D01*
X626022Y392981D01*
X626603Y392112D01*
X658318Y360397D01*
X658319Y360395D01*
X658329Y360361D01*
X658340Y360311D01*
X658351Y360241D01*
X658358Y360151D01*
X658361Y359982D01*
X658400Y359805D01*
Y359184D01*
X658452Y359059D01*
X657116Y357059D01*
X640634D01*
X639298Y359059D01*
X639350Y359184D01*
Y360816D01*
X638726Y362322D01*
X637573Y363476D01*
X636066Y364100D01*
X634435D01*
X632928Y363476D01*
X632489Y363037D01*
X632336Y362939D01*
X632215Y362822D01*
X632146Y362764D01*
X632089Y362721D01*
X632045Y362694D01*
X632015Y362678D01*
X632012Y362676D01*
X623359D01*
X619778Y366257D01*
X620115Y367102D01*
X622022Y367430D01*
X622178Y367274D01*
X623685Y366650D01*
X625316D01*
X626822Y367274D01*
X627976Y368428D01*
X628600Y369935D01*
Y371566D01*
X627976Y373073D01*
X626822Y374226D01*
X625316Y374850D01*
X623685D01*
X622178Y374226D01*
X620476Y374323D01*
X620068Y374730D01*
X619323Y375476D01*
X617816Y376100D01*
X617195D01*
X617018Y376139D01*
X616849Y376142D01*
X616759Y376149D01*
X616689Y376160D01*
X616639Y376171D01*
X616605Y376181D01*
X616603Y376182D01*
X606926Y385859D01*
Y397512D01*
X606928Y397515D01*
X606944Y397545D01*
X606972Y397589D01*
X607014Y397646D01*
X607072Y397715D01*
X607189Y397836D01*
X607287Y397989D01*
X607726Y398428D01*
X608350Y399935D01*
Y400460D01*
X608992Y401758D01*
X610198Y402120D01*
X611220D01*
X611201Y404150D01*
X612871D01*
Y407120D01*
X614371D01*
Y408620D01*
X619571D01*
Y411800D01*
X623389D01*
X624598Y409800D01*
D02*
G37*
G36*
X601693Y366791D02*
X601809Y366723D01*
X601939Y366663D01*
X602082Y366611D01*
X602239Y366567D01*
X602409Y366531D01*
X602592Y366503D01*
X602998Y366471D01*
X603221Y366467D01*
X603459Y364467D01*
X603236Y364462D01*
X602836Y364420D01*
X602657Y364383D01*
X602493Y364336D01*
X602344Y364278D01*
X602210Y364210D01*
X602090Y364132D01*
X601984Y364043D01*
X601894Y363943D01*
X601590Y366867D01*
X601693Y366791D01*
D02*
G37*
G36*
X616726Y355948D02*
X616167Y353679D01*
X615678Y353476D01*
X614524Y352323D01*
X613900Y350816D01*
Y349184D01*
X613148Y348059D01*
X609267D01*
X597567Y359759D01*
X598700Y361454D01*
X599435Y361150D01*
X601065D01*
X602573Y361774D01*
X603207Y362408D01*
X610266D01*
X616726Y355948D01*
D02*
G37*
G36*
X660771Y362625D02*
X660919Y362513D01*
X661078Y362414D01*
X661247Y362328D01*
X661426Y362257D01*
X661616Y362198D01*
X661816Y362154D01*
X662027Y362122D01*
X662248Y362104D01*
X662479Y362100D01*
X660400Y360021D01*
X660396Y360252D01*
X660378Y360473D01*
X660347Y360684D01*
X660302Y360884D01*
X660243Y361074D01*
X660172Y361253D01*
X660086Y361422D01*
X659987Y361581D01*
X659875Y361729D01*
X659750Y361867D01*
X660633Y362751D01*
X660771Y362625D01*
D02*
G37*
G36*
X633750Y358530D02*
X633584Y358690D01*
X633415Y358834D01*
X633244Y358961D01*
X633070Y359071D01*
X632895Y359164D01*
X632717Y359240D01*
X632537Y359299D01*
X632356Y359341D01*
X632172Y359366D01*
X631985Y359375D01*
Y360625D01*
X632172Y360633D01*
X632356Y360659D01*
X632537Y360701D01*
X632717Y360760D01*
X632895Y360836D01*
X633070Y360929D01*
X633244Y361039D01*
X633415Y361166D01*
X633584Y361309D01*
X633750Y361470D01*
Y358530D01*
D02*
G37*
G36*
X619599Y351381D02*
X619711Y351301D01*
X619838Y351230D01*
X619978Y351169D01*
X620132Y351118D01*
X620299Y351075D01*
X620481Y351042D01*
X620676Y351019D01*
X620884Y351005D01*
X621107Y351000D01*
Y349000D01*
X620884Y348995D01*
X620481Y348958D01*
X620299Y348925D01*
X620132Y348882D01*
X619978Y348831D01*
X619838Y348770D01*
X619711Y348699D01*
X619599Y348619D01*
X619500Y348530D01*
Y351470D01*
X619599Y351381D01*
D02*
G37*
G36*
X664552Y344492D02*
X664556Y344356D01*
X664579Y344217D01*
X664620Y344074D01*
X664680Y343928D01*
X664759Y343780D01*
X664857Y343628D01*
X664973Y343473D01*
X665107Y343315D01*
X665261Y343153D01*
X663569Y342017D01*
X663408Y342173D01*
X663100Y342441D01*
X662953Y342554D01*
X662673Y342736D01*
X662540Y342805D01*
X662411Y342860D01*
X662287Y342901D01*
X662167Y342926D01*
X664566Y344626D01*
X664552Y344492D01*
D02*
G37*
G36*
X631599Y341381D02*
X631711Y341301D01*
X631838Y341230D01*
X631978Y341169D01*
X632132Y341118D01*
X632299Y341075D01*
X632481Y341042D01*
X632676Y341019D01*
X632884Y341005D01*
X633107Y341000D01*
Y339000D01*
X632884Y338995D01*
X632481Y338958D01*
X632299Y338925D01*
X632132Y338882D01*
X631978Y338831D01*
X631838Y338770D01*
X631711Y338699D01*
X631599Y338619D01*
X631500Y338530D01*
Y341470D01*
X631599Y341381D01*
D02*
G37*
G36*
X545979Y335900D02*
X545846Y335893D01*
X545710Y335870D01*
X545570Y335830D01*
X545428Y335775D01*
X545283Y335702D01*
X545134Y335614D01*
X544983Y335509D01*
X544828Y335388D01*
X544671Y335250D01*
X544510Y335096D01*
X543096Y336510D01*
X543250Y336671D01*
X543509Y336983D01*
X543614Y337134D01*
X543702Y337283D01*
X543775Y337428D01*
X543830Y337570D01*
X543870Y337710D01*
X543893Y337846D01*
X543900Y337979D01*
X545979Y335900D01*
D02*
G37*
G36*
X598271Y329625D02*
X598419Y329512D01*
X598578Y329414D01*
X598747Y329328D01*
X598926Y329257D01*
X599116Y329198D01*
X599316Y329154D01*
X599527Y329122D01*
X599748Y329104D01*
X599979Y329100D01*
X597900Y327021D01*
X597896Y327252D01*
X597878Y327473D01*
X597846Y327684D01*
X597802Y327884D01*
X597743Y328074D01*
X597672Y328253D01*
X597586Y328422D01*
X597487Y328581D01*
X597375Y328729D01*
X597249Y328867D01*
X598133Y329751D01*
X598271Y329625D01*
D02*
G37*
G36*
X560381Y319401D02*
X560301Y319289D01*
X560230Y319162D01*
X560169Y319022D01*
X560117Y318868D01*
X560075Y318701D01*
X560042Y318519D01*
X560019Y318325D01*
X560005Y318116D01*
X560000Y317893D01*
X558000D01*
X557995Y318116D01*
X557958Y318519D01*
X557925Y318701D01*
X557882Y318868D01*
X557831Y319022D01*
X557770Y319162D01*
X557699Y319289D01*
X557619Y319401D01*
X557530Y319500D01*
X560470D01*
X560381Y319401D01*
D02*
G37*
G36*
X570979Y313900D02*
X570846Y313893D01*
X570710Y313870D01*
X570570Y313831D01*
X570428Y313775D01*
X570283Y313702D01*
X570134Y313614D01*
X569983Y313509D01*
X569828Y313388D01*
X569671Y313250D01*
X569510Y313096D01*
X568096Y314510D01*
X568250Y314671D01*
X568509Y314983D01*
X568614Y315134D01*
X568702Y315283D01*
X568775Y315428D01*
X568830Y315570D01*
X568870Y315710D01*
X568893Y315846D01*
X568900Y315979D01*
X570979Y313900D01*
D02*
G37*
G36*
X553635Y307127D02*
X553663Y306943D01*
X553711Y306774D01*
X553778Y306621D01*
X553863Y306482D01*
X553968Y306359D01*
X554092Y306251D01*
X554235Y306159D01*
X554397Y306081D01*
X554579Y306019D01*
X552016Y304688D01*
X552084Y304899D01*
X552199Y305341D01*
X552246Y305572D01*
X552343Y306308D01*
X552361Y306567D01*
X552375Y307107D01*
X553625Y307326D01*
X553635Y307127D01*
D02*
G37*
G36*
X578941Y347328D02*
Y299998D01*
X577094Y299232D01*
X571059Y305267D01*
Y311733D01*
X571189Y311863D01*
X571194Y311867D01*
X571239Y311898D01*
X571242Y311900D01*
X571815D01*
X573322Y312524D01*
X574476Y313678D01*
X575100Y315184D01*
Y316815D01*
X574476Y318323D01*
X573322Y319476D01*
X571815Y320100D01*
X570185D01*
X568678Y319476D01*
X567524Y318323D01*
X566900Y316815D01*
Y316242D01*
X566898Y316239D01*
X566883Y316217D01*
X566844Y316169D01*
X565837Y315163D01*
X565174Y314170D01*
X564941Y313000D01*
X564941Y313000D01*
Y308101D01*
X562941Y307124D01*
X562059Y307811D01*
Y318209D01*
X562060Y318215D01*
X562069Y318269D01*
X562070Y318272D01*
X562476Y318678D01*
X563100Y320184D01*
Y321815D01*
X562476Y323322D01*
X561322Y324476D01*
X559815Y325100D01*
X558185D01*
X556734Y326561D01*
X556604Y327818D01*
X576941Y348156D01*
X578941Y347328D01*
D02*
G37*
G36*
X753561Y286000D02*
X753541Y286190D01*
X753480Y286360D01*
X753378Y286510D01*
X753236Y286640D01*
X753053Y286750D01*
X752830Y286840D01*
X752566Y286910D01*
X752262Y286960D01*
X751916Y286990D01*
X751531Y287000D01*
Y289000D01*
X751916Y289010D01*
X752262Y289040D01*
X752566Y289090D01*
X752830Y289160D01*
X753053Y289250D01*
X753236Y289360D01*
X753378Y289490D01*
X753480Y289640D01*
X753541Y289810D01*
X753561Y290000D01*
Y286000D01*
D02*
G37*
G36*
X541171Y287750D02*
X541483Y287491D01*
X541634Y287386D01*
X541783Y287298D01*
X541928Y287225D01*
X542070Y287169D01*
X542210Y287130D01*
X542346Y287107D01*
X542479Y287100D01*
X540400Y285021D01*
X540393Y285154D01*
X540370Y285290D01*
X540331Y285430D01*
X540275Y285572D01*
X540202Y285717D01*
X540114Y285866D01*
X540009Y286017D01*
X539888Y286171D01*
X539750Y286329D01*
X539596Y286490D01*
X541010Y287904D01*
X541171Y287750D01*
D02*
G37*
G36*
X622104Y285748D02*
X622122Y285527D01*
X622154Y285316D01*
X622198Y285116D01*
X622257Y284926D01*
X622328Y284747D01*
X622414Y284578D01*
X622513Y284419D01*
X622625Y284271D01*
X622751Y284133D01*
X621867Y283249D01*
X621729Y283375D01*
X621581Y283487D01*
X621422Y283586D01*
X621253Y283672D01*
X621074Y283743D01*
X620884Y283802D01*
X620684Y283846D01*
X620473Y283878D01*
X620252Y283896D01*
X620021Y283900D01*
X622100Y285979D01*
X622104Y285748D01*
D02*
G37*
G36*
X840925Y280500D02*
X839777Y280495D01*
X837737Y280377D01*
X836844Y280266D01*
X836036Y280119D01*
X835312Y279937D01*
X834674Y279719D01*
X834121Y279466D01*
X833653Y279178D01*
X833269Y278855D01*
X831855Y280269D01*
X832178Y280653D01*
X832466Y281121D01*
X832719Y281674D01*
X832937Y282313D01*
X833119Y283036D01*
X833266Y283844D01*
X833377Y284737D01*
X833495Y286777D01*
X833500Y287925D01*
X840925Y280500D01*
D02*
G37*
G36*
X820925D02*
X819777Y280495D01*
X817737Y280377D01*
X816844Y280266D01*
X816036Y280119D01*
X815312Y279937D01*
X814674Y279719D01*
X814121Y279466D01*
X813653Y279178D01*
X813269Y278855D01*
X811855Y280269D01*
X812178Y280653D01*
X812466Y281121D01*
X812719Y281674D01*
X812937Y282313D01*
X813119Y283036D01*
X813266Y283844D01*
X813377Y284737D01*
X813495Y286777D01*
X813500Y287925D01*
X820925Y280500D01*
D02*
G37*
G36*
X800925D02*
X799777Y280495D01*
X797737Y280377D01*
X796844Y280266D01*
X796036Y280119D01*
X795312Y279937D01*
X794674Y279719D01*
X794121Y279466D01*
X793653Y279178D01*
X793269Y278855D01*
X791855Y280269D01*
X792178Y280653D01*
X792466Y281121D01*
X792719Y281674D01*
X792937Y282313D01*
X793119Y283036D01*
X793266Y283844D01*
X793377Y284737D01*
X793495Y286777D01*
X793500Y287925D01*
X800925Y280500D01*
D02*
G37*
G36*
X780925D02*
X779777Y280495D01*
X777737Y280377D01*
X776844Y280266D01*
X776036Y280119D01*
X775312Y279937D01*
X774674Y279719D01*
X774121Y279466D01*
X773653Y279178D01*
X773269Y278855D01*
X771855Y280269D01*
X772178Y280653D01*
X772466Y281121D01*
X772719Y281674D01*
X772937Y282313D01*
X773119Y283036D01*
X773266Y283844D01*
X773377Y284737D01*
X773495Y286777D01*
X773500Y287925D01*
X780925Y280500D01*
D02*
G37*
G36*
X618500Y277530D02*
X618401Y277619D01*
X618289Y277699D01*
X618162Y277770D01*
X618022Y277831D01*
X617868Y277882D01*
X617701Y277925D01*
X617519Y277958D01*
X617324Y277981D01*
X617116Y277995D01*
X616893Y278000D01*
Y280000D01*
X617116Y280005D01*
X617519Y280042D01*
X617701Y280075D01*
X617868Y280117D01*
X618022Y280169D01*
X618162Y280230D01*
X618289Y280301D01*
X618401Y280381D01*
X618500Y280470D01*
Y277530D01*
D02*
G37*
G36*
X546750Y273867D02*
X546625Y273729D01*
X546512Y273581D01*
X546414Y273422D01*
X546328Y273253D01*
X546257Y273074D01*
X546198Y272884D01*
X546153Y272684D01*
X546122Y272473D01*
X546104Y272252D01*
X546100Y272021D01*
X544021Y274100D01*
X544252Y274104D01*
X544473Y274122D01*
X544684Y274153D01*
X544884Y274198D01*
X545074Y274257D01*
X545253Y274328D01*
X545422Y274414D01*
X545581Y274513D01*
X545729Y274625D01*
X545867Y274750D01*
X546750Y273867D01*
D02*
G37*
G36*
X619500Y269530D02*
X619401Y269619D01*
X619289Y269699D01*
X619162Y269770D01*
X619022Y269831D01*
X618868Y269883D01*
X618701Y269925D01*
X618519Y269958D01*
X618325Y269981D01*
X618116Y269995D01*
X617893Y270000D01*
Y272000D01*
X618116Y272005D01*
X618519Y272042D01*
X618701Y272075D01*
X618868Y272118D01*
X619022Y272169D01*
X619162Y272230D01*
X619289Y272301D01*
X619401Y272381D01*
X619500Y272470D01*
Y269530D01*
D02*
G37*
G36*
X591150Y269524D02*
X590385Y267676D01*
X548303D01*
X547475Y269676D01*
X547476Y269678D01*
X548100Y271184D01*
Y271805D01*
X548139Y271982D01*
X548142Y272151D01*
X548149Y272241D01*
X548160Y272311D01*
X548171Y272361D01*
X548181Y272395D01*
X548182Y272397D01*
X554393Y278607D01*
X554393Y278608D01*
X554973Y279476D01*
X555177Y280500D01*
X555176Y280500D01*
Y292500D01*
X555177Y292500D01*
X554973Y293524D01*
X554393Y294393D01*
X551676Y297109D01*
Y298360D01*
X553185Y299900D01*
X554816D01*
X556323Y300524D01*
X557476Y301677D01*
X558744Y301930D01*
X591150Y269524D01*
D02*
G37*
G36*
X826667Y277993D02*
X809733Y261059D01*
X801213D01*
X800385Y263059D01*
X814827Y277501D01*
X814851Y277521D01*
X815082Y277664D01*
X815429Y277822D01*
X815891Y277980D01*
X816468Y278125D01*
X817153Y278249D01*
X817922Y278345D01*
X819841Y278456D01*
X820935Y278461D01*
X821125Y278500D01*
X822251D01*
X824667Y279147D01*
X825439Y279593D01*
X826667Y277993D01*
D02*
G37*
G36*
X617500Y257530D02*
X617401Y257619D01*
X617289Y257699D01*
X617162Y257770D01*
X617022Y257831D01*
X616868Y257882D01*
X616701Y257925D01*
X616519Y257958D01*
X616325Y257981D01*
X616116Y257995D01*
X615893Y258000D01*
Y260000D01*
X616116Y260005D01*
X616519Y260042D01*
X616701Y260075D01*
X616868Y260117D01*
X617022Y260169D01*
X617162Y260230D01*
X617289Y260301D01*
X617401Y260381D01*
X617500Y260470D01*
Y257530D01*
D02*
G37*
%LPC*%
G36*
X591670Y469109D02*
X591626Y469100D01*
X583300D01*
Y459100D01*
X591626D01*
X591670Y459091D01*
X591713Y459100D01*
X593700D01*
Y459801D01*
X595139Y459912D01*
X596500D01*
X598256Y460261D01*
X599744Y461256D01*
X600739Y462744D01*
X601088Y464500D01*
X600739Y466256D01*
X599744Y467744D01*
X598256Y468739D01*
X596500Y469088D01*
X593700D01*
Y469100D01*
X591713D01*
X591670Y469109D01*
D02*
G37*
%LPD*%
G36*
X591718Y467056D02*
X591863Y467044D01*
X592877Y467017D01*
X596500Y467000D01*
Y462000D01*
X595582Y461991D01*
X592877Y461783D01*
X592442Y461687D01*
X592104Y461574D01*
X591863Y461443D01*
X591718Y461296D01*
X591670Y461130D01*
Y467070D01*
X591718Y467056D01*
D02*
G37*
%LPC*%
G36*
X619571Y405620D02*
X615871D01*
Y402120D01*
X619571D01*
Y405620D01*
D02*
G37*
%LPD*%
G36*
X319599Y553381D02*
X319711Y553301D01*
X319838Y553230D01*
X319978Y553169D01*
X320132Y553117D01*
X320299Y553075D01*
X320481Y553042D01*
X320676Y553019D01*
X320884Y553005D01*
X321107Y553000D01*
Y551000D01*
X320884Y550995D01*
X320481Y550958D01*
X320299Y550925D01*
X320132Y550882D01*
X319978Y550831D01*
X319838Y550770D01*
X319711Y550699D01*
X319599Y550619D01*
X319500Y550530D01*
Y553470D01*
X319599Y553381D01*
D02*
G37*
G36*
X392599Y486381D02*
X392711Y486301D01*
X392838Y486230D01*
X392978Y486169D01*
X393132Y486118D01*
X393299Y486075D01*
X393481Y486042D01*
X393675Y486019D01*
X393884Y486005D01*
X394107Y486000D01*
Y484000D01*
X393884Y483995D01*
X393481Y483958D01*
X393299Y483925D01*
X393132Y483882D01*
X392978Y483831D01*
X392838Y483770D01*
X392711Y483699D01*
X392599Y483619D01*
X392500Y483530D01*
Y486470D01*
X392599Y486381D01*
D02*
G37*
G36*
X397599Y481381D02*
X397711Y481301D01*
X397838Y481230D01*
X397978Y481169D01*
X398132Y481118D01*
X398299Y481075D01*
X398481Y481042D01*
X398675Y481019D01*
X398884Y481005D01*
X399107Y481000D01*
Y479000D01*
X398884Y478995D01*
X398481Y478958D01*
X398299Y478925D01*
X398132Y478882D01*
X397978Y478831D01*
X397838Y478770D01*
X397711Y478699D01*
X397599Y478619D01*
X397500Y478530D01*
Y481470D01*
X397599Y481381D01*
D02*
G37*
G36*
X402599Y476381D02*
X402711Y476301D01*
X402838Y476230D01*
X402978Y476169D01*
X403132Y476118D01*
X403299Y476075D01*
X403481Y476042D01*
X403675Y476019D01*
X403884Y476005D01*
X404107Y476000D01*
Y474000D01*
X403884Y473995D01*
X403481Y473958D01*
X403299Y473925D01*
X403132Y473882D01*
X402978Y473831D01*
X402838Y473770D01*
X402711Y473699D01*
X402599Y473619D01*
X402500Y473530D01*
Y476470D01*
X402599Y476381D01*
D02*
G37*
G36*
X486671Y412750D02*
X486983Y412491D01*
X487134Y412386D01*
X487283Y412298D01*
X487428Y412225D01*
X487570Y412169D01*
X487710Y412130D01*
X487846Y412107D01*
X487979Y412100D01*
X485900Y410021D01*
X485893Y410154D01*
X485870Y410290D01*
X485830Y410430D01*
X485775Y410572D01*
X485702Y410717D01*
X485614Y410866D01*
X485509Y411017D01*
X485388Y411171D01*
X485250Y411329D01*
X485096Y411490D01*
X486510Y412904D01*
X486671Y412750D01*
D02*
G37*
G36*
X481671Y408750D02*
X481983Y408491D01*
X482134Y408386D01*
X482283Y408298D01*
X482428Y408225D01*
X482570Y408170D01*
X482710Y408130D01*
X482846Y408107D01*
X482979Y408100D01*
X480900Y406021D01*
X480893Y406154D01*
X480870Y406290D01*
X480830Y406430D01*
X480775Y406572D01*
X480702Y406717D01*
X480614Y406866D01*
X480509Y407017D01*
X480388Y407172D01*
X480250Y407329D01*
X480096Y407490D01*
X481510Y408904D01*
X481671Y408750D01*
D02*
G37*
G36*
X451309Y525834D02*
X451166Y525665D01*
X451039Y525494D01*
X450929Y525320D01*
X450836Y525145D01*
X450760Y524967D01*
X450701Y524787D01*
X450659Y524606D01*
X450633Y524422D01*
X450625Y524235D01*
X449375D01*
X449366Y524422D01*
X449341Y524606D01*
X449299Y524787D01*
X449240Y524967D01*
X449164Y525145D01*
X449071Y525320D01*
X448961Y525494D01*
X448834Y525665D01*
X448690Y525834D01*
X448530Y526000D01*
X451470D01*
X451309Y525834D01*
D02*
G37*
G36*
X466861Y473778D02*
X466894Y473646D01*
X466941Y473510D01*
X467004Y473371D01*
X467082Y473228D01*
X467176Y473082D01*
X467285Y472932D01*
X467548Y472622D01*
X467703Y472461D01*
X466425Y470911D01*
X466264Y471064D01*
X465951Y471319D01*
X465799Y471420D01*
X465650Y471504D01*
X465504Y471570D01*
X465360Y471618D01*
X465220Y471650D01*
X465082Y471663D01*
X464948Y471659D01*
X466844Y473906D01*
X466861Y473778D01*
D02*
G37*
G36*
X487171Y453000D02*
X487483Y452741D01*
X487634Y452636D01*
X487783Y452548D01*
X487928Y452475D01*
X488070Y452420D01*
X488210Y452380D01*
X488346Y452357D01*
X488479Y452350D01*
X486400Y450271D01*
X486393Y450404D01*
X486370Y450540D01*
X486330Y450680D01*
X486275Y450822D01*
X486202Y450967D01*
X486114Y451116D01*
X486009Y451267D01*
X485888Y451422D01*
X485750Y451579D01*
X485596Y451740D01*
X487010Y453154D01*
X487171Y453000D01*
D02*
G37*
G36*
X490521Y439875D02*
X490669Y439762D01*
X490828Y439664D01*
X490997Y439578D01*
X491176Y439507D01*
X491366Y439448D01*
X491566Y439403D01*
X491777Y439372D01*
X491998Y439354D01*
X492229Y439350D01*
X490150Y437271D01*
X490146Y437503D01*
X490128Y437724D01*
X490097Y437934D01*
X490052Y438134D01*
X489993Y438324D01*
X489921Y438503D01*
X489836Y438672D01*
X489738Y438831D01*
X489625Y438979D01*
X489500Y439117D01*
X490383Y440000D01*
X490521Y439875D01*
D02*
G37*
G36*
X522104Y427248D02*
X522122Y427027D01*
X522154Y426816D01*
X522198Y426616D01*
X522257Y426426D01*
X522328Y426247D01*
X522414Y426078D01*
X522513Y425919D01*
X522625Y425771D01*
X522751Y425633D01*
X521867Y424749D01*
X521729Y424875D01*
X521581Y424987D01*
X521422Y425086D01*
X521253Y425172D01*
X521074Y425243D01*
X520884Y425302D01*
X520684Y425346D01*
X520473Y425378D01*
X520252Y425396D01*
X520021Y425400D01*
X522100Y427479D01*
X522104Y427248D01*
D02*
G37*
G36*
X530991Y423030D02*
X530824Y423190D01*
X530655Y423334D01*
X530484Y423461D01*
X530311Y423571D01*
X530135Y423664D01*
X529958Y423740D01*
X529778Y423799D01*
X529596Y423841D01*
X529412Y423867D01*
X529225Y423875D01*
Y425125D01*
X529412Y425133D01*
X529596Y425159D01*
X529778Y425201D01*
X529958Y425260D01*
X530135Y425336D01*
X530311Y425429D01*
X530484Y425539D01*
X530655Y425666D01*
X530824Y425809D01*
X530991Y425970D01*
Y423030D01*
D02*
G37*
G36*
X788500Y366530D02*
X788401Y366619D01*
X788289Y366699D01*
X788162Y366770D01*
X788022Y366831D01*
X787868Y366883D01*
X787701Y366925D01*
X787519Y366958D01*
X787325Y366981D01*
X787116Y366995D01*
X786893Y367000D01*
Y369000D01*
X787116Y369005D01*
X787519Y369042D01*
X787701Y369075D01*
X787868Y369118D01*
X788022Y369169D01*
X788162Y369230D01*
X788289Y369301D01*
X788401Y369381D01*
X788500Y369470D01*
Y366530D01*
D02*
G37*
G36*
X712599Y369381D02*
X712711Y369301D01*
X712838Y369230D01*
X712978Y369169D01*
X713132Y369118D01*
X713299Y369075D01*
X713481Y369042D01*
X713676Y369019D01*
X713884Y369005D01*
X714107Y369000D01*
Y367000D01*
X713884Y366995D01*
X713481Y366958D01*
X713299Y366925D01*
X713132Y366883D01*
X712978Y366831D01*
X712838Y366770D01*
X712711Y366699D01*
X712599Y366619D01*
X712500Y366530D01*
Y369470D01*
X712599Y369381D01*
D02*
G37*
G36*
X783500Y361530D02*
X783401Y361619D01*
X783289Y361699D01*
X783162Y361770D01*
X783022Y361831D01*
X782868Y361883D01*
X782701Y361925D01*
X782519Y361958D01*
X782325Y361981D01*
X782116Y361995D01*
X781893Y362000D01*
Y364000D01*
X782116Y364005D01*
X782519Y364042D01*
X782701Y364075D01*
X782868Y364118D01*
X783022Y364169D01*
X783162Y364230D01*
X783289Y364301D01*
X783401Y364381D01*
X783500Y364470D01*
Y361530D01*
D02*
G37*
G36*
X709599Y364381D02*
X709711Y364301D01*
X709838Y364230D01*
X709978Y364169D01*
X710132Y364118D01*
X710299Y364075D01*
X710481Y364042D01*
X710676Y364019D01*
X710884Y364005D01*
X711107Y364000D01*
Y362000D01*
X710884Y361995D01*
X710481Y361958D01*
X710299Y361925D01*
X710132Y361883D01*
X709978Y361831D01*
X709838Y361770D01*
X709711Y361699D01*
X709599Y361619D01*
X709500Y361530D01*
Y364470D01*
X709599Y364381D01*
D02*
G37*
G36*
X778500Y356530D02*
X778401Y356619D01*
X778289Y356699D01*
X778162Y356770D01*
X778022Y356831D01*
X777868Y356883D01*
X777701Y356925D01*
X777519Y356958D01*
X777325Y356981D01*
X777116Y356995D01*
X776893Y357000D01*
Y359000D01*
X777116Y359005D01*
X777519Y359042D01*
X777701Y359075D01*
X777868Y359118D01*
X778022Y359169D01*
X778162Y359230D01*
X778289Y359301D01*
X778401Y359381D01*
X778500Y359470D01*
Y356530D01*
D02*
G37*
G36*
X706599Y359381D02*
X706711Y359301D01*
X706838Y359230D01*
X706978Y359169D01*
X707132Y359118D01*
X707299Y359075D01*
X707481Y359042D01*
X707675Y359019D01*
X707884Y359005D01*
X708107Y359000D01*
Y357000D01*
X707884Y356995D01*
X707481Y356958D01*
X707299Y356925D01*
X707132Y356883D01*
X706978Y356831D01*
X706838Y356770D01*
X706711Y356699D01*
X706599Y356619D01*
X706500Y356530D01*
Y359470D01*
X706599Y359381D01*
D02*
G37*
G36*
X774500Y351530D02*
X774401Y351619D01*
X774289Y351699D01*
X774162Y351770D01*
X774022Y351831D01*
X773868Y351883D01*
X773701Y351925D01*
X773519Y351958D01*
X773325Y351981D01*
X773116Y351995D01*
X772893Y352000D01*
Y354000D01*
X773116Y354005D01*
X773519Y354042D01*
X773701Y354075D01*
X773868Y354118D01*
X774022Y354169D01*
X774162Y354230D01*
X774289Y354301D01*
X774401Y354381D01*
X774500Y354470D01*
Y351530D01*
D02*
G37*
G36*
X703599Y354381D02*
X703711Y354301D01*
X703838Y354230D01*
X703978Y354169D01*
X704132Y354118D01*
X704299Y354075D01*
X704481Y354042D01*
X704676Y354019D01*
X704884Y354005D01*
X705107Y354000D01*
Y352000D01*
X704884Y351995D01*
X704481Y351958D01*
X704299Y351925D01*
X704132Y351883D01*
X703978Y351831D01*
X703838Y351770D01*
X703711Y351699D01*
X703599Y351619D01*
X703500Y351530D01*
Y354470D01*
X703599Y354381D01*
D02*
G37*
G36*
X770500Y346530D02*
X770401Y346619D01*
X770289Y346699D01*
X770162Y346770D01*
X770022Y346831D01*
X769868Y346883D01*
X769701Y346925D01*
X769519Y346958D01*
X769324Y346981D01*
X769116Y346995D01*
X768893Y347000D01*
Y349000D01*
X769116Y349005D01*
X769519Y349042D01*
X769701Y349075D01*
X769868Y349118D01*
X770022Y349169D01*
X770162Y349230D01*
X770289Y349301D01*
X770401Y349381D01*
X770500Y349470D01*
Y346530D01*
D02*
G37*
G36*
X700599Y349381D02*
X700711Y349301D01*
X700838Y349230D01*
X700978Y349169D01*
X701132Y349118D01*
X701299Y349075D01*
X701481Y349042D01*
X701675Y349019D01*
X701884Y349005D01*
X702107Y349000D01*
Y347000D01*
X701884Y346995D01*
X701481Y346958D01*
X701299Y346925D01*
X701132Y346883D01*
X700978Y346831D01*
X700838Y346770D01*
X700711Y346699D01*
X700599Y346619D01*
X700500Y346530D01*
Y349470D01*
X700599Y349381D01*
D02*
G37*
G36*
X766500Y341530D02*
X766401Y341619D01*
X766289Y341699D01*
X766162Y341770D01*
X766022Y341831D01*
X765868Y341883D01*
X765701Y341925D01*
X765519Y341958D01*
X765324Y341981D01*
X765116Y341995D01*
X764893Y342000D01*
Y344000D01*
X765116Y344005D01*
X765519Y344042D01*
X765701Y344075D01*
X765868Y344118D01*
X766022Y344169D01*
X766162Y344230D01*
X766289Y344301D01*
X766401Y344381D01*
X766500Y344470D01*
Y341530D01*
D02*
G37*
G36*
X697599Y344381D02*
X697711Y344301D01*
X697838Y344230D01*
X697978Y344169D01*
X698132Y344118D01*
X698299Y344075D01*
X698481Y344042D01*
X698676Y344019D01*
X698884Y344005D01*
X699107Y344000D01*
Y342000D01*
X698884Y341995D01*
X698481Y341958D01*
X698299Y341925D01*
X698132Y341883D01*
X697978Y341831D01*
X697838Y341770D01*
X697711Y341699D01*
X697599Y341619D01*
X697500Y341530D01*
Y344470D01*
X697599Y344381D01*
D02*
G37*
G36*
X762500Y336530D02*
X762401Y336619D01*
X762289Y336699D01*
X762162Y336770D01*
X762022Y336831D01*
X761868Y336883D01*
X761701Y336925D01*
X761519Y336958D01*
X761324Y336981D01*
X761116Y336995D01*
X760893Y337000D01*
Y339000D01*
X761116Y339005D01*
X761519Y339042D01*
X761701Y339075D01*
X761868Y339118D01*
X762022Y339169D01*
X762162Y339230D01*
X762289Y339301D01*
X762401Y339381D01*
X762500Y339470D01*
Y336530D01*
D02*
G37*
G36*
X693599Y339381D02*
X693711Y339301D01*
X693838Y339230D01*
X693978Y339169D01*
X694132Y339118D01*
X694299Y339075D01*
X694481Y339042D01*
X694676Y339019D01*
X694884Y339005D01*
X695107Y339000D01*
Y337000D01*
X694884Y336995D01*
X694481Y336958D01*
X694299Y336925D01*
X694132Y336883D01*
X693978Y336831D01*
X693838Y336770D01*
X693711Y336699D01*
X693599Y336619D01*
X693500Y336530D01*
Y339470D01*
X693599Y339381D01*
D02*
G37*
G36*
X752599Y409381D02*
X752711Y409301D01*
X752838Y409230D01*
X752978Y409169D01*
X753132Y409118D01*
X753299Y409075D01*
X753481Y409042D01*
X753676Y409019D01*
X753884Y409005D01*
X754107Y409000D01*
Y407000D01*
X753884Y406995D01*
X753481Y406958D01*
X753299Y406925D01*
X753132Y406883D01*
X752978Y406831D01*
X752838Y406770D01*
X752711Y406699D01*
X752599Y406619D01*
X752500Y406530D01*
Y409470D01*
X752599Y409381D01*
D02*
G37*
G36*
X830671Y348750D02*
X830983Y348491D01*
X831134Y348386D01*
X831283Y348298D01*
X831428Y348225D01*
X831570Y348170D01*
X831710Y348130D01*
X831846Y348107D01*
X831979Y348100D01*
X829900Y346021D01*
X829893Y346154D01*
X829870Y346290D01*
X829830Y346430D01*
X829775Y346572D01*
X829702Y346717D01*
X829614Y346866D01*
X829509Y347017D01*
X829388Y347172D01*
X829250Y347329D01*
X829096Y347490D01*
X830510Y348904D01*
X830671Y348750D01*
D02*
G37*
G36*
X297107Y512846D02*
X297130Y512710D01*
X297169Y512570D01*
X297225Y512428D01*
X297298Y512283D01*
X297386Y512134D01*
X297491Y511983D01*
X297612Y511828D01*
X297750Y511671D01*
X297904Y511510D01*
X296490Y510096D01*
X296329Y510250D01*
X296017Y510509D01*
X295866Y510614D01*
X295717Y510702D01*
X295572Y510775D01*
X295430Y510830D01*
X295290Y510870D01*
X295154Y510893D01*
X295021Y510900D01*
X297100Y512979D01*
X297107Y512846D01*
D02*
G37*
G36*
X293979Y435900D02*
X293846Y435893D01*
X293710Y435870D01*
X293570Y435830D01*
X293428Y435775D01*
X293283Y435702D01*
X293134Y435614D01*
X292983Y435509D01*
X292829Y435388D01*
X292671Y435250D01*
X292510Y435096D01*
X291096Y436510D01*
X291250Y436671D01*
X291509Y436983D01*
X291614Y437134D01*
X291702Y437283D01*
X291775Y437428D01*
X291831Y437570D01*
X291870Y437710D01*
X291893Y437846D01*
X291900Y437979D01*
X293979Y435900D01*
D02*
G37*
G36*
Y419900D02*
X293846Y419893D01*
X293710Y419870D01*
X293570Y419831D01*
X293428Y419775D01*
X293283Y419702D01*
X293134Y419614D01*
X292983Y419509D01*
X292829Y419388D01*
X292671Y419250D01*
X292510Y419096D01*
X291096Y420510D01*
X291250Y420671D01*
X291509Y420983D01*
X291614Y421134D01*
X291702Y421283D01*
X291775Y421428D01*
X291831Y421570D01*
X291870Y421710D01*
X291893Y421846D01*
X291900Y421979D01*
X293979Y419900D01*
D02*
G37*
G36*
Y403900D02*
X293846Y403893D01*
X293710Y403870D01*
X293570Y403830D01*
X293428Y403775D01*
X293283Y403702D01*
X293134Y403614D01*
X292983Y403509D01*
X292829Y403388D01*
X292671Y403250D01*
X292510Y403096D01*
X291096Y404510D01*
X291250Y404671D01*
X291509Y404983D01*
X291614Y405134D01*
X291702Y405283D01*
X291775Y405428D01*
X291831Y405570D01*
X291870Y405710D01*
X291893Y405846D01*
X291900Y405979D01*
X293979Y403900D01*
D02*
G37*
G36*
X294578Y387981D02*
X294469Y387938D01*
X294370Y387875D01*
X294284Y387791D01*
X294208Y387687D01*
X294145Y387563D01*
X294093Y387419D01*
X294052Y387254D01*
X294023Y387070D01*
X294006Y386865D01*
X294000Y386640D01*
X292000Y386893D01*
X292016Y389312D01*
X294578Y387981D01*
D02*
G37*
G36*
X483979Y374900D02*
X483846Y374893D01*
X483710Y374870D01*
X483570Y374831D01*
X483428Y374775D01*
X483283Y374702D01*
X483134Y374614D01*
X482983Y374509D01*
X482828Y374388D01*
X482671Y374250D01*
X482510Y374096D01*
X481096Y375510D01*
X481250Y375671D01*
X481509Y375983D01*
X481614Y376134D01*
X481702Y376283D01*
X481775Y376428D01*
X481830Y376570D01*
X481870Y376710D01*
X481893Y376846D01*
X481900Y376979D01*
X483979Y374900D01*
D02*
G37*
G36*
X326500Y371530D02*
X326401Y371619D01*
X326289Y371699D01*
X326162Y371770D01*
X326022Y371831D01*
X325868Y371883D01*
X325701Y371925D01*
X325519Y371958D01*
X325325Y371981D01*
X325116Y371995D01*
X324893Y372000D01*
Y374000D01*
X325116Y374005D01*
X325519Y374042D01*
X325701Y374075D01*
X325868Y374118D01*
X326022Y374169D01*
X326162Y374230D01*
X326289Y374301D01*
X326401Y374381D01*
X326500Y374470D01*
Y371530D01*
D02*
G37*
G36*
X465979Y370900D02*
X465846Y370893D01*
X465710Y370870D01*
X465570Y370830D01*
X465428Y370775D01*
X465283Y370702D01*
X465134Y370614D01*
X464983Y370509D01*
X464828Y370388D01*
X464671Y370250D01*
X464510Y370096D01*
X463096Y371510D01*
X463250Y371671D01*
X463509Y371983D01*
X463614Y372134D01*
X463702Y372283D01*
X463775Y372428D01*
X463830Y372570D01*
X463870Y372710D01*
X463893Y372846D01*
X463900Y372979D01*
X465979Y370900D01*
D02*
G37*
G36*
X442626Y362934D02*
X442492Y362948D01*
X442356Y362944D01*
X442217Y362921D01*
X442074Y362880D01*
X441928Y362820D01*
X441780Y362741D01*
X441628Y362643D01*
X441473Y362527D01*
X441315Y362393D01*
X441153Y362239D01*
X440017Y363931D01*
X440173Y364092D01*
X440441Y364400D01*
X440554Y364547D01*
X440736Y364827D01*
X440805Y364961D01*
X440860Y365089D01*
X440900Y365213D01*
X440927Y365333D01*
X442626Y362934D01*
D02*
G37*
G36*
X327500Y357530D02*
X327401Y357619D01*
X327289Y357699D01*
X327162Y357770D01*
X327022Y357831D01*
X326868Y357882D01*
X326701Y357925D01*
X326519Y357958D01*
X326325Y357981D01*
X326116Y357995D01*
X325893Y358000D01*
Y360000D01*
X326116Y360005D01*
X326519Y360042D01*
X326701Y360075D01*
X326868Y360117D01*
X327022Y360169D01*
X327162Y360230D01*
X327289Y360301D01*
X327401Y360381D01*
X327500Y360470D01*
Y357530D01*
D02*
G37*
G36*
X311599Y350381D02*
X311711Y350301D01*
X311838Y350230D01*
X311978Y350169D01*
X312132Y350117D01*
X312299Y350075D01*
X312481Y350042D01*
X312675Y350019D01*
X312884Y350005D01*
X313107Y350000D01*
Y348000D01*
X312884Y347995D01*
X312481Y347958D01*
X312299Y347925D01*
X312132Y347882D01*
X311978Y347831D01*
X311838Y347770D01*
X311711Y347699D01*
X311599Y347619D01*
X311500Y347530D01*
Y350470D01*
X311599Y350381D01*
D02*
G37*
G36*
X353268Y347593D02*
X341733Y336059D01*
X328791D01*
X328785Y336059D01*
X328731Y336069D01*
X328728Y336070D01*
X328322Y336476D01*
X326816Y337100D01*
X325185D01*
X323678Y336476D01*
X322524Y335322D01*
X321900Y333815D01*
Y332184D01*
X322524Y330677D01*
X323678Y329524D01*
X325185Y328900D01*
X326816D01*
X328322Y329524D01*
X328728Y329930D01*
X328731Y329931D01*
X328758Y329935D01*
X328819Y329941D01*
X339002D01*
X339768Y328093D01*
X331811Y320137D01*
X331806Y320133D01*
X331761Y320102D01*
X331758Y320100D01*
X331185D01*
X329678Y319476D01*
X328524Y318323D01*
X327900Y316815D01*
Y315184D01*
X328524Y313678D01*
X329678Y312524D01*
X331185Y311900D01*
X332816D01*
X333597Y312224D01*
X334730Y310528D01*
X334524Y310322D01*
X333900Y308815D01*
Y307185D01*
X334524Y305678D01*
X335678Y304524D01*
X337184Y303900D01*
X338816D01*
X340322Y304524D01*
X341476Y305678D01*
X342100Y307185D01*
Y307758D01*
X342102Y307761D01*
X342117Y307783D01*
X342156Y307831D01*
X368767Y334441D01*
X434502D01*
X435268Y332593D01*
X430733Y328059D01*
X372500D01*
X371329Y327826D01*
X370337Y327163D01*
X345486Y302312D01*
X345322Y302476D01*
X343815Y303100D01*
X342184D01*
X340678Y302476D01*
X339524Y301322D01*
X339321Y300833D01*
X337052Y300273D01*
X304059Y333267D01*
Y347403D01*
X306059Y347801D01*
X306524Y346678D01*
X307677Y345524D01*
X309184Y344900D01*
X310816D01*
X312322Y345524D01*
X312728Y345930D01*
X312731Y345931D01*
X312758Y345936D01*
X312819Y345941D01*
X335000D01*
X335000Y345941D01*
X336171Y346174D01*
X337163Y346837D01*
X339767Y349441D01*
X352502D01*
X353268Y347593D01*
D02*
G37*
G36*
X327599Y334381D02*
X327711Y334301D01*
X327838Y334230D01*
X327978Y334169D01*
X328132Y334118D01*
X328299Y334075D01*
X328481Y334042D01*
X328675Y334019D01*
X328884Y334005D01*
X329107Y334000D01*
Y332000D01*
X328884Y331995D01*
X328481Y331958D01*
X328299Y331925D01*
X328132Y331883D01*
X327978Y331831D01*
X327838Y331770D01*
X327711Y331699D01*
X327599Y331619D01*
X327500Y331530D01*
Y334470D01*
X327599Y334381D01*
D02*
G37*
G36*
X334904Y317490D02*
X334750Y317329D01*
X334491Y317017D01*
X334386Y316866D01*
X334298Y316717D01*
X334225Y316572D01*
X334170Y316430D01*
X334130Y316290D01*
X334107Y316154D01*
X334100Y316021D01*
X332021Y318100D01*
X332154Y318107D01*
X332290Y318130D01*
X332430Y318169D01*
X332572Y318225D01*
X332717Y318298D01*
X332866Y318386D01*
X333017Y318491D01*
X333172Y318612D01*
X333329Y318750D01*
X333490Y318904D01*
X334904Y317490D01*
D02*
G37*
G36*
X340904Y309490D02*
X340750Y309329D01*
X340491Y309017D01*
X340386Y308866D01*
X340298Y308717D01*
X340225Y308572D01*
X340169Y308430D01*
X340130Y308290D01*
X340107Y308154D01*
X340100Y308021D01*
X338021Y310100D01*
X338154Y310107D01*
X338290Y310130D01*
X338430Y310170D01*
X338572Y310225D01*
X338717Y310298D01*
X338866Y310386D01*
X339017Y310491D01*
X339171Y310612D01*
X339329Y310750D01*
X339490Y310904D01*
X340904Y309490D01*
D02*
G37*
G36*
X376979Y303900D02*
X376846Y303893D01*
X376710Y303870D01*
X376570Y303831D01*
X376428Y303775D01*
X376283Y303702D01*
X376134Y303614D01*
X375983Y303509D01*
X375829Y303388D01*
X375671Y303250D01*
X375510Y303096D01*
X374096Y304510D01*
X374250Y304671D01*
X374509Y304983D01*
X374614Y305134D01*
X374702Y305283D01*
X374775Y305428D01*
X374831Y305570D01*
X374870Y305710D01*
X374893Y305846D01*
X374900Y305979D01*
X376979Y303900D01*
D02*
G37*
G36*
X344599Y300381D02*
X344711Y300301D01*
X344838Y300230D01*
X344978Y300169D01*
X345132Y300117D01*
X345299Y300075D01*
X345481Y300042D01*
X345676Y300019D01*
X345884Y300005D01*
X346107Y300000D01*
Y298000D01*
X345884Y297995D01*
X345481Y297958D01*
X345299Y297925D01*
X345132Y297882D01*
X344978Y297831D01*
X344838Y297770D01*
X344711Y297699D01*
X344599Y297619D01*
X344500Y297530D01*
Y300470D01*
X344599Y300381D01*
D02*
G37*
G36*
X376979Y296900D02*
X376846Y296893D01*
X376710Y296870D01*
X376570Y296831D01*
X376428Y296775D01*
X376283Y296702D01*
X376134Y296614D01*
X375983Y296509D01*
X375829Y296388D01*
X375671Y296250D01*
X375510Y296096D01*
X374096Y297510D01*
X374250Y297671D01*
X374509Y297983D01*
X374614Y298134D01*
X374702Y298283D01*
X374775Y298428D01*
X374831Y298570D01*
X374870Y298710D01*
X374893Y298846D01*
X374900Y298979D01*
X376979Y296900D01*
D02*
G37*
G36*
X377979Y289900D02*
X377846Y289893D01*
X377710Y289870D01*
X377570Y289830D01*
X377428Y289775D01*
X377283Y289702D01*
X377134Y289614D01*
X376983Y289509D01*
X376828Y289388D01*
X376671Y289250D01*
X376510Y289096D01*
X375096Y290510D01*
X375250Y290671D01*
X375509Y290983D01*
X375614Y291134D01*
X375702Y291283D01*
X375775Y291428D01*
X375830Y291570D01*
X375870Y291710D01*
X375893Y291846D01*
X375900Y291979D01*
X377979Y289900D01*
D02*
G37*
G36*
X378979Y283900D02*
X378846Y283893D01*
X378710Y283870D01*
X378570Y283831D01*
X378428Y283775D01*
X378283Y283702D01*
X378134Y283614D01*
X377983Y283509D01*
X377828Y283388D01*
X377671Y283250D01*
X377510Y283096D01*
X376096Y284510D01*
X376250Y284671D01*
X376509Y284983D01*
X376614Y285134D01*
X376702Y285283D01*
X376775Y285428D01*
X376830Y285570D01*
X376870Y285710D01*
X376893Y285846D01*
X376900Y285979D01*
X378979Y283900D01*
D02*
G37*
G36*
X379311Y278016D02*
X379282Y278016D01*
X379240Y278000D01*
X379185Y277968D01*
X379117Y277919D01*
X379036Y277855D01*
X378715Y277566D01*
X378436Y277293D01*
X377044Y278729D01*
X377924Y279683D01*
X379311Y278016D01*
D02*
G37*
G36*
X376312Y274984D02*
X374981Y272421D01*
X374938Y272531D01*
X374875Y272630D01*
X374791Y272717D01*
X374687Y272792D01*
X374563Y272855D01*
X374419Y272908D01*
X374254Y272948D01*
X374070Y272977D01*
X373865Y272994D01*
X373640Y273000D01*
X373893Y275000D01*
X376312Y274984D01*
D02*
G37*
G36*
X374471Y269679D02*
X374784Y269425D01*
X374936Y269324D01*
X375085Y269241D01*
X375231Y269176D01*
X375374Y269128D01*
X375515Y269097D01*
X375653Y269084D01*
X375787Y269089D01*
X373907Y266829D01*
X373889Y266957D01*
X373856Y267088D01*
X373808Y267223D01*
X373744Y267362D01*
X373665Y267504D01*
X373572Y267650D01*
X373462Y267800D01*
X373198Y268110D01*
X373044Y268271D01*
X374310Y269833D01*
X374471Y269679D01*
D02*
G37*
G36*
X515392Y296428D02*
X515298Y296332D01*
X515213Y296223D01*
X515138Y296099D01*
X515073Y295962D01*
X515018Y295810D01*
X514973Y295644D01*
X514939Y295464D01*
X514914Y295270D01*
X514899Y295062D01*
X514894Y294840D01*
X512894Y294955D01*
X512889Y295178D01*
X512854Y295583D01*
X512824Y295765D01*
X512784Y295934D01*
X512736Y296089D01*
X512679Y296231D01*
X512614Y296360D01*
X512539Y296475D01*
X512456Y296577D01*
X515392Y296428D01*
D02*
G37*
G36*
X456599Y267381D02*
X456711Y267301D01*
X456838Y267230D01*
X456978Y267169D01*
X457132Y267118D01*
X457299Y267075D01*
X457481Y267042D01*
X457676Y267019D01*
X457884Y267005D01*
X458107Y267000D01*
Y265000D01*
X457884Y264995D01*
X457481Y264958D01*
X457299Y264925D01*
X457132Y264883D01*
X456978Y264831D01*
X456838Y264770D01*
X456711Y264699D01*
X456599Y264619D01*
X456500Y264530D01*
Y267470D01*
X456599Y267381D01*
D02*
G37*
D12*
X372500Y325000D02*
X432000D01*
X484000Y377000D01*
X912000Y470000D02*
Y496000D01*
X865000Y423000D02*
X912000Y470000D01*
X662500Y344500D02*
X730000Y277000D01*
X662500Y344500D02*
Y345000D01*
X640000Y340000D02*
X722000Y258000D01*
X630000Y340000D02*
X640000D01*
X274500Y535750D02*
X305750Y567000D01*
X418500D02*
X447750Y537750D01*
X305750Y567000D02*
X418500D01*
X346500Y299000D02*
X372500Y325000D01*
X343000Y299000D02*
X346500D01*
X582000Y372250D02*
X596500Y386750D01*
Y408500D01*
X582000Y296000D02*
Y372250D01*
X548500Y496490D02*
X548505Y496495D01*
Y498505D01*
X559750Y509750D02*
X572250D01*
X548505Y498505D02*
X559750Y509750D01*
X572250D02*
X642500Y580000D01*
X513894Y288894D02*
Y297894D01*
X491000Y266000D02*
X513894Y288894D01*
X455000Y266000D02*
X491000D01*
X513894Y297894D02*
X514000Y298000D01*
X540000Y287500D02*
X542500Y285000D01*
X540000Y287500D02*
Y332000D01*
X842500Y542500D02*
X860500D01*
X878000Y525000D01*
X833000Y552000D02*
X842500Y542500D01*
X820000Y552500D02*
X835000Y537500D01*
X850000D01*
X820000Y545000D02*
X832500Y532500D01*
X845000D01*
X850000Y356000D02*
Y429000D01*
X849000Y355000D02*
X850000Y356000D01*
Y429000D02*
X888000Y467000D01*
Y613000D01*
X925000Y650000D01*
X601000Y271000D02*
X621000D01*
X568000Y304000D02*
X601000Y271000D01*
X568000Y313000D02*
X571000Y316000D01*
X568000Y304000D02*
Y313000D01*
X599000Y279000D02*
X620000D01*
X582000Y296000D02*
X599000Y279000D01*
X559000Y306000D02*
Y321000D01*
Y306000D02*
X606000Y259000D01*
X540000Y332000D02*
X546000Y338000D01*
X606000Y259000D02*
X619000D01*
X711000Y368000D02*
X790000D01*
X710000D02*
X711000D01*
X893000Y558000D02*
X925000Y590000D01*
X893000Y470000D02*
Y558000D01*
X860000Y425000D02*
X900000Y465000D01*
X923000Y550000D02*
X928623D01*
X900000Y465000D02*
Y527000D01*
X923000Y550000D01*
X855000Y427000D02*
X893000Y465000D01*
Y470000D01*
X860000Y376000D02*
Y425000D01*
Y376000D02*
X866000Y370000D01*
X855000Y372000D02*
X861000Y366000D01*
X855000Y372000D02*
Y427000D01*
X592100Y360900D02*
Y361305D01*
X591000Y362405D02*
X592100Y361305D01*
Y360900D02*
X608000Y345000D01*
X591000Y362405D02*
Y363000D01*
X596250Y408750D02*
X596500Y408500D01*
X357500Y347500D02*
X432500D01*
X343000Y333000D02*
X357500Y347500D01*
X326000Y333000D02*
X343000D01*
X301000Y332000D02*
X339000Y294000D01*
X301000Y350000D02*
X310000Y359000D01*
X301000Y332000D02*
Y350000D01*
X297000Y353000D02*
X317000Y373000D01*
X297000Y330000D02*
X337000Y290000D01*
X297000Y330000D02*
Y353000D01*
X293000Y388405D02*
X294000Y389405D01*
Y390000D01*
X293000Y328000D02*
Y388405D01*
X277000Y320000D02*
Y431000D01*
Y320000D02*
X327000Y270000D01*
X277000Y431000D02*
X300000Y454000D01*
X281000Y425000D02*
X294000Y438000D01*
X281000Y322000D02*
X329000Y274000D01*
X281000Y322000D02*
Y425000D01*
X285000Y324000D02*
X331000Y278000D01*
X285000Y324000D02*
Y413000D01*
X294000Y422000D01*
X289000Y326000D02*
Y401000D01*
X377728Y278000D02*
X379728Y280000D01*
X380000D01*
X327000Y270000D02*
X372728D01*
X375728Y267000D01*
X376000D01*
X329000Y274000D02*
X375405D01*
X376405Y273000D02*
X377000D01*
X375405Y274000D02*
X376405Y273000D01*
X331000Y278000D02*
X377728D01*
X289000Y326000D02*
X333000Y282000D01*
X375000D02*
X379000Y286000D01*
X333000Y282000D02*
X375000D01*
X335000Y286000D02*
X372000D01*
X293000Y328000D02*
X335000Y286000D01*
X372000D02*
X378000Y292000D01*
X289000Y401000D02*
X294000Y406000D01*
X295000Y513000D02*
X300000Y508000D01*
Y454000D02*
Y508000D01*
X365000Y294000D02*
X377000Y306000D01*
X368000Y290000D02*
X377000Y299000D01*
X337000Y290000D02*
X368000D01*
X317000Y373000D02*
X328000D01*
X339000Y294000D02*
X365000D01*
X310000Y359000D02*
X329000D01*
X338500Y352500D02*
X430000D01*
X335000Y349000D02*
X338500Y352500D01*
X310000Y349000D02*
X335000D01*
X566250Y537750D02*
X576000Y528000D01*
X582500D01*
X447750Y537750D02*
X566250D01*
X582500Y528000D02*
X602400Y547900D01*
X518000Y490000D02*
X524000Y496000D01*
X486022Y492000D02*
X488022Y490000D01*
X485750Y492000D02*
X486022D01*
X488022Y490000D02*
X518000D01*
X642500Y580000D02*
X661000D01*
X602805Y547900D02*
X613905Y559000D01*
X614500D01*
X401000Y475000D02*
X414000D01*
X483000Y406000D01*
X396000Y480000D02*
X418000D01*
X488000Y410000D01*
X391000Y485000D02*
X419595D01*
X493191Y411404D01*
X495596D01*
X496000Y411000D01*
X474900Y375305D02*
X476000Y376405D01*
X437500Y337500D02*
X474900Y374900D01*
X476000Y376405D02*
Y377000D01*
X474900Y374900D02*
Y375305D01*
X430000Y352500D02*
X442500Y365000D01*
X443000D01*
X358500Y342500D02*
X435500D01*
X466000Y373000D01*
X451900Y367305D02*
X453000Y368405D01*
X432500Y347500D02*
X451900Y366900D01*
X453000Y368405D02*
Y369000D01*
X451900Y366900D02*
Y367305D01*
X602400Y547900D02*
X602805D01*
X710000Y580000D02*
Y580000D01*
Y580000D02*
X751500Y538500D01*
X654500Y413750D02*
X655022D01*
X656772Y412000D02*
X665250D01*
X655022Y413750D02*
X656772Y412000D01*
X658022Y419500D02*
X660022Y417500D01*
X657750Y419500D02*
X658022D01*
X660022Y417500D02*
X672250D01*
X274500Y480750D02*
Y535750D01*
Y480750D02*
X284250Y471000D01*
X464750Y473750D02*
X465000D01*
X488500Y450250D01*
X492579Y421421D02*
X493000Y421000D01*
X490579Y421421D02*
X492579D01*
X360000Y552000D02*
X490579Y421421D01*
X318000Y552000D02*
X360000D01*
X349000Y612000D02*
X505000D01*
X347000Y627000D02*
X391000D01*
X393728Y632000D02*
X395728Y630000D01*
X396000D01*
X348000Y632000D02*
X393728D01*
X398000Y637000D02*
X401000Y634000D01*
X349000Y637000D02*
X398000D01*
X751000Y408000D02*
X770000D01*
X832000Y346000D01*
X367500Y337500D02*
X437500D01*
X338000Y308000D02*
X367500Y337500D01*
X332106Y316106D02*
X358500Y342500D01*
X333000Y596000D02*
X349000Y612000D01*
X314000Y617000D02*
X501000D01*
X301000Y685000D02*
X349000Y637000D01*
X310000Y670000D02*
X348000Y632000D01*
X320000Y654000D02*
X347000Y627000D01*
X323000Y644000D02*
X345000Y622000D01*
X496000D01*
X294000Y637000D02*
X314000Y617000D01*
X294000Y654000D02*
X320000D01*
X294000Y670000D02*
X310000D01*
X294000Y685000D02*
X301000D01*
X912000Y496000D02*
X920000Y504000D01*
X928000D01*
X921482Y610000D02*
X925000D01*
X692000Y338000D02*
X764000D01*
X608000Y345000D02*
X644000D01*
X612500Y440500D02*
Y448500D01*
X612505Y448505D01*
X600250Y365250D02*
X600467Y365467D01*
X611533D01*
X572500Y407905D02*
Y408500D01*
X644000Y345000D02*
X725000Y264000D01*
X648000Y350000D02*
X727000Y271000D01*
X618000Y350000D02*
X648000D01*
X623000Y354000D02*
X662000D01*
X728000Y288000D01*
X611533Y365467D02*
X623000Y354000D01*
X728000Y288000D02*
X761000D01*
X722000Y258000D02*
X811000D01*
X725000Y264000D02*
X797000D01*
X727000Y271000D02*
X784000D01*
X730000Y277000D02*
X770000D01*
X811000Y258000D02*
X841000Y288000D01*
X797000Y264000D02*
X821000Y288000D01*
X784000Y271000D02*
X801000Y288000D01*
X770000Y277000D02*
X781000Y288000D01*
X696000Y343000D02*
X768000D01*
X699000Y348000D02*
X772000D01*
X702000Y353000D02*
X776000D01*
X705000Y358000D02*
X780000D01*
X708000Y363000D02*
X785000D01*
X563905Y440500D02*
X564500D01*
D18*
X555400Y413000D02*
D03*
X546600D02*
D03*
X571600Y448000D02*
D03*
X580400D02*
D03*
X621600Y474000D02*
D03*
X630400D02*
D03*
X622600Y454000D02*
D03*
X631400D02*
D03*
X555400Y434000D02*
D03*
X546600D02*
D03*
Y423000D02*
D03*
X555400D02*
D03*
Y457000D02*
D03*
X546600D02*
D03*
X631400Y464000D02*
D03*
X622600D02*
D03*
X631400Y427000D02*
D03*
X622600D02*
D03*
X631400Y417000D02*
D03*
X622600D02*
D03*
X556400Y477000D02*
D03*
X547600D02*
D03*
Y467000D02*
D03*
X556400D02*
D03*
D21*
X563000Y401400D02*
D03*
Y392600D02*
D03*
X614371Y407120D02*
D03*
Y415920D02*
D03*
X577000Y483600D02*
D03*
Y492400D02*
D03*
X567000D02*
D03*
Y483600D02*
D03*
X612000Y482600D02*
D03*
Y491400D02*
D03*
X600000D02*
D03*
Y482600D02*
D03*
X588500Y464100D02*
D03*
Y472900D02*
D03*
Y410100D02*
D03*
Y418900D02*
D03*
Y437900D02*
D03*
Y429100D02*
D03*
D31*
Y486750D02*
D03*
Y500250D02*
D03*
D32*
X742750Y538500D02*
D03*
X469000Y324000D02*
D03*
X733250Y389000D02*
D03*
X662500Y360000D02*
D03*
X670000Y302500D02*
D03*
X655000Y360000D02*
D03*
X662500Y345000D02*
D03*
X715000Y255000D02*
D03*
X705000D02*
D03*
X421250Y507250D02*
D03*
X455250Y508750D02*
D03*
X461750Y500250D02*
D03*
X339000Y396000D02*
D03*
X310000Y390000D02*
D03*
X476000Y551000D02*
D03*
X517000Y531000D02*
D03*
X378000Y669000D02*
D03*
X411000Y658000D02*
D03*
X412000Y596000D02*
D03*
X407000Y525000D02*
D03*
Y576000D02*
D03*
X306000Y514000D02*
D03*
X352000Y546750D02*
D03*
X379000Y561000D02*
D03*
X767000Y491000D02*
D03*
X772000Y525000D02*
D03*
X779000Y501000D02*
D03*
X794000Y525000D02*
D03*
X505750Y629500D02*
D03*
X556735Y585789D02*
D03*
X598750Y569500D02*
D03*
X572750D02*
D03*
X670750Y429500D02*
D03*
X770750Y396500D02*
D03*
X684750Y404500D02*
D03*
X729000Y433000D02*
D03*
X728750Y444500D02*
D03*
X701750Y519500D02*
D03*
X689750Y509500D02*
D03*
X700750Y494500D02*
D03*
X690750Y477500D02*
D03*
X623502Y550208D02*
D03*
X466750Y583500D02*
D03*
X446750Y597500D02*
D03*
X404000Y466000D02*
D03*
X392750Y415500D02*
D03*
X405750Y359500D02*
D03*
X450750Y416500D02*
D03*
X449750Y397500D02*
D03*
X458750Y379500D02*
D03*
X491750Y396500D02*
D03*
X458000Y406000D02*
D03*
X256000Y315500D02*
D03*
X407000Y259250D02*
D03*
X408000Y297250D02*
D03*
X389000Y312250D02*
D03*
X378000Y332000D02*
D03*
X365000Y327750D02*
D03*
X377500Y387750D02*
D03*
X365000Y417750D02*
D03*
X377500Y427750D02*
D03*
X350000D02*
D03*
X557000Y278000D02*
D03*
X584250Y270250D02*
D03*
X571500Y285000D02*
D03*
X563000Y359500D02*
D03*
X580500Y378250D02*
D03*
X624500Y516500D02*
D03*
X604500Y504500D02*
D03*
X548500Y496490D02*
D03*
X564500Y504500D02*
D03*
X595000Y525000D02*
D03*
X590000Y515000D02*
D03*
X858000Y286000D02*
D03*
X880000Y315000D02*
D03*
X812500Y269750D02*
D03*
X440000Y324000D02*
D03*
X460000Y305000D02*
D03*
X501000Y325000D02*
D03*
X514000Y298000D02*
D03*
X542500Y285000D02*
D03*
X345000Y242500D02*
D03*
X380000Y240000D02*
D03*
X867500Y550000D02*
D03*
X850000Y537500D02*
D03*
X845000Y532500D02*
D03*
X880000Y550000D02*
D03*
X654000Y254000D02*
D03*
X665000D02*
D03*
X849000Y355000D02*
D03*
X543000Y259000D02*
D03*
X588000Y252000D02*
D03*
X576000D02*
D03*
X554000D02*
D03*
X521000Y253000D02*
D03*
X526000Y248000D02*
D03*
X515000Y258000D02*
D03*
X531000Y243000D02*
D03*
X621000Y271000D02*
D03*
X620000Y279000D02*
D03*
X556505Y400505D02*
D03*
X571000Y316000D02*
D03*
X559000Y321000D02*
D03*
X554000Y304000D02*
D03*
X546000Y338000D02*
D03*
X544000Y272000D02*
D03*
X619000Y259000D02*
D03*
X620000Y286000D02*
D03*
X575000Y305000D02*
D03*
X588000D02*
D03*
X594000Y316000D02*
D03*
X653000Y274000D02*
D03*
X642000Y316000D02*
D03*
X630000D02*
D03*
X618000D02*
D03*
X606000D02*
D03*
X622000Y299000D02*
D03*
X866000Y370000D02*
D03*
X861000Y366000D02*
D03*
X455000Y266000D02*
D03*
X575000Y226000D02*
D03*
X591000Y363000D02*
D03*
X380000Y280000D02*
D03*
X376000Y267000D02*
D03*
X377000Y273000D02*
D03*
X379000Y286000D02*
D03*
X378000Y292000D02*
D03*
X377000Y306000D02*
D03*
Y299000D02*
D03*
X329000Y359000D02*
D03*
X328000Y373000D02*
D03*
X294000Y390000D02*
D03*
Y406000D02*
D03*
Y422000D02*
D03*
Y438000D02*
D03*
X295000Y513000D02*
D03*
X703000Y455000D02*
D03*
X556500Y488500D02*
D03*
X661000Y580000D02*
D03*
X580000Y537500D02*
D03*
X585000Y542500D02*
D03*
X590000Y547500D02*
D03*
X614500Y559000D02*
D03*
X465000Y565000D02*
D03*
Y556000D02*
D03*
Y549000D02*
D03*
X483000Y406000D02*
D03*
X488000Y410000D02*
D03*
X496000Y411000D02*
D03*
X484000Y377000D02*
D03*
X476000D02*
D03*
X443000Y365000D02*
D03*
X466000Y373000D02*
D03*
X453000Y369000D02*
D03*
X764000Y507750D02*
D03*
X749750Y493250D02*
D03*
X751500Y538500D02*
D03*
X740500Y493000D02*
D03*
X654500Y413750D02*
D03*
X657750Y419500D02*
D03*
X672250Y417500D02*
D03*
X665250Y412000D02*
D03*
X656500Y388250D02*
D03*
X523750Y496000D02*
D03*
X378250Y515000D02*
D03*
X284250Y471000D02*
D03*
X485750Y492000D02*
D03*
X488500Y450250D02*
D03*
X520250Y452750D02*
D03*
X464750Y473750D02*
D03*
X532490Y424500D02*
D03*
X520000Y427500D02*
D03*
X493000Y421000D02*
D03*
X492250Y437250D02*
D03*
X525750Y382000D02*
D03*
X521750Y388500D02*
D03*
X560000Y381000D02*
D03*
X616750Y378750D02*
D03*
X624500Y370750D02*
D03*
X628495Y408495D02*
D03*
X528500Y515750D02*
D03*
X517000Y511000D02*
D03*
X453000Y565000D02*
D03*
X448000Y560000D02*
D03*
X452000Y579000D02*
D03*
X439000Y554000D02*
D03*
X505000Y612000D02*
D03*
X391000Y485000D02*
D03*
X396000Y480000D02*
D03*
X401000Y475000D02*
D03*
X391000Y627000D02*
D03*
X396000Y630000D02*
D03*
X401000Y634000D02*
D03*
X439000Y314000D02*
D03*
X478000Y293000D02*
D03*
X751000Y408000D02*
D03*
X735000Y411000D02*
D03*
X726000Y420000D02*
D03*
X548500Y400500D02*
D03*
X450000Y527500D02*
D03*
X332000Y316000D02*
D03*
X338000Y308000D02*
D03*
X343000Y299000D02*
D03*
X435000Y405000D02*
D03*
X436000Y500000D02*
D03*
Y587000D02*
D03*
Y677000D02*
D03*
X310000Y349000D02*
D03*
X326000Y333000D02*
D03*
X318000Y552000D02*
D03*
X333000Y596000D02*
D03*
X501000Y617000D02*
D03*
X496000Y622000D02*
D03*
X323000Y644000D02*
D03*
X359062Y595241D02*
D03*
X865000Y423000D02*
D03*
X928000Y504000D02*
D03*
X832000Y346000D02*
D03*
X881000Y497000D02*
D03*
X875000Y486000D02*
D03*
X878000Y525000D02*
D03*
X893000Y470000D02*
D03*
X833000Y552000D02*
D03*
X868000Y621000D02*
D03*
X644500Y424510D02*
D03*
X711000Y432000D02*
D03*
Y416000D02*
D03*
X635250Y360000D02*
D03*
X620500Y408510D02*
D03*
X612500Y400500D02*
D03*
X636500Y408500D02*
D03*
X636500Y448490D02*
D03*
X636510Y432500D02*
D03*
X697500Y262500D02*
D03*
X733000Y302000D02*
D03*
X910000Y335000D02*
D03*
X930000Y315000D02*
D03*
X910000Y295000D02*
D03*
X871000Y389000D02*
D03*
X858000Y356000D02*
D03*
X695000Y642500D02*
D03*
X697500Y672500D02*
D03*
X582500Y670000D02*
D03*
X592500Y692500D02*
D03*
X458000Y240000D02*
D03*
X496000Y283000D02*
D03*
X604500Y408500D02*
D03*
X596250Y379250D02*
D03*
Y408750D02*
D03*
X612505Y464505D02*
D03*
X621250Y576750D02*
D03*
X790000Y563000D02*
D03*
X810000Y545000D02*
D03*
X744500Y522000D02*
D03*
X703000Y440000D02*
D03*
X707500Y325000D02*
D03*
X650500Y301000D02*
D03*
X677500Y287500D02*
D03*
X392000Y667000D02*
D03*
X377000Y605000D02*
D03*
X339000Y677000D02*
D03*
X245000Y683000D02*
D03*
X400000Y675000D02*
D03*
X472500Y677500D02*
D03*
X502500D02*
D03*
X487500Y665000D02*
D03*
X525000Y677500D02*
D03*
X542500Y680000D02*
D03*
X520000Y662500D02*
D03*
X532500Y645000D02*
D03*
X533000Y621000D02*
D03*
X510000Y645000D02*
D03*
X491000D02*
D03*
X454000Y666000D02*
D03*
X470000Y646000D02*
D03*
X552500Y625000D02*
D03*
X552000Y604000D02*
D03*
X597000Y597000D02*
D03*
X765000Y680000D02*
D03*
X755000D02*
D03*
X745000D02*
D03*
X757500Y632500D02*
D03*
X705000Y595000D02*
D03*
X667500Y625000D02*
D03*
Y600000D02*
D03*
X632500D02*
D03*
X647500Y615000D02*
D03*
Y630000D02*
D03*
Y645000D02*
D03*
X630000Y660000D02*
D03*
X657500Y680000D02*
D03*
X645000D02*
D03*
X632500D02*
D03*
X697500Y712500D02*
D03*
X757500D02*
D03*
X810000Y710000D02*
D03*
X802500Y667500D02*
D03*
X900000Y670000D02*
D03*
X862500Y650000D02*
D03*
Y665000D02*
D03*
X852500Y677500D02*
D03*
X812500Y595000D02*
D03*
X775000Y625000D02*
D03*
Y600000D02*
D03*
X747500D02*
D03*
X742500Y657500D02*
D03*
X755000Y645000D02*
D03*
X855000Y600000D02*
D03*
X862500Y712500D02*
D03*
X917500D02*
D03*
X940000Y652500D02*
D03*
X942000Y609000D02*
D03*
X875000Y580000D02*
D03*
X842500Y565000D02*
D03*
X940000Y506000D02*
D03*
X881000Y508000D02*
D03*
X852000Y462000D02*
D03*
X822500Y382500D02*
D03*
X820000Y367500D02*
D03*
X842500Y395000D02*
D03*
X890000Y390000D02*
D03*
Y439000D02*
D03*
X922500Y452500D02*
D03*
X865000Y456000D02*
D03*
X940000Y452000D02*
D03*
Y399000D02*
D03*
Y345000D02*
D03*
Y285000D02*
D03*
X942500Y227500D02*
D03*
X880000D02*
D03*
X807000Y226000D02*
D03*
X737000D02*
D03*
X647000D02*
D03*
X484000Y227000D02*
D03*
X427500Y227500D02*
D03*
X347500D02*
D03*
X292500D02*
D03*
X366250Y507000D02*
D03*
X710000Y580000D02*
D03*
X644495Y448505D02*
D03*
X657000Y451000D02*
D03*
X654000Y509000D02*
D03*
Y490000D02*
D03*
X294000Y637000D02*
D03*
Y654000D02*
D03*
Y670000D02*
D03*
Y685000D02*
D03*
X851000Y454000D02*
D03*
X853000Y443000D02*
D03*
X815000Y455000D02*
D03*
Y470000D02*
D03*
Y440000D02*
D03*
X800000D02*
D03*
X785000D02*
D03*
X800000Y455000D02*
D03*
Y470000D02*
D03*
X785000D02*
D03*
Y455000D02*
D03*
X848000Y479000D02*
D03*
X877000Y517000D02*
D03*
X869000Y526000D02*
D03*
X820000Y545000D02*
D03*
Y552500D02*
D03*
X648000Y515000D02*
D03*
X604250Y400750D02*
D03*
X692000Y338000D02*
D03*
X654000Y317000D02*
D03*
X520000Y275000D02*
D03*
X520000Y285000D02*
D03*
X520000Y305000D02*
D03*
X540495Y432505D02*
D03*
X540505Y424505D02*
D03*
Y416505D02*
D03*
X540500Y456500D02*
D03*
X636495Y472505D02*
D03*
X600000Y327000D02*
D03*
X588000Y343000D02*
D03*
X636505Y480495D02*
D03*
X588500Y456250D02*
D03*
Y448500D02*
D03*
X604250D02*
D03*
X596500D02*
D03*
X602000Y676000D02*
D03*
X620000D02*
D03*
X715000Y674000D02*
D03*
X733000D02*
D03*
X840000D02*
D03*
X822000D02*
D03*
X831000Y668000D02*
D03*
Y660000D02*
D03*
Y653000D02*
D03*
Y646000D02*
D03*
X840000Y657500D02*
D03*
X822500D02*
D03*
X724000Y670000D02*
D03*
Y662000D02*
D03*
X715000Y657500D02*
D03*
X733000Y658000D02*
D03*
X724000Y652000D02*
D03*
Y645000D02*
D03*
X602000Y659000D02*
D03*
X620000D02*
D03*
X611000Y647000D02*
D03*
Y654000D02*
D03*
Y662000D02*
D03*
Y670000D02*
D03*
X687500Y700000D02*
D03*
X677500Y707500D02*
D03*
X667500Y700000D02*
D03*
X588505Y400495D02*
D03*
X580495Y400495D02*
D03*
X580500Y392490D02*
D03*
X644505Y440505D02*
D03*
X636500Y456490D02*
D03*
X636500Y464500D02*
D03*
X540500D02*
D03*
Y472500D02*
D03*
X556500Y496500D02*
D03*
X588495Y424495D02*
D03*
X612505Y448505D02*
D03*
X620495Y448505D02*
D03*
Y432505D02*
D03*
X604500Y480490D02*
D03*
X572495Y480495D02*
D03*
X588505Y480505D02*
D03*
X606000Y359750D02*
D03*
X600250Y365250D02*
D03*
X581000Y409000D02*
D03*
X587450Y332000D02*
D03*
X630000Y340000D02*
D03*
X618000Y350000D02*
D03*
X696000Y343000D02*
D03*
X699000Y348000D02*
D03*
X702000Y353000D02*
D03*
X705000Y358000D02*
D03*
X708000Y363000D02*
D03*
X711000Y368000D02*
D03*
X790000D02*
D03*
X785000Y363000D02*
D03*
X780000Y358000D02*
D03*
X776000Y353000D02*
D03*
X772000Y348000D02*
D03*
X768000Y343000D02*
D03*
X764000Y338000D02*
D03*
X735000Y522000D02*
D03*
X738000Y450000D02*
D03*
X617000Y372000D02*
D03*
X642000Y359000D02*
D03*
X540505Y480495D02*
D03*
X802000Y644000D02*
D03*
X766000Y650000D02*
D03*
X661000Y651000D02*
D03*
X580000Y645000D02*
D03*
X545000Y651000D02*
D03*
X532500Y702500D02*
D03*
Y687500D02*
D03*
Y695000D02*
D03*
X522500Y690000D02*
D03*
Y697500D02*
D03*
Y705000D02*
D03*
X562500Y707500D02*
D03*
X572500Y700000D02*
D03*
X552500D02*
D03*
X795000Y697500D02*
D03*
X785000Y707500D02*
D03*
X775000Y697500D02*
D03*
X649000Y290000D02*
D03*
X825000Y412000D02*
D03*
X839000Y404000D02*
D03*
X764000Y516000D02*
D03*
X845000Y500000D02*
D03*
X755000Y449000D02*
D03*
X232500Y470000D02*
D03*
Y462500D02*
D03*
X240000Y467500D02*
D03*
X350000Y695000D02*
D03*
X337500D02*
D03*
X636500Y416500D02*
D03*
X564500Y440500D02*
D03*
X540500Y408500D02*
D03*
X596500Y440500D02*
D03*
X580500Y456500D02*
D03*
X596500D02*
D03*
X580500Y432500D02*
D03*
X596500D02*
D03*
X572500Y440500D02*
D03*
X604500D02*
D03*
X572500Y456500D02*
D03*
X604500D02*
D03*
X580500Y464500D02*
D03*
X596500D02*
D03*
X572500Y432500D02*
D03*
X604500D02*
D03*
X572500Y464500D02*
D03*
X604500D02*
D03*
X580500Y424500D02*
D03*
X596500D02*
D03*
X612500Y440500D02*
D03*
X564500Y456500D02*
D03*
X612500D02*
D03*
X580500Y472500D02*
D03*
X596500D02*
D03*
X572500Y424500D02*
D03*
X604500D02*
D03*
X564500Y432500D02*
D03*
X612500D02*
D03*
X564500Y464500D02*
D03*
X572500Y472500D02*
D03*
X604500D02*
D03*
X580500Y416500D02*
D03*
X596500D02*
D03*
X564500Y424500D02*
D03*
X612500D02*
D03*
X564500Y472500D02*
D03*
X612500D02*
D03*
X572500Y416500D02*
D03*
Y408500D02*
D03*
X654000Y713000D02*
D03*
X594000D02*
D03*
X538000D02*
D03*
X490000Y712500D02*
D03*
X445000D02*
D03*
X390000D02*
D03*
X340000D02*
D03*
X295000D02*
D03*
X260000Y710000D02*
D03*
X239000D02*
D03*
X237000Y696000D02*
D03*
X245000Y477500D02*
D03*
Y227000D02*
D03*
X235000Y252500D02*
D03*
Y262500D02*
D03*
X233000Y676000D02*
D03*
X232000Y276000D02*
D03*
D36*
X542250Y446000D02*
D03*
X555750D02*
D03*
X624250Y505000D02*
D03*
X637750D02*
D03*
Y491000D02*
D03*
X624250D02*
D03*
X637000Y440500D02*
D03*
X623500D02*
D03*
D69*
X900000Y697500D02*
D03*
X890000Y250000D02*
D03*
X320000Y240000D02*
D03*
D70*
X636270Y416730D02*
X636500Y416500D01*
X631400Y417000D02*
X631670Y416730D01*
X636270D01*
X634893Y425300D02*
X635693Y424500D01*
X644425D01*
X636510Y432500D02*
X644500Y424510D01*
X612730Y405620D02*
X614230Y407120D01*
X614371D01*
X612730Y400730D02*
Y405620D01*
X612500Y400500D02*
X612730Y400730D01*
X614371Y407120D02*
X615298Y406193D01*
X617943D01*
X620260Y408510D02*
X620500D01*
X617943Y406193D02*
X620260Y408510D01*
X636500Y447750D02*
X636500Y447750D01*
X636000Y448250D02*
X636500Y447750D01*
Y448490D01*
Y441000D02*
Y447750D01*
X633500Y448250D02*
X636000D01*
X631500Y450250D02*
Y453900D01*
Y450250D02*
X633500Y448250D01*
X631400Y454000D02*
X631500Y453900D01*
X636500Y441000D02*
X637000Y440500D01*
X635955Y432459D02*
X636000Y432504D01*
X633217Y432459D02*
X635955D01*
X631750Y427350D02*
Y430993D01*
X636000Y432504D02*
Y432750D01*
X631750Y430993D02*
X633217Y432459D01*
X631400Y427000D02*
X631750Y427350D01*
X631400Y426400D02*
X631500Y426500D01*
X631400Y417000D02*
Y426400D01*
X636510Y432500D02*
Y440010D01*
X637000Y440500D01*
X631400Y426800D02*
Y427000D01*
X632900Y425300D02*
X634893D01*
X631400Y426800D02*
X632900Y425300D01*
X694400Y643425D02*
Y643775D01*
X695000Y642500D02*
Y642825D01*
X687175Y651000D02*
X694400Y643775D01*
Y643425D02*
X695000Y642825D01*
X661000Y651000D02*
X687175D01*
X851000Y445325D02*
Y454000D01*
X853000Y443000D02*
Y443325D01*
X851000Y445325D02*
X853000Y443325D01*
X547000Y457000D02*
Y466400D01*
X546000Y413000D02*
X546600Y413600D01*
Y423000D01*
Y424400D02*
X547000Y424000D01*
X546600Y424400D02*
Y434000D01*
X542250Y446000D02*
X545000Y443250D01*
Y436000D02*
Y443250D01*
Y453000D02*
X546000Y454000D01*
X545000Y448000D02*
Y453000D01*
X546000Y454000D02*
Y456400D01*
X546600Y457000D01*
X547000Y466400D02*
X547600Y467000D01*
Y468400D02*
Y477000D01*
Y468400D02*
X548000Y468000D01*
X636266Y472734D02*
X636495Y472505D01*
X631665Y472734D02*
X636266D01*
X630400Y474000D02*
X631665Y472734D01*
X587650Y411600D02*
X589250Y410000D01*
X586327Y411600D02*
X587650D01*
X584713Y413213D02*
X586327Y411600D01*
X580500Y416500D02*
X583787Y413213D01*
X584713D01*
X588500Y400500D02*
Y410100D01*
Y400500D02*
X588505Y400495D01*
X637000Y440500D02*
X637005Y440505D01*
X644505D01*
X612270Y496280D02*
X612500Y496510D01*
X612000Y491400D02*
X612270Y491670D01*
Y496280D01*
X628900Y475500D02*
X630400Y474000D01*
Y473800D02*
Y474000D01*
Y473800D02*
X631900Y472300D01*
X631400Y454200D02*
X632900Y455700D01*
X635385D02*
X636175Y456490D01*
X631400Y454000D02*
Y454200D01*
X632900Y455700D02*
X635385D01*
X636175Y456490D02*
X636500D01*
X631400Y464000D02*
X631670Y464270D01*
X636270D01*
X636500Y464500D01*
X620495Y448505D02*
X620500Y448500D01*
Y443500D02*
X623500Y440500D01*
X620500Y443500D02*
Y448500D01*
X621730Y453130D02*
X622600Y454000D01*
X621239Y452639D02*
X621730Y453130D01*
X621500Y449490D02*
X621730Y449720D01*
Y453130D01*
X621239Y450230D02*
Y452639D01*
X621010Y450000D02*
X621239Y450230D01*
X620500Y437500D02*
X623500Y440500D01*
X620500Y432510D02*
Y437500D01*
X620495Y432505D02*
X620500Y432510D01*
X611800Y482600D02*
X612000D01*
X605534Y479781D02*
X608981D01*
X604825Y480490D02*
X605534Y479781D01*
X604500Y480490D02*
X604825D01*
X608981Y479781D02*
X611800Y482600D01*
X570075Y480725D02*
X572266D01*
X572495Y480495D01*
X567000Y483600D02*
X567200D01*
X570075Y480725D01*
X573220Y482230D02*
X575630D01*
X577000Y483600D01*
X572990Y482000D02*
X573220Y482230D01*
X588500Y486750D02*
X588505Y486745D01*
Y480505D02*
Y486745D01*
X772000Y644000D02*
X802000D01*
X766000Y650000D02*
X772000Y644000D01*
X545000Y651000D02*
X574000D01*
X580000Y645000D01*
D71*
X539000Y274000D02*
X548000Y283000D01*
X545000Y295000D02*
X548000Y292000D01*
Y283000D02*
Y292000D01*
X544000Y272000D02*
X552500Y280500D01*
X549000Y296000D02*
X552500Y292500D01*
Y280500D02*
Y292500D01*
X549000Y296000D02*
Y329000D01*
X545000Y295000D02*
Y330000D01*
X539000Y268500D02*
Y274000D01*
Y268500D02*
X542500Y265000D01*
X594000D01*
X628495Y394005D02*
X662500Y360000D01*
X628495Y394005D02*
Y408495D01*
X575750Y402000D02*
X580436Y406686D01*
X575750Y350750D02*
Y402000D01*
X553000Y328000D02*
X575750Y350750D01*
X572750Y402750D02*
X576750Y406750D01*
X572750Y352750D02*
Y402750D01*
X549000Y329000D02*
X572750Y352750D01*
X545000Y330000D02*
X569750Y354750D01*
Y405155D02*
X572500Y407905D01*
X569750Y354750D02*
Y405155D01*
X596250Y375250D02*
Y379250D01*
X586000Y353000D02*
Y365000D01*
X596250Y375250D01*
X594000Y265000D02*
X605000Y254000D01*
X621000D01*
X553000Y305798D02*
X554000Y304798D01*
Y304000D02*
Y304798D01*
X553000Y305798D02*
Y328000D01*
X621000Y254000D02*
X627000Y260000D01*
X620000Y286000D02*
X627000Y279000D01*
Y260000D02*
Y279000D01*
X586000Y353000D02*
X594000Y345000D01*
X453000Y565000D02*
X465000D01*
X448000Y560000D02*
X461000D01*
X465000Y556000D01*
X439000Y554000D02*
X460000D01*
X465000Y549000D01*
X450000Y479500D02*
X492250Y437250D01*
X450000Y479500D02*
Y527500D01*
X523000Y424500D02*
X532490D01*
X520000Y427500D02*
X523000Y424500D01*
X622250Y360000D02*
X635250D01*
X600000Y382250D02*
X622250Y360000D01*
X600000Y404000D02*
X604500Y408500D01*
X600000Y382250D02*
Y404000D01*
X604250Y384750D02*
X617000Y372000D01*
X604250Y384750D02*
Y400750D01*
X594000Y333000D02*
Y345000D01*
Y333000D02*
X600000Y327000D01*
X580436Y408436D02*
X581000Y409000D01*
X580436Y406686D02*
Y408436D01*
X576750Y406750D02*
Y412250D01*
X572500Y416500D02*
X576750Y412250D01*
D72*
X724000Y630000D02*
Y645000D01*
X637750Y505000D02*
Y543750D01*
X724000Y630000D01*
Y662000D02*
Y670000D01*
Y652000D02*
Y662000D01*
Y645000D02*
Y652000D01*
D73*
X867500Y550000D02*
X880000D01*
X585000Y542500D02*
X590000Y547500D01*
X580000Y537500D02*
X585000Y542500D01*
Y542500D01*
X590000Y547500D02*
X590500D01*
X611000Y568000D01*
Y647000D02*
Y654000D01*
Y568000D02*
Y647000D01*
X289000Y695000D02*
X350000D01*
X227500Y475000D02*
Y633500D01*
X289000Y695000D01*
X227500Y475000D02*
X232500Y470000D01*
X235000Y462500D02*
X240000Y467500D01*
X232500Y462500D02*
Y470000D01*
Y462500D02*
X235000D01*
Y467500D02*
X240000D01*
X232500Y470000D02*
X235000Y467500D01*
D74*
X563000Y401400D02*
X563543Y401943D01*
X566000Y410000D02*
Y418000D01*
X563543Y407543D02*
X566000Y410000D01*
X563543Y401943D02*
Y407543D01*
X557454Y401400D02*
X563200D01*
X566000Y418000D02*
X572500Y424500D01*
X556559Y400505D02*
X557454Y401400D01*
X556505Y400505D02*
X556559D01*
X636500Y408500D02*
X651232Y423232D01*
Y469968D01*
X621832Y480463D02*
Y481232D01*
Y474232D02*
Y480463D01*
X636537D02*
X640737D01*
X622789Y489525D02*
X624250Y490986D01*
X640737Y480463D02*
X651232Y469968D01*
X621832Y480463D02*
X636473D01*
X622789Y482189D02*
Y489525D01*
X621832Y481232D02*
X622789Y482189D01*
D75*
X589000Y464000D02*
Y464300D01*
X588495Y429095D02*
X588500Y429100D01*
X588495Y424495D02*
Y429095D01*
X589000Y464300D02*
X589200Y464500D01*
X596500D01*
D76*
X624250Y491464D02*
Y504536D01*
X624482Y504768D01*
X624250Y491464D02*
X624482Y491232D01*
D77*
X925000Y590000D02*
D03*
Y610000D02*
D03*
Y630000D02*
D03*
Y550000D02*
D03*
Y570000D02*
D03*
Y650000D02*
D03*
X761000Y308000D02*
D03*
X781000Y288000D02*
D03*
Y308000D02*
D03*
X801000Y288000D02*
D03*
Y308000D02*
D03*
X821000Y288000D02*
D03*
Y308000D02*
D03*
X841000Y288000D02*
D03*
Y308000D02*
D03*
D78*
X925000Y530000D02*
D03*
X761000Y288000D02*
D03*
D79*
X612100Y464500D02*
X620150Y472550D01*
X612000Y464500D02*
X612100D01*
X621600Y473800D02*
Y474000D01*
X620350Y472550D02*
X621600Y473800D01*
X620150Y472550D02*
X620350D01*
M02*
